0
SECTION
2
HEADER
9
$INSUNITS
70
4
9
$ACADVER
1
AC1014
9
$HANDSEED
5
FFFF
0
ENDSEC
0
SECTION
2
TABLES
0
TABLE
2
VPORT
5
8
100
AcDbSymbolTable
0
ENDTAB
0
TABLE
2
LTYPE
5
5
100
AcDbSymbolTable
0
LTYPE
5
14
100
AcDbSymbolTableRecord
100
AcDbLinetypeTableRecord
2
BYBLOCK
70
0
0
LTYPE
5
15
100
AcDbSymbolTableRecord
100
AcDbLinetypeTableRecord
2
BYLAYER
70
0
0
ENDTAB
0
TABLE
2
LAYER
5
2
100
AcDbSymbolTable
70
2
0
LAYER
5
50
100
AcDbSymbolTableRecord
100
AcDbLayerTableRecord
2
0
70
0
6
CONTINUOUS
0
ENDTAB
0
TABLE
2
STYLE
5
3
100
AcDbSymbolTable
70
1
0
STYLE
5
11
100
AcDbSymbolTableRecord
100
AcDbTextStyleTableRecord
2
STANDARD
70
0
0
ENDTAB
0
TABLE
2
VIEW
5
6
100
AcDbSymbolTable
70
0
0
ENDTAB
0
TABLE
2
UCS
5
7
100
AcDbSymbolTable
70
0
0
ENDTAB
0
TABLE
2
APPID
5
9
100
AcDbSymbolTable
70
2
0
APPID
5
12
100
AcDbSymbolTableRecord
100
AcDbRegAppTableRecord
2
ACAD
70
0
0
ENDTAB
0
TABLE
2
DIMSTYLE
5
A
100
AcDbSymbolTable
70
1
0
ENDTAB
0
TABLE
2
BLOCK_RECORD
5
1
100
AcDbSymbolTable
70
1
0
BLOCK_RECORD
5
1F
100
AcDbSymbolTableRecord
100
AcDbBlockTableRecord
2
*MODEL_SPACE
0
BLOCK_RECORD
5
1B
100
AcDbSymbolTableRecord
100
AcDbBlockTableRecord
2
*PAPER_SPACE
0
ENDTAB
0
ENDSEC
0
SECTION
2
BLOCKS
0
BLOCK
5
20
100
AcDbEntity
100
AcDbBlockBegin
2
*MODEL_SPACE
0
ENDBLK
5
21
100
AcDbEntity
100
AcDbBlockEnd
0
BLOCK
5
1C
100
AcDbEntity
100
AcDbBlockBegin
2
*PAPER_SPACE
0
ENDBLK
5
1D
100
AcDbEntity
100
AcDbBlockEnd
0
ENDSEC
0
SECTION
2
ENTITIES
0
CIRCLE
5
100
100
AcDbEntity
8
0
100
AcDbCircle
10
-20.5
20
-41.000000000000007
30
0
40
1.2645000000000017
210
0
220
-0
230
1
0
CIRCLE
5
101
100
AcDbEntity
8
0
100
AcDbCircle
10
-16
20
-3.0000000894069667
30
0
40
1.2644999999999995
210
0
220
-0
230
1
0
CIRCLE
5
102
100
AcDbEntity
8
0
100
AcDbCircle
10
20.5
20
-41.000000000000007
30
0
40
1.2644999999999995
210
0
220
-0
230
1
0
CIRCLE
5
103
100
AcDbEntity
8
0
100
AcDbCircle
10
16
20
-3.0000000894069667
30
0
40
1.2644999999999995
210
0
220
-0
230
1
0
LINE
5
104
100
AcDbEntity
8
0
100
AcDbLine
10
-43.499999999999979
20
-42.499999999999986
30
0
11
-21
21
-42.5
31
0
0
LINE
5
105
100
AcDbEntity
8
0
100
AcDbLine
10
-21
20
-42.5
30
0
11
-21
21
-51.378679656440355
31
0
0
LINE
5
106
100
AcDbEntity
8
0
100
AcDbLine
10
-21
20
-51.378679656440355
30
0
11
-19.065793120121818
21
-53.312886536318544
31
0
0
ARC
5
107
100
AcDbEntity
8
0
100
AcDbCircle
10
-14.750000000000565
20
-59.749999999999268
30
0
40
7.7499999999990727
210
0
220
0
230
1
100
AcDbArc
50
123.84006312781412
51
127.58632619847425
0
LINE
5
108
100
AcDbEntity
8
0
100
AcDbLine
10
-19.477159498634492
20
-53.608626938992415
30
0
11
-19.12041722171093
21
-53.965369215915977
31
0
0
ARC
5
109
100
AcDbEntity
8
0
100
AcDbCircle
10
-14.750000000000565
20
-59.749999999999268
30
0
40
7.2499999999990745
210
0
220
0
230
1
100
AcDbArc
50
127.07185823379774
51
131.0454278779097
0
LINE
5
110
100
AcDbEntity
8
0
100
AcDbLine
10
-19.510764745776431
20
-54.282128473037041
30
0
11
-18.446909545911645
21
-55.345983672901809
31
0
0
ARC
5
111
100
AcDbEntity
8
0
100
AcDbCircle
10
-14.750000000000565
20
-59.749999999999268
30
0
40
5.749999999999079
210
0
220
0
230
1
100
AcDbArc
50
130.01145802444435
51
236.80193401012136
0
LINE
5
112
100
AcDbEntity
8
0
100
AcDbLine
10
-17.898326125405756
20
-64.561501076387032
30
0
11
-14.1716346301868
21
-67
31
0
0
LINE
5
113
100
AcDbEntity
8
0
100
AcDbLine
10
-14.1716346301868
20
-67
30
0
11
-10.99999975413084
21
-67
31
0
0
LINE
5
114
100
AcDbEntity
8
0
100
AcDbLine
10
-11.000000163912773
20
-67.0000009983778
30
0
11
21.000000000000007
21
-67.0000009983778
31
0
0
LINE
5
115
100
AcDbEntity
8
0
100
AcDbLine
10
21.000000000000007
20
-67.0000009983778
30
0
11
21.000000000000007
21
-42.5
31
0
0
LINE
5
116
100
AcDbEntity
8
0
100
AcDbLine
10
21.000000000000007
20
-42.5
30
0
11
43.499999999999979
21
-42.499999999999986
31
0
0
LINE
5
117
100
AcDbEntity
8
0
100
AcDbLine
10
43.499999999999979
20
-42.499999999999986
30
0
11
43.5
21
4.5000000000000018
31
0
0
LINE
5
118
100
AcDbEntity
8
0
100
AcDbLine
10
43.5
20
4.5000000000000018
30
0
11
18.999999999999993
21
4.5000000000000018
31
0
0
LINE
5
119
100
AcDbEntity
8
0
100
AcDbLine
10
18.999999999999993
20
4.5000000000000018
30
0
11
19
21
-1.4999999999999991
31
0
0
LINE
5
120
100
AcDbEntity
8
0
100
AcDbLine
10
19
20
-1.4999999999999991
30
0
11
-28.5
21
-1.4999999999999947
31
0
0
LINE
5
121
100
AcDbEntity
8
0
100
AcDbLine
10
-28.5
20
-1.4999999999999947
30
0
11
-28.5
21
1.5000000000000124
31
0
0
LINE
5
122
100
AcDbEntity
8
0
100
AcDbLine
10
-28.5
20
1.5000000000000124
30
0
11
-43.500000648200512
21
1.5000000223517418
31
0
0
LINE
5
123
100
AcDbEntity
8
0
100
AcDbLine
10
-43.500000648200512
20
1.5000000223517418
30
0
11
-43.499999999999979
21
-42.499999999999986
31
0
0
LWPOLYLINE
5
124
100
AcDbEntity
8
0
100
AcDbPolyline
90
20
70
1
43
0.0
10
20.750000089406974
20
-66.750001087784767
10
-10.99999975413084
20
-66.750000089406967
10
-14.097111014255983
20
-66.750000089406967
10
-17.761442429776345
20
-64.352305452227824
42
-0.51856896192021673
10
-18.0724288017046
20
-55.366911152956121
10
-19.140924968986866
20
-54.298414985673872
42
-0.018048317863622463
10
-18.7363065971584
20
-53.995926576315789
10
-19.095241827378317
20
-53.63699134609589
42
-0.017015681039024198
10
-18.669476112512907
20
-53.355650279774721
10
-20.750000089406967
20
-51.275126302880665
10
-20.750000089406967
20
-42.250000089406967
10
-43.250000093089902
20
-42.25000008940696
10
-43.250000733924523
20
1.2500001113861803
10
-28.749999910593033
20
1.2500000897795083
10
-28.749999910593033
20
-1.7499999105930275
10
19.249999910593033
20
-1.7499999105930319
10
19.249999910593026
20
4.2500000894069689
10
43.250000089406967
20
4.2500000894069689
10
43.250000089406946
20
-42.250000089406953
10
20.750000089406974
20
-42.250000089406967
0
ENDSEC
0
SECTION
2
OBJECTS
0
DICTIONARY
5
C
100
AcDbDictionary
3
ACAD_GROUP
350
D
3
ACAD_MLINESTYLE
350
17
0
DICTIONARY
5
D
100
AcDbDictionary
0
DICTIONARY
5
1A
330
C
100
AcDbDictionary
0
DICTIONARY
5
17
100
AcDbDictionary
0
ENDSEC
0
EOF
