G04 #@! TF.GenerationSoftware,KiCad,Pcbnew,(5.1.8)-1*
G04 #@! TF.CreationDate,2021-05-03T11:31:43+02:00*
G04 #@! TF.ProjectId,sensactHsIO4,73656e73-6163-4744-9873-494f342e6b69,rev?*
G04 #@! TF.SameCoordinates,Original*
G04 #@! TF.FileFunction,Paste,Bot*
G04 #@! TF.FilePolarity,Positive*
%FSLAX46Y46*%
G04 Gerber Fmt 4.6, Leading zero omitted, Abs format (unit mm)*
G04 Created by KiCad (PCBNEW (5.1.8)-1) date 2021-05-03 11:31:43*
%MOMM*%
%LPD*%
G01*
G04 APERTURE LIST*
%ADD10R,2.200000X2.200000*%
%ADD11R,1.000000X1.000000*%
%ADD12R,0.650000X1.560000*%
%ADD13R,3.500000X1.800000*%
G04 APERTURE END LIST*
G36*
G01*
X142182000Y-106901000D02*
X142182000Y-105951000D01*
G75*
G02*
X142432000Y-105701000I250000J0D01*
G01*
X143107000Y-105701000D01*
G75*
G02*
X143357000Y-105951000I0J-250000D01*
G01*
X143357000Y-106901000D01*
G75*
G02*
X143107000Y-107151000I-250000J0D01*
G01*
X142432000Y-107151000D01*
G75*
G02*
X142182000Y-106901000I0J250000D01*
G01*
G37*
G36*
G01*
X140107000Y-106901000D02*
X140107000Y-105951000D01*
G75*
G02*
X140357000Y-105701000I250000J0D01*
G01*
X141032000Y-105701000D01*
G75*
G02*
X141282000Y-105951000I0J-250000D01*
G01*
X141282000Y-106901000D01*
G75*
G02*
X141032000Y-107151000I-250000J0D01*
G01*
X140357000Y-107151000D01*
G75*
G02*
X140107000Y-106901000I0J250000D01*
G01*
G37*
G36*
G01*
X132438000Y-108168500D02*
X132438000Y-108493500D01*
G75*
G02*
X132275500Y-108656000I-162500J0D01*
G01*
X129850500Y-108656000D01*
G75*
G02*
X129688000Y-108493500I0J162500D01*
G01*
X129688000Y-108168500D01*
G75*
G02*
X129850500Y-108006000I162500J0D01*
G01*
X132275500Y-108006000D01*
G75*
G02*
X132438000Y-108168500I0J-162500D01*
G01*
G37*
G36*
G01*
X132438000Y-110708500D02*
X132438000Y-111033500D01*
G75*
G02*
X132275500Y-111196000I-162500J0D01*
G01*
X129850500Y-111196000D01*
G75*
G02*
X129688000Y-111033500I0J162500D01*
G01*
X129688000Y-110708500D01*
G75*
G02*
X129850500Y-110546000I162500J0D01*
G01*
X132275500Y-110546000D01*
G75*
G02*
X132438000Y-110708500I0J-162500D01*
G01*
G37*
G36*
G01*
X132438000Y-113248500D02*
X132438000Y-113573500D01*
G75*
G02*
X132275500Y-113736000I-162500J0D01*
G01*
X129850500Y-113736000D01*
G75*
G02*
X129688000Y-113573500I0J162500D01*
G01*
X129688000Y-113248500D01*
G75*
G02*
X129850500Y-113086000I162500J0D01*
G01*
X132275500Y-113086000D01*
G75*
G02*
X132438000Y-113248500I0J-162500D01*
G01*
G37*
G36*
G01*
X132438000Y-115788500D02*
X132438000Y-116113500D01*
G75*
G02*
X132275500Y-116276000I-162500J0D01*
G01*
X129850500Y-116276000D01*
G75*
G02*
X129688000Y-116113500I0J162500D01*
G01*
X129688000Y-115788500D01*
G75*
G02*
X129850500Y-115626000I162500J0D01*
G01*
X132275500Y-115626000D01*
G75*
G02*
X132438000Y-115788500I0J-162500D01*
G01*
G37*
G36*
G01*
X141863000Y-115788500D02*
X141863000Y-116113500D01*
G75*
G02*
X141700500Y-116276000I-162500J0D01*
G01*
X139275500Y-116276000D01*
G75*
G02*
X139113000Y-116113500I0J162500D01*
G01*
X139113000Y-115788500D01*
G75*
G02*
X139275500Y-115626000I162500J0D01*
G01*
X141700500Y-115626000D01*
G75*
G02*
X141863000Y-115788500I0J-162500D01*
G01*
G37*
G36*
G01*
X141888000Y-113248500D02*
X141888000Y-113573500D01*
G75*
G02*
X141725500Y-113736000I-162500J0D01*
G01*
X139300500Y-113736000D01*
G75*
G02*
X139138000Y-113573500I0J162500D01*
G01*
X139138000Y-113248500D01*
G75*
G02*
X139300500Y-113086000I162500J0D01*
G01*
X141725500Y-113086000D01*
G75*
G02*
X141888000Y-113248500I0J-162500D01*
G01*
G37*
G36*
G01*
X141838000Y-110708500D02*
X141838000Y-111033500D01*
G75*
G02*
X141675500Y-111196000I-162500J0D01*
G01*
X139250500Y-111196000D01*
G75*
G02*
X139088000Y-111033500I0J162500D01*
G01*
X139088000Y-110708500D01*
G75*
G02*
X139250500Y-110546000I162500J0D01*
G01*
X141675500Y-110546000D01*
G75*
G02*
X141838000Y-110708500I0J-162500D01*
G01*
G37*
G36*
G01*
X141838000Y-108168500D02*
X141838000Y-108493500D01*
G75*
G02*
X141675500Y-108656000I-162500J0D01*
G01*
X139250500Y-108656000D01*
G75*
G02*
X139088000Y-108493500I0J162500D01*
G01*
X139088000Y-108168500D01*
G75*
G02*
X139250500Y-108006000I162500J0D01*
G01*
X141675500Y-108006000D01*
G75*
G02*
X141838000Y-108168500I0J-162500D01*
G01*
G37*
D10*
X129469000Y-129286000D03*
X136469000Y-129286000D03*
G36*
G01*
X119624000Y-109844000D02*
X118374000Y-109844000D01*
G75*
G02*
X118124000Y-109594000I0J250000D01*
G01*
X118124000Y-108794000D01*
G75*
G02*
X118374000Y-108544000I250000J0D01*
G01*
X119624000Y-108544000D01*
G75*
G02*
X119874000Y-108794000I0J-250000D01*
G01*
X119874000Y-109594000D01*
G75*
G02*
X119624000Y-109844000I-250000J0D01*
G01*
G37*
G36*
G01*
X119624000Y-112944000D02*
X118374000Y-112944000D01*
G75*
G02*
X118124000Y-112694000I0J250000D01*
G01*
X118124000Y-111894000D01*
G75*
G02*
X118374000Y-111644000I250000J0D01*
G01*
X119624000Y-111644000D01*
G75*
G02*
X119874000Y-111894000I0J-250000D01*
G01*
X119874000Y-112694000D01*
G75*
G02*
X119624000Y-112944000I-250000J0D01*
G01*
G37*
G36*
G01*
X117211000Y-109844000D02*
X115961000Y-109844000D01*
G75*
G02*
X115711000Y-109594000I0J250000D01*
G01*
X115711000Y-108794000D01*
G75*
G02*
X115961000Y-108544000I250000J0D01*
G01*
X117211000Y-108544000D01*
G75*
G02*
X117461000Y-108794000I0J-250000D01*
G01*
X117461000Y-109594000D01*
G75*
G02*
X117211000Y-109844000I-250000J0D01*
G01*
G37*
G36*
G01*
X117211000Y-112944000D02*
X115961000Y-112944000D01*
G75*
G02*
X115711000Y-112694000I0J250000D01*
G01*
X115711000Y-111894000D01*
G75*
G02*
X115961000Y-111644000I250000J0D01*
G01*
X117211000Y-111644000D01*
G75*
G02*
X117461000Y-111894000I0J-250000D01*
G01*
X117461000Y-112694000D01*
G75*
G02*
X117211000Y-112944000I-250000J0D01*
G01*
G37*
G36*
G01*
X147500000Y-108970000D02*
X147500000Y-108520000D01*
G75*
G02*
X147725000Y-108295000I225000J0D01*
G01*
X150275000Y-108295000D01*
G75*
G02*
X150500000Y-108520000I0J-225000D01*
G01*
X150500000Y-108970000D01*
G75*
G02*
X150275000Y-109195000I-225000J0D01*
G01*
X147725000Y-109195000D01*
G75*
G02*
X147500000Y-108970000I0J225000D01*
G01*
G37*
G36*
G01*
X147500000Y-110240000D02*
X147500000Y-109790000D01*
G75*
G02*
X147725000Y-109565000I225000J0D01*
G01*
X150275000Y-109565000D01*
G75*
G02*
X150500000Y-109790000I0J-225000D01*
G01*
X150500000Y-110240000D01*
G75*
G02*
X150275000Y-110465000I-225000J0D01*
G01*
X147725000Y-110465000D01*
G75*
G02*
X147500000Y-110240000I0J225000D01*
G01*
G37*
G36*
G01*
X147500000Y-111510000D02*
X147500000Y-111060000D01*
G75*
G02*
X147725000Y-110835000I225000J0D01*
G01*
X150275000Y-110835000D01*
G75*
G02*
X150500000Y-111060000I0J-225000D01*
G01*
X150500000Y-111510000D01*
G75*
G02*
X150275000Y-111735000I-225000J0D01*
G01*
X147725000Y-111735000D01*
G75*
G02*
X147500000Y-111510000I0J225000D01*
G01*
G37*
G36*
G01*
X147500000Y-112780000D02*
X147500000Y-112330000D01*
G75*
G02*
X147725000Y-112105000I225000J0D01*
G01*
X150275000Y-112105000D01*
G75*
G02*
X150500000Y-112330000I0J-225000D01*
G01*
X150500000Y-112780000D01*
G75*
G02*
X150275000Y-113005000I-225000J0D01*
G01*
X147725000Y-113005000D01*
G75*
G02*
X147500000Y-112780000I0J225000D01*
G01*
G37*
G36*
G01*
X147500000Y-114050000D02*
X147500000Y-113600000D01*
G75*
G02*
X147725000Y-113375000I225000J0D01*
G01*
X150275000Y-113375000D01*
G75*
G02*
X150500000Y-113600000I0J-225000D01*
G01*
X150500000Y-114050000D01*
G75*
G02*
X150275000Y-114275000I-225000J0D01*
G01*
X147725000Y-114275000D01*
G75*
G02*
X147500000Y-114050000I0J225000D01*
G01*
G37*
G36*
G01*
X147500000Y-115320000D02*
X147500000Y-114870000D01*
G75*
G02*
X147725000Y-114645000I225000J0D01*
G01*
X150275000Y-114645000D01*
G75*
G02*
X150500000Y-114870000I0J-225000D01*
G01*
X150500000Y-115320000D01*
G75*
G02*
X150275000Y-115545000I-225000J0D01*
G01*
X147725000Y-115545000D01*
G75*
G02*
X147500000Y-115320000I0J225000D01*
G01*
G37*
G36*
G01*
X147500000Y-116590000D02*
X147500000Y-116140000D01*
G75*
G02*
X147725000Y-115915000I225000J0D01*
G01*
X150275000Y-115915000D01*
G75*
G02*
X150500000Y-116140000I0J-225000D01*
G01*
X150500000Y-116590000D01*
G75*
G02*
X150275000Y-116815000I-225000J0D01*
G01*
X147725000Y-116815000D01*
G75*
G02*
X147500000Y-116590000I0J225000D01*
G01*
G37*
G36*
G01*
X147500000Y-117860000D02*
X147500000Y-117410000D01*
G75*
G02*
X147725000Y-117185000I225000J0D01*
G01*
X150275000Y-117185000D01*
G75*
G02*
X150500000Y-117410000I0J-225000D01*
G01*
X150500000Y-117860000D01*
G75*
G02*
X150275000Y-118085000I-225000J0D01*
G01*
X147725000Y-118085000D01*
G75*
G02*
X147500000Y-117860000I0J225000D01*
G01*
G37*
G36*
G01*
X147500000Y-119130000D02*
X147500000Y-118680000D01*
G75*
G02*
X147725000Y-118455000I225000J0D01*
G01*
X150275000Y-118455000D01*
G75*
G02*
X150500000Y-118680000I0J-225000D01*
G01*
X150500000Y-119130000D01*
G75*
G02*
X150275000Y-119355000I-225000J0D01*
G01*
X147725000Y-119355000D01*
G75*
G02*
X147500000Y-119130000I0J225000D01*
G01*
G37*
G36*
G01*
X147500000Y-120400000D02*
X147500000Y-119950000D01*
G75*
G02*
X147725000Y-119725000I225000J0D01*
G01*
X150275000Y-119725000D01*
G75*
G02*
X150500000Y-119950000I0J-225000D01*
G01*
X150500000Y-120400000D01*
G75*
G02*
X150275000Y-120625000I-225000J0D01*
G01*
X147725000Y-120625000D01*
G75*
G02*
X147500000Y-120400000I0J225000D01*
G01*
G37*
G36*
G01*
X147500000Y-121670000D02*
X147500000Y-121220000D01*
G75*
G02*
X147725000Y-120995000I225000J0D01*
G01*
X150275000Y-120995000D01*
G75*
G02*
X150500000Y-121220000I0J-225000D01*
G01*
X150500000Y-121670000D01*
G75*
G02*
X150275000Y-121895000I-225000J0D01*
G01*
X147725000Y-121895000D01*
G75*
G02*
X147500000Y-121670000I0J225000D01*
G01*
G37*
G36*
G01*
X147500000Y-122940000D02*
X147500000Y-122490000D01*
G75*
G02*
X147725000Y-122265000I225000J0D01*
G01*
X150275000Y-122265000D01*
G75*
G02*
X150500000Y-122490000I0J-225000D01*
G01*
X150500000Y-122940000D01*
G75*
G02*
X150275000Y-123165000I-225000J0D01*
G01*
X147725000Y-123165000D01*
G75*
G02*
X147500000Y-122940000I0J225000D01*
G01*
G37*
G36*
G01*
X147500000Y-124210000D02*
X147500000Y-123760000D01*
G75*
G02*
X147725000Y-123535000I225000J0D01*
G01*
X150275000Y-123535000D01*
G75*
G02*
X150500000Y-123760000I0J-225000D01*
G01*
X150500000Y-124210000D01*
G75*
G02*
X150275000Y-124435000I-225000J0D01*
G01*
X147725000Y-124435000D01*
G75*
G02*
X147500000Y-124210000I0J225000D01*
G01*
G37*
G36*
G01*
X147500000Y-125480000D02*
X147500000Y-125030000D01*
G75*
G02*
X147725000Y-124805000I225000J0D01*
G01*
X150275000Y-124805000D01*
G75*
G02*
X150500000Y-125030000I0J-225000D01*
G01*
X150500000Y-125480000D01*
G75*
G02*
X150275000Y-125705000I-225000J0D01*
G01*
X147725000Y-125705000D01*
G75*
G02*
X147500000Y-125480000I0J225000D01*
G01*
G37*
G36*
G01*
X152510000Y-128255000D02*
X152060000Y-128255000D01*
G75*
G02*
X151835000Y-128030000I0J225000D01*
G01*
X151835000Y-125480000D01*
G75*
G02*
X152060000Y-125255000I225000J0D01*
G01*
X152510000Y-125255000D01*
G75*
G02*
X152735000Y-125480000I0J-225000D01*
G01*
X152735000Y-128030000D01*
G75*
G02*
X152510000Y-128255000I-225000J0D01*
G01*
G37*
G36*
G01*
X153780000Y-128255000D02*
X153330000Y-128255000D01*
G75*
G02*
X153105000Y-128030000I0J225000D01*
G01*
X153105000Y-125480000D01*
G75*
G02*
X153330000Y-125255000I225000J0D01*
G01*
X153780000Y-125255000D01*
G75*
G02*
X154005000Y-125480000I0J-225000D01*
G01*
X154005000Y-128030000D01*
G75*
G02*
X153780000Y-128255000I-225000J0D01*
G01*
G37*
G36*
G01*
X155050000Y-128255000D02*
X154600000Y-128255000D01*
G75*
G02*
X154375000Y-128030000I0J225000D01*
G01*
X154375000Y-125480000D01*
G75*
G02*
X154600000Y-125255000I225000J0D01*
G01*
X155050000Y-125255000D01*
G75*
G02*
X155275000Y-125480000I0J-225000D01*
G01*
X155275000Y-128030000D01*
G75*
G02*
X155050000Y-128255000I-225000J0D01*
G01*
G37*
G36*
G01*
X156320000Y-128255000D02*
X155870000Y-128255000D01*
G75*
G02*
X155645000Y-128030000I0J225000D01*
G01*
X155645000Y-125480000D01*
G75*
G02*
X155870000Y-125255000I225000J0D01*
G01*
X156320000Y-125255000D01*
G75*
G02*
X156545000Y-125480000I0J-225000D01*
G01*
X156545000Y-128030000D01*
G75*
G02*
X156320000Y-128255000I-225000J0D01*
G01*
G37*
G36*
G01*
X157590000Y-128255000D02*
X157140000Y-128255000D01*
G75*
G02*
X156915000Y-128030000I0J225000D01*
G01*
X156915000Y-125480000D01*
G75*
G02*
X157140000Y-125255000I225000J0D01*
G01*
X157590000Y-125255000D01*
G75*
G02*
X157815000Y-125480000I0J-225000D01*
G01*
X157815000Y-128030000D01*
G75*
G02*
X157590000Y-128255000I-225000J0D01*
G01*
G37*
G36*
G01*
X158860000Y-128255000D02*
X158410000Y-128255000D01*
G75*
G02*
X158185000Y-128030000I0J225000D01*
G01*
X158185000Y-125480000D01*
G75*
G02*
X158410000Y-125255000I225000J0D01*
G01*
X158860000Y-125255000D01*
G75*
G02*
X159085000Y-125480000I0J-225000D01*
G01*
X159085000Y-128030000D01*
G75*
G02*
X158860000Y-128255000I-225000J0D01*
G01*
G37*
G36*
G01*
X160130000Y-128255000D02*
X159680000Y-128255000D01*
G75*
G02*
X159455000Y-128030000I0J225000D01*
G01*
X159455000Y-125480000D01*
G75*
G02*
X159680000Y-125255000I225000J0D01*
G01*
X160130000Y-125255000D01*
G75*
G02*
X160355000Y-125480000I0J-225000D01*
G01*
X160355000Y-128030000D01*
G75*
G02*
X160130000Y-128255000I-225000J0D01*
G01*
G37*
G36*
G01*
X161400000Y-128255000D02*
X160950000Y-128255000D01*
G75*
G02*
X160725000Y-128030000I0J225000D01*
G01*
X160725000Y-125480000D01*
G75*
G02*
X160950000Y-125255000I225000J0D01*
G01*
X161400000Y-125255000D01*
G75*
G02*
X161625000Y-125480000I0J-225000D01*
G01*
X161625000Y-128030000D01*
G75*
G02*
X161400000Y-128255000I-225000J0D01*
G01*
G37*
G36*
G01*
X162670000Y-128255000D02*
X162220000Y-128255000D01*
G75*
G02*
X161995000Y-128030000I0J225000D01*
G01*
X161995000Y-125480000D01*
G75*
G02*
X162220000Y-125255000I225000J0D01*
G01*
X162670000Y-125255000D01*
G75*
G02*
X162895000Y-125480000I0J-225000D01*
G01*
X162895000Y-128030000D01*
G75*
G02*
X162670000Y-128255000I-225000J0D01*
G01*
G37*
G36*
G01*
X163940000Y-128255000D02*
X163490000Y-128255000D01*
G75*
G02*
X163265000Y-128030000I0J225000D01*
G01*
X163265000Y-125480000D01*
G75*
G02*
X163490000Y-125255000I225000J0D01*
G01*
X163940000Y-125255000D01*
G75*
G02*
X164165000Y-125480000I0J-225000D01*
G01*
X164165000Y-128030000D01*
G75*
G02*
X163940000Y-128255000I-225000J0D01*
G01*
G37*
G36*
G01*
X168500000Y-125030000D02*
X168500000Y-125480000D01*
G75*
G02*
X168275000Y-125705000I-225000J0D01*
G01*
X165725000Y-125705000D01*
G75*
G02*
X165500000Y-125480000I0J225000D01*
G01*
X165500000Y-125030000D01*
G75*
G02*
X165725000Y-124805000I225000J0D01*
G01*
X168275000Y-124805000D01*
G75*
G02*
X168500000Y-125030000I0J-225000D01*
G01*
G37*
G36*
G01*
X168500000Y-123760000D02*
X168500000Y-124210000D01*
G75*
G02*
X168275000Y-124435000I-225000J0D01*
G01*
X165725000Y-124435000D01*
G75*
G02*
X165500000Y-124210000I0J225000D01*
G01*
X165500000Y-123760000D01*
G75*
G02*
X165725000Y-123535000I225000J0D01*
G01*
X168275000Y-123535000D01*
G75*
G02*
X168500000Y-123760000I0J-225000D01*
G01*
G37*
G36*
G01*
X168500000Y-122490000D02*
X168500000Y-122940000D01*
G75*
G02*
X168275000Y-123165000I-225000J0D01*
G01*
X165725000Y-123165000D01*
G75*
G02*
X165500000Y-122940000I0J225000D01*
G01*
X165500000Y-122490000D01*
G75*
G02*
X165725000Y-122265000I225000J0D01*
G01*
X168275000Y-122265000D01*
G75*
G02*
X168500000Y-122490000I0J-225000D01*
G01*
G37*
G36*
G01*
X168500000Y-121220000D02*
X168500000Y-121670000D01*
G75*
G02*
X168275000Y-121895000I-225000J0D01*
G01*
X165725000Y-121895000D01*
G75*
G02*
X165500000Y-121670000I0J225000D01*
G01*
X165500000Y-121220000D01*
G75*
G02*
X165725000Y-120995000I225000J0D01*
G01*
X168275000Y-120995000D01*
G75*
G02*
X168500000Y-121220000I0J-225000D01*
G01*
G37*
G36*
G01*
X168500000Y-119950000D02*
X168500000Y-120400000D01*
G75*
G02*
X168275000Y-120625000I-225000J0D01*
G01*
X165725000Y-120625000D01*
G75*
G02*
X165500000Y-120400000I0J225000D01*
G01*
X165500000Y-119950000D01*
G75*
G02*
X165725000Y-119725000I225000J0D01*
G01*
X168275000Y-119725000D01*
G75*
G02*
X168500000Y-119950000I0J-225000D01*
G01*
G37*
G36*
G01*
X168500000Y-118680000D02*
X168500000Y-119130000D01*
G75*
G02*
X168275000Y-119355000I-225000J0D01*
G01*
X165725000Y-119355000D01*
G75*
G02*
X165500000Y-119130000I0J225000D01*
G01*
X165500000Y-118680000D01*
G75*
G02*
X165725000Y-118455000I225000J0D01*
G01*
X168275000Y-118455000D01*
G75*
G02*
X168500000Y-118680000I0J-225000D01*
G01*
G37*
G36*
G01*
X168500000Y-117410000D02*
X168500000Y-117860000D01*
G75*
G02*
X168275000Y-118085000I-225000J0D01*
G01*
X165725000Y-118085000D01*
G75*
G02*
X165500000Y-117860000I0J225000D01*
G01*
X165500000Y-117410000D01*
G75*
G02*
X165725000Y-117185000I225000J0D01*
G01*
X168275000Y-117185000D01*
G75*
G02*
X168500000Y-117410000I0J-225000D01*
G01*
G37*
G36*
G01*
X168500000Y-116140000D02*
X168500000Y-116590000D01*
G75*
G02*
X168275000Y-116815000I-225000J0D01*
G01*
X165725000Y-116815000D01*
G75*
G02*
X165500000Y-116590000I0J225000D01*
G01*
X165500000Y-116140000D01*
G75*
G02*
X165725000Y-115915000I225000J0D01*
G01*
X168275000Y-115915000D01*
G75*
G02*
X168500000Y-116140000I0J-225000D01*
G01*
G37*
G36*
G01*
X168500000Y-114870000D02*
X168500000Y-115320000D01*
G75*
G02*
X168275000Y-115545000I-225000J0D01*
G01*
X165725000Y-115545000D01*
G75*
G02*
X165500000Y-115320000I0J225000D01*
G01*
X165500000Y-114870000D01*
G75*
G02*
X165725000Y-114645000I225000J0D01*
G01*
X168275000Y-114645000D01*
G75*
G02*
X168500000Y-114870000I0J-225000D01*
G01*
G37*
G36*
G01*
X168500000Y-113600000D02*
X168500000Y-114050000D01*
G75*
G02*
X168275000Y-114275000I-225000J0D01*
G01*
X165725000Y-114275000D01*
G75*
G02*
X165500000Y-114050000I0J225000D01*
G01*
X165500000Y-113600000D01*
G75*
G02*
X165725000Y-113375000I225000J0D01*
G01*
X168275000Y-113375000D01*
G75*
G02*
X168500000Y-113600000I0J-225000D01*
G01*
G37*
G36*
G01*
X168500000Y-112330000D02*
X168500000Y-112780000D01*
G75*
G02*
X168275000Y-113005000I-225000J0D01*
G01*
X165725000Y-113005000D01*
G75*
G02*
X165500000Y-112780000I0J225000D01*
G01*
X165500000Y-112330000D01*
G75*
G02*
X165725000Y-112105000I225000J0D01*
G01*
X168275000Y-112105000D01*
G75*
G02*
X168500000Y-112330000I0J-225000D01*
G01*
G37*
G36*
G01*
X168500000Y-111060000D02*
X168500000Y-111510000D01*
G75*
G02*
X168275000Y-111735000I-225000J0D01*
G01*
X165725000Y-111735000D01*
G75*
G02*
X165500000Y-111510000I0J225000D01*
G01*
X165500000Y-111060000D01*
G75*
G02*
X165725000Y-110835000I225000J0D01*
G01*
X168275000Y-110835000D01*
G75*
G02*
X168500000Y-111060000I0J-225000D01*
G01*
G37*
G36*
G01*
X168500000Y-109790000D02*
X168500000Y-110240000D01*
G75*
G02*
X168275000Y-110465000I-225000J0D01*
G01*
X165725000Y-110465000D01*
G75*
G02*
X165500000Y-110240000I0J225000D01*
G01*
X165500000Y-109790000D01*
G75*
G02*
X165725000Y-109565000I225000J0D01*
G01*
X168275000Y-109565000D01*
G75*
G02*
X168500000Y-109790000I0J-225000D01*
G01*
G37*
G36*
G01*
X168500000Y-108520000D02*
X168500000Y-108970000D01*
G75*
G02*
X168275000Y-109195000I-225000J0D01*
G01*
X165725000Y-109195000D01*
G75*
G02*
X165500000Y-108970000I0J225000D01*
G01*
X165500000Y-108520000D01*
G75*
G02*
X165725000Y-108295000I225000J0D01*
G01*
X168275000Y-108295000D01*
G75*
G02*
X168500000Y-108520000I0J-225000D01*
G01*
G37*
G36*
G01*
X136663000Y-114036000D02*
X136663000Y-112786000D01*
G75*
G02*
X136913000Y-112536000I250000J0D01*
G01*
X137713000Y-112536000D01*
G75*
G02*
X137963000Y-112786000I0J-250000D01*
G01*
X137963000Y-114036000D01*
G75*
G02*
X137713000Y-114286000I-250000J0D01*
G01*
X136913000Y-114286000D01*
G75*
G02*
X136663000Y-114036000I0J250000D01*
G01*
G37*
G36*
G01*
X133563000Y-114036000D02*
X133563000Y-112786000D01*
G75*
G02*
X133813000Y-112536000I250000J0D01*
G01*
X134613000Y-112536000D01*
G75*
G02*
X134863000Y-112786000I0J-250000D01*
G01*
X134863000Y-114036000D01*
G75*
G02*
X134613000Y-114286000I-250000J0D01*
G01*
X133813000Y-114286000D01*
G75*
G02*
X133563000Y-114036000I0J250000D01*
G01*
G37*
G36*
G01*
X136663000Y-111496000D02*
X136663000Y-110246000D01*
G75*
G02*
X136913000Y-109996000I250000J0D01*
G01*
X137713000Y-109996000D01*
G75*
G02*
X137963000Y-110246000I0J-250000D01*
G01*
X137963000Y-111496000D01*
G75*
G02*
X137713000Y-111746000I-250000J0D01*
G01*
X136913000Y-111746000D01*
G75*
G02*
X136663000Y-111496000I0J250000D01*
G01*
G37*
G36*
G01*
X133563000Y-111496000D02*
X133563000Y-110246000D01*
G75*
G02*
X133813000Y-109996000I250000J0D01*
G01*
X134613000Y-109996000D01*
G75*
G02*
X134863000Y-110246000I0J-250000D01*
G01*
X134863000Y-111496000D01*
G75*
G02*
X134613000Y-111746000I-250000J0D01*
G01*
X133813000Y-111746000D01*
G75*
G02*
X133563000Y-111496000I0J250000D01*
G01*
G37*
G36*
G01*
X127746999Y-113041000D02*
X129047001Y-113041000D01*
G75*
G02*
X129297000Y-113290999I0J-249999D01*
G01*
X129297000Y-114116001D01*
G75*
G02*
X129047001Y-114366000I-249999J0D01*
G01*
X127746999Y-114366000D01*
G75*
G02*
X127497000Y-114116001I0J249999D01*
G01*
X127497000Y-113290999D01*
G75*
G02*
X127746999Y-113041000I249999J0D01*
G01*
G37*
G36*
G01*
X127746999Y-109916000D02*
X129047001Y-109916000D01*
G75*
G02*
X129297000Y-110165999I0J-249999D01*
G01*
X129297000Y-110991001D01*
G75*
G02*
X129047001Y-111241000I-249999J0D01*
G01*
X127746999Y-111241000D01*
G75*
G02*
X127497000Y-110991001I0J249999D01*
G01*
X127497000Y-110165999D01*
G75*
G02*
X127746999Y-109916000I249999J0D01*
G01*
G37*
G36*
G01*
X182518000Y-132784001D02*
X182518000Y-131883999D01*
G75*
G02*
X182767999Y-131634000I249999J0D01*
G01*
X183468001Y-131634000D01*
G75*
G02*
X183718000Y-131883999I0J-249999D01*
G01*
X183718000Y-132784001D01*
G75*
G02*
X183468001Y-133034000I-249999J0D01*
G01*
X182767999Y-133034000D01*
G75*
G02*
X182518000Y-132784001I0J249999D01*
G01*
G37*
G36*
G01*
X180518000Y-132784001D02*
X180518000Y-131883999D01*
G75*
G02*
X180767999Y-131634000I249999J0D01*
G01*
X181468001Y-131634000D01*
G75*
G02*
X181718000Y-131883999I0J-249999D01*
G01*
X181718000Y-132784001D01*
G75*
G02*
X181468001Y-133034000I-249999J0D01*
G01*
X180767999Y-133034000D01*
G75*
G02*
X180518000Y-132784001I0J249999D01*
G01*
G37*
G36*
G01*
X182518000Y-129990001D02*
X182518000Y-129089999D01*
G75*
G02*
X182767999Y-128840000I249999J0D01*
G01*
X183468001Y-128840000D01*
G75*
G02*
X183718000Y-129089999I0J-249999D01*
G01*
X183718000Y-129990001D01*
G75*
G02*
X183468001Y-130240000I-249999J0D01*
G01*
X182767999Y-130240000D01*
G75*
G02*
X182518000Y-129990001I0J249999D01*
G01*
G37*
G36*
G01*
X180518000Y-129990001D02*
X180518000Y-129089999D01*
G75*
G02*
X180767999Y-128840000I249999J0D01*
G01*
X181468001Y-128840000D01*
G75*
G02*
X181718000Y-129089999I0J-249999D01*
G01*
X181718000Y-129990001D01*
G75*
G02*
X181468001Y-130240000I-249999J0D01*
G01*
X180767999Y-130240000D01*
G75*
G02*
X180518000Y-129990001I0J249999D01*
G01*
G37*
D11*
X175514000Y-138811000D03*
X178014000Y-138811000D03*
G36*
G01*
X175075000Y-124935000D02*
X175075000Y-123985000D01*
G75*
G02*
X175325000Y-123735000I250000J0D01*
G01*
X176000000Y-123735000D01*
G75*
G02*
X176250000Y-123985000I0J-250000D01*
G01*
X176250000Y-124935000D01*
G75*
G02*
X176000000Y-125185000I-250000J0D01*
G01*
X175325000Y-125185000D01*
G75*
G02*
X175075000Y-124935000I0J250000D01*
G01*
G37*
G36*
G01*
X173000000Y-124935000D02*
X173000000Y-123985000D01*
G75*
G02*
X173250000Y-123735000I250000J0D01*
G01*
X173925000Y-123735000D01*
G75*
G02*
X174175000Y-123985000I0J-250000D01*
G01*
X174175000Y-124935000D01*
G75*
G02*
X173925000Y-125185000I-250000J0D01*
G01*
X173250000Y-125185000D01*
G75*
G02*
X173000000Y-124935000I0J250000D01*
G01*
G37*
G36*
G01*
X175075000Y-118521500D02*
X175075000Y-117571500D01*
G75*
G02*
X175325000Y-117321500I250000J0D01*
G01*
X176000000Y-117321500D01*
G75*
G02*
X176250000Y-117571500I0J-250000D01*
G01*
X176250000Y-118521500D01*
G75*
G02*
X176000000Y-118771500I-250000J0D01*
G01*
X175325000Y-118771500D01*
G75*
G02*
X175075000Y-118521500I0J250000D01*
G01*
G37*
G36*
G01*
X173000000Y-118521500D02*
X173000000Y-117571500D01*
G75*
G02*
X173250000Y-117321500I250000J0D01*
G01*
X173925000Y-117321500D01*
G75*
G02*
X174175000Y-117571500I0J-250000D01*
G01*
X174175000Y-118521500D01*
G75*
G02*
X173925000Y-118771500I-250000J0D01*
G01*
X173250000Y-118771500D01*
G75*
G02*
X173000000Y-118521500I0J250000D01*
G01*
G37*
G36*
G01*
X175075000Y-120998000D02*
X175075000Y-120048000D01*
G75*
G02*
X175325000Y-119798000I250000J0D01*
G01*
X176000000Y-119798000D01*
G75*
G02*
X176250000Y-120048000I0J-250000D01*
G01*
X176250000Y-120998000D01*
G75*
G02*
X176000000Y-121248000I-250000J0D01*
G01*
X175325000Y-121248000D01*
G75*
G02*
X175075000Y-120998000I0J250000D01*
G01*
G37*
G36*
G01*
X173000000Y-120998000D02*
X173000000Y-120048000D01*
G75*
G02*
X173250000Y-119798000I250000J0D01*
G01*
X173925000Y-119798000D01*
G75*
G02*
X174175000Y-120048000I0J-250000D01*
G01*
X174175000Y-120998000D01*
G75*
G02*
X173925000Y-121248000I-250000J0D01*
G01*
X173250000Y-121248000D01*
G75*
G02*
X173000000Y-120998000I0J250000D01*
G01*
G37*
G36*
G01*
X175075000Y-135285500D02*
X175075000Y-134335500D01*
G75*
G02*
X175325000Y-134085500I250000J0D01*
G01*
X176000000Y-134085500D01*
G75*
G02*
X176250000Y-134335500I0J-250000D01*
G01*
X176250000Y-135285500D01*
G75*
G02*
X176000000Y-135535500I-250000J0D01*
G01*
X175325000Y-135535500D01*
G75*
G02*
X175075000Y-135285500I0J250000D01*
G01*
G37*
G36*
G01*
X173000000Y-135285500D02*
X173000000Y-134335500D01*
G75*
G02*
X173250000Y-134085500I250000J0D01*
G01*
X173925000Y-134085500D01*
G75*
G02*
X174175000Y-134335500I0J-250000D01*
G01*
X174175000Y-135285500D01*
G75*
G02*
X173925000Y-135535500I-250000J0D01*
G01*
X173250000Y-135535500D01*
G75*
G02*
X173000000Y-135285500I0J250000D01*
G01*
G37*
G36*
G01*
X175075000Y-128872000D02*
X175075000Y-127922000D01*
G75*
G02*
X175325000Y-127672000I250000J0D01*
G01*
X176000000Y-127672000D01*
G75*
G02*
X176250000Y-127922000I0J-250000D01*
G01*
X176250000Y-128872000D01*
G75*
G02*
X176000000Y-129122000I-250000J0D01*
G01*
X175325000Y-129122000D01*
G75*
G02*
X175075000Y-128872000I0J250000D01*
G01*
G37*
G36*
G01*
X173000000Y-128872000D02*
X173000000Y-127922000D01*
G75*
G02*
X173250000Y-127672000I250000J0D01*
G01*
X173925000Y-127672000D01*
G75*
G02*
X174175000Y-127922000I0J-250000D01*
G01*
X174175000Y-128872000D01*
G75*
G02*
X173925000Y-129122000I-250000J0D01*
G01*
X173250000Y-129122000D01*
G75*
G02*
X173000000Y-128872000I0J250000D01*
G01*
G37*
G36*
G01*
X182772000Y-116782001D02*
X182772000Y-115881999D01*
G75*
G02*
X183021999Y-115632000I249999J0D01*
G01*
X183722001Y-115632000D01*
G75*
G02*
X183972000Y-115881999I0J-249999D01*
G01*
X183972000Y-116782001D01*
G75*
G02*
X183722001Y-117032000I-249999J0D01*
G01*
X183021999Y-117032000D01*
G75*
G02*
X182772000Y-116782001I0J249999D01*
G01*
G37*
G36*
G01*
X180772000Y-116782001D02*
X180772000Y-115881999D01*
G75*
G02*
X181021999Y-115632000I249999J0D01*
G01*
X181722001Y-115632000D01*
G75*
G02*
X181972000Y-115881999I0J-249999D01*
G01*
X181972000Y-116782001D01*
G75*
G02*
X181722001Y-117032000I-249999J0D01*
G01*
X181021999Y-117032000D01*
G75*
G02*
X180772000Y-116782001I0J249999D01*
G01*
G37*
G36*
G01*
X182772000Y-114750001D02*
X182772000Y-113849999D01*
G75*
G02*
X183021999Y-113600000I249999J0D01*
G01*
X183722001Y-113600000D01*
G75*
G02*
X183972000Y-113849999I0J-249999D01*
G01*
X183972000Y-114750001D01*
G75*
G02*
X183722001Y-115000000I-249999J0D01*
G01*
X183021999Y-115000000D01*
G75*
G02*
X182772000Y-114750001I0J249999D01*
G01*
G37*
G36*
G01*
X180772000Y-114750001D02*
X180772000Y-113849999D01*
G75*
G02*
X181021999Y-113600000I249999J0D01*
G01*
X181722001Y-113600000D01*
G75*
G02*
X181972000Y-113849999I0J-249999D01*
G01*
X181972000Y-114750001D01*
G75*
G02*
X181722001Y-115000000I-249999J0D01*
G01*
X181021999Y-115000000D01*
G75*
G02*
X180772000Y-114750001I0J249999D01*
G01*
G37*
G36*
G01*
X182772000Y-112718001D02*
X182772000Y-111817999D01*
G75*
G02*
X183021999Y-111568000I249999J0D01*
G01*
X183722001Y-111568000D01*
G75*
G02*
X183972000Y-111817999I0J-249999D01*
G01*
X183972000Y-112718001D01*
G75*
G02*
X183722001Y-112968000I-249999J0D01*
G01*
X183021999Y-112968000D01*
G75*
G02*
X182772000Y-112718001I0J249999D01*
G01*
G37*
G36*
G01*
X180772000Y-112718001D02*
X180772000Y-111817999D01*
G75*
G02*
X181021999Y-111568000I249999J0D01*
G01*
X181722001Y-111568000D01*
G75*
G02*
X181972000Y-111817999I0J-249999D01*
G01*
X181972000Y-112718001D01*
G75*
G02*
X181722001Y-112968000I-249999J0D01*
G01*
X181021999Y-112968000D01*
G75*
G02*
X180772000Y-112718001I0J249999D01*
G01*
G37*
G36*
G01*
X182772000Y-110686001D02*
X182772000Y-109785999D01*
G75*
G02*
X183021999Y-109536000I249999J0D01*
G01*
X183722001Y-109536000D01*
G75*
G02*
X183972000Y-109785999I0J-249999D01*
G01*
X183972000Y-110686001D01*
G75*
G02*
X183722001Y-110936000I-249999J0D01*
G01*
X183021999Y-110936000D01*
G75*
G02*
X182772000Y-110686001I0J249999D01*
G01*
G37*
G36*
G01*
X180772000Y-110686001D02*
X180772000Y-109785999D01*
G75*
G02*
X181021999Y-109536000I249999J0D01*
G01*
X181722001Y-109536000D01*
G75*
G02*
X181972000Y-109785999I0J-249999D01*
G01*
X181972000Y-110686001D01*
G75*
G02*
X181722001Y-110936000I-249999J0D01*
G01*
X181021999Y-110936000D01*
G75*
G02*
X180772000Y-110686001I0J249999D01*
G01*
G37*
D12*
X178308000Y-122729000D03*
X179258000Y-122729000D03*
X177358000Y-122729000D03*
X177358000Y-125429000D03*
X178308000Y-125429000D03*
X179258000Y-125429000D03*
X178181000Y-142541000D03*
X179131000Y-142541000D03*
X177231000Y-142541000D03*
X177231000Y-145241000D03*
X178181000Y-145241000D03*
X179131000Y-145241000D03*
X178435000Y-133651000D03*
X179385000Y-133651000D03*
X177485000Y-133651000D03*
X177485000Y-136351000D03*
X178435000Y-136351000D03*
X179385000Y-136351000D03*
X178689000Y-112188000D03*
X179639000Y-112188000D03*
X177739000Y-112188000D03*
X177739000Y-114888000D03*
X178689000Y-114888000D03*
X179639000Y-114888000D03*
X124206000Y-130048000D03*
X125156000Y-130048000D03*
X123256000Y-130048000D03*
X123256000Y-132748000D03*
X124206000Y-132748000D03*
X125156000Y-132748000D03*
G36*
G01*
X182518000Y-127577001D02*
X182518000Y-126676999D01*
G75*
G02*
X182767999Y-126427000I249999J0D01*
G01*
X183468001Y-126427000D01*
G75*
G02*
X183718000Y-126676999I0J-249999D01*
G01*
X183718000Y-127577001D01*
G75*
G02*
X183468001Y-127827000I-249999J0D01*
G01*
X182767999Y-127827000D01*
G75*
G02*
X182518000Y-127577001I0J249999D01*
G01*
G37*
G36*
G01*
X180518000Y-127577001D02*
X180518000Y-126676999D01*
G75*
G02*
X180767999Y-126427000I249999J0D01*
G01*
X181468001Y-126427000D01*
G75*
G02*
X181718000Y-126676999I0J-249999D01*
G01*
X181718000Y-127577001D01*
G75*
G02*
X181468001Y-127827000I-249999J0D01*
G01*
X180767999Y-127827000D01*
G75*
G02*
X180518000Y-127577001I0J249999D01*
G01*
G37*
G36*
G01*
X182518000Y-125037001D02*
X182518000Y-124136999D01*
G75*
G02*
X182767999Y-123887000I249999J0D01*
G01*
X183468001Y-123887000D01*
G75*
G02*
X183718000Y-124136999I0J-249999D01*
G01*
X183718000Y-125037001D01*
G75*
G02*
X183468001Y-125287000I-249999J0D01*
G01*
X182767999Y-125287000D01*
G75*
G02*
X182518000Y-125037001I0J249999D01*
G01*
G37*
G36*
G01*
X180518000Y-125037001D02*
X180518000Y-124136999D01*
G75*
G02*
X180767999Y-123887000I249999J0D01*
G01*
X181468001Y-123887000D01*
G75*
G02*
X181718000Y-124136999I0J-249999D01*
G01*
X181718000Y-125037001D01*
G75*
G02*
X181468001Y-125287000I-249999J0D01*
G01*
X180767999Y-125287000D01*
G75*
G02*
X180518000Y-125037001I0J249999D01*
G01*
G37*
G36*
G01*
X182518000Y-123068501D02*
X182518000Y-122168499D01*
G75*
G02*
X182767999Y-121918500I249999J0D01*
G01*
X183468001Y-121918500D01*
G75*
G02*
X183718000Y-122168499I0J-249999D01*
G01*
X183718000Y-123068501D01*
G75*
G02*
X183468001Y-123318500I-249999J0D01*
G01*
X182767999Y-123318500D01*
G75*
G02*
X182518000Y-123068501I0J249999D01*
G01*
G37*
G36*
G01*
X180518000Y-123068501D02*
X180518000Y-122168499D01*
G75*
G02*
X180767999Y-121918500I249999J0D01*
G01*
X181468001Y-121918500D01*
G75*
G02*
X181718000Y-122168499I0J-249999D01*
G01*
X181718000Y-123068501D01*
G75*
G02*
X181468001Y-123318500I-249999J0D01*
G01*
X180767999Y-123318500D01*
G75*
G02*
X180518000Y-123068501I0J249999D01*
G01*
G37*
G36*
G01*
X182518000Y-120274501D02*
X182518000Y-119374499D01*
G75*
G02*
X182767999Y-119124500I249999J0D01*
G01*
X183468001Y-119124500D01*
G75*
G02*
X183718000Y-119374499I0J-249999D01*
G01*
X183718000Y-120274501D01*
G75*
G02*
X183468001Y-120524500I-249999J0D01*
G01*
X182767999Y-120524500D01*
G75*
G02*
X182518000Y-120274501I0J249999D01*
G01*
G37*
G36*
G01*
X180518000Y-120274501D02*
X180518000Y-119374499D01*
G75*
G02*
X180767999Y-119124500I249999J0D01*
G01*
X181468001Y-119124500D01*
G75*
G02*
X181718000Y-119374499I0J-249999D01*
G01*
X181718000Y-120274501D01*
G75*
G02*
X181468001Y-120524500I-249999J0D01*
G01*
X180767999Y-120524500D01*
G75*
G02*
X180518000Y-120274501I0J249999D01*
G01*
G37*
G36*
G01*
X182391000Y-147389001D02*
X182391000Y-146488999D01*
G75*
G02*
X182640999Y-146239000I249999J0D01*
G01*
X183341001Y-146239000D01*
G75*
G02*
X183591000Y-146488999I0J-249999D01*
G01*
X183591000Y-147389001D01*
G75*
G02*
X183341001Y-147639000I-249999J0D01*
G01*
X182640999Y-147639000D01*
G75*
G02*
X182391000Y-147389001I0J249999D01*
G01*
G37*
G36*
G01*
X180391000Y-147389001D02*
X180391000Y-146488999D01*
G75*
G02*
X180640999Y-146239000I249999J0D01*
G01*
X181341001Y-146239000D01*
G75*
G02*
X181591000Y-146488999I0J-249999D01*
G01*
X181591000Y-147389001D01*
G75*
G02*
X181341001Y-147639000I-249999J0D01*
G01*
X180640999Y-147639000D01*
G75*
G02*
X180391000Y-147389001I0J249999D01*
G01*
G37*
G36*
G01*
X182391000Y-145357001D02*
X182391000Y-144456999D01*
G75*
G02*
X182640999Y-144207000I249999J0D01*
G01*
X183341001Y-144207000D01*
G75*
G02*
X183591000Y-144456999I0J-249999D01*
G01*
X183591000Y-145357001D01*
G75*
G02*
X183341001Y-145607000I-249999J0D01*
G01*
X182640999Y-145607000D01*
G75*
G02*
X182391000Y-145357001I0J249999D01*
G01*
G37*
G36*
G01*
X180391000Y-145357001D02*
X180391000Y-144456999D01*
G75*
G02*
X180640999Y-144207000I249999J0D01*
G01*
X181341001Y-144207000D01*
G75*
G02*
X181591000Y-144456999I0J-249999D01*
G01*
X181591000Y-145357001D01*
G75*
G02*
X181341001Y-145607000I-249999J0D01*
G01*
X180640999Y-145607000D01*
G75*
G02*
X180391000Y-145357001I0J249999D01*
G01*
G37*
G36*
G01*
X182391000Y-143325001D02*
X182391000Y-142424999D01*
G75*
G02*
X182640999Y-142175000I249999J0D01*
G01*
X183341001Y-142175000D01*
G75*
G02*
X183591000Y-142424999I0J-249999D01*
G01*
X183591000Y-143325001D01*
G75*
G02*
X183341001Y-143575000I-249999J0D01*
G01*
X182640999Y-143575000D01*
G75*
G02*
X182391000Y-143325001I0J249999D01*
G01*
G37*
G36*
G01*
X180391000Y-143325001D02*
X180391000Y-142424999D01*
G75*
G02*
X180640999Y-142175000I249999J0D01*
G01*
X181341001Y-142175000D01*
G75*
G02*
X181591000Y-142424999I0J-249999D01*
G01*
X181591000Y-143325001D01*
G75*
G02*
X181341001Y-143575000I-249999J0D01*
G01*
X180640999Y-143575000D01*
G75*
G02*
X180391000Y-143325001I0J249999D01*
G01*
G37*
G36*
G01*
X182391000Y-141293001D02*
X182391000Y-140392999D01*
G75*
G02*
X182640999Y-140143000I249999J0D01*
G01*
X183341001Y-140143000D01*
G75*
G02*
X183591000Y-140392999I0J-249999D01*
G01*
X183591000Y-141293001D01*
G75*
G02*
X183341001Y-141543000I-249999J0D01*
G01*
X182640999Y-141543000D01*
G75*
G02*
X182391000Y-141293001I0J249999D01*
G01*
G37*
G36*
G01*
X180391000Y-141293001D02*
X180391000Y-140392999D01*
G75*
G02*
X180640999Y-140143000I249999J0D01*
G01*
X181341001Y-140143000D01*
G75*
G02*
X181591000Y-140392999I0J-249999D01*
G01*
X181591000Y-141293001D01*
G75*
G02*
X181341001Y-141543000I-249999J0D01*
G01*
X180640999Y-141543000D01*
G75*
G02*
X180391000Y-141293001I0J249999D01*
G01*
G37*
G36*
G01*
X182518000Y-139388001D02*
X182518000Y-138487999D01*
G75*
G02*
X182767999Y-138238000I249999J0D01*
G01*
X183468001Y-138238000D01*
G75*
G02*
X183718000Y-138487999I0J-249999D01*
G01*
X183718000Y-139388001D01*
G75*
G02*
X183468001Y-139638000I-249999J0D01*
G01*
X182767999Y-139638000D01*
G75*
G02*
X182518000Y-139388001I0J249999D01*
G01*
G37*
G36*
G01*
X180518000Y-139388001D02*
X180518000Y-138487999D01*
G75*
G02*
X180767999Y-138238000I249999J0D01*
G01*
X181468001Y-138238000D01*
G75*
G02*
X181718000Y-138487999I0J-249999D01*
G01*
X181718000Y-139388001D01*
G75*
G02*
X181468001Y-139638000I-249999J0D01*
G01*
X180767999Y-139638000D01*
G75*
G02*
X180518000Y-139388001I0J249999D01*
G01*
G37*
G36*
G01*
X182518000Y-136086001D02*
X182518000Y-135185999D01*
G75*
G02*
X182767999Y-134936000I249999J0D01*
G01*
X183468001Y-134936000D01*
G75*
G02*
X183718000Y-135185999I0J-249999D01*
G01*
X183718000Y-136086001D01*
G75*
G02*
X183468001Y-136336000I-249999J0D01*
G01*
X182767999Y-136336000D01*
G75*
G02*
X182518000Y-136086001I0J249999D01*
G01*
G37*
G36*
G01*
X180518000Y-136086001D02*
X180518000Y-135185999D01*
G75*
G02*
X180767999Y-134936000I249999J0D01*
G01*
X181468001Y-134936000D01*
G75*
G02*
X181718000Y-135185999I0J-249999D01*
G01*
X181718000Y-136086001D01*
G75*
G02*
X181468001Y-136336000I-249999J0D01*
G01*
X180767999Y-136336000D01*
G75*
G02*
X180518000Y-136086001I0J249999D01*
G01*
G37*
G36*
G01*
X139830000Y-132022001D02*
X139830000Y-131121999D01*
G75*
G02*
X140079999Y-130872000I249999J0D01*
G01*
X140780001Y-130872000D01*
G75*
G02*
X141030000Y-131121999I0J-249999D01*
G01*
X141030000Y-132022001D01*
G75*
G02*
X140780001Y-132272000I-249999J0D01*
G01*
X140079999Y-132272000D01*
G75*
G02*
X139830000Y-132022001I0J249999D01*
G01*
G37*
G36*
G01*
X137830000Y-132022001D02*
X137830000Y-131121999D01*
G75*
G02*
X138079999Y-130872000I249999J0D01*
G01*
X138780001Y-130872000D01*
G75*
G02*
X139030000Y-131121999I0J-249999D01*
G01*
X139030000Y-132022001D01*
G75*
G02*
X138780001Y-132272000I-249999J0D01*
G01*
X138079999Y-132272000D01*
G75*
G02*
X137830000Y-132022001I0J249999D01*
G01*
G37*
G36*
G01*
X139846000Y-129990001D02*
X139846000Y-129089999D01*
G75*
G02*
X140095999Y-128840000I249999J0D01*
G01*
X140796001Y-128840000D01*
G75*
G02*
X141046000Y-129089999I0J-249999D01*
G01*
X141046000Y-129990001D01*
G75*
G02*
X140796001Y-130240000I-249999J0D01*
G01*
X140095999Y-130240000D01*
G75*
G02*
X139846000Y-129990001I0J249999D01*
G01*
G37*
G36*
G01*
X137846000Y-129990001D02*
X137846000Y-129089999D01*
G75*
G02*
X138095999Y-128840000I249999J0D01*
G01*
X138796001Y-128840000D01*
G75*
G02*
X139046000Y-129089999I0J-249999D01*
G01*
X139046000Y-129990001D01*
G75*
G02*
X138796001Y-130240000I-249999J0D01*
G01*
X138095999Y-130240000D01*
G75*
G02*
X137846000Y-129990001I0J249999D01*
G01*
G37*
D13*
X121706000Y-127127000D03*
X126706000Y-127127000D03*
G36*
G01*
X175075000Y-126903500D02*
X175075000Y-125953500D01*
G75*
G02*
X175325000Y-125703500I250000J0D01*
G01*
X176000000Y-125703500D01*
G75*
G02*
X176250000Y-125953500I0J-250000D01*
G01*
X176250000Y-126903500D01*
G75*
G02*
X176000000Y-127153500I-250000J0D01*
G01*
X175325000Y-127153500D01*
G75*
G02*
X175075000Y-126903500I0J250000D01*
G01*
G37*
G36*
G01*
X173000000Y-126903500D02*
X173000000Y-125953500D01*
G75*
G02*
X173250000Y-125703500I250000J0D01*
G01*
X173925000Y-125703500D01*
G75*
G02*
X174175000Y-125953500I0J-250000D01*
G01*
X174175000Y-126903500D01*
G75*
G02*
X173925000Y-127153500I-250000J0D01*
G01*
X173250000Y-127153500D01*
G75*
G02*
X173000000Y-126903500I0J250000D01*
G01*
G37*
G36*
G01*
X175075000Y-122966500D02*
X175075000Y-122016500D01*
G75*
G02*
X175325000Y-121766500I250000J0D01*
G01*
X176000000Y-121766500D01*
G75*
G02*
X176250000Y-122016500I0J-250000D01*
G01*
X176250000Y-122966500D01*
G75*
G02*
X176000000Y-123216500I-250000J0D01*
G01*
X175325000Y-123216500D01*
G75*
G02*
X175075000Y-122966500I0J250000D01*
G01*
G37*
G36*
G01*
X173000000Y-122966500D02*
X173000000Y-122016500D01*
G75*
G02*
X173250000Y-121766500I250000J0D01*
G01*
X173925000Y-121766500D01*
G75*
G02*
X174175000Y-122016500I0J-250000D01*
G01*
X174175000Y-122966500D01*
G75*
G02*
X173925000Y-123216500I-250000J0D01*
G01*
X173250000Y-123216500D01*
G75*
G02*
X173000000Y-122966500I0J250000D01*
G01*
G37*
G36*
G01*
X165550000Y-140238500D02*
X165550000Y-139288500D01*
G75*
G02*
X165800000Y-139038500I250000J0D01*
G01*
X166475000Y-139038500D01*
G75*
G02*
X166725000Y-139288500I0J-250000D01*
G01*
X166725000Y-140238500D01*
G75*
G02*
X166475000Y-140488500I-250000J0D01*
G01*
X165800000Y-140488500D01*
G75*
G02*
X165550000Y-140238500I0J250000D01*
G01*
G37*
G36*
G01*
X163475000Y-140238500D02*
X163475000Y-139288500D01*
G75*
G02*
X163725000Y-139038500I250000J0D01*
G01*
X164400000Y-139038500D01*
G75*
G02*
X164650000Y-139288500I0J-250000D01*
G01*
X164650000Y-140238500D01*
G75*
G02*
X164400000Y-140488500I-250000J0D01*
G01*
X163725000Y-140488500D01*
G75*
G02*
X163475000Y-140238500I0J250000D01*
G01*
G37*
G36*
G01*
X165550000Y-138206500D02*
X165550000Y-137256500D01*
G75*
G02*
X165800000Y-137006500I250000J0D01*
G01*
X166475000Y-137006500D01*
G75*
G02*
X166725000Y-137256500I0J-250000D01*
G01*
X166725000Y-138206500D01*
G75*
G02*
X166475000Y-138456500I-250000J0D01*
G01*
X165800000Y-138456500D01*
G75*
G02*
X165550000Y-138206500I0J250000D01*
G01*
G37*
G36*
G01*
X163475000Y-138206500D02*
X163475000Y-137256500D01*
G75*
G02*
X163725000Y-137006500I250000J0D01*
G01*
X164400000Y-137006500D01*
G75*
G02*
X164650000Y-137256500I0J-250000D01*
G01*
X164650000Y-138206500D01*
G75*
G02*
X164400000Y-138456500I-250000J0D01*
G01*
X163725000Y-138456500D01*
G75*
G02*
X163475000Y-138206500I0J250000D01*
G01*
G37*
G36*
G01*
X165550000Y-136174500D02*
X165550000Y-135224500D01*
G75*
G02*
X165800000Y-134974500I250000J0D01*
G01*
X166475000Y-134974500D01*
G75*
G02*
X166725000Y-135224500I0J-250000D01*
G01*
X166725000Y-136174500D01*
G75*
G02*
X166475000Y-136424500I-250000J0D01*
G01*
X165800000Y-136424500D01*
G75*
G02*
X165550000Y-136174500I0J250000D01*
G01*
G37*
G36*
G01*
X163475000Y-136174500D02*
X163475000Y-135224500D01*
G75*
G02*
X163725000Y-134974500I250000J0D01*
G01*
X164400000Y-134974500D01*
G75*
G02*
X164650000Y-135224500I0J-250000D01*
G01*
X164650000Y-136174500D01*
G75*
G02*
X164400000Y-136424500I-250000J0D01*
G01*
X163725000Y-136424500D01*
G75*
G02*
X163475000Y-136174500I0J250000D01*
G01*
G37*
G36*
G01*
X165550000Y-134079000D02*
X165550000Y-133129000D01*
G75*
G02*
X165800000Y-132879000I250000J0D01*
G01*
X166475000Y-132879000D01*
G75*
G02*
X166725000Y-133129000I0J-250000D01*
G01*
X166725000Y-134079000D01*
G75*
G02*
X166475000Y-134329000I-250000J0D01*
G01*
X165800000Y-134329000D01*
G75*
G02*
X165550000Y-134079000I0J250000D01*
G01*
G37*
G36*
G01*
X163475000Y-134079000D02*
X163475000Y-133129000D01*
G75*
G02*
X163725000Y-132879000I250000J0D01*
G01*
X164400000Y-132879000D01*
G75*
G02*
X164650000Y-133129000I0J-250000D01*
G01*
X164650000Y-134079000D01*
G75*
G02*
X164400000Y-134329000I-250000J0D01*
G01*
X163725000Y-134329000D01*
G75*
G02*
X163475000Y-134079000I0J250000D01*
G01*
G37*
G36*
G01*
X175075000Y-133317000D02*
X175075000Y-132367000D01*
G75*
G02*
X175325000Y-132117000I250000J0D01*
G01*
X176000000Y-132117000D01*
G75*
G02*
X176250000Y-132367000I0J-250000D01*
G01*
X176250000Y-133317000D01*
G75*
G02*
X176000000Y-133567000I-250000J0D01*
G01*
X175325000Y-133567000D01*
G75*
G02*
X175075000Y-133317000I0J250000D01*
G01*
G37*
G36*
G01*
X173000000Y-133317000D02*
X173000000Y-132367000D01*
G75*
G02*
X173250000Y-132117000I250000J0D01*
G01*
X173925000Y-132117000D01*
G75*
G02*
X174175000Y-132367000I0J-250000D01*
G01*
X174175000Y-133317000D01*
G75*
G02*
X173925000Y-133567000I-250000J0D01*
G01*
X173250000Y-133567000D01*
G75*
G02*
X173000000Y-133317000I0J250000D01*
G01*
G37*
G36*
G01*
X175075000Y-130840500D02*
X175075000Y-129890500D01*
G75*
G02*
X175325000Y-129640500I250000J0D01*
G01*
X176000000Y-129640500D01*
G75*
G02*
X176250000Y-129890500I0J-250000D01*
G01*
X176250000Y-130840500D01*
G75*
G02*
X176000000Y-131090500I-250000J0D01*
G01*
X175325000Y-131090500D01*
G75*
G02*
X175075000Y-130840500I0J250000D01*
G01*
G37*
G36*
G01*
X173000000Y-130840500D02*
X173000000Y-129890500D01*
G75*
G02*
X173250000Y-129640500I250000J0D01*
G01*
X173925000Y-129640500D01*
G75*
G02*
X174175000Y-129890500I0J-250000D01*
G01*
X174175000Y-130840500D01*
G75*
G02*
X173925000Y-131090500I-250000J0D01*
G01*
X173250000Y-131090500D01*
G75*
G02*
X173000000Y-130840500I0J250000D01*
G01*
G37*
G36*
G01*
X175075000Y-116553000D02*
X175075000Y-115603000D01*
G75*
G02*
X175325000Y-115353000I250000J0D01*
G01*
X176000000Y-115353000D01*
G75*
G02*
X176250000Y-115603000I0J-250000D01*
G01*
X176250000Y-116553000D01*
G75*
G02*
X176000000Y-116803000I-250000J0D01*
G01*
X175325000Y-116803000D01*
G75*
G02*
X175075000Y-116553000I0J250000D01*
G01*
G37*
G36*
G01*
X173000000Y-116553000D02*
X173000000Y-115603000D01*
G75*
G02*
X173250000Y-115353000I250000J0D01*
G01*
X173925000Y-115353000D01*
G75*
G02*
X174175000Y-115603000I0J-250000D01*
G01*
X174175000Y-116553000D01*
G75*
G02*
X173925000Y-116803000I-250000J0D01*
G01*
X173250000Y-116803000D01*
G75*
G02*
X173000000Y-116553000I0J250000D01*
G01*
G37*
G36*
G01*
X175075000Y-114584500D02*
X175075000Y-113634500D01*
G75*
G02*
X175325000Y-113384500I250000J0D01*
G01*
X176000000Y-113384500D01*
G75*
G02*
X176250000Y-113634500I0J-250000D01*
G01*
X176250000Y-114584500D01*
G75*
G02*
X176000000Y-114834500I-250000J0D01*
G01*
X175325000Y-114834500D01*
G75*
G02*
X175075000Y-114584500I0J250000D01*
G01*
G37*
G36*
G01*
X173000000Y-114584500D02*
X173000000Y-113634500D01*
G75*
G02*
X173250000Y-113384500I250000J0D01*
G01*
X173925000Y-113384500D01*
G75*
G02*
X174175000Y-113634500I0J-250000D01*
G01*
X174175000Y-114584500D01*
G75*
G02*
X173925000Y-114834500I-250000J0D01*
G01*
X173250000Y-114834500D01*
G75*
G02*
X173000000Y-114584500I0J250000D01*
G01*
G37*
G36*
G01*
X175075000Y-112616000D02*
X175075000Y-111666000D01*
G75*
G02*
X175325000Y-111416000I250000J0D01*
G01*
X176000000Y-111416000D01*
G75*
G02*
X176250000Y-111666000I0J-250000D01*
G01*
X176250000Y-112616000D01*
G75*
G02*
X176000000Y-112866000I-250000J0D01*
G01*
X175325000Y-112866000D01*
G75*
G02*
X175075000Y-112616000I0J250000D01*
G01*
G37*
G36*
G01*
X173000000Y-112616000D02*
X173000000Y-111666000D01*
G75*
G02*
X173250000Y-111416000I250000J0D01*
G01*
X173925000Y-111416000D01*
G75*
G02*
X174175000Y-111666000I0J-250000D01*
G01*
X174175000Y-112616000D01*
G75*
G02*
X173925000Y-112866000I-250000J0D01*
G01*
X173250000Y-112866000D01*
G75*
G02*
X173000000Y-112616000I0J250000D01*
G01*
G37*
G36*
G01*
X138778000Y-126169000D02*
X137828000Y-126169000D01*
G75*
G02*
X137578000Y-125919000I0J250000D01*
G01*
X137578000Y-125244000D01*
G75*
G02*
X137828000Y-124994000I250000J0D01*
G01*
X138778000Y-124994000D01*
G75*
G02*
X139028000Y-125244000I0J-250000D01*
G01*
X139028000Y-125919000D01*
G75*
G02*
X138778000Y-126169000I-250000J0D01*
G01*
G37*
G36*
G01*
X138778000Y-128244000D02*
X137828000Y-128244000D01*
G75*
G02*
X137578000Y-127994000I0J250000D01*
G01*
X137578000Y-127319000D01*
G75*
G02*
X137828000Y-127069000I250000J0D01*
G01*
X138778000Y-127069000D01*
G75*
G02*
X139028000Y-127319000I0J-250000D01*
G01*
X139028000Y-127994000D01*
G75*
G02*
X138778000Y-128244000I-250000J0D01*
G01*
G37*
G36*
G01*
X141112001Y-125084000D02*
X139811999Y-125084000D01*
G75*
G02*
X139562000Y-124834001I0J249999D01*
G01*
X139562000Y-124008999D01*
G75*
G02*
X139811999Y-123759000I249999J0D01*
G01*
X141112001Y-123759000D01*
G75*
G02*
X141362000Y-124008999I0J-249999D01*
G01*
X141362000Y-124834001D01*
G75*
G02*
X141112001Y-125084000I-249999J0D01*
G01*
G37*
G36*
G01*
X141112001Y-128209000D02*
X139811999Y-128209000D01*
G75*
G02*
X139562000Y-127959001I0J249999D01*
G01*
X139562000Y-127133999D01*
G75*
G02*
X139811999Y-126884000I249999J0D01*
G01*
X141112001Y-126884000D01*
G75*
G02*
X141362000Y-127133999I0J-249999D01*
G01*
X141362000Y-127959001D01*
G75*
G02*
X141112001Y-128209000I-249999J0D01*
G01*
G37*
G36*
G01*
X126652000Y-131768000D02*
X127602000Y-131768000D01*
G75*
G02*
X127852000Y-132018000I0J-250000D01*
G01*
X127852000Y-132693000D01*
G75*
G02*
X127602000Y-132943000I-250000J0D01*
G01*
X126652000Y-132943000D01*
G75*
G02*
X126402000Y-132693000I0J250000D01*
G01*
X126402000Y-132018000D01*
G75*
G02*
X126652000Y-131768000I250000J0D01*
G01*
G37*
G36*
G01*
X126652000Y-129693000D02*
X127602000Y-129693000D01*
G75*
G02*
X127852000Y-129943000I0J-250000D01*
G01*
X127852000Y-130618000D01*
G75*
G02*
X127602000Y-130868000I-250000J0D01*
G01*
X126652000Y-130868000D01*
G75*
G02*
X126402000Y-130618000I0J250000D01*
G01*
X126402000Y-129943000D01*
G75*
G02*
X126652000Y-129693000I250000J0D01*
G01*
G37*
G36*
G01*
X126757000Y-124729001D02*
X126757000Y-123428999D01*
G75*
G02*
X127006999Y-123179000I249999J0D01*
G01*
X127832001Y-123179000D01*
G75*
G02*
X128082000Y-123428999I0J-249999D01*
G01*
X128082000Y-124729001D01*
G75*
G02*
X127832001Y-124979000I-249999J0D01*
G01*
X127006999Y-124979000D01*
G75*
G02*
X126757000Y-124729001I0J249999D01*
G01*
G37*
G36*
G01*
X123632000Y-124729001D02*
X123632000Y-123428999D01*
G75*
G02*
X123881999Y-123179000I249999J0D01*
G01*
X124707001Y-123179000D01*
G75*
G02*
X124957000Y-123428999I0J-249999D01*
G01*
X124957000Y-124729001D01*
G75*
G02*
X124707001Y-124979000I-249999J0D01*
G01*
X123881999Y-124979000D01*
G75*
G02*
X123632000Y-124729001I0J249999D01*
G01*
G37*
G36*
G01*
X169529999Y-114819000D02*
X170830001Y-114819000D01*
G75*
G02*
X171080000Y-115068999I0J-249999D01*
G01*
X171080000Y-115894001D01*
G75*
G02*
X170830001Y-116144000I-249999J0D01*
G01*
X169529999Y-116144000D01*
G75*
G02*
X169280000Y-115894001I0J249999D01*
G01*
X169280000Y-115068999D01*
G75*
G02*
X169529999Y-114819000I249999J0D01*
G01*
G37*
G36*
G01*
X169529999Y-111694000D02*
X170830001Y-111694000D01*
G75*
G02*
X171080000Y-111943999I0J-249999D01*
G01*
X171080000Y-112769001D01*
G75*
G02*
X170830001Y-113019000I-249999J0D01*
G01*
X169529999Y-113019000D01*
G75*
G02*
X169280000Y-112769001I0J249999D01*
G01*
X169280000Y-111943999D01*
G75*
G02*
X169529999Y-111694000I249999J0D01*
G01*
G37*
G36*
G01*
X170147000Y-109024000D02*
X169197000Y-109024000D01*
G75*
G02*
X168947000Y-108774000I0J250000D01*
G01*
X168947000Y-108099000D01*
G75*
G02*
X169197000Y-107849000I250000J0D01*
G01*
X170147000Y-107849000D01*
G75*
G02*
X170397000Y-108099000I0J-250000D01*
G01*
X170397000Y-108774000D01*
G75*
G02*
X170147000Y-109024000I-250000J0D01*
G01*
G37*
G36*
G01*
X170147000Y-111099000D02*
X169197000Y-111099000D01*
G75*
G02*
X168947000Y-110849000I0J250000D01*
G01*
X168947000Y-110174000D01*
G75*
G02*
X169197000Y-109924000I250000J0D01*
G01*
X170147000Y-109924000D01*
G75*
G02*
X170397000Y-110174000I0J-250000D01*
G01*
X170397000Y-110849000D01*
G75*
G02*
X170147000Y-111099000I-250000J0D01*
G01*
G37*
M02*
