M48
; DRILL file {KiCad (5.1.8)-1} date 05/03/21 11:32:11
; FORMAT={-:-/ absolute / metric / decimal}
; #@! TF.CreationDate,2021-05-03T11:32:11+02:00
; #@! TF.GenerationSoftware,Kicad,Pcbnew,(5.1.8)-1
FMAT,2
METRIC
T1C0.300
T2C0.650
T3C0.762
T4C0.800
T5C0.950
T6C0.990
T7C1.000
T8C1.200
T9C1.300
T10C3.000
T11C0.700
T12C0.900
T13C1.200
%
G90
G05
T1
X110.49Y-122.174
X119.888Y-109.347
X124.587Y-145.923
X127.508Y-144.653
X128.016Y-147.32
X128.016Y-149.733
X128.651Y-138.811
X128.651Y-141.097
X128.651Y-143.129
X129.032Y-137.033
X130.302Y-137.033
X130.556Y-140.208
X131.699Y-135.636
X131.699Y-137.033
X131.826Y-140.208
X136.652Y-141.859
X136.779Y-143.002
X137.541Y-143.637
X138.557Y-144.145
X139.573Y-144.78
X140.843Y-145.542
X140.97Y-107.696
X140.97Y-122.555
X142.24Y-114.3
X142.367Y-108.585
X142.367Y-145.669
X142.811Y-111.188
X143.764Y-145.796
X144.018Y-135.509
X144.129Y-129.683
X144.719Y-130.473
X144.907Y-145.669
X145.109Y-131.263
X145.923Y-145.796
X146.812Y-145.796
X148.082Y-138.547
X148.082Y-139.827
X148.209Y-145.796
X148.3Y-129.815
X148.971Y-126.111
X149.225Y-145.796
X149.729Y-128.02
X150.266Y-135.646
X150.622Y-139.192
X151.003Y-136.017
X151.257Y-139.954
X151.384Y-127.762
X152.273Y-146.431
X152.4Y-136.017
X153.543Y-124.841
X153.797Y-136.017
X154.559Y-136.017
X155.702Y-136.144
X156.347Y-145.933
X157.226Y-136.652
X157.353Y-141.605
X157.48Y-137.668
X157.607Y-143.891
X157.607Y-144.78
X158.623Y-138.43
X159.131Y-141.097
X161.417Y-141.478
X161.417Y-142.748
X161.417Y-143.891
X163.068Y-133.604
X163.185Y-138.609
X163.195Y-130.81
X163.195Y-108.839
X163.286Y-135.7
X163.957Y-145.923
X164.084Y-140.843
X164.719Y-111.506
X165.227Y-145.923
X166.624Y-126.238
X166.624Y-145.923
X167.433Y-136.224
X167.64Y-127.127
X167.64Y-128.27
X167.64Y-129.54
X168.021Y-145.923
X169.291Y-145.923
X172.339Y-140.017
X172.339Y-143.891
X172.593Y-126.238
X172.593Y-112.649
X172.593Y-113.792
X172.593Y-115.57
X172.593Y-118.491
X172.593Y-120.523
X172.593Y-128.397
X172.593Y-132.969
X172.593Y-134.239
X172.72Y-122.491
X172.72Y-124.46
X172.72Y-130.365
X173.101Y-138.43
X173.736Y-142.748
X173.99Y-138.684
X173.99Y-139.7
X176.314Y-142.621
X177.546Y-113.538
X177.673Y-116.205
X178.562Y-128.27
X179.641Y-116.141
X179.832Y-139.446
X179.895Y-141.351
X179.959Y-117.348
X180.467Y-111.252
X181.229Y-118.11
X181.229Y-125.73
X181.229Y-137.668
X181.356Y-134.239
X181.483Y-130.937
X181.546Y-121.539
X182.118Y-128.397
X182.245Y-134.239
X182.372Y-130.889
X182.626Y-137.287
X189.611Y-139.7
X189.611Y-141.732
X189.611Y-143.891
X189.611Y-146.177
X189.611Y-148.082
X189.611Y-149.86
X190.5Y-110.998
X190.5Y-112.903
X190.5Y-114.935
X190.5Y-116.84
X190.627Y-118.999
T2
X144.145Y-111.633
X144.145Y-112.903
X144.145Y-114.173
X145.415Y-111.633
X145.415Y-112.903
X145.415Y-114.173
T3
X130.33Y-101.346
X130.33Y-103.886
X132.87Y-101.346
X132.87Y-103.886
T4
X153.67Y-143.51
X133.009Y-121.031
X135.509Y-121.031
X138.009Y-121.031
X133.009Y-107.061
X135.509Y-107.061
X138.009Y-107.061
X144.526Y-139.446
X133.009Y-117.348
X135.509Y-117.348
X138.009Y-117.348
T5
X141.471Y-143.764
X143.971Y-143.764
X146.471Y-143.764
X148.971Y-143.764
T6
X136.7Y-99.5
X141.2Y-99.5
T7
X136.525Y-132.588
X164.512Y-110.129
X116.205Y-114.3
X116.205Y-116.84
X116.205Y-119.38
X116.205Y-121.92
X116.205Y-124.46
X118.745Y-114.3
X118.745Y-116.84
X118.745Y-119.38
X118.745Y-121.92
X118.745Y-124.46
T8
X113.03Y-110.292
X113.03Y-113.792
X113.03Y-117.292
X113.03Y-120.792
X186.182Y-132.588
X186.182Y-135.088
X186.182Y-137.588
X186.182Y-140.088
X186.182Y-142.588
X186.182Y-145.088
X186.182Y-147.588
X186.182Y-150.088
X113.919Y-135.281
X113.919Y-137.781
X113.919Y-140.281
X113.919Y-142.781
X113.919Y-145.281
X113.919Y-147.781
X113.919Y-150.281
X113.919Y-152.781
X113.03Y-126.548
X113.03Y-130.048
X186.182Y-110.262
X186.182Y-112.762
X186.182Y-115.262
X186.182Y-117.762
X186.182Y-120.262
X186.182Y-122.762
X186.182Y-125.262
X186.182Y-127.762
T9
X135.44Y-101.99
X142.45Y-101.99
T10
X159.0Y-116.245
T11
X179.15Y-108.75
X180.85Y-108.75
T12
X106.985Y-123.238
X106.985Y-126.238
T13
X150.571Y-145.764
T0
M30
