G04 #@! TF.GenerationSoftware,KiCad,Pcbnew,(5.1.8)-1*
G04 #@! TF.CreationDate,2021-05-03T11:31:43+02:00*
G04 #@! TF.ProjectId,sensactHsIO4,73656e73-6163-4744-9873-494f342e6b69,rev?*
G04 #@! TF.SameCoordinates,Original*
G04 #@! TF.FileFunction,Legend,Top*
G04 #@! TF.FilePolarity,Positive*
%FSLAX46Y46*%
G04 Gerber Fmt 4.6, Leading zero omitted, Abs format (unit mm)*
G04 Created by KiCad (PCBNEW (5.1.8)-1) date 2021-05-03 11:31:43*
%MOMM*%
%LPD*%
G01*
G04 APERTURE LIST*
%ADD10C,0.200000*%
%ADD11C,0.300000*%
%ADD12C,0.120000*%
%ADD13C,0.150000*%
%ADD14C,0.250000*%
%ADD15R,5.000000X5.000000*%
%ADD16O,1.600000X2.000000*%
%ADD17O,3.600000X1.800000*%
%ADD18O,1.000000X1.000000*%
%ADD19R,1.000000X1.000000*%
%ADD20C,0.700000*%
%ADD21R,1.400000X1.200000*%
%ADD22R,1.400000X1.600000*%
%ADD23C,1.700000*%
%ADD24C,1.200000*%
%ADD25O,1.700000X1.950000*%
%ADD26R,1.230000X1.230000*%
%ADD27R,0.300000X2.000000*%
%ADD28R,2.000000X0.300000*%
%ADD29R,1.500000X1.000000*%
%ADD30C,0.100000*%
%ADD31R,0.800000X2.000000*%
%ADD32R,2.000000X0.700000*%
%ADD33C,0.900000*%
%ADD34C,1.524000*%
%ADD35R,0.800000X1.900000*%
%ADD36R,1.900000X0.800000*%
%ADD37C,2.100000*%
%ADD38C,1.750000*%
G04 APERTURE END LIST*
D10*
X115582000Y-129865238D02*
X115510571Y-129960476D01*
X115510571Y-130103333D01*
X115582000Y-130246190D01*
X115724857Y-130341428D01*
X115867714Y-130389047D01*
X116153428Y-130436666D01*
X116367714Y-130436666D01*
X116653428Y-130389047D01*
X116796285Y-130341428D01*
X116939142Y-130246190D01*
X117010571Y-130103333D01*
X117010571Y-130008095D01*
X116939142Y-129865238D01*
X116867714Y-129817619D01*
X116367714Y-129817619D01*
X116367714Y-130008095D01*
X117010571Y-129389047D02*
X115510571Y-129389047D01*
X117010571Y-128817619D01*
X115510571Y-128817619D01*
X115653428Y-127627142D02*
X115582000Y-127579523D01*
X115510571Y-127484285D01*
X115510571Y-127246190D01*
X115582000Y-127150952D01*
X115653428Y-127103333D01*
X115796285Y-127055714D01*
X115939142Y-127055714D01*
X116153428Y-127103333D01*
X117010571Y-127674761D01*
X117010571Y-127055714D01*
X116010571Y-126198571D02*
X117010571Y-126198571D01*
X115439142Y-126436666D02*
X116510571Y-126674761D01*
X116510571Y-126055714D01*
D11*
X122047000Y-150749000D02*
X118237000Y-150749000D01*
X122047000Y-148463000D02*
X118237000Y-145923000D01*
X122047000Y-141097000D02*
X118237000Y-141097000D01*
X122047000Y-138811000D02*
X118237000Y-136271000D01*
D10*
X130733523Y-109943571D02*
X130400190Y-109229285D01*
X130162095Y-109943571D02*
X130162095Y-108443571D01*
X130543047Y-108443571D01*
X130638285Y-108515000D01*
X130685904Y-108586428D01*
X130733523Y-108729285D01*
X130733523Y-108943571D01*
X130685904Y-109086428D01*
X130638285Y-109157857D01*
X130543047Y-109229285D01*
X130162095Y-109229285D01*
X131162095Y-109157857D02*
X131495428Y-109157857D01*
X131638285Y-109943571D02*
X131162095Y-109943571D01*
X131162095Y-108443571D01*
X131638285Y-108443571D01*
X132066857Y-109943571D02*
X132066857Y-108443571D01*
X132304952Y-108443571D01*
X132447809Y-108515000D01*
X132543047Y-108657857D01*
X132590666Y-108800714D01*
X132638285Y-109086428D01*
X132638285Y-109300714D01*
X132590666Y-109586428D01*
X132543047Y-109729285D01*
X132447809Y-109872142D01*
X132304952Y-109943571D01*
X132066857Y-109943571D01*
X133066857Y-109800714D02*
X133114476Y-109872142D01*
X133066857Y-109943571D01*
X133019238Y-109872142D01*
X133066857Y-109800714D01*
X133066857Y-109943571D01*
X133066857Y-109015000D02*
X133114476Y-109086428D01*
X133066857Y-109157857D01*
X133019238Y-109086428D01*
X133066857Y-109015000D01*
X133066857Y-109157857D01*
X134304952Y-109943571D02*
X134304952Y-108443571D01*
X134685904Y-108443571D01*
X134781142Y-108515000D01*
X134828761Y-108586428D01*
X134876380Y-108729285D01*
X134876380Y-108943571D01*
X134828761Y-109086428D01*
X134781142Y-109157857D01*
X134685904Y-109229285D01*
X134304952Y-109229285D01*
X135495428Y-108443571D02*
X135685904Y-108443571D01*
X135781142Y-108515000D01*
X135876380Y-108657857D01*
X135924000Y-108943571D01*
X135924000Y-109443571D01*
X135876380Y-109729285D01*
X135781142Y-109872142D01*
X135685904Y-109943571D01*
X135495428Y-109943571D01*
X135400190Y-109872142D01*
X135304952Y-109729285D01*
X135257333Y-109443571D01*
X135257333Y-108943571D01*
X135304952Y-108657857D01*
X135400190Y-108515000D01*
X135495428Y-108443571D01*
X136257333Y-108443571D02*
X136495428Y-109943571D01*
X136685904Y-108872142D01*
X136876380Y-109943571D01*
X137114476Y-108443571D01*
X137495428Y-109157857D02*
X137828761Y-109157857D01*
X137971619Y-109943571D02*
X137495428Y-109943571D01*
X137495428Y-108443571D01*
X137971619Y-108443571D01*
X138971619Y-109943571D02*
X138638285Y-109229285D01*
X138400190Y-109943571D02*
X138400190Y-108443571D01*
X138781142Y-108443571D01*
X138876380Y-108515000D01*
X138924000Y-108586428D01*
X138971619Y-108729285D01*
X138971619Y-108943571D01*
X138924000Y-109086428D01*
X138876380Y-109157857D01*
X138781142Y-109229285D01*
X138400190Y-109229285D01*
X130685904Y-110965000D02*
X130590666Y-110893571D01*
X130447809Y-110893571D01*
X130304952Y-110965000D01*
X130209714Y-111107857D01*
X130162095Y-111250714D01*
X130114476Y-111536428D01*
X130114476Y-111750714D01*
X130162095Y-112036428D01*
X130209714Y-112179285D01*
X130304952Y-112322142D01*
X130447809Y-112393571D01*
X130543047Y-112393571D01*
X130685904Y-112322142D01*
X130733523Y-112250714D01*
X130733523Y-111750714D01*
X130543047Y-111750714D01*
X131733523Y-112393571D02*
X131400190Y-111679285D01*
X131162095Y-112393571D02*
X131162095Y-110893571D01*
X131543047Y-110893571D01*
X131638285Y-110965000D01*
X131685904Y-111036428D01*
X131733523Y-111179285D01*
X131733523Y-111393571D01*
X131685904Y-111536428D01*
X131638285Y-111607857D01*
X131543047Y-111679285D01*
X131162095Y-111679285D01*
X132162095Y-111607857D02*
X132495428Y-111607857D01*
X132638285Y-112393571D02*
X132162095Y-112393571D01*
X132162095Y-110893571D01*
X132638285Y-110893571D01*
X133066857Y-111607857D02*
X133400190Y-111607857D01*
X133543047Y-112393571D02*
X133066857Y-112393571D01*
X133066857Y-110893571D01*
X133543047Y-110893571D01*
X133971619Y-112393571D02*
X133971619Y-110893571D01*
X134543047Y-112393571D01*
X134543047Y-110893571D01*
X135019238Y-112250714D02*
X135066857Y-112322142D01*
X135019238Y-112393571D01*
X134971619Y-112322142D01*
X135019238Y-112250714D01*
X135019238Y-112393571D01*
X135019238Y-111465000D02*
X135066857Y-111536428D01*
X135019238Y-111607857D01*
X134971619Y-111536428D01*
X135019238Y-111465000D01*
X135019238Y-111607857D01*
X135495428Y-112393571D02*
X135495428Y-110893571D01*
X135971619Y-112393571D02*
X135971619Y-110893571D01*
X136543047Y-112393571D01*
X136543047Y-110893571D01*
X137352571Y-111607857D02*
X137019238Y-111607857D01*
X137019238Y-112393571D02*
X137019238Y-110893571D01*
X137495428Y-110893571D01*
X138066857Y-110893571D02*
X138257333Y-110893571D01*
X138352571Y-110965000D01*
X138447809Y-111107857D01*
X138495428Y-111393571D01*
X138495428Y-111893571D01*
X138447809Y-112179285D01*
X138352571Y-112322142D01*
X138257333Y-112393571D01*
X138066857Y-112393571D01*
X137971619Y-112322142D01*
X137876380Y-112179285D01*
X137828761Y-111893571D01*
X137828761Y-111393571D01*
X137876380Y-111107857D01*
X137971619Y-110965000D01*
X138066857Y-110893571D01*
X121820714Y-119760476D02*
X121892142Y-119808095D01*
X121963571Y-119950952D01*
X121963571Y-120046190D01*
X121892142Y-120189047D01*
X121749285Y-120284285D01*
X121606428Y-120331904D01*
X121320714Y-120379523D01*
X121106428Y-120379523D01*
X120820714Y-120331904D01*
X120677857Y-120284285D01*
X120535000Y-120189047D01*
X120463571Y-120046190D01*
X120463571Y-119950952D01*
X120535000Y-119808095D01*
X120606428Y-119760476D01*
X121963571Y-119331904D02*
X120463571Y-119331904D01*
X121177857Y-119331904D02*
X121177857Y-118760476D01*
X121963571Y-118760476D02*
X120463571Y-118760476D01*
X121820714Y-116950952D02*
X121892142Y-116998571D01*
X121963571Y-117141428D01*
X121963571Y-117236666D01*
X121892142Y-117379523D01*
X121749285Y-117474761D01*
X121606428Y-117522380D01*
X121320714Y-117570000D01*
X121106428Y-117570000D01*
X120820714Y-117522380D01*
X120677857Y-117474761D01*
X120535000Y-117379523D01*
X120463571Y-117236666D01*
X120463571Y-117141428D01*
X120535000Y-116998571D01*
X120606428Y-116950952D01*
X121963571Y-116046190D02*
X121963571Y-116522380D01*
X120463571Y-116522380D01*
X121820714Y-114379523D02*
X121892142Y-114427142D01*
X121963571Y-114570000D01*
X121963571Y-114665238D01*
X121892142Y-114808095D01*
X121749285Y-114903333D01*
X121606428Y-114950952D01*
X121320714Y-114998571D01*
X121106428Y-114998571D01*
X120820714Y-114950952D01*
X120677857Y-114903333D01*
X120535000Y-114808095D01*
X120463571Y-114665238D01*
X120463571Y-114570000D01*
X120535000Y-114427142D01*
X120606428Y-114379523D01*
X121963571Y-113474761D02*
X121963571Y-113950952D01*
X120463571Y-113950952D01*
X121820714Y-111808095D02*
X121892142Y-111855714D01*
X121963571Y-111998571D01*
X121963571Y-112093809D01*
X121892142Y-112236666D01*
X121749285Y-112331904D01*
X121606428Y-112379523D01*
X121320714Y-112427142D01*
X121106428Y-112427142D01*
X120820714Y-112379523D01*
X120677857Y-112331904D01*
X120535000Y-112236666D01*
X120463571Y-112093809D01*
X120463571Y-111998571D01*
X120535000Y-111855714D01*
X120606428Y-111808095D01*
X121963571Y-111379523D02*
X120463571Y-111379523D01*
X121177857Y-111379523D02*
X121177857Y-110808095D01*
X121963571Y-110808095D02*
X120463571Y-110808095D01*
D11*
X105838761Y-153209142D02*
X105838761Y-152923428D01*
X105934000Y-152780571D01*
X106124476Y-152637714D01*
X106505428Y-152566285D01*
X107172095Y-152566285D01*
X107553047Y-152637714D01*
X107743523Y-152780571D01*
X107838761Y-152923428D01*
X107838761Y-153209142D01*
X107743523Y-153352000D01*
X107553047Y-153494857D01*
X107172095Y-153566285D01*
X106505428Y-153566285D01*
X106124476Y-153494857D01*
X105934000Y-153352000D01*
X105838761Y-153209142D01*
X105838761Y-151923428D02*
X107457809Y-151923428D01*
X107648285Y-151852000D01*
X107743523Y-151780571D01*
X107838761Y-151637714D01*
X107838761Y-151352000D01*
X107743523Y-151209142D01*
X107648285Y-151137714D01*
X107457809Y-151066285D01*
X105838761Y-151066285D01*
X105838761Y-150566285D02*
X105838761Y-149709142D01*
X107838761Y-150137714D02*
X105838761Y-150137714D01*
X105838761Y-149352000D02*
X105838761Y-148423428D01*
X106600666Y-148923428D01*
X106600666Y-148709142D01*
X106695904Y-148566285D01*
X106791142Y-148494857D01*
X106981619Y-148423428D01*
X107457809Y-148423428D01*
X107648285Y-148494857D01*
X107743523Y-148566285D01*
X107838761Y-148709142D01*
X107838761Y-149137714D01*
X107743523Y-149280571D01*
X107648285Y-149352000D01*
X107076857Y-147780571D02*
X107076857Y-146637714D01*
X105838761Y-145637714D02*
X105838761Y-145494857D01*
X105934000Y-145352000D01*
X106029238Y-145280571D01*
X106219714Y-145209142D01*
X106600666Y-145137714D01*
X107076857Y-145137714D01*
X107457809Y-145209142D01*
X107648285Y-145280571D01*
X107743523Y-145352000D01*
X107838761Y-145494857D01*
X107838761Y-145637714D01*
X107743523Y-145780571D01*
X107648285Y-145852000D01*
X107457809Y-145923428D01*
X107076857Y-145994857D01*
X106600666Y-145994857D01*
X106219714Y-145923428D01*
X106029238Y-145852000D01*
X105934000Y-145780571D01*
X105838761Y-145637714D01*
X192516238Y-144209000D02*
X194516238Y-144209000D01*
X194516238Y-145209000D02*
X194516238Y-145494714D01*
X194421000Y-145637571D01*
X194230523Y-145780428D01*
X193849571Y-145851857D01*
X193182904Y-145851857D01*
X192801952Y-145780428D01*
X192611476Y-145637571D01*
X192516238Y-145494714D01*
X192516238Y-145209000D01*
X192611476Y-145066142D01*
X192801952Y-144923285D01*
X193182904Y-144851857D01*
X193849571Y-144851857D01*
X194230523Y-144923285D01*
X194421000Y-145066142D01*
X194516238Y-145209000D01*
X193659095Y-146709000D02*
X193754333Y-146566142D01*
X193849571Y-146494714D01*
X194040047Y-146423285D01*
X194135285Y-146423285D01*
X194325761Y-146494714D01*
X194421000Y-146566142D01*
X194516238Y-146709000D01*
X194516238Y-146994714D01*
X194421000Y-147137571D01*
X194325761Y-147209000D01*
X194135285Y-147280428D01*
X194040047Y-147280428D01*
X193849571Y-147209000D01*
X193754333Y-147137571D01*
X193659095Y-146994714D01*
X193659095Y-146709000D01*
X193563857Y-146566142D01*
X193468619Y-146494714D01*
X193278142Y-146423285D01*
X192897190Y-146423285D01*
X192706714Y-146494714D01*
X192611476Y-146566142D01*
X192516238Y-146709000D01*
X192516238Y-146994714D01*
X192611476Y-147137571D01*
X192706714Y-147209000D01*
X192897190Y-147280428D01*
X193278142Y-147280428D01*
X193468619Y-147209000D01*
X193563857Y-147137571D01*
X193659095Y-146994714D01*
X192706714Y-147923285D02*
X192611476Y-147994714D01*
X192516238Y-147923285D01*
X192611476Y-147851857D01*
X192706714Y-147923285D01*
X192516238Y-147923285D01*
X192706714Y-148637571D02*
X192611476Y-148709000D01*
X192516238Y-148637571D01*
X192611476Y-148566142D01*
X192706714Y-148637571D01*
X192516238Y-148637571D01*
X192706714Y-149351857D02*
X192611476Y-149423285D01*
X192516238Y-149351857D01*
X192611476Y-149280428D01*
X192706714Y-149351857D01*
X192516238Y-149351857D01*
X192516238Y-150851857D02*
X192516238Y-149994714D01*
X192516238Y-150423285D02*
X194516238Y-150423285D01*
X194230523Y-150280428D01*
X194040047Y-150137571D01*
X193944809Y-149994714D01*
X194516238Y-152209000D02*
X194516238Y-151494714D01*
X193563857Y-151423285D01*
X193659095Y-151494714D01*
X193754333Y-151637571D01*
X193754333Y-151994714D01*
X193659095Y-152137571D01*
X193563857Y-152209000D01*
X193373380Y-152280428D01*
X192897190Y-152280428D01*
X192706714Y-152209000D01*
X192611476Y-152137571D01*
X192516238Y-151994714D01*
X192516238Y-151637571D01*
X192611476Y-151494714D01*
X192706714Y-151423285D01*
X192516238Y-108736714D02*
X194516238Y-108736714D01*
X192516238Y-109451000D02*
X194516238Y-109451000D01*
X192516238Y-110308142D01*
X194516238Y-110308142D01*
X194516238Y-111308142D02*
X194516238Y-111451000D01*
X194421000Y-111593857D01*
X194325761Y-111665285D01*
X194135285Y-111736714D01*
X193754333Y-111808142D01*
X193278142Y-111808142D01*
X192897190Y-111736714D01*
X192706714Y-111665285D01*
X192611476Y-111593857D01*
X192516238Y-111451000D01*
X192516238Y-111308142D01*
X192611476Y-111165285D01*
X192706714Y-111093857D01*
X192897190Y-111022428D01*
X193278142Y-110951000D01*
X193754333Y-110951000D01*
X194135285Y-111022428D01*
X194325761Y-111093857D01*
X194421000Y-111165285D01*
X194516238Y-111308142D01*
X193278142Y-112451000D02*
X193278142Y-113593857D01*
X194516238Y-114165285D02*
X194516238Y-115093857D01*
X193754333Y-114593857D01*
X193754333Y-114808142D01*
X193659095Y-114951000D01*
X193563857Y-115022428D01*
X193373380Y-115093857D01*
X192897190Y-115093857D01*
X192706714Y-115022428D01*
X192611476Y-114951000D01*
X192516238Y-114808142D01*
X192516238Y-114379571D01*
X192611476Y-114236714D01*
X192706714Y-114165285D01*
X192516238Y-116879571D02*
X194516238Y-116879571D01*
X194516238Y-117879571D02*
X194516238Y-118165285D01*
X194421000Y-118308142D01*
X194230523Y-118451000D01*
X193849571Y-118522428D01*
X193182904Y-118522428D01*
X192801952Y-118451000D01*
X192611476Y-118308142D01*
X192516238Y-118165285D01*
X192516238Y-117879571D01*
X192611476Y-117736714D01*
X192801952Y-117593857D01*
X193182904Y-117522428D01*
X193849571Y-117522428D01*
X194230523Y-117593857D01*
X194421000Y-117736714D01*
X194516238Y-117879571D01*
X193849571Y-119808142D02*
X192516238Y-119808142D01*
X194611476Y-119451000D02*
X193182904Y-119093857D01*
X193182904Y-120022428D01*
X193278142Y-120593857D02*
X193278142Y-121736714D01*
X194516238Y-122308142D02*
X194516238Y-123308142D01*
X192516238Y-122665285D01*
D12*
X124052064Y-121693000D02*
X123597936Y-121693000D01*
X124052064Y-123163000D02*
X123597936Y-123163000D01*
X119867000Y-123240748D02*
X119867000Y-124663252D01*
X121687000Y-123240748D02*
X121687000Y-124663252D01*
X143721064Y-117883000D02*
X143266936Y-117883000D01*
X143721064Y-119353000D02*
X143266936Y-119353000D01*
X177800000Y-107850000D02*
X182000000Y-107850000D01*
X181000000Y-110450000D02*
X179000000Y-110450000D01*
D13*
X179000000Y-107850000D02*
X179000000Y-106650000D01*
X179000000Y-106650000D02*
X181000000Y-106650000D01*
X181000000Y-106650000D02*
X181000000Y-107850000D01*
D12*
X167486064Y-107977000D02*
X167031936Y-107977000D01*
X167486064Y-109447000D02*
X167031936Y-109447000D01*
X139057748Y-138203000D02*
X139580252Y-138203000D01*
X139057748Y-139673000D02*
X139580252Y-139673000D01*
D14*
X156170000Y-144260000D02*
G75*
G03*
X156170000Y-144260000I-125000J0D01*
G01*
D13*
X155170000Y-142010000D02*
X155070000Y-142010000D01*
X152270000Y-142010000D02*
X152170000Y-142010000D01*
X152270000Y-145010000D02*
X152170000Y-145010000D01*
X155170000Y-145010000D02*
X155070000Y-145010000D01*
X155170000Y-144910000D02*
X155170000Y-145010000D01*
X152170000Y-144910000D02*
X152170000Y-145010000D01*
X152170000Y-142010000D02*
X152170000Y-142110000D01*
X155170000Y-142010000D02*
X155170000Y-142110000D01*
D14*
X145401000Y-137071000D02*
G75*
G03*
X145401000Y-137071000I-125000J0D01*
G01*
D13*
X143026000Y-137946000D02*
X143026000Y-138046000D01*
X143026000Y-140846000D02*
X143026000Y-140946000D01*
X146026000Y-140846000D02*
X146026000Y-140946000D01*
X146026000Y-137946000D02*
X146026000Y-138046000D01*
X145926000Y-137946000D02*
X146026000Y-137946000D01*
X145926000Y-140946000D02*
X146026000Y-140946000D01*
X143026000Y-140946000D02*
X143126000Y-140946000D01*
X143026000Y-137946000D02*
X143126000Y-137946000D01*
D12*
X140943064Y-137641000D02*
X140488936Y-137641000D01*
X140943064Y-136171000D02*
X140488936Y-136171000D01*
X159558000Y-145814000D02*
X158958000Y-145814000D01*
X160258000Y-142364000D02*
X160258000Y-145164000D01*
X158958000Y-141714000D02*
X159558000Y-141714000D01*
X158258000Y-145164000D02*
X158258000Y-142364000D01*
X158958000Y-145814000D02*
G75*
G02*
X158258000Y-145114000I0J700000D01*
G01*
X160258000Y-145114000D02*
G75*
G02*
X159558000Y-145814000I-700000J0D01*
G01*
X159558000Y-141714000D02*
G75*
G02*
X160258000Y-142414000I0J-700000D01*
G01*
X158258000Y-142414000D02*
G75*
G02*
X158958000Y-141714000I700000J0D01*
G01*
X139057748Y-140235000D02*
X139580252Y-140235000D01*
X139057748Y-141705000D02*
X139580252Y-141705000D01*
X154024000Y-138168748D02*
X154024000Y-138691252D01*
X152554000Y-138168748D02*
X152554000Y-138691252D01*
X156056000Y-138168748D02*
X156056000Y-138691252D01*
X154586000Y-138168748D02*
X154586000Y-138691252D01*
X106595000Y-128188000D02*
X107385000Y-128188000D01*
X107385000Y-121288000D02*
X106595000Y-121288000D01*
X108435000Y-123138000D02*
X108435000Y-124838000D01*
X105585000Y-121888000D02*
X105585000Y-127588000D01*
X104295000Y-124638000D02*
X105585000Y-124638000D01*
X104085000Y-123538000D02*
X104085000Y-124438000D01*
X105585000Y-123338000D02*
X104295000Y-123338000D01*
X104295000Y-124638000D02*
X104085000Y-124438000D01*
X104295000Y-123338000D02*
X104085000Y-123538000D01*
X108435000Y-126138000D02*
X108435000Y-126338000D01*
X136244064Y-104875000D02*
X135789936Y-104875000D01*
X136244064Y-103405000D02*
X135789936Y-103405000D01*
X107640000Y-116203000D02*
X107640000Y-114743000D01*
X110800000Y-116203000D02*
X110800000Y-113043000D01*
X110800000Y-116203000D02*
X109870000Y-116203000D01*
X107640000Y-116203000D02*
X108570000Y-116203000D01*
X170661064Y-133504000D02*
X170206936Y-133504000D01*
X170661064Y-134974000D02*
X170206936Y-134974000D01*
X174397936Y-134974000D02*
X174852064Y-134974000D01*
X174397936Y-133504000D02*
X174852064Y-133504000D01*
X170661064Y-127535000D02*
X170206936Y-127535000D01*
X170661064Y-129005000D02*
X170206936Y-129005000D01*
X174397936Y-129005000D02*
X174852064Y-129005000D01*
X174397936Y-127535000D02*
X174852064Y-127535000D01*
X169454500Y-137450564D02*
X169454500Y-136996436D01*
X167984500Y-137450564D02*
X167984500Y-136996436D01*
X178281000Y-143356064D02*
X178281000Y-142901936D01*
X176811000Y-143356064D02*
X176811000Y-142901936D01*
X173226000Y-138803500D02*
X171766000Y-138803500D01*
X173226000Y-135643500D02*
X170066000Y-135643500D01*
X173226000Y-135643500D02*
X173226000Y-136573500D01*
X173226000Y-138803500D02*
X173226000Y-137873500D01*
X182116000Y-144709000D02*
X180656000Y-144709000D01*
X182116000Y-141549000D02*
X178956000Y-141549000D01*
X182116000Y-141549000D02*
X182116000Y-142479000D01*
X182116000Y-144709000D02*
X182116000Y-143779000D01*
X182116000Y-133469500D02*
X182116000Y-132539500D01*
X182116000Y-130309500D02*
X182116000Y-131239500D01*
X182116000Y-130309500D02*
X178956000Y-130309500D01*
X182116000Y-133469500D02*
X180656000Y-133469500D01*
X190526936Y-131862500D02*
X190981064Y-131862500D01*
X190526936Y-130392500D02*
X190981064Y-130392500D01*
X189174000Y-135697500D02*
X189174000Y-134237500D01*
X192334000Y-135697500D02*
X192334000Y-132537500D01*
X192334000Y-135697500D02*
X191404000Y-135697500D01*
X189174000Y-135697500D02*
X190104000Y-135697500D01*
X112733064Y-124560000D02*
X112278936Y-124560000D01*
X112733064Y-123090000D02*
X112278936Y-123090000D01*
X120142000Y-135381000D02*
X118132000Y-135381000D01*
X118132000Y-135381000D02*
X118132000Y-135736000D01*
X120142000Y-135381000D02*
X122152000Y-135381000D01*
X122152000Y-135381000D02*
X122152000Y-135736000D01*
X120142000Y-139701000D02*
X118132000Y-139701000D01*
X118132000Y-139701000D02*
X118132000Y-139346000D01*
X120142000Y-139701000D02*
X122152000Y-139701000D01*
X122152000Y-139701000D02*
X122152000Y-139346000D01*
X122152000Y-139346000D02*
X123617000Y-139346000D01*
X120142000Y-140207000D02*
X118132000Y-140207000D01*
X118132000Y-140207000D02*
X118132000Y-140562000D01*
X120142000Y-140207000D02*
X122152000Y-140207000D01*
X122152000Y-140207000D02*
X122152000Y-140562000D01*
X120142000Y-144527000D02*
X118132000Y-144527000D01*
X118132000Y-144527000D02*
X118132000Y-144172000D01*
X120142000Y-144527000D02*
X122152000Y-144527000D01*
X122152000Y-144527000D02*
X122152000Y-144172000D01*
X122152000Y-144172000D02*
X123617000Y-144172000D01*
X120142000Y-145033000D02*
X118132000Y-145033000D01*
X118132000Y-145033000D02*
X118132000Y-145388000D01*
X120142000Y-145033000D02*
X122152000Y-145033000D01*
X122152000Y-145033000D02*
X122152000Y-145388000D01*
X120142000Y-149353000D02*
X118132000Y-149353000D01*
X118132000Y-149353000D02*
X118132000Y-148998000D01*
X120142000Y-149353000D02*
X122152000Y-149353000D01*
X122152000Y-149353000D02*
X122152000Y-148998000D01*
X122152000Y-148998000D02*
X123617000Y-148998000D01*
X120142000Y-149859000D02*
X118132000Y-149859000D01*
X118132000Y-149859000D02*
X118132000Y-150214000D01*
X120142000Y-149859000D02*
X122152000Y-149859000D01*
X122152000Y-149859000D02*
X122152000Y-150214000D01*
X120142000Y-154179000D02*
X118132000Y-154179000D01*
X118132000Y-154179000D02*
X118132000Y-153824000D01*
X120142000Y-154179000D02*
X122152000Y-154179000D01*
X122152000Y-154179000D02*
X122152000Y-153824000D01*
X122152000Y-153824000D02*
X123617000Y-153824000D01*
X170661064Y-125503000D02*
X170206936Y-125503000D01*
X170661064Y-126973000D02*
X170206936Y-126973000D01*
X170661064Y-123598000D02*
X170206936Y-123598000D01*
X170661064Y-125068000D02*
X170206936Y-125068000D01*
X170661064Y-121566000D02*
X170206936Y-121566000D01*
X170661064Y-123036000D02*
X170206936Y-123036000D01*
X170661064Y-119534000D02*
X170206936Y-119534000D01*
X170661064Y-121004000D02*
X170206936Y-121004000D01*
X174397936Y-126973000D02*
X174852064Y-126973000D01*
X174397936Y-125503000D02*
X174852064Y-125503000D01*
X174397936Y-125068000D02*
X174852064Y-125068000D01*
X174397936Y-123598000D02*
X174852064Y-123598000D01*
X174397936Y-123036000D02*
X174852064Y-123036000D01*
X174397936Y-121566000D02*
X174852064Y-121566000D01*
X174397936Y-121004000D02*
X174852064Y-121004000D01*
X174397936Y-119534000D02*
X174852064Y-119534000D01*
X190981064Y-127027000D02*
X190526936Y-127027000D01*
X190981064Y-128497000D02*
X190526936Y-128497000D01*
X178281000Y-127481064D02*
X178281000Y-127026936D01*
X176811000Y-127481064D02*
X176811000Y-127026936D01*
X178281000Y-123544064D02*
X178281000Y-123089936D01*
X176811000Y-123544064D02*
X176811000Y-123089936D01*
X178281000Y-119734064D02*
X178281000Y-119279936D01*
X176811000Y-119734064D02*
X176811000Y-119279936D01*
X161517064Y-139028500D02*
X161062936Y-139028500D01*
X161517064Y-140498500D02*
X161062936Y-140498500D01*
X161517064Y-136996500D02*
X161062936Y-136996500D01*
X161517064Y-138466500D02*
X161062936Y-138466500D01*
X161517064Y-134964500D02*
X161062936Y-134964500D01*
X161517064Y-136434500D02*
X161062936Y-136434500D01*
X161517064Y-132869000D02*
X161062936Y-132869000D01*
X161517064Y-134339000D02*
X161062936Y-134339000D01*
X164872936Y-140498500D02*
X165327064Y-140498500D01*
X164872936Y-139028500D02*
X165327064Y-139028500D01*
X164872936Y-138466500D02*
X165327064Y-138466500D01*
X164872936Y-136996500D02*
X165327064Y-136996500D01*
X164872936Y-136434500D02*
X165327064Y-136434500D01*
X164872936Y-134964500D02*
X165327064Y-134964500D01*
X164872936Y-134339000D02*
X165327064Y-134339000D01*
X164872936Y-132869000D02*
X165327064Y-132869000D01*
X164872936Y-143102000D02*
X165327064Y-143102000D01*
X164872936Y-141632000D02*
X165327064Y-141632000D01*
X169454500Y-141197064D02*
X169454500Y-140742936D01*
X167984500Y-141197064D02*
X167984500Y-140742936D01*
X170661064Y-131599000D02*
X170206936Y-131599000D01*
X170661064Y-133069000D02*
X170206936Y-133069000D01*
X170661064Y-129440000D02*
X170206936Y-129440000D01*
X170661064Y-130910000D02*
X170206936Y-130910000D01*
X174397936Y-133069000D02*
X174852064Y-133069000D01*
X174397936Y-131599000D02*
X174852064Y-131599000D01*
X174397936Y-130910000D02*
X174852064Y-130910000D01*
X174397936Y-129440000D02*
X174852064Y-129440000D01*
X178281000Y-139609564D02*
X178281000Y-139155436D01*
X176811000Y-139609564D02*
X176811000Y-139155436D01*
X178281000Y-135863064D02*
X178281000Y-135408936D01*
X176811000Y-135863064D02*
X176811000Y-135408936D01*
X178281000Y-132116564D02*
X178281000Y-131662436D01*
X176811000Y-132116564D02*
X176811000Y-131662436D01*
X170661064Y-117629000D02*
X170206936Y-117629000D01*
X170661064Y-119099000D02*
X170206936Y-119099000D01*
X170661064Y-115724000D02*
X170206936Y-115724000D01*
X170661064Y-117194000D02*
X170206936Y-117194000D01*
X170661064Y-113819000D02*
X170206936Y-113819000D01*
X170661064Y-115289000D02*
X170206936Y-115289000D01*
X170661064Y-111914000D02*
X170206936Y-111914000D01*
X170661064Y-113384000D02*
X170206936Y-113384000D01*
X174397936Y-119099000D02*
X174852064Y-119099000D01*
X174397936Y-117629000D02*
X174852064Y-117629000D01*
X174397936Y-117194000D02*
X174852064Y-117194000D01*
X174397936Y-115724000D02*
X174852064Y-115724000D01*
X174397936Y-115289000D02*
X174852064Y-115289000D01*
X174397936Y-113819000D02*
X174852064Y-113819000D01*
X174397936Y-113384000D02*
X174852064Y-113384000D01*
X174397936Y-111914000D02*
X174852064Y-111914000D01*
X126465064Y-138076000D02*
X126010936Y-138076000D01*
X126465064Y-139546000D02*
X126010936Y-139546000D01*
X126465064Y-140362000D02*
X126010936Y-140362000D01*
X126465064Y-141832000D02*
X126010936Y-141832000D01*
X126465064Y-147728000D02*
X126010936Y-147728000D01*
X126465064Y-149198000D02*
X126010936Y-149198000D01*
X126465064Y-150014000D02*
X126010936Y-150014000D01*
X126465064Y-151484000D02*
X126010936Y-151484000D01*
X133577064Y-98706000D02*
X133122936Y-98706000D01*
X133577064Y-100176000D02*
X133122936Y-100176000D01*
X147801000Y-111733064D02*
X147801000Y-111278936D01*
X146331000Y-111733064D02*
X146331000Y-111278936D01*
X192334000Y-123192000D02*
X192334000Y-124652000D01*
X189174000Y-123192000D02*
X189174000Y-126352000D01*
X189174000Y-123192000D02*
X190104000Y-123192000D01*
X192334000Y-123192000D02*
X191404000Y-123192000D01*
X182140000Y-128834000D02*
X180680000Y-128834000D01*
X182140000Y-125674000D02*
X178980000Y-125674000D01*
X182140000Y-125674000D02*
X182140000Y-126604000D01*
X182140000Y-128834000D02*
X182140000Y-127904000D01*
X182116000Y-124897000D02*
X180656000Y-124897000D01*
X182116000Y-121737000D02*
X178956000Y-121737000D01*
X182116000Y-121737000D02*
X182116000Y-122667000D01*
X182116000Y-124897000D02*
X182116000Y-123967000D01*
X182116000Y-121087000D02*
X180656000Y-121087000D01*
X182116000Y-117927000D02*
X178956000Y-117927000D01*
X182116000Y-117927000D02*
X182116000Y-118857000D01*
X182116000Y-121087000D02*
X182116000Y-120157000D01*
X173226000Y-146360000D02*
X171766000Y-146360000D01*
X173226000Y-143200000D02*
X170066000Y-143200000D01*
X173226000Y-143200000D02*
X173226000Y-144130000D01*
X173226000Y-146360000D02*
X173226000Y-145430000D01*
X173226000Y-142550000D02*
X171766000Y-142550000D01*
X173226000Y-139390000D02*
X170066000Y-139390000D01*
X173226000Y-139390000D02*
X173226000Y-140320000D01*
X173226000Y-142550000D02*
X173226000Y-141620000D01*
X182116000Y-140962500D02*
X180656000Y-140962500D01*
X182116000Y-137802500D02*
X178956000Y-137802500D01*
X182116000Y-137802500D02*
X182116000Y-138732500D01*
X182116000Y-140962500D02*
X182116000Y-140032500D01*
X182116000Y-137216000D02*
X180656000Y-137216000D01*
X182116000Y-134056000D02*
X178956000Y-134056000D01*
X182116000Y-134056000D02*
X182116000Y-134986000D01*
X182116000Y-137216000D02*
X182116000Y-136286000D01*
X147801000Y-115577252D02*
X147801000Y-115054748D01*
X146331000Y-115577252D02*
X146331000Y-115054748D01*
D13*
X123134523Y-120563714D02*
X123134523Y-121230380D01*
X122896428Y-120182761D02*
X122658333Y-120897047D01*
X123277380Y-120897047D01*
X123658333Y-121230380D02*
X123658333Y-120230380D01*
X123753571Y-120849428D02*
X124039285Y-121230380D01*
X124039285Y-120563714D02*
X123658333Y-120944666D01*
X124372619Y-120230380D02*
X125039285Y-120230380D01*
X124610714Y-121230380D01*
X122642333Y-124404380D02*
X122070904Y-124404380D01*
X122356619Y-124404380D02*
X122356619Y-123404380D01*
X122261380Y-123547238D01*
X122166142Y-123642476D01*
X122070904Y-123690095D01*
X123499476Y-123737714D02*
X123499476Y-124404380D01*
X123070904Y-123737714D02*
X123070904Y-124261523D01*
X123118523Y-124356761D01*
X123213761Y-124404380D01*
X123356619Y-124404380D01*
X123451857Y-124356761D01*
X123499476Y-124309142D01*
X146200761Y-119070380D02*
X145629333Y-119070380D01*
X145915047Y-119070380D02*
X145915047Y-118070380D01*
X145819809Y-118213238D01*
X145724571Y-118308476D01*
X145629333Y-118356095D01*
X146819809Y-118070380D02*
X146915047Y-118070380D01*
X147010285Y-118118000D01*
X147057904Y-118165619D01*
X147105523Y-118260857D01*
X147153142Y-118451333D01*
X147153142Y-118689428D01*
X147105523Y-118879904D01*
X147057904Y-118975142D01*
X147010285Y-119022761D01*
X146915047Y-119070380D01*
X146819809Y-119070380D01*
X146724571Y-119022761D01*
X146676952Y-118975142D01*
X146629333Y-118879904D01*
X146581714Y-118689428D01*
X146581714Y-118451333D01*
X146629333Y-118260857D01*
X146676952Y-118165619D01*
X146724571Y-118118000D01*
X146819809Y-118070380D01*
X147581714Y-119070380D02*
X147581714Y-118070380D01*
X147676952Y-118689428D02*
X147962666Y-119070380D01*
X147962666Y-118403714D02*
X147581714Y-118784666D01*
X178547619Y-112452380D02*
X178214285Y-111976190D01*
X177976190Y-112452380D02*
X177976190Y-111452380D01*
X178357142Y-111452380D01*
X178452380Y-111500000D01*
X178500000Y-111547619D01*
X178547619Y-111642857D01*
X178547619Y-111785714D01*
X178500000Y-111880952D01*
X178452380Y-111928571D01*
X178357142Y-111976190D01*
X177976190Y-111976190D01*
X178976190Y-111928571D02*
X179309523Y-111928571D01*
X179452380Y-112452380D02*
X178976190Y-112452380D01*
X178976190Y-111452380D01*
X179452380Y-111452380D01*
X179833333Y-112404761D02*
X179976190Y-112452380D01*
X180214285Y-112452380D01*
X180309523Y-112404761D01*
X180357142Y-112357142D01*
X180404761Y-112261904D01*
X180404761Y-112166666D01*
X180357142Y-112071428D01*
X180309523Y-112023809D01*
X180214285Y-111976190D01*
X180023809Y-111928571D01*
X179928571Y-111880952D01*
X179880952Y-111833333D01*
X179833333Y-111738095D01*
X179833333Y-111642857D01*
X179880952Y-111547619D01*
X179928571Y-111500000D01*
X180023809Y-111452380D01*
X180261904Y-111452380D01*
X180404761Y-111500000D01*
X180833333Y-111928571D02*
X181166666Y-111928571D01*
X181309523Y-112452380D02*
X180833333Y-112452380D01*
X180833333Y-111452380D01*
X181309523Y-111452380D01*
X181595238Y-111452380D02*
X182166666Y-111452380D01*
X181880952Y-112452380D02*
X181880952Y-111452380D01*
X166616142Y-107514380D02*
X166616142Y-106514380D01*
X166711380Y-107133428D02*
X166997095Y-107514380D01*
X166997095Y-106847714D02*
X166616142Y-107228666D01*
X167949476Y-107514380D02*
X167378047Y-107514380D01*
X167663761Y-107514380D02*
X167663761Y-106514380D01*
X167568523Y-106657238D01*
X167473285Y-106752476D01*
X167378047Y-106800095D01*
X135501142Y-139390380D02*
X134929714Y-139390380D01*
X135215428Y-139390380D02*
X135215428Y-138390380D01*
X135120190Y-138533238D01*
X135024952Y-138628476D01*
X134929714Y-138676095D01*
X136120190Y-138390380D02*
X136215428Y-138390380D01*
X136310666Y-138438000D01*
X136358285Y-138485619D01*
X136405904Y-138580857D01*
X136453523Y-138771333D01*
X136453523Y-139009428D01*
X136405904Y-139199904D01*
X136358285Y-139295142D01*
X136310666Y-139342761D01*
X136215428Y-139390380D01*
X136120190Y-139390380D01*
X136024952Y-139342761D01*
X135977333Y-139295142D01*
X135929714Y-139199904D01*
X135882095Y-139009428D01*
X135882095Y-138771333D01*
X135929714Y-138580857D01*
X135977333Y-138485619D01*
X136024952Y-138438000D01*
X136120190Y-138390380D01*
X137310666Y-138723714D02*
X137310666Y-139390380D01*
X136882095Y-138723714D02*
X136882095Y-139247523D01*
X136929714Y-139342761D01*
X137024952Y-139390380D01*
X137167809Y-139390380D01*
X137263047Y-139342761D01*
X137310666Y-139295142D01*
X135263142Y-136453619D02*
X135310761Y-136406000D01*
X135406000Y-136358380D01*
X135644095Y-136358380D01*
X135739333Y-136406000D01*
X135786952Y-136453619D01*
X135834571Y-136548857D01*
X135834571Y-136644095D01*
X135786952Y-136786952D01*
X135215523Y-137358380D01*
X135834571Y-137358380D01*
X136215523Y-136453619D02*
X136263142Y-136406000D01*
X136358380Y-136358380D01*
X136596476Y-136358380D01*
X136691714Y-136406000D01*
X136739333Y-136453619D01*
X136786952Y-136548857D01*
X136786952Y-136644095D01*
X136739333Y-136786952D01*
X136167904Y-137358380D01*
X136786952Y-137358380D01*
X137406000Y-136358380D02*
X137501238Y-136358380D01*
X137596476Y-136406000D01*
X137644095Y-136453619D01*
X137691714Y-136548857D01*
X137739333Y-136739333D01*
X137739333Y-136977428D01*
X137691714Y-137167904D01*
X137644095Y-137263142D01*
X137596476Y-137310761D01*
X137501238Y-137358380D01*
X137406000Y-137358380D01*
X137310761Y-137310761D01*
X137263142Y-137263142D01*
X137215523Y-137167904D01*
X137167904Y-136977428D01*
X137167904Y-136739333D01*
X137215523Y-136548857D01*
X137263142Y-136453619D01*
X137310761Y-136406000D01*
X137406000Y-136358380D01*
X138167904Y-137358380D02*
X138167904Y-136358380D01*
X138263142Y-136977428D02*
X138548857Y-137358380D01*
X138548857Y-136691714D02*
X138167904Y-137072666D01*
X161869380Y-145954476D02*
X161869380Y-146525904D01*
X161869380Y-146240190D02*
X160869380Y-146240190D01*
X161012238Y-146335428D01*
X161107476Y-146430666D01*
X161155095Y-146525904D01*
X160964619Y-145573523D02*
X160917000Y-145525904D01*
X160869380Y-145430666D01*
X160869380Y-145192571D01*
X160917000Y-145097333D01*
X160964619Y-145049714D01*
X161059857Y-145002095D01*
X161155095Y-145002095D01*
X161297952Y-145049714D01*
X161869380Y-145621142D01*
X161869380Y-145002095D01*
X160821761Y-143859238D02*
X162107476Y-144716380D01*
X161869380Y-143478285D02*
X161869380Y-143287809D01*
X161821761Y-143192571D01*
X161774142Y-143144952D01*
X161631285Y-143049714D01*
X161440809Y-143002095D01*
X161059857Y-143002095D01*
X160964619Y-143049714D01*
X160917000Y-143097333D01*
X160869380Y-143192571D01*
X160869380Y-143383047D01*
X160917000Y-143478285D01*
X160964619Y-143525904D01*
X161059857Y-143573523D01*
X161297952Y-143573523D01*
X161393190Y-143525904D01*
X161440809Y-143478285D01*
X161488428Y-143383047D01*
X161488428Y-143192571D01*
X161440809Y-143097333D01*
X161393190Y-143049714D01*
X161297952Y-143002095D01*
X160821761Y-141859238D02*
X162107476Y-142716380D01*
X160869380Y-141097333D02*
X160869380Y-141287809D01*
X160917000Y-141383047D01*
X160964619Y-141430666D01*
X161107476Y-141525904D01*
X161297952Y-141573523D01*
X161678904Y-141573523D01*
X161774142Y-141525904D01*
X161821761Y-141478285D01*
X161869380Y-141383047D01*
X161869380Y-141192571D01*
X161821761Y-141097333D01*
X161774142Y-141049714D01*
X161678904Y-141002095D01*
X161440809Y-141002095D01*
X161345571Y-141049714D01*
X161297952Y-141097333D01*
X161250333Y-141192571D01*
X161250333Y-141383047D01*
X161297952Y-141478285D01*
X161345571Y-141525904D01*
X161440809Y-141573523D01*
X159710380Y-146078285D02*
X159710380Y-146649714D01*
X159710380Y-146364000D02*
X158710380Y-146364000D01*
X158853238Y-146459238D01*
X158948476Y-146554476D01*
X158996095Y-146649714D01*
X158710380Y-141497333D02*
X158710380Y-140878285D01*
X159091333Y-141211619D01*
X159091333Y-141068761D01*
X159138952Y-140973523D01*
X159186571Y-140925904D01*
X159281809Y-140878285D01*
X159519904Y-140878285D01*
X159615142Y-140925904D01*
X159662761Y-140973523D01*
X159710380Y-141068761D01*
X159710380Y-141354476D01*
X159662761Y-141449714D01*
X159615142Y-141497333D01*
X136136095Y-140755714D02*
X136136095Y-141422380D01*
X135707523Y-140755714D02*
X135707523Y-141279523D01*
X135755142Y-141374761D01*
X135850380Y-141422380D01*
X135993238Y-141422380D01*
X136088476Y-141374761D01*
X136136095Y-141327142D01*
X137136095Y-141422380D02*
X136564666Y-141422380D01*
X136850380Y-141422380D02*
X136850380Y-140422380D01*
X136755142Y-140565238D01*
X136659904Y-140660476D01*
X136564666Y-140708095D01*
X153027095Y-135548714D02*
X153027095Y-136215380D01*
X152598523Y-135548714D02*
X152598523Y-136072523D01*
X152646142Y-136167761D01*
X152741380Y-136215380D01*
X152884238Y-136215380D01*
X152979476Y-136167761D01*
X153027095Y-136120142D01*
X154027095Y-136215380D02*
X153455666Y-136215380D01*
X153741380Y-136215380D02*
X153741380Y-135215380D01*
X153646142Y-135358238D01*
X153550904Y-135453476D01*
X153455666Y-135501095D01*
X155086157Y-136342380D02*
X154514729Y-136342380D01*
X154800443Y-136342380D02*
X154925443Y-135342380D01*
X154812348Y-135485238D01*
X154705205Y-135580476D01*
X154604014Y-135628095D01*
X155830205Y-135342380D02*
X155925443Y-135342380D01*
X156014729Y-135390000D01*
X156056395Y-135437619D01*
X156092110Y-135532857D01*
X156115919Y-135723333D01*
X156086157Y-135961428D01*
X156014729Y-136151904D01*
X155955205Y-136247142D01*
X155901633Y-136294761D01*
X155800443Y-136342380D01*
X155705205Y-136342380D01*
X155615919Y-136294761D01*
X155574252Y-136247142D01*
X155538538Y-136151904D01*
X155514729Y-135961428D01*
X155544491Y-135723333D01*
X155615919Y-135532857D01*
X155675443Y-135437619D01*
X155729014Y-135390000D01*
X155830205Y-135342380D01*
X156979014Y-135675714D02*
X156895681Y-136342380D01*
X156550443Y-135675714D02*
X156484967Y-136199523D01*
X156520681Y-136294761D01*
X156609967Y-136342380D01*
X156752824Y-136342380D01*
X156854014Y-136294761D01*
X156907586Y-136247142D01*
D10*
X106239571Y-140152000D02*
X106239571Y-139580571D01*
X107739571Y-139866285D02*
X106239571Y-139866285D01*
X106953857Y-139247238D02*
X106953857Y-138913904D01*
X107739571Y-138771047D02*
X107739571Y-139247238D01*
X106239571Y-139247238D01*
X106239571Y-138771047D01*
X107739571Y-137771047D02*
X107025285Y-138104380D01*
X107739571Y-138342476D02*
X106239571Y-138342476D01*
X106239571Y-137961523D01*
X106311000Y-137866285D01*
X106382428Y-137818666D01*
X106525285Y-137771047D01*
X106739571Y-137771047D01*
X106882428Y-137818666D01*
X106953857Y-137866285D01*
X107025285Y-137961523D01*
X107025285Y-138342476D01*
X107739571Y-137342476D02*
X106239571Y-137342476D01*
X107311000Y-137009142D01*
X106239571Y-136675809D01*
X107739571Y-136675809D01*
X106239571Y-135247238D02*
X106239571Y-135056761D01*
X106311000Y-134961523D01*
X106453857Y-134866285D01*
X106739571Y-134818666D01*
X107239571Y-134818666D01*
X107525285Y-134866285D01*
X107668142Y-134961523D01*
X107739571Y-135056761D01*
X107739571Y-135247238D01*
X107668142Y-135342476D01*
X107525285Y-135437714D01*
X107239571Y-135485333D01*
X106739571Y-135485333D01*
X106453857Y-135437714D01*
X106311000Y-135342476D01*
X106239571Y-135247238D01*
X106953857Y-134056761D02*
X106953857Y-134390095D01*
X107739571Y-134390095D02*
X106239571Y-134390095D01*
X106239571Y-133913904D01*
X106953857Y-133199619D02*
X106953857Y-133532952D01*
X107739571Y-133532952D02*
X106239571Y-133532952D01*
X106239571Y-133056761D01*
X106239571Y-131723428D02*
X106239571Y-131532952D01*
X106311000Y-131437714D01*
X106453857Y-131342476D01*
X106739571Y-131294857D01*
X107239571Y-131294857D01*
X107525285Y-131342476D01*
X107668142Y-131437714D01*
X107739571Y-131532952D01*
X107739571Y-131723428D01*
X107668142Y-131818666D01*
X107525285Y-131913904D01*
X107239571Y-131961523D01*
X106739571Y-131961523D01*
X106453857Y-131913904D01*
X106311000Y-131818666D01*
X106239571Y-131723428D01*
X107739571Y-130866285D02*
X106239571Y-130866285D01*
X107739571Y-130294857D01*
X106239571Y-130294857D01*
D13*
X138199952Y-104592380D02*
X138199952Y-103592380D01*
X138295190Y-104211428D02*
X138580904Y-104592380D01*
X138580904Y-103925714D02*
X138199952Y-104306666D01*
X138961857Y-103687619D02*
X139009476Y-103640000D01*
X139104714Y-103592380D01*
X139342809Y-103592380D01*
X139438047Y-103640000D01*
X139485666Y-103687619D01*
X139533285Y-103782857D01*
X139533285Y-103878095D01*
X139485666Y-104020952D01*
X138914238Y-104592380D01*
X139533285Y-104592380D01*
X139914238Y-103687619D02*
X139961857Y-103640000D01*
X140057095Y-103592380D01*
X140295190Y-103592380D01*
X140390428Y-103640000D01*
X140438047Y-103687619D01*
X140485666Y-103782857D01*
X140485666Y-103878095D01*
X140438047Y-104020952D01*
X139866619Y-104592380D01*
X140485666Y-104592380D01*
X107132380Y-118149285D02*
X106132380Y-118149285D01*
X107132380Y-117577857D01*
X106132380Y-117577857D01*
X106132380Y-117101666D02*
X106941904Y-117101666D01*
X107037142Y-117054047D01*
X107084761Y-117006428D01*
X107132380Y-116911190D01*
X107132380Y-116720714D01*
X107084761Y-116625476D01*
X107037142Y-116577857D01*
X106941904Y-116530238D01*
X106132380Y-116530238D01*
X107132380Y-116054047D02*
X106132380Y-116054047D01*
X106132380Y-115673095D01*
X106180000Y-115577857D01*
X106227619Y-115530238D01*
X106322857Y-115482619D01*
X106465714Y-115482619D01*
X106560952Y-115530238D01*
X106608571Y-115577857D01*
X106656190Y-115673095D01*
X106656190Y-116054047D01*
X106227619Y-115101666D02*
X106180000Y-115054047D01*
X106132380Y-114958809D01*
X106132380Y-114720714D01*
X106180000Y-114625476D01*
X106227619Y-114577857D01*
X106322857Y-114530238D01*
X106418095Y-114530238D01*
X106560952Y-114577857D01*
X107132380Y-115149285D01*
X107132380Y-114530238D01*
X107132380Y-113577857D02*
X107132380Y-114149285D01*
X107132380Y-113863571D02*
X106132380Y-113863571D01*
X106275238Y-113958809D01*
X106370476Y-114054047D01*
X106418095Y-114149285D01*
X106132380Y-112958809D02*
X106132380Y-112863571D01*
X106180000Y-112768333D01*
X106227619Y-112720714D01*
X106322857Y-112673095D01*
X106513333Y-112625476D01*
X106751428Y-112625476D01*
X106941904Y-112673095D01*
X107037142Y-112720714D01*
X107084761Y-112768333D01*
X107132380Y-112863571D01*
X107132380Y-112958809D01*
X107084761Y-113054047D01*
X107037142Y-113101666D01*
X106941904Y-113149285D01*
X106751428Y-113196904D01*
X106513333Y-113196904D01*
X106322857Y-113149285D01*
X106227619Y-113101666D01*
X106180000Y-113054047D01*
X106132380Y-112958809D01*
X106132380Y-111720714D02*
X106132380Y-112196904D01*
X106608571Y-112244523D01*
X106560952Y-112196904D01*
X106513333Y-112101666D01*
X106513333Y-111863571D01*
X106560952Y-111768333D01*
X106608571Y-111720714D01*
X106703809Y-111673095D01*
X106941904Y-111673095D01*
X107037142Y-111720714D01*
X107084761Y-111768333D01*
X107132380Y-111863571D01*
X107132380Y-112101666D01*
X107084761Y-112196904D01*
X107037142Y-112244523D01*
X166917761Y-135453380D02*
X166346333Y-135453380D01*
X166632047Y-135453380D02*
X166632047Y-134453380D01*
X166536809Y-134596238D01*
X166441571Y-134691476D01*
X166346333Y-134739095D01*
X167536809Y-134453380D02*
X167632047Y-134453380D01*
X167727285Y-134501000D01*
X167774904Y-134548619D01*
X167822523Y-134643857D01*
X167870142Y-134834333D01*
X167870142Y-135072428D01*
X167822523Y-135262904D01*
X167774904Y-135358142D01*
X167727285Y-135405761D01*
X167632047Y-135453380D01*
X167536809Y-135453380D01*
X167441571Y-135405761D01*
X167393952Y-135358142D01*
X167346333Y-135262904D01*
X167298714Y-135072428D01*
X167298714Y-134834333D01*
X167346333Y-134643857D01*
X167393952Y-134548619D01*
X167441571Y-134501000D01*
X167536809Y-134453380D01*
X168298714Y-135453380D02*
X168298714Y-134453380D01*
X168393952Y-135072428D02*
X168679666Y-135453380D01*
X168679666Y-134786714D02*
X168298714Y-135167666D01*
X190158761Y-130119380D02*
X189587333Y-130119380D01*
X189873047Y-130119380D02*
X189873047Y-129119380D01*
X189777809Y-129262238D01*
X189682571Y-129357476D01*
X189587333Y-129405095D01*
X190777809Y-129119380D02*
X190873047Y-129119380D01*
X190968285Y-129167000D01*
X191015904Y-129214619D01*
X191063523Y-129309857D01*
X191111142Y-129500333D01*
X191111142Y-129738428D01*
X191063523Y-129928904D01*
X191015904Y-130024142D01*
X190968285Y-130071761D01*
X190873047Y-130119380D01*
X190777809Y-130119380D01*
X190682571Y-130071761D01*
X190634952Y-130024142D01*
X190587333Y-129928904D01*
X190539714Y-129738428D01*
X190539714Y-129500333D01*
X190587333Y-129309857D01*
X190634952Y-129214619D01*
X190682571Y-129167000D01*
X190777809Y-129119380D01*
X191539714Y-130119380D02*
X191539714Y-129119380D01*
X191634952Y-129738428D02*
X191920666Y-130119380D01*
X191920666Y-129452714D02*
X191539714Y-129833666D01*
X111355333Y-122880380D02*
X110783904Y-122880380D01*
X111069619Y-122880380D02*
X111069619Y-121880380D01*
X110974380Y-122023238D01*
X110879142Y-122118476D01*
X110783904Y-122166095D01*
X111736285Y-121975619D02*
X111783904Y-121928000D01*
X111879142Y-121880380D01*
X112117238Y-121880380D01*
X112212476Y-121928000D01*
X112260095Y-121975619D01*
X112307714Y-122070857D01*
X112307714Y-122166095D01*
X112260095Y-122308952D01*
X111688666Y-122880380D01*
X112307714Y-122880380D01*
X112926761Y-121880380D02*
X113022000Y-121880380D01*
X113117238Y-121928000D01*
X113164857Y-121975619D01*
X113212476Y-122070857D01*
X113260095Y-122261333D01*
X113260095Y-122499428D01*
X113212476Y-122689904D01*
X113164857Y-122785142D01*
X113117238Y-122832761D01*
X113022000Y-122880380D01*
X112926761Y-122880380D01*
X112831523Y-122832761D01*
X112783904Y-122785142D01*
X112736285Y-122689904D01*
X112688666Y-122499428D01*
X112688666Y-122261333D01*
X112736285Y-122070857D01*
X112783904Y-121975619D01*
X112831523Y-121928000D01*
X112926761Y-121880380D01*
X114260095Y-122880380D02*
X113926761Y-122404190D01*
X113688666Y-122880380D02*
X113688666Y-121880380D01*
X114069619Y-121880380D01*
X114164857Y-121928000D01*
X114212476Y-121975619D01*
X114260095Y-122070857D01*
X114260095Y-122213714D01*
X114212476Y-122308952D01*
X114164857Y-122356571D01*
X114069619Y-122404190D01*
X113688666Y-122404190D01*
X117022952Y-134898142D02*
X116975333Y-134945761D01*
X116832476Y-134993380D01*
X116737238Y-134993380D01*
X116594380Y-134945761D01*
X116499142Y-134850523D01*
X116451523Y-134755285D01*
X116403904Y-134564809D01*
X116403904Y-134421952D01*
X116451523Y-134231476D01*
X116499142Y-134136238D01*
X116594380Y-134041000D01*
X116737238Y-133993380D01*
X116832476Y-133993380D01*
X116975333Y-134041000D01*
X117022952Y-134088619D01*
X117451523Y-134993380D02*
X117451523Y-133993380D01*
X117832476Y-133993380D01*
X117927714Y-134041000D01*
X117975333Y-134088619D01*
X118022952Y-134183857D01*
X118022952Y-134326714D01*
X117975333Y-134421952D01*
X117927714Y-134469571D01*
X117832476Y-134517190D01*
X117451523Y-134517190D01*
X119022952Y-134898142D02*
X118975333Y-134945761D01*
X118832476Y-134993380D01*
X118737238Y-134993380D01*
X118594380Y-134945761D01*
X118499142Y-134850523D01*
X118451523Y-134755285D01*
X118403904Y-134564809D01*
X118403904Y-134421952D01*
X118451523Y-134231476D01*
X118499142Y-134136238D01*
X118594380Y-134041000D01*
X118737238Y-133993380D01*
X118832476Y-133993380D01*
X118975333Y-134041000D01*
X119022952Y-134088619D01*
X119975333Y-134993380D02*
X119403904Y-134993380D01*
X119689619Y-134993380D02*
X119689619Y-133993380D01*
X119594380Y-134136238D01*
X119499142Y-134231476D01*
X119403904Y-134279095D01*
X120594380Y-133993380D02*
X120689619Y-133993380D01*
X120784857Y-134041000D01*
X120832476Y-134088619D01*
X120880095Y-134183857D01*
X120927714Y-134374333D01*
X120927714Y-134612428D01*
X120880095Y-134802904D01*
X120832476Y-134898142D01*
X120784857Y-134945761D01*
X120689619Y-134993380D01*
X120594380Y-134993380D01*
X120499142Y-134945761D01*
X120451523Y-134898142D01*
X120403904Y-134802904D01*
X120356285Y-134612428D01*
X120356285Y-134374333D01*
X120403904Y-134183857D01*
X120451523Y-134088619D01*
X120499142Y-134041000D01*
X120594380Y-133993380D01*
X121880095Y-134993380D02*
X121308666Y-134993380D01*
X121594380Y-134993380D02*
X121594380Y-133993380D01*
X121499142Y-134136238D01*
X121403904Y-134231476D01*
X121308666Y-134279095D01*
X122451523Y-134421952D02*
X122356285Y-134374333D01*
X122308666Y-134326714D01*
X122261047Y-134231476D01*
X122261047Y-134183857D01*
X122308666Y-134088619D01*
X122356285Y-134041000D01*
X122451523Y-133993380D01*
X122642000Y-133993380D01*
X122737238Y-134041000D01*
X122784857Y-134088619D01*
X122832476Y-134183857D01*
X122832476Y-134231476D01*
X122784857Y-134326714D01*
X122737238Y-134374333D01*
X122642000Y-134421952D01*
X122451523Y-134421952D01*
X122356285Y-134469571D01*
X122308666Y-134517190D01*
X122261047Y-134612428D01*
X122261047Y-134802904D01*
X122308666Y-134898142D01*
X122356285Y-134945761D01*
X122451523Y-134993380D01*
X122642000Y-134993380D01*
X122737238Y-134945761D01*
X122784857Y-134898142D01*
X122832476Y-134802904D01*
X122832476Y-134612428D01*
X122784857Y-134517190D01*
X122737238Y-134469571D01*
X122642000Y-134421952D01*
X123261047Y-134993380D02*
X123261047Y-133993380D01*
X123832476Y-134993380D01*
X123832476Y-133993380D01*
X176950761Y-117673380D02*
X176379333Y-117673380D01*
X176665047Y-117673380D02*
X176665047Y-116673380D01*
X176569809Y-116816238D01*
X176474571Y-116911476D01*
X176379333Y-116959095D01*
X177569809Y-116673380D02*
X177665047Y-116673380D01*
X177760285Y-116721000D01*
X177807904Y-116768619D01*
X177855523Y-116863857D01*
X177903142Y-117054333D01*
X177903142Y-117292428D01*
X177855523Y-117482904D01*
X177807904Y-117578142D01*
X177760285Y-117625761D01*
X177665047Y-117673380D01*
X177569809Y-117673380D01*
X177474571Y-117625761D01*
X177426952Y-117578142D01*
X177379333Y-117482904D01*
X177331714Y-117292428D01*
X177331714Y-117054333D01*
X177379333Y-116863857D01*
X177426952Y-116768619D01*
X177474571Y-116721000D01*
X177569809Y-116673380D01*
X178331714Y-117673380D02*
X178331714Y-116673380D01*
X178426952Y-117292428D02*
X178712666Y-117673380D01*
X178712666Y-117006714D02*
X178331714Y-117387666D01*
X160694761Y-132406380D02*
X160123333Y-132406380D01*
X160409047Y-132406380D02*
X160409047Y-131406380D01*
X160313809Y-131549238D01*
X160218571Y-131644476D01*
X160123333Y-131692095D01*
X161313809Y-131406380D02*
X161409047Y-131406380D01*
X161504285Y-131454000D01*
X161551904Y-131501619D01*
X161599523Y-131596857D01*
X161647142Y-131787333D01*
X161647142Y-132025428D01*
X161599523Y-132215904D01*
X161551904Y-132311142D01*
X161504285Y-132358761D01*
X161409047Y-132406380D01*
X161313809Y-132406380D01*
X161218571Y-132358761D01*
X161170952Y-132311142D01*
X161123333Y-132215904D01*
X161075714Y-132025428D01*
X161075714Y-131787333D01*
X161123333Y-131596857D01*
X161170952Y-131501619D01*
X161218571Y-131454000D01*
X161313809Y-131406380D01*
X162075714Y-132406380D02*
X162075714Y-131406380D01*
X162170952Y-132025428D02*
X162456666Y-132406380D01*
X162456666Y-131739714D02*
X162075714Y-132120666D01*
X164980952Y-132405380D02*
X164409523Y-132405380D01*
X164695238Y-132405380D02*
X164695238Y-131405380D01*
X164600000Y-131548238D01*
X164504761Y-131643476D01*
X164409523Y-131691095D01*
X165409523Y-132405380D02*
X165409523Y-131405380D01*
X165504761Y-132024428D02*
X165790476Y-132405380D01*
X165790476Y-131738714D02*
X165409523Y-132119666D01*
X162425119Y-141962261D02*
X162425119Y-141390833D01*
X162425119Y-141676547D02*
X163425119Y-141676547D01*
X163282261Y-141581309D01*
X163187023Y-141486071D01*
X163139404Y-141390833D01*
X163425119Y-142581309D02*
X163425119Y-142676547D01*
X163377500Y-142771785D01*
X163329880Y-142819404D01*
X163234642Y-142867023D01*
X163044166Y-142914642D01*
X162806071Y-142914642D01*
X162615595Y-142867023D01*
X162520357Y-142819404D01*
X162472738Y-142771785D01*
X162425119Y-142676547D01*
X162425119Y-142581309D01*
X162472738Y-142486071D01*
X162520357Y-142438452D01*
X162615595Y-142390833D01*
X162806071Y-142343214D01*
X163044166Y-142343214D01*
X163234642Y-142390833D01*
X163329880Y-142438452D01*
X163377500Y-142486071D01*
X163425119Y-142581309D01*
X162425119Y-143343214D02*
X163425119Y-143343214D01*
X162806071Y-143438452D02*
X162425119Y-143724166D01*
X163091785Y-143724166D02*
X162710833Y-143343214D01*
X168187761Y-143962380D02*
X167616333Y-143962380D01*
X167902047Y-143962380D02*
X167902047Y-142962380D01*
X167806809Y-143105238D01*
X167711571Y-143200476D01*
X167616333Y-143248095D01*
X168806809Y-142962380D02*
X168902047Y-142962380D01*
X168997285Y-143010000D01*
X169044904Y-143057619D01*
X169092523Y-143152857D01*
X169140142Y-143343333D01*
X169140142Y-143581428D01*
X169092523Y-143771904D01*
X169044904Y-143867142D01*
X168997285Y-143914761D01*
X168902047Y-143962380D01*
X168806809Y-143962380D01*
X168711571Y-143914761D01*
X168663952Y-143867142D01*
X168616333Y-143771904D01*
X168568714Y-143581428D01*
X168568714Y-143343333D01*
X168616333Y-143152857D01*
X168663952Y-143057619D01*
X168711571Y-143010000D01*
X168806809Y-142962380D01*
X169568714Y-143962380D02*
X169568714Y-142962380D01*
X169663952Y-143581428D02*
X169949666Y-143962380D01*
X169949666Y-143295714D02*
X169568714Y-143676666D01*
X169838761Y-111451380D02*
X169267333Y-111451380D01*
X169553047Y-111451380D02*
X169553047Y-110451380D01*
X169457809Y-110594238D01*
X169362571Y-110689476D01*
X169267333Y-110737095D01*
X170457809Y-110451380D02*
X170553047Y-110451380D01*
X170648285Y-110499000D01*
X170695904Y-110546619D01*
X170743523Y-110641857D01*
X170791142Y-110832333D01*
X170791142Y-111070428D01*
X170743523Y-111260904D01*
X170695904Y-111356142D01*
X170648285Y-111403761D01*
X170553047Y-111451380D01*
X170457809Y-111451380D01*
X170362571Y-111403761D01*
X170314952Y-111356142D01*
X170267333Y-111260904D01*
X170219714Y-111070428D01*
X170219714Y-110832333D01*
X170267333Y-110641857D01*
X170314952Y-110546619D01*
X170362571Y-110499000D01*
X170457809Y-110451380D01*
X171219714Y-111451380D02*
X171219714Y-110451380D01*
X171314952Y-111070428D02*
X171600666Y-111451380D01*
X171600666Y-110784714D02*
X171219714Y-111165666D01*
X174505952Y-111450380D02*
X173934523Y-111450380D01*
X174220238Y-111450380D02*
X174220238Y-110450380D01*
X174125000Y-110593238D01*
X174029761Y-110688476D01*
X173934523Y-110736095D01*
X174934523Y-111450380D02*
X174934523Y-110450380D01*
X175029761Y-111069428D02*
X175315476Y-111450380D01*
X175315476Y-110783714D02*
X174934523Y-111164666D01*
X125118952Y-137613380D02*
X125118952Y-136613380D01*
X125214190Y-137232428D02*
X125499904Y-137613380D01*
X125499904Y-136946714D02*
X125118952Y-137327666D01*
X125880857Y-136708619D02*
X125928476Y-136661000D01*
X126023714Y-136613380D01*
X126261809Y-136613380D01*
X126357047Y-136661000D01*
X126404666Y-136708619D01*
X126452285Y-136803857D01*
X126452285Y-136899095D01*
X126404666Y-137041952D01*
X125833238Y-137613380D01*
X126452285Y-137613380D01*
X126833238Y-136708619D02*
X126880857Y-136661000D01*
X126976095Y-136613380D01*
X127214190Y-136613380D01*
X127309428Y-136661000D01*
X127357047Y-136708619D01*
X127404666Y-136803857D01*
X127404666Y-136899095D01*
X127357047Y-137041952D01*
X126785619Y-137613380D01*
X127404666Y-137613380D01*
X125118952Y-143200380D02*
X125118952Y-142200380D01*
X125214190Y-142819428D02*
X125499904Y-143200380D01*
X125499904Y-142533714D02*
X125118952Y-142914666D01*
X125880857Y-142295619D02*
X125928476Y-142248000D01*
X126023714Y-142200380D01*
X126261809Y-142200380D01*
X126357047Y-142248000D01*
X126404666Y-142295619D01*
X126452285Y-142390857D01*
X126452285Y-142486095D01*
X126404666Y-142628952D01*
X125833238Y-143200380D01*
X126452285Y-143200380D01*
X126833238Y-142295619D02*
X126880857Y-142248000D01*
X126976095Y-142200380D01*
X127214190Y-142200380D01*
X127309428Y-142248000D01*
X127357047Y-142295619D01*
X127404666Y-142390857D01*
X127404666Y-142486095D01*
X127357047Y-142628952D01*
X126785619Y-143200380D01*
X127404666Y-143200380D01*
X125118952Y-147265380D02*
X125118952Y-146265380D01*
X125214190Y-146884428D02*
X125499904Y-147265380D01*
X125499904Y-146598714D02*
X125118952Y-146979666D01*
X125880857Y-146360619D02*
X125928476Y-146313000D01*
X126023714Y-146265380D01*
X126261809Y-146265380D01*
X126357047Y-146313000D01*
X126404666Y-146360619D01*
X126452285Y-146455857D01*
X126452285Y-146551095D01*
X126404666Y-146693952D01*
X125833238Y-147265380D01*
X126452285Y-147265380D01*
X126833238Y-146360619D02*
X126880857Y-146313000D01*
X126976095Y-146265380D01*
X127214190Y-146265380D01*
X127309428Y-146313000D01*
X127357047Y-146360619D01*
X127404666Y-146455857D01*
X127404666Y-146551095D01*
X127357047Y-146693952D01*
X126785619Y-147265380D01*
X127404666Y-147265380D01*
X125118952Y-152852380D02*
X125118952Y-151852380D01*
X125214190Y-152471428D02*
X125499904Y-152852380D01*
X125499904Y-152185714D02*
X125118952Y-152566666D01*
X125880857Y-151947619D02*
X125928476Y-151900000D01*
X126023714Y-151852380D01*
X126261809Y-151852380D01*
X126357047Y-151900000D01*
X126404666Y-151947619D01*
X126452285Y-152042857D01*
X126452285Y-152138095D01*
X126404666Y-152280952D01*
X125833238Y-152852380D01*
X126452285Y-152852380D01*
X126833238Y-151947619D02*
X126880857Y-151900000D01*
X126976095Y-151852380D01*
X127214190Y-151852380D01*
X127309428Y-151900000D01*
X127357047Y-151947619D01*
X127404666Y-152042857D01*
X127404666Y-152138095D01*
X127357047Y-152280952D01*
X126785619Y-152852380D01*
X127404666Y-152852380D01*
X132230952Y-98242380D02*
X132230952Y-97242380D01*
X132326190Y-97861428D02*
X132611904Y-98242380D01*
X132611904Y-97575714D02*
X132230952Y-97956666D01*
X132992857Y-97337619D02*
X133040476Y-97290000D01*
X133135714Y-97242380D01*
X133373809Y-97242380D01*
X133469047Y-97290000D01*
X133516666Y-97337619D01*
X133564285Y-97432857D01*
X133564285Y-97528095D01*
X133516666Y-97670952D01*
X132945238Y-98242380D01*
X133564285Y-98242380D01*
X133945238Y-97337619D02*
X133992857Y-97290000D01*
X134088095Y-97242380D01*
X134326190Y-97242380D01*
X134421428Y-97290000D01*
X134469047Y-97337619D01*
X134516666Y-97432857D01*
X134516666Y-97528095D01*
X134469047Y-97670952D01*
X133897619Y-98242380D01*
X134516666Y-98242380D01*
X148629761Y-111958380D02*
X148058333Y-111958380D01*
X148344047Y-111958380D02*
X148344047Y-110958380D01*
X148248809Y-111101238D01*
X148153571Y-111196476D01*
X148058333Y-111244095D01*
X149248809Y-110958380D02*
X149344047Y-110958380D01*
X149439285Y-111006000D01*
X149486904Y-111053619D01*
X149534523Y-111148857D01*
X149582142Y-111339333D01*
X149582142Y-111577428D01*
X149534523Y-111767904D01*
X149486904Y-111863142D01*
X149439285Y-111910761D01*
X149344047Y-111958380D01*
X149248809Y-111958380D01*
X149153571Y-111910761D01*
X149105952Y-111863142D01*
X149058333Y-111767904D01*
X149010714Y-111577428D01*
X149010714Y-111339333D01*
X149058333Y-111148857D01*
X149105952Y-111053619D01*
X149153571Y-111006000D01*
X149248809Y-110958380D01*
X150010714Y-111958380D02*
X150010714Y-110958380D01*
X150105952Y-111577428D02*
X150391666Y-111958380D01*
X150391666Y-111291714D02*
X150010714Y-111672666D01*
X176427285Y-116276380D02*
X176427285Y-115276380D01*
X177474904Y-116276380D02*
X177141571Y-115800190D01*
X176903476Y-116276380D02*
X176903476Y-115276380D01*
X177284428Y-115276380D01*
X177379666Y-115324000D01*
X177427285Y-115371619D01*
X177474904Y-115466857D01*
X177474904Y-115609714D01*
X177427285Y-115704952D01*
X177379666Y-115752571D01*
X177284428Y-115800190D01*
X176903476Y-115800190D01*
X178379666Y-116276380D02*
X177903476Y-116276380D01*
X177903476Y-115276380D01*
X178713000Y-116276380D02*
X178713000Y-115276380D01*
X179046333Y-115990666D01*
X179379666Y-115276380D01*
X179379666Y-116276380D01*
X180332047Y-116276380D02*
X179855857Y-116276380D01*
X179855857Y-115276380D01*
X181093952Y-115276380D02*
X180903476Y-115276380D01*
X180808238Y-115324000D01*
X180760619Y-115371619D01*
X180665380Y-115514476D01*
X180617761Y-115704952D01*
X180617761Y-116085904D01*
X180665380Y-116181142D01*
X180713000Y-116228761D01*
X180808238Y-116276380D01*
X180998714Y-116276380D01*
X181093952Y-116228761D01*
X181141571Y-116181142D01*
X181189190Y-116085904D01*
X181189190Y-115847809D01*
X181141571Y-115752571D01*
X181093952Y-115704952D01*
X180998714Y-115657333D01*
X180808238Y-115657333D01*
X180713000Y-115704952D01*
X180665380Y-115752571D01*
X180617761Y-115847809D01*
X181522523Y-115276380D02*
X182141571Y-115276380D01*
X181808238Y-115657333D01*
X181951095Y-115657333D01*
X182046333Y-115704952D01*
X182093952Y-115752571D01*
X182141571Y-115847809D01*
X182141571Y-116085904D01*
X182093952Y-116181142D01*
X182046333Y-116228761D01*
X181951095Y-116276380D01*
X181665380Y-116276380D01*
X181570142Y-116228761D01*
X181522523Y-116181142D01*
X182998714Y-115609714D02*
X182998714Y-116276380D01*
X182760619Y-115228761D02*
X182522523Y-115943047D01*
X183141571Y-115943047D01*
X183951095Y-115609714D02*
X183951095Y-116276380D01*
X183713000Y-115228761D02*
X183474904Y-115943047D01*
X184093952Y-115943047D01*
X148455095Y-115101714D02*
X148455095Y-115768380D01*
X148026523Y-115101714D02*
X148026523Y-115625523D01*
X148074142Y-115720761D01*
X148169380Y-115768380D01*
X148312238Y-115768380D01*
X148407476Y-115720761D01*
X148455095Y-115673142D01*
X149455095Y-115768380D02*
X148883666Y-115768380D01*
X149169380Y-115768380D02*
X149169380Y-114768380D01*
X149074142Y-114911238D01*
X148978904Y-115006476D01*
X148883666Y-115054095D01*
%LPC*%
G36*
G01*
X123425000Y-121977999D02*
X123425000Y-122878001D01*
G75*
G02*
X123175001Y-123128000I-249999J0D01*
G01*
X122474999Y-123128000D01*
G75*
G02*
X122225000Y-122878001I0J249999D01*
G01*
X122225000Y-121977999D01*
G75*
G02*
X122474999Y-121728000I249999J0D01*
G01*
X123175001Y-121728000D01*
G75*
G02*
X123425000Y-121977999I0J-249999D01*
G01*
G37*
G36*
G01*
X125425000Y-121977999D02*
X125425000Y-122878001D01*
G75*
G02*
X125175001Y-123128000I-249999J0D01*
G01*
X124474999Y-123128000D01*
G75*
G02*
X124225000Y-122878001I0J249999D01*
G01*
X124225000Y-121977999D01*
G75*
G02*
X124474999Y-121728000I249999J0D01*
G01*
X125175001Y-121728000D01*
G75*
G02*
X125425000Y-121977999I0J-249999D01*
G01*
G37*
D15*
X159000000Y-116245000D03*
D16*
X138009000Y-117348000D03*
X133009000Y-117348000D03*
X135509000Y-117348000D03*
X138009000Y-121031000D03*
X133009000Y-121031000D03*
X135509000Y-121031000D03*
X138009000Y-107061000D03*
X133009000Y-107061000D03*
X135509000Y-107061000D03*
G36*
G01*
X120126999Y-124852000D02*
X121427001Y-124852000D01*
G75*
G02*
X121677000Y-125101999I0J-249999D01*
G01*
X121677000Y-125927001D01*
G75*
G02*
X121427001Y-126177000I-249999J0D01*
G01*
X120126999Y-126177000D01*
G75*
G02*
X119877000Y-125927001I0J249999D01*
G01*
X119877000Y-125101999D01*
G75*
G02*
X120126999Y-124852000I249999J0D01*
G01*
G37*
G36*
G01*
X120126999Y-121727000D02*
X121427001Y-121727000D01*
G75*
G02*
X121677000Y-121976999I0J-249999D01*
G01*
X121677000Y-122802001D01*
G75*
G02*
X121427001Y-123052000I-249999J0D01*
G01*
X120126999Y-123052000D01*
G75*
G02*
X119877000Y-122802001I0J249999D01*
G01*
X119877000Y-121976999D01*
G75*
G02*
X120126999Y-121727000I249999J0D01*
G01*
G37*
D17*
X113030000Y-126548000D03*
G36*
G01*
X114580000Y-130948000D02*
X111480000Y-130948000D01*
G75*
G02*
X111230000Y-130698000I0J250000D01*
G01*
X111230000Y-129398000D01*
G75*
G02*
X111480000Y-129148000I250000J0D01*
G01*
X114580000Y-129148000D01*
G75*
G02*
X114830000Y-129398000I0J-250000D01*
G01*
X114830000Y-130698000D01*
G75*
G02*
X114580000Y-130948000I-250000J0D01*
G01*
G37*
X113030000Y-110292000D03*
X113030000Y-113792000D03*
X113030000Y-117292000D03*
G36*
G01*
X114580000Y-121692000D02*
X111480000Y-121692000D01*
G75*
G02*
X111230000Y-121442000I0J250000D01*
G01*
X111230000Y-120142000D01*
G75*
G02*
X111480000Y-119892000I250000J0D01*
G01*
X114580000Y-119892000D01*
G75*
G02*
X114830000Y-120142000I0J-250000D01*
G01*
X114830000Y-121442000D01*
G75*
G02*
X114580000Y-121692000I-250000J0D01*
G01*
G37*
G36*
G01*
X143094000Y-118167999D02*
X143094000Y-119068001D01*
G75*
G02*
X142844001Y-119318000I-249999J0D01*
G01*
X142143999Y-119318000D01*
G75*
G02*
X141894000Y-119068001I0J249999D01*
G01*
X141894000Y-118167999D01*
G75*
G02*
X142143999Y-117918000I249999J0D01*
G01*
X142844001Y-117918000D01*
G75*
G02*
X143094000Y-118167999I0J-249999D01*
G01*
G37*
G36*
G01*
X145094000Y-118167999D02*
X145094000Y-119068001D01*
G75*
G02*
X144844001Y-119318000I-249999J0D01*
G01*
X144143999Y-119318000D01*
G75*
G02*
X143894000Y-119068001I0J249999D01*
G01*
X143894000Y-118167999D01*
G75*
G02*
X144143999Y-117918000I249999J0D01*
G01*
X144844001Y-117918000D01*
G75*
G02*
X145094000Y-118167999I0J-249999D01*
G01*
G37*
D18*
X144145000Y-114173000D03*
X145415000Y-114173000D03*
X144145000Y-112903000D03*
X145415000Y-112903000D03*
X144145000Y-111633000D03*
D19*
X145415000Y-111633000D03*
D20*
X179150000Y-108750000D03*
X180850000Y-108750000D03*
D21*
X182550000Y-108750000D03*
D22*
X181800000Y-110450000D03*
D21*
X177450000Y-108750000D03*
D22*
X178200000Y-110450000D03*
G36*
G01*
X166859000Y-108261999D02*
X166859000Y-109162001D01*
G75*
G02*
X166609001Y-109412000I-249999J0D01*
G01*
X165908999Y-109412000D01*
G75*
G02*
X165659000Y-109162001I0J249999D01*
G01*
X165659000Y-108261999D01*
G75*
G02*
X165908999Y-108012000I249999J0D01*
G01*
X166609001Y-108012000D01*
G75*
G02*
X166859000Y-108261999I0J-249999D01*
G01*
G37*
G36*
G01*
X168859000Y-108261999D02*
X168859000Y-109162001D01*
G75*
G02*
X168609001Y-109412000I-249999J0D01*
G01*
X167908999Y-109412000D01*
G75*
G02*
X167659000Y-109162001I0J249999D01*
G01*
X167659000Y-108261999D01*
G75*
G02*
X167908999Y-108012000I249999J0D01*
G01*
X168609001Y-108012000D01*
G75*
G02*
X168859000Y-108261999I0J-249999D01*
G01*
G37*
D23*
X116205000Y-124460000D03*
X116205000Y-121920000D03*
X116205000Y-119380000D03*
X116205000Y-116840000D03*
X116205000Y-114300000D03*
X118745000Y-124460000D03*
X118745000Y-121920000D03*
X118745000Y-119380000D03*
X118745000Y-116840000D03*
G36*
G01*
X119595000Y-113700000D02*
X119595000Y-114900000D01*
G75*
G02*
X119345000Y-115150000I-250000J0D01*
G01*
X118145000Y-115150000D01*
G75*
G02*
X117895000Y-114900000I0J250000D01*
G01*
X117895000Y-113700000D01*
G75*
G02*
X118145000Y-113450000I250000J0D01*
G01*
X119345000Y-113450000D01*
G75*
G02*
X119595000Y-113700000I0J-250000D01*
G01*
G37*
D24*
X150571000Y-145764000D03*
D25*
X141471000Y-143764000D03*
X143971000Y-143764000D03*
X146471000Y-143764000D03*
G36*
G01*
X149821000Y-143039000D02*
X149821000Y-144489000D01*
G75*
G02*
X149571000Y-144739000I-250000J0D01*
G01*
X148371000Y-144739000D01*
G75*
G02*
X148121000Y-144489000I0J250000D01*
G01*
X148121000Y-143039000D01*
G75*
G02*
X148371000Y-142789000I250000J0D01*
G01*
X149571000Y-142789000D01*
G75*
G02*
X149821000Y-143039000I0J-250000D01*
G01*
G37*
G36*
G01*
X139769000Y-139413000D02*
X139769000Y-138463000D01*
G75*
G02*
X140019000Y-138213000I250000J0D01*
G01*
X140694000Y-138213000D01*
G75*
G02*
X140944000Y-138463000I0J-250000D01*
G01*
X140944000Y-139413000D01*
G75*
G02*
X140694000Y-139663000I-250000J0D01*
G01*
X140019000Y-139663000D01*
G75*
G02*
X139769000Y-139413000I0J250000D01*
G01*
G37*
G36*
G01*
X137694000Y-139413000D02*
X137694000Y-138463000D01*
G75*
G02*
X137944000Y-138213000I250000J0D01*
G01*
X138619000Y-138213000D01*
G75*
G02*
X138869000Y-138463000I0J-250000D01*
G01*
X138869000Y-139413000D01*
G75*
G02*
X138619000Y-139663000I-250000J0D01*
G01*
X137944000Y-139663000D01*
G75*
G02*
X137694000Y-139413000I0J250000D01*
G01*
G37*
D26*
X153670000Y-143510000D03*
D27*
X154420000Y-145560000D03*
X153920000Y-145560000D03*
X153420000Y-145560000D03*
X152920000Y-145560000D03*
X152920000Y-141460000D03*
X153420000Y-141460000D03*
X153920000Y-141460000D03*
X154420000Y-141460000D03*
D28*
X151620000Y-144260000D03*
X151620000Y-143760000D03*
X151620000Y-143260000D03*
X151620000Y-142760000D03*
X155720000Y-142760000D03*
X155720000Y-143260000D03*
X155720000Y-143760000D03*
X155720000Y-144260000D03*
D26*
X144526000Y-139446000D03*
D28*
X146576000Y-138696000D03*
X146576000Y-139196000D03*
X146576000Y-139696000D03*
X146576000Y-140196000D03*
X142476000Y-140196000D03*
X142476000Y-139696000D03*
X142476000Y-139196000D03*
X142476000Y-138696000D03*
D27*
X145276000Y-141496000D03*
X144776000Y-141496000D03*
X144276000Y-141496000D03*
X143776000Y-141496000D03*
X143776000Y-137396000D03*
X144276000Y-137396000D03*
X144776000Y-137396000D03*
X145276000Y-137396000D03*
G36*
G01*
X140316000Y-136455999D02*
X140316000Y-137356001D01*
G75*
G02*
X140066001Y-137606000I-249999J0D01*
G01*
X139365999Y-137606000D01*
G75*
G02*
X139116000Y-137356001I0J249999D01*
G01*
X139116000Y-136455999D01*
G75*
G02*
X139365999Y-136206000I249999J0D01*
G01*
X140066001Y-136206000D01*
G75*
G02*
X140316000Y-136455999I0J-249999D01*
G01*
G37*
G36*
G01*
X142316000Y-136455999D02*
X142316000Y-137356001D01*
G75*
G02*
X142066001Y-137606000I-249999J0D01*
G01*
X141365999Y-137606000D01*
G75*
G02*
X141116000Y-137356001I0J249999D01*
G01*
X141116000Y-136455999D01*
G75*
G02*
X141365999Y-136206000I249999J0D01*
G01*
X142066001Y-136206000D01*
G75*
G02*
X142316000Y-136455999I0J-249999D01*
G01*
G37*
D29*
X159258000Y-143764000D03*
D30*
G36*
X158508602Y-142464000D02*
G01*
X158508602Y-142439466D01*
X158513412Y-142390635D01*
X158522984Y-142342510D01*
X158537228Y-142295555D01*
X158556005Y-142250222D01*
X158579136Y-142206949D01*
X158606396Y-142166150D01*
X158637524Y-142128221D01*
X158672221Y-142093524D01*
X158710150Y-142062396D01*
X158750949Y-142035136D01*
X158794222Y-142012005D01*
X158839555Y-141993228D01*
X158886510Y-141978984D01*
X158934635Y-141969412D01*
X158983466Y-141964602D01*
X159008000Y-141964602D01*
X159008000Y-141964000D01*
X159508000Y-141964000D01*
X159508000Y-141964602D01*
X159532534Y-141964602D01*
X159581365Y-141969412D01*
X159629490Y-141978984D01*
X159676445Y-141993228D01*
X159721778Y-142012005D01*
X159765051Y-142035136D01*
X159805850Y-142062396D01*
X159843779Y-142093524D01*
X159878476Y-142128221D01*
X159909604Y-142166150D01*
X159936864Y-142206949D01*
X159959995Y-142250222D01*
X159978772Y-142295555D01*
X159993016Y-142342510D01*
X160002588Y-142390635D01*
X160007398Y-142439466D01*
X160007398Y-142464000D01*
X160008000Y-142464000D01*
X160008000Y-143014000D01*
X158508000Y-143014000D01*
X158508000Y-142464000D01*
X158508602Y-142464000D01*
G37*
G36*
X160008000Y-144514000D02*
G01*
X160008000Y-145064000D01*
X160007398Y-145064000D01*
X160007398Y-145088534D01*
X160002588Y-145137365D01*
X159993016Y-145185490D01*
X159978772Y-145232445D01*
X159959995Y-145277778D01*
X159936864Y-145321051D01*
X159909604Y-145361850D01*
X159878476Y-145399779D01*
X159843779Y-145434476D01*
X159805850Y-145465604D01*
X159765051Y-145492864D01*
X159721778Y-145515995D01*
X159676445Y-145534772D01*
X159629490Y-145549016D01*
X159581365Y-145558588D01*
X159532534Y-145563398D01*
X159508000Y-145563398D01*
X159508000Y-145564000D01*
X159008000Y-145564000D01*
X159008000Y-145563398D01*
X158983466Y-145563398D01*
X158934635Y-145558588D01*
X158886510Y-145549016D01*
X158839555Y-145534772D01*
X158794222Y-145515995D01*
X158750949Y-145492864D01*
X158710150Y-145465604D01*
X158672221Y-145434476D01*
X158637524Y-145399779D01*
X158606396Y-145361850D01*
X158579136Y-145321051D01*
X158556005Y-145277778D01*
X158537228Y-145232445D01*
X158522984Y-145185490D01*
X158513412Y-145137365D01*
X158508602Y-145088534D01*
X158508602Y-145064000D01*
X158508000Y-145064000D01*
X158508000Y-144514000D01*
X160008000Y-144514000D01*
G37*
G36*
G01*
X139769000Y-141445000D02*
X139769000Y-140495000D01*
G75*
G02*
X140019000Y-140245000I250000J0D01*
G01*
X140694000Y-140245000D01*
G75*
G02*
X140944000Y-140495000I0J-250000D01*
G01*
X140944000Y-141445000D01*
G75*
G02*
X140694000Y-141695000I-250000J0D01*
G01*
X140019000Y-141695000D01*
G75*
G02*
X139769000Y-141445000I0J250000D01*
G01*
G37*
G36*
G01*
X137694000Y-141445000D02*
X137694000Y-140495000D01*
G75*
G02*
X137944000Y-140245000I250000J0D01*
G01*
X138619000Y-140245000D01*
G75*
G02*
X138869000Y-140495000I0J-250000D01*
G01*
X138869000Y-141445000D01*
G75*
G02*
X138619000Y-141695000I-250000J0D01*
G01*
X137944000Y-141695000D01*
G75*
G02*
X137694000Y-141445000I0J250000D01*
G01*
G37*
G36*
G01*
X152814000Y-138880000D02*
X153764000Y-138880000D01*
G75*
G02*
X154014000Y-139130000I0J-250000D01*
G01*
X154014000Y-139805000D01*
G75*
G02*
X153764000Y-140055000I-250000J0D01*
G01*
X152814000Y-140055000D01*
G75*
G02*
X152564000Y-139805000I0J250000D01*
G01*
X152564000Y-139130000D01*
G75*
G02*
X152814000Y-138880000I250000J0D01*
G01*
G37*
G36*
G01*
X152814000Y-136805000D02*
X153764000Y-136805000D01*
G75*
G02*
X154014000Y-137055000I0J-250000D01*
G01*
X154014000Y-137730000D01*
G75*
G02*
X153764000Y-137980000I-250000J0D01*
G01*
X152814000Y-137980000D01*
G75*
G02*
X152564000Y-137730000I0J250000D01*
G01*
X152564000Y-137055000D01*
G75*
G02*
X152814000Y-136805000I250000J0D01*
G01*
G37*
G36*
G01*
X154846000Y-138880000D02*
X155796000Y-138880000D01*
G75*
G02*
X156046000Y-139130000I0J-250000D01*
G01*
X156046000Y-139805000D01*
G75*
G02*
X155796000Y-140055000I-250000J0D01*
G01*
X154846000Y-140055000D01*
G75*
G02*
X154596000Y-139805000I0J250000D01*
G01*
X154596000Y-139130000D01*
G75*
G02*
X154846000Y-138880000I250000J0D01*
G01*
G37*
G36*
G01*
X154846000Y-136805000D02*
X155796000Y-136805000D01*
G75*
G02*
X156046000Y-137055000I0J-250000D01*
G01*
X156046000Y-137730000D01*
G75*
G02*
X155796000Y-137980000I-250000J0D01*
G01*
X154846000Y-137980000D01*
G75*
G02*
X154596000Y-137730000I0J250000D01*
G01*
X154596000Y-137055000D01*
G75*
G02*
X154846000Y-136805000I250000J0D01*
G01*
G37*
D31*
X108095000Y-120588000D03*
X108095000Y-128888000D03*
X105885000Y-128888000D03*
X105885000Y-120588000D03*
D32*
X108995000Y-126988000D03*
X108995000Y-125488000D03*
X108995000Y-122488000D03*
D33*
X106985000Y-126238000D03*
X106985000Y-123238000D03*
D34*
X130330000Y-103886000D03*
X132870000Y-103886000D03*
X130330000Y-101346000D03*
G36*
G01*
X132108000Y-101727000D02*
X132108000Y-100965000D01*
G75*
G02*
X132489000Y-100584000I381000J0D01*
G01*
X133251000Y-100584000D01*
G75*
G02*
X133632000Y-100965000I0J-381000D01*
G01*
X133632000Y-101727000D01*
G75*
G02*
X133251000Y-102108000I-381000J0D01*
G01*
X132489000Y-102108000D01*
G75*
G02*
X132108000Y-101727000I0J381000D01*
G01*
G37*
G36*
G01*
X135617000Y-103689999D02*
X135617000Y-104590001D01*
G75*
G02*
X135367001Y-104840000I-249999J0D01*
G01*
X134666999Y-104840000D01*
G75*
G02*
X134417000Y-104590001I0J249999D01*
G01*
X134417000Y-103689999D01*
G75*
G02*
X134666999Y-103440000I249999J0D01*
G01*
X135367001Y-103440000D01*
G75*
G02*
X135617000Y-103689999I0J-249999D01*
G01*
G37*
G36*
G01*
X137617000Y-103689999D02*
X137617000Y-104590001D01*
G75*
G02*
X137367001Y-104840000I-249999J0D01*
G01*
X136666999Y-104840000D01*
G75*
G02*
X136417000Y-104590001I0J249999D01*
G01*
X136417000Y-103689999D01*
G75*
G02*
X136666999Y-103440000I249999J0D01*
G01*
X137367001Y-103440000D01*
G75*
G02*
X137617000Y-103689999I0J-249999D01*
G01*
G37*
D35*
X109220000Y-116943000D03*
X108270000Y-113943000D03*
X110170000Y-113943000D03*
G36*
G01*
X170034000Y-133788999D02*
X170034000Y-134689001D01*
G75*
G02*
X169784001Y-134939000I-249999J0D01*
G01*
X169083999Y-134939000D01*
G75*
G02*
X168834000Y-134689001I0J249999D01*
G01*
X168834000Y-133788999D01*
G75*
G02*
X169083999Y-133539000I249999J0D01*
G01*
X169784001Y-133539000D01*
G75*
G02*
X170034000Y-133788999I0J-249999D01*
G01*
G37*
G36*
G01*
X172034000Y-133788999D02*
X172034000Y-134689001D01*
G75*
G02*
X171784001Y-134939000I-249999J0D01*
G01*
X171083999Y-134939000D01*
G75*
G02*
X170834000Y-134689001I0J249999D01*
G01*
X170834000Y-133788999D01*
G75*
G02*
X171083999Y-133539000I249999J0D01*
G01*
X171784001Y-133539000D01*
G75*
G02*
X172034000Y-133788999I0J-249999D01*
G01*
G37*
G36*
G01*
X175025000Y-134689001D02*
X175025000Y-133788999D01*
G75*
G02*
X175274999Y-133539000I249999J0D01*
G01*
X175975001Y-133539000D01*
G75*
G02*
X176225000Y-133788999I0J-249999D01*
G01*
X176225000Y-134689001D01*
G75*
G02*
X175975001Y-134939000I-249999J0D01*
G01*
X175274999Y-134939000D01*
G75*
G02*
X175025000Y-134689001I0J249999D01*
G01*
G37*
G36*
G01*
X173025000Y-134689001D02*
X173025000Y-133788999D01*
G75*
G02*
X173274999Y-133539000I249999J0D01*
G01*
X173975001Y-133539000D01*
G75*
G02*
X174225000Y-133788999I0J-249999D01*
G01*
X174225000Y-134689001D01*
G75*
G02*
X173975001Y-134939000I-249999J0D01*
G01*
X173274999Y-134939000D01*
G75*
G02*
X173025000Y-134689001I0J249999D01*
G01*
G37*
G36*
G01*
X170034000Y-127819999D02*
X170034000Y-128720001D01*
G75*
G02*
X169784001Y-128970000I-249999J0D01*
G01*
X169083999Y-128970000D01*
G75*
G02*
X168834000Y-128720001I0J249999D01*
G01*
X168834000Y-127819999D01*
G75*
G02*
X169083999Y-127570000I249999J0D01*
G01*
X169784001Y-127570000D01*
G75*
G02*
X170034000Y-127819999I0J-249999D01*
G01*
G37*
G36*
G01*
X172034000Y-127819999D02*
X172034000Y-128720001D01*
G75*
G02*
X171784001Y-128970000I-249999J0D01*
G01*
X171083999Y-128970000D01*
G75*
G02*
X170834000Y-128720001I0J249999D01*
G01*
X170834000Y-127819999D01*
G75*
G02*
X171083999Y-127570000I249999J0D01*
G01*
X171784001Y-127570000D01*
G75*
G02*
X172034000Y-127819999I0J-249999D01*
G01*
G37*
G36*
G01*
X175025000Y-128720001D02*
X175025000Y-127819999D01*
G75*
G02*
X175274999Y-127570000I249999J0D01*
G01*
X175975001Y-127570000D01*
G75*
G02*
X176225000Y-127819999I0J-249999D01*
G01*
X176225000Y-128720001D01*
G75*
G02*
X175975001Y-128970000I-249999J0D01*
G01*
X175274999Y-128970000D01*
G75*
G02*
X175025000Y-128720001I0J249999D01*
G01*
G37*
G36*
G01*
X173025000Y-128720001D02*
X173025000Y-127819999D01*
G75*
G02*
X173274999Y-127570000I249999J0D01*
G01*
X173975001Y-127570000D01*
G75*
G02*
X174225000Y-127819999I0J-249999D01*
G01*
X174225000Y-128720001D01*
G75*
G02*
X173975001Y-128970000I-249999J0D01*
G01*
X173274999Y-128970000D01*
G75*
G02*
X173025000Y-128720001I0J249999D01*
G01*
G37*
G36*
G01*
X169169501Y-136823500D02*
X168269499Y-136823500D01*
G75*
G02*
X168019500Y-136573501I0J249999D01*
G01*
X168019500Y-135873499D01*
G75*
G02*
X168269499Y-135623500I249999J0D01*
G01*
X169169501Y-135623500D01*
G75*
G02*
X169419500Y-135873499I0J-249999D01*
G01*
X169419500Y-136573501D01*
G75*
G02*
X169169501Y-136823500I-249999J0D01*
G01*
G37*
G36*
G01*
X169169501Y-138823500D02*
X168269499Y-138823500D01*
G75*
G02*
X168019500Y-138573501I0J249999D01*
G01*
X168019500Y-137873499D01*
G75*
G02*
X168269499Y-137623500I249999J0D01*
G01*
X169169501Y-137623500D01*
G75*
G02*
X169419500Y-137873499I0J-249999D01*
G01*
X169419500Y-138573501D01*
G75*
G02*
X169169501Y-138823500I-249999J0D01*
G01*
G37*
G36*
G01*
X177996001Y-142729000D02*
X177095999Y-142729000D01*
G75*
G02*
X176846000Y-142479001I0J249999D01*
G01*
X176846000Y-141778999D01*
G75*
G02*
X177095999Y-141529000I249999J0D01*
G01*
X177996001Y-141529000D01*
G75*
G02*
X178246000Y-141778999I0J-249999D01*
G01*
X178246000Y-142479001D01*
G75*
G02*
X177996001Y-142729000I-249999J0D01*
G01*
G37*
G36*
G01*
X177996001Y-144729000D02*
X177095999Y-144729000D01*
G75*
G02*
X176846000Y-144479001I0J249999D01*
G01*
X176846000Y-143778999D01*
G75*
G02*
X177095999Y-143529000I249999J0D01*
G01*
X177996001Y-143529000D01*
G75*
G02*
X178246000Y-143778999I0J-249999D01*
G01*
X178246000Y-144479001D01*
G75*
G02*
X177996001Y-144729000I-249999J0D01*
G01*
G37*
D36*
X173966000Y-137223500D03*
X170966000Y-138173500D03*
X170966000Y-136273500D03*
X182856000Y-143129000D03*
X179856000Y-144079000D03*
X179856000Y-142179000D03*
D17*
X186182000Y-150088000D03*
X186182000Y-147588000D03*
X186182000Y-145088000D03*
X186182000Y-142588000D03*
X186182000Y-140088000D03*
X186182000Y-137588000D03*
X186182000Y-135088000D03*
G36*
G01*
X184632000Y-131688000D02*
X187732000Y-131688000D01*
G75*
G02*
X187982000Y-131938000I0J-250000D01*
G01*
X187982000Y-133238000D01*
G75*
G02*
X187732000Y-133488000I-250000J0D01*
G01*
X184632000Y-133488000D01*
G75*
G02*
X184382000Y-133238000I0J250000D01*
G01*
X184382000Y-131938000D01*
G75*
G02*
X184632000Y-131688000I250000J0D01*
G01*
G37*
X186182000Y-127762000D03*
X186182000Y-125262000D03*
X186182000Y-122762000D03*
X186182000Y-120262000D03*
X186182000Y-117762000D03*
X186182000Y-115262000D03*
X186182000Y-112762000D03*
G36*
G01*
X184632000Y-109362000D02*
X187732000Y-109362000D01*
G75*
G02*
X187982000Y-109612000I0J-250000D01*
G01*
X187982000Y-110912000D01*
G75*
G02*
X187732000Y-111162000I-250000J0D01*
G01*
X184632000Y-111162000D01*
G75*
G02*
X184382000Y-110912000I0J250000D01*
G01*
X184382000Y-109612000D01*
G75*
G02*
X184632000Y-109362000I250000J0D01*
G01*
G37*
X113919000Y-135281000D03*
X113919000Y-137781000D03*
X113919000Y-140281000D03*
X113919000Y-142781000D03*
X113919000Y-145281000D03*
X113919000Y-147781000D03*
X113919000Y-150281000D03*
G36*
G01*
X115469000Y-153681000D02*
X112369000Y-153681000D01*
G75*
G02*
X112119000Y-153431000I0J250000D01*
G01*
X112119000Y-152131000D01*
G75*
G02*
X112369000Y-151881000I250000J0D01*
G01*
X115469000Y-151881000D01*
G75*
G02*
X115719000Y-152131000I0J-250000D01*
G01*
X115719000Y-153431000D01*
G75*
G02*
X115469000Y-153681000I-250000J0D01*
G01*
G37*
D36*
X182856000Y-131889500D03*
X179856000Y-132839500D03*
X179856000Y-130939500D03*
G36*
G01*
X191154000Y-131577501D02*
X191154000Y-130677499D01*
G75*
G02*
X191403999Y-130427500I249999J0D01*
G01*
X192104001Y-130427500D01*
G75*
G02*
X192354000Y-130677499I0J-249999D01*
G01*
X192354000Y-131577501D01*
G75*
G02*
X192104001Y-131827500I-249999J0D01*
G01*
X191403999Y-131827500D01*
G75*
G02*
X191154000Y-131577501I0J249999D01*
G01*
G37*
G36*
G01*
X189154000Y-131577501D02*
X189154000Y-130677499D01*
G75*
G02*
X189403999Y-130427500I249999J0D01*
G01*
X190104001Y-130427500D01*
G75*
G02*
X190354000Y-130677499I0J-249999D01*
G01*
X190354000Y-131577501D01*
G75*
G02*
X190104001Y-131827500I-249999J0D01*
G01*
X189403999Y-131827500D01*
G75*
G02*
X189154000Y-131577501I0J249999D01*
G01*
G37*
D35*
X190754000Y-136437500D03*
X189804000Y-133437500D03*
X191704000Y-133437500D03*
G36*
G01*
X112106000Y-123374999D02*
X112106000Y-124275001D01*
G75*
G02*
X111856001Y-124525000I-249999J0D01*
G01*
X111155999Y-124525000D01*
G75*
G02*
X110906000Y-124275001I0J249999D01*
G01*
X110906000Y-123374999D01*
G75*
G02*
X111155999Y-123125000I249999J0D01*
G01*
X111856001Y-123125000D01*
G75*
G02*
X112106000Y-123374999I0J-249999D01*
G01*
G37*
G36*
G01*
X114106000Y-123374999D02*
X114106000Y-124275001D01*
G75*
G02*
X113856001Y-124525000I-249999J0D01*
G01*
X113155999Y-124525000D01*
G75*
G02*
X112906000Y-124275001I0J249999D01*
G01*
X112906000Y-123374999D01*
G75*
G02*
X113155999Y-123125000I249999J0D01*
G01*
X113856001Y-123125000D01*
G75*
G02*
X114106000Y-123374999I0J-249999D01*
G01*
G37*
D37*
X142450000Y-101990000D03*
D38*
X141200000Y-99500000D03*
X136700000Y-99500000D03*
D37*
X135440000Y-101990000D03*
G36*
G01*
X118117000Y-138611000D02*
X118117000Y-139011000D01*
G75*
G02*
X117917000Y-139211000I-200000J0D01*
G01*
X116367000Y-139211000D01*
G75*
G02*
X116167000Y-139011000I0J200000D01*
G01*
X116167000Y-138611000D01*
G75*
G02*
X116367000Y-138411000I200000J0D01*
G01*
X117917000Y-138411000D01*
G75*
G02*
X118117000Y-138611000I0J-200000D01*
G01*
G37*
G36*
G01*
X118117000Y-136071000D02*
X118117000Y-136471000D01*
G75*
G02*
X117917000Y-136671000I-200000J0D01*
G01*
X116367000Y-136671000D01*
G75*
G02*
X116167000Y-136471000I0J200000D01*
G01*
X116167000Y-136071000D01*
G75*
G02*
X116367000Y-135871000I200000J0D01*
G01*
X117917000Y-135871000D01*
G75*
G02*
X118117000Y-136071000I0J-200000D01*
G01*
G37*
G36*
G01*
X124117000Y-136071000D02*
X124117000Y-136471000D01*
G75*
G02*
X123917000Y-136671000I-200000J0D01*
G01*
X122367000Y-136671000D01*
G75*
G02*
X122167000Y-136471000I0J200000D01*
G01*
X122167000Y-136071000D01*
G75*
G02*
X122367000Y-135871000I200000J0D01*
G01*
X123917000Y-135871000D01*
G75*
G02*
X124117000Y-136071000I0J-200000D01*
G01*
G37*
G36*
G01*
X124117000Y-138611000D02*
X124117000Y-139011000D01*
G75*
G02*
X123917000Y-139211000I-200000J0D01*
G01*
X122367000Y-139211000D01*
G75*
G02*
X122167000Y-139011000I0J200000D01*
G01*
X122167000Y-138611000D01*
G75*
G02*
X122367000Y-138411000I200000J0D01*
G01*
X123917000Y-138411000D01*
G75*
G02*
X124117000Y-138611000I0J-200000D01*
G01*
G37*
G36*
G01*
X118117000Y-143437000D02*
X118117000Y-143837000D01*
G75*
G02*
X117917000Y-144037000I-200000J0D01*
G01*
X116367000Y-144037000D01*
G75*
G02*
X116167000Y-143837000I0J200000D01*
G01*
X116167000Y-143437000D01*
G75*
G02*
X116367000Y-143237000I200000J0D01*
G01*
X117917000Y-143237000D01*
G75*
G02*
X118117000Y-143437000I0J-200000D01*
G01*
G37*
G36*
G01*
X118117000Y-140897000D02*
X118117000Y-141297000D01*
G75*
G02*
X117917000Y-141497000I-200000J0D01*
G01*
X116367000Y-141497000D01*
G75*
G02*
X116167000Y-141297000I0J200000D01*
G01*
X116167000Y-140897000D01*
G75*
G02*
X116367000Y-140697000I200000J0D01*
G01*
X117917000Y-140697000D01*
G75*
G02*
X118117000Y-140897000I0J-200000D01*
G01*
G37*
G36*
G01*
X124117000Y-140897000D02*
X124117000Y-141297000D01*
G75*
G02*
X123917000Y-141497000I-200000J0D01*
G01*
X122367000Y-141497000D01*
G75*
G02*
X122167000Y-141297000I0J200000D01*
G01*
X122167000Y-140897000D01*
G75*
G02*
X122367000Y-140697000I200000J0D01*
G01*
X123917000Y-140697000D01*
G75*
G02*
X124117000Y-140897000I0J-200000D01*
G01*
G37*
G36*
G01*
X124117000Y-143437000D02*
X124117000Y-143837000D01*
G75*
G02*
X123917000Y-144037000I-200000J0D01*
G01*
X122367000Y-144037000D01*
G75*
G02*
X122167000Y-143837000I0J200000D01*
G01*
X122167000Y-143437000D01*
G75*
G02*
X122367000Y-143237000I200000J0D01*
G01*
X123917000Y-143237000D01*
G75*
G02*
X124117000Y-143437000I0J-200000D01*
G01*
G37*
G36*
G01*
X118117000Y-148263000D02*
X118117000Y-148663000D01*
G75*
G02*
X117917000Y-148863000I-200000J0D01*
G01*
X116367000Y-148863000D01*
G75*
G02*
X116167000Y-148663000I0J200000D01*
G01*
X116167000Y-148263000D01*
G75*
G02*
X116367000Y-148063000I200000J0D01*
G01*
X117917000Y-148063000D01*
G75*
G02*
X118117000Y-148263000I0J-200000D01*
G01*
G37*
G36*
G01*
X118117000Y-145723000D02*
X118117000Y-146123000D01*
G75*
G02*
X117917000Y-146323000I-200000J0D01*
G01*
X116367000Y-146323000D01*
G75*
G02*
X116167000Y-146123000I0J200000D01*
G01*
X116167000Y-145723000D01*
G75*
G02*
X116367000Y-145523000I200000J0D01*
G01*
X117917000Y-145523000D01*
G75*
G02*
X118117000Y-145723000I0J-200000D01*
G01*
G37*
G36*
G01*
X124117000Y-145723000D02*
X124117000Y-146123000D01*
G75*
G02*
X123917000Y-146323000I-200000J0D01*
G01*
X122367000Y-146323000D01*
G75*
G02*
X122167000Y-146123000I0J200000D01*
G01*
X122167000Y-145723000D01*
G75*
G02*
X122367000Y-145523000I200000J0D01*
G01*
X123917000Y-145523000D01*
G75*
G02*
X124117000Y-145723000I0J-200000D01*
G01*
G37*
G36*
G01*
X124117000Y-148263000D02*
X124117000Y-148663000D01*
G75*
G02*
X123917000Y-148863000I-200000J0D01*
G01*
X122367000Y-148863000D01*
G75*
G02*
X122167000Y-148663000I0J200000D01*
G01*
X122167000Y-148263000D01*
G75*
G02*
X122367000Y-148063000I200000J0D01*
G01*
X123917000Y-148063000D01*
G75*
G02*
X124117000Y-148263000I0J-200000D01*
G01*
G37*
G36*
G01*
X118117000Y-153089000D02*
X118117000Y-153489000D01*
G75*
G02*
X117917000Y-153689000I-200000J0D01*
G01*
X116367000Y-153689000D01*
G75*
G02*
X116167000Y-153489000I0J200000D01*
G01*
X116167000Y-153089000D01*
G75*
G02*
X116367000Y-152889000I200000J0D01*
G01*
X117917000Y-152889000D01*
G75*
G02*
X118117000Y-153089000I0J-200000D01*
G01*
G37*
G36*
G01*
X118117000Y-150549000D02*
X118117000Y-150949000D01*
G75*
G02*
X117917000Y-151149000I-200000J0D01*
G01*
X116367000Y-151149000D01*
G75*
G02*
X116167000Y-150949000I0J200000D01*
G01*
X116167000Y-150549000D01*
G75*
G02*
X116367000Y-150349000I200000J0D01*
G01*
X117917000Y-150349000D01*
G75*
G02*
X118117000Y-150549000I0J-200000D01*
G01*
G37*
G36*
G01*
X124117000Y-150549000D02*
X124117000Y-150949000D01*
G75*
G02*
X123917000Y-151149000I-200000J0D01*
G01*
X122367000Y-151149000D01*
G75*
G02*
X122167000Y-150949000I0J200000D01*
G01*
X122167000Y-150549000D01*
G75*
G02*
X122367000Y-150349000I200000J0D01*
G01*
X123917000Y-150349000D01*
G75*
G02*
X124117000Y-150549000I0J-200000D01*
G01*
G37*
G36*
G01*
X124117000Y-153089000D02*
X124117000Y-153489000D01*
G75*
G02*
X123917000Y-153689000I-200000J0D01*
G01*
X122367000Y-153689000D01*
G75*
G02*
X122167000Y-153489000I0J200000D01*
G01*
X122167000Y-153089000D01*
G75*
G02*
X122367000Y-152889000I200000J0D01*
G01*
X123917000Y-152889000D01*
G75*
G02*
X124117000Y-153089000I0J-200000D01*
G01*
G37*
G36*
G01*
X170034000Y-125787999D02*
X170034000Y-126688001D01*
G75*
G02*
X169784001Y-126938000I-249999J0D01*
G01*
X169083999Y-126938000D01*
G75*
G02*
X168834000Y-126688001I0J249999D01*
G01*
X168834000Y-125787999D01*
G75*
G02*
X169083999Y-125538000I249999J0D01*
G01*
X169784001Y-125538000D01*
G75*
G02*
X170034000Y-125787999I0J-249999D01*
G01*
G37*
G36*
G01*
X172034000Y-125787999D02*
X172034000Y-126688001D01*
G75*
G02*
X171784001Y-126938000I-249999J0D01*
G01*
X171083999Y-126938000D01*
G75*
G02*
X170834000Y-126688001I0J249999D01*
G01*
X170834000Y-125787999D01*
G75*
G02*
X171083999Y-125538000I249999J0D01*
G01*
X171784001Y-125538000D01*
G75*
G02*
X172034000Y-125787999I0J-249999D01*
G01*
G37*
G36*
G01*
X170034000Y-123882999D02*
X170034000Y-124783001D01*
G75*
G02*
X169784001Y-125033000I-249999J0D01*
G01*
X169083999Y-125033000D01*
G75*
G02*
X168834000Y-124783001I0J249999D01*
G01*
X168834000Y-123882999D01*
G75*
G02*
X169083999Y-123633000I249999J0D01*
G01*
X169784001Y-123633000D01*
G75*
G02*
X170034000Y-123882999I0J-249999D01*
G01*
G37*
G36*
G01*
X172034000Y-123882999D02*
X172034000Y-124783001D01*
G75*
G02*
X171784001Y-125033000I-249999J0D01*
G01*
X171083999Y-125033000D01*
G75*
G02*
X170834000Y-124783001I0J249999D01*
G01*
X170834000Y-123882999D01*
G75*
G02*
X171083999Y-123633000I249999J0D01*
G01*
X171784001Y-123633000D01*
G75*
G02*
X172034000Y-123882999I0J-249999D01*
G01*
G37*
G36*
G01*
X170034000Y-121850999D02*
X170034000Y-122751001D01*
G75*
G02*
X169784001Y-123001000I-249999J0D01*
G01*
X169083999Y-123001000D01*
G75*
G02*
X168834000Y-122751001I0J249999D01*
G01*
X168834000Y-121850999D01*
G75*
G02*
X169083999Y-121601000I249999J0D01*
G01*
X169784001Y-121601000D01*
G75*
G02*
X170034000Y-121850999I0J-249999D01*
G01*
G37*
G36*
G01*
X172034000Y-121850999D02*
X172034000Y-122751001D01*
G75*
G02*
X171784001Y-123001000I-249999J0D01*
G01*
X171083999Y-123001000D01*
G75*
G02*
X170834000Y-122751001I0J249999D01*
G01*
X170834000Y-121850999D01*
G75*
G02*
X171083999Y-121601000I249999J0D01*
G01*
X171784001Y-121601000D01*
G75*
G02*
X172034000Y-121850999I0J-249999D01*
G01*
G37*
G36*
G01*
X170034000Y-119818999D02*
X170034000Y-120719001D01*
G75*
G02*
X169784001Y-120969000I-249999J0D01*
G01*
X169083999Y-120969000D01*
G75*
G02*
X168834000Y-120719001I0J249999D01*
G01*
X168834000Y-119818999D01*
G75*
G02*
X169083999Y-119569000I249999J0D01*
G01*
X169784001Y-119569000D01*
G75*
G02*
X170034000Y-119818999I0J-249999D01*
G01*
G37*
G36*
G01*
X172034000Y-119818999D02*
X172034000Y-120719001D01*
G75*
G02*
X171784001Y-120969000I-249999J0D01*
G01*
X171083999Y-120969000D01*
G75*
G02*
X170834000Y-120719001I0J249999D01*
G01*
X170834000Y-119818999D01*
G75*
G02*
X171083999Y-119569000I249999J0D01*
G01*
X171784001Y-119569000D01*
G75*
G02*
X172034000Y-119818999I0J-249999D01*
G01*
G37*
G36*
G01*
X175025000Y-126688001D02*
X175025000Y-125787999D01*
G75*
G02*
X175274999Y-125538000I249999J0D01*
G01*
X175975001Y-125538000D01*
G75*
G02*
X176225000Y-125787999I0J-249999D01*
G01*
X176225000Y-126688001D01*
G75*
G02*
X175975001Y-126938000I-249999J0D01*
G01*
X175274999Y-126938000D01*
G75*
G02*
X175025000Y-126688001I0J249999D01*
G01*
G37*
G36*
G01*
X173025000Y-126688001D02*
X173025000Y-125787999D01*
G75*
G02*
X173274999Y-125538000I249999J0D01*
G01*
X173975001Y-125538000D01*
G75*
G02*
X174225000Y-125787999I0J-249999D01*
G01*
X174225000Y-126688001D01*
G75*
G02*
X173975001Y-126938000I-249999J0D01*
G01*
X173274999Y-126938000D01*
G75*
G02*
X173025000Y-126688001I0J249999D01*
G01*
G37*
G36*
G01*
X175025000Y-124783001D02*
X175025000Y-123882999D01*
G75*
G02*
X175274999Y-123633000I249999J0D01*
G01*
X175975001Y-123633000D01*
G75*
G02*
X176225000Y-123882999I0J-249999D01*
G01*
X176225000Y-124783001D01*
G75*
G02*
X175975001Y-125033000I-249999J0D01*
G01*
X175274999Y-125033000D01*
G75*
G02*
X175025000Y-124783001I0J249999D01*
G01*
G37*
G36*
G01*
X173025000Y-124783001D02*
X173025000Y-123882999D01*
G75*
G02*
X173274999Y-123633000I249999J0D01*
G01*
X173975001Y-123633000D01*
G75*
G02*
X174225000Y-123882999I0J-249999D01*
G01*
X174225000Y-124783001D01*
G75*
G02*
X173975001Y-125033000I-249999J0D01*
G01*
X173274999Y-125033000D01*
G75*
G02*
X173025000Y-124783001I0J249999D01*
G01*
G37*
G36*
G01*
X175025000Y-122751001D02*
X175025000Y-121850999D01*
G75*
G02*
X175274999Y-121601000I249999J0D01*
G01*
X175975001Y-121601000D01*
G75*
G02*
X176225000Y-121850999I0J-249999D01*
G01*
X176225000Y-122751001D01*
G75*
G02*
X175975001Y-123001000I-249999J0D01*
G01*
X175274999Y-123001000D01*
G75*
G02*
X175025000Y-122751001I0J249999D01*
G01*
G37*
G36*
G01*
X173025000Y-122751001D02*
X173025000Y-121850999D01*
G75*
G02*
X173274999Y-121601000I249999J0D01*
G01*
X173975001Y-121601000D01*
G75*
G02*
X174225000Y-121850999I0J-249999D01*
G01*
X174225000Y-122751001D01*
G75*
G02*
X173975001Y-123001000I-249999J0D01*
G01*
X173274999Y-123001000D01*
G75*
G02*
X173025000Y-122751001I0J249999D01*
G01*
G37*
G36*
G01*
X175025000Y-120719001D02*
X175025000Y-119818999D01*
G75*
G02*
X175274999Y-119569000I249999J0D01*
G01*
X175975001Y-119569000D01*
G75*
G02*
X176225000Y-119818999I0J-249999D01*
G01*
X176225000Y-120719001D01*
G75*
G02*
X175975001Y-120969000I-249999J0D01*
G01*
X175274999Y-120969000D01*
G75*
G02*
X175025000Y-120719001I0J249999D01*
G01*
G37*
G36*
G01*
X173025000Y-120719001D02*
X173025000Y-119818999D01*
G75*
G02*
X173274999Y-119569000I249999J0D01*
G01*
X173975001Y-119569000D01*
G75*
G02*
X174225000Y-119818999I0J-249999D01*
G01*
X174225000Y-120719001D01*
G75*
G02*
X173975001Y-120969000I-249999J0D01*
G01*
X173274999Y-120969000D01*
G75*
G02*
X173025000Y-120719001I0J249999D01*
G01*
G37*
G36*
G01*
X190354000Y-127311999D02*
X190354000Y-128212001D01*
G75*
G02*
X190104001Y-128462000I-249999J0D01*
G01*
X189403999Y-128462000D01*
G75*
G02*
X189154000Y-128212001I0J249999D01*
G01*
X189154000Y-127311999D01*
G75*
G02*
X189403999Y-127062000I249999J0D01*
G01*
X190104001Y-127062000D01*
G75*
G02*
X190354000Y-127311999I0J-249999D01*
G01*
G37*
G36*
G01*
X192354000Y-127311999D02*
X192354000Y-128212001D01*
G75*
G02*
X192104001Y-128462000I-249999J0D01*
G01*
X191403999Y-128462000D01*
G75*
G02*
X191154000Y-128212001I0J249999D01*
G01*
X191154000Y-127311999D01*
G75*
G02*
X191403999Y-127062000I249999J0D01*
G01*
X192104001Y-127062000D01*
G75*
G02*
X192354000Y-127311999I0J-249999D01*
G01*
G37*
G36*
G01*
X177996001Y-126854000D02*
X177095999Y-126854000D01*
G75*
G02*
X176846000Y-126604001I0J249999D01*
G01*
X176846000Y-125903999D01*
G75*
G02*
X177095999Y-125654000I249999J0D01*
G01*
X177996001Y-125654000D01*
G75*
G02*
X178246000Y-125903999I0J-249999D01*
G01*
X178246000Y-126604001D01*
G75*
G02*
X177996001Y-126854000I-249999J0D01*
G01*
G37*
G36*
G01*
X177996001Y-128854000D02*
X177095999Y-128854000D01*
G75*
G02*
X176846000Y-128604001I0J249999D01*
G01*
X176846000Y-127903999D01*
G75*
G02*
X177095999Y-127654000I249999J0D01*
G01*
X177996001Y-127654000D01*
G75*
G02*
X178246000Y-127903999I0J-249999D01*
G01*
X178246000Y-128604001D01*
G75*
G02*
X177996001Y-128854000I-249999J0D01*
G01*
G37*
G36*
G01*
X177996001Y-122917000D02*
X177095999Y-122917000D01*
G75*
G02*
X176846000Y-122667001I0J249999D01*
G01*
X176846000Y-121966999D01*
G75*
G02*
X177095999Y-121717000I249999J0D01*
G01*
X177996001Y-121717000D01*
G75*
G02*
X178246000Y-121966999I0J-249999D01*
G01*
X178246000Y-122667001D01*
G75*
G02*
X177996001Y-122917000I-249999J0D01*
G01*
G37*
G36*
G01*
X177996001Y-124917000D02*
X177095999Y-124917000D01*
G75*
G02*
X176846000Y-124667001I0J249999D01*
G01*
X176846000Y-123966999D01*
G75*
G02*
X177095999Y-123717000I249999J0D01*
G01*
X177996001Y-123717000D01*
G75*
G02*
X178246000Y-123966999I0J-249999D01*
G01*
X178246000Y-124667001D01*
G75*
G02*
X177996001Y-124917000I-249999J0D01*
G01*
G37*
G36*
G01*
X177996001Y-119107000D02*
X177095999Y-119107000D01*
G75*
G02*
X176846000Y-118857001I0J249999D01*
G01*
X176846000Y-118156999D01*
G75*
G02*
X177095999Y-117907000I249999J0D01*
G01*
X177996001Y-117907000D01*
G75*
G02*
X178246000Y-118156999I0J-249999D01*
G01*
X178246000Y-118857001D01*
G75*
G02*
X177996001Y-119107000I-249999J0D01*
G01*
G37*
G36*
G01*
X177996001Y-121107000D02*
X177095999Y-121107000D01*
G75*
G02*
X176846000Y-120857001I0J249999D01*
G01*
X176846000Y-120156999D01*
G75*
G02*
X177095999Y-119907000I249999J0D01*
G01*
X177996001Y-119907000D01*
G75*
G02*
X178246000Y-120156999I0J-249999D01*
G01*
X178246000Y-120857001D01*
G75*
G02*
X177996001Y-121107000I-249999J0D01*
G01*
G37*
G36*
G01*
X160890000Y-139313499D02*
X160890000Y-140213501D01*
G75*
G02*
X160640001Y-140463500I-249999J0D01*
G01*
X159939999Y-140463500D01*
G75*
G02*
X159690000Y-140213501I0J249999D01*
G01*
X159690000Y-139313499D01*
G75*
G02*
X159939999Y-139063500I249999J0D01*
G01*
X160640001Y-139063500D01*
G75*
G02*
X160890000Y-139313499I0J-249999D01*
G01*
G37*
G36*
G01*
X162890000Y-139313499D02*
X162890000Y-140213501D01*
G75*
G02*
X162640001Y-140463500I-249999J0D01*
G01*
X161939999Y-140463500D01*
G75*
G02*
X161690000Y-140213501I0J249999D01*
G01*
X161690000Y-139313499D01*
G75*
G02*
X161939999Y-139063500I249999J0D01*
G01*
X162640001Y-139063500D01*
G75*
G02*
X162890000Y-139313499I0J-249999D01*
G01*
G37*
G36*
G01*
X160890000Y-137281499D02*
X160890000Y-138181501D01*
G75*
G02*
X160640001Y-138431500I-249999J0D01*
G01*
X159939999Y-138431500D01*
G75*
G02*
X159690000Y-138181501I0J249999D01*
G01*
X159690000Y-137281499D01*
G75*
G02*
X159939999Y-137031500I249999J0D01*
G01*
X160640001Y-137031500D01*
G75*
G02*
X160890000Y-137281499I0J-249999D01*
G01*
G37*
G36*
G01*
X162890000Y-137281499D02*
X162890000Y-138181501D01*
G75*
G02*
X162640001Y-138431500I-249999J0D01*
G01*
X161939999Y-138431500D01*
G75*
G02*
X161690000Y-138181501I0J249999D01*
G01*
X161690000Y-137281499D01*
G75*
G02*
X161939999Y-137031500I249999J0D01*
G01*
X162640001Y-137031500D01*
G75*
G02*
X162890000Y-137281499I0J-249999D01*
G01*
G37*
G36*
G01*
X160890000Y-135249499D02*
X160890000Y-136149501D01*
G75*
G02*
X160640001Y-136399500I-249999J0D01*
G01*
X159939999Y-136399500D01*
G75*
G02*
X159690000Y-136149501I0J249999D01*
G01*
X159690000Y-135249499D01*
G75*
G02*
X159939999Y-134999500I249999J0D01*
G01*
X160640001Y-134999500D01*
G75*
G02*
X160890000Y-135249499I0J-249999D01*
G01*
G37*
G36*
G01*
X162890000Y-135249499D02*
X162890000Y-136149501D01*
G75*
G02*
X162640001Y-136399500I-249999J0D01*
G01*
X161939999Y-136399500D01*
G75*
G02*
X161690000Y-136149501I0J249999D01*
G01*
X161690000Y-135249499D01*
G75*
G02*
X161939999Y-134999500I249999J0D01*
G01*
X162640001Y-134999500D01*
G75*
G02*
X162890000Y-135249499I0J-249999D01*
G01*
G37*
G36*
G01*
X160890000Y-133153999D02*
X160890000Y-134054001D01*
G75*
G02*
X160640001Y-134304000I-249999J0D01*
G01*
X159939999Y-134304000D01*
G75*
G02*
X159690000Y-134054001I0J249999D01*
G01*
X159690000Y-133153999D01*
G75*
G02*
X159939999Y-132904000I249999J0D01*
G01*
X160640001Y-132904000D01*
G75*
G02*
X160890000Y-133153999I0J-249999D01*
G01*
G37*
G36*
G01*
X162890000Y-133153999D02*
X162890000Y-134054001D01*
G75*
G02*
X162640001Y-134304000I-249999J0D01*
G01*
X161939999Y-134304000D01*
G75*
G02*
X161690000Y-134054001I0J249999D01*
G01*
X161690000Y-133153999D01*
G75*
G02*
X161939999Y-132904000I249999J0D01*
G01*
X162640001Y-132904000D01*
G75*
G02*
X162890000Y-133153999I0J-249999D01*
G01*
G37*
G36*
G01*
X165500000Y-140213501D02*
X165500000Y-139313499D01*
G75*
G02*
X165749999Y-139063500I249999J0D01*
G01*
X166450001Y-139063500D01*
G75*
G02*
X166700000Y-139313499I0J-249999D01*
G01*
X166700000Y-140213501D01*
G75*
G02*
X166450001Y-140463500I-249999J0D01*
G01*
X165749999Y-140463500D01*
G75*
G02*
X165500000Y-140213501I0J249999D01*
G01*
G37*
G36*
G01*
X163500000Y-140213501D02*
X163500000Y-139313499D01*
G75*
G02*
X163749999Y-139063500I249999J0D01*
G01*
X164450001Y-139063500D01*
G75*
G02*
X164700000Y-139313499I0J-249999D01*
G01*
X164700000Y-140213501D01*
G75*
G02*
X164450001Y-140463500I-249999J0D01*
G01*
X163749999Y-140463500D01*
G75*
G02*
X163500000Y-140213501I0J249999D01*
G01*
G37*
G36*
G01*
X165500000Y-138181501D02*
X165500000Y-137281499D01*
G75*
G02*
X165749999Y-137031500I249999J0D01*
G01*
X166450001Y-137031500D01*
G75*
G02*
X166700000Y-137281499I0J-249999D01*
G01*
X166700000Y-138181501D01*
G75*
G02*
X166450001Y-138431500I-249999J0D01*
G01*
X165749999Y-138431500D01*
G75*
G02*
X165500000Y-138181501I0J249999D01*
G01*
G37*
G36*
G01*
X163500000Y-138181501D02*
X163500000Y-137281499D01*
G75*
G02*
X163749999Y-137031500I249999J0D01*
G01*
X164450001Y-137031500D01*
G75*
G02*
X164700000Y-137281499I0J-249999D01*
G01*
X164700000Y-138181501D01*
G75*
G02*
X164450001Y-138431500I-249999J0D01*
G01*
X163749999Y-138431500D01*
G75*
G02*
X163500000Y-138181501I0J249999D01*
G01*
G37*
G36*
G01*
X165500000Y-136149501D02*
X165500000Y-135249499D01*
G75*
G02*
X165749999Y-134999500I249999J0D01*
G01*
X166450001Y-134999500D01*
G75*
G02*
X166700000Y-135249499I0J-249999D01*
G01*
X166700000Y-136149501D01*
G75*
G02*
X166450001Y-136399500I-249999J0D01*
G01*
X165749999Y-136399500D01*
G75*
G02*
X165500000Y-136149501I0J249999D01*
G01*
G37*
G36*
G01*
X163500000Y-136149501D02*
X163500000Y-135249499D01*
G75*
G02*
X163749999Y-134999500I249999J0D01*
G01*
X164450001Y-134999500D01*
G75*
G02*
X164700000Y-135249499I0J-249999D01*
G01*
X164700000Y-136149501D01*
G75*
G02*
X164450001Y-136399500I-249999J0D01*
G01*
X163749999Y-136399500D01*
G75*
G02*
X163500000Y-136149501I0J249999D01*
G01*
G37*
G36*
G01*
X165500000Y-134054001D02*
X165500000Y-133153999D01*
G75*
G02*
X165749999Y-132904000I249999J0D01*
G01*
X166450001Y-132904000D01*
G75*
G02*
X166700000Y-133153999I0J-249999D01*
G01*
X166700000Y-134054001D01*
G75*
G02*
X166450001Y-134304000I-249999J0D01*
G01*
X165749999Y-134304000D01*
G75*
G02*
X165500000Y-134054001I0J249999D01*
G01*
G37*
G36*
G01*
X163500000Y-134054001D02*
X163500000Y-133153999D01*
G75*
G02*
X163749999Y-132904000I249999J0D01*
G01*
X164450001Y-132904000D01*
G75*
G02*
X164700000Y-133153999I0J-249999D01*
G01*
X164700000Y-134054001D01*
G75*
G02*
X164450001Y-134304000I-249999J0D01*
G01*
X163749999Y-134304000D01*
G75*
G02*
X163500000Y-134054001I0J249999D01*
G01*
G37*
G36*
G01*
X165500000Y-142817001D02*
X165500000Y-141916999D01*
G75*
G02*
X165749999Y-141667000I249999J0D01*
G01*
X166450001Y-141667000D01*
G75*
G02*
X166700000Y-141916999I0J-249999D01*
G01*
X166700000Y-142817001D01*
G75*
G02*
X166450001Y-143067000I-249999J0D01*
G01*
X165749999Y-143067000D01*
G75*
G02*
X165500000Y-142817001I0J249999D01*
G01*
G37*
G36*
G01*
X163500000Y-142817001D02*
X163500000Y-141916999D01*
G75*
G02*
X163749999Y-141667000I249999J0D01*
G01*
X164450001Y-141667000D01*
G75*
G02*
X164700000Y-141916999I0J-249999D01*
G01*
X164700000Y-142817001D01*
G75*
G02*
X164450001Y-143067000I-249999J0D01*
G01*
X163749999Y-143067000D01*
G75*
G02*
X163500000Y-142817001I0J249999D01*
G01*
G37*
G36*
G01*
X169169501Y-140570000D02*
X168269499Y-140570000D01*
G75*
G02*
X168019500Y-140320001I0J249999D01*
G01*
X168019500Y-139619999D01*
G75*
G02*
X168269499Y-139370000I249999J0D01*
G01*
X169169501Y-139370000D01*
G75*
G02*
X169419500Y-139619999I0J-249999D01*
G01*
X169419500Y-140320001D01*
G75*
G02*
X169169501Y-140570000I-249999J0D01*
G01*
G37*
G36*
G01*
X169169501Y-142570000D02*
X168269499Y-142570000D01*
G75*
G02*
X168019500Y-142320001I0J249999D01*
G01*
X168019500Y-141619999D01*
G75*
G02*
X168269499Y-141370000I249999J0D01*
G01*
X169169501Y-141370000D01*
G75*
G02*
X169419500Y-141619999I0J-249999D01*
G01*
X169419500Y-142320001D01*
G75*
G02*
X169169501Y-142570000I-249999J0D01*
G01*
G37*
G36*
G01*
X170034000Y-131883999D02*
X170034000Y-132784001D01*
G75*
G02*
X169784001Y-133034000I-249999J0D01*
G01*
X169083999Y-133034000D01*
G75*
G02*
X168834000Y-132784001I0J249999D01*
G01*
X168834000Y-131883999D01*
G75*
G02*
X169083999Y-131634000I249999J0D01*
G01*
X169784001Y-131634000D01*
G75*
G02*
X170034000Y-131883999I0J-249999D01*
G01*
G37*
G36*
G01*
X172034000Y-131883999D02*
X172034000Y-132784001D01*
G75*
G02*
X171784001Y-133034000I-249999J0D01*
G01*
X171083999Y-133034000D01*
G75*
G02*
X170834000Y-132784001I0J249999D01*
G01*
X170834000Y-131883999D01*
G75*
G02*
X171083999Y-131634000I249999J0D01*
G01*
X171784001Y-131634000D01*
G75*
G02*
X172034000Y-131883999I0J-249999D01*
G01*
G37*
G36*
G01*
X170034000Y-129724999D02*
X170034000Y-130625001D01*
G75*
G02*
X169784001Y-130875000I-249999J0D01*
G01*
X169083999Y-130875000D01*
G75*
G02*
X168834000Y-130625001I0J249999D01*
G01*
X168834000Y-129724999D01*
G75*
G02*
X169083999Y-129475000I249999J0D01*
G01*
X169784001Y-129475000D01*
G75*
G02*
X170034000Y-129724999I0J-249999D01*
G01*
G37*
G36*
G01*
X172034000Y-129724999D02*
X172034000Y-130625001D01*
G75*
G02*
X171784001Y-130875000I-249999J0D01*
G01*
X171083999Y-130875000D01*
G75*
G02*
X170834000Y-130625001I0J249999D01*
G01*
X170834000Y-129724999D01*
G75*
G02*
X171083999Y-129475000I249999J0D01*
G01*
X171784001Y-129475000D01*
G75*
G02*
X172034000Y-129724999I0J-249999D01*
G01*
G37*
G36*
G01*
X175025000Y-132784001D02*
X175025000Y-131883999D01*
G75*
G02*
X175274999Y-131634000I249999J0D01*
G01*
X175975001Y-131634000D01*
G75*
G02*
X176225000Y-131883999I0J-249999D01*
G01*
X176225000Y-132784001D01*
G75*
G02*
X175975001Y-133034000I-249999J0D01*
G01*
X175274999Y-133034000D01*
G75*
G02*
X175025000Y-132784001I0J249999D01*
G01*
G37*
G36*
G01*
X173025000Y-132784001D02*
X173025000Y-131883999D01*
G75*
G02*
X173274999Y-131634000I249999J0D01*
G01*
X173975001Y-131634000D01*
G75*
G02*
X174225000Y-131883999I0J-249999D01*
G01*
X174225000Y-132784001D01*
G75*
G02*
X173975001Y-133034000I-249999J0D01*
G01*
X173274999Y-133034000D01*
G75*
G02*
X173025000Y-132784001I0J249999D01*
G01*
G37*
G36*
G01*
X175025000Y-130625001D02*
X175025000Y-129724999D01*
G75*
G02*
X175274999Y-129475000I249999J0D01*
G01*
X175975001Y-129475000D01*
G75*
G02*
X176225000Y-129724999I0J-249999D01*
G01*
X176225000Y-130625001D01*
G75*
G02*
X175975001Y-130875000I-249999J0D01*
G01*
X175274999Y-130875000D01*
G75*
G02*
X175025000Y-130625001I0J249999D01*
G01*
G37*
G36*
G01*
X173025000Y-130625001D02*
X173025000Y-129724999D01*
G75*
G02*
X173274999Y-129475000I249999J0D01*
G01*
X173975001Y-129475000D01*
G75*
G02*
X174225000Y-129724999I0J-249999D01*
G01*
X174225000Y-130625001D01*
G75*
G02*
X173975001Y-130875000I-249999J0D01*
G01*
X173274999Y-130875000D01*
G75*
G02*
X173025000Y-130625001I0J249999D01*
G01*
G37*
G36*
G01*
X177996001Y-138982500D02*
X177095999Y-138982500D01*
G75*
G02*
X176846000Y-138732501I0J249999D01*
G01*
X176846000Y-138032499D01*
G75*
G02*
X177095999Y-137782500I249999J0D01*
G01*
X177996001Y-137782500D01*
G75*
G02*
X178246000Y-138032499I0J-249999D01*
G01*
X178246000Y-138732501D01*
G75*
G02*
X177996001Y-138982500I-249999J0D01*
G01*
G37*
G36*
G01*
X177996001Y-140982500D02*
X177095999Y-140982500D01*
G75*
G02*
X176846000Y-140732501I0J249999D01*
G01*
X176846000Y-140032499D01*
G75*
G02*
X177095999Y-139782500I249999J0D01*
G01*
X177996001Y-139782500D01*
G75*
G02*
X178246000Y-140032499I0J-249999D01*
G01*
X178246000Y-140732501D01*
G75*
G02*
X177996001Y-140982500I-249999J0D01*
G01*
G37*
G36*
G01*
X177996001Y-135236000D02*
X177095999Y-135236000D01*
G75*
G02*
X176846000Y-134986001I0J249999D01*
G01*
X176846000Y-134285999D01*
G75*
G02*
X177095999Y-134036000I249999J0D01*
G01*
X177996001Y-134036000D01*
G75*
G02*
X178246000Y-134285999I0J-249999D01*
G01*
X178246000Y-134986001D01*
G75*
G02*
X177996001Y-135236000I-249999J0D01*
G01*
G37*
G36*
G01*
X177996001Y-137236000D02*
X177095999Y-137236000D01*
G75*
G02*
X176846000Y-136986001I0J249999D01*
G01*
X176846000Y-136285999D01*
G75*
G02*
X177095999Y-136036000I249999J0D01*
G01*
X177996001Y-136036000D01*
G75*
G02*
X178246000Y-136285999I0J-249999D01*
G01*
X178246000Y-136986001D01*
G75*
G02*
X177996001Y-137236000I-249999J0D01*
G01*
G37*
G36*
G01*
X177996001Y-131489500D02*
X177095999Y-131489500D01*
G75*
G02*
X176846000Y-131239501I0J249999D01*
G01*
X176846000Y-130539499D01*
G75*
G02*
X177095999Y-130289500I249999J0D01*
G01*
X177996001Y-130289500D01*
G75*
G02*
X178246000Y-130539499I0J-249999D01*
G01*
X178246000Y-131239501D01*
G75*
G02*
X177996001Y-131489500I-249999J0D01*
G01*
G37*
G36*
G01*
X177996001Y-133489500D02*
X177095999Y-133489500D01*
G75*
G02*
X176846000Y-133239501I0J249999D01*
G01*
X176846000Y-132539499D01*
G75*
G02*
X177095999Y-132289500I249999J0D01*
G01*
X177996001Y-132289500D01*
G75*
G02*
X178246000Y-132539499I0J-249999D01*
G01*
X178246000Y-133239501D01*
G75*
G02*
X177996001Y-133489500I-249999J0D01*
G01*
G37*
G36*
G01*
X170034000Y-117913999D02*
X170034000Y-118814001D01*
G75*
G02*
X169784001Y-119064000I-249999J0D01*
G01*
X169083999Y-119064000D01*
G75*
G02*
X168834000Y-118814001I0J249999D01*
G01*
X168834000Y-117913999D01*
G75*
G02*
X169083999Y-117664000I249999J0D01*
G01*
X169784001Y-117664000D01*
G75*
G02*
X170034000Y-117913999I0J-249999D01*
G01*
G37*
G36*
G01*
X172034000Y-117913999D02*
X172034000Y-118814001D01*
G75*
G02*
X171784001Y-119064000I-249999J0D01*
G01*
X171083999Y-119064000D01*
G75*
G02*
X170834000Y-118814001I0J249999D01*
G01*
X170834000Y-117913999D01*
G75*
G02*
X171083999Y-117664000I249999J0D01*
G01*
X171784001Y-117664000D01*
G75*
G02*
X172034000Y-117913999I0J-249999D01*
G01*
G37*
G36*
G01*
X170034000Y-116008999D02*
X170034000Y-116909001D01*
G75*
G02*
X169784001Y-117159000I-249999J0D01*
G01*
X169083999Y-117159000D01*
G75*
G02*
X168834000Y-116909001I0J249999D01*
G01*
X168834000Y-116008999D01*
G75*
G02*
X169083999Y-115759000I249999J0D01*
G01*
X169784001Y-115759000D01*
G75*
G02*
X170034000Y-116008999I0J-249999D01*
G01*
G37*
G36*
G01*
X172034000Y-116008999D02*
X172034000Y-116909001D01*
G75*
G02*
X171784001Y-117159000I-249999J0D01*
G01*
X171083999Y-117159000D01*
G75*
G02*
X170834000Y-116909001I0J249999D01*
G01*
X170834000Y-116008999D01*
G75*
G02*
X171083999Y-115759000I249999J0D01*
G01*
X171784001Y-115759000D01*
G75*
G02*
X172034000Y-116008999I0J-249999D01*
G01*
G37*
G36*
G01*
X170034000Y-114103999D02*
X170034000Y-115004001D01*
G75*
G02*
X169784001Y-115254000I-249999J0D01*
G01*
X169083999Y-115254000D01*
G75*
G02*
X168834000Y-115004001I0J249999D01*
G01*
X168834000Y-114103999D01*
G75*
G02*
X169083999Y-113854000I249999J0D01*
G01*
X169784001Y-113854000D01*
G75*
G02*
X170034000Y-114103999I0J-249999D01*
G01*
G37*
G36*
G01*
X172034000Y-114103999D02*
X172034000Y-115004001D01*
G75*
G02*
X171784001Y-115254000I-249999J0D01*
G01*
X171083999Y-115254000D01*
G75*
G02*
X170834000Y-115004001I0J249999D01*
G01*
X170834000Y-114103999D01*
G75*
G02*
X171083999Y-113854000I249999J0D01*
G01*
X171784001Y-113854000D01*
G75*
G02*
X172034000Y-114103999I0J-249999D01*
G01*
G37*
G36*
G01*
X170034000Y-112198999D02*
X170034000Y-113099001D01*
G75*
G02*
X169784001Y-113349000I-249999J0D01*
G01*
X169083999Y-113349000D01*
G75*
G02*
X168834000Y-113099001I0J249999D01*
G01*
X168834000Y-112198999D01*
G75*
G02*
X169083999Y-111949000I249999J0D01*
G01*
X169784001Y-111949000D01*
G75*
G02*
X170034000Y-112198999I0J-249999D01*
G01*
G37*
G36*
G01*
X172034000Y-112198999D02*
X172034000Y-113099001D01*
G75*
G02*
X171784001Y-113349000I-249999J0D01*
G01*
X171083999Y-113349000D01*
G75*
G02*
X170834000Y-113099001I0J249999D01*
G01*
X170834000Y-112198999D01*
G75*
G02*
X171083999Y-111949000I249999J0D01*
G01*
X171784001Y-111949000D01*
G75*
G02*
X172034000Y-112198999I0J-249999D01*
G01*
G37*
G36*
G01*
X175025000Y-118814001D02*
X175025000Y-117913999D01*
G75*
G02*
X175274999Y-117664000I249999J0D01*
G01*
X175975001Y-117664000D01*
G75*
G02*
X176225000Y-117913999I0J-249999D01*
G01*
X176225000Y-118814001D01*
G75*
G02*
X175975001Y-119064000I-249999J0D01*
G01*
X175274999Y-119064000D01*
G75*
G02*
X175025000Y-118814001I0J249999D01*
G01*
G37*
G36*
G01*
X173025000Y-118814001D02*
X173025000Y-117913999D01*
G75*
G02*
X173274999Y-117664000I249999J0D01*
G01*
X173975001Y-117664000D01*
G75*
G02*
X174225000Y-117913999I0J-249999D01*
G01*
X174225000Y-118814001D01*
G75*
G02*
X173975001Y-119064000I-249999J0D01*
G01*
X173274999Y-119064000D01*
G75*
G02*
X173025000Y-118814001I0J249999D01*
G01*
G37*
G36*
G01*
X175025000Y-116909001D02*
X175025000Y-116008999D01*
G75*
G02*
X175274999Y-115759000I249999J0D01*
G01*
X175975001Y-115759000D01*
G75*
G02*
X176225000Y-116008999I0J-249999D01*
G01*
X176225000Y-116909001D01*
G75*
G02*
X175975001Y-117159000I-249999J0D01*
G01*
X175274999Y-117159000D01*
G75*
G02*
X175025000Y-116909001I0J249999D01*
G01*
G37*
G36*
G01*
X173025000Y-116909001D02*
X173025000Y-116008999D01*
G75*
G02*
X173274999Y-115759000I249999J0D01*
G01*
X173975001Y-115759000D01*
G75*
G02*
X174225000Y-116008999I0J-249999D01*
G01*
X174225000Y-116909001D01*
G75*
G02*
X173975001Y-117159000I-249999J0D01*
G01*
X173274999Y-117159000D01*
G75*
G02*
X173025000Y-116909001I0J249999D01*
G01*
G37*
G36*
G01*
X175025000Y-115004001D02*
X175025000Y-114103999D01*
G75*
G02*
X175274999Y-113854000I249999J0D01*
G01*
X175975001Y-113854000D01*
G75*
G02*
X176225000Y-114103999I0J-249999D01*
G01*
X176225000Y-115004001D01*
G75*
G02*
X175975001Y-115254000I-249999J0D01*
G01*
X175274999Y-115254000D01*
G75*
G02*
X175025000Y-115004001I0J249999D01*
G01*
G37*
G36*
G01*
X173025000Y-115004001D02*
X173025000Y-114103999D01*
G75*
G02*
X173274999Y-113854000I249999J0D01*
G01*
X173975001Y-113854000D01*
G75*
G02*
X174225000Y-114103999I0J-249999D01*
G01*
X174225000Y-115004001D01*
G75*
G02*
X173975001Y-115254000I-249999J0D01*
G01*
X173274999Y-115254000D01*
G75*
G02*
X173025000Y-115004001I0J249999D01*
G01*
G37*
G36*
G01*
X175025000Y-113099001D02*
X175025000Y-112198999D01*
G75*
G02*
X175274999Y-111949000I249999J0D01*
G01*
X175975001Y-111949000D01*
G75*
G02*
X176225000Y-112198999I0J-249999D01*
G01*
X176225000Y-113099001D01*
G75*
G02*
X175975001Y-113349000I-249999J0D01*
G01*
X175274999Y-113349000D01*
G75*
G02*
X175025000Y-113099001I0J249999D01*
G01*
G37*
G36*
G01*
X173025000Y-113099001D02*
X173025000Y-112198999D01*
G75*
G02*
X173274999Y-111949000I249999J0D01*
G01*
X173975001Y-111949000D01*
G75*
G02*
X174225000Y-112198999I0J-249999D01*
G01*
X174225000Y-113099001D01*
G75*
G02*
X173975001Y-113349000I-249999J0D01*
G01*
X173274999Y-113349000D01*
G75*
G02*
X173025000Y-113099001I0J249999D01*
G01*
G37*
G36*
G01*
X125838000Y-138360999D02*
X125838000Y-139261001D01*
G75*
G02*
X125588001Y-139511000I-249999J0D01*
G01*
X124887999Y-139511000D01*
G75*
G02*
X124638000Y-139261001I0J249999D01*
G01*
X124638000Y-138360999D01*
G75*
G02*
X124887999Y-138111000I249999J0D01*
G01*
X125588001Y-138111000D01*
G75*
G02*
X125838000Y-138360999I0J-249999D01*
G01*
G37*
G36*
G01*
X127838000Y-138360999D02*
X127838000Y-139261001D01*
G75*
G02*
X127588001Y-139511000I-249999J0D01*
G01*
X126887999Y-139511000D01*
G75*
G02*
X126638000Y-139261001I0J249999D01*
G01*
X126638000Y-138360999D01*
G75*
G02*
X126887999Y-138111000I249999J0D01*
G01*
X127588001Y-138111000D01*
G75*
G02*
X127838000Y-138360999I0J-249999D01*
G01*
G37*
G36*
G01*
X125838000Y-140646999D02*
X125838000Y-141547001D01*
G75*
G02*
X125588001Y-141797000I-249999J0D01*
G01*
X124887999Y-141797000D01*
G75*
G02*
X124638000Y-141547001I0J249999D01*
G01*
X124638000Y-140646999D01*
G75*
G02*
X124887999Y-140397000I249999J0D01*
G01*
X125588001Y-140397000D01*
G75*
G02*
X125838000Y-140646999I0J-249999D01*
G01*
G37*
G36*
G01*
X127838000Y-140646999D02*
X127838000Y-141547001D01*
G75*
G02*
X127588001Y-141797000I-249999J0D01*
G01*
X126887999Y-141797000D01*
G75*
G02*
X126638000Y-141547001I0J249999D01*
G01*
X126638000Y-140646999D01*
G75*
G02*
X126887999Y-140397000I249999J0D01*
G01*
X127588001Y-140397000D01*
G75*
G02*
X127838000Y-140646999I0J-249999D01*
G01*
G37*
G36*
G01*
X125838000Y-148012999D02*
X125838000Y-148913001D01*
G75*
G02*
X125588001Y-149163000I-249999J0D01*
G01*
X124887999Y-149163000D01*
G75*
G02*
X124638000Y-148913001I0J249999D01*
G01*
X124638000Y-148012999D01*
G75*
G02*
X124887999Y-147763000I249999J0D01*
G01*
X125588001Y-147763000D01*
G75*
G02*
X125838000Y-148012999I0J-249999D01*
G01*
G37*
G36*
G01*
X127838000Y-148012999D02*
X127838000Y-148913001D01*
G75*
G02*
X127588001Y-149163000I-249999J0D01*
G01*
X126887999Y-149163000D01*
G75*
G02*
X126638000Y-148913001I0J249999D01*
G01*
X126638000Y-148012999D01*
G75*
G02*
X126887999Y-147763000I249999J0D01*
G01*
X127588001Y-147763000D01*
G75*
G02*
X127838000Y-148012999I0J-249999D01*
G01*
G37*
G36*
G01*
X125838000Y-150298999D02*
X125838000Y-151199001D01*
G75*
G02*
X125588001Y-151449000I-249999J0D01*
G01*
X124887999Y-151449000D01*
G75*
G02*
X124638000Y-151199001I0J249999D01*
G01*
X124638000Y-150298999D01*
G75*
G02*
X124887999Y-150049000I249999J0D01*
G01*
X125588001Y-150049000D01*
G75*
G02*
X125838000Y-150298999I0J-249999D01*
G01*
G37*
G36*
G01*
X127838000Y-150298999D02*
X127838000Y-151199001D01*
G75*
G02*
X127588001Y-151449000I-249999J0D01*
G01*
X126887999Y-151449000D01*
G75*
G02*
X126638000Y-151199001I0J249999D01*
G01*
X126638000Y-150298999D01*
G75*
G02*
X126887999Y-150049000I249999J0D01*
G01*
X127588001Y-150049000D01*
G75*
G02*
X127838000Y-150298999I0J-249999D01*
G01*
G37*
G36*
G01*
X132950000Y-98990999D02*
X132950000Y-99891001D01*
G75*
G02*
X132700001Y-100141000I-249999J0D01*
G01*
X131999999Y-100141000D01*
G75*
G02*
X131750000Y-99891001I0J249999D01*
G01*
X131750000Y-98990999D01*
G75*
G02*
X131999999Y-98741000I249999J0D01*
G01*
X132700001Y-98741000D01*
G75*
G02*
X132950000Y-98990999I0J-249999D01*
G01*
G37*
G36*
G01*
X134950000Y-98990999D02*
X134950000Y-99891001D01*
G75*
G02*
X134700001Y-100141000I-249999J0D01*
G01*
X133999999Y-100141000D01*
G75*
G02*
X133750000Y-99891001I0J249999D01*
G01*
X133750000Y-98990999D01*
G75*
G02*
X133999999Y-98741000I249999J0D01*
G01*
X134700001Y-98741000D01*
G75*
G02*
X134950000Y-98990999I0J-249999D01*
G01*
G37*
G36*
G01*
X147516001Y-111106000D02*
X146615999Y-111106000D01*
G75*
G02*
X146366000Y-110856001I0J249999D01*
G01*
X146366000Y-110155999D01*
G75*
G02*
X146615999Y-109906000I249999J0D01*
G01*
X147516001Y-109906000D01*
G75*
G02*
X147766000Y-110155999I0J-249999D01*
G01*
X147766000Y-110856001D01*
G75*
G02*
X147516001Y-111106000I-249999J0D01*
G01*
G37*
G36*
G01*
X147516001Y-113106000D02*
X146615999Y-113106000D01*
G75*
G02*
X146366000Y-112856001I0J249999D01*
G01*
X146366000Y-112155999D01*
G75*
G02*
X146615999Y-111906000I249999J0D01*
G01*
X147516001Y-111906000D01*
G75*
G02*
X147766000Y-112155999I0J-249999D01*
G01*
X147766000Y-112856001D01*
G75*
G02*
X147516001Y-113106000I-249999J0D01*
G01*
G37*
D35*
X190754000Y-122452000D03*
X191704000Y-125452000D03*
X189804000Y-125452000D03*
D36*
X182880000Y-127254000D03*
X179880000Y-128204000D03*
X179880000Y-126304000D03*
X182856000Y-123317000D03*
X179856000Y-124267000D03*
X179856000Y-122367000D03*
X182856000Y-119507000D03*
X179856000Y-120457000D03*
X179856000Y-118557000D03*
X173966000Y-144780000D03*
X170966000Y-145730000D03*
X170966000Y-143830000D03*
X173966000Y-140970000D03*
X170966000Y-141920000D03*
X170966000Y-140020000D03*
X182856000Y-139382500D03*
X179856000Y-140332500D03*
X179856000Y-138432500D03*
X182856000Y-135636000D03*
X179856000Y-136586000D03*
X179856000Y-134686000D03*
G36*
G01*
X147541000Y-114866000D02*
X146591000Y-114866000D01*
G75*
G02*
X146341000Y-114616000I0J250000D01*
G01*
X146341000Y-113941000D01*
G75*
G02*
X146591000Y-113691000I250000J0D01*
G01*
X147541000Y-113691000D01*
G75*
G02*
X147791000Y-113941000I0J-250000D01*
G01*
X147791000Y-114616000D01*
G75*
G02*
X147541000Y-114866000I-250000J0D01*
G01*
G37*
G36*
G01*
X147541000Y-116941000D02*
X146591000Y-116941000D01*
G75*
G02*
X146341000Y-116691000I0J250000D01*
G01*
X146341000Y-116016000D01*
G75*
G02*
X146591000Y-115766000I250000J0D01*
G01*
X147541000Y-115766000D01*
G75*
G02*
X147791000Y-116016000I0J-250000D01*
G01*
X147791000Y-116691000D01*
G75*
G02*
X147541000Y-116941000I-250000J0D01*
G01*
G37*
M02*
