G04 #@! TF.GenerationSoftware,KiCad,Pcbnew,(5.1.8)-1*
G04 #@! TF.CreationDate,2021-05-03T11:31:43+02:00*
G04 #@! TF.ProjectId,sensactHsIO4,73656e73-6163-4744-9873-494f342e6b69,rev?*
G04 #@! TF.SameCoordinates,Original*
G04 #@! TF.FileFunction,Legend,Bot*
G04 #@! TF.FilePolarity,Positive*
%FSLAX46Y46*%
G04 Gerber Fmt 4.6, Leading zero omitted, Abs format (unit mm)*
G04 Created by KiCad (PCBNEW (5.1.8)-1) date 2021-05-03 11:31:43*
%MOMM*%
%LPD*%
G01*
G04 APERTURE LIST*
%ADD10C,0.120000*%
%ADD11C,0.250000*%
%ADD12C,0.150000*%
%ADD13R,2.200000X2.200000*%
%ADD14R,5.000000X5.000000*%
%ADD15O,1.600000X2.000000*%
%ADD16O,3.600000X1.800000*%
%ADD17O,1.000000X1.000000*%
%ADD18R,1.000000X1.000000*%
%ADD19C,0.700000*%
%ADD20C,1.700000*%
%ADD21C,1.200000*%
%ADD22O,1.700000X1.950000*%
%ADD23R,1.230000X1.230000*%
%ADD24C,0.900000*%
%ADD25C,1.524000*%
%ADD26C,2.100000*%
%ADD27C,1.750000*%
%ADD28R,0.650000X1.560000*%
%ADD29R,3.500000X1.800000*%
G04 APERTURE END LIST*
D10*
X141470748Y-105691000D02*
X141993252Y-105691000D01*
X141470748Y-107161000D02*
X141993252Y-107161000D01*
X135763000Y-116826000D02*
X132343000Y-116826000D01*
X132343000Y-116826000D02*
X132343000Y-116536000D01*
X135763000Y-116826000D02*
X139183000Y-116826000D01*
X139183000Y-116826000D02*
X139183000Y-116536000D01*
X135763000Y-107456000D02*
X132343000Y-107456000D01*
X132343000Y-107456000D02*
X132343000Y-107746000D01*
X135763000Y-107456000D02*
X139183000Y-107456000D01*
X139183000Y-107456000D02*
X139183000Y-107746000D01*
X139183000Y-107746000D02*
X141463000Y-107746000D01*
X129269000Y-130686000D02*
X129269000Y-132986000D01*
X129269000Y-132986000D02*
X136669000Y-132986000D01*
X136669000Y-132986000D02*
X136669000Y-130686000D01*
X136669000Y-127886000D02*
X136669000Y-125586000D01*
X136669000Y-125586000D02*
X129269000Y-125586000D01*
X129269000Y-125586000D02*
X129269000Y-127886000D01*
X119909000Y-111471064D02*
X119909000Y-110016936D01*
X118089000Y-111471064D02*
X118089000Y-110016936D01*
X117496000Y-111471064D02*
X117496000Y-110016936D01*
X115676000Y-111471064D02*
X115676000Y-110016936D01*
X167120000Y-107555000D02*
X167500000Y-107555000D01*
X167120000Y-101135000D02*
X167120000Y-107555000D01*
X148880000Y-101135000D02*
X148880000Y-107555000D01*
X167120000Y-101135000D02*
X148880000Y-101135000D01*
X148880000Y-126880000D02*
X149880000Y-126880000D01*
X148880000Y-126100000D02*
X148880000Y-126880000D01*
X167120000Y-126880000D02*
X166120000Y-126880000D01*
X167120000Y-126100000D02*
X167120000Y-126880000D01*
X135035936Y-114321000D02*
X136490064Y-114321000D01*
X135035936Y-112501000D02*
X136490064Y-112501000D01*
X135035936Y-111781000D02*
X136490064Y-111781000D01*
X135035936Y-109961000D02*
X136490064Y-109961000D01*
X139759000Y-119098000D02*
X139759000Y-117348000D01*
X131259000Y-119098000D02*
X139759000Y-119098000D01*
X131259000Y-115598000D02*
X131259000Y-119098000D01*
X139759000Y-115598000D02*
X131259000Y-115598000D01*
X139759000Y-117348000D02*
X139759000Y-115598000D01*
X139759000Y-122781000D02*
X139759000Y-121031000D01*
X131259000Y-122781000D02*
X139759000Y-122781000D01*
X131259000Y-119281000D02*
X131259000Y-122781000D01*
X139759000Y-119281000D02*
X131259000Y-119281000D01*
X139759000Y-121031000D02*
X139759000Y-119281000D01*
X139759000Y-108811000D02*
X139759000Y-107061000D01*
X131259000Y-108811000D02*
X139759000Y-108811000D01*
X131259000Y-105311000D02*
X131259000Y-108811000D01*
X139759000Y-105311000D02*
X131259000Y-105311000D01*
X139759000Y-107061000D02*
X139759000Y-105311000D01*
X129307000Y-111429748D02*
X129307000Y-112852252D01*
X127487000Y-111429748D02*
X127487000Y-112852252D01*
X114340000Y-132608000D02*
X104920000Y-132608000D01*
X104920000Y-132608000D02*
X104920000Y-123988000D01*
X104920000Y-123988000D02*
X114340000Y-123988000D01*
X114340000Y-132608000D02*
X114340000Y-131098000D01*
X114340000Y-123988000D02*
X114340000Y-125498000D01*
X114340000Y-128998000D02*
X114340000Y-127598000D01*
X108230000Y-132608000D02*
X108230000Y-123988000D01*
X115630000Y-129748000D02*
X115030000Y-130048000D01*
X115030000Y-130048000D02*
X115630000Y-130348000D01*
X115630000Y-130348000D02*
X115630000Y-129748000D01*
X115630000Y-121092000D02*
X115630000Y-120492000D01*
X115030000Y-120792000D02*
X115630000Y-121092000D01*
X115630000Y-120492000D02*
X115030000Y-120792000D01*
X108230000Y-123352000D02*
X108230000Y-107732000D01*
X114340000Y-112742000D02*
X114340000Y-111342000D01*
X114340000Y-116242000D02*
X114340000Y-114842000D01*
X114340000Y-119742000D02*
X114340000Y-118342000D01*
X114340000Y-107732000D02*
X114340000Y-109242000D01*
X114340000Y-123352000D02*
X114340000Y-121842000D01*
X104920000Y-107732000D02*
X114340000Y-107732000D01*
X104920000Y-123352000D02*
X104920000Y-107732000D01*
X114340000Y-123352000D02*
X104920000Y-123352000D01*
X146480000Y-114103000D02*
X147280000Y-114103000D01*
X146480000Y-111703000D02*
X146480000Y-114103000D01*
X147280000Y-111703000D02*
X146480000Y-111703000D01*
X142280000Y-117303000D02*
X142280000Y-112903000D01*
X147280000Y-117303000D02*
X142280000Y-117303000D01*
X147280000Y-108503000D02*
X147280000Y-117303000D01*
X142280000Y-108503000D02*
X147280000Y-108503000D01*
X142280000Y-112903000D02*
X142280000Y-108503000D01*
X121095000Y-114800000D02*
X120095000Y-114300000D01*
X121095000Y-113800000D02*
X121095000Y-114800000D01*
X120095000Y-114300000D02*
X121095000Y-113800000D01*
X114475000Y-129670000D02*
X114475000Y-109090000D01*
X105355000Y-129670000D02*
X114475000Y-129670000D01*
X105355000Y-109090000D02*
X105355000Y-129670000D01*
X114475000Y-109090000D02*
X105355000Y-109090000D01*
X114475000Y-121430000D02*
X105355000Y-121430000D01*
X114475000Y-117330000D02*
X105355000Y-117330000D01*
X151531000Y-141304000D02*
X151531000Y-147274000D01*
X151531000Y-147274000D02*
X138911000Y-147274000D01*
X138911000Y-147274000D02*
X138911000Y-141304000D01*
X138911000Y-141304000D02*
X151531000Y-141304000D01*
X148221000Y-141314000D02*
X148221000Y-142064000D01*
X148221000Y-142064000D02*
X142221000Y-142064000D01*
X142221000Y-142064000D02*
X142221000Y-141314000D01*
X142221000Y-141314000D02*
X148221000Y-141314000D01*
X151521000Y-141314000D02*
X151521000Y-142064000D01*
X151521000Y-142064000D02*
X149721000Y-142064000D01*
X149721000Y-142064000D02*
X149721000Y-141314000D01*
X149721000Y-141314000D02*
X151521000Y-141314000D01*
X140721000Y-141314000D02*
X140721000Y-142064000D01*
X140721000Y-142064000D02*
X138921000Y-142064000D01*
X138921000Y-142064000D02*
X138921000Y-141314000D01*
X138921000Y-141314000D02*
X140721000Y-141314000D01*
X151521000Y-143564000D02*
X150771000Y-143564000D01*
X150771000Y-143564000D02*
X150771000Y-144904000D01*
X145221000Y-146514000D02*
X149711000Y-146514000D01*
X138921000Y-143564000D02*
X139671000Y-143564000D01*
X139671000Y-143564000D02*
X139671000Y-146514000D01*
X139671000Y-146514000D02*
X145221000Y-146514000D01*
X150571000Y-141014000D02*
X151821000Y-141014000D01*
X151821000Y-141014000D02*
X151821000Y-142264000D01*
D11*
X134614800Y-101246000D02*
G75*
G03*
X134614800Y-101246000I-125000J0D01*
G01*
D12*
X133960200Y-93829600D02*
X129239800Y-93829600D01*
X133960200Y-105230200D02*
X133960200Y-93829600D01*
X129239800Y-105230200D02*
X133960200Y-105230200D01*
X129239800Y-93829600D02*
X129239800Y-105230200D01*
D10*
X181890936Y-131599000D02*
X182345064Y-131599000D01*
X181890936Y-133069000D02*
X182345064Y-133069000D01*
X181890936Y-128805000D02*
X182345064Y-128805000D01*
X181890936Y-130275000D02*
X182345064Y-130275000D01*
X178664000Y-137961000D02*
X175514000Y-137961000D01*
X178664000Y-139661000D02*
X175514000Y-139661000D01*
X178664000Y-137961000D02*
X178664000Y-139661000D01*
X174363748Y-123725000D02*
X174886252Y-123725000D01*
X174363748Y-125195000D02*
X174886252Y-125195000D01*
X174363748Y-117311500D02*
X174886252Y-117311500D01*
X174363748Y-118781500D02*
X174886252Y-118781500D01*
X174363748Y-119788000D02*
X174886252Y-119788000D01*
X174363748Y-121258000D02*
X174886252Y-121258000D01*
X174363748Y-134075500D02*
X174886252Y-134075500D01*
X174363748Y-135545500D02*
X174886252Y-135545500D01*
X174363748Y-127662000D02*
X174886252Y-127662000D01*
X174363748Y-129132000D02*
X174886252Y-129132000D01*
X182144936Y-115597000D02*
X182599064Y-115597000D01*
X182144936Y-117067000D02*
X182599064Y-117067000D01*
X182144936Y-113565000D02*
X182599064Y-113565000D01*
X182144936Y-115035000D02*
X182599064Y-115035000D01*
X182144936Y-111533000D02*
X182599064Y-111533000D01*
X182144936Y-113003000D02*
X182599064Y-113003000D01*
X182144936Y-109501000D02*
X182599064Y-109501000D01*
X182144936Y-110971000D02*
X182599064Y-110971000D01*
X190982000Y-130388000D02*
X190982000Y-152288000D01*
X183582000Y-132888000D02*
X184182000Y-132588000D01*
X184182000Y-132588000D02*
X183582000Y-132288000D01*
X183582000Y-132288000D02*
X183582000Y-132888000D01*
D12*
X184982000Y-130388000D02*
X195082000Y-130388000D01*
X195082000Y-130388000D02*
X195082000Y-152288000D01*
X195082000Y-152288000D02*
X184982000Y-152288000D01*
X184982000Y-152288000D02*
X184982000Y-151088000D01*
X184982000Y-130388000D02*
X184982000Y-131588000D01*
X184982000Y-133588000D02*
X184982000Y-134088000D01*
X184982000Y-136088000D02*
X184982000Y-136588000D01*
X184982000Y-138588000D02*
X184982000Y-139088000D01*
X184982000Y-141088000D02*
X184982000Y-141588000D01*
X184982000Y-143588000D02*
X184982000Y-144088000D01*
X184982000Y-146088000D02*
X184982000Y-146588000D01*
X184982000Y-148588000D02*
X184982000Y-149088000D01*
D10*
X190982000Y-108062000D02*
X190982000Y-129962000D01*
X183582000Y-110562000D02*
X184182000Y-110262000D01*
X184182000Y-110262000D02*
X183582000Y-109962000D01*
X183582000Y-109962000D02*
X183582000Y-110562000D01*
D12*
X184982000Y-108062000D02*
X195082000Y-108062000D01*
X195082000Y-108062000D02*
X195082000Y-129962000D01*
X195082000Y-129962000D02*
X184982000Y-129962000D01*
X184982000Y-129962000D02*
X184982000Y-128762000D01*
X184982000Y-108062000D02*
X184982000Y-109262000D01*
X184982000Y-111262000D02*
X184982000Y-111762000D01*
X184982000Y-113762000D02*
X184982000Y-114262000D01*
X184982000Y-116262000D02*
X184982000Y-116762000D01*
X184982000Y-118762000D02*
X184982000Y-119262000D01*
X184982000Y-121262000D02*
X184982000Y-121762000D01*
X184982000Y-123762000D02*
X184982000Y-124262000D01*
X184982000Y-126262000D02*
X184982000Y-126762000D01*
D10*
X109119000Y-154981000D02*
X109119000Y-133081000D01*
X116519000Y-152481000D02*
X115919000Y-152781000D01*
X115919000Y-152781000D02*
X116519000Y-153081000D01*
X116519000Y-153081000D02*
X116519000Y-152481000D01*
D12*
X115119000Y-154981000D02*
X105019000Y-154981000D01*
X105019000Y-154981000D02*
X105019000Y-133081000D01*
X105019000Y-133081000D02*
X115119000Y-133081000D01*
X115119000Y-133081000D02*
X115119000Y-134281000D01*
X115119000Y-154981000D02*
X115119000Y-153781000D01*
X115119000Y-151781000D02*
X115119000Y-151281000D01*
X115119000Y-149281000D02*
X115119000Y-148781000D01*
X115119000Y-146781000D02*
X115119000Y-146281000D01*
X115119000Y-144281000D02*
X115119000Y-143781000D01*
X115119000Y-141781000D02*
X115119000Y-141281000D01*
X115119000Y-139281000D02*
X115119000Y-138781000D01*
X115119000Y-136781000D02*
X115119000Y-136281000D01*
D10*
X140650000Y-100470000D02*
X137250000Y-100470000D01*
X142290000Y-100470000D02*
X141750000Y-100470000D01*
X135090000Y-103300000D02*
X135090000Y-103810000D01*
X135610000Y-103810000D02*
X135090000Y-103810000D01*
X135610000Y-103300000D02*
X135610000Y-103810000D01*
X136150000Y-100470000D02*
X135610000Y-100470000D01*
X142810000Y-103300000D02*
X142810000Y-103810000D01*
X142290000Y-103300000D02*
X142290000Y-103810000D01*
X135610000Y-100470000D02*
X135610000Y-100700000D01*
X142810000Y-96800000D02*
X142810000Y-100700000D01*
X142810000Y-103810000D02*
X142290000Y-103810000D01*
X135090000Y-96800000D02*
X135090000Y-100700000D01*
X142810000Y-96800000D02*
X135090000Y-96800000D01*
X142290000Y-100470000D02*
X142290000Y-100700000D01*
X179918000Y-123179000D02*
X179918000Y-126129000D01*
X176698000Y-124979000D02*
X176698000Y-123179000D01*
X179791000Y-142991000D02*
X179791000Y-145941000D01*
X176571000Y-144791000D02*
X176571000Y-142991000D01*
X180045000Y-134101000D02*
X180045000Y-137051000D01*
X176825000Y-135901000D02*
X176825000Y-134101000D01*
X180299000Y-112638000D02*
X180299000Y-115588000D01*
X177079000Y-114438000D02*
X177079000Y-112638000D01*
X125816000Y-130498000D02*
X125816000Y-133448000D01*
X122596000Y-132298000D02*
X122596000Y-130498000D01*
X181890936Y-126392000D02*
X182345064Y-126392000D01*
X181890936Y-127862000D02*
X182345064Y-127862000D01*
X181890936Y-123852000D02*
X182345064Y-123852000D01*
X181890936Y-125322000D02*
X182345064Y-125322000D01*
X181890936Y-121883500D02*
X182345064Y-121883500D01*
X181890936Y-123353500D02*
X182345064Y-123353500D01*
X181890936Y-119089500D02*
X182345064Y-119089500D01*
X181890936Y-120559500D02*
X182345064Y-120559500D01*
X181763936Y-146204000D02*
X182218064Y-146204000D01*
X181763936Y-147674000D02*
X182218064Y-147674000D01*
X181763936Y-144172000D02*
X182218064Y-144172000D01*
X181763936Y-145642000D02*
X182218064Y-145642000D01*
X181763936Y-142140000D02*
X182218064Y-142140000D01*
X181763936Y-143610000D02*
X182218064Y-143610000D01*
X181763936Y-140108000D02*
X182218064Y-140108000D01*
X181763936Y-141578000D02*
X182218064Y-141578000D01*
X181890936Y-138203000D02*
X182345064Y-138203000D01*
X181890936Y-139673000D02*
X182345064Y-139673000D01*
X181890936Y-134901000D02*
X182345064Y-134901000D01*
X181890936Y-136371000D02*
X182345064Y-136371000D01*
X139202936Y-130837000D02*
X139657064Y-130837000D01*
X139202936Y-132307000D02*
X139657064Y-132307000D01*
X139218936Y-128805000D02*
X139673064Y-128805000D01*
X139218936Y-130275000D02*
X139673064Y-130275000D01*
X128606000Y-125477000D02*
X121706000Y-125477000D01*
X128606000Y-128777000D02*
X121706000Y-128777000D01*
X128606000Y-125477000D02*
X128606000Y-128777000D01*
X174363748Y-125693500D02*
X174886252Y-125693500D01*
X174363748Y-127163500D02*
X174886252Y-127163500D01*
X174363748Y-121756500D02*
X174886252Y-121756500D01*
X174363748Y-123226500D02*
X174886252Y-123226500D01*
X164838748Y-139028500D02*
X165361252Y-139028500D01*
X164838748Y-140498500D02*
X165361252Y-140498500D01*
X164838748Y-136996500D02*
X165361252Y-136996500D01*
X164838748Y-138466500D02*
X165361252Y-138466500D01*
X164838748Y-134964500D02*
X165361252Y-134964500D01*
X164838748Y-136434500D02*
X165361252Y-136434500D01*
X164838748Y-132869000D02*
X165361252Y-132869000D01*
X164838748Y-134339000D02*
X165361252Y-134339000D01*
X174363748Y-132107000D02*
X174886252Y-132107000D01*
X174363748Y-133577000D02*
X174886252Y-133577000D01*
X174363748Y-129630500D02*
X174886252Y-129630500D01*
X174363748Y-131100500D02*
X174886252Y-131100500D01*
X174363748Y-115343000D02*
X174886252Y-115343000D01*
X174363748Y-116813000D02*
X174886252Y-116813000D01*
X174363748Y-113374500D02*
X174886252Y-113374500D01*
X174363748Y-114844500D02*
X174886252Y-114844500D01*
X174363748Y-111406000D02*
X174886252Y-111406000D01*
X174363748Y-112876000D02*
X174886252Y-112876000D01*
X137568000Y-126880252D02*
X137568000Y-126357748D01*
X139038000Y-126880252D02*
X139038000Y-126357748D01*
X139552000Y-126695252D02*
X139552000Y-125272748D01*
X141372000Y-126695252D02*
X141372000Y-125272748D01*
X127862000Y-131056748D02*
X127862000Y-131579252D01*
X126392000Y-131056748D02*
X126392000Y-131579252D01*
X125145748Y-123169000D02*
X126568252Y-123169000D01*
X125145748Y-124989000D02*
X126568252Y-124989000D01*
X171090000Y-113207748D02*
X171090000Y-114630252D01*
X169270000Y-113207748D02*
X169270000Y-114630252D01*
X168937000Y-109735252D02*
X168937000Y-109212748D01*
X170407000Y-109735252D02*
X170407000Y-109212748D01*
D12*
X144533904Y-106211714D02*
X144533904Y-106878380D01*
X144962476Y-106211714D02*
X144962476Y-106735523D01*
X144914857Y-106830761D01*
X144819619Y-106878380D01*
X144676761Y-106878380D01*
X144581523Y-106830761D01*
X144533904Y-106783142D01*
X143533904Y-106878380D02*
X144105333Y-106878380D01*
X143819619Y-106878380D02*
X143819619Y-105878380D01*
X143914857Y-106021238D01*
X144010095Y-106116476D01*
X144105333Y-106164095D01*
X130920571Y-117673380D02*
X130920571Y-116673380D01*
X130492000Y-117625761D02*
X130349142Y-117673380D01*
X130111047Y-117673380D01*
X130015809Y-117625761D01*
X129968190Y-117578142D01*
X129920571Y-117482904D01*
X129920571Y-117387666D01*
X129968190Y-117292428D01*
X130015809Y-117244809D01*
X130111047Y-117197190D01*
X130301523Y-117149571D01*
X130396761Y-117101952D01*
X130444380Y-117054333D01*
X130492000Y-116959095D01*
X130492000Y-116863857D01*
X130444380Y-116768619D01*
X130396761Y-116721000D01*
X130301523Y-116673380D01*
X130063428Y-116673380D01*
X129920571Y-116721000D01*
X129301523Y-116673380D02*
X129111047Y-116673380D01*
X129015809Y-116721000D01*
X128920571Y-116816238D01*
X128872952Y-117006714D01*
X128872952Y-117340047D01*
X128920571Y-117530523D01*
X129015809Y-117625761D01*
X129111047Y-117673380D01*
X129301523Y-117673380D01*
X129396761Y-117625761D01*
X129492000Y-117530523D01*
X129539619Y-117340047D01*
X129539619Y-117006714D01*
X129492000Y-116816238D01*
X129396761Y-116721000D01*
X129301523Y-116673380D01*
X127920571Y-117673380D02*
X128492000Y-117673380D01*
X128206285Y-117673380D02*
X128206285Y-116673380D01*
X128301523Y-116816238D01*
X128396761Y-116911476D01*
X128492000Y-116959095D01*
X127301523Y-116673380D02*
X127206285Y-116673380D01*
X127111047Y-116721000D01*
X127063428Y-116768619D01*
X127015809Y-116863857D01*
X126968190Y-117054333D01*
X126968190Y-117292428D01*
X127015809Y-117482904D01*
X127063428Y-117578142D01*
X127111047Y-117625761D01*
X127206285Y-117673380D01*
X127301523Y-117673380D01*
X127396761Y-117625761D01*
X127444380Y-117578142D01*
X127492000Y-117482904D01*
X127539619Y-117292428D01*
X127539619Y-117054333D01*
X127492000Y-116863857D01*
X127444380Y-116768619D01*
X127396761Y-116721000D01*
X127301523Y-116673380D01*
X126063428Y-116673380D02*
X126539619Y-116673380D01*
X126587238Y-117149571D01*
X126539619Y-117101952D01*
X126444380Y-117054333D01*
X126206285Y-117054333D01*
X126111047Y-117101952D01*
X126063428Y-117149571D01*
X126015809Y-117244809D01*
X126015809Y-117482904D01*
X126063428Y-117578142D01*
X126111047Y-117625761D01*
X126206285Y-117673380D01*
X126444380Y-117673380D01*
X126539619Y-117625761D01*
X126587238Y-117578142D01*
X125396761Y-116673380D02*
X125301523Y-116673380D01*
X125206285Y-116721000D01*
X125158666Y-116768619D01*
X125111047Y-116863857D01*
X125063428Y-117054333D01*
X125063428Y-117292428D01*
X125111047Y-117482904D01*
X125158666Y-117578142D01*
X125206285Y-117625761D01*
X125301523Y-117673380D01*
X125396761Y-117673380D01*
X125492000Y-117625761D01*
X125539619Y-117578142D01*
X125587238Y-117482904D01*
X125634857Y-117292428D01*
X125634857Y-117054333D01*
X125587238Y-116863857D01*
X125539619Y-116768619D01*
X125492000Y-116721000D01*
X125396761Y-116673380D01*
X124634857Y-117673380D02*
X124634857Y-116673380D01*
X124396761Y-116673380D01*
X124253904Y-116721000D01*
X124158666Y-116816238D01*
X124111047Y-116911476D01*
X124063428Y-117101952D01*
X124063428Y-117244809D01*
X124111047Y-117435285D01*
X124158666Y-117530523D01*
X124253904Y-117625761D01*
X124396761Y-117673380D01*
X124634857Y-117673380D01*
X123634857Y-116673380D02*
X123634857Y-117482904D01*
X123587238Y-117578142D01*
X123539619Y-117625761D01*
X123444380Y-117673380D01*
X123253904Y-117673380D01*
X123158666Y-117625761D01*
X123111047Y-117578142D01*
X123063428Y-117482904D01*
X123063428Y-116673380D01*
X122253904Y-117149571D02*
X122111047Y-117197190D01*
X122063428Y-117244809D01*
X122015809Y-117340047D01*
X122015809Y-117482904D01*
X122063428Y-117578142D01*
X122111047Y-117625761D01*
X122206285Y-117673380D01*
X122587238Y-117673380D01*
X122587238Y-116673380D01*
X122253904Y-116673380D01*
X122158666Y-116721000D01*
X122111047Y-116768619D01*
X122063428Y-116863857D01*
X122063428Y-116959095D01*
X122111047Y-117054333D01*
X122158666Y-117101952D01*
X122253904Y-117149571D01*
X122587238Y-117149571D01*
X134230904Y-133188380D02*
X133611857Y-133188380D01*
X133945190Y-133569333D01*
X133802333Y-133569333D01*
X133707095Y-133616952D01*
X133659476Y-133664571D01*
X133611857Y-133759809D01*
X133611857Y-133997904D01*
X133659476Y-134093142D01*
X133707095Y-134140761D01*
X133802333Y-134188380D01*
X134088047Y-134188380D01*
X134183285Y-134140761D01*
X134230904Y-134093142D01*
X133278523Y-133188380D02*
X132659476Y-133188380D01*
X132992809Y-133569333D01*
X132849952Y-133569333D01*
X132754714Y-133616952D01*
X132707095Y-133664571D01*
X132659476Y-133759809D01*
X132659476Y-133997904D01*
X132707095Y-134093142D01*
X132754714Y-134140761D01*
X132849952Y-134188380D01*
X133135666Y-134188380D01*
X133230904Y-134140761D01*
X133278523Y-134093142D01*
X131802333Y-133521714D02*
X131802333Y-134188380D01*
X132230904Y-133521714D02*
X132230904Y-134045523D01*
X132183285Y-134140761D01*
X132088047Y-134188380D01*
X131945190Y-134188380D01*
X131849952Y-134140761D01*
X131802333Y-134093142D01*
X122229476Y-109132714D02*
X122229476Y-109799380D01*
X122467571Y-108751761D02*
X122705666Y-109466047D01*
X122086619Y-109466047D01*
X121705666Y-109799380D02*
X121705666Y-108799380D01*
X121610428Y-109418428D02*
X121324714Y-109799380D01*
X121324714Y-109132714D02*
X121705666Y-109513666D01*
X120991380Y-108799380D02*
X120324714Y-108799380D01*
X120753285Y-109799380D01*
X122229476Y-110656714D02*
X122229476Y-111323380D01*
X122467571Y-110275761D02*
X122705666Y-110990047D01*
X122086619Y-110990047D01*
X121705666Y-111323380D02*
X121705666Y-110323380D01*
X121610428Y-110942428D02*
X121324714Y-111323380D01*
X121324714Y-110656714D02*
X121705666Y-111037666D01*
X120991380Y-110323380D02*
X120324714Y-110323380D01*
X120753285Y-111323380D01*
X165658619Y-129127571D02*
X165325285Y-129127571D01*
X165182428Y-129651380D02*
X165658619Y-129651380D01*
X165658619Y-128651380D01*
X165182428Y-128651380D01*
X164801476Y-129603761D02*
X164658619Y-129651380D01*
X164420523Y-129651380D01*
X164325285Y-129603761D01*
X164277666Y-129556142D01*
X164230047Y-129460904D01*
X164230047Y-129365666D01*
X164277666Y-129270428D01*
X164325285Y-129222809D01*
X164420523Y-129175190D01*
X164611000Y-129127571D01*
X164706238Y-129079952D01*
X164753857Y-129032333D01*
X164801476Y-128937095D01*
X164801476Y-128841857D01*
X164753857Y-128746619D01*
X164706238Y-128699000D01*
X164611000Y-128651380D01*
X164372904Y-128651380D01*
X164230047Y-128699000D01*
X163801476Y-129651380D02*
X163801476Y-128651380D01*
X163420523Y-128651380D01*
X163325285Y-128699000D01*
X163277666Y-128746619D01*
X163230047Y-128841857D01*
X163230047Y-128984714D01*
X163277666Y-129079952D01*
X163325285Y-129127571D01*
X163420523Y-129175190D01*
X163801476Y-129175190D01*
X162896714Y-128651380D02*
X162277666Y-128651380D01*
X162611000Y-129032333D01*
X162468142Y-129032333D01*
X162372904Y-129079952D01*
X162325285Y-129127571D01*
X162277666Y-129222809D01*
X162277666Y-129460904D01*
X162325285Y-129556142D01*
X162372904Y-129603761D01*
X162468142Y-129651380D01*
X162753857Y-129651380D01*
X162849095Y-129603761D01*
X162896714Y-129556142D01*
X161896714Y-128746619D02*
X161849095Y-128699000D01*
X161753857Y-128651380D01*
X161515761Y-128651380D01*
X161420523Y-128699000D01*
X161372904Y-128746619D01*
X161325285Y-128841857D01*
X161325285Y-128937095D01*
X161372904Y-129079952D01*
X161944333Y-129651380D01*
X161325285Y-129651380D01*
X160896714Y-129270428D02*
X160134809Y-129270428D01*
X159753857Y-128651380D02*
X159515761Y-129651380D01*
X159325285Y-128937095D01*
X159134809Y-129651380D01*
X158896714Y-128651380D01*
X157944333Y-129651380D02*
X158277666Y-129175190D01*
X158515761Y-129651380D02*
X158515761Y-128651380D01*
X158134809Y-128651380D01*
X158039571Y-128699000D01*
X157991952Y-128746619D01*
X157944333Y-128841857D01*
X157944333Y-128984714D01*
X157991952Y-129079952D01*
X158039571Y-129127571D01*
X158134809Y-129175190D01*
X158515761Y-129175190D01*
X157325285Y-128651380D02*
X157134809Y-128651380D01*
X157039571Y-128699000D01*
X156944333Y-128794238D01*
X156896714Y-128984714D01*
X156896714Y-129318047D01*
X156944333Y-129508523D01*
X157039571Y-129603761D01*
X157134809Y-129651380D01*
X157325285Y-129651380D01*
X157420523Y-129603761D01*
X157515761Y-129508523D01*
X157563380Y-129318047D01*
X157563380Y-128984714D01*
X157515761Y-128794238D01*
X157420523Y-128699000D01*
X157325285Y-128651380D01*
X156277666Y-128651380D02*
X156087190Y-128651380D01*
X155991952Y-128699000D01*
X155896714Y-128794238D01*
X155849095Y-128984714D01*
X155849095Y-129318047D01*
X155896714Y-129508523D01*
X155991952Y-129603761D01*
X156087190Y-129651380D01*
X156277666Y-129651380D01*
X156372904Y-129603761D01*
X156468142Y-129508523D01*
X156515761Y-129318047D01*
X156515761Y-128984714D01*
X156468142Y-128794238D01*
X156372904Y-128699000D01*
X156277666Y-128651380D01*
X155420523Y-129651380D02*
X155420523Y-128651380D01*
X155087190Y-129365666D01*
X154753857Y-128651380D01*
X154753857Y-129651380D01*
X154277666Y-129270428D02*
X153515761Y-129270428D01*
X153134809Y-128651380D02*
X152515761Y-128651380D01*
X152849095Y-129032333D01*
X152706238Y-129032333D01*
X152611000Y-129079952D01*
X152563380Y-129127571D01*
X152515761Y-129222809D01*
X152515761Y-129460904D01*
X152563380Y-129556142D01*
X152611000Y-129603761D01*
X152706238Y-129651380D01*
X152991952Y-129651380D01*
X153087190Y-129603761D01*
X153134809Y-129556142D01*
X152134809Y-128746619D02*
X152087190Y-128699000D01*
X151991952Y-128651380D01*
X151753857Y-128651380D01*
X151658619Y-128699000D01*
X151611000Y-128746619D01*
X151563380Y-128841857D01*
X151563380Y-128937095D01*
X151611000Y-129079952D01*
X152182428Y-129651380D01*
X151563380Y-129651380D01*
X151134809Y-128651380D02*
X151134809Y-129460904D01*
X151087190Y-129556142D01*
X151039571Y-129603761D01*
X150944333Y-129651380D01*
X150753857Y-129651380D01*
X150658619Y-129603761D01*
X150611000Y-129556142D01*
X150563380Y-129460904D01*
X150563380Y-128651380D01*
X141573047Y-112720380D02*
X141573047Y-112053714D01*
X141573047Y-111720380D02*
X141620666Y-111768000D01*
X141573047Y-111815619D01*
X141525428Y-111768000D01*
X141573047Y-111720380D01*
X141573047Y-111815619D01*
X141144476Y-112672761D02*
X141049238Y-112720380D01*
X140858761Y-112720380D01*
X140763523Y-112672761D01*
X140715904Y-112577523D01*
X140715904Y-112529904D01*
X140763523Y-112434666D01*
X140858761Y-112387047D01*
X141001619Y-112387047D01*
X141096857Y-112339428D01*
X141144476Y-112244190D01*
X141144476Y-112196571D01*
X141096857Y-112101333D01*
X141001619Y-112053714D01*
X140858761Y-112053714D01*
X140763523Y-112101333D01*
X140287333Y-112720380D02*
X140287333Y-111720380D01*
X139858761Y-111815619D02*
X139811142Y-111768000D01*
X139715904Y-111720380D01*
X139477809Y-111720380D01*
X139382571Y-111768000D01*
X139334952Y-111815619D01*
X139287333Y-111910857D01*
X139287333Y-112006095D01*
X139334952Y-112148952D01*
X139906380Y-112720380D01*
X139287333Y-112720380D01*
X138287333Y-112625142D02*
X138334952Y-112672761D01*
X138477809Y-112720380D01*
X138573047Y-112720380D01*
X138715904Y-112672761D01*
X138811142Y-112577523D01*
X138858761Y-112482285D01*
X138906380Y-112291809D01*
X138906380Y-112148952D01*
X138858761Y-111958476D01*
X138811142Y-111863238D01*
X138715904Y-111768000D01*
X138573047Y-111720380D01*
X138477809Y-111720380D01*
X138334952Y-111768000D01*
X138287333Y-111815619D01*
X141573047Y-110180380D02*
X141573047Y-109513714D01*
X141573047Y-109180380D02*
X141620666Y-109228000D01*
X141573047Y-109275619D01*
X141525428Y-109228000D01*
X141573047Y-109180380D01*
X141573047Y-109275619D01*
X141144476Y-110132761D02*
X141049238Y-110180380D01*
X140858761Y-110180380D01*
X140763523Y-110132761D01*
X140715904Y-110037523D01*
X140715904Y-109989904D01*
X140763523Y-109894666D01*
X140858761Y-109847047D01*
X141001619Y-109847047D01*
X141096857Y-109799428D01*
X141144476Y-109704190D01*
X141144476Y-109656571D01*
X141096857Y-109561333D01*
X141001619Y-109513714D01*
X140858761Y-109513714D01*
X140763523Y-109561333D01*
X140287333Y-110180380D02*
X140287333Y-109180380D01*
X139858761Y-109275619D02*
X139811142Y-109228000D01*
X139715904Y-109180380D01*
X139477809Y-109180380D01*
X139382571Y-109228000D01*
X139334952Y-109275619D01*
X139287333Y-109370857D01*
X139287333Y-109466095D01*
X139334952Y-109608952D01*
X139906380Y-110180380D01*
X139287333Y-110180380D01*
X138287333Y-110085142D02*
X138334952Y-110132761D01*
X138477809Y-110180380D01*
X138573047Y-110180380D01*
X138715904Y-110132761D01*
X138811142Y-110037523D01*
X138858761Y-109942285D01*
X138906380Y-109751809D01*
X138906380Y-109608952D01*
X138858761Y-109418476D01*
X138811142Y-109323238D01*
X138715904Y-109228000D01*
X138573047Y-109180380D01*
X138477809Y-109180380D01*
X138334952Y-109228000D01*
X138287333Y-109275619D01*
X142731952Y-118816380D02*
X142731952Y-117816380D01*
X142255761Y-118816380D02*
X142255761Y-117816380D01*
X141684333Y-118816380D01*
X141684333Y-117816380D01*
X141351000Y-117816380D02*
X140779571Y-117816380D01*
X141065285Y-118816380D02*
X141065285Y-117816380D01*
X140493857Y-117911619D02*
X140446238Y-117864000D01*
X140351000Y-117816380D01*
X140112904Y-117816380D01*
X140017666Y-117864000D01*
X139970047Y-117911619D01*
X139922428Y-118006857D01*
X139922428Y-118102095D01*
X139970047Y-118244952D01*
X140541476Y-118816380D01*
X139922428Y-118816380D01*
X142731952Y-122499380D02*
X142731952Y-121499380D01*
X142255761Y-122499380D02*
X142255761Y-121499380D01*
X141684333Y-122499380D01*
X141684333Y-121499380D01*
X141351000Y-121499380D02*
X140779571Y-121499380D01*
X141065285Y-122499380D02*
X141065285Y-121499380D01*
X139922428Y-122499380D02*
X140493857Y-122499380D01*
X140208142Y-122499380D02*
X140208142Y-121499380D01*
X140303380Y-121642238D01*
X140398619Y-121737476D01*
X140493857Y-121785095D01*
X140826952Y-105100380D02*
X140826952Y-104100380D01*
X140350761Y-105100380D02*
X140350761Y-104100380D01*
X139779333Y-105100380D01*
X139779333Y-104100380D01*
X139446000Y-104100380D02*
X138874571Y-104100380D01*
X139160285Y-105100380D02*
X139160285Y-104100380D01*
X138350761Y-104100380D02*
X138255523Y-104100380D01*
X138160285Y-104148000D01*
X138112666Y-104195619D01*
X138065047Y-104290857D01*
X138017428Y-104481333D01*
X138017428Y-104719428D01*
X138065047Y-104909904D01*
X138112666Y-105005142D01*
X138160285Y-105052761D01*
X138255523Y-105100380D01*
X138350761Y-105100380D01*
X138446000Y-105052761D01*
X138493619Y-105005142D01*
X138541238Y-104909904D01*
X138588857Y-104719428D01*
X138588857Y-104481333D01*
X138541238Y-104290857D01*
X138493619Y-104195619D01*
X138446000Y-104148000D01*
X138350761Y-104100380D01*
X126753857Y-112593380D02*
X127325285Y-112593380D01*
X127039571Y-112593380D02*
X127039571Y-111593380D01*
X127134809Y-111736238D01*
X127230047Y-111831476D01*
X127325285Y-111879095D01*
X126134809Y-111593380D02*
X126039571Y-111593380D01*
X125944333Y-111641000D01*
X125896714Y-111688619D01*
X125849095Y-111783857D01*
X125801476Y-111974333D01*
X125801476Y-112212428D01*
X125849095Y-112402904D01*
X125896714Y-112498142D01*
X125944333Y-112545761D01*
X126039571Y-112593380D01*
X126134809Y-112593380D01*
X126230047Y-112545761D01*
X126277666Y-112498142D01*
X126325285Y-112402904D01*
X126372904Y-112212428D01*
X126372904Y-111974333D01*
X126325285Y-111783857D01*
X126277666Y-111688619D01*
X126230047Y-111641000D01*
X126134809Y-111593380D01*
X124944333Y-111926714D02*
X124944333Y-112593380D01*
X125372904Y-111926714D02*
X125372904Y-112450523D01*
X125325285Y-112545761D01*
X125230047Y-112593380D01*
X125087190Y-112593380D01*
X124991952Y-112545761D01*
X124944333Y-112498142D01*
X147327714Y-118855380D02*
X147327714Y-117855380D01*
X146946761Y-117855380D01*
X146851523Y-117903000D01*
X146803904Y-117950619D01*
X146756285Y-118045857D01*
X146756285Y-118188714D01*
X146803904Y-118283952D01*
X146851523Y-118331571D01*
X146946761Y-118379190D01*
X147327714Y-118379190D01*
X145756285Y-118855380D02*
X146089619Y-118379190D01*
X146327714Y-118855380D02*
X146327714Y-117855380D01*
X145946761Y-117855380D01*
X145851523Y-117903000D01*
X145803904Y-117950619D01*
X145756285Y-118045857D01*
X145756285Y-118188714D01*
X145803904Y-118283952D01*
X145851523Y-118331571D01*
X145946761Y-118379190D01*
X146327714Y-118379190D01*
X145137238Y-117855380D02*
X144946761Y-117855380D01*
X144851523Y-117903000D01*
X144756285Y-117998238D01*
X144708666Y-118188714D01*
X144708666Y-118522047D01*
X144756285Y-118712523D01*
X144851523Y-118807761D01*
X144946761Y-118855380D01*
X145137238Y-118855380D01*
X145232476Y-118807761D01*
X145327714Y-118712523D01*
X145375333Y-118522047D01*
X145375333Y-118188714D01*
X145327714Y-117998238D01*
X145232476Y-117903000D01*
X145137238Y-117855380D01*
X143756285Y-117903000D02*
X143851523Y-117855380D01*
X143994380Y-117855380D01*
X144137238Y-117903000D01*
X144232476Y-117998238D01*
X144280095Y-118093476D01*
X144327714Y-118283952D01*
X144327714Y-118426809D01*
X144280095Y-118617285D01*
X144232476Y-118712523D01*
X144137238Y-118807761D01*
X143994380Y-118855380D01*
X143899142Y-118855380D01*
X143756285Y-118807761D01*
X143708666Y-118760142D01*
X143708666Y-118426809D01*
X143899142Y-118426809D01*
D11*
X152232428Y-140731761D02*
X152946714Y-140731761D01*
X152946714Y-138731761D01*
X151732428Y-139969857D02*
X150589571Y-139969857D01*
X148018142Y-140731761D02*
X148732428Y-140731761D01*
X148732428Y-138731761D01*
X147518142Y-139969857D02*
X146375285Y-139969857D01*
X146946714Y-140731761D02*
X146946714Y-139207952D01*
X143661000Y-140731761D02*
X144161000Y-139779380D01*
X144518142Y-140731761D02*
X144518142Y-138731761D01*
X143946714Y-138731761D01*
X143803857Y-138827000D01*
X143732428Y-138922238D01*
X143661000Y-139112714D01*
X143661000Y-139398428D01*
X143732428Y-139588904D01*
X143803857Y-139684142D01*
X143946714Y-139779380D01*
X144518142Y-139779380D01*
X143018142Y-139969857D02*
X141875285Y-139969857D01*
X139161000Y-140731761D02*
X139661000Y-139779380D01*
X140018142Y-140731761D02*
X140018142Y-138731761D01*
X139446714Y-138731761D01*
X139303857Y-138827000D01*
X139232428Y-138922238D01*
X139161000Y-139112714D01*
X139161000Y-139398428D01*
X139232428Y-139588904D01*
X139303857Y-139684142D01*
X139446714Y-139779380D01*
X140018142Y-139779380D01*
X138518142Y-139969857D02*
X137375285Y-139969857D01*
X137946714Y-140731761D02*
X137946714Y-139207952D01*
D12*
X177425904Y-140163380D02*
X176806857Y-140163380D01*
X177140190Y-140544333D01*
X176997333Y-140544333D01*
X176902095Y-140591952D01*
X176854476Y-140639571D01*
X176806857Y-140734809D01*
X176806857Y-140972904D01*
X176854476Y-141068142D01*
X176902095Y-141115761D01*
X176997333Y-141163380D01*
X177283047Y-141163380D01*
X177378285Y-141115761D01*
X177425904Y-141068142D01*
X176521142Y-140163380D02*
X176187809Y-141163380D01*
X175854476Y-140163380D01*
X183062476Y-109038380D02*
X183633904Y-109038380D01*
X183348190Y-109038380D02*
X183348190Y-108038380D01*
X183443428Y-108181238D01*
X183538666Y-108276476D01*
X183633904Y-108324095D01*
X182443428Y-108038380D02*
X182348190Y-108038380D01*
X182252952Y-108086000D01*
X182205333Y-108133619D01*
X182157714Y-108228857D01*
X182110095Y-108419333D01*
X182110095Y-108657428D01*
X182157714Y-108847904D01*
X182205333Y-108943142D01*
X182252952Y-108990761D01*
X182348190Y-109038380D01*
X182443428Y-109038380D01*
X182538666Y-108990761D01*
X182586285Y-108943142D01*
X182633904Y-108847904D01*
X182681523Y-108657428D01*
X182681523Y-108419333D01*
X182633904Y-108228857D01*
X182586285Y-108133619D01*
X182538666Y-108086000D01*
X182443428Y-108038380D01*
X181110095Y-109038380D02*
X181443428Y-108562190D01*
X181681523Y-109038380D02*
X181681523Y-108038380D01*
X181300571Y-108038380D01*
X181205333Y-108086000D01*
X181157714Y-108133619D01*
X181110095Y-108228857D01*
X181110095Y-108371714D01*
X181157714Y-108466952D01*
X181205333Y-108514571D01*
X181300571Y-108562190D01*
X181681523Y-108562190D01*
X192222380Y-138779571D02*
X191222380Y-138779571D01*
X191222380Y-139446238D02*
X191222380Y-139636714D01*
X191270000Y-139731952D01*
X191365238Y-139827190D01*
X191555714Y-139874809D01*
X191889047Y-139874809D01*
X192079523Y-139827190D01*
X192174761Y-139731952D01*
X192222380Y-139636714D01*
X192222380Y-139446238D01*
X192174761Y-139351000D01*
X192079523Y-139255761D01*
X191889047Y-139208142D01*
X191555714Y-139208142D01*
X191365238Y-139255761D01*
X191270000Y-139351000D01*
X191222380Y-139446238D01*
X191650952Y-140446238D02*
X191603333Y-140351000D01*
X191555714Y-140303380D01*
X191460476Y-140255761D01*
X191412857Y-140255761D01*
X191317619Y-140303380D01*
X191270000Y-140351000D01*
X191222380Y-140446238D01*
X191222380Y-140636714D01*
X191270000Y-140731952D01*
X191317619Y-140779571D01*
X191412857Y-140827190D01*
X191460476Y-140827190D01*
X191555714Y-140779571D01*
X191603333Y-140731952D01*
X191650952Y-140636714D01*
X191650952Y-140446238D01*
X191698571Y-140351000D01*
X191746190Y-140303380D01*
X191841428Y-140255761D01*
X192031904Y-140255761D01*
X192127142Y-140303380D01*
X192174761Y-140351000D01*
X192222380Y-140446238D01*
X192222380Y-140636714D01*
X192174761Y-140731952D01*
X192127142Y-140779571D01*
X192031904Y-140827190D01*
X191841428Y-140827190D01*
X191746190Y-140779571D01*
X191698571Y-140731952D01*
X191650952Y-140636714D01*
X191841428Y-141255761D02*
X191841428Y-142017666D01*
X192222380Y-143017666D02*
X192222380Y-142446238D01*
X192222380Y-142731952D02*
X191222380Y-142731952D01*
X191365238Y-142636714D01*
X191460476Y-142541476D01*
X191508095Y-142446238D01*
X191222380Y-143922428D02*
X191222380Y-143446238D01*
X191698571Y-143398619D01*
X191650952Y-143446238D01*
X191603333Y-143541476D01*
X191603333Y-143779571D01*
X191650952Y-143874809D01*
X191698571Y-143922428D01*
X191793809Y-143970047D01*
X192031904Y-143970047D01*
X192127142Y-143922428D01*
X192174761Y-143874809D01*
X192222380Y-143779571D01*
X192222380Y-143541476D01*
X192174761Y-143446238D01*
X192127142Y-143398619D01*
X192349380Y-114062476D02*
X191349380Y-114062476D01*
X192349380Y-114538666D02*
X191349380Y-114538666D01*
X192349380Y-115110095D01*
X191349380Y-115110095D01*
X191349380Y-115776761D02*
X191349380Y-115872000D01*
X191397000Y-115967238D01*
X191444619Y-116014857D01*
X191539857Y-116062476D01*
X191730333Y-116110095D01*
X191968428Y-116110095D01*
X192158904Y-116062476D01*
X192254142Y-116014857D01*
X192301761Y-115967238D01*
X192349380Y-115872000D01*
X192349380Y-115776761D01*
X192301761Y-115681523D01*
X192254142Y-115633904D01*
X192158904Y-115586285D01*
X191968428Y-115538666D01*
X191730333Y-115538666D01*
X191539857Y-115586285D01*
X191444619Y-115633904D01*
X191397000Y-115681523D01*
X191349380Y-115776761D01*
X191968428Y-116538666D02*
X191968428Y-117300571D01*
X191349380Y-117681523D02*
X191349380Y-118300571D01*
X191730333Y-117967238D01*
X191730333Y-118110095D01*
X191777952Y-118205333D01*
X191825571Y-118252952D01*
X191920809Y-118300571D01*
X192158904Y-118300571D01*
X192254142Y-118252952D01*
X192301761Y-118205333D01*
X192349380Y-118110095D01*
X192349380Y-117824380D01*
X192301761Y-117729142D01*
X192254142Y-117681523D01*
X192349380Y-119491047D02*
X191349380Y-119491047D01*
X191349380Y-120157714D02*
X191349380Y-120348190D01*
X191397000Y-120443428D01*
X191492238Y-120538666D01*
X191682714Y-120586285D01*
X192016047Y-120586285D01*
X192206523Y-120538666D01*
X192301761Y-120443428D01*
X192349380Y-120348190D01*
X192349380Y-120157714D01*
X192301761Y-120062476D01*
X192206523Y-119967238D01*
X192016047Y-119919619D01*
X191682714Y-119919619D01*
X191492238Y-119967238D01*
X191397000Y-120062476D01*
X191349380Y-120157714D01*
X191682714Y-121443428D02*
X192349380Y-121443428D01*
X191301761Y-121205333D02*
X192016047Y-120967238D01*
X192016047Y-121586285D01*
X191968428Y-121967238D02*
X191968428Y-122729142D01*
X191349380Y-123110095D02*
X191349380Y-123776761D01*
X192349380Y-123348190D01*
X140307142Y-102807571D02*
X140164285Y-102855190D01*
X140116666Y-102902809D01*
X140069047Y-102998047D01*
X140069047Y-103140904D01*
X140116666Y-103236142D01*
X140164285Y-103283761D01*
X140259523Y-103331380D01*
X140640476Y-103331380D01*
X140640476Y-102331380D01*
X140307142Y-102331380D01*
X140211904Y-102379000D01*
X140164285Y-102426619D01*
X140116666Y-102521857D01*
X140116666Y-102617095D01*
X140164285Y-102712333D01*
X140211904Y-102759952D01*
X140307142Y-102807571D01*
X140640476Y-102807571D01*
X139450000Y-102331380D02*
X139259523Y-102331380D01*
X139164285Y-102379000D01*
X139069047Y-102474238D01*
X139021428Y-102664714D01*
X139021428Y-102998047D01*
X139069047Y-103188523D01*
X139164285Y-103283761D01*
X139259523Y-103331380D01*
X139450000Y-103331380D01*
X139545238Y-103283761D01*
X139640476Y-103188523D01*
X139688095Y-102998047D01*
X139688095Y-102664714D01*
X139640476Y-102474238D01*
X139545238Y-102379000D01*
X139450000Y-102331380D01*
X138402380Y-102331380D02*
X138211904Y-102331380D01*
X138116666Y-102379000D01*
X138021428Y-102474238D01*
X137973809Y-102664714D01*
X137973809Y-102998047D01*
X138021428Y-103188523D01*
X138116666Y-103283761D01*
X138211904Y-103331380D01*
X138402380Y-103331380D01*
X138497619Y-103283761D01*
X138592857Y-103188523D01*
X138640476Y-102998047D01*
X138640476Y-102664714D01*
X138592857Y-102474238D01*
X138497619Y-102379000D01*
X138402380Y-102331380D01*
X137688095Y-102331380D02*
X137116666Y-102331380D01*
X137402380Y-103331380D02*
X137402380Y-102331380D01*
X175685761Y-141724333D02*
X175733380Y-141867190D01*
X175733380Y-142105285D01*
X175685761Y-142200523D01*
X175638142Y-142248142D01*
X175542904Y-142295761D01*
X175447666Y-142295761D01*
X175352428Y-142248142D01*
X175304809Y-142200523D01*
X175257190Y-142105285D01*
X175209571Y-141914809D01*
X175161952Y-141819571D01*
X175114333Y-141771952D01*
X175019095Y-141724333D01*
X174923857Y-141724333D01*
X174828619Y-141771952D01*
X174781000Y-141819571D01*
X174733380Y-141914809D01*
X174733380Y-142152904D01*
X174781000Y-142295761D01*
X175733380Y-143295761D02*
X175257190Y-142962428D01*
X175733380Y-142724333D02*
X174733380Y-142724333D01*
X174733380Y-143105285D01*
X174781000Y-143200523D01*
X174828619Y-143248142D01*
X174923857Y-143295761D01*
X175066714Y-143295761D01*
X175161952Y-143248142D01*
X175209571Y-143200523D01*
X175257190Y-143105285D01*
X175257190Y-142724333D01*
X174733380Y-143581476D02*
X175733380Y-143914809D01*
X174733380Y-144248142D01*
X174733380Y-144771952D02*
X174733380Y-144867190D01*
X174781000Y-144962428D01*
X174828619Y-145010047D01*
X174923857Y-145057666D01*
X175114333Y-145105285D01*
X175352428Y-145105285D01*
X175542904Y-145057666D01*
X175638142Y-145010047D01*
X175685761Y-144962428D01*
X175733380Y-144867190D01*
X175733380Y-144771952D01*
X175685761Y-144676714D01*
X175638142Y-144629095D01*
X175542904Y-144581476D01*
X175352428Y-144533857D01*
X175114333Y-144533857D01*
X174923857Y-144581476D01*
X174828619Y-144629095D01*
X174781000Y-144676714D01*
X174733380Y-144771952D01*
X174733380Y-146010047D02*
X174733380Y-145533857D01*
X175209571Y-145486238D01*
X175161952Y-145533857D01*
X175114333Y-145629095D01*
X175114333Y-145867190D01*
X175161952Y-145962428D01*
X175209571Y-146010047D01*
X175304809Y-146057666D01*
X175542904Y-146057666D01*
X175638142Y-146010047D01*
X175685761Y-145962428D01*
X175733380Y-145867190D01*
X175733380Y-145629095D01*
X175685761Y-145533857D01*
X175638142Y-145486238D01*
X180474666Y-111021761D02*
X180331809Y-111069380D01*
X180093714Y-111069380D01*
X179998476Y-111021761D01*
X179950857Y-110974142D01*
X179903238Y-110878904D01*
X179903238Y-110783666D01*
X179950857Y-110688428D01*
X179998476Y-110640809D01*
X180093714Y-110593190D01*
X180284190Y-110545571D01*
X180379428Y-110497952D01*
X180427047Y-110450333D01*
X180474666Y-110355095D01*
X180474666Y-110259857D01*
X180427047Y-110164619D01*
X180379428Y-110117000D01*
X180284190Y-110069380D01*
X180046095Y-110069380D01*
X179903238Y-110117000D01*
X178903238Y-111069380D02*
X179236571Y-110593190D01*
X179474666Y-111069380D02*
X179474666Y-110069380D01*
X179093714Y-110069380D01*
X178998476Y-110117000D01*
X178950857Y-110164619D01*
X178903238Y-110259857D01*
X178903238Y-110402714D01*
X178950857Y-110497952D01*
X178998476Y-110545571D01*
X179093714Y-110593190D01*
X179474666Y-110593190D01*
X178617523Y-110069380D02*
X178284190Y-111069380D01*
X177950857Y-110069380D01*
X177427047Y-110069380D02*
X177331809Y-110069380D01*
X177236571Y-110117000D01*
X177188952Y-110164619D01*
X177141333Y-110259857D01*
X177093714Y-110450333D01*
X177093714Y-110688428D01*
X177141333Y-110878904D01*
X177188952Y-110974142D01*
X177236571Y-111021761D01*
X177331809Y-111069380D01*
X177427047Y-111069380D01*
X177522285Y-111021761D01*
X177569904Y-110974142D01*
X177617523Y-110878904D01*
X177665142Y-110688428D01*
X177665142Y-110450333D01*
X177617523Y-110259857D01*
X177569904Y-110164619D01*
X177522285Y-110117000D01*
X177427047Y-110069380D01*
X176188952Y-110069380D02*
X176665142Y-110069380D01*
X176712761Y-110545571D01*
X176665142Y-110497952D01*
X176569904Y-110450333D01*
X176331809Y-110450333D01*
X176236571Y-110497952D01*
X176188952Y-110545571D01*
X176141333Y-110640809D01*
X176141333Y-110878904D01*
X176188952Y-110974142D01*
X176236571Y-111021761D01*
X176331809Y-111069380D01*
X176569904Y-111069380D01*
X176665142Y-111021761D01*
X176712761Y-110974142D01*
X127348857Y-135580380D02*
X127825047Y-135580380D01*
X127825047Y-134580380D01*
X127015523Y-135580380D02*
X127015523Y-134580380D01*
X126682190Y-135294666D01*
X126348857Y-134580380D01*
X126348857Y-135580380D01*
X125301238Y-135580380D02*
X125634571Y-135104190D01*
X125872666Y-135580380D02*
X125872666Y-134580380D01*
X125491714Y-134580380D01*
X125396476Y-134628000D01*
X125348857Y-134675619D01*
X125301238Y-134770857D01*
X125301238Y-134913714D01*
X125348857Y-135008952D01*
X125396476Y-135056571D01*
X125491714Y-135104190D01*
X125872666Y-135104190D01*
X124348857Y-135580380D02*
X124920285Y-135580380D01*
X124634571Y-135580380D02*
X124634571Y-134580380D01*
X124729809Y-134723238D01*
X124825047Y-134818476D01*
X124920285Y-134866095D01*
X123491714Y-134913714D02*
X123491714Y-135580380D01*
X123729809Y-134532761D02*
X123967904Y-135247047D01*
X123348857Y-135247047D01*
X123015523Y-134675619D02*
X122967904Y-134628000D01*
X122872666Y-134580380D01*
X122634571Y-134580380D01*
X122539333Y-134628000D01*
X122491714Y-134675619D01*
X122444095Y-134770857D01*
X122444095Y-134866095D01*
X122491714Y-135008952D01*
X123063142Y-135580380D01*
X122444095Y-135580380D01*
X121825047Y-134580380D02*
X121729809Y-134580380D01*
X121634571Y-134628000D01*
X121586952Y-134675619D01*
X121539333Y-134770857D01*
X121491714Y-134961333D01*
X121491714Y-135199428D01*
X121539333Y-135389904D01*
X121586952Y-135485142D01*
X121634571Y-135532761D01*
X121729809Y-135580380D01*
X121825047Y-135580380D01*
X121920285Y-135532761D01*
X121967904Y-135485142D01*
X122015523Y-135389904D01*
X122063142Y-135199428D01*
X122063142Y-134961333D01*
X122015523Y-134770857D01*
X121967904Y-134675619D01*
X121920285Y-134628000D01*
X121825047Y-134580380D01*
X120634571Y-134580380D02*
X120825047Y-134580380D01*
X120920285Y-134628000D01*
X120967904Y-134675619D01*
X121063142Y-134818476D01*
X121110761Y-135008952D01*
X121110761Y-135389904D01*
X121063142Y-135485142D01*
X121015523Y-135532761D01*
X120920285Y-135580380D01*
X120729809Y-135580380D01*
X120634571Y-135532761D01*
X120586952Y-135485142D01*
X120539333Y-135389904D01*
X120539333Y-135151809D01*
X120586952Y-135056571D01*
X120634571Y-135008952D01*
X120729809Y-134961333D01*
X120920285Y-134961333D01*
X121015523Y-135008952D01*
X121063142Y-135056571D01*
X121110761Y-135151809D01*
X142232047Y-132024380D02*
X142803476Y-132024380D01*
X142517761Y-132024380D02*
X142517761Y-131024380D01*
X142613000Y-131167238D01*
X142708238Y-131262476D01*
X142803476Y-131310095D01*
X141803476Y-132024380D02*
X141803476Y-131024380D01*
X141708238Y-131643428D02*
X141422523Y-132024380D01*
X141422523Y-131357714D02*
X141803476Y-131738666D01*
X143708285Y-128992380D02*
X143089238Y-128992380D01*
X143422571Y-129373333D01*
X143279714Y-129373333D01*
X143184476Y-129420952D01*
X143136857Y-129468571D01*
X143089238Y-129563809D01*
X143089238Y-129801904D01*
X143136857Y-129897142D01*
X143184476Y-129944761D01*
X143279714Y-129992380D01*
X143565428Y-129992380D01*
X143660666Y-129944761D01*
X143708285Y-129897142D01*
X142660666Y-129992380D02*
X142660666Y-128992380D01*
X142565428Y-129611428D02*
X142279714Y-129992380D01*
X142279714Y-129325714D02*
X142660666Y-129706666D01*
X141946380Y-128992380D02*
X141327333Y-128992380D01*
X141660666Y-129373333D01*
X141517809Y-129373333D01*
X141422571Y-129420952D01*
X141374952Y-129468571D01*
X141327333Y-129563809D01*
X141327333Y-129801904D01*
X141374952Y-129897142D01*
X141422571Y-129944761D01*
X141517809Y-129992380D01*
X141803523Y-129992380D01*
X141898761Y-129944761D01*
X141946380Y-129897142D01*
X168028904Y-139612714D02*
X168028904Y-140279380D01*
X168457476Y-139612714D02*
X168457476Y-140136523D01*
X168409857Y-140231761D01*
X168314619Y-140279380D01*
X168171761Y-140279380D01*
X168076523Y-140231761D01*
X168028904Y-140184142D01*
X167028904Y-140279380D02*
X167600333Y-140279380D01*
X167314619Y-140279380D02*
X167314619Y-139279380D01*
X167409857Y-139422238D01*
X167505095Y-139517476D01*
X167600333Y-139565095D01*
X168028904Y-137580714D02*
X168028904Y-138247380D01*
X168457476Y-137580714D02*
X168457476Y-138104523D01*
X168409857Y-138199761D01*
X168314619Y-138247380D01*
X168171761Y-138247380D01*
X168076523Y-138199761D01*
X168028904Y-138152142D01*
X167028904Y-138247380D02*
X167600333Y-138247380D01*
X167314619Y-138247380D02*
X167314619Y-137247380D01*
X167409857Y-137390238D01*
X167505095Y-137485476D01*
X167600333Y-137533095D01*
X168028904Y-135421714D02*
X168028904Y-136088380D01*
X168457476Y-135421714D02*
X168457476Y-135945523D01*
X168409857Y-136040761D01*
X168314619Y-136088380D01*
X168171761Y-136088380D01*
X168076523Y-136040761D01*
X168028904Y-135993142D01*
X167028904Y-136088380D02*
X167600333Y-136088380D01*
X167314619Y-136088380D02*
X167314619Y-135088380D01*
X167409857Y-135231238D01*
X167505095Y-135326476D01*
X167600333Y-135374095D01*
X168028904Y-133389714D02*
X168028904Y-134056380D01*
X168457476Y-133389714D02*
X168457476Y-133913523D01*
X168409857Y-134008761D01*
X168314619Y-134056380D01*
X168171761Y-134056380D01*
X168076523Y-134008761D01*
X168028904Y-133961142D01*
X167028904Y-134056380D02*
X167600333Y-134056380D01*
X167314619Y-134056380D02*
X167314619Y-133056380D01*
X167409857Y-133199238D01*
X167505095Y-133294476D01*
X167600333Y-133342095D01*
X174886904Y-110246714D02*
X174886904Y-110913380D01*
X175315476Y-110246714D02*
X175315476Y-110770523D01*
X175267857Y-110865761D01*
X175172619Y-110913380D01*
X175029761Y-110913380D01*
X174934523Y-110865761D01*
X174886904Y-110818142D01*
X173886904Y-110913380D02*
X174458333Y-110913380D01*
X174172619Y-110913380D02*
X174172619Y-109913380D01*
X174267857Y-110056238D01*
X174363095Y-110151476D01*
X174458333Y-110199095D01*
X138564904Y-124118714D02*
X138564904Y-124785380D01*
X138993476Y-124118714D02*
X138993476Y-124642523D01*
X138945857Y-124737761D01*
X138850619Y-124785380D01*
X138707761Y-124785380D01*
X138612523Y-124737761D01*
X138564904Y-124690142D01*
X137564904Y-124785380D02*
X138136333Y-124785380D01*
X137850619Y-124785380D02*
X137850619Y-123785380D01*
X137945857Y-123928238D01*
X138041095Y-124023476D01*
X138136333Y-124071095D01*
X143398761Y-126436380D02*
X143398761Y-125769714D01*
X143398761Y-125864952D02*
X143351142Y-125817333D01*
X143255904Y-125769714D01*
X143113047Y-125769714D01*
X143017809Y-125817333D01*
X142970190Y-125912571D01*
X142970190Y-126436380D01*
X142970190Y-125912571D02*
X142922571Y-125817333D01*
X142827333Y-125769714D01*
X142684476Y-125769714D01*
X142589238Y-125817333D01*
X142541619Y-125912571D01*
X142541619Y-126436380D01*
X141541619Y-126436380D02*
X142113047Y-126436380D01*
X141827333Y-126436380D02*
X141827333Y-125436380D01*
X141922571Y-125579238D01*
X142017809Y-125674476D01*
X142113047Y-125722095D01*
X127388904Y-133516714D02*
X127388904Y-134183380D01*
X127817476Y-133516714D02*
X127817476Y-134040523D01*
X127769857Y-134135761D01*
X127674619Y-134183380D01*
X127531761Y-134183380D01*
X127436523Y-134135761D01*
X127388904Y-134088142D01*
X126388904Y-134183380D02*
X126960333Y-134183380D01*
X126674619Y-134183380D02*
X126674619Y-133183380D01*
X126769857Y-133326238D01*
X126865095Y-133421476D01*
X126960333Y-133469095D01*
X130405095Y-123928214D02*
X130405095Y-124594880D01*
X130643190Y-123547261D02*
X130881285Y-124261547D01*
X130262238Y-124261547D01*
X129452714Y-123928214D02*
X129452714Y-124594880D01*
X129881285Y-123928214D02*
X129881285Y-124452023D01*
X129833666Y-124547261D01*
X129738428Y-124594880D01*
X129595571Y-124594880D01*
X129500333Y-124547261D01*
X129452714Y-124499642D01*
X129071761Y-123594880D02*
X128405095Y-123594880D01*
X128833666Y-124594880D01*
X171394285Y-116476119D02*
X171346666Y-116428500D01*
X171251428Y-116380880D01*
X171013333Y-116380880D01*
X170918095Y-116428500D01*
X170870476Y-116476119D01*
X170822857Y-116571357D01*
X170822857Y-116666595D01*
X170870476Y-116809452D01*
X171441904Y-117380880D01*
X170822857Y-117380880D01*
X170441904Y-116476119D02*
X170394285Y-116428500D01*
X170299047Y-116380880D01*
X170060952Y-116380880D01*
X169965714Y-116428500D01*
X169918095Y-116476119D01*
X169870476Y-116571357D01*
X169870476Y-116666595D01*
X169918095Y-116809452D01*
X170489523Y-117380880D01*
X169870476Y-117380880D01*
X169013333Y-116714214D02*
X169013333Y-117380880D01*
X169441904Y-116714214D02*
X169441904Y-117238023D01*
X169394285Y-117333261D01*
X169299047Y-117380880D01*
X169156190Y-117380880D01*
X169060952Y-117333261D01*
X169013333Y-117285642D01*
X169933904Y-106719714D02*
X169933904Y-107386380D01*
X170362476Y-106719714D02*
X170362476Y-107243523D01*
X170314857Y-107338761D01*
X170219619Y-107386380D01*
X170076761Y-107386380D01*
X169981523Y-107338761D01*
X169933904Y-107291142D01*
X168933904Y-107386380D02*
X169505333Y-107386380D01*
X169219619Y-107386380D02*
X169219619Y-106386380D01*
X169314857Y-106529238D01*
X169410095Y-106624476D01*
X169505333Y-106672095D01*
%LPC*%
G36*
G01*
X142182000Y-106901000D02*
X142182000Y-105951000D01*
G75*
G02*
X142432000Y-105701000I250000J0D01*
G01*
X143107000Y-105701000D01*
G75*
G02*
X143357000Y-105951000I0J-250000D01*
G01*
X143357000Y-106901000D01*
G75*
G02*
X143107000Y-107151000I-250000J0D01*
G01*
X142432000Y-107151000D01*
G75*
G02*
X142182000Y-106901000I0J250000D01*
G01*
G37*
G36*
G01*
X140107000Y-106901000D02*
X140107000Y-105951000D01*
G75*
G02*
X140357000Y-105701000I250000J0D01*
G01*
X141032000Y-105701000D01*
G75*
G02*
X141282000Y-105951000I0J-250000D01*
G01*
X141282000Y-106901000D01*
G75*
G02*
X141032000Y-107151000I-250000J0D01*
G01*
X140357000Y-107151000D01*
G75*
G02*
X140107000Y-106901000I0J250000D01*
G01*
G37*
G36*
G01*
X132438000Y-108168500D02*
X132438000Y-108493500D01*
G75*
G02*
X132275500Y-108656000I-162500J0D01*
G01*
X129850500Y-108656000D01*
G75*
G02*
X129688000Y-108493500I0J162500D01*
G01*
X129688000Y-108168500D01*
G75*
G02*
X129850500Y-108006000I162500J0D01*
G01*
X132275500Y-108006000D01*
G75*
G02*
X132438000Y-108168500I0J-162500D01*
G01*
G37*
G36*
G01*
X132438000Y-110708500D02*
X132438000Y-111033500D01*
G75*
G02*
X132275500Y-111196000I-162500J0D01*
G01*
X129850500Y-111196000D01*
G75*
G02*
X129688000Y-111033500I0J162500D01*
G01*
X129688000Y-110708500D01*
G75*
G02*
X129850500Y-110546000I162500J0D01*
G01*
X132275500Y-110546000D01*
G75*
G02*
X132438000Y-110708500I0J-162500D01*
G01*
G37*
G36*
G01*
X132438000Y-113248500D02*
X132438000Y-113573500D01*
G75*
G02*
X132275500Y-113736000I-162500J0D01*
G01*
X129850500Y-113736000D01*
G75*
G02*
X129688000Y-113573500I0J162500D01*
G01*
X129688000Y-113248500D01*
G75*
G02*
X129850500Y-113086000I162500J0D01*
G01*
X132275500Y-113086000D01*
G75*
G02*
X132438000Y-113248500I0J-162500D01*
G01*
G37*
G36*
G01*
X132438000Y-115788500D02*
X132438000Y-116113500D01*
G75*
G02*
X132275500Y-116276000I-162500J0D01*
G01*
X129850500Y-116276000D01*
G75*
G02*
X129688000Y-116113500I0J162500D01*
G01*
X129688000Y-115788500D01*
G75*
G02*
X129850500Y-115626000I162500J0D01*
G01*
X132275500Y-115626000D01*
G75*
G02*
X132438000Y-115788500I0J-162500D01*
G01*
G37*
G36*
G01*
X141863000Y-115788500D02*
X141863000Y-116113500D01*
G75*
G02*
X141700500Y-116276000I-162500J0D01*
G01*
X139275500Y-116276000D01*
G75*
G02*
X139113000Y-116113500I0J162500D01*
G01*
X139113000Y-115788500D01*
G75*
G02*
X139275500Y-115626000I162500J0D01*
G01*
X141700500Y-115626000D01*
G75*
G02*
X141863000Y-115788500I0J-162500D01*
G01*
G37*
G36*
G01*
X141888000Y-113248500D02*
X141888000Y-113573500D01*
G75*
G02*
X141725500Y-113736000I-162500J0D01*
G01*
X139300500Y-113736000D01*
G75*
G02*
X139138000Y-113573500I0J162500D01*
G01*
X139138000Y-113248500D01*
G75*
G02*
X139300500Y-113086000I162500J0D01*
G01*
X141725500Y-113086000D01*
G75*
G02*
X141888000Y-113248500I0J-162500D01*
G01*
G37*
G36*
G01*
X141838000Y-110708500D02*
X141838000Y-111033500D01*
G75*
G02*
X141675500Y-111196000I-162500J0D01*
G01*
X139250500Y-111196000D01*
G75*
G02*
X139088000Y-111033500I0J162500D01*
G01*
X139088000Y-110708500D01*
G75*
G02*
X139250500Y-110546000I162500J0D01*
G01*
X141675500Y-110546000D01*
G75*
G02*
X141838000Y-110708500I0J-162500D01*
G01*
G37*
G36*
G01*
X141838000Y-108168500D02*
X141838000Y-108493500D01*
G75*
G02*
X141675500Y-108656000I-162500J0D01*
G01*
X139250500Y-108656000D01*
G75*
G02*
X139088000Y-108493500I0J162500D01*
G01*
X139088000Y-108168500D01*
G75*
G02*
X139250500Y-108006000I162500J0D01*
G01*
X141675500Y-108006000D01*
G75*
G02*
X141838000Y-108168500I0J-162500D01*
G01*
G37*
D13*
X129469000Y-129286000D03*
X136469000Y-129286000D03*
G36*
G01*
X119624000Y-109844000D02*
X118374000Y-109844000D01*
G75*
G02*
X118124000Y-109594000I0J250000D01*
G01*
X118124000Y-108794000D01*
G75*
G02*
X118374000Y-108544000I250000J0D01*
G01*
X119624000Y-108544000D01*
G75*
G02*
X119874000Y-108794000I0J-250000D01*
G01*
X119874000Y-109594000D01*
G75*
G02*
X119624000Y-109844000I-250000J0D01*
G01*
G37*
G36*
G01*
X119624000Y-112944000D02*
X118374000Y-112944000D01*
G75*
G02*
X118124000Y-112694000I0J250000D01*
G01*
X118124000Y-111894000D01*
G75*
G02*
X118374000Y-111644000I250000J0D01*
G01*
X119624000Y-111644000D01*
G75*
G02*
X119874000Y-111894000I0J-250000D01*
G01*
X119874000Y-112694000D01*
G75*
G02*
X119624000Y-112944000I-250000J0D01*
G01*
G37*
G36*
G01*
X117211000Y-109844000D02*
X115961000Y-109844000D01*
G75*
G02*
X115711000Y-109594000I0J250000D01*
G01*
X115711000Y-108794000D01*
G75*
G02*
X115961000Y-108544000I250000J0D01*
G01*
X117211000Y-108544000D01*
G75*
G02*
X117461000Y-108794000I0J-250000D01*
G01*
X117461000Y-109594000D01*
G75*
G02*
X117211000Y-109844000I-250000J0D01*
G01*
G37*
G36*
G01*
X117211000Y-112944000D02*
X115961000Y-112944000D01*
G75*
G02*
X115711000Y-112694000I0J250000D01*
G01*
X115711000Y-111894000D01*
G75*
G02*
X115961000Y-111644000I250000J0D01*
G01*
X117211000Y-111644000D01*
G75*
G02*
X117461000Y-111894000I0J-250000D01*
G01*
X117461000Y-112694000D01*
G75*
G02*
X117211000Y-112944000I-250000J0D01*
G01*
G37*
G36*
G01*
X147500000Y-108970000D02*
X147500000Y-108520000D01*
G75*
G02*
X147725000Y-108295000I225000J0D01*
G01*
X150275000Y-108295000D01*
G75*
G02*
X150500000Y-108520000I0J-225000D01*
G01*
X150500000Y-108970000D01*
G75*
G02*
X150275000Y-109195000I-225000J0D01*
G01*
X147725000Y-109195000D01*
G75*
G02*
X147500000Y-108970000I0J225000D01*
G01*
G37*
G36*
G01*
X147500000Y-110240000D02*
X147500000Y-109790000D01*
G75*
G02*
X147725000Y-109565000I225000J0D01*
G01*
X150275000Y-109565000D01*
G75*
G02*
X150500000Y-109790000I0J-225000D01*
G01*
X150500000Y-110240000D01*
G75*
G02*
X150275000Y-110465000I-225000J0D01*
G01*
X147725000Y-110465000D01*
G75*
G02*
X147500000Y-110240000I0J225000D01*
G01*
G37*
G36*
G01*
X147500000Y-111510000D02*
X147500000Y-111060000D01*
G75*
G02*
X147725000Y-110835000I225000J0D01*
G01*
X150275000Y-110835000D01*
G75*
G02*
X150500000Y-111060000I0J-225000D01*
G01*
X150500000Y-111510000D01*
G75*
G02*
X150275000Y-111735000I-225000J0D01*
G01*
X147725000Y-111735000D01*
G75*
G02*
X147500000Y-111510000I0J225000D01*
G01*
G37*
G36*
G01*
X147500000Y-112780000D02*
X147500000Y-112330000D01*
G75*
G02*
X147725000Y-112105000I225000J0D01*
G01*
X150275000Y-112105000D01*
G75*
G02*
X150500000Y-112330000I0J-225000D01*
G01*
X150500000Y-112780000D01*
G75*
G02*
X150275000Y-113005000I-225000J0D01*
G01*
X147725000Y-113005000D01*
G75*
G02*
X147500000Y-112780000I0J225000D01*
G01*
G37*
G36*
G01*
X147500000Y-114050000D02*
X147500000Y-113600000D01*
G75*
G02*
X147725000Y-113375000I225000J0D01*
G01*
X150275000Y-113375000D01*
G75*
G02*
X150500000Y-113600000I0J-225000D01*
G01*
X150500000Y-114050000D01*
G75*
G02*
X150275000Y-114275000I-225000J0D01*
G01*
X147725000Y-114275000D01*
G75*
G02*
X147500000Y-114050000I0J225000D01*
G01*
G37*
G36*
G01*
X147500000Y-115320000D02*
X147500000Y-114870000D01*
G75*
G02*
X147725000Y-114645000I225000J0D01*
G01*
X150275000Y-114645000D01*
G75*
G02*
X150500000Y-114870000I0J-225000D01*
G01*
X150500000Y-115320000D01*
G75*
G02*
X150275000Y-115545000I-225000J0D01*
G01*
X147725000Y-115545000D01*
G75*
G02*
X147500000Y-115320000I0J225000D01*
G01*
G37*
G36*
G01*
X147500000Y-116590000D02*
X147500000Y-116140000D01*
G75*
G02*
X147725000Y-115915000I225000J0D01*
G01*
X150275000Y-115915000D01*
G75*
G02*
X150500000Y-116140000I0J-225000D01*
G01*
X150500000Y-116590000D01*
G75*
G02*
X150275000Y-116815000I-225000J0D01*
G01*
X147725000Y-116815000D01*
G75*
G02*
X147500000Y-116590000I0J225000D01*
G01*
G37*
G36*
G01*
X147500000Y-117860000D02*
X147500000Y-117410000D01*
G75*
G02*
X147725000Y-117185000I225000J0D01*
G01*
X150275000Y-117185000D01*
G75*
G02*
X150500000Y-117410000I0J-225000D01*
G01*
X150500000Y-117860000D01*
G75*
G02*
X150275000Y-118085000I-225000J0D01*
G01*
X147725000Y-118085000D01*
G75*
G02*
X147500000Y-117860000I0J225000D01*
G01*
G37*
G36*
G01*
X147500000Y-119130000D02*
X147500000Y-118680000D01*
G75*
G02*
X147725000Y-118455000I225000J0D01*
G01*
X150275000Y-118455000D01*
G75*
G02*
X150500000Y-118680000I0J-225000D01*
G01*
X150500000Y-119130000D01*
G75*
G02*
X150275000Y-119355000I-225000J0D01*
G01*
X147725000Y-119355000D01*
G75*
G02*
X147500000Y-119130000I0J225000D01*
G01*
G37*
G36*
G01*
X147500000Y-120400000D02*
X147500000Y-119950000D01*
G75*
G02*
X147725000Y-119725000I225000J0D01*
G01*
X150275000Y-119725000D01*
G75*
G02*
X150500000Y-119950000I0J-225000D01*
G01*
X150500000Y-120400000D01*
G75*
G02*
X150275000Y-120625000I-225000J0D01*
G01*
X147725000Y-120625000D01*
G75*
G02*
X147500000Y-120400000I0J225000D01*
G01*
G37*
G36*
G01*
X147500000Y-121670000D02*
X147500000Y-121220000D01*
G75*
G02*
X147725000Y-120995000I225000J0D01*
G01*
X150275000Y-120995000D01*
G75*
G02*
X150500000Y-121220000I0J-225000D01*
G01*
X150500000Y-121670000D01*
G75*
G02*
X150275000Y-121895000I-225000J0D01*
G01*
X147725000Y-121895000D01*
G75*
G02*
X147500000Y-121670000I0J225000D01*
G01*
G37*
G36*
G01*
X147500000Y-122940000D02*
X147500000Y-122490000D01*
G75*
G02*
X147725000Y-122265000I225000J0D01*
G01*
X150275000Y-122265000D01*
G75*
G02*
X150500000Y-122490000I0J-225000D01*
G01*
X150500000Y-122940000D01*
G75*
G02*
X150275000Y-123165000I-225000J0D01*
G01*
X147725000Y-123165000D01*
G75*
G02*
X147500000Y-122940000I0J225000D01*
G01*
G37*
G36*
G01*
X147500000Y-124210000D02*
X147500000Y-123760000D01*
G75*
G02*
X147725000Y-123535000I225000J0D01*
G01*
X150275000Y-123535000D01*
G75*
G02*
X150500000Y-123760000I0J-225000D01*
G01*
X150500000Y-124210000D01*
G75*
G02*
X150275000Y-124435000I-225000J0D01*
G01*
X147725000Y-124435000D01*
G75*
G02*
X147500000Y-124210000I0J225000D01*
G01*
G37*
G36*
G01*
X147500000Y-125480000D02*
X147500000Y-125030000D01*
G75*
G02*
X147725000Y-124805000I225000J0D01*
G01*
X150275000Y-124805000D01*
G75*
G02*
X150500000Y-125030000I0J-225000D01*
G01*
X150500000Y-125480000D01*
G75*
G02*
X150275000Y-125705000I-225000J0D01*
G01*
X147725000Y-125705000D01*
G75*
G02*
X147500000Y-125480000I0J225000D01*
G01*
G37*
G36*
G01*
X152510000Y-128255000D02*
X152060000Y-128255000D01*
G75*
G02*
X151835000Y-128030000I0J225000D01*
G01*
X151835000Y-125480000D01*
G75*
G02*
X152060000Y-125255000I225000J0D01*
G01*
X152510000Y-125255000D01*
G75*
G02*
X152735000Y-125480000I0J-225000D01*
G01*
X152735000Y-128030000D01*
G75*
G02*
X152510000Y-128255000I-225000J0D01*
G01*
G37*
G36*
G01*
X153780000Y-128255000D02*
X153330000Y-128255000D01*
G75*
G02*
X153105000Y-128030000I0J225000D01*
G01*
X153105000Y-125480000D01*
G75*
G02*
X153330000Y-125255000I225000J0D01*
G01*
X153780000Y-125255000D01*
G75*
G02*
X154005000Y-125480000I0J-225000D01*
G01*
X154005000Y-128030000D01*
G75*
G02*
X153780000Y-128255000I-225000J0D01*
G01*
G37*
G36*
G01*
X155050000Y-128255000D02*
X154600000Y-128255000D01*
G75*
G02*
X154375000Y-128030000I0J225000D01*
G01*
X154375000Y-125480000D01*
G75*
G02*
X154600000Y-125255000I225000J0D01*
G01*
X155050000Y-125255000D01*
G75*
G02*
X155275000Y-125480000I0J-225000D01*
G01*
X155275000Y-128030000D01*
G75*
G02*
X155050000Y-128255000I-225000J0D01*
G01*
G37*
G36*
G01*
X156320000Y-128255000D02*
X155870000Y-128255000D01*
G75*
G02*
X155645000Y-128030000I0J225000D01*
G01*
X155645000Y-125480000D01*
G75*
G02*
X155870000Y-125255000I225000J0D01*
G01*
X156320000Y-125255000D01*
G75*
G02*
X156545000Y-125480000I0J-225000D01*
G01*
X156545000Y-128030000D01*
G75*
G02*
X156320000Y-128255000I-225000J0D01*
G01*
G37*
G36*
G01*
X157590000Y-128255000D02*
X157140000Y-128255000D01*
G75*
G02*
X156915000Y-128030000I0J225000D01*
G01*
X156915000Y-125480000D01*
G75*
G02*
X157140000Y-125255000I225000J0D01*
G01*
X157590000Y-125255000D01*
G75*
G02*
X157815000Y-125480000I0J-225000D01*
G01*
X157815000Y-128030000D01*
G75*
G02*
X157590000Y-128255000I-225000J0D01*
G01*
G37*
G36*
G01*
X158860000Y-128255000D02*
X158410000Y-128255000D01*
G75*
G02*
X158185000Y-128030000I0J225000D01*
G01*
X158185000Y-125480000D01*
G75*
G02*
X158410000Y-125255000I225000J0D01*
G01*
X158860000Y-125255000D01*
G75*
G02*
X159085000Y-125480000I0J-225000D01*
G01*
X159085000Y-128030000D01*
G75*
G02*
X158860000Y-128255000I-225000J0D01*
G01*
G37*
G36*
G01*
X160130000Y-128255000D02*
X159680000Y-128255000D01*
G75*
G02*
X159455000Y-128030000I0J225000D01*
G01*
X159455000Y-125480000D01*
G75*
G02*
X159680000Y-125255000I225000J0D01*
G01*
X160130000Y-125255000D01*
G75*
G02*
X160355000Y-125480000I0J-225000D01*
G01*
X160355000Y-128030000D01*
G75*
G02*
X160130000Y-128255000I-225000J0D01*
G01*
G37*
G36*
G01*
X161400000Y-128255000D02*
X160950000Y-128255000D01*
G75*
G02*
X160725000Y-128030000I0J225000D01*
G01*
X160725000Y-125480000D01*
G75*
G02*
X160950000Y-125255000I225000J0D01*
G01*
X161400000Y-125255000D01*
G75*
G02*
X161625000Y-125480000I0J-225000D01*
G01*
X161625000Y-128030000D01*
G75*
G02*
X161400000Y-128255000I-225000J0D01*
G01*
G37*
G36*
G01*
X162670000Y-128255000D02*
X162220000Y-128255000D01*
G75*
G02*
X161995000Y-128030000I0J225000D01*
G01*
X161995000Y-125480000D01*
G75*
G02*
X162220000Y-125255000I225000J0D01*
G01*
X162670000Y-125255000D01*
G75*
G02*
X162895000Y-125480000I0J-225000D01*
G01*
X162895000Y-128030000D01*
G75*
G02*
X162670000Y-128255000I-225000J0D01*
G01*
G37*
G36*
G01*
X163940000Y-128255000D02*
X163490000Y-128255000D01*
G75*
G02*
X163265000Y-128030000I0J225000D01*
G01*
X163265000Y-125480000D01*
G75*
G02*
X163490000Y-125255000I225000J0D01*
G01*
X163940000Y-125255000D01*
G75*
G02*
X164165000Y-125480000I0J-225000D01*
G01*
X164165000Y-128030000D01*
G75*
G02*
X163940000Y-128255000I-225000J0D01*
G01*
G37*
G36*
G01*
X168500000Y-125030000D02*
X168500000Y-125480000D01*
G75*
G02*
X168275000Y-125705000I-225000J0D01*
G01*
X165725000Y-125705000D01*
G75*
G02*
X165500000Y-125480000I0J225000D01*
G01*
X165500000Y-125030000D01*
G75*
G02*
X165725000Y-124805000I225000J0D01*
G01*
X168275000Y-124805000D01*
G75*
G02*
X168500000Y-125030000I0J-225000D01*
G01*
G37*
G36*
G01*
X168500000Y-123760000D02*
X168500000Y-124210000D01*
G75*
G02*
X168275000Y-124435000I-225000J0D01*
G01*
X165725000Y-124435000D01*
G75*
G02*
X165500000Y-124210000I0J225000D01*
G01*
X165500000Y-123760000D01*
G75*
G02*
X165725000Y-123535000I225000J0D01*
G01*
X168275000Y-123535000D01*
G75*
G02*
X168500000Y-123760000I0J-225000D01*
G01*
G37*
G36*
G01*
X168500000Y-122490000D02*
X168500000Y-122940000D01*
G75*
G02*
X168275000Y-123165000I-225000J0D01*
G01*
X165725000Y-123165000D01*
G75*
G02*
X165500000Y-122940000I0J225000D01*
G01*
X165500000Y-122490000D01*
G75*
G02*
X165725000Y-122265000I225000J0D01*
G01*
X168275000Y-122265000D01*
G75*
G02*
X168500000Y-122490000I0J-225000D01*
G01*
G37*
G36*
G01*
X168500000Y-121220000D02*
X168500000Y-121670000D01*
G75*
G02*
X168275000Y-121895000I-225000J0D01*
G01*
X165725000Y-121895000D01*
G75*
G02*
X165500000Y-121670000I0J225000D01*
G01*
X165500000Y-121220000D01*
G75*
G02*
X165725000Y-120995000I225000J0D01*
G01*
X168275000Y-120995000D01*
G75*
G02*
X168500000Y-121220000I0J-225000D01*
G01*
G37*
G36*
G01*
X168500000Y-119950000D02*
X168500000Y-120400000D01*
G75*
G02*
X168275000Y-120625000I-225000J0D01*
G01*
X165725000Y-120625000D01*
G75*
G02*
X165500000Y-120400000I0J225000D01*
G01*
X165500000Y-119950000D01*
G75*
G02*
X165725000Y-119725000I225000J0D01*
G01*
X168275000Y-119725000D01*
G75*
G02*
X168500000Y-119950000I0J-225000D01*
G01*
G37*
G36*
G01*
X168500000Y-118680000D02*
X168500000Y-119130000D01*
G75*
G02*
X168275000Y-119355000I-225000J0D01*
G01*
X165725000Y-119355000D01*
G75*
G02*
X165500000Y-119130000I0J225000D01*
G01*
X165500000Y-118680000D01*
G75*
G02*
X165725000Y-118455000I225000J0D01*
G01*
X168275000Y-118455000D01*
G75*
G02*
X168500000Y-118680000I0J-225000D01*
G01*
G37*
G36*
G01*
X168500000Y-117410000D02*
X168500000Y-117860000D01*
G75*
G02*
X168275000Y-118085000I-225000J0D01*
G01*
X165725000Y-118085000D01*
G75*
G02*
X165500000Y-117860000I0J225000D01*
G01*
X165500000Y-117410000D01*
G75*
G02*
X165725000Y-117185000I225000J0D01*
G01*
X168275000Y-117185000D01*
G75*
G02*
X168500000Y-117410000I0J-225000D01*
G01*
G37*
G36*
G01*
X168500000Y-116140000D02*
X168500000Y-116590000D01*
G75*
G02*
X168275000Y-116815000I-225000J0D01*
G01*
X165725000Y-116815000D01*
G75*
G02*
X165500000Y-116590000I0J225000D01*
G01*
X165500000Y-116140000D01*
G75*
G02*
X165725000Y-115915000I225000J0D01*
G01*
X168275000Y-115915000D01*
G75*
G02*
X168500000Y-116140000I0J-225000D01*
G01*
G37*
G36*
G01*
X168500000Y-114870000D02*
X168500000Y-115320000D01*
G75*
G02*
X168275000Y-115545000I-225000J0D01*
G01*
X165725000Y-115545000D01*
G75*
G02*
X165500000Y-115320000I0J225000D01*
G01*
X165500000Y-114870000D01*
G75*
G02*
X165725000Y-114645000I225000J0D01*
G01*
X168275000Y-114645000D01*
G75*
G02*
X168500000Y-114870000I0J-225000D01*
G01*
G37*
G36*
G01*
X168500000Y-113600000D02*
X168500000Y-114050000D01*
G75*
G02*
X168275000Y-114275000I-225000J0D01*
G01*
X165725000Y-114275000D01*
G75*
G02*
X165500000Y-114050000I0J225000D01*
G01*
X165500000Y-113600000D01*
G75*
G02*
X165725000Y-113375000I225000J0D01*
G01*
X168275000Y-113375000D01*
G75*
G02*
X168500000Y-113600000I0J-225000D01*
G01*
G37*
G36*
G01*
X168500000Y-112330000D02*
X168500000Y-112780000D01*
G75*
G02*
X168275000Y-113005000I-225000J0D01*
G01*
X165725000Y-113005000D01*
G75*
G02*
X165500000Y-112780000I0J225000D01*
G01*
X165500000Y-112330000D01*
G75*
G02*
X165725000Y-112105000I225000J0D01*
G01*
X168275000Y-112105000D01*
G75*
G02*
X168500000Y-112330000I0J-225000D01*
G01*
G37*
G36*
G01*
X168500000Y-111060000D02*
X168500000Y-111510000D01*
G75*
G02*
X168275000Y-111735000I-225000J0D01*
G01*
X165725000Y-111735000D01*
G75*
G02*
X165500000Y-111510000I0J225000D01*
G01*
X165500000Y-111060000D01*
G75*
G02*
X165725000Y-110835000I225000J0D01*
G01*
X168275000Y-110835000D01*
G75*
G02*
X168500000Y-111060000I0J-225000D01*
G01*
G37*
G36*
G01*
X168500000Y-109790000D02*
X168500000Y-110240000D01*
G75*
G02*
X168275000Y-110465000I-225000J0D01*
G01*
X165725000Y-110465000D01*
G75*
G02*
X165500000Y-110240000I0J225000D01*
G01*
X165500000Y-109790000D01*
G75*
G02*
X165725000Y-109565000I225000J0D01*
G01*
X168275000Y-109565000D01*
G75*
G02*
X168500000Y-109790000I0J-225000D01*
G01*
G37*
G36*
G01*
X168500000Y-108520000D02*
X168500000Y-108970000D01*
G75*
G02*
X168275000Y-109195000I-225000J0D01*
G01*
X165725000Y-109195000D01*
G75*
G02*
X165500000Y-108970000I0J225000D01*
G01*
X165500000Y-108520000D01*
G75*
G02*
X165725000Y-108295000I225000J0D01*
G01*
X168275000Y-108295000D01*
G75*
G02*
X168500000Y-108520000I0J-225000D01*
G01*
G37*
D14*
X159000000Y-116245000D03*
G36*
G01*
X136663000Y-114036000D02*
X136663000Y-112786000D01*
G75*
G02*
X136913000Y-112536000I250000J0D01*
G01*
X137713000Y-112536000D01*
G75*
G02*
X137963000Y-112786000I0J-250000D01*
G01*
X137963000Y-114036000D01*
G75*
G02*
X137713000Y-114286000I-250000J0D01*
G01*
X136913000Y-114286000D01*
G75*
G02*
X136663000Y-114036000I0J250000D01*
G01*
G37*
G36*
G01*
X133563000Y-114036000D02*
X133563000Y-112786000D01*
G75*
G02*
X133813000Y-112536000I250000J0D01*
G01*
X134613000Y-112536000D01*
G75*
G02*
X134863000Y-112786000I0J-250000D01*
G01*
X134863000Y-114036000D01*
G75*
G02*
X134613000Y-114286000I-250000J0D01*
G01*
X133813000Y-114286000D01*
G75*
G02*
X133563000Y-114036000I0J250000D01*
G01*
G37*
G36*
G01*
X136663000Y-111496000D02*
X136663000Y-110246000D01*
G75*
G02*
X136913000Y-109996000I250000J0D01*
G01*
X137713000Y-109996000D01*
G75*
G02*
X137963000Y-110246000I0J-250000D01*
G01*
X137963000Y-111496000D01*
G75*
G02*
X137713000Y-111746000I-250000J0D01*
G01*
X136913000Y-111746000D01*
G75*
G02*
X136663000Y-111496000I0J250000D01*
G01*
G37*
G36*
G01*
X133563000Y-111496000D02*
X133563000Y-110246000D01*
G75*
G02*
X133813000Y-109996000I250000J0D01*
G01*
X134613000Y-109996000D01*
G75*
G02*
X134863000Y-110246000I0J-250000D01*
G01*
X134863000Y-111496000D01*
G75*
G02*
X134613000Y-111746000I-250000J0D01*
G01*
X133813000Y-111746000D01*
G75*
G02*
X133563000Y-111496000I0J250000D01*
G01*
G37*
D15*
X138009000Y-117348000D03*
X133009000Y-117348000D03*
X135509000Y-117348000D03*
X138009000Y-121031000D03*
X133009000Y-121031000D03*
X135509000Y-121031000D03*
X138009000Y-107061000D03*
X133009000Y-107061000D03*
X135509000Y-107061000D03*
G36*
G01*
X127746999Y-113041000D02*
X129047001Y-113041000D01*
G75*
G02*
X129297000Y-113290999I0J-249999D01*
G01*
X129297000Y-114116001D01*
G75*
G02*
X129047001Y-114366000I-249999J0D01*
G01*
X127746999Y-114366000D01*
G75*
G02*
X127497000Y-114116001I0J249999D01*
G01*
X127497000Y-113290999D01*
G75*
G02*
X127746999Y-113041000I249999J0D01*
G01*
G37*
G36*
G01*
X127746999Y-109916000D02*
X129047001Y-109916000D01*
G75*
G02*
X129297000Y-110165999I0J-249999D01*
G01*
X129297000Y-110991001D01*
G75*
G02*
X129047001Y-111241000I-249999J0D01*
G01*
X127746999Y-111241000D01*
G75*
G02*
X127497000Y-110991001I0J249999D01*
G01*
X127497000Y-110165999D01*
G75*
G02*
X127746999Y-109916000I249999J0D01*
G01*
G37*
D16*
X113030000Y-126548000D03*
G36*
G01*
X114580000Y-130948000D02*
X111480000Y-130948000D01*
G75*
G02*
X111230000Y-130698000I0J250000D01*
G01*
X111230000Y-129398000D01*
G75*
G02*
X111480000Y-129148000I250000J0D01*
G01*
X114580000Y-129148000D01*
G75*
G02*
X114830000Y-129398000I0J-250000D01*
G01*
X114830000Y-130698000D01*
G75*
G02*
X114580000Y-130948000I-250000J0D01*
G01*
G37*
X113030000Y-110292000D03*
X113030000Y-113792000D03*
X113030000Y-117292000D03*
G36*
G01*
X114580000Y-121692000D02*
X111480000Y-121692000D01*
G75*
G02*
X111230000Y-121442000I0J250000D01*
G01*
X111230000Y-120142000D01*
G75*
G02*
X111480000Y-119892000I250000J0D01*
G01*
X114580000Y-119892000D01*
G75*
G02*
X114830000Y-120142000I0J-250000D01*
G01*
X114830000Y-121442000D01*
G75*
G02*
X114580000Y-121692000I-250000J0D01*
G01*
G37*
D17*
X144145000Y-114173000D03*
X145415000Y-114173000D03*
X144145000Y-112903000D03*
X145415000Y-112903000D03*
X144145000Y-111633000D03*
D18*
X145415000Y-111633000D03*
D19*
X179150000Y-108750000D03*
X180850000Y-108750000D03*
D20*
X116205000Y-124460000D03*
X116205000Y-121920000D03*
X116205000Y-119380000D03*
X116205000Y-116840000D03*
X116205000Y-114300000D03*
X118745000Y-124460000D03*
X118745000Y-121920000D03*
X118745000Y-119380000D03*
X118745000Y-116840000D03*
G36*
G01*
X119595000Y-113700000D02*
X119595000Y-114900000D01*
G75*
G02*
X119345000Y-115150000I-250000J0D01*
G01*
X118145000Y-115150000D01*
G75*
G02*
X117895000Y-114900000I0J250000D01*
G01*
X117895000Y-113700000D01*
G75*
G02*
X118145000Y-113450000I250000J0D01*
G01*
X119345000Y-113450000D01*
G75*
G02*
X119595000Y-113700000I0J-250000D01*
G01*
G37*
D21*
X150571000Y-145764000D03*
D22*
X141471000Y-143764000D03*
X143971000Y-143764000D03*
X146471000Y-143764000D03*
G36*
G01*
X149821000Y-143039000D02*
X149821000Y-144489000D01*
G75*
G02*
X149571000Y-144739000I-250000J0D01*
G01*
X148371000Y-144739000D01*
G75*
G02*
X148121000Y-144489000I0J250000D01*
G01*
X148121000Y-143039000D01*
G75*
G02*
X148371000Y-142789000I250000J0D01*
G01*
X149571000Y-142789000D01*
G75*
G02*
X149821000Y-143039000I0J-250000D01*
G01*
G37*
D23*
X153670000Y-143510000D03*
X144526000Y-139446000D03*
D24*
X106985000Y-126238000D03*
X106985000Y-123238000D03*
D25*
X130330000Y-103886000D03*
X132870000Y-103886000D03*
X130330000Y-101346000D03*
G36*
G01*
X132108000Y-101727000D02*
X132108000Y-100965000D01*
G75*
G02*
X132489000Y-100584000I381000J0D01*
G01*
X133251000Y-100584000D01*
G75*
G02*
X133632000Y-100965000I0J-381000D01*
G01*
X133632000Y-101727000D01*
G75*
G02*
X133251000Y-102108000I-381000J0D01*
G01*
X132489000Y-102108000D01*
G75*
G02*
X132108000Y-101727000I0J381000D01*
G01*
G37*
G36*
G01*
X182518000Y-132784001D02*
X182518000Y-131883999D01*
G75*
G02*
X182767999Y-131634000I249999J0D01*
G01*
X183468001Y-131634000D01*
G75*
G02*
X183718000Y-131883999I0J-249999D01*
G01*
X183718000Y-132784001D01*
G75*
G02*
X183468001Y-133034000I-249999J0D01*
G01*
X182767999Y-133034000D01*
G75*
G02*
X182518000Y-132784001I0J249999D01*
G01*
G37*
G36*
G01*
X180518000Y-132784001D02*
X180518000Y-131883999D01*
G75*
G02*
X180767999Y-131634000I249999J0D01*
G01*
X181468001Y-131634000D01*
G75*
G02*
X181718000Y-131883999I0J-249999D01*
G01*
X181718000Y-132784001D01*
G75*
G02*
X181468001Y-133034000I-249999J0D01*
G01*
X180767999Y-133034000D01*
G75*
G02*
X180518000Y-132784001I0J249999D01*
G01*
G37*
G36*
G01*
X182518000Y-129990001D02*
X182518000Y-129089999D01*
G75*
G02*
X182767999Y-128840000I249999J0D01*
G01*
X183468001Y-128840000D01*
G75*
G02*
X183718000Y-129089999I0J-249999D01*
G01*
X183718000Y-129990001D01*
G75*
G02*
X183468001Y-130240000I-249999J0D01*
G01*
X182767999Y-130240000D01*
G75*
G02*
X182518000Y-129990001I0J249999D01*
G01*
G37*
G36*
G01*
X180518000Y-129990001D02*
X180518000Y-129089999D01*
G75*
G02*
X180767999Y-128840000I249999J0D01*
G01*
X181468001Y-128840000D01*
G75*
G02*
X181718000Y-129089999I0J-249999D01*
G01*
X181718000Y-129990001D01*
G75*
G02*
X181468001Y-130240000I-249999J0D01*
G01*
X180767999Y-130240000D01*
G75*
G02*
X180518000Y-129990001I0J249999D01*
G01*
G37*
D18*
X175514000Y-138811000D03*
X178014000Y-138811000D03*
G36*
G01*
X175075000Y-124935000D02*
X175075000Y-123985000D01*
G75*
G02*
X175325000Y-123735000I250000J0D01*
G01*
X176000000Y-123735000D01*
G75*
G02*
X176250000Y-123985000I0J-250000D01*
G01*
X176250000Y-124935000D01*
G75*
G02*
X176000000Y-125185000I-250000J0D01*
G01*
X175325000Y-125185000D01*
G75*
G02*
X175075000Y-124935000I0J250000D01*
G01*
G37*
G36*
G01*
X173000000Y-124935000D02*
X173000000Y-123985000D01*
G75*
G02*
X173250000Y-123735000I250000J0D01*
G01*
X173925000Y-123735000D01*
G75*
G02*
X174175000Y-123985000I0J-250000D01*
G01*
X174175000Y-124935000D01*
G75*
G02*
X173925000Y-125185000I-250000J0D01*
G01*
X173250000Y-125185000D01*
G75*
G02*
X173000000Y-124935000I0J250000D01*
G01*
G37*
G36*
G01*
X175075000Y-118521500D02*
X175075000Y-117571500D01*
G75*
G02*
X175325000Y-117321500I250000J0D01*
G01*
X176000000Y-117321500D01*
G75*
G02*
X176250000Y-117571500I0J-250000D01*
G01*
X176250000Y-118521500D01*
G75*
G02*
X176000000Y-118771500I-250000J0D01*
G01*
X175325000Y-118771500D01*
G75*
G02*
X175075000Y-118521500I0J250000D01*
G01*
G37*
G36*
G01*
X173000000Y-118521500D02*
X173000000Y-117571500D01*
G75*
G02*
X173250000Y-117321500I250000J0D01*
G01*
X173925000Y-117321500D01*
G75*
G02*
X174175000Y-117571500I0J-250000D01*
G01*
X174175000Y-118521500D01*
G75*
G02*
X173925000Y-118771500I-250000J0D01*
G01*
X173250000Y-118771500D01*
G75*
G02*
X173000000Y-118521500I0J250000D01*
G01*
G37*
G36*
G01*
X175075000Y-120998000D02*
X175075000Y-120048000D01*
G75*
G02*
X175325000Y-119798000I250000J0D01*
G01*
X176000000Y-119798000D01*
G75*
G02*
X176250000Y-120048000I0J-250000D01*
G01*
X176250000Y-120998000D01*
G75*
G02*
X176000000Y-121248000I-250000J0D01*
G01*
X175325000Y-121248000D01*
G75*
G02*
X175075000Y-120998000I0J250000D01*
G01*
G37*
G36*
G01*
X173000000Y-120998000D02*
X173000000Y-120048000D01*
G75*
G02*
X173250000Y-119798000I250000J0D01*
G01*
X173925000Y-119798000D01*
G75*
G02*
X174175000Y-120048000I0J-250000D01*
G01*
X174175000Y-120998000D01*
G75*
G02*
X173925000Y-121248000I-250000J0D01*
G01*
X173250000Y-121248000D01*
G75*
G02*
X173000000Y-120998000I0J250000D01*
G01*
G37*
G36*
G01*
X175075000Y-135285500D02*
X175075000Y-134335500D01*
G75*
G02*
X175325000Y-134085500I250000J0D01*
G01*
X176000000Y-134085500D01*
G75*
G02*
X176250000Y-134335500I0J-250000D01*
G01*
X176250000Y-135285500D01*
G75*
G02*
X176000000Y-135535500I-250000J0D01*
G01*
X175325000Y-135535500D01*
G75*
G02*
X175075000Y-135285500I0J250000D01*
G01*
G37*
G36*
G01*
X173000000Y-135285500D02*
X173000000Y-134335500D01*
G75*
G02*
X173250000Y-134085500I250000J0D01*
G01*
X173925000Y-134085500D01*
G75*
G02*
X174175000Y-134335500I0J-250000D01*
G01*
X174175000Y-135285500D01*
G75*
G02*
X173925000Y-135535500I-250000J0D01*
G01*
X173250000Y-135535500D01*
G75*
G02*
X173000000Y-135285500I0J250000D01*
G01*
G37*
G36*
G01*
X175075000Y-128872000D02*
X175075000Y-127922000D01*
G75*
G02*
X175325000Y-127672000I250000J0D01*
G01*
X176000000Y-127672000D01*
G75*
G02*
X176250000Y-127922000I0J-250000D01*
G01*
X176250000Y-128872000D01*
G75*
G02*
X176000000Y-129122000I-250000J0D01*
G01*
X175325000Y-129122000D01*
G75*
G02*
X175075000Y-128872000I0J250000D01*
G01*
G37*
G36*
G01*
X173000000Y-128872000D02*
X173000000Y-127922000D01*
G75*
G02*
X173250000Y-127672000I250000J0D01*
G01*
X173925000Y-127672000D01*
G75*
G02*
X174175000Y-127922000I0J-250000D01*
G01*
X174175000Y-128872000D01*
G75*
G02*
X173925000Y-129122000I-250000J0D01*
G01*
X173250000Y-129122000D01*
G75*
G02*
X173000000Y-128872000I0J250000D01*
G01*
G37*
G36*
G01*
X182772000Y-116782001D02*
X182772000Y-115881999D01*
G75*
G02*
X183021999Y-115632000I249999J0D01*
G01*
X183722001Y-115632000D01*
G75*
G02*
X183972000Y-115881999I0J-249999D01*
G01*
X183972000Y-116782001D01*
G75*
G02*
X183722001Y-117032000I-249999J0D01*
G01*
X183021999Y-117032000D01*
G75*
G02*
X182772000Y-116782001I0J249999D01*
G01*
G37*
G36*
G01*
X180772000Y-116782001D02*
X180772000Y-115881999D01*
G75*
G02*
X181021999Y-115632000I249999J0D01*
G01*
X181722001Y-115632000D01*
G75*
G02*
X181972000Y-115881999I0J-249999D01*
G01*
X181972000Y-116782001D01*
G75*
G02*
X181722001Y-117032000I-249999J0D01*
G01*
X181021999Y-117032000D01*
G75*
G02*
X180772000Y-116782001I0J249999D01*
G01*
G37*
G36*
G01*
X182772000Y-114750001D02*
X182772000Y-113849999D01*
G75*
G02*
X183021999Y-113600000I249999J0D01*
G01*
X183722001Y-113600000D01*
G75*
G02*
X183972000Y-113849999I0J-249999D01*
G01*
X183972000Y-114750001D01*
G75*
G02*
X183722001Y-115000000I-249999J0D01*
G01*
X183021999Y-115000000D01*
G75*
G02*
X182772000Y-114750001I0J249999D01*
G01*
G37*
G36*
G01*
X180772000Y-114750001D02*
X180772000Y-113849999D01*
G75*
G02*
X181021999Y-113600000I249999J0D01*
G01*
X181722001Y-113600000D01*
G75*
G02*
X181972000Y-113849999I0J-249999D01*
G01*
X181972000Y-114750001D01*
G75*
G02*
X181722001Y-115000000I-249999J0D01*
G01*
X181021999Y-115000000D01*
G75*
G02*
X180772000Y-114750001I0J249999D01*
G01*
G37*
G36*
G01*
X182772000Y-112718001D02*
X182772000Y-111817999D01*
G75*
G02*
X183021999Y-111568000I249999J0D01*
G01*
X183722001Y-111568000D01*
G75*
G02*
X183972000Y-111817999I0J-249999D01*
G01*
X183972000Y-112718001D01*
G75*
G02*
X183722001Y-112968000I-249999J0D01*
G01*
X183021999Y-112968000D01*
G75*
G02*
X182772000Y-112718001I0J249999D01*
G01*
G37*
G36*
G01*
X180772000Y-112718001D02*
X180772000Y-111817999D01*
G75*
G02*
X181021999Y-111568000I249999J0D01*
G01*
X181722001Y-111568000D01*
G75*
G02*
X181972000Y-111817999I0J-249999D01*
G01*
X181972000Y-112718001D01*
G75*
G02*
X181722001Y-112968000I-249999J0D01*
G01*
X181021999Y-112968000D01*
G75*
G02*
X180772000Y-112718001I0J249999D01*
G01*
G37*
G36*
G01*
X182772000Y-110686001D02*
X182772000Y-109785999D01*
G75*
G02*
X183021999Y-109536000I249999J0D01*
G01*
X183722001Y-109536000D01*
G75*
G02*
X183972000Y-109785999I0J-249999D01*
G01*
X183972000Y-110686001D01*
G75*
G02*
X183722001Y-110936000I-249999J0D01*
G01*
X183021999Y-110936000D01*
G75*
G02*
X182772000Y-110686001I0J249999D01*
G01*
G37*
G36*
G01*
X180772000Y-110686001D02*
X180772000Y-109785999D01*
G75*
G02*
X181021999Y-109536000I249999J0D01*
G01*
X181722001Y-109536000D01*
G75*
G02*
X181972000Y-109785999I0J-249999D01*
G01*
X181972000Y-110686001D01*
G75*
G02*
X181722001Y-110936000I-249999J0D01*
G01*
X181021999Y-110936000D01*
G75*
G02*
X180772000Y-110686001I0J249999D01*
G01*
G37*
D16*
X186182000Y-150088000D03*
X186182000Y-147588000D03*
X186182000Y-145088000D03*
X186182000Y-142588000D03*
X186182000Y-140088000D03*
X186182000Y-137588000D03*
X186182000Y-135088000D03*
G36*
G01*
X184632000Y-131688000D02*
X187732000Y-131688000D01*
G75*
G02*
X187982000Y-131938000I0J-250000D01*
G01*
X187982000Y-133238000D01*
G75*
G02*
X187732000Y-133488000I-250000J0D01*
G01*
X184632000Y-133488000D01*
G75*
G02*
X184382000Y-133238000I0J250000D01*
G01*
X184382000Y-131938000D01*
G75*
G02*
X184632000Y-131688000I250000J0D01*
G01*
G37*
X186182000Y-127762000D03*
X186182000Y-125262000D03*
X186182000Y-122762000D03*
X186182000Y-120262000D03*
X186182000Y-117762000D03*
X186182000Y-115262000D03*
X186182000Y-112762000D03*
G36*
G01*
X184632000Y-109362000D02*
X187732000Y-109362000D01*
G75*
G02*
X187982000Y-109612000I0J-250000D01*
G01*
X187982000Y-110912000D01*
G75*
G02*
X187732000Y-111162000I-250000J0D01*
G01*
X184632000Y-111162000D01*
G75*
G02*
X184382000Y-110912000I0J250000D01*
G01*
X184382000Y-109612000D01*
G75*
G02*
X184632000Y-109362000I250000J0D01*
G01*
G37*
X113919000Y-135281000D03*
X113919000Y-137781000D03*
X113919000Y-140281000D03*
X113919000Y-142781000D03*
X113919000Y-145281000D03*
X113919000Y-147781000D03*
X113919000Y-150281000D03*
G36*
G01*
X115469000Y-153681000D02*
X112369000Y-153681000D01*
G75*
G02*
X112119000Y-153431000I0J250000D01*
G01*
X112119000Y-152131000D01*
G75*
G02*
X112369000Y-151881000I250000J0D01*
G01*
X115469000Y-151881000D01*
G75*
G02*
X115719000Y-152131000I0J-250000D01*
G01*
X115719000Y-153431000D01*
G75*
G02*
X115469000Y-153681000I-250000J0D01*
G01*
G37*
D26*
X142450000Y-101990000D03*
D27*
X141200000Y-99500000D03*
X136700000Y-99500000D03*
D26*
X135440000Y-101990000D03*
D28*
X178308000Y-122729000D03*
X179258000Y-122729000D03*
X177358000Y-122729000D03*
X177358000Y-125429000D03*
X178308000Y-125429000D03*
X179258000Y-125429000D03*
X178181000Y-142541000D03*
X179131000Y-142541000D03*
X177231000Y-142541000D03*
X177231000Y-145241000D03*
X178181000Y-145241000D03*
X179131000Y-145241000D03*
X178435000Y-133651000D03*
X179385000Y-133651000D03*
X177485000Y-133651000D03*
X177485000Y-136351000D03*
X178435000Y-136351000D03*
X179385000Y-136351000D03*
X178689000Y-112188000D03*
X179639000Y-112188000D03*
X177739000Y-112188000D03*
X177739000Y-114888000D03*
X178689000Y-114888000D03*
X179639000Y-114888000D03*
X124206000Y-130048000D03*
X125156000Y-130048000D03*
X123256000Y-130048000D03*
X123256000Y-132748000D03*
X124206000Y-132748000D03*
X125156000Y-132748000D03*
G36*
G01*
X182518000Y-127577001D02*
X182518000Y-126676999D01*
G75*
G02*
X182767999Y-126427000I249999J0D01*
G01*
X183468001Y-126427000D01*
G75*
G02*
X183718000Y-126676999I0J-249999D01*
G01*
X183718000Y-127577001D01*
G75*
G02*
X183468001Y-127827000I-249999J0D01*
G01*
X182767999Y-127827000D01*
G75*
G02*
X182518000Y-127577001I0J249999D01*
G01*
G37*
G36*
G01*
X180518000Y-127577001D02*
X180518000Y-126676999D01*
G75*
G02*
X180767999Y-126427000I249999J0D01*
G01*
X181468001Y-126427000D01*
G75*
G02*
X181718000Y-126676999I0J-249999D01*
G01*
X181718000Y-127577001D01*
G75*
G02*
X181468001Y-127827000I-249999J0D01*
G01*
X180767999Y-127827000D01*
G75*
G02*
X180518000Y-127577001I0J249999D01*
G01*
G37*
G36*
G01*
X182518000Y-125037001D02*
X182518000Y-124136999D01*
G75*
G02*
X182767999Y-123887000I249999J0D01*
G01*
X183468001Y-123887000D01*
G75*
G02*
X183718000Y-124136999I0J-249999D01*
G01*
X183718000Y-125037001D01*
G75*
G02*
X183468001Y-125287000I-249999J0D01*
G01*
X182767999Y-125287000D01*
G75*
G02*
X182518000Y-125037001I0J249999D01*
G01*
G37*
G36*
G01*
X180518000Y-125037001D02*
X180518000Y-124136999D01*
G75*
G02*
X180767999Y-123887000I249999J0D01*
G01*
X181468001Y-123887000D01*
G75*
G02*
X181718000Y-124136999I0J-249999D01*
G01*
X181718000Y-125037001D01*
G75*
G02*
X181468001Y-125287000I-249999J0D01*
G01*
X180767999Y-125287000D01*
G75*
G02*
X180518000Y-125037001I0J249999D01*
G01*
G37*
G36*
G01*
X182518000Y-123068501D02*
X182518000Y-122168499D01*
G75*
G02*
X182767999Y-121918500I249999J0D01*
G01*
X183468001Y-121918500D01*
G75*
G02*
X183718000Y-122168499I0J-249999D01*
G01*
X183718000Y-123068501D01*
G75*
G02*
X183468001Y-123318500I-249999J0D01*
G01*
X182767999Y-123318500D01*
G75*
G02*
X182518000Y-123068501I0J249999D01*
G01*
G37*
G36*
G01*
X180518000Y-123068501D02*
X180518000Y-122168499D01*
G75*
G02*
X180767999Y-121918500I249999J0D01*
G01*
X181468001Y-121918500D01*
G75*
G02*
X181718000Y-122168499I0J-249999D01*
G01*
X181718000Y-123068501D01*
G75*
G02*
X181468001Y-123318500I-249999J0D01*
G01*
X180767999Y-123318500D01*
G75*
G02*
X180518000Y-123068501I0J249999D01*
G01*
G37*
G36*
G01*
X182518000Y-120274501D02*
X182518000Y-119374499D01*
G75*
G02*
X182767999Y-119124500I249999J0D01*
G01*
X183468001Y-119124500D01*
G75*
G02*
X183718000Y-119374499I0J-249999D01*
G01*
X183718000Y-120274501D01*
G75*
G02*
X183468001Y-120524500I-249999J0D01*
G01*
X182767999Y-120524500D01*
G75*
G02*
X182518000Y-120274501I0J249999D01*
G01*
G37*
G36*
G01*
X180518000Y-120274501D02*
X180518000Y-119374499D01*
G75*
G02*
X180767999Y-119124500I249999J0D01*
G01*
X181468001Y-119124500D01*
G75*
G02*
X181718000Y-119374499I0J-249999D01*
G01*
X181718000Y-120274501D01*
G75*
G02*
X181468001Y-120524500I-249999J0D01*
G01*
X180767999Y-120524500D01*
G75*
G02*
X180518000Y-120274501I0J249999D01*
G01*
G37*
G36*
G01*
X182391000Y-147389001D02*
X182391000Y-146488999D01*
G75*
G02*
X182640999Y-146239000I249999J0D01*
G01*
X183341001Y-146239000D01*
G75*
G02*
X183591000Y-146488999I0J-249999D01*
G01*
X183591000Y-147389001D01*
G75*
G02*
X183341001Y-147639000I-249999J0D01*
G01*
X182640999Y-147639000D01*
G75*
G02*
X182391000Y-147389001I0J249999D01*
G01*
G37*
G36*
G01*
X180391000Y-147389001D02*
X180391000Y-146488999D01*
G75*
G02*
X180640999Y-146239000I249999J0D01*
G01*
X181341001Y-146239000D01*
G75*
G02*
X181591000Y-146488999I0J-249999D01*
G01*
X181591000Y-147389001D01*
G75*
G02*
X181341001Y-147639000I-249999J0D01*
G01*
X180640999Y-147639000D01*
G75*
G02*
X180391000Y-147389001I0J249999D01*
G01*
G37*
G36*
G01*
X182391000Y-145357001D02*
X182391000Y-144456999D01*
G75*
G02*
X182640999Y-144207000I249999J0D01*
G01*
X183341001Y-144207000D01*
G75*
G02*
X183591000Y-144456999I0J-249999D01*
G01*
X183591000Y-145357001D01*
G75*
G02*
X183341001Y-145607000I-249999J0D01*
G01*
X182640999Y-145607000D01*
G75*
G02*
X182391000Y-145357001I0J249999D01*
G01*
G37*
G36*
G01*
X180391000Y-145357001D02*
X180391000Y-144456999D01*
G75*
G02*
X180640999Y-144207000I249999J0D01*
G01*
X181341001Y-144207000D01*
G75*
G02*
X181591000Y-144456999I0J-249999D01*
G01*
X181591000Y-145357001D01*
G75*
G02*
X181341001Y-145607000I-249999J0D01*
G01*
X180640999Y-145607000D01*
G75*
G02*
X180391000Y-145357001I0J249999D01*
G01*
G37*
G36*
G01*
X182391000Y-143325001D02*
X182391000Y-142424999D01*
G75*
G02*
X182640999Y-142175000I249999J0D01*
G01*
X183341001Y-142175000D01*
G75*
G02*
X183591000Y-142424999I0J-249999D01*
G01*
X183591000Y-143325001D01*
G75*
G02*
X183341001Y-143575000I-249999J0D01*
G01*
X182640999Y-143575000D01*
G75*
G02*
X182391000Y-143325001I0J249999D01*
G01*
G37*
G36*
G01*
X180391000Y-143325001D02*
X180391000Y-142424999D01*
G75*
G02*
X180640999Y-142175000I249999J0D01*
G01*
X181341001Y-142175000D01*
G75*
G02*
X181591000Y-142424999I0J-249999D01*
G01*
X181591000Y-143325001D01*
G75*
G02*
X181341001Y-143575000I-249999J0D01*
G01*
X180640999Y-143575000D01*
G75*
G02*
X180391000Y-143325001I0J249999D01*
G01*
G37*
G36*
G01*
X182391000Y-141293001D02*
X182391000Y-140392999D01*
G75*
G02*
X182640999Y-140143000I249999J0D01*
G01*
X183341001Y-140143000D01*
G75*
G02*
X183591000Y-140392999I0J-249999D01*
G01*
X183591000Y-141293001D01*
G75*
G02*
X183341001Y-141543000I-249999J0D01*
G01*
X182640999Y-141543000D01*
G75*
G02*
X182391000Y-141293001I0J249999D01*
G01*
G37*
G36*
G01*
X180391000Y-141293001D02*
X180391000Y-140392999D01*
G75*
G02*
X180640999Y-140143000I249999J0D01*
G01*
X181341001Y-140143000D01*
G75*
G02*
X181591000Y-140392999I0J-249999D01*
G01*
X181591000Y-141293001D01*
G75*
G02*
X181341001Y-141543000I-249999J0D01*
G01*
X180640999Y-141543000D01*
G75*
G02*
X180391000Y-141293001I0J249999D01*
G01*
G37*
G36*
G01*
X182518000Y-139388001D02*
X182518000Y-138487999D01*
G75*
G02*
X182767999Y-138238000I249999J0D01*
G01*
X183468001Y-138238000D01*
G75*
G02*
X183718000Y-138487999I0J-249999D01*
G01*
X183718000Y-139388001D01*
G75*
G02*
X183468001Y-139638000I-249999J0D01*
G01*
X182767999Y-139638000D01*
G75*
G02*
X182518000Y-139388001I0J249999D01*
G01*
G37*
G36*
G01*
X180518000Y-139388001D02*
X180518000Y-138487999D01*
G75*
G02*
X180767999Y-138238000I249999J0D01*
G01*
X181468001Y-138238000D01*
G75*
G02*
X181718000Y-138487999I0J-249999D01*
G01*
X181718000Y-139388001D01*
G75*
G02*
X181468001Y-139638000I-249999J0D01*
G01*
X180767999Y-139638000D01*
G75*
G02*
X180518000Y-139388001I0J249999D01*
G01*
G37*
G36*
G01*
X182518000Y-136086001D02*
X182518000Y-135185999D01*
G75*
G02*
X182767999Y-134936000I249999J0D01*
G01*
X183468001Y-134936000D01*
G75*
G02*
X183718000Y-135185999I0J-249999D01*
G01*
X183718000Y-136086001D01*
G75*
G02*
X183468001Y-136336000I-249999J0D01*
G01*
X182767999Y-136336000D01*
G75*
G02*
X182518000Y-136086001I0J249999D01*
G01*
G37*
G36*
G01*
X180518000Y-136086001D02*
X180518000Y-135185999D01*
G75*
G02*
X180767999Y-134936000I249999J0D01*
G01*
X181468001Y-134936000D01*
G75*
G02*
X181718000Y-135185999I0J-249999D01*
G01*
X181718000Y-136086001D01*
G75*
G02*
X181468001Y-136336000I-249999J0D01*
G01*
X180767999Y-136336000D01*
G75*
G02*
X180518000Y-136086001I0J249999D01*
G01*
G37*
G36*
G01*
X139830000Y-132022001D02*
X139830000Y-131121999D01*
G75*
G02*
X140079999Y-130872000I249999J0D01*
G01*
X140780001Y-130872000D01*
G75*
G02*
X141030000Y-131121999I0J-249999D01*
G01*
X141030000Y-132022001D01*
G75*
G02*
X140780001Y-132272000I-249999J0D01*
G01*
X140079999Y-132272000D01*
G75*
G02*
X139830000Y-132022001I0J249999D01*
G01*
G37*
G36*
G01*
X137830000Y-132022001D02*
X137830000Y-131121999D01*
G75*
G02*
X138079999Y-130872000I249999J0D01*
G01*
X138780001Y-130872000D01*
G75*
G02*
X139030000Y-131121999I0J-249999D01*
G01*
X139030000Y-132022001D01*
G75*
G02*
X138780001Y-132272000I-249999J0D01*
G01*
X138079999Y-132272000D01*
G75*
G02*
X137830000Y-132022001I0J249999D01*
G01*
G37*
G36*
G01*
X139846000Y-129990001D02*
X139846000Y-129089999D01*
G75*
G02*
X140095999Y-128840000I249999J0D01*
G01*
X140796001Y-128840000D01*
G75*
G02*
X141046000Y-129089999I0J-249999D01*
G01*
X141046000Y-129990001D01*
G75*
G02*
X140796001Y-130240000I-249999J0D01*
G01*
X140095999Y-130240000D01*
G75*
G02*
X139846000Y-129990001I0J249999D01*
G01*
G37*
G36*
G01*
X137846000Y-129990001D02*
X137846000Y-129089999D01*
G75*
G02*
X138095999Y-128840000I249999J0D01*
G01*
X138796001Y-128840000D01*
G75*
G02*
X139046000Y-129089999I0J-249999D01*
G01*
X139046000Y-129990001D01*
G75*
G02*
X138796001Y-130240000I-249999J0D01*
G01*
X138095999Y-130240000D01*
G75*
G02*
X137846000Y-129990001I0J249999D01*
G01*
G37*
D29*
X121706000Y-127127000D03*
X126706000Y-127127000D03*
G36*
G01*
X175075000Y-126903500D02*
X175075000Y-125953500D01*
G75*
G02*
X175325000Y-125703500I250000J0D01*
G01*
X176000000Y-125703500D01*
G75*
G02*
X176250000Y-125953500I0J-250000D01*
G01*
X176250000Y-126903500D01*
G75*
G02*
X176000000Y-127153500I-250000J0D01*
G01*
X175325000Y-127153500D01*
G75*
G02*
X175075000Y-126903500I0J250000D01*
G01*
G37*
G36*
G01*
X173000000Y-126903500D02*
X173000000Y-125953500D01*
G75*
G02*
X173250000Y-125703500I250000J0D01*
G01*
X173925000Y-125703500D01*
G75*
G02*
X174175000Y-125953500I0J-250000D01*
G01*
X174175000Y-126903500D01*
G75*
G02*
X173925000Y-127153500I-250000J0D01*
G01*
X173250000Y-127153500D01*
G75*
G02*
X173000000Y-126903500I0J250000D01*
G01*
G37*
G36*
G01*
X175075000Y-122966500D02*
X175075000Y-122016500D01*
G75*
G02*
X175325000Y-121766500I250000J0D01*
G01*
X176000000Y-121766500D01*
G75*
G02*
X176250000Y-122016500I0J-250000D01*
G01*
X176250000Y-122966500D01*
G75*
G02*
X176000000Y-123216500I-250000J0D01*
G01*
X175325000Y-123216500D01*
G75*
G02*
X175075000Y-122966500I0J250000D01*
G01*
G37*
G36*
G01*
X173000000Y-122966500D02*
X173000000Y-122016500D01*
G75*
G02*
X173250000Y-121766500I250000J0D01*
G01*
X173925000Y-121766500D01*
G75*
G02*
X174175000Y-122016500I0J-250000D01*
G01*
X174175000Y-122966500D01*
G75*
G02*
X173925000Y-123216500I-250000J0D01*
G01*
X173250000Y-123216500D01*
G75*
G02*
X173000000Y-122966500I0J250000D01*
G01*
G37*
G36*
G01*
X165550000Y-140238500D02*
X165550000Y-139288500D01*
G75*
G02*
X165800000Y-139038500I250000J0D01*
G01*
X166475000Y-139038500D01*
G75*
G02*
X166725000Y-139288500I0J-250000D01*
G01*
X166725000Y-140238500D01*
G75*
G02*
X166475000Y-140488500I-250000J0D01*
G01*
X165800000Y-140488500D01*
G75*
G02*
X165550000Y-140238500I0J250000D01*
G01*
G37*
G36*
G01*
X163475000Y-140238500D02*
X163475000Y-139288500D01*
G75*
G02*
X163725000Y-139038500I250000J0D01*
G01*
X164400000Y-139038500D01*
G75*
G02*
X164650000Y-139288500I0J-250000D01*
G01*
X164650000Y-140238500D01*
G75*
G02*
X164400000Y-140488500I-250000J0D01*
G01*
X163725000Y-140488500D01*
G75*
G02*
X163475000Y-140238500I0J250000D01*
G01*
G37*
G36*
G01*
X165550000Y-138206500D02*
X165550000Y-137256500D01*
G75*
G02*
X165800000Y-137006500I250000J0D01*
G01*
X166475000Y-137006500D01*
G75*
G02*
X166725000Y-137256500I0J-250000D01*
G01*
X166725000Y-138206500D01*
G75*
G02*
X166475000Y-138456500I-250000J0D01*
G01*
X165800000Y-138456500D01*
G75*
G02*
X165550000Y-138206500I0J250000D01*
G01*
G37*
G36*
G01*
X163475000Y-138206500D02*
X163475000Y-137256500D01*
G75*
G02*
X163725000Y-137006500I250000J0D01*
G01*
X164400000Y-137006500D01*
G75*
G02*
X164650000Y-137256500I0J-250000D01*
G01*
X164650000Y-138206500D01*
G75*
G02*
X164400000Y-138456500I-250000J0D01*
G01*
X163725000Y-138456500D01*
G75*
G02*
X163475000Y-138206500I0J250000D01*
G01*
G37*
G36*
G01*
X165550000Y-136174500D02*
X165550000Y-135224500D01*
G75*
G02*
X165800000Y-134974500I250000J0D01*
G01*
X166475000Y-134974500D01*
G75*
G02*
X166725000Y-135224500I0J-250000D01*
G01*
X166725000Y-136174500D01*
G75*
G02*
X166475000Y-136424500I-250000J0D01*
G01*
X165800000Y-136424500D01*
G75*
G02*
X165550000Y-136174500I0J250000D01*
G01*
G37*
G36*
G01*
X163475000Y-136174500D02*
X163475000Y-135224500D01*
G75*
G02*
X163725000Y-134974500I250000J0D01*
G01*
X164400000Y-134974500D01*
G75*
G02*
X164650000Y-135224500I0J-250000D01*
G01*
X164650000Y-136174500D01*
G75*
G02*
X164400000Y-136424500I-250000J0D01*
G01*
X163725000Y-136424500D01*
G75*
G02*
X163475000Y-136174500I0J250000D01*
G01*
G37*
G36*
G01*
X165550000Y-134079000D02*
X165550000Y-133129000D01*
G75*
G02*
X165800000Y-132879000I250000J0D01*
G01*
X166475000Y-132879000D01*
G75*
G02*
X166725000Y-133129000I0J-250000D01*
G01*
X166725000Y-134079000D01*
G75*
G02*
X166475000Y-134329000I-250000J0D01*
G01*
X165800000Y-134329000D01*
G75*
G02*
X165550000Y-134079000I0J250000D01*
G01*
G37*
G36*
G01*
X163475000Y-134079000D02*
X163475000Y-133129000D01*
G75*
G02*
X163725000Y-132879000I250000J0D01*
G01*
X164400000Y-132879000D01*
G75*
G02*
X164650000Y-133129000I0J-250000D01*
G01*
X164650000Y-134079000D01*
G75*
G02*
X164400000Y-134329000I-250000J0D01*
G01*
X163725000Y-134329000D01*
G75*
G02*
X163475000Y-134079000I0J250000D01*
G01*
G37*
G36*
G01*
X175075000Y-133317000D02*
X175075000Y-132367000D01*
G75*
G02*
X175325000Y-132117000I250000J0D01*
G01*
X176000000Y-132117000D01*
G75*
G02*
X176250000Y-132367000I0J-250000D01*
G01*
X176250000Y-133317000D01*
G75*
G02*
X176000000Y-133567000I-250000J0D01*
G01*
X175325000Y-133567000D01*
G75*
G02*
X175075000Y-133317000I0J250000D01*
G01*
G37*
G36*
G01*
X173000000Y-133317000D02*
X173000000Y-132367000D01*
G75*
G02*
X173250000Y-132117000I250000J0D01*
G01*
X173925000Y-132117000D01*
G75*
G02*
X174175000Y-132367000I0J-250000D01*
G01*
X174175000Y-133317000D01*
G75*
G02*
X173925000Y-133567000I-250000J0D01*
G01*
X173250000Y-133567000D01*
G75*
G02*
X173000000Y-133317000I0J250000D01*
G01*
G37*
G36*
G01*
X175075000Y-130840500D02*
X175075000Y-129890500D01*
G75*
G02*
X175325000Y-129640500I250000J0D01*
G01*
X176000000Y-129640500D01*
G75*
G02*
X176250000Y-129890500I0J-250000D01*
G01*
X176250000Y-130840500D01*
G75*
G02*
X176000000Y-131090500I-250000J0D01*
G01*
X175325000Y-131090500D01*
G75*
G02*
X175075000Y-130840500I0J250000D01*
G01*
G37*
G36*
G01*
X173000000Y-130840500D02*
X173000000Y-129890500D01*
G75*
G02*
X173250000Y-129640500I250000J0D01*
G01*
X173925000Y-129640500D01*
G75*
G02*
X174175000Y-129890500I0J-250000D01*
G01*
X174175000Y-130840500D01*
G75*
G02*
X173925000Y-131090500I-250000J0D01*
G01*
X173250000Y-131090500D01*
G75*
G02*
X173000000Y-130840500I0J250000D01*
G01*
G37*
G36*
G01*
X175075000Y-116553000D02*
X175075000Y-115603000D01*
G75*
G02*
X175325000Y-115353000I250000J0D01*
G01*
X176000000Y-115353000D01*
G75*
G02*
X176250000Y-115603000I0J-250000D01*
G01*
X176250000Y-116553000D01*
G75*
G02*
X176000000Y-116803000I-250000J0D01*
G01*
X175325000Y-116803000D01*
G75*
G02*
X175075000Y-116553000I0J250000D01*
G01*
G37*
G36*
G01*
X173000000Y-116553000D02*
X173000000Y-115603000D01*
G75*
G02*
X173250000Y-115353000I250000J0D01*
G01*
X173925000Y-115353000D01*
G75*
G02*
X174175000Y-115603000I0J-250000D01*
G01*
X174175000Y-116553000D01*
G75*
G02*
X173925000Y-116803000I-250000J0D01*
G01*
X173250000Y-116803000D01*
G75*
G02*
X173000000Y-116553000I0J250000D01*
G01*
G37*
G36*
G01*
X175075000Y-114584500D02*
X175075000Y-113634500D01*
G75*
G02*
X175325000Y-113384500I250000J0D01*
G01*
X176000000Y-113384500D01*
G75*
G02*
X176250000Y-113634500I0J-250000D01*
G01*
X176250000Y-114584500D01*
G75*
G02*
X176000000Y-114834500I-250000J0D01*
G01*
X175325000Y-114834500D01*
G75*
G02*
X175075000Y-114584500I0J250000D01*
G01*
G37*
G36*
G01*
X173000000Y-114584500D02*
X173000000Y-113634500D01*
G75*
G02*
X173250000Y-113384500I250000J0D01*
G01*
X173925000Y-113384500D01*
G75*
G02*
X174175000Y-113634500I0J-250000D01*
G01*
X174175000Y-114584500D01*
G75*
G02*
X173925000Y-114834500I-250000J0D01*
G01*
X173250000Y-114834500D01*
G75*
G02*
X173000000Y-114584500I0J250000D01*
G01*
G37*
G36*
G01*
X175075000Y-112616000D02*
X175075000Y-111666000D01*
G75*
G02*
X175325000Y-111416000I250000J0D01*
G01*
X176000000Y-111416000D01*
G75*
G02*
X176250000Y-111666000I0J-250000D01*
G01*
X176250000Y-112616000D01*
G75*
G02*
X176000000Y-112866000I-250000J0D01*
G01*
X175325000Y-112866000D01*
G75*
G02*
X175075000Y-112616000I0J250000D01*
G01*
G37*
G36*
G01*
X173000000Y-112616000D02*
X173000000Y-111666000D01*
G75*
G02*
X173250000Y-111416000I250000J0D01*
G01*
X173925000Y-111416000D01*
G75*
G02*
X174175000Y-111666000I0J-250000D01*
G01*
X174175000Y-112616000D01*
G75*
G02*
X173925000Y-112866000I-250000J0D01*
G01*
X173250000Y-112866000D01*
G75*
G02*
X173000000Y-112616000I0J250000D01*
G01*
G37*
G36*
G01*
X138778000Y-126169000D02*
X137828000Y-126169000D01*
G75*
G02*
X137578000Y-125919000I0J250000D01*
G01*
X137578000Y-125244000D01*
G75*
G02*
X137828000Y-124994000I250000J0D01*
G01*
X138778000Y-124994000D01*
G75*
G02*
X139028000Y-125244000I0J-250000D01*
G01*
X139028000Y-125919000D01*
G75*
G02*
X138778000Y-126169000I-250000J0D01*
G01*
G37*
G36*
G01*
X138778000Y-128244000D02*
X137828000Y-128244000D01*
G75*
G02*
X137578000Y-127994000I0J250000D01*
G01*
X137578000Y-127319000D01*
G75*
G02*
X137828000Y-127069000I250000J0D01*
G01*
X138778000Y-127069000D01*
G75*
G02*
X139028000Y-127319000I0J-250000D01*
G01*
X139028000Y-127994000D01*
G75*
G02*
X138778000Y-128244000I-250000J0D01*
G01*
G37*
G36*
G01*
X141112001Y-125084000D02*
X139811999Y-125084000D01*
G75*
G02*
X139562000Y-124834001I0J249999D01*
G01*
X139562000Y-124008999D01*
G75*
G02*
X139811999Y-123759000I249999J0D01*
G01*
X141112001Y-123759000D01*
G75*
G02*
X141362000Y-124008999I0J-249999D01*
G01*
X141362000Y-124834001D01*
G75*
G02*
X141112001Y-125084000I-249999J0D01*
G01*
G37*
G36*
G01*
X141112001Y-128209000D02*
X139811999Y-128209000D01*
G75*
G02*
X139562000Y-127959001I0J249999D01*
G01*
X139562000Y-127133999D01*
G75*
G02*
X139811999Y-126884000I249999J0D01*
G01*
X141112001Y-126884000D01*
G75*
G02*
X141362000Y-127133999I0J-249999D01*
G01*
X141362000Y-127959001D01*
G75*
G02*
X141112001Y-128209000I-249999J0D01*
G01*
G37*
G36*
G01*
X126652000Y-131768000D02*
X127602000Y-131768000D01*
G75*
G02*
X127852000Y-132018000I0J-250000D01*
G01*
X127852000Y-132693000D01*
G75*
G02*
X127602000Y-132943000I-250000J0D01*
G01*
X126652000Y-132943000D01*
G75*
G02*
X126402000Y-132693000I0J250000D01*
G01*
X126402000Y-132018000D01*
G75*
G02*
X126652000Y-131768000I250000J0D01*
G01*
G37*
G36*
G01*
X126652000Y-129693000D02*
X127602000Y-129693000D01*
G75*
G02*
X127852000Y-129943000I0J-250000D01*
G01*
X127852000Y-130618000D01*
G75*
G02*
X127602000Y-130868000I-250000J0D01*
G01*
X126652000Y-130868000D01*
G75*
G02*
X126402000Y-130618000I0J250000D01*
G01*
X126402000Y-129943000D01*
G75*
G02*
X126652000Y-129693000I250000J0D01*
G01*
G37*
G36*
G01*
X126757000Y-124729001D02*
X126757000Y-123428999D01*
G75*
G02*
X127006999Y-123179000I249999J0D01*
G01*
X127832001Y-123179000D01*
G75*
G02*
X128082000Y-123428999I0J-249999D01*
G01*
X128082000Y-124729001D01*
G75*
G02*
X127832001Y-124979000I-249999J0D01*
G01*
X127006999Y-124979000D01*
G75*
G02*
X126757000Y-124729001I0J249999D01*
G01*
G37*
G36*
G01*
X123632000Y-124729001D02*
X123632000Y-123428999D01*
G75*
G02*
X123881999Y-123179000I249999J0D01*
G01*
X124707001Y-123179000D01*
G75*
G02*
X124957000Y-123428999I0J-249999D01*
G01*
X124957000Y-124729001D01*
G75*
G02*
X124707001Y-124979000I-249999J0D01*
G01*
X123881999Y-124979000D01*
G75*
G02*
X123632000Y-124729001I0J249999D01*
G01*
G37*
G36*
G01*
X169529999Y-114819000D02*
X170830001Y-114819000D01*
G75*
G02*
X171080000Y-115068999I0J-249999D01*
G01*
X171080000Y-115894001D01*
G75*
G02*
X170830001Y-116144000I-249999J0D01*
G01*
X169529999Y-116144000D01*
G75*
G02*
X169280000Y-115894001I0J249999D01*
G01*
X169280000Y-115068999D01*
G75*
G02*
X169529999Y-114819000I249999J0D01*
G01*
G37*
G36*
G01*
X169529999Y-111694000D02*
X170830001Y-111694000D01*
G75*
G02*
X171080000Y-111943999I0J-249999D01*
G01*
X171080000Y-112769001D01*
G75*
G02*
X170830001Y-113019000I-249999J0D01*
G01*
X169529999Y-113019000D01*
G75*
G02*
X169280000Y-112769001I0J249999D01*
G01*
X169280000Y-111943999D01*
G75*
G02*
X169529999Y-111694000I249999J0D01*
G01*
G37*
G36*
G01*
X170147000Y-109024000D02*
X169197000Y-109024000D01*
G75*
G02*
X168947000Y-108774000I0J250000D01*
G01*
X168947000Y-108099000D01*
G75*
G02*
X169197000Y-107849000I250000J0D01*
G01*
X170147000Y-107849000D01*
G75*
G02*
X170397000Y-108099000I0J-250000D01*
G01*
X170397000Y-108774000D01*
G75*
G02*
X170147000Y-109024000I-250000J0D01*
G01*
G37*
G36*
G01*
X170147000Y-111099000D02*
X169197000Y-111099000D01*
G75*
G02*
X168947000Y-110849000I0J250000D01*
G01*
X168947000Y-110174000D01*
G75*
G02*
X169197000Y-109924000I250000J0D01*
G01*
X170147000Y-109924000D01*
G75*
G02*
X170397000Y-110174000I0J-250000D01*
G01*
X170397000Y-110849000D01*
G75*
G02*
X170147000Y-111099000I-250000J0D01*
G01*
G37*
M02*
