0
SECTION
2
HEADER
9
$INSUNITS
70
4
9
$ACADVER
1
AC1014
9
$HANDSEED
5
FFFF
0
ENDSEC
0
SECTION
2
TABLES
0
TABLE
2
VPORT
5
8
100
AcDbSymbolTable
0
ENDTAB
0
TABLE
2
LTYPE
5
5
100
AcDbSymbolTable
0
LTYPE
5
14
100
AcDbSymbolTableRecord
100
AcDbLinetypeTableRecord
2
BYBLOCK
70
0
0
LTYPE
5
15
100
AcDbSymbolTableRecord
100
AcDbLinetypeTableRecord
2
BYLAYER
70
0
0
ENDTAB
0
TABLE
2
LAYER
5
2
100
AcDbSymbolTable
70
2
0
LAYER
5
50
100
AcDbSymbolTableRecord
100
AcDbLayerTableRecord
2
0
70
0
6
CONTINUOUS
0
ENDTAB
0
TABLE
2
STYLE
5
3
100
AcDbSymbolTable
70
1
0
STYLE
5
11
100
AcDbSymbolTableRecord
100
AcDbTextStyleTableRecord
2
STANDARD
70
0
0
ENDTAB
0
TABLE
2
VIEW
5
6
100
AcDbSymbolTable
70
0
0
ENDTAB
0
TABLE
2
UCS
5
7
100
AcDbSymbolTable
70
0
0
ENDTAB
0
TABLE
2
APPID
5
9
100
AcDbSymbolTable
70
2
0
APPID
5
12
100
AcDbSymbolTableRecord
100
AcDbRegAppTableRecord
2
ACAD
70
0
0
ENDTAB
0
TABLE
2
DIMSTYLE
5
A
100
AcDbSymbolTable
70
1
0
ENDTAB
0
TABLE
2
BLOCK_RECORD
5
1
100
AcDbSymbolTable
70
1
0
BLOCK_RECORD
5
1F
100
AcDbSymbolTableRecord
100
AcDbBlockTableRecord
2
*MODEL_SPACE
0
BLOCK_RECORD
5
1B
100
AcDbSymbolTableRecord
100
AcDbBlockTableRecord
2
*PAPER_SPACE
0
ENDTAB
0
ENDSEC
0
SECTION
2
BLOCKS
0
BLOCK
5
20
100
AcDbEntity
100
AcDbBlockBegin
2
*MODEL_SPACE
0
ENDBLK
5
21
100
AcDbEntity
100
AcDbBlockEnd
0
BLOCK
5
1C
100
AcDbEntity
100
AcDbBlockBegin
2
*PAPER_SPACE
0
ENDBLK
5
1D
100
AcDbEntity
100
AcDbBlockEnd
0
ENDSEC
0
SECTION
2
ENTITIES
0
LWPOLYLINE
5
100
100
AcDbEntity
8
0
100
AcDbPolyline
90
15
70
1
43
0.0
10
-30.054269443373833
20
-1.4999974500281177
10
-17.499999999999854
20
-1.5000027855336009
10
2.3876002286371545e-07
20
-1.4999999999999813
10
19.000000000000053
20
-1.5000000000000002
10
19.000000000000092
20
5.5000000000000089
10
44.999999999999972
20
5.500000000000167
10
45.000000000000242
20
-42.499999999999844
10
21.000000000000231
20
-42.500000000000128
10
21.00000000000032
20
-53.499999999999872
10
-20.999999999999673
20
-53.500000000000114
10
-20.999999999999748
20
-42.500000000000604
10
-44.999999999999744
20
-42.500000000000817
10
-44.999999999999702
20
3.0000000000010019
10
-30.054267955890637
20
3.0000000000010103
10
-30.054268380885528
20
1.0000025499716565
0
LWPOLYLINE
5
101
100
AcDbEntity
8
0
100
AcDbPolyline
90
15
70
1
43
0.0
10
19.250000000000092
20
5.2500000000000107
10
44.749999999999972
20
5.2500000000001634
10
44.750000000000234
20
-42.249999999999837
10
20.750000000000234
20
-42.250000000000121
10
20.750000000000313
20
-53.249999999999872
10
-20.749999999999673
20
-53.250000000000107
10
-20.749999999999748
20
-42.250000000000597
10
-44.749999999999737
20
-42.25000000000081
10
-44.749999999999694
20
2.7500000000010019
10
-30.304268009015072
20
2.7500000000010094
10
-30.304268380885503
20
1.0000026562204869
10
-30.304269549622642
20
-1.7499973437792706
10
-17.499999960206519
20
-1.7500027855335978
10
2.3876002286371545e-07
20
-1.7499999999999813
10
19.25000000000005
20
-1.7500000000000004
0
CIRCLE
5
102
100
AcDbEntity
8
0
100
AcDbCircle
10
-30.054268380885528
20
1.0000025499716565
30
0
40
1.2
210
0
220
0
230
1
0
CIRCLE
5
103
100
AcDbEntity
8
0
100
AcDbCircle
10
-23.500000350177288
20
-41.50000061839819
30
0
40
1.2000000000000011
210
0
220
0
230
1
0
CIRCLE
5
104
100
AcDbEntity
8
0
100
AcDbCircle
10
23.499999474734068
20
-41.499999072402716
30
0
40
1.2000000000000011
210
0
220
0
230
1
0
CIRCLE
5
105
100
AcDbEntity
8
0
100
AcDbCircle
10
18.500000275671482
20
4.5000000670552254
30
0
40
1.2
210
0
220
0
230
1
0
ENDSEC
0
SECTION
2
OBJECTS
0
DICTIONARY
5
C
100
AcDbDictionary
3
ACAD_GROUP
350
D
3
ACAD_MLINESTYLE
350
17
0
DICTIONARY
5
D
100
AcDbDictionary
0
DICTIONARY
5
1A
330
C
100
AcDbDictionary
0
DICTIONARY
5
17
100
AcDbDictionary
0
ENDSEC
0
EOF
