G04 #@! TF.GenerationSoftware,KiCad,Pcbnew,(5.1.8)-1*
G04 #@! TF.CreationDate,2021-11-25T19:50:33+01:00*
G04 #@! TF.ProjectId,sensactHsNano2,73656e73-6163-4744-9873-4e616e6f322e,rev?*
G04 #@! TF.SameCoordinates,Original*
G04 #@! TF.FileFunction,Paste,Top*
G04 #@! TF.FilePolarity,Positive*
%FSLAX46Y46*%
G04 Gerber Fmt 4.6, Leading zero omitted, Abs format (unit mm)*
G04 Created by KiCad (PCBNEW (5.1.8)-1) date 2021-11-25 19:50:33*
%MOMM*%
%LPD*%
G01*
G04 APERTURE LIST*
%ADD10R,0.700000X2.000000*%
%ADD11R,2.000000X0.800000*%
%ADD12R,3.500000X2.300000*%
%ADD13R,2.000000X0.700000*%
%ADD14R,0.800000X2.000000*%
%ADD15R,1.900000X0.800000*%
G04 APERTURE END LIST*
G36*
G01*
X157601500Y-130843000D02*
X157601500Y-131793000D01*
G75*
G02*
X157351500Y-132043000I-250000J0D01*
G01*
X156676500Y-132043000D01*
G75*
G02*
X156426500Y-131793000I0J250000D01*
G01*
X156426500Y-130843000D01*
G75*
G02*
X156676500Y-130593000I250000J0D01*
G01*
X157351500Y-130593000D01*
G75*
G02*
X157601500Y-130843000I0J-250000D01*
G01*
G37*
G36*
G01*
X159676500Y-130843000D02*
X159676500Y-131793000D01*
G75*
G02*
X159426500Y-132043000I-250000J0D01*
G01*
X158751500Y-132043000D01*
G75*
G02*
X158501500Y-131793000I0J250000D01*
G01*
X158501500Y-130843000D01*
G75*
G02*
X158751500Y-130593000I250000J0D01*
G01*
X159426500Y-130593000D01*
G75*
G02*
X159676500Y-130843000I0J-250000D01*
G01*
G37*
G36*
G01*
X162134500Y-117036001D02*
X162134500Y-116135999D01*
G75*
G02*
X162384499Y-115886000I249999J0D01*
G01*
X163084501Y-115886000D01*
G75*
G02*
X163334500Y-116135999I0J-249999D01*
G01*
X163334500Y-117036001D01*
G75*
G02*
X163084501Y-117286000I-249999J0D01*
G01*
X162384499Y-117286000D01*
G75*
G02*
X162134500Y-117036001I0J249999D01*
G01*
G37*
G36*
G01*
X160134500Y-117036001D02*
X160134500Y-116135999D01*
G75*
G02*
X160384499Y-115886000I249999J0D01*
G01*
X161084501Y-115886000D01*
G75*
G02*
X161334500Y-116135999I0J-249999D01*
G01*
X161334500Y-117036001D01*
G75*
G02*
X161084501Y-117286000I-249999J0D01*
G01*
X160384499Y-117286000D01*
G75*
G02*
X160134500Y-117036001I0J249999D01*
G01*
G37*
G36*
G01*
X161334500Y-118104499D02*
X161334500Y-119004501D01*
G75*
G02*
X161084501Y-119254500I-249999J0D01*
G01*
X160384499Y-119254500D01*
G75*
G02*
X160134500Y-119004501I0J249999D01*
G01*
X160134500Y-118104499D01*
G75*
G02*
X160384499Y-117854500I249999J0D01*
G01*
X161084501Y-117854500D01*
G75*
G02*
X161334500Y-118104499I0J-249999D01*
G01*
G37*
G36*
G01*
X163334500Y-118104499D02*
X163334500Y-119004501D01*
G75*
G02*
X163084501Y-119254500I-249999J0D01*
G01*
X162384499Y-119254500D01*
G75*
G02*
X162134500Y-119004501I0J249999D01*
G01*
X162134500Y-118104499D01*
G75*
G02*
X162384499Y-117854500I249999J0D01*
G01*
X163084501Y-117854500D01*
G75*
G02*
X163334500Y-118104499I0J-249999D01*
G01*
G37*
G36*
G01*
X165436500Y-100145001D02*
X165436500Y-99244999D01*
G75*
G02*
X165686499Y-98995000I249999J0D01*
G01*
X166386501Y-98995000D01*
G75*
G02*
X166636500Y-99244999I0J-249999D01*
G01*
X166636500Y-100145001D01*
G75*
G02*
X166386501Y-100395000I-249999J0D01*
G01*
X165686499Y-100395000D01*
G75*
G02*
X165436500Y-100145001I0J249999D01*
G01*
G37*
G36*
G01*
X163436500Y-100145001D02*
X163436500Y-99244999D01*
G75*
G02*
X163686499Y-98995000I249999J0D01*
G01*
X164386501Y-98995000D01*
G75*
G02*
X164636500Y-99244999I0J-249999D01*
G01*
X164636500Y-100145001D01*
G75*
G02*
X164386501Y-100395000I-249999J0D01*
G01*
X163686499Y-100395000D01*
G75*
G02*
X163436500Y-100145001I0J249999D01*
G01*
G37*
G36*
G01*
X162960000Y-102304001D02*
X162960000Y-101403999D01*
G75*
G02*
X163209999Y-101154000I249999J0D01*
G01*
X163910001Y-101154000D01*
G75*
G02*
X164160000Y-101403999I0J-249999D01*
G01*
X164160000Y-102304001D01*
G75*
G02*
X163910001Y-102554000I-249999J0D01*
G01*
X163209999Y-102554000D01*
G75*
G02*
X162960000Y-102304001I0J249999D01*
G01*
G37*
G36*
G01*
X160960000Y-102304001D02*
X160960000Y-101403999D01*
G75*
G02*
X161209999Y-101154000I249999J0D01*
G01*
X161910001Y-101154000D01*
G75*
G02*
X162160000Y-101403999I0J-249999D01*
G01*
X162160000Y-102304001D01*
G75*
G02*
X161910001Y-102554000I-249999J0D01*
G01*
X161209999Y-102554000D01*
G75*
G02*
X160960000Y-102304001I0J249999D01*
G01*
G37*
D10*
X168250000Y-97680000D03*
X165250000Y-97680000D03*
X163750000Y-97680000D03*
D11*
X170150000Y-94570000D03*
X161850000Y-94570000D03*
X161850000Y-96780000D03*
X170150000Y-96780000D03*
G36*
G01*
X127679500Y-126422999D02*
X127679500Y-127323001D01*
G75*
G02*
X127429501Y-127573000I-249999J0D01*
G01*
X126729499Y-127573000D01*
G75*
G02*
X126479500Y-127323001I0J249999D01*
G01*
X126479500Y-126422999D01*
G75*
G02*
X126729499Y-126173000I249999J0D01*
G01*
X127429501Y-126173000D01*
G75*
G02*
X127679500Y-126422999I0J-249999D01*
G01*
G37*
G36*
G01*
X129679500Y-126422999D02*
X129679500Y-127323001D01*
G75*
G02*
X129429501Y-127573000I-249999J0D01*
G01*
X128729499Y-127573000D01*
G75*
G02*
X128479500Y-127323001I0J249999D01*
G01*
X128479500Y-126422999D01*
G75*
G02*
X128729499Y-126173000I249999J0D01*
G01*
X129429501Y-126173000D01*
G75*
G02*
X129679500Y-126422999I0J-249999D01*
G01*
G37*
G36*
G01*
X123819500Y-126398000D02*
X123819500Y-127348000D01*
G75*
G02*
X123569500Y-127598000I-250000J0D01*
G01*
X122894500Y-127598000D01*
G75*
G02*
X122644500Y-127348000I0J250000D01*
G01*
X122644500Y-126398000D01*
G75*
G02*
X122894500Y-126148000I250000J0D01*
G01*
X123569500Y-126148000D01*
G75*
G02*
X123819500Y-126398000I0J-250000D01*
G01*
G37*
G36*
G01*
X125894500Y-126398000D02*
X125894500Y-127348000D01*
G75*
G02*
X125644500Y-127598000I-250000J0D01*
G01*
X124969500Y-127598000D01*
G75*
G02*
X124719500Y-127348000I0J250000D01*
G01*
X124719500Y-126398000D01*
G75*
G02*
X124969500Y-126148000I250000J0D01*
G01*
X125644500Y-126148000D01*
G75*
G02*
X125894500Y-126398000I0J-250000D01*
G01*
G37*
D12*
X182976500Y-113588800D03*
X177576500Y-113588800D03*
G36*
G01*
X158799999Y-122150000D02*
X159700001Y-122150000D01*
G75*
G02*
X159950000Y-122399999I0J-249999D01*
G01*
X159950000Y-123100001D01*
G75*
G02*
X159700001Y-123350000I-249999J0D01*
G01*
X158799999Y-123350000D01*
G75*
G02*
X158550000Y-123100001I0J249999D01*
G01*
X158550000Y-122399999D01*
G75*
G02*
X158799999Y-122150000I249999J0D01*
G01*
G37*
G36*
G01*
X158799999Y-120150000D02*
X159700001Y-120150000D01*
G75*
G02*
X159950000Y-120399999I0J-249999D01*
G01*
X159950000Y-121100001D01*
G75*
G02*
X159700001Y-121350000I-249999J0D01*
G01*
X158799999Y-121350000D01*
G75*
G02*
X158550000Y-121100001I0J249999D01*
G01*
X158550000Y-120399999D01*
G75*
G02*
X158799999Y-120150000I249999J0D01*
G01*
G37*
G36*
G01*
X132099000Y-117099501D02*
X132099000Y-116199499D01*
G75*
G02*
X132348999Y-115949500I249999J0D01*
G01*
X133049001Y-115949500D01*
G75*
G02*
X133299000Y-116199499I0J-249999D01*
G01*
X133299000Y-117099501D01*
G75*
G02*
X133049001Y-117349500I-249999J0D01*
G01*
X132348999Y-117349500D01*
G75*
G02*
X132099000Y-117099501I0J249999D01*
G01*
G37*
G36*
G01*
X130099000Y-117099501D02*
X130099000Y-116199499D01*
G75*
G02*
X130348999Y-115949500I249999J0D01*
G01*
X131049001Y-115949500D01*
G75*
G02*
X131299000Y-116199499I0J-249999D01*
G01*
X131299000Y-117099501D01*
G75*
G02*
X131049001Y-117349500I-249999J0D01*
G01*
X130348999Y-117349500D01*
G75*
G02*
X130099000Y-117099501I0J249999D01*
G01*
G37*
G36*
G01*
X131299000Y-118167999D02*
X131299000Y-119068001D01*
G75*
G02*
X131049001Y-119318000I-249999J0D01*
G01*
X130348999Y-119318000D01*
G75*
G02*
X130099000Y-119068001I0J249999D01*
G01*
X130099000Y-118167999D01*
G75*
G02*
X130348999Y-117918000I249999J0D01*
G01*
X131049001Y-117918000D01*
G75*
G02*
X131299000Y-118167999I0J-249999D01*
G01*
G37*
G36*
G01*
X133299000Y-118167999D02*
X133299000Y-119068001D01*
G75*
G02*
X133049001Y-119318000I-249999J0D01*
G01*
X132348999Y-119318000D01*
G75*
G02*
X132099000Y-119068001I0J249999D01*
G01*
X132099000Y-118167999D01*
G75*
G02*
X132348999Y-117918000I249999J0D01*
G01*
X133049001Y-117918000D01*
G75*
G02*
X133299000Y-118167999I0J-249999D01*
G01*
G37*
G36*
G01*
X130219500Y-114167499D02*
X130219500Y-115067501D01*
G75*
G02*
X129969501Y-115317500I-249999J0D01*
G01*
X129269499Y-115317500D01*
G75*
G02*
X129019500Y-115067501I0J249999D01*
G01*
X129019500Y-114167499D01*
G75*
G02*
X129269499Y-113917500I249999J0D01*
G01*
X129969501Y-113917500D01*
G75*
G02*
X130219500Y-114167499I0J-249999D01*
G01*
G37*
G36*
G01*
X132219500Y-114167499D02*
X132219500Y-115067501D01*
G75*
G02*
X131969501Y-115317500I-249999J0D01*
G01*
X131269499Y-115317500D01*
G75*
G02*
X131019500Y-115067501I0J249999D01*
G01*
X131019500Y-114167499D01*
G75*
G02*
X131269499Y-113917500I249999J0D01*
G01*
X131969501Y-113917500D01*
G75*
G02*
X132219500Y-114167499I0J-249999D01*
G01*
G37*
G36*
G01*
X128264499Y-124034500D02*
X129164501Y-124034500D01*
G75*
G02*
X129414500Y-124284499I0J-249999D01*
G01*
X129414500Y-124984501D01*
G75*
G02*
X129164501Y-125234500I-249999J0D01*
G01*
X128264499Y-125234500D01*
G75*
G02*
X128014500Y-124984501I0J249999D01*
G01*
X128014500Y-124284499D01*
G75*
G02*
X128264499Y-124034500I249999J0D01*
G01*
G37*
G36*
G01*
X128264499Y-122034500D02*
X129164501Y-122034500D01*
G75*
G02*
X129414500Y-122284499I0J-249999D01*
G01*
X129414500Y-122984501D01*
G75*
G02*
X129164501Y-123234500I-249999J0D01*
G01*
X128264499Y-123234500D01*
G75*
G02*
X128014500Y-122984501I0J249999D01*
G01*
X128014500Y-122284499D01*
G75*
G02*
X128264499Y-122034500I249999J0D01*
G01*
G37*
G36*
G01*
X131133001Y-123234500D02*
X130232999Y-123234500D01*
G75*
G02*
X129983000Y-122984501I0J249999D01*
G01*
X129983000Y-122284499D01*
G75*
G02*
X130232999Y-122034500I249999J0D01*
G01*
X131133001Y-122034500D01*
G75*
G02*
X131383000Y-122284499I0J-249999D01*
G01*
X131383000Y-122984501D01*
G75*
G02*
X131133001Y-123234500I-249999J0D01*
G01*
G37*
G36*
G01*
X131133001Y-125234500D02*
X130232999Y-125234500D01*
G75*
G02*
X129983000Y-124984501I0J249999D01*
G01*
X129983000Y-124284499D01*
G75*
G02*
X130232999Y-124034500I249999J0D01*
G01*
X131133001Y-124034500D01*
G75*
G02*
X131383000Y-124284499I0J-249999D01*
G01*
X131383000Y-124984501D01*
G75*
G02*
X131133001Y-125234500I-249999J0D01*
G01*
G37*
G36*
G01*
X150299000Y-115476000D02*
X150299000Y-116426000D01*
G75*
G02*
X150049000Y-116676000I-250000J0D01*
G01*
X149374000Y-116676000D01*
G75*
G02*
X149124000Y-116426000I0J250000D01*
G01*
X149124000Y-115476000D01*
G75*
G02*
X149374000Y-115226000I250000J0D01*
G01*
X150049000Y-115226000D01*
G75*
G02*
X150299000Y-115476000I0J-250000D01*
G01*
G37*
G36*
G01*
X152374000Y-115476000D02*
X152374000Y-116426000D01*
G75*
G02*
X152124000Y-116676000I-250000J0D01*
G01*
X151449000Y-116676000D01*
G75*
G02*
X151199000Y-116426000I0J250000D01*
G01*
X151199000Y-115476000D01*
G75*
G02*
X151449000Y-115226000I250000J0D01*
G01*
X152124000Y-115226000D01*
G75*
G02*
X152374000Y-115476000I0J-250000D01*
G01*
G37*
G36*
G01*
X154159000Y-119310999D02*
X154159000Y-120211001D01*
G75*
G02*
X153909001Y-120461000I-249999J0D01*
G01*
X153208999Y-120461000D01*
G75*
G02*
X152959000Y-120211001I0J249999D01*
G01*
X152959000Y-119310999D01*
G75*
G02*
X153208999Y-119061000I249999J0D01*
G01*
X153909001Y-119061000D01*
G75*
G02*
X154159000Y-119310999I0J-249999D01*
G01*
G37*
G36*
G01*
X156159000Y-119310999D02*
X156159000Y-120211001D01*
G75*
G02*
X155909001Y-120461000I-249999J0D01*
G01*
X155208999Y-120461000D01*
G75*
G02*
X154959000Y-120211001I0J249999D01*
G01*
X154959000Y-119310999D01*
G75*
G02*
X155208999Y-119061000I249999J0D01*
G01*
X155909001Y-119061000D01*
G75*
G02*
X156159000Y-119310999I0J-249999D01*
G01*
G37*
G36*
G01*
X154159000Y-117405999D02*
X154159000Y-118306001D01*
G75*
G02*
X153909001Y-118556000I-249999J0D01*
G01*
X153208999Y-118556000D01*
G75*
G02*
X152959000Y-118306001I0J249999D01*
G01*
X152959000Y-117405999D01*
G75*
G02*
X153208999Y-117156000I249999J0D01*
G01*
X153909001Y-117156000D01*
G75*
G02*
X154159000Y-117405999I0J-249999D01*
G01*
G37*
G36*
G01*
X156159000Y-117405999D02*
X156159000Y-118306001D01*
G75*
G02*
X155909001Y-118556000I-249999J0D01*
G01*
X155208999Y-118556000D01*
G75*
G02*
X154959000Y-118306001I0J249999D01*
G01*
X154959000Y-117405999D01*
G75*
G02*
X155208999Y-117156000I249999J0D01*
G01*
X155909001Y-117156000D01*
G75*
G02*
X156159000Y-117405999I0J-249999D01*
G01*
G37*
G36*
G01*
X154159000Y-115500999D02*
X154159000Y-116401001D01*
G75*
G02*
X153909001Y-116651000I-249999J0D01*
G01*
X153208999Y-116651000D01*
G75*
G02*
X152959000Y-116401001I0J249999D01*
G01*
X152959000Y-115500999D01*
G75*
G02*
X153208999Y-115251000I249999J0D01*
G01*
X153909001Y-115251000D01*
G75*
G02*
X154159000Y-115500999I0J-249999D01*
G01*
G37*
G36*
G01*
X156159000Y-115500999D02*
X156159000Y-116401001D01*
G75*
G02*
X155909001Y-116651000I-249999J0D01*
G01*
X155208999Y-116651000D01*
G75*
G02*
X154959000Y-116401001I0J249999D01*
G01*
X154959000Y-115500999D01*
G75*
G02*
X155208999Y-115251000I249999J0D01*
G01*
X155909001Y-115251000D01*
G75*
G02*
X156159000Y-115500999I0J-249999D01*
G01*
G37*
G36*
G01*
X154159000Y-121215999D02*
X154159000Y-122116001D01*
G75*
G02*
X153909001Y-122366000I-249999J0D01*
G01*
X153208999Y-122366000D01*
G75*
G02*
X152959000Y-122116001I0J249999D01*
G01*
X152959000Y-121215999D01*
G75*
G02*
X153208999Y-120966000I249999J0D01*
G01*
X153909001Y-120966000D01*
G75*
G02*
X154159000Y-121215999I0J-249999D01*
G01*
G37*
G36*
G01*
X156159000Y-121215999D02*
X156159000Y-122116001D01*
G75*
G02*
X155909001Y-122366000I-249999J0D01*
G01*
X155208999Y-122366000D01*
G75*
G02*
X154959000Y-122116001I0J249999D01*
G01*
X154959000Y-121215999D01*
G75*
G02*
X155208999Y-120966000I249999J0D01*
G01*
X155909001Y-120966000D01*
G75*
G02*
X156159000Y-121215999I0J-249999D01*
G01*
G37*
G36*
G01*
X155937000Y-125025999D02*
X155937000Y-125926001D01*
G75*
G02*
X155687001Y-126176000I-249999J0D01*
G01*
X154986999Y-126176000D01*
G75*
G02*
X154737000Y-125926001I0J249999D01*
G01*
X154737000Y-125025999D01*
G75*
G02*
X154986999Y-124776000I249999J0D01*
G01*
X155687001Y-124776000D01*
G75*
G02*
X155937000Y-125025999I0J-249999D01*
G01*
G37*
G36*
G01*
X157937000Y-125025999D02*
X157937000Y-125926001D01*
G75*
G02*
X157687001Y-126176000I-249999J0D01*
G01*
X156986999Y-126176000D01*
G75*
G02*
X156737000Y-125926001I0J249999D01*
G01*
X156737000Y-125025999D01*
G75*
G02*
X156986999Y-124776000I249999J0D01*
G01*
X157687001Y-124776000D01*
G75*
G02*
X157937000Y-125025999I0J-249999D01*
G01*
G37*
G36*
G01*
X112986000Y-137647000D02*
X112986000Y-138197000D01*
G75*
G02*
X112786000Y-138397000I-200000J0D01*
G01*
X112386000Y-138397000D01*
G75*
G02*
X112186000Y-138197000I0J200000D01*
G01*
X112186000Y-137647000D01*
G75*
G02*
X112386000Y-137447000I200000J0D01*
G01*
X112786000Y-137447000D01*
G75*
G02*
X112986000Y-137647000I0J-200000D01*
G01*
G37*
G36*
G01*
X114636000Y-137647000D02*
X114636000Y-138197000D01*
G75*
G02*
X114436000Y-138397000I-200000J0D01*
G01*
X114036000Y-138397000D01*
G75*
G02*
X113836000Y-138197000I0J200000D01*
G01*
X113836000Y-137647000D01*
G75*
G02*
X114036000Y-137447000I200000J0D01*
G01*
X114436000Y-137447000D01*
G75*
G02*
X114636000Y-137647000I0J-200000D01*
G01*
G37*
G36*
G01*
X115930000Y-141268000D02*
X116480000Y-141268000D01*
G75*
G02*
X116680000Y-141468000I0J-200000D01*
G01*
X116680000Y-141868000D01*
G75*
G02*
X116480000Y-142068000I-200000J0D01*
G01*
X115930000Y-142068000D01*
G75*
G02*
X115730000Y-141868000I0J200000D01*
G01*
X115730000Y-141468000D01*
G75*
G02*
X115930000Y-141268000I200000J0D01*
G01*
G37*
G36*
G01*
X115930000Y-139618000D02*
X116480000Y-139618000D01*
G75*
G02*
X116680000Y-139818000I0J-200000D01*
G01*
X116680000Y-140218000D01*
G75*
G02*
X116480000Y-140418000I-200000J0D01*
G01*
X115930000Y-140418000D01*
G75*
G02*
X115730000Y-140218000I0J200000D01*
G01*
X115730000Y-139818000D01*
G75*
G02*
X115930000Y-139618000I200000J0D01*
G01*
G37*
G36*
G01*
X124021000Y-118140500D02*
X124021000Y-117190500D01*
G75*
G02*
X124271000Y-116940500I250000J0D01*
G01*
X124946000Y-116940500D01*
G75*
G02*
X125196000Y-117190500I0J-250000D01*
G01*
X125196000Y-118140500D01*
G75*
G02*
X124946000Y-118390500I-250000J0D01*
G01*
X124271000Y-118390500D01*
G75*
G02*
X124021000Y-118140500I0J250000D01*
G01*
G37*
G36*
G01*
X121946000Y-118140500D02*
X121946000Y-117190500D01*
G75*
G02*
X122196000Y-116940500I250000J0D01*
G01*
X122871000Y-116940500D01*
G75*
G02*
X123121000Y-117190500I0J-250000D01*
G01*
X123121000Y-118140500D01*
G75*
G02*
X122871000Y-118390500I-250000J0D01*
G01*
X122196000Y-118390500D01*
G75*
G02*
X121946000Y-118140500I0J250000D01*
G01*
G37*
G36*
G01*
X108452499Y-124338500D02*
X109352501Y-124338500D01*
G75*
G02*
X109602500Y-124588499I0J-249999D01*
G01*
X109602500Y-125238501D01*
G75*
G02*
X109352501Y-125488500I-249999J0D01*
G01*
X108452499Y-125488500D01*
G75*
G02*
X108202500Y-125238501I0J249999D01*
G01*
X108202500Y-124588499D01*
G75*
G02*
X108452499Y-124338500I249999J0D01*
G01*
G37*
G36*
G01*
X108452499Y-122288500D02*
X109352501Y-122288500D01*
G75*
G02*
X109602500Y-122538499I0J-249999D01*
G01*
X109602500Y-123188501D01*
G75*
G02*
X109352501Y-123438500I-249999J0D01*
G01*
X108452499Y-123438500D01*
G75*
G02*
X108202500Y-123188501I0J249999D01*
G01*
X108202500Y-122538499D01*
G75*
G02*
X108452499Y-122288500I249999J0D01*
G01*
G37*
D13*
X191030000Y-118226400D03*
X191030000Y-115226400D03*
X191030000Y-113726400D03*
D14*
X194140000Y-120126400D03*
X194140000Y-111826400D03*
X191930000Y-111826400D03*
X191930000Y-120126400D03*
G36*
G01*
X132162500Y-96589001D02*
X132162500Y-95688999D01*
G75*
G02*
X132412499Y-95439000I249999J0D01*
G01*
X133112501Y-95439000D01*
G75*
G02*
X133362500Y-95688999I0J-249999D01*
G01*
X133362500Y-96589001D01*
G75*
G02*
X133112501Y-96839000I-249999J0D01*
G01*
X132412499Y-96839000D01*
G75*
G02*
X132162500Y-96589001I0J249999D01*
G01*
G37*
G36*
G01*
X130162500Y-96589001D02*
X130162500Y-95688999D01*
G75*
G02*
X130412499Y-95439000I249999J0D01*
G01*
X131112501Y-95439000D01*
G75*
G02*
X131362500Y-95688999I0J-249999D01*
G01*
X131362500Y-96589001D01*
G75*
G02*
X131112501Y-96839000I-249999J0D01*
G01*
X130412499Y-96839000D01*
G75*
G02*
X130162500Y-96589001I0J249999D01*
G01*
G37*
G36*
G01*
X134845500Y-115067501D02*
X134845500Y-114167499D01*
G75*
G02*
X135095499Y-113917500I249999J0D01*
G01*
X135795501Y-113917500D01*
G75*
G02*
X136045500Y-114167499I0J-249999D01*
G01*
X136045500Y-115067501D01*
G75*
G02*
X135795501Y-115317500I-249999J0D01*
G01*
X135095499Y-115317500D01*
G75*
G02*
X134845500Y-115067501I0J249999D01*
G01*
G37*
G36*
G01*
X132845500Y-115067501D02*
X132845500Y-114167499D01*
G75*
G02*
X133095499Y-113917500I249999J0D01*
G01*
X133795501Y-113917500D01*
G75*
G02*
X134045500Y-114167499I0J-249999D01*
G01*
X134045500Y-115067501D01*
G75*
G02*
X133795501Y-115317500I-249999J0D01*
G01*
X133095499Y-115317500D01*
G75*
G02*
X132845500Y-115067501I0J249999D01*
G01*
G37*
D15*
X167870000Y-115252500D03*
X164870000Y-116202500D03*
X164870000Y-114302500D03*
G36*
G01*
X110280500Y-115818499D02*
X110280500Y-116718501D01*
G75*
G02*
X110030501Y-116968500I-249999J0D01*
G01*
X109330499Y-116968500D01*
G75*
G02*
X109080500Y-116718501I0J249999D01*
G01*
X109080500Y-115818499D01*
G75*
G02*
X109330499Y-115568500I249999J0D01*
G01*
X110030501Y-115568500D01*
G75*
G02*
X110280500Y-115818499I0J-249999D01*
G01*
G37*
G36*
G01*
X112280500Y-115818499D02*
X112280500Y-116718501D01*
G75*
G02*
X112030501Y-116968500I-249999J0D01*
G01*
X111330499Y-116968500D01*
G75*
G02*
X111080500Y-116718501I0J249999D01*
G01*
X111080500Y-115818499D01*
G75*
G02*
X111330499Y-115568500I249999J0D01*
G01*
X112030501Y-115568500D01*
G75*
G02*
X112280500Y-115818499I0J-249999D01*
G01*
G37*
G36*
G01*
X111080500Y-114750001D02*
X111080500Y-113849999D01*
G75*
G02*
X111330499Y-113600000I249999J0D01*
G01*
X112030501Y-113600000D01*
G75*
G02*
X112280500Y-113849999I0J-249999D01*
G01*
X112280500Y-114750001D01*
G75*
G02*
X112030501Y-115000000I-249999J0D01*
G01*
X111330499Y-115000000D01*
G75*
G02*
X111080500Y-114750001I0J249999D01*
G01*
G37*
G36*
G01*
X109080500Y-114750001D02*
X109080500Y-113849999D01*
G75*
G02*
X109330499Y-113600000I249999J0D01*
G01*
X110030501Y-113600000D01*
G75*
G02*
X110280500Y-113849999I0J-249999D01*
G01*
X110280500Y-114750001D01*
G75*
G02*
X110030501Y-115000000I-249999J0D01*
G01*
X109330499Y-115000000D01*
G75*
G02*
X109080500Y-114750001I0J249999D01*
G01*
G37*
G36*
G01*
X187314000Y-121993499D02*
X187314000Y-123243501D01*
G75*
G02*
X187064001Y-123493500I-249999J0D01*
G01*
X186263999Y-123493500D01*
G75*
G02*
X186014000Y-123243501I0J249999D01*
G01*
X186014000Y-121993499D01*
G75*
G02*
X186263999Y-121743500I249999J0D01*
G01*
X187064001Y-121743500D01*
G75*
G02*
X187314000Y-121993499I0J-249999D01*
G01*
G37*
G36*
G01*
X190414000Y-121993499D02*
X190414000Y-123243501D01*
G75*
G02*
X190164001Y-123493500I-249999J0D01*
G01*
X189363999Y-123493500D01*
G75*
G02*
X189114000Y-123243501I0J249999D01*
G01*
X189114000Y-121993499D01*
G75*
G02*
X189363999Y-121743500I249999J0D01*
G01*
X190164001Y-121743500D01*
G75*
G02*
X190414000Y-121993499I0J-249999D01*
G01*
G37*
G36*
G01*
X126776500Y-113151500D02*
X125826500Y-113151500D01*
G75*
G02*
X125576500Y-112901500I0J250000D01*
G01*
X125576500Y-112226500D01*
G75*
G02*
X125826500Y-111976500I250000J0D01*
G01*
X126776500Y-111976500D01*
G75*
G02*
X127026500Y-112226500I0J-250000D01*
G01*
X127026500Y-112901500D01*
G75*
G02*
X126776500Y-113151500I-250000J0D01*
G01*
G37*
G36*
G01*
X126776500Y-115226500D02*
X125826500Y-115226500D01*
G75*
G02*
X125576500Y-114976500I0J250000D01*
G01*
X125576500Y-114301500D01*
G75*
G02*
X125826500Y-114051500I250000J0D01*
G01*
X126776500Y-114051500D01*
G75*
G02*
X127026500Y-114301500I0J-250000D01*
G01*
X127026500Y-114976500D01*
G75*
G02*
X126776500Y-115226500I-250000J0D01*
G01*
G37*
G36*
G01*
X183780000Y-127523003D02*
X183780000Y-126222997D01*
G75*
G02*
X184029997Y-125973000I249997J0D01*
G01*
X184855003Y-125973000D01*
G75*
G02*
X185105000Y-126222997I0J-249997D01*
G01*
X185105000Y-127523003D01*
G75*
G02*
X184855003Y-127773000I-249997J0D01*
G01*
X184029997Y-127773000D01*
G75*
G02*
X183780000Y-127523003I0J249997D01*
G01*
G37*
G36*
G01*
X180655000Y-127523003D02*
X180655000Y-126222997D01*
G75*
G02*
X180904997Y-125973000I249997J0D01*
G01*
X181730003Y-125973000D01*
G75*
G02*
X181980000Y-126222997I0J-249997D01*
G01*
X181980000Y-127523003D01*
G75*
G02*
X181730003Y-127773000I-249997J0D01*
G01*
X180904997Y-127773000D01*
G75*
G02*
X180655000Y-127523003I0J249997D01*
G01*
G37*
G36*
G01*
X183780000Y-138000503D02*
X183780000Y-136700497D01*
G75*
G02*
X184029997Y-136450500I249997J0D01*
G01*
X184855003Y-136450500D01*
G75*
G02*
X185105000Y-136700497I0J-249997D01*
G01*
X185105000Y-138000503D01*
G75*
G02*
X184855003Y-138250500I-249997J0D01*
G01*
X184029997Y-138250500D01*
G75*
G02*
X183780000Y-138000503I0J249997D01*
G01*
G37*
G36*
G01*
X180655000Y-138000503D02*
X180655000Y-136700497D01*
G75*
G02*
X180904997Y-136450500I249997J0D01*
G01*
X181730003Y-136450500D01*
G75*
G02*
X181980000Y-136700497I0J-249997D01*
G01*
X181980000Y-138000503D01*
G75*
G02*
X181730003Y-138250500I-249997J0D01*
G01*
X180904997Y-138250500D01*
G75*
G02*
X180655000Y-138000503I0J249997D01*
G01*
G37*
G36*
G01*
X183780000Y-131079003D02*
X183780000Y-129778997D01*
G75*
G02*
X184029997Y-129529000I249997J0D01*
G01*
X184855003Y-129529000D01*
G75*
G02*
X185105000Y-129778997I0J-249997D01*
G01*
X185105000Y-131079003D01*
G75*
G02*
X184855003Y-131329000I-249997J0D01*
G01*
X184029997Y-131329000D01*
G75*
G02*
X183780000Y-131079003I0J249997D01*
G01*
G37*
G36*
G01*
X180655000Y-131079003D02*
X180655000Y-129778997D01*
G75*
G02*
X180904997Y-129529000I249997J0D01*
G01*
X181730003Y-129529000D01*
G75*
G02*
X181980000Y-129778997I0J-249997D01*
G01*
X181980000Y-131079003D01*
G75*
G02*
X181730003Y-131329000I-249997J0D01*
G01*
X180904997Y-131329000D01*
G75*
G02*
X180655000Y-131079003I0J249997D01*
G01*
G37*
G36*
G01*
X183780000Y-134508003D02*
X183780000Y-133207997D01*
G75*
G02*
X184029997Y-132958000I249997J0D01*
G01*
X184855003Y-132958000D01*
G75*
G02*
X185105000Y-133207997I0J-249997D01*
G01*
X185105000Y-134508003D01*
G75*
G02*
X184855003Y-134758000I-249997J0D01*
G01*
X184029997Y-134758000D01*
G75*
G02*
X183780000Y-134508003I0J249997D01*
G01*
G37*
G36*
G01*
X180655000Y-134508003D02*
X180655000Y-133207997D01*
G75*
G02*
X180904997Y-132958000I249997J0D01*
G01*
X181730003Y-132958000D01*
G75*
G02*
X181980000Y-133207997I0J-249997D01*
G01*
X181980000Y-134508003D01*
G75*
G02*
X181730003Y-134758000I-249997J0D01*
G01*
X180904997Y-134758000D01*
G75*
G02*
X180655000Y-134508003I0J249997D01*
G01*
G37*
M02*
