G04 #@! TF.GenerationSoftware,KiCad,Pcbnew,(5.1.8)-1*
G04 #@! TF.CreationDate,2021-11-27T09:49:30+01:00*
G04 #@! TF.ProjectId,sensactHsNano2,73656e73-6163-4744-9873-4e616e6f322e,rev?*
G04 #@! TF.SameCoordinates,Original*
G04 #@! TF.FileFunction,Profile,NP*
%FSLAX46Y46*%
G04 Gerber Fmt 4.6, Leading zero omitted, Abs format (unit mm)*
G04 Created by KiCad (PCBNEW (5.1.8)-1) date 2021-11-27 09:49:30*
%MOMM*%
%LPD*%
G01*
G04 APERTURE LIST*
G04 #@! TA.AperFunction,Profile*
%ADD10C,0.050000*%
G04 #@! TD*
G04 #@! TA.AperFunction,Profile*
%ADD11C,0.200000*%
G04 #@! TD*
G04 APERTURE END LIST*
D10*
X179000000Y-149750000D02*
X179000000Y-148250000D01*
X179000001Y-149750001D02*
G75*
G02*
X178999999Y-152249999I-250001J-1249999D01*
G01*
X179000000Y-154750000D02*
X178999999Y-152249999D01*
X195000000Y-154750000D02*
X179000000Y-154750000D01*
X195000000Y-152750000D02*
X195000000Y-154750000D01*
X172250000Y-107750000D02*
X170749999Y-107750000D01*
X129250000Y-107750000D02*
X127750000Y-107750000D01*
X127750000Y-108500000D02*
G75*
G02*
X125250000Y-108500000I-1250000J0D01*
G01*
X127750000Y-107750000D02*
X127750000Y-108500000D01*
X125250000Y-107750000D02*
X125250000Y-108500000D01*
X174750000Y-108500000D02*
G75*
G02*
X172250000Y-108500000I-1250000J0D01*
G01*
X174750000Y-107750000D02*
X174750000Y-108500000D01*
X172250000Y-107750000D02*
X172250000Y-108500000D01*
X130000000Y-153500000D02*
X130000000Y-155250000D01*
X130750000Y-153500000D02*
X130000000Y-153500000D01*
D11*
X130750000Y-148250000D02*
X130750000Y-153500000D01*
X150000000Y-148250001D02*
X130750000Y-148250000D01*
X167499999Y-148249998D02*
X150000000Y-148250001D01*
X179000000Y-148250000D02*
X167499999Y-148249998D01*
X174750000Y-107750000D02*
X195000000Y-107750000D01*
X170750000Y-93750000D02*
X170749999Y-107750000D01*
X129250001Y-93750000D02*
X170750000Y-93750000D01*
X129250000Y-107750000D02*
X129250001Y-93750000D01*
X105000000Y-107750001D02*
X125250000Y-107750000D01*
X130000000Y-155250000D02*
X105000001Y-155250000D01*
X195000000Y-107750000D02*
X195000000Y-152750000D01*
X105000001Y-155250000D02*
X105000000Y-107750000D01*
M02*
