G04 #@! TF.GenerationSoftware,KiCad,Pcbnew,(5.1.8)-1*
G04 #@! TF.CreationDate,2021-11-27T09:49:30+01:00*
G04 #@! TF.ProjectId,sensactHsNano2,73656e73-6163-4744-9873-4e616e6f322e,rev?*
G04 #@! TF.SameCoordinates,Original*
G04 #@! TF.FileFunction,Paste,Top*
G04 #@! TF.FilePolarity,Positive*
%FSLAX46Y46*%
G04 Gerber Fmt 4.6, Leading zero omitted, Abs format (unit mm)*
G04 Created by KiCad (PCBNEW (5.1.8)-1) date 2021-11-27 09:49:30*
%MOMM*%
%LPD*%
G01*
G04 APERTURE LIST*
%ADD10R,0.700000X2.000000*%
%ADD11R,2.000000X0.800000*%
%ADD12R,3.500000X2.300000*%
%ADD13R,2.000000X0.700000*%
%ADD14R,0.800000X2.000000*%
%ADD15R,1.900000X0.800000*%
G04 APERTURE END LIST*
G36*
G01*
X160509000Y-124009999D02*
X160509000Y-124910001D01*
G75*
G02*
X160259001Y-125160000I-249999J0D01*
G01*
X159558999Y-125160000D01*
G75*
G02*
X159309000Y-124910001I0J249999D01*
G01*
X159309000Y-124009999D01*
G75*
G02*
X159558999Y-123760000I249999J0D01*
G01*
X160259001Y-123760000D01*
G75*
G02*
X160509000Y-124009999I0J-249999D01*
G01*
G37*
G36*
G01*
X162509000Y-124009999D02*
X162509000Y-124910001D01*
G75*
G02*
X162259001Y-125160000I-249999J0D01*
G01*
X161558999Y-125160000D01*
G75*
G02*
X161309000Y-124910001I0J249999D01*
G01*
X161309000Y-124009999D01*
G75*
G02*
X161558999Y-123760000I249999J0D01*
G01*
X162259001Y-123760000D01*
G75*
G02*
X162509000Y-124009999I0J-249999D01*
G01*
G37*
G36*
G01*
X157969000Y-120072999D02*
X157969000Y-120973001D01*
G75*
G02*
X157719001Y-121223000I-249999J0D01*
G01*
X157018999Y-121223000D01*
G75*
G02*
X156769000Y-120973001I0J249999D01*
G01*
X156769000Y-120072999D01*
G75*
G02*
X157018999Y-119823000I249999J0D01*
G01*
X157719001Y-119823000D01*
G75*
G02*
X157969000Y-120072999I0J-249999D01*
G01*
G37*
G36*
G01*
X159969000Y-120072999D02*
X159969000Y-120973001D01*
G75*
G02*
X159719001Y-121223000I-249999J0D01*
G01*
X159018999Y-121223000D01*
G75*
G02*
X158769000Y-120973001I0J249999D01*
G01*
X158769000Y-120072999D01*
G75*
G02*
X159018999Y-119823000I249999J0D01*
G01*
X159719001Y-119823000D01*
G75*
G02*
X159969000Y-120072999I0J-249999D01*
G01*
G37*
G36*
G01*
X165436500Y-100145001D02*
X165436500Y-99244999D01*
G75*
G02*
X165686499Y-98995000I249999J0D01*
G01*
X166386501Y-98995000D01*
G75*
G02*
X166636500Y-99244999I0J-249999D01*
G01*
X166636500Y-100145001D01*
G75*
G02*
X166386501Y-100395000I-249999J0D01*
G01*
X165686499Y-100395000D01*
G75*
G02*
X165436500Y-100145001I0J249999D01*
G01*
G37*
G36*
G01*
X163436500Y-100145001D02*
X163436500Y-99244999D01*
G75*
G02*
X163686499Y-98995000I249999J0D01*
G01*
X164386501Y-98995000D01*
G75*
G02*
X164636500Y-99244999I0J-249999D01*
G01*
X164636500Y-100145001D01*
G75*
G02*
X164386501Y-100395000I-249999J0D01*
G01*
X163686499Y-100395000D01*
G75*
G02*
X163436500Y-100145001I0J249999D01*
G01*
G37*
G36*
G01*
X162960000Y-102304001D02*
X162960000Y-101403999D01*
G75*
G02*
X163209999Y-101154000I249999J0D01*
G01*
X163910001Y-101154000D01*
G75*
G02*
X164160000Y-101403999I0J-249999D01*
G01*
X164160000Y-102304001D01*
G75*
G02*
X163910001Y-102554000I-249999J0D01*
G01*
X163209999Y-102554000D01*
G75*
G02*
X162960000Y-102304001I0J249999D01*
G01*
G37*
G36*
G01*
X160960000Y-102304001D02*
X160960000Y-101403999D01*
G75*
G02*
X161209999Y-101154000I249999J0D01*
G01*
X161910001Y-101154000D01*
G75*
G02*
X162160000Y-101403999I0J-249999D01*
G01*
X162160000Y-102304001D01*
G75*
G02*
X161910001Y-102554000I-249999J0D01*
G01*
X161209999Y-102554000D01*
G75*
G02*
X160960000Y-102304001I0J249999D01*
G01*
G37*
D10*
X168250000Y-97680000D03*
X165250000Y-97680000D03*
X163750000Y-97680000D03*
D11*
X170150000Y-94570000D03*
X161850000Y-94570000D03*
X161850000Y-96780000D03*
X170150000Y-96780000D03*
G36*
G01*
X127679500Y-126422999D02*
X127679500Y-127323001D01*
G75*
G02*
X127429501Y-127573000I-249999J0D01*
G01*
X126729499Y-127573000D01*
G75*
G02*
X126479500Y-127323001I0J249999D01*
G01*
X126479500Y-126422999D01*
G75*
G02*
X126729499Y-126173000I249999J0D01*
G01*
X127429501Y-126173000D01*
G75*
G02*
X127679500Y-126422999I0J-249999D01*
G01*
G37*
G36*
G01*
X129679500Y-126422999D02*
X129679500Y-127323001D01*
G75*
G02*
X129429501Y-127573000I-249999J0D01*
G01*
X128729499Y-127573000D01*
G75*
G02*
X128479500Y-127323001I0J249999D01*
G01*
X128479500Y-126422999D01*
G75*
G02*
X128729499Y-126173000I249999J0D01*
G01*
X129429501Y-126173000D01*
G75*
G02*
X129679500Y-126422999I0J-249999D01*
G01*
G37*
G36*
G01*
X123819500Y-126398000D02*
X123819500Y-127348000D01*
G75*
G02*
X123569500Y-127598000I-250000J0D01*
G01*
X122894500Y-127598000D01*
G75*
G02*
X122644500Y-127348000I0J250000D01*
G01*
X122644500Y-126398000D01*
G75*
G02*
X122894500Y-126148000I250000J0D01*
G01*
X123569500Y-126148000D01*
G75*
G02*
X123819500Y-126398000I0J-250000D01*
G01*
G37*
G36*
G01*
X125894500Y-126398000D02*
X125894500Y-127348000D01*
G75*
G02*
X125644500Y-127598000I-250000J0D01*
G01*
X124969500Y-127598000D01*
G75*
G02*
X124719500Y-127348000I0J250000D01*
G01*
X124719500Y-126398000D01*
G75*
G02*
X124969500Y-126148000I250000J0D01*
G01*
X125644500Y-126148000D01*
G75*
G02*
X125894500Y-126398000I0J-250000D01*
G01*
G37*
D12*
X182976500Y-113588800D03*
X177576500Y-113588800D03*
G36*
G01*
X157969000Y-121977999D02*
X157969000Y-122878001D01*
G75*
G02*
X157719001Y-123128000I-249999J0D01*
G01*
X157018999Y-123128000D01*
G75*
G02*
X156769000Y-122878001I0J249999D01*
G01*
X156769000Y-121977999D01*
G75*
G02*
X157018999Y-121728000I249999J0D01*
G01*
X157719001Y-121728000D01*
G75*
G02*
X157969000Y-121977999I0J-249999D01*
G01*
G37*
G36*
G01*
X159969000Y-121977999D02*
X159969000Y-122878001D01*
G75*
G02*
X159719001Y-123128000I-249999J0D01*
G01*
X159018999Y-123128000D01*
G75*
G02*
X158769000Y-122878001I0J249999D01*
G01*
X158769000Y-121977999D01*
G75*
G02*
X159018999Y-121728000I249999J0D01*
G01*
X159719001Y-121728000D01*
G75*
G02*
X159969000Y-121977999I0J-249999D01*
G01*
G37*
G36*
G01*
X132099000Y-117099501D02*
X132099000Y-116199499D01*
G75*
G02*
X132348999Y-115949500I249999J0D01*
G01*
X133049001Y-115949500D01*
G75*
G02*
X133299000Y-116199499I0J-249999D01*
G01*
X133299000Y-117099501D01*
G75*
G02*
X133049001Y-117349500I-249999J0D01*
G01*
X132348999Y-117349500D01*
G75*
G02*
X132099000Y-117099501I0J249999D01*
G01*
G37*
G36*
G01*
X130099000Y-117099501D02*
X130099000Y-116199499D01*
G75*
G02*
X130348999Y-115949500I249999J0D01*
G01*
X131049001Y-115949500D01*
G75*
G02*
X131299000Y-116199499I0J-249999D01*
G01*
X131299000Y-117099501D01*
G75*
G02*
X131049001Y-117349500I-249999J0D01*
G01*
X130348999Y-117349500D01*
G75*
G02*
X130099000Y-117099501I0J249999D01*
G01*
G37*
G36*
G01*
X131299000Y-118167999D02*
X131299000Y-119068001D01*
G75*
G02*
X131049001Y-119318000I-249999J0D01*
G01*
X130348999Y-119318000D01*
G75*
G02*
X130099000Y-119068001I0J249999D01*
G01*
X130099000Y-118167999D01*
G75*
G02*
X130348999Y-117918000I249999J0D01*
G01*
X131049001Y-117918000D01*
G75*
G02*
X131299000Y-118167999I0J-249999D01*
G01*
G37*
G36*
G01*
X133299000Y-118167999D02*
X133299000Y-119068001D01*
G75*
G02*
X133049001Y-119318000I-249999J0D01*
G01*
X132348999Y-119318000D01*
G75*
G02*
X132099000Y-119068001I0J249999D01*
G01*
X132099000Y-118167999D01*
G75*
G02*
X132348999Y-117918000I249999J0D01*
G01*
X133049001Y-117918000D01*
G75*
G02*
X133299000Y-118167999I0J-249999D01*
G01*
G37*
G36*
G01*
X130219500Y-114167499D02*
X130219500Y-115067501D01*
G75*
G02*
X129969501Y-115317500I-249999J0D01*
G01*
X129269499Y-115317500D01*
G75*
G02*
X129019500Y-115067501I0J249999D01*
G01*
X129019500Y-114167499D01*
G75*
G02*
X129269499Y-113917500I249999J0D01*
G01*
X129969501Y-113917500D01*
G75*
G02*
X130219500Y-114167499I0J-249999D01*
G01*
G37*
G36*
G01*
X132219500Y-114167499D02*
X132219500Y-115067501D01*
G75*
G02*
X131969501Y-115317500I-249999J0D01*
G01*
X131269499Y-115317500D01*
G75*
G02*
X131019500Y-115067501I0J249999D01*
G01*
X131019500Y-114167499D01*
G75*
G02*
X131269499Y-113917500I249999J0D01*
G01*
X131969501Y-113917500D01*
G75*
G02*
X132219500Y-114167499I0J-249999D01*
G01*
G37*
G36*
G01*
X128264499Y-124034500D02*
X129164501Y-124034500D01*
G75*
G02*
X129414500Y-124284499I0J-249999D01*
G01*
X129414500Y-124984501D01*
G75*
G02*
X129164501Y-125234500I-249999J0D01*
G01*
X128264499Y-125234500D01*
G75*
G02*
X128014500Y-124984501I0J249999D01*
G01*
X128014500Y-124284499D01*
G75*
G02*
X128264499Y-124034500I249999J0D01*
G01*
G37*
G36*
G01*
X128264499Y-122034500D02*
X129164501Y-122034500D01*
G75*
G02*
X129414500Y-122284499I0J-249999D01*
G01*
X129414500Y-122984501D01*
G75*
G02*
X129164501Y-123234500I-249999J0D01*
G01*
X128264499Y-123234500D01*
G75*
G02*
X128014500Y-122984501I0J249999D01*
G01*
X128014500Y-122284499D01*
G75*
G02*
X128264499Y-122034500I249999J0D01*
G01*
G37*
G36*
G01*
X131133001Y-123234500D02*
X130232999Y-123234500D01*
G75*
G02*
X129983000Y-122984501I0J249999D01*
G01*
X129983000Y-122284499D01*
G75*
G02*
X130232999Y-122034500I249999J0D01*
G01*
X131133001Y-122034500D01*
G75*
G02*
X131383000Y-122284499I0J-249999D01*
G01*
X131383000Y-122984501D01*
G75*
G02*
X131133001Y-123234500I-249999J0D01*
G01*
G37*
G36*
G01*
X131133001Y-125234500D02*
X130232999Y-125234500D01*
G75*
G02*
X129983000Y-124984501I0J249999D01*
G01*
X129983000Y-124284499D01*
G75*
G02*
X130232999Y-124034500I249999J0D01*
G01*
X131133001Y-124034500D01*
G75*
G02*
X131383000Y-124284499I0J-249999D01*
G01*
X131383000Y-124984501D01*
G75*
G02*
X131133001Y-125234500I-249999J0D01*
G01*
G37*
G36*
G01*
X150299000Y-115476000D02*
X150299000Y-116426000D01*
G75*
G02*
X150049000Y-116676000I-250000J0D01*
G01*
X149374000Y-116676000D01*
G75*
G02*
X149124000Y-116426000I0J250000D01*
G01*
X149124000Y-115476000D01*
G75*
G02*
X149374000Y-115226000I250000J0D01*
G01*
X150049000Y-115226000D01*
G75*
G02*
X150299000Y-115476000I0J-250000D01*
G01*
G37*
G36*
G01*
X152374000Y-115476000D02*
X152374000Y-116426000D01*
G75*
G02*
X152124000Y-116676000I-250000J0D01*
G01*
X151449000Y-116676000D01*
G75*
G02*
X151199000Y-116426000I0J250000D01*
G01*
X151199000Y-115476000D01*
G75*
G02*
X151449000Y-115226000I250000J0D01*
G01*
X152124000Y-115226000D01*
G75*
G02*
X152374000Y-115476000I0J-250000D01*
G01*
G37*
G36*
G01*
X154159000Y-119310999D02*
X154159000Y-120211001D01*
G75*
G02*
X153909001Y-120461000I-249999J0D01*
G01*
X153208999Y-120461000D01*
G75*
G02*
X152959000Y-120211001I0J249999D01*
G01*
X152959000Y-119310999D01*
G75*
G02*
X153208999Y-119061000I249999J0D01*
G01*
X153909001Y-119061000D01*
G75*
G02*
X154159000Y-119310999I0J-249999D01*
G01*
G37*
G36*
G01*
X156159000Y-119310999D02*
X156159000Y-120211001D01*
G75*
G02*
X155909001Y-120461000I-249999J0D01*
G01*
X155208999Y-120461000D01*
G75*
G02*
X154959000Y-120211001I0J249999D01*
G01*
X154959000Y-119310999D01*
G75*
G02*
X155208999Y-119061000I249999J0D01*
G01*
X155909001Y-119061000D01*
G75*
G02*
X156159000Y-119310999I0J-249999D01*
G01*
G37*
G36*
G01*
X154159000Y-117405999D02*
X154159000Y-118306001D01*
G75*
G02*
X153909001Y-118556000I-249999J0D01*
G01*
X153208999Y-118556000D01*
G75*
G02*
X152959000Y-118306001I0J249999D01*
G01*
X152959000Y-117405999D01*
G75*
G02*
X153208999Y-117156000I249999J0D01*
G01*
X153909001Y-117156000D01*
G75*
G02*
X154159000Y-117405999I0J-249999D01*
G01*
G37*
G36*
G01*
X156159000Y-117405999D02*
X156159000Y-118306001D01*
G75*
G02*
X155909001Y-118556000I-249999J0D01*
G01*
X155208999Y-118556000D01*
G75*
G02*
X154959000Y-118306001I0J249999D01*
G01*
X154959000Y-117405999D01*
G75*
G02*
X155208999Y-117156000I249999J0D01*
G01*
X155909001Y-117156000D01*
G75*
G02*
X156159000Y-117405999I0J-249999D01*
G01*
G37*
G36*
G01*
X154159000Y-115500999D02*
X154159000Y-116401001D01*
G75*
G02*
X153909001Y-116651000I-249999J0D01*
G01*
X153208999Y-116651000D01*
G75*
G02*
X152959000Y-116401001I0J249999D01*
G01*
X152959000Y-115500999D01*
G75*
G02*
X153208999Y-115251000I249999J0D01*
G01*
X153909001Y-115251000D01*
G75*
G02*
X154159000Y-115500999I0J-249999D01*
G01*
G37*
G36*
G01*
X156159000Y-115500999D02*
X156159000Y-116401001D01*
G75*
G02*
X155909001Y-116651000I-249999J0D01*
G01*
X155208999Y-116651000D01*
G75*
G02*
X154959000Y-116401001I0J249999D01*
G01*
X154959000Y-115500999D01*
G75*
G02*
X155208999Y-115251000I249999J0D01*
G01*
X155909001Y-115251000D01*
G75*
G02*
X156159000Y-115500999I0J-249999D01*
G01*
G37*
G36*
G01*
X154159000Y-121215999D02*
X154159000Y-122116001D01*
G75*
G02*
X153909001Y-122366000I-249999J0D01*
G01*
X153208999Y-122366000D01*
G75*
G02*
X152959000Y-122116001I0J249999D01*
G01*
X152959000Y-121215999D01*
G75*
G02*
X153208999Y-120966000I249999J0D01*
G01*
X153909001Y-120966000D01*
G75*
G02*
X154159000Y-121215999I0J-249999D01*
G01*
G37*
G36*
G01*
X156159000Y-121215999D02*
X156159000Y-122116001D01*
G75*
G02*
X155909001Y-122366000I-249999J0D01*
G01*
X155208999Y-122366000D01*
G75*
G02*
X154959000Y-122116001I0J249999D01*
G01*
X154959000Y-121215999D01*
G75*
G02*
X155208999Y-120966000I249999J0D01*
G01*
X155909001Y-120966000D01*
G75*
G02*
X156159000Y-121215999I0J-249999D01*
G01*
G37*
G36*
G01*
X124021000Y-118140500D02*
X124021000Y-117190500D01*
G75*
G02*
X124271000Y-116940500I250000J0D01*
G01*
X124946000Y-116940500D01*
G75*
G02*
X125196000Y-117190500I0J-250000D01*
G01*
X125196000Y-118140500D01*
G75*
G02*
X124946000Y-118390500I-250000J0D01*
G01*
X124271000Y-118390500D01*
G75*
G02*
X124021000Y-118140500I0J250000D01*
G01*
G37*
G36*
G01*
X121946000Y-118140500D02*
X121946000Y-117190500D01*
G75*
G02*
X122196000Y-116940500I250000J0D01*
G01*
X122871000Y-116940500D01*
G75*
G02*
X123121000Y-117190500I0J-250000D01*
G01*
X123121000Y-118140500D01*
G75*
G02*
X122871000Y-118390500I-250000J0D01*
G01*
X122196000Y-118390500D01*
G75*
G02*
X121946000Y-118140500I0J250000D01*
G01*
G37*
G36*
G01*
X108452499Y-124338500D02*
X109352501Y-124338500D01*
G75*
G02*
X109602500Y-124588499I0J-249999D01*
G01*
X109602500Y-125238501D01*
G75*
G02*
X109352501Y-125488500I-249999J0D01*
G01*
X108452499Y-125488500D01*
G75*
G02*
X108202500Y-125238501I0J249999D01*
G01*
X108202500Y-124588499D01*
G75*
G02*
X108452499Y-124338500I249999J0D01*
G01*
G37*
G36*
G01*
X108452499Y-122288500D02*
X109352501Y-122288500D01*
G75*
G02*
X109602500Y-122538499I0J-249999D01*
G01*
X109602500Y-123188501D01*
G75*
G02*
X109352501Y-123438500I-249999J0D01*
G01*
X108452499Y-123438500D01*
G75*
G02*
X108202500Y-123188501I0J249999D01*
G01*
X108202500Y-122538499D01*
G75*
G02*
X108452499Y-122288500I249999J0D01*
G01*
G37*
D13*
X191030000Y-118226400D03*
X191030000Y-115226400D03*
X191030000Y-113726400D03*
D14*
X194140000Y-120126400D03*
X194140000Y-111826400D03*
X191930000Y-111826400D03*
X191930000Y-120126400D03*
G36*
G01*
X132162500Y-96589001D02*
X132162500Y-95688999D01*
G75*
G02*
X132412499Y-95439000I249999J0D01*
G01*
X133112501Y-95439000D01*
G75*
G02*
X133362500Y-95688999I0J-249999D01*
G01*
X133362500Y-96589001D01*
G75*
G02*
X133112501Y-96839000I-249999J0D01*
G01*
X132412499Y-96839000D01*
G75*
G02*
X132162500Y-96589001I0J249999D01*
G01*
G37*
G36*
G01*
X130162500Y-96589001D02*
X130162500Y-95688999D01*
G75*
G02*
X130412499Y-95439000I249999J0D01*
G01*
X131112501Y-95439000D01*
G75*
G02*
X131362500Y-95688999I0J-249999D01*
G01*
X131362500Y-96589001D01*
G75*
G02*
X131112501Y-96839000I-249999J0D01*
G01*
X130412499Y-96839000D01*
G75*
G02*
X130162500Y-96589001I0J249999D01*
G01*
G37*
G36*
G01*
X134845500Y-115067501D02*
X134845500Y-114167499D01*
G75*
G02*
X135095499Y-113917500I249999J0D01*
G01*
X135795501Y-113917500D01*
G75*
G02*
X136045500Y-114167499I0J-249999D01*
G01*
X136045500Y-115067501D01*
G75*
G02*
X135795501Y-115317500I-249999J0D01*
G01*
X135095499Y-115317500D01*
G75*
G02*
X134845500Y-115067501I0J249999D01*
G01*
G37*
G36*
G01*
X132845500Y-115067501D02*
X132845500Y-114167499D01*
G75*
G02*
X133095499Y-113917500I249999J0D01*
G01*
X133795501Y-113917500D01*
G75*
G02*
X134045500Y-114167499I0J-249999D01*
G01*
X134045500Y-115067501D01*
G75*
G02*
X133795501Y-115317500I-249999J0D01*
G01*
X133095499Y-115317500D01*
G75*
G02*
X132845500Y-115067501I0J249999D01*
G01*
G37*
D15*
X167870000Y-115252500D03*
X164870000Y-116202500D03*
X164870000Y-114302500D03*
G36*
G01*
X110280500Y-115818499D02*
X110280500Y-116718501D01*
G75*
G02*
X110030501Y-116968500I-249999J0D01*
G01*
X109330499Y-116968500D01*
G75*
G02*
X109080500Y-116718501I0J249999D01*
G01*
X109080500Y-115818499D01*
G75*
G02*
X109330499Y-115568500I249999J0D01*
G01*
X110030501Y-115568500D01*
G75*
G02*
X110280500Y-115818499I0J-249999D01*
G01*
G37*
G36*
G01*
X112280500Y-115818499D02*
X112280500Y-116718501D01*
G75*
G02*
X112030501Y-116968500I-249999J0D01*
G01*
X111330499Y-116968500D01*
G75*
G02*
X111080500Y-116718501I0J249999D01*
G01*
X111080500Y-115818499D01*
G75*
G02*
X111330499Y-115568500I249999J0D01*
G01*
X112030501Y-115568500D01*
G75*
G02*
X112280500Y-115818499I0J-249999D01*
G01*
G37*
G36*
G01*
X111080500Y-114750001D02*
X111080500Y-113849999D01*
G75*
G02*
X111330499Y-113600000I249999J0D01*
G01*
X112030501Y-113600000D01*
G75*
G02*
X112280500Y-113849999I0J-249999D01*
G01*
X112280500Y-114750001D01*
G75*
G02*
X112030501Y-115000000I-249999J0D01*
G01*
X111330499Y-115000000D01*
G75*
G02*
X111080500Y-114750001I0J249999D01*
G01*
G37*
G36*
G01*
X109080500Y-114750001D02*
X109080500Y-113849999D01*
G75*
G02*
X109330499Y-113600000I249999J0D01*
G01*
X110030501Y-113600000D01*
G75*
G02*
X110280500Y-113849999I0J-249999D01*
G01*
X110280500Y-114750001D01*
G75*
G02*
X110030501Y-115000000I-249999J0D01*
G01*
X109330499Y-115000000D01*
G75*
G02*
X109080500Y-114750001I0J249999D01*
G01*
G37*
G36*
G01*
X187314000Y-121993499D02*
X187314000Y-123243501D01*
G75*
G02*
X187064001Y-123493500I-249999J0D01*
G01*
X186263999Y-123493500D01*
G75*
G02*
X186014000Y-123243501I0J249999D01*
G01*
X186014000Y-121993499D01*
G75*
G02*
X186263999Y-121743500I249999J0D01*
G01*
X187064001Y-121743500D01*
G75*
G02*
X187314000Y-121993499I0J-249999D01*
G01*
G37*
G36*
G01*
X190414000Y-121993499D02*
X190414000Y-123243501D01*
G75*
G02*
X190164001Y-123493500I-249999J0D01*
G01*
X189363999Y-123493500D01*
G75*
G02*
X189114000Y-123243501I0J249999D01*
G01*
X189114000Y-121993499D01*
G75*
G02*
X189363999Y-121743500I249999J0D01*
G01*
X190164001Y-121743500D01*
G75*
G02*
X190414000Y-121993499I0J-249999D01*
G01*
G37*
G36*
G01*
X126776500Y-113151500D02*
X125826500Y-113151500D01*
G75*
G02*
X125576500Y-112901500I0J250000D01*
G01*
X125576500Y-112226500D01*
G75*
G02*
X125826500Y-111976500I250000J0D01*
G01*
X126776500Y-111976500D01*
G75*
G02*
X127026500Y-112226500I0J-250000D01*
G01*
X127026500Y-112901500D01*
G75*
G02*
X126776500Y-113151500I-250000J0D01*
G01*
G37*
G36*
G01*
X126776500Y-115226500D02*
X125826500Y-115226500D01*
G75*
G02*
X125576500Y-114976500I0J250000D01*
G01*
X125576500Y-114301500D01*
G75*
G02*
X125826500Y-114051500I250000J0D01*
G01*
X126776500Y-114051500D01*
G75*
G02*
X127026500Y-114301500I0J-250000D01*
G01*
X127026500Y-114976500D01*
G75*
G02*
X126776500Y-115226500I-250000J0D01*
G01*
G37*
G36*
G01*
X183780000Y-127523003D02*
X183780000Y-126222997D01*
G75*
G02*
X184029997Y-125973000I249997J0D01*
G01*
X184855003Y-125973000D01*
G75*
G02*
X185105000Y-126222997I0J-249997D01*
G01*
X185105000Y-127523003D01*
G75*
G02*
X184855003Y-127773000I-249997J0D01*
G01*
X184029997Y-127773000D01*
G75*
G02*
X183780000Y-127523003I0J249997D01*
G01*
G37*
G36*
G01*
X180655000Y-127523003D02*
X180655000Y-126222997D01*
G75*
G02*
X180904997Y-125973000I249997J0D01*
G01*
X181730003Y-125973000D01*
G75*
G02*
X181980000Y-126222997I0J-249997D01*
G01*
X181980000Y-127523003D01*
G75*
G02*
X181730003Y-127773000I-249997J0D01*
G01*
X180904997Y-127773000D01*
G75*
G02*
X180655000Y-127523003I0J249997D01*
G01*
G37*
G36*
G01*
X183780000Y-138000503D02*
X183780000Y-136700497D01*
G75*
G02*
X184029997Y-136450500I249997J0D01*
G01*
X184855003Y-136450500D01*
G75*
G02*
X185105000Y-136700497I0J-249997D01*
G01*
X185105000Y-138000503D01*
G75*
G02*
X184855003Y-138250500I-249997J0D01*
G01*
X184029997Y-138250500D01*
G75*
G02*
X183780000Y-138000503I0J249997D01*
G01*
G37*
G36*
G01*
X180655000Y-138000503D02*
X180655000Y-136700497D01*
G75*
G02*
X180904997Y-136450500I249997J0D01*
G01*
X181730003Y-136450500D01*
G75*
G02*
X181980000Y-136700497I0J-249997D01*
G01*
X181980000Y-138000503D01*
G75*
G02*
X181730003Y-138250500I-249997J0D01*
G01*
X180904997Y-138250500D01*
G75*
G02*
X180655000Y-138000503I0J249997D01*
G01*
G37*
G36*
G01*
X183780000Y-131079003D02*
X183780000Y-129778997D01*
G75*
G02*
X184029997Y-129529000I249997J0D01*
G01*
X184855003Y-129529000D01*
G75*
G02*
X185105000Y-129778997I0J-249997D01*
G01*
X185105000Y-131079003D01*
G75*
G02*
X184855003Y-131329000I-249997J0D01*
G01*
X184029997Y-131329000D01*
G75*
G02*
X183780000Y-131079003I0J249997D01*
G01*
G37*
G36*
G01*
X180655000Y-131079003D02*
X180655000Y-129778997D01*
G75*
G02*
X180904997Y-129529000I249997J0D01*
G01*
X181730003Y-129529000D01*
G75*
G02*
X181980000Y-129778997I0J-249997D01*
G01*
X181980000Y-131079003D01*
G75*
G02*
X181730003Y-131329000I-249997J0D01*
G01*
X180904997Y-131329000D01*
G75*
G02*
X180655000Y-131079003I0J249997D01*
G01*
G37*
G36*
G01*
X183780000Y-134508003D02*
X183780000Y-133207997D01*
G75*
G02*
X184029997Y-132958000I249997J0D01*
G01*
X184855003Y-132958000D01*
G75*
G02*
X185105000Y-133207997I0J-249997D01*
G01*
X185105000Y-134508003D01*
G75*
G02*
X184855003Y-134758000I-249997J0D01*
G01*
X184029997Y-134758000D01*
G75*
G02*
X183780000Y-134508003I0J249997D01*
G01*
G37*
G36*
G01*
X180655000Y-134508003D02*
X180655000Y-133207997D01*
G75*
G02*
X180904997Y-132958000I249997J0D01*
G01*
X181730003Y-132958000D01*
G75*
G02*
X181980000Y-133207997I0J-249997D01*
G01*
X181980000Y-134508003D01*
G75*
G02*
X181730003Y-134758000I-249997J0D01*
G01*
X180904997Y-134758000D01*
G75*
G02*
X180655000Y-134508003I0J249997D01*
G01*
G37*
M02*
