M48
; DRILL file {KiCad (5.1.8)-1} date 11/25/21 19:50:36
; FORMAT={-:-/ absolute / metric / decimal}
; #@! TF.CreationDate,2021-11-25T19:50:36+01:00
; #@! TF.GenerationSoftware,Kicad,Pcbnew,(5.1.8)-1
FMAT,2
METRIC
T1C0.300
T2C0.600
T3C0.650
T4C0.762
T5C0.890
T6C0.900
T7C0.990
T8C1.000
T9C1.020
T10C1.200
T11C1.300
T12C1.630
T13C0.650
T14C0.900
T15C3.250
%
G90
G05
T1
X110.625Y-115.325
X110.744Y-118.237
X111.68Y-116.268
X113.221Y-153.099
X113.221Y-153.987
X116.332Y-132.969
X116.332Y-135.763
X116.713Y-114.3
X117.475Y-140.587
X118.11Y-132.842
X118.11Y-134.112
X119.57Y-154.432
X119.888Y-152.527
X120.142Y-132.715
X120.713Y-154.432
X121.094Y-133.604
X121.138Y-132.726
X121.475Y-121.412
X121.856Y-154.432
X122.174Y-130.048
X122.301Y-111.633
X122.301Y-128.651
X123.063Y-154.432
X123.38Y-112.84
X123.38Y-123.444
X124.144Y-128.778
X124.46Y-111.76
X124.46Y-124.841
X125.984Y-122.174
X125.984Y-124.841
X126.194Y-114.611
X126.301Y-112.564
X126.619Y-117.221
X126.619Y-117.919
X126.619Y-118.745
X127.444Y-117.221
X127.444Y-117.919
X127.444Y-118.745
X127.508Y-128.333
X127.508Y-129.286
X127.508Y-152.844
X127.508Y-153.861
X127.571Y-151.32
X127.762Y-120.777
X127.889Y-111.125
X128.054Y-115.189
X128.2Y-112.592
X128.27Y-117.221
X128.27Y-117.919
X128.27Y-118.745
X128.719Y-122.986
X128.987Y-128.707
X129.079Y-126.444
X129.246Y-143.445
X129.413Y-134.366
X129.413Y-135.509
X129.54Y-111.125
X129.757Y-115.671
X129.857Y-113.093
X130.288Y-117.093
X130.302Y-118.745
X130.683Y-134.366
X130.683Y-135.509
X130.869Y-124.536
X131.064Y-132.016
X131.699Y-119.46
X131.826Y-134.366
X132.461Y-127.762
X132.604Y-131.182
X132.715Y-122.936
X133.985Y-125.222
X133.985Y-126.238
X134.112Y-118.11
X134.112Y-122.002
X134.112Y-132.207
X135.083Y-127.463
X135.128Y-128.651
X135.171Y-119.622
X135.171Y-114.808
X135.199Y-120.412
X135.699Y-117.539
X135.991Y-128.671
X136.017Y-129.584
X136.082Y-144.335
X136.443Y-124.834
X136.661Y-126.104
X136.843Y-136.271
X136.906Y-135.128
X136.906Y-141.478
X136.969Y-133.921
X137.795Y-145.415
X137.922Y-143.002
X138.211Y-118.237
X138.303Y-117.094
X138.43Y-120.523
X138.43Y-121.92
X138.43Y-123.698
X138.43Y-124.968
X138.43Y-126.111
X138.43Y-128.27
X138.811Y-127.508
X139.037Y-118.237
X139.319Y-140.081
X139.446Y-146.304
X139.827Y-137.922
X139.954Y-118.237
X140.843Y-118.237
X141.118Y-135.661
X141.732Y-118.219
X141.783Y-119.132
X141.859Y-114.998
X141.978Y-137.873
X142.247Y-119.771
X142.303Y-114.3
X142.684Y-138.874
X143.002Y-137.668
X143.039Y-118.237
X143.364Y-113.792
X143.891Y-130.175
X144.018Y-141.478
X144.526Y-134.747
X144.589Y-113.919
X145.288Y-141.859
X146.05Y-134.747
X146.304Y-137.795
X146.558Y-138.938
X147.066Y-134.747
X148.018Y-138.938
X148.082Y-134.747
X149.098Y-134.747
X151.13Y-137.795
X151.849Y-140.713
X151.892Y-132.334
X151.917Y-129.502
X152.096Y-130.511
X152.146Y-115.951
X152.781Y-134.81
X153.024Y-125.774
X153.035Y-128.397
X153.48Y-138.239
X153.559Y-118.154
X153.559Y-119.761
X153.559Y-121.354
X153.719Y-124.776
X153.797Y-135.382
X153.861Y-133.794
X154.216Y-127.044
X154.368Y-123.571
X154.813Y-133.794
X154.813Y-135.382
X155.148Y-129.411
X155.151Y-128.524
X155.321Y-138.049
X155.511Y-130.238
X155.542Y-131.285
X155.702Y-116.345
X156.02Y-135.574
X156.419Y-123.825
X156.767Y-131.332
X156.972Y-138.049
X157.226Y-114.808
X157.337Y-127.715
X157.528Y-118.237
X157.749Y-136.73
X158.163Y-145.59
X158.242Y-114.808
X158.242Y-115.697
X158.242Y-116.586
X158.433Y-124.904
X158.671Y-145.082
X158.94Y-133.921
X158.94Y-134.683
X159.131Y-114.808
X159.131Y-115.697
X159.195Y-122.745
X159.639Y-139.446
X159.702Y-120.713
X159.893Y-103.378
X159.992Y-115.087
X160.338Y-107.378
X160.401Y-130.302
X160.782Y-115.062
X161.925Y-104.584
X161.925Y-105.6
X161.925Y-106.489
X161.925Y-108.585
X161.925Y-109.537
X161.925Y-110.617
X163.306Y-102.01
X163.369Y-108.328
X163.385Y-103.124
X164.719Y-102.108
X164.87Y-114.302
X164.87Y-116.203
X165.25Y-97.68
X166.303Y-99.485
X166.39Y-102.108
X167.878Y-103.241
X168.91Y-108.331
X172.987Y-126.873
X172.987Y-137.414
X189.611Y-122.301
X191.28Y-115.226
X165.693Y-129.792
X165.693Y-131.392
X165.693Y-132.992
X165.693Y-134.592
X167.943Y-129.792
X167.943Y-131.392
X167.943Y-132.992
X167.943Y-134.592
X165.878Y-104.991
X165.878Y-106.491
X166.878Y-104.991
X166.878Y-106.491
X167.878Y-104.991
X167.878Y-106.491
T3
X132.08Y-135.445
X132.08Y-136.715
X133.35Y-135.445
X133.35Y-136.715
X134.62Y-135.445
X134.62Y-136.715
T4
X130.48Y-98.298
X130.48Y-100.838
X133.02Y-98.298
X133.02Y-100.838
T5
X118.171Y-113.035
X118.171Y-115.575
X118.171Y-118.115
X118.171Y-120.655
X120.712Y-111.765
X120.712Y-114.305
X120.712Y-116.845
X120.712Y-119.385
T6
X106.934Y-128.524
X106.934Y-131.064
X106.934Y-133.604
X112.014Y-128.524
X112.014Y-131.064
X112.014Y-133.604
T7
X137.75Y-96.75
X142.25Y-96.75
X152.75Y-96.75
X157.25Y-96.75
T8
X106.553Y-115.697
X107.569Y-137.414
X107.696Y-142.748
X107.696Y-148.082
X107.696Y-152.654
X114.808Y-119.761
X116.205Y-128.524
X118.364Y-145.669
X118.745Y-128.397
X120.269Y-136.779
X121.031Y-145.669
X122.047Y-135.509
X123.698Y-145.669
X123.952Y-139.7
X126.619Y-139.7
X143.764Y-126.238
X143.764Y-128.397
X146.177Y-126.238
X146.177Y-128.27
X147.32Y-115.57
X148.336Y-126.111
X148.336Y-128.27
X151.13Y-120.65
X159.893Y-141.351
X163.895Y-143.826
X166.37Y-141.351
X145.796Y-143.446
X145.796Y-145.987
X148.336Y-143.446
X148.336Y-145.987
X150.876Y-143.446
X150.876Y-145.987
X153.416Y-143.446
X153.416Y-145.987
X155.956Y-143.446
X155.956Y-145.987
X111.887Y-139.827
X111.887Y-142.367
X111.887Y-144.907
X111.887Y-147.447
X111.887Y-149.987
X114.427Y-139.827
X114.427Y-142.367
X114.427Y-144.907
X114.427Y-147.447
X114.427Y-149.987
X164.743Y-120.588
X167.218Y-123.063
T9
X106.921Y-109.58
X106.921Y-112.12
X106.921Y-120.29
X106.921Y-122.83
T10
X186.944Y-126.873
X186.944Y-130.373
X186.944Y-133.873
X186.944Y-137.373
X186.944Y-110.363
X186.944Y-113.863
X186.944Y-117.363
X186.944Y-120.863
T11
X136.49Y-99.24
X143.5Y-99.24
X151.49Y-99.24
X158.5Y-99.24
T12
X114.871Y-108.46
X114.871Y-123.95
T13
X162.61Y-99.35
X168.39Y-99.35
T14
X193.04Y-114.476
X193.04Y-117.476
X164.5Y-95.67
X167.5Y-95.67
T15
X111.822Y-110.49
X111.822Y-121.92
T2
X161.18Y-95.4G85X161.18Y-96.0
G05
X161.18Y-99.33G85X161.18Y-100.43
G05
X169.82Y-95.4G85X169.82Y-96.0
G05
X169.82Y-99.33G85X169.82Y-100.43
G05
T0
M30
