G04 #@! TF.GenerationSoftware,KiCad,Pcbnew,(5.1.8)-1*
G04 #@! TF.CreationDate,2021-11-25T19:50:33+01:00*
G04 #@! TF.ProjectId,sensactHsNano2,73656e73-6163-4744-9873-4e616e6f322e,rev?*
G04 #@! TF.SameCoordinates,Original*
G04 #@! TF.FileFunction,Soldermask,Top*
G04 #@! TF.FilePolarity,Negative*
%FSLAX46Y46*%
G04 Gerber Fmt 4.6, Leading zero omitted, Abs format (unit mm)*
G04 Created by KiCad (PCBNEW (5.1.8)-1) date 2021-11-25 19:50:33*
%MOMM*%
%LPD*%
G01*
G04 APERTURE LIST*
%ADD10O,1.700000X1.700000*%
%ADD11R,1.700000X1.700000*%
%ADD12O,1.000000X1.000000*%
%ADD13R,1.000000X1.000000*%
%ADD14O,2.000000X1.600000*%
%ADD15C,1.700000*%
%ADD16C,2.100000*%
%ADD17C,1.750000*%
%ADD18O,1.000000X1.600000*%
%ADD19C,0.650000*%
%ADD20O,1.000000X2.100000*%
%ADD21C,0.900000*%
%ADD22R,0.700000X2.000000*%
%ADD23R,2.000000X0.800000*%
%ADD24C,0.100000*%
%ADD25R,3.500000X2.300000*%
%ADD26R,1.398000X1.398000*%
%ADD27C,1.398000*%
%ADD28C,1.530000*%
%ADD29C,2.445000*%
%ADD30C,3.250000*%
%ADD31R,2.000000X0.700000*%
%ADD32R,0.800000X2.000000*%
%ADD33C,1.524000*%
%ADD34O,3.600000X1.800000*%
%ADD35C,2.000000*%
%ADD36R,1.900000X0.800000*%
G04 APERTURE END LIST*
G36*
G01*
X157601500Y-130843000D02*
X157601500Y-131793000D01*
G75*
G02*
X157351500Y-132043000I-250000J0D01*
G01*
X156676500Y-132043000D01*
G75*
G02*
X156426500Y-131793000I0J250000D01*
G01*
X156426500Y-130843000D01*
G75*
G02*
X156676500Y-130593000I250000J0D01*
G01*
X157351500Y-130593000D01*
G75*
G02*
X157601500Y-130843000I0J-250000D01*
G01*
G37*
G36*
G01*
X159676500Y-130843000D02*
X159676500Y-131793000D01*
G75*
G02*
X159426500Y-132043000I-250000J0D01*
G01*
X158751500Y-132043000D01*
G75*
G02*
X158501500Y-131793000I0J250000D01*
G01*
X158501500Y-130843000D01*
G75*
G02*
X158751500Y-130593000I250000J0D01*
G01*
X159426500Y-130593000D01*
G75*
G02*
X159676500Y-130843000I0J-250000D01*
G01*
G37*
D10*
X155956000Y-145986500D03*
X155956000Y-143446500D03*
X153416000Y-145986500D03*
X153416000Y-143446500D03*
X150876000Y-145986500D03*
X150876000Y-143446500D03*
X148336000Y-145986500D03*
X148336000Y-143446500D03*
X145796000Y-145986500D03*
D11*
X145796000Y-143446500D03*
D12*
X134620000Y-136715500D03*
X134620000Y-135445500D03*
X133350000Y-136715500D03*
X133350000Y-135445500D03*
X132080000Y-136715500D03*
D13*
X132080000Y-135445500D03*
D14*
X106934000Y-128524000D03*
X112014000Y-128524000D03*
X106934000Y-131064000D03*
X112014000Y-131064000D03*
G36*
G01*
X107534000Y-134404000D02*
X106334000Y-134404000D01*
G75*
G02*
X105934000Y-134004000I0J400000D01*
G01*
X105934000Y-133204000D01*
G75*
G02*
X106334000Y-132804000I400000J0D01*
G01*
X107534000Y-132804000D01*
G75*
G02*
X107934000Y-133204000I0J-400000D01*
G01*
X107934000Y-134004000D01*
G75*
G02*
X107534000Y-134404000I-400000J0D01*
G01*
G37*
G36*
G01*
X112614000Y-134404000D02*
X111414000Y-134404000D01*
G75*
G02*
X111014000Y-134004000I0J400000D01*
G01*
X111014000Y-133204000D01*
G75*
G02*
X111414000Y-132804000I400000J0D01*
G01*
X112614000Y-132804000D01*
G75*
G02*
X113014000Y-133204000I0J-400000D01*
G01*
X113014000Y-134004000D01*
G75*
G02*
X112614000Y-134404000I-400000J0D01*
G01*
G37*
G36*
G01*
X162134500Y-117036001D02*
X162134500Y-116135999D01*
G75*
G02*
X162384499Y-115886000I249999J0D01*
G01*
X163084501Y-115886000D01*
G75*
G02*
X163334500Y-116135999I0J-249999D01*
G01*
X163334500Y-117036001D01*
G75*
G02*
X163084501Y-117286000I-249999J0D01*
G01*
X162384499Y-117286000D01*
G75*
G02*
X162134500Y-117036001I0J249999D01*
G01*
G37*
G36*
G01*
X160134500Y-117036001D02*
X160134500Y-116135999D01*
G75*
G02*
X160384499Y-115886000I249999J0D01*
G01*
X161084501Y-115886000D01*
G75*
G02*
X161334500Y-116135999I0J-249999D01*
G01*
X161334500Y-117036001D01*
G75*
G02*
X161084501Y-117286000I-249999J0D01*
G01*
X160384499Y-117286000D01*
G75*
G02*
X160134500Y-117036001I0J249999D01*
G01*
G37*
G36*
G01*
X161334500Y-118104499D02*
X161334500Y-119004501D01*
G75*
G02*
X161084501Y-119254500I-249999J0D01*
G01*
X160384499Y-119254500D01*
G75*
G02*
X160134500Y-119004501I0J249999D01*
G01*
X160134500Y-118104499D01*
G75*
G02*
X160384499Y-117854500I249999J0D01*
G01*
X161084501Y-117854500D01*
G75*
G02*
X161334500Y-118104499I0J-249999D01*
G01*
G37*
G36*
G01*
X163334500Y-118104499D02*
X163334500Y-119004501D01*
G75*
G02*
X163084501Y-119254500I-249999J0D01*
G01*
X162384499Y-119254500D01*
G75*
G02*
X162134500Y-119004501I0J249999D01*
G01*
X162134500Y-118104499D01*
G75*
G02*
X162384499Y-117854500I249999J0D01*
G01*
X163084501Y-117854500D01*
G75*
G02*
X163334500Y-118104499I0J-249999D01*
G01*
G37*
D15*
X111887000Y-149987000D03*
X111887000Y-147447000D03*
X111887000Y-144907000D03*
X111887000Y-142367000D03*
X111887000Y-139827000D03*
X114427000Y-149987000D03*
X114427000Y-147447000D03*
X114427000Y-144907000D03*
X114427000Y-142367000D03*
G36*
G01*
X115277000Y-139227000D02*
X115277000Y-140427000D01*
G75*
G02*
X115027000Y-140677000I-250000J0D01*
G01*
X113827000Y-140677000D01*
G75*
G02*
X113577000Y-140427000I0J250000D01*
G01*
X113577000Y-139227000D01*
G75*
G02*
X113827000Y-138977000I250000J0D01*
G01*
X115027000Y-138977000D01*
G75*
G02*
X115277000Y-139227000I0J-250000D01*
G01*
G37*
G36*
G01*
X165436500Y-100145001D02*
X165436500Y-99244999D01*
G75*
G02*
X165686499Y-98995000I249999J0D01*
G01*
X166386501Y-98995000D01*
G75*
G02*
X166636500Y-99244999I0J-249999D01*
G01*
X166636500Y-100145001D01*
G75*
G02*
X166386501Y-100395000I-249999J0D01*
G01*
X165686499Y-100395000D01*
G75*
G02*
X165436500Y-100145001I0J249999D01*
G01*
G37*
G36*
G01*
X163436500Y-100145001D02*
X163436500Y-99244999D01*
G75*
G02*
X163686499Y-98995000I249999J0D01*
G01*
X164386501Y-98995000D01*
G75*
G02*
X164636500Y-99244999I0J-249999D01*
G01*
X164636500Y-100145001D01*
G75*
G02*
X164386501Y-100395000I-249999J0D01*
G01*
X163686499Y-100395000D01*
G75*
G02*
X163436500Y-100145001I0J249999D01*
G01*
G37*
G36*
G01*
X162960000Y-102304001D02*
X162960000Y-101403999D01*
G75*
G02*
X163209999Y-101154000I249999J0D01*
G01*
X163910001Y-101154000D01*
G75*
G02*
X164160000Y-101403999I0J-249999D01*
G01*
X164160000Y-102304001D01*
G75*
G02*
X163910001Y-102554000I-249999J0D01*
G01*
X163209999Y-102554000D01*
G75*
G02*
X162960000Y-102304001I0J249999D01*
G01*
G37*
G36*
G01*
X160960000Y-102304001D02*
X160960000Y-101403999D01*
G75*
G02*
X161209999Y-101154000I249999J0D01*
G01*
X161910001Y-101154000D01*
G75*
G02*
X162160000Y-101403999I0J-249999D01*
G01*
X162160000Y-102304001D01*
G75*
G02*
X161910001Y-102554000I-249999J0D01*
G01*
X161209999Y-102554000D01*
G75*
G02*
X160960000Y-102304001I0J249999D01*
G01*
G37*
D16*
X151490000Y-99240000D03*
D17*
X152750000Y-96750000D03*
X157250000Y-96750000D03*
D16*
X158500000Y-99240000D03*
X136490000Y-99240000D03*
D17*
X137750000Y-96750000D03*
X142250000Y-96750000D03*
D16*
X143500000Y-99240000D03*
D18*
X169820000Y-95700000D03*
D19*
X168390000Y-99350000D03*
D18*
X161180000Y-95700000D03*
D19*
X162610000Y-99350000D03*
D20*
X161180000Y-99880000D03*
X169820000Y-99880000D03*
D21*
X167500000Y-95670000D03*
X164500000Y-95670000D03*
D22*
X168250000Y-97680000D03*
X165250000Y-97680000D03*
X163750000Y-97680000D03*
D23*
X170150000Y-94570000D03*
X161850000Y-94570000D03*
X161850000Y-96780000D03*
X170150000Y-96780000D03*
G36*
G01*
X127679500Y-126422999D02*
X127679500Y-127323001D01*
G75*
G02*
X127429501Y-127573000I-249999J0D01*
G01*
X126729499Y-127573000D01*
G75*
G02*
X126479500Y-127323001I0J249999D01*
G01*
X126479500Y-126422999D01*
G75*
G02*
X126729499Y-126173000I249999J0D01*
G01*
X127429501Y-126173000D01*
G75*
G02*
X127679500Y-126422999I0J-249999D01*
G01*
G37*
G36*
G01*
X129679500Y-126422999D02*
X129679500Y-127323001D01*
G75*
G02*
X129429501Y-127573000I-249999J0D01*
G01*
X128729499Y-127573000D01*
G75*
G02*
X128479500Y-127323001I0J249999D01*
G01*
X128479500Y-126422999D01*
G75*
G02*
X128729499Y-126173000I249999J0D01*
G01*
X129429501Y-126173000D01*
G75*
G02*
X129679500Y-126422999I0J-249999D01*
G01*
G37*
D24*
G36*
X131049000Y-128130398D02*
G01*
X131024466Y-128130398D01*
X130975635Y-128125588D01*
X130927510Y-128116016D01*
X130880555Y-128101772D01*
X130835222Y-128082995D01*
X130791949Y-128059864D01*
X130751150Y-128032604D01*
X130713221Y-128001476D01*
X130678524Y-127966779D01*
X130647396Y-127928850D01*
X130620136Y-127888051D01*
X130597005Y-127844778D01*
X130578228Y-127799445D01*
X130563984Y-127752490D01*
X130554412Y-127704365D01*
X130549602Y-127655534D01*
X130549602Y-127631000D01*
X130549000Y-127631000D01*
X130549000Y-127131000D01*
X130549602Y-127131000D01*
X130549602Y-127106466D01*
X130554412Y-127057635D01*
X130563984Y-127009510D01*
X130578228Y-126962555D01*
X130597005Y-126917222D01*
X130620136Y-126873949D01*
X130647396Y-126833150D01*
X130678524Y-126795221D01*
X130713221Y-126760524D01*
X130751150Y-126729396D01*
X130791949Y-126702136D01*
X130835222Y-126679005D01*
X130880555Y-126660228D01*
X130927510Y-126645984D01*
X130975635Y-126636412D01*
X131024466Y-126631602D01*
X131049000Y-126631602D01*
X131049000Y-126631000D01*
X131549000Y-126631000D01*
X131549000Y-128131000D01*
X131049000Y-128131000D01*
X131049000Y-128130398D01*
G37*
G36*
X131849000Y-126631000D02*
G01*
X132349000Y-126631000D01*
X132349000Y-126631602D01*
X132373534Y-126631602D01*
X132422365Y-126636412D01*
X132470490Y-126645984D01*
X132517445Y-126660228D01*
X132562778Y-126679005D01*
X132606051Y-126702136D01*
X132646850Y-126729396D01*
X132684779Y-126760524D01*
X132719476Y-126795221D01*
X132750604Y-126833150D01*
X132777864Y-126873949D01*
X132800995Y-126917222D01*
X132819772Y-126962555D01*
X132834016Y-127009510D01*
X132843588Y-127057635D01*
X132848398Y-127106466D01*
X132848398Y-127131000D01*
X132849000Y-127131000D01*
X132849000Y-127631000D01*
X132848398Y-127631000D01*
X132848398Y-127655534D01*
X132843588Y-127704365D01*
X132834016Y-127752490D01*
X132819772Y-127799445D01*
X132800995Y-127844778D01*
X132777864Y-127888051D01*
X132750604Y-127928850D01*
X132719476Y-127966779D01*
X132684779Y-128001476D01*
X132646850Y-128032604D01*
X132606051Y-128059864D01*
X132562778Y-128082995D01*
X132517445Y-128101772D01*
X132470490Y-128116016D01*
X132422365Y-128125588D01*
X132373534Y-128130398D01*
X132349000Y-128130398D01*
X132349000Y-128131000D01*
X131849000Y-128131000D01*
X131849000Y-126631000D01*
G37*
G36*
G01*
X123819500Y-126398000D02*
X123819500Y-127348000D01*
G75*
G02*
X123569500Y-127598000I-250000J0D01*
G01*
X122894500Y-127598000D01*
G75*
G02*
X122644500Y-127348000I0J250000D01*
G01*
X122644500Y-126398000D01*
G75*
G02*
X122894500Y-126148000I250000J0D01*
G01*
X123569500Y-126148000D01*
G75*
G02*
X123819500Y-126398000I0J-250000D01*
G01*
G37*
G36*
G01*
X125894500Y-126398000D02*
X125894500Y-127348000D01*
G75*
G02*
X125644500Y-127598000I-250000J0D01*
G01*
X124969500Y-127598000D01*
G75*
G02*
X124719500Y-127348000I0J250000D01*
G01*
X124719500Y-126398000D01*
G75*
G02*
X124969500Y-126148000I250000J0D01*
G01*
X125644500Y-126148000D01*
G75*
G02*
X125894500Y-126398000I0J-250000D01*
G01*
G37*
D25*
X182976500Y-113588800D03*
X177576500Y-113588800D03*
G36*
G01*
X158799999Y-122150000D02*
X159700001Y-122150000D01*
G75*
G02*
X159950000Y-122399999I0J-249999D01*
G01*
X159950000Y-123100001D01*
G75*
G02*
X159700001Y-123350000I-249999J0D01*
G01*
X158799999Y-123350000D01*
G75*
G02*
X158550000Y-123100001I0J249999D01*
G01*
X158550000Y-122399999D01*
G75*
G02*
X158799999Y-122150000I249999J0D01*
G01*
G37*
G36*
G01*
X158799999Y-120150000D02*
X159700001Y-120150000D01*
G75*
G02*
X159950000Y-120399999I0J-249999D01*
G01*
X159950000Y-121100001D01*
G75*
G02*
X159700001Y-121350000I-249999J0D01*
G01*
X158799999Y-121350000D01*
G75*
G02*
X158550000Y-121100001I0J249999D01*
G01*
X158550000Y-120399999D01*
G75*
G02*
X158799999Y-120150000I249999J0D01*
G01*
G37*
G36*
G01*
X132099000Y-117099501D02*
X132099000Y-116199499D01*
G75*
G02*
X132348999Y-115949500I249999J0D01*
G01*
X133049001Y-115949500D01*
G75*
G02*
X133299000Y-116199499I0J-249999D01*
G01*
X133299000Y-117099501D01*
G75*
G02*
X133049001Y-117349500I-249999J0D01*
G01*
X132348999Y-117349500D01*
G75*
G02*
X132099000Y-117099501I0J249999D01*
G01*
G37*
G36*
G01*
X130099000Y-117099501D02*
X130099000Y-116199499D01*
G75*
G02*
X130348999Y-115949500I249999J0D01*
G01*
X131049001Y-115949500D01*
G75*
G02*
X131299000Y-116199499I0J-249999D01*
G01*
X131299000Y-117099501D01*
G75*
G02*
X131049001Y-117349500I-249999J0D01*
G01*
X130348999Y-117349500D01*
G75*
G02*
X130099000Y-117099501I0J249999D01*
G01*
G37*
G36*
G01*
X131299000Y-118167999D02*
X131299000Y-119068001D01*
G75*
G02*
X131049001Y-119318000I-249999J0D01*
G01*
X130348999Y-119318000D01*
G75*
G02*
X130099000Y-119068001I0J249999D01*
G01*
X130099000Y-118167999D01*
G75*
G02*
X130348999Y-117918000I249999J0D01*
G01*
X131049001Y-117918000D01*
G75*
G02*
X131299000Y-118167999I0J-249999D01*
G01*
G37*
G36*
G01*
X133299000Y-118167999D02*
X133299000Y-119068001D01*
G75*
G02*
X133049001Y-119318000I-249999J0D01*
G01*
X132348999Y-119318000D01*
G75*
G02*
X132099000Y-119068001I0J249999D01*
G01*
X132099000Y-118167999D01*
G75*
G02*
X132348999Y-117918000I249999J0D01*
G01*
X133049001Y-117918000D01*
G75*
G02*
X133299000Y-118167999I0J-249999D01*
G01*
G37*
G36*
G01*
X130219500Y-114167499D02*
X130219500Y-115067501D01*
G75*
G02*
X129969501Y-115317500I-249999J0D01*
G01*
X129269499Y-115317500D01*
G75*
G02*
X129019500Y-115067501I0J249999D01*
G01*
X129019500Y-114167499D01*
G75*
G02*
X129269499Y-113917500I249999J0D01*
G01*
X129969501Y-113917500D01*
G75*
G02*
X130219500Y-114167499I0J-249999D01*
G01*
G37*
G36*
G01*
X132219500Y-114167499D02*
X132219500Y-115067501D01*
G75*
G02*
X131969501Y-115317500I-249999J0D01*
G01*
X131269499Y-115317500D01*
G75*
G02*
X131019500Y-115067501I0J249999D01*
G01*
X131019500Y-114167499D01*
G75*
G02*
X131269499Y-113917500I249999J0D01*
G01*
X131969501Y-113917500D01*
G75*
G02*
X132219500Y-114167499I0J-249999D01*
G01*
G37*
G36*
G01*
X128264499Y-124034500D02*
X129164501Y-124034500D01*
G75*
G02*
X129414500Y-124284499I0J-249999D01*
G01*
X129414500Y-124984501D01*
G75*
G02*
X129164501Y-125234500I-249999J0D01*
G01*
X128264499Y-125234500D01*
G75*
G02*
X128014500Y-124984501I0J249999D01*
G01*
X128014500Y-124284499D01*
G75*
G02*
X128264499Y-124034500I249999J0D01*
G01*
G37*
G36*
G01*
X128264499Y-122034500D02*
X129164501Y-122034500D01*
G75*
G02*
X129414500Y-122284499I0J-249999D01*
G01*
X129414500Y-122984501D01*
G75*
G02*
X129164501Y-123234500I-249999J0D01*
G01*
X128264499Y-123234500D01*
G75*
G02*
X128014500Y-122984501I0J249999D01*
G01*
X128014500Y-122284499D01*
G75*
G02*
X128264499Y-122034500I249999J0D01*
G01*
G37*
G36*
G01*
X131133001Y-123234500D02*
X130232999Y-123234500D01*
G75*
G02*
X129983000Y-122984501I0J249999D01*
G01*
X129983000Y-122284499D01*
G75*
G02*
X130232999Y-122034500I249999J0D01*
G01*
X131133001Y-122034500D01*
G75*
G02*
X131383000Y-122284499I0J-249999D01*
G01*
X131383000Y-122984501D01*
G75*
G02*
X131133001Y-123234500I-249999J0D01*
G01*
G37*
G36*
G01*
X131133001Y-125234500D02*
X130232999Y-125234500D01*
G75*
G02*
X129983000Y-124984501I0J249999D01*
G01*
X129983000Y-124284499D01*
G75*
G02*
X130232999Y-124034500I249999J0D01*
G01*
X131133001Y-124034500D01*
G75*
G02*
X131383000Y-124284499I0J-249999D01*
G01*
X131383000Y-124984501D01*
G75*
G02*
X131133001Y-125234500I-249999J0D01*
G01*
G37*
G36*
G01*
X150299000Y-115476000D02*
X150299000Y-116426000D01*
G75*
G02*
X150049000Y-116676000I-250000J0D01*
G01*
X149374000Y-116676000D01*
G75*
G02*
X149124000Y-116426000I0J250000D01*
G01*
X149124000Y-115476000D01*
G75*
G02*
X149374000Y-115226000I250000J0D01*
G01*
X150049000Y-115226000D01*
G75*
G02*
X150299000Y-115476000I0J-250000D01*
G01*
G37*
G36*
G01*
X152374000Y-115476000D02*
X152374000Y-116426000D01*
G75*
G02*
X152124000Y-116676000I-250000J0D01*
G01*
X151449000Y-116676000D01*
G75*
G02*
X151199000Y-116426000I0J250000D01*
G01*
X151199000Y-115476000D01*
G75*
G02*
X151449000Y-115226000I250000J0D01*
G01*
X152124000Y-115226000D01*
G75*
G02*
X152374000Y-115476000I0J-250000D01*
G01*
G37*
G36*
G01*
X154159000Y-119310999D02*
X154159000Y-120211001D01*
G75*
G02*
X153909001Y-120461000I-249999J0D01*
G01*
X153208999Y-120461000D01*
G75*
G02*
X152959000Y-120211001I0J249999D01*
G01*
X152959000Y-119310999D01*
G75*
G02*
X153208999Y-119061000I249999J0D01*
G01*
X153909001Y-119061000D01*
G75*
G02*
X154159000Y-119310999I0J-249999D01*
G01*
G37*
G36*
G01*
X156159000Y-119310999D02*
X156159000Y-120211001D01*
G75*
G02*
X155909001Y-120461000I-249999J0D01*
G01*
X155208999Y-120461000D01*
G75*
G02*
X154959000Y-120211001I0J249999D01*
G01*
X154959000Y-119310999D01*
G75*
G02*
X155208999Y-119061000I249999J0D01*
G01*
X155909001Y-119061000D01*
G75*
G02*
X156159000Y-119310999I0J-249999D01*
G01*
G37*
G36*
G01*
X154159000Y-117405999D02*
X154159000Y-118306001D01*
G75*
G02*
X153909001Y-118556000I-249999J0D01*
G01*
X153208999Y-118556000D01*
G75*
G02*
X152959000Y-118306001I0J249999D01*
G01*
X152959000Y-117405999D01*
G75*
G02*
X153208999Y-117156000I249999J0D01*
G01*
X153909001Y-117156000D01*
G75*
G02*
X154159000Y-117405999I0J-249999D01*
G01*
G37*
G36*
G01*
X156159000Y-117405999D02*
X156159000Y-118306001D01*
G75*
G02*
X155909001Y-118556000I-249999J0D01*
G01*
X155208999Y-118556000D01*
G75*
G02*
X154959000Y-118306001I0J249999D01*
G01*
X154959000Y-117405999D01*
G75*
G02*
X155208999Y-117156000I249999J0D01*
G01*
X155909001Y-117156000D01*
G75*
G02*
X156159000Y-117405999I0J-249999D01*
G01*
G37*
G36*
G01*
X154159000Y-115500999D02*
X154159000Y-116401001D01*
G75*
G02*
X153909001Y-116651000I-249999J0D01*
G01*
X153208999Y-116651000D01*
G75*
G02*
X152959000Y-116401001I0J249999D01*
G01*
X152959000Y-115500999D01*
G75*
G02*
X153208999Y-115251000I249999J0D01*
G01*
X153909001Y-115251000D01*
G75*
G02*
X154159000Y-115500999I0J-249999D01*
G01*
G37*
G36*
G01*
X156159000Y-115500999D02*
X156159000Y-116401001D01*
G75*
G02*
X155909001Y-116651000I-249999J0D01*
G01*
X155208999Y-116651000D01*
G75*
G02*
X154959000Y-116401001I0J249999D01*
G01*
X154959000Y-115500999D01*
G75*
G02*
X155208999Y-115251000I249999J0D01*
G01*
X155909001Y-115251000D01*
G75*
G02*
X156159000Y-115500999I0J-249999D01*
G01*
G37*
G36*
G01*
X154159000Y-121215999D02*
X154159000Y-122116001D01*
G75*
G02*
X153909001Y-122366000I-249999J0D01*
G01*
X153208999Y-122366000D01*
G75*
G02*
X152959000Y-122116001I0J249999D01*
G01*
X152959000Y-121215999D01*
G75*
G02*
X153208999Y-120966000I249999J0D01*
G01*
X153909001Y-120966000D01*
G75*
G02*
X154159000Y-121215999I0J-249999D01*
G01*
G37*
G36*
G01*
X156159000Y-121215999D02*
X156159000Y-122116001D01*
G75*
G02*
X155909001Y-122366000I-249999J0D01*
G01*
X155208999Y-122366000D01*
G75*
G02*
X154959000Y-122116001I0J249999D01*
G01*
X154959000Y-121215999D01*
G75*
G02*
X155208999Y-120966000I249999J0D01*
G01*
X155909001Y-120966000D01*
G75*
G02*
X156159000Y-121215999I0J-249999D01*
G01*
G37*
G36*
G01*
X155937000Y-125025999D02*
X155937000Y-125926001D01*
G75*
G02*
X155687001Y-126176000I-249999J0D01*
G01*
X154986999Y-126176000D01*
G75*
G02*
X154737000Y-125926001I0J249999D01*
G01*
X154737000Y-125025999D01*
G75*
G02*
X154986999Y-124776000I249999J0D01*
G01*
X155687001Y-124776000D01*
G75*
G02*
X155937000Y-125025999I0J-249999D01*
G01*
G37*
G36*
G01*
X157937000Y-125025999D02*
X157937000Y-125926001D01*
G75*
G02*
X157687001Y-126176000I-249999J0D01*
G01*
X156986999Y-126176000D01*
G75*
G02*
X156737000Y-125926001I0J249999D01*
G01*
X156737000Y-125025999D01*
G75*
G02*
X156986999Y-124776000I249999J0D01*
G01*
X157687001Y-124776000D01*
G75*
G02*
X157937000Y-125025999I0J-249999D01*
G01*
G37*
G36*
G01*
X112986000Y-137647000D02*
X112986000Y-138197000D01*
G75*
G02*
X112786000Y-138397000I-200000J0D01*
G01*
X112386000Y-138397000D01*
G75*
G02*
X112186000Y-138197000I0J200000D01*
G01*
X112186000Y-137647000D01*
G75*
G02*
X112386000Y-137447000I200000J0D01*
G01*
X112786000Y-137447000D01*
G75*
G02*
X112986000Y-137647000I0J-200000D01*
G01*
G37*
G36*
G01*
X114636000Y-137647000D02*
X114636000Y-138197000D01*
G75*
G02*
X114436000Y-138397000I-200000J0D01*
G01*
X114036000Y-138397000D01*
G75*
G02*
X113836000Y-138197000I0J200000D01*
G01*
X113836000Y-137647000D01*
G75*
G02*
X114036000Y-137447000I200000J0D01*
G01*
X114436000Y-137447000D01*
G75*
G02*
X114636000Y-137647000I0J-200000D01*
G01*
G37*
G36*
G01*
X115930000Y-141268000D02*
X116480000Y-141268000D01*
G75*
G02*
X116680000Y-141468000I0J-200000D01*
G01*
X116680000Y-141868000D01*
G75*
G02*
X116480000Y-142068000I-200000J0D01*
G01*
X115930000Y-142068000D01*
G75*
G02*
X115730000Y-141868000I0J200000D01*
G01*
X115730000Y-141468000D01*
G75*
G02*
X115930000Y-141268000I200000J0D01*
G01*
G37*
G36*
G01*
X115930000Y-139618000D02*
X116480000Y-139618000D01*
G75*
G02*
X116680000Y-139818000I0J-200000D01*
G01*
X116680000Y-140218000D01*
G75*
G02*
X116480000Y-140418000I-200000J0D01*
G01*
X115930000Y-140418000D01*
G75*
G02*
X115730000Y-140218000I0J200000D01*
G01*
X115730000Y-139818000D01*
G75*
G02*
X115930000Y-139618000I200000J0D01*
G01*
G37*
D26*
X118171500Y-120655000D03*
D27*
X120711500Y-119385000D03*
X118171500Y-118115000D03*
X120711500Y-116845000D03*
X118171500Y-115575000D03*
X120711500Y-114305000D03*
X118171500Y-113035000D03*
X120711500Y-111765000D03*
D28*
X106921500Y-122830000D03*
X106921500Y-120290000D03*
X106921500Y-109580000D03*
X106921500Y-112120000D03*
D29*
X114871500Y-123950000D03*
X114871500Y-108460000D03*
D30*
X111821500Y-110490000D03*
X111821500Y-121920000D03*
G36*
G01*
X124021000Y-118140500D02*
X124021000Y-117190500D01*
G75*
G02*
X124271000Y-116940500I250000J0D01*
G01*
X124946000Y-116940500D01*
G75*
G02*
X125196000Y-117190500I0J-250000D01*
G01*
X125196000Y-118140500D01*
G75*
G02*
X124946000Y-118390500I-250000J0D01*
G01*
X124271000Y-118390500D01*
G75*
G02*
X124021000Y-118140500I0J250000D01*
G01*
G37*
G36*
G01*
X121946000Y-118140500D02*
X121946000Y-117190500D01*
G75*
G02*
X122196000Y-116940500I250000J0D01*
G01*
X122871000Y-116940500D01*
G75*
G02*
X123121000Y-117190500I0J-250000D01*
G01*
X123121000Y-118140500D01*
G75*
G02*
X122871000Y-118390500I-250000J0D01*
G01*
X122196000Y-118390500D01*
G75*
G02*
X121946000Y-118140500I0J250000D01*
G01*
G37*
G36*
G01*
X108452499Y-124338500D02*
X109352501Y-124338500D01*
G75*
G02*
X109602500Y-124588499I0J-249999D01*
G01*
X109602500Y-125238501D01*
G75*
G02*
X109352501Y-125488500I-249999J0D01*
G01*
X108452499Y-125488500D01*
G75*
G02*
X108202500Y-125238501I0J249999D01*
G01*
X108202500Y-124588499D01*
G75*
G02*
X108452499Y-124338500I249999J0D01*
G01*
G37*
G36*
G01*
X108452499Y-122288500D02*
X109352501Y-122288500D01*
G75*
G02*
X109602500Y-122538499I0J-249999D01*
G01*
X109602500Y-123188501D01*
G75*
G02*
X109352501Y-123438500I-249999J0D01*
G01*
X108452499Y-123438500D01*
G75*
G02*
X108202500Y-123188501I0J249999D01*
G01*
X108202500Y-122538499D01*
G75*
G02*
X108452499Y-122288500I249999J0D01*
G01*
G37*
D24*
G36*
X158828500Y-117487602D02*
G01*
X158853034Y-117487602D01*
X158901865Y-117492412D01*
X158949990Y-117501984D01*
X158996945Y-117516228D01*
X159042278Y-117535005D01*
X159085551Y-117558136D01*
X159126350Y-117585396D01*
X159164279Y-117616524D01*
X159198976Y-117651221D01*
X159230104Y-117689150D01*
X159257364Y-117729949D01*
X159280495Y-117773222D01*
X159299272Y-117818555D01*
X159313516Y-117865510D01*
X159323088Y-117913635D01*
X159327898Y-117962466D01*
X159327898Y-117987000D01*
X159328500Y-117987000D01*
X159328500Y-118487000D01*
X159327898Y-118487000D01*
X159327898Y-118511534D01*
X159323088Y-118560365D01*
X159313516Y-118608490D01*
X159299272Y-118655445D01*
X159280495Y-118700778D01*
X159257364Y-118744051D01*
X159230104Y-118784850D01*
X159198976Y-118822779D01*
X159164279Y-118857476D01*
X159126350Y-118888604D01*
X159085551Y-118915864D01*
X159042278Y-118938995D01*
X158996945Y-118957772D01*
X158949990Y-118972016D01*
X158901865Y-118981588D01*
X158853034Y-118986398D01*
X158828500Y-118986398D01*
X158828500Y-118987000D01*
X158328500Y-118987000D01*
X158328500Y-117487000D01*
X158828500Y-117487000D01*
X158828500Y-117487602D01*
G37*
G36*
X158028500Y-118987000D02*
G01*
X157528500Y-118987000D01*
X157528500Y-118986398D01*
X157503966Y-118986398D01*
X157455135Y-118981588D01*
X157407010Y-118972016D01*
X157360055Y-118957772D01*
X157314722Y-118938995D01*
X157271449Y-118915864D01*
X157230650Y-118888604D01*
X157192721Y-118857476D01*
X157158024Y-118822779D01*
X157126896Y-118784850D01*
X157099636Y-118744051D01*
X157076505Y-118700778D01*
X157057728Y-118655445D01*
X157043484Y-118608490D01*
X157033912Y-118560365D01*
X157029102Y-118511534D01*
X157029102Y-118487000D01*
X157028500Y-118487000D01*
X157028500Y-117987000D01*
X157029102Y-117987000D01*
X157029102Y-117962466D01*
X157033912Y-117913635D01*
X157043484Y-117865510D01*
X157057728Y-117818555D01*
X157076505Y-117773222D01*
X157099636Y-117729949D01*
X157126896Y-117689150D01*
X157158024Y-117651221D01*
X157192721Y-117616524D01*
X157230650Y-117585396D01*
X157271449Y-117558136D01*
X157314722Y-117535005D01*
X157360055Y-117516228D01*
X157407010Y-117501984D01*
X157455135Y-117492412D01*
X157503966Y-117487602D01*
X157528500Y-117487602D01*
X157528500Y-117487000D01*
X158028500Y-117487000D01*
X158028500Y-118987000D01*
G37*
G36*
X150289500Y-118986398D02*
G01*
X150264966Y-118986398D01*
X150216135Y-118981588D01*
X150168010Y-118972016D01*
X150121055Y-118957772D01*
X150075722Y-118938995D01*
X150032449Y-118915864D01*
X149991650Y-118888604D01*
X149953721Y-118857476D01*
X149919024Y-118822779D01*
X149887896Y-118784850D01*
X149860636Y-118744051D01*
X149837505Y-118700778D01*
X149818728Y-118655445D01*
X149804484Y-118608490D01*
X149794912Y-118560365D01*
X149790102Y-118511534D01*
X149790102Y-118487000D01*
X149789500Y-118487000D01*
X149789500Y-117987000D01*
X149790102Y-117987000D01*
X149790102Y-117962466D01*
X149794912Y-117913635D01*
X149804484Y-117865510D01*
X149818728Y-117818555D01*
X149837505Y-117773222D01*
X149860636Y-117729949D01*
X149887896Y-117689150D01*
X149919024Y-117651221D01*
X149953721Y-117616524D01*
X149991650Y-117585396D01*
X150032449Y-117558136D01*
X150075722Y-117535005D01*
X150121055Y-117516228D01*
X150168010Y-117501984D01*
X150216135Y-117492412D01*
X150264966Y-117487602D01*
X150289500Y-117487602D01*
X150289500Y-117487000D01*
X150789500Y-117487000D01*
X150789500Y-118987000D01*
X150289500Y-118987000D01*
X150289500Y-118986398D01*
G37*
G36*
X151089500Y-117487000D02*
G01*
X151589500Y-117487000D01*
X151589500Y-117487602D01*
X151614034Y-117487602D01*
X151662865Y-117492412D01*
X151710990Y-117501984D01*
X151757945Y-117516228D01*
X151803278Y-117535005D01*
X151846551Y-117558136D01*
X151887350Y-117585396D01*
X151925279Y-117616524D01*
X151959976Y-117651221D01*
X151991104Y-117689150D01*
X152018364Y-117729949D01*
X152041495Y-117773222D01*
X152060272Y-117818555D01*
X152074516Y-117865510D01*
X152084088Y-117913635D01*
X152088898Y-117962466D01*
X152088898Y-117987000D01*
X152089500Y-117987000D01*
X152089500Y-118487000D01*
X152088898Y-118487000D01*
X152088898Y-118511534D01*
X152084088Y-118560365D01*
X152074516Y-118608490D01*
X152060272Y-118655445D01*
X152041495Y-118700778D01*
X152018364Y-118744051D01*
X151991104Y-118784850D01*
X151959976Y-118822779D01*
X151925279Y-118857476D01*
X151887350Y-118888604D01*
X151846551Y-118915864D01*
X151803278Y-118938995D01*
X151757945Y-118957772D01*
X151710990Y-118972016D01*
X151662865Y-118981588D01*
X151614034Y-118986398D01*
X151589500Y-118986398D01*
X151589500Y-118987000D01*
X151089500Y-118987000D01*
X151089500Y-117487000D01*
G37*
D21*
X193040000Y-117476400D03*
X193040000Y-114476400D03*
D31*
X191030000Y-118226400D03*
X191030000Y-115226400D03*
X191030000Y-113726400D03*
D32*
X194140000Y-120126400D03*
X194140000Y-111826400D03*
X191930000Y-111826400D03*
X191930000Y-120126400D03*
D33*
X130480000Y-100838000D03*
X133020000Y-100838000D03*
X130480000Y-98298000D03*
G36*
G01*
X132258000Y-98679000D02*
X132258000Y-97917000D01*
G75*
G02*
X132639000Y-97536000I381000J0D01*
G01*
X133401000Y-97536000D01*
G75*
G02*
X133782000Y-97917000I0J-381000D01*
G01*
X133782000Y-98679000D01*
G75*
G02*
X133401000Y-99060000I-381000J0D01*
G01*
X132639000Y-99060000D01*
G75*
G02*
X132258000Y-98679000I0J381000D01*
G01*
G37*
D34*
X186944000Y-137373000D03*
X186944000Y-133873000D03*
X186944000Y-130373000D03*
G36*
G01*
X185394000Y-125973000D02*
X188494000Y-125973000D01*
G75*
G02*
X188744000Y-126223000I0J-250000D01*
G01*
X188744000Y-127523000D01*
G75*
G02*
X188494000Y-127773000I-250000J0D01*
G01*
X185394000Y-127773000D01*
G75*
G02*
X185144000Y-127523000I0J250000D01*
G01*
X185144000Y-126223000D01*
G75*
G02*
X185394000Y-125973000I250000J0D01*
G01*
G37*
D24*
G36*
X166370000Y-139936786D02*
G01*
X167784214Y-141351000D01*
X166370000Y-142765214D01*
X164955786Y-141351000D01*
X166370000Y-139936786D01*
G37*
D35*
X163895126Y-143825874D03*
G36*
G01*
X132162500Y-96589001D02*
X132162500Y-95688999D01*
G75*
G02*
X132412499Y-95439000I249999J0D01*
G01*
X133112501Y-95439000D01*
G75*
G02*
X133362500Y-95688999I0J-249999D01*
G01*
X133362500Y-96589001D01*
G75*
G02*
X133112501Y-96839000I-249999J0D01*
G01*
X132412499Y-96839000D01*
G75*
G02*
X132162500Y-96589001I0J249999D01*
G01*
G37*
G36*
G01*
X130162500Y-96589001D02*
X130162500Y-95688999D01*
G75*
G02*
X130412499Y-95439000I249999J0D01*
G01*
X131112501Y-95439000D01*
G75*
G02*
X131362500Y-95688999I0J-249999D01*
G01*
X131362500Y-96589001D01*
G75*
G02*
X131112501Y-96839000I-249999J0D01*
G01*
X130412499Y-96839000D01*
G75*
G02*
X130162500Y-96589001I0J249999D01*
G01*
G37*
G36*
G01*
X134845500Y-115067501D02*
X134845500Y-114167499D01*
G75*
G02*
X135095499Y-113917500I249999J0D01*
G01*
X135795501Y-113917500D01*
G75*
G02*
X136045500Y-114167499I0J-249999D01*
G01*
X136045500Y-115067501D01*
G75*
G02*
X135795501Y-115317500I-249999J0D01*
G01*
X135095499Y-115317500D01*
G75*
G02*
X134845500Y-115067501I0J249999D01*
G01*
G37*
G36*
G01*
X132845500Y-115067501D02*
X132845500Y-114167499D01*
G75*
G02*
X133095499Y-113917500I249999J0D01*
G01*
X133795501Y-113917500D01*
G75*
G02*
X134045500Y-114167499I0J-249999D01*
G01*
X134045500Y-115067501D01*
G75*
G02*
X133795501Y-115317500I-249999J0D01*
G01*
X133095499Y-115317500D01*
G75*
G02*
X132845500Y-115067501I0J249999D01*
G01*
G37*
D36*
X167870000Y-115252500D03*
X164870000Y-116202500D03*
X164870000Y-114302500D03*
D24*
G36*
X168632214Y-123063000D02*
G01*
X167218000Y-124477214D01*
X165803786Y-123063000D01*
X167218000Y-121648786D01*
X168632214Y-123063000D01*
G37*
D35*
X164743126Y-120588126D03*
D34*
X186944000Y-120863000D03*
X186944000Y-117363000D03*
X186944000Y-113863000D03*
G36*
G01*
X185394000Y-109463000D02*
X188494000Y-109463000D01*
G75*
G02*
X188744000Y-109713000I0J-250000D01*
G01*
X188744000Y-111013000D01*
G75*
G02*
X188494000Y-111263000I-250000J0D01*
G01*
X185394000Y-111263000D01*
G75*
G02*
X185144000Y-111013000I0J250000D01*
G01*
X185144000Y-109713000D01*
G75*
G02*
X185394000Y-109463000I250000J0D01*
G01*
G37*
G36*
G01*
X110280500Y-115818499D02*
X110280500Y-116718501D01*
G75*
G02*
X110030501Y-116968500I-249999J0D01*
G01*
X109330499Y-116968500D01*
G75*
G02*
X109080500Y-116718501I0J249999D01*
G01*
X109080500Y-115818499D01*
G75*
G02*
X109330499Y-115568500I249999J0D01*
G01*
X110030501Y-115568500D01*
G75*
G02*
X110280500Y-115818499I0J-249999D01*
G01*
G37*
G36*
G01*
X112280500Y-115818499D02*
X112280500Y-116718501D01*
G75*
G02*
X112030501Y-116968500I-249999J0D01*
G01*
X111330499Y-116968500D01*
G75*
G02*
X111080500Y-116718501I0J249999D01*
G01*
X111080500Y-115818499D01*
G75*
G02*
X111330499Y-115568500I249999J0D01*
G01*
X112030501Y-115568500D01*
G75*
G02*
X112280500Y-115818499I0J-249999D01*
G01*
G37*
G36*
G01*
X111080500Y-114750001D02*
X111080500Y-113849999D01*
G75*
G02*
X111330499Y-113600000I249999J0D01*
G01*
X112030501Y-113600000D01*
G75*
G02*
X112280500Y-113849999I0J-249999D01*
G01*
X112280500Y-114750001D01*
G75*
G02*
X112030501Y-115000000I-249999J0D01*
G01*
X111330499Y-115000000D01*
G75*
G02*
X111080500Y-114750001I0J249999D01*
G01*
G37*
G36*
G01*
X109080500Y-114750001D02*
X109080500Y-113849999D01*
G75*
G02*
X109330499Y-113600000I249999J0D01*
G01*
X110030501Y-113600000D01*
G75*
G02*
X110280500Y-113849999I0J-249999D01*
G01*
X110280500Y-114750001D01*
G75*
G02*
X110030501Y-115000000I-249999J0D01*
G01*
X109330499Y-115000000D01*
G75*
G02*
X109080500Y-114750001I0J249999D01*
G01*
G37*
G36*
G01*
X187314000Y-121993499D02*
X187314000Y-123243501D01*
G75*
G02*
X187064001Y-123493500I-249999J0D01*
G01*
X186263999Y-123493500D01*
G75*
G02*
X186014000Y-123243501I0J249999D01*
G01*
X186014000Y-121993499D01*
G75*
G02*
X186263999Y-121743500I249999J0D01*
G01*
X187064001Y-121743500D01*
G75*
G02*
X187314000Y-121993499I0J-249999D01*
G01*
G37*
G36*
G01*
X190414000Y-121993499D02*
X190414000Y-123243501D01*
G75*
G02*
X190164001Y-123493500I-249999J0D01*
G01*
X189363999Y-123493500D01*
G75*
G02*
X189114000Y-123243501I0J249999D01*
G01*
X189114000Y-121993499D01*
G75*
G02*
X189363999Y-121743500I249999J0D01*
G01*
X190164001Y-121743500D01*
G75*
G02*
X190414000Y-121993499I0J-249999D01*
G01*
G37*
G36*
G01*
X126776500Y-113151500D02*
X125826500Y-113151500D01*
G75*
G02*
X125576500Y-112901500I0J250000D01*
G01*
X125576500Y-112226500D01*
G75*
G02*
X125826500Y-111976500I250000J0D01*
G01*
X126776500Y-111976500D01*
G75*
G02*
X127026500Y-112226500I0J-250000D01*
G01*
X127026500Y-112901500D01*
G75*
G02*
X126776500Y-113151500I-250000J0D01*
G01*
G37*
G36*
G01*
X126776500Y-115226500D02*
X125826500Y-115226500D01*
G75*
G02*
X125576500Y-114976500I0J250000D01*
G01*
X125576500Y-114301500D01*
G75*
G02*
X125826500Y-114051500I250000J0D01*
G01*
X126776500Y-114051500D01*
G75*
G02*
X127026500Y-114301500I0J-250000D01*
G01*
X127026500Y-114976500D01*
G75*
G02*
X126776500Y-115226500I-250000J0D01*
G01*
G37*
G36*
G01*
X183780000Y-127523003D02*
X183780000Y-126222997D01*
G75*
G02*
X184029997Y-125973000I249997J0D01*
G01*
X184855003Y-125973000D01*
G75*
G02*
X185105000Y-126222997I0J-249997D01*
G01*
X185105000Y-127523003D01*
G75*
G02*
X184855003Y-127773000I-249997J0D01*
G01*
X184029997Y-127773000D01*
G75*
G02*
X183780000Y-127523003I0J249997D01*
G01*
G37*
G36*
G01*
X180655000Y-127523003D02*
X180655000Y-126222997D01*
G75*
G02*
X180904997Y-125973000I249997J0D01*
G01*
X181730003Y-125973000D01*
G75*
G02*
X181980000Y-126222997I0J-249997D01*
G01*
X181980000Y-127523003D01*
G75*
G02*
X181730003Y-127773000I-249997J0D01*
G01*
X180904997Y-127773000D01*
G75*
G02*
X180655000Y-127523003I0J249997D01*
G01*
G37*
G36*
G01*
X183780000Y-138000503D02*
X183780000Y-136700497D01*
G75*
G02*
X184029997Y-136450500I249997J0D01*
G01*
X184855003Y-136450500D01*
G75*
G02*
X185105000Y-136700497I0J-249997D01*
G01*
X185105000Y-138000503D01*
G75*
G02*
X184855003Y-138250500I-249997J0D01*
G01*
X184029997Y-138250500D01*
G75*
G02*
X183780000Y-138000503I0J249997D01*
G01*
G37*
G36*
G01*
X180655000Y-138000503D02*
X180655000Y-136700497D01*
G75*
G02*
X180904997Y-136450500I249997J0D01*
G01*
X181730003Y-136450500D01*
G75*
G02*
X181980000Y-136700497I0J-249997D01*
G01*
X181980000Y-138000503D01*
G75*
G02*
X181730003Y-138250500I-249997J0D01*
G01*
X180904997Y-138250500D01*
G75*
G02*
X180655000Y-138000503I0J249997D01*
G01*
G37*
G36*
G01*
X183780000Y-131079003D02*
X183780000Y-129778997D01*
G75*
G02*
X184029997Y-129529000I249997J0D01*
G01*
X184855003Y-129529000D01*
G75*
G02*
X185105000Y-129778997I0J-249997D01*
G01*
X185105000Y-131079003D01*
G75*
G02*
X184855003Y-131329000I-249997J0D01*
G01*
X184029997Y-131329000D01*
G75*
G02*
X183780000Y-131079003I0J249997D01*
G01*
G37*
G36*
G01*
X180655000Y-131079003D02*
X180655000Y-129778997D01*
G75*
G02*
X180904997Y-129529000I249997J0D01*
G01*
X181730003Y-129529000D01*
G75*
G02*
X181980000Y-129778997I0J-249997D01*
G01*
X181980000Y-131079003D01*
G75*
G02*
X181730003Y-131329000I-249997J0D01*
G01*
X180904997Y-131329000D01*
G75*
G02*
X180655000Y-131079003I0J249997D01*
G01*
G37*
G36*
G01*
X183780000Y-134508003D02*
X183780000Y-133207997D01*
G75*
G02*
X184029997Y-132958000I249997J0D01*
G01*
X184855003Y-132958000D01*
G75*
G02*
X185105000Y-133207997I0J-249997D01*
G01*
X185105000Y-134508003D01*
G75*
G02*
X184855003Y-134758000I-249997J0D01*
G01*
X184029997Y-134758000D01*
G75*
G02*
X183780000Y-134508003I0J249997D01*
G01*
G37*
G36*
G01*
X180655000Y-134508003D02*
X180655000Y-133207997D01*
G75*
G02*
X180904997Y-132958000I249997J0D01*
G01*
X181730003Y-132958000D01*
G75*
G02*
X181980000Y-133207997I0J-249997D01*
G01*
X181980000Y-134508003D01*
G75*
G02*
X181730003Y-134758000I-249997J0D01*
G01*
X180904997Y-134758000D01*
G75*
G02*
X180655000Y-134508003I0J249997D01*
G01*
G37*
M02*
