G04 #@! TF.GenerationSoftware,KiCad,Pcbnew,(5.1.8)-1*
G04 #@! TF.CreationDate,2021-11-25T19:50:33+01:00*
G04 #@! TF.ProjectId,sensactHsNano2,73656e73-6163-4744-9873-4e616e6f322e,rev?*
G04 #@! TF.SameCoordinates,Original*
G04 #@! TF.FileFunction,Legend,Top*
G04 #@! TF.FilePolarity,Positive*
%FSLAX46Y46*%
G04 Gerber Fmt 4.6, Leading zero omitted, Abs format (unit mm)*
G04 Created by KiCad (PCBNEW (5.1.8)-1) date 2021-11-25 19:50:33*
%MOMM*%
%LPD*%
G01*
G04 APERTURE LIST*
%ADD10C,0.300000*%
%ADD11C,0.150000*%
%ADD12C,0.200000*%
%ADD13C,0.120000*%
%ADD14O,1.700000X1.700000*%
%ADD15R,1.700000X1.700000*%
%ADD16O,1.000000X1.000000*%
%ADD17R,1.000000X1.000000*%
%ADD18O,2.000000X1.600000*%
%ADD19C,1.700000*%
%ADD20C,2.100000*%
%ADD21C,1.750000*%
%ADD22O,1.000000X1.600000*%
%ADD23C,0.650000*%
%ADD24O,1.000000X2.100000*%
%ADD25C,0.900000*%
%ADD26R,0.700000X2.000000*%
%ADD27R,2.000000X0.800000*%
%ADD28C,0.100000*%
%ADD29R,3.500000X2.300000*%
%ADD30R,1.398000X1.398000*%
%ADD31C,1.398000*%
%ADD32C,1.530000*%
%ADD33C,2.445000*%
%ADD34C,3.250000*%
%ADD35R,2.000000X0.700000*%
%ADD36R,0.800000X2.000000*%
%ADD37C,1.524000*%
%ADD38O,3.600000X1.800000*%
%ADD39C,2.000000*%
%ADD40R,1.900000X0.800000*%
G04 APERTURE END LIST*
D10*
X177590714Y-142557142D02*
X177733571Y-142628571D01*
X178019285Y-142628571D01*
X178162142Y-142557142D01*
X178233571Y-142414285D01*
X178233571Y-142342857D01*
X178162142Y-142200000D01*
X178019285Y-142128571D01*
X177805000Y-142128571D01*
X177662142Y-142057142D01*
X177590714Y-141914285D01*
X177590714Y-141842857D01*
X177662142Y-141700000D01*
X177805000Y-141628571D01*
X178019285Y-141628571D01*
X178162142Y-141700000D01*
X179447857Y-142557142D02*
X179305000Y-142628571D01*
X179019285Y-142628571D01*
X178876428Y-142557142D01*
X178805000Y-142414285D01*
X178805000Y-141842857D01*
X178876428Y-141700000D01*
X179019285Y-141628571D01*
X179305000Y-141628571D01*
X179447857Y-141700000D01*
X179519285Y-141842857D01*
X179519285Y-141985714D01*
X178805000Y-142128571D01*
X180162142Y-141628571D02*
X180162142Y-142628571D01*
X180162142Y-141771428D02*
X180233571Y-141700000D01*
X180376428Y-141628571D01*
X180590714Y-141628571D01*
X180733571Y-141700000D01*
X180805000Y-141842857D01*
X180805000Y-142628571D01*
X181447857Y-142557142D02*
X181590714Y-142628571D01*
X181876428Y-142628571D01*
X182019285Y-142557142D01*
X182090714Y-142414285D01*
X182090714Y-142342857D01*
X182019285Y-142200000D01*
X181876428Y-142128571D01*
X181662142Y-142128571D01*
X181519285Y-142057142D01*
X181447857Y-141914285D01*
X181447857Y-141842857D01*
X181519285Y-141700000D01*
X181662142Y-141628571D01*
X181876428Y-141628571D01*
X182019285Y-141700000D01*
X183376428Y-142628571D02*
X183376428Y-141842857D01*
X183305000Y-141700000D01*
X183162142Y-141628571D01*
X182876428Y-141628571D01*
X182733571Y-141700000D01*
X183376428Y-142557142D02*
X183233571Y-142628571D01*
X182876428Y-142628571D01*
X182733571Y-142557142D01*
X182662142Y-142414285D01*
X182662142Y-142271428D01*
X182733571Y-142128571D01*
X182876428Y-142057142D01*
X183233571Y-142057142D01*
X183376428Y-141985714D01*
X184733571Y-142557142D02*
X184590714Y-142628571D01*
X184305000Y-142628571D01*
X184162142Y-142557142D01*
X184090714Y-142485714D01*
X184019285Y-142342857D01*
X184019285Y-141914285D01*
X184090714Y-141771428D01*
X184162142Y-141700000D01*
X184305000Y-141628571D01*
X184590714Y-141628571D01*
X184733571Y-141700000D01*
X185162142Y-141628571D02*
X185733571Y-141628571D01*
X185376428Y-141128571D02*
X185376428Y-142414285D01*
X185447857Y-142557142D01*
X185590714Y-142628571D01*
X185733571Y-142628571D01*
X186233571Y-142628571D02*
X186233571Y-141128571D01*
X186233571Y-141842857D02*
X187090714Y-141842857D01*
X187090714Y-142628571D02*
X187090714Y-141128571D01*
X187733571Y-142557142D02*
X187947857Y-142628571D01*
X188305000Y-142628571D01*
X188447857Y-142557142D01*
X188519285Y-142485714D01*
X188590714Y-142342857D01*
X188590714Y-142200000D01*
X188519285Y-142057142D01*
X188447857Y-141985714D01*
X188305000Y-141914285D01*
X188019285Y-141842857D01*
X187876428Y-141771428D01*
X187805000Y-141700000D01*
X187733571Y-141557142D01*
X187733571Y-141414285D01*
X187805000Y-141271428D01*
X187876428Y-141200000D01*
X188019285Y-141128571D01*
X188376428Y-141128571D01*
X188590714Y-141200000D01*
X189233571Y-141628571D02*
X189233571Y-142628571D01*
X189233571Y-141771428D02*
X189305000Y-141700000D01*
X189447857Y-141628571D01*
X189662142Y-141628571D01*
X189805000Y-141700000D01*
X189876428Y-141842857D01*
X189876428Y-142628571D01*
X191233571Y-142628571D02*
X191233571Y-141842857D01*
X191162142Y-141700000D01*
X191019285Y-141628571D01*
X190733571Y-141628571D01*
X190590714Y-141700000D01*
X191233571Y-142557142D02*
X191090714Y-142628571D01*
X190733571Y-142628571D01*
X190590714Y-142557142D01*
X190519285Y-142414285D01*
X190519285Y-142271428D01*
X190590714Y-142128571D01*
X190733571Y-142057142D01*
X191090714Y-142057142D01*
X191233571Y-141985714D01*
X191947857Y-141628571D02*
X191947857Y-142628571D01*
X191947857Y-141771428D02*
X192019285Y-141700000D01*
X192162142Y-141628571D01*
X192376428Y-141628571D01*
X192519285Y-141700000D01*
X192590714Y-141842857D01*
X192590714Y-142628571D01*
X193519285Y-142628571D02*
X193376428Y-142557142D01*
X193305000Y-142485714D01*
X193233571Y-142342857D01*
X193233571Y-141914285D01*
X193305000Y-141771428D01*
X193376428Y-141700000D01*
X193519285Y-141628571D01*
X193733571Y-141628571D01*
X193876428Y-141700000D01*
X193947857Y-141771428D01*
X194019285Y-141914285D01*
X194019285Y-142342857D01*
X193947857Y-142485714D01*
X193876428Y-142557142D01*
X193733571Y-142628571D01*
X193519285Y-142628571D01*
X179733571Y-145178571D02*
X179733571Y-143678571D01*
X180590714Y-145178571D02*
X179947857Y-144321428D01*
X180590714Y-143678571D02*
X179733571Y-144535714D01*
X181447857Y-145178571D02*
X181305000Y-145107142D01*
X181233571Y-144964285D01*
X181233571Y-143678571D01*
X182662142Y-145178571D02*
X182662142Y-144392857D01*
X182590714Y-144250000D01*
X182447857Y-144178571D01*
X182162142Y-144178571D01*
X182019285Y-144250000D01*
X182662142Y-145107142D02*
X182519285Y-145178571D01*
X182162142Y-145178571D01*
X182019285Y-145107142D01*
X181947857Y-144964285D01*
X181947857Y-144821428D01*
X182019285Y-144678571D01*
X182162142Y-144607142D01*
X182519285Y-144607142D01*
X182662142Y-144535714D01*
X184019285Y-144178571D02*
X184019285Y-145178571D01*
X183376428Y-144178571D02*
X183376428Y-144964285D01*
X183447857Y-145107142D01*
X183590714Y-145178571D01*
X183805000Y-145178571D01*
X183947857Y-145107142D01*
X184019285Y-145035714D01*
X184662142Y-145107142D02*
X184805000Y-145178571D01*
X185090714Y-145178571D01*
X185233571Y-145107142D01*
X185305000Y-144964285D01*
X185305000Y-144892857D01*
X185233571Y-144750000D01*
X185090714Y-144678571D01*
X184876428Y-144678571D01*
X184733571Y-144607142D01*
X184662142Y-144464285D01*
X184662142Y-144392857D01*
X184733571Y-144250000D01*
X184876428Y-144178571D01*
X185090714Y-144178571D01*
X185233571Y-144250000D01*
X187805000Y-145178571D02*
X187090714Y-145178571D01*
X187090714Y-143678571D01*
X188305000Y-145178571D02*
X188305000Y-144178571D01*
X188305000Y-143678571D02*
X188233571Y-143750000D01*
X188305000Y-143821428D01*
X188376428Y-143750000D01*
X188305000Y-143678571D01*
X188305000Y-143821428D01*
X189590714Y-145107142D02*
X189447857Y-145178571D01*
X189162142Y-145178571D01*
X189019285Y-145107142D01*
X188947857Y-144964285D01*
X188947857Y-144392857D01*
X189019285Y-144250000D01*
X189162142Y-144178571D01*
X189447857Y-144178571D01*
X189590714Y-144250000D01*
X189662142Y-144392857D01*
X189662142Y-144535714D01*
X188947857Y-144678571D01*
X190305000Y-145178571D02*
X190305000Y-143678571D01*
X190305000Y-144250000D02*
X190447857Y-144178571D01*
X190733571Y-144178571D01*
X190876428Y-144250000D01*
X190947857Y-144321428D01*
X191019285Y-144464285D01*
X191019285Y-144892857D01*
X190947857Y-145035714D01*
X190876428Y-145107142D01*
X190733571Y-145178571D01*
X190447857Y-145178571D01*
X190305000Y-145107142D01*
X191876428Y-145178571D02*
X191733571Y-145107142D01*
X191662142Y-144964285D01*
X191662142Y-143678571D01*
X193019285Y-145107142D02*
X192876428Y-145178571D01*
X192590714Y-145178571D01*
X192447857Y-145107142D01*
X192376428Y-144964285D01*
X192376428Y-144392857D01*
X192447857Y-144250000D01*
X192590714Y-144178571D01*
X192876428Y-144178571D01*
X193019285Y-144250000D01*
X193090714Y-144392857D01*
X193090714Y-144535714D01*
X192376428Y-144678571D01*
X193733571Y-145178571D02*
X193733571Y-144178571D01*
X193733571Y-144464285D02*
X193805000Y-144321428D01*
X193876428Y-144250000D01*
X194019285Y-144178571D01*
X194162142Y-144178571D01*
X179447857Y-146371428D02*
X179519285Y-146300000D01*
X179662142Y-146228571D01*
X180019285Y-146228571D01*
X180162142Y-146300000D01*
X180233571Y-146371428D01*
X180305000Y-146514285D01*
X180305000Y-146657142D01*
X180233571Y-146871428D01*
X179376428Y-147728571D01*
X180305000Y-147728571D01*
X181233571Y-146228571D02*
X181376428Y-146228571D01*
X181519285Y-146300000D01*
X181590714Y-146371428D01*
X181662142Y-146514285D01*
X181733571Y-146800000D01*
X181733571Y-147157142D01*
X181662142Y-147442857D01*
X181590714Y-147585714D01*
X181519285Y-147657142D01*
X181376428Y-147728571D01*
X181233571Y-147728571D01*
X181090714Y-147657142D01*
X181019285Y-147585714D01*
X180947857Y-147442857D01*
X180876428Y-147157142D01*
X180876428Y-146800000D01*
X180947857Y-146514285D01*
X181019285Y-146371428D01*
X181090714Y-146300000D01*
X181233571Y-146228571D01*
X182305000Y-146371428D02*
X182376428Y-146300000D01*
X182519285Y-146228571D01*
X182876428Y-146228571D01*
X183019285Y-146300000D01*
X183090714Y-146371428D01*
X183162142Y-146514285D01*
X183162142Y-146657142D01*
X183090714Y-146871428D01*
X182233571Y-147728571D01*
X183162142Y-147728571D01*
X184590714Y-147728571D02*
X183733571Y-147728571D01*
X184162142Y-147728571D02*
X184162142Y-146228571D01*
X184019285Y-146442857D01*
X183876428Y-146585714D01*
X183733571Y-146657142D01*
X185233571Y-147157142D02*
X186376428Y-147157142D01*
X187876428Y-147728571D02*
X187019285Y-147728571D01*
X187447857Y-147728571D02*
X187447857Y-146228571D01*
X187305000Y-146442857D01*
X187162142Y-146585714D01*
X187019285Y-146657142D01*
X189305000Y-147728571D02*
X188447857Y-147728571D01*
X188876428Y-147728571D02*
X188876428Y-146228571D01*
X188733571Y-146442857D01*
X188590714Y-146585714D01*
X188447857Y-146657142D01*
X189947857Y-147157142D02*
X191090714Y-147157142D01*
X191733571Y-146371428D02*
X191805000Y-146300000D01*
X191947857Y-146228571D01*
X192305000Y-146228571D01*
X192447857Y-146300000D01*
X192519285Y-146371428D01*
X192590714Y-146514285D01*
X192590714Y-146657142D01*
X192519285Y-146871428D01*
X191662142Y-147728571D01*
X192590714Y-147728571D01*
X193947857Y-146228571D02*
X193233571Y-146228571D01*
X193162142Y-146942857D01*
X193233571Y-146871428D01*
X193376428Y-146800000D01*
X193733571Y-146800000D01*
X193876428Y-146871428D01*
X193947857Y-146942857D01*
X194019285Y-147085714D01*
X194019285Y-147442857D01*
X193947857Y-147585714D01*
X193876428Y-147657142D01*
X193733571Y-147728571D01*
X193376428Y-147728571D01*
X193233571Y-147657142D01*
X193162142Y-147585714D01*
D11*
X140250000Y-102702380D02*
X139678571Y-102702380D01*
X139964285Y-102702380D02*
X139964285Y-101702380D01*
X139869047Y-101845238D01*
X139773809Y-101940476D01*
X139678571Y-101988095D01*
X141107142Y-102035714D02*
X141107142Y-102702380D01*
X140869047Y-101654761D02*
X140630952Y-102369047D01*
X141250000Y-102369047D01*
X141821428Y-101702380D02*
X141916666Y-101702380D01*
X142011904Y-101750000D01*
X142059523Y-101797619D01*
X142107142Y-101892857D01*
X142154761Y-102083333D01*
X142154761Y-102321428D01*
X142107142Y-102511904D01*
X142059523Y-102607142D01*
X142011904Y-102654761D01*
X141916666Y-102702380D01*
X141821428Y-102702380D01*
X141726190Y-102654761D01*
X141678571Y-102607142D01*
X141630952Y-102511904D01*
X141583333Y-102321428D01*
X141583333Y-102083333D01*
X141630952Y-101892857D01*
X141678571Y-101797619D01*
X141726190Y-101750000D01*
X141821428Y-101702380D01*
X142583333Y-102702380D02*
X142583333Y-102035714D01*
X142583333Y-102130952D02*
X142630952Y-102083333D01*
X142726190Y-102035714D01*
X142869047Y-102035714D01*
X142964285Y-102083333D01*
X143011904Y-102178571D01*
X143011904Y-102702380D01*
X143011904Y-102178571D02*
X143059523Y-102083333D01*
X143154761Y-102035714D01*
X143297619Y-102035714D01*
X143392857Y-102083333D01*
X143440476Y-102178571D01*
X143440476Y-102702380D01*
X143916666Y-102702380D02*
X143916666Y-102035714D01*
X143916666Y-102130952D02*
X143964285Y-102083333D01*
X144059523Y-102035714D01*
X144202380Y-102035714D01*
X144297619Y-102083333D01*
X144345238Y-102178571D01*
X144345238Y-102702380D01*
X144345238Y-102178571D02*
X144392857Y-102083333D01*
X144488095Y-102035714D01*
X144630952Y-102035714D01*
X144726190Y-102083333D01*
X144773809Y-102178571D01*
X144773809Y-102702380D01*
X153250000Y-102702380D02*
X152678571Y-102702380D01*
X152964285Y-102702380D02*
X152964285Y-101702380D01*
X152869047Y-101845238D01*
X152773809Y-101940476D01*
X152678571Y-101988095D01*
X154154761Y-101702380D02*
X153678571Y-101702380D01*
X153630952Y-102178571D01*
X153678571Y-102130952D01*
X153773809Y-102083333D01*
X154011904Y-102083333D01*
X154107142Y-102130952D01*
X154154761Y-102178571D01*
X154202380Y-102273809D01*
X154202380Y-102511904D01*
X154154761Y-102607142D01*
X154107142Y-102654761D01*
X154011904Y-102702380D01*
X153773809Y-102702380D01*
X153678571Y-102654761D01*
X153630952Y-102607142D01*
X155107142Y-101702380D02*
X154630952Y-101702380D01*
X154583333Y-102178571D01*
X154630952Y-102130952D01*
X154726190Y-102083333D01*
X154964285Y-102083333D01*
X155059523Y-102130952D01*
X155107142Y-102178571D01*
X155154761Y-102273809D01*
X155154761Y-102511904D01*
X155107142Y-102607142D01*
X155059523Y-102654761D01*
X154964285Y-102702380D01*
X154726190Y-102702380D01*
X154630952Y-102654761D01*
X154583333Y-102607142D01*
X155583333Y-102702380D02*
X155583333Y-102035714D01*
X155583333Y-102130952D02*
X155630952Y-102083333D01*
X155726190Y-102035714D01*
X155869047Y-102035714D01*
X155964285Y-102083333D01*
X156011904Y-102178571D01*
X156011904Y-102702380D01*
X156011904Y-102178571D02*
X156059523Y-102083333D01*
X156154761Y-102035714D01*
X156297619Y-102035714D01*
X156392857Y-102083333D01*
X156440476Y-102178571D01*
X156440476Y-102702380D01*
X156916666Y-102702380D02*
X156916666Y-102035714D01*
X156916666Y-102130952D02*
X156964285Y-102083333D01*
X157059523Y-102035714D01*
X157202380Y-102035714D01*
X157297619Y-102083333D01*
X157345238Y-102178571D01*
X157345238Y-102702380D01*
X157345238Y-102178571D02*
X157392857Y-102083333D01*
X157488095Y-102035714D01*
X157630952Y-102035714D01*
X157726190Y-102083333D01*
X157773809Y-102178571D01*
X157773809Y-102702380D01*
D12*
X167528952Y-100143571D02*
X167719428Y-100143571D01*
X167814666Y-100215000D01*
X167909904Y-100357857D01*
X167957523Y-100643571D01*
X167957523Y-101143571D01*
X167909904Y-101429285D01*
X167814666Y-101572142D01*
X167719428Y-101643571D01*
X167528952Y-101643571D01*
X167433714Y-101572142D01*
X167338476Y-101429285D01*
X167290857Y-101143571D01*
X167290857Y-100643571D01*
X167338476Y-100357857D01*
X167433714Y-100215000D01*
X167528952Y-100143571D01*
X168386095Y-101643571D02*
X168386095Y-100143571D01*
X168957523Y-101643571D01*
X168957523Y-100143571D01*
X153654333Y-99079857D02*
X153987666Y-99079857D01*
X154130523Y-99865571D02*
X153654333Y-99865571D01*
X153654333Y-98365571D01*
X154130523Y-98365571D01*
X154559095Y-99865571D02*
X154559095Y-98365571D01*
X155130523Y-99865571D01*
X155130523Y-98365571D01*
X155559095Y-99437000D02*
X156035285Y-99437000D01*
X155463857Y-99865571D02*
X155797190Y-98365571D01*
X156130523Y-99865571D01*
X156797190Y-99079857D02*
X156940047Y-99151285D01*
X156987666Y-99222714D01*
X157035285Y-99365571D01*
X157035285Y-99579857D01*
X156987666Y-99722714D01*
X156940047Y-99794142D01*
X156844809Y-99865571D01*
X156463857Y-99865571D01*
X156463857Y-98365571D01*
X156797190Y-98365571D01*
X156892428Y-98437000D01*
X156940047Y-98508428D01*
X156987666Y-98651285D01*
X156987666Y-98794142D01*
X156940047Y-98937000D01*
X156892428Y-99008428D01*
X156797190Y-99079857D01*
X156463857Y-99079857D01*
X137406285Y-99865571D02*
X137406285Y-98365571D01*
X137787238Y-98365571D01*
X137882476Y-98437000D01*
X137930095Y-98508428D01*
X137977714Y-98651285D01*
X137977714Y-98865571D01*
X137930095Y-99008428D01*
X137882476Y-99079857D01*
X137787238Y-99151285D01*
X137406285Y-99151285D01*
X138977714Y-99865571D02*
X138644380Y-99151285D01*
X138406285Y-99865571D02*
X138406285Y-98365571D01*
X138787238Y-98365571D01*
X138882476Y-98437000D01*
X138930095Y-98508428D01*
X138977714Y-98651285D01*
X138977714Y-98865571D01*
X138930095Y-99008428D01*
X138882476Y-99079857D01*
X138787238Y-99151285D01*
X138406285Y-99151285D01*
X139596761Y-98365571D02*
X139787238Y-98365571D01*
X139882476Y-98437000D01*
X139977714Y-98579857D01*
X140025333Y-98865571D01*
X140025333Y-99365571D01*
X139977714Y-99651285D01*
X139882476Y-99794142D01*
X139787238Y-99865571D01*
X139596761Y-99865571D01*
X139501523Y-99794142D01*
X139406285Y-99651285D01*
X139358666Y-99365571D01*
X139358666Y-98865571D01*
X139406285Y-98579857D01*
X139501523Y-98437000D01*
X139596761Y-98365571D01*
X140977714Y-98437000D02*
X140882476Y-98365571D01*
X140739619Y-98365571D01*
X140596761Y-98437000D01*
X140501523Y-98579857D01*
X140453904Y-98722714D01*
X140406285Y-99008428D01*
X140406285Y-99222714D01*
X140453904Y-99508428D01*
X140501523Y-99651285D01*
X140596761Y-99794142D01*
X140739619Y-99865571D01*
X140834857Y-99865571D01*
X140977714Y-99794142D01*
X141025333Y-99722714D01*
X141025333Y-99222714D01*
X140834857Y-99222714D01*
D10*
X134959214Y-138738500D02*
X135673500Y-138738500D01*
X134816357Y-139167071D02*
X135316357Y-137667071D01*
X135816357Y-139167071D01*
X136602071Y-137667071D02*
X136887785Y-137667071D01*
X137030642Y-137738500D01*
X137173500Y-137881357D01*
X137244928Y-138167071D01*
X137244928Y-138667071D01*
X137173500Y-138952785D01*
X137030642Y-139095642D01*
X136887785Y-139167071D01*
X136602071Y-139167071D01*
X136459214Y-139095642D01*
X136316357Y-138952785D01*
X136244928Y-138667071D01*
X136244928Y-138167071D01*
X136316357Y-137881357D01*
X136459214Y-137738500D01*
X136602071Y-137667071D01*
X138173500Y-137667071D02*
X138316357Y-137667071D01*
X138459214Y-137738500D01*
X138530642Y-137809928D01*
X138602071Y-137952785D01*
X138673500Y-138238500D01*
X138673500Y-138595642D01*
X138602071Y-138881357D01*
X138530642Y-139024214D01*
X138459214Y-139095642D01*
X138316357Y-139167071D01*
X138173500Y-139167071D01*
X138030642Y-139095642D01*
X137959214Y-139024214D01*
X137887785Y-138881357D01*
X137816357Y-138595642D01*
X137816357Y-138238500D01*
X137887785Y-137952785D01*
X137959214Y-137809928D01*
X138030642Y-137738500D01*
X138173500Y-137667071D01*
X140244928Y-137667071D02*
X140744928Y-139167071D01*
X141244928Y-137667071D01*
X142030642Y-137667071D02*
X142316357Y-137667071D01*
X142459214Y-137738500D01*
X142602071Y-137881357D01*
X142673500Y-138167071D01*
X142673500Y-138667071D01*
X142602071Y-138952785D01*
X142459214Y-139095642D01*
X142316357Y-139167071D01*
X142030642Y-139167071D01*
X141887785Y-139095642D01*
X141744928Y-138952785D01*
X141673500Y-138667071D01*
X141673500Y-138167071D01*
X141744928Y-137881357D01*
X141887785Y-137738500D01*
X142030642Y-137667071D01*
X143316357Y-137667071D02*
X143316357Y-138881357D01*
X143387785Y-139024214D01*
X143459214Y-139095642D01*
X143602071Y-139167071D01*
X143887785Y-139167071D01*
X144030642Y-139095642D01*
X144102071Y-139024214D01*
X144173500Y-138881357D01*
X144173500Y-137667071D01*
X144673500Y-137667071D02*
X145530642Y-137667071D01*
X145102071Y-139167071D02*
X145102071Y-137667071D01*
X146530642Y-138381357D02*
X146744928Y-138452785D01*
X146816357Y-138524214D01*
X146887785Y-138667071D01*
X146887785Y-138881357D01*
X146816357Y-139024214D01*
X146744928Y-139095642D01*
X146602071Y-139167071D01*
X146030642Y-139167071D01*
X146030642Y-137667071D01*
X146530642Y-137667071D01*
X146673500Y-137738500D01*
X146744928Y-137809928D01*
X146816357Y-137952785D01*
X146816357Y-138095642D01*
X146744928Y-138238500D01*
X146673500Y-138309928D01*
X146530642Y-138381357D01*
X146030642Y-138381357D01*
X148602071Y-138738500D02*
X149316357Y-138738500D01*
X148459214Y-139167071D02*
X148959214Y-137667071D01*
X149459214Y-139167071D01*
X149959214Y-139167071D02*
X149959214Y-137667071D01*
X150673500Y-139167071D02*
X150673500Y-137667071D01*
X151530642Y-139167071D01*
X151530642Y-137667071D01*
X152173500Y-137809928D02*
X152244928Y-137738500D01*
X152387785Y-137667071D01*
X152744928Y-137667071D01*
X152887785Y-137738500D01*
X152959214Y-137809928D01*
X153030642Y-137952785D01*
X153030642Y-138095642D01*
X152959214Y-138309928D01*
X152102071Y-139167071D01*
X153030642Y-139167071D01*
X155602071Y-137738500D02*
X155459214Y-137667071D01*
X155244928Y-137667071D01*
X155030642Y-137738500D01*
X154887785Y-137881357D01*
X154816357Y-138024214D01*
X154744928Y-138309928D01*
X154744928Y-138524214D01*
X154816357Y-138809928D01*
X154887785Y-138952785D01*
X155030642Y-139095642D01*
X155244928Y-139167071D01*
X155387785Y-139167071D01*
X155602071Y-139095642D01*
X155673500Y-139024214D01*
X155673500Y-138524214D01*
X155387785Y-138524214D01*
X156316357Y-139167071D02*
X156316357Y-137667071D01*
X157173500Y-139167071D01*
X157173500Y-137667071D01*
X157887785Y-139167071D02*
X157887785Y-137667071D01*
X158244928Y-137667071D01*
X158459214Y-137738500D01*
X158602071Y-137881357D01*
X158673500Y-138024214D01*
X158744928Y-138309928D01*
X158744928Y-138524214D01*
X158673500Y-138809928D01*
X158602071Y-138952785D01*
X158459214Y-139095642D01*
X158244928Y-139167071D01*
X157887785Y-139167071D01*
X160459214Y-138738500D02*
X161173500Y-138738500D01*
X160316357Y-139167071D02*
X160816357Y-137667071D01*
X161316357Y-139167071D01*
X161816357Y-139167071D02*
X161816357Y-137667071D01*
X162530642Y-139167071D02*
X162530642Y-137667071D01*
X163387785Y-139167071D01*
X163387785Y-137667071D01*
X164387785Y-137667071D02*
X164530642Y-137667071D01*
X164673500Y-137738500D01*
X164744928Y-137809928D01*
X164816357Y-137952785D01*
X164887785Y-138238500D01*
X164887785Y-138595642D01*
X164816357Y-138881357D01*
X164744928Y-139024214D01*
X164673500Y-139095642D01*
X164530642Y-139167071D01*
X164387785Y-139167071D01*
X164244928Y-139095642D01*
X164173500Y-139024214D01*
X164102071Y-138881357D01*
X164030642Y-138595642D01*
X164030642Y-138238500D01*
X164102071Y-137952785D01*
X164173500Y-137809928D01*
X164244928Y-137738500D01*
X164387785Y-137667071D01*
X135066357Y-141288500D02*
X135780642Y-141288500D01*
X134923500Y-141717071D02*
X135423500Y-140217071D01*
X135923500Y-141717071D01*
X136709214Y-140217071D02*
X136994928Y-140217071D01*
X137137785Y-140288500D01*
X137280642Y-140431357D01*
X137352071Y-140717071D01*
X137352071Y-141217071D01*
X137280642Y-141502785D01*
X137137785Y-141645642D01*
X136994928Y-141717071D01*
X136709214Y-141717071D01*
X136566357Y-141645642D01*
X136423500Y-141502785D01*
X136352071Y-141217071D01*
X136352071Y-140717071D01*
X136423500Y-140431357D01*
X136566357Y-140288500D01*
X136709214Y-140217071D01*
X138780642Y-141717071D02*
X137923500Y-141717071D01*
X138352071Y-141717071D02*
X138352071Y-140217071D01*
X138209214Y-140431357D01*
X138066357Y-140574214D01*
X137923500Y-140645642D01*
X140352071Y-140217071D02*
X140852071Y-141717071D01*
X141352071Y-140217071D01*
X142137785Y-140217071D02*
X142423500Y-140217071D01*
X142566357Y-140288500D01*
X142709214Y-140431357D01*
X142780642Y-140717071D01*
X142780642Y-141217071D01*
X142709214Y-141502785D01*
X142566357Y-141645642D01*
X142423500Y-141717071D01*
X142137785Y-141717071D01*
X141994928Y-141645642D01*
X141852071Y-141502785D01*
X141780642Y-141217071D01*
X141780642Y-140717071D01*
X141852071Y-140431357D01*
X141994928Y-140288500D01*
X142137785Y-140217071D01*
X143423500Y-140217071D02*
X143423500Y-141431357D01*
X143494928Y-141574214D01*
X143566357Y-141645642D01*
X143709214Y-141717071D01*
X143994928Y-141717071D01*
X144137785Y-141645642D01*
X144209214Y-141574214D01*
X144280642Y-141431357D01*
X144280642Y-140217071D01*
X144780642Y-140217071D02*
X145637785Y-140217071D01*
X145209214Y-141717071D02*
X145209214Y-140217071D01*
X146066357Y-141288500D02*
X146780642Y-141288500D01*
X145923500Y-141717071D02*
X146423500Y-140217071D01*
X146923500Y-141717071D01*
X148494928Y-141288500D02*
X149209214Y-141288500D01*
X148352071Y-141717071D02*
X148852071Y-140217071D01*
X149352071Y-141717071D01*
X149852071Y-141717071D02*
X149852071Y-140217071D01*
X150566357Y-141717071D02*
X150566357Y-140217071D01*
X151423500Y-141717071D01*
X151423500Y-140217071D01*
X151994928Y-140217071D02*
X152923500Y-140217071D01*
X152423500Y-140788500D01*
X152637785Y-140788500D01*
X152780642Y-140859928D01*
X152852071Y-140931357D01*
X152923500Y-141074214D01*
X152923500Y-141431357D01*
X152852071Y-141574214D01*
X152780642Y-141645642D01*
X152637785Y-141717071D01*
X152209214Y-141717071D01*
X152066357Y-141645642D01*
X151994928Y-141574214D01*
X155494928Y-140288500D02*
X155352071Y-140217071D01*
X155137785Y-140217071D01*
X154923500Y-140288500D01*
X154780642Y-140431357D01*
X154709214Y-140574214D01*
X154637785Y-140859928D01*
X154637785Y-141074214D01*
X154709214Y-141359928D01*
X154780642Y-141502785D01*
X154923500Y-141645642D01*
X155137785Y-141717071D01*
X155280642Y-141717071D01*
X155494928Y-141645642D01*
X155566357Y-141574214D01*
X155566357Y-141074214D01*
X155280642Y-141074214D01*
X156209214Y-141717071D02*
X156209214Y-140217071D01*
X157066357Y-141717071D01*
X157066357Y-140217071D01*
X157780642Y-141717071D02*
X157780642Y-140217071D01*
X158137785Y-140217071D01*
X158352071Y-140288500D01*
X158494928Y-140431357D01*
X158566357Y-140574214D01*
X158637785Y-140859928D01*
X158637785Y-141074214D01*
X158566357Y-141359928D01*
X158494928Y-141502785D01*
X158352071Y-141645642D01*
X158137785Y-141717071D01*
X157780642Y-141717071D01*
X160352071Y-141288500D02*
X161066357Y-141288500D01*
X160209214Y-141717071D02*
X160709214Y-140217071D01*
X161209214Y-141717071D01*
X161709214Y-141717071D02*
X161709214Y-140217071D01*
X162423500Y-141717071D02*
X162423500Y-140217071D01*
X163280642Y-141717071D01*
X163280642Y-140217071D01*
X164780642Y-141717071D02*
X163923500Y-141717071D01*
X164352071Y-141717071D02*
X164352071Y-140217071D01*
X164209214Y-140431357D01*
X164066357Y-140574214D01*
X163923500Y-140645642D01*
X177899000Y-130052857D02*
X178113285Y-130124285D01*
X178184714Y-130195714D01*
X178256142Y-130338571D01*
X178256142Y-130552857D01*
X178184714Y-130695714D01*
X178113285Y-130767142D01*
X177970428Y-130838571D01*
X177399000Y-130838571D01*
X177399000Y-129338571D01*
X177899000Y-129338571D01*
X178041857Y-129410000D01*
X178113285Y-129481428D01*
X178184714Y-129624285D01*
X178184714Y-129767142D01*
X178113285Y-129910000D01*
X178041857Y-129981428D01*
X177899000Y-130052857D01*
X177399000Y-130052857D01*
X178899000Y-130267142D02*
X180041857Y-130267142D01*
X179470428Y-130838571D02*
X179470428Y-129695714D01*
X177899000Y-132602857D02*
X178113285Y-132674285D01*
X178184714Y-132745714D01*
X178256142Y-132888571D01*
X178256142Y-133102857D01*
X178184714Y-133245714D01*
X178113285Y-133317142D01*
X177970428Y-133388571D01*
X177399000Y-133388571D01*
X177399000Y-131888571D01*
X177899000Y-131888571D01*
X178041857Y-131960000D01*
X178113285Y-132031428D01*
X178184714Y-132174285D01*
X178184714Y-132317142D01*
X178113285Y-132460000D01*
X178041857Y-132531428D01*
X177899000Y-132602857D01*
X177399000Y-132602857D01*
X178899000Y-132817142D02*
X180041857Y-132817142D01*
X171399000Y-135867142D02*
X171256142Y-135938571D01*
X170970428Y-135938571D01*
X170827571Y-135867142D01*
X170756142Y-135724285D01*
X170756142Y-135152857D01*
X170827571Y-135010000D01*
X170970428Y-134938571D01*
X171256142Y-134938571D01*
X171399000Y-135010000D01*
X171470428Y-135152857D01*
X171470428Y-135295714D01*
X170756142Y-135438571D01*
X172113285Y-135938571D02*
X172113285Y-134438571D01*
X172113285Y-135010000D02*
X172256142Y-134938571D01*
X172541857Y-134938571D01*
X172684714Y-135010000D01*
X172756142Y-135081428D01*
X172827571Y-135224285D01*
X172827571Y-135652857D01*
X172756142Y-135795714D01*
X172684714Y-135867142D01*
X172541857Y-135938571D01*
X172256142Y-135938571D01*
X172113285Y-135867142D01*
X174113285Y-134938571D02*
X174113285Y-135938571D01*
X173470428Y-134938571D02*
X173470428Y-135724285D01*
X173541857Y-135867142D01*
X173684714Y-135938571D01*
X173899000Y-135938571D01*
X174041857Y-135867142D01*
X174113285Y-135795714D01*
X174756142Y-135867142D02*
X174899000Y-135938571D01*
X175184714Y-135938571D01*
X175327571Y-135867142D01*
X175399000Y-135724285D01*
X175399000Y-135652857D01*
X175327571Y-135510000D01*
X175184714Y-135438571D01*
X174970428Y-135438571D01*
X174827571Y-135367142D01*
X174756142Y-135224285D01*
X174756142Y-135152857D01*
X174827571Y-135010000D01*
X174970428Y-134938571D01*
X175184714Y-134938571D01*
X175327571Y-135010000D01*
X177113285Y-134367142D02*
X175827571Y-136295714D01*
X177541857Y-135510000D02*
X178256142Y-135510000D01*
X177399000Y-135938571D02*
X177899000Y-134438571D01*
X178399000Y-135938571D01*
X178899000Y-135367142D02*
X180041857Y-135367142D01*
X171399000Y-138417142D02*
X171256142Y-138488571D01*
X170970428Y-138488571D01*
X170827571Y-138417142D01*
X170756142Y-138274285D01*
X170756142Y-137702857D01*
X170827571Y-137560000D01*
X170970428Y-137488571D01*
X171256142Y-137488571D01*
X171399000Y-137560000D01*
X171470428Y-137702857D01*
X171470428Y-137845714D01*
X170756142Y-137988571D01*
X172113285Y-138488571D02*
X172113285Y-136988571D01*
X172113285Y-137560000D02*
X172256142Y-137488571D01*
X172541857Y-137488571D01*
X172684714Y-137560000D01*
X172756142Y-137631428D01*
X172827571Y-137774285D01*
X172827571Y-138202857D01*
X172756142Y-138345714D01*
X172684714Y-138417142D01*
X172541857Y-138488571D01*
X172256142Y-138488571D01*
X172113285Y-138417142D01*
X174113285Y-137488571D02*
X174113285Y-138488571D01*
X173470428Y-137488571D02*
X173470428Y-138274285D01*
X173541857Y-138417142D01*
X173684714Y-138488571D01*
X173899000Y-138488571D01*
X174041857Y-138417142D01*
X174113285Y-138345714D01*
X174756142Y-138417142D02*
X174899000Y-138488571D01*
X175184714Y-138488571D01*
X175327571Y-138417142D01*
X175399000Y-138274285D01*
X175399000Y-138202857D01*
X175327571Y-138060000D01*
X175184714Y-137988571D01*
X174970428Y-137988571D01*
X174827571Y-137917142D01*
X174756142Y-137774285D01*
X174756142Y-137702857D01*
X174827571Y-137560000D01*
X174970428Y-137488571D01*
X175184714Y-137488571D01*
X175327571Y-137560000D01*
X177113285Y-136917142D02*
X175827571Y-138845714D01*
X177541857Y-138060000D02*
X178256142Y-138060000D01*
X177399000Y-138488571D02*
X177899000Y-136988571D01*
X178399000Y-138488571D01*
X178899000Y-137917142D02*
X180041857Y-137917142D01*
X179470428Y-138488571D02*
X179470428Y-137345714D01*
X174986857Y-116267571D02*
X175844000Y-116267571D01*
X175415428Y-117767571D02*
X175415428Y-116267571D01*
X176344000Y-116981857D02*
X176844000Y-116981857D01*
X177058285Y-117767571D02*
X176344000Y-117767571D01*
X176344000Y-116267571D01*
X177058285Y-116267571D01*
X178558285Y-117767571D02*
X178058285Y-117053285D01*
X177701142Y-117767571D02*
X177701142Y-116267571D01*
X178272571Y-116267571D01*
X178415428Y-116339000D01*
X178486857Y-116410428D01*
X178558285Y-116553285D01*
X178558285Y-116767571D01*
X178486857Y-116910428D01*
X178415428Y-116981857D01*
X178272571Y-117053285D01*
X177701142Y-117053285D01*
X179201142Y-117767571D02*
X179201142Y-116267571D01*
X179701142Y-117339000D01*
X180201142Y-116267571D01*
X180201142Y-117767571D01*
X182344000Y-116267571D02*
X182629714Y-116267571D01*
X182772571Y-116339000D01*
X182915428Y-116481857D01*
X182986857Y-116767571D01*
X182986857Y-117267571D01*
X182915428Y-117553285D01*
X182772571Y-117696142D01*
X182629714Y-117767571D01*
X182344000Y-117767571D01*
X182201142Y-117696142D01*
X182058285Y-117553285D01*
X181986857Y-117267571D01*
X181986857Y-116767571D01*
X182058285Y-116481857D01*
X182201142Y-116339000D01*
X182344000Y-116267571D01*
X183629714Y-117767571D02*
X183629714Y-116267571D01*
X184486857Y-117767571D01*
X184486857Y-116267571D01*
X173986857Y-118817571D02*
X174844000Y-118817571D01*
X174415428Y-120317571D02*
X174415428Y-118817571D01*
X175344000Y-119531857D02*
X175844000Y-119531857D01*
X176058285Y-120317571D02*
X175344000Y-120317571D01*
X175344000Y-118817571D01*
X176058285Y-118817571D01*
X177558285Y-120317571D02*
X177058285Y-119603285D01*
X176701142Y-120317571D02*
X176701142Y-118817571D01*
X177272571Y-118817571D01*
X177415428Y-118889000D01*
X177486857Y-118960428D01*
X177558285Y-119103285D01*
X177558285Y-119317571D01*
X177486857Y-119460428D01*
X177415428Y-119531857D01*
X177272571Y-119603285D01*
X176701142Y-119603285D01*
X178201142Y-120317571D02*
X178201142Y-118817571D01*
X178701142Y-119889000D01*
X179201142Y-118817571D01*
X179201142Y-120317571D01*
X181344000Y-118817571D02*
X181629714Y-118817571D01*
X181772571Y-118889000D01*
X181915428Y-119031857D01*
X181986857Y-119317571D01*
X181986857Y-119817571D01*
X181915428Y-120103285D01*
X181772571Y-120246142D01*
X181629714Y-120317571D01*
X181344000Y-120317571D01*
X181201142Y-120246142D01*
X181058285Y-120103285D01*
X180986857Y-119817571D01*
X180986857Y-119317571D01*
X181058285Y-119031857D01*
X181201142Y-118889000D01*
X181344000Y-118817571D01*
X183129714Y-119531857D02*
X182629714Y-119531857D01*
X182629714Y-120317571D02*
X182629714Y-118817571D01*
X183344000Y-118817571D01*
X184415428Y-119531857D02*
X183915428Y-119531857D01*
X183915428Y-120317571D02*
X183915428Y-118817571D01*
X184629714Y-118817571D01*
X113859571Y-135092571D02*
X113859571Y-134864000D01*
X113931000Y-134749714D01*
X114073857Y-134635428D01*
X114359571Y-134578285D01*
X114859571Y-134578285D01*
X115145285Y-134635428D01*
X115288142Y-134749714D01*
X115359571Y-134864000D01*
X115359571Y-135092571D01*
X115288142Y-135206857D01*
X115145285Y-135321142D01*
X114859571Y-135378285D01*
X114359571Y-135378285D01*
X114073857Y-135321142D01*
X113931000Y-135206857D01*
X113859571Y-135092571D01*
X113859571Y-134178285D02*
X115359571Y-133892571D01*
X114288142Y-133663999D01*
X115359571Y-133435428D01*
X113859571Y-133149714D01*
X113859571Y-131892571D02*
X113859571Y-131149714D01*
X114431000Y-131549714D01*
X114431000Y-131378285D01*
X114502428Y-131264000D01*
X114573857Y-131206857D01*
X114716714Y-131149714D01*
X115073857Y-131149714D01*
X115216714Y-131206857D01*
X115288142Y-131264000D01*
X115359571Y-131378285D01*
X115359571Y-131721142D01*
X115288142Y-131835428D01*
X115216714Y-131892571D01*
X113859571Y-130806857D02*
X115359571Y-130406857D01*
X113859571Y-130006857D01*
X113931000Y-128063999D02*
X113859571Y-128178285D01*
X113859571Y-128349714D01*
X113931000Y-128521142D01*
X114073857Y-128635428D01*
X114216714Y-128692571D01*
X114502428Y-128749714D01*
X114716714Y-128749714D01*
X115002428Y-128692571D01*
X115145285Y-128635428D01*
X115288142Y-128521142D01*
X115359571Y-128349714D01*
X115359571Y-128235428D01*
X115288142Y-128063999D01*
X115216714Y-128006857D01*
X114716714Y-128006857D01*
X114716714Y-128235428D01*
X115359571Y-127492571D02*
X113859571Y-127492571D01*
X115359571Y-126806857D01*
X113859571Y-126806857D01*
X117154142Y-140541142D02*
X117368428Y-140612571D01*
X117725571Y-140612571D01*
X117868428Y-140541142D01*
X117939857Y-140469714D01*
X118011285Y-140326857D01*
X118011285Y-140184000D01*
X117939857Y-140041142D01*
X117868428Y-139969714D01*
X117725571Y-139898285D01*
X117439857Y-139826857D01*
X117297000Y-139755428D01*
X117225571Y-139684000D01*
X117154142Y-139541142D01*
X117154142Y-139398285D01*
X117225571Y-139255428D01*
X117297000Y-139184000D01*
X117439857Y-139112571D01*
X117797000Y-139112571D01*
X118011285Y-139184000D01*
X119511285Y-140469714D02*
X119439857Y-140541142D01*
X119225571Y-140612571D01*
X119082714Y-140612571D01*
X118868428Y-140541142D01*
X118725571Y-140398285D01*
X118654142Y-140255428D01*
X118582714Y-139969714D01*
X118582714Y-139755428D01*
X118654142Y-139469714D01*
X118725571Y-139326857D01*
X118868428Y-139184000D01*
X119082714Y-139112571D01*
X119225571Y-139112571D01*
X119439857Y-139184000D01*
X119511285Y-139255428D01*
X120868428Y-140612571D02*
X120154142Y-140612571D01*
X120154142Y-139112571D01*
X122368428Y-139112571D02*
X123297000Y-139112571D01*
X122797000Y-139684000D01*
X123011285Y-139684000D01*
X123154142Y-139755428D01*
X123225571Y-139826857D01*
X123297000Y-139969714D01*
X123297000Y-140326857D01*
X123225571Y-140469714D01*
X123154142Y-140541142D01*
X123011285Y-140612571D01*
X122582714Y-140612571D01*
X122439857Y-140541142D01*
X122368428Y-140469714D01*
X123725571Y-139112571D02*
X124225571Y-140612571D01*
X124725571Y-139112571D01*
X125082714Y-139112571D02*
X126011285Y-139112571D01*
X125511285Y-139684000D01*
X125725571Y-139684000D01*
X125868428Y-139755428D01*
X125939857Y-139826857D01*
X126011285Y-139969714D01*
X126011285Y-140326857D01*
X125939857Y-140469714D01*
X125868428Y-140541142D01*
X125725571Y-140612571D01*
X125297000Y-140612571D01*
X125154142Y-140541142D01*
X125082714Y-140469714D01*
X117582714Y-143162571D02*
X117582714Y-141662571D01*
X118297000Y-143162571D02*
X118297000Y-141662571D01*
X119154142Y-143162571D01*
X119154142Y-141662571D01*
X120654142Y-143162571D02*
X119797000Y-143162571D01*
X120225571Y-143162571D02*
X120225571Y-141662571D01*
X120082714Y-141876857D01*
X119939857Y-142019714D01*
X119797000Y-142091142D01*
X122368428Y-143091142D02*
X122582714Y-143162571D01*
X122939857Y-143162571D01*
X123082714Y-143091142D01*
X123154142Y-143019714D01*
X123225571Y-142876857D01*
X123225571Y-142734000D01*
X123154142Y-142591142D01*
X123082714Y-142519714D01*
X122939857Y-142448285D01*
X122654142Y-142376857D01*
X122511285Y-142305428D01*
X122439857Y-142234000D01*
X122368428Y-142091142D01*
X122368428Y-141948285D01*
X122439857Y-141805428D01*
X122511285Y-141734000D01*
X122654142Y-141662571D01*
X123011285Y-141662571D01*
X123225571Y-141734000D01*
X123868428Y-143162571D02*
X123868428Y-141662571D01*
X124225571Y-141662571D01*
X124439857Y-141734000D01*
X124582714Y-141876857D01*
X124654142Y-142019714D01*
X124725571Y-142305428D01*
X124725571Y-142519714D01*
X124654142Y-142805428D01*
X124582714Y-142948285D01*
X124439857Y-143091142D01*
X124225571Y-143162571D01*
X123868428Y-143162571D01*
X125297000Y-142734000D02*
X126011285Y-142734000D01*
X125154142Y-143162571D02*
X125654142Y-141662571D01*
X126154142Y-143162571D01*
X117582714Y-145712571D02*
X117582714Y-144212571D01*
X118439857Y-145712571D01*
X118439857Y-144212571D01*
X120011285Y-145569714D02*
X119939857Y-145641142D01*
X119725571Y-145712571D01*
X119582714Y-145712571D01*
X119368428Y-145641142D01*
X119225571Y-145498285D01*
X119154142Y-145355428D01*
X119082714Y-145069714D01*
X119082714Y-144855428D01*
X119154142Y-144569714D01*
X119225571Y-144426857D01*
X119368428Y-144284000D01*
X119582714Y-144212571D01*
X119725571Y-144212571D01*
X119939857Y-144284000D01*
X120011285Y-144355428D01*
X122939857Y-145712571D02*
X122939857Y-144212571D01*
X123654142Y-145712571D02*
X123654142Y-144212571D01*
X124511285Y-145712571D01*
X124511285Y-144212571D01*
X125154142Y-144355428D02*
X125225571Y-144284000D01*
X125368428Y-144212571D01*
X125725571Y-144212571D01*
X125868428Y-144284000D01*
X125939857Y-144355428D01*
X126011285Y-144498285D01*
X126011285Y-144641142D01*
X125939857Y-144855428D01*
X125082714Y-145712571D01*
X126011285Y-145712571D01*
X117154142Y-146905428D02*
X117225571Y-146834000D01*
X117368428Y-146762571D01*
X117725571Y-146762571D01*
X117868428Y-146834000D01*
X117939857Y-146905428D01*
X118011285Y-147048285D01*
X118011285Y-147191142D01*
X117939857Y-147405428D01*
X117082714Y-148262571D01*
X118011285Y-148262571D01*
X119297000Y-147262571D02*
X119297000Y-148262571D01*
X118939857Y-146691142D02*
X118582714Y-147762571D01*
X119511285Y-147762571D01*
X119868428Y-146762571D02*
X120368428Y-148262571D01*
X120868428Y-146762571D01*
X122439857Y-146905428D02*
X122511285Y-146834000D01*
X122654142Y-146762571D01*
X123011285Y-146762571D01*
X123154142Y-146834000D01*
X123225571Y-146905428D01*
X123297000Y-147048285D01*
X123297000Y-147191142D01*
X123225571Y-147405428D01*
X122368428Y-148262571D01*
X123297000Y-148262571D01*
X124582714Y-147262571D02*
X124582714Y-148262571D01*
X124225571Y-146691142D02*
X123868428Y-147762571D01*
X124797000Y-147762571D01*
X125154142Y-146762571D02*
X125654142Y-148262571D01*
X126154142Y-146762571D01*
X117154142Y-149384000D02*
X117011285Y-149312571D01*
X116797000Y-149312571D01*
X116582714Y-149384000D01*
X116439857Y-149526857D01*
X116368428Y-149669714D01*
X116297000Y-149955428D01*
X116297000Y-150169714D01*
X116368428Y-150455428D01*
X116439857Y-150598285D01*
X116582714Y-150741142D01*
X116797000Y-150812571D01*
X116939857Y-150812571D01*
X117154142Y-150741142D01*
X117225571Y-150669714D01*
X117225571Y-150169714D01*
X116939857Y-150169714D01*
X117868428Y-150812571D02*
X117868428Y-149312571D01*
X118725571Y-150812571D01*
X118725571Y-149312571D01*
X119439857Y-150812571D02*
X119439857Y-149312571D01*
X119797000Y-149312571D01*
X120011285Y-149384000D01*
X120154142Y-149526857D01*
X120225571Y-149669714D01*
X120297000Y-149955428D01*
X120297000Y-150169714D01*
X120225571Y-150455428D01*
X120154142Y-150598285D01*
X120011285Y-150741142D01*
X119797000Y-150812571D01*
X119439857Y-150812571D01*
X122868428Y-149384000D02*
X122725571Y-149312571D01*
X122511285Y-149312571D01*
X122297000Y-149384000D01*
X122154142Y-149526857D01*
X122082714Y-149669714D01*
X122011285Y-149955428D01*
X122011285Y-150169714D01*
X122082714Y-150455428D01*
X122154142Y-150598285D01*
X122297000Y-150741142D01*
X122511285Y-150812571D01*
X122654142Y-150812571D01*
X122868428Y-150741142D01*
X122939857Y-150669714D01*
X122939857Y-150169714D01*
X122654142Y-150169714D01*
X123582714Y-150812571D02*
X123582714Y-149312571D01*
X124439857Y-150812571D01*
X124439857Y-149312571D01*
X125154142Y-150812571D02*
X125154142Y-149312571D01*
X125511285Y-149312571D01*
X125725571Y-149384000D01*
X125868428Y-149526857D01*
X125939857Y-149669714D01*
X126011285Y-149955428D01*
X126011285Y-150169714D01*
X125939857Y-150455428D01*
X125868428Y-150598285D01*
X125725571Y-150741142D01*
X125511285Y-150812571D01*
X125154142Y-150812571D01*
D12*
X130479523Y-105054071D02*
X130146190Y-104339785D01*
X129908095Y-105054071D02*
X129908095Y-103554071D01*
X130289047Y-103554071D01*
X130384285Y-103625500D01*
X130431904Y-103696928D01*
X130479523Y-103839785D01*
X130479523Y-104054071D01*
X130431904Y-104196928D01*
X130384285Y-104268357D01*
X130289047Y-104339785D01*
X129908095Y-104339785D01*
X130908095Y-104268357D02*
X131241428Y-104268357D01*
X131384285Y-105054071D02*
X130908095Y-105054071D01*
X130908095Y-103554071D01*
X131384285Y-103554071D01*
X131812857Y-105054071D02*
X131812857Y-103554071D01*
X132050952Y-103554071D01*
X132193809Y-103625500D01*
X132289047Y-103768357D01*
X132336666Y-103911214D01*
X132384285Y-104196928D01*
X132384285Y-104411214D01*
X132336666Y-104696928D01*
X132289047Y-104839785D01*
X132193809Y-104982642D01*
X132050952Y-105054071D01*
X131812857Y-105054071D01*
X132812857Y-104911214D02*
X132860476Y-104982642D01*
X132812857Y-105054071D01*
X132765238Y-104982642D01*
X132812857Y-104911214D01*
X132812857Y-105054071D01*
X132812857Y-104125500D02*
X132860476Y-104196928D01*
X132812857Y-104268357D01*
X132765238Y-104196928D01*
X132812857Y-104125500D01*
X132812857Y-104268357D01*
X134050952Y-105054071D02*
X134050952Y-103554071D01*
X134431904Y-103554071D01*
X134527142Y-103625500D01*
X134574761Y-103696928D01*
X134622380Y-103839785D01*
X134622380Y-104054071D01*
X134574761Y-104196928D01*
X134527142Y-104268357D01*
X134431904Y-104339785D01*
X134050952Y-104339785D01*
X135241428Y-103554071D02*
X135431904Y-103554071D01*
X135527142Y-103625500D01*
X135622380Y-103768357D01*
X135670000Y-104054071D01*
X135670000Y-104554071D01*
X135622380Y-104839785D01*
X135527142Y-104982642D01*
X135431904Y-105054071D01*
X135241428Y-105054071D01*
X135146190Y-104982642D01*
X135050952Y-104839785D01*
X135003333Y-104554071D01*
X135003333Y-104054071D01*
X135050952Y-103768357D01*
X135146190Y-103625500D01*
X135241428Y-103554071D01*
X136003333Y-103554071D02*
X136241428Y-105054071D01*
X136431904Y-103982642D01*
X136622380Y-105054071D01*
X136860476Y-103554071D01*
X137241428Y-104268357D02*
X137574761Y-104268357D01*
X137717619Y-105054071D02*
X137241428Y-105054071D01*
X137241428Y-103554071D01*
X137717619Y-103554071D01*
X138717619Y-105054071D02*
X138384285Y-104339785D01*
X138146190Y-105054071D02*
X138146190Y-103554071D01*
X138527142Y-103554071D01*
X138622380Y-103625500D01*
X138670000Y-103696928D01*
X138717619Y-103839785D01*
X138717619Y-104054071D01*
X138670000Y-104196928D01*
X138622380Y-104268357D01*
X138527142Y-104339785D01*
X138146190Y-104339785D01*
X130431904Y-106075500D02*
X130336666Y-106004071D01*
X130193809Y-106004071D01*
X130050952Y-106075500D01*
X129955714Y-106218357D01*
X129908095Y-106361214D01*
X129860476Y-106646928D01*
X129860476Y-106861214D01*
X129908095Y-107146928D01*
X129955714Y-107289785D01*
X130050952Y-107432642D01*
X130193809Y-107504071D01*
X130289047Y-107504071D01*
X130431904Y-107432642D01*
X130479523Y-107361214D01*
X130479523Y-106861214D01*
X130289047Y-106861214D01*
X131479523Y-107504071D02*
X131146190Y-106789785D01*
X130908095Y-107504071D02*
X130908095Y-106004071D01*
X131289047Y-106004071D01*
X131384285Y-106075500D01*
X131431904Y-106146928D01*
X131479523Y-106289785D01*
X131479523Y-106504071D01*
X131431904Y-106646928D01*
X131384285Y-106718357D01*
X131289047Y-106789785D01*
X130908095Y-106789785D01*
X131908095Y-106718357D02*
X132241428Y-106718357D01*
X132384285Y-107504071D02*
X131908095Y-107504071D01*
X131908095Y-106004071D01*
X132384285Y-106004071D01*
X132812857Y-106718357D02*
X133146190Y-106718357D01*
X133289047Y-107504071D02*
X132812857Y-107504071D01*
X132812857Y-106004071D01*
X133289047Y-106004071D01*
X133717619Y-107504071D02*
X133717619Y-106004071D01*
X134289047Y-107504071D01*
X134289047Y-106004071D01*
X134765238Y-107361214D02*
X134812857Y-107432642D01*
X134765238Y-107504071D01*
X134717619Y-107432642D01*
X134765238Y-107361214D01*
X134765238Y-107504071D01*
X134765238Y-106575500D02*
X134812857Y-106646928D01*
X134765238Y-106718357D01*
X134717619Y-106646928D01*
X134765238Y-106575500D01*
X134765238Y-106718357D01*
X135241428Y-107504071D02*
X135241428Y-106004071D01*
X135717619Y-107504071D02*
X135717619Y-106004071D01*
X136289047Y-107504071D01*
X136289047Y-106004071D01*
X137098571Y-106718357D02*
X136765238Y-106718357D01*
X136765238Y-107504071D02*
X136765238Y-106004071D01*
X137241428Y-106004071D01*
X137812857Y-106004071D02*
X138003333Y-106004071D01*
X138098571Y-106075500D01*
X138193809Y-106218357D01*
X138241428Y-106504071D01*
X138241428Y-107004071D01*
X138193809Y-107289785D01*
X138098571Y-107432642D01*
X138003333Y-107504071D01*
X137812857Y-107504071D01*
X137717619Y-107432642D01*
X137622380Y-107289785D01*
X137574761Y-107004071D01*
X137574761Y-106504071D01*
X137622380Y-106218357D01*
X137717619Y-106075500D01*
X137812857Y-106004071D01*
D13*
X158312752Y-130583000D02*
X157790248Y-130583000D01*
X158312752Y-132053000D02*
X157790248Y-132053000D01*
X161507436Y-117321000D02*
X161961564Y-117321000D01*
X161507436Y-115851000D02*
X161961564Y-115851000D01*
X161961564Y-117819500D02*
X161507436Y-117819500D01*
X161961564Y-119289500D02*
X161507436Y-119289500D01*
X164809436Y-98960000D02*
X165263564Y-98960000D01*
X164809436Y-100430000D02*
X165263564Y-100430000D01*
X162332936Y-101119000D02*
X162787064Y-101119000D01*
X162332936Y-102589000D02*
X162787064Y-102589000D01*
X162550000Y-95280000D02*
X162550000Y-96070000D01*
X169450000Y-96070000D02*
X169450000Y-95280000D01*
X167600000Y-97120000D02*
X165900000Y-97120000D01*
X168850000Y-94270000D02*
X163150000Y-94270000D01*
X166100000Y-92980000D02*
X166100000Y-94270000D01*
X167200000Y-92770000D02*
X166300000Y-92770000D01*
X167400000Y-94270000D02*
X167400000Y-92980000D01*
X166100000Y-92980000D02*
X166300000Y-92770000D01*
X167400000Y-92980000D02*
X167200000Y-92770000D01*
X164600000Y-97120000D02*
X164400000Y-97120000D01*
X128306564Y-127608000D02*
X127852436Y-127608000D01*
X128306564Y-126138000D02*
X127852436Y-126138000D01*
X133099000Y-127081000D02*
X133099000Y-127681000D01*
X130999000Y-126381000D02*
X132399000Y-126381000D01*
X130299000Y-127681000D02*
X130299000Y-127081000D01*
X132399000Y-128381000D02*
X130999000Y-128381000D01*
X133099000Y-127681000D02*
G75*
G02*
X132399000Y-128381000I-700000J0D01*
G01*
X132399000Y-126381000D02*
G75*
G02*
X133099000Y-127081000I0J-700000D01*
G01*
X130299000Y-127081000D02*
G75*
G02*
X130999000Y-126381000I700000J0D01*
G01*
X130999000Y-128381000D02*
G75*
G02*
X130299000Y-127681000I0J700000D01*
G01*
X124530752Y-127608000D02*
X124008248Y-127608000D01*
X124530752Y-126138000D02*
X124008248Y-126138000D01*
X175676500Y-111438800D02*
X175676500Y-115738800D01*
X175676500Y-115738800D02*
X182976500Y-115738800D01*
X175676500Y-111438800D02*
X182976500Y-111438800D01*
X159985000Y-121522936D02*
X159985000Y-121977064D01*
X158515000Y-121522936D02*
X158515000Y-121977064D01*
X131471936Y-115914500D02*
X131926064Y-115914500D01*
X131471936Y-117384500D02*
X131926064Y-117384500D01*
X131926064Y-119353000D02*
X131471936Y-119353000D01*
X131926064Y-117883000D02*
X131471936Y-117883000D01*
X130846564Y-115352500D02*
X130392436Y-115352500D01*
X130846564Y-113882500D02*
X130392436Y-113882500D01*
X129449500Y-123407436D02*
X129449500Y-123861564D01*
X127979500Y-123407436D02*
X127979500Y-123861564D01*
X129948000Y-123861564D02*
X129948000Y-123407436D01*
X131418000Y-123861564D02*
X131418000Y-123407436D01*
X151010252Y-115216000D02*
X150487748Y-115216000D01*
X151010252Y-116686000D02*
X150487748Y-116686000D01*
X154786064Y-119026000D02*
X154331936Y-119026000D01*
X154786064Y-120496000D02*
X154331936Y-120496000D01*
X154786064Y-117121000D02*
X154331936Y-117121000D01*
X154786064Y-118591000D02*
X154331936Y-118591000D01*
X154786064Y-115216000D02*
X154331936Y-115216000D01*
X154786064Y-116686000D02*
X154331936Y-116686000D01*
X154786064Y-120931000D02*
X154331936Y-120931000D01*
X154786064Y-122401000D02*
X154331936Y-122401000D01*
X156564064Y-124741000D02*
X156109936Y-124741000D01*
X156564064Y-126211000D02*
X156109936Y-126211000D01*
X113648258Y-138444500D02*
X113173742Y-138444500D01*
X113648258Y-137399500D02*
X113173742Y-137399500D01*
X116727500Y-140605742D02*
X116727500Y-141080258D01*
X115682500Y-140605742D02*
X115682500Y-141080258D01*
X123309748Y-118400500D02*
X123832252Y-118400500D01*
X123309748Y-116930500D02*
X123832252Y-116930500D01*
X108192500Y-123627248D02*
X108192500Y-124149752D01*
X109612500Y-123627248D02*
X109612500Y-124149752D01*
X157478500Y-117237000D02*
X158878500Y-117237000D01*
X159578500Y-117937000D02*
X159578500Y-118537000D01*
X158878500Y-119237000D02*
X157478500Y-119237000D01*
X156778500Y-118537000D02*
X156778500Y-117937000D01*
X156778500Y-117937000D02*
G75*
G02*
X157478500Y-117237000I700000J0D01*
G01*
X157478500Y-119237000D02*
G75*
G02*
X156778500Y-118537000I0J700000D01*
G01*
X159578500Y-118537000D02*
G75*
G02*
X158878500Y-119237000I-700000J0D01*
G01*
X158878500Y-117237000D02*
G75*
G02*
X159578500Y-117937000I0J-700000D01*
G01*
X151639500Y-119237000D02*
X150239500Y-119237000D01*
X149539500Y-118537000D02*
X149539500Y-117937000D01*
X150239500Y-117237000D02*
X151639500Y-117237000D01*
X152339500Y-117937000D02*
X152339500Y-118537000D01*
X152339500Y-118537000D02*
G75*
G02*
X151639500Y-119237000I-700000J0D01*
G01*
X151639500Y-117237000D02*
G75*
G02*
X152339500Y-117937000I0J-700000D01*
G01*
X149539500Y-117937000D02*
G75*
G02*
X150239500Y-117237000I700000J0D01*
G01*
X150239500Y-119237000D02*
G75*
G02*
X149539500Y-118537000I0J700000D01*
G01*
X193430000Y-112526400D02*
X192640000Y-112526400D01*
X192640000Y-119426400D02*
X193430000Y-119426400D01*
X191590000Y-117576400D02*
X191590000Y-115876400D01*
X194440000Y-118826400D02*
X194440000Y-113126400D01*
X195730000Y-116076400D02*
X194440000Y-116076400D01*
X195940000Y-117176400D02*
X195940000Y-116276400D01*
X194440000Y-117376400D02*
X195730000Y-117376400D01*
X195730000Y-116076400D02*
X195940000Y-116276400D01*
X195730000Y-117376400D02*
X195940000Y-117176400D01*
X191590000Y-114576400D02*
X191590000Y-114376400D01*
X131535436Y-96874000D02*
X131989564Y-96874000D01*
X131535436Y-95404000D02*
X131989564Y-95404000D01*
X134218436Y-115352500D02*
X134672564Y-115352500D01*
X134218436Y-113882500D02*
X134672564Y-113882500D01*
X167130000Y-116832500D02*
X165670000Y-116832500D01*
X167130000Y-113672500D02*
X163970000Y-113672500D01*
X167130000Y-113672500D02*
X167130000Y-114602500D01*
X167130000Y-116832500D02*
X167130000Y-115902500D01*
X110907564Y-115533500D02*
X110453436Y-115533500D01*
X110907564Y-117003500D02*
X110453436Y-117003500D01*
X110453436Y-115035000D02*
X110907564Y-115035000D01*
X110453436Y-113565000D02*
X110907564Y-113565000D01*
X188941064Y-121708500D02*
X187486936Y-121708500D01*
X188941064Y-123528500D02*
X187486936Y-123528500D01*
X127036500Y-113862752D02*
X127036500Y-113340248D01*
X125566500Y-113862752D02*
X125566500Y-113340248D01*
X182168748Y-127783000D02*
X183591252Y-127783000D01*
X182168748Y-125963000D02*
X183591252Y-125963000D01*
X182168748Y-138260500D02*
X183591252Y-138260500D01*
X182168748Y-136440500D02*
X183591252Y-136440500D01*
X182168748Y-131339000D02*
X183591252Y-131339000D01*
X182168748Y-129519000D02*
X183591252Y-129519000D01*
X182168748Y-134768000D02*
X183591252Y-134768000D01*
X182168748Y-132948000D02*
X183591252Y-132948000D01*
D11*
X157789595Y-129423714D02*
X157789595Y-130090380D01*
X157361023Y-129423714D02*
X157361023Y-129947523D01*
X157408642Y-130042761D01*
X157503880Y-130090380D01*
X157646738Y-130090380D01*
X157741976Y-130042761D01*
X157789595Y-129995142D01*
X158789595Y-130090380D02*
X158218166Y-130090380D01*
X158503880Y-130090380D02*
X158503880Y-129090380D01*
X158408642Y-129233238D01*
X158313404Y-129328476D01*
X158218166Y-129376095D01*
X161551952Y-115450880D02*
X160980523Y-115450880D01*
X161266238Y-115450880D02*
X161266238Y-114450880D01*
X161171000Y-114593738D01*
X161075761Y-114688976D01*
X160980523Y-114736595D01*
X161980523Y-115450880D02*
X161980523Y-114450880D01*
X162075761Y-115069928D02*
X162361476Y-115450880D01*
X162361476Y-114784214D02*
X161980523Y-115165166D01*
X164377761Y-119070380D02*
X163806333Y-119070380D01*
X164092047Y-119070380D02*
X164092047Y-118070380D01*
X163996809Y-118213238D01*
X163901571Y-118308476D01*
X163806333Y-118356095D01*
X164996809Y-118070380D02*
X165092047Y-118070380D01*
X165187285Y-118118000D01*
X165234904Y-118165619D01*
X165282523Y-118260857D01*
X165330142Y-118451333D01*
X165330142Y-118689428D01*
X165282523Y-118879904D01*
X165234904Y-118975142D01*
X165187285Y-119022761D01*
X165092047Y-119070380D01*
X164996809Y-119070380D01*
X164901571Y-119022761D01*
X164853952Y-118975142D01*
X164806333Y-118879904D01*
X164758714Y-118689428D01*
X164758714Y-118451333D01*
X164806333Y-118260857D01*
X164853952Y-118165619D01*
X164901571Y-118118000D01*
X164996809Y-118070380D01*
X165758714Y-119070380D02*
X165758714Y-118070380D01*
X165853952Y-118689428D02*
X166139666Y-119070380D01*
X166139666Y-118403714D02*
X165758714Y-118784666D01*
X165219142Y-100797380D02*
X164742952Y-100797380D01*
X164695333Y-101273571D01*
X164742952Y-101225952D01*
X164838190Y-101178333D01*
X165076285Y-101178333D01*
X165171523Y-101225952D01*
X165219142Y-101273571D01*
X165266761Y-101368809D01*
X165266761Y-101606904D01*
X165219142Y-101702142D01*
X165171523Y-101749761D01*
X165076285Y-101797380D01*
X164838190Y-101797380D01*
X164742952Y-101749761D01*
X164695333Y-101702142D01*
X165695333Y-101797380D02*
X165695333Y-100797380D01*
X165790571Y-101416428D02*
X166076285Y-101797380D01*
X166076285Y-101130714D02*
X165695333Y-101511666D01*
X167028666Y-101797380D02*
X166457238Y-101797380D01*
X166742952Y-101797380D02*
X166742952Y-100797380D01*
X166647714Y-100940238D01*
X166552476Y-101035476D01*
X166457238Y-101083095D01*
X161917142Y-102956380D02*
X161440952Y-102956380D01*
X161393333Y-103432571D01*
X161440952Y-103384952D01*
X161536190Y-103337333D01*
X161774285Y-103337333D01*
X161869523Y-103384952D01*
X161917142Y-103432571D01*
X161964761Y-103527809D01*
X161964761Y-103765904D01*
X161917142Y-103861142D01*
X161869523Y-103908761D01*
X161774285Y-103956380D01*
X161536190Y-103956380D01*
X161440952Y-103908761D01*
X161393333Y-103861142D01*
X162393333Y-103956380D02*
X162393333Y-102956380D01*
X162488571Y-103575428D02*
X162774285Y-103956380D01*
X162774285Y-103289714D02*
X162393333Y-103670666D01*
X163726666Y-103956380D02*
X163155238Y-103956380D01*
X163440952Y-103956380D02*
X163440952Y-102956380D01*
X163345714Y-103099238D01*
X163250476Y-103194476D01*
X163155238Y-103242095D01*
X152852904Y-95194380D02*
X152852904Y-94194380D01*
X153233857Y-94194380D01*
X153329095Y-94242000D01*
X153376714Y-94289619D01*
X153424333Y-94384857D01*
X153424333Y-94527714D01*
X153376714Y-94622952D01*
X153329095Y-94670571D01*
X153233857Y-94718190D01*
X152852904Y-94718190D01*
X154424333Y-95194380D02*
X154091000Y-94718190D01*
X153852904Y-95194380D02*
X153852904Y-94194380D01*
X154233857Y-94194380D01*
X154329095Y-94242000D01*
X154376714Y-94289619D01*
X154424333Y-94384857D01*
X154424333Y-94527714D01*
X154376714Y-94622952D01*
X154329095Y-94670571D01*
X154233857Y-94718190D01*
X153852904Y-94718190D01*
X155043380Y-94194380D02*
X155233857Y-94194380D01*
X155329095Y-94242000D01*
X155424333Y-94337238D01*
X155471952Y-94527714D01*
X155471952Y-94861047D01*
X155424333Y-95051523D01*
X155329095Y-95146761D01*
X155233857Y-95194380D01*
X155043380Y-95194380D01*
X154948142Y-95146761D01*
X154852904Y-95051523D01*
X154805285Y-94861047D01*
X154805285Y-94527714D01*
X154852904Y-94337238D01*
X154948142Y-94242000D01*
X155043380Y-94194380D01*
X156424333Y-94242000D02*
X156329095Y-94194380D01*
X156186238Y-94194380D01*
X156043380Y-94242000D01*
X155948142Y-94337238D01*
X155900523Y-94432476D01*
X155852904Y-94622952D01*
X155852904Y-94765809D01*
X155900523Y-94956285D01*
X155948142Y-95051523D01*
X156043380Y-95146761D01*
X156186238Y-95194380D01*
X156281476Y-95194380D01*
X156424333Y-95146761D01*
X156471952Y-95099142D01*
X156471952Y-94765809D01*
X156281476Y-94765809D01*
X156662428Y-95289619D02*
X157424333Y-95289619D01*
X157662428Y-95194380D02*
X157662428Y-94194380D01*
X158043380Y-94194380D01*
X158138619Y-94242000D01*
X158186238Y-94289619D01*
X158233857Y-94384857D01*
X158233857Y-94527714D01*
X158186238Y-94622952D01*
X158138619Y-94670571D01*
X158043380Y-94718190D01*
X157662428Y-94718190D01*
X158567190Y-94194380D02*
X158805285Y-95194380D01*
X158995761Y-94480095D01*
X159186238Y-95194380D01*
X159424333Y-94194380D01*
X160376714Y-95194380D02*
X160043380Y-94718190D01*
X159805285Y-95194380D02*
X159805285Y-94194380D01*
X160186238Y-94194380D01*
X160281476Y-94242000D01*
X160329095Y-94289619D01*
X160376714Y-94384857D01*
X160376714Y-94527714D01*
X160329095Y-94622952D01*
X160281476Y-94670571D01*
X160186238Y-94718190D01*
X159805285Y-94718190D01*
X127960452Y-128976380D02*
X127389023Y-128976380D01*
X127674738Y-128976380D02*
X127674738Y-127976380D01*
X127579500Y-128119238D01*
X127484261Y-128214476D01*
X127389023Y-128262095D01*
X128389023Y-128976380D02*
X128389023Y-127976380D01*
X128484261Y-128595428D02*
X128769976Y-128976380D01*
X128769976Y-128309714D02*
X128389023Y-128690666D01*
X128841857Y-129341571D02*
X129175190Y-129341571D01*
X129318047Y-129865380D02*
X128841857Y-129865380D01*
X128841857Y-128865380D01*
X129318047Y-128865380D01*
X129603761Y-128865380D02*
X130175190Y-128865380D01*
X129889476Y-129865380D02*
X129889476Y-128865380D01*
X130508523Y-129865380D02*
X130508523Y-128865380D01*
X130508523Y-129341571D02*
X131079952Y-129341571D01*
X131079952Y-129865380D02*
X131079952Y-128865380D01*
X131318047Y-129960619D02*
X132079952Y-129960619D01*
X132889476Y-129865380D02*
X132556142Y-129389190D01*
X132318047Y-129865380D02*
X132318047Y-128865380D01*
X132699000Y-128865380D01*
X132794238Y-128913000D01*
X132841857Y-128960619D01*
X132889476Y-129055857D01*
X132889476Y-129198714D01*
X132841857Y-129293952D01*
X132794238Y-129341571D01*
X132699000Y-129389190D01*
X132318047Y-129389190D01*
X133270428Y-129817761D02*
X133413285Y-129865380D01*
X133651380Y-129865380D01*
X133746619Y-129817761D01*
X133794238Y-129770142D01*
X133841857Y-129674904D01*
X133841857Y-129579666D01*
X133794238Y-129484428D01*
X133746619Y-129436809D01*
X133651380Y-129389190D01*
X133460904Y-129341571D01*
X133365666Y-129293952D01*
X133318047Y-129246333D01*
X133270428Y-129151095D01*
X133270428Y-129055857D01*
X133318047Y-128960619D01*
X133365666Y-128913000D01*
X133460904Y-128865380D01*
X133699000Y-128865380D01*
X133841857Y-128913000D01*
X134127571Y-128865380D02*
X134699000Y-128865380D01*
X134413285Y-129865380D02*
X134413285Y-128865380D01*
X124007595Y-128373214D02*
X124007595Y-129039880D01*
X123579023Y-128373214D02*
X123579023Y-128897023D01*
X123626642Y-128992261D01*
X123721880Y-129039880D01*
X123864738Y-129039880D01*
X123959976Y-128992261D01*
X124007595Y-128944642D01*
X125007595Y-129039880D02*
X124436166Y-129039880D01*
X124721880Y-129039880D02*
X124721880Y-128039880D01*
X124626642Y-128182738D01*
X124531404Y-128277976D01*
X124436166Y-128325595D01*
X185467714Y-113085619D02*
X185515333Y-113038000D01*
X185610571Y-112990380D01*
X185848666Y-112990380D01*
X185943904Y-113038000D01*
X185991523Y-113085619D01*
X186039142Y-113180857D01*
X186039142Y-113276095D01*
X185991523Y-113418952D01*
X185420095Y-113990380D01*
X186039142Y-113990380D01*
X186420095Y-113704666D02*
X186896285Y-113704666D01*
X186324857Y-113990380D02*
X186658190Y-112990380D01*
X186991523Y-113990380D01*
X160972523Y-121535714D02*
X160972523Y-122202380D01*
X160734428Y-121154761D02*
X160496333Y-121869047D01*
X161115380Y-121869047D01*
X161496333Y-122202380D02*
X161496333Y-121202380D01*
X161591571Y-121821428D02*
X161877285Y-122202380D01*
X161877285Y-121535714D02*
X161496333Y-121916666D01*
X162210619Y-121202380D02*
X162877285Y-121202380D01*
X162448714Y-122202380D01*
X133691476Y-116101880D02*
X134310523Y-116101880D01*
X133977190Y-116482833D01*
X134120047Y-116482833D01*
X134215285Y-116530452D01*
X134262904Y-116578071D01*
X134310523Y-116673309D01*
X134310523Y-116911404D01*
X134262904Y-117006642D01*
X134215285Y-117054261D01*
X134120047Y-117101880D01*
X133834333Y-117101880D01*
X133739095Y-117054261D01*
X133691476Y-117006642D01*
X134643857Y-116101880D02*
X135262904Y-116101880D01*
X134929571Y-116482833D01*
X135072428Y-116482833D01*
X135167666Y-116530452D01*
X135215285Y-116578071D01*
X135262904Y-116673309D01*
X135262904Y-116911404D01*
X135215285Y-117006642D01*
X135167666Y-117054261D01*
X135072428Y-117101880D01*
X134786714Y-117101880D01*
X134691476Y-117054261D01*
X134643857Y-117006642D01*
X136262904Y-117101880D02*
X135929571Y-116625690D01*
X135691476Y-117101880D02*
X135691476Y-116101880D01*
X136072428Y-116101880D01*
X136167666Y-116149500D01*
X136215285Y-116197119D01*
X136262904Y-116292357D01*
X136262904Y-116435214D01*
X136215285Y-116530452D01*
X136167666Y-116578071D01*
X136072428Y-116625690D01*
X135691476Y-116625690D01*
X133754976Y-118070380D02*
X134374023Y-118070380D01*
X134040690Y-118451333D01*
X134183547Y-118451333D01*
X134278785Y-118498952D01*
X134326404Y-118546571D01*
X134374023Y-118641809D01*
X134374023Y-118879904D01*
X134326404Y-118975142D01*
X134278785Y-119022761D01*
X134183547Y-119070380D01*
X133897833Y-119070380D01*
X133802595Y-119022761D01*
X133754976Y-118975142D01*
X134707357Y-118070380D02*
X135326404Y-118070380D01*
X134993071Y-118451333D01*
X135135928Y-118451333D01*
X135231166Y-118498952D01*
X135278785Y-118546571D01*
X135326404Y-118641809D01*
X135326404Y-118879904D01*
X135278785Y-118975142D01*
X135231166Y-119022761D01*
X135135928Y-119070380D01*
X134850214Y-119070380D01*
X134754976Y-119022761D01*
X134707357Y-118975142D01*
X136326404Y-119070380D02*
X135993071Y-118594190D01*
X135754976Y-119070380D02*
X135754976Y-118070380D01*
X136135928Y-118070380D01*
X136231166Y-118118000D01*
X136278785Y-118165619D01*
X136326404Y-118260857D01*
X136326404Y-118403714D01*
X136278785Y-118498952D01*
X136231166Y-118546571D01*
X136135928Y-118594190D01*
X135754976Y-118594190D01*
X129246476Y-112482380D02*
X129865523Y-112482380D01*
X129532190Y-112863333D01*
X129675047Y-112863333D01*
X129770285Y-112910952D01*
X129817904Y-112958571D01*
X129865523Y-113053809D01*
X129865523Y-113291904D01*
X129817904Y-113387142D01*
X129770285Y-113434761D01*
X129675047Y-113482380D01*
X129389333Y-113482380D01*
X129294095Y-113434761D01*
X129246476Y-113387142D01*
X130198857Y-112482380D02*
X130817904Y-112482380D01*
X130484571Y-112863333D01*
X130627428Y-112863333D01*
X130722666Y-112910952D01*
X130770285Y-112958571D01*
X130817904Y-113053809D01*
X130817904Y-113291904D01*
X130770285Y-113387142D01*
X130722666Y-113434761D01*
X130627428Y-113482380D01*
X130341714Y-113482380D01*
X130246476Y-113434761D01*
X130198857Y-113387142D01*
X131817904Y-113482380D02*
X131484571Y-113006190D01*
X131246476Y-113482380D02*
X131246476Y-112482380D01*
X131627428Y-112482380D01*
X131722666Y-112530000D01*
X131770285Y-112577619D01*
X131817904Y-112672857D01*
X131817904Y-112815714D01*
X131770285Y-112910952D01*
X131722666Y-112958571D01*
X131627428Y-113006190D01*
X131246476Y-113006190D01*
X125769761Y-124086880D02*
X125198333Y-124086880D01*
X125484047Y-124086880D02*
X125484047Y-123086880D01*
X125388809Y-123229738D01*
X125293571Y-123324976D01*
X125198333Y-123372595D01*
X126388809Y-123086880D02*
X126484047Y-123086880D01*
X126579285Y-123134500D01*
X126626904Y-123182119D01*
X126674523Y-123277357D01*
X126722142Y-123467833D01*
X126722142Y-123705928D01*
X126674523Y-123896404D01*
X126626904Y-123991642D01*
X126579285Y-124039261D01*
X126484047Y-124086880D01*
X126388809Y-124086880D01*
X126293571Y-124039261D01*
X126245952Y-123991642D01*
X126198333Y-123896404D01*
X126150714Y-123705928D01*
X126150714Y-123467833D01*
X126198333Y-123277357D01*
X126245952Y-123182119D01*
X126293571Y-123134500D01*
X126388809Y-123086880D01*
X127150714Y-124086880D02*
X127150714Y-123086880D01*
X127245952Y-123705928D02*
X127531666Y-124086880D01*
X127531666Y-123420214D02*
X127150714Y-123801166D01*
X131849976Y-123150380D02*
X132469023Y-123150380D01*
X132135690Y-123531333D01*
X132278547Y-123531333D01*
X132373785Y-123578952D01*
X132421404Y-123626571D01*
X132469023Y-123721809D01*
X132469023Y-123959904D01*
X132421404Y-124055142D01*
X132373785Y-124102761D01*
X132278547Y-124150380D01*
X131992833Y-124150380D01*
X131897595Y-124102761D01*
X131849976Y-124055142D01*
X132802357Y-123150380D02*
X133421404Y-123150380D01*
X133088071Y-123531333D01*
X133230928Y-123531333D01*
X133326166Y-123578952D01*
X133373785Y-123626571D01*
X133421404Y-123721809D01*
X133421404Y-123959904D01*
X133373785Y-124055142D01*
X133326166Y-124102761D01*
X133230928Y-124150380D01*
X132945214Y-124150380D01*
X132849976Y-124102761D01*
X132802357Y-124055142D01*
X134421404Y-124150380D02*
X134088071Y-123674190D01*
X133849976Y-124150380D02*
X133849976Y-123150380D01*
X134230928Y-123150380D01*
X134326166Y-123198000D01*
X134373785Y-123245619D01*
X134421404Y-123340857D01*
X134421404Y-123483714D01*
X134373785Y-123578952D01*
X134326166Y-123626571D01*
X134230928Y-123674190D01*
X133849976Y-123674190D01*
X147693095Y-115863714D02*
X147693095Y-116530380D01*
X147264523Y-115863714D02*
X147264523Y-116387523D01*
X147312142Y-116482761D01*
X147407380Y-116530380D01*
X147550238Y-116530380D01*
X147645476Y-116482761D01*
X147693095Y-116435142D01*
X148693095Y-116530380D02*
X148121666Y-116530380D01*
X148407380Y-116530380D02*
X148407380Y-115530380D01*
X148312142Y-115673238D01*
X148216904Y-115768476D01*
X148121666Y-115816095D01*
X157360952Y-122181880D02*
X156789523Y-122181880D01*
X157075238Y-122181880D02*
X157075238Y-121181880D01*
X156980000Y-121324738D01*
X156884761Y-121419976D01*
X156789523Y-121467595D01*
X157789523Y-122181880D02*
X157789523Y-121181880D01*
X157884761Y-121800928D02*
X158170476Y-122181880D01*
X158170476Y-121515214D02*
X157789523Y-121896166D01*
X157360952Y-120784880D02*
X156789523Y-120784880D01*
X157075238Y-120784880D02*
X157075238Y-119784880D01*
X156980000Y-119927738D01*
X156884761Y-120022976D01*
X156789523Y-120070595D01*
X157789523Y-120784880D02*
X157789523Y-119784880D01*
X157884761Y-120403928D02*
X158170476Y-120784880D01*
X158170476Y-120118214D02*
X157789523Y-120499166D01*
X157360952Y-116403380D02*
X156789523Y-116403380D01*
X157075238Y-116403380D02*
X157075238Y-115403380D01*
X156980000Y-115546238D01*
X156884761Y-115641476D01*
X156789523Y-115689095D01*
X157789523Y-116403380D02*
X157789523Y-115403380D01*
X157884761Y-116022428D02*
X158170476Y-116403380D01*
X158170476Y-115736714D02*
X157789523Y-116117666D01*
X157297452Y-123451880D02*
X156726023Y-123451880D01*
X157011738Y-123451880D02*
X157011738Y-122451880D01*
X156916500Y-122594738D01*
X156821261Y-122689976D01*
X156726023Y-122737595D01*
X157726023Y-123451880D02*
X157726023Y-122451880D01*
X157821261Y-123070928D02*
X158106976Y-123451880D01*
X158106976Y-122785214D02*
X157726023Y-123166166D01*
X158948523Y-125261714D02*
X158948523Y-125928380D01*
X158710428Y-124880761D02*
X158472333Y-125595047D01*
X159091380Y-125595047D01*
X159472333Y-125928380D02*
X159472333Y-124928380D01*
X159567571Y-125547428D02*
X159853285Y-125928380D01*
X159853285Y-125261714D02*
X159472333Y-125642666D01*
X160186619Y-124928380D02*
X160853285Y-124928380D01*
X160424714Y-125928380D01*
X112720523Y-136277714D02*
X112720523Y-136944380D01*
X112482428Y-135896761D02*
X112244333Y-136611047D01*
X112863380Y-136611047D01*
X113244333Y-136944380D02*
X113244333Y-135944380D01*
X113339571Y-136563428D02*
X113625285Y-136944380D01*
X113625285Y-136277714D02*
X113244333Y-136658666D01*
X113958619Y-135944380D02*
X114625285Y-135944380D01*
X114196714Y-136944380D01*
X114560714Y-141533476D02*
X115227380Y-141533476D01*
X114179761Y-141771571D02*
X114894047Y-142009666D01*
X114894047Y-141390619D01*
X115227380Y-141009666D02*
X114227380Y-141009666D01*
X114846428Y-140914428D02*
X115227380Y-140628714D01*
X114560714Y-140628714D02*
X114941666Y-141009666D01*
X114227380Y-140295380D02*
X114227380Y-139628714D01*
X115227380Y-140057285D01*
X125658714Y-117149619D02*
X125706333Y-117102000D01*
X125801571Y-117054380D01*
X126039666Y-117054380D01*
X126134904Y-117102000D01*
X126182523Y-117149619D01*
X126230142Y-117244857D01*
X126230142Y-117340095D01*
X126182523Y-117482952D01*
X125611095Y-118054380D01*
X126230142Y-118054380D01*
X126611095Y-117149619D02*
X126658714Y-117102000D01*
X126753952Y-117054380D01*
X126992047Y-117054380D01*
X127087285Y-117102000D01*
X127134904Y-117149619D01*
X127182523Y-117244857D01*
X127182523Y-117340095D01*
X127134904Y-117482952D01*
X126563476Y-118054380D01*
X127182523Y-118054380D01*
X127611095Y-117387714D02*
X127611095Y-118054380D01*
X127611095Y-117482952D02*
X127658714Y-117435333D01*
X127753952Y-117387714D01*
X127896809Y-117387714D01*
X127992047Y-117435333D01*
X128039666Y-117530571D01*
X128039666Y-118054380D01*
X108894571Y-121530904D02*
X108942190Y-121388047D01*
X108989809Y-121340428D01*
X109085047Y-121292809D01*
X109227904Y-121292809D01*
X109323142Y-121340428D01*
X109370761Y-121388047D01*
X109418380Y-121483285D01*
X109418380Y-121864238D01*
X108418380Y-121864238D01*
X108418380Y-121530904D01*
X108466000Y-121435666D01*
X108513619Y-121388047D01*
X108608857Y-121340428D01*
X108704095Y-121340428D01*
X108799333Y-121388047D01*
X108846952Y-121435666D01*
X108894571Y-121530904D01*
X108894571Y-121864238D01*
X109370761Y-120483285D02*
X109418380Y-120578523D01*
X109418380Y-120769000D01*
X109370761Y-120864238D01*
X109275523Y-120911857D01*
X108894571Y-120911857D01*
X108799333Y-120864238D01*
X108751714Y-120769000D01*
X108751714Y-120578523D01*
X108799333Y-120483285D01*
X108894571Y-120435666D01*
X108989809Y-120435666D01*
X109085047Y-120911857D01*
X109418380Y-119578523D02*
X108894571Y-119578523D01*
X108799333Y-119626142D01*
X108751714Y-119721380D01*
X108751714Y-119911857D01*
X108799333Y-120007095D01*
X109370761Y-119578523D02*
X109418380Y-119673761D01*
X109418380Y-119911857D01*
X109370761Y-120007095D01*
X109275523Y-120054714D01*
X109180285Y-120054714D01*
X109085047Y-120007095D01*
X109037428Y-119911857D01*
X109037428Y-119673761D01*
X108989809Y-119578523D01*
X109418380Y-118673761D02*
X108418380Y-118673761D01*
X109370761Y-118673761D02*
X109418380Y-118769000D01*
X109418380Y-118959476D01*
X109370761Y-119054714D01*
X109323142Y-119102333D01*
X109227904Y-119149952D01*
X108942190Y-119149952D01*
X108846952Y-119102333D01*
X108799333Y-119054714D01*
X108751714Y-118959476D01*
X108751714Y-118769000D01*
X108799333Y-118673761D01*
X154868976Y-114196761D02*
X155011833Y-114244380D01*
X155249928Y-114244380D01*
X155345166Y-114196761D01*
X155392785Y-114149142D01*
X155440404Y-114053904D01*
X155440404Y-113958666D01*
X155392785Y-113863428D01*
X155345166Y-113815809D01*
X155249928Y-113768190D01*
X155059452Y-113720571D01*
X154964214Y-113672952D01*
X154916595Y-113625333D01*
X154868976Y-113530095D01*
X154868976Y-113434857D01*
X154916595Y-113339619D01*
X154964214Y-113292000D01*
X155059452Y-113244380D01*
X155297547Y-113244380D01*
X155440404Y-113292000D01*
X155868976Y-113244380D02*
X155868976Y-114053904D01*
X155916595Y-114149142D01*
X155964214Y-114196761D01*
X156059452Y-114244380D01*
X156249928Y-114244380D01*
X156345166Y-114196761D01*
X156392785Y-114149142D01*
X156440404Y-114053904D01*
X156440404Y-113244380D01*
X156916595Y-114244380D02*
X156916595Y-113244380D01*
X157297547Y-113244380D01*
X157392785Y-113292000D01*
X157440404Y-113339619D01*
X157488023Y-113434857D01*
X157488023Y-113577714D01*
X157440404Y-113672952D01*
X157392785Y-113720571D01*
X157297547Y-113768190D01*
X156916595Y-113768190D01*
X157678500Y-114339619D02*
X158440404Y-114339619D01*
X158678500Y-114244380D02*
X158678500Y-113244380D01*
X159011833Y-113958666D01*
X159345166Y-113244380D01*
X159345166Y-114244380D01*
X160011833Y-113244380D02*
X160202309Y-113244380D01*
X160297547Y-113292000D01*
X160392785Y-113387238D01*
X160440404Y-113577714D01*
X160440404Y-113911047D01*
X160392785Y-114101523D01*
X160297547Y-114196761D01*
X160202309Y-114244380D01*
X160011833Y-114244380D01*
X159916595Y-114196761D01*
X159821357Y-114101523D01*
X159773738Y-113911047D01*
X159773738Y-113577714D01*
X159821357Y-113387238D01*
X159916595Y-113292000D01*
X160011833Y-113244380D01*
X160868976Y-114244380D02*
X160868976Y-113244380D01*
X161440404Y-114244380D01*
X161440404Y-113244380D01*
X149558547Y-120721380D02*
X149558547Y-119721380D01*
X150034738Y-120721380D02*
X150034738Y-119721380D01*
X150606166Y-120721380D01*
X150606166Y-119721380D01*
X150939500Y-119721380D02*
X151510928Y-119721380D01*
X151225214Y-120721380D02*
X151225214Y-119721380D01*
X152034738Y-119721380D02*
X152129976Y-119721380D01*
X152225214Y-119769000D01*
X152272833Y-119816619D01*
X152320452Y-119911857D01*
X152368071Y-120102333D01*
X152368071Y-120340428D01*
X152320452Y-120530904D01*
X152272833Y-120626142D01*
X152225214Y-120673761D01*
X152129976Y-120721380D01*
X152034738Y-120721380D01*
X151939500Y-120673761D01*
X151891880Y-120626142D01*
X151844261Y-120530904D01*
X151796642Y-120340428D01*
X151796642Y-120102333D01*
X151844261Y-119911857D01*
X151891880Y-119816619D01*
X151939500Y-119769000D01*
X152034738Y-119721380D01*
X188872880Y-119379595D02*
X188872880Y-118808166D01*
X189872880Y-119093880D02*
X188872880Y-119093880D01*
X189349071Y-118474833D02*
X189349071Y-118141500D01*
X189872880Y-117998642D02*
X189872880Y-118474833D01*
X188872880Y-118474833D01*
X188872880Y-117998642D01*
X189872880Y-116998642D02*
X189396690Y-117331976D01*
X189872880Y-117570071D02*
X188872880Y-117570071D01*
X188872880Y-117189119D01*
X188920500Y-117093880D01*
X188968119Y-117046261D01*
X189063357Y-116998642D01*
X189206214Y-116998642D01*
X189301452Y-117046261D01*
X189349071Y-117093880D01*
X189396690Y-117189119D01*
X189396690Y-117570071D01*
X189872880Y-116570071D02*
X188872880Y-116570071D01*
X189587166Y-116236738D01*
X188872880Y-115903404D01*
X189872880Y-115903404D01*
X188872880Y-114474833D02*
X188872880Y-114284357D01*
X188920500Y-114189119D01*
X189015738Y-114093880D01*
X189206214Y-114046261D01*
X189539547Y-114046261D01*
X189730023Y-114093880D01*
X189825261Y-114189119D01*
X189872880Y-114284357D01*
X189872880Y-114474833D01*
X189825261Y-114570071D01*
X189730023Y-114665309D01*
X189539547Y-114712928D01*
X189206214Y-114712928D01*
X189015738Y-114665309D01*
X188920500Y-114570071D01*
X188872880Y-114474833D01*
X189872880Y-113617690D02*
X188872880Y-113617690D01*
X189872880Y-113046261D01*
X188872880Y-113046261D01*
X130357619Y-92797452D02*
X131357619Y-92797452D01*
X130738571Y-92892690D02*
X130357619Y-93178404D01*
X131024285Y-93178404D02*
X130643333Y-92797452D01*
X131262380Y-93559357D02*
X131310000Y-93606976D01*
X131357619Y-93702214D01*
X131357619Y-93940309D01*
X131310000Y-94035547D01*
X131262380Y-94083166D01*
X131167142Y-94130785D01*
X131071904Y-94130785D01*
X130929047Y-94083166D01*
X130357619Y-93511738D01*
X130357619Y-94130785D01*
X131262380Y-94511738D02*
X131310000Y-94559357D01*
X131357619Y-94654595D01*
X131357619Y-94892690D01*
X131310000Y-94987928D01*
X131262380Y-95035547D01*
X131167142Y-95083166D01*
X131071904Y-95083166D01*
X130929047Y-95035547D01*
X130357619Y-94464119D01*
X130357619Y-95083166D01*
X136691952Y-115069880D02*
X136691952Y-114069880D01*
X136787190Y-114688928D02*
X137072904Y-115069880D01*
X137072904Y-114403214D02*
X136691952Y-114784166D01*
X137453857Y-114165119D02*
X137501476Y-114117500D01*
X137596714Y-114069880D01*
X137834809Y-114069880D01*
X137930047Y-114117500D01*
X137977666Y-114165119D01*
X138025285Y-114260357D01*
X138025285Y-114355595D01*
X137977666Y-114498452D01*
X137406238Y-115069880D01*
X138025285Y-115069880D01*
X138406238Y-114165119D02*
X138453857Y-114117500D01*
X138549095Y-114069880D01*
X138787190Y-114069880D01*
X138882428Y-114117500D01*
X138930047Y-114165119D01*
X138977666Y-114260357D01*
X138977666Y-114355595D01*
X138930047Y-114498452D01*
X138358619Y-115069880D01*
X138977666Y-115069880D01*
X163155714Y-113037880D02*
X163155714Y-112037880D01*
X163727142Y-113037880D01*
X163727142Y-112037880D01*
X164203333Y-112037880D02*
X164203333Y-112847404D01*
X164250952Y-112942642D01*
X164298571Y-112990261D01*
X164393809Y-113037880D01*
X164584285Y-113037880D01*
X164679523Y-112990261D01*
X164727142Y-112942642D01*
X164774761Y-112847404D01*
X164774761Y-112037880D01*
X165250952Y-113037880D02*
X165250952Y-112037880D01*
X165631904Y-112037880D01*
X165727142Y-112085500D01*
X165774761Y-112133119D01*
X165822380Y-112228357D01*
X165822380Y-112371214D01*
X165774761Y-112466452D01*
X165727142Y-112514071D01*
X165631904Y-112561690D01*
X165250952Y-112561690D01*
X166203333Y-112133119D02*
X166250952Y-112085500D01*
X166346190Y-112037880D01*
X166584285Y-112037880D01*
X166679523Y-112085500D01*
X166727142Y-112133119D01*
X166774761Y-112228357D01*
X166774761Y-112323595D01*
X166727142Y-112466452D01*
X166155714Y-113037880D01*
X166774761Y-113037880D01*
X167727142Y-113037880D02*
X167155714Y-113037880D01*
X167441428Y-113037880D02*
X167441428Y-112037880D01*
X167346190Y-112180738D01*
X167250952Y-112275976D01*
X167155714Y-112323595D01*
X168346190Y-112037880D02*
X168441428Y-112037880D01*
X168536666Y-112085500D01*
X168584285Y-112133119D01*
X168631904Y-112228357D01*
X168679523Y-112418833D01*
X168679523Y-112656928D01*
X168631904Y-112847404D01*
X168584285Y-112942642D01*
X168536666Y-112990261D01*
X168441428Y-113037880D01*
X168346190Y-113037880D01*
X168250952Y-112990261D01*
X168203333Y-112942642D01*
X168155714Y-112847404D01*
X168108095Y-112656928D01*
X168108095Y-112418833D01*
X168155714Y-112228357D01*
X168203333Y-112133119D01*
X168250952Y-112085500D01*
X168346190Y-112037880D01*
X169584285Y-112037880D02*
X169108095Y-112037880D01*
X169060476Y-112514071D01*
X169108095Y-112466452D01*
X169203333Y-112418833D01*
X169441428Y-112418833D01*
X169536666Y-112466452D01*
X169584285Y-112514071D01*
X169631904Y-112609309D01*
X169631904Y-112847404D01*
X169584285Y-112942642D01*
X169536666Y-112990261D01*
X169441428Y-113037880D01*
X169203333Y-113037880D01*
X169108095Y-112990261D01*
X169060476Y-112942642D01*
X112895214Y-116720880D02*
X112895214Y-115720880D01*
X113466642Y-116720880D02*
X113038071Y-116149452D01*
X113466642Y-115720880D02*
X112895214Y-116292309D01*
X113799976Y-115720880D02*
X114419023Y-115720880D01*
X114085690Y-116101833D01*
X114228547Y-116101833D01*
X114323785Y-116149452D01*
X114371404Y-116197071D01*
X114419023Y-116292309D01*
X114419023Y-116530404D01*
X114371404Y-116625642D01*
X114323785Y-116673261D01*
X114228547Y-116720880D01*
X113942833Y-116720880D01*
X113847595Y-116673261D01*
X113799976Y-116625642D01*
X114752357Y-115720880D02*
X115371404Y-115720880D01*
X115038071Y-116101833D01*
X115180928Y-116101833D01*
X115276166Y-116149452D01*
X115323785Y-116197071D01*
X115371404Y-116292309D01*
X115371404Y-116530404D01*
X115323785Y-116625642D01*
X115276166Y-116673261D01*
X115180928Y-116720880D01*
X114895214Y-116720880D01*
X114799976Y-116673261D01*
X114752357Y-116625642D01*
X112831714Y-114752380D02*
X112831714Y-113752380D01*
X113403142Y-114752380D02*
X112974571Y-114180952D01*
X113403142Y-113752380D02*
X112831714Y-114323809D01*
X113736476Y-113752380D02*
X114355523Y-113752380D01*
X114022190Y-114133333D01*
X114165047Y-114133333D01*
X114260285Y-114180952D01*
X114307904Y-114228571D01*
X114355523Y-114323809D01*
X114355523Y-114561904D01*
X114307904Y-114657142D01*
X114260285Y-114704761D01*
X114165047Y-114752380D01*
X113879333Y-114752380D01*
X113784095Y-114704761D01*
X113736476Y-114657142D01*
X114688857Y-113752380D02*
X115307904Y-113752380D01*
X114974571Y-114133333D01*
X115117428Y-114133333D01*
X115212666Y-114180952D01*
X115260285Y-114228571D01*
X115307904Y-114323809D01*
X115307904Y-114561904D01*
X115260285Y-114657142D01*
X115212666Y-114704761D01*
X115117428Y-114752380D01*
X114831714Y-114752380D01*
X114736476Y-114704761D01*
X114688857Y-114657142D01*
X187110833Y-125102880D02*
X186539404Y-125102880D01*
X186825119Y-125102880D02*
X186825119Y-124102880D01*
X186729880Y-124245738D01*
X186634642Y-124340976D01*
X186539404Y-124388595D01*
X187491785Y-124198119D02*
X187539404Y-124150500D01*
X187634642Y-124102880D01*
X187872738Y-124102880D01*
X187967976Y-124150500D01*
X188015595Y-124198119D01*
X188063214Y-124293357D01*
X188063214Y-124388595D01*
X188015595Y-124531452D01*
X187444166Y-125102880D01*
X188063214Y-125102880D01*
X188682261Y-124102880D02*
X188777500Y-124102880D01*
X188872738Y-124150500D01*
X188920357Y-124198119D01*
X188967976Y-124293357D01*
X189015595Y-124483833D01*
X189015595Y-124721928D01*
X188967976Y-124912404D01*
X188920357Y-125007642D01*
X188872738Y-125055261D01*
X188777500Y-125102880D01*
X188682261Y-125102880D01*
X188587023Y-125055261D01*
X188539404Y-125007642D01*
X188491785Y-124912404D01*
X188444166Y-124721928D01*
X188444166Y-124483833D01*
X188491785Y-124293357D01*
X188539404Y-124198119D01*
X188587023Y-124150500D01*
X188682261Y-124102880D01*
X190015595Y-125102880D02*
X189682261Y-124626690D01*
X189444166Y-125102880D02*
X189444166Y-124102880D01*
X189825119Y-124102880D01*
X189920357Y-124150500D01*
X189967976Y-124198119D01*
X190015595Y-124293357D01*
X190015595Y-124436214D01*
X189967976Y-124531452D01*
X189920357Y-124579071D01*
X189825119Y-124626690D01*
X189444166Y-124626690D01*
X123086904Y-113450714D02*
X123086904Y-114117380D01*
X122848809Y-113069761D02*
X122610714Y-113784047D01*
X123229761Y-113784047D01*
X124039285Y-113450714D02*
X124039285Y-114117380D01*
X123610714Y-113450714D02*
X123610714Y-113974523D01*
X123658333Y-114069761D01*
X123753571Y-114117380D01*
X123896428Y-114117380D01*
X123991666Y-114069761D01*
X124039285Y-114022142D01*
X124420238Y-113117380D02*
X125086904Y-113117380D01*
X124658333Y-114117380D01*
X182141904Y-128508714D02*
X182141904Y-129175380D01*
X181713333Y-128508714D02*
X181713333Y-129032523D01*
X181760952Y-129127761D01*
X181856190Y-129175380D01*
X181999047Y-129175380D01*
X182094285Y-129127761D01*
X182141904Y-129080142D01*
X183046666Y-128175380D02*
X182856190Y-128175380D01*
X182760952Y-128223000D01*
X182713333Y-128270619D01*
X182618095Y-128413476D01*
X182570476Y-128603952D01*
X182570476Y-128984904D01*
X182618095Y-129080142D01*
X182665714Y-129127761D01*
X182760952Y-129175380D01*
X182951428Y-129175380D01*
X183046666Y-129127761D01*
X183094285Y-129080142D01*
X183141904Y-128984904D01*
X183141904Y-128746809D01*
X183094285Y-128651571D01*
X183046666Y-128603952D01*
X182951428Y-128556333D01*
X182760952Y-128556333D01*
X182665714Y-128603952D01*
X182618095Y-128651571D01*
X182570476Y-128746809D01*
X183713333Y-128603952D02*
X183618095Y-128556333D01*
X183570476Y-128508714D01*
X183522857Y-128413476D01*
X183522857Y-128365857D01*
X183570476Y-128270619D01*
X183618095Y-128223000D01*
X183713333Y-128175380D01*
X183903809Y-128175380D01*
X183999047Y-128223000D01*
X184046666Y-128270619D01*
X184094285Y-128365857D01*
X184094285Y-128413476D01*
X184046666Y-128508714D01*
X183999047Y-128556333D01*
X183903809Y-128603952D01*
X183713333Y-128603952D01*
X183618095Y-128651571D01*
X183570476Y-128699190D01*
X183522857Y-128794428D01*
X183522857Y-128984904D01*
X183570476Y-129080142D01*
X183618095Y-129127761D01*
X183713333Y-129175380D01*
X183903809Y-129175380D01*
X183999047Y-129127761D01*
X184046666Y-129080142D01*
X184094285Y-128984904D01*
X184094285Y-128794428D01*
X184046666Y-128699190D01*
X183999047Y-128651571D01*
X183903809Y-128603952D01*
X182141904Y-138986214D02*
X182141904Y-139652880D01*
X181713333Y-138986214D02*
X181713333Y-139510023D01*
X181760952Y-139605261D01*
X181856190Y-139652880D01*
X181999047Y-139652880D01*
X182094285Y-139605261D01*
X182141904Y-139557642D01*
X183046666Y-138652880D02*
X182856190Y-138652880D01*
X182760952Y-138700500D01*
X182713333Y-138748119D01*
X182618095Y-138890976D01*
X182570476Y-139081452D01*
X182570476Y-139462404D01*
X182618095Y-139557642D01*
X182665714Y-139605261D01*
X182760952Y-139652880D01*
X182951428Y-139652880D01*
X183046666Y-139605261D01*
X183094285Y-139557642D01*
X183141904Y-139462404D01*
X183141904Y-139224309D01*
X183094285Y-139129071D01*
X183046666Y-139081452D01*
X182951428Y-139033833D01*
X182760952Y-139033833D01*
X182665714Y-139081452D01*
X182618095Y-139129071D01*
X182570476Y-139224309D01*
X183713333Y-139081452D02*
X183618095Y-139033833D01*
X183570476Y-138986214D01*
X183522857Y-138890976D01*
X183522857Y-138843357D01*
X183570476Y-138748119D01*
X183618095Y-138700500D01*
X183713333Y-138652880D01*
X183903809Y-138652880D01*
X183999047Y-138700500D01*
X184046666Y-138748119D01*
X184094285Y-138843357D01*
X184094285Y-138890976D01*
X184046666Y-138986214D01*
X183999047Y-139033833D01*
X183903809Y-139081452D01*
X183713333Y-139081452D01*
X183618095Y-139129071D01*
X183570476Y-139176690D01*
X183522857Y-139271928D01*
X183522857Y-139462404D01*
X183570476Y-139557642D01*
X183618095Y-139605261D01*
X183713333Y-139652880D01*
X183903809Y-139652880D01*
X183999047Y-139605261D01*
X184046666Y-139557642D01*
X184094285Y-139462404D01*
X184094285Y-139271928D01*
X184046666Y-139176690D01*
X183999047Y-139129071D01*
X183903809Y-139081452D01*
X182141904Y-132064714D02*
X182141904Y-132731380D01*
X181713333Y-132064714D02*
X181713333Y-132588523D01*
X181760952Y-132683761D01*
X181856190Y-132731380D01*
X181999047Y-132731380D01*
X182094285Y-132683761D01*
X182141904Y-132636142D01*
X183046666Y-131731380D02*
X182856190Y-131731380D01*
X182760952Y-131779000D01*
X182713333Y-131826619D01*
X182618095Y-131969476D01*
X182570476Y-132159952D01*
X182570476Y-132540904D01*
X182618095Y-132636142D01*
X182665714Y-132683761D01*
X182760952Y-132731380D01*
X182951428Y-132731380D01*
X183046666Y-132683761D01*
X183094285Y-132636142D01*
X183141904Y-132540904D01*
X183141904Y-132302809D01*
X183094285Y-132207571D01*
X183046666Y-132159952D01*
X182951428Y-132112333D01*
X182760952Y-132112333D01*
X182665714Y-132159952D01*
X182618095Y-132207571D01*
X182570476Y-132302809D01*
X183713333Y-132159952D02*
X183618095Y-132112333D01*
X183570476Y-132064714D01*
X183522857Y-131969476D01*
X183522857Y-131921857D01*
X183570476Y-131826619D01*
X183618095Y-131779000D01*
X183713333Y-131731380D01*
X183903809Y-131731380D01*
X183999047Y-131779000D01*
X184046666Y-131826619D01*
X184094285Y-131921857D01*
X184094285Y-131969476D01*
X184046666Y-132064714D01*
X183999047Y-132112333D01*
X183903809Y-132159952D01*
X183713333Y-132159952D01*
X183618095Y-132207571D01*
X183570476Y-132255190D01*
X183522857Y-132350428D01*
X183522857Y-132540904D01*
X183570476Y-132636142D01*
X183618095Y-132683761D01*
X183713333Y-132731380D01*
X183903809Y-132731380D01*
X183999047Y-132683761D01*
X184046666Y-132636142D01*
X184094285Y-132540904D01*
X184094285Y-132350428D01*
X184046666Y-132255190D01*
X183999047Y-132207571D01*
X183903809Y-132159952D01*
X182141904Y-135493714D02*
X182141904Y-136160380D01*
X181713333Y-135493714D02*
X181713333Y-136017523D01*
X181760952Y-136112761D01*
X181856190Y-136160380D01*
X181999047Y-136160380D01*
X182094285Y-136112761D01*
X182141904Y-136065142D01*
X183046666Y-135160380D02*
X182856190Y-135160380D01*
X182760952Y-135208000D01*
X182713333Y-135255619D01*
X182618095Y-135398476D01*
X182570476Y-135588952D01*
X182570476Y-135969904D01*
X182618095Y-136065142D01*
X182665714Y-136112761D01*
X182760952Y-136160380D01*
X182951428Y-136160380D01*
X183046666Y-136112761D01*
X183094285Y-136065142D01*
X183141904Y-135969904D01*
X183141904Y-135731809D01*
X183094285Y-135636571D01*
X183046666Y-135588952D01*
X182951428Y-135541333D01*
X182760952Y-135541333D01*
X182665714Y-135588952D01*
X182618095Y-135636571D01*
X182570476Y-135731809D01*
X183713333Y-135588952D02*
X183618095Y-135541333D01*
X183570476Y-135493714D01*
X183522857Y-135398476D01*
X183522857Y-135350857D01*
X183570476Y-135255619D01*
X183618095Y-135208000D01*
X183713333Y-135160380D01*
X183903809Y-135160380D01*
X183999047Y-135208000D01*
X184046666Y-135255619D01*
X184094285Y-135350857D01*
X184094285Y-135398476D01*
X184046666Y-135493714D01*
X183999047Y-135541333D01*
X183903809Y-135588952D01*
X183713333Y-135588952D01*
X183618095Y-135636571D01*
X183570476Y-135684190D01*
X183522857Y-135779428D01*
X183522857Y-135969904D01*
X183570476Y-136065142D01*
X183618095Y-136112761D01*
X183713333Y-136160380D01*
X183903809Y-136160380D01*
X183999047Y-136112761D01*
X184046666Y-136065142D01*
X184094285Y-135969904D01*
X184094285Y-135779428D01*
X184046666Y-135684190D01*
X183999047Y-135636571D01*
X183903809Y-135588952D01*
%LPC*%
G36*
G01*
X157601500Y-130843000D02*
X157601500Y-131793000D01*
G75*
G02*
X157351500Y-132043000I-250000J0D01*
G01*
X156676500Y-132043000D01*
G75*
G02*
X156426500Y-131793000I0J250000D01*
G01*
X156426500Y-130843000D01*
G75*
G02*
X156676500Y-130593000I250000J0D01*
G01*
X157351500Y-130593000D01*
G75*
G02*
X157601500Y-130843000I0J-250000D01*
G01*
G37*
G36*
G01*
X159676500Y-130843000D02*
X159676500Y-131793000D01*
G75*
G02*
X159426500Y-132043000I-250000J0D01*
G01*
X158751500Y-132043000D01*
G75*
G02*
X158501500Y-131793000I0J250000D01*
G01*
X158501500Y-130843000D01*
G75*
G02*
X158751500Y-130593000I250000J0D01*
G01*
X159426500Y-130593000D01*
G75*
G02*
X159676500Y-130843000I0J-250000D01*
G01*
G37*
D14*
X155956000Y-145986500D03*
X155956000Y-143446500D03*
X153416000Y-145986500D03*
X153416000Y-143446500D03*
X150876000Y-145986500D03*
X150876000Y-143446500D03*
X148336000Y-145986500D03*
X148336000Y-143446500D03*
X145796000Y-145986500D03*
D15*
X145796000Y-143446500D03*
D16*
X134620000Y-136715500D03*
X134620000Y-135445500D03*
X133350000Y-136715500D03*
X133350000Y-135445500D03*
X132080000Y-136715500D03*
D17*
X132080000Y-135445500D03*
D18*
X106934000Y-128524000D03*
X112014000Y-128524000D03*
X106934000Y-131064000D03*
X112014000Y-131064000D03*
G36*
G01*
X107534000Y-134404000D02*
X106334000Y-134404000D01*
G75*
G02*
X105934000Y-134004000I0J400000D01*
G01*
X105934000Y-133204000D01*
G75*
G02*
X106334000Y-132804000I400000J0D01*
G01*
X107534000Y-132804000D01*
G75*
G02*
X107934000Y-133204000I0J-400000D01*
G01*
X107934000Y-134004000D01*
G75*
G02*
X107534000Y-134404000I-400000J0D01*
G01*
G37*
G36*
G01*
X112614000Y-134404000D02*
X111414000Y-134404000D01*
G75*
G02*
X111014000Y-134004000I0J400000D01*
G01*
X111014000Y-133204000D01*
G75*
G02*
X111414000Y-132804000I400000J0D01*
G01*
X112614000Y-132804000D01*
G75*
G02*
X113014000Y-133204000I0J-400000D01*
G01*
X113014000Y-134004000D01*
G75*
G02*
X112614000Y-134404000I-400000J0D01*
G01*
G37*
G36*
G01*
X162134500Y-117036001D02*
X162134500Y-116135999D01*
G75*
G02*
X162384499Y-115886000I249999J0D01*
G01*
X163084501Y-115886000D01*
G75*
G02*
X163334500Y-116135999I0J-249999D01*
G01*
X163334500Y-117036001D01*
G75*
G02*
X163084501Y-117286000I-249999J0D01*
G01*
X162384499Y-117286000D01*
G75*
G02*
X162134500Y-117036001I0J249999D01*
G01*
G37*
G36*
G01*
X160134500Y-117036001D02*
X160134500Y-116135999D01*
G75*
G02*
X160384499Y-115886000I249999J0D01*
G01*
X161084501Y-115886000D01*
G75*
G02*
X161334500Y-116135999I0J-249999D01*
G01*
X161334500Y-117036001D01*
G75*
G02*
X161084501Y-117286000I-249999J0D01*
G01*
X160384499Y-117286000D01*
G75*
G02*
X160134500Y-117036001I0J249999D01*
G01*
G37*
G36*
G01*
X161334500Y-118104499D02*
X161334500Y-119004501D01*
G75*
G02*
X161084501Y-119254500I-249999J0D01*
G01*
X160384499Y-119254500D01*
G75*
G02*
X160134500Y-119004501I0J249999D01*
G01*
X160134500Y-118104499D01*
G75*
G02*
X160384499Y-117854500I249999J0D01*
G01*
X161084501Y-117854500D01*
G75*
G02*
X161334500Y-118104499I0J-249999D01*
G01*
G37*
G36*
G01*
X163334500Y-118104499D02*
X163334500Y-119004501D01*
G75*
G02*
X163084501Y-119254500I-249999J0D01*
G01*
X162384499Y-119254500D01*
G75*
G02*
X162134500Y-119004501I0J249999D01*
G01*
X162134500Y-118104499D01*
G75*
G02*
X162384499Y-117854500I249999J0D01*
G01*
X163084501Y-117854500D01*
G75*
G02*
X163334500Y-118104499I0J-249999D01*
G01*
G37*
D19*
X111887000Y-149987000D03*
X111887000Y-147447000D03*
X111887000Y-144907000D03*
X111887000Y-142367000D03*
X111887000Y-139827000D03*
X114427000Y-149987000D03*
X114427000Y-147447000D03*
X114427000Y-144907000D03*
X114427000Y-142367000D03*
G36*
G01*
X115277000Y-139227000D02*
X115277000Y-140427000D01*
G75*
G02*
X115027000Y-140677000I-250000J0D01*
G01*
X113827000Y-140677000D01*
G75*
G02*
X113577000Y-140427000I0J250000D01*
G01*
X113577000Y-139227000D01*
G75*
G02*
X113827000Y-138977000I250000J0D01*
G01*
X115027000Y-138977000D01*
G75*
G02*
X115277000Y-139227000I0J-250000D01*
G01*
G37*
G36*
G01*
X165436500Y-100145001D02*
X165436500Y-99244999D01*
G75*
G02*
X165686499Y-98995000I249999J0D01*
G01*
X166386501Y-98995000D01*
G75*
G02*
X166636500Y-99244999I0J-249999D01*
G01*
X166636500Y-100145001D01*
G75*
G02*
X166386501Y-100395000I-249999J0D01*
G01*
X165686499Y-100395000D01*
G75*
G02*
X165436500Y-100145001I0J249999D01*
G01*
G37*
G36*
G01*
X163436500Y-100145001D02*
X163436500Y-99244999D01*
G75*
G02*
X163686499Y-98995000I249999J0D01*
G01*
X164386501Y-98995000D01*
G75*
G02*
X164636500Y-99244999I0J-249999D01*
G01*
X164636500Y-100145001D01*
G75*
G02*
X164386501Y-100395000I-249999J0D01*
G01*
X163686499Y-100395000D01*
G75*
G02*
X163436500Y-100145001I0J249999D01*
G01*
G37*
G36*
G01*
X162960000Y-102304001D02*
X162960000Y-101403999D01*
G75*
G02*
X163209999Y-101154000I249999J0D01*
G01*
X163910001Y-101154000D01*
G75*
G02*
X164160000Y-101403999I0J-249999D01*
G01*
X164160000Y-102304001D01*
G75*
G02*
X163910001Y-102554000I-249999J0D01*
G01*
X163209999Y-102554000D01*
G75*
G02*
X162960000Y-102304001I0J249999D01*
G01*
G37*
G36*
G01*
X160960000Y-102304001D02*
X160960000Y-101403999D01*
G75*
G02*
X161209999Y-101154000I249999J0D01*
G01*
X161910001Y-101154000D01*
G75*
G02*
X162160000Y-101403999I0J-249999D01*
G01*
X162160000Y-102304001D01*
G75*
G02*
X161910001Y-102554000I-249999J0D01*
G01*
X161209999Y-102554000D01*
G75*
G02*
X160960000Y-102304001I0J249999D01*
G01*
G37*
D20*
X151490000Y-99240000D03*
D21*
X152750000Y-96750000D03*
X157250000Y-96750000D03*
D20*
X158500000Y-99240000D03*
X136490000Y-99240000D03*
D21*
X137750000Y-96750000D03*
X142250000Y-96750000D03*
D20*
X143500000Y-99240000D03*
D22*
X169820000Y-95700000D03*
D23*
X168390000Y-99350000D03*
D22*
X161180000Y-95700000D03*
D23*
X162610000Y-99350000D03*
D24*
X161180000Y-99880000D03*
X169820000Y-99880000D03*
D25*
X167500000Y-95670000D03*
X164500000Y-95670000D03*
D26*
X168250000Y-97680000D03*
X165250000Y-97680000D03*
X163750000Y-97680000D03*
D27*
X170150000Y-94570000D03*
X161850000Y-94570000D03*
X161850000Y-96780000D03*
X170150000Y-96780000D03*
G36*
G01*
X127679500Y-126422999D02*
X127679500Y-127323001D01*
G75*
G02*
X127429501Y-127573000I-249999J0D01*
G01*
X126729499Y-127573000D01*
G75*
G02*
X126479500Y-127323001I0J249999D01*
G01*
X126479500Y-126422999D01*
G75*
G02*
X126729499Y-126173000I249999J0D01*
G01*
X127429501Y-126173000D01*
G75*
G02*
X127679500Y-126422999I0J-249999D01*
G01*
G37*
G36*
G01*
X129679500Y-126422999D02*
X129679500Y-127323001D01*
G75*
G02*
X129429501Y-127573000I-249999J0D01*
G01*
X128729499Y-127573000D01*
G75*
G02*
X128479500Y-127323001I0J249999D01*
G01*
X128479500Y-126422999D01*
G75*
G02*
X128729499Y-126173000I249999J0D01*
G01*
X129429501Y-126173000D01*
G75*
G02*
X129679500Y-126422999I0J-249999D01*
G01*
G37*
D28*
G36*
X131049000Y-128130398D02*
G01*
X131024466Y-128130398D01*
X130975635Y-128125588D01*
X130927510Y-128116016D01*
X130880555Y-128101772D01*
X130835222Y-128082995D01*
X130791949Y-128059864D01*
X130751150Y-128032604D01*
X130713221Y-128001476D01*
X130678524Y-127966779D01*
X130647396Y-127928850D01*
X130620136Y-127888051D01*
X130597005Y-127844778D01*
X130578228Y-127799445D01*
X130563984Y-127752490D01*
X130554412Y-127704365D01*
X130549602Y-127655534D01*
X130549602Y-127631000D01*
X130549000Y-127631000D01*
X130549000Y-127131000D01*
X130549602Y-127131000D01*
X130549602Y-127106466D01*
X130554412Y-127057635D01*
X130563984Y-127009510D01*
X130578228Y-126962555D01*
X130597005Y-126917222D01*
X130620136Y-126873949D01*
X130647396Y-126833150D01*
X130678524Y-126795221D01*
X130713221Y-126760524D01*
X130751150Y-126729396D01*
X130791949Y-126702136D01*
X130835222Y-126679005D01*
X130880555Y-126660228D01*
X130927510Y-126645984D01*
X130975635Y-126636412D01*
X131024466Y-126631602D01*
X131049000Y-126631602D01*
X131049000Y-126631000D01*
X131549000Y-126631000D01*
X131549000Y-128131000D01*
X131049000Y-128131000D01*
X131049000Y-128130398D01*
G37*
G36*
X131849000Y-126631000D02*
G01*
X132349000Y-126631000D01*
X132349000Y-126631602D01*
X132373534Y-126631602D01*
X132422365Y-126636412D01*
X132470490Y-126645984D01*
X132517445Y-126660228D01*
X132562778Y-126679005D01*
X132606051Y-126702136D01*
X132646850Y-126729396D01*
X132684779Y-126760524D01*
X132719476Y-126795221D01*
X132750604Y-126833150D01*
X132777864Y-126873949D01*
X132800995Y-126917222D01*
X132819772Y-126962555D01*
X132834016Y-127009510D01*
X132843588Y-127057635D01*
X132848398Y-127106466D01*
X132848398Y-127131000D01*
X132849000Y-127131000D01*
X132849000Y-127631000D01*
X132848398Y-127631000D01*
X132848398Y-127655534D01*
X132843588Y-127704365D01*
X132834016Y-127752490D01*
X132819772Y-127799445D01*
X132800995Y-127844778D01*
X132777864Y-127888051D01*
X132750604Y-127928850D01*
X132719476Y-127966779D01*
X132684779Y-128001476D01*
X132646850Y-128032604D01*
X132606051Y-128059864D01*
X132562778Y-128082995D01*
X132517445Y-128101772D01*
X132470490Y-128116016D01*
X132422365Y-128125588D01*
X132373534Y-128130398D01*
X132349000Y-128130398D01*
X132349000Y-128131000D01*
X131849000Y-128131000D01*
X131849000Y-126631000D01*
G37*
G36*
G01*
X123819500Y-126398000D02*
X123819500Y-127348000D01*
G75*
G02*
X123569500Y-127598000I-250000J0D01*
G01*
X122894500Y-127598000D01*
G75*
G02*
X122644500Y-127348000I0J250000D01*
G01*
X122644500Y-126398000D01*
G75*
G02*
X122894500Y-126148000I250000J0D01*
G01*
X123569500Y-126148000D01*
G75*
G02*
X123819500Y-126398000I0J-250000D01*
G01*
G37*
G36*
G01*
X125894500Y-126398000D02*
X125894500Y-127348000D01*
G75*
G02*
X125644500Y-127598000I-250000J0D01*
G01*
X124969500Y-127598000D01*
G75*
G02*
X124719500Y-127348000I0J250000D01*
G01*
X124719500Y-126398000D01*
G75*
G02*
X124969500Y-126148000I250000J0D01*
G01*
X125644500Y-126148000D01*
G75*
G02*
X125894500Y-126398000I0J-250000D01*
G01*
G37*
D29*
X182976500Y-113588800D03*
X177576500Y-113588800D03*
G36*
G01*
X158799999Y-122150000D02*
X159700001Y-122150000D01*
G75*
G02*
X159950000Y-122399999I0J-249999D01*
G01*
X159950000Y-123100001D01*
G75*
G02*
X159700001Y-123350000I-249999J0D01*
G01*
X158799999Y-123350000D01*
G75*
G02*
X158550000Y-123100001I0J249999D01*
G01*
X158550000Y-122399999D01*
G75*
G02*
X158799999Y-122150000I249999J0D01*
G01*
G37*
G36*
G01*
X158799999Y-120150000D02*
X159700001Y-120150000D01*
G75*
G02*
X159950000Y-120399999I0J-249999D01*
G01*
X159950000Y-121100001D01*
G75*
G02*
X159700001Y-121350000I-249999J0D01*
G01*
X158799999Y-121350000D01*
G75*
G02*
X158550000Y-121100001I0J249999D01*
G01*
X158550000Y-120399999D01*
G75*
G02*
X158799999Y-120150000I249999J0D01*
G01*
G37*
G36*
G01*
X132099000Y-117099501D02*
X132099000Y-116199499D01*
G75*
G02*
X132348999Y-115949500I249999J0D01*
G01*
X133049001Y-115949500D01*
G75*
G02*
X133299000Y-116199499I0J-249999D01*
G01*
X133299000Y-117099501D01*
G75*
G02*
X133049001Y-117349500I-249999J0D01*
G01*
X132348999Y-117349500D01*
G75*
G02*
X132099000Y-117099501I0J249999D01*
G01*
G37*
G36*
G01*
X130099000Y-117099501D02*
X130099000Y-116199499D01*
G75*
G02*
X130348999Y-115949500I249999J0D01*
G01*
X131049001Y-115949500D01*
G75*
G02*
X131299000Y-116199499I0J-249999D01*
G01*
X131299000Y-117099501D01*
G75*
G02*
X131049001Y-117349500I-249999J0D01*
G01*
X130348999Y-117349500D01*
G75*
G02*
X130099000Y-117099501I0J249999D01*
G01*
G37*
G36*
G01*
X131299000Y-118167999D02*
X131299000Y-119068001D01*
G75*
G02*
X131049001Y-119318000I-249999J0D01*
G01*
X130348999Y-119318000D01*
G75*
G02*
X130099000Y-119068001I0J249999D01*
G01*
X130099000Y-118167999D01*
G75*
G02*
X130348999Y-117918000I249999J0D01*
G01*
X131049001Y-117918000D01*
G75*
G02*
X131299000Y-118167999I0J-249999D01*
G01*
G37*
G36*
G01*
X133299000Y-118167999D02*
X133299000Y-119068001D01*
G75*
G02*
X133049001Y-119318000I-249999J0D01*
G01*
X132348999Y-119318000D01*
G75*
G02*
X132099000Y-119068001I0J249999D01*
G01*
X132099000Y-118167999D01*
G75*
G02*
X132348999Y-117918000I249999J0D01*
G01*
X133049001Y-117918000D01*
G75*
G02*
X133299000Y-118167999I0J-249999D01*
G01*
G37*
G36*
G01*
X130219500Y-114167499D02*
X130219500Y-115067501D01*
G75*
G02*
X129969501Y-115317500I-249999J0D01*
G01*
X129269499Y-115317500D01*
G75*
G02*
X129019500Y-115067501I0J249999D01*
G01*
X129019500Y-114167499D01*
G75*
G02*
X129269499Y-113917500I249999J0D01*
G01*
X129969501Y-113917500D01*
G75*
G02*
X130219500Y-114167499I0J-249999D01*
G01*
G37*
G36*
G01*
X132219500Y-114167499D02*
X132219500Y-115067501D01*
G75*
G02*
X131969501Y-115317500I-249999J0D01*
G01*
X131269499Y-115317500D01*
G75*
G02*
X131019500Y-115067501I0J249999D01*
G01*
X131019500Y-114167499D01*
G75*
G02*
X131269499Y-113917500I249999J0D01*
G01*
X131969501Y-113917500D01*
G75*
G02*
X132219500Y-114167499I0J-249999D01*
G01*
G37*
G36*
G01*
X128264499Y-124034500D02*
X129164501Y-124034500D01*
G75*
G02*
X129414500Y-124284499I0J-249999D01*
G01*
X129414500Y-124984501D01*
G75*
G02*
X129164501Y-125234500I-249999J0D01*
G01*
X128264499Y-125234500D01*
G75*
G02*
X128014500Y-124984501I0J249999D01*
G01*
X128014500Y-124284499D01*
G75*
G02*
X128264499Y-124034500I249999J0D01*
G01*
G37*
G36*
G01*
X128264499Y-122034500D02*
X129164501Y-122034500D01*
G75*
G02*
X129414500Y-122284499I0J-249999D01*
G01*
X129414500Y-122984501D01*
G75*
G02*
X129164501Y-123234500I-249999J0D01*
G01*
X128264499Y-123234500D01*
G75*
G02*
X128014500Y-122984501I0J249999D01*
G01*
X128014500Y-122284499D01*
G75*
G02*
X128264499Y-122034500I249999J0D01*
G01*
G37*
G36*
G01*
X131133001Y-123234500D02*
X130232999Y-123234500D01*
G75*
G02*
X129983000Y-122984501I0J249999D01*
G01*
X129983000Y-122284499D01*
G75*
G02*
X130232999Y-122034500I249999J0D01*
G01*
X131133001Y-122034500D01*
G75*
G02*
X131383000Y-122284499I0J-249999D01*
G01*
X131383000Y-122984501D01*
G75*
G02*
X131133001Y-123234500I-249999J0D01*
G01*
G37*
G36*
G01*
X131133001Y-125234500D02*
X130232999Y-125234500D01*
G75*
G02*
X129983000Y-124984501I0J249999D01*
G01*
X129983000Y-124284499D01*
G75*
G02*
X130232999Y-124034500I249999J0D01*
G01*
X131133001Y-124034500D01*
G75*
G02*
X131383000Y-124284499I0J-249999D01*
G01*
X131383000Y-124984501D01*
G75*
G02*
X131133001Y-125234500I-249999J0D01*
G01*
G37*
G36*
G01*
X150299000Y-115476000D02*
X150299000Y-116426000D01*
G75*
G02*
X150049000Y-116676000I-250000J0D01*
G01*
X149374000Y-116676000D01*
G75*
G02*
X149124000Y-116426000I0J250000D01*
G01*
X149124000Y-115476000D01*
G75*
G02*
X149374000Y-115226000I250000J0D01*
G01*
X150049000Y-115226000D01*
G75*
G02*
X150299000Y-115476000I0J-250000D01*
G01*
G37*
G36*
G01*
X152374000Y-115476000D02*
X152374000Y-116426000D01*
G75*
G02*
X152124000Y-116676000I-250000J0D01*
G01*
X151449000Y-116676000D01*
G75*
G02*
X151199000Y-116426000I0J250000D01*
G01*
X151199000Y-115476000D01*
G75*
G02*
X151449000Y-115226000I250000J0D01*
G01*
X152124000Y-115226000D01*
G75*
G02*
X152374000Y-115476000I0J-250000D01*
G01*
G37*
G36*
G01*
X154159000Y-119310999D02*
X154159000Y-120211001D01*
G75*
G02*
X153909001Y-120461000I-249999J0D01*
G01*
X153208999Y-120461000D01*
G75*
G02*
X152959000Y-120211001I0J249999D01*
G01*
X152959000Y-119310999D01*
G75*
G02*
X153208999Y-119061000I249999J0D01*
G01*
X153909001Y-119061000D01*
G75*
G02*
X154159000Y-119310999I0J-249999D01*
G01*
G37*
G36*
G01*
X156159000Y-119310999D02*
X156159000Y-120211001D01*
G75*
G02*
X155909001Y-120461000I-249999J0D01*
G01*
X155208999Y-120461000D01*
G75*
G02*
X154959000Y-120211001I0J249999D01*
G01*
X154959000Y-119310999D01*
G75*
G02*
X155208999Y-119061000I249999J0D01*
G01*
X155909001Y-119061000D01*
G75*
G02*
X156159000Y-119310999I0J-249999D01*
G01*
G37*
G36*
G01*
X154159000Y-117405999D02*
X154159000Y-118306001D01*
G75*
G02*
X153909001Y-118556000I-249999J0D01*
G01*
X153208999Y-118556000D01*
G75*
G02*
X152959000Y-118306001I0J249999D01*
G01*
X152959000Y-117405999D01*
G75*
G02*
X153208999Y-117156000I249999J0D01*
G01*
X153909001Y-117156000D01*
G75*
G02*
X154159000Y-117405999I0J-249999D01*
G01*
G37*
G36*
G01*
X156159000Y-117405999D02*
X156159000Y-118306001D01*
G75*
G02*
X155909001Y-118556000I-249999J0D01*
G01*
X155208999Y-118556000D01*
G75*
G02*
X154959000Y-118306001I0J249999D01*
G01*
X154959000Y-117405999D01*
G75*
G02*
X155208999Y-117156000I249999J0D01*
G01*
X155909001Y-117156000D01*
G75*
G02*
X156159000Y-117405999I0J-249999D01*
G01*
G37*
G36*
G01*
X154159000Y-115500999D02*
X154159000Y-116401001D01*
G75*
G02*
X153909001Y-116651000I-249999J0D01*
G01*
X153208999Y-116651000D01*
G75*
G02*
X152959000Y-116401001I0J249999D01*
G01*
X152959000Y-115500999D01*
G75*
G02*
X153208999Y-115251000I249999J0D01*
G01*
X153909001Y-115251000D01*
G75*
G02*
X154159000Y-115500999I0J-249999D01*
G01*
G37*
G36*
G01*
X156159000Y-115500999D02*
X156159000Y-116401001D01*
G75*
G02*
X155909001Y-116651000I-249999J0D01*
G01*
X155208999Y-116651000D01*
G75*
G02*
X154959000Y-116401001I0J249999D01*
G01*
X154959000Y-115500999D01*
G75*
G02*
X155208999Y-115251000I249999J0D01*
G01*
X155909001Y-115251000D01*
G75*
G02*
X156159000Y-115500999I0J-249999D01*
G01*
G37*
G36*
G01*
X154159000Y-121215999D02*
X154159000Y-122116001D01*
G75*
G02*
X153909001Y-122366000I-249999J0D01*
G01*
X153208999Y-122366000D01*
G75*
G02*
X152959000Y-122116001I0J249999D01*
G01*
X152959000Y-121215999D01*
G75*
G02*
X153208999Y-120966000I249999J0D01*
G01*
X153909001Y-120966000D01*
G75*
G02*
X154159000Y-121215999I0J-249999D01*
G01*
G37*
G36*
G01*
X156159000Y-121215999D02*
X156159000Y-122116001D01*
G75*
G02*
X155909001Y-122366000I-249999J0D01*
G01*
X155208999Y-122366000D01*
G75*
G02*
X154959000Y-122116001I0J249999D01*
G01*
X154959000Y-121215999D01*
G75*
G02*
X155208999Y-120966000I249999J0D01*
G01*
X155909001Y-120966000D01*
G75*
G02*
X156159000Y-121215999I0J-249999D01*
G01*
G37*
G36*
G01*
X155937000Y-125025999D02*
X155937000Y-125926001D01*
G75*
G02*
X155687001Y-126176000I-249999J0D01*
G01*
X154986999Y-126176000D01*
G75*
G02*
X154737000Y-125926001I0J249999D01*
G01*
X154737000Y-125025999D01*
G75*
G02*
X154986999Y-124776000I249999J0D01*
G01*
X155687001Y-124776000D01*
G75*
G02*
X155937000Y-125025999I0J-249999D01*
G01*
G37*
G36*
G01*
X157937000Y-125025999D02*
X157937000Y-125926001D01*
G75*
G02*
X157687001Y-126176000I-249999J0D01*
G01*
X156986999Y-126176000D01*
G75*
G02*
X156737000Y-125926001I0J249999D01*
G01*
X156737000Y-125025999D01*
G75*
G02*
X156986999Y-124776000I249999J0D01*
G01*
X157687001Y-124776000D01*
G75*
G02*
X157937000Y-125025999I0J-249999D01*
G01*
G37*
G36*
G01*
X112986000Y-137647000D02*
X112986000Y-138197000D01*
G75*
G02*
X112786000Y-138397000I-200000J0D01*
G01*
X112386000Y-138397000D01*
G75*
G02*
X112186000Y-138197000I0J200000D01*
G01*
X112186000Y-137647000D01*
G75*
G02*
X112386000Y-137447000I200000J0D01*
G01*
X112786000Y-137447000D01*
G75*
G02*
X112986000Y-137647000I0J-200000D01*
G01*
G37*
G36*
G01*
X114636000Y-137647000D02*
X114636000Y-138197000D01*
G75*
G02*
X114436000Y-138397000I-200000J0D01*
G01*
X114036000Y-138397000D01*
G75*
G02*
X113836000Y-138197000I0J200000D01*
G01*
X113836000Y-137647000D01*
G75*
G02*
X114036000Y-137447000I200000J0D01*
G01*
X114436000Y-137447000D01*
G75*
G02*
X114636000Y-137647000I0J-200000D01*
G01*
G37*
G36*
G01*
X115930000Y-141268000D02*
X116480000Y-141268000D01*
G75*
G02*
X116680000Y-141468000I0J-200000D01*
G01*
X116680000Y-141868000D01*
G75*
G02*
X116480000Y-142068000I-200000J0D01*
G01*
X115930000Y-142068000D01*
G75*
G02*
X115730000Y-141868000I0J200000D01*
G01*
X115730000Y-141468000D01*
G75*
G02*
X115930000Y-141268000I200000J0D01*
G01*
G37*
G36*
G01*
X115930000Y-139618000D02*
X116480000Y-139618000D01*
G75*
G02*
X116680000Y-139818000I0J-200000D01*
G01*
X116680000Y-140218000D01*
G75*
G02*
X116480000Y-140418000I-200000J0D01*
G01*
X115930000Y-140418000D01*
G75*
G02*
X115730000Y-140218000I0J200000D01*
G01*
X115730000Y-139818000D01*
G75*
G02*
X115930000Y-139618000I200000J0D01*
G01*
G37*
D30*
X118171500Y-120655000D03*
D31*
X120711500Y-119385000D03*
X118171500Y-118115000D03*
X120711500Y-116845000D03*
X118171500Y-115575000D03*
X120711500Y-114305000D03*
X118171500Y-113035000D03*
X120711500Y-111765000D03*
D32*
X106921500Y-122830000D03*
X106921500Y-120290000D03*
X106921500Y-109580000D03*
X106921500Y-112120000D03*
D33*
X114871500Y-123950000D03*
X114871500Y-108460000D03*
D34*
X111821500Y-110490000D03*
X111821500Y-121920000D03*
G36*
G01*
X124021000Y-118140500D02*
X124021000Y-117190500D01*
G75*
G02*
X124271000Y-116940500I250000J0D01*
G01*
X124946000Y-116940500D01*
G75*
G02*
X125196000Y-117190500I0J-250000D01*
G01*
X125196000Y-118140500D01*
G75*
G02*
X124946000Y-118390500I-250000J0D01*
G01*
X124271000Y-118390500D01*
G75*
G02*
X124021000Y-118140500I0J250000D01*
G01*
G37*
G36*
G01*
X121946000Y-118140500D02*
X121946000Y-117190500D01*
G75*
G02*
X122196000Y-116940500I250000J0D01*
G01*
X122871000Y-116940500D01*
G75*
G02*
X123121000Y-117190500I0J-250000D01*
G01*
X123121000Y-118140500D01*
G75*
G02*
X122871000Y-118390500I-250000J0D01*
G01*
X122196000Y-118390500D01*
G75*
G02*
X121946000Y-118140500I0J250000D01*
G01*
G37*
G36*
G01*
X108452499Y-124338500D02*
X109352501Y-124338500D01*
G75*
G02*
X109602500Y-124588499I0J-249999D01*
G01*
X109602500Y-125238501D01*
G75*
G02*
X109352501Y-125488500I-249999J0D01*
G01*
X108452499Y-125488500D01*
G75*
G02*
X108202500Y-125238501I0J249999D01*
G01*
X108202500Y-124588499D01*
G75*
G02*
X108452499Y-124338500I249999J0D01*
G01*
G37*
G36*
G01*
X108452499Y-122288500D02*
X109352501Y-122288500D01*
G75*
G02*
X109602500Y-122538499I0J-249999D01*
G01*
X109602500Y-123188501D01*
G75*
G02*
X109352501Y-123438500I-249999J0D01*
G01*
X108452499Y-123438500D01*
G75*
G02*
X108202500Y-123188501I0J249999D01*
G01*
X108202500Y-122538499D01*
G75*
G02*
X108452499Y-122288500I249999J0D01*
G01*
G37*
D28*
G36*
X158828500Y-117487602D02*
G01*
X158853034Y-117487602D01*
X158901865Y-117492412D01*
X158949990Y-117501984D01*
X158996945Y-117516228D01*
X159042278Y-117535005D01*
X159085551Y-117558136D01*
X159126350Y-117585396D01*
X159164279Y-117616524D01*
X159198976Y-117651221D01*
X159230104Y-117689150D01*
X159257364Y-117729949D01*
X159280495Y-117773222D01*
X159299272Y-117818555D01*
X159313516Y-117865510D01*
X159323088Y-117913635D01*
X159327898Y-117962466D01*
X159327898Y-117987000D01*
X159328500Y-117987000D01*
X159328500Y-118487000D01*
X159327898Y-118487000D01*
X159327898Y-118511534D01*
X159323088Y-118560365D01*
X159313516Y-118608490D01*
X159299272Y-118655445D01*
X159280495Y-118700778D01*
X159257364Y-118744051D01*
X159230104Y-118784850D01*
X159198976Y-118822779D01*
X159164279Y-118857476D01*
X159126350Y-118888604D01*
X159085551Y-118915864D01*
X159042278Y-118938995D01*
X158996945Y-118957772D01*
X158949990Y-118972016D01*
X158901865Y-118981588D01*
X158853034Y-118986398D01*
X158828500Y-118986398D01*
X158828500Y-118987000D01*
X158328500Y-118987000D01*
X158328500Y-117487000D01*
X158828500Y-117487000D01*
X158828500Y-117487602D01*
G37*
G36*
X158028500Y-118987000D02*
G01*
X157528500Y-118987000D01*
X157528500Y-118986398D01*
X157503966Y-118986398D01*
X157455135Y-118981588D01*
X157407010Y-118972016D01*
X157360055Y-118957772D01*
X157314722Y-118938995D01*
X157271449Y-118915864D01*
X157230650Y-118888604D01*
X157192721Y-118857476D01*
X157158024Y-118822779D01*
X157126896Y-118784850D01*
X157099636Y-118744051D01*
X157076505Y-118700778D01*
X157057728Y-118655445D01*
X157043484Y-118608490D01*
X157033912Y-118560365D01*
X157029102Y-118511534D01*
X157029102Y-118487000D01*
X157028500Y-118487000D01*
X157028500Y-117987000D01*
X157029102Y-117987000D01*
X157029102Y-117962466D01*
X157033912Y-117913635D01*
X157043484Y-117865510D01*
X157057728Y-117818555D01*
X157076505Y-117773222D01*
X157099636Y-117729949D01*
X157126896Y-117689150D01*
X157158024Y-117651221D01*
X157192721Y-117616524D01*
X157230650Y-117585396D01*
X157271449Y-117558136D01*
X157314722Y-117535005D01*
X157360055Y-117516228D01*
X157407010Y-117501984D01*
X157455135Y-117492412D01*
X157503966Y-117487602D01*
X157528500Y-117487602D01*
X157528500Y-117487000D01*
X158028500Y-117487000D01*
X158028500Y-118987000D01*
G37*
G36*
X150289500Y-118986398D02*
G01*
X150264966Y-118986398D01*
X150216135Y-118981588D01*
X150168010Y-118972016D01*
X150121055Y-118957772D01*
X150075722Y-118938995D01*
X150032449Y-118915864D01*
X149991650Y-118888604D01*
X149953721Y-118857476D01*
X149919024Y-118822779D01*
X149887896Y-118784850D01*
X149860636Y-118744051D01*
X149837505Y-118700778D01*
X149818728Y-118655445D01*
X149804484Y-118608490D01*
X149794912Y-118560365D01*
X149790102Y-118511534D01*
X149790102Y-118487000D01*
X149789500Y-118487000D01*
X149789500Y-117987000D01*
X149790102Y-117987000D01*
X149790102Y-117962466D01*
X149794912Y-117913635D01*
X149804484Y-117865510D01*
X149818728Y-117818555D01*
X149837505Y-117773222D01*
X149860636Y-117729949D01*
X149887896Y-117689150D01*
X149919024Y-117651221D01*
X149953721Y-117616524D01*
X149991650Y-117585396D01*
X150032449Y-117558136D01*
X150075722Y-117535005D01*
X150121055Y-117516228D01*
X150168010Y-117501984D01*
X150216135Y-117492412D01*
X150264966Y-117487602D01*
X150289500Y-117487602D01*
X150289500Y-117487000D01*
X150789500Y-117487000D01*
X150789500Y-118987000D01*
X150289500Y-118987000D01*
X150289500Y-118986398D01*
G37*
G36*
X151089500Y-117487000D02*
G01*
X151589500Y-117487000D01*
X151589500Y-117487602D01*
X151614034Y-117487602D01*
X151662865Y-117492412D01*
X151710990Y-117501984D01*
X151757945Y-117516228D01*
X151803278Y-117535005D01*
X151846551Y-117558136D01*
X151887350Y-117585396D01*
X151925279Y-117616524D01*
X151959976Y-117651221D01*
X151991104Y-117689150D01*
X152018364Y-117729949D01*
X152041495Y-117773222D01*
X152060272Y-117818555D01*
X152074516Y-117865510D01*
X152084088Y-117913635D01*
X152088898Y-117962466D01*
X152088898Y-117987000D01*
X152089500Y-117987000D01*
X152089500Y-118487000D01*
X152088898Y-118487000D01*
X152088898Y-118511534D01*
X152084088Y-118560365D01*
X152074516Y-118608490D01*
X152060272Y-118655445D01*
X152041495Y-118700778D01*
X152018364Y-118744051D01*
X151991104Y-118784850D01*
X151959976Y-118822779D01*
X151925279Y-118857476D01*
X151887350Y-118888604D01*
X151846551Y-118915864D01*
X151803278Y-118938995D01*
X151757945Y-118957772D01*
X151710990Y-118972016D01*
X151662865Y-118981588D01*
X151614034Y-118986398D01*
X151589500Y-118986398D01*
X151589500Y-118987000D01*
X151089500Y-118987000D01*
X151089500Y-117487000D01*
G37*
D25*
X193040000Y-117476400D03*
X193040000Y-114476400D03*
D35*
X191030000Y-118226400D03*
X191030000Y-115226400D03*
X191030000Y-113726400D03*
D36*
X194140000Y-120126400D03*
X194140000Y-111826400D03*
X191930000Y-111826400D03*
X191930000Y-120126400D03*
D37*
X130480000Y-100838000D03*
X133020000Y-100838000D03*
X130480000Y-98298000D03*
G36*
G01*
X132258000Y-98679000D02*
X132258000Y-97917000D01*
G75*
G02*
X132639000Y-97536000I381000J0D01*
G01*
X133401000Y-97536000D01*
G75*
G02*
X133782000Y-97917000I0J-381000D01*
G01*
X133782000Y-98679000D01*
G75*
G02*
X133401000Y-99060000I-381000J0D01*
G01*
X132639000Y-99060000D01*
G75*
G02*
X132258000Y-98679000I0J381000D01*
G01*
G37*
D38*
X186944000Y-137373000D03*
X186944000Y-133873000D03*
X186944000Y-130373000D03*
G36*
G01*
X185394000Y-125973000D02*
X188494000Y-125973000D01*
G75*
G02*
X188744000Y-126223000I0J-250000D01*
G01*
X188744000Y-127523000D01*
G75*
G02*
X188494000Y-127773000I-250000J0D01*
G01*
X185394000Y-127773000D01*
G75*
G02*
X185144000Y-127523000I0J250000D01*
G01*
X185144000Y-126223000D01*
G75*
G02*
X185394000Y-125973000I250000J0D01*
G01*
G37*
D28*
G36*
X166370000Y-139936786D02*
G01*
X167784214Y-141351000D01*
X166370000Y-142765214D01*
X164955786Y-141351000D01*
X166370000Y-139936786D01*
G37*
D39*
X163895126Y-143825874D03*
G36*
G01*
X132162500Y-96589001D02*
X132162500Y-95688999D01*
G75*
G02*
X132412499Y-95439000I249999J0D01*
G01*
X133112501Y-95439000D01*
G75*
G02*
X133362500Y-95688999I0J-249999D01*
G01*
X133362500Y-96589001D01*
G75*
G02*
X133112501Y-96839000I-249999J0D01*
G01*
X132412499Y-96839000D01*
G75*
G02*
X132162500Y-96589001I0J249999D01*
G01*
G37*
G36*
G01*
X130162500Y-96589001D02*
X130162500Y-95688999D01*
G75*
G02*
X130412499Y-95439000I249999J0D01*
G01*
X131112501Y-95439000D01*
G75*
G02*
X131362500Y-95688999I0J-249999D01*
G01*
X131362500Y-96589001D01*
G75*
G02*
X131112501Y-96839000I-249999J0D01*
G01*
X130412499Y-96839000D01*
G75*
G02*
X130162500Y-96589001I0J249999D01*
G01*
G37*
G36*
G01*
X134845500Y-115067501D02*
X134845500Y-114167499D01*
G75*
G02*
X135095499Y-113917500I249999J0D01*
G01*
X135795501Y-113917500D01*
G75*
G02*
X136045500Y-114167499I0J-249999D01*
G01*
X136045500Y-115067501D01*
G75*
G02*
X135795501Y-115317500I-249999J0D01*
G01*
X135095499Y-115317500D01*
G75*
G02*
X134845500Y-115067501I0J249999D01*
G01*
G37*
G36*
G01*
X132845500Y-115067501D02*
X132845500Y-114167499D01*
G75*
G02*
X133095499Y-113917500I249999J0D01*
G01*
X133795501Y-113917500D01*
G75*
G02*
X134045500Y-114167499I0J-249999D01*
G01*
X134045500Y-115067501D01*
G75*
G02*
X133795501Y-115317500I-249999J0D01*
G01*
X133095499Y-115317500D01*
G75*
G02*
X132845500Y-115067501I0J249999D01*
G01*
G37*
D40*
X167870000Y-115252500D03*
X164870000Y-116202500D03*
X164870000Y-114302500D03*
D28*
G36*
X168632214Y-123063000D02*
G01*
X167218000Y-124477214D01*
X165803786Y-123063000D01*
X167218000Y-121648786D01*
X168632214Y-123063000D01*
G37*
D39*
X164743126Y-120588126D03*
D38*
X186944000Y-120863000D03*
X186944000Y-117363000D03*
X186944000Y-113863000D03*
G36*
G01*
X185394000Y-109463000D02*
X188494000Y-109463000D01*
G75*
G02*
X188744000Y-109713000I0J-250000D01*
G01*
X188744000Y-111013000D01*
G75*
G02*
X188494000Y-111263000I-250000J0D01*
G01*
X185394000Y-111263000D01*
G75*
G02*
X185144000Y-111013000I0J250000D01*
G01*
X185144000Y-109713000D01*
G75*
G02*
X185394000Y-109463000I250000J0D01*
G01*
G37*
G36*
G01*
X110280500Y-115818499D02*
X110280500Y-116718501D01*
G75*
G02*
X110030501Y-116968500I-249999J0D01*
G01*
X109330499Y-116968500D01*
G75*
G02*
X109080500Y-116718501I0J249999D01*
G01*
X109080500Y-115818499D01*
G75*
G02*
X109330499Y-115568500I249999J0D01*
G01*
X110030501Y-115568500D01*
G75*
G02*
X110280500Y-115818499I0J-249999D01*
G01*
G37*
G36*
G01*
X112280500Y-115818499D02*
X112280500Y-116718501D01*
G75*
G02*
X112030501Y-116968500I-249999J0D01*
G01*
X111330499Y-116968500D01*
G75*
G02*
X111080500Y-116718501I0J249999D01*
G01*
X111080500Y-115818499D01*
G75*
G02*
X111330499Y-115568500I249999J0D01*
G01*
X112030501Y-115568500D01*
G75*
G02*
X112280500Y-115818499I0J-249999D01*
G01*
G37*
G36*
G01*
X111080500Y-114750001D02*
X111080500Y-113849999D01*
G75*
G02*
X111330499Y-113600000I249999J0D01*
G01*
X112030501Y-113600000D01*
G75*
G02*
X112280500Y-113849999I0J-249999D01*
G01*
X112280500Y-114750001D01*
G75*
G02*
X112030501Y-115000000I-249999J0D01*
G01*
X111330499Y-115000000D01*
G75*
G02*
X111080500Y-114750001I0J249999D01*
G01*
G37*
G36*
G01*
X109080500Y-114750001D02*
X109080500Y-113849999D01*
G75*
G02*
X109330499Y-113600000I249999J0D01*
G01*
X110030501Y-113600000D01*
G75*
G02*
X110280500Y-113849999I0J-249999D01*
G01*
X110280500Y-114750001D01*
G75*
G02*
X110030501Y-115000000I-249999J0D01*
G01*
X109330499Y-115000000D01*
G75*
G02*
X109080500Y-114750001I0J249999D01*
G01*
G37*
G36*
G01*
X187314000Y-121993499D02*
X187314000Y-123243501D01*
G75*
G02*
X187064001Y-123493500I-249999J0D01*
G01*
X186263999Y-123493500D01*
G75*
G02*
X186014000Y-123243501I0J249999D01*
G01*
X186014000Y-121993499D01*
G75*
G02*
X186263999Y-121743500I249999J0D01*
G01*
X187064001Y-121743500D01*
G75*
G02*
X187314000Y-121993499I0J-249999D01*
G01*
G37*
G36*
G01*
X190414000Y-121993499D02*
X190414000Y-123243501D01*
G75*
G02*
X190164001Y-123493500I-249999J0D01*
G01*
X189363999Y-123493500D01*
G75*
G02*
X189114000Y-123243501I0J249999D01*
G01*
X189114000Y-121993499D01*
G75*
G02*
X189363999Y-121743500I249999J0D01*
G01*
X190164001Y-121743500D01*
G75*
G02*
X190414000Y-121993499I0J-249999D01*
G01*
G37*
G36*
G01*
X126776500Y-113151500D02*
X125826500Y-113151500D01*
G75*
G02*
X125576500Y-112901500I0J250000D01*
G01*
X125576500Y-112226500D01*
G75*
G02*
X125826500Y-111976500I250000J0D01*
G01*
X126776500Y-111976500D01*
G75*
G02*
X127026500Y-112226500I0J-250000D01*
G01*
X127026500Y-112901500D01*
G75*
G02*
X126776500Y-113151500I-250000J0D01*
G01*
G37*
G36*
G01*
X126776500Y-115226500D02*
X125826500Y-115226500D01*
G75*
G02*
X125576500Y-114976500I0J250000D01*
G01*
X125576500Y-114301500D01*
G75*
G02*
X125826500Y-114051500I250000J0D01*
G01*
X126776500Y-114051500D01*
G75*
G02*
X127026500Y-114301500I0J-250000D01*
G01*
X127026500Y-114976500D01*
G75*
G02*
X126776500Y-115226500I-250000J0D01*
G01*
G37*
G36*
G01*
X183780000Y-127523003D02*
X183780000Y-126222997D01*
G75*
G02*
X184029997Y-125973000I249997J0D01*
G01*
X184855003Y-125973000D01*
G75*
G02*
X185105000Y-126222997I0J-249997D01*
G01*
X185105000Y-127523003D01*
G75*
G02*
X184855003Y-127773000I-249997J0D01*
G01*
X184029997Y-127773000D01*
G75*
G02*
X183780000Y-127523003I0J249997D01*
G01*
G37*
G36*
G01*
X180655000Y-127523003D02*
X180655000Y-126222997D01*
G75*
G02*
X180904997Y-125973000I249997J0D01*
G01*
X181730003Y-125973000D01*
G75*
G02*
X181980000Y-126222997I0J-249997D01*
G01*
X181980000Y-127523003D01*
G75*
G02*
X181730003Y-127773000I-249997J0D01*
G01*
X180904997Y-127773000D01*
G75*
G02*
X180655000Y-127523003I0J249997D01*
G01*
G37*
G36*
G01*
X183780000Y-138000503D02*
X183780000Y-136700497D01*
G75*
G02*
X184029997Y-136450500I249997J0D01*
G01*
X184855003Y-136450500D01*
G75*
G02*
X185105000Y-136700497I0J-249997D01*
G01*
X185105000Y-138000503D01*
G75*
G02*
X184855003Y-138250500I-249997J0D01*
G01*
X184029997Y-138250500D01*
G75*
G02*
X183780000Y-138000503I0J249997D01*
G01*
G37*
G36*
G01*
X180655000Y-138000503D02*
X180655000Y-136700497D01*
G75*
G02*
X180904997Y-136450500I249997J0D01*
G01*
X181730003Y-136450500D01*
G75*
G02*
X181980000Y-136700497I0J-249997D01*
G01*
X181980000Y-138000503D01*
G75*
G02*
X181730003Y-138250500I-249997J0D01*
G01*
X180904997Y-138250500D01*
G75*
G02*
X180655000Y-138000503I0J249997D01*
G01*
G37*
G36*
G01*
X183780000Y-131079003D02*
X183780000Y-129778997D01*
G75*
G02*
X184029997Y-129529000I249997J0D01*
G01*
X184855003Y-129529000D01*
G75*
G02*
X185105000Y-129778997I0J-249997D01*
G01*
X185105000Y-131079003D01*
G75*
G02*
X184855003Y-131329000I-249997J0D01*
G01*
X184029997Y-131329000D01*
G75*
G02*
X183780000Y-131079003I0J249997D01*
G01*
G37*
G36*
G01*
X180655000Y-131079003D02*
X180655000Y-129778997D01*
G75*
G02*
X180904997Y-129529000I249997J0D01*
G01*
X181730003Y-129529000D01*
G75*
G02*
X181980000Y-129778997I0J-249997D01*
G01*
X181980000Y-131079003D01*
G75*
G02*
X181730003Y-131329000I-249997J0D01*
G01*
X180904997Y-131329000D01*
G75*
G02*
X180655000Y-131079003I0J249997D01*
G01*
G37*
G36*
G01*
X183780000Y-134508003D02*
X183780000Y-133207997D01*
G75*
G02*
X184029997Y-132958000I249997J0D01*
G01*
X184855003Y-132958000D01*
G75*
G02*
X185105000Y-133207997I0J-249997D01*
G01*
X185105000Y-134508003D01*
G75*
G02*
X184855003Y-134758000I-249997J0D01*
G01*
X184029997Y-134758000D01*
G75*
G02*
X183780000Y-134508003I0J249997D01*
G01*
G37*
G36*
G01*
X180655000Y-134508003D02*
X180655000Y-133207997D01*
G75*
G02*
X180904997Y-132958000I249997J0D01*
G01*
X181730003Y-132958000D01*
G75*
G02*
X181980000Y-133207997I0J-249997D01*
G01*
X181980000Y-134508003D01*
G75*
G02*
X181730003Y-134758000I-249997J0D01*
G01*
X180904997Y-134758000D01*
G75*
G02*
X180655000Y-134508003I0J249997D01*
G01*
G37*
M02*
