M48
; DRILL file {KiCad (5.1.8)-1} date 07/21/21 13:34:57
; FORMAT={-:-/ absolute / metric / decimal}
; #@! TF.CreationDate,2021-07-21T13:34:57+02:00
; #@! TF.GenerationSoftware,Kicad,Pcbnew,(5.1.8)-1
FMAT,2
METRIC
T1C0.300
T2C0.650
T3C0.762
T4C0.800
T5C0.990
T6C1.000
T7C1.200
T8C1.300
T9C2.000
T10C3.000
T11C0.700
T12C0.900
%
G90
G05
T1
X131.286Y-111.252
X134.62Y-105.029
X137.16Y-101.346
X137.389Y-133.604
X139.525Y-121.031
X140.986Y-146.05
X141.3Y-120.498
X145.415Y-130.302
X147.676Y-132.842
X149.225Y-119.5
X149.225Y-120.77
X149.225Y-122.04
X150.622Y-124.841
X151.206Y-112.751
X153.797Y-113.132
X156.845Y-126.924
X157.328Y-137.998
X159.052Y-139.7
X162.29Y-129.35
X165.1Y-116.332
X165.361Y-109.34
X167.225Y-108.07
X169.034Y-125.123
X169.037Y-124.333
X169.164Y-110.236
X169.672Y-116.253
X170.577Y-112.141
X171.577Y-122.707
X174.752Y-113.03
X175.514Y-113.03
X178.085Y-124.429
X178.2Y-110.45
X178.974Y-124.429
X179.863Y-124.429
X183.413Y-125.781
X188.198Y-124.968
X191.389Y-122.174
X191.389Y-123.317
X193.294Y-108.966
T2
X144.653Y-108.966
X144.653Y-110.236
X144.653Y-111.506
X145.923Y-108.966
X145.923Y-110.236
X145.923Y-111.506
T3
X130.33Y-101.346
X130.33Y-103.886
X132.87Y-101.346
X132.87Y-103.886
T4
X142.55Y-125.603
X146.05Y-125.603
X138.303Y-107.498
X138.303Y-110.998
X150.424Y-138.557
X153.924Y-138.557
X143.002Y-134.239
X146.502Y-134.239
X150.495Y-130.048
X153.995Y-130.048
T5
X136.7Y-99.5
X141.2Y-99.5
T6
X108.966Y-153.289
X111.506Y-153.289
X188.341Y-152.781
X190.881Y-152.781
X181.61Y-113.03
X181.61Y-115.57
X181.61Y-118.11
X181.61Y-120.65
X181.61Y-123.19
X184.15Y-113.03
X184.15Y-115.57
X184.15Y-118.11
X184.15Y-120.65
X184.15Y-123.19
X108.966Y-109.474
X111.506Y-109.474
X188.468Y-130.937
X191.008Y-130.937
X108.966Y-129.794
X111.506Y-129.794
T7
X187.198Y-110.363
X187.198Y-113.863
X187.198Y-117.363
X187.198Y-120.863
X113.03Y-135.255
X113.03Y-138.755
X186.944Y-137.414
X186.944Y-140.914
X186.944Y-144.414
X186.944Y-147.914
X113.03Y-144.78
X113.03Y-148.28
X113.03Y-114.341
X113.03Y-117.841
X113.03Y-121.341
X113.03Y-124.841
T8
X135.44Y-101.99
X142.45Y-101.99
T9
X134.302Y-131.699
X165.29Y-131.255
X136.525Y-119.126
X137.986Y-144.145
X162.052Y-141.605
T10
X159.225Y-114.3
T11
X179.15Y-108.75
X180.85Y-108.75
T12
X193.04Y-113.919
X193.04Y-116.919
T0
M30
