G04 #@! TF.GenerationSoftware,KiCad,Pcbnew,(5.1.8)-1*
G04 #@! TF.CreationDate,2021-07-21T13:34:53+02:00*
G04 #@! TF.ProjectId,sensactHsLed,73656e73-6163-4744-9873-4c65642e6b69,rev?*
G04 #@! TF.SameCoordinates,Original*
G04 #@! TF.FileFunction,Soldermask,Top*
G04 #@! TF.FilePolarity,Negative*
%FSLAX46Y46*%
G04 Gerber Fmt 4.6, Leading zero omitted, Abs format (unit mm)*
G04 Created by KiCad (PCBNEW (5.1.8)-1) date 2021-07-21 13:34:53*
%MOMM*%
%LPD*%
G01*
G04 APERTURE LIST*
%ADD10C,0.100000*%
%ADD11O,3.600000X1.800000*%
%ADD12C,1.600000*%
%ADD13O,1.700000X1.700000*%
%ADD14R,1.700000X1.700000*%
%ADD15C,1.700000*%
%ADD16R,1.600000X1.200000*%
%ADD17R,0.800000X2.000000*%
%ADD18R,2.000000X0.700000*%
%ADD19C,0.900000*%
%ADD20C,1.524000*%
%ADD21R,5.000000X5.000000*%
%ADD22O,1.000000X1.000000*%
%ADD23R,1.000000X1.000000*%
%ADD24C,0.700000*%
%ADD25R,1.400000X1.200000*%
%ADD26R,1.400000X1.600000*%
%ADD27C,2.100000*%
%ADD28C,1.750000*%
%ADD29R,0.800000X1.900000*%
%ADD30R,0.600000X2.200000*%
G04 APERTURE END LIST*
D10*
G36*
X160752000Y-143255000D02*
G01*
X160752000Y-139955000D01*
X163352000Y-139955000D01*
X163352000Y-143255000D01*
X160752000Y-143255000D01*
G37*
G36*
X163990500Y-132904500D02*
G01*
X163990500Y-129604500D01*
X166590500Y-129604500D01*
X166590500Y-132904500D01*
X163990500Y-132904500D01*
G37*
G36*
X139285500Y-142495000D02*
G01*
X139285500Y-145795000D01*
X136685500Y-145795000D01*
X136685500Y-142495000D01*
X139285500Y-142495000D01*
G37*
G36*
X135602500Y-130049000D02*
G01*
X135602500Y-133349000D01*
X133002500Y-133349000D01*
X133002500Y-130049000D01*
X135602500Y-130049000D01*
G37*
G36*
X137825000Y-117476000D02*
G01*
X137825000Y-120776000D01*
X135225000Y-120776000D01*
X135225000Y-117476000D01*
X137825000Y-117476000D01*
G37*
D11*
X187198000Y-120863000D03*
X187198000Y-117363000D03*
X187198000Y-113863000D03*
G36*
G01*
X185648000Y-109463000D02*
X188748000Y-109463000D01*
G75*
G02*
X188998000Y-109713000I0J-250000D01*
G01*
X188998000Y-111013000D01*
G75*
G02*
X188748000Y-111263000I-250000J0D01*
G01*
X185648000Y-111263000D01*
G75*
G02*
X185398000Y-111013000I0J250000D01*
G01*
X185398000Y-109713000D01*
G75*
G02*
X185648000Y-109463000I250000J0D01*
G01*
G37*
D12*
X146050000Y-125603000D03*
X142550000Y-125603000D03*
X138303000Y-107498000D03*
X138303000Y-110998000D03*
D13*
X191008000Y-130937000D03*
D14*
X188468000Y-130937000D03*
D11*
X113030000Y-135255000D03*
G36*
G01*
X114580000Y-139655000D02*
X111480000Y-139655000D01*
G75*
G02*
X111230000Y-139405000I0J250000D01*
G01*
X111230000Y-138105000D01*
G75*
G02*
X111480000Y-137855000I250000J0D01*
G01*
X114580000Y-137855000D01*
G75*
G02*
X114830000Y-138105000I0J-250000D01*
G01*
X114830000Y-139405000D01*
G75*
G02*
X114580000Y-139655000I-250000J0D01*
G01*
G37*
X113030000Y-144780000D03*
G36*
G01*
X114580000Y-149180000D02*
X111480000Y-149180000D01*
G75*
G02*
X111230000Y-148930000I0J250000D01*
G01*
X111230000Y-147630000D01*
G75*
G02*
X111480000Y-147380000I250000J0D01*
G01*
X114580000Y-147380000D01*
G75*
G02*
X114830000Y-147630000I0J-250000D01*
G01*
X114830000Y-148930000D01*
G75*
G02*
X114580000Y-149180000I-250000J0D01*
G01*
G37*
D15*
X184150000Y-113030000D03*
X184150000Y-115570000D03*
X184150000Y-118110000D03*
X184150000Y-120650000D03*
X184150000Y-123190000D03*
X181610000Y-113030000D03*
X181610000Y-115570000D03*
X181610000Y-118110000D03*
X181610000Y-120650000D03*
G36*
G01*
X180760000Y-123790000D02*
X180760000Y-122590000D01*
G75*
G02*
X181010000Y-122340000I250000J0D01*
G01*
X182210000Y-122340000D01*
G75*
G02*
X182460000Y-122590000I0J-250000D01*
G01*
X182460000Y-123790000D01*
G75*
G02*
X182210000Y-124040000I-250000J0D01*
G01*
X181010000Y-124040000D01*
G75*
G02*
X180760000Y-123790000I0J250000D01*
G01*
G37*
D16*
X179165000Y-112649000D03*
X175165000Y-112649000D03*
G36*
G01*
X171977000Y-112591001D02*
X171977000Y-111690999D01*
G75*
G02*
X172226999Y-111441000I249999J0D01*
G01*
X172927001Y-111441000D01*
G75*
G02*
X173177000Y-111690999I0J-249999D01*
G01*
X173177000Y-112591001D01*
G75*
G02*
X172927001Y-112841000I-249999J0D01*
G01*
X172226999Y-112841000D01*
G75*
G02*
X171977000Y-112591001I0J249999D01*
G01*
G37*
G36*
G01*
X169977000Y-112591001D02*
X169977000Y-111690999D01*
G75*
G02*
X170226999Y-111441000I249999J0D01*
G01*
X170927001Y-111441000D01*
G75*
G02*
X171177000Y-111690999I0J-249999D01*
G01*
X171177000Y-112591001D01*
G75*
G02*
X170927001Y-112841000I-249999J0D01*
G01*
X170226999Y-112841000D01*
G75*
G02*
X169977000Y-112591001I0J249999D01*
G01*
G37*
G36*
G01*
X168167000Y-112337001D02*
X168167000Y-111436999D01*
G75*
G02*
X168416999Y-111187000I249999J0D01*
G01*
X169117001Y-111187000D01*
G75*
G02*
X169367000Y-111436999I0J-249999D01*
G01*
X169367000Y-112337001D01*
G75*
G02*
X169117001Y-112587000I-249999J0D01*
G01*
X168416999Y-112587000D01*
G75*
G02*
X168167000Y-112337001I0J249999D01*
G01*
G37*
G36*
G01*
X166167000Y-112337001D02*
X166167000Y-111436999D01*
G75*
G02*
X166416999Y-111187000I249999J0D01*
G01*
X167117001Y-111187000D01*
G75*
G02*
X167367000Y-111436999I0J-249999D01*
G01*
X167367000Y-112337001D01*
G75*
G02*
X167117001Y-112587000I-249999J0D01*
G01*
X166416999Y-112587000D01*
G75*
G02*
X166167000Y-112337001I0J249999D01*
G01*
G37*
G36*
G01*
X179916001Y-122124500D02*
X177715999Y-122124500D01*
G75*
G02*
X177466000Y-121874501I0J249999D01*
G01*
X177466000Y-121049499D01*
G75*
G02*
X177715999Y-120799500I249999J0D01*
G01*
X179916001Y-120799500D01*
G75*
G02*
X180166000Y-121049499I0J-249999D01*
G01*
X180166000Y-121874501D01*
G75*
G02*
X179916001Y-122124500I-249999J0D01*
G01*
G37*
G36*
G01*
X179916001Y-125249500D02*
X177715999Y-125249500D01*
G75*
G02*
X177466000Y-124999501I0J249999D01*
G01*
X177466000Y-124174499D01*
G75*
G02*
X177715999Y-123924500I249999J0D01*
G01*
X179916001Y-123924500D01*
G75*
G02*
X180166000Y-124174499I0J-249999D01*
G01*
X180166000Y-124999501D01*
G75*
G02*
X179916001Y-125249500I-249999J0D01*
G01*
G37*
G36*
G01*
X191908000Y-150739000D02*
X191908000Y-149489000D01*
G75*
G02*
X192158000Y-149239000I250000J0D01*
G01*
X192958000Y-149239000D01*
G75*
G02*
X193208000Y-149489000I0J-250000D01*
G01*
X193208000Y-150739000D01*
G75*
G02*
X192958000Y-150989000I-250000J0D01*
G01*
X192158000Y-150989000D01*
G75*
G02*
X191908000Y-150739000I0J250000D01*
G01*
G37*
G36*
G01*
X188808000Y-150739000D02*
X188808000Y-149489000D01*
G75*
G02*
X189058000Y-149239000I250000J0D01*
G01*
X189858000Y-149239000D01*
G75*
G02*
X190108000Y-149489000I0J-250000D01*
G01*
X190108000Y-150739000D01*
G75*
G02*
X189858000Y-150989000I-250000J0D01*
G01*
X189058000Y-150989000D01*
G75*
G02*
X188808000Y-150739000I0J250000D01*
G01*
G37*
G36*
G01*
X191908000Y-148453000D02*
X191908000Y-147203000D01*
G75*
G02*
X192158000Y-146953000I250000J0D01*
G01*
X192958000Y-146953000D01*
G75*
G02*
X193208000Y-147203000I0J-250000D01*
G01*
X193208000Y-148453000D01*
G75*
G02*
X192958000Y-148703000I-250000J0D01*
G01*
X192158000Y-148703000D01*
G75*
G02*
X191908000Y-148453000I0J250000D01*
G01*
G37*
G36*
G01*
X188808000Y-148453000D02*
X188808000Y-147203000D01*
G75*
G02*
X189058000Y-146953000I250000J0D01*
G01*
X189858000Y-146953000D01*
G75*
G02*
X190108000Y-147203000I0J-250000D01*
G01*
X190108000Y-148453000D01*
G75*
G02*
X189858000Y-148703000I-250000J0D01*
G01*
X189058000Y-148703000D01*
G75*
G02*
X188808000Y-148453000I0J250000D01*
G01*
G37*
G36*
G01*
X191908000Y-135753000D02*
X191908000Y-134503000D01*
G75*
G02*
X192158000Y-134253000I250000J0D01*
G01*
X192958000Y-134253000D01*
G75*
G02*
X193208000Y-134503000I0J-250000D01*
G01*
X193208000Y-135753000D01*
G75*
G02*
X192958000Y-136003000I-250000J0D01*
G01*
X192158000Y-136003000D01*
G75*
G02*
X191908000Y-135753000I0J250000D01*
G01*
G37*
G36*
G01*
X188808000Y-135753000D02*
X188808000Y-134503000D01*
G75*
G02*
X189058000Y-134253000I250000J0D01*
G01*
X189858000Y-134253000D01*
G75*
G02*
X190108000Y-134503000I0J-250000D01*
G01*
X190108000Y-135753000D01*
G75*
G02*
X189858000Y-136003000I-250000J0D01*
G01*
X189058000Y-136003000D01*
G75*
G02*
X188808000Y-135753000I0J250000D01*
G01*
G37*
G36*
G01*
X191908000Y-138166000D02*
X191908000Y-136916000D01*
G75*
G02*
X192158000Y-136666000I250000J0D01*
G01*
X192958000Y-136666000D01*
G75*
G02*
X193208000Y-136916000I0J-250000D01*
G01*
X193208000Y-138166000D01*
G75*
G02*
X192958000Y-138416000I-250000J0D01*
G01*
X192158000Y-138416000D01*
G75*
G02*
X191908000Y-138166000I0J250000D01*
G01*
G37*
G36*
G01*
X188808000Y-138166000D02*
X188808000Y-136916000D01*
G75*
G02*
X189058000Y-136666000I250000J0D01*
G01*
X189858000Y-136666000D01*
G75*
G02*
X190108000Y-136916000I0J-250000D01*
G01*
X190108000Y-138166000D01*
G75*
G02*
X189858000Y-138416000I-250000J0D01*
G01*
X189058000Y-138416000D01*
G75*
G02*
X188808000Y-138166000I0J250000D01*
G01*
G37*
G36*
G01*
X107812000Y-150124000D02*
X107812000Y-151374000D01*
G75*
G02*
X107562000Y-151624000I-250000J0D01*
G01*
X106762000Y-151624000D01*
G75*
G02*
X106512000Y-151374000I0J250000D01*
G01*
X106512000Y-150124000D01*
G75*
G02*
X106762000Y-149874000I250000J0D01*
G01*
X107562000Y-149874000D01*
G75*
G02*
X107812000Y-150124000I0J-250000D01*
G01*
G37*
G36*
G01*
X110912000Y-150124000D02*
X110912000Y-151374000D01*
G75*
G02*
X110662000Y-151624000I-250000J0D01*
G01*
X109862000Y-151624000D01*
G75*
G02*
X109612000Y-151374000I0J250000D01*
G01*
X109612000Y-150124000D01*
G75*
G02*
X109862000Y-149874000I250000J0D01*
G01*
X110662000Y-149874000D01*
G75*
G02*
X110912000Y-150124000I0J-250000D01*
G01*
G37*
G36*
G01*
X107812000Y-147838000D02*
X107812000Y-149088000D01*
G75*
G02*
X107562000Y-149338000I-250000J0D01*
G01*
X106762000Y-149338000D01*
G75*
G02*
X106512000Y-149088000I0J250000D01*
G01*
X106512000Y-147838000D01*
G75*
G02*
X106762000Y-147588000I250000J0D01*
G01*
X107562000Y-147588000D01*
G75*
G02*
X107812000Y-147838000I0J-250000D01*
G01*
G37*
G36*
G01*
X110912000Y-147838000D02*
X110912000Y-149088000D01*
G75*
G02*
X110662000Y-149338000I-250000J0D01*
G01*
X109862000Y-149338000D01*
G75*
G02*
X109612000Y-149088000I0J250000D01*
G01*
X109612000Y-147838000D01*
G75*
G02*
X109862000Y-147588000I250000J0D01*
G01*
X110662000Y-147588000D01*
G75*
G02*
X110912000Y-147838000I0J-250000D01*
G01*
G37*
G36*
G01*
X108066000Y-126502000D02*
X108066000Y-127752000D01*
G75*
G02*
X107816000Y-128002000I-250000J0D01*
G01*
X107016000Y-128002000D01*
G75*
G02*
X106766000Y-127752000I0J250000D01*
G01*
X106766000Y-126502000D01*
G75*
G02*
X107016000Y-126252000I250000J0D01*
G01*
X107816000Y-126252000D01*
G75*
G02*
X108066000Y-126502000I0J-250000D01*
G01*
G37*
G36*
G01*
X111166000Y-126502000D02*
X111166000Y-127752000D01*
G75*
G02*
X110916000Y-128002000I-250000J0D01*
G01*
X110116000Y-128002000D01*
G75*
G02*
X109866000Y-127752000I0J250000D01*
G01*
X109866000Y-126502000D01*
G75*
G02*
X110116000Y-126252000I250000J0D01*
G01*
X110916000Y-126252000D01*
G75*
G02*
X111166000Y-126502000I0J-250000D01*
G01*
G37*
G36*
G01*
X108066000Y-124216000D02*
X108066000Y-125466000D01*
G75*
G02*
X107816000Y-125716000I-250000J0D01*
G01*
X107016000Y-125716000D01*
G75*
G02*
X106766000Y-125466000I0J250000D01*
G01*
X106766000Y-124216000D01*
G75*
G02*
X107016000Y-123966000I250000J0D01*
G01*
X107816000Y-123966000D01*
G75*
G02*
X108066000Y-124216000I0J-250000D01*
G01*
G37*
G36*
G01*
X111166000Y-124216000D02*
X111166000Y-125466000D01*
G75*
G02*
X110916000Y-125716000I-250000J0D01*
G01*
X110116000Y-125716000D01*
G75*
G02*
X109866000Y-125466000I0J250000D01*
G01*
X109866000Y-124216000D01*
G75*
G02*
X110116000Y-123966000I250000J0D01*
G01*
X110916000Y-123966000D01*
G75*
G02*
X111166000Y-124216000I0J-250000D01*
G01*
G37*
G36*
G01*
X108066000Y-111389000D02*
X108066000Y-112639000D01*
G75*
G02*
X107816000Y-112889000I-250000J0D01*
G01*
X107016000Y-112889000D01*
G75*
G02*
X106766000Y-112639000I0J250000D01*
G01*
X106766000Y-111389000D01*
G75*
G02*
X107016000Y-111139000I250000J0D01*
G01*
X107816000Y-111139000D01*
G75*
G02*
X108066000Y-111389000I0J-250000D01*
G01*
G37*
G36*
G01*
X111166000Y-111389000D02*
X111166000Y-112639000D01*
G75*
G02*
X110916000Y-112889000I-250000J0D01*
G01*
X110116000Y-112889000D01*
G75*
G02*
X109866000Y-112639000I0J250000D01*
G01*
X109866000Y-111389000D01*
G75*
G02*
X110116000Y-111139000I250000J0D01*
G01*
X110916000Y-111139000D01*
G75*
G02*
X111166000Y-111389000I0J-250000D01*
G01*
G37*
G36*
G01*
X108066000Y-113802000D02*
X108066000Y-115052000D01*
G75*
G02*
X107816000Y-115302000I-250000J0D01*
G01*
X107016000Y-115302000D01*
G75*
G02*
X106766000Y-115052000I0J250000D01*
G01*
X106766000Y-113802000D01*
G75*
G02*
X107016000Y-113552000I250000J0D01*
G01*
X107816000Y-113552000D01*
G75*
G02*
X108066000Y-113802000I0J-250000D01*
G01*
G37*
G36*
G01*
X111166000Y-113802000D02*
X111166000Y-115052000D01*
G75*
G02*
X110916000Y-115302000I-250000J0D01*
G01*
X110116000Y-115302000D01*
G75*
G02*
X109866000Y-115052000I0J250000D01*
G01*
X109866000Y-113802000D01*
G75*
G02*
X110116000Y-113552000I250000J0D01*
G01*
X110916000Y-113552000D01*
G75*
G02*
X111166000Y-113802000I0J-250000D01*
G01*
G37*
D13*
X190881000Y-152781000D03*
D14*
X188341000Y-152781000D03*
D13*
X108966000Y-153289000D03*
D14*
X111506000Y-153289000D03*
D13*
X108966000Y-129794000D03*
D14*
X111506000Y-129794000D03*
D13*
X108966000Y-109474000D03*
D14*
X111506000Y-109474000D03*
D12*
X150424000Y-138557000D03*
X153924000Y-138557000D03*
X150495000Y-130048000D03*
X153995000Y-130048000D03*
X146502000Y-134239000D03*
X143002000Y-134239000D03*
G36*
G01*
X186798000Y-124517999D02*
X186798000Y-125418001D01*
G75*
G02*
X186548001Y-125668000I-249999J0D01*
G01*
X185847999Y-125668000D01*
G75*
G02*
X185598000Y-125418001I0J249999D01*
G01*
X185598000Y-124517999D01*
G75*
G02*
X185847999Y-124268000I249999J0D01*
G01*
X186548001Y-124268000D01*
G75*
G02*
X186798000Y-124517999I0J-249999D01*
G01*
G37*
G36*
G01*
X188798000Y-124517999D02*
X188798000Y-125418001D01*
G75*
G02*
X188548001Y-125668000I-249999J0D01*
G01*
X187847999Y-125668000D01*
G75*
G02*
X187598000Y-125418001I0J249999D01*
G01*
X187598000Y-124517999D01*
G75*
G02*
X187847999Y-124268000I249999J0D01*
G01*
X188548001Y-124268000D01*
G75*
G02*
X188798000Y-124517999I0J-249999D01*
G01*
G37*
G36*
G01*
X108066000Y-117205999D02*
X108066000Y-118506001D01*
G75*
G02*
X107816001Y-118756000I-249999J0D01*
G01*
X106990999Y-118756000D01*
G75*
G02*
X106741000Y-118506001I0J249999D01*
G01*
X106741000Y-117205999D01*
G75*
G02*
X106990999Y-116956000I249999J0D01*
G01*
X107816001Y-116956000D01*
G75*
G02*
X108066000Y-117205999I0J-249999D01*
G01*
G37*
G36*
G01*
X111191000Y-117205999D02*
X111191000Y-118506001D01*
G75*
G02*
X110941001Y-118756000I-249999J0D01*
G01*
X110115999Y-118756000D01*
G75*
G02*
X109866000Y-118506001I0J249999D01*
G01*
X109866000Y-117205999D01*
G75*
G02*
X110115999Y-116956000I249999J0D01*
G01*
X110941001Y-116956000D01*
G75*
G02*
X111191000Y-117205999I0J-249999D01*
G01*
G37*
G36*
G01*
X108066000Y-120761999D02*
X108066000Y-122062001D01*
G75*
G02*
X107816001Y-122312000I-249999J0D01*
G01*
X106990999Y-122312000D01*
G75*
G02*
X106741000Y-122062001I0J249999D01*
G01*
X106741000Y-120761999D01*
G75*
G02*
X106990999Y-120512000I249999J0D01*
G01*
X107816001Y-120512000D01*
G75*
G02*
X108066000Y-120761999I0J-249999D01*
G01*
G37*
G36*
G01*
X111191000Y-120761999D02*
X111191000Y-122062001D01*
G75*
G02*
X110941001Y-122312000I-249999J0D01*
G01*
X110115999Y-122312000D01*
G75*
G02*
X109866000Y-122062001I0J249999D01*
G01*
X109866000Y-120761999D01*
G75*
G02*
X110115999Y-120512000I249999J0D01*
G01*
X110941001Y-120512000D01*
G75*
G02*
X111191000Y-120761999I0J-249999D01*
G01*
G37*
G36*
G01*
X107812000Y-144256999D02*
X107812000Y-145557001D01*
G75*
G02*
X107562001Y-145807000I-249999J0D01*
G01*
X106736999Y-145807000D01*
G75*
G02*
X106487000Y-145557001I0J249999D01*
G01*
X106487000Y-144256999D01*
G75*
G02*
X106736999Y-144007000I249999J0D01*
G01*
X107562001Y-144007000D01*
G75*
G02*
X107812000Y-144256999I0J-249999D01*
G01*
G37*
G36*
G01*
X110937000Y-144256999D02*
X110937000Y-145557001D01*
G75*
G02*
X110687001Y-145807000I-249999J0D01*
G01*
X109861999Y-145807000D01*
G75*
G02*
X109612000Y-145557001I0J249999D01*
G01*
X109612000Y-144256999D01*
G75*
G02*
X109861999Y-144007000I249999J0D01*
G01*
X110687001Y-144007000D01*
G75*
G02*
X110937000Y-144256999I0J-249999D01*
G01*
G37*
D11*
X113030000Y-114341000D03*
X113030000Y-117841000D03*
X113030000Y-121341000D03*
G36*
G01*
X114580000Y-125741000D02*
X111480000Y-125741000D01*
G75*
G02*
X111230000Y-125491000I0J250000D01*
G01*
X111230000Y-124191000D01*
G75*
G02*
X111480000Y-123941000I250000J0D01*
G01*
X114580000Y-123941000D01*
G75*
G02*
X114830000Y-124191000I0J-250000D01*
G01*
X114830000Y-125491000D01*
G75*
G02*
X114580000Y-125741000I-250000J0D01*
G01*
G37*
G36*
G01*
X191908000Y-141493001D02*
X191908000Y-140192999D01*
G75*
G02*
X192157999Y-139943000I249999J0D01*
G01*
X192983001Y-139943000D01*
G75*
G02*
X193233000Y-140192999I0J-249999D01*
G01*
X193233000Y-141493001D01*
G75*
G02*
X192983001Y-141743000I-249999J0D01*
G01*
X192157999Y-141743000D01*
G75*
G02*
X191908000Y-141493001I0J249999D01*
G01*
G37*
G36*
G01*
X188783000Y-141493001D02*
X188783000Y-140192999D01*
G75*
G02*
X189032999Y-139943000I249999J0D01*
G01*
X189858001Y-139943000D01*
G75*
G02*
X190108000Y-140192999I0J-249999D01*
G01*
X190108000Y-141493001D01*
G75*
G02*
X189858001Y-141743000I-249999J0D01*
G01*
X189032999Y-141743000D01*
G75*
G02*
X188783000Y-141493001I0J249999D01*
G01*
G37*
G36*
G01*
X191908000Y-145049001D02*
X191908000Y-143748999D01*
G75*
G02*
X192157999Y-143499000I249999J0D01*
G01*
X192983001Y-143499000D01*
G75*
G02*
X193233000Y-143748999I0J-249999D01*
G01*
X193233000Y-145049001D01*
G75*
G02*
X192983001Y-145299000I-249999J0D01*
G01*
X192157999Y-145299000D01*
G75*
G02*
X191908000Y-145049001I0J249999D01*
G01*
G37*
G36*
G01*
X188783000Y-145049001D02*
X188783000Y-143748999D01*
G75*
G02*
X189032999Y-143499000I249999J0D01*
G01*
X189858001Y-143499000D01*
G75*
G02*
X190108000Y-143748999I0J-249999D01*
G01*
X190108000Y-145049001D01*
G75*
G02*
X189858001Y-145299000I-249999J0D01*
G01*
X189032999Y-145299000D01*
G75*
G02*
X188783000Y-145049001I0J249999D01*
G01*
G37*
X186944000Y-147914000D03*
X186944000Y-144414000D03*
X186944000Y-140914000D03*
G36*
G01*
X185394000Y-136514000D02*
X188494000Y-136514000D01*
G75*
G02*
X188744000Y-136764000I0J-250000D01*
G01*
X188744000Y-138064000D01*
G75*
G02*
X188494000Y-138314000I-250000J0D01*
G01*
X185394000Y-138314000D01*
G75*
G02*
X185144000Y-138064000I0J250000D01*
G01*
X185144000Y-136764000D01*
G75*
G02*
X185394000Y-136514000I250000J0D01*
G01*
G37*
D17*
X191930000Y-119569000D03*
X191930000Y-111269000D03*
X194140000Y-111269000D03*
X194140000Y-119569000D03*
D18*
X191030000Y-113169000D03*
X191030000Y-114669000D03*
X191030000Y-117669000D03*
D19*
X193040000Y-113919000D03*
X193040000Y-116919000D03*
D20*
X130330000Y-103886000D03*
X132870000Y-103886000D03*
X130330000Y-101346000D03*
G36*
G01*
X132108000Y-101727000D02*
X132108000Y-100965000D01*
G75*
G02*
X132489000Y-100584000I381000J0D01*
G01*
X133251000Y-100584000D01*
G75*
G02*
X133632000Y-100965000I0J-381000D01*
G01*
X133632000Y-101727000D01*
G75*
G02*
X133251000Y-102108000I-381000J0D01*
G01*
X132489000Y-102108000D01*
G75*
G02*
X132108000Y-101727000I0J381000D01*
G01*
G37*
D21*
X159225000Y-114300000D03*
D22*
X144653000Y-111506000D03*
X145923000Y-111506000D03*
X144653000Y-110236000D03*
X145923000Y-110236000D03*
X144653000Y-108966000D03*
D23*
X145923000Y-108966000D03*
D24*
X179150000Y-108750000D03*
X180850000Y-108750000D03*
D25*
X182550000Y-108750000D03*
D26*
X181800000Y-110450000D03*
D25*
X177450000Y-108750000D03*
D26*
X178200000Y-110450000D03*
D27*
X142450000Y-101990000D03*
D28*
X141200000Y-99500000D03*
X136700000Y-99500000D03*
D27*
X135440000Y-101990000D03*
G36*
G01*
X132099000Y-106241001D02*
X132099000Y-105340999D01*
G75*
G02*
X132348999Y-105091000I249999J0D01*
G01*
X133049001Y-105091000D01*
G75*
G02*
X133299000Y-105340999I0J-249999D01*
G01*
X133299000Y-106241001D01*
G75*
G02*
X133049001Y-106491000I-249999J0D01*
G01*
X132348999Y-106491000D01*
G75*
G02*
X132099000Y-106241001I0J249999D01*
G01*
G37*
G36*
G01*
X130099000Y-106241001D02*
X130099000Y-105340999D01*
G75*
G02*
X130348999Y-105091000I249999J0D01*
G01*
X131049001Y-105091000D01*
G75*
G02*
X131299000Y-105340999I0J-249999D01*
G01*
X131299000Y-106241001D01*
G75*
G02*
X131049001Y-106491000I-249999J0D01*
G01*
X130348999Y-106491000D01*
G75*
G02*
X130099000Y-106241001I0J249999D01*
G01*
G37*
G36*
G01*
X132099000Y-108273001D02*
X132099000Y-107372999D01*
G75*
G02*
X132348999Y-107123000I249999J0D01*
G01*
X133049001Y-107123000D01*
G75*
G02*
X133299000Y-107372999I0J-249999D01*
G01*
X133299000Y-108273001D01*
G75*
G02*
X133049001Y-108523000I-249999J0D01*
G01*
X132348999Y-108523000D01*
G75*
G02*
X132099000Y-108273001I0J249999D01*
G01*
G37*
G36*
G01*
X130099000Y-108273001D02*
X130099000Y-107372999D01*
G75*
G02*
X130348999Y-107123000I249999J0D01*
G01*
X131049001Y-107123000D01*
G75*
G02*
X131299000Y-107372999I0J-249999D01*
G01*
X131299000Y-108273001D01*
G75*
G02*
X131049001Y-108523000I-249999J0D01*
G01*
X130348999Y-108523000D01*
G75*
G02*
X130099000Y-108273001I0J249999D01*
G01*
G37*
G36*
G01*
X131845000Y-99764001D02*
X131845000Y-98863999D01*
G75*
G02*
X132094999Y-98614000I249999J0D01*
G01*
X132795001Y-98614000D01*
G75*
G02*
X133045000Y-98863999I0J-249999D01*
G01*
X133045000Y-99764001D01*
G75*
G02*
X132795001Y-100014000I-249999J0D01*
G01*
X132094999Y-100014000D01*
G75*
G02*
X131845000Y-99764001I0J249999D01*
G01*
G37*
G36*
G01*
X129845000Y-99764001D02*
X129845000Y-98863999D01*
G75*
G02*
X130094999Y-98614000I249999J0D01*
G01*
X130795001Y-98614000D01*
G75*
G02*
X131045000Y-98863999I0J-249999D01*
G01*
X131045000Y-99764001D01*
G75*
G02*
X130795001Y-100014000I-249999J0D01*
G01*
X130094999Y-100014000D01*
G75*
G02*
X129845000Y-99764001I0J249999D01*
G01*
G37*
D29*
X191389000Y-122706000D03*
X192339000Y-125706000D03*
X190439000Y-125706000D03*
G36*
G01*
X149282999Y-110652000D02*
X150183001Y-110652000D01*
G75*
G02*
X150433000Y-110901999I0J-249999D01*
G01*
X150433000Y-111602001D01*
G75*
G02*
X150183001Y-111852000I-249999J0D01*
G01*
X149282999Y-111852000D01*
G75*
G02*
X149033000Y-111602001I0J249999D01*
G01*
X149033000Y-110901999D01*
G75*
G02*
X149282999Y-110652000I249999J0D01*
G01*
G37*
G36*
G01*
X149282999Y-108652000D02*
X150183001Y-108652000D01*
G75*
G02*
X150433000Y-108901999I0J-249999D01*
G01*
X150433000Y-109602001D01*
G75*
G02*
X150183001Y-109852000I-249999J0D01*
G01*
X149282999Y-109852000D01*
G75*
G02*
X149033000Y-109602001I0J249999D01*
G01*
X149033000Y-108901999D01*
G75*
G02*
X149282999Y-108652000I249999J0D01*
G01*
G37*
G36*
G01*
X147226000Y-110686000D02*
X148176000Y-110686000D01*
G75*
G02*
X148426000Y-110936000I0J-250000D01*
G01*
X148426000Y-111611000D01*
G75*
G02*
X148176000Y-111861000I-250000J0D01*
G01*
X147226000Y-111861000D01*
G75*
G02*
X146976000Y-111611000I0J250000D01*
G01*
X146976000Y-110936000D01*
G75*
G02*
X147226000Y-110686000I250000J0D01*
G01*
G37*
G36*
G01*
X147226000Y-108611000D02*
X148176000Y-108611000D01*
G75*
G02*
X148426000Y-108861000I0J-250000D01*
G01*
X148426000Y-109536000D01*
G75*
G02*
X148176000Y-109786000I-250000J0D01*
G01*
X147226000Y-109786000D01*
G75*
G02*
X146976000Y-109536000I0J250000D01*
G01*
X146976000Y-108861000D01*
G75*
G02*
X147226000Y-108611000I250000J0D01*
G01*
G37*
G36*
G01*
X142551999Y-110636000D02*
X143452001Y-110636000D01*
G75*
G02*
X143702000Y-110885999I0J-249999D01*
G01*
X143702000Y-111586001D01*
G75*
G02*
X143452001Y-111836000I-249999J0D01*
G01*
X142551999Y-111836000D01*
G75*
G02*
X142302000Y-111586001I0J249999D01*
G01*
X142302000Y-110885999D01*
G75*
G02*
X142551999Y-110636000I249999J0D01*
G01*
G37*
G36*
G01*
X142551999Y-108636000D02*
X143452001Y-108636000D01*
G75*
G02*
X143702000Y-108885999I0J-249999D01*
G01*
X143702000Y-109586001D01*
G75*
G02*
X143452001Y-109836000I-249999J0D01*
G01*
X142551999Y-109836000D01*
G75*
G02*
X142302000Y-109586001I0J249999D01*
G01*
X142302000Y-108885999D01*
G75*
G02*
X142551999Y-108636000I249999J0D01*
G01*
G37*
G36*
G01*
X192670000Y-109591000D02*
X192670000Y-108341000D01*
G75*
G02*
X192920000Y-108091000I250000J0D01*
G01*
X193720000Y-108091000D01*
G75*
G02*
X193970000Y-108341000I0J-250000D01*
G01*
X193970000Y-109591000D01*
G75*
G02*
X193720000Y-109841000I-250000J0D01*
G01*
X192920000Y-109841000D01*
G75*
G02*
X192670000Y-109591000I0J250000D01*
G01*
G37*
G36*
G01*
X189570000Y-109591000D02*
X189570000Y-108341000D01*
G75*
G02*
X189820000Y-108091000I250000J0D01*
G01*
X190620000Y-108091000D01*
G75*
G02*
X190870000Y-108341000I0J-250000D01*
G01*
X190870000Y-109591000D01*
G75*
G02*
X190620000Y-109841000I-250000J0D01*
G01*
X189820000Y-109841000D01*
G75*
G02*
X189570000Y-109591000I0J250000D01*
G01*
G37*
G36*
G01*
X171126999Y-122066000D02*
X172027001Y-122066000D01*
G75*
G02*
X172277000Y-122315999I0J-249999D01*
G01*
X172277000Y-123016001D01*
G75*
G02*
X172027001Y-123266000I-249999J0D01*
G01*
X171126999Y-123266000D01*
G75*
G02*
X170877000Y-123016001I0J249999D01*
G01*
X170877000Y-122315999D01*
G75*
G02*
X171126999Y-122066000I249999J0D01*
G01*
G37*
G36*
G01*
X171126999Y-120066000D02*
X172027001Y-120066000D01*
G75*
G02*
X172277000Y-120315999I0J-249999D01*
G01*
X172277000Y-121016001D01*
G75*
G02*
X172027001Y-121266000I-249999J0D01*
G01*
X171126999Y-121266000D01*
G75*
G02*
X170877000Y-121016001I0J249999D01*
G01*
X170877000Y-120315999D01*
G75*
G02*
X171126999Y-120066000I249999J0D01*
G01*
G37*
G36*
G01*
X186798000Y-122612999D02*
X186798000Y-123513001D01*
G75*
G02*
X186548001Y-123763000I-249999J0D01*
G01*
X185847999Y-123763000D01*
G75*
G02*
X185598000Y-123513001I0J249999D01*
G01*
X185598000Y-122612999D01*
G75*
G02*
X185847999Y-122363000I249999J0D01*
G01*
X186548001Y-122363000D01*
G75*
G02*
X186798000Y-122612999I0J-249999D01*
G01*
G37*
G36*
G01*
X188798000Y-122612999D02*
X188798000Y-123513001D01*
G75*
G02*
X188548001Y-123763000I-249999J0D01*
G01*
X187847999Y-123763000D01*
G75*
G02*
X187598000Y-123513001I0J249999D01*
G01*
X187598000Y-122612999D01*
G75*
G02*
X187847999Y-122363000I249999J0D01*
G01*
X188548001Y-122363000D01*
G75*
G02*
X188798000Y-122612999I0J-249999D01*
G01*
G37*
G36*
G01*
X163941999Y-110374000D02*
X165242001Y-110374000D01*
G75*
G02*
X165492000Y-110623999I0J-249999D01*
G01*
X165492000Y-111449001D01*
G75*
G02*
X165242001Y-111699000I-249999J0D01*
G01*
X163941999Y-111699000D01*
G75*
G02*
X163692000Y-111449001I0J249999D01*
G01*
X163692000Y-110623999D01*
G75*
G02*
X163941999Y-110374000I249999J0D01*
G01*
G37*
G36*
G01*
X163941999Y-107249000D02*
X165242001Y-107249000D01*
G75*
G02*
X165492000Y-107498999I0J-249999D01*
G01*
X165492000Y-108324001D01*
G75*
G02*
X165242001Y-108574000I-249999J0D01*
G01*
X163941999Y-108574000D01*
G75*
G02*
X163692000Y-108324001I0J249999D01*
G01*
X163692000Y-107498999D01*
G75*
G02*
X163941999Y-107249000I249999J0D01*
G01*
G37*
G36*
G01*
X168217000Y-114394000D02*
X168217000Y-113444000D01*
G75*
G02*
X168467000Y-113194000I250000J0D01*
G01*
X169142000Y-113194000D01*
G75*
G02*
X169392000Y-113444000I0J-250000D01*
G01*
X169392000Y-114394000D01*
G75*
G02*
X169142000Y-114644000I-250000J0D01*
G01*
X168467000Y-114644000D01*
G75*
G02*
X168217000Y-114394000I0J250000D01*
G01*
G37*
G36*
G01*
X166142000Y-114394000D02*
X166142000Y-113444000D01*
G75*
G02*
X166392000Y-113194000I250000J0D01*
G01*
X167067000Y-113194000D01*
G75*
G02*
X167317000Y-113444000I0J-250000D01*
G01*
X167317000Y-114394000D01*
G75*
G02*
X167067000Y-114644000I-250000J0D01*
G01*
X166392000Y-114644000D01*
G75*
G02*
X166142000Y-114394000I0J250000D01*
G01*
G37*
D30*
X169672000Y-122253000D03*
X168402000Y-122253000D03*
X167132000Y-122253000D03*
X165862000Y-122253000D03*
X165862000Y-116253000D03*
X167132000Y-116253000D03*
X168402000Y-116253000D03*
X169672000Y-116253000D03*
M02*
