  0
SECTION
  2
HEADER
  9
$ANGBASE
  50
0.0
  9
$ANGDIR
  70
1
  9
$MEASUREMENT
  70
1
  0
ENDSEC
  0
SECTION
  2
TABLES
  0
TABLE
  2
LTYPE
  70
4
  0
LTYPE
  5
40F
  2
CONTINUOUS
  70
0
  3
Solid line
  72
65
  73
0
  40
0.0
  0
LTYPE
  5
410
  2
DASHDOT
 70
0
  3
Dash Dot ____ _ ____ _
 72
65
 73
4
 40
2.0
 49
1.25
 49
-0.25
 49
0.25
 49
-0.25
  0
LTYPE
  5
411
  2
DASHED
 70
0
  3
Dashed __ __ __ __ __
 72
65
 73
2
 40
0.75
 49
0.5
 49
-0.25
  0
LTYPE
  5
43B
  2
DOTTED
 70
0
  3
Dotted .  .  .  .
 72
65
 73
2
 40
0.2
 49
0.0
 49
-0.2
  0
ENDTAB
  0
TABLE
  2
STYLE
  70
4
  0
STYLE
  2
KICAD
  70
0
  40
0
  41
1
  42
1
  50
0
  71
0
  3
isocp.shx
  0
STYLE
  2
KICADB
  70
0
  40
0
  41
1
  42
1
  50
0
  71
0
  3
isocp.shx
  0
STYLE
  2
KICADI
  70
0
  40
0
  41
1
  42
1
  50
15
  71
0
  3
isocp.shx
  0
STYLE
  2
KICADBI
  70
0
  40
0
  41
1
  42
1
  50
15
  71
0
  3
isocp.shx
  0
ENDTAB
  0
TABLE
  2
LAYER
  70
1
  0
LAYER
  2
BLACK
  70
0
  62
7
  6
CONTINUOUS
  0
ENDTAB
  0
ENDSEC
  0
SECTION
  2
ENTITIES
0
LINE
8
BLACK
6
CONTINUOUS
10
130.45
20
-153.5
11
130.47
21
-153.295
0
LINE
8
BLACK
6
CONTINUOUS
10
130.47
20
-153.295
11
130.53
21
-153.098
0
LINE
8
BLACK
6
CONTINUOUS
10
130.53
20
-153.098
11
130.627
21
-152.917
0
LINE
8
BLACK
6
CONTINUOUS
10
130.627
20
-152.917
11
130.758
21
-152.758
0
LINE
8
BLACK
6
CONTINUOUS
10
130.758
20
-152.758
11
130.917
21
-152.627
0
LINE
8
BLACK
6
CONTINUOUS
10
130.917
20
-152.627
11
131.098
21
-152.53
0
LINE
8
BLACK
6
CONTINUOUS
10
131.098
20
-152.53
11
131.295
21
-152.47
0
LINE
8
BLACK
6
CONTINUOUS
10
131.295
20
-152.47
11
131.5
21
-152.45
0
LINE
8
BLACK
6
CONTINUOUS
10
131.5
20
-152.45
11
131.705
21
-152.47
0
LINE
8
BLACK
6
CONTINUOUS
10
131.705
20
-152.47
11
131.902
21
-152.53
0
LINE
8
BLACK
6
CONTINUOUS
10
131.902
20
-152.53
11
132.083
21
-152.627
0
LINE
8
BLACK
6
CONTINUOUS
10
132.083
20
-152.627
11
132.242
21
-152.758
0
LINE
8
BLACK
6
CONTINUOUS
10
132.242
20
-152.758
11
132.373
21
-152.917
0
LINE
8
BLACK
6
CONTINUOUS
10
132.373
20
-152.917
11
132.47
21
-153.098
0
LINE
8
BLACK
6
CONTINUOUS
10
132.47
20
-153.098
11
132.53
21
-153.295
0
LINE
8
BLACK
6
CONTINUOUS
10
132.53
20
-153.295
11
132.55
21
-153.5
0
LINE
8
BLACK
6
CONTINUOUS
10
132.55
20
-153.5
11
132.53
21
-153.705
0
LINE
8
BLACK
6
CONTINUOUS
10
132.53
20
-153.705
11
132.47
21
-153.902
0
LINE
8
BLACK
6
CONTINUOUS
10
132.47
20
-153.902
11
132.373
21
-154.083
0
LINE
8
BLACK
6
CONTINUOUS
10
132.373
20
-154.083
11
132.242
21
-154.242
0
LINE
8
BLACK
6
CONTINUOUS
10
132.242
20
-154.242
11
132.083
21
-154.373
0
LINE
8
BLACK
6
CONTINUOUS
10
132.083
20
-154.373
11
131.902
21
-154.47
0
LINE
8
BLACK
6
CONTINUOUS
10
131.902
20
-154.47
11
131.705
21
-154.53
0
LINE
8
BLACK
6
CONTINUOUS
10
131.705
20
-154.53
11
131.5
21
-154.55
0
LINE
8
BLACK
6
CONTINUOUS
10
131.5
20
-154.55
11
131.295
21
-154.53
0
LINE
8
BLACK
6
CONTINUOUS
10
131.295
20
-154.53
11
131.098
21
-154.47
0
LINE
8
BLACK
6
CONTINUOUS
10
131.098
20
-154.47
11
130.917
21
-154.373
0
LINE
8
BLACK
6
CONTINUOUS
10
130.917
20
-154.373
11
130.758
21
-154.242
0
LINE
8
BLACK
6
CONTINUOUS
10
130.758
20
-154.242
11
130.627
21
-154.083
0
LINE
8
BLACK
6
CONTINUOUS
10
130.627
20
-154.083
11
130.53
21
-153.902
0
LINE
8
BLACK
6
CONTINUOUS
10
130.53
20
-153.902
11
130.47
21
-153.705
0
LINE
8
BLACK
6
CONTINUOUS
10
130.47
20
-153.705
11
130.45
21
-153.5
0
LINE
8
BLACK
6
CONTINUOUS
10
130.545
20
-153.5
11
130.564
21
-153.686
0
LINE
8
BLACK
6
CONTINUOUS
10
130.564
20
-153.686
11
130.618
21
-153.865
0
LINE
8
BLACK
6
CONTINUOUS
10
130.618
20
-153.865
11
130.706
21
-154.03
0
LINE
8
BLACK
6
CONTINUOUS
10
130.706
20
-154.03
11
130.825
21
-154.175
0
LINE
8
BLACK
6
CONTINUOUS
10
130.825
20
-154.175
11
130.97
21
-154.294
0
LINE
8
BLACK
6
CONTINUOUS
10
130.97
20
-154.294
11
131.135
21
-154.382
0
LINE
8
BLACK
6
CONTINUOUS
10
131.135
20
-154.382
11
131.314
21
-154.436
0
LINE
8
BLACK
6
CONTINUOUS
10
131.314
20
-154.436
11
131.5
21
-154.455
0
LINE
8
BLACK
6
CONTINUOUS
10
131.5
20
-154.455
11
131.686
21
-154.436
0
LINE
8
BLACK
6
CONTINUOUS
10
131.686
20
-154.436
11
131.865
21
-154.382
0
LINE
8
BLACK
6
CONTINUOUS
10
131.865
20
-154.382
11
132.03
21
-154.294
0
LINE
8
BLACK
6
CONTINUOUS
10
132.03
20
-154.294
11
132.175
21
-154.175
0
LINE
8
BLACK
6
CONTINUOUS
10
132.175
20
-154.175
11
132.294
21
-154.03
0
LINE
8
BLACK
6
CONTINUOUS
10
132.294
20
-154.03
11
132.382
21
-153.865
0
LINE
8
BLACK
6
CONTINUOUS
10
132.382
20
-153.865
11
132.436
21
-153.686
0
LINE
8
BLACK
6
CONTINUOUS
10
132.436
20
-153.686
11
132.455
21
-153.5
0
LINE
8
BLACK
6
CONTINUOUS
10
132.455
20
-153.5
11
132.436
21
-153.314
0
LINE
8
BLACK
6
CONTINUOUS
10
132.436
20
-153.314
11
132.382
21
-153.135
0
LINE
8
BLACK
6
CONTINUOUS
10
132.382
20
-153.135
11
132.294
21
-152.97
0
LINE
8
BLACK
6
CONTINUOUS
10
132.294
20
-152.97
11
132.175
21
-152.825
0
LINE
8
BLACK
6
CONTINUOUS
10
132.175
20
-152.825
11
132.03
21
-152.706
0
LINE
8
BLACK
6
CONTINUOUS
10
132.03
20
-152.706
11
131.865
21
-152.618
0
LINE
8
BLACK
6
CONTINUOUS
10
131.865
20
-152.618
11
131.686
21
-152.564
0
LINE
8
BLACK
6
CONTINUOUS
10
131.686
20
-152.564
11
131.5
21
-152.545
0
LINE
8
BLACK
6
CONTINUOUS
10
131.5
20
-152.545
11
131.314
21
-152.564
0
LINE
8
BLACK
6
CONTINUOUS
10
131.314
20
-152.564
11
131.135
21
-152.618
0
LINE
8
BLACK
6
CONTINUOUS
10
131.135
20
-152.618
11
130.97
21
-152.706
0
LINE
8
BLACK
6
CONTINUOUS
10
130.97
20
-152.706
11
130.825
21
-152.825
0
LINE
8
BLACK
6
CONTINUOUS
10
130.825
20
-152.825
11
130.706
21
-152.97
0
LINE
8
BLACK
6
CONTINUOUS
10
130.706
20
-152.97
11
130.618
21
-153.135
0
LINE
8
BLACK
6
CONTINUOUS
10
130.618
20
-153.135
11
130.564
21
-153.314
0
LINE
8
BLACK
6
CONTINUOUS
10
130.564
20
-153.314
11
130.545
21
-153.5
0
LINE
8
BLACK
6
CONTINUOUS
10
177.2
20
-151.5
11
177.22
21
-151.295
0
LINE
8
BLACK
6
CONTINUOUS
10
177.22
20
-151.295
11
177.28
21
-151.098
0
LINE
8
BLACK
6
CONTINUOUS
10
177.28
20
-151.098
11
177.377
21
-150.917
0
LINE
8
BLACK
6
CONTINUOUS
10
177.377
20
-150.917
11
177.508
21
-150.758
0
LINE
8
BLACK
6
CONTINUOUS
10
177.508
20
-150.758
11
177.667
21
-150.627
0
LINE
8
BLACK
6
CONTINUOUS
10
177.667
20
-150.627
11
177.848
21
-150.53
0
LINE
8
BLACK
6
CONTINUOUS
10
177.848
20
-150.53
11
178.045
21
-150.47
0
LINE
8
BLACK
6
CONTINUOUS
10
178.045
20
-150.47
11
178.25
21
-150.45
0
LINE
8
BLACK
6
CONTINUOUS
10
178.25
20
-150.45
11
178.455
21
-150.47
0
LINE
8
BLACK
6
CONTINUOUS
10
178.455
20
-150.47
11
178.652
21
-150.53
0
LINE
8
BLACK
6
CONTINUOUS
10
178.652
20
-150.53
11
178.833
21
-150.627
0
LINE
8
BLACK
6
CONTINUOUS
10
178.833
20
-150.627
11
178.992
21
-150.758
0
LINE
8
BLACK
6
CONTINUOUS
10
178.992
20
-150.758
11
179.123
21
-150.917
0
LINE
8
BLACK
6
CONTINUOUS
10
179.123
20
-150.917
11
179.22
21
-151.098
0
LINE
8
BLACK
6
CONTINUOUS
10
179.22
20
-151.098
11
179.28
21
-151.295
0
LINE
8
BLACK
6
CONTINUOUS
10
179.28
20
-151.295
11
179.3
21
-151.5
0
LINE
8
BLACK
6
CONTINUOUS
10
179.3
20
-151.5
11
179.28
21
-151.705
0
LINE
8
BLACK
6
CONTINUOUS
10
179.28
20
-151.705
11
179.22
21
-151.902
0
LINE
8
BLACK
6
CONTINUOUS
10
179.22
20
-151.902
11
179.123
21
-152.083
0
LINE
8
BLACK
6
CONTINUOUS
10
179.123
20
-152.083
11
178.992
21
-152.242
0
LINE
8
BLACK
6
CONTINUOUS
10
178.992
20
-152.242
11
178.833
21
-152.373
0
LINE
8
BLACK
6
CONTINUOUS
10
178.833
20
-152.373
11
178.652
21
-152.47
0
LINE
8
BLACK
6
CONTINUOUS
10
178.652
20
-152.47
11
178.455
21
-152.53
0
LINE
8
BLACK
6
CONTINUOUS
10
178.455
20
-152.53
11
178.25
21
-152.55
0
LINE
8
BLACK
6
CONTINUOUS
10
178.25
20
-152.55
11
178.045
21
-152.53
0
LINE
8
BLACK
6
CONTINUOUS
10
178.045
20
-152.53
11
177.848
21
-152.47
0
LINE
8
BLACK
6
CONTINUOUS
10
177.848
20
-152.47
11
177.667
21
-152.373
0
LINE
8
BLACK
6
CONTINUOUS
10
177.667
20
-152.373
11
177.508
21
-152.242
0
LINE
8
BLACK
6
CONTINUOUS
10
177.508
20
-152.242
11
177.377
21
-152.083
0
LINE
8
BLACK
6
CONTINUOUS
10
177.377
20
-152.083
11
177.28
21
-151.902
0
LINE
8
BLACK
6
CONTINUOUS
10
177.28
20
-151.902
11
177.22
21
-151.705
0
LINE
8
BLACK
6
CONTINUOUS
10
177.22
20
-151.705
11
177.2
21
-151.5
0
LINE
8
BLACK
6
CONTINUOUS
10
177.295
20
-151.5
11
177.314
21
-151.686
0
LINE
8
BLACK
6
CONTINUOUS
10
177.314
20
-151.686
11
177.368
21
-151.865
0
LINE
8
BLACK
6
CONTINUOUS
10
177.368
20
-151.865
11
177.456
21
-152.03
0
LINE
8
BLACK
6
CONTINUOUS
10
177.456
20
-152.03
11
177.575
21
-152.175
0
LINE
8
BLACK
6
CONTINUOUS
10
177.575
20
-152.175
11
177.72
21
-152.294
0
LINE
8
BLACK
6
CONTINUOUS
10
177.72
20
-152.294
11
177.885
21
-152.382
0
LINE
8
BLACK
6
CONTINUOUS
10
177.885
20
-152.382
11
178.064
21
-152.436
0
LINE
8
BLACK
6
CONTINUOUS
10
178.064
20
-152.436
11
178.25
21
-152.455
0
LINE
8
BLACK
6
CONTINUOUS
10
178.25
20
-152.455
11
178.436
21
-152.436
0
LINE
8
BLACK
6
CONTINUOUS
10
178.436
20
-152.436
11
178.615
21
-152.382
0
LINE
8
BLACK
6
CONTINUOUS
10
178.615
20
-152.382
11
178.78
21
-152.294
0
LINE
8
BLACK
6
CONTINUOUS
10
178.78
20
-152.294
11
178.925
21
-152.175
0
LINE
8
BLACK
6
CONTINUOUS
10
178.925
20
-152.175
11
179.044
21
-152.03
0
LINE
8
BLACK
6
CONTINUOUS
10
179.044
20
-152.03
11
179.132
21
-151.865
0
LINE
8
BLACK
6
CONTINUOUS
10
179.132
20
-151.865
11
179.186
21
-151.686
0
LINE
8
BLACK
6
CONTINUOUS
10
179.186
20
-151.686
11
179.205
21
-151.5
0
LINE
8
BLACK
6
CONTINUOUS
10
179.205
20
-151.5
11
179.186
21
-151.314
0
LINE
8
BLACK
6
CONTINUOUS
10
179.186
20
-151.314
11
179.132
21
-151.135
0
LINE
8
BLACK
6
CONTINUOUS
10
179.132
20
-151.135
11
179.044
21
-150.97
0
LINE
8
BLACK
6
CONTINUOUS
10
179.044
20
-150.97
11
178.925
21
-150.825
0
LINE
8
BLACK
6
CONTINUOUS
10
178.925
20
-150.825
11
178.78
21
-150.706
0
LINE
8
BLACK
6
CONTINUOUS
10
178.78
20
-150.706
11
178.615
21
-150.618
0
LINE
8
BLACK
6
CONTINUOUS
10
178.615
20
-150.618
11
178.436
21
-150.564
0
LINE
8
BLACK
6
CONTINUOUS
10
178.436
20
-150.564
11
178.25
21
-150.545
0
LINE
8
BLACK
6
CONTINUOUS
10
178.25
20
-150.545
11
178.064
21
-150.564
0
LINE
8
BLACK
6
CONTINUOUS
10
178.064
20
-150.564
11
177.885
21
-150.618
0
LINE
8
BLACK
6
CONTINUOUS
10
177.885
20
-150.618
11
177.72
21
-150.706
0
LINE
8
BLACK
6
CONTINUOUS
10
177.72
20
-150.706
11
177.575
21
-150.825
0
LINE
8
BLACK
6
CONTINUOUS
10
177.575
20
-150.825
11
177.456
21
-150.97
0
LINE
8
BLACK
6
CONTINUOUS
10
177.456
20
-150.97
11
177.368
21
-151.135
0
LINE
8
BLACK
6
CONTINUOUS
10
177.368
20
-151.135
11
177.314
21
-151.314
0
LINE
8
BLACK
6
CONTINUOUS
10
177.314
20
-151.314
11
177.295
21
-151.5
0
LINE
8
BLACK
6
CONTINUOUS
10
169.2
20
-106.5
11
169.22
21
-106.295
0
LINE
8
BLACK
6
CONTINUOUS
10
169.22
20
-106.295
11
169.28
21
-106.098
0
LINE
8
BLACK
6
CONTINUOUS
10
169.28
20
-106.098
11
169.377
21
-105.917
0
LINE
8
BLACK
6
CONTINUOUS
10
169.377
20
-105.917
11
169.508
21
-105.758
0
LINE
8
BLACK
6
CONTINUOUS
10
169.508
20
-105.758
11
169.667
21
-105.627
0
LINE
8
BLACK
6
CONTINUOUS
10
169.667
20
-105.627
11
169.848
21
-105.53
0
LINE
8
BLACK
6
CONTINUOUS
10
169.848
20
-105.53
11
170.045
21
-105.47
0
LINE
8
BLACK
6
CONTINUOUS
10
170.045
20
-105.47
11
170.25
21
-105.45
0
LINE
8
BLACK
6
CONTINUOUS
10
170.25
20
-105.45
11
170.455
21
-105.47
0
LINE
8
BLACK
6
CONTINUOUS
10
170.455
20
-105.47
11
170.652
21
-105.53
0
LINE
8
BLACK
6
CONTINUOUS
10
170.652
20
-105.53
11
170.833
21
-105.627
0
LINE
8
BLACK
6
CONTINUOUS
10
170.833
20
-105.627
11
170.992
21
-105.758
0
LINE
8
BLACK
6
CONTINUOUS
10
170.992
20
-105.758
11
171.123
21
-105.917
0
LINE
8
BLACK
6
CONTINUOUS
10
171.123
20
-105.917
11
171.22
21
-106.098
0
LINE
8
BLACK
6
CONTINUOUS
10
171.22
20
-106.098
11
171.28
21
-106.295
0
LINE
8
BLACK
6
CONTINUOUS
10
171.28
20
-106.295
11
171.3
21
-106.5
0
LINE
8
BLACK
6
CONTINUOUS
10
171.3
20
-106.5
11
171.28
21
-106.705
0
LINE
8
BLACK
6
CONTINUOUS
10
171.28
20
-106.705
11
171.22
21
-106.902
0
LINE
8
BLACK
6
CONTINUOUS
10
171.22
20
-106.902
11
171.123
21
-107.083
0
LINE
8
BLACK
6
CONTINUOUS
10
171.123
20
-107.083
11
170.992
21
-107.242
0
LINE
8
BLACK
6
CONTINUOUS
10
170.992
20
-107.242
11
170.833
21
-107.373
0
LINE
8
BLACK
6
CONTINUOUS
10
170.833
20
-107.373
11
170.652
21
-107.47
0
LINE
8
BLACK
6
CONTINUOUS
10
170.652
20
-107.47
11
170.455
21
-107.53
0
LINE
8
BLACK
6
CONTINUOUS
10
170.455
20
-107.53
11
170.25
21
-107.55
0
LINE
8
BLACK
6
CONTINUOUS
10
170.25
20
-107.55
11
170.045
21
-107.53
0
LINE
8
BLACK
6
CONTINUOUS
10
170.045
20
-107.53
11
169.848
21
-107.47
0
LINE
8
BLACK
6
CONTINUOUS
10
169.848
20
-107.47
11
169.667
21
-107.373
0
LINE
8
BLACK
6
CONTINUOUS
10
169.667
20
-107.373
11
169.508
21
-107.242
0
LINE
8
BLACK
6
CONTINUOUS
10
169.508
20
-107.242
11
169.377
21
-107.083
0
LINE
8
BLACK
6
CONTINUOUS
10
169.377
20
-107.083
11
169.28
21
-106.902
0
LINE
8
BLACK
6
CONTINUOUS
10
169.28
20
-106.902
11
169.22
21
-106.705
0
LINE
8
BLACK
6
CONTINUOUS
10
169.22
20
-106.705
11
169.2
21
-106.5
0
LINE
8
BLACK
6
CONTINUOUS
10
169.295
20
-106.5
11
169.314
21
-106.686
0
LINE
8
BLACK
6
CONTINUOUS
10
169.314
20
-106.686
11
169.368
21
-106.865
0
LINE
8
BLACK
6
CONTINUOUS
10
169.368
20
-106.865
11
169.456
21
-107.03
0
LINE
8
BLACK
6
CONTINUOUS
10
169.456
20
-107.03
11
169.575
21
-107.175
0
LINE
8
BLACK
6
CONTINUOUS
10
169.575
20
-107.175
11
169.72
21
-107.294
0
LINE
8
BLACK
6
CONTINUOUS
10
169.72
20
-107.294
11
169.885
21
-107.382
0
LINE
8
BLACK
6
CONTINUOUS
10
169.885
20
-107.382
11
170.064
21
-107.436
0
LINE
8
BLACK
6
CONTINUOUS
10
170.064
20
-107.436
11
170.25
21
-107.455
0
LINE
8
BLACK
6
CONTINUOUS
10
170.25
20
-107.455
11
170.436
21
-107.436
0
LINE
8
BLACK
6
CONTINUOUS
10
170.436
20
-107.436
11
170.615
21
-107.382
0
LINE
8
BLACK
6
CONTINUOUS
10
170.615
20
-107.382
11
170.78
21
-107.294
0
LINE
8
BLACK
6
CONTINUOUS
10
170.78
20
-107.294
11
170.925
21
-107.175
0
LINE
8
BLACK
6
CONTINUOUS
10
170.925
20
-107.175
11
171.044
21
-107.03
0
LINE
8
BLACK
6
CONTINUOUS
10
171.044
20
-107.03
11
171.132
21
-106.865
0
LINE
8
BLACK
6
CONTINUOUS
10
171.132
20
-106.865
11
171.186
21
-106.686
0
LINE
8
BLACK
6
CONTINUOUS
10
171.186
20
-106.686
11
171.205
21
-106.5
0
LINE
8
BLACK
6
CONTINUOUS
10
171.205
20
-106.5
11
171.186
21
-106.314
0
LINE
8
BLACK
6
CONTINUOUS
10
171.186
20
-106.314
11
171.132
21
-106.135
0
LINE
8
BLACK
6
CONTINUOUS
10
171.132
20
-106.135
11
171.044
21
-105.97
0
LINE
8
BLACK
6
CONTINUOUS
10
171.044
20
-105.97
11
170.925
21
-105.825
0
LINE
8
BLACK
6
CONTINUOUS
10
170.925
20
-105.825
11
170.78
21
-105.706
0
LINE
8
BLACK
6
CONTINUOUS
10
170.78
20
-105.706
11
170.615
21
-105.618
0
LINE
8
BLACK
6
CONTINUOUS
10
170.615
20
-105.618
11
170.436
21
-105.564
0
LINE
8
BLACK
6
CONTINUOUS
10
170.436
20
-105.564
11
170.25
21
-105.545
0
LINE
8
BLACK
6
CONTINUOUS
10
170.25
20
-105.545
11
170.064
21
-105.564
0
LINE
8
BLACK
6
CONTINUOUS
10
170.064
20
-105.564
11
169.885
21
-105.618
0
LINE
8
BLACK
6
CONTINUOUS
10
169.885
20
-105.618
11
169.72
21
-105.706
0
LINE
8
BLACK
6
CONTINUOUS
10
169.72
20
-105.706
11
169.575
21
-105.825
0
LINE
8
BLACK
6
CONTINUOUS
10
169.575
20
-105.825
11
169.456
21
-105.97
0
LINE
8
BLACK
6
CONTINUOUS
10
169.456
20
-105.97
11
169.368
21
-106.135
0
LINE
8
BLACK
6
CONTINUOUS
10
169.368
20
-106.135
11
169.314
21
-106.314
0
LINE
8
BLACK
6
CONTINUOUS
10
169.314
20
-106.314
11
169.295
21
-106.5
0
LINE
8
BLACK
6
CONTINUOUS
10
128.7
20
-106.5
11
128.72
21
-106.295
0
LINE
8
BLACK
6
CONTINUOUS
10
128.72
20
-106.295
11
128.78
21
-106.098
0
LINE
8
BLACK
6
CONTINUOUS
10
128.78
20
-106.098
11
128.877
21
-105.917
0
LINE
8
BLACK
6
CONTINUOUS
10
128.877
20
-105.917
11
129.008
21
-105.758
0
LINE
8
BLACK
6
CONTINUOUS
10
129.008
20
-105.758
11
129.167
21
-105.627
0
LINE
8
BLACK
6
CONTINUOUS
10
129.167
20
-105.627
11
129.348
21
-105.53
0
LINE
8
BLACK
6
CONTINUOUS
10
129.348
20
-105.53
11
129.545
21
-105.47
0
LINE
8
BLACK
6
CONTINUOUS
10
129.545
20
-105.47
11
129.75
21
-105.45
0
LINE
8
BLACK
6
CONTINUOUS
10
129.75
20
-105.45
11
129.955
21
-105.47
0
LINE
8
BLACK
6
CONTINUOUS
10
129.955
20
-105.47
11
130.152
21
-105.53
0
LINE
8
BLACK
6
CONTINUOUS
10
130.152
20
-105.53
11
130.333
21
-105.627
0
LINE
8
BLACK
6
CONTINUOUS
10
130.333
20
-105.627
11
130.492
21
-105.758
0
LINE
8
BLACK
6
CONTINUOUS
10
130.492
20
-105.758
11
130.623
21
-105.917
0
LINE
8
BLACK
6
CONTINUOUS
10
130.623
20
-105.917
11
130.72
21
-106.098
0
LINE
8
BLACK
6
CONTINUOUS
10
130.72
20
-106.098
11
130.78
21
-106.295
0
LINE
8
BLACK
6
CONTINUOUS
10
130.78
20
-106.295
11
130.8
21
-106.5
0
LINE
8
BLACK
6
CONTINUOUS
10
130.8
20
-106.5
11
130.78
21
-106.705
0
LINE
8
BLACK
6
CONTINUOUS
10
130.78
20
-106.705
11
130.72
21
-106.902
0
LINE
8
BLACK
6
CONTINUOUS
10
130.72
20
-106.902
11
130.623
21
-107.083
0
LINE
8
BLACK
6
CONTINUOUS
10
130.623
20
-107.083
11
130.492
21
-107.242
0
LINE
8
BLACK
6
CONTINUOUS
10
130.492
20
-107.242
11
130.333
21
-107.373
0
LINE
8
BLACK
6
CONTINUOUS
10
130.333
20
-107.373
11
130.152
21
-107.47
0
LINE
8
BLACK
6
CONTINUOUS
10
130.152
20
-107.47
11
129.955
21
-107.53
0
LINE
8
BLACK
6
CONTINUOUS
10
129.955
20
-107.53
11
129.75
21
-107.55
0
LINE
8
BLACK
6
CONTINUOUS
10
129.75
20
-107.55
11
129.545
21
-107.53
0
LINE
8
BLACK
6
CONTINUOUS
10
129.545
20
-107.53
11
129.348
21
-107.47
0
LINE
8
BLACK
6
CONTINUOUS
10
129.348
20
-107.47
11
129.167
21
-107.373
0
LINE
8
BLACK
6
CONTINUOUS
10
129.167
20
-107.373
11
129.008
21
-107.242
0
LINE
8
BLACK
6
CONTINUOUS
10
129.008
20
-107.242
11
128.877
21
-107.083
0
LINE
8
BLACK
6
CONTINUOUS
10
128.877
20
-107.083
11
128.78
21
-106.902
0
LINE
8
BLACK
6
CONTINUOUS
10
128.78
20
-106.902
11
128.72
21
-106.705
0
LINE
8
BLACK
6
CONTINUOUS
10
128.72
20
-106.705
11
128.7
21
-106.5
0
LINE
8
BLACK
6
CONTINUOUS
10
128.795
20
-106.5
11
128.814
21
-106.686
0
LINE
8
BLACK
6
CONTINUOUS
10
128.814
20
-106.686
11
128.868
21
-106.865
0
LINE
8
BLACK
6
CONTINUOUS
10
128.868
20
-106.865
11
128.956
21
-107.03
0
LINE
8
BLACK
6
CONTINUOUS
10
128.956
20
-107.03
11
129.075
21
-107.175
0
LINE
8
BLACK
6
CONTINUOUS
10
129.075
20
-107.175
11
129.22
21
-107.294
0
LINE
8
BLACK
6
CONTINUOUS
10
129.22
20
-107.294
11
129.385
21
-107.382
0
LINE
8
BLACK
6
CONTINUOUS
10
129.385
20
-107.382
11
129.564
21
-107.436
0
LINE
8
BLACK
6
CONTINUOUS
10
129.564
20
-107.436
11
129.75
21
-107.455
0
LINE
8
BLACK
6
CONTINUOUS
10
129.75
20
-107.455
11
129.936
21
-107.436
0
LINE
8
BLACK
6
CONTINUOUS
10
129.936
20
-107.436
11
130.115
21
-107.382
0
LINE
8
BLACK
6
CONTINUOUS
10
130.115
20
-107.382
11
130.28
21
-107.294
0
LINE
8
BLACK
6
CONTINUOUS
10
130.28
20
-107.294
11
130.425
21
-107.175
0
LINE
8
BLACK
6
CONTINUOUS
10
130.425
20
-107.175
11
130.544
21
-107.03
0
LINE
8
BLACK
6
CONTINUOUS
10
130.544
20
-107.03
11
130.632
21
-106.865
0
LINE
8
BLACK
6
CONTINUOUS
10
130.632
20
-106.865
11
130.686
21
-106.686
0
LINE
8
BLACK
6
CONTINUOUS
10
130.686
20
-106.686
11
130.705
21
-106.5
0
LINE
8
BLACK
6
CONTINUOUS
10
130.705
20
-106.5
11
130.686
21
-106.314
0
LINE
8
BLACK
6
CONTINUOUS
10
130.686
20
-106.314
11
130.632
21
-106.135
0
LINE
8
BLACK
6
CONTINUOUS
10
130.632
20
-106.135
11
130.544
21
-105.97
0
LINE
8
BLACK
6
CONTINUOUS
10
130.544
20
-105.97
11
130.425
21
-105.825
0
LINE
8
BLACK
6
CONTINUOUS
10
130.425
20
-105.825
11
130.28
21
-105.706
0
LINE
8
BLACK
6
CONTINUOUS
10
130.28
20
-105.706
11
130.115
21
-105.618
0
LINE
8
BLACK
6
CONTINUOUS
10
130.115
20
-105.618
11
129.936
21
-105.564
0
LINE
8
BLACK
6
CONTINUOUS
10
129.936
20
-105.564
11
129.75
21
-105.545
0
LINE
8
BLACK
6
CONTINUOUS
10
129.75
20
-105.545
11
129.564
21
-105.564
0
LINE
8
BLACK
6
CONTINUOUS
10
129.564
20
-105.564
11
129.385
21
-105.618
0
LINE
8
BLACK
6
CONTINUOUS
10
129.385
20
-105.618
11
129.22
21
-105.706
0
LINE
8
BLACK
6
CONTINUOUS
10
129.22
20
-105.706
11
129.075
21
-105.825
0
LINE
8
BLACK
6
CONTINUOUS
10
129.075
20
-105.825
11
128.956
21
-105.97
0
LINE
8
BLACK
6
CONTINUOUS
10
128.956
20
-105.97
11
128.868
21
-106.135
0
LINE
8
BLACK
6
CONTINUOUS
10
128.868
20
-106.135
11
128.814
21
-106.314
0
LINE
8
BLACK
6
CONTINUOUS
10
128.814
20
-106.314
11
128.795
21
-106.5
0
LINE
8
BLACK
6
CONTINUOUS
10
169.2
20
-103.75
11
169.22
21
-103.545
0
LINE
8
BLACK
6
CONTINUOUS
10
169.22
20
-103.545
11
169.28
21
-103.348
0
LINE
8
BLACK
6
CONTINUOUS
10
169.28
20
-103.348
11
169.377
21
-103.167
0
LINE
8
BLACK
6
CONTINUOUS
10
169.377
20
-103.167
11
169.508
21
-103.008
0
LINE
8
BLACK
6
CONTINUOUS
10
169.508
20
-103.008
11
169.667
21
-102.877
0
LINE
8
BLACK
6
CONTINUOUS
10
169.667
20
-102.877
11
169.848
21
-102.78
0
LINE
8
BLACK
6
CONTINUOUS
10
169.848
20
-102.78
11
170.045
21
-102.72
0
LINE
8
BLACK
6
CONTINUOUS
10
170.045
20
-102.72
11
170.25
21
-102.7
0
LINE
8
BLACK
6
CONTINUOUS
10
170.25
20
-102.7
11
170.455
21
-102.72
0
LINE
8
BLACK
6
CONTINUOUS
10
170.455
20
-102.72
11
170.652
21
-102.78
0
LINE
8
BLACK
6
CONTINUOUS
10
170.652
20
-102.78
11
170.833
21
-102.877
0
LINE
8
BLACK
6
CONTINUOUS
10
170.833
20
-102.877
11
170.992
21
-103.008
0
LINE
8
BLACK
6
CONTINUOUS
10
170.992
20
-103.008
11
171.123
21
-103.167
0
LINE
8
BLACK
6
CONTINUOUS
10
171.123
20
-103.167
11
171.22
21
-103.348
0
LINE
8
BLACK
6
CONTINUOUS
10
171.22
20
-103.348
11
171.28
21
-103.545
0
LINE
8
BLACK
6
CONTINUOUS
10
171.28
20
-103.545
11
171.3
21
-103.75
0
LINE
8
BLACK
6
CONTINUOUS
10
171.3
20
-103.75
11
171.28
21
-103.955
0
LINE
8
BLACK
6
CONTINUOUS
10
171.28
20
-103.955
11
171.22
21
-104.152
0
LINE
8
BLACK
6
CONTINUOUS
10
171.22
20
-104.152
11
171.123
21
-104.333
0
LINE
8
BLACK
6
CONTINUOUS
10
171.123
20
-104.333
11
170.992
21
-104.492
0
LINE
8
BLACK
6
CONTINUOUS
10
170.992
20
-104.492
11
170.833
21
-104.623
0
LINE
8
BLACK
6
CONTINUOUS
10
170.833
20
-104.623
11
170.652
21
-104.72
0
LINE
8
BLACK
6
CONTINUOUS
10
170.652
20
-104.72
11
170.455
21
-104.78
0
LINE
8
BLACK
6
CONTINUOUS
10
170.455
20
-104.78
11
170.25
21
-104.8
0
LINE
8
BLACK
6
CONTINUOUS
10
170.25
20
-104.8
11
170.045
21
-104.78
0
LINE
8
BLACK
6
CONTINUOUS
10
170.045
20
-104.78
11
169.848
21
-104.72
0
LINE
8
BLACK
6
CONTINUOUS
10
169.848
20
-104.72
11
169.667
21
-104.623
0
LINE
8
BLACK
6
CONTINUOUS
10
169.667
20
-104.623
11
169.508
21
-104.492
0
LINE
8
BLACK
6
CONTINUOUS
10
169.508
20
-104.492
11
169.377
21
-104.333
0
LINE
8
BLACK
6
CONTINUOUS
10
169.377
20
-104.333
11
169.28
21
-104.152
0
LINE
8
BLACK
6
CONTINUOUS
10
169.28
20
-104.152
11
169.22
21
-103.955
0
LINE
8
BLACK
6
CONTINUOUS
10
169.22
20
-103.955
11
169.2
21
-103.75
0
LINE
8
BLACK
6
CONTINUOUS
10
169.295
20
-103.75
11
169.314
21
-103.936
0
LINE
8
BLACK
6
CONTINUOUS
10
169.314
20
-103.936
11
169.368
21
-104.115
0
LINE
8
BLACK
6
CONTINUOUS
10
169.368
20
-104.115
11
169.456
21
-104.28
0
LINE
8
BLACK
6
CONTINUOUS
10
169.456
20
-104.28
11
169.575
21
-104.425
0
LINE
8
BLACK
6
CONTINUOUS
10
169.575
20
-104.425
11
169.72
21
-104.544
0
LINE
8
BLACK
6
CONTINUOUS
10
169.72
20
-104.544
11
169.885
21
-104.632
0
LINE
8
BLACK
6
CONTINUOUS
10
169.885
20
-104.632
11
170.064
21
-104.686
0
LINE
8
BLACK
6
CONTINUOUS
10
170.064
20
-104.686
11
170.25
21
-104.705
0
LINE
8
BLACK
6
CONTINUOUS
10
170.25
20
-104.705
11
170.436
21
-104.686
0
LINE
8
BLACK
6
CONTINUOUS
10
170.436
20
-104.686
11
170.615
21
-104.632
0
LINE
8
BLACK
6
CONTINUOUS
10
170.615
20
-104.632
11
170.78
21
-104.544
0
LINE
8
BLACK
6
CONTINUOUS
10
170.78
20
-104.544
11
170.925
21
-104.425
0
LINE
8
BLACK
6
CONTINUOUS
10
170.925
20
-104.425
11
171.044
21
-104.28
0
LINE
8
BLACK
6
CONTINUOUS
10
171.044
20
-104.28
11
171.132
21
-104.115
0
LINE
8
BLACK
6
CONTINUOUS
10
171.132
20
-104.115
11
171.186
21
-103.936
0
LINE
8
BLACK
6
CONTINUOUS
10
171.186
20
-103.936
11
171.205
21
-103.75
0
LINE
8
BLACK
6
CONTINUOUS
10
171.205
20
-103.75
11
171.186
21
-103.564
0
LINE
8
BLACK
6
CONTINUOUS
10
171.186
20
-103.564
11
171.132
21
-103.385
0
LINE
8
BLACK
6
CONTINUOUS
10
171.132
20
-103.385
11
171.044
21
-103.22
0
LINE
8
BLACK
6
CONTINUOUS
10
171.044
20
-103.22
11
170.925
21
-103.075
0
LINE
8
BLACK
6
CONTINUOUS
10
170.925
20
-103.075
11
170.78
21
-102.956
0
LINE
8
BLACK
6
CONTINUOUS
10
170.78
20
-102.956
11
170.615
21
-102.868
0
LINE
8
BLACK
6
CONTINUOUS
10
170.615
20
-102.868
11
170.436
21
-102.814
0
LINE
8
BLACK
6
CONTINUOUS
10
170.436
20
-102.814
11
170.25
21
-102.795
0
LINE
8
BLACK
6
CONTINUOUS
10
170.25
20
-102.795
11
170.064
21
-102.814
0
LINE
8
BLACK
6
CONTINUOUS
10
170.064
20
-102.814
11
169.885
21
-102.868
0
LINE
8
BLACK
6
CONTINUOUS
10
169.885
20
-102.868
11
169.72
21
-102.956
0
LINE
8
BLACK
6
CONTINUOUS
10
169.72
20
-102.956
11
169.575
21
-103.075
0
LINE
8
BLACK
6
CONTINUOUS
10
169.575
20
-103.075
11
169.456
21
-103.22
0
LINE
8
BLACK
6
CONTINUOUS
10
169.456
20
-103.22
11
169.368
21
-103.385
0
LINE
8
BLACK
6
CONTINUOUS
10
169.368
20
-103.385
11
169.314
21
-103.564
0
LINE
8
BLACK
6
CONTINUOUS
10
169.314
20
-103.564
11
169.295
21
-103.75
0
LINE
8
BLACK
6
CONTINUOUS
10
128.7
20
-103.75
11
128.72
21
-103.545
0
LINE
8
BLACK
6
CONTINUOUS
10
128.72
20
-103.545
11
128.78
21
-103.348
0
LINE
8
BLACK
6
CONTINUOUS
10
128.78
20
-103.348
11
128.877
21
-103.167
0
LINE
8
BLACK
6
CONTINUOUS
10
128.877
20
-103.167
11
129.008
21
-103.008
0
LINE
8
BLACK
6
CONTINUOUS
10
129.008
20
-103.008
11
129.167
21
-102.877
0
LINE
8
BLACK
6
CONTINUOUS
10
129.167
20
-102.877
11
129.348
21
-102.78
0
LINE
8
BLACK
6
CONTINUOUS
10
129.348
20
-102.78
11
129.545
21
-102.72
0
LINE
8
BLACK
6
CONTINUOUS
10
129.545
20
-102.72
11
129.75
21
-102.7
0
LINE
8
BLACK
6
CONTINUOUS
10
129.75
20
-102.7
11
129.955
21
-102.72
0
LINE
8
BLACK
6
CONTINUOUS
10
129.955
20
-102.72
11
130.152
21
-102.78
0
LINE
8
BLACK
6
CONTINUOUS
10
130.152
20
-102.78
11
130.333
21
-102.877
0
LINE
8
BLACK
6
CONTINUOUS
10
130.333
20
-102.877
11
130.492
21
-103.008
0
LINE
8
BLACK
6
CONTINUOUS
10
130.492
20
-103.008
11
130.623
21
-103.167
0
LINE
8
BLACK
6
CONTINUOUS
10
130.623
20
-103.167
11
130.72
21
-103.348
0
LINE
8
BLACK
6
CONTINUOUS
10
130.72
20
-103.348
11
130.78
21
-103.545
0
LINE
8
BLACK
6
CONTINUOUS
10
130.78
20
-103.545
11
130.8
21
-103.75
0
LINE
8
BLACK
6
CONTINUOUS
10
130.8
20
-103.75
11
130.78
21
-103.955
0
LINE
8
BLACK
6
CONTINUOUS
10
130.78
20
-103.955
11
130.72
21
-104.152
0
LINE
8
BLACK
6
CONTINUOUS
10
130.72
20
-104.152
11
130.623
21
-104.333
0
LINE
8
BLACK
6
CONTINUOUS
10
130.623
20
-104.333
11
130.492
21
-104.492
0
LINE
8
BLACK
6
CONTINUOUS
10
130.492
20
-104.492
11
130.333
21
-104.623
0
LINE
8
BLACK
6
CONTINUOUS
10
130.333
20
-104.623
11
130.152
21
-104.72
0
LINE
8
BLACK
6
CONTINUOUS
10
130.152
20
-104.72
11
129.955
21
-104.78
0
LINE
8
BLACK
6
CONTINUOUS
10
129.955
20
-104.78
11
129.75
21
-104.8
0
LINE
8
BLACK
6
CONTINUOUS
10
129.75
20
-104.8
11
129.545
21
-104.78
0
LINE
8
BLACK
6
CONTINUOUS
10
129.545
20
-104.78
11
129.348
21
-104.72
0
LINE
8
BLACK
6
CONTINUOUS
10
129.348
20
-104.72
11
129.167
21
-104.623
0
LINE
8
BLACK
6
CONTINUOUS
10
129.167
20
-104.623
11
129.008
21
-104.492
0
LINE
8
BLACK
6
CONTINUOUS
10
129.008
20
-104.492
11
128.877
21
-104.333
0
LINE
8
BLACK
6
CONTINUOUS
10
128.877
20
-104.333
11
128.78
21
-104.152
0
LINE
8
BLACK
6
CONTINUOUS
10
128.78
20
-104.152
11
128.72
21
-103.955
0
LINE
8
BLACK
6
CONTINUOUS
10
128.72
20
-103.955
11
128.7
21
-103.75
0
LINE
8
BLACK
6
CONTINUOUS
10
128.795
20
-103.75
11
128.814
21
-103.936
0
LINE
8
BLACK
6
CONTINUOUS
10
128.814
20
-103.936
11
128.868
21
-104.115
0
LINE
8
BLACK
6
CONTINUOUS
10
128.868
20
-104.115
11
128.956
21
-104.28
0
LINE
8
BLACK
6
CONTINUOUS
10
128.956
20
-104.28
11
129.075
21
-104.425
0
LINE
8
BLACK
6
CONTINUOUS
10
129.075
20
-104.425
11
129.22
21
-104.544
0
LINE
8
BLACK
6
CONTINUOUS
10
129.22
20
-104.544
11
129.385
21
-104.632
0
LINE
8
BLACK
6
CONTINUOUS
10
129.385
20
-104.632
11
129.564
21
-104.686
0
LINE
8
BLACK
6
CONTINUOUS
10
129.564
20
-104.686
11
129.75
21
-104.705
0
LINE
8
BLACK
6
CONTINUOUS
10
129.75
20
-104.705
11
129.936
21
-104.686
0
LINE
8
BLACK
6
CONTINUOUS
10
129.936
20
-104.686
11
130.115
21
-104.632
0
LINE
8
BLACK
6
CONTINUOUS
10
130.115
20
-104.632
11
130.28
21
-104.544
0
LINE
8
BLACK
6
CONTINUOUS
10
130.28
20
-104.544
11
130.425
21
-104.425
0
LINE
8
BLACK
6
CONTINUOUS
10
130.425
20
-104.425
11
130.544
21
-104.28
0
LINE
8
BLACK
6
CONTINUOUS
10
130.544
20
-104.28
11
130.632
21
-104.115
0
LINE
8
BLACK
6
CONTINUOUS
10
130.632
20
-104.115
11
130.686
21
-103.936
0
LINE
8
BLACK
6
CONTINUOUS
10
130.686
20
-103.936
11
130.705
21
-103.75
0
LINE
8
BLACK
6
CONTINUOUS
10
130.705
20
-103.75
11
130.686
21
-103.564
0
LINE
8
BLACK
6
CONTINUOUS
10
130.686
20
-103.564
11
130.632
21
-103.385
0
LINE
8
BLACK
6
CONTINUOUS
10
130.632
20
-103.385
11
130.544
21
-103.22
0
LINE
8
BLACK
6
CONTINUOUS
10
130.544
20
-103.22
11
130.425
21
-103.075
0
LINE
8
BLACK
6
CONTINUOUS
10
130.425
20
-103.075
11
130.28
21
-102.956
0
LINE
8
BLACK
6
CONTINUOUS
10
130.28
20
-102.956
11
130.115
21
-102.868
0
LINE
8
BLACK
6
CONTINUOUS
10
130.115
20
-102.868
11
129.936
21
-102.814
0
LINE
8
BLACK
6
CONTINUOUS
10
129.936
20
-102.814
11
129.75
21
-102.795
0
LINE
8
BLACK
6
CONTINUOUS
10
129.75
20
-102.795
11
129.564
21
-102.814
0
LINE
8
BLACK
6
CONTINUOUS
10
129.564
20
-102.814
11
129.385
21
-102.868
0
LINE
8
BLACK
6
CONTINUOUS
10
129.385
20
-102.868
11
129.22
21
-102.956
0
LINE
8
BLACK
6
CONTINUOUS
10
129.22
20
-102.956
11
129.075
21
-103.075
0
LINE
8
BLACK
6
CONTINUOUS
10
129.075
20
-103.075
11
128.956
21
-103.22
0
LINE
8
BLACK
6
CONTINUOUS
10
128.956
20
-103.22
11
128.868
21
-103.385
0
LINE
8
BLACK
6
CONTINUOUS
10
128.868
20
-103.385
11
128.814
21
-103.564
0
LINE
8
BLACK
6
CONTINUOUS
10
128.814
20
-103.564
11
128.795
21
-103.75
0
LINE
8
BLACK
6
CONTINUOUS
10
172
20
-89.95
11
172.122
21
-89.9638
0
LINE
8
BLACK
6
CONTINUOUS
10
172.122
20
-89.9638
11
172.239
21
-90.0045
0
LINE
8
BLACK
6
CONTINUOUS
10
172.239
20
-90.0045
11
172.343
21
-90.07
0
LINE
8
BLACK
6
CONTINUOUS
10
172.343
20
-90.07
11
172.43
21
-90.1571
0
LINE
8
BLACK
6
CONTINUOUS
10
172.43
20
-90.1571
11
172.496
21
-90.2614
0
LINE
8
BLACK
6
CONTINUOUS
10
172.496
20
-90.2614
11
172.536
21
-90.3776
0
LINE
8
BLACK
6
CONTINUOUS
10
172.536
20
-90.3776
11
172.55
21
-90.5
0
LINE
8
BLACK
6
CONTINUOUS
10
172.55
20
-90.5
11
172.55
21
-92
0
LINE
8
BLACK
6
CONTINUOUS
10
172.55
20
-92
11
172.535
21
-92.0354
0
LINE
8
BLACK
6
CONTINUOUS
10
172.535
20
-92.0354
11
172.5
21
-92.05
0
LINE
8
BLACK
6
CONTINUOUS
10
172.5
20
-92.05
11
169
21
-92.05
0
LINE
8
BLACK
6
CONTINUOUS
10
169
20
-92.05
11
168.994
21
-92.0476
0
LINE
8
BLACK
6
CONTINUOUS
10
168.994
20
-92.0476
11
168.985
21
-92.0476
0
LINE
8
BLACK
6
CONTINUOUS
10
168.985
20
-92.0476
11
168.972
21
-92.0384
0
LINE
8
BLACK
6
CONTINUOUS
10
168.972
20
-92.0384
11
168.965
21
-92.0354
0
LINE
8
BLACK
6
CONTINUOUS
10
168.965
20
-92.0354
11
168.963
21
-92.0321
0
LINE
8
BLACK
6
CONTINUOUS
10
168.963
20
-92.0321
11
168.96
21
-92.0294
0
LINE
8
BLACK
6
CONTINUOUS
10
168.96
20
-92.0294
11
168.95
21
-92
0
LINE
8
BLACK
6
CONTINUOUS
10
168.95
20
-92
11
168.95
21
-91.9372
0
LINE
8
BLACK
6
CONTINUOUS
10
168.95
20
-91.9372
11
168.916
21
-91.8165
0
LINE
8
BLACK
6
CONTINUOUS
10
168.916
20
-91.8165
11
168.849
21
-91.7098
0
LINE
8
BLACK
6
CONTINUOUS
10
168.849
20
-91.7098
11
168.757
21
-91.6253
0
LINE
8
BLACK
6
CONTINUOUS
10
168.757
20
-91.6253
11
168.644
21
-91.5693
0
LINE
8
BLACK
6
CONTINUOUS
10
168.644
20
-91.5693
11
168.521
21
-91.5463
0
LINE
8
BLACK
6
CONTINUOUS
10
168.521
20
-91.5463
11
168.396
21
-91.5578
0
LINE
8
BLACK
6
CONTINUOUS
10
168.396
20
-91.5578
11
168.279
21
-91.6032
0
LINE
8
BLACK
6
CONTINUOUS
10
168.279
20
-91.6032
11
168.179
21
-91.6788
0
LINE
8
BLACK
6
CONTINUOUS
10
168.179
20
-91.6788
11
168.103
21
-91.779
0
LINE
8
BLACK
6
CONTINUOUS
10
168.103
20
-91.779
11
168.058
21
-91.896
0
LINE
8
BLACK
6
CONTINUOUS
10
168.058
20
-91.896
11
168.046
21
-92.021
0
LINE
8
BLACK
6
CONTINUOUS
10
168.046
20
-92.021
11
168.069
21
-92.1444
0
LINE
8
BLACK
6
CONTINUOUS
10
168.069
20
-92.1444
11
168.125
21
-92.2567
0
LINE
8
BLACK
6
CONTINUOUS
10
168.125
20
-92.2567
11
168.21
21
-92.3495
0
LINE
8
BLACK
6
CONTINUOUS
10
168.21
20
-92.3495
11
168.317
21
-92.4155
0
LINE
8
BLACK
6
CONTINUOUS
10
168.317
20
-92.4155
11
168.437
21
-92.4499
0
LINE
8
BLACK
6
CONTINUOUS
10
168.437
20
-92.4499
11
168.5
21
-92.45
0
LINE
8
BLACK
6
CONTINUOUS
10
168.5
20
-92.45
11
168.529
21
-92.4595
0
LINE
8
BLACK
6
CONTINUOUS
10
168.529
20
-92.4595
11
168.532
21
-92.4633
0
LINE
8
BLACK
6
CONTINUOUS
10
168.532
20
-92.4633
11
168.535
21
-92.4646
0
LINE
8
BLACK
6
CONTINUOUS
10
168.535
20
-92.4646
11
168.538
21
-92.4719
0
LINE
8
BLACK
6
CONTINUOUS
10
168.538
20
-92.4719
11
168.548
21
-92.4845
0
LINE
8
BLACK
6
CONTINUOUS
10
168.548
20
-92.4845
11
168.548
21
-92.4941
0
LINE
8
BLACK
6
CONTINUOUS
10
168.548
20
-92.4941
11
168.55
21
-92.5
0
LINE
8
BLACK
6
CONTINUOUS
10
168.55
20
-92.5
11
168.55
21
-93.1
0
LINE
8
BLACK
6
CONTINUOUS
10
168.55
20
-93.1
11
168.548
21
-93.1059
0
LINE
8
BLACK
6
CONTINUOUS
10
168.548
20
-93.1059
11
168.548
21
-93.1155
0
LINE
8
BLACK
6
CONTINUOUS
10
168.548
20
-93.1155
11
168.538
21
-93.1281
0
LINE
8
BLACK
6
CONTINUOUS
10
168.538
20
-93.1281
11
168.535
21
-93.1354
0
LINE
8
BLACK
6
CONTINUOUS
10
168.535
20
-93.1354
11
168.532
21
-93.1367
0
LINE
8
BLACK
6
CONTINUOUS
10
168.532
20
-93.1367
11
168.529
21
-93.1405
0
LINE
8
BLACK
6
CONTINUOUS
10
168.529
20
-93.1405
11
168.5
21
-93.15
0
LINE
8
BLACK
6
CONTINUOUS
10
168.5
20
-93.15
11
168.437
21
-93.1501
0
LINE
8
BLACK
6
CONTINUOUS
10
168.437
20
-93.1501
11
168.317
21
-93.1845
0
LINE
8
BLACK
6
CONTINUOUS
10
168.317
20
-93.1845
11
168.21
21
-93.2505
0
LINE
8
BLACK
6
CONTINUOUS
10
168.21
20
-93.2505
11
168.125
21
-93.3433
0
LINE
8
BLACK
6
CONTINUOUS
10
168.125
20
-93.3433
11
168.069
21
-93.4556
0
LINE
8
BLACK
6
CONTINUOUS
10
168.069
20
-93.4556
11
168.046
21
-93.579
0
LINE
8
BLACK
6
CONTINUOUS
10
168.046
20
-93.579
11
168.058
21
-93.704
0
LINE
8
BLACK
6
CONTINUOUS
10
168.058
20
-93.704
11
168.103
21
-93.821
0
LINE
8
BLACK
6
CONTINUOUS
10
168.103
20
-93.821
11
168.179
21
-93.9212
0
LINE
8
BLACK
6
CONTINUOUS
10
168.179
20
-93.9212
11
168.279
21
-93.9968
0
LINE
8
BLACK
6
CONTINUOUS
10
168.279
20
-93.9968
11
168.396
21
-94.0422
0
LINE
8
BLACK
6
CONTINUOUS
10
168.396
20
-94.0422
11
168.521
21
-94.0537
0
LINE
8
BLACK
6
CONTINUOUS
10
168.521
20
-94.0537
11
168.644
21
-94.0307
0
LINE
8
BLACK
6
CONTINUOUS
10
168.644
20
-94.0307
11
168.757
21
-93.9747
0
LINE
8
BLACK
6
CONTINUOUS
10
168.757
20
-93.9747
11
168.849
21
-93.8902
0
LINE
8
BLACK
6
CONTINUOUS
10
168.849
20
-93.8902
11
168.916
21
-93.7835
0
LINE
8
BLACK
6
CONTINUOUS
10
168.916
20
-93.7835
11
168.95
21
-93.6628
0
LINE
8
BLACK
6
CONTINUOUS
10
168.95
20
-93.6628
11
168.95
21
-93.6
0
LINE
8
BLACK
6
CONTINUOUS
10
168.95
20
-93.6
11
168.96
21
-93.5706
0
LINE
8
BLACK
6
CONTINUOUS
10
168.96
20
-93.5706
11
168.963
21
-93.5679
0
LINE
8
BLACK
6
CONTINUOUS
10
168.963
20
-93.5679
11
168.965
21
-93.5646
0
LINE
8
BLACK
6
CONTINUOUS
10
168.965
20
-93.5646
11
168.972
21
-93.5616
0
LINE
8
BLACK
6
CONTINUOUS
10
168.972
20
-93.5616
11
168.985
21
-93.5524
0
LINE
8
BLACK
6
CONTINUOUS
10
168.985
20
-93.5524
11
168.994
21
-93.5524
0
LINE
8
BLACK
6
CONTINUOUS
10
168.994
20
-93.5524
11
169
21
-93.55
0
LINE
8
BLACK
6
CONTINUOUS
10
169
20
-93.55
11
172.5
21
-93.55
0
LINE
8
BLACK
6
CONTINUOUS
10
172.5
20
-93.55
11
172.535
21
-93.5646
0
LINE
8
BLACK
6
CONTINUOUS
10
172.535
20
-93.5646
11
172.55
21
-93.6
0
LINE
8
BLACK
6
CONTINUOUS
10
172.55
20
-93.6
11
172.55
21
-105.95
0
LINE
8
BLACK
6
CONTINUOUS
10
172.55
20
-105.95
11
194.5
21
-105.95
0
LINE
8
BLACK
6
CONTINUOUS
10
194.5
20
-105.95
11
194.622
21
-105.964
0
LINE
8
BLACK
6
CONTINUOUS
10
194.622
20
-105.964
11
194.739
21
-106.004
0
LINE
8
BLACK
6
CONTINUOUS
10
194.739
20
-106.004
11
194.843
21
-106.07
0
LINE
8
BLACK
6
CONTINUOUS
10
194.843
20
-106.07
11
194.93
21
-106.157
0
LINE
8
BLACK
6
CONTINUOUS
10
194.93
20
-106.157
11
194.996
21
-106.261
0
LINE
8
BLACK
6
CONTINUOUS
10
194.996
20
-106.261
11
195.036
21
-106.378
0
LINE
8
BLACK
6
CONTINUOUS
10
195.036
20
-106.378
11
195.05
21
-106.5
0
LINE
8
BLACK
6
CONTINUOUS
10
195.05
20
-106.5
11
195.05
21
-149.5
0
LINE
8
BLACK
6
CONTINUOUS
10
195.05
20
-149.5
11
195.036
21
-149.622
0
LINE
8
BLACK
6
CONTINUOUS
10
195.036
20
-149.622
11
194.996
21
-149.739
0
LINE
8
BLACK
6
CONTINUOUS
10
194.996
20
-149.739
11
194.93
21
-149.843
0
LINE
8
BLACK
6
CONTINUOUS
10
194.93
20
-149.843
11
194.843
21
-149.93
0
LINE
8
BLACK
6
CONTINUOUS
10
194.843
20
-149.93
11
194.739
21
-149.996
0
LINE
8
BLACK
6
CONTINUOUS
10
194.739
20
-149.996
11
194.622
21
-150.036
0
LINE
8
BLACK
6
CONTINUOUS
10
194.622
20
-150.036
11
194.5
21
-150.05
0
LINE
8
BLACK
6
CONTINUOUS
10
194.5
20
-150.05
11
188
21
-150.05
0
LINE
8
BLACK
6
CONTINUOUS
10
188
20
-150.05
11
187.994
21
-150.048
0
LINE
8
BLACK
6
CONTINUOUS
10
187.994
20
-150.048
11
187.985
21
-150.048
0
LINE
8
BLACK
6
CONTINUOUS
10
187.985
20
-150.048
11
187.972
21
-150.038
0
LINE
8
BLACK
6
CONTINUOUS
10
187.972
20
-150.038
11
187.965
21
-150.035
0
LINE
8
BLACK
6
CONTINUOUS
10
187.965
20
-150.035
11
187.963
21
-150.032
0
LINE
8
BLACK
6
CONTINUOUS
10
187.963
20
-150.032
11
187.96
21
-150.029
0
LINE
8
BLACK
6
CONTINUOUS
10
187.96
20
-150.029
11
187.95
21
-150
0
LINE
8
BLACK
6
CONTINUOUS
10
187.95
20
-150
11
187.95
21
-149.937
0
LINE
8
BLACK
6
CONTINUOUS
10
187.95
20
-149.937
11
187.916
21
-149.817
0
LINE
8
BLACK
6
CONTINUOUS
10
187.916
20
-149.817
11
187.849
21
-149.71
0
LINE
8
BLACK
6
CONTINUOUS
10
187.849
20
-149.71
11
187.757
21
-149.625
0
LINE
8
BLACK
6
CONTINUOUS
10
187.757
20
-149.625
11
187.644
21
-149.569
0
LINE
8
BLACK
6
CONTINUOUS
10
187.644
20
-149.569
11
187.521
21
-149.546
0
LINE
8
BLACK
6
CONTINUOUS
10
187.521
20
-149.546
11
187.396
21
-149.558
0
LINE
8
BLACK
6
CONTINUOUS
10
187.396
20
-149.558
11
187.279
21
-149.603
0
LINE
8
BLACK
6
CONTINUOUS
10
187.279
20
-149.603
11
187.179
21
-149.679
0
LINE
8
BLACK
6
CONTINUOUS
10
187.179
20
-149.679
11
187.103
21
-149.779
0
LINE
8
BLACK
6
CONTINUOUS
10
187.103
20
-149.779
11
187.058
21
-149.896
0
LINE
8
BLACK
6
CONTINUOUS
10
187.058
20
-149.896
11
187.046
21
-150.021
0
LINE
8
BLACK
6
CONTINUOUS
10
187.046
20
-150.021
11
187.069
21
-150.144
0
LINE
8
BLACK
6
CONTINUOUS
10
187.069
20
-150.144
11
187.125
21
-150.257
0
LINE
8
BLACK
6
CONTINUOUS
10
187.125
20
-150.257
11
187.21
21
-150.349
0
LINE
8
BLACK
6
CONTINUOUS
10
187.21
20
-150.349
11
187.317
21
-150.416
0
LINE
8
BLACK
6
CONTINUOUS
10
187.317
20
-150.416
11
187.437
21
-150.45
0
LINE
8
BLACK
6
CONTINUOUS
10
187.437
20
-150.45
11
187.5
21
-150.45
0
LINE
8
BLACK
6
CONTINUOUS
10
187.5
20
-150.45
11
187.529
21
-150.46
0
LINE
8
BLACK
6
CONTINUOUS
10
187.529
20
-150.46
11
187.532
21
-150.463
0
LINE
8
BLACK
6
CONTINUOUS
10
187.532
20
-150.463
11
187.535
21
-150.465
0
LINE
8
BLACK
6
CONTINUOUS
10
187.535
20
-150.465
11
187.538
21
-150.472
0
LINE
8
BLACK
6
CONTINUOUS
10
187.538
20
-150.472
11
187.548
21
-150.485
0
LINE
8
BLACK
6
CONTINUOUS
10
187.548
20
-150.485
11
187.548
21
-150.494
0
LINE
8
BLACK
6
CONTINUOUS
10
187.548
20
-150.494
11
187.55
21
-150.5
0
LINE
8
BLACK
6
CONTINUOUS
10
187.55
20
-150.5
11
187.55
21
-152.5
0
LINE
8
BLACK
6
CONTINUOUS
10
187.55
20
-152.5
11
187.548
21
-152.506
0
LINE
8
BLACK
6
CONTINUOUS
10
187.548
20
-152.506
11
187.548
21
-152.515
0
LINE
8
BLACK
6
CONTINUOUS
10
187.548
20
-152.515
11
187.538
21
-152.528
0
LINE
8
BLACK
6
CONTINUOUS
10
187.538
20
-152.528
11
187.535
21
-152.535
0
LINE
8
BLACK
6
CONTINUOUS
10
187.535
20
-152.535
11
187.532
21
-152.537
0
LINE
8
BLACK
6
CONTINUOUS
10
187.532
20
-152.537
11
187.529
21
-152.54
0
LINE
8
BLACK
6
CONTINUOUS
10
187.529
20
-152.54
11
187.5
21
-152.55
0
LINE
8
BLACK
6
CONTINUOUS
10
187.5
20
-152.55
11
187.437
21
-152.55
0
LINE
8
BLACK
6
CONTINUOUS
10
187.437
20
-152.55
11
187.317
21
-152.584
0
LINE
8
BLACK
6
CONTINUOUS
10
187.317
20
-152.584
11
187.21
21
-152.651
0
LINE
8
BLACK
6
CONTINUOUS
10
187.21
20
-152.651
11
187.125
21
-152.743
0
LINE
8
BLACK
6
CONTINUOUS
10
187.125
20
-152.743
11
187.069
21
-152.856
0
LINE
8
BLACK
6
CONTINUOUS
10
187.069
20
-152.856
11
187.046
21
-152.979
0
LINE
8
BLACK
6
CONTINUOUS
10
187.046
20
-152.979
11
187.058
21
-153.104
0
LINE
8
BLACK
6
CONTINUOUS
10
187.058
20
-153.104
11
187.103
21
-153.221
0
LINE
8
BLACK
6
CONTINUOUS
10
187.103
20
-153.221
11
187.179
21
-153.321
0
LINE
8
BLACK
6
CONTINUOUS
10
187.179
20
-153.321
11
187.279
21
-153.397
0
LINE
8
BLACK
6
CONTINUOUS
10
187.279
20
-153.397
11
187.396
21
-153.442
0
LINE
8
BLACK
6
CONTINUOUS
10
187.396
20
-153.442
11
187.521
21
-153.454
0
LINE
8
BLACK
6
CONTINUOUS
10
187.521
20
-153.454
11
187.644
21
-153.431
0
LINE
8
BLACK
6
CONTINUOUS
10
187.644
20
-153.431
11
187.757
21
-153.375
0
LINE
8
BLACK
6
CONTINUOUS
10
187.757
20
-153.375
11
187.849
21
-153.29
0
LINE
8
BLACK
6
CONTINUOUS
10
187.849
20
-153.29
11
187.916
21
-153.183
0
LINE
8
BLACK
6
CONTINUOUS
10
187.916
20
-153.183
11
187.95
21
-153.063
0
LINE
8
BLACK
6
CONTINUOUS
10
187.95
20
-153.063
11
187.95
21
-153
0
LINE
8
BLACK
6
CONTINUOUS
10
187.95
20
-153
11
187.96
21
-152.971
0
LINE
8
BLACK
6
CONTINUOUS
10
187.96
20
-152.971
11
187.963
21
-152.968
0
LINE
8
BLACK
6
CONTINUOUS
10
187.963
20
-152.968
11
187.965
21
-152.965
0
LINE
8
BLACK
6
CONTINUOUS
10
187.965
20
-152.965
11
187.972
21
-152.962
0
LINE
8
BLACK
6
CONTINUOUS
10
187.972
20
-152.962
11
187.985
21
-152.952
0
LINE
8
BLACK
6
CONTINUOUS
10
187.985
20
-152.952
11
187.994
21
-152.952
0
LINE
8
BLACK
6
CONTINUOUS
10
187.994
20
-152.952
11
188
21
-152.95
0
LINE
8
BLACK
6
CONTINUOUS
10
188
20
-152.95
11
194.5
21
-152.95
0
LINE
8
BLACK
6
CONTINUOUS
10
194.5
20
-152.95
11
194.622
21
-152.964
0
LINE
8
BLACK
6
CONTINUOUS
10
194.622
20
-152.964
11
194.739
21
-153.004
0
LINE
8
BLACK
6
CONTINUOUS
10
194.739
20
-153.004
11
194.843
21
-153.07
0
LINE
8
BLACK
6
CONTINUOUS
10
194.843
20
-153.07
11
194.93
21
-153.157
0
LINE
8
BLACK
6
CONTINUOUS
10
194.93
20
-153.157
11
194.996
21
-153.261
0
LINE
8
BLACK
6
CONTINUOUS
10
194.996
20
-153.261
11
195.036
21
-153.378
0
LINE
8
BLACK
6
CONTINUOUS
10
195.036
20
-153.378
11
195.05
21
-153.5
0
LINE
8
BLACK
6
CONTINUOUS
10
195.05
20
-153.5
11
195.05
21
-153.5
0
LINE
8
BLACK
6
CONTINUOUS
10
195.05
20
-153.5
11
195.05
21
-155.5
0
LINE
8
BLACK
6
CONTINUOUS
10
195.05
20
-155.5
11
195.036
21
-155.622
0
LINE
8
BLACK
6
CONTINUOUS
10
195.036
20
-155.622
11
194.996
21
-155.739
0
LINE
8
BLACK
6
CONTINUOUS
10
194.996
20
-155.739
11
194.93
21
-155.843
0
LINE
8
BLACK
6
CONTINUOUS
10
194.93
20
-155.843
11
194.843
21
-155.93
0
LINE
8
BLACK
6
CONTINUOUS
10
194.843
20
-155.93
11
194.739
21
-155.996
0
LINE
8
BLACK
6
CONTINUOUS
10
194.739
20
-155.996
11
194.622
21
-156.036
0
LINE
8
BLACK
6
CONTINUOUS
10
194.622
20
-156.036
11
194.5
21
-156.05
0
LINE
8
BLACK
6
CONTINUOUS
10
194.5
20
-156.05
11
169.25
21
-156.05
0
LINE
8
BLACK
6
CONTINUOUS
10
169.25
20
-156.05
11
169.236
21
-156.044
0
LINE
8
BLACK
6
CONTINUOUS
10
169.236
20
-156.044
11
169.221
21
-156.041
0
LINE
8
BLACK
6
CONTINUOUS
10
169.221
20
-156.041
11
169.219
21
-156.037
0
LINE
8
BLACK
6
CONTINUOUS
10
169.219
20
-156.037
11
169.215
21
-156.035
0
LINE
8
BLACK
6
CONTINUOUS
10
169.215
20
-156.035
11
169.209
21
-156.021
0
LINE
8
BLACK
6
CONTINUOUS
10
169.209
20
-156.021
11
169.201
21
-156.008
0
LINE
8
BLACK
6
CONTINUOUS
10
169.201
20
-156.008
11
168.701
21
-153.008
0
LINE
8
BLACK
6
CONTINUOUS
10
168.701
20
-153.008
11
168.702
21
-153.004
0
LINE
8
BLACK
6
CONTINUOUS
10
168.702
20
-153.004
11
168.7
21
-153
0
LINE
8
BLACK
6
CONTINUOUS
10
168.7
20
-153
11
168.706
21
-152.986
0
LINE
8
BLACK
6
CONTINUOUS
10
168.706
20
-152.986
11
168.709
21
-152.971
0
LINE
8
BLACK
6
CONTINUOUS
10
168.709
20
-152.971
11
168.713
21
-152.969
0
LINE
8
BLACK
6
CONTINUOUS
10
168.713
20
-152.969
11
168.715
21
-152.965
0
LINE
8
BLACK
6
CONTINUOUS
10
168.715
20
-152.965
11
168.729
21
-152.959
0
LINE
8
BLACK
6
CONTINUOUS
10
168.729
20
-152.959
11
168.742
21
-152.951
0
LINE
8
BLACK
6
CONTINUOUS
10
168.742
20
-152.951
11
168.746
21
-152.952
0
LINE
8
BLACK
6
CONTINUOUS
10
168.746
20
-152.952
11
168.75
21
-152.95
0
LINE
8
BLACK
6
CONTINUOUS
10
168.75
20
-152.95
11
175.75
21
-152.95
0
LINE
8
BLACK
6
CONTINUOUS
10
175.75
20
-152.95
11
175.756
21
-152.952
0
LINE
8
BLACK
6
CONTINUOUS
10
175.756
20
-152.952
11
175.765
21
-152.952
0
LINE
8
BLACK
6
CONTINUOUS
10
175.765
20
-152.952
11
175.778
21
-152.962
0
LINE
8
BLACK
6
CONTINUOUS
10
175.778
20
-152.962
11
175.785
21
-152.965
0
LINE
8
BLACK
6
CONTINUOUS
10
175.785
20
-152.965
11
175.787
21
-152.968
0
LINE
8
BLACK
6
CONTINUOUS
10
175.787
20
-152.968
11
175.79
21
-152.971
0
LINE
8
BLACK
6
CONTINUOUS
10
175.79
20
-152.971
11
175.8
21
-153
0
LINE
8
BLACK
6
CONTINUOUS
10
175.8
20
-153
11
175.8
21
-153.063
0
LINE
8
BLACK
6
CONTINUOUS
10
175.8
20
-153.063
11
175.834
21
-153.183
0
LINE
8
BLACK
6
CONTINUOUS
10
175.834
20
-153.183
11
175.901
21
-153.29
0
LINE
8
BLACK
6
CONTINUOUS
10
175.901
20
-153.29
11
175.993
21
-153.375
0
LINE
8
BLACK
6
CONTINUOUS
10
175.993
20
-153.375
11
176.106
21
-153.431
0
LINE
8
BLACK
6
CONTINUOUS
10
176.106
20
-153.431
11
176.229
21
-153.454
0
LINE
8
BLACK
6
CONTINUOUS
10
176.229
20
-153.454
11
176.354
21
-153.442
0
LINE
8
BLACK
6
CONTINUOUS
10
176.354
20
-153.442
11
176.471
21
-153.397
0
LINE
8
BLACK
6
CONTINUOUS
10
176.471
20
-153.397
11
176.571
21
-153.321
0
LINE
8
BLACK
6
CONTINUOUS
10
176.571
20
-153.321
11
176.647
21
-153.221
0
LINE
8
BLACK
6
CONTINUOUS
10
176.647
20
-153.221
11
176.692
21
-153.104
0
LINE
8
BLACK
6
CONTINUOUS
10
176.692
20
-153.104
11
176.704
21
-152.979
0
LINE
8
BLACK
6
CONTINUOUS
10
176.704
20
-152.979
11
176.681
21
-152.856
0
LINE
8
BLACK
6
CONTINUOUS
10
176.681
20
-152.856
11
176.625
21
-152.743
0
LINE
8
BLACK
6
CONTINUOUS
10
176.625
20
-152.743
11
176.54
21
-152.651
0
LINE
8
BLACK
6
CONTINUOUS
10
176.54
20
-152.651
11
176.433
21
-152.584
0
LINE
8
BLACK
6
CONTINUOUS
10
176.433
20
-152.584
11
176.313
21
-152.55
0
LINE
8
BLACK
6
CONTINUOUS
10
176.313
20
-152.55
11
176.25
21
-152.55
0
LINE
8
BLACK
6
CONTINUOUS
10
176.25
20
-152.55
11
176.221
21
-152.54
0
LINE
8
BLACK
6
CONTINUOUS
10
176.221
20
-152.54
11
176.218
21
-152.537
0
LINE
8
BLACK
6
CONTINUOUS
10
176.218
20
-152.537
11
176.215
21
-152.535
0
LINE
8
BLACK
6
CONTINUOUS
10
176.215
20
-152.535
11
176.212
21
-152.528
0
LINE
8
BLACK
6
CONTINUOUS
10
176.212
20
-152.528
11
176.202
21
-152.515
0
LINE
8
BLACK
6
CONTINUOUS
10
176.202
20
-152.515
11
176.202
21
-152.506
0
LINE
8
BLACK
6
CONTINUOUS
10
176.202
20
-152.506
11
176.2
21
-152.5
0
LINE
8
BLACK
6
CONTINUOUS
10
176.2
20
-152.5
11
176.2
21
-150.5
0
LINE
8
BLACK
6
CONTINUOUS
10
176.2
20
-150.5
11
176.202
21
-150.494
0
LINE
8
BLACK
6
CONTINUOUS
10
176.202
20
-150.494
11
176.202
21
-150.485
0
LINE
8
BLACK
6
CONTINUOUS
10
176.202
20
-150.485
11
176.212
21
-150.472
0
LINE
8
BLACK
6
CONTINUOUS
10
176.212
20
-150.472
11
176.215
21
-150.465
0
LINE
8
BLACK
6
CONTINUOUS
10
176.215
20
-150.465
11
176.218
21
-150.463
0
LINE
8
BLACK
6
CONTINUOUS
10
176.218
20
-150.463
11
176.221
21
-150.46
0
LINE
8
BLACK
6
CONTINUOUS
10
176.221
20
-150.46
11
176.25
21
-150.45
0
LINE
8
BLACK
6
CONTINUOUS
10
176.25
20
-150.45
11
176.313
21
-150.45
0
LINE
8
BLACK
6
CONTINUOUS
10
176.313
20
-150.45
11
176.433
21
-150.416
0
LINE
8
BLACK
6
CONTINUOUS
10
176.433
20
-150.416
11
176.54
21
-150.349
0
LINE
8
BLACK
6
CONTINUOUS
10
176.54
20
-150.349
11
176.625
21
-150.257
0
LINE
8
BLACK
6
CONTINUOUS
10
176.625
20
-150.257
11
176.681
21
-150.144
0
LINE
8
BLACK
6
CONTINUOUS
10
176.681
20
-150.144
11
176.704
21
-150.021
0
LINE
8
BLACK
6
CONTINUOUS
10
176.704
20
-150.021
11
176.692
21
-149.896
0
LINE
8
BLACK
6
CONTINUOUS
10
176.692
20
-149.896
11
176.647
21
-149.779
0
LINE
8
BLACK
6
CONTINUOUS
10
176.647
20
-149.779
11
176.571
21
-149.679
0
LINE
8
BLACK
6
CONTINUOUS
10
176.571
20
-149.679
11
176.471
21
-149.603
0
LINE
8
BLACK
6
CONTINUOUS
10
176.471
20
-149.603
11
176.354
21
-149.558
0
LINE
8
BLACK
6
CONTINUOUS
10
176.354
20
-149.558
11
176.229
21
-149.546
0
LINE
8
BLACK
6
CONTINUOUS
10
176.229
20
-149.546
11
176.106
21
-149.569
0
LINE
8
BLACK
6
CONTINUOUS
10
176.106
20
-149.569
11
175.993
21
-149.625
0
LINE
8
BLACK
6
CONTINUOUS
10
175.993
20
-149.625
11
175.901
21
-149.71
0
LINE
8
BLACK
6
CONTINUOUS
10
175.901
20
-149.71
11
175.834
21
-149.817
0
LINE
8
BLACK
6
CONTINUOUS
10
175.834
20
-149.817
11
175.8
21
-149.937
0
LINE
8
BLACK
6
CONTINUOUS
10
175.8
20
-149.937
11
175.8
21
-150
0
LINE
8
BLACK
6
CONTINUOUS
10
175.8
20
-150
11
175.79
21
-150.029
0
LINE
8
BLACK
6
CONTINUOUS
10
175.79
20
-150.029
11
175.787
21
-150.032
0
LINE
8
BLACK
6
CONTINUOUS
10
175.787
20
-150.032
11
175.785
21
-150.035
0
LINE
8
BLACK
6
CONTINUOUS
10
175.785
20
-150.035
11
175.778
21
-150.038
0
LINE
8
BLACK
6
CONTINUOUS
10
175.778
20
-150.038
11
175.765
21
-150.048
0
LINE
8
BLACK
6
CONTINUOUS
10
175.765
20
-150.048
11
175.756
21
-150.048
0
LINE
8
BLACK
6
CONTINUOUS
10
175.756
20
-150.048
11
175.75
21
-150.05
0
LINE
8
BLACK
6
CONTINUOUS
10
175.75
20
-150.05
11
150
21
-150.05
0
LINE
8
BLACK
6
CONTINUOUS
10
150
20
-150.05
11
132.55
21
-150.05
0
LINE
8
BLACK
6
CONTINUOUS
10
132.55
20
-150.05
11
132.55
21
-151.162
0
LINE
8
BLACK
6
CONTINUOUS
10
132.55
20
-151.162
11
134.013
21
-151.552
0
LINE
8
BLACK
6
CONTINUOUS
10
134.013
20
-151.552
11
134.023
21
-151.56
0
LINE
8
BLACK
6
CONTINUOUS
10
134.023
20
-151.56
11
134.035
21
-151.565
0
LINE
8
BLACK
6
CONTINUOUS
10
134.035
20
-151.565
11
134.038
21
-151.571
0
LINE
8
BLACK
6
CONTINUOUS
10
134.038
20
-151.571
11
134.043
21
-151.575
0
LINE
8
BLACK
6
CONTINUOUS
10
134.043
20
-151.575
11
134.045
21
-151.588
0
LINE
8
BLACK
6
CONTINUOUS
10
134.045
20
-151.588
11
134.05
21
-151.6
0
LINE
8
BLACK
6
CONTINUOUS
10
134.05
20
-151.6
11
134.05
21
-156
0
LINE
8
BLACK
6
CONTINUOUS
10
134.05
20
-156
11
134.035
21
-156.035
0
LINE
8
BLACK
6
CONTINUOUS
10
134.035
20
-156.035
11
134
21
-156.05
0
LINE
8
BLACK
6
CONTINUOUS
10
134
20
-156.05
11
105.5
21
-156.05
0
LINE
8
BLACK
6
CONTINUOUS
10
105.5
20
-156.05
11
105.378
21
-156.036
0
LINE
8
BLACK
6
CONTINUOUS
10
105.378
20
-156.036
11
105.261
21
-155.996
0
LINE
8
BLACK
6
CONTINUOUS
10
105.261
20
-155.996
11
105.157
21
-155.93
0
LINE
8
BLACK
6
CONTINUOUS
10
105.157
20
-155.93
11
105.07
21
-155.843
0
LINE
8
BLACK
6
CONTINUOUS
10
105.07
20
-155.843
11
105.004
21
-155.739
0
LINE
8
BLACK
6
CONTINUOUS
10
105.004
20
-155.739
11
104.964
21
-155.622
0
LINE
8
BLACK
6
CONTINUOUS
10
104.964
20
-155.622
11
104.95
21
-155.5
0
LINE
8
BLACK
6
CONTINUOUS
10
104.95
20
-155.5
11
104.95
21
-150
0
LINE
8
BLACK
6
CONTINUOUS
10
104.95
20
-150
11
104.95
21
-106.5
0
LINE
8
BLACK
6
CONTINUOUS
10
104.95
20
-106.5
11
104.964
21
-106.378
0
LINE
8
BLACK
6
CONTINUOUS
10
104.964
20
-106.378
11
105.004
21
-106.261
0
LINE
8
BLACK
6
CONTINUOUS
10
105.004
20
-106.261
11
105.07
21
-106.157
0
LINE
8
BLACK
6
CONTINUOUS
10
105.07
20
-106.157
11
105.157
21
-106.07
0
LINE
8
BLACK
6
CONTINUOUS
10
105.157
20
-106.07
11
105.261
21
-106.004
0
LINE
8
BLACK
6
CONTINUOUS
10
105.261
20
-106.004
11
105.378
21
-105.964
0
LINE
8
BLACK
6
CONTINUOUS
10
105.378
20
-105.964
11
105.5
21
-105.95
0
LINE
8
BLACK
6
CONTINUOUS
10
105.5
20
-105.95
11
127.45
21
-105.95
0
LINE
8
BLACK
6
CONTINUOUS
10
127.45
20
-105.95
11
127.45
21
-93.6
0
LINE
8
BLACK
6
CONTINUOUS
10
127.45
20
-93.6
11
127.465
21
-93.5646
0
LINE
8
BLACK
6
CONTINUOUS
10
127.465
20
-93.5646
11
127.5
21
-93.55
0
LINE
8
BLACK
6
CONTINUOUS
10
127.5
20
-93.55
11
131
21
-93.55
0
LINE
8
BLACK
6
CONTINUOUS
10
131
20
-93.55
11
131.006
21
-93.5524
0
LINE
8
BLACK
6
CONTINUOUS
10
131.006
20
-93.5524
11
131.015
21
-93.5524
0
LINE
8
BLACK
6
CONTINUOUS
10
131.015
20
-93.5524
11
131.028
21
-93.5616
0
LINE
8
BLACK
6
CONTINUOUS
10
131.028
20
-93.5616
11
131.035
21
-93.5646
0
LINE
8
BLACK
6
CONTINUOUS
10
131.035
20
-93.5646
11
131.037
21
-93.5679
0
LINE
8
BLACK
6
CONTINUOUS
10
131.037
20
-93.5679
11
131.04
21
-93.5706
0
LINE
8
BLACK
6
CONTINUOUS
10
131.04
20
-93.5706
11
131.05
21
-93.6
0
LINE
8
BLACK
6
CONTINUOUS
10
131.05
20
-93.6
11
131.05
21
-93.6628
0
LINE
8
BLACK
6
CONTINUOUS
10
131.05
20
-93.6628
11
131.084
21
-93.7835
0
LINE
8
BLACK
6
CONTINUOUS
10
131.084
20
-93.7835
11
131.151
21
-93.8902
0
LINE
8
BLACK
6
CONTINUOUS
10
131.151
20
-93.8902
11
131.243
21
-93.9747
0
LINE
8
BLACK
6
CONTINUOUS
10
131.243
20
-93.9747
11
131.356
21
-94.0307
0
LINE
8
BLACK
6
CONTINUOUS
10
131.356
20
-94.0307
11
131.479
21
-94.0537
0
LINE
8
BLACK
6
CONTINUOUS
10
131.479
20
-94.0537
11
131.604
21
-94.0422
0
LINE
8
BLACK
6
CONTINUOUS
10
131.604
20
-94.0422
11
131.721
21
-93.9968
0
LINE
8
BLACK
6
CONTINUOUS
10
131.721
20
-93.9968
11
131.821
21
-93.9212
0
LINE
8
BLACK
6
CONTINUOUS
10
131.821
20
-93.9212
11
131.897
21
-93.821
0
LINE
8
BLACK
6
CONTINUOUS
10
131.897
20
-93.821
11
131.942
21
-93.704
0
LINE
8
BLACK
6
CONTINUOUS
10
131.942
20
-93.704
11
131.954
21
-93.579
0
LINE
8
BLACK
6
CONTINUOUS
10
131.954
20
-93.579
11
131.931
21
-93.4556
0
LINE
8
BLACK
6
CONTINUOUS
10
131.931
20
-93.4556
11
131.875
21
-93.3433
0
LINE
8
BLACK
6
CONTINUOUS
10
131.875
20
-93.3433
11
131.79
21
-93.2505
0
LINE
8
BLACK
6
CONTINUOUS
10
131.79
20
-93.2505
11
131.683
21
-93.1845
0
LINE
8
BLACK
6
CONTINUOUS
10
131.683
20
-93.1845
11
131.563
21
-93.1501
0
LINE
8
BLACK
6
CONTINUOUS
10
131.563
20
-93.1501
11
131.5
21
-93.15
0
LINE
8
BLACK
6
CONTINUOUS
10
131.5
20
-93.15
11
131.471
21
-93.1405
0
LINE
8
BLACK
6
CONTINUOUS
10
131.471
20
-93.1405
11
131.468
21
-93.1367
0
LINE
8
BLACK
6
CONTINUOUS
10
131.468
20
-93.1367
11
131.465
21
-93.1354
0
LINE
8
BLACK
6
CONTINUOUS
10
131.465
20
-93.1354
11
131.462
21
-93.1281
0
LINE
8
BLACK
6
CONTINUOUS
10
131.462
20
-93.1281
11
131.452
21
-93.1155
0
LINE
8
BLACK
6
CONTINUOUS
10
131.452
20
-93.1155
11
131.452
21
-93.1059
0
LINE
8
BLACK
6
CONTINUOUS
10
131.452
20
-93.1059
11
131.45
21
-93.1
0
LINE
8
BLACK
6
CONTINUOUS
10
131.45
20
-93.1
11
131.45
21
-92.5
0
LINE
8
BLACK
6
CONTINUOUS
10
131.45
20
-92.5
11
131.452
21
-92.4941
0
LINE
8
BLACK
6
CONTINUOUS
10
131.452
20
-92.4941
11
131.452
21
-92.4845
0
LINE
8
BLACK
6
CONTINUOUS
10
131.452
20
-92.4845
11
131.462
21
-92.4719
0
LINE
8
BLACK
6
CONTINUOUS
10
131.462
20
-92.4719
11
131.465
21
-92.4646
0
LINE
8
BLACK
6
CONTINUOUS
10
131.465
20
-92.4646
11
131.468
21
-92.4633
0
LINE
8
BLACK
6
CONTINUOUS
10
131.468
20
-92.4633
11
131.471
21
-92.4595
0
LINE
8
BLACK
6
CONTINUOUS
10
131.471
20
-92.4595
11
131.5
21
-92.45
0
LINE
8
BLACK
6
CONTINUOUS
10
131.5
20
-92.45
11
131.563
21
-92.4499
0
LINE
8
BLACK
6
CONTINUOUS
10
131.563
20
-92.4499
11
131.683
21
-92.4155
0
LINE
8
BLACK
6
CONTINUOUS
10
131.683
20
-92.4155
11
131.79
21
-92.3495
0
LINE
8
BLACK
6
CONTINUOUS
10
131.79
20
-92.3495
11
131.875
21
-92.2567
0
LINE
8
BLACK
6
CONTINUOUS
10
131.875
20
-92.2567
11
131.931
21
-92.1444
0
LINE
8
BLACK
6
CONTINUOUS
10
131.931
20
-92.1444
11
131.954
21
-92.021
0
LINE
8
BLACK
6
CONTINUOUS
10
131.954
20
-92.021
11
131.942
21
-91.896
0
LINE
8
BLACK
6
CONTINUOUS
10
131.942
20
-91.896
11
131.897
21
-91.779
0
LINE
8
BLACK
6
CONTINUOUS
10
131.897
20
-91.779
11
131.821
21
-91.6788
0
LINE
8
BLACK
6
CONTINUOUS
10
131.821
20
-91.6788
11
131.721
21
-91.6032
0
LINE
8
BLACK
6
CONTINUOUS
10
131.721
20
-91.6032
11
131.604
21
-91.5578
0
LINE
8
BLACK
6
CONTINUOUS
10
131.604
20
-91.5578
11
131.479
21
-91.5463
0
LINE
8
BLACK
6
CONTINUOUS
10
131.479
20
-91.5463
11
131.356
21
-91.5693
0
LINE
8
BLACK
6
CONTINUOUS
10
131.356
20
-91.5693
11
131.243
21
-91.6253
0
LINE
8
BLACK
6
CONTINUOUS
10
131.243
20
-91.6253
11
131.151
21
-91.7098
0
LINE
8
BLACK
6
CONTINUOUS
10
131.151
20
-91.7098
11
131.084
21
-91.8165
0
LINE
8
BLACK
6
CONTINUOUS
10
131.084
20
-91.8165
11
131.05
21
-91.9372
0
LINE
8
BLACK
6
CONTINUOUS
10
131.05
20
-91.9372
11
131.05
21
-92
0
LINE
8
BLACK
6
CONTINUOUS
10
131.05
20
-92
11
131.04
21
-92.0294
0
LINE
8
BLACK
6
CONTINUOUS
10
131.04
20
-92.0294
11
131.037
21
-92.0321
0
LINE
8
BLACK
6
CONTINUOUS
10
131.037
20
-92.0321
11
131.035
21
-92.0354
0
LINE
8
BLACK
6
CONTINUOUS
10
131.035
20
-92.0354
11
131.028
21
-92.0384
0
LINE
8
BLACK
6
CONTINUOUS
10
131.028
20
-92.0384
11
131.015
21
-92.0476
0
LINE
8
BLACK
6
CONTINUOUS
10
131.015
20
-92.0476
11
131.006
21
-92.0476
0
LINE
8
BLACK
6
CONTINUOUS
10
131.006
20
-92.0476
11
131
21
-92.05
0
LINE
8
BLACK
6
CONTINUOUS
10
131
20
-92.05
11
127.5
21
-92.05
0
LINE
8
BLACK
6
CONTINUOUS
10
127.5
20
-92.05
11
127.465
21
-92.0354
0
LINE
8
BLACK
6
CONTINUOUS
10
127.465
20
-92.0354
11
127.45
21
-92
0
LINE
8
BLACK
6
CONTINUOUS
10
127.45
20
-92
11
127.45
21
-90.5
0
LINE
8
BLACK
6
CONTINUOUS
10
127.45
20
-90.5
11
127.45
21
-90.5
0
LINE
8
BLACK
6
CONTINUOUS
10
127.45
20
-90.5
11
127.464
21
-90.3776
0
LINE
8
BLACK
6
CONTINUOUS
10
127.464
20
-90.3776
11
127.504
21
-90.2614
0
LINE
8
BLACK
6
CONTINUOUS
10
127.504
20
-90.2614
11
127.57
21
-90.1571
0
LINE
8
BLACK
6
CONTINUOUS
10
127.57
20
-90.1571
11
127.657
21
-90.07
0
LINE
8
BLACK
6
CONTINUOUS
10
127.657
20
-90.07
11
127.761
21
-90.0045
0
LINE
8
BLACK
6
CONTINUOUS
10
127.761
20
-90.0045
11
127.878
21
-89.9638
0
LINE
8
BLACK
6
CONTINUOUS
10
127.878
20
-89.9638
11
128
21
-89.95
0
LINE
8
BLACK
6
CONTINUOUS
10
128
20
-89.95
11
172
21
-89.95
0
LINE
8
BLACK
6
CONTINUOUS
10
128
20
-90.05
11
127.941
21
-90.05
0
LINE
8
BLACK
6
CONTINUOUS
10
127.941
20
-90.05
11
127.826
21
-90.0807
0
LINE
8
BLACK
6
CONTINUOUS
10
127.826
20
-90.0807
11
127.724
21
-90.1399
0
LINE
8
BLACK
6
CONTINUOUS
10
127.724
20
-90.1399
11
127.64
21
-90.2237
0
LINE
8
BLACK
6
CONTINUOUS
10
127.64
20
-90.2237
11
127.581
21
-90.3263
0
LINE
8
BLACK
6
CONTINUOUS
10
127.581
20
-90.3263
11
127.55
21
-90.4408
0
LINE
8
BLACK
6
CONTINUOUS
10
127.55
20
-90.4408
11
127.55
21
-90.5
0
LINE
8
BLACK
6
CONTINUOUS
10
127.55
20
-90.5
11
127.55
21
-91.95
0
LINE
8
BLACK
6
CONTINUOUS
10
127.55
20
-91.95
11
130.957
21
-91.95
0
LINE
8
BLACK
6
CONTINUOUS
10
130.957
20
-91.95
11
130.969
21
-91.8576
0
LINE
8
BLACK
6
CONTINUOUS
10
130.969
20
-91.8576
11
131.024
21
-91.725
0
LINE
8
BLACK
6
CONTINUOUS
10
131.024
20
-91.725
11
131.111
21
-91.6111
0
LINE
8
BLACK
6
CONTINUOUS
10
131.111
20
-91.6111
11
131.225
21
-91.5237
0
LINE
8
BLACK
6
CONTINUOUS
10
131.225
20
-91.5237
11
131.358
21
-91.4687
0
LINE
8
BLACK
6
CONTINUOUS
10
131.358
20
-91.4687
11
131.5
21
-91.45
0
LINE
8
BLACK
6
CONTINUOUS
10
131.5
20
-91.45
11
131.642
21
-91.4687
0
LINE
8
BLACK
6
CONTINUOUS
10
131.642
20
-91.4687
11
131.775
21
-91.5237
0
LINE
8
BLACK
6
CONTINUOUS
10
131.775
20
-91.5237
11
131.889
21
-91.6111
0
LINE
8
BLACK
6
CONTINUOUS
10
131.889
20
-91.6111
11
131.976
21
-91.725
0
LINE
8
BLACK
6
CONTINUOUS
10
131.976
20
-91.725
11
132.031
21
-91.8576
0
LINE
8
BLACK
6
CONTINUOUS
10
132.031
20
-91.8576
11
132.05
21
-92
0
LINE
8
BLACK
6
CONTINUOUS
10
132.05
20
-92
11
132.031
21
-92.1423
0
LINE
8
BLACK
6
CONTINUOUS
10
132.031
20
-92.1423
11
131.976
21
-92.275
0
LINE
8
BLACK
6
CONTINUOUS
10
131.976
20
-92.275
11
131.889
21
-92.3889
0
LINE
8
BLACK
6
CONTINUOUS
10
131.889
20
-92.3889
11
131.775
21
-92.4763
0
LINE
8
BLACK
6
CONTINUOUS
10
131.775
20
-92.4763
11
131.642
21
-92.5313
0
LINE
8
BLACK
6
CONTINUOUS
10
131.642
20
-92.5313
11
131.55
21
-92.5434
0
LINE
8
BLACK
6
CONTINUOUS
10
131.55
20
-92.5434
11
131.55
21
-93.0566
0
LINE
8
BLACK
6
CONTINUOUS
10
131.55
20
-93.0566
11
131.642
21
-93.0687
0
LINE
8
BLACK
6
CONTINUOUS
10
131.642
20
-93.0687
11
131.775
21
-93.1237
0
LINE
8
BLACK
6
CONTINUOUS
10
131.775
20
-93.1237
11
131.889
21
-93.2111
0
LINE
8
BLACK
6
CONTINUOUS
10
131.889
20
-93.2111
11
131.976
21
-93.325
0
LINE
8
BLACK
6
CONTINUOUS
10
131.976
20
-93.325
11
132.031
21
-93.4577
0
LINE
8
BLACK
6
CONTINUOUS
10
132.031
20
-93.4577
11
132.05
21
-93.6
0
LINE
8
BLACK
6
CONTINUOUS
10
132.05
20
-93.6
11
132.031
21
-93.7424
0
LINE
8
BLACK
6
CONTINUOUS
10
132.031
20
-93.7424
11
131.976
21
-93.875
0
LINE
8
BLACK
6
CONTINUOUS
10
131.976
20
-93.875
11
131.889
21
-93.9889
0
LINE
8
BLACK
6
CONTINUOUS
10
131.889
20
-93.9889
11
131.775
21
-94.0763
0
LINE
8
BLACK
6
CONTINUOUS
10
131.775
20
-94.0763
11
131.642
21
-94.1313
0
LINE
8
BLACK
6
CONTINUOUS
10
131.642
20
-94.1313
11
131.5
21
-94.15
0
LINE
8
BLACK
6
CONTINUOUS
10
131.5
20
-94.15
11
131.358
21
-94.1313
0
LINE
8
BLACK
6
CONTINUOUS
10
131.358
20
-94.1313
11
131.225
21
-94.0763
0
LINE
8
BLACK
6
CONTINUOUS
10
131.225
20
-94.0763
11
131.111
21
-93.9889
0
LINE
8
BLACK
6
CONTINUOUS
10
131.111
20
-93.9889
11
131.024
21
-93.875
0
LINE
8
BLACK
6
CONTINUOUS
10
131.024
20
-93.875
11
130.969
21
-93.7424
0
LINE
8
BLACK
6
CONTINUOUS
10
130.969
20
-93.7424
11
130.957
21
-93.65
0
LINE
8
BLACK
6
CONTINUOUS
10
130.957
20
-93.65
11
127.55
21
-93.65
0
LINE
8
BLACK
6
CONTINUOUS
10
127.55
20
-93.65
11
127.55
21
-106
0
LINE
8
BLACK
6
CONTINUOUS
10
127.55
20
-106
11
127.535
21
-106.035
0
LINE
8
BLACK
6
CONTINUOUS
10
127.535
20
-106.035
11
127.5
21
-106.05
0
LINE
8
BLACK
6
CONTINUOUS
10
127.5
20
-106.05
11
105.5
21
-106.05
0
LINE
8
BLACK
6
CONTINUOUS
10
105.5
20
-106.05
11
105.441
21
-106.05
0
LINE
8
BLACK
6
CONTINUOUS
10
105.441
20
-106.05
11
105.326
21
-106.081
0
LINE
8
BLACK
6
CONTINUOUS
10
105.326
20
-106.081
11
105.224
21
-106.14
0
LINE
8
BLACK
6
CONTINUOUS
10
105.224
20
-106.14
11
105.14
21
-106.224
0
LINE
8
BLACK
6
CONTINUOUS
10
105.14
20
-106.224
11
105.081
21
-106.326
0
LINE
8
BLACK
6
CONTINUOUS
10
105.081
20
-106.326
11
105.05
21
-106.441
0
LINE
8
BLACK
6
CONTINUOUS
10
105.05
20
-106.441
11
105.05
21
-106.5
0
LINE
8
BLACK
6
CONTINUOUS
10
105.05
20
-106.5
11
105.05
21
-150
0
LINE
8
BLACK
6
CONTINUOUS
10
105.05
20
-150
11
105.05
21
-155.5
0
LINE
8
BLACK
6
CONTINUOUS
10
105.05
20
-155.5
11
105.05
21
-155.559
0
LINE
8
BLACK
6
CONTINUOUS
10
105.05
20
-155.559
11
105.081
21
-155.674
0
LINE
8
BLACK
6
CONTINUOUS
10
105.081
20
-155.674
11
105.14
21
-155.776
0
LINE
8
BLACK
6
CONTINUOUS
10
105.14
20
-155.776
11
105.224
21
-155.86
0
LINE
8
BLACK
6
CONTINUOUS
10
105.224
20
-155.86
11
105.326
21
-155.919
0
LINE
8
BLACK
6
CONTINUOUS
10
105.326
20
-155.919
11
105.441
21
-155.95
0
LINE
8
BLACK
6
CONTINUOUS
10
105.441
20
-155.95
11
105.5
21
-155.95
0
LINE
8
BLACK
6
CONTINUOUS
10
105.5
20
-155.95
11
133.95
21
-155.95
0
LINE
8
BLACK
6
CONTINUOUS
10
133.95
20
-155.95
11
133.95
21
-151.638
0
LINE
8
BLACK
6
CONTINUOUS
10
133.95
20
-151.638
11
132.487
21
-151.248
0
LINE
8
BLACK
6
CONTINUOUS
10
132.487
20
-151.248
11
132.477
21
-151.24
0
LINE
8
BLACK
6
CONTINUOUS
10
132.477
20
-151.24
11
132.465
21
-151.235
0
LINE
8
BLACK
6
CONTINUOUS
10
132.465
20
-151.235
11
132.462
21
-151.229
0
LINE
8
BLACK
6
CONTINUOUS
10
132.462
20
-151.229
11
132.457
21
-151.225
0
LINE
8
BLACK
6
CONTINUOUS
10
132.457
20
-151.225
11
132.455
21
-151.212
0
LINE
8
BLACK
6
CONTINUOUS
10
132.455
20
-151.212
11
132.45
21
-151.2
0
LINE
8
BLACK
6
CONTINUOUS
10
132.45
20
-151.2
11
132.45
21
-150
0
LINE
8
BLACK
6
CONTINUOUS
10
132.45
20
-150
11
132.465
21
-149.965
0
LINE
8
BLACK
6
CONTINUOUS
10
132.465
20
-149.965
11
132.5
21
-149.95
0
LINE
8
BLACK
6
CONTINUOUS
10
132.5
20
-149.95
11
150
21
-149.95
0
LINE
8
BLACK
6
CONTINUOUS
10
150
20
-149.95
11
175.707
21
-149.95
0
LINE
8
BLACK
6
CONTINUOUS
10
175.707
20
-149.95
11
175.719
21
-149.858
0
LINE
8
BLACK
6
CONTINUOUS
10
175.719
20
-149.858
11
175.774
21
-149.725
0
LINE
8
BLACK
6
CONTINUOUS
10
175.774
20
-149.725
11
175.861
21
-149.611
0
LINE
8
BLACK
6
CONTINUOUS
10
175.861
20
-149.611
11
175.975
21
-149.524
0
LINE
8
BLACK
6
CONTINUOUS
10
175.975
20
-149.524
11
176.108
21
-149.469
0
LINE
8
BLACK
6
CONTINUOUS
10
176.108
20
-149.469
11
176.25
21
-149.45
0
LINE
8
BLACK
6
CONTINUOUS
10
176.25
20
-149.45
11
176.392
21
-149.469
0
LINE
8
BLACK
6
CONTINUOUS
10
176.392
20
-149.469
11
176.525
21
-149.524
0
LINE
8
BLACK
6
CONTINUOUS
10
176.525
20
-149.524
11
176.639
21
-149.611
0
LINE
8
BLACK
6
CONTINUOUS
10
176.639
20
-149.611
11
176.726
21
-149.725
0
LINE
8
BLACK
6
CONTINUOUS
10
176.726
20
-149.725
11
176.781
21
-149.858
0
LINE
8
BLACK
6
CONTINUOUS
10
176.781
20
-149.858
11
176.8
21
-150
0
LINE
8
BLACK
6
CONTINUOUS
10
176.8
20
-150
11
176.781
21
-150.142
0
LINE
8
BLACK
6
CONTINUOUS
10
176.781
20
-150.142
11
176.726
21
-150.275
0
LINE
8
BLACK
6
CONTINUOUS
10
176.726
20
-150.275
11
176.639
21
-150.389
0
LINE
8
BLACK
6
CONTINUOUS
10
176.639
20
-150.389
11
176.525
21
-150.476
0
LINE
8
BLACK
6
CONTINUOUS
10
176.525
20
-150.476
11
176.392
21
-150.531
0
LINE
8
BLACK
6
CONTINUOUS
10
176.392
20
-150.531
11
176.3
21
-150.543
0
LINE
8
BLACK
6
CONTINUOUS
10
176.3
20
-150.543
11
176.3
21
-152.457
0
LINE
8
BLACK
6
CONTINUOUS
10
176.3
20
-152.457
11
176.392
21
-152.469
0
LINE
8
BLACK
6
CONTINUOUS
10
176.392
20
-152.469
11
176.525
21
-152.524
0
LINE
8
BLACK
6
CONTINUOUS
10
176.525
20
-152.524
11
176.639
21
-152.611
0
LINE
8
BLACK
6
CONTINUOUS
10
176.639
20
-152.611
11
176.726
21
-152.725
0
LINE
8
BLACK
6
CONTINUOUS
10
176.726
20
-152.725
11
176.781
21
-152.858
0
LINE
8
BLACK
6
CONTINUOUS
10
176.781
20
-152.858
11
176.8
21
-153
0
LINE
8
BLACK
6
CONTINUOUS
10
176.8
20
-153
11
176.781
21
-153.142
0
LINE
8
BLACK
6
CONTINUOUS
10
176.781
20
-153.142
11
176.726
21
-153.275
0
LINE
8
BLACK
6
CONTINUOUS
10
176.726
20
-153.275
11
176.639
21
-153.389
0
LINE
8
BLACK
6
CONTINUOUS
10
176.639
20
-153.389
11
176.525
21
-153.476
0
LINE
8
BLACK
6
CONTINUOUS
10
176.525
20
-153.476
11
176.392
21
-153.531
0
LINE
8
BLACK
6
CONTINUOUS
10
176.392
20
-153.531
11
176.25
21
-153.55
0
LINE
8
BLACK
6
CONTINUOUS
10
176.25
20
-153.55
11
176.108
21
-153.531
0
LINE
8
BLACK
6
CONTINUOUS
10
176.108
20
-153.531
11
175.975
21
-153.476
0
LINE
8
BLACK
6
CONTINUOUS
10
175.975
20
-153.476
11
175.861
21
-153.389
0
LINE
8
BLACK
6
CONTINUOUS
10
175.861
20
-153.389
11
175.774
21
-153.275
0
LINE
8
BLACK
6
CONTINUOUS
10
175.774
20
-153.275
11
175.719
21
-153.142
0
LINE
8
BLACK
6
CONTINUOUS
10
175.719
20
-153.142
11
175.707
21
-153.05
0
LINE
8
BLACK
6
CONTINUOUS
10
175.707
20
-153.05
11
168.809
21
-153.05
0
LINE
8
BLACK
6
CONTINUOUS
10
168.809
20
-153.05
11
169.292
21
-155.95
0
LINE
8
BLACK
6
CONTINUOUS
10
169.292
20
-155.95
11
194.5
21
-155.95
0
LINE
8
BLACK
6
CONTINUOUS
10
194.5
20
-155.95
11
194.559
21
-155.95
0
LINE
8
BLACK
6
CONTINUOUS
10
194.559
20
-155.95
11
194.674
21
-155.919
0
LINE
8
BLACK
6
CONTINUOUS
10
194.674
20
-155.919
11
194.776
21
-155.86
0
LINE
8
BLACK
6
CONTINUOUS
10
194.776
20
-155.86
11
194.86
21
-155.776
0
LINE
8
BLACK
6
CONTINUOUS
10
194.86
20
-155.776
11
194.919
21
-155.674
0
LINE
8
BLACK
6
CONTINUOUS
10
194.919
20
-155.674
11
194.95
21
-155.559
0
LINE
8
BLACK
6
CONTINUOUS
10
194.95
20
-155.559
11
194.95
21
-155.5
0
LINE
8
BLACK
6
CONTINUOUS
10
194.95
20
-155.5
11
194.95
21
-153.5
0
LINE
8
BLACK
6
CONTINUOUS
10
194.95
20
-153.5
11
194.95
21
-153.441
0
LINE
8
BLACK
6
CONTINUOUS
10
194.95
20
-153.441
11
194.919
21
-153.326
0
LINE
8
BLACK
6
CONTINUOUS
10
194.919
20
-153.326
11
194.86
21
-153.224
0
LINE
8
BLACK
6
CONTINUOUS
10
194.86
20
-153.224
11
194.776
21
-153.14
0
LINE
8
BLACK
6
CONTINUOUS
10
194.776
20
-153.14
11
194.674
21
-153.081
0
LINE
8
BLACK
6
CONTINUOUS
10
194.674
20
-153.081
11
194.559
21
-153.05
0
LINE
8
BLACK
6
CONTINUOUS
10
194.559
20
-153.05
11
194.5
21
-153.05
0
LINE
8
BLACK
6
CONTINUOUS
10
194.5
20
-153.05
11
188.043
21
-153.05
0
LINE
8
BLACK
6
CONTINUOUS
10
188.043
20
-153.05
11
188.031
21
-153.142
0
LINE
8
BLACK
6
CONTINUOUS
10
188.031
20
-153.142
11
187.976
21
-153.275
0
LINE
8
BLACK
6
CONTINUOUS
10
187.976
20
-153.275
11
187.889
21
-153.389
0
LINE
8
BLACK
6
CONTINUOUS
10
187.889
20
-153.389
11
187.775
21
-153.476
0
LINE
8
BLACK
6
CONTINUOUS
10
187.775
20
-153.476
11
187.642
21
-153.531
0
LINE
8
BLACK
6
CONTINUOUS
10
187.642
20
-153.531
11
187.5
21
-153.55
0
LINE
8
BLACK
6
CONTINUOUS
10
187.5
20
-153.55
11
187.358
21
-153.531
0
LINE
8
BLACK
6
CONTINUOUS
10
187.358
20
-153.531
11
187.225
21
-153.476
0
LINE
8
BLACK
6
CONTINUOUS
10
187.225
20
-153.476
11
187.111
21
-153.389
0
LINE
8
BLACK
6
CONTINUOUS
10
187.111
20
-153.389
11
187.024
21
-153.275
0
LINE
8
BLACK
6
CONTINUOUS
10
187.024
20
-153.275
11
186.969
21
-153.142
0
LINE
8
BLACK
6
CONTINUOUS
10
186.969
20
-153.142
11
186.95
21
-153
0
LINE
8
BLACK
6
CONTINUOUS
10
186.95
20
-153
11
186.969
21
-152.858
0
LINE
8
BLACK
6
CONTINUOUS
10
186.969
20
-152.858
11
187.024
21
-152.725
0
LINE
8
BLACK
6
CONTINUOUS
10
187.024
20
-152.725
11
187.111
21
-152.611
0
LINE
8
BLACK
6
CONTINUOUS
10
187.111
20
-152.611
11
187.225
21
-152.524
0
LINE
8
BLACK
6
CONTINUOUS
10
187.225
20
-152.524
11
187.358
21
-152.469
0
LINE
8
BLACK
6
CONTINUOUS
10
187.358
20
-152.469
11
187.45
21
-152.457
0
LINE
8
BLACK
6
CONTINUOUS
10
187.45
20
-152.457
11
187.45
21
-150.543
0
LINE
8
BLACK
6
CONTINUOUS
10
187.45
20
-150.543
11
187.358
21
-150.531
0
LINE
8
BLACK
6
CONTINUOUS
10
187.358
20
-150.531
11
187.225
21
-150.476
0
LINE
8
BLACK
6
CONTINUOUS
10
187.225
20
-150.476
11
187.111
21
-150.389
0
LINE
8
BLACK
6
CONTINUOUS
10
187.111
20
-150.389
11
187.024
21
-150.275
0
LINE
8
BLACK
6
CONTINUOUS
10
187.024
20
-150.275
11
186.969
21
-150.142
0
LINE
8
BLACK
6
CONTINUOUS
10
186.969
20
-150.142
11
186.95
21
-150
0
LINE
8
BLACK
6
CONTINUOUS
10
186.95
20
-150
11
186.969
21
-149.858
0
LINE
8
BLACK
6
CONTINUOUS
10
186.969
20
-149.858
11
187.024
21
-149.725
0
LINE
8
BLACK
6
CONTINUOUS
10
187.024
20
-149.725
11
187.111
21
-149.611
0
LINE
8
BLACK
6
CONTINUOUS
10
187.111
20
-149.611
11
187.225
21
-149.524
0
LINE
8
BLACK
6
CONTINUOUS
10
187.225
20
-149.524
11
187.358
21
-149.469
0
LINE
8
BLACK
6
CONTINUOUS
10
187.358
20
-149.469
11
187.5
21
-149.45
0
LINE
8
BLACK
6
CONTINUOUS
10
187.5
20
-149.45
11
187.642
21
-149.469
0
LINE
8
BLACK
6
CONTINUOUS
10
187.642
20
-149.469
11
187.775
21
-149.524
0
LINE
8
BLACK
6
CONTINUOUS
10
187.775
20
-149.524
11
187.889
21
-149.611
0
LINE
8
BLACK
6
CONTINUOUS
10
187.889
20
-149.611
11
187.976
21
-149.725
0
LINE
8
BLACK
6
CONTINUOUS
10
187.976
20
-149.725
11
188.031
21
-149.858
0
LINE
8
BLACK
6
CONTINUOUS
10
188.031
20
-149.858
11
188.043
21
-149.95
0
LINE
8
BLACK
6
CONTINUOUS
10
188.043
20
-149.95
11
194.5
21
-149.95
0
LINE
8
BLACK
6
CONTINUOUS
10
194.5
20
-149.95
11
194.559
21
-149.95
0
LINE
8
BLACK
6
CONTINUOUS
10
194.559
20
-149.95
11
194.674
21
-149.919
0
LINE
8
BLACK
6
CONTINUOUS
10
194.674
20
-149.919
11
194.776
21
-149.86
0
LINE
8
BLACK
6
CONTINUOUS
10
194.776
20
-149.86
11
194.86
21
-149.776
0
LINE
8
BLACK
6
CONTINUOUS
10
194.86
20
-149.776
11
194.919
21
-149.674
0
LINE
8
BLACK
6
CONTINUOUS
10
194.919
20
-149.674
11
194.95
21
-149.559
0
LINE
8
BLACK
6
CONTINUOUS
10
194.95
20
-149.559
11
194.95
21
-149.5
0
LINE
8
BLACK
6
CONTINUOUS
10
194.95
20
-149.5
11
194.95
21
-106.5
0
LINE
8
BLACK
6
CONTINUOUS
10
194.95
20
-106.5
11
194.95
21
-106.441
0
LINE
8
BLACK
6
CONTINUOUS
10
194.95
20
-106.441
11
194.919
21
-106.326
0
LINE
8
BLACK
6
CONTINUOUS
10
194.919
20
-106.326
11
194.86
21
-106.224
0
LINE
8
BLACK
6
CONTINUOUS
10
194.86
20
-106.224
11
194.776
21
-106.14
0
LINE
8
BLACK
6
CONTINUOUS
10
194.776
20
-106.14
11
194.674
21
-106.081
0
LINE
8
BLACK
6
CONTINUOUS
10
194.674
20
-106.081
11
194.559
21
-106.05
0
LINE
8
BLACK
6
CONTINUOUS
10
194.559
20
-106.05
11
194.5
21
-106.05
0
LINE
8
BLACK
6
CONTINUOUS
10
194.5
20
-106.05
11
172.5
21
-106.05
0
LINE
8
BLACK
6
CONTINUOUS
10
172.5
20
-106.05
11
172.465
21
-106.035
0
LINE
8
BLACK
6
CONTINUOUS
10
172.465
20
-106.035
11
172.45
21
-106
0
LINE
8
BLACK
6
CONTINUOUS
10
172.45
20
-106
11
172.45
21
-93.65
0
LINE
8
BLACK
6
CONTINUOUS
10
172.45
20
-93.65
11
169.043
21
-93.65
0
LINE
8
BLACK
6
CONTINUOUS
10
169.043
20
-93.65
11
169.031
21
-93.7424
0
LINE
8
BLACK
6
CONTINUOUS
10
169.031
20
-93.7424
11
168.976
21
-93.875
0
LINE
8
BLACK
6
CONTINUOUS
10
168.976
20
-93.875
11
168.889
21
-93.9889
0
LINE
8
BLACK
6
CONTINUOUS
10
168.889
20
-93.9889
11
168.775
21
-94.0763
0
LINE
8
BLACK
6
CONTINUOUS
10
168.775
20
-94.0763
11
168.642
21
-94.1313
0
LINE
8
BLACK
6
CONTINUOUS
10
168.642
20
-94.1313
11
168.5
21
-94.15
0
LINE
8
BLACK
6
CONTINUOUS
10
168.5
20
-94.15
11
168.358
21
-94.1313
0
LINE
8
BLACK
6
CONTINUOUS
10
168.358
20
-94.1313
11
168.225
21
-94.0763
0
LINE
8
BLACK
6
CONTINUOUS
10
168.225
20
-94.0763
11
168.111
21
-93.9889
0
LINE
8
BLACK
6
CONTINUOUS
10
168.111
20
-93.9889
11
168.024
21
-93.875
0
LINE
8
BLACK
6
CONTINUOUS
10
168.024
20
-93.875
11
167.969
21
-93.7424
0
LINE
8
BLACK
6
CONTINUOUS
10
167.969
20
-93.7424
11
167.95
21
-93.6
0
LINE
8
BLACK
6
CONTINUOUS
10
167.95
20
-93.6
11
167.969
21
-93.4577
0
LINE
8
BLACK
6
CONTINUOUS
10
167.969
20
-93.4577
11
168.024
21
-93.325
0
LINE
8
BLACK
6
CONTINUOUS
10
168.024
20
-93.325
11
168.111
21
-93.2111
0
LINE
8
BLACK
6
CONTINUOUS
10
168.111
20
-93.2111
11
168.225
21
-93.1237
0
LINE
8
BLACK
6
CONTINUOUS
10
168.225
20
-93.1237
11
168.358
21
-93.0687
0
LINE
8
BLACK
6
CONTINUOUS
10
168.358
20
-93.0687
11
168.45
21
-93.0566
0
LINE
8
BLACK
6
CONTINUOUS
10
168.45
20
-93.0566
11
168.45
21
-92.5434
0
LINE
8
BLACK
6
CONTINUOUS
10
168.45
20
-92.5434
11
168.358
21
-92.5313
0
LINE
8
BLACK
6
CONTINUOUS
10
168.358
20
-92.5313
11
168.225
21
-92.4763
0
LINE
8
BLACK
6
CONTINUOUS
10
168.225
20
-92.4763
11
168.111
21
-92.3889
0
LINE
8
BLACK
6
CONTINUOUS
10
168.111
20
-92.3889
11
168.024
21
-92.275
0
LINE
8
BLACK
6
CONTINUOUS
10
168.024
20
-92.275
11
167.969
21
-92.1423
0
LINE
8
BLACK
6
CONTINUOUS
10
167.969
20
-92.1423
11
167.95
21
-92
0
LINE
8
BLACK
6
CONTINUOUS
10
167.95
20
-92
11
167.969
21
-91.8576
0
LINE
8
BLACK
6
CONTINUOUS
10
167.969
20
-91.8576
11
168.024
21
-91.725
0
LINE
8
BLACK
6
CONTINUOUS
10
168.024
20
-91.725
11
168.111
21
-91.6111
0
LINE
8
BLACK
6
CONTINUOUS
10
168.111
20
-91.6111
11
168.225
21
-91.5237
0
LINE
8
BLACK
6
CONTINUOUS
10
168.225
20
-91.5237
11
168.358
21
-91.4687
0
LINE
8
BLACK
6
CONTINUOUS
10
168.358
20
-91.4687
11
168.5
21
-91.45
0
LINE
8
BLACK
6
CONTINUOUS
10
168.5
20
-91.45
11
168.642
21
-91.4687
0
LINE
8
BLACK
6
CONTINUOUS
10
168.642
20
-91.4687
11
168.775
21
-91.5237
0
LINE
8
BLACK
6
CONTINUOUS
10
168.775
20
-91.5237
11
168.889
21
-91.6111
0
LINE
8
BLACK
6
CONTINUOUS
10
168.889
20
-91.6111
11
168.976
21
-91.725
0
LINE
8
BLACK
6
CONTINUOUS
10
168.976
20
-91.725
11
169.031
21
-91.8576
0
LINE
8
BLACK
6
CONTINUOUS
10
169.031
20
-91.8576
11
169.043
21
-91.95
0
LINE
8
BLACK
6
CONTINUOUS
10
169.043
20
-91.95
11
172.45
21
-91.95
0
LINE
8
BLACK
6
CONTINUOUS
10
172.45
20
-91.95
11
172.45
21
-90.5
0
LINE
8
BLACK
6
CONTINUOUS
10
172.45
20
-90.5
11
172.45
21
-90.4408
0
LINE
8
BLACK
6
CONTINUOUS
10
172.45
20
-90.4408
11
172.419
21
-90.3263
0
LINE
8
BLACK
6
CONTINUOUS
10
172.419
20
-90.3263
11
172.36
21
-90.2237
0
LINE
8
BLACK
6
CONTINUOUS
10
172.36
20
-90.2237
11
172.276
21
-90.1399
0
LINE
8
BLACK
6
CONTINUOUS
10
172.276
20
-90.1399
11
172.174
21
-90.0807
0
LINE
8
BLACK
6
CONTINUOUS
10
172.174
20
-90.0807
11
172.059
21
-90.05
0
LINE
8
BLACK
6
CONTINUOUS
10
172.059
20
-90.05
11
172
21
-90.05
0
LINE
8
BLACK
6
CONTINUOUS
10
172
20
-90.05
11
128
21
-90.05
  0
ENDSEC
  0
EOF
