<?xml version="1.0" standalone="no"?>
 <!DOCTYPE svg PUBLIC "-//W3C//DTD SVG 1.1//EN" 
 "http://www.w3.org/Graphics/SVG/1.1/DTD/svg11.dtd"> 
<svg
  xmlns:svg="http://www.w3.org/2000/svg"
  xmlns="http://www.w3.org/2000/svg"
  xmlns:xlink="http://www.w3.org/1999/xlink"
  version="1.1"
  width="297.002200mm" height="210.007200mm" viewBox="0.000000 0.000000 297.002200 210.007200">
<title>SVG Image created as din_schiene_seitenwand-Edge_Cuts.svg date 2023/03/27 07:43:35 </title>
  <desc>Image generated by PCBNEW </desc>
<g style="fill:#000000; fill-opacity:1.000000;stroke:#000000; stroke-opacity:1.000000;
stroke-linecap:round; stroke-linejoin:round;"
 transform="translate(0 0) scale(1 1)">
</g>
<g style="fill:#000000; fill-opacity:0.0; 
stroke:#000000; stroke-width:0.000000; stroke-opacity:1; 
stroke-linecap:round; stroke-linejoin:round;">
</g>
<g style="fill:#000000; fill-opacity:0.0; 
stroke:#000000; stroke-width:0.100000; stroke-opacity:1; 
stroke-linecap:round; stroke-linejoin:round;">
<path d="M172.500000 90.500000 A0.500000 0.500000 0.0 0 0 172.000000 90.000000" />
<path d="M168.750000 153.000000
L175.750000 153.000000
" />
<path d="M195.000000 153.500000 A0.500000 0.500000 0.0 0 0 194.500000 153.000000" />
<path d="M194.500000 156.000000
L169.250000 156.000000
" />
<path d="M172.500000 93.600000
L172.500000 106.000000
" />
<path d="M105.000000 155.500000
L105.000000 150.000000
" />
<path d="M175.750000 153.000000 A0.500000 0.500000 0.0 1 0 176.250000 152.500000" />
<path d="M194.500000 156.000000 A0.500000 0.500000 0.0 0 0 195.000000 155.500000" />
<path d="M168.500000 93.100000
L168.500000 92.500000
" />
<path d="M194.500000 150.000000
L188.000000 150.000000
" />
<path d="M195.000000 106.500000
L195.000000 149.500000
" />
<circle cx="131.500000" cy="153.500000" r="1.000000" /> 
<path d="M127.500000 106.000000
L127.500000 93.600000
" />
<path d="M195.000000 106.500000 A0.500000 0.500000 0.0 0 0 194.500000 106.000000" />
<path d="M105.000000 155.500000 A0.500000 0.500000 0.0 0 0 105.500000 156.000000" />
<circle cx="170.250000" cy="103.750000" r="1.000000" /> 
<path d="M169.000000 92.000000
L172.500000 92.000000
" />
<circle cx="129.750000" cy="106.500000" r="1.000000" /> 
<path d="M188.000000 153.000000
L194.500000 153.000000
" />
<path d="M168.500000 93.100000 A0.500000 0.500000 0.0 1 0 169.000000 93.600000" />
<path d="M127.500000 92.000000
L131.000000 92.000000
" />
<path d="M176.250000 152.500000
L176.250000 150.500000
" />
<path d="M105.500000 106.000000
L127.500000 106.000000
" />
<path d="M172.500000 92.000000
L172.500000 90.500000
" />
<circle cx="178.250000" cy="151.500000" r="1.000000" /> 
<path d="M195.000000 153.500000
L195.000000 155.500000
" />
<circle cx="170.250000" cy="106.500000" r="1.000000" /> 
<path d="M128.000000 90.000000
L172.000000 90.000000
" />
<path d="M188.000000 150.000000 A0.500000 0.500000 0.0 1 0 187.500000 150.500000" />
<path d="M131.500000 92.500000 A0.500000 0.500000 0.0 1 0 131.000000 92.000000" />
<path d="M169.250000 156.000000
L168.750000 153.000000
" />
<path d="M194.500000 150.000000 A0.500000 0.500000 0.0 0 0 195.000000 149.500000" />
<path d="M131.000000 93.600000 A0.500000 0.500000 0.0 1 0 131.500000 93.100000" />
<path d="M150.000000 150.000000
L132.500000 150.000000
" />
<path d="M134.000000 151.600000
L134.000000 156.000000
" />
<path d="M127.500000 92.000000
L127.500000 90.500000
" />
<path d="M172.500000 106.000000
L194.500000 106.000000
" />
<path d="M176.250000 150.500000 A0.500000 0.500000 0.0 1 0 175.750000 150.000000" />
<path d="M175.750000 150.000000
L150.000000 150.000000
" />
<path d="M105.000000 150.000000
L105.000000 106.500000
" />
<path d="M187.500000 152.500000 A0.500000 0.500000 0.0 1 0 188.000000 153.000000" />
<path d="M128.000000 90.000000 A0.500000 0.500000 0.0 0 0 127.500000 90.500000" />
<path d="M132.500000 150.000000
L132.500000 151.200000
" />
<path d="M134.000000 156.000000
L105.500000 156.000000
" />
<path d="M105.500000 106.000000 A0.500000 0.500000 0.0 0 0 105.000000 106.500000" />
<path d="M169.000000 92.000000 A0.500000 0.500000 0.0 1 0 168.500000 92.500000" />
<path d="M172.500000 93.600000
L169.000000 93.600000
" />
<path d="M187.500000 150.500000
L187.500000 152.500000
" />
<path d="M132.500000 151.200000
L134.000000 151.600000
" />
<path d="M131.500000 92.500000
L131.500000 93.100000
" />
<circle cx="129.750000" cy="103.750000" r="1.000000" /> 
<path d="M131.000000 93.600000
L127.500000 93.600000
" />
<g >
</g>
<g >
</g>
<g >
</g>
</g> 
</svg>
