G04 #@! TF.FileFunction,Copper,L2,Bot,Signal*
%FSLAX46Y46*%
G04 Gerber Fmt 4.6, Leading zero omitted, Abs format (unit mm)*
G04 Created by KiCad (PCBNEW 4.0.0-stable) date 17.06.2016 16:47:32*
%MOMM*%
G01*
G04 APERTURE LIST*
%ADD10C,0.100000*%
%ADD11R,2.032000X1.727200*%
%ADD12O,2.032000X1.727200*%
%ADD13C,1.600000*%
%ADD14R,1.800000X0.400000*%
%ADD15R,1.500000X1.250000*%
%ADD16R,2.000000X1.600000*%
%ADD17R,1.500000X1.300000*%
%ADD18R,1.500000X0.650000*%
%ADD19R,0.650000X1.500000*%
%ADD20O,0.899160X1.501140*%
%ADD21R,1.800000X0.600000*%
%ADD22R,1.501140X1.501140*%
%ADD23C,0.600000*%
%ADD24C,2.000000*%
%ADD25C,0.400000*%
%ADD26C,0.250000*%
%ADD27C,0.210000*%
G04 APERTURE END LIST*
D10*
D11*
X124587000Y-102362000D03*
D12*
X124587000Y-99822000D03*
X124587000Y-97282000D03*
X124587000Y-94742000D03*
X124587000Y-92202000D03*
X124587000Y-89662000D03*
X124587000Y-87122000D03*
D13*
X122047000Y-82296000D03*
X122047000Y-77216000D03*
X119507000Y-82296000D03*
X119507000Y-77216000D03*
X124587000Y-77216000D03*
X124587000Y-82296000D03*
X116967000Y-77216000D03*
X116967000Y-82296000D03*
X114427000Y-77216000D03*
X111887000Y-77216000D03*
X109347000Y-77216000D03*
X106807000Y-77216000D03*
X114427000Y-82296000D03*
X111887000Y-82296000D03*
X109347000Y-82296000D03*
X106807000Y-82296000D03*
D14*
X112724000Y-90809000D03*
X112724000Y-90159000D03*
X112724000Y-89509000D03*
X112724000Y-88859000D03*
X112724000Y-88209000D03*
X112724000Y-87559000D03*
X112724000Y-86909000D03*
X112724000Y-86259000D03*
X112724000Y-85609000D03*
X112724000Y-84959000D03*
X118924000Y-84959000D03*
X118924000Y-85609000D03*
X118924000Y-86259000D03*
X118924000Y-86909000D03*
X118924000Y-87559000D03*
X118924000Y-88209000D03*
X118924000Y-88859000D03*
X118924000Y-89509000D03*
X118924000Y-90159000D03*
X118924000Y-90809000D03*
D13*
X103886000Y-92964000D03*
X103886000Y-98044000D03*
X106426000Y-92964000D03*
X106426000Y-98044000D03*
X101346000Y-98044000D03*
X101346000Y-92964000D03*
X108966000Y-98044000D03*
X108966000Y-92964000D03*
X111506000Y-98044000D03*
X114046000Y-98044000D03*
X116586000Y-98044000D03*
X119126000Y-98044000D03*
X111506000Y-92964000D03*
X114046000Y-92964000D03*
X116586000Y-92964000D03*
X119126000Y-92964000D03*
D15*
X106533000Y-100076000D03*
X104033000Y-100076000D03*
D16*
X105886000Y-90805000D03*
X101886000Y-90805000D03*
D10*
G36*
X123273271Y-84630845D02*
X124157155Y-85514729D01*
X123096495Y-86575389D01*
X122212611Y-85691505D01*
X123273271Y-84630845D01*
X123273271Y-84630845D01*
G37*
G36*
X121505505Y-86398611D02*
X122389389Y-87282495D01*
X121328729Y-88343155D01*
X120444845Y-87459271D01*
X121505505Y-86398611D01*
X121505505Y-86398611D01*
G37*
D17*
X121840000Y-80264000D03*
X124540000Y-80264000D03*
D18*
X106506000Y-94554000D03*
X106506000Y-95504000D03*
X106506000Y-96454000D03*
X103806000Y-96454000D03*
X103806000Y-94554000D03*
X103806000Y-95504000D03*
D19*
X103317000Y-85645000D03*
X104267000Y-85645000D03*
X105217000Y-85645000D03*
X105217000Y-88345000D03*
X103317000Y-88345000D03*
X104267000Y-88345000D03*
D18*
X111586000Y-94554000D03*
X111586000Y-95504000D03*
X111586000Y-96454000D03*
X108886000Y-96454000D03*
X108886000Y-94554000D03*
X108886000Y-95504000D03*
D11*
X101346000Y-73152000D03*
D12*
X101346000Y-75692000D03*
X101346000Y-78232000D03*
X101346000Y-80772000D03*
X101346000Y-83312000D03*
X101346000Y-85852000D03*
X101346000Y-88392000D03*
D17*
X119714000Y-79248000D03*
X117014000Y-79248000D03*
D20*
X108331000Y-86487000D03*
X107061000Y-86487000D03*
X109601000Y-86487000D03*
D21*
X116487000Y-75565000D03*
X116487000Y-74295000D03*
X116487000Y-73025000D03*
X119987000Y-73025000D03*
X119987000Y-74295000D03*
X119987000Y-75565000D03*
D17*
X113237000Y-79248000D03*
X110537000Y-79248000D03*
D22*
X108077000Y-79756000D03*
D23*
X103251000Y-84201000D03*
X117348000Y-90805000D03*
X110363000Y-90805000D03*
X122809000Y-87630000D03*
X110871000Y-89662000D03*
X114300000Y-87757000D03*
D24*
X124587000Y-102362000D02*
X114173000Y-102362000D01*
X114173000Y-102362000D02*
X112268000Y-100457000D01*
D25*
X110537000Y-79248000D02*
X109982000Y-78693000D01*
X109982000Y-78693000D02*
X109982000Y-77851000D01*
X109982000Y-77851000D02*
X109347000Y-77216000D01*
X106426000Y-98044000D02*
X106426000Y-99969000D01*
X106426000Y-99969000D02*
X106533000Y-100076000D01*
X111586000Y-96454000D02*
X112456000Y-96454000D01*
X112456000Y-96454000D02*
X114046000Y-98044000D01*
X106426000Y-92964000D02*
X106426000Y-94474000D01*
X106426000Y-94474000D02*
X106506000Y-94554000D01*
X108886000Y-95504000D02*
X108886000Y-96454000D01*
X108886000Y-96454000D02*
X106506000Y-96454000D01*
X106426000Y-98044000D02*
X106426000Y-96534000D01*
X106426000Y-96534000D02*
X106506000Y-96454000D01*
D24*
X114046000Y-98044000D02*
X114046000Y-98679000D01*
X114046000Y-98679000D02*
X112268000Y-100457000D01*
X108204000Y-100457000D02*
X112268000Y-100457000D01*
X106426000Y-98679000D02*
X108204000Y-100457000D01*
X106426000Y-98044000D02*
X106426000Y-98679000D01*
D25*
X106426000Y-98044000D02*
X106426000Y-97917000D01*
X103317000Y-85645000D02*
X103317000Y-84267000D01*
X103317000Y-84267000D02*
X103251000Y-84201000D01*
X118924000Y-88209000D02*
X117658000Y-88209000D01*
X117475000Y-90678000D02*
X117348000Y-90805000D01*
X117475000Y-88392000D02*
X117475000Y-90678000D01*
X117658000Y-88209000D02*
X117475000Y-88392000D01*
D26*
X119714000Y-79248000D02*
X118444000Y-80518000D01*
X114507000Y-80518000D02*
X113237000Y-79248000D01*
X118444000Y-80518000D02*
X114507000Y-80518000D01*
D25*
X124540000Y-80264000D02*
X123270000Y-78994000D01*
X123270000Y-78994000D02*
X119968000Y-78994000D01*
X119968000Y-78994000D02*
X119714000Y-79248000D01*
X123317000Y-83312000D02*
X123317000Y-81487000D01*
X121417117Y-85211883D02*
X123317000Y-83312000D01*
X121417117Y-87370883D02*
X121417117Y-85211883D01*
X123317000Y-81487000D02*
X124540000Y-80264000D01*
X120523000Y-88209000D02*
X120579000Y-88209000D01*
X120579000Y-88209000D02*
X121417117Y-87370883D01*
X105886000Y-90805000D02*
X110363000Y-90805000D01*
X103806000Y-95504000D02*
X104648000Y-95504000D01*
X105156000Y-94996000D02*
X105156000Y-91535000D01*
X104648000Y-95504000D02*
X105156000Y-94996000D01*
X105156000Y-91535000D02*
X105886000Y-90805000D01*
X120396000Y-88209000D02*
X120523000Y-88209000D01*
X120523000Y-88209000D02*
X122230000Y-88209000D01*
X122230000Y-88209000D02*
X122809000Y-87630000D01*
X118924000Y-88209000D02*
X120396000Y-88209000D01*
D26*
X124540000Y-80264000D02*
X124540000Y-80217000D01*
X108886000Y-94554000D02*
X108966000Y-94474000D01*
X108966000Y-94474000D02*
X108966000Y-92964000D01*
X118924000Y-88859000D02*
X123358000Y-88859000D01*
X123358000Y-88859000D02*
X124587000Y-87630000D01*
X124587000Y-87630000D02*
X124587000Y-87122000D01*
X118924000Y-89509000D02*
X124434000Y-89509000D01*
X124434000Y-89509000D02*
X124587000Y-89662000D01*
X108458000Y-84466004D02*
X105799208Y-84466004D01*
X109739004Y-84466004D02*
X108458000Y-84466004D01*
X112724000Y-86259000D02*
X111532000Y-86259000D01*
X111532000Y-86259000D02*
X110617000Y-85344000D01*
X110617000Y-85344000D02*
X109739004Y-84466004D01*
X105799208Y-84466004D02*
X102105204Y-80772000D01*
X102105204Y-80772000D02*
X101346000Y-80772000D01*
X107061000Y-84016002D02*
X105985604Y-84016002D01*
X111644000Y-85609000D02*
X110051002Y-84016002D01*
X110051002Y-84016002D02*
X107061000Y-84016002D01*
X112724000Y-85609000D02*
X111644000Y-85609000D01*
X102932801Y-79818801D02*
X101346000Y-78232000D01*
X102932801Y-80963199D02*
X102932801Y-79818801D01*
X105985604Y-84016002D02*
X102932801Y-80963199D01*
X112724000Y-86909000D02*
X111545602Y-86909000D01*
X104267000Y-86868000D02*
X104267000Y-85645000D01*
X104521000Y-87122000D02*
X104267000Y-86868000D01*
X105791000Y-87122000D02*
X104521000Y-87122000D01*
X106172000Y-86741000D02*
X105791000Y-87122000D01*
X106172000Y-85217000D02*
X106172000Y-86741000D01*
X106472994Y-84916006D02*
X106172000Y-85217000D01*
X109552608Y-84916006D02*
X106472994Y-84916006D01*
X111545602Y-86909000D02*
X109552608Y-84916006D01*
X112724000Y-87559000D02*
X111704000Y-87559000D01*
X104267000Y-89281000D02*
X104267000Y-88345000D01*
X104521000Y-89535000D02*
X104267000Y-89281000D01*
X109728000Y-89535000D02*
X104521000Y-89535000D01*
X111704000Y-87559000D02*
X109728000Y-89535000D01*
X118924000Y-90159000D02*
X120766000Y-90159000D01*
X122936000Y-93091000D02*
X124587000Y-94742000D01*
X122936000Y-92329000D02*
X122936000Y-93091000D01*
X120766000Y-90159000D02*
X122936000Y-92329000D01*
X118924000Y-90809000D02*
X120779602Y-90809000D01*
X122428000Y-95123000D02*
X124587000Y-97282000D01*
X122428000Y-92457398D02*
X122428000Y-95123000D01*
X120779602Y-90809000D02*
X122428000Y-92457398D01*
X122047000Y-82042000D02*
X122047000Y-80471000D01*
X122047000Y-80471000D02*
X121840000Y-80264000D01*
D25*
X119987000Y-73025000D02*
X121539000Y-73025000D01*
X122047000Y-73533000D02*
X122047000Y-77216000D01*
X121539000Y-73025000D02*
X122047000Y-73533000D01*
D26*
X118924000Y-86259000D02*
X120117398Y-86259000D01*
X120846002Y-83242998D02*
X122047000Y-82042000D01*
X120846002Y-85530396D02*
X120846002Y-83242998D01*
X120117398Y-86259000D02*
X120846002Y-85530396D01*
X118924000Y-84959000D02*
X118233000Y-84959000D01*
X118233000Y-84959000D02*
X116967000Y-83693000D01*
X116967000Y-83693000D02*
X116967000Y-82296000D01*
X112724000Y-88859000D02*
X111674000Y-88859000D01*
X111674000Y-88859000D02*
X110871000Y-89662000D01*
D25*
X105217000Y-85645000D02*
X105217000Y-84767682D01*
X103761318Y-83312000D02*
X101346000Y-83312000D01*
X105217000Y-84767682D02*
X103761318Y-83312000D01*
X103317000Y-88345000D02*
X103317000Y-87823000D01*
X103317000Y-87823000D02*
X101346000Y-85852000D01*
D26*
X112724000Y-84959000D02*
X111630398Y-84959000D01*
X102870000Y-77216000D02*
X101346000Y-75692000D01*
X102870000Y-79119602D02*
X102870000Y-77216000D01*
X103441500Y-79691102D02*
X102870000Y-79119602D01*
X103441500Y-80835500D02*
X103441500Y-79691102D01*
X106172000Y-83566000D02*
X103441500Y-80835500D01*
X110237398Y-83566000D02*
X106172000Y-83566000D01*
X111630398Y-84959000D02*
X110237398Y-83566000D01*
X112724000Y-88209000D02*
X113848000Y-88209000D01*
X113848000Y-88209000D02*
X114300000Y-87757000D01*
D25*
X115062000Y-87503000D02*
X114173000Y-86614000D01*
X113930000Y-90159000D02*
X115062000Y-89027000D01*
X115062000Y-89027000D02*
X115062000Y-87503000D01*
X112724000Y-90159000D02*
X113930000Y-90159000D01*
X114173000Y-86614000D02*
X114173000Y-82550000D01*
X114173000Y-82550000D02*
X114427000Y-82296000D01*
D26*
X116487000Y-74295000D02*
X115443000Y-74295000D01*
X114427000Y-75311000D02*
X114427000Y-77216000D01*
X115443000Y-74295000D02*
X114427000Y-75311000D01*
X111506000Y-92964000D02*
X111586000Y-93044000D01*
X111586000Y-93044000D02*
X111586000Y-94554000D01*
D25*
X111506000Y-92964000D02*
X111125000Y-92583000D01*
X111125000Y-92583000D02*
X111125000Y-90424000D01*
X111390000Y-90159000D02*
X112724000Y-90159000D01*
X111125000Y-90424000D02*
X111390000Y-90159000D01*
D26*
X114427000Y-82424398D02*
X114427000Y-82296000D01*
D25*
X117014000Y-79248000D02*
X119046000Y-77216000D01*
X119046000Y-77216000D02*
X119507000Y-77216000D01*
D26*
X118924000Y-85609000D02*
X120131000Y-85609000D01*
X120396000Y-83185000D02*
X119507000Y-82296000D01*
X120396000Y-85344000D02*
X120396000Y-83185000D01*
X120131000Y-85609000D02*
X120396000Y-85344000D01*
D25*
X119987000Y-75565000D02*
X119987000Y-76736000D01*
X119987000Y-76736000D02*
X119507000Y-77216000D01*
D26*
X119554000Y-82249000D02*
X119507000Y-82296000D01*
X115131002Y-80968002D02*
X109289002Y-80968002D01*
X115131002Y-80968002D02*
X115697000Y-81534000D01*
X115697000Y-81534000D02*
X115697000Y-82550000D01*
X115697000Y-82550000D02*
X115697000Y-83059398D01*
X115697000Y-83059398D02*
X117347301Y-84709699D01*
X117347301Y-84709699D02*
X117347301Y-86613301D01*
X117347301Y-86613301D02*
X117643000Y-86909000D01*
X118924000Y-86909000D02*
X117643000Y-86909000D01*
X109289002Y-80968002D02*
X108077000Y-79756000D01*
D27*
G36*
X126266000Y-103914000D02*
X99794000Y-103914000D01*
X99794000Y-100302250D01*
X102958000Y-100302250D01*
X102958000Y-100765647D01*
X103007479Y-100885098D01*
X103098903Y-100976522D01*
X103218354Y-101026000D01*
X103806750Y-101026000D01*
X103888000Y-100944750D01*
X103888000Y-100221000D01*
X104178000Y-100221000D01*
X104178000Y-100944750D01*
X104259250Y-101026000D01*
X104847646Y-101026000D01*
X104967097Y-100976522D01*
X105058521Y-100885098D01*
X105108000Y-100765647D01*
X105108000Y-100302250D01*
X105026750Y-100221000D01*
X104178000Y-100221000D01*
X103888000Y-100221000D01*
X103039250Y-100221000D01*
X102958000Y-100302250D01*
X99794000Y-100302250D01*
X99794000Y-99386353D01*
X102958000Y-99386353D01*
X102958000Y-99849750D01*
X103039250Y-99931000D01*
X103888000Y-99931000D01*
X103888000Y-99911000D01*
X104178000Y-99911000D01*
X104178000Y-99931000D01*
X105026750Y-99931000D01*
X105108000Y-99849750D01*
X105108000Y-99386353D01*
X105058521Y-99266902D01*
X104967097Y-99175478D01*
X104847646Y-99126000D01*
X104259250Y-99126000D01*
X104178002Y-99207248D01*
X104178002Y-99147709D01*
X104207212Y-99145147D01*
X104437497Y-99049759D01*
X104530089Y-98893150D01*
X103886000Y-98249061D01*
X103241911Y-98893150D01*
X103334503Y-99049759D01*
X103576490Y-99126000D01*
X103218354Y-99126000D01*
X103098903Y-99175478D01*
X103007479Y-99266902D01*
X102958000Y-99386353D01*
X99794000Y-99386353D01*
X99794000Y-98282638D01*
X100140792Y-98282638D01*
X100323855Y-98725686D01*
X100662531Y-99064953D01*
X101105259Y-99248790D01*
X101584638Y-99249208D01*
X102027686Y-99066145D01*
X102366953Y-98727469D01*
X102550790Y-98284741D01*
X102551108Y-97919371D01*
X102745751Y-97919371D01*
X102784853Y-98365212D01*
X102880241Y-98595497D01*
X103036850Y-98688089D01*
X103680939Y-98044000D01*
X103036850Y-97399911D01*
X102880241Y-97492503D01*
X102745751Y-97919371D01*
X102551108Y-97919371D01*
X102551208Y-97805362D01*
X102368145Y-97362314D01*
X102029469Y-97023047D01*
X101586741Y-96839210D01*
X101107362Y-96838792D01*
X100664314Y-97021855D01*
X100325047Y-97360531D01*
X100141210Y-97803259D01*
X100140792Y-98282638D01*
X99794000Y-98282638D01*
X99794000Y-93202638D01*
X100140792Y-93202638D01*
X100323855Y-93645686D01*
X100662531Y-93984953D01*
X101105259Y-94168790D01*
X101584638Y-94169208D01*
X102027686Y-93986145D01*
X102366953Y-93647469D01*
X102550790Y-93204741D01*
X102551108Y-92839371D01*
X102745751Y-92839371D01*
X102784853Y-93285212D01*
X102880241Y-93515497D01*
X103036850Y-93608089D01*
X103680939Y-92964000D01*
X103036850Y-92319911D01*
X102880241Y-92412503D01*
X102745751Y-92839371D01*
X102551108Y-92839371D01*
X102551208Y-92725362D01*
X102368145Y-92282314D01*
X102029469Y-91943047D01*
X101998048Y-91930000D01*
X102031002Y-91930000D01*
X102031002Y-91848752D01*
X102112250Y-91930000D01*
X102950646Y-91930000D01*
X103070097Y-91880522D01*
X103161521Y-91789098D01*
X103211000Y-91669647D01*
X103211000Y-91031250D01*
X103129750Y-90950000D01*
X102031000Y-90950000D01*
X102031000Y-90970000D01*
X101741000Y-90970000D01*
X101741000Y-90950000D01*
X100642250Y-90950000D01*
X100561000Y-91031250D01*
X100561000Y-91669647D01*
X100610479Y-91789098D01*
X100701903Y-91880522D01*
X100757259Y-91903451D01*
X100664314Y-91941855D01*
X100325047Y-92280531D01*
X100141210Y-92723259D01*
X100140792Y-93202638D01*
X99794000Y-93202638D01*
X99794000Y-89940353D01*
X100561000Y-89940353D01*
X100561000Y-90578750D01*
X100642250Y-90660000D01*
X101741000Y-90660000D01*
X101741000Y-89761250D01*
X102031000Y-89761250D01*
X102031000Y-90660000D01*
X103129750Y-90660000D01*
X103211000Y-90578750D01*
X103211000Y-89940353D01*
X103161521Y-89820902D01*
X103070097Y-89729478D01*
X102950646Y-89680000D01*
X102112250Y-89680000D01*
X102031000Y-89761250D01*
X101741000Y-89761250D01*
X101659750Y-89680000D01*
X100821354Y-89680000D01*
X100701903Y-89729478D01*
X100610479Y-89820902D01*
X100561000Y-89940353D01*
X99794000Y-89940353D01*
X99794000Y-75692000D01*
X99897161Y-75692000D01*
X99993727Y-76177472D01*
X100268725Y-76589036D01*
X100680289Y-76864034D01*
X101165761Y-76960600D01*
X101526239Y-76960600D01*
X101808852Y-76904385D01*
X101952693Y-77048227D01*
X101526239Y-76963400D01*
X101165761Y-76963400D01*
X100680289Y-77059966D01*
X100268725Y-77334964D01*
X99993727Y-77746528D01*
X99897161Y-78232000D01*
X99993727Y-78717472D01*
X100268725Y-79129036D01*
X100680289Y-79404034D01*
X101165761Y-79500600D01*
X101526239Y-79500600D01*
X101808852Y-79444385D01*
X101952693Y-79588227D01*
X101526239Y-79503400D01*
X101165761Y-79503400D01*
X100680289Y-79599966D01*
X100268725Y-79874964D01*
X99993727Y-80286528D01*
X99897161Y-80772000D01*
X99993727Y-81257472D01*
X100268725Y-81669036D01*
X100680289Y-81944034D01*
X101165761Y-82040600D01*
X101526239Y-82040600D01*
X102011711Y-81944034D01*
X102321026Y-81737356D01*
X103290670Y-82707000D01*
X102618407Y-82707000D01*
X102423275Y-82414964D01*
X102011711Y-82139966D01*
X101526239Y-82043400D01*
X101165761Y-82043400D01*
X100680289Y-82139966D01*
X100268725Y-82414964D01*
X99993727Y-82826528D01*
X99897161Y-83312000D01*
X99993727Y-83797472D01*
X100268725Y-84209036D01*
X100680289Y-84484034D01*
X101165761Y-84580600D01*
X101526239Y-84580600D01*
X102011711Y-84484034D01*
X102423275Y-84209036D01*
X102618407Y-83917000D01*
X103510718Y-83917000D01*
X104075785Y-84482066D01*
X103942000Y-84482066D01*
X103791916Y-84510306D01*
X103699149Y-84570000D01*
X103543250Y-84570000D01*
X103462000Y-84651250D01*
X103462000Y-85500000D01*
X103482000Y-85500000D01*
X103482000Y-85790000D01*
X103462000Y-85790000D01*
X103462000Y-86638750D01*
X103543250Y-86720000D01*
X103700264Y-86720000D01*
X103737000Y-86745101D01*
X103737000Y-86867995D01*
X103736999Y-86868000D01*
X103777344Y-87070822D01*
X103861762Y-87197164D01*
X103791916Y-87210306D01*
X103789412Y-87211917D01*
X103642000Y-87182066D01*
X103531666Y-87182066D01*
X103069600Y-86720000D01*
X103090750Y-86720000D01*
X103172000Y-86638750D01*
X103172000Y-85790000D01*
X103152000Y-85790000D01*
X103152000Y-85500000D01*
X103172000Y-85500000D01*
X103172000Y-84651250D01*
X103090750Y-84570000D01*
X102927353Y-84570000D01*
X102807902Y-84619479D01*
X102716478Y-84710903D01*
X102667000Y-84830354D01*
X102667000Y-85319725D01*
X102423275Y-84954964D01*
X102011711Y-84679966D01*
X101526239Y-84583400D01*
X101165761Y-84583400D01*
X100680289Y-84679966D01*
X100268725Y-84954964D01*
X99993727Y-85366528D01*
X99897161Y-85852000D01*
X99993727Y-86337472D01*
X100268725Y-86749036D01*
X100680289Y-87024034D01*
X101165761Y-87120600D01*
X101526239Y-87120600D01*
X101720383Y-87081983D01*
X101820290Y-87181890D01*
X101526239Y-87123400D01*
X101165761Y-87123400D01*
X100680289Y-87219966D01*
X100268725Y-87494964D01*
X99993727Y-87906528D01*
X99897161Y-88392000D01*
X99993727Y-88877472D01*
X100268725Y-89289036D01*
X100680289Y-89564034D01*
X101165761Y-89660600D01*
X101526239Y-89660600D01*
X102011711Y-89564034D01*
X102423275Y-89289036D01*
X102579066Y-89055878D01*
X102579066Y-89095000D01*
X102607306Y-89245084D01*
X102696006Y-89382927D01*
X102831346Y-89475401D01*
X102992000Y-89507934D01*
X103642000Y-89507934D01*
X103777084Y-89482516D01*
X103777344Y-89483822D01*
X103892233Y-89655767D01*
X104146231Y-89909764D01*
X104146233Y-89909767D01*
X104318178Y-90024656D01*
X104473066Y-90055465D01*
X104473066Y-91605000D01*
X104501306Y-91755084D01*
X104551000Y-91832310D01*
X104551000Y-92093936D01*
X104530088Y-92114848D01*
X104437497Y-91958241D01*
X104010629Y-91823751D01*
X103564788Y-91862853D01*
X103334503Y-91958241D01*
X103241911Y-92114850D01*
X103886000Y-92758939D01*
X103900143Y-92744797D01*
X104105204Y-92949858D01*
X104091061Y-92964000D01*
X104105204Y-92978143D01*
X103900143Y-93183204D01*
X103886000Y-93169061D01*
X103241911Y-93813150D01*
X103243635Y-93816066D01*
X103056000Y-93816066D01*
X102905916Y-93844306D01*
X102768073Y-93933006D01*
X102675599Y-94068346D01*
X102643066Y-94229000D01*
X102643066Y-94879000D01*
X102671306Y-95029084D01*
X102672917Y-95031588D01*
X102643066Y-95179000D01*
X102643066Y-95829000D01*
X102671306Y-95979084D01*
X102672917Y-95981588D01*
X102643066Y-96129000D01*
X102643066Y-96779000D01*
X102671306Y-96929084D01*
X102760006Y-97066927D01*
X102895346Y-97159401D01*
X103056000Y-97191934D01*
X103243635Y-97191934D01*
X103241911Y-97194850D01*
X103886000Y-97838939D01*
X104530089Y-97194850D01*
X104528365Y-97191934D01*
X104556000Y-97191934D01*
X104706084Y-97163694D01*
X104843927Y-97074994D01*
X104936401Y-96939654D01*
X104968934Y-96779000D01*
X104968934Y-96129000D01*
X104947908Y-96017255D01*
X105075800Y-95931800D01*
X105431000Y-95576599D01*
X105431000Y-95649002D01*
X105512248Y-95649002D01*
X105431000Y-95730250D01*
X105431000Y-95887264D01*
X105375599Y-95968346D01*
X105343066Y-96129000D01*
X105343066Y-96779000D01*
X105371306Y-96929084D01*
X105444355Y-97042604D01*
X105432515Y-97050515D01*
X105127949Y-97506330D01*
X105021000Y-98044000D01*
X105021000Y-98108780D01*
X104987147Y-97722788D01*
X104891759Y-97492503D01*
X104735150Y-97399911D01*
X104091061Y-98044000D01*
X104735150Y-98688089D01*
X104891759Y-98595497D01*
X105021000Y-98185289D01*
X105021000Y-98679000D01*
X105127949Y-99216671D01*
X105370066Y-99579024D01*
X105370066Y-100701000D01*
X105398306Y-100851084D01*
X105487006Y-100988927D01*
X105622346Y-101081401D01*
X105783000Y-101113934D01*
X106873964Y-101113934D01*
X107210515Y-101450485D01*
X107666330Y-101755051D01*
X108204000Y-101862000D01*
X111686030Y-101862000D01*
X113179515Y-103355485D01*
X113635330Y-103660051D01*
X114173000Y-103767000D01*
X124587000Y-103767000D01*
X125124670Y-103660051D01*
X125156872Y-103638534D01*
X125603000Y-103638534D01*
X125753084Y-103610294D01*
X125890927Y-103521594D01*
X125983401Y-103386254D01*
X126015934Y-103225600D01*
X126015934Y-101498400D01*
X125987694Y-101348316D01*
X125898994Y-101210473D01*
X125763654Y-101117999D01*
X125603000Y-101085466D01*
X125156872Y-101085466D01*
X125124670Y-101063949D01*
X124732002Y-100985843D01*
X124732002Y-100929802D01*
X124918100Y-100997569D01*
X125354368Y-100839699D01*
X125697013Y-100526893D01*
X125881915Y-100149764D01*
X125837216Y-99967000D01*
X124732000Y-99967000D01*
X124732000Y-99987000D01*
X124442000Y-99987000D01*
X124442000Y-99967000D01*
X123336784Y-99967000D01*
X123292085Y-100149764D01*
X123476987Y-100526893D01*
X123819632Y-100839699D01*
X124143789Y-100957000D01*
X114754970Y-100957000D01*
X114254970Y-100457000D01*
X115039485Y-99672485D01*
X115158587Y-99494236D01*
X123292085Y-99494236D01*
X123336784Y-99677000D01*
X124442000Y-99677000D01*
X124442000Y-98714199D01*
X124732000Y-98714199D01*
X124732000Y-99677000D01*
X125837216Y-99677000D01*
X125881915Y-99494236D01*
X125697013Y-99117107D01*
X125354368Y-98804301D01*
X124918100Y-98646431D01*
X124732000Y-98714199D01*
X124442000Y-98714199D01*
X124255900Y-98646431D01*
X123819632Y-98804301D01*
X123476987Y-99117107D01*
X123292085Y-99494236D01*
X115158587Y-99494236D01*
X115344051Y-99216670D01*
X115408403Y-98893150D01*
X115941911Y-98893150D01*
X116034503Y-99049759D01*
X116461371Y-99184249D01*
X116907212Y-99145147D01*
X117137497Y-99049759D01*
X117230089Y-98893150D01*
X116586000Y-98249061D01*
X115941911Y-98893150D01*
X115408403Y-98893150D01*
X115451000Y-98679000D01*
X115451000Y-98044000D01*
X115426210Y-97919371D01*
X115445751Y-97919371D01*
X115484853Y-98365212D01*
X115580241Y-98595497D01*
X115736850Y-98688089D01*
X116380939Y-98044000D01*
X116791061Y-98044000D01*
X117435150Y-98688089D01*
X117591759Y-98595497D01*
X117690329Y-98282638D01*
X117920792Y-98282638D01*
X118103855Y-98725686D01*
X118442531Y-99064953D01*
X118885259Y-99248790D01*
X119364638Y-99249208D01*
X119807686Y-99066145D01*
X120146953Y-98727469D01*
X120330790Y-98284741D01*
X120331208Y-97805362D01*
X120148145Y-97362314D01*
X119809469Y-97023047D01*
X119366741Y-96839210D01*
X118887362Y-96838792D01*
X118444314Y-97021855D01*
X118105047Y-97360531D01*
X117921210Y-97803259D01*
X117920792Y-98282638D01*
X117690329Y-98282638D01*
X117726249Y-98168629D01*
X117687147Y-97722788D01*
X117591759Y-97492503D01*
X117435150Y-97399911D01*
X116791061Y-98044000D01*
X116380939Y-98044000D01*
X115736850Y-97399911D01*
X115580241Y-97492503D01*
X115445751Y-97919371D01*
X115426210Y-97919371D01*
X115344051Y-97506330D01*
X115135927Y-97194850D01*
X115941911Y-97194850D01*
X116586000Y-97838939D01*
X117230089Y-97194850D01*
X117137497Y-97038241D01*
X116710629Y-96903751D01*
X116264788Y-96942853D01*
X116034503Y-97038241D01*
X115941911Y-97194850D01*
X115135927Y-97194850D01*
X115039485Y-97050515D01*
X114583670Y-96745949D01*
X114046000Y-96639000D01*
X113587751Y-96730151D01*
X112883800Y-96026200D01*
X112687524Y-95895053D01*
X112663677Y-95890309D01*
X112661000Y-95886149D01*
X112661000Y-95730250D01*
X112579750Y-95649000D01*
X111731000Y-95649000D01*
X111731000Y-95669000D01*
X111441000Y-95669000D01*
X111441000Y-95649000D01*
X110592250Y-95649000D01*
X110511000Y-95730250D01*
X110511000Y-95887264D01*
X110455599Y-95968346D01*
X110423066Y-96129000D01*
X110423066Y-96779000D01*
X110451306Y-96929084D01*
X110540006Y-97066927D01*
X110675346Y-97159401D01*
X110684642Y-97161284D01*
X110485047Y-97360531D01*
X110301210Y-97803259D01*
X110300792Y-98282638D01*
X110483855Y-98725686D01*
X110809601Y-99052000D01*
X109661856Y-99052000D01*
X109986953Y-98727469D01*
X110170790Y-98284741D01*
X110171208Y-97805362D01*
X109988145Y-97362314D01*
X109788390Y-97162210D01*
X109923927Y-97074994D01*
X110016401Y-96939654D01*
X110048934Y-96779000D01*
X110048934Y-96129000D01*
X110020694Y-95978916D01*
X110019083Y-95976412D01*
X110048934Y-95829000D01*
X110048934Y-95179000D01*
X110020694Y-95028916D01*
X110019083Y-95026412D01*
X110048934Y-94879000D01*
X110048934Y-94229000D01*
X110020694Y-94078916D01*
X109931994Y-93941073D01*
X109796654Y-93848599D01*
X109787358Y-93846716D01*
X109986953Y-93647469D01*
X110170790Y-93204741D01*
X110171208Y-92725362D01*
X109988145Y-92282314D01*
X109649469Y-91943047D01*
X109206741Y-91759210D01*
X108727362Y-91758792D01*
X108284314Y-91941855D01*
X107945047Y-92280531D01*
X107761210Y-92723259D01*
X107760792Y-93202638D01*
X107943855Y-93645686D01*
X108117427Y-93819561D01*
X107985916Y-93844306D01*
X107848073Y-93933006D01*
X107755599Y-94068346D01*
X107723066Y-94229000D01*
X107723066Y-94879000D01*
X107751306Y-95029084D01*
X107752917Y-95031588D01*
X107723066Y-95179000D01*
X107723066Y-95829000D01*
X107726829Y-95849000D01*
X107581000Y-95849000D01*
X107581000Y-95730250D01*
X107499750Y-95649000D01*
X106651000Y-95649000D01*
X106651000Y-95669000D01*
X106361000Y-95669000D01*
X106361000Y-95649000D01*
X106341000Y-95649000D01*
X106341000Y-95359000D01*
X106361000Y-95359000D01*
X106361000Y-95339000D01*
X106651000Y-95339000D01*
X106651000Y-95359000D01*
X107499750Y-95359000D01*
X107581000Y-95277750D01*
X107581000Y-95120736D01*
X107636401Y-95039654D01*
X107668934Y-94879000D01*
X107668934Y-94229000D01*
X107640694Y-94078916D01*
X107551994Y-93941073D01*
X107416654Y-93848599D01*
X107274341Y-93819780D01*
X107446953Y-93647469D01*
X107630790Y-93204741D01*
X107631208Y-92725362D01*
X107448145Y-92282314D01*
X107109469Y-91943047D01*
X107108926Y-91942821D01*
X107173927Y-91900994D01*
X107266401Y-91765654D01*
X107298934Y-91605000D01*
X107298934Y-91410000D01*
X109981619Y-91410000D01*
X110222152Y-91509878D01*
X110502618Y-91510122D01*
X110520000Y-91502940D01*
X110520000Y-92245639D01*
X110485047Y-92280531D01*
X110301210Y-92723259D01*
X110300792Y-93202638D01*
X110483855Y-93645686D01*
X110683610Y-93845790D01*
X110548073Y-93933006D01*
X110455599Y-94068346D01*
X110423066Y-94229000D01*
X110423066Y-94879000D01*
X110451306Y-95029084D01*
X110511000Y-95121851D01*
X110511000Y-95277750D01*
X110592250Y-95359000D01*
X111441000Y-95359000D01*
X111441000Y-95339000D01*
X111731000Y-95339000D01*
X111731000Y-95359000D01*
X112579750Y-95359000D01*
X112661000Y-95277750D01*
X112661000Y-95120736D01*
X112716401Y-95039654D01*
X112748934Y-94879000D01*
X112748934Y-94229000D01*
X112720694Y-94078916D01*
X112631994Y-93941073D01*
X112496654Y-93848599D01*
X112354341Y-93819780D01*
X112526953Y-93647469D01*
X112710790Y-93204741D01*
X112710791Y-93202638D01*
X112840792Y-93202638D01*
X113023855Y-93645686D01*
X113362531Y-93984953D01*
X113805259Y-94168790D01*
X114284638Y-94169208D01*
X114727686Y-93986145D01*
X114900982Y-93813150D01*
X115941911Y-93813150D01*
X116034503Y-93969759D01*
X116461371Y-94104249D01*
X116907212Y-94065147D01*
X117137497Y-93969759D01*
X117230089Y-93813150D01*
X116586000Y-93169061D01*
X115941911Y-93813150D01*
X114900982Y-93813150D01*
X115066953Y-93647469D01*
X115250790Y-93204741D01*
X115251108Y-92839371D01*
X115445751Y-92839371D01*
X115484853Y-93285212D01*
X115580241Y-93515497D01*
X115736850Y-93608089D01*
X116380939Y-92964000D01*
X116791061Y-92964000D01*
X117435150Y-93608089D01*
X117591759Y-93515497D01*
X117690329Y-93202638D01*
X117920792Y-93202638D01*
X118103855Y-93645686D01*
X118442531Y-93984953D01*
X118885259Y-94168790D01*
X119364638Y-94169208D01*
X119807686Y-93986145D01*
X120146953Y-93647469D01*
X120330790Y-93204741D01*
X120331208Y-92725362D01*
X120148145Y-92282314D01*
X119809469Y-91943047D01*
X119366741Y-91759210D01*
X118887362Y-91758792D01*
X118444314Y-91941855D01*
X118105047Y-92280531D01*
X117921210Y-92723259D01*
X117920792Y-93202638D01*
X117690329Y-93202638D01*
X117726249Y-93088629D01*
X117687147Y-92642788D01*
X117591759Y-92412503D01*
X117435150Y-92319911D01*
X116791061Y-92964000D01*
X116380939Y-92964000D01*
X115736850Y-92319911D01*
X115580241Y-92412503D01*
X115445751Y-92839371D01*
X115251108Y-92839371D01*
X115251208Y-92725362D01*
X115068145Y-92282314D01*
X114900973Y-92114850D01*
X115941911Y-92114850D01*
X116586000Y-92758939D01*
X117230089Y-92114850D01*
X117137497Y-91958241D01*
X116710629Y-91823751D01*
X116264788Y-91862853D01*
X116034503Y-91958241D01*
X115941911Y-92114850D01*
X114900973Y-92114850D01*
X114729469Y-91943047D01*
X114286741Y-91759210D01*
X113807362Y-91758792D01*
X113364314Y-91941855D01*
X113025047Y-92280531D01*
X112841210Y-92723259D01*
X112840792Y-93202638D01*
X112710791Y-93202638D01*
X112711208Y-92725362D01*
X112528145Y-92282314D01*
X112189469Y-91943047D01*
X111746741Y-91759210D01*
X111730000Y-91759195D01*
X111730000Y-91321841D01*
X111759354Y-91334000D01*
X112497750Y-91334000D01*
X112579000Y-91252750D01*
X112579000Y-90909000D01*
X112869000Y-90909000D01*
X112869000Y-91252750D01*
X112950250Y-91334000D01*
X113688646Y-91334000D01*
X113808097Y-91284522D01*
X113899521Y-91193098D01*
X113949000Y-91073647D01*
X113949000Y-90990250D01*
X113867750Y-90909000D01*
X112869000Y-90909000D01*
X112579000Y-90909000D01*
X112559000Y-90909000D01*
X112559000Y-90771934D01*
X113624000Y-90771934D01*
X113666166Y-90764000D01*
X113929995Y-90764000D01*
X113930000Y-90764001D01*
X114161524Y-90717947D01*
X114357800Y-90586800D01*
X115489797Y-89454802D01*
X115489800Y-89454800D01*
X115561878Y-89346927D01*
X115620947Y-89258524D01*
X115667001Y-89027000D01*
X115667000Y-89026995D01*
X115667000Y-87503005D01*
X115667001Y-87503000D01*
X115620947Y-87271476D01*
X115489800Y-87075200D01*
X114778000Y-86363400D01*
X114778000Y-83454781D01*
X115108686Y-83318145D01*
X115200280Y-83226710D01*
X115207344Y-83262220D01*
X115322233Y-83434165D01*
X116817301Y-84929233D01*
X116817301Y-86613296D01*
X116817300Y-86613301D01*
X116857645Y-86816123D01*
X116972534Y-86988068D01*
X117268231Y-87283764D01*
X117268233Y-87283767D01*
X117408890Y-87377750D01*
X117440178Y-87398656D01*
X117643000Y-87439001D01*
X117643005Y-87439000D01*
X117760250Y-87439000D01*
X117780250Y-87459000D01*
X117818853Y-87459000D01*
X117863346Y-87489401D01*
X118024000Y-87521934D01*
X119089000Y-87521934D01*
X119089000Y-87596066D01*
X118024000Y-87596066D01*
X117981834Y-87604000D01*
X117658005Y-87604000D01*
X117658000Y-87603999D01*
X117426476Y-87650053D01*
X117230200Y-87781200D01*
X117047200Y-87964200D01*
X116916053Y-88160476D01*
X116869999Y-88392000D01*
X116870000Y-88392005D01*
X116870000Y-90286014D01*
X116750678Y-90405128D01*
X116643122Y-90664152D01*
X116642878Y-90944618D01*
X116749981Y-91203829D01*
X116948128Y-91402322D01*
X117207152Y-91509878D01*
X117487618Y-91510122D01*
X117746829Y-91403019D01*
X117802273Y-91347672D01*
X117863346Y-91389401D01*
X118024000Y-91421934D01*
X119824000Y-91421934D01*
X119974084Y-91393694D01*
X120059080Y-91339000D01*
X120560068Y-91339000D01*
X121898000Y-92676931D01*
X121898000Y-95122995D01*
X121897999Y-95123000D01*
X121938344Y-95325822D01*
X122053233Y-95497767D01*
X123281698Y-96726232D01*
X123234727Y-96796528D01*
X123138161Y-97282000D01*
X123234727Y-97767472D01*
X123509725Y-98179036D01*
X123921289Y-98454034D01*
X124406761Y-98550600D01*
X124767239Y-98550600D01*
X125252711Y-98454034D01*
X125664275Y-98179036D01*
X125939273Y-97767472D01*
X126035839Y-97282000D01*
X125939273Y-96796528D01*
X125664275Y-96384964D01*
X125252711Y-96109966D01*
X124767239Y-96013400D01*
X124406761Y-96013400D01*
X124124149Y-96069615D01*
X123980307Y-95925773D01*
X124406761Y-96010600D01*
X124767239Y-96010600D01*
X125252711Y-95914034D01*
X125664275Y-95639036D01*
X125939273Y-95227472D01*
X126035839Y-94742000D01*
X125939273Y-94256528D01*
X125664275Y-93844964D01*
X125252711Y-93569966D01*
X124767239Y-93473400D01*
X124406761Y-93473400D01*
X124124148Y-93529615D01*
X123980307Y-93385773D01*
X124406761Y-93470600D01*
X124767239Y-93470600D01*
X125252711Y-93374034D01*
X125664275Y-93099036D01*
X125939273Y-92687472D01*
X126035839Y-92202000D01*
X125939273Y-91716528D01*
X125664275Y-91304964D01*
X125252711Y-91029966D01*
X124767239Y-90933400D01*
X124406761Y-90933400D01*
X123921289Y-91029966D01*
X123509725Y-91304964D01*
X123234727Y-91716528D01*
X123207905Y-91851372D01*
X121395534Y-90039000D01*
X123213151Y-90039000D01*
X123234727Y-90147472D01*
X123509725Y-90559036D01*
X123921289Y-90834034D01*
X124406761Y-90930600D01*
X124767239Y-90930600D01*
X125252711Y-90834034D01*
X125664275Y-90559036D01*
X125939273Y-90147472D01*
X126035839Y-89662000D01*
X125939273Y-89176528D01*
X125664275Y-88764964D01*
X125252711Y-88489966D01*
X124767239Y-88393400D01*
X124573133Y-88393400D01*
X124575933Y-88390600D01*
X124767239Y-88390600D01*
X125252711Y-88294034D01*
X125664275Y-88019036D01*
X125939273Y-87607472D01*
X126035839Y-87122000D01*
X125939273Y-86636528D01*
X125664275Y-86224964D01*
X125252711Y-85949966D01*
X124767239Y-85853400D01*
X124406761Y-85853400D01*
X124246157Y-85885346D01*
X124432676Y-85698827D01*
X124482155Y-85579376D01*
X124482155Y-85450083D01*
X124432677Y-85330631D01*
X124105006Y-85002960D01*
X123990101Y-85002960D01*
X123389944Y-85603117D01*
X123404086Y-85617260D01*
X123199026Y-85822320D01*
X123184883Y-85808178D01*
X122584726Y-86408335D01*
X122584726Y-86523240D01*
X122912397Y-86850911D01*
X123031849Y-86900389D01*
X123161142Y-86900389D01*
X123184137Y-86890864D01*
X123159967Y-87012371D01*
X122949848Y-86925122D01*
X122669382Y-86924878D01*
X122631430Y-86940560D01*
X122022117Y-86331247D01*
X122022117Y-85960631D01*
X122264760Y-86203274D01*
X122379665Y-86203274D01*
X122979822Y-85603117D01*
X122965680Y-85588974D01*
X123170740Y-85383914D01*
X123184883Y-85398056D01*
X123785040Y-84797899D01*
X123785040Y-84682994D01*
X123457369Y-84355323D01*
X123337917Y-84305845D01*
X123208624Y-84305845D01*
X123157633Y-84326967D01*
X123744797Y-83739802D01*
X123744800Y-83739800D01*
X123875947Y-83543523D01*
X123922000Y-83312000D01*
X123922000Y-83166064D01*
X123942912Y-83145152D01*
X124035503Y-83301759D01*
X124462371Y-83436249D01*
X124908212Y-83397147D01*
X125138497Y-83301759D01*
X125231089Y-83145150D01*
X124587000Y-82501061D01*
X124572858Y-82515204D01*
X124367797Y-82310143D01*
X124381939Y-82296000D01*
X124792061Y-82296000D01*
X125436150Y-82940089D01*
X125592759Y-82847497D01*
X125727249Y-82420629D01*
X125688147Y-81974788D01*
X125592759Y-81744503D01*
X125436150Y-81651911D01*
X124792061Y-82296000D01*
X124381939Y-82296000D01*
X124367797Y-82281858D01*
X124572858Y-82076797D01*
X124587000Y-82090939D01*
X125231089Y-81446850D01*
X125160191Y-81326934D01*
X125290000Y-81326934D01*
X125440084Y-81298694D01*
X125577927Y-81209994D01*
X125670401Y-81074654D01*
X125702934Y-80914000D01*
X125702934Y-79614000D01*
X125674694Y-79463916D01*
X125585994Y-79326073D01*
X125450654Y-79233599D01*
X125290000Y-79201066D01*
X124332666Y-79201066D01*
X123697800Y-78566200D01*
X123501524Y-78435053D01*
X123270000Y-78388999D01*
X123269995Y-78389000D01*
X122363588Y-78389000D01*
X122728686Y-78238145D01*
X122901982Y-78065150D01*
X123942911Y-78065150D01*
X124035503Y-78221759D01*
X124462371Y-78356249D01*
X124908212Y-78317147D01*
X125138497Y-78221759D01*
X125231089Y-78065150D01*
X124587000Y-77421061D01*
X123942911Y-78065150D01*
X122901982Y-78065150D01*
X123067953Y-77899469D01*
X123251790Y-77456741D01*
X123252108Y-77091371D01*
X123446751Y-77091371D01*
X123485853Y-77537212D01*
X123581241Y-77767497D01*
X123737850Y-77860089D01*
X124381939Y-77216000D01*
X124792061Y-77216000D01*
X125436150Y-77860089D01*
X125592759Y-77767497D01*
X125727249Y-77340629D01*
X125688147Y-76894788D01*
X125592759Y-76664503D01*
X125436150Y-76571911D01*
X124792061Y-77216000D01*
X124381939Y-77216000D01*
X123737850Y-76571911D01*
X123581241Y-76664503D01*
X123446751Y-77091371D01*
X123252108Y-77091371D01*
X123252208Y-76977362D01*
X123069145Y-76534314D01*
X122901973Y-76366850D01*
X123942911Y-76366850D01*
X124587000Y-77010939D01*
X125231089Y-76366850D01*
X125138497Y-76210241D01*
X124711629Y-76075751D01*
X124265788Y-76114853D01*
X124035503Y-76210241D01*
X123942911Y-76366850D01*
X122901973Y-76366850D01*
X122730469Y-76195047D01*
X122652000Y-76162464D01*
X122652000Y-73533000D01*
X122605947Y-73301477D01*
X122474800Y-73105200D01*
X122474797Y-73105198D01*
X121966800Y-72597200D01*
X121770524Y-72466053D01*
X121539000Y-72419999D01*
X121538995Y-72420000D01*
X121158007Y-72420000D01*
X121047654Y-72344599D01*
X120887000Y-72312066D01*
X119087000Y-72312066D01*
X118936916Y-72340306D01*
X118799073Y-72429006D01*
X118706599Y-72564346D01*
X118674066Y-72725000D01*
X118674066Y-73325000D01*
X118702306Y-73475084D01*
X118791006Y-73612927D01*
X118926346Y-73705401D01*
X118933426Y-73706835D01*
X118902903Y-73719478D01*
X118811479Y-73810902D01*
X118762000Y-73930353D01*
X118762000Y-74068750D01*
X118843250Y-74150000D01*
X119842000Y-74150000D01*
X119842000Y-74130000D01*
X120132000Y-74130000D01*
X120132000Y-74150000D01*
X121130750Y-74150000D01*
X121212000Y-74068750D01*
X121212000Y-73930353D01*
X121162521Y-73810902D01*
X121071097Y-73719478D01*
X121041154Y-73707075D01*
X121160931Y-73630000D01*
X121288400Y-73630000D01*
X121442000Y-73783599D01*
X121442000Y-76162169D01*
X121365314Y-76193855D01*
X121026047Y-76532531D01*
X120842210Y-76975259D01*
X120841792Y-77454638D01*
X121024855Y-77897686D01*
X121363531Y-78236953D01*
X121729700Y-78389000D01*
X120810782Y-78389000D01*
X120759994Y-78310073D01*
X120624654Y-78217599D01*
X120464000Y-78185066D01*
X120241858Y-78185066D01*
X120527953Y-77899469D01*
X120711790Y-77456741D01*
X120712208Y-76977362D01*
X120592000Y-76686435D01*
X120592000Y-76277934D01*
X120887000Y-76277934D01*
X121037084Y-76249694D01*
X121174927Y-76160994D01*
X121267401Y-76025654D01*
X121299934Y-75865000D01*
X121299934Y-75265000D01*
X121271694Y-75114916D01*
X121182994Y-74977073D01*
X121047654Y-74884599D01*
X121040574Y-74883165D01*
X121071097Y-74870522D01*
X121162521Y-74779098D01*
X121212000Y-74659647D01*
X121212000Y-74521250D01*
X121130750Y-74440000D01*
X120132000Y-74440000D01*
X120132000Y-74460000D01*
X119842000Y-74460000D01*
X119842000Y-74440000D01*
X118843250Y-74440000D01*
X118762000Y-74521250D01*
X118762000Y-74659647D01*
X118811479Y-74779098D01*
X118902903Y-74870522D01*
X118932846Y-74882925D01*
X118799073Y-74969006D01*
X118706599Y-75104346D01*
X118674066Y-75265000D01*
X118674066Y-75865000D01*
X118702306Y-76015084D01*
X118791006Y-76152927D01*
X118841262Y-76187265D01*
X118825314Y-76193855D01*
X118486047Y-76532531D01*
X118302210Y-76975259D01*
X118302097Y-77104303D01*
X118171984Y-77234416D01*
X118172208Y-76977362D01*
X117989145Y-76534314D01*
X117650469Y-76195047D01*
X117545096Y-76151292D01*
X117571097Y-76140522D01*
X117662521Y-76049098D01*
X117712000Y-75929647D01*
X117712000Y-75791250D01*
X117630750Y-75710000D01*
X116632000Y-75710000D01*
X116632000Y-75730000D01*
X116342000Y-75730000D01*
X116342000Y-75710000D01*
X115343250Y-75710000D01*
X115262000Y-75791250D01*
X115262000Y-75929647D01*
X115311479Y-76049098D01*
X115402903Y-76140522D01*
X115522354Y-76190000D01*
X116260750Y-76190000D01*
X116341998Y-76108752D01*
X116341998Y-76170434D01*
X116285314Y-76193855D01*
X115946047Y-76532531D01*
X115762210Y-76975259D01*
X115761792Y-77454638D01*
X115944855Y-77897686D01*
X116236837Y-78190177D01*
X116113916Y-78213306D01*
X115976073Y-78302006D01*
X115883599Y-78437346D01*
X115851066Y-78598000D01*
X115851066Y-79898000D01*
X115868001Y-79988000D01*
X114726533Y-79988000D01*
X114399934Y-79661401D01*
X114399934Y-78598000D01*
X114371694Y-78447916D01*
X114354333Y-78420937D01*
X114665638Y-78421208D01*
X115108686Y-78238145D01*
X115447953Y-77899469D01*
X115631790Y-77456741D01*
X115632208Y-76977362D01*
X115449145Y-76534314D01*
X115110469Y-76195047D01*
X114957000Y-76131321D01*
X114957000Y-75530534D01*
X115262000Y-75225534D01*
X115262000Y-75338750D01*
X115343250Y-75420000D01*
X116342000Y-75420000D01*
X116342000Y-75400000D01*
X116632000Y-75400000D01*
X116632000Y-75420000D01*
X117630750Y-75420000D01*
X117712000Y-75338750D01*
X117712000Y-75200353D01*
X117662521Y-75080902D01*
X117571097Y-74989478D01*
X117541154Y-74977075D01*
X117674927Y-74890994D01*
X117767401Y-74755654D01*
X117799934Y-74595000D01*
X117799934Y-73995000D01*
X117771694Y-73844916D01*
X117682994Y-73707073D01*
X117614202Y-73660070D01*
X117674927Y-73620994D01*
X117767401Y-73485654D01*
X117799934Y-73325000D01*
X117799934Y-72725000D01*
X117771694Y-72574916D01*
X117682994Y-72437073D01*
X117547654Y-72344599D01*
X117387000Y-72312066D01*
X115587000Y-72312066D01*
X115436916Y-72340306D01*
X115299073Y-72429006D01*
X115206599Y-72564346D01*
X115174066Y-72725000D01*
X115174066Y-73325000D01*
X115202306Y-73475084D01*
X115291006Y-73612927D01*
X115359798Y-73659930D01*
X115299073Y-73699006D01*
X115214854Y-73822265D01*
X115068233Y-73920233D01*
X114052233Y-74936233D01*
X113937344Y-75108178D01*
X113896999Y-75311000D01*
X113897000Y-75311005D01*
X113897000Y-76131180D01*
X113745314Y-76193855D01*
X113406047Y-76532531D01*
X113222210Y-76975259D01*
X113221792Y-77454638D01*
X113404855Y-77897686D01*
X113691734Y-78185066D01*
X112621858Y-78185066D01*
X112907953Y-77899469D01*
X113091790Y-77456741D01*
X113092208Y-76977362D01*
X112909145Y-76534314D01*
X112570469Y-76195047D01*
X112127741Y-76011210D01*
X111648362Y-76010792D01*
X111205314Y-76193855D01*
X110866047Y-76532531D01*
X110682210Y-76975259D01*
X110681792Y-77454638D01*
X110864855Y-77897686D01*
X111151734Y-78185066D01*
X110587000Y-78185066D01*
X110587000Y-77851005D01*
X110587001Y-77851000D01*
X110540947Y-77619477D01*
X110521763Y-77590766D01*
X110505959Y-77567114D01*
X110551790Y-77456741D01*
X110552208Y-76977362D01*
X110369145Y-76534314D01*
X110030469Y-76195047D01*
X109587741Y-76011210D01*
X109108362Y-76010792D01*
X108665314Y-76193855D01*
X108326047Y-76532531D01*
X108142210Y-76975259D01*
X108141792Y-77454638D01*
X108324855Y-77897686D01*
X108663531Y-78236953D01*
X109106259Y-78420790D01*
X109377000Y-78421026D01*
X109377000Y-78583511D01*
X109374066Y-78598000D01*
X109374066Y-79898000D01*
X109402306Y-80048084D01*
X109491006Y-80185927D01*
X109626346Y-80278401D01*
X109787000Y-80310934D01*
X111287000Y-80310934D01*
X111437084Y-80282694D01*
X111574927Y-80193994D01*
X111667401Y-80058654D01*
X111699934Y-79898000D01*
X111699934Y-78598000D01*
X111671694Y-78447916D01*
X111654243Y-78420797D01*
X112117630Y-78421201D01*
X112106599Y-78437346D01*
X112074066Y-78598000D01*
X112074066Y-79898000D01*
X112102306Y-80048084D01*
X112191006Y-80185927D01*
X112326346Y-80278401D01*
X112487000Y-80310934D01*
X113550401Y-80310934D01*
X113677469Y-80438002D01*
X109508535Y-80438002D01*
X109240504Y-80169971D01*
X109240504Y-79005430D01*
X109212264Y-78855346D01*
X109123564Y-78717503D01*
X108988224Y-78625029D01*
X108827570Y-78592496D01*
X107326430Y-78592496D01*
X107176346Y-78620736D01*
X107038503Y-78709436D01*
X106946029Y-78844776D01*
X106913496Y-79005430D01*
X106913496Y-80506570D01*
X106941736Y-80656654D01*
X107030436Y-80794497D01*
X107165776Y-80886971D01*
X107326430Y-80919504D01*
X108490971Y-80919504D01*
X108792691Y-81221224D01*
X108665314Y-81273855D01*
X108326047Y-81612531D01*
X108142210Y-82055259D01*
X108141792Y-82534638D01*
X108324855Y-82977686D01*
X108383067Y-83036000D01*
X107686250Y-83036000D01*
X107719157Y-83003093D01*
X107656152Y-82940088D01*
X107812759Y-82847497D01*
X107947249Y-82420629D01*
X107908147Y-81974788D01*
X107812759Y-81744503D01*
X107656150Y-81651911D01*
X107012061Y-82296000D01*
X107026204Y-82310143D01*
X106821143Y-82515204D01*
X106807000Y-82501061D01*
X106792858Y-82515204D01*
X106587797Y-82310143D01*
X106601939Y-82296000D01*
X105957850Y-81651911D01*
X105801241Y-81744503D01*
X105666751Y-82171371D01*
X105680195Y-82324661D01*
X104802384Y-81446850D01*
X106162911Y-81446850D01*
X106807000Y-82090939D01*
X107451089Y-81446850D01*
X107358497Y-81290241D01*
X106931629Y-81155751D01*
X106485788Y-81194853D01*
X106255503Y-81290241D01*
X106162911Y-81446850D01*
X104802384Y-81446850D01*
X103971500Y-80615966D01*
X103971500Y-79691107D01*
X103971501Y-79691102D01*
X103931156Y-79488280D01*
X103816267Y-79316335D01*
X103400000Y-78900068D01*
X103400000Y-78065150D01*
X106162911Y-78065150D01*
X106255503Y-78221759D01*
X106682371Y-78356249D01*
X107128212Y-78317147D01*
X107358497Y-78221759D01*
X107451089Y-78065150D01*
X106807000Y-77421061D01*
X106162911Y-78065150D01*
X103400000Y-78065150D01*
X103400000Y-77216000D01*
X103375210Y-77091371D01*
X105666751Y-77091371D01*
X105705853Y-77537212D01*
X105801241Y-77767497D01*
X105957850Y-77860089D01*
X106601939Y-77216000D01*
X107012061Y-77216000D01*
X107656150Y-77860089D01*
X107812759Y-77767497D01*
X107947249Y-77340629D01*
X107908147Y-76894788D01*
X107812759Y-76664503D01*
X107656150Y-76571911D01*
X107012061Y-77216000D01*
X106601939Y-77216000D01*
X105957850Y-76571911D01*
X105801241Y-76664503D01*
X105666751Y-77091371D01*
X103375210Y-77091371D01*
X103359656Y-77013178D01*
X103359656Y-77013177D01*
X103280551Y-76894788D01*
X103244767Y-76841233D01*
X103244764Y-76841231D01*
X102770383Y-76366850D01*
X106162911Y-76366850D01*
X106807000Y-77010939D01*
X107451089Y-76366850D01*
X107358497Y-76210241D01*
X106931629Y-76075751D01*
X106485788Y-76114853D01*
X106255503Y-76210241D01*
X106162911Y-76366850D01*
X102770383Y-76366850D01*
X102651302Y-76247769D01*
X102698273Y-76177472D01*
X102794839Y-75692000D01*
X102698273Y-75206528D01*
X102423275Y-74794964D01*
X102011711Y-74519966D01*
X101526239Y-74423400D01*
X101165761Y-74423400D01*
X100680289Y-74519966D01*
X100268725Y-74794964D01*
X99993727Y-75206528D01*
X99897161Y-75692000D01*
X99794000Y-75692000D01*
X99794000Y-73378250D01*
X100005000Y-73378250D01*
X100005000Y-74080247D01*
X100054479Y-74199698D01*
X100145903Y-74291122D01*
X100265354Y-74340600D01*
X101119750Y-74340600D01*
X101201000Y-74259350D01*
X101201000Y-73297000D01*
X101491000Y-73297000D01*
X101491000Y-74259350D01*
X101572250Y-74340600D01*
X102426646Y-74340600D01*
X102546097Y-74291122D01*
X102637521Y-74199698D01*
X102687000Y-74080247D01*
X102687000Y-73378250D01*
X102605750Y-73297000D01*
X101491000Y-73297000D01*
X101201000Y-73297000D01*
X100086250Y-73297000D01*
X100005000Y-73378250D01*
X99794000Y-73378250D01*
X99794000Y-72223753D01*
X100005000Y-72223753D01*
X100005000Y-72925750D01*
X100086250Y-73007000D01*
X101201000Y-73007000D01*
X101201000Y-72044650D01*
X101491000Y-72044650D01*
X101491000Y-73007000D01*
X102605750Y-73007000D01*
X102687000Y-72925750D01*
X102687000Y-72223753D01*
X102637521Y-72104302D01*
X102546097Y-72012878D01*
X102426646Y-71963400D01*
X101572250Y-71963400D01*
X101491000Y-72044650D01*
X101201000Y-72044650D01*
X101119750Y-71963400D01*
X100265354Y-71963400D01*
X100145903Y-72012878D01*
X100054479Y-72104302D01*
X100005000Y-72223753D01*
X99794000Y-72223753D01*
X99794000Y-71346000D01*
X126266000Y-71346000D01*
X126266000Y-103914000D01*
X126266000Y-103914000D01*
G37*
X126266000Y-103914000D02*
X99794000Y-103914000D01*
X99794000Y-100302250D01*
X102958000Y-100302250D01*
X102958000Y-100765647D01*
X103007479Y-100885098D01*
X103098903Y-100976522D01*
X103218354Y-101026000D01*
X103806750Y-101026000D01*
X103888000Y-100944750D01*
X103888000Y-100221000D01*
X104178000Y-100221000D01*
X104178000Y-100944750D01*
X104259250Y-101026000D01*
X104847646Y-101026000D01*
X104967097Y-100976522D01*
X105058521Y-100885098D01*
X105108000Y-100765647D01*
X105108000Y-100302250D01*
X105026750Y-100221000D01*
X104178000Y-100221000D01*
X103888000Y-100221000D01*
X103039250Y-100221000D01*
X102958000Y-100302250D01*
X99794000Y-100302250D01*
X99794000Y-99386353D01*
X102958000Y-99386353D01*
X102958000Y-99849750D01*
X103039250Y-99931000D01*
X103888000Y-99931000D01*
X103888000Y-99911000D01*
X104178000Y-99911000D01*
X104178000Y-99931000D01*
X105026750Y-99931000D01*
X105108000Y-99849750D01*
X105108000Y-99386353D01*
X105058521Y-99266902D01*
X104967097Y-99175478D01*
X104847646Y-99126000D01*
X104259250Y-99126000D01*
X104178002Y-99207248D01*
X104178002Y-99147709D01*
X104207212Y-99145147D01*
X104437497Y-99049759D01*
X104530089Y-98893150D01*
X103886000Y-98249061D01*
X103241911Y-98893150D01*
X103334503Y-99049759D01*
X103576490Y-99126000D01*
X103218354Y-99126000D01*
X103098903Y-99175478D01*
X103007479Y-99266902D01*
X102958000Y-99386353D01*
X99794000Y-99386353D01*
X99794000Y-98282638D01*
X100140792Y-98282638D01*
X100323855Y-98725686D01*
X100662531Y-99064953D01*
X101105259Y-99248790D01*
X101584638Y-99249208D01*
X102027686Y-99066145D01*
X102366953Y-98727469D01*
X102550790Y-98284741D01*
X102551108Y-97919371D01*
X102745751Y-97919371D01*
X102784853Y-98365212D01*
X102880241Y-98595497D01*
X103036850Y-98688089D01*
X103680939Y-98044000D01*
X103036850Y-97399911D01*
X102880241Y-97492503D01*
X102745751Y-97919371D01*
X102551108Y-97919371D01*
X102551208Y-97805362D01*
X102368145Y-97362314D01*
X102029469Y-97023047D01*
X101586741Y-96839210D01*
X101107362Y-96838792D01*
X100664314Y-97021855D01*
X100325047Y-97360531D01*
X100141210Y-97803259D01*
X100140792Y-98282638D01*
X99794000Y-98282638D01*
X99794000Y-93202638D01*
X100140792Y-93202638D01*
X100323855Y-93645686D01*
X100662531Y-93984953D01*
X101105259Y-94168790D01*
X101584638Y-94169208D01*
X102027686Y-93986145D01*
X102366953Y-93647469D01*
X102550790Y-93204741D01*
X102551108Y-92839371D01*
X102745751Y-92839371D01*
X102784853Y-93285212D01*
X102880241Y-93515497D01*
X103036850Y-93608089D01*
X103680939Y-92964000D01*
X103036850Y-92319911D01*
X102880241Y-92412503D01*
X102745751Y-92839371D01*
X102551108Y-92839371D01*
X102551208Y-92725362D01*
X102368145Y-92282314D01*
X102029469Y-91943047D01*
X101998048Y-91930000D01*
X102031002Y-91930000D01*
X102031002Y-91848752D01*
X102112250Y-91930000D01*
X102950646Y-91930000D01*
X103070097Y-91880522D01*
X103161521Y-91789098D01*
X103211000Y-91669647D01*
X103211000Y-91031250D01*
X103129750Y-90950000D01*
X102031000Y-90950000D01*
X102031000Y-90970000D01*
X101741000Y-90970000D01*
X101741000Y-90950000D01*
X100642250Y-90950000D01*
X100561000Y-91031250D01*
X100561000Y-91669647D01*
X100610479Y-91789098D01*
X100701903Y-91880522D01*
X100757259Y-91903451D01*
X100664314Y-91941855D01*
X100325047Y-92280531D01*
X100141210Y-92723259D01*
X100140792Y-93202638D01*
X99794000Y-93202638D01*
X99794000Y-89940353D01*
X100561000Y-89940353D01*
X100561000Y-90578750D01*
X100642250Y-90660000D01*
X101741000Y-90660000D01*
X101741000Y-89761250D01*
X102031000Y-89761250D01*
X102031000Y-90660000D01*
X103129750Y-90660000D01*
X103211000Y-90578750D01*
X103211000Y-89940353D01*
X103161521Y-89820902D01*
X103070097Y-89729478D01*
X102950646Y-89680000D01*
X102112250Y-89680000D01*
X102031000Y-89761250D01*
X101741000Y-89761250D01*
X101659750Y-89680000D01*
X100821354Y-89680000D01*
X100701903Y-89729478D01*
X100610479Y-89820902D01*
X100561000Y-89940353D01*
X99794000Y-89940353D01*
X99794000Y-75692000D01*
X99897161Y-75692000D01*
X99993727Y-76177472D01*
X100268725Y-76589036D01*
X100680289Y-76864034D01*
X101165761Y-76960600D01*
X101526239Y-76960600D01*
X101808852Y-76904385D01*
X101952693Y-77048227D01*
X101526239Y-76963400D01*
X101165761Y-76963400D01*
X100680289Y-77059966D01*
X100268725Y-77334964D01*
X99993727Y-77746528D01*
X99897161Y-78232000D01*
X99993727Y-78717472D01*
X100268725Y-79129036D01*
X100680289Y-79404034D01*
X101165761Y-79500600D01*
X101526239Y-79500600D01*
X101808852Y-79444385D01*
X101952693Y-79588227D01*
X101526239Y-79503400D01*
X101165761Y-79503400D01*
X100680289Y-79599966D01*
X100268725Y-79874964D01*
X99993727Y-80286528D01*
X99897161Y-80772000D01*
X99993727Y-81257472D01*
X100268725Y-81669036D01*
X100680289Y-81944034D01*
X101165761Y-82040600D01*
X101526239Y-82040600D01*
X102011711Y-81944034D01*
X102321026Y-81737356D01*
X103290670Y-82707000D01*
X102618407Y-82707000D01*
X102423275Y-82414964D01*
X102011711Y-82139966D01*
X101526239Y-82043400D01*
X101165761Y-82043400D01*
X100680289Y-82139966D01*
X100268725Y-82414964D01*
X99993727Y-82826528D01*
X99897161Y-83312000D01*
X99993727Y-83797472D01*
X100268725Y-84209036D01*
X100680289Y-84484034D01*
X101165761Y-84580600D01*
X101526239Y-84580600D01*
X102011711Y-84484034D01*
X102423275Y-84209036D01*
X102618407Y-83917000D01*
X103510718Y-83917000D01*
X104075785Y-84482066D01*
X103942000Y-84482066D01*
X103791916Y-84510306D01*
X103699149Y-84570000D01*
X103543250Y-84570000D01*
X103462000Y-84651250D01*
X103462000Y-85500000D01*
X103482000Y-85500000D01*
X103482000Y-85790000D01*
X103462000Y-85790000D01*
X103462000Y-86638750D01*
X103543250Y-86720000D01*
X103700264Y-86720000D01*
X103737000Y-86745101D01*
X103737000Y-86867995D01*
X103736999Y-86868000D01*
X103777344Y-87070822D01*
X103861762Y-87197164D01*
X103791916Y-87210306D01*
X103789412Y-87211917D01*
X103642000Y-87182066D01*
X103531666Y-87182066D01*
X103069600Y-86720000D01*
X103090750Y-86720000D01*
X103172000Y-86638750D01*
X103172000Y-85790000D01*
X103152000Y-85790000D01*
X103152000Y-85500000D01*
X103172000Y-85500000D01*
X103172000Y-84651250D01*
X103090750Y-84570000D01*
X102927353Y-84570000D01*
X102807902Y-84619479D01*
X102716478Y-84710903D01*
X102667000Y-84830354D01*
X102667000Y-85319725D01*
X102423275Y-84954964D01*
X102011711Y-84679966D01*
X101526239Y-84583400D01*
X101165761Y-84583400D01*
X100680289Y-84679966D01*
X100268725Y-84954964D01*
X99993727Y-85366528D01*
X99897161Y-85852000D01*
X99993727Y-86337472D01*
X100268725Y-86749036D01*
X100680289Y-87024034D01*
X101165761Y-87120600D01*
X101526239Y-87120600D01*
X101720383Y-87081983D01*
X101820290Y-87181890D01*
X101526239Y-87123400D01*
X101165761Y-87123400D01*
X100680289Y-87219966D01*
X100268725Y-87494964D01*
X99993727Y-87906528D01*
X99897161Y-88392000D01*
X99993727Y-88877472D01*
X100268725Y-89289036D01*
X100680289Y-89564034D01*
X101165761Y-89660600D01*
X101526239Y-89660600D01*
X102011711Y-89564034D01*
X102423275Y-89289036D01*
X102579066Y-89055878D01*
X102579066Y-89095000D01*
X102607306Y-89245084D01*
X102696006Y-89382927D01*
X102831346Y-89475401D01*
X102992000Y-89507934D01*
X103642000Y-89507934D01*
X103777084Y-89482516D01*
X103777344Y-89483822D01*
X103892233Y-89655767D01*
X104146231Y-89909764D01*
X104146233Y-89909767D01*
X104318178Y-90024656D01*
X104473066Y-90055465D01*
X104473066Y-91605000D01*
X104501306Y-91755084D01*
X104551000Y-91832310D01*
X104551000Y-92093936D01*
X104530088Y-92114848D01*
X104437497Y-91958241D01*
X104010629Y-91823751D01*
X103564788Y-91862853D01*
X103334503Y-91958241D01*
X103241911Y-92114850D01*
X103886000Y-92758939D01*
X103900143Y-92744797D01*
X104105204Y-92949858D01*
X104091061Y-92964000D01*
X104105204Y-92978143D01*
X103900143Y-93183204D01*
X103886000Y-93169061D01*
X103241911Y-93813150D01*
X103243635Y-93816066D01*
X103056000Y-93816066D01*
X102905916Y-93844306D01*
X102768073Y-93933006D01*
X102675599Y-94068346D01*
X102643066Y-94229000D01*
X102643066Y-94879000D01*
X102671306Y-95029084D01*
X102672917Y-95031588D01*
X102643066Y-95179000D01*
X102643066Y-95829000D01*
X102671306Y-95979084D01*
X102672917Y-95981588D01*
X102643066Y-96129000D01*
X102643066Y-96779000D01*
X102671306Y-96929084D01*
X102760006Y-97066927D01*
X102895346Y-97159401D01*
X103056000Y-97191934D01*
X103243635Y-97191934D01*
X103241911Y-97194850D01*
X103886000Y-97838939D01*
X104530089Y-97194850D01*
X104528365Y-97191934D01*
X104556000Y-97191934D01*
X104706084Y-97163694D01*
X104843927Y-97074994D01*
X104936401Y-96939654D01*
X104968934Y-96779000D01*
X104968934Y-96129000D01*
X104947908Y-96017255D01*
X105075800Y-95931800D01*
X105431000Y-95576599D01*
X105431000Y-95649002D01*
X105512248Y-95649002D01*
X105431000Y-95730250D01*
X105431000Y-95887264D01*
X105375599Y-95968346D01*
X105343066Y-96129000D01*
X105343066Y-96779000D01*
X105371306Y-96929084D01*
X105444355Y-97042604D01*
X105432515Y-97050515D01*
X105127949Y-97506330D01*
X105021000Y-98044000D01*
X105021000Y-98108780D01*
X104987147Y-97722788D01*
X104891759Y-97492503D01*
X104735150Y-97399911D01*
X104091061Y-98044000D01*
X104735150Y-98688089D01*
X104891759Y-98595497D01*
X105021000Y-98185289D01*
X105021000Y-98679000D01*
X105127949Y-99216671D01*
X105370066Y-99579024D01*
X105370066Y-100701000D01*
X105398306Y-100851084D01*
X105487006Y-100988927D01*
X105622346Y-101081401D01*
X105783000Y-101113934D01*
X106873964Y-101113934D01*
X107210515Y-101450485D01*
X107666330Y-101755051D01*
X108204000Y-101862000D01*
X111686030Y-101862000D01*
X113179515Y-103355485D01*
X113635330Y-103660051D01*
X114173000Y-103767000D01*
X124587000Y-103767000D01*
X125124670Y-103660051D01*
X125156872Y-103638534D01*
X125603000Y-103638534D01*
X125753084Y-103610294D01*
X125890927Y-103521594D01*
X125983401Y-103386254D01*
X126015934Y-103225600D01*
X126015934Y-101498400D01*
X125987694Y-101348316D01*
X125898994Y-101210473D01*
X125763654Y-101117999D01*
X125603000Y-101085466D01*
X125156872Y-101085466D01*
X125124670Y-101063949D01*
X124732002Y-100985843D01*
X124732002Y-100929802D01*
X124918100Y-100997569D01*
X125354368Y-100839699D01*
X125697013Y-100526893D01*
X125881915Y-100149764D01*
X125837216Y-99967000D01*
X124732000Y-99967000D01*
X124732000Y-99987000D01*
X124442000Y-99987000D01*
X124442000Y-99967000D01*
X123336784Y-99967000D01*
X123292085Y-100149764D01*
X123476987Y-100526893D01*
X123819632Y-100839699D01*
X124143789Y-100957000D01*
X114754970Y-100957000D01*
X114254970Y-100457000D01*
X115039485Y-99672485D01*
X115158587Y-99494236D01*
X123292085Y-99494236D01*
X123336784Y-99677000D01*
X124442000Y-99677000D01*
X124442000Y-98714199D01*
X124732000Y-98714199D01*
X124732000Y-99677000D01*
X125837216Y-99677000D01*
X125881915Y-99494236D01*
X125697013Y-99117107D01*
X125354368Y-98804301D01*
X124918100Y-98646431D01*
X124732000Y-98714199D01*
X124442000Y-98714199D01*
X124255900Y-98646431D01*
X123819632Y-98804301D01*
X123476987Y-99117107D01*
X123292085Y-99494236D01*
X115158587Y-99494236D01*
X115344051Y-99216670D01*
X115408403Y-98893150D01*
X115941911Y-98893150D01*
X116034503Y-99049759D01*
X116461371Y-99184249D01*
X116907212Y-99145147D01*
X117137497Y-99049759D01*
X117230089Y-98893150D01*
X116586000Y-98249061D01*
X115941911Y-98893150D01*
X115408403Y-98893150D01*
X115451000Y-98679000D01*
X115451000Y-98044000D01*
X115426210Y-97919371D01*
X115445751Y-97919371D01*
X115484853Y-98365212D01*
X115580241Y-98595497D01*
X115736850Y-98688089D01*
X116380939Y-98044000D01*
X116791061Y-98044000D01*
X117435150Y-98688089D01*
X117591759Y-98595497D01*
X117690329Y-98282638D01*
X117920792Y-98282638D01*
X118103855Y-98725686D01*
X118442531Y-99064953D01*
X118885259Y-99248790D01*
X119364638Y-99249208D01*
X119807686Y-99066145D01*
X120146953Y-98727469D01*
X120330790Y-98284741D01*
X120331208Y-97805362D01*
X120148145Y-97362314D01*
X119809469Y-97023047D01*
X119366741Y-96839210D01*
X118887362Y-96838792D01*
X118444314Y-97021855D01*
X118105047Y-97360531D01*
X117921210Y-97803259D01*
X117920792Y-98282638D01*
X117690329Y-98282638D01*
X117726249Y-98168629D01*
X117687147Y-97722788D01*
X117591759Y-97492503D01*
X117435150Y-97399911D01*
X116791061Y-98044000D01*
X116380939Y-98044000D01*
X115736850Y-97399911D01*
X115580241Y-97492503D01*
X115445751Y-97919371D01*
X115426210Y-97919371D01*
X115344051Y-97506330D01*
X115135927Y-97194850D01*
X115941911Y-97194850D01*
X116586000Y-97838939D01*
X117230089Y-97194850D01*
X117137497Y-97038241D01*
X116710629Y-96903751D01*
X116264788Y-96942853D01*
X116034503Y-97038241D01*
X115941911Y-97194850D01*
X115135927Y-97194850D01*
X115039485Y-97050515D01*
X114583670Y-96745949D01*
X114046000Y-96639000D01*
X113587751Y-96730151D01*
X112883800Y-96026200D01*
X112687524Y-95895053D01*
X112663677Y-95890309D01*
X112661000Y-95886149D01*
X112661000Y-95730250D01*
X112579750Y-95649000D01*
X111731000Y-95649000D01*
X111731000Y-95669000D01*
X111441000Y-95669000D01*
X111441000Y-95649000D01*
X110592250Y-95649000D01*
X110511000Y-95730250D01*
X110511000Y-95887264D01*
X110455599Y-95968346D01*
X110423066Y-96129000D01*
X110423066Y-96779000D01*
X110451306Y-96929084D01*
X110540006Y-97066927D01*
X110675346Y-97159401D01*
X110684642Y-97161284D01*
X110485047Y-97360531D01*
X110301210Y-97803259D01*
X110300792Y-98282638D01*
X110483855Y-98725686D01*
X110809601Y-99052000D01*
X109661856Y-99052000D01*
X109986953Y-98727469D01*
X110170790Y-98284741D01*
X110171208Y-97805362D01*
X109988145Y-97362314D01*
X109788390Y-97162210D01*
X109923927Y-97074994D01*
X110016401Y-96939654D01*
X110048934Y-96779000D01*
X110048934Y-96129000D01*
X110020694Y-95978916D01*
X110019083Y-95976412D01*
X110048934Y-95829000D01*
X110048934Y-95179000D01*
X110020694Y-95028916D01*
X110019083Y-95026412D01*
X110048934Y-94879000D01*
X110048934Y-94229000D01*
X110020694Y-94078916D01*
X109931994Y-93941073D01*
X109796654Y-93848599D01*
X109787358Y-93846716D01*
X109986953Y-93647469D01*
X110170790Y-93204741D01*
X110171208Y-92725362D01*
X109988145Y-92282314D01*
X109649469Y-91943047D01*
X109206741Y-91759210D01*
X108727362Y-91758792D01*
X108284314Y-91941855D01*
X107945047Y-92280531D01*
X107761210Y-92723259D01*
X107760792Y-93202638D01*
X107943855Y-93645686D01*
X108117427Y-93819561D01*
X107985916Y-93844306D01*
X107848073Y-93933006D01*
X107755599Y-94068346D01*
X107723066Y-94229000D01*
X107723066Y-94879000D01*
X107751306Y-95029084D01*
X107752917Y-95031588D01*
X107723066Y-95179000D01*
X107723066Y-95829000D01*
X107726829Y-95849000D01*
X107581000Y-95849000D01*
X107581000Y-95730250D01*
X107499750Y-95649000D01*
X106651000Y-95649000D01*
X106651000Y-95669000D01*
X106361000Y-95669000D01*
X106361000Y-95649000D01*
X106341000Y-95649000D01*
X106341000Y-95359000D01*
X106361000Y-95359000D01*
X106361000Y-95339000D01*
X106651000Y-95339000D01*
X106651000Y-95359000D01*
X107499750Y-95359000D01*
X107581000Y-95277750D01*
X107581000Y-95120736D01*
X107636401Y-95039654D01*
X107668934Y-94879000D01*
X107668934Y-94229000D01*
X107640694Y-94078916D01*
X107551994Y-93941073D01*
X107416654Y-93848599D01*
X107274341Y-93819780D01*
X107446953Y-93647469D01*
X107630790Y-93204741D01*
X107631208Y-92725362D01*
X107448145Y-92282314D01*
X107109469Y-91943047D01*
X107108926Y-91942821D01*
X107173927Y-91900994D01*
X107266401Y-91765654D01*
X107298934Y-91605000D01*
X107298934Y-91410000D01*
X109981619Y-91410000D01*
X110222152Y-91509878D01*
X110502618Y-91510122D01*
X110520000Y-91502940D01*
X110520000Y-92245639D01*
X110485047Y-92280531D01*
X110301210Y-92723259D01*
X110300792Y-93202638D01*
X110483855Y-93645686D01*
X110683610Y-93845790D01*
X110548073Y-93933006D01*
X110455599Y-94068346D01*
X110423066Y-94229000D01*
X110423066Y-94879000D01*
X110451306Y-95029084D01*
X110511000Y-95121851D01*
X110511000Y-95277750D01*
X110592250Y-95359000D01*
X111441000Y-95359000D01*
X111441000Y-95339000D01*
X111731000Y-95339000D01*
X111731000Y-95359000D01*
X112579750Y-95359000D01*
X112661000Y-95277750D01*
X112661000Y-95120736D01*
X112716401Y-95039654D01*
X112748934Y-94879000D01*
X112748934Y-94229000D01*
X112720694Y-94078916D01*
X112631994Y-93941073D01*
X112496654Y-93848599D01*
X112354341Y-93819780D01*
X112526953Y-93647469D01*
X112710790Y-93204741D01*
X112710791Y-93202638D01*
X112840792Y-93202638D01*
X113023855Y-93645686D01*
X113362531Y-93984953D01*
X113805259Y-94168790D01*
X114284638Y-94169208D01*
X114727686Y-93986145D01*
X114900982Y-93813150D01*
X115941911Y-93813150D01*
X116034503Y-93969759D01*
X116461371Y-94104249D01*
X116907212Y-94065147D01*
X117137497Y-93969759D01*
X117230089Y-93813150D01*
X116586000Y-93169061D01*
X115941911Y-93813150D01*
X114900982Y-93813150D01*
X115066953Y-93647469D01*
X115250790Y-93204741D01*
X115251108Y-92839371D01*
X115445751Y-92839371D01*
X115484853Y-93285212D01*
X115580241Y-93515497D01*
X115736850Y-93608089D01*
X116380939Y-92964000D01*
X116791061Y-92964000D01*
X117435150Y-93608089D01*
X117591759Y-93515497D01*
X117690329Y-93202638D01*
X117920792Y-93202638D01*
X118103855Y-93645686D01*
X118442531Y-93984953D01*
X118885259Y-94168790D01*
X119364638Y-94169208D01*
X119807686Y-93986145D01*
X120146953Y-93647469D01*
X120330790Y-93204741D01*
X120331208Y-92725362D01*
X120148145Y-92282314D01*
X119809469Y-91943047D01*
X119366741Y-91759210D01*
X118887362Y-91758792D01*
X118444314Y-91941855D01*
X118105047Y-92280531D01*
X117921210Y-92723259D01*
X117920792Y-93202638D01*
X117690329Y-93202638D01*
X117726249Y-93088629D01*
X117687147Y-92642788D01*
X117591759Y-92412503D01*
X117435150Y-92319911D01*
X116791061Y-92964000D01*
X116380939Y-92964000D01*
X115736850Y-92319911D01*
X115580241Y-92412503D01*
X115445751Y-92839371D01*
X115251108Y-92839371D01*
X115251208Y-92725362D01*
X115068145Y-92282314D01*
X114900973Y-92114850D01*
X115941911Y-92114850D01*
X116586000Y-92758939D01*
X117230089Y-92114850D01*
X117137497Y-91958241D01*
X116710629Y-91823751D01*
X116264788Y-91862853D01*
X116034503Y-91958241D01*
X115941911Y-92114850D01*
X114900973Y-92114850D01*
X114729469Y-91943047D01*
X114286741Y-91759210D01*
X113807362Y-91758792D01*
X113364314Y-91941855D01*
X113025047Y-92280531D01*
X112841210Y-92723259D01*
X112840792Y-93202638D01*
X112710791Y-93202638D01*
X112711208Y-92725362D01*
X112528145Y-92282314D01*
X112189469Y-91943047D01*
X111746741Y-91759210D01*
X111730000Y-91759195D01*
X111730000Y-91321841D01*
X111759354Y-91334000D01*
X112497750Y-91334000D01*
X112579000Y-91252750D01*
X112579000Y-90909000D01*
X112869000Y-90909000D01*
X112869000Y-91252750D01*
X112950250Y-91334000D01*
X113688646Y-91334000D01*
X113808097Y-91284522D01*
X113899521Y-91193098D01*
X113949000Y-91073647D01*
X113949000Y-90990250D01*
X113867750Y-90909000D01*
X112869000Y-90909000D01*
X112579000Y-90909000D01*
X112559000Y-90909000D01*
X112559000Y-90771934D01*
X113624000Y-90771934D01*
X113666166Y-90764000D01*
X113929995Y-90764000D01*
X113930000Y-90764001D01*
X114161524Y-90717947D01*
X114357800Y-90586800D01*
X115489797Y-89454802D01*
X115489800Y-89454800D01*
X115561878Y-89346927D01*
X115620947Y-89258524D01*
X115667001Y-89027000D01*
X115667000Y-89026995D01*
X115667000Y-87503005D01*
X115667001Y-87503000D01*
X115620947Y-87271476D01*
X115489800Y-87075200D01*
X114778000Y-86363400D01*
X114778000Y-83454781D01*
X115108686Y-83318145D01*
X115200280Y-83226710D01*
X115207344Y-83262220D01*
X115322233Y-83434165D01*
X116817301Y-84929233D01*
X116817301Y-86613296D01*
X116817300Y-86613301D01*
X116857645Y-86816123D01*
X116972534Y-86988068D01*
X117268231Y-87283764D01*
X117268233Y-87283767D01*
X117408890Y-87377750D01*
X117440178Y-87398656D01*
X117643000Y-87439001D01*
X117643005Y-87439000D01*
X117760250Y-87439000D01*
X117780250Y-87459000D01*
X117818853Y-87459000D01*
X117863346Y-87489401D01*
X118024000Y-87521934D01*
X119089000Y-87521934D01*
X119089000Y-87596066D01*
X118024000Y-87596066D01*
X117981834Y-87604000D01*
X117658005Y-87604000D01*
X117658000Y-87603999D01*
X117426476Y-87650053D01*
X117230200Y-87781200D01*
X117047200Y-87964200D01*
X116916053Y-88160476D01*
X116869999Y-88392000D01*
X116870000Y-88392005D01*
X116870000Y-90286014D01*
X116750678Y-90405128D01*
X116643122Y-90664152D01*
X116642878Y-90944618D01*
X116749981Y-91203829D01*
X116948128Y-91402322D01*
X117207152Y-91509878D01*
X117487618Y-91510122D01*
X117746829Y-91403019D01*
X117802273Y-91347672D01*
X117863346Y-91389401D01*
X118024000Y-91421934D01*
X119824000Y-91421934D01*
X119974084Y-91393694D01*
X120059080Y-91339000D01*
X120560068Y-91339000D01*
X121898000Y-92676931D01*
X121898000Y-95122995D01*
X121897999Y-95123000D01*
X121938344Y-95325822D01*
X122053233Y-95497767D01*
X123281698Y-96726232D01*
X123234727Y-96796528D01*
X123138161Y-97282000D01*
X123234727Y-97767472D01*
X123509725Y-98179036D01*
X123921289Y-98454034D01*
X124406761Y-98550600D01*
X124767239Y-98550600D01*
X125252711Y-98454034D01*
X125664275Y-98179036D01*
X125939273Y-97767472D01*
X126035839Y-97282000D01*
X125939273Y-96796528D01*
X125664275Y-96384964D01*
X125252711Y-96109966D01*
X124767239Y-96013400D01*
X124406761Y-96013400D01*
X124124149Y-96069615D01*
X123980307Y-95925773D01*
X124406761Y-96010600D01*
X124767239Y-96010600D01*
X125252711Y-95914034D01*
X125664275Y-95639036D01*
X125939273Y-95227472D01*
X126035839Y-94742000D01*
X125939273Y-94256528D01*
X125664275Y-93844964D01*
X125252711Y-93569966D01*
X124767239Y-93473400D01*
X124406761Y-93473400D01*
X124124148Y-93529615D01*
X123980307Y-93385773D01*
X124406761Y-93470600D01*
X124767239Y-93470600D01*
X125252711Y-93374034D01*
X125664275Y-93099036D01*
X125939273Y-92687472D01*
X126035839Y-92202000D01*
X125939273Y-91716528D01*
X125664275Y-91304964D01*
X125252711Y-91029966D01*
X124767239Y-90933400D01*
X124406761Y-90933400D01*
X123921289Y-91029966D01*
X123509725Y-91304964D01*
X123234727Y-91716528D01*
X123207905Y-91851372D01*
X121395534Y-90039000D01*
X123213151Y-90039000D01*
X123234727Y-90147472D01*
X123509725Y-90559036D01*
X123921289Y-90834034D01*
X124406761Y-90930600D01*
X124767239Y-90930600D01*
X125252711Y-90834034D01*
X125664275Y-90559036D01*
X125939273Y-90147472D01*
X126035839Y-89662000D01*
X125939273Y-89176528D01*
X125664275Y-88764964D01*
X125252711Y-88489966D01*
X124767239Y-88393400D01*
X124573133Y-88393400D01*
X124575933Y-88390600D01*
X124767239Y-88390600D01*
X125252711Y-88294034D01*
X125664275Y-88019036D01*
X125939273Y-87607472D01*
X126035839Y-87122000D01*
X125939273Y-86636528D01*
X125664275Y-86224964D01*
X125252711Y-85949966D01*
X124767239Y-85853400D01*
X124406761Y-85853400D01*
X124246157Y-85885346D01*
X124432676Y-85698827D01*
X124482155Y-85579376D01*
X124482155Y-85450083D01*
X124432677Y-85330631D01*
X124105006Y-85002960D01*
X123990101Y-85002960D01*
X123389944Y-85603117D01*
X123404086Y-85617260D01*
X123199026Y-85822320D01*
X123184883Y-85808178D01*
X122584726Y-86408335D01*
X122584726Y-86523240D01*
X122912397Y-86850911D01*
X123031849Y-86900389D01*
X123161142Y-86900389D01*
X123184137Y-86890864D01*
X123159967Y-87012371D01*
X122949848Y-86925122D01*
X122669382Y-86924878D01*
X122631430Y-86940560D01*
X122022117Y-86331247D01*
X122022117Y-85960631D01*
X122264760Y-86203274D01*
X122379665Y-86203274D01*
X122979822Y-85603117D01*
X122965680Y-85588974D01*
X123170740Y-85383914D01*
X123184883Y-85398056D01*
X123785040Y-84797899D01*
X123785040Y-84682994D01*
X123457369Y-84355323D01*
X123337917Y-84305845D01*
X123208624Y-84305845D01*
X123157633Y-84326967D01*
X123744797Y-83739802D01*
X123744800Y-83739800D01*
X123875947Y-83543523D01*
X123922000Y-83312000D01*
X123922000Y-83166064D01*
X123942912Y-83145152D01*
X124035503Y-83301759D01*
X124462371Y-83436249D01*
X124908212Y-83397147D01*
X125138497Y-83301759D01*
X125231089Y-83145150D01*
X124587000Y-82501061D01*
X124572858Y-82515204D01*
X124367797Y-82310143D01*
X124381939Y-82296000D01*
X124792061Y-82296000D01*
X125436150Y-82940089D01*
X125592759Y-82847497D01*
X125727249Y-82420629D01*
X125688147Y-81974788D01*
X125592759Y-81744503D01*
X125436150Y-81651911D01*
X124792061Y-82296000D01*
X124381939Y-82296000D01*
X124367797Y-82281858D01*
X124572858Y-82076797D01*
X124587000Y-82090939D01*
X125231089Y-81446850D01*
X125160191Y-81326934D01*
X125290000Y-81326934D01*
X125440084Y-81298694D01*
X125577927Y-81209994D01*
X125670401Y-81074654D01*
X125702934Y-80914000D01*
X125702934Y-79614000D01*
X125674694Y-79463916D01*
X125585994Y-79326073D01*
X125450654Y-79233599D01*
X125290000Y-79201066D01*
X124332666Y-79201066D01*
X123697800Y-78566200D01*
X123501524Y-78435053D01*
X123270000Y-78388999D01*
X123269995Y-78389000D01*
X122363588Y-78389000D01*
X122728686Y-78238145D01*
X122901982Y-78065150D01*
X123942911Y-78065150D01*
X124035503Y-78221759D01*
X124462371Y-78356249D01*
X124908212Y-78317147D01*
X125138497Y-78221759D01*
X125231089Y-78065150D01*
X124587000Y-77421061D01*
X123942911Y-78065150D01*
X122901982Y-78065150D01*
X123067953Y-77899469D01*
X123251790Y-77456741D01*
X123252108Y-77091371D01*
X123446751Y-77091371D01*
X123485853Y-77537212D01*
X123581241Y-77767497D01*
X123737850Y-77860089D01*
X124381939Y-77216000D01*
X124792061Y-77216000D01*
X125436150Y-77860089D01*
X125592759Y-77767497D01*
X125727249Y-77340629D01*
X125688147Y-76894788D01*
X125592759Y-76664503D01*
X125436150Y-76571911D01*
X124792061Y-77216000D01*
X124381939Y-77216000D01*
X123737850Y-76571911D01*
X123581241Y-76664503D01*
X123446751Y-77091371D01*
X123252108Y-77091371D01*
X123252208Y-76977362D01*
X123069145Y-76534314D01*
X122901973Y-76366850D01*
X123942911Y-76366850D01*
X124587000Y-77010939D01*
X125231089Y-76366850D01*
X125138497Y-76210241D01*
X124711629Y-76075751D01*
X124265788Y-76114853D01*
X124035503Y-76210241D01*
X123942911Y-76366850D01*
X122901973Y-76366850D01*
X122730469Y-76195047D01*
X122652000Y-76162464D01*
X122652000Y-73533000D01*
X122605947Y-73301477D01*
X122474800Y-73105200D01*
X122474797Y-73105198D01*
X121966800Y-72597200D01*
X121770524Y-72466053D01*
X121539000Y-72419999D01*
X121538995Y-72420000D01*
X121158007Y-72420000D01*
X121047654Y-72344599D01*
X120887000Y-72312066D01*
X119087000Y-72312066D01*
X118936916Y-72340306D01*
X118799073Y-72429006D01*
X118706599Y-72564346D01*
X118674066Y-72725000D01*
X118674066Y-73325000D01*
X118702306Y-73475084D01*
X118791006Y-73612927D01*
X118926346Y-73705401D01*
X118933426Y-73706835D01*
X118902903Y-73719478D01*
X118811479Y-73810902D01*
X118762000Y-73930353D01*
X118762000Y-74068750D01*
X118843250Y-74150000D01*
X119842000Y-74150000D01*
X119842000Y-74130000D01*
X120132000Y-74130000D01*
X120132000Y-74150000D01*
X121130750Y-74150000D01*
X121212000Y-74068750D01*
X121212000Y-73930353D01*
X121162521Y-73810902D01*
X121071097Y-73719478D01*
X121041154Y-73707075D01*
X121160931Y-73630000D01*
X121288400Y-73630000D01*
X121442000Y-73783599D01*
X121442000Y-76162169D01*
X121365314Y-76193855D01*
X121026047Y-76532531D01*
X120842210Y-76975259D01*
X120841792Y-77454638D01*
X121024855Y-77897686D01*
X121363531Y-78236953D01*
X121729700Y-78389000D01*
X120810782Y-78389000D01*
X120759994Y-78310073D01*
X120624654Y-78217599D01*
X120464000Y-78185066D01*
X120241858Y-78185066D01*
X120527953Y-77899469D01*
X120711790Y-77456741D01*
X120712208Y-76977362D01*
X120592000Y-76686435D01*
X120592000Y-76277934D01*
X120887000Y-76277934D01*
X121037084Y-76249694D01*
X121174927Y-76160994D01*
X121267401Y-76025654D01*
X121299934Y-75865000D01*
X121299934Y-75265000D01*
X121271694Y-75114916D01*
X121182994Y-74977073D01*
X121047654Y-74884599D01*
X121040574Y-74883165D01*
X121071097Y-74870522D01*
X121162521Y-74779098D01*
X121212000Y-74659647D01*
X121212000Y-74521250D01*
X121130750Y-74440000D01*
X120132000Y-74440000D01*
X120132000Y-74460000D01*
X119842000Y-74460000D01*
X119842000Y-74440000D01*
X118843250Y-74440000D01*
X118762000Y-74521250D01*
X118762000Y-74659647D01*
X118811479Y-74779098D01*
X118902903Y-74870522D01*
X118932846Y-74882925D01*
X118799073Y-74969006D01*
X118706599Y-75104346D01*
X118674066Y-75265000D01*
X118674066Y-75865000D01*
X118702306Y-76015084D01*
X118791006Y-76152927D01*
X118841262Y-76187265D01*
X118825314Y-76193855D01*
X118486047Y-76532531D01*
X118302210Y-76975259D01*
X118302097Y-77104303D01*
X118171984Y-77234416D01*
X118172208Y-76977362D01*
X117989145Y-76534314D01*
X117650469Y-76195047D01*
X117545096Y-76151292D01*
X117571097Y-76140522D01*
X117662521Y-76049098D01*
X117712000Y-75929647D01*
X117712000Y-75791250D01*
X117630750Y-75710000D01*
X116632000Y-75710000D01*
X116632000Y-75730000D01*
X116342000Y-75730000D01*
X116342000Y-75710000D01*
X115343250Y-75710000D01*
X115262000Y-75791250D01*
X115262000Y-75929647D01*
X115311479Y-76049098D01*
X115402903Y-76140522D01*
X115522354Y-76190000D01*
X116260750Y-76190000D01*
X116341998Y-76108752D01*
X116341998Y-76170434D01*
X116285314Y-76193855D01*
X115946047Y-76532531D01*
X115762210Y-76975259D01*
X115761792Y-77454638D01*
X115944855Y-77897686D01*
X116236837Y-78190177D01*
X116113916Y-78213306D01*
X115976073Y-78302006D01*
X115883599Y-78437346D01*
X115851066Y-78598000D01*
X115851066Y-79898000D01*
X115868001Y-79988000D01*
X114726533Y-79988000D01*
X114399934Y-79661401D01*
X114399934Y-78598000D01*
X114371694Y-78447916D01*
X114354333Y-78420937D01*
X114665638Y-78421208D01*
X115108686Y-78238145D01*
X115447953Y-77899469D01*
X115631790Y-77456741D01*
X115632208Y-76977362D01*
X115449145Y-76534314D01*
X115110469Y-76195047D01*
X114957000Y-76131321D01*
X114957000Y-75530534D01*
X115262000Y-75225534D01*
X115262000Y-75338750D01*
X115343250Y-75420000D01*
X116342000Y-75420000D01*
X116342000Y-75400000D01*
X116632000Y-75400000D01*
X116632000Y-75420000D01*
X117630750Y-75420000D01*
X117712000Y-75338750D01*
X117712000Y-75200353D01*
X117662521Y-75080902D01*
X117571097Y-74989478D01*
X117541154Y-74977075D01*
X117674927Y-74890994D01*
X117767401Y-74755654D01*
X117799934Y-74595000D01*
X117799934Y-73995000D01*
X117771694Y-73844916D01*
X117682994Y-73707073D01*
X117614202Y-73660070D01*
X117674927Y-73620994D01*
X117767401Y-73485654D01*
X117799934Y-73325000D01*
X117799934Y-72725000D01*
X117771694Y-72574916D01*
X117682994Y-72437073D01*
X117547654Y-72344599D01*
X117387000Y-72312066D01*
X115587000Y-72312066D01*
X115436916Y-72340306D01*
X115299073Y-72429006D01*
X115206599Y-72564346D01*
X115174066Y-72725000D01*
X115174066Y-73325000D01*
X115202306Y-73475084D01*
X115291006Y-73612927D01*
X115359798Y-73659930D01*
X115299073Y-73699006D01*
X115214854Y-73822265D01*
X115068233Y-73920233D01*
X114052233Y-74936233D01*
X113937344Y-75108178D01*
X113896999Y-75311000D01*
X113897000Y-75311005D01*
X113897000Y-76131180D01*
X113745314Y-76193855D01*
X113406047Y-76532531D01*
X113222210Y-76975259D01*
X113221792Y-77454638D01*
X113404855Y-77897686D01*
X113691734Y-78185066D01*
X112621858Y-78185066D01*
X112907953Y-77899469D01*
X113091790Y-77456741D01*
X113092208Y-76977362D01*
X112909145Y-76534314D01*
X112570469Y-76195047D01*
X112127741Y-76011210D01*
X111648362Y-76010792D01*
X111205314Y-76193855D01*
X110866047Y-76532531D01*
X110682210Y-76975259D01*
X110681792Y-77454638D01*
X110864855Y-77897686D01*
X111151734Y-78185066D01*
X110587000Y-78185066D01*
X110587000Y-77851005D01*
X110587001Y-77851000D01*
X110540947Y-77619477D01*
X110521763Y-77590766D01*
X110505959Y-77567114D01*
X110551790Y-77456741D01*
X110552208Y-76977362D01*
X110369145Y-76534314D01*
X110030469Y-76195047D01*
X109587741Y-76011210D01*
X109108362Y-76010792D01*
X108665314Y-76193855D01*
X108326047Y-76532531D01*
X108142210Y-76975259D01*
X108141792Y-77454638D01*
X108324855Y-77897686D01*
X108663531Y-78236953D01*
X109106259Y-78420790D01*
X109377000Y-78421026D01*
X109377000Y-78583511D01*
X109374066Y-78598000D01*
X109374066Y-79898000D01*
X109402306Y-80048084D01*
X109491006Y-80185927D01*
X109626346Y-80278401D01*
X109787000Y-80310934D01*
X111287000Y-80310934D01*
X111437084Y-80282694D01*
X111574927Y-80193994D01*
X111667401Y-80058654D01*
X111699934Y-79898000D01*
X111699934Y-78598000D01*
X111671694Y-78447916D01*
X111654243Y-78420797D01*
X112117630Y-78421201D01*
X112106599Y-78437346D01*
X112074066Y-78598000D01*
X112074066Y-79898000D01*
X112102306Y-80048084D01*
X112191006Y-80185927D01*
X112326346Y-80278401D01*
X112487000Y-80310934D01*
X113550401Y-80310934D01*
X113677469Y-80438002D01*
X109508535Y-80438002D01*
X109240504Y-80169971D01*
X109240504Y-79005430D01*
X109212264Y-78855346D01*
X109123564Y-78717503D01*
X108988224Y-78625029D01*
X108827570Y-78592496D01*
X107326430Y-78592496D01*
X107176346Y-78620736D01*
X107038503Y-78709436D01*
X106946029Y-78844776D01*
X106913496Y-79005430D01*
X106913496Y-80506570D01*
X106941736Y-80656654D01*
X107030436Y-80794497D01*
X107165776Y-80886971D01*
X107326430Y-80919504D01*
X108490971Y-80919504D01*
X108792691Y-81221224D01*
X108665314Y-81273855D01*
X108326047Y-81612531D01*
X108142210Y-82055259D01*
X108141792Y-82534638D01*
X108324855Y-82977686D01*
X108383067Y-83036000D01*
X107686250Y-83036000D01*
X107719157Y-83003093D01*
X107656152Y-82940088D01*
X107812759Y-82847497D01*
X107947249Y-82420629D01*
X107908147Y-81974788D01*
X107812759Y-81744503D01*
X107656150Y-81651911D01*
X107012061Y-82296000D01*
X107026204Y-82310143D01*
X106821143Y-82515204D01*
X106807000Y-82501061D01*
X106792858Y-82515204D01*
X106587797Y-82310143D01*
X106601939Y-82296000D01*
X105957850Y-81651911D01*
X105801241Y-81744503D01*
X105666751Y-82171371D01*
X105680195Y-82324661D01*
X104802384Y-81446850D01*
X106162911Y-81446850D01*
X106807000Y-82090939D01*
X107451089Y-81446850D01*
X107358497Y-81290241D01*
X106931629Y-81155751D01*
X106485788Y-81194853D01*
X106255503Y-81290241D01*
X106162911Y-81446850D01*
X104802384Y-81446850D01*
X103971500Y-80615966D01*
X103971500Y-79691107D01*
X103971501Y-79691102D01*
X103931156Y-79488280D01*
X103816267Y-79316335D01*
X103400000Y-78900068D01*
X103400000Y-78065150D01*
X106162911Y-78065150D01*
X106255503Y-78221759D01*
X106682371Y-78356249D01*
X107128212Y-78317147D01*
X107358497Y-78221759D01*
X107451089Y-78065150D01*
X106807000Y-77421061D01*
X106162911Y-78065150D01*
X103400000Y-78065150D01*
X103400000Y-77216000D01*
X103375210Y-77091371D01*
X105666751Y-77091371D01*
X105705853Y-77537212D01*
X105801241Y-77767497D01*
X105957850Y-77860089D01*
X106601939Y-77216000D01*
X107012061Y-77216000D01*
X107656150Y-77860089D01*
X107812759Y-77767497D01*
X107947249Y-77340629D01*
X107908147Y-76894788D01*
X107812759Y-76664503D01*
X107656150Y-76571911D01*
X107012061Y-77216000D01*
X106601939Y-77216000D01*
X105957850Y-76571911D01*
X105801241Y-76664503D01*
X105666751Y-77091371D01*
X103375210Y-77091371D01*
X103359656Y-77013178D01*
X103359656Y-77013177D01*
X103280551Y-76894788D01*
X103244767Y-76841233D01*
X103244764Y-76841231D01*
X102770383Y-76366850D01*
X106162911Y-76366850D01*
X106807000Y-77010939D01*
X107451089Y-76366850D01*
X107358497Y-76210241D01*
X106931629Y-76075751D01*
X106485788Y-76114853D01*
X106255503Y-76210241D01*
X106162911Y-76366850D01*
X102770383Y-76366850D01*
X102651302Y-76247769D01*
X102698273Y-76177472D01*
X102794839Y-75692000D01*
X102698273Y-75206528D01*
X102423275Y-74794964D01*
X102011711Y-74519966D01*
X101526239Y-74423400D01*
X101165761Y-74423400D01*
X100680289Y-74519966D01*
X100268725Y-74794964D01*
X99993727Y-75206528D01*
X99897161Y-75692000D01*
X99794000Y-75692000D01*
X99794000Y-73378250D01*
X100005000Y-73378250D01*
X100005000Y-74080247D01*
X100054479Y-74199698D01*
X100145903Y-74291122D01*
X100265354Y-74340600D01*
X101119750Y-74340600D01*
X101201000Y-74259350D01*
X101201000Y-73297000D01*
X101491000Y-73297000D01*
X101491000Y-74259350D01*
X101572250Y-74340600D01*
X102426646Y-74340600D01*
X102546097Y-74291122D01*
X102637521Y-74199698D01*
X102687000Y-74080247D01*
X102687000Y-73378250D01*
X102605750Y-73297000D01*
X101491000Y-73297000D01*
X101201000Y-73297000D01*
X100086250Y-73297000D01*
X100005000Y-73378250D01*
X99794000Y-73378250D01*
X99794000Y-72223753D01*
X100005000Y-72223753D01*
X100005000Y-72925750D01*
X100086250Y-73007000D01*
X101201000Y-73007000D01*
X101201000Y-72044650D01*
X101491000Y-72044650D01*
X101491000Y-73007000D01*
X102605750Y-73007000D01*
X102687000Y-72925750D01*
X102687000Y-72223753D01*
X102637521Y-72104302D01*
X102546097Y-72012878D01*
X102426646Y-71963400D01*
X101572250Y-71963400D01*
X101491000Y-72044650D01*
X101201000Y-72044650D01*
X101119750Y-71963400D01*
X100265354Y-71963400D01*
X100145903Y-72012878D01*
X100054479Y-72104302D01*
X100005000Y-72223753D01*
X99794000Y-72223753D01*
X99794000Y-71346000D01*
X126266000Y-71346000D01*
X126266000Y-103914000D01*
G36*
X109746000Y-86342000D02*
X109766000Y-86342000D01*
X109766000Y-86632000D01*
X109746000Y-86632000D01*
X109746000Y-87465988D01*
X109863244Y-87516826D01*
X110046181Y-87438231D01*
X110261130Y-87218371D01*
X110375580Y-86932990D01*
X110375580Y-86488511D01*
X111170833Y-87283764D01*
X111170835Y-87283767D01*
X111206122Y-87307344D01*
X109508466Y-89005000D01*
X105867000Y-89005000D01*
X105867000Y-88571250D01*
X105785750Y-88490000D01*
X105362000Y-88490000D01*
X105362000Y-88510000D01*
X105072000Y-88510000D01*
X105072000Y-88490000D01*
X105052000Y-88490000D01*
X105052000Y-88200000D01*
X105072000Y-88200000D01*
X105072000Y-88180000D01*
X105362000Y-88180000D01*
X105362000Y-88200000D01*
X105785750Y-88200000D01*
X105867000Y-88118750D01*
X105867000Y-87636883D01*
X105993822Y-87611656D01*
X106165767Y-87496767D01*
X106372969Y-87289565D01*
X106456721Y-87414908D01*
X106733966Y-87600158D01*
X107061000Y-87665209D01*
X107388034Y-87600158D01*
X107665279Y-87414908D01*
X107696000Y-87368931D01*
X107726721Y-87414908D01*
X108003966Y-87600158D01*
X108331000Y-87665209D01*
X108658034Y-87600158D01*
X108935279Y-87414908D01*
X109015557Y-87294764D01*
X109155819Y-87438231D01*
X109338756Y-87516826D01*
X109456000Y-87465988D01*
X109456000Y-86632000D01*
X109436000Y-86632000D01*
X109436000Y-86342000D01*
X109456000Y-86342000D01*
X109456000Y-86322000D01*
X109746000Y-86322000D01*
X109746000Y-86342000D01*
X109746000Y-86342000D01*
G37*
X109746000Y-86342000D02*
X109766000Y-86342000D01*
X109766000Y-86632000D01*
X109746000Y-86632000D01*
X109746000Y-87465988D01*
X109863244Y-87516826D01*
X110046181Y-87438231D01*
X110261130Y-87218371D01*
X110375580Y-86932990D01*
X110375580Y-86488511D01*
X111170833Y-87283764D01*
X111170835Y-87283767D01*
X111206122Y-87307344D01*
X109508466Y-89005000D01*
X105867000Y-89005000D01*
X105867000Y-88571250D01*
X105785750Y-88490000D01*
X105362000Y-88490000D01*
X105362000Y-88510000D01*
X105072000Y-88510000D01*
X105072000Y-88490000D01*
X105052000Y-88490000D01*
X105052000Y-88200000D01*
X105072000Y-88200000D01*
X105072000Y-88180000D01*
X105362000Y-88180000D01*
X105362000Y-88200000D01*
X105785750Y-88200000D01*
X105867000Y-88118750D01*
X105867000Y-87636883D01*
X105993822Y-87611656D01*
X106165767Y-87496767D01*
X106372969Y-87289565D01*
X106456721Y-87414908D01*
X106733966Y-87600158D01*
X107061000Y-87665209D01*
X107388034Y-87600158D01*
X107665279Y-87414908D01*
X107696000Y-87368931D01*
X107726721Y-87414908D01*
X108003966Y-87600158D01*
X108331000Y-87665209D01*
X108658034Y-87600158D01*
X108935279Y-87414908D01*
X109015557Y-87294764D01*
X109155819Y-87438231D01*
X109338756Y-87516826D01*
X109456000Y-87465988D01*
X109456000Y-86632000D01*
X109436000Y-86632000D01*
X109436000Y-86342000D01*
X109456000Y-86342000D01*
X109456000Y-86322000D01*
X109746000Y-86322000D01*
X109746000Y-86342000D01*
M02*
