G04 #@! TF.FileFunction,Legend,Bot*
%FSLAX46Y46*%
G04 Gerber Fmt 4.6, Leading zero omitted, Abs format (unit mm)*
G04 Created by KiCad (PCBNEW 4.0.0-stable) date 17.06.2016 16:47:32*
%MOMM*%
G01*
G04 APERTURE LIST*
%ADD10C,0.100000*%
%ADD11C,0.200000*%
%ADD12C,0.250000*%
%ADD13C,0.150000*%
G04 APERTURE END LIST*
D10*
D11*
X106918000Y-80434571D02*
X106918000Y-78934571D01*
X106251334Y-78934571D02*
X106060857Y-78934571D01*
X105965619Y-79006000D01*
X105870381Y-79148857D01*
X105822762Y-79434571D01*
X105822762Y-79934571D01*
X105870381Y-80220286D01*
X105965619Y-80363143D01*
X106060857Y-80434571D01*
X106251334Y-80434571D01*
X106346572Y-80363143D01*
X106441810Y-80220286D01*
X106489429Y-79934571D01*
X106489429Y-79434571D01*
X106441810Y-79148857D01*
X106346572Y-79006000D01*
X106251334Y-78934571D01*
X105441810Y-79077429D02*
X105394191Y-79006000D01*
X105298953Y-78934571D01*
X105060857Y-78934571D01*
X104965619Y-79006000D01*
X104918000Y-79077429D01*
X104870381Y-79220286D01*
X104870381Y-79363143D01*
X104918000Y-79577429D01*
X105489429Y-80434571D01*
X104870381Y-80434571D01*
X125372714Y-85262000D02*
X125229857Y-85342000D01*
X124991761Y-85342000D01*
X124896523Y-85262000D01*
X124848904Y-85182000D01*
X124801285Y-85022000D01*
X124801285Y-84862000D01*
X124848904Y-84702000D01*
X124896523Y-84622000D01*
X124991761Y-84542000D01*
X125182238Y-84462000D01*
X125277476Y-84382000D01*
X125325095Y-84302000D01*
X125372714Y-84142000D01*
X125372714Y-83982000D01*
X125325095Y-83822000D01*
X125277476Y-83742000D01*
X125182238Y-83662000D01*
X124944142Y-83662000D01*
X124801285Y-83742000D01*
X123801285Y-85182000D02*
X123848904Y-85262000D01*
X123991761Y-85342000D01*
X124086999Y-85342000D01*
X124229857Y-85262000D01*
X124325095Y-85102000D01*
X124372714Y-84942000D01*
X124420333Y-84622000D01*
X124420333Y-84382000D01*
X124372714Y-84062000D01*
X124325095Y-83902000D01*
X124229857Y-83742000D01*
X124086999Y-83662000D01*
X123991761Y-83662000D01*
X123848904Y-83742000D01*
X123801285Y-83822000D01*
X125469000Y-73989857D02*
X125549000Y-74104143D01*
X125549000Y-74275572D01*
X125469000Y-74447000D01*
X125309000Y-74561286D01*
X125149000Y-74618429D01*
X124829000Y-74675572D01*
X124589000Y-74675572D01*
X124269000Y-74618429D01*
X124109000Y-74561286D01*
X123949000Y-74447000D01*
X123869000Y-74275572D01*
X123869000Y-74161286D01*
X123949000Y-73989857D01*
X124029000Y-73932714D01*
X124589000Y-73932714D01*
X124589000Y-74161286D01*
X123869000Y-73418429D02*
X125549000Y-73418429D01*
X123869000Y-72732714D01*
X125549000Y-72732714D01*
X123869000Y-72161286D02*
X125549000Y-72161286D01*
X125549000Y-71875571D01*
X125469000Y-71704143D01*
X125309000Y-71589857D01*
X125149000Y-71532714D01*
X124829000Y-71475571D01*
X124589000Y-71475571D01*
X124269000Y-71532714D01*
X124109000Y-71589857D01*
X123949000Y-71704143D01*
X123869000Y-71875571D01*
X123869000Y-72161286D01*
X121317000Y-72675572D02*
X122997000Y-72675572D01*
X122837000Y-72161286D02*
X122917000Y-72104143D01*
X122997000Y-71989857D01*
X122997000Y-71704143D01*
X122917000Y-71589857D01*
X122837000Y-71532714D01*
X122677000Y-71475571D01*
X122517000Y-71475571D01*
X122277000Y-71532714D01*
X121317000Y-72218428D01*
X121317000Y-71475571D01*
X118765000Y-72161286D02*
X120445000Y-72161286D01*
X120445000Y-71704143D01*
X120365000Y-71589857D01*
X120285000Y-71532714D01*
X120125000Y-71475571D01*
X119885000Y-71475571D01*
X119725000Y-71532714D01*
X119645000Y-71589857D01*
X119565000Y-71704143D01*
X119565000Y-72161286D01*
X116213000Y-71532715D02*
X117893000Y-71532715D01*
X113661000Y-72847000D02*
X113661000Y-73532715D01*
X113661000Y-73189857D02*
X115341000Y-73189857D01*
X115101000Y-73304143D01*
X114941000Y-73418429D01*
X114861000Y-73532715D01*
X115341000Y-72447000D02*
X113661000Y-72161286D01*
X114861000Y-71932715D01*
X113661000Y-71704143D01*
X115341000Y-71418429D01*
X111109000Y-72847000D02*
X111109000Y-73532715D01*
X111109000Y-73189857D02*
X112789000Y-73189857D01*
X112549000Y-73304143D01*
X112389000Y-73418429D01*
X112309000Y-73532715D01*
X112789000Y-72447000D02*
X111109000Y-72161286D01*
X112309000Y-71932715D01*
X111109000Y-71704143D01*
X112789000Y-71418429D01*
X110237000Y-72561285D02*
X110237000Y-73132714D01*
X109437000Y-73189857D01*
X109517000Y-73132714D01*
X109597000Y-73018428D01*
X109597000Y-72732714D01*
X109517000Y-72618428D01*
X109437000Y-72561285D01*
X109277000Y-72504142D01*
X108877000Y-72504142D01*
X108717000Y-72561285D01*
X108637000Y-72618428D01*
X108557000Y-72732714D01*
X108557000Y-73018428D01*
X108637000Y-73132714D01*
X108717000Y-73189857D01*
X110237000Y-72161285D02*
X108557000Y-71761285D01*
X110237000Y-71361285D01*
X107605000Y-73989857D02*
X107685000Y-74104143D01*
X107685000Y-74275572D01*
X107605000Y-74447000D01*
X107445000Y-74561286D01*
X107285000Y-74618429D01*
X106965000Y-74675572D01*
X106725000Y-74675572D01*
X106405000Y-74618429D01*
X106245000Y-74561286D01*
X106085000Y-74447000D01*
X106005000Y-74275572D01*
X106005000Y-74161286D01*
X106085000Y-73989857D01*
X106165000Y-73932714D01*
X106725000Y-73932714D01*
X106725000Y-74161286D01*
X106005000Y-73418429D02*
X107685000Y-73418429D01*
X106005000Y-72732714D01*
X107685000Y-72732714D01*
X106005000Y-72161286D02*
X107685000Y-72161286D01*
X107685000Y-71875571D01*
X107605000Y-71704143D01*
X107445000Y-71589857D01*
X107285000Y-71532714D01*
X106965000Y-71475571D01*
X106725000Y-71475571D01*
X106405000Y-71532714D01*
X106245000Y-71589857D01*
X106085000Y-71704143D01*
X106005000Y-71875571D01*
X106005000Y-72161286D01*
X104155714Y-72276000D02*
X104250952Y-72196000D01*
X104393809Y-72196000D01*
X104536667Y-72276000D01*
X104631905Y-72436000D01*
X104679524Y-72596000D01*
X104727143Y-72916000D01*
X104727143Y-73156000D01*
X104679524Y-73476000D01*
X104631905Y-73636000D01*
X104536667Y-73796000D01*
X104393809Y-73876000D01*
X104298571Y-73876000D01*
X104155714Y-73796000D01*
X104108095Y-73716000D01*
X104108095Y-73156000D01*
X104298571Y-73156000D01*
X103679524Y-73876000D02*
X103679524Y-72196000D01*
X103108095Y-73876000D01*
X103108095Y-72196000D01*
X104060476Y-76428000D02*
X104060476Y-74748000D01*
X103060476Y-76428000D02*
X103631905Y-76428000D01*
X103346191Y-76428000D02*
X103346191Y-74748000D01*
X103441429Y-74988000D01*
X103536667Y-75148000D01*
X103631905Y-75228000D01*
X104012857Y-78980000D02*
X104346191Y-78180000D01*
X104584286Y-78980000D02*
X104584286Y-77300000D01*
X104203333Y-77300000D01*
X104108095Y-77380000D01*
X104060476Y-77460000D01*
X104012857Y-77620000D01*
X104012857Y-77860000D01*
X104060476Y-78020000D01*
X104108095Y-78100000D01*
X104203333Y-78180000D01*
X104584286Y-78180000D01*
X103679524Y-77300000D02*
X103012857Y-78980000D01*
X103012857Y-77300000D02*
X103679524Y-78980000D01*
X104489048Y-79852000D02*
X103917619Y-79852000D01*
X104203334Y-81532000D02*
X104203334Y-79852000D01*
X103679524Y-79852000D02*
X103012857Y-81532000D01*
X103012857Y-79852000D02*
X103679524Y-81532000D01*
X104012857Y-84084000D02*
X104346191Y-83284000D01*
X104584286Y-84084000D02*
X104584286Y-82404000D01*
X104203333Y-82404000D01*
X104108095Y-82484000D01*
X104060476Y-82564000D01*
X104012857Y-82724000D01*
X104012857Y-82964000D01*
X104060476Y-83124000D01*
X104108095Y-83204000D01*
X104203333Y-83284000D01*
X104584286Y-83284000D01*
X103060476Y-84084000D02*
X103631905Y-84084000D01*
X103346191Y-84084000D02*
X103346191Y-82404000D01*
X103441429Y-82644000D01*
X103536667Y-82804000D01*
X103631905Y-82884000D01*
X122491524Y-90185000D02*
X122348667Y-90265000D01*
X122110571Y-90265000D01*
X122015333Y-90185000D01*
X121967714Y-90105000D01*
X121920095Y-89945000D01*
X121920095Y-89785000D01*
X121967714Y-89625000D01*
X122015333Y-89545000D01*
X122110571Y-89465000D01*
X122301048Y-89385000D01*
X122396286Y-89305000D01*
X122443905Y-89225000D01*
X122491524Y-89065000D01*
X122491524Y-88905000D01*
X122443905Y-88745000D01*
X122396286Y-88665000D01*
X122301048Y-88585000D01*
X122062952Y-88585000D01*
X121920095Y-88665000D01*
X121491524Y-90265000D02*
X121491524Y-88585000D01*
X121253429Y-88585000D01*
X121110571Y-88665000D01*
X121015333Y-88825000D01*
X120967714Y-88985000D01*
X120920095Y-89305000D01*
X120920095Y-89545000D01*
X120967714Y-89865000D01*
X121015333Y-90025000D01*
X121110571Y-90185000D01*
X121253429Y-90265000D01*
X121491524Y-90265000D01*
X122539143Y-91137000D02*
X121920095Y-91137000D01*
X122253429Y-91777000D01*
X122110571Y-91777000D01*
X122015333Y-91857000D01*
X121967714Y-91937000D01*
X121920095Y-92097000D01*
X121920095Y-92497000D01*
X121967714Y-92657000D01*
X122015333Y-92737000D01*
X122110571Y-92817000D01*
X122396286Y-92817000D01*
X122491524Y-92737000D01*
X122539143Y-92657000D01*
X121634381Y-91137000D02*
X121301048Y-92817000D01*
X120967714Y-91137000D01*
X122443905Y-95369000D02*
X122443905Y-93689000D01*
X122205810Y-93689000D01*
X122062952Y-93769000D01*
X121967714Y-93929000D01*
X121920095Y-94089000D01*
X121872476Y-94409000D01*
X121872476Y-94649000D01*
X121920095Y-94969000D01*
X121967714Y-95129000D01*
X122062952Y-95289000D01*
X122205810Y-95369000D01*
X122443905Y-95369000D01*
X121443905Y-95369000D02*
X121443905Y-93689000D01*
X121872476Y-97761000D02*
X121920095Y-97841000D01*
X122062952Y-97921000D01*
X122158190Y-97921000D01*
X122301048Y-97841000D01*
X122396286Y-97681000D01*
X122443905Y-97521000D01*
X122491524Y-97201000D01*
X122491524Y-96961000D01*
X122443905Y-96641000D01*
X122396286Y-96481000D01*
X122301048Y-96321000D01*
X122158190Y-96241000D01*
X122062952Y-96241000D01*
X121920095Y-96321000D01*
X121872476Y-96401000D01*
X120967714Y-97921000D02*
X121443905Y-97921000D01*
X121443905Y-96241000D01*
X121920095Y-98873000D02*
X122015333Y-98793000D01*
X122158190Y-98793000D01*
X122301048Y-98873000D01*
X122396286Y-99033000D01*
X122443905Y-99193000D01*
X122491524Y-99513000D01*
X122491524Y-99753000D01*
X122443905Y-100073000D01*
X122396286Y-100233000D01*
X122301048Y-100393000D01*
X122158190Y-100473000D01*
X122062952Y-100473000D01*
X121920095Y-100393000D01*
X121872476Y-100313000D01*
X121872476Y-99753000D01*
X122062952Y-99753000D01*
X121443905Y-100473000D02*
X121443905Y-98793000D01*
X120872476Y-100473000D01*
X120872476Y-98793000D01*
X121967714Y-101345000D02*
X122443905Y-101345000D01*
X122491524Y-102145000D01*
X122443905Y-102065000D01*
X122348667Y-101985000D01*
X122110571Y-101985000D01*
X122015333Y-102065000D01*
X121967714Y-102145000D01*
X121920095Y-102305000D01*
X121920095Y-102705000D01*
X121967714Y-102865000D01*
X122015333Y-102945000D01*
X122110571Y-103025000D01*
X122348667Y-103025000D01*
X122443905Y-102945000D01*
X122491524Y-102865000D01*
X121634381Y-101345000D02*
X121301048Y-103025000D01*
X120967714Y-101345000D01*
D12*
X118449571Y-103401857D02*
X119549571Y-103401857D01*
X119235286Y-103401857D02*
X119392429Y-103330429D01*
X119471000Y-103259000D01*
X119549571Y-103116143D01*
X119549571Y-102973286D01*
X119549571Y-102687572D02*
X119549571Y-102116143D01*
X120099571Y-102473286D02*
X118685286Y-102473286D01*
X118528143Y-102401858D01*
X118449571Y-102259000D01*
X118449571Y-102116143D01*
X115968143Y-103473286D02*
X115889571Y-103330429D01*
X115889571Y-103044714D01*
X115968143Y-102901857D01*
X116125286Y-102830429D01*
X116203857Y-102830429D01*
X116361000Y-102901857D01*
X116439571Y-103044714D01*
X116439571Y-103259000D01*
X116518143Y-103401857D01*
X116675286Y-103473286D01*
X116753857Y-103473286D01*
X116911000Y-103401857D01*
X116989571Y-103259000D01*
X116989571Y-103044714D01*
X116911000Y-102901857D01*
X116989571Y-102330428D02*
X115889571Y-102044714D01*
X116675286Y-101759000D01*
X115889571Y-101473285D01*
X116989571Y-101187571D01*
X114429571Y-103544714D02*
X113329571Y-103259000D01*
X114115286Y-102973286D01*
X113329571Y-102687571D01*
X114429571Y-102401857D01*
X113408143Y-101901857D02*
X113329571Y-101759000D01*
X113329571Y-101473285D01*
X113408143Y-101330428D01*
X113565286Y-101259000D01*
X113643857Y-101259000D01*
X113801000Y-101330428D01*
X113879571Y-101473285D01*
X113879571Y-101687571D01*
X113958143Y-101830428D01*
X114115286Y-101901857D01*
X114193857Y-101901857D01*
X114351000Y-101830428D01*
X114429571Y-101687571D01*
X114429571Y-101473285D01*
X114351000Y-101330428D01*
X111869571Y-102759000D02*
X110533857Y-102759000D01*
X110376714Y-102830429D01*
X110298143Y-102901857D01*
X110219571Y-103044714D01*
X110219571Y-103259000D01*
X110298143Y-103401857D01*
X110848143Y-102759000D02*
X110769571Y-102901857D01*
X110769571Y-103187571D01*
X110848143Y-103330429D01*
X110926714Y-103401857D01*
X111083857Y-103473286D01*
X111555286Y-103473286D01*
X111712429Y-103401857D01*
X111791000Y-103330429D01*
X111869571Y-103187571D01*
X111869571Y-102901857D01*
X111791000Y-102759000D01*
X110848143Y-101473286D02*
X110769571Y-101616143D01*
X110769571Y-101901857D01*
X110848143Y-102044714D01*
X111005286Y-102116143D01*
X111633857Y-102116143D01*
X111791000Y-102044714D01*
X111869571Y-101901857D01*
X111869571Y-101616143D01*
X111791000Y-101473286D01*
X111633857Y-101401857D01*
X111476714Y-101401857D01*
X111319571Y-102116143D01*
X109309571Y-102759000D02*
X107973857Y-102759000D01*
X107816714Y-102830429D01*
X107738143Y-102901857D01*
X107659571Y-103044714D01*
X107659571Y-103259000D01*
X107738143Y-103401857D01*
X108288143Y-102759000D02*
X108209571Y-102901857D01*
X108209571Y-103187571D01*
X108288143Y-103330429D01*
X108366714Y-103401857D01*
X108523857Y-103473286D01*
X108995286Y-103473286D01*
X109152429Y-103401857D01*
X109231000Y-103330429D01*
X109309571Y-103187571D01*
X109309571Y-102901857D01*
X109231000Y-102759000D01*
X108288143Y-101473286D02*
X108209571Y-101616143D01*
X108209571Y-101901857D01*
X108288143Y-102044714D01*
X108445286Y-102116143D01*
X109073857Y-102116143D01*
X109231000Y-102044714D01*
X109309571Y-101901857D01*
X109309571Y-101616143D01*
X109231000Y-101473286D01*
X109073857Y-101401857D01*
X108916714Y-101401857D01*
X108759571Y-102116143D01*
X106749571Y-103544714D02*
X105649571Y-103259000D01*
X106435286Y-102973286D01*
X105649571Y-102687571D01*
X106749571Y-102401857D01*
X105728143Y-101901857D02*
X105649571Y-101759000D01*
X105649571Y-101473285D01*
X105728143Y-101330428D01*
X105885286Y-101259000D01*
X105963857Y-101259000D01*
X106121000Y-101330428D01*
X106199571Y-101473285D01*
X106199571Y-101687571D01*
X106278143Y-101830428D01*
X106435286Y-101901857D01*
X106513857Y-101901857D01*
X106671000Y-101830428D01*
X106749571Y-101687571D01*
X106749571Y-101473285D01*
X106671000Y-101330428D01*
X103168143Y-103473286D02*
X103089571Y-103330429D01*
X103089571Y-103044714D01*
X103168143Y-102901857D01*
X103325286Y-102830429D01*
X103403857Y-102830429D01*
X103561000Y-102901857D01*
X103639571Y-103044714D01*
X103639571Y-103259000D01*
X103718143Y-103401857D01*
X103875286Y-103473286D01*
X103953857Y-103473286D01*
X104111000Y-103401857D01*
X104189571Y-103259000D01*
X104189571Y-103044714D01*
X104111000Y-102901857D01*
X104189571Y-102330428D02*
X103089571Y-102044714D01*
X103875286Y-101759000D01*
X103089571Y-101473285D01*
X104189571Y-101187571D01*
X100529571Y-103401857D02*
X101629571Y-103401857D01*
X101315286Y-103401857D02*
X101472429Y-103330429D01*
X101551000Y-103259000D01*
X101629571Y-103116143D01*
X101629571Y-102973286D01*
X101629571Y-102687572D02*
X101629571Y-102116143D01*
X102179571Y-102473286D02*
X100765286Y-102473286D01*
X100608143Y-102401858D01*
X100529571Y-102259000D01*
X100529571Y-102116143D01*
D13*
X114474000Y-90784000D02*
G75*
G03X114474000Y-90784000I-350000J0D01*
G01*
X113624000Y-91134000D02*
X118024000Y-91134000D01*
X113624000Y-84634000D02*
X118024000Y-84634000D01*
X104783000Y-99226000D02*
X105783000Y-99226000D01*
X105783000Y-100926000D02*
X104783000Y-100926000D01*
X102886000Y-89780000D02*
X104886000Y-89780000D01*
X104886000Y-91830000D02*
X102886000Y-91830000D01*
X121346406Y-86239513D02*
X122053513Y-85532406D01*
X123255594Y-86734487D02*
X122548487Y-87441594D01*
X123790000Y-79389000D02*
X122590000Y-79389000D01*
X122590000Y-81139000D02*
X123790000Y-81139000D01*
X105656000Y-93804000D02*
G75*
G03X105656000Y-93804000I-100000J0D01*
G01*
X104906000Y-94054000D02*
X105406000Y-94054000D01*
X104906000Y-96954000D02*
X104906000Y-94054000D01*
X105406000Y-96954000D02*
X104906000Y-96954000D01*
X105406000Y-94054000D02*
X105406000Y-96954000D01*
X102667000Y-86595000D02*
G75*
G03X102667000Y-86595000I-100000J0D01*
G01*
X102817000Y-87245000D02*
X102817000Y-86745000D01*
X105717000Y-87245000D02*
X102817000Y-87245000D01*
X105717000Y-86745000D02*
X105717000Y-87245000D01*
X102817000Y-86745000D02*
X105717000Y-86745000D01*
X110736000Y-93804000D02*
G75*
G03X110736000Y-93804000I-100000J0D01*
G01*
X109986000Y-94054000D02*
X110486000Y-94054000D01*
X109986000Y-96954000D02*
X109986000Y-94054000D01*
X110486000Y-96954000D02*
X109986000Y-96954000D01*
X110486000Y-94054000D02*
X110486000Y-96954000D01*
X117764000Y-80123000D02*
X118964000Y-80123000D01*
X118964000Y-78373000D02*
X117764000Y-78373000D01*
X111287000Y-80123000D02*
X112487000Y-80123000D01*
X112487000Y-78373000D02*
X111287000Y-78373000D01*
X102147666Y-96718381D02*
X102719095Y-96718381D01*
X102433381Y-96718381D02*
X102433381Y-95718381D01*
X102528619Y-95861238D01*
X102623857Y-95956476D01*
X102719095Y-96004095D01*
X101290523Y-96051714D02*
X101290523Y-96718381D01*
X101719095Y-96051714D02*
X101719095Y-96575524D01*
X101671476Y-96670762D01*
X101576238Y-96718381D01*
X101433380Y-96718381D01*
X101338142Y-96670762D01*
X101290523Y-96623143D01*
X109196095Y-90590714D02*
X109196095Y-91257381D01*
X109434191Y-90209762D02*
X109672286Y-90924048D01*
X109053238Y-90924048D01*
X108243714Y-90590714D02*
X108243714Y-91257381D01*
X108672286Y-90590714D02*
X108672286Y-91114524D01*
X108624667Y-91209762D01*
X108529429Y-91257381D01*
X108386571Y-91257381D01*
X108291333Y-91209762D01*
X108243714Y-91162143D01*
X107862762Y-90257381D02*
X107196095Y-90257381D01*
X107624667Y-91257381D01*
X121318671Y-85007282D02*
X121790076Y-85478687D01*
X121621717Y-84704236D02*
X121992107Y-85074625D01*
X122025778Y-85175640D01*
X121992107Y-85276656D01*
X121891091Y-85377671D01*
X121790076Y-85411343D01*
X121722732Y-85411343D01*
X121082969Y-86185793D02*
X121487030Y-85781732D01*
X121285000Y-85983762D02*
X120577893Y-85276656D01*
X120746252Y-85310327D01*
X120880939Y-85310327D01*
X120981954Y-85276656D01*
X123309047Y-79065381D02*
X123880476Y-79065381D01*
X123594762Y-79065381D02*
X123594762Y-78065381D01*
X123690000Y-78208238D01*
X123785238Y-78303476D01*
X123880476Y-78351095D01*
X122880476Y-79065381D02*
X122880476Y-78065381D01*
X122785238Y-78684429D02*
X122499523Y-79065381D01*
X122499523Y-78398714D02*
X122880476Y-78779667D01*
X118483047Y-81224381D02*
X119054476Y-81224381D01*
X118768762Y-81224381D02*
X118768762Y-80224381D01*
X118864000Y-80367238D01*
X118959238Y-80462476D01*
X119054476Y-80510095D01*
X118054476Y-81224381D02*
X118054476Y-80224381D01*
X117959238Y-80843429D02*
X117673523Y-81224381D01*
X117673523Y-80557714D02*
X118054476Y-80938667D01*
X112434619Y-80224381D02*
X112339380Y-80224381D01*
X112244142Y-80272000D01*
X112196523Y-80319619D01*
X112148904Y-80414857D01*
X112101285Y-80605333D01*
X112101285Y-80843429D01*
X112148904Y-81033905D01*
X112196523Y-81129143D01*
X112244142Y-81176762D01*
X112339380Y-81224381D01*
X112434619Y-81224381D01*
X112529857Y-81176762D01*
X112577476Y-81129143D01*
X112625095Y-81033905D01*
X112672714Y-80843429D01*
X112672714Y-80605333D01*
X112625095Y-80414857D01*
X112577476Y-80319619D01*
X112529857Y-80272000D01*
X112434619Y-80224381D01*
X111101285Y-81224381D02*
X111434619Y-80748190D01*
X111672714Y-81224381D02*
X111672714Y-80224381D01*
X111291761Y-80224381D01*
X111196523Y-80272000D01*
X111148904Y-80319619D01*
X111101285Y-80414857D01*
X111101285Y-80557714D01*
X111148904Y-80652952D01*
X111196523Y-80700571D01*
X111291761Y-80748190D01*
X111672714Y-80748190D01*
X111069381Y-79017905D02*
X110069381Y-79017905D01*
X110069381Y-79398858D01*
X110117000Y-79494096D01*
X110164619Y-79541715D01*
X110259857Y-79589334D01*
X110402714Y-79589334D01*
X110497952Y-79541715D01*
X110545571Y-79494096D01*
X110593190Y-79398858D01*
X110593190Y-79017905D01*
X110402714Y-80446477D02*
X111069381Y-80446477D01*
X110021762Y-80208381D02*
X110736048Y-79970286D01*
X110736048Y-80589334D01*
M02*
