M48
;DRILL file {KiCad 4.0.0-stable} date 17.06.2016 16:47:37
;FORMAT={-:-/ absolute / metric / decimal}
FMAT,2
METRIC,TZ
T1C0.400
T2C0.600
T3C0.800
T4C0.900
T5C1.016
%
G90
G05
M71
T1
X103.251Y-84.201
X110.363Y-90.805
X110.871Y-89.662
X114.3Y-87.757
X117.348Y-90.805
X122.809Y-87.63
T2
X107.061Y-86.487
X108.331Y-86.487
X109.601Y-86.487
T3
X108.077Y-79.756
T4
X101.346Y-92.964
X101.346Y-98.044
X103.886Y-92.964
X103.886Y-98.044
X106.426Y-92.964
X106.426Y-98.044
X106.807Y-77.216
X106.807Y-82.296
X108.966Y-92.964
X108.966Y-98.044
X109.347Y-77.216
X109.347Y-82.296
X111.506Y-92.964
X111.506Y-98.044
X111.887Y-77.216
X111.887Y-82.296
X114.046Y-92.964
X114.046Y-98.044
X114.427Y-77.216
X114.427Y-82.296
X116.586Y-92.964
X116.586Y-98.044
X116.967Y-77.216
X116.967Y-82.296
X119.126Y-92.964
X119.126Y-98.044
X119.507Y-77.216
X119.507Y-82.296
X122.047Y-77.216
X122.047Y-82.296
X124.587Y-77.216
X124.587Y-82.296
T5
X101.346Y-73.152
X101.346Y-75.692
X101.346Y-78.232
X101.346Y-80.772
X101.346Y-83.312
X101.346Y-85.852
X101.346Y-88.392
X124.587Y-87.122
X124.587Y-89.662
X124.587Y-92.202
X124.587Y-94.742
X124.587Y-97.282
X124.587Y-99.822
X124.587Y-102.362
T0
M30
