G04 #@! TF.GenerationSoftware,KiCad,Pcbnew,(5.1.8)-1*
G04 #@! TF.CreationDate,2021-07-21T13:57:44+02:00*
G04 #@! TF.ProjectId,sensactHsNano,73656e73-6163-4744-9873-4e616e6f2e6b,rev?*
G04 #@! TF.SameCoordinates,Original*
G04 #@! TF.FileFunction,Soldermask,Bot*
G04 #@! TF.FilePolarity,Negative*
%FSLAX46Y46*%
G04 Gerber Fmt 4.6, Leading zero omitted, Abs format (unit mm)*
G04 Created by KiCad (PCBNEW (5.1.8)-1) date 2021-07-21 13:57:44*
%MOMM*%
%LPD*%
G01*
G04 APERTURE LIST*
%ADD10C,0.100000*%
%ADD11C,0.900000*%
%ADD12C,1.200000*%
%ADD13O,1.700000X1.950000*%
%ADD14C,1.524000*%
%ADD15O,2.200000X2.200000*%
%ADD16R,2.200000X2.200000*%
%ADD17O,3.600000X1.800000*%
%ADD18C,2.000000*%
%ADD19R,1.500000X2.300000*%
%ADD20R,5.000000X5.000000*%
%ADD21R,2.200000X0.600000*%
%ADD22O,1.000000X1.000000*%
%ADD23R,1.000000X1.000000*%
%ADD24C,0.700000*%
%ADD25C,2.100000*%
%ADD26C,1.750000*%
%ADD27C,1.700000*%
%ADD28C,3.250000*%
%ADD29C,2.445000*%
%ADD30C,1.530000*%
%ADD31C,1.398000*%
%ADD32R,1.398000X1.398000*%
%ADD33R,2.300000X3.500000*%
%ADD34R,3.600000X5.500000*%
%ADD35R,2.000000X0.400000*%
G04 APERTURE END LIST*
D10*
G36*
X179720000Y-110883602D02*
G01*
X179744534Y-110883602D01*
X179793365Y-110888412D01*
X179841490Y-110897984D01*
X179888445Y-110912228D01*
X179933778Y-110931005D01*
X179977051Y-110954136D01*
X180017850Y-110981396D01*
X180055779Y-111012524D01*
X180090476Y-111047221D01*
X180121604Y-111085150D01*
X180148864Y-111125949D01*
X180171995Y-111169222D01*
X180190772Y-111214555D01*
X180205016Y-111261510D01*
X180214588Y-111309635D01*
X180219398Y-111358466D01*
X180219398Y-111383000D01*
X180220000Y-111383000D01*
X180220000Y-111883000D01*
X180219398Y-111883000D01*
X180219398Y-111907534D01*
X180214588Y-111956365D01*
X180205016Y-112004490D01*
X180190772Y-112051445D01*
X180171995Y-112096778D01*
X180148864Y-112140051D01*
X180121604Y-112180850D01*
X180090476Y-112218779D01*
X180055779Y-112253476D01*
X180017850Y-112284604D01*
X179977051Y-112311864D01*
X179933778Y-112334995D01*
X179888445Y-112353772D01*
X179841490Y-112368016D01*
X179793365Y-112377588D01*
X179744534Y-112382398D01*
X179720000Y-112382398D01*
X179720000Y-112383000D01*
X179220000Y-112383000D01*
X179220000Y-110883000D01*
X179720000Y-110883000D01*
X179720000Y-110883602D01*
G37*
G36*
X178920000Y-112383000D02*
G01*
X178420000Y-112383000D01*
X178420000Y-112382398D01*
X178395466Y-112382398D01*
X178346635Y-112377588D01*
X178298510Y-112368016D01*
X178251555Y-112353772D01*
X178206222Y-112334995D01*
X178162949Y-112311864D01*
X178122150Y-112284604D01*
X178084221Y-112253476D01*
X178049524Y-112218779D01*
X178018396Y-112180850D01*
X177991136Y-112140051D01*
X177968005Y-112096778D01*
X177949228Y-112051445D01*
X177934984Y-112004490D01*
X177925412Y-111956365D01*
X177920602Y-111907534D01*
X177920602Y-111883000D01*
X177920000Y-111883000D01*
X177920000Y-111383000D01*
X177920602Y-111383000D01*
X177920602Y-111358466D01*
X177925412Y-111309635D01*
X177934984Y-111261510D01*
X177949228Y-111214555D01*
X177968005Y-111169222D01*
X177991136Y-111125949D01*
X178018396Y-111085150D01*
X178049524Y-111047221D01*
X178084221Y-111012524D01*
X178122150Y-110981396D01*
X178162949Y-110954136D01*
X178206222Y-110931005D01*
X178251555Y-110912228D01*
X178298510Y-110897984D01*
X178346635Y-110888412D01*
X178395466Y-110883602D01*
X178420000Y-110883602D01*
X178420000Y-110883000D01*
X178920000Y-110883000D01*
X178920000Y-112383000D01*
G37*
G36*
G01*
X183026000Y-111067001D02*
X183026000Y-110166999D01*
G75*
G02*
X183275999Y-109917000I249999J0D01*
G01*
X183976001Y-109917000D01*
G75*
G02*
X184226000Y-110166999I0J-249999D01*
G01*
X184226000Y-111067001D01*
G75*
G02*
X183976001Y-111317000I-249999J0D01*
G01*
X183275999Y-111317000D01*
G75*
G02*
X183026000Y-111067001I0J249999D01*
G01*
G37*
G36*
G01*
X181026000Y-111067001D02*
X181026000Y-110166999D01*
G75*
G02*
X181275999Y-109917000I249999J0D01*
G01*
X181976001Y-109917000D01*
G75*
G02*
X182226000Y-110166999I0J-249999D01*
G01*
X182226000Y-111067001D01*
G75*
G02*
X181976001Y-111317000I-249999J0D01*
G01*
X181275999Y-111317000D01*
G75*
G02*
X181026000Y-111067001I0J249999D01*
G01*
G37*
G36*
G01*
X182226000Y-112198999D02*
X182226000Y-113099001D01*
G75*
G02*
X181976001Y-113349000I-249999J0D01*
G01*
X181275999Y-113349000D01*
G75*
G02*
X181026000Y-113099001I0J249999D01*
G01*
X181026000Y-112198999D01*
G75*
G02*
X181275999Y-111949000I249999J0D01*
G01*
X181976001Y-111949000D01*
G75*
G02*
X182226000Y-112198999I0J-249999D01*
G01*
G37*
G36*
G01*
X184226000Y-112198999D02*
X184226000Y-113099001D01*
G75*
G02*
X183976001Y-113349000I-249999J0D01*
G01*
X183275999Y-113349000D01*
G75*
G02*
X183026000Y-113099001I0J249999D01*
G01*
X183026000Y-112198999D01*
G75*
G02*
X183275999Y-111949000I249999J0D01*
G01*
X183976001Y-111949000D01*
G75*
G02*
X184226000Y-112198999I0J-249999D01*
G01*
G37*
D11*
X193040000Y-114476400D03*
X193040000Y-117476400D03*
D12*
X117043000Y-131286000D03*
D13*
X107943000Y-129286000D03*
X110443000Y-129286000D03*
X112943000Y-129286000D03*
G36*
G01*
X116293000Y-128561000D02*
X116293000Y-130011000D01*
G75*
G02*
X116043000Y-130261000I-250000J0D01*
G01*
X114843000Y-130261000D01*
G75*
G02*
X114593000Y-130011000I0J250000D01*
G01*
X114593000Y-128561000D01*
G75*
G02*
X114843000Y-128311000I250000J0D01*
G01*
X116043000Y-128311000D01*
G75*
G02*
X116293000Y-128561000I0J-250000D01*
G01*
G37*
D14*
X130330000Y-103886000D03*
X132870000Y-103886000D03*
X130330000Y-101346000D03*
G36*
G01*
X132108000Y-101727000D02*
X132108000Y-100965000D01*
G75*
G02*
X132489000Y-100584000I381000J0D01*
G01*
X133251000Y-100584000D01*
G75*
G02*
X133632000Y-100965000I0J-381000D01*
G01*
X133632000Y-101727000D01*
G75*
G02*
X133251000Y-102108000I-381000J0D01*
G01*
X132489000Y-102108000D01*
G75*
G02*
X132108000Y-101727000I0J381000D01*
G01*
G37*
D15*
X182676800Y-151130000D03*
D16*
X192836800Y-151130000D03*
G36*
G01*
X130028800Y-138732800D02*
X130028800Y-141132800D01*
G75*
G02*
X129428800Y-141732800I-600000J0D01*
G01*
X128228800Y-141732800D01*
G75*
G02*
X127628800Y-141132800I0J600000D01*
G01*
X127628800Y-138732800D01*
G75*
G02*
X128228800Y-138132800I600000J0D01*
G01*
X129428800Y-138132800D01*
G75*
G02*
X130028800Y-138732800I0J-600000D01*
G01*
G37*
G36*
G01*
X130028800Y-129732800D02*
X130028800Y-132132800D01*
G75*
G02*
X129428800Y-132732800I-600000J0D01*
G01*
X128228800Y-132732800D01*
G75*
G02*
X127628800Y-132132800I0J600000D01*
G01*
X127628800Y-129732800D01*
G75*
G02*
X128228800Y-129132800I600000J0D01*
G01*
X129428800Y-129132800D01*
G75*
G02*
X130028800Y-129732800I0J-600000D01*
G01*
G37*
D17*
X186944000Y-139430400D03*
X186944000Y-135930400D03*
X186944000Y-132430400D03*
G36*
G01*
X185394000Y-128030400D02*
X188494000Y-128030400D01*
G75*
G02*
X188744000Y-128280400I0J-250000D01*
G01*
X188744000Y-129580400D01*
G75*
G02*
X188494000Y-129830400I-250000J0D01*
G01*
X185394000Y-129830400D01*
G75*
G02*
X185144000Y-129580400I0J250000D01*
G01*
X185144000Y-128280400D01*
G75*
G02*
X185394000Y-128030400I250000J0D01*
G01*
G37*
D18*
X159196126Y-144333874D03*
D10*
G36*
X161671000Y-140444786D02*
G01*
X163085214Y-141859000D01*
X161671000Y-143273214D01*
X160256786Y-141859000D01*
X161671000Y-140444786D01*
G37*
D19*
X149250400Y-146173200D03*
X151790400Y-146173200D03*
X151790400Y-136173200D03*
X149250400Y-136173200D03*
X147269200Y-136173200D03*
X144729200Y-136173200D03*
X144729200Y-146173200D03*
X147269200Y-146173200D03*
G36*
G01*
X154069201Y-145716800D02*
X153169199Y-145716800D01*
G75*
G02*
X152919200Y-145466801I0J249999D01*
G01*
X152919200Y-144766799D01*
G75*
G02*
X153169199Y-144516800I249999J0D01*
G01*
X154069201Y-144516800D01*
G75*
G02*
X154319200Y-144766799I0J-249999D01*
G01*
X154319200Y-145466801D01*
G75*
G02*
X154069201Y-145716800I-249999J0D01*
G01*
G37*
G36*
G01*
X154069201Y-147716800D02*
X153169199Y-147716800D01*
G75*
G02*
X152919200Y-147466801I0J249999D01*
G01*
X152919200Y-146766799D01*
G75*
G02*
X153169199Y-146516800I249999J0D01*
G01*
X154069201Y-146516800D01*
G75*
G02*
X154319200Y-146766799I0J-249999D01*
G01*
X154319200Y-147466801D01*
G75*
G02*
X154069201Y-147716800I-249999J0D01*
G01*
G37*
G36*
G01*
X169244017Y-125299225D02*
X168324775Y-124379983D01*
G75*
G02*
X168324775Y-124026433I176775J176775D01*
G01*
X168908141Y-123443067D01*
G75*
G02*
X169261691Y-123443067I176775J-176775D01*
G01*
X170180933Y-124362309D01*
G75*
G02*
X170180933Y-124715859I-176775J-176775D01*
G01*
X169597567Y-125299225D01*
G75*
G02*
X169244017Y-125299225I-176775J176775D01*
G01*
G37*
G36*
G01*
X167034309Y-127508933D02*
X166115067Y-126589691D01*
G75*
G02*
X166115067Y-126236141I176775J176775D01*
G01*
X166698433Y-125652775D01*
G75*
G02*
X167051983Y-125652775I176775J-176775D01*
G01*
X167971225Y-126572017D01*
G75*
G02*
X167971225Y-126925567I-176775J-176775D01*
G01*
X167387859Y-127508933D01*
G75*
G02*
X167034309Y-127508933I-176775J176775D01*
G01*
G37*
G36*
G01*
X166927775Y-141431017D02*
X167847017Y-140511775D01*
G75*
G02*
X168200567Y-140511775I176775J-176775D01*
G01*
X168783933Y-141095141D01*
G75*
G02*
X168783933Y-141448691I-176775J-176775D01*
G01*
X167864691Y-142367933D01*
G75*
G02*
X167511141Y-142367933I-176775J176775D01*
G01*
X166927775Y-141784567D01*
G75*
G02*
X166927775Y-141431017I176775J176775D01*
G01*
G37*
G36*
G01*
X164718067Y-139221309D02*
X165637309Y-138302067D01*
G75*
G02*
X165990859Y-138302067I176775J-176775D01*
G01*
X166574225Y-138885433D01*
G75*
G02*
X166574225Y-139238983I-176775J-176775D01*
G01*
X165654983Y-140158225D01*
G75*
G02*
X165301433Y-140158225I-176775J176775D01*
G01*
X164718067Y-139574859D01*
G75*
G02*
X164718067Y-139221309I176775J176775D01*
G01*
G37*
G36*
G01*
X136010500Y-106009000D02*
X136010500Y-105559000D01*
G75*
G02*
X136235500Y-105334000I225000J0D01*
G01*
X138785500Y-105334000D01*
G75*
G02*
X139010500Y-105559000I0J-225000D01*
G01*
X139010500Y-106009000D01*
G75*
G02*
X138785500Y-106234000I-225000J0D01*
G01*
X136235500Y-106234000D01*
G75*
G02*
X136010500Y-106009000I0J225000D01*
G01*
G37*
G36*
G01*
X136010500Y-107279000D02*
X136010500Y-106829000D01*
G75*
G02*
X136235500Y-106604000I225000J0D01*
G01*
X138785500Y-106604000D01*
G75*
G02*
X139010500Y-106829000I0J-225000D01*
G01*
X139010500Y-107279000D01*
G75*
G02*
X138785500Y-107504000I-225000J0D01*
G01*
X136235500Y-107504000D01*
G75*
G02*
X136010500Y-107279000I0J225000D01*
G01*
G37*
G36*
G01*
X136010500Y-108549000D02*
X136010500Y-108099000D01*
G75*
G02*
X136235500Y-107874000I225000J0D01*
G01*
X138785500Y-107874000D01*
G75*
G02*
X139010500Y-108099000I0J-225000D01*
G01*
X139010500Y-108549000D01*
G75*
G02*
X138785500Y-108774000I-225000J0D01*
G01*
X136235500Y-108774000D01*
G75*
G02*
X136010500Y-108549000I0J225000D01*
G01*
G37*
G36*
G01*
X136010500Y-109819000D02*
X136010500Y-109369000D01*
G75*
G02*
X136235500Y-109144000I225000J0D01*
G01*
X138785500Y-109144000D01*
G75*
G02*
X139010500Y-109369000I0J-225000D01*
G01*
X139010500Y-109819000D01*
G75*
G02*
X138785500Y-110044000I-225000J0D01*
G01*
X136235500Y-110044000D01*
G75*
G02*
X136010500Y-109819000I0J225000D01*
G01*
G37*
G36*
G01*
X136010500Y-111089000D02*
X136010500Y-110639000D01*
G75*
G02*
X136235500Y-110414000I225000J0D01*
G01*
X138785500Y-110414000D01*
G75*
G02*
X139010500Y-110639000I0J-225000D01*
G01*
X139010500Y-111089000D01*
G75*
G02*
X138785500Y-111314000I-225000J0D01*
G01*
X136235500Y-111314000D01*
G75*
G02*
X136010500Y-111089000I0J225000D01*
G01*
G37*
G36*
G01*
X136010500Y-112359000D02*
X136010500Y-111909000D01*
G75*
G02*
X136235500Y-111684000I225000J0D01*
G01*
X138785500Y-111684000D01*
G75*
G02*
X139010500Y-111909000I0J-225000D01*
G01*
X139010500Y-112359000D01*
G75*
G02*
X138785500Y-112584000I-225000J0D01*
G01*
X136235500Y-112584000D01*
G75*
G02*
X136010500Y-112359000I0J225000D01*
G01*
G37*
G36*
G01*
X136010500Y-113629000D02*
X136010500Y-113179000D01*
G75*
G02*
X136235500Y-112954000I225000J0D01*
G01*
X138785500Y-112954000D01*
G75*
G02*
X139010500Y-113179000I0J-225000D01*
G01*
X139010500Y-113629000D01*
G75*
G02*
X138785500Y-113854000I-225000J0D01*
G01*
X136235500Y-113854000D01*
G75*
G02*
X136010500Y-113629000I0J225000D01*
G01*
G37*
G36*
G01*
X136010500Y-114899000D02*
X136010500Y-114449000D01*
G75*
G02*
X136235500Y-114224000I225000J0D01*
G01*
X138785500Y-114224000D01*
G75*
G02*
X139010500Y-114449000I0J-225000D01*
G01*
X139010500Y-114899000D01*
G75*
G02*
X138785500Y-115124000I-225000J0D01*
G01*
X136235500Y-115124000D01*
G75*
G02*
X136010500Y-114899000I0J225000D01*
G01*
G37*
G36*
G01*
X136010500Y-116169000D02*
X136010500Y-115719000D01*
G75*
G02*
X136235500Y-115494000I225000J0D01*
G01*
X138785500Y-115494000D01*
G75*
G02*
X139010500Y-115719000I0J-225000D01*
G01*
X139010500Y-116169000D01*
G75*
G02*
X138785500Y-116394000I-225000J0D01*
G01*
X136235500Y-116394000D01*
G75*
G02*
X136010500Y-116169000I0J225000D01*
G01*
G37*
G36*
G01*
X136010500Y-117439000D02*
X136010500Y-116989000D01*
G75*
G02*
X136235500Y-116764000I225000J0D01*
G01*
X138785500Y-116764000D01*
G75*
G02*
X139010500Y-116989000I0J-225000D01*
G01*
X139010500Y-117439000D01*
G75*
G02*
X138785500Y-117664000I-225000J0D01*
G01*
X136235500Y-117664000D01*
G75*
G02*
X136010500Y-117439000I0J225000D01*
G01*
G37*
G36*
G01*
X136010500Y-118709000D02*
X136010500Y-118259000D01*
G75*
G02*
X136235500Y-118034000I225000J0D01*
G01*
X138785500Y-118034000D01*
G75*
G02*
X139010500Y-118259000I0J-225000D01*
G01*
X139010500Y-118709000D01*
G75*
G02*
X138785500Y-118934000I-225000J0D01*
G01*
X136235500Y-118934000D01*
G75*
G02*
X136010500Y-118709000I0J225000D01*
G01*
G37*
G36*
G01*
X136010500Y-119979000D02*
X136010500Y-119529000D01*
G75*
G02*
X136235500Y-119304000I225000J0D01*
G01*
X138785500Y-119304000D01*
G75*
G02*
X139010500Y-119529000I0J-225000D01*
G01*
X139010500Y-119979000D01*
G75*
G02*
X138785500Y-120204000I-225000J0D01*
G01*
X136235500Y-120204000D01*
G75*
G02*
X136010500Y-119979000I0J225000D01*
G01*
G37*
G36*
G01*
X136010500Y-121249000D02*
X136010500Y-120799000D01*
G75*
G02*
X136235500Y-120574000I225000J0D01*
G01*
X138785500Y-120574000D01*
G75*
G02*
X139010500Y-120799000I0J-225000D01*
G01*
X139010500Y-121249000D01*
G75*
G02*
X138785500Y-121474000I-225000J0D01*
G01*
X136235500Y-121474000D01*
G75*
G02*
X136010500Y-121249000I0J225000D01*
G01*
G37*
G36*
G01*
X136010500Y-122519000D02*
X136010500Y-122069000D01*
G75*
G02*
X136235500Y-121844000I225000J0D01*
G01*
X138785500Y-121844000D01*
G75*
G02*
X139010500Y-122069000I0J-225000D01*
G01*
X139010500Y-122519000D01*
G75*
G02*
X138785500Y-122744000I-225000J0D01*
G01*
X136235500Y-122744000D01*
G75*
G02*
X136010500Y-122519000I0J225000D01*
G01*
G37*
G36*
G01*
X141020500Y-125294000D02*
X140570500Y-125294000D01*
G75*
G02*
X140345500Y-125069000I0J225000D01*
G01*
X140345500Y-122519000D01*
G75*
G02*
X140570500Y-122294000I225000J0D01*
G01*
X141020500Y-122294000D01*
G75*
G02*
X141245500Y-122519000I0J-225000D01*
G01*
X141245500Y-125069000D01*
G75*
G02*
X141020500Y-125294000I-225000J0D01*
G01*
G37*
G36*
G01*
X142290500Y-125294000D02*
X141840500Y-125294000D01*
G75*
G02*
X141615500Y-125069000I0J225000D01*
G01*
X141615500Y-122519000D01*
G75*
G02*
X141840500Y-122294000I225000J0D01*
G01*
X142290500Y-122294000D01*
G75*
G02*
X142515500Y-122519000I0J-225000D01*
G01*
X142515500Y-125069000D01*
G75*
G02*
X142290500Y-125294000I-225000J0D01*
G01*
G37*
G36*
G01*
X143560500Y-125294000D02*
X143110500Y-125294000D01*
G75*
G02*
X142885500Y-125069000I0J225000D01*
G01*
X142885500Y-122519000D01*
G75*
G02*
X143110500Y-122294000I225000J0D01*
G01*
X143560500Y-122294000D01*
G75*
G02*
X143785500Y-122519000I0J-225000D01*
G01*
X143785500Y-125069000D01*
G75*
G02*
X143560500Y-125294000I-225000J0D01*
G01*
G37*
G36*
G01*
X144830500Y-125294000D02*
X144380500Y-125294000D01*
G75*
G02*
X144155500Y-125069000I0J225000D01*
G01*
X144155500Y-122519000D01*
G75*
G02*
X144380500Y-122294000I225000J0D01*
G01*
X144830500Y-122294000D01*
G75*
G02*
X145055500Y-122519000I0J-225000D01*
G01*
X145055500Y-125069000D01*
G75*
G02*
X144830500Y-125294000I-225000J0D01*
G01*
G37*
G36*
G01*
X146100500Y-125294000D02*
X145650500Y-125294000D01*
G75*
G02*
X145425500Y-125069000I0J225000D01*
G01*
X145425500Y-122519000D01*
G75*
G02*
X145650500Y-122294000I225000J0D01*
G01*
X146100500Y-122294000D01*
G75*
G02*
X146325500Y-122519000I0J-225000D01*
G01*
X146325500Y-125069000D01*
G75*
G02*
X146100500Y-125294000I-225000J0D01*
G01*
G37*
G36*
G01*
X147370500Y-125294000D02*
X146920500Y-125294000D01*
G75*
G02*
X146695500Y-125069000I0J225000D01*
G01*
X146695500Y-122519000D01*
G75*
G02*
X146920500Y-122294000I225000J0D01*
G01*
X147370500Y-122294000D01*
G75*
G02*
X147595500Y-122519000I0J-225000D01*
G01*
X147595500Y-125069000D01*
G75*
G02*
X147370500Y-125294000I-225000J0D01*
G01*
G37*
G36*
G01*
X148640500Y-125294000D02*
X148190500Y-125294000D01*
G75*
G02*
X147965500Y-125069000I0J225000D01*
G01*
X147965500Y-122519000D01*
G75*
G02*
X148190500Y-122294000I225000J0D01*
G01*
X148640500Y-122294000D01*
G75*
G02*
X148865500Y-122519000I0J-225000D01*
G01*
X148865500Y-125069000D01*
G75*
G02*
X148640500Y-125294000I-225000J0D01*
G01*
G37*
G36*
G01*
X149910500Y-125294000D02*
X149460500Y-125294000D01*
G75*
G02*
X149235500Y-125069000I0J225000D01*
G01*
X149235500Y-122519000D01*
G75*
G02*
X149460500Y-122294000I225000J0D01*
G01*
X149910500Y-122294000D01*
G75*
G02*
X150135500Y-122519000I0J-225000D01*
G01*
X150135500Y-125069000D01*
G75*
G02*
X149910500Y-125294000I-225000J0D01*
G01*
G37*
G36*
G01*
X151180500Y-125294000D02*
X150730500Y-125294000D01*
G75*
G02*
X150505500Y-125069000I0J225000D01*
G01*
X150505500Y-122519000D01*
G75*
G02*
X150730500Y-122294000I225000J0D01*
G01*
X151180500Y-122294000D01*
G75*
G02*
X151405500Y-122519000I0J-225000D01*
G01*
X151405500Y-125069000D01*
G75*
G02*
X151180500Y-125294000I-225000J0D01*
G01*
G37*
G36*
G01*
X152450500Y-125294000D02*
X152000500Y-125294000D01*
G75*
G02*
X151775500Y-125069000I0J225000D01*
G01*
X151775500Y-122519000D01*
G75*
G02*
X152000500Y-122294000I225000J0D01*
G01*
X152450500Y-122294000D01*
G75*
G02*
X152675500Y-122519000I0J-225000D01*
G01*
X152675500Y-125069000D01*
G75*
G02*
X152450500Y-125294000I-225000J0D01*
G01*
G37*
G36*
G01*
X157010500Y-122069000D02*
X157010500Y-122519000D01*
G75*
G02*
X156785500Y-122744000I-225000J0D01*
G01*
X154235500Y-122744000D01*
G75*
G02*
X154010500Y-122519000I0J225000D01*
G01*
X154010500Y-122069000D01*
G75*
G02*
X154235500Y-121844000I225000J0D01*
G01*
X156785500Y-121844000D01*
G75*
G02*
X157010500Y-122069000I0J-225000D01*
G01*
G37*
G36*
G01*
X157010500Y-120799000D02*
X157010500Y-121249000D01*
G75*
G02*
X156785500Y-121474000I-225000J0D01*
G01*
X154235500Y-121474000D01*
G75*
G02*
X154010500Y-121249000I0J225000D01*
G01*
X154010500Y-120799000D01*
G75*
G02*
X154235500Y-120574000I225000J0D01*
G01*
X156785500Y-120574000D01*
G75*
G02*
X157010500Y-120799000I0J-225000D01*
G01*
G37*
G36*
G01*
X157010500Y-119529000D02*
X157010500Y-119979000D01*
G75*
G02*
X156785500Y-120204000I-225000J0D01*
G01*
X154235500Y-120204000D01*
G75*
G02*
X154010500Y-119979000I0J225000D01*
G01*
X154010500Y-119529000D01*
G75*
G02*
X154235500Y-119304000I225000J0D01*
G01*
X156785500Y-119304000D01*
G75*
G02*
X157010500Y-119529000I0J-225000D01*
G01*
G37*
G36*
G01*
X157010500Y-118259000D02*
X157010500Y-118709000D01*
G75*
G02*
X156785500Y-118934000I-225000J0D01*
G01*
X154235500Y-118934000D01*
G75*
G02*
X154010500Y-118709000I0J225000D01*
G01*
X154010500Y-118259000D01*
G75*
G02*
X154235500Y-118034000I225000J0D01*
G01*
X156785500Y-118034000D01*
G75*
G02*
X157010500Y-118259000I0J-225000D01*
G01*
G37*
G36*
G01*
X157010500Y-116989000D02*
X157010500Y-117439000D01*
G75*
G02*
X156785500Y-117664000I-225000J0D01*
G01*
X154235500Y-117664000D01*
G75*
G02*
X154010500Y-117439000I0J225000D01*
G01*
X154010500Y-116989000D01*
G75*
G02*
X154235500Y-116764000I225000J0D01*
G01*
X156785500Y-116764000D01*
G75*
G02*
X157010500Y-116989000I0J-225000D01*
G01*
G37*
G36*
G01*
X157010500Y-115719000D02*
X157010500Y-116169000D01*
G75*
G02*
X156785500Y-116394000I-225000J0D01*
G01*
X154235500Y-116394000D01*
G75*
G02*
X154010500Y-116169000I0J225000D01*
G01*
X154010500Y-115719000D01*
G75*
G02*
X154235500Y-115494000I225000J0D01*
G01*
X156785500Y-115494000D01*
G75*
G02*
X157010500Y-115719000I0J-225000D01*
G01*
G37*
G36*
G01*
X157010500Y-114449000D02*
X157010500Y-114899000D01*
G75*
G02*
X156785500Y-115124000I-225000J0D01*
G01*
X154235500Y-115124000D01*
G75*
G02*
X154010500Y-114899000I0J225000D01*
G01*
X154010500Y-114449000D01*
G75*
G02*
X154235500Y-114224000I225000J0D01*
G01*
X156785500Y-114224000D01*
G75*
G02*
X157010500Y-114449000I0J-225000D01*
G01*
G37*
G36*
G01*
X157010500Y-113179000D02*
X157010500Y-113629000D01*
G75*
G02*
X156785500Y-113854000I-225000J0D01*
G01*
X154235500Y-113854000D01*
G75*
G02*
X154010500Y-113629000I0J225000D01*
G01*
X154010500Y-113179000D01*
G75*
G02*
X154235500Y-112954000I225000J0D01*
G01*
X156785500Y-112954000D01*
G75*
G02*
X157010500Y-113179000I0J-225000D01*
G01*
G37*
G36*
G01*
X157010500Y-111909000D02*
X157010500Y-112359000D01*
G75*
G02*
X156785500Y-112584000I-225000J0D01*
G01*
X154235500Y-112584000D01*
G75*
G02*
X154010500Y-112359000I0J225000D01*
G01*
X154010500Y-111909000D01*
G75*
G02*
X154235500Y-111684000I225000J0D01*
G01*
X156785500Y-111684000D01*
G75*
G02*
X157010500Y-111909000I0J-225000D01*
G01*
G37*
G36*
G01*
X157010500Y-110639000D02*
X157010500Y-111089000D01*
G75*
G02*
X156785500Y-111314000I-225000J0D01*
G01*
X154235500Y-111314000D01*
G75*
G02*
X154010500Y-111089000I0J225000D01*
G01*
X154010500Y-110639000D01*
G75*
G02*
X154235500Y-110414000I225000J0D01*
G01*
X156785500Y-110414000D01*
G75*
G02*
X157010500Y-110639000I0J-225000D01*
G01*
G37*
G36*
G01*
X157010500Y-109369000D02*
X157010500Y-109819000D01*
G75*
G02*
X156785500Y-110044000I-225000J0D01*
G01*
X154235500Y-110044000D01*
G75*
G02*
X154010500Y-109819000I0J225000D01*
G01*
X154010500Y-109369000D01*
G75*
G02*
X154235500Y-109144000I225000J0D01*
G01*
X156785500Y-109144000D01*
G75*
G02*
X157010500Y-109369000I0J-225000D01*
G01*
G37*
G36*
G01*
X157010500Y-108099000D02*
X157010500Y-108549000D01*
G75*
G02*
X156785500Y-108774000I-225000J0D01*
G01*
X154235500Y-108774000D01*
G75*
G02*
X154010500Y-108549000I0J225000D01*
G01*
X154010500Y-108099000D01*
G75*
G02*
X154235500Y-107874000I225000J0D01*
G01*
X156785500Y-107874000D01*
G75*
G02*
X157010500Y-108099000I0J-225000D01*
G01*
G37*
G36*
G01*
X157010500Y-106829000D02*
X157010500Y-107279000D01*
G75*
G02*
X156785500Y-107504000I-225000J0D01*
G01*
X154235500Y-107504000D01*
G75*
G02*
X154010500Y-107279000I0J225000D01*
G01*
X154010500Y-106829000D01*
G75*
G02*
X154235500Y-106604000I225000J0D01*
G01*
X156785500Y-106604000D01*
G75*
G02*
X157010500Y-106829000I0J-225000D01*
G01*
G37*
G36*
G01*
X157010500Y-105559000D02*
X157010500Y-106009000D01*
G75*
G02*
X156785500Y-106234000I-225000J0D01*
G01*
X154235500Y-106234000D01*
G75*
G02*
X154010500Y-106009000I0J225000D01*
G01*
X154010500Y-105559000D01*
G75*
G02*
X154235500Y-105334000I225000J0D01*
G01*
X156785500Y-105334000D01*
G75*
G02*
X157010500Y-105559000I0J-225000D01*
G01*
G37*
D20*
X147510500Y-113284000D03*
D10*
G36*
X133634000Y-143638000D02*
G01*
X133634000Y-146938000D01*
X131034000Y-146938000D01*
X131034000Y-143638000D01*
X133634000Y-143638000D01*
G37*
D21*
X129334000Y-143383000D03*
X129334000Y-144653000D03*
X129334000Y-145923000D03*
X129334000Y-147193000D03*
X135334000Y-147193000D03*
X135334000Y-145923000D03*
X135334000Y-144653000D03*
X135334000Y-143383000D03*
D22*
X138176000Y-126619000D03*
X138176000Y-127889000D03*
X139446000Y-126619000D03*
X139446000Y-127889000D03*
X140716000Y-126619000D03*
D23*
X140716000Y-127889000D03*
D24*
X179150000Y-108750000D03*
X180850000Y-108750000D03*
D25*
X169250000Y-101990000D03*
D26*
X168000000Y-99500000D03*
X163500000Y-99500000D03*
D25*
X162240000Y-101990000D03*
D18*
X160974126Y-121096126D03*
D10*
G36*
X164863214Y-123571000D02*
G01*
X163449000Y-124985214D01*
X162034786Y-123571000D01*
X163449000Y-122156786D01*
X164863214Y-123571000D01*
G37*
G36*
G01*
X174881000Y-129787500D02*
X172481000Y-129787500D01*
G75*
G02*
X171881000Y-129187500I0J600000D01*
G01*
X171881000Y-127987500D01*
G75*
G02*
X172481000Y-127387500I600000J0D01*
G01*
X174881000Y-127387500D01*
G75*
G02*
X175481000Y-127987500I0J-600000D01*
G01*
X175481000Y-129187500D01*
G75*
G02*
X174881000Y-129787500I-600000J0D01*
G01*
G37*
G36*
G01*
X183881000Y-129787500D02*
X181481000Y-129787500D01*
G75*
G02*
X180881000Y-129187500I0J600000D01*
G01*
X180881000Y-127987500D01*
G75*
G02*
X181481000Y-127387500I600000J0D01*
G01*
X183881000Y-127387500D01*
G75*
G02*
X184481000Y-127987500I0J-600000D01*
G01*
X184481000Y-129187500D01*
G75*
G02*
X183881000Y-129787500I-600000J0D01*
G01*
G37*
G36*
G01*
X174881000Y-120516500D02*
X172481000Y-120516500D01*
G75*
G02*
X171881000Y-119916500I0J600000D01*
G01*
X171881000Y-118716500D01*
G75*
G02*
X172481000Y-118116500I600000J0D01*
G01*
X174881000Y-118116500D01*
G75*
G02*
X175481000Y-118716500I0J-600000D01*
G01*
X175481000Y-119916500D01*
G75*
G02*
X174881000Y-120516500I-600000J0D01*
G01*
G37*
G36*
G01*
X183881000Y-120516500D02*
X181481000Y-120516500D01*
G75*
G02*
X180881000Y-119916500I0J600000D01*
G01*
X180881000Y-118716500D01*
G75*
G02*
X181481000Y-118116500I600000J0D01*
G01*
X183881000Y-118116500D01*
G75*
G02*
X184481000Y-118716500I0J-600000D01*
G01*
X184481000Y-119916500D01*
G75*
G02*
X183881000Y-120516500I-600000J0D01*
G01*
G37*
G36*
G01*
X174881000Y-138995000D02*
X172481000Y-138995000D01*
G75*
G02*
X171881000Y-138395000I0J600000D01*
G01*
X171881000Y-137195000D01*
G75*
G02*
X172481000Y-136595000I600000J0D01*
G01*
X174881000Y-136595000D01*
G75*
G02*
X175481000Y-137195000I0J-600000D01*
G01*
X175481000Y-138395000D01*
G75*
G02*
X174881000Y-138995000I-600000J0D01*
G01*
G37*
G36*
G01*
X183881000Y-138995000D02*
X181481000Y-138995000D01*
G75*
G02*
X180881000Y-138395000I0J600000D01*
G01*
X180881000Y-137195000D01*
G75*
G02*
X181481000Y-136595000I600000J0D01*
G01*
X183881000Y-136595000D01*
G75*
G02*
X184481000Y-137195000I0J-600000D01*
G01*
X184481000Y-138395000D01*
G75*
G02*
X183881000Y-138995000I-600000J0D01*
G01*
G37*
G36*
G01*
X184283200Y-148266000D02*
X181883200Y-148266000D01*
G75*
G02*
X181283200Y-147666000I0J600000D01*
G01*
X181283200Y-146466000D01*
G75*
G02*
X181883200Y-145866000I600000J0D01*
G01*
X184283200Y-145866000D01*
G75*
G02*
X184883200Y-146466000I0J-600000D01*
G01*
X184883200Y-147666000D01*
G75*
G02*
X184283200Y-148266000I-600000J0D01*
G01*
G37*
G36*
G01*
X193283200Y-148266000D02*
X190883200Y-148266000D01*
G75*
G02*
X190283200Y-147666000I0J600000D01*
G01*
X190283200Y-146466000D01*
G75*
G02*
X190883200Y-145866000I600000J0D01*
G01*
X193283200Y-145866000D01*
G75*
G02*
X193883200Y-146466000I0J-600000D01*
G01*
X193883200Y-147666000D01*
G75*
G02*
X193283200Y-148266000I-600000J0D01*
G01*
G37*
D27*
X116205000Y-148971000D03*
X116205000Y-146431000D03*
X116205000Y-143891000D03*
X116205000Y-141351000D03*
X116205000Y-138811000D03*
X118745000Y-148971000D03*
X118745000Y-146431000D03*
X118745000Y-143891000D03*
X118745000Y-141351000D03*
G36*
G01*
X119595000Y-138211000D02*
X119595000Y-139411000D01*
G75*
G02*
X119345000Y-139661000I-250000J0D01*
G01*
X118145000Y-139661000D01*
G75*
G02*
X117895000Y-139411000I0J250000D01*
G01*
X117895000Y-138211000D01*
G75*
G02*
X118145000Y-137961000I250000J0D01*
G01*
X119345000Y-137961000D01*
G75*
G02*
X119595000Y-138211000I0J-250000D01*
G01*
G37*
D28*
X113538000Y-122809000D03*
X113538000Y-111379000D03*
D29*
X116588000Y-109349000D03*
X116588000Y-124839000D03*
D30*
X108638000Y-113009000D03*
X108638000Y-110469000D03*
X108638000Y-121179000D03*
X108638000Y-123719000D03*
D31*
X122428000Y-112654000D03*
X119888000Y-113924000D03*
X122428000Y-115194000D03*
X119888000Y-116464000D03*
X122428000Y-117734000D03*
X119888000Y-119004000D03*
X122428000Y-120274000D03*
D32*
X119888000Y-121544000D03*
G36*
G01*
X141154999Y-146577000D02*
X142055001Y-146577000D01*
G75*
G02*
X142305000Y-146826999I0J-249999D01*
G01*
X142305000Y-147527001D01*
G75*
G02*
X142055001Y-147777000I-249999J0D01*
G01*
X141154999Y-147777000D01*
G75*
G02*
X140905000Y-147527001I0J249999D01*
G01*
X140905000Y-146826999D01*
G75*
G02*
X141154999Y-146577000I249999J0D01*
G01*
G37*
G36*
G01*
X141154999Y-144577000D02*
X142055001Y-144577000D01*
G75*
G02*
X142305000Y-144826999I0J-249999D01*
G01*
X142305000Y-145527001D01*
G75*
G02*
X142055001Y-145777000I-249999J0D01*
G01*
X141154999Y-145777000D01*
G75*
G02*
X140905000Y-145527001I0J249999D01*
G01*
X140905000Y-144826999D01*
G75*
G02*
X141154999Y-144577000I249999J0D01*
G01*
G37*
G36*
G01*
X140023001Y-145777000D02*
X139122999Y-145777000D01*
G75*
G02*
X138873000Y-145527001I0J249999D01*
G01*
X138873000Y-144826999D01*
G75*
G02*
X139122999Y-144577000I249999J0D01*
G01*
X140023001Y-144577000D01*
G75*
G02*
X140273000Y-144826999I0J-249999D01*
G01*
X140273000Y-145527001D01*
G75*
G02*
X140023001Y-145777000I-249999J0D01*
G01*
G37*
G36*
G01*
X140023001Y-147777000D02*
X139122999Y-147777000D01*
G75*
G02*
X138873000Y-147527001I0J249999D01*
G01*
X138873000Y-146826999D01*
G75*
G02*
X139122999Y-146577000I249999J0D01*
G01*
X140023001Y-146577000D01*
G75*
G02*
X140273000Y-146826999I0J-249999D01*
G01*
X140273000Y-147527001D01*
G75*
G02*
X140023001Y-147777000I-249999J0D01*
G01*
G37*
G36*
G01*
X137090999Y-146577000D02*
X137991001Y-146577000D01*
G75*
G02*
X138241000Y-146826999I0J-249999D01*
G01*
X138241000Y-147527001D01*
G75*
G02*
X137991001Y-147777000I-249999J0D01*
G01*
X137090999Y-147777000D01*
G75*
G02*
X136841000Y-147527001I0J249999D01*
G01*
X136841000Y-146826999D01*
G75*
G02*
X137090999Y-146577000I249999J0D01*
G01*
G37*
G36*
G01*
X137090999Y-144577000D02*
X137991001Y-144577000D01*
G75*
G02*
X138241000Y-144826999I0J-249999D01*
G01*
X138241000Y-145527001D01*
G75*
G02*
X137991001Y-145777000I-249999J0D01*
G01*
X137090999Y-145777000D01*
G75*
G02*
X136841000Y-145527001I0J249999D01*
G01*
X136841000Y-144826999D01*
G75*
G02*
X137090999Y-144577000I249999J0D01*
G01*
G37*
D33*
X125780800Y-147886400D03*
X125780800Y-142486400D03*
G36*
G01*
X136891600Y-136405802D02*
X136891600Y-134205798D01*
G75*
G02*
X137141598Y-133955800I249998J0D01*
G01*
X137966602Y-133955800D01*
G75*
G02*
X138216600Y-134205798I0J-249998D01*
G01*
X138216600Y-136405802D01*
G75*
G02*
X137966602Y-136655800I-249998J0D01*
G01*
X137141598Y-136655800D01*
G75*
G02*
X136891600Y-136405802I0J249998D01*
G01*
G37*
G36*
G01*
X133766600Y-136405802D02*
X133766600Y-134205798D01*
G75*
G02*
X134016598Y-133955800I249998J0D01*
G01*
X134841602Y-133955800D01*
G75*
G02*
X135091600Y-134205798I0J-249998D01*
G01*
X135091600Y-136405802D01*
G75*
G02*
X134841602Y-136655800I-249998J0D01*
G01*
X134016598Y-136655800D01*
G75*
G02*
X133766600Y-136405802I0J249998D01*
G01*
G37*
G36*
G01*
X136891600Y-139707802D02*
X136891600Y-137507798D01*
G75*
G02*
X137141598Y-137257800I249998J0D01*
G01*
X137966602Y-137257800D01*
G75*
G02*
X138216600Y-137507798I0J-249998D01*
G01*
X138216600Y-139707802D01*
G75*
G02*
X137966602Y-139957800I-249998J0D01*
G01*
X137141598Y-139957800D01*
G75*
G02*
X136891600Y-139707802I0J249998D01*
G01*
G37*
G36*
G01*
X133766600Y-139707802D02*
X133766600Y-137507798D01*
G75*
G02*
X134016598Y-137257800I249998J0D01*
G01*
X134841602Y-137257800D01*
G75*
G02*
X135091600Y-137507798I0J-249998D01*
G01*
X135091600Y-139707802D01*
G75*
G02*
X134841602Y-139957800I-249998J0D01*
G01*
X134016598Y-139957800D01*
G75*
G02*
X133766600Y-139707802I0J249998D01*
G01*
G37*
G36*
G01*
X140041200Y-142933602D02*
X140041200Y-140733598D01*
G75*
G02*
X140291198Y-140483600I249998J0D01*
G01*
X141116202Y-140483600D01*
G75*
G02*
X141366200Y-140733598I0J-249998D01*
G01*
X141366200Y-142933602D01*
G75*
G02*
X141116202Y-143183600I-249998J0D01*
G01*
X140291198Y-143183600D01*
G75*
G02*
X140041200Y-142933602I0J249998D01*
G01*
G37*
G36*
G01*
X136916200Y-142933602D02*
X136916200Y-140733598D01*
G75*
G02*
X137166198Y-140483600I249998J0D01*
G01*
X137991202Y-140483600D01*
G75*
G02*
X138241200Y-140733598I0J-249998D01*
G01*
X138241200Y-142933602D01*
G75*
G02*
X137991202Y-143183600I-249998J0D01*
G01*
X137166198Y-143183600D01*
G75*
G02*
X136916200Y-142933602I0J249998D01*
G01*
G37*
G36*
G01*
X136891600Y-133103802D02*
X136891600Y-130903798D01*
G75*
G02*
X137141598Y-130653800I249998J0D01*
G01*
X137966602Y-130653800D01*
G75*
G02*
X138216600Y-130903798I0J-249998D01*
G01*
X138216600Y-133103802D01*
G75*
G02*
X137966602Y-133353800I-249998J0D01*
G01*
X137141598Y-133353800D01*
G75*
G02*
X136891600Y-133103802I0J249998D01*
G01*
G37*
G36*
G01*
X133766600Y-133103802D02*
X133766600Y-130903798D01*
G75*
G02*
X134016598Y-130653800I249998J0D01*
G01*
X134841602Y-130653800D01*
G75*
G02*
X135091600Y-130903798I0J-249998D01*
G01*
X135091600Y-133103802D01*
G75*
G02*
X134841602Y-133353800I-249998J0D01*
G01*
X134016598Y-133353800D01*
G75*
G02*
X133766600Y-133103802I0J249998D01*
G01*
G37*
G36*
G01*
X132276000Y-141953000D02*
X132276000Y-141003000D01*
G75*
G02*
X132526000Y-140753000I250000J0D01*
G01*
X133201000Y-140753000D01*
G75*
G02*
X133451000Y-141003000I0J-250000D01*
G01*
X133451000Y-141953000D01*
G75*
G02*
X133201000Y-142203000I-250000J0D01*
G01*
X132526000Y-142203000D01*
G75*
G02*
X132276000Y-141953000I0J250000D01*
G01*
G37*
G36*
G01*
X130201000Y-141953000D02*
X130201000Y-141003000D01*
G75*
G02*
X130451000Y-140753000I250000J0D01*
G01*
X131126000Y-140753000D01*
G75*
G02*
X131376000Y-141003000I0J-250000D01*
G01*
X131376000Y-141953000D01*
G75*
G02*
X131126000Y-142203000I-250000J0D01*
G01*
X130451000Y-142203000D01*
G75*
G02*
X130201000Y-141953000I0J250000D01*
G01*
G37*
G36*
G01*
X120692998Y-146823000D02*
X122893002Y-146823000D01*
G75*
G02*
X123143000Y-147072998I0J-249998D01*
G01*
X123143000Y-147898002D01*
G75*
G02*
X122893002Y-148148000I-249998J0D01*
G01*
X120692998Y-148148000D01*
G75*
G02*
X120443000Y-147898002I0J249998D01*
G01*
X120443000Y-147072998D01*
G75*
G02*
X120692998Y-146823000I249998J0D01*
G01*
G37*
G36*
G01*
X120692998Y-143698000D02*
X122893002Y-143698000D01*
G75*
G02*
X123143000Y-143947998I0J-249998D01*
G01*
X123143000Y-144773002D01*
G75*
G02*
X122893002Y-145023000I-249998J0D01*
G01*
X120692998Y-145023000D01*
G75*
G02*
X120443000Y-144773002I0J249998D01*
G01*
X120443000Y-143947998D01*
G75*
G02*
X120692998Y-143698000I249998J0D01*
G01*
G37*
D17*
X186944000Y-120863000D03*
X186944000Y-117363000D03*
X186944000Y-113863000D03*
G36*
G01*
X185394000Y-109463000D02*
X188494000Y-109463000D01*
G75*
G02*
X188744000Y-109713000I0J-250000D01*
G01*
X188744000Y-111013000D01*
G75*
G02*
X188494000Y-111263000I-250000J0D01*
G01*
X185394000Y-111263000D01*
G75*
G02*
X185144000Y-111013000I0J250000D01*
G01*
X185144000Y-109713000D01*
G75*
G02*
X185394000Y-109463000I250000J0D01*
G01*
G37*
D34*
X162433000Y-132715000D03*
D35*
X165733000Y-136940000D03*
X165733000Y-136290000D03*
X165733000Y-135640000D03*
X165733000Y-134990000D03*
X165733000Y-134340000D03*
X165733000Y-133690000D03*
X165733000Y-133040000D03*
X165733000Y-132390000D03*
X165733000Y-131740000D03*
X165733000Y-131090000D03*
X165733000Y-130440000D03*
X165733000Y-129790000D03*
X165733000Y-129140000D03*
X159133000Y-128490000D03*
X159133000Y-129140000D03*
X159133000Y-129790000D03*
X159133000Y-130440000D03*
X159133000Y-131090000D03*
X159133000Y-131740000D03*
X159133000Y-132390000D03*
X159133000Y-133040000D03*
X159133000Y-133690000D03*
X159133000Y-134340000D03*
X159133000Y-134990000D03*
X159133000Y-135640000D03*
X159133000Y-136290000D03*
X165733000Y-128490000D03*
X159133000Y-136940000D03*
G36*
G01*
X154082800Y-138335599D02*
X154082800Y-139235601D01*
G75*
G02*
X153832801Y-139485600I-249999J0D01*
G01*
X153132799Y-139485600D01*
G75*
G02*
X152882800Y-139235601I0J249999D01*
G01*
X152882800Y-138335599D01*
G75*
G02*
X153132799Y-138085600I249999J0D01*
G01*
X153832801Y-138085600D01*
G75*
G02*
X154082800Y-138335599I0J-249999D01*
G01*
G37*
G36*
G01*
X156082800Y-138335599D02*
X156082800Y-139235601D01*
G75*
G02*
X155832801Y-139485600I-249999J0D01*
G01*
X155132799Y-139485600D01*
G75*
G02*
X154882800Y-139235601I0J249999D01*
G01*
X154882800Y-138335599D01*
G75*
G02*
X155132799Y-138085600I249999J0D01*
G01*
X155832801Y-138085600D01*
G75*
G02*
X156082800Y-138335599I0J-249999D01*
G01*
G37*
G36*
G01*
X161051002Y-105907000D02*
X159750998Y-105907000D01*
G75*
G02*
X159501000Y-105657002I0J249998D01*
G01*
X159501000Y-104831998D01*
G75*
G02*
X159750998Y-104582000I249998J0D01*
G01*
X161051002Y-104582000D01*
G75*
G02*
X161301000Y-104831998I0J-249998D01*
G01*
X161301000Y-105657002D01*
G75*
G02*
X161051002Y-105907000I-249998J0D01*
G01*
G37*
G36*
G01*
X161051002Y-109032000D02*
X159750998Y-109032000D01*
G75*
G02*
X159501000Y-108782002I0J249998D01*
G01*
X159501000Y-107956998D01*
G75*
G02*
X159750998Y-107707000I249998J0D01*
G01*
X161051002Y-107707000D01*
G75*
G02*
X161301000Y-107956998I0J-249998D01*
G01*
X161301000Y-108782002D01*
G75*
G02*
X161051002Y-109032000I-249998J0D01*
G01*
G37*
G36*
G01*
X158590000Y-105849000D02*
X157640000Y-105849000D01*
G75*
G02*
X157390000Y-105599000I0J250000D01*
G01*
X157390000Y-104924000D01*
G75*
G02*
X157640000Y-104674000I250000J0D01*
G01*
X158590000Y-104674000D01*
G75*
G02*
X158840000Y-104924000I0J-250000D01*
G01*
X158840000Y-105599000D01*
G75*
G02*
X158590000Y-105849000I-250000J0D01*
G01*
G37*
G36*
G01*
X158590000Y-107924000D02*
X157640000Y-107924000D01*
G75*
G02*
X157390000Y-107674000I0J250000D01*
G01*
X157390000Y-106999000D01*
G75*
G02*
X157640000Y-106749000I250000J0D01*
G01*
X158590000Y-106749000D01*
G75*
G02*
X158840000Y-106999000I0J-250000D01*
G01*
X158840000Y-107674000D01*
G75*
G02*
X158590000Y-107924000I-250000J0D01*
G01*
G37*
G36*
G01*
X125824000Y-112580000D02*
X124874000Y-112580000D01*
G75*
G02*
X124624000Y-112330000I0J250000D01*
G01*
X124624000Y-111655000D01*
G75*
G02*
X124874000Y-111405000I250000J0D01*
G01*
X125824000Y-111405000D01*
G75*
G02*
X126074000Y-111655000I0J-250000D01*
G01*
X126074000Y-112330000D01*
G75*
G02*
X125824000Y-112580000I-250000J0D01*
G01*
G37*
G36*
G01*
X125824000Y-114655000D02*
X124874000Y-114655000D01*
G75*
G02*
X124624000Y-114405000I0J250000D01*
G01*
X124624000Y-113730000D01*
G75*
G02*
X124874000Y-113480000I250000J0D01*
G01*
X125824000Y-113480000D01*
G75*
G02*
X126074000Y-113730000I0J-250000D01*
G01*
X126074000Y-114405000D01*
G75*
G02*
X125824000Y-114655000I-250000J0D01*
G01*
G37*
G36*
G01*
X124874000Y-123386000D02*
X125824000Y-123386000D01*
G75*
G02*
X126074000Y-123636000I0J-250000D01*
G01*
X126074000Y-124311000D01*
G75*
G02*
X125824000Y-124561000I-250000J0D01*
G01*
X124874000Y-124561000D01*
G75*
G02*
X124624000Y-124311000I0J250000D01*
G01*
X124624000Y-123636000D01*
G75*
G02*
X124874000Y-123386000I250000J0D01*
G01*
G37*
G36*
G01*
X124874000Y-121311000D02*
X125824000Y-121311000D01*
G75*
G02*
X126074000Y-121561000I0J-250000D01*
G01*
X126074000Y-122236000D01*
G75*
G02*
X125824000Y-122486000I-250000J0D01*
G01*
X124874000Y-122486000D01*
G75*
G02*
X124624000Y-122236000I0J250000D01*
G01*
X124624000Y-121561000D01*
G75*
G02*
X124874000Y-121311000I250000J0D01*
G01*
G37*
G36*
G01*
X132428000Y-117215500D02*
X131478000Y-117215500D01*
G75*
G02*
X131228000Y-116965500I0J250000D01*
G01*
X131228000Y-116290500D01*
G75*
G02*
X131478000Y-116040500I250000J0D01*
G01*
X132428000Y-116040500D01*
G75*
G02*
X132678000Y-116290500I0J-250000D01*
G01*
X132678000Y-116965500D01*
G75*
G02*
X132428000Y-117215500I-250000J0D01*
G01*
G37*
G36*
G01*
X132428000Y-119290500D02*
X131478000Y-119290500D01*
G75*
G02*
X131228000Y-119040500I0J250000D01*
G01*
X131228000Y-118365500D01*
G75*
G02*
X131478000Y-118115500I250000J0D01*
G01*
X132428000Y-118115500D01*
G75*
G02*
X132678000Y-118365500I0J-250000D01*
G01*
X132678000Y-119040500D01*
G75*
G02*
X132428000Y-119290500I-250000J0D01*
G01*
G37*
G36*
G01*
X130752000Y-112362000D02*
X130752000Y-111412000D01*
G75*
G02*
X131002000Y-111162000I250000J0D01*
G01*
X131677000Y-111162000D01*
G75*
G02*
X131927000Y-111412000I0J-250000D01*
G01*
X131927000Y-112362000D01*
G75*
G02*
X131677000Y-112612000I-250000J0D01*
G01*
X131002000Y-112612000D01*
G75*
G02*
X130752000Y-112362000I0J250000D01*
G01*
G37*
G36*
G01*
X128677000Y-112362000D02*
X128677000Y-111412000D01*
G75*
G02*
X128927000Y-111162000I250000J0D01*
G01*
X129602000Y-111162000D01*
G75*
G02*
X129852000Y-111412000I0J-250000D01*
G01*
X129852000Y-112362000D01*
G75*
G02*
X129602000Y-112612000I-250000J0D01*
G01*
X128927000Y-112612000D01*
G75*
G02*
X128677000Y-112362000I0J250000D01*
G01*
G37*
G36*
G01*
X130752000Y-114394000D02*
X130752000Y-113444000D01*
G75*
G02*
X131002000Y-113194000I250000J0D01*
G01*
X131677000Y-113194000D01*
G75*
G02*
X131927000Y-113444000I0J-250000D01*
G01*
X131927000Y-114394000D01*
G75*
G02*
X131677000Y-114644000I-250000J0D01*
G01*
X131002000Y-114644000D01*
G75*
G02*
X130752000Y-114394000I0J250000D01*
G01*
G37*
G36*
G01*
X128677000Y-114394000D02*
X128677000Y-113444000D01*
G75*
G02*
X128927000Y-113194000I250000J0D01*
G01*
X129602000Y-113194000D01*
G75*
G02*
X129852000Y-113444000I0J-250000D01*
G01*
X129852000Y-114394000D01*
G75*
G02*
X129602000Y-114644000I-250000J0D01*
G01*
X128927000Y-114644000D01*
G75*
G02*
X128677000Y-114394000I0J250000D01*
G01*
G37*
G36*
G01*
X158656000Y-113988000D02*
X159606000Y-113988000D01*
G75*
G02*
X159856000Y-114238000I0J-250000D01*
G01*
X159856000Y-114913000D01*
G75*
G02*
X159606000Y-115163000I-250000J0D01*
G01*
X158656000Y-115163000D01*
G75*
G02*
X158406000Y-114913000I0J250000D01*
G01*
X158406000Y-114238000D01*
G75*
G02*
X158656000Y-113988000I250000J0D01*
G01*
G37*
G36*
G01*
X158656000Y-111913000D02*
X159606000Y-111913000D01*
G75*
G02*
X159856000Y-112163000I0J-250000D01*
G01*
X159856000Y-112838000D01*
G75*
G02*
X159606000Y-113088000I-250000J0D01*
G01*
X158656000Y-113088000D01*
G75*
G02*
X158406000Y-112838000I0J250000D01*
G01*
X158406000Y-112163000D01*
G75*
G02*
X158656000Y-111913000I250000J0D01*
G01*
G37*
G36*
G01*
X143223000Y-133408000D02*
X142273000Y-133408000D01*
G75*
G02*
X142023000Y-133158000I0J250000D01*
G01*
X142023000Y-132483000D01*
G75*
G02*
X142273000Y-132233000I250000J0D01*
G01*
X143223000Y-132233000D01*
G75*
G02*
X143473000Y-132483000I0J-250000D01*
G01*
X143473000Y-133158000D01*
G75*
G02*
X143223000Y-133408000I-250000J0D01*
G01*
G37*
G36*
G01*
X143223000Y-135483000D02*
X142273000Y-135483000D01*
G75*
G02*
X142023000Y-135233000I0J250000D01*
G01*
X142023000Y-134558000D01*
G75*
G02*
X142273000Y-134308000I250000J0D01*
G01*
X143223000Y-134308000D01*
G75*
G02*
X143473000Y-134558000I0J-250000D01*
G01*
X143473000Y-135233000D01*
G75*
G02*
X143223000Y-135483000I-250000J0D01*
G01*
G37*
G36*
G01*
X142273000Y-138118000D02*
X143223000Y-138118000D01*
G75*
G02*
X143473000Y-138368000I0J-250000D01*
G01*
X143473000Y-139043000D01*
G75*
G02*
X143223000Y-139293000I-250000J0D01*
G01*
X142273000Y-139293000D01*
G75*
G02*
X142023000Y-139043000I0J250000D01*
G01*
X142023000Y-138368000D01*
G75*
G02*
X142273000Y-138118000I250000J0D01*
G01*
G37*
G36*
G01*
X142273000Y-136043000D02*
X143223000Y-136043000D01*
G75*
G02*
X143473000Y-136293000I0J-250000D01*
G01*
X143473000Y-136968000D01*
G75*
G02*
X143223000Y-137218000I-250000J0D01*
G01*
X142273000Y-137218000D01*
G75*
G02*
X142023000Y-136968000I0J250000D01*
G01*
X142023000Y-136293000D01*
G75*
G02*
X142273000Y-136043000I250000J0D01*
G01*
G37*
G36*
G01*
X170670322Y-132353073D02*
X171342073Y-131681322D01*
G75*
G02*
X171695627Y-131681322I176777J-176777D01*
G01*
X172172924Y-132158619D01*
G75*
G02*
X172172924Y-132512173I-176777J-176777D01*
G01*
X171501173Y-133183924D01*
G75*
G02*
X171147619Y-133183924I-176777J176777D01*
G01*
X170670322Y-132706627D01*
G75*
G02*
X170670322Y-132353073I176777J176777D01*
G01*
G37*
G36*
G01*
X169203076Y-130885827D02*
X169874827Y-130214076D01*
G75*
G02*
X170228381Y-130214076I176777J-176777D01*
G01*
X170705678Y-130691373D01*
G75*
G02*
X170705678Y-131044927I-176777J-176777D01*
G01*
X170033927Y-131716678D01*
G75*
G02*
X169680373Y-131716678I-176777J176777D01*
G01*
X169203076Y-131239381D01*
G75*
G02*
X169203076Y-130885827I176777J176777D01*
G01*
G37*
G36*
G01*
X169908322Y-128670073D02*
X170580073Y-127998322D01*
G75*
G02*
X170933627Y-127998322I176777J-176777D01*
G01*
X171410924Y-128475619D01*
G75*
G02*
X171410924Y-128829173I-176777J-176777D01*
G01*
X170739173Y-129500924D01*
G75*
G02*
X170385619Y-129500924I-176777J176777D01*
G01*
X169908322Y-129023627D01*
G75*
G02*
X169908322Y-128670073I176777J176777D01*
G01*
G37*
G36*
G01*
X168441076Y-127202827D02*
X169112827Y-126531076D01*
G75*
G02*
X169466381Y-126531076I176777J-176777D01*
G01*
X169943678Y-127008373D01*
G75*
G02*
X169943678Y-127361927I-176777J-176777D01*
G01*
X169271927Y-128033678D01*
G75*
G02*
X168918373Y-128033678I-176777J176777D01*
G01*
X168441076Y-127556381D01*
G75*
G02*
X168441076Y-127202827I176777J176777D01*
G01*
G37*
G36*
G01*
X171723073Y-135399678D02*
X171051322Y-134727927D01*
G75*
G02*
X171051322Y-134374373I176777J176777D01*
G01*
X171528619Y-133897076D01*
G75*
G02*
X171882173Y-133897076I176777J-176777D01*
G01*
X172553924Y-134568827D01*
G75*
G02*
X172553924Y-134922381I-176777J-176777D01*
G01*
X172076627Y-135399678D01*
G75*
G02*
X171723073Y-135399678I-176777J176777D01*
G01*
G37*
G36*
G01*
X170255827Y-136866924D02*
X169584076Y-136195173D01*
G75*
G02*
X169584076Y-135841619I176777J176777D01*
G01*
X170061373Y-135364322D01*
G75*
G02*
X170414927Y-135364322I176777J-176777D01*
G01*
X171086678Y-136036073D01*
G75*
G02*
X171086678Y-136389627I-176777J-176777D01*
G01*
X170609381Y-136866924D01*
G75*
G02*
X170255827Y-136866924I-176777J176777D01*
G01*
G37*
G36*
G01*
X170707073Y-139209678D02*
X170035322Y-138537927D01*
G75*
G02*
X170035322Y-138184373I176777J176777D01*
G01*
X170512619Y-137707076D01*
G75*
G02*
X170866173Y-137707076I176777J-176777D01*
G01*
X171537924Y-138378827D01*
G75*
G02*
X171537924Y-138732381I-176777J-176777D01*
G01*
X171060627Y-139209678D01*
G75*
G02*
X170707073Y-139209678I-176777J176777D01*
G01*
G37*
G36*
G01*
X169239827Y-140676924D02*
X168568076Y-140005173D01*
G75*
G02*
X168568076Y-139651619I176777J176777D01*
G01*
X169045373Y-139174322D01*
G75*
G02*
X169398927Y-139174322I176777J-176777D01*
G01*
X170070678Y-139846073D01*
G75*
G02*
X170070678Y-140199627I-176777J-176777D01*
G01*
X169593381Y-140676924D01*
G75*
G02*
X169239827Y-140676924I-176777J176777D01*
G01*
G37*
G36*
G01*
X155061500Y-134145000D02*
X155061500Y-135095000D01*
G75*
G02*
X154811500Y-135345000I-250000J0D01*
G01*
X154136500Y-135345000D01*
G75*
G02*
X153886500Y-135095000I0J250000D01*
G01*
X153886500Y-134145000D01*
G75*
G02*
X154136500Y-133895000I250000J0D01*
G01*
X154811500Y-133895000D01*
G75*
G02*
X155061500Y-134145000I0J-250000D01*
G01*
G37*
G36*
G01*
X157136500Y-134145000D02*
X157136500Y-135095000D01*
G75*
G02*
X156886500Y-135345000I-250000J0D01*
G01*
X156211500Y-135345000D01*
G75*
G02*
X155961500Y-135095000I0J250000D01*
G01*
X155961500Y-134145000D01*
G75*
G02*
X156211500Y-133895000I250000J0D01*
G01*
X156886500Y-133895000D01*
G75*
G02*
X157136500Y-134145000I0J-250000D01*
G01*
G37*
G36*
G01*
X157447000Y-127312000D02*
X156497000Y-127312000D01*
G75*
G02*
X156247000Y-127062000I0J250000D01*
G01*
X156247000Y-126387000D01*
G75*
G02*
X156497000Y-126137000I250000J0D01*
G01*
X157447000Y-126137000D01*
G75*
G02*
X157697000Y-126387000I0J-250000D01*
G01*
X157697000Y-127062000D01*
G75*
G02*
X157447000Y-127312000I-250000J0D01*
G01*
G37*
G36*
G01*
X157447000Y-129387000D02*
X156497000Y-129387000D01*
G75*
G02*
X156247000Y-129137000I0J250000D01*
G01*
X156247000Y-128462000D01*
G75*
G02*
X156497000Y-128212000I250000J0D01*
G01*
X157447000Y-128212000D01*
G75*
G02*
X157697000Y-128462000I0J-250000D01*
G01*
X157697000Y-129137000D01*
G75*
G02*
X157447000Y-129387000I-250000J0D01*
G01*
G37*
G36*
G01*
X155506000Y-136304000D02*
X155506000Y-137254000D01*
G75*
G02*
X155256000Y-137504000I-250000J0D01*
G01*
X154581000Y-137504000D01*
G75*
G02*
X154331000Y-137254000I0J250000D01*
G01*
X154331000Y-136304000D01*
G75*
G02*
X154581000Y-136054000I250000J0D01*
G01*
X155256000Y-136054000D01*
G75*
G02*
X155506000Y-136304000I0J-250000D01*
G01*
G37*
G36*
G01*
X157581000Y-136304000D02*
X157581000Y-137254000D01*
G75*
G02*
X157331000Y-137504000I-250000J0D01*
G01*
X156656000Y-137504000D01*
G75*
G02*
X156406000Y-137254000I0J250000D01*
G01*
X156406000Y-136304000D01*
G75*
G02*
X156656000Y-136054000I250000J0D01*
G01*
X157331000Y-136054000D01*
G75*
G02*
X157581000Y-136304000I0J-250000D01*
G01*
G37*
D21*
X167465000Y-115316000D03*
X167465000Y-114046000D03*
X167465000Y-112776000D03*
X167465000Y-111506000D03*
X161465000Y-111506000D03*
X161465000Y-112776000D03*
X161465000Y-114046000D03*
X161465000Y-115316000D03*
X151447500Y-133731000D03*
X151447500Y-132461000D03*
X151447500Y-131191000D03*
X151447500Y-129921000D03*
X145447500Y-129921000D03*
X145447500Y-131191000D03*
X145447500Y-132461000D03*
X145447500Y-133731000D03*
G36*
G01*
X124493500Y-116608000D02*
X125793500Y-116608000D01*
G75*
G02*
X125856000Y-116670500I0J-62500D01*
G01*
X125856000Y-116795500D01*
G75*
G02*
X125793500Y-116858000I-62500J0D01*
G01*
X124493500Y-116858000D01*
G75*
G02*
X124431000Y-116795500I0J62500D01*
G01*
X124431000Y-116670500D01*
G75*
G02*
X124493500Y-116608000I62500J0D01*
G01*
G37*
G36*
G01*
X124493500Y-117108000D02*
X125793500Y-117108000D01*
G75*
G02*
X125856000Y-117170500I0J-62500D01*
G01*
X125856000Y-117295500D01*
G75*
G02*
X125793500Y-117358000I-62500J0D01*
G01*
X124493500Y-117358000D01*
G75*
G02*
X124431000Y-117295500I0J62500D01*
G01*
X124431000Y-117170500D01*
G75*
G02*
X124493500Y-117108000I62500J0D01*
G01*
G37*
G36*
G01*
X124493500Y-117608000D02*
X125793500Y-117608000D01*
G75*
G02*
X125856000Y-117670500I0J-62500D01*
G01*
X125856000Y-117795500D01*
G75*
G02*
X125793500Y-117858000I-62500J0D01*
G01*
X124493500Y-117858000D01*
G75*
G02*
X124431000Y-117795500I0J62500D01*
G01*
X124431000Y-117670500D01*
G75*
G02*
X124493500Y-117608000I62500J0D01*
G01*
G37*
G36*
G01*
X124493500Y-118108000D02*
X125793500Y-118108000D01*
G75*
G02*
X125856000Y-118170500I0J-62500D01*
G01*
X125856000Y-118295500D01*
G75*
G02*
X125793500Y-118358000I-62500J0D01*
G01*
X124493500Y-118358000D01*
G75*
G02*
X124431000Y-118295500I0J62500D01*
G01*
X124431000Y-118170500D01*
G75*
G02*
X124493500Y-118108000I62500J0D01*
G01*
G37*
G36*
G01*
X124493500Y-118608000D02*
X125793500Y-118608000D01*
G75*
G02*
X125856000Y-118670500I0J-62500D01*
G01*
X125856000Y-118795500D01*
G75*
G02*
X125793500Y-118858000I-62500J0D01*
G01*
X124493500Y-118858000D01*
G75*
G02*
X124431000Y-118795500I0J62500D01*
G01*
X124431000Y-118670500D01*
G75*
G02*
X124493500Y-118608000I62500J0D01*
G01*
G37*
G36*
G01*
X124493500Y-119108000D02*
X125793500Y-119108000D01*
G75*
G02*
X125856000Y-119170500I0J-62500D01*
G01*
X125856000Y-119295500D01*
G75*
G02*
X125793500Y-119358000I-62500J0D01*
G01*
X124493500Y-119358000D01*
G75*
G02*
X124431000Y-119295500I0J62500D01*
G01*
X124431000Y-119170500D01*
G75*
G02*
X124493500Y-119108000I62500J0D01*
G01*
G37*
G36*
G01*
X126068500Y-119508000D02*
X126193500Y-119508000D01*
G75*
G02*
X126256000Y-119570500I0J-62500D01*
G01*
X126256000Y-120870500D01*
G75*
G02*
X126193500Y-120933000I-62500J0D01*
G01*
X126068500Y-120933000D01*
G75*
G02*
X126006000Y-120870500I0J62500D01*
G01*
X126006000Y-119570500D01*
G75*
G02*
X126068500Y-119508000I62500J0D01*
G01*
G37*
G36*
G01*
X126568500Y-119508000D02*
X126693500Y-119508000D01*
G75*
G02*
X126756000Y-119570500I0J-62500D01*
G01*
X126756000Y-120870500D01*
G75*
G02*
X126693500Y-120933000I-62500J0D01*
G01*
X126568500Y-120933000D01*
G75*
G02*
X126506000Y-120870500I0J62500D01*
G01*
X126506000Y-119570500D01*
G75*
G02*
X126568500Y-119508000I62500J0D01*
G01*
G37*
G36*
G01*
X127068500Y-119508000D02*
X127193500Y-119508000D01*
G75*
G02*
X127256000Y-119570500I0J-62500D01*
G01*
X127256000Y-120870500D01*
G75*
G02*
X127193500Y-120933000I-62500J0D01*
G01*
X127068500Y-120933000D01*
G75*
G02*
X127006000Y-120870500I0J62500D01*
G01*
X127006000Y-119570500D01*
G75*
G02*
X127068500Y-119508000I62500J0D01*
G01*
G37*
G36*
G01*
X127568500Y-119508000D02*
X127693500Y-119508000D01*
G75*
G02*
X127756000Y-119570500I0J-62500D01*
G01*
X127756000Y-120870500D01*
G75*
G02*
X127693500Y-120933000I-62500J0D01*
G01*
X127568500Y-120933000D01*
G75*
G02*
X127506000Y-120870500I0J62500D01*
G01*
X127506000Y-119570500D01*
G75*
G02*
X127568500Y-119508000I62500J0D01*
G01*
G37*
G36*
G01*
X128068500Y-119508000D02*
X128193500Y-119508000D01*
G75*
G02*
X128256000Y-119570500I0J-62500D01*
G01*
X128256000Y-120870500D01*
G75*
G02*
X128193500Y-120933000I-62500J0D01*
G01*
X128068500Y-120933000D01*
G75*
G02*
X128006000Y-120870500I0J62500D01*
G01*
X128006000Y-119570500D01*
G75*
G02*
X128068500Y-119508000I62500J0D01*
G01*
G37*
G36*
G01*
X128568500Y-119508000D02*
X128693500Y-119508000D01*
G75*
G02*
X128756000Y-119570500I0J-62500D01*
G01*
X128756000Y-120870500D01*
G75*
G02*
X128693500Y-120933000I-62500J0D01*
G01*
X128568500Y-120933000D01*
G75*
G02*
X128506000Y-120870500I0J62500D01*
G01*
X128506000Y-119570500D01*
G75*
G02*
X128568500Y-119508000I62500J0D01*
G01*
G37*
G36*
G01*
X128968500Y-119108000D02*
X130268500Y-119108000D01*
G75*
G02*
X130331000Y-119170500I0J-62500D01*
G01*
X130331000Y-119295500D01*
G75*
G02*
X130268500Y-119358000I-62500J0D01*
G01*
X128968500Y-119358000D01*
G75*
G02*
X128906000Y-119295500I0J62500D01*
G01*
X128906000Y-119170500D01*
G75*
G02*
X128968500Y-119108000I62500J0D01*
G01*
G37*
G36*
G01*
X128968500Y-118608000D02*
X130268500Y-118608000D01*
G75*
G02*
X130331000Y-118670500I0J-62500D01*
G01*
X130331000Y-118795500D01*
G75*
G02*
X130268500Y-118858000I-62500J0D01*
G01*
X128968500Y-118858000D01*
G75*
G02*
X128906000Y-118795500I0J62500D01*
G01*
X128906000Y-118670500D01*
G75*
G02*
X128968500Y-118608000I62500J0D01*
G01*
G37*
G36*
G01*
X128968500Y-118108000D02*
X130268500Y-118108000D01*
G75*
G02*
X130331000Y-118170500I0J-62500D01*
G01*
X130331000Y-118295500D01*
G75*
G02*
X130268500Y-118358000I-62500J0D01*
G01*
X128968500Y-118358000D01*
G75*
G02*
X128906000Y-118295500I0J62500D01*
G01*
X128906000Y-118170500D01*
G75*
G02*
X128968500Y-118108000I62500J0D01*
G01*
G37*
G36*
G01*
X128968500Y-117608000D02*
X130268500Y-117608000D01*
G75*
G02*
X130331000Y-117670500I0J-62500D01*
G01*
X130331000Y-117795500D01*
G75*
G02*
X130268500Y-117858000I-62500J0D01*
G01*
X128968500Y-117858000D01*
G75*
G02*
X128906000Y-117795500I0J62500D01*
G01*
X128906000Y-117670500D01*
G75*
G02*
X128968500Y-117608000I62500J0D01*
G01*
G37*
G36*
G01*
X128968500Y-117108000D02*
X130268500Y-117108000D01*
G75*
G02*
X130331000Y-117170500I0J-62500D01*
G01*
X130331000Y-117295500D01*
G75*
G02*
X130268500Y-117358000I-62500J0D01*
G01*
X128968500Y-117358000D01*
G75*
G02*
X128906000Y-117295500I0J62500D01*
G01*
X128906000Y-117170500D01*
G75*
G02*
X128968500Y-117108000I62500J0D01*
G01*
G37*
G36*
G01*
X128968500Y-116608000D02*
X130268500Y-116608000D01*
G75*
G02*
X130331000Y-116670500I0J-62500D01*
G01*
X130331000Y-116795500D01*
G75*
G02*
X130268500Y-116858000I-62500J0D01*
G01*
X128968500Y-116858000D01*
G75*
G02*
X128906000Y-116795500I0J62500D01*
G01*
X128906000Y-116670500D01*
G75*
G02*
X128968500Y-116608000I62500J0D01*
G01*
G37*
G36*
G01*
X128568500Y-115033000D02*
X128693500Y-115033000D01*
G75*
G02*
X128756000Y-115095500I0J-62500D01*
G01*
X128756000Y-116395500D01*
G75*
G02*
X128693500Y-116458000I-62500J0D01*
G01*
X128568500Y-116458000D01*
G75*
G02*
X128506000Y-116395500I0J62500D01*
G01*
X128506000Y-115095500D01*
G75*
G02*
X128568500Y-115033000I62500J0D01*
G01*
G37*
G36*
G01*
X128068500Y-115033000D02*
X128193500Y-115033000D01*
G75*
G02*
X128256000Y-115095500I0J-62500D01*
G01*
X128256000Y-116395500D01*
G75*
G02*
X128193500Y-116458000I-62500J0D01*
G01*
X128068500Y-116458000D01*
G75*
G02*
X128006000Y-116395500I0J62500D01*
G01*
X128006000Y-115095500D01*
G75*
G02*
X128068500Y-115033000I62500J0D01*
G01*
G37*
G36*
G01*
X127568500Y-115033000D02*
X127693500Y-115033000D01*
G75*
G02*
X127756000Y-115095500I0J-62500D01*
G01*
X127756000Y-116395500D01*
G75*
G02*
X127693500Y-116458000I-62500J0D01*
G01*
X127568500Y-116458000D01*
G75*
G02*
X127506000Y-116395500I0J62500D01*
G01*
X127506000Y-115095500D01*
G75*
G02*
X127568500Y-115033000I62500J0D01*
G01*
G37*
G36*
G01*
X127068500Y-115033000D02*
X127193500Y-115033000D01*
G75*
G02*
X127256000Y-115095500I0J-62500D01*
G01*
X127256000Y-116395500D01*
G75*
G02*
X127193500Y-116458000I-62500J0D01*
G01*
X127068500Y-116458000D01*
G75*
G02*
X127006000Y-116395500I0J62500D01*
G01*
X127006000Y-115095500D01*
G75*
G02*
X127068500Y-115033000I62500J0D01*
G01*
G37*
G36*
G01*
X126568500Y-115033000D02*
X126693500Y-115033000D01*
G75*
G02*
X126756000Y-115095500I0J-62500D01*
G01*
X126756000Y-116395500D01*
G75*
G02*
X126693500Y-116458000I-62500J0D01*
G01*
X126568500Y-116458000D01*
G75*
G02*
X126506000Y-116395500I0J62500D01*
G01*
X126506000Y-115095500D01*
G75*
G02*
X126568500Y-115033000I62500J0D01*
G01*
G37*
G36*
G01*
X126068500Y-115033000D02*
X126193500Y-115033000D01*
G75*
G02*
X126256000Y-115095500I0J-62500D01*
G01*
X126256000Y-116395500D01*
G75*
G02*
X126193500Y-116458000I-62500J0D01*
G01*
X126068500Y-116458000D01*
G75*
G02*
X126006000Y-116395500I0J62500D01*
G01*
X126006000Y-115095500D01*
G75*
G02*
X126068500Y-115033000I62500J0D01*
G01*
G37*
G36*
G01*
X126330600Y-116683000D02*
X128431400Y-116683000D01*
G75*
G02*
X128681000Y-116932600I0J-249600D01*
G01*
X128681000Y-119033400D01*
G75*
G02*
X128431400Y-119283000I-249600J0D01*
G01*
X126330600Y-119283000D01*
G75*
G02*
X126081000Y-119033400I0J249600D01*
G01*
X126081000Y-116932600D01*
G75*
G02*
X126330600Y-116683000I249600J0D01*
G01*
G37*
M02*
