G04 #@! TF.GenerationSoftware,KiCad,Pcbnew,(5.1.8)-1*
G04 #@! TF.CreationDate,2021-07-21T13:57:44+02:00*
G04 #@! TF.ProjectId,sensactHsNano,73656e73-6163-4744-9873-4e616e6f2e6b,rev?*
G04 #@! TF.SameCoordinates,Original*
G04 #@! TF.FileFunction,Legend,Bot*
G04 #@! TF.FilePolarity,Positive*
%FSLAX46Y46*%
G04 Gerber Fmt 4.6, Leading zero omitted, Abs format (unit mm)*
G04 Created by KiCad (PCBNEW (5.1.8)-1) date 2021-07-21 13:57:44*
%MOMM*%
%LPD*%
G01*
G04 APERTURE LIST*
%ADD10C,0.120000*%
%ADD11C,0.250000*%
%ADD12C,0.150000*%
%ADD13C,0.300000*%
%ADD14C,0.127000*%
%ADD15C,0.100000*%
%ADD16C,0.900000*%
%ADD17C,1.200000*%
%ADD18O,1.700000X1.950000*%
%ADD19C,1.524000*%
%ADD20O,2.200000X2.200000*%
%ADD21R,2.200000X2.200000*%
%ADD22O,3.600000X1.800000*%
%ADD23C,2.000000*%
%ADD24R,1.500000X2.300000*%
%ADD25R,5.000000X5.000000*%
%ADD26R,2.200000X0.600000*%
%ADD27O,1.000000X1.000000*%
%ADD28R,1.000000X1.000000*%
%ADD29C,0.700000*%
%ADD30C,2.100000*%
%ADD31C,1.750000*%
%ADD32C,1.700000*%
%ADD33C,3.250000*%
%ADD34C,2.445000*%
%ADD35C,1.530000*%
%ADD36C,1.398000*%
%ADD37R,1.398000X1.398000*%
%ADD38R,2.300000X3.500000*%
%ADD39R,3.600000X5.500000*%
%ADD40R,2.000000X0.400000*%
G04 APERTURE END LIST*
D10*
X177670000Y-111333000D02*
X177670000Y-111933000D01*
X179770000Y-110633000D02*
X178370000Y-110633000D01*
X180470000Y-111933000D02*
X180470000Y-111333000D01*
X178370000Y-112633000D02*
X179770000Y-112633000D01*
X177670000Y-111933000D02*
G75*
G03*
X178370000Y-112633000I700000J0D01*
G01*
X178370000Y-110633000D02*
G75*
G03*
X177670000Y-111333000I0J-700000D01*
G01*
X180470000Y-111333000D02*
G75*
G03*
X179770000Y-110633000I-700000J0D01*
G01*
X179770000Y-112633000D02*
G75*
G03*
X180470000Y-111933000I0J700000D01*
G01*
X182398936Y-111352000D02*
X182853064Y-111352000D01*
X182398936Y-109882000D02*
X182853064Y-109882000D01*
X182853064Y-111914000D02*
X182398936Y-111914000D01*
X182853064Y-113384000D02*
X182398936Y-113384000D01*
X118293000Y-126536000D02*
X118293000Y-127786000D01*
X117043000Y-126536000D02*
X118293000Y-126536000D01*
X106143000Y-132036000D02*
X111693000Y-132036000D01*
X106143000Y-129086000D02*
X106143000Y-132036000D01*
X105393000Y-129086000D02*
X106143000Y-129086000D01*
X111693000Y-132036000D02*
X116183000Y-132036000D01*
X117243000Y-129086000D02*
X117243000Y-130426000D01*
X117993000Y-129086000D02*
X117243000Y-129086000D01*
X105393000Y-126836000D02*
X107193000Y-126836000D01*
X105393000Y-127586000D02*
X105393000Y-126836000D01*
X107193000Y-127586000D02*
X105393000Y-127586000D01*
X107193000Y-126836000D02*
X107193000Y-127586000D01*
X116193000Y-126836000D02*
X117993000Y-126836000D01*
X116193000Y-127586000D02*
X116193000Y-126836000D01*
X117993000Y-127586000D02*
X116193000Y-127586000D01*
X117993000Y-126836000D02*
X117993000Y-127586000D01*
X108693000Y-126836000D02*
X114693000Y-126836000D01*
X108693000Y-127586000D02*
X108693000Y-126836000D01*
X114693000Y-127586000D02*
X108693000Y-127586000D01*
X114693000Y-126836000D02*
X114693000Y-127586000D01*
X105383000Y-126826000D02*
X118003000Y-126826000D01*
X105383000Y-132796000D02*
X105383000Y-126826000D01*
X118003000Y-132796000D02*
X105383000Y-132796000D01*
X118003000Y-126826000D02*
X118003000Y-132796000D01*
D11*
X134614800Y-101246000D02*
G75*
G03*
X134614800Y-101246000I-125000J0D01*
G01*
D12*
X133960200Y-93829600D02*
X129239800Y-93829600D01*
X133960200Y-105230200D02*
X133960200Y-93829600D01*
X129239800Y-105230200D02*
X133960200Y-105230200D01*
X129239800Y-93829600D02*
X129239800Y-105230200D01*
D10*
X190476800Y-149660000D02*
X190476800Y-152600000D01*
X190476800Y-152600000D02*
X185036800Y-152600000D01*
X185036800Y-152600000D02*
X185036800Y-149660000D01*
X185036800Y-149660000D02*
X190476800Y-149660000D01*
X191496800Y-151130000D02*
X190476800Y-151130000D01*
X184016800Y-151130000D02*
X185036800Y-151130000D01*
X189576800Y-149660000D02*
X189576800Y-152600000D01*
X189456800Y-149660000D02*
X189456800Y-152600000D01*
X189696800Y-149660000D02*
X189696800Y-152600000D01*
D12*
X133328800Y-130432800D02*
X133328800Y-140432800D01*
X124328800Y-130432800D02*
X124328800Y-140432800D01*
D10*
X184344000Y-128630400D02*
X184344000Y-129230400D01*
X184944000Y-128930400D02*
X184344000Y-128630400D01*
X184344000Y-129230400D02*
X184944000Y-128930400D01*
X191744000Y-126370400D02*
X191744000Y-141990400D01*
X185634000Y-136980400D02*
X185634000Y-138380400D01*
X185634000Y-133480400D02*
X185634000Y-134880400D01*
X185634000Y-129980400D02*
X185634000Y-131380400D01*
X185634000Y-141990400D02*
X185634000Y-140480400D01*
X185634000Y-126370400D02*
X185634000Y-127880400D01*
X195054000Y-141990400D02*
X185634000Y-141990400D01*
X195054000Y-126370400D02*
X195054000Y-141990400D01*
X185634000Y-126370400D02*
X195054000Y-126370400D01*
X161568219Y-137188810D02*
X162275326Y-137895917D01*
X162275326Y-137188810D02*
X161568219Y-137895917D01*
X156417197Y-146265689D02*
X157264311Y-147112803D01*
X156259512Y-146051436D02*
X157478564Y-147270488D01*
X156146375Y-145881730D02*
X157648270Y-147383625D01*
X156055865Y-145734652D02*
X157795348Y-147474135D01*
X155979498Y-145601716D02*
X157928284Y-147550502D01*
X155914444Y-145480094D02*
X158049906Y-147615556D01*
X155857875Y-145366957D02*
X158163043Y-147672125D01*
X155806963Y-145259477D02*
X158270523Y-147723037D01*
X155761709Y-145157653D02*
X158372347Y-147768291D01*
X155720696Y-145060072D02*
X158469928Y-147809304D01*
X155683220Y-144966027D02*
X158563973Y-147846780D01*
X155649279Y-144875518D02*
X158654482Y-147880721D01*
X155618166Y-144787836D02*
X158742164Y-147911834D01*
X155589882Y-144702983D02*
X158827017Y-147940118D01*
X155564426Y-144620959D02*
X158909041Y-147965574D01*
X155540384Y-144540349D02*
X158989651Y-147989616D01*
X155518464Y-144461860D02*
X159068140Y-148011536D01*
X155497958Y-144384785D02*
X159145215Y-148032042D01*
X155479573Y-144309832D02*
X159220168Y-148050427D01*
X155462602Y-144236293D02*
X159293707Y-148067398D01*
X155447753Y-144164875D02*
X159365125Y-148082247D01*
X155433611Y-144094165D02*
X159435835Y-148096389D01*
X155420176Y-144024161D02*
X159505839Y-148109824D01*
X155408862Y-143956279D02*
X159573721Y-148121138D01*
X155398256Y-143889104D02*
X159640896Y-148131744D01*
X155388356Y-143822636D02*
X159707364Y-148141644D01*
X155379871Y-143757582D02*
X159772418Y-148150129D01*
X155372800Y-143693942D02*
X159836058Y-148157200D01*
X155365729Y-143630302D02*
X159899698Y-148164271D01*
X155360072Y-143568077D02*
X159961923Y-148169928D01*
X155355122Y-143506559D02*
X160023441Y-148174878D01*
X155350880Y-143445748D02*
X160084252Y-148179120D01*
X155347344Y-143385644D02*
X160144356Y-148182656D01*
X155344516Y-143326247D02*
X160203753Y-148185484D01*
X155343101Y-143268264D02*
X160261736Y-148186899D01*
X155341687Y-143210281D02*
X160319719Y-148188313D01*
X155340980Y-143153005D02*
X160376995Y-148189020D01*
X155340980Y-143096437D02*
X160433563Y-148189020D01*
X155341687Y-143040575D02*
X160489425Y-148188313D01*
X155342394Y-142984714D02*
X160545286Y-148187606D01*
X155344516Y-142930267D02*
X160599733Y-148185484D01*
X155346637Y-142875820D02*
X160654180Y-148183363D01*
X155349465Y-142822079D02*
X160707921Y-148180535D01*
X155353001Y-142769046D02*
X160760954Y-148176999D01*
X155357244Y-142716721D02*
X160813279Y-148172756D01*
X155361486Y-142664395D02*
X160865605Y-148168514D01*
X155366436Y-142612776D02*
X160917224Y-148163564D01*
X155372093Y-142561864D02*
X160968136Y-148157907D01*
X155377750Y-142510952D02*
X161019048Y-148152250D01*
X155384114Y-142460748D02*
X161069252Y-148145886D01*
X155391185Y-142411250D02*
X161118750Y-148138815D01*
X155398256Y-142361753D02*
X161168247Y-148131744D01*
X155405327Y-142312255D02*
X161217745Y-148124673D01*
X159217339Y-146067700D02*
X161265828Y-148116188D01*
X155413812Y-142264172D02*
X157462300Y-144312661D01*
X159245624Y-146039415D02*
X161313911Y-148107703D01*
X155422297Y-142216089D02*
X157490585Y-144284376D01*
X159273908Y-146011131D02*
X161361994Y-148099217D01*
X155430783Y-142168006D02*
X157518869Y-144256092D01*
X159302192Y-145982847D02*
X161409370Y-148090025D01*
X155439975Y-142120630D02*
X157547153Y-144227808D01*
X159330477Y-145954562D02*
X161456040Y-148080125D01*
X155449875Y-142073960D02*
X157575438Y-144199523D01*
X159358761Y-145926278D02*
X161502709Y-148070226D01*
X155459774Y-142027291D02*
X157603722Y-144171239D01*
X159387045Y-145897994D02*
X161548671Y-148059619D01*
X155470381Y-141981329D02*
X157632006Y-144142955D01*
X159415329Y-145869710D02*
X161594632Y-148049013D01*
X155480987Y-141935368D02*
X157660290Y-144114671D01*
X159443614Y-145841425D02*
X161639887Y-148037699D01*
X155492301Y-141890113D02*
X157688575Y-144086386D01*
X159471898Y-145813141D02*
X161685142Y-148026385D01*
X155503615Y-141844858D02*
X157716859Y-144058102D01*
X159500182Y-145784857D02*
X161730397Y-148015072D01*
X155514928Y-141799603D02*
X157745143Y-144029818D01*
X159528466Y-145756573D02*
X161774238Y-148002344D01*
X155527656Y-141755762D02*
X157773427Y-144001534D01*
X159556751Y-145728288D02*
X161818785Y-147990323D01*
X155539677Y-141711215D02*
X157801712Y-143973249D01*
X159585035Y-145700004D02*
X161862626Y-147977595D01*
X155552405Y-141667374D02*
X157829996Y-143944965D01*
X159613319Y-145671720D02*
X161905759Y-147964160D01*
X155565840Y-141624241D02*
X157858280Y-143916681D01*
X159641604Y-145643435D02*
X161948893Y-147950725D01*
X155579275Y-141581107D02*
X157886565Y-143888396D01*
X159669888Y-145615151D02*
X161992026Y-147937290D01*
X155592710Y-141537974D02*
X157914849Y-143860112D01*
X159698172Y-145586867D02*
X162034453Y-147923148D01*
X155606852Y-141495547D02*
X157943133Y-143831828D01*
X159726456Y-145558583D02*
X162076172Y-147908299D01*
X155621701Y-141453828D02*
X157971417Y-143803544D01*
X159754741Y-145530298D02*
X162118599Y-147894156D01*
X155635844Y-141411401D02*
X157999702Y-143775259D01*
X159783025Y-145502014D02*
X162160318Y-147879307D01*
X155650693Y-141369682D02*
X158027986Y-143746975D01*
X159811309Y-145473730D02*
X162201330Y-147863751D01*
X155666249Y-141328670D02*
X158056270Y-143718691D01*
X159839593Y-145445446D02*
X162242342Y-147848194D01*
X155681806Y-141287658D02*
X158084554Y-143690407D01*
X159867878Y-145417161D02*
X162283354Y-147832638D01*
X155697362Y-141246646D02*
X158112839Y-143662122D01*
X159896162Y-145388877D02*
X162323660Y-147816375D01*
X155713625Y-141206340D02*
X158141123Y-143633838D01*
X159924446Y-145360593D02*
X162363258Y-147799404D01*
X155730596Y-141166742D02*
X158169407Y-143605554D01*
X159952731Y-145332309D02*
X162403563Y-147783141D01*
X155746859Y-141126437D02*
X158197691Y-143577269D01*
X159981015Y-145304024D02*
X162443161Y-147766170D01*
X155763830Y-141086839D02*
X158225976Y-143548985D01*
X160009299Y-145275740D02*
X162482051Y-147748492D01*
X155781508Y-141047949D02*
X158254260Y-143520701D01*
X160037583Y-145247456D02*
X162521649Y-147731522D01*
X155798478Y-141008351D02*
X158282544Y-143492417D01*
X160065868Y-145219171D02*
X162559833Y-147713137D01*
X155816863Y-140970167D02*
X158310829Y-143464132D01*
X160094152Y-145190887D02*
X162598724Y-147695459D01*
X155834541Y-140931276D02*
X158339113Y-143435848D01*
X160122436Y-145162603D02*
X162636908Y-147677075D01*
X155852925Y-140893092D02*
X158367397Y-143407564D01*
X160150720Y-145134319D02*
X162675092Y-147658690D01*
X155871310Y-140854908D02*
X158395681Y-143379280D01*
X160179005Y-145106034D02*
X162712568Y-147639598D01*
X155890402Y-140817432D02*
X158423966Y-143350995D01*
X160207289Y-145077750D02*
X162750045Y-147620506D01*
X155909494Y-140779955D02*
X158452250Y-143322711D01*
X160235573Y-145049466D02*
X162787522Y-147601414D01*
X155928586Y-140742478D02*
X158480534Y-143294427D01*
X160263858Y-145021182D02*
X162824291Y-147581615D01*
X155948385Y-140705709D02*
X158508818Y-143266142D01*
X160292142Y-144992897D02*
X162861061Y-147561816D01*
X155968184Y-140668939D02*
X158537103Y-143237858D01*
X160320426Y-144964613D02*
X162897123Y-147541310D01*
X155988690Y-140632877D02*
X158565387Y-143209574D01*
X160348710Y-144936329D02*
X162933893Y-147521511D01*
X156008489Y-140596107D02*
X158593671Y-143181290D01*
X160376995Y-144908044D02*
X162969248Y-147500298D01*
X156029702Y-140560752D02*
X158621956Y-143153005D01*
X160405279Y-144879760D02*
X163005310Y-147479792D01*
X156050208Y-140524690D02*
X158650240Y-143124721D01*
X160433563Y-144851476D02*
X163040666Y-147458579D01*
X156071421Y-140489334D02*
X158678524Y-143096437D01*
X160461847Y-144823192D02*
X163076021Y-147437365D01*
X156092635Y-140453979D02*
X158706808Y-143068153D01*
X160490132Y-144794907D02*
X163110669Y-147415445D01*
X156114555Y-140419331D02*
X158735093Y-143039868D01*
X160518416Y-144766623D02*
X163145318Y-147393525D01*
X156136475Y-140384682D02*
X158763377Y-143011584D01*
X160546700Y-144738339D02*
X163179966Y-147371604D01*
X156158396Y-140350034D02*
X158791661Y-142983300D01*
X160574984Y-144710055D02*
X163214614Y-147349684D01*
X156180316Y-140315386D02*
X158819945Y-142955016D01*
X160603269Y-144681770D02*
X163248555Y-147327057D01*
X156202943Y-140281445D02*
X158848230Y-142926731D01*
X160631553Y-144653486D02*
X163282496Y-147304429D01*
X156225571Y-140247504D02*
X158876514Y-142898447D01*
X160659837Y-144625202D02*
X163315730Y-147281095D01*
X156248905Y-140214270D02*
X158904798Y-142870163D01*
X160688122Y-144596917D02*
X163348964Y-147257760D01*
X156272240Y-140181036D02*
X158933083Y-142841878D01*
X160716406Y-144568633D02*
X163382198Y-147234426D01*
X156295574Y-140147802D02*
X158961367Y-142813594D01*
X160744690Y-144540349D02*
X163415432Y-147211091D01*
X156318909Y-140114568D02*
X158989651Y-142785310D01*
X160772974Y-144512065D02*
X163447959Y-147187050D01*
X156342950Y-140082041D02*
X159017935Y-142757026D01*
X160801259Y-144483780D02*
X163480486Y-147163008D01*
X156366992Y-140049514D02*
X159046220Y-142728741D01*
X160830250Y-144454789D02*
X163513013Y-147137552D01*
X156392448Y-140016987D02*
X159075211Y-142699750D01*
X160858534Y-144426505D02*
X163544833Y-147112803D01*
X156417197Y-139985167D02*
X159103495Y-142671466D01*
X160886819Y-144398220D02*
X163576653Y-147088055D01*
X156441945Y-139953347D02*
X159131780Y-142643181D01*
X160915103Y-144369936D02*
X163608473Y-147063306D01*
X156466694Y-139921527D02*
X159160064Y-142614897D01*
X160943387Y-144341652D02*
X163639585Y-147037850D01*
X156492150Y-139890415D02*
X159188348Y-142586613D01*
X156517606Y-139859302D02*
X163670698Y-147012394D01*
X156543062Y-139828189D02*
X163701811Y-146986938D01*
X156569225Y-139797784D02*
X163732216Y-146960775D01*
X156595388Y-139767378D02*
X163762622Y-146934612D01*
X156622258Y-139737680D02*
X163792320Y-146907742D01*
X156648421Y-139707274D02*
X163822726Y-146881579D01*
X156675291Y-139677576D02*
X163852424Y-146854709D01*
X156702161Y-139647877D02*
X163882123Y-146827839D01*
X156729738Y-139618886D02*
X163911114Y-146800262D01*
X156757315Y-139589894D02*
X163940106Y-146772685D01*
X156784892Y-139560903D02*
X163969097Y-146745108D01*
X156813176Y-139532619D02*
X163997381Y-146716824D01*
X156841461Y-139504334D02*
X164025666Y-146688539D01*
X165553563Y-143096437D02*
G75*
G03*
X165553563Y-143096437I-5120000J0D01*
G01*
X148520400Y-145173200D02*
X148670400Y-145173200D01*
X148520400Y-137173200D02*
X148520400Y-145173200D01*
X148670400Y-137173200D02*
X148520400Y-137173200D01*
X152520400Y-137173200D02*
X152370400Y-137173200D01*
X152520400Y-145173200D02*
X152520400Y-137173200D01*
X152370400Y-145173200D02*
X152520400Y-145173200D01*
X148670400Y-137173200D02*
X148670400Y-135473200D01*
X147999200Y-137173200D02*
X147849200Y-137173200D01*
X147999200Y-145173200D02*
X147999200Y-137173200D01*
X147849200Y-145173200D02*
X147999200Y-145173200D01*
X143999200Y-145173200D02*
X144149200Y-145173200D01*
X143999200Y-137173200D02*
X143999200Y-145173200D01*
X144149200Y-137173200D02*
X143999200Y-137173200D01*
X147849200Y-145173200D02*
X147849200Y-146873200D01*
X154354200Y-146343864D02*
X154354200Y-145889736D01*
X152884200Y-146343864D02*
X152884200Y-145889736D01*
X168288536Y-126622398D02*
X169294398Y-125616536D01*
X167001602Y-125335464D02*
X168007464Y-124329602D01*
X165604602Y-140475536D02*
X166610464Y-141481398D01*
X166891536Y-139188602D02*
X167897398Y-140194464D01*
X155630500Y-123139000D02*
X155630500Y-123919000D01*
X155630500Y-123919000D02*
X154630500Y-123919000D01*
X137390500Y-123139000D02*
X137390500Y-123919000D01*
X137390500Y-123919000D02*
X138390500Y-123919000D01*
X155630500Y-98174000D02*
X137390500Y-98174000D01*
X137390500Y-98174000D02*
X137390500Y-104594000D01*
X155630500Y-98174000D02*
X155630500Y-104594000D01*
X155630500Y-104594000D02*
X156010500Y-104594000D01*
D12*
X134409000Y-142713000D02*
X134409000Y-142858000D01*
X130259000Y-142713000D02*
X130259000Y-142858000D01*
X130259000Y-147863000D02*
X130259000Y-147718000D01*
X134409000Y-147863000D02*
X134409000Y-147718000D01*
X134409000Y-142713000D02*
X130259000Y-142713000D01*
X134409000Y-147863000D02*
X130259000Y-147863000D01*
X134409000Y-142858000D02*
X135809000Y-142858000D01*
D10*
X138246000Y-128954000D02*
X138246000Y-129754000D01*
X140646000Y-128954000D02*
X138246000Y-128954000D01*
X140646000Y-129754000D02*
X140646000Y-128954000D01*
X135046000Y-124754000D02*
X139446000Y-124754000D01*
X135046000Y-129754000D02*
X135046000Y-124754000D01*
X143846000Y-129754000D02*
X135046000Y-129754000D01*
X143846000Y-124754000D02*
X143846000Y-129754000D01*
X139446000Y-124754000D02*
X143846000Y-124754000D01*
X169090000Y-100470000D02*
X169090000Y-100700000D01*
X169610000Y-96800000D02*
X161890000Y-96800000D01*
X161890000Y-96800000D02*
X161890000Y-100700000D01*
X169610000Y-103810000D02*
X169090000Y-103810000D01*
X169610000Y-96800000D02*
X169610000Y-100700000D01*
X162410000Y-100470000D02*
X162410000Y-100700000D01*
X169090000Y-103300000D02*
X169090000Y-103810000D01*
X169610000Y-103300000D02*
X169610000Y-103810000D01*
X162950000Y-100470000D02*
X162410000Y-100470000D01*
X162410000Y-103300000D02*
X162410000Y-103810000D01*
X162410000Y-103810000D02*
X161890000Y-103810000D01*
X161890000Y-103300000D02*
X161890000Y-103810000D01*
X169090000Y-100470000D02*
X168550000Y-100470000D01*
X167450000Y-100470000D02*
X164050000Y-100470000D01*
X168119190Y-123468219D02*
X167412083Y-124175326D01*
X168119190Y-124175326D02*
X167412083Y-123468219D01*
X159042311Y-118317197D02*
X158195197Y-119164311D01*
X159256564Y-118159512D02*
X158037512Y-119378564D01*
X159426270Y-118046375D02*
X157924375Y-119548270D01*
X159573348Y-117955865D02*
X157833865Y-119695348D01*
X159706284Y-117879498D02*
X157757498Y-119828284D01*
X159827906Y-117814444D02*
X157692444Y-119949906D01*
X159941043Y-117757875D02*
X157635875Y-120063043D01*
X160048523Y-117706963D02*
X157584963Y-120170523D01*
X160150347Y-117661709D02*
X157539709Y-120272347D01*
X160247928Y-117620696D02*
X157498696Y-120369928D01*
X160341973Y-117583220D02*
X157461220Y-120463973D01*
X160432482Y-117549279D02*
X157427279Y-120554482D01*
X160520164Y-117518166D02*
X157396166Y-120642164D01*
X160605017Y-117489882D02*
X157367882Y-120727017D01*
X160687041Y-117464426D02*
X157342426Y-120809041D01*
X160767651Y-117440384D02*
X157318384Y-120889651D01*
X160846140Y-117418464D02*
X157296464Y-120968140D01*
X160923215Y-117397958D02*
X157275958Y-121045215D01*
X160998168Y-117379573D02*
X157257573Y-121120168D01*
X161071707Y-117362602D02*
X157240602Y-121193707D01*
X161143125Y-117347753D02*
X157225753Y-121265125D01*
X161213835Y-117333611D02*
X157211611Y-121335835D01*
X161283839Y-117320176D02*
X157198176Y-121405839D01*
X161351721Y-117308862D02*
X157186862Y-121473721D01*
X161418896Y-117298256D02*
X157176256Y-121540896D01*
X161485364Y-117288356D02*
X157166356Y-121607364D01*
X161550418Y-117279871D02*
X157157871Y-121672418D01*
X161614058Y-117272800D02*
X157150800Y-121736058D01*
X161677698Y-117265729D02*
X157143729Y-121799698D01*
X161739923Y-117260072D02*
X157138072Y-121861923D01*
X161801441Y-117255122D02*
X157133122Y-121923441D01*
X161862252Y-117250880D02*
X157128880Y-121984252D01*
X161922356Y-117247344D02*
X157125344Y-122044356D01*
X161981753Y-117244516D02*
X157122516Y-122103753D01*
X162039736Y-117243101D02*
X157121101Y-122161736D01*
X162097719Y-117241687D02*
X157119687Y-122219719D01*
X162154995Y-117240980D02*
X157118980Y-122276995D01*
X162211563Y-117240980D02*
X157118980Y-122333563D01*
X162267425Y-117241687D02*
X157119687Y-122389425D01*
X162323286Y-117242394D02*
X157120394Y-122445286D01*
X162377733Y-117244516D02*
X157122516Y-122499733D01*
X162432180Y-117246637D02*
X157124637Y-122554180D01*
X162485921Y-117249465D02*
X157127465Y-122607921D01*
X162538954Y-117253001D02*
X157131001Y-122660954D01*
X162591279Y-117257244D02*
X157135244Y-122713279D01*
X162643605Y-117261486D02*
X157139486Y-122765605D01*
X162695224Y-117266436D02*
X157144436Y-122817224D01*
X162746136Y-117272093D02*
X157150093Y-122868136D01*
X162797048Y-117277750D02*
X157155750Y-122919048D01*
X162847252Y-117284114D02*
X157162114Y-122969252D01*
X162896750Y-117291185D02*
X157169185Y-123018750D01*
X162946247Y-117298256D02*
X157176256Y-123068247D01*
X162995745Y-117305327D02*
X157183327Y-123117745D01*
X159240300Y-121117339D02*
X157191812Y-123165828D01*
X163043828Y-117313812D02*
X160995339Y-119362300D01*
X159268585Y-121145624D02*
X157200297Y-123213911D01*
X163091911Y-117322297D02*
X161023624Y-119390585D01*
X159296869Y-121173908D02*
X157208783Y-123261994D01*
X163139994Y-117330783D02*
X161051908Y-119418869D01*
X159325153Y-121202192D02*
X157217975Y-123309370D01*
X163187370Y-117339975D02*
X161080192Y-119447153D01*
X159353438Y-121230477D02*
X157227875Y-123356040D01*
X163234040Y-117349875D02*
X161108477Y-119475438D01*
X159381722Y-121258761D02*
X157237774Y-123402709D01*
X163280709Y-117359774D02*
X161136761Y-119503722D01*
X159410006Y-121287045D02*
X157248381Y-123448671D01*
X163326671Y-117370381D02*
X161165045Y-119532006D01*
X159438290Y-121315329D02*
X157258987Y-123494632D01*
X163372632Y-117380987D02*
X161193329Y-119560290D01*
X159466575Y-121343614D02*
X157270301Y-123539887D01*
X163417887Y-117392301D02*
X161221614Y-119588575D01*
X159494859Y-121371898D02*
X157281615Y-123585142D01*
X163463142Y-117403615D02*
X161249898Y-119616859D01*
X159523143Y-121400182D02*
X157292928Y-123630397D01*
X163508397Y-117414928D02*
X161278182Y-119645143D01*
X159551427Y-121428466D02*
X157305656Y-123674238D01*
X163552238Y-117427656D02*
X161306466Y-119673427D01*
X159579712Y-121456751D02*
X157317677Y-123718785D01*
X163596785Y-117439677D02*
X161334751Y-119701712D01*
X159607996Y-121485035D02*
X157330405Y-123762626D01*
X163640626Y-117452405D02*
X161363035Y-119729996D01*
X159636280Y-121513319D02*
X157343840Y-123805759D01*
X163683759Y-117465840D02*
X161391319Y-119758280D01*
X159664565Y-121541604D02*
X157357275Y-123848893D01*
X163726893Y-117479275D02*
X161419604Y-119786565D01*
X159692849Y-121569888D02*
X157370710Y-123892026D01*
X163770026Y-117492710D02*
X161447888Y-119814849D01*
X159721133Y-121598172D02*
X157384852Y-123934453D01*
X163812453Y-117506852D02*
X161476172Y-119843133D01*
X159749417Y-121626456D02*
X157399701Y-123976172D01*
X163854172Y-117521701D02*
X161504456Y-119871417D01*
X159777702Y-121654741D02*
X157413844Y-124018599D01*
X163896599Y-117535844D02*
X161532741Y-119899702D01*
X159805986Y-121683025D02*
X157428693Y-124060318D01*
X163938318Y-117550693D02*
X161561025Y-119927986D01*
X159834270Y-121711309D02*
X157444249Y-124101330D01*
X163979330Y-117566249D02*
X161589309Y-119956270D01*
X159862554Y-121739593D02*
X157459806Y-124142342D01*
X164020342Y-117581806D02*
X161617593Y-119984554D01*
X159890839Y-121767878D02*
X157475362Y-124183354D01*
X164061354Y-117597362D02*
X161645878Y-120012839D01*
X159919123Y-121796162D02*
X157491625Y-124223660D01*
X164101660Y-117613625D02*
X161674162Y-120041123D01*
X159947407Y-121824446D02*
X157508596Y-124263258D01*
X164141258Y-117630596D02*
X161702446Y-120069407D01*
X159975691Y-121852731D02*
X157524859Y-124303563D01*
X164181563Y-117646859D02*
X161730731Y-120097691D01*
X160003976Y-121881015D02*
X157541830Y-124343161D01*
X164221161Y-117663830D02*
X161759015Y-120125976D01*
X160032260Y-121909299D02*
X157559508Y-124382051D01*
X164260051Y-117681508D02*
X161787299Y-120154260D01*
X160060544Y-121937583D02*
X157576478Y-124421649D01*
X164299649Y-117698478D02*
X161815583Y-120182544D01*
X160088829Y-121965868D02*
X157594863Y-124459833D01*
X164337833Y-117716863D02*
X161843868Y-120210829D01*
X160117113Y-121994152D02*
X157612541Y-124498724D01*
X164376724Y-117734541D02*
X161872152Y-120239113D01*
X160145397Y-122022436D02*
X157630925Y-124536908D01*
X164414908Y-117752925D02*
X161900436Y-120267397D01*
X160173681Y-122050720D02*
X157649310Y-124575092D01*
X164453092Y-117771310D02*
X161928720Y-120295681D01*
X160201966Y-122079005D02*
X157668402Y-124612568D01*
X164490568Y-117790402D02*
X161957005Y-120323966D01*
X160230250Y-122107289D02*
X157687494Y-124650045D01*
X164528045Y-117809494D02*
X161985289Y-120352250D01*
X160258534Y-122135573D02*
X157706586Y-124687522D01*
X164565522Y-117828586D02*
X162013573Y-120380534D01*
X160286818Y-122163858D02*
X157726385Y-124724291D01*
X164602291Y-117848385D02*
X162041858Y-120408818D01*
X160315103Y-122192142D02*
X157746184Y-124761061D01*
X164639061Y-117868184D02*
X162070142Y-120437103D01*
X160343387Y-122220426D02*
X157766690Y-124797123D01*
X164675123Y-117888690D02*
X162098426Y-120465387D01*
X160371671Y-122248710D02*
X157786489Y-124833893D01*
X164711893Y-117908489D02*
X162126710Y-120493671D01*
X160399956Y-122276995D02*
X157807702Y-124869248D01*
X164747248Y-117929702D02*
X162154995Y-120521956D01*
X160428240Y-122305279D02*
X157828208Y-124905310D01*
X164783310Y-117950208D02*
X162183279Y-120550240D01*
X160456524Y-122333563D02*
X157849421Y-124940666D01*
X164818666Y-117971421D02*
X162211563Y-120578524D01*
X160484808Y-122361847D02*
X157870635Y-124976021D01*
X164854021Y-117992635D02*
X162239847Y-120606808D01*
X160513093Y-122390132D02*
X157892555Y-125010669D01*
X164888669Y-118014555D02*
X162268132Y-120635093D01*
X160541377Y-122418416D02*
X157914475Y-125045318D01*
X164923318Y-118036475D02*
X162296416Y-120663377D01*
X160569661Y-122446700D02*
X157936396Y-125079966D01*
X164957966Y-118058396D02*
X162324700Y-120691661D01*
X160597945Y-122474984D02*
X157958316Y-125114614D01*
X164992614Y-118080316D02*
X162352984Y-120719945D01*
X160626230Y-122503269D02*
X157980943Y-125148555D01*
X165026555Y-118102943D02*
X162381269Y-120748230D01*
X160654514Y-122531553D02*
X158003571Y-125182496D01*
X165060496Y-118125571D02*
X162409553Y-120776514D01*
X160682798Y-122559837D02*
X158026905Y-125215730D01*
X165093730Y-118148905D02*
X162437837Y-120804798D01*
X160711083Y-122588122D02*
X158050240Y-125248964D01*
X165126964Y-118172240D02*
X162466122Y-120833083D01*
X160739367Y-122616406D02*
X158073574Y-125282198D01*
X165160198Y-118195574D02*
X162494406Y-120861367D01*
X160767651Y-122644690D02*
X158096909Y-125315432D01*
X165193432Y-118218909D02*
X162522690Y-120889651D01*
X160795935Y-122672974D02*
X158120950Y-125347959D01*
X165225959Y-118242950D02*
X162550974Y-120917935D01*
X160824220Y-122701259D02*
X158144992Y-125380486D01*
X165258486Y-118266992D02*
X162579259Y-120946220D01*
X160853211Y-122730250D02*
X158170448Y-125413013D01*
X165291013Y-118292448D02*
X162608250Y-120975211D01*
X160881495Y-122758534D02*
X158195197Y-125444833D01*
X165322833Y-118317197D02*
X162636534Y-121003495D01*
X160909780Y-122786819D02*
X158219945Y-125476653D01*
X165354653Y-118341945D02*
X162664819Y-121031780D01*
X160938064Y-122815103D02*
X158244694Y-125508473D01*
X165386473Y-118366694D02*
X162693103Y-121060064D01*
X160966348Y-122843387D02*
X158270150Y-125539585D01*
X165417585Y-118392150D02*
X162721387Y-121088348D01*
X165448698Y-118417606D02*
X158295606Y-125570698D01*
X165479811Y-118443062D02*
X158321062Y-125601811D01*
X165510216Y-118469225D02*
X158347225Y-125632216D01*
X165540622Y-118495388D02*
X158373388Y-125662622D01*
X165570320Y-118522258D02*
X158400258Y-125692320D01*
X165600726Y-118548421D02*
X158426421Y-125722726D01*
X165630424Y-118575291D02*
X158453291Y-125752424D01*
X165660123Y-118602161D02*
X158480161Y-125782123D01*
X165689114Y-118629738D02*
X158507738Y-125811114D01*
X165718106Y-118657315D02*
X158535315Y-125840106D01*
X165747097Y-118684892D02*
X158562892Y-125869097D01*
X165775381Y-118713176D02*
X158591176Y-125897381D01*
X165803666Y-118741461D02*
X158619461Y-125925666D01*
X167331563Y-122333563D02*
G75*
G03*
X167331563Y-122333563I-5120000J0D01*
G01*
D12*
X183181000Y-133087500D02*
X173181000Y-133087500D01*
X183181000Y-124087500D02*
X173181000Y-124087500D01*
X183181000Y-123816500D02*
X173181000Y-123816500D01*
X183181000Y-114816500D02*
X173181000Y-114816500D01*
X183181000Y-142295000D02*
X173181000Y-142295000D01*
X183181000Y-133295000D02*
X173181000Y-133295000D01*
X192583200Y-151566000D02*
X182583200Y-151566000D01*
X192583200Y-142566000D02*
X182583200Y-142566000D01*
D10*
X114475000Y-141841000D02*
X105355000Y-141841000D01*
X114475000Y-145941000D02*
X105355000Y-145941000D01*
X114475000Y-133601000D02*
X105355000Y-133601000D01*
X105355000Y-133601000D02*
X105355000Y-154181000D01*
X105355000Y-154181000D02*
X114475000Y-154181000D01*
X114475000Y-154181000D02*
X114475000Y-133601000D01*
X120095000Y-138811000D02*
X121095000Y-138311000D01*
X121095000Y-138311000D02*
X121095000Y-139311000D01*
X121095000Y-139311000D02*
X120095000Y-138811000D01*
D13*
X119988000Y-126094000D02*
G75*
G03*
X119988000Y-126094000I-150000J0D01*
G01*
D14*
X118138000Y-125094000D02*
X124018000Y-125094000D01*
X102618000Y-125094000D02*
X115038000Y-125094000D01*
X118138000Y-109094000D02*
X124018000Y-109094000D01*
X102618000Y-109094000D02*
X115038000Y-109094000D01*
X102618000Y-125094000D02*
X102618000Y-109094000D01*
X124018000Y-125094000D02*
X124018000Y-109094000D01*
D10*
X142340000Y-145949936D02*
X142340000Y-146404064D01*
X140870000Y-145949936D02*
X140870000Y-146404064D01*
X138838000Y-146404064D02*
X138838000Y-145949936D01*
X140308000Y-146404064D02*
X140308000Y-145949936D01*
X138276000Y-145949936D02*
X138276000Y-146404064D01*
X136806000Y-145949936D02*
X136806000Y-146404064D01*
X123630800Y-140586400D02*
X123630800Y-147886400D01*
X127930800Y-140586400D02*
X127930800Y-147886400D01*
X123630800Y-140586400D02*
X127930800Y-140586400D01*
X135280348Y-133945800D02*
X136702852Y-133945800D01*
X135280348Y-136665800D02*
X136702852Y-136665800D01*
X135280348Y-137247800D02*
X136702852Y-137247800D01*
X135280348Y-139967800D02*
X136702852Y-139967800D01*
X138429948Y-140473600D02*
X139852452Y-140473600D01*
X138429948Y-143193600D02*
X139852452Y-143193600D01*
X135280348Y-130643800D02*
X136702852Y-130643800D01*
X135280348Y-133363800D02*
X136702852Y-133363800D01*
X131564748Y-140743000D02*
X132087252Y-140743000D01*
X131564748Y-142213000D02*
X132087252Y-142213000D01*
X123153000Y-145211748D02*
X123153000Y-146634252D01*
X120433000Y-145211748D02*
X120433000Y-146634252D01*
X184344000Y-110063000D02*
X184344000Y-110663000D01*
X184944000Y-110363000D02*
X184344000Y-110063000D01*
X184344000Y-110663000D02*
X184944000Y-110363000D01*
X191744000Y-107803000D02*
X191744000Y-123423000D01*
X185634000Y-118413000D02*
X185634000Y-119813000D01*
X185634000Y-114913000D02*
X185634000Y-116313000D01*
X185634000Y-111413000D02*
X185634000Y-112813000D01*
X185634000Y-123423000D02*
X185634000Y-121913000D01*
X185634000Y-107803000D02*
X185634000Y-109313000D01*
X195054000Y-123423000D02*
X185634000Y-123423000D01*
X195054000Y-107803000D02*
X195054000Y-123423000D01*
X185634000Y-107803000D02*
X195054000Y-107803000D01*
D12*
X160108000Y-137690000D02*
X160108000Y-137365000D01*
X164758000Y-137690000D02*
X164758000Y-137365000D01*
X164758000Y-127740000D02*
X164758000Y-128065000D01*
X160108000Y-127740000D02*
X160108000Y-128065000D01*
X160108000Y-137690000D02*
X164758000Y-137690000D01*
X160108000Y-127740000D02*
X164758000Y-127740000D01*
X160108000Y-137365000D02*
X159033000Y-137365000D01*
D10*
X154709864Y-138050600D02*
X154255736Y-138050600D01*
X154709864Y-139520600D02*
X154255736Y-139520600D01*
X161311000Y-107518252D02*
X161311000Y-106095748D01*
X159491000Y-107518252D02*
X159491000Y-106095748D01*
X158850000Y-106560252D02*
X158850000Y-106037748D01*
X157380000Y-106560252D02*
X157380000Y-106037748D01*
X126084000Y-113291252D02*
X126084000Y-112768748D01*
X124614000Y-113291252D02*
X124614000Y-112768748D01*
X124614000Y-122674748D02*
X124614000Y-123197252D01*
X126084000Y-122674748D02*
X126084000Y-123197252D01*
X132688000Y-117926752D02*
X132688000Y-117404248D01*
X131218000Y-117926752D02*
X131218000Y-117404248D01*
X130040748Y-112622000D02*
X130563252Y-112622000D01*
X130040748Y-111152000D02*
X130563252Y-111152000D01*
X130040748Y-114654000D02*
X130563252Y-114654000D01*
X130040748Y-113184000D02*
X130563252Y-113184000D01*
X158396000Y-113276748D02*
X158396000Y-113799252D01*
X159866000Y-113276748D02*
X159866000Y-113799252D01*
X143483000Y-134119252D02*
X143483000Y-133596748D01*
X142013000Y-134119252D02*
X142013000Y-133596748D01*
X142013000Y-137406748D02*
X142013000Y-137929252D01*
X143483000Y-137406748D02*
X143483000Y-137929252D01*
X169983543Y-132033990D02*
X170353010Y-132403457D01*
X171022990Y-130994543D02*
X171392457Y-131364010D01*
X169221543Y-128350990D02*
X169591010Y-128720457D01*
X170260990Y-127311543D02*
X170630457Y-127681010D01*
X171403990Y-136086457D02*
X171773457Y-135716990D01*
X170364543Y-135047010D02*
X170734010Y-134677543D01*
X170387990Y-139896457D02*
X170757457Y-139526990D01*
X169348543Y-138857010D02*
X169718010Y-138487543D01*
X155772752Y-133885000D02*
X155250248Y-133885000D01*
X155772752Y-135355000D02*
X155250248Y-135355000D01*
X157707000Y-128023252D02*
X157707000Y-127500748D01*
X156237000Y-128023252D02*
X156237000Y-127500748D01*
X156217252Y-136044000D02*
X155694748Y-136044000D01*
X156217252Y-137514000D02*
X155694748Y-137514000D01*
D12*
X162390000Y-115986000D02*
X162390000Y-115841000D01*
X166540000Y-115986000D02*
X166540000Y-115841000D01*
X166540000Y-110836000D02*
X166540000Y-110981000D01*
X162390000Y-110836000D02*
X162390000Y-110981000D01*
X162390000Y-115986000D02*
X166540000Y-115986000D01*
X162390000Y-110836000D02*
X166540000Y-110836000D01*
X162390000Y-115841000D02*
X160990000Y-115841000D01*
X146372500Y-134401000D02*
X146372500Y-134256000D01*
X150522500Y-134401000D02*
X150522500Y-134256000D01*
X150522500Y-129251000D02*
X150522500Y-129396000D01*
X146372500Y-129251000D02*
X146372500Y-129396000D01*
X146372500Y-134401000D02*
X150522500Y-134401000D01*
X146372500Y-129251000D02*
X150522500Y-129251000D01*
X146372500Y-134256000D02*
X144972500Y-134256000D01*
D10*
X125271000Y-119618000D02*
X125271000Y-120093000D01*
X125271000Y-120093000D02*
X125746000Y-120093000D01*
X129491000Y-116348000D02*
X129491000Y-115873000D01*
X129491000Y-115873000D02*
X129016000Y-115873000D01*
X129491000Y-119618000D02*
X129491000Y-120093000D01*
X129491000Y-120093000D02*
X129016000Y-120093000D01*
X125271000Y-116348000D02*
X125271000Y-115873000D01*
D12*
X180474523Y-113815761D02*
X180331666Y-113863380D01*
X180093571Y-113863380D01*
X179998333Y-113815761D01*
X179950714Y-113768142D01*
X179903095Y-113672904D01*
X179903095Y-113577666D01*
X179950714Y-113482428D01*
X179998333Y-113434809D01*
X180093571Y-113387190D01*
X180284047Y-113339571D01*
X180379285Y-113291952D01*
X180426904Y-113244333D01*
X180474523Y-113149095D01*
X180474523Y-113053857D01*
X180426904Y-112958619D01*
X180379285Y-112911000D01*
X180284047Y-112863380D01*
X180045952Y-112863380D01*
X179903095Y-112911000D01*
X179474523Y-112863380D02*
X179474523Y-113672904D01*
X179426904Y-113768142D01*
X179379285Y-113815761D01*
X179284047Y-113863380D01*
X179093571Y-113863380D01*
X178998333Y-113815761D01*
X178950714Y-113768142D01*
X178903095Y-113672904D01*
X178903095Y-112863380D01*
X178426904Y-113863380D02*
X178426904Y-112863380D01*
X178045952Y-112863380D01*
X177950714Y-112911000D01*
X177903095Y-112958619D01*
X177855476Y-113053857D01*
X177855476Y-113196714D01*
X177903095Y-113291952D01*
X177950714Y-113339571D01*
X178045952Y-113387190D01*
X178426904Y-113387190D01*
X177665000Y-113958619D02*
X176903095Y-113958619D01*
X176665000Y-113863380D02*
X176665000Y-112863380D01*
X176331666Y-113577666D01*
X175998333Y-112863380D01*
X175998333Y-113863380D01*
X175331666Y-112863380D02*
X175141190Y-112863380D01*
X175045952Y-112911000D01*
X174950714Y-113006238D01*
X174903095Y-113196714D01*
X174903095Y-113530047D01*
X174950714Y-113720523D01*
X175045952Y-113815761D01*
X175141190Y-113863380D01*
X175331666Y-113863380D01*
X175426904Y-113815761D01*
X175522142Y-113720523D01*
X175569761Y-113530047D01*
X175569761Y-113196714D01*
X175522142Y-113006238D01*
X175426904Y-112911000D01*
X175331666Y-112863380D01*
X174474523Y-113863380D02*
X174474523Y-112863380D01*
X173903095Y-113863380D01*
X173903095Y-112863380D01*
X182745047Y-109419380D02*
X183316476Y-109419380D01*
X183030761Y-109419380D02*
X183030761Y-108419380D01*
X183126000Y-108562238D01*
X183221238Y-108657476D01*
X183316476Y-108705095D01*
X182316476Y-109419380D02*
X182316476Y-108419380D01*
X182221238Y-109038428D02*
X181935523Y-109419380D01*
X181935523Y-108752714D02*
X182316476Y-109133666D01*
X183221238Y-114751380D02*
X183792666Y-114751380D01*
X183506952Y-114751380D02*
X183506952Y-113751380D01*
X183602190Y-113894238D01*
X183697428Y-113989476D01*
X183792666Y-114037095D01*
X182602190Y-113751380D02*
X182506952Y-113751380D01*
X182411714Y-113799000D01*
X182364095Y-113846619D01*
X182316476Y-113941857D01*
X182268857Y-114132333D01*
X182268857Y-114370428D01*
X182316476Y-114560904D01*
X182364095Y-114656142D01*
X182411714Y-114703761D01*
X182506952Y-114751380D01*
X182602190Y-114751380D01*
X182697428Y-114703761D01*
X182745047Y-114656142D01*
X182792666Y-114560904D01*
X182840285Y-114370428D01*
X182840285Y-114132333D01*
X182792666Y-113941857D01*
X182745047Y-113846619D01*
X182697428Y-113799000D01*
X182602190Y-113751380D01*
X181840285Y-114751380D02*
X181840285Y-113751380D01*
X181745047Y-114370428D02*
X181459333Y-114751380D01*
X181459333Y-114084714D02*
X181840285Y-114465666D01*
X121356285Y-129738380D02*
X121927714Y-129738380D01*
X121642000Y-129738380D02*
X121642000Y-128738380D01*
X121737238Y-128881238D01*
X121832476Y-128976476D01*
X121927714Y-129024095D01*
X121022952Y-129071714D02*
X120832476Y-129738380D01*
X120642000Y-129262190D01*
X120451523Y-129738380D01*
X120261047Y-129071714D01*
X119880095Y-129738380D02*
X119880095Y-129071714D01*
X119880095Y-128738380D02*
X119927714Y-128786000D01*
X119880095Y-128833619D01*
X119832476Y-128786000D01*
X119880095Y-128738380D01*
X119880095Y-128833619D01*
X119403904Y-129738380D02*
X119403904Y-129071714D01*
X119403904Y-129262190D02*
X119356285Y-129166952D01*
X119308666Y-129119333D01*
X119213428Y-129071714D01*
X119118190Y-129071714D01*
X118403904Y-129690761D02*
X118499142Y-129738380D01*
X118689619Y-129738380D01*
X118784857Y-129690761D01*
X118832476Y-129595523D01*
X118832476Y-129214571D01*
X118784857Y-129119333D01*
X118689619Y-129071714D01*
X118499142Y-129071714D01*
X118403904Y-129119333D01*
X118356285Y-129214571D01*
X118356285Y-129309809D01*
X118832476Y-129405047D01*
X135575523Y-97959333D02*
X134970761Y-97536000D01*
X135575523Y-97233619D02*
X134305523Y-97233619D01*
X134305523Y-97717428D01*
X134366000Y-97838380D01*
X134426476Y-97898857D01*
X134547428Y-97959333D01*
X134728857Y-97959333D01*
X134849809Y-97898857D01*
X134910285Y-97838380D01*
X134970761Y-97717428D01*
X134970761Y-97233619D01*
X134728857Y-98503619D02*
X135998857Y-98503619D01*
X134789333Y-98503619D02*
X134728857Y-98624571D01*
X134728857Y-98866476D01*
X134789333Y-98987428D01*
X134849809Y-99047904D01*
X134970761Y-99108380D01*
X135333619Y-99108380D01*
X135454571Y-99047904D01*
X135515047Y-98987428D01*
X135575523Y-98866476D01*
X135575523Y-98624571D01*
X135515047Y-98503619D01*
X135575523Y-99834095D02*
X135515047Y-99713142D01*
X135454571Y-99652666D01*
X135333619Y-99592190D01*
X134970761Y-99592190D01*
X134849809Y-99652666D01*
X134789333Y-99713142D01*
X134728857Y-99834095D01*
X134728857Y-100015523D01*
X134789333Y-100136476D01*
X134849809Y-100196952D01*
X134970761Y-100257428D01*
X135333619Y-100257428D01*
X135454571Y-100196952D01*
X135515047Y-100136476D01*
X135575523Y-100015523D01*
X135575523Y-99834095D01*
X134728857Y-100680761D02*
X135575523Y-100922666D01*
X134970761Y-101164571D01*
X135575523Y-101406476D01*
X134728857Y-101648380D01*
X135515047Y-102616000D02*
X135575523Y-102495047D01*
X135575523Y-102253142D01*
X135515047Y-102132190D01*
X135394095Y-102071714D01*
X134910285Y-102071714D01*
X134789333Y-102132190D01*
X134728857Y-102253142D01*
X134728857Y-102495047D01*
X134789333Y-102616000D01*
X134910285Y-102676476D01*
X135031238Y-102676476D01*
X135152190Y-102071714D01*
X135575523Y-103220761D02*
X134728857Y-103220761D01*
X134970761Y-103220761D02*
X134849809Y-103281238D01*
X134789333Y-103341714D01*
X134728857Y-103462666D01*
X134728857Y-103583619D01*
X135696476Y-103704571D02*
X135696476Y-104672190D01*
X134366000Y-105639809D02*
X134305523Y-105518857D01*
X134305523Y-105337428D01*
X134366000Y-105156000D01*
X134486952Y-105035047D01*
X134607904Y-104974571D01*
X134849809Y-104914095D01*
X135031238Y-104914095D01*
X135273142Y-104974571D01*
X135394095Y-105035047D01*
X135515047Y-105156000D01*
X135575523Y-105337428D01*
X135575523Y-105458380D01*
X135515047Y-105639809D01*
X135454571Y-105700285D01*
X135031238Y-105700285D01*
X135031238Y-105458380D01*
X135575523Y-106244571D02*
X134728857Y-106244571D01*
X134305523Y-106244571D02*
X134366000Y-106184095D01*
X134426476Y-106244571D01*
X134366000Y-106305047D01*
X134305523Y-106244571D01*
X134426476Y-106244571D01*
X134728857Y-106849333D02*
X135575523Y-106849333D01*
X134849809Y-106849333D02*
X134789333Y-106909809D01*
X134728857Y-107030761D01*
X134728857Y-107212190D01*
X134789333Y-107333142D01*
X134910285Y-107393619D01*
X135575523Y-107393619D01*
X134728857Y-107816952D02*
X134728857Y-108300761D01*
X135575523Y-107998380D02*
X134486952Y-107998380D01*
X134366000Y-108058857D01*
X134305523Y-108179809D01*
X134305523Y-108300761D01*
X135575523Y-108905523D02*
X135515047Y-108784571D01*
X135454571Y-108724095D01*
X135333619Y-108663619D01*
X134970761Y-108663619D01*
X134849809Y-108724095D01*
X134789333Y-108784571D01*
X134728857Y-108905523D01*
X134728857Y-109086952D01*
X134789333Y-109207904D01*
X134849809Y-109268380D01*
X134970761Y-109328857D01*
X135333619Y-109328857D01*
X135454571Y-109268380D01*
X135515047Y-109207904D01*
X135575523Y-109086952D01*
X135575523Y-108905523D01*
X191198047Y-149550380D02*
X191007571Y-149550380D01*
X190912333Y-149502761D01*
X190864714Y-149455142D01*
X190769476Y-149312285D01*
X190721857Y-149121809D01*
X190721857Y-148740857D01*
X190769476Y-148645619D01*
X190817095Y-148598000D01*
X190912333Y-148550380D01*
X191102809Y-148550380D01*
X191198047Y-148598000D01*
X191245666Y-148645619D01*
X191293285Y-148740857D01*
X191293285Y-148978952D01*
X191245666Y-149074190D01*
X191198047Y-149121809D01*
X191102809Y-149169428D01*
X190912333Y-149169428D01*
X190817095Y-149121809D01*
X190769476Y-149074190D01*
X190721857Y-148978952D01*
X190245666Y-149502761D02*
X190245666Y-149550380D01*
X190293285Y-149645619D01*
X190340904Y-149693238D01*
X189293285Y-149550380D02*
X189864714Y-149550380D01*
X189579000Y-149550380D02*
X189579000Y-148550380D01*
X189674238Y-148693238D01*
X189769476Y-148788476D01*
X189864714Y-148836095D01*
X189007571Y-148550380D02*
X188674238Y-149550380D01*
X188340904Y-148550380D01*
X187293285Y-148502761D02*
X188150428Y-149788476D01*
X186436142Y-149550380D02*
X187007571Y-149550380D01*
X186721857Y-149550380D02*
X186721857Y-148550380D01*
X186817095Y-148693238D01*
X186912333Y-148788476D01*
X187007571Y-148836095D01*
X185959952Y-149502761D02*
X185959952Y-149550380D01*
X186007571Y-149645619D01*
X186055190Y-149693238D01*
X185626619Y-148550380D02*
X185007571Y-148550380D01*
X185340904Y-148931333D01*
X185198047Y-148931333D01*
X185102809Y-148978952D01*
X185055190Y-149026571D01*
X185007571Y-149121809D01*
X185007571Y-149359904D01*
X185055190Y-149455142D01*
X185102809Y-149502761D01*
X185198047Y-149550380D01*
X185483761Y-149550380D01*
X185579000Y-149502761D01*
X185626619Y-149455142D01*
X184674238Y-148550380D02*
X184436142Y-149550380D01*
X184245666Y-148836095D01*
X184055190Y-149550380D01*
X183817095Y-148550380D01*
X193098704Y-149482380D02*
X193098704Y-148482380D01*
X192527276Y-149482380D02*
X192955847Y-148910952D01*
X192527276Y-148482380D02*
X193098704Y-149053809D01*
X191174666Y-132659666D02*
X191174666Y-133135857D01*
X191460380Y-132564428D02*
X190460380Y-132897761D01*
X191460380Y-133231095D01*
X190793714Y-133993000D02*
X191460380Y-133993000D01*
X190793714Y-133564428D02*
X191317523Y-133564428D01*
X191412761Y-133612047D01*
X191460380Y-133707285D01*
X191460380Y-133850142D01*
X191412761Y-133945380D01*
X191365142Y-133993000D01*
X191460380Y-134897761D02*
X190460380Y-134897761D01*
X191412761Y-134897761D02*
X191460380Y-134802523D01*
X191460380Y-134612047D01*
X191412761Y-134516809D01*
X191365142Y-134469190D01*
X191269904Y-134421571D01*
X190984190Y-134421571D01*
X190888952Y-134469190D01*
X190841333Y-134516809D01*
X190793714Y-134612047D01*
X190793714Y-134802523D01*
X190841333Y-134897761D01*
X191460380Y-135373952D02*
X190793714Y-135373952D01*
X190460380Y-135373952D02*
X190508000Y-135326333D01*
X190555619Y-135373952D01*
X190508000Y-135421571D01*
X190460380Y-135373952D01*
X190555619Y-135373952D01*
X191460380Y-135993000D02*
X191412761Y-135897761D01*
X191365142Y-135850142D01*
X191269904Y-135802523D01*
X190984190Y-135802523D01*
X190888952Y-135850142D01*
X190841333Y-135897761D01*
X190793714Y-135993000D01*
X190793714Y-136135857D01*
X190841333Y-136231095D01*
X190888952Y-136278714D01*
X190984190Y-136326333D01*
X191269904Y-136326333D01*
X191365142Y-136278714D01*
X191412761Y-136231095D01*
X191460380Y-136135857D01*
X191460380Y-135993000D01*
X164156106Y-141991847D02*
X164627511Y-142463251D01*
X164055091Y-141554114D02*
X164728526Y-141890832D01*
X164290793Y-142328564D01*
X163617358Y-142059190D02*
X163145954Y-142530595D01*
X164156106Y-142934656D01*
X162741893Y-142934656D02*
X162674549Y-143002000D01*
X162640877Y-143103015D01*
X162640877Y-143170358D01*
X162674549Y-143271374D01*
X162775564Y-143439732D01*
X162943923Y-143608091D01*
X163112282Y-143709106D01*
X163213297Y-143742778D01*
X163280641Y-143742778D01*
X163381656Y-143709106D01*
X163449000Y-143641763D01*
X163482671Y-143540748D01*
X163482671Y-143473404D01*
X163449000Y-143372389D01*
X163347984Y-143204030D01*
X163179625Y-143035671D01*
X163011267Y-142934656D01*
X162910251Y-142900984D01*
X162842908Y-142900984D01*
X162741893Y-142934656D01*
X162135801Y-144012152D02*
X162607206Y-144483557D01*
X162438847Y-143709106D02*
X162809236Y-144079496D01*
X162842908Y-144180511D01*
X162809236Y-144281526D01*
X162708221Y-144382541D01*
X162607206Y-144416213D01*
X162539862Y-144416213D01*
X152542619Y-140009571D02*
X152209285Y-140009571D01*
X152066428Y-140533380D02*
X152542619Y-140533380D01*
X152542619Y-139533380D01*
X152066428Y-139533380D01*
X151161666Y-140533380D02*
X151637857Y-140533380D01*
X151637857Y-139533380D01*
X150685476Y-139961952D02*
X150780714Y-139914333D01*
X150828333Y-139866714D01*
X150875952Y-139771476D01*
X150875952Y-139723857D01*
X150828333Y-139628619D01*
X150780714Y-139581000D01*
X150685476Y-139533380D01*
X150495000Y-139533380D01*
X150399761Y-139581000D01*
X150352142Y-139628619D01*
X150304523Y-139723857D01*
X150304523Y-139771476D01*
X150352142Y-139866714D01*
X150399761Y-139914333D01*
X150495000Y-139961952D01*
X150685476Y-139961952D01*
X150780714Y-140009571D01*
X150828333Y-140057190D01*
X150875952Y-140152428D01*
X150875952Y-140342904D01*
X150828333Y-140438142D01*
X150780714Y-140485761D01*
X150685476Y-140533380D01*
X150495000Y-140533380D01*
X150399761Y-140485761D01*
X150352142Y-140438142D01*
X150304523Y-140342904D01*
X150304523Y-140152428D01*
X150352142Y-140057190D01*
X150399761Y-140009571D01*
X150495000Y-139961952D01*
X149352142Y-140533380D02*
X149923571Y-140533380D01*
X149637857Y-140533380D02*
X149637857Y-139533380D01*
X149733095Y-139676238D01*
X149828333Y-139771476D01*
X149923571Y-139819095D01*
X149018809Y-139533380D02*
X148352142Y-139533380D01*
X148780714Y-140533380D01*
X148097619Y-140009571D02*
X147764285Y-140009571D01*
X147621428Y-140533380D02*
X148097619Y-140533380D01*
X148097619Y-139533380D01*
X147621428Y-139533380D01*
X146716666Y-140533380D02*
X147192857Y-140533380D01*
X147192857Y-139533380D01*
X146240476Y-139961952D02*
X146335714Y-139914333D01*
X146383333Y-139866714D01*
X146430952Y-139771476D01*
X146430952Y-139723857D01*
X146383333Y-139628619D01*
X146335714Y-139581000D01*
X146240476Y-139533380D01*
X146050000Y-139533380D01*
X145954761Y-139581000D01*
X145907142Y-139628619D01*
X145859523Y-139723857D01*
X145859523Y-139771476D01*
X145907142Y-139866714D01*
X145954761Y-139914333D01*
X146050000Y-139961952D01*
X146240476Y-139961952D01*
X146335714Y-140009571D01*
X146383333Y-140057190D01*
X146430952Y-140152428D01*
X146430952Y-140342904D01*
X146383333Y-140438142D01*
X146335714Y-140485761D01*
X146240476Y-140533380D01*
X146050000Y-140533380D01*
X145954761Y-140485761D01*
X145907142Y-140438142D01*
X145859523Y-140342904D01*
X145859523Y-140152428D01*
X145907142Y-140057190D01*
X145954761Y-140009571D01*
X146050000Y-139961952D01*
X144907142Y-140533380D02*
X145478571Y-140533380D01*
X145192857Y-140533380D02*
X145192857Y-139533380D01*
X145288095Y-139676238D01*
X145383333Y-139771476D01*
X145478571Y-139819095D01*
X144573809Y-139533380D02*
X143907142Y-139533380D01*
X144335714Y-140533380D01*
X154519238Y-144216380D02*
X155090666Y-144216380D01*
X154804952Y-144216380D02*
X154804952Y-143216380D01*
X154900190Y-143359238D01*
X154995428Y-143454476D01*
X155090666Y-143502095D01*
X153900190Y-143216380D02*
X153804952Y-143216380D01*
X153709714Y-143264000D01*
X153662095Y-143311619D01*
X153614476Y-143406857D01*
X153566857Y-143597333D01*
X153566857Y-143835428D01*
X153614476Y-144025904D01*
X153662095Y-144121142D01*
X153709714Y-144168761D01*
X153804952Y-144216380D01*
X153900190Y-144216380D01*
X153995428Y-144168761D01*
X154043047Y-144121142D01*
X154090666Y-144025904D01*
X154138285Y-143835428D01*
X154138285Y-143597333D01*
X154090666Y-143406857D01*
X154043047Y-143311619D01*
X153995428Y-143264000D01*
X153900190Y-143216380D01*
X153138285Y-144216380D02*
X153138285Y-143216380D01*
X153043047Y-143835428D02*
X152757333Y-144216380D01*
X152757333Y-143549714D02*
X153138285Y-143930666D01*
X171226748Y-121503488D02*
X171159404Y-121503488D01*
X171058389Y-121537160D01*
X170890030Y-121705519D01*
X170856358Y-121806534D01*
X170856358Y-121873877D01*
X170890030Y-121974893D01*
X170957374Y-122042236D01*
X171092061Y-122109580D01*
X171900183Y-122109580D01*
X171462450Y-122547312D01*
X170553312Y-122176923D02*
X170485969Y-122176923D01*
X170384954Y-122210595D01*
X170216595Y-122378954D01*
X170182923Y-122479969D01*
X170182923Y-122547312D01*
X170216595Y-122648328D01*
X170283938Y-122715671D01*
X170418625Y-122783015D01*
X171226748Y-122783015D01*
X170789015Y-123220748D01*
X169711519Y-123355435D02*
X170182923Y-123826839D01*
X170014564Y-123052389D02*
X170384954Y-123422778D01*
X170418625Y-123523793D01*
X170384954Y-123624809D01*
X170283938Y-123725824D01*
X170182923Y-123759496D01*
X170115580Y-123759496D01*
X170596511Y-143413748D02*
X170596511Y-143346404D01*
X170562839Y-143245389D01*
X170394480Y-143077030D01*
X170293465Y-143043358D01*
X170226122Y-143043358D01*
X170125106Y-143077030D01*
X170057763Y-143144374D01*
X169990419Y-143279061D01*
X169990419Y-144087183D01*
X169552687Y-143649450D01*
X169923076Y-142740312D02*
X169923076Y-142672969D01*
X169889404Y-142571954D01*
X169721045Y-142403595D01*
X169620030Y-142369923D01*
X169552687Y-142369923D01*
X169451671Y-142403595D01*
X169384328Y-142470938D01*
X169316984Y-142605625D01*
X169316984Y-143413748D01*
X168879251Y-142976015D01*
X168744564Y-141898519D02*
X168273160Y-142369923D01*
X169047610Y-142201564D02*
X168677221Y-142571954D01*
X168576206Y-142605625D01*
X168475190Y-142571954D01*
X168374175Y-142470938D01*
X168340503Y-142369923D01*
X168340503Y-142302580D01*
X148700857Y-120705571D02*
X148367523Y-120705571D01*
X148224666Y-121229380D02*
X148700857Y-121229380D01*
X148700857Y-120229380D01*
X148224666Y-120229380D01*
X147843714Y-121181761D02*
X147700857Y-121229380D01*
X147462761Y-121229380D01*
X147367523Y-121181761D01*
X147319904Y-121134142D01*
X147272285Y-121038904D01*
X147272285Y-120943666D01*
X147319904Y-120848428D01*
X147367523Y-120800809D01*
X147462761Y-120753190D01*
X147653238Y-120705571D01*
X147748476Y-120657952D01*
X147796095Y-120610333D01*
X147843714Y-120515095D01*
X147843714Y-120419857D01*
X147796095Y-120324619D01*
X147748476Y-120277000D01*
X147653238Y-120229380D01*
X147415142Y-120229380D01*
X147272285Y-120277000D01*
X146843714Y-121229380D02*
X146843714Y-120229380D01*
X146462761Y-120229380D01*
X146367523Y-120277000D01*
X146319904Y-120324619D01*
X146272285Y-120419857D01*
X146272285Y-120562714D01*
X146319904Y-120657952D01*
X146367523Y-120705571D01*
X146462761Y-120753190D01*
X146843714Y-120753190D01*
X145938952Y-120229380D02*
X145319904Y-120229380D01*
X145653238Y-120610333D01*
X145510380Y-120610333D01*
X145415142Y-120657952D01*
X145367523Y-120705571D01*
X145319904Y-120800809D01*
X145319904Y-121038904D01*
X145367523Y-121134142D01*
X145415142Y-121181761D01*
X145510380Y-121229380D01*
X145796095Y-121229380D01*
X145891333Y-121181761D01*
X145938952Y-121134142D01*
X144938952Y-120324619D02*
X144891333Y-120277000D01*
X144796095Y-120229380D01*
X144558000Y-120229380D01*
X144462761Y-120277000D01*
X144415142Y-120324619D01*
X144367523Y-120419857D01*
X144367523Y-120515095D01*
X144415142Y-120657952D01*
X144986571Y-121229380D01*
X144367523Y-121229380D01*
X130071238Y-150836380D02*
X129499809Y-150836380D01*
X129785523Y-151836380D02*
X129785523Y-150836380D01*
X129166476Y-151836380D02*
X129166476Y-150836380D01*
X128785523Y-150836380D01*
X128690285Y-150884000D01*
X128642666Y-150931619D01*
X128595047Y-151026857D01*
X128595047Y-151169714D01*
X128642666Y-151264952D01*
X128690285Y-151312571D01*
X128785523Y-151360190D01*
X129166476Y-151360190D01*
X128214095Y-151788761D02*
X128071238Y-151836380D01*
X127833142Y-151836380D01*
X127737904Y-151788761D01*
X127690285Y-151741142D01*
X127642666Y-151645904D01*
X127642666Y-151550666D01*
X127690285Y-151455428D01*
X127737904Y-151407809D01*
X127833142Y-151360190D01*
X128023619Y-151312571D01*
X128118857Y-151264952D01*
X128166476Y-151217333D01*
X128214095Y-151122095D01*
X128214095Y-151026857D01*
X128166476Y-150931619D01*
X128118857Y-150884000D01*
X128023619Y-150836380D01*
X127785523Y-150836380D01*
X127642666Y-150884000D01*
X126737904Y-150836380D02*
X127214095Y-150836380D01*
X127261714Y-151312571D01*
X127214095Y-151264952D01*
X127118857Y-151217333D01*
X126880761Y-151217333D01*
X126785523Y-151264952D01*
X126737904Y-151312571D01*
X126690285Y-151407809D01*
X126690285Y-151645904D01*
X126737904Y-151741142D01*
X126785523Y-151788761D01*
X126880761Y-151836380D01*
X127118857Y-151836380D01*
X127214095Y-151788761D01*
X127261714Y-151741142D01*
X125833142Y-151169714D02*
X125833142Y-151836380D01*
X126071238Y-150788761D02*
X126309333Y-151503047D01*
X125690285Y-151503047D01*
X125404571Y-150836380D02*
X124785523Y-150836380D01*
X125118857Y-151217333D01*
X124976000Y-151217333D01*
X124880761Y-151264952D01*
X124833142Y-151312571D01*
X124785523Y-151407809D01*
X124785523Y-151645904D01*
X124833142Y-151741142D01*
X124880761Y-151788761D01*
X124976000Y-151836380D01*
X125261714Y-151836380D01*
X125356952Y-151788761D01*
X125404571Y-151741142D01*
X124166476Y-150836380D02*
X124071238Y-150836380D01*
X123976000Y-150884000D01*
X123928380Y-150931619D01*
X123880761Y-151026857D01*
X123833142Y-151217333D01*
X123833142Y-151455428D01*
X123880761Y-151645904D01*
X123928380Y-151741142D01*
X123976000Y-151788761D01*
X124071238Y-151836380D01*
X124166476Y-151836380D01*
X124261714Y-151788761D01*
X124309333Y-151741142D01*
X124356952Y-151645904D01*
X124404571Y-151455428D01*
X124404571Y-151217333D01*
X124356952Y-151026857D01*
X124309333Y-150931619D01*
X124261714Y-150884000D01*
X124166476Y-150836380D01*
X123404571Y-151836380D02*
X123404571Y-150836380D01*
X123166476Y-150836380D01*
X123023619Y-150884000D01*
X122928380Y-150979238D01*
X122880761Y-151074476D01*
X122833142Y-151264952D01*
X122833142Y-151407809D01*
X122880761Y-151598285D01*
X122928380Y-151693523D01*
X123023619Y-151788761D01*
X123166476Y-151836380D01*
X123404571Y-151836380D01*
X122404571Y-151836380D02*
X122404571Y-150836380D01*
X122166476Y-150836380D01*
X122023619Y-150884000D01*
X121928380Y-150979238D01*
X121880761Y-151074476D01*
X121833142Y-151264952D01*
X121833142Y-151407809D01*
X121880761Y-151598285D01*
X121928380Y-151693523D01*
X122023619Y-151788761D01*
X122166476Y-151836380D01*
X122404571Y-151836380D01*
X121452190Y-151550666D02*
X120976000Y-151550666D01*
X121547428Y-151836380D02*
X121214095Y-150836380D01*
X120880761Y-151836380D01*
X134500714Y-127325380D02*
X134500714Y-126325380D01*
X134119761Y-126325380D01*
X134024523Y-126373000D01*
X133976904Y-126420619D01*
X133929285Y-126515857D01*
X133929285Y-126658714D01*
X133976904Y-126753952D01*
X134024523Y-126801571D01*
X134119761Y-126849190D01*
X134500714Y-126849190D01*
X132929285Y-127325380D02*
X133262619Y-126849190D01*
X133500714Y-127325380D02*
X133500714Y-126325380D01*
X133119761Y-126325380D01*
X133024523Y-126373000D01*
X132976904Y-126420619D01*
X132929285Y-126515857D01*
X132929285Y-126658714D01*
X132976904Y-126753952D01*
X133024523Y-126801571D01*
X133119761Y-126849190D01*
X133500714Y-126849190D01*
X132310238Y-126325380D02*
X132119761Y-126325380D01*
X132024523Y-126373000D01*
X131929285Y-126468238D01*
X131881666Y-126658714D01*
X131881666Y-126992047D01*
X131929285Y-127182523D01*
X132024523Y-127277761D01*
X132119761Y-127325380D01*
X132310238Y-127325380D01*
X132405476Y-127277761D01*
X132500714Y-127182523D01*
X132548333Y-126992047D01*
X132548333Y-126658714D01*
X132500714Y-126468238D01*
X132405476Y-126373000D01*
X132310238Y-126325380D01*
X130929285Y-126373000D02*
X131024523Y-126325380D01*
X131167380Y-126325380D01*
X131310238Y-126373000D01*
X131405476Y-126468238D01*
X131453095Y-126563476D01*
X131500714Y-126753952D01*
X131500714Y-126896809D01*
X131453095Y-127087285D01*
X131405476Y-127182523D01*
X131310238Y-127277761D01*
X131167380Y-127325380D01*
X131072142Y-127325380D01*
X130929285Y-127277761D01*
X130881666Y-127230142D01*
X130881666Y-126896809D01*
X131072142Y-126896809D01*
X167226190Y-105342260D02*
X167226190Y-104342260D01*
X166845238Y-104342260D01*
X166750000Y-104389880D01*
X166702380Y-104437499D01*
X166654761Y-104532737D01*
X166654761Y-104675594D01*
X166702380Y-104770832D01*
X166750000Y-104818451D01*
X166845238Y-104866070D01*
X167226190Y-104866070D01*
X166226190Y-105342260D02*
X166226190Y-104675594D01*
X166226190Y-104866070D02*
X166178571Y-104770832D01*
X166130952Y-104723213D01*
X166035714Y-104675594D01*
X165940476Y-104675594D01*
X165464285Y-105342260D02*
X165559523Y-105294641D01*
X165607142Y-105247022D01*
X165654761Y-105151784D01*
X165654761Y-104866070D01*
X165607142Y-104770832D01*
X165559523Y-104723213D01*
X165464285Y-104675594D01*
X165321428Y-104675594D01*
X165226190Y-104723213D01*
X165178571Y-104770832D01*
X165130952Y-104866070D01*
X165130952Y-105151784D01*
X165178571Y-105247022D01*
X165226190Y-105294641D01*
X165321428Y-105342260D01*
X165464285Y-105342260D01*
X164273809Y-104675594D02*
X164273809Y-105485118D01*
X164321428Y-105580356D01*
X164369047Y-105627975D01*
X164464285Y-105675594D01*
X164607142Y-105675594D01*
X164702380Y-105627975D01*
X164273809Y-105294641D02*
X164369047Y-105342260D01*
X164559523Y-105342260D01*
X164654761Y-105294641D01*
X164702380Y-105247022D01*
X164750000Y-105151784D01*
X164750000Y-104866070D01*
X164702380Y-104770832D01*
X164654761Y-104723213D01*
X164559523Y-104675594D01*
X164369047Y-104675594D01*
X164273809Y-104723213D01*
X165856152Y-123135106D02*
X165384748Y-123606511D01*
X166293885Y-123034091D02*
X165957167Y-123707526D01*
X165519435Y-123269793D01*
X165788809Y-122596358D02*
X165317404Y-122124954D01*
X164913343Y-123135106D01*
X164913343Y-121720893D02*
X164846000Y-121653549D01*
X164744984Y-121619877D01*
X164677641Y-121619877D01*
X164576625Y-121653549D01*
X164408267Y-121754564D01*
X164239908Y-121922923D01*
X164138893Y-122091282D01*
X164105221Y-122192297D01*
X164105221Y-122259641D01*
X164138893Y-122360656D01*
X164206236Y-122428000D01*
X164307251Y-122461671D01*
X164374595Y-122461671D01*
X164475610Y-122427999D01*
X164643969Y-122326984D01*
X164812328Y-122158625D01*
X164913343Y-121990267D01*
X164947015Y-121889251D01*
X164947015Y-121821908D01*
X164913343Y-121720893D01*
X163835847Y-121114801D02*
X163364442Y-121586206D01*
X164138893Y-121417847D02*
X163768503Y-121788236D01*
X163667488Y-121821908D01*
X163566473Y-121788236D01*
X163465458Y-121687221D01*
X163431786Y-121586206D01*
X163431786Y-121518862D01*
X179323857Y-129039880D02*
X179895285Y-129039880D01*
X179609571Y-129039880D02*
X179609571Y-128039880D01*
X179704809Y-128182738D01*
X179800047Y-128277976D01*
X179895285Y-128325595D01*
X178704809Y-128039880D02*
X178609571Y-128039880D01*
X178514333Y-128087500D01*
X178466714Y-128135119D01*
X178419095Y-128230357D01*
X178371476Y-128420833D01*
X178371476Y-128658928D01*
X178419095Y-128849404D01*
X178466714Y-128944642D01*
X178514333Y-128992261D01*
X178609571Y-129039880D01*
X178704809Y-129039880D01*
X178800047Y-128992261D01*
X178847666Y-128944642D01*
X178895285Y-128849404D01*
X178942904Y-128658928D01*
X178942904Y-128420833D01*
X178895285Y-128230357D01*
X178847666Y-128135119D01*
X178800047Y-128087500D01*
X178704809Y-128039880D01*
X177514333Y-128373214D02*
X177514333Y-129039880D01*
X177942904Y-128373214D02*
X177942904Y-128897023D01*
X177895285Y-128992261D01*
X177800047Y-129039880D01*
X177657190Y-129039880D01*
X177561952Y-128992261D01*
X177514333Y-128944642D01*
X179323857Y-119768880D02*
X179895285Y-119768880D01*
X179609571Y-119768880D02*
X179609571Y-118768880D01*
X179704809Y-118911738D01*
X179800047Y-119006976D01*
X179895285Y-119054595D01*
X178704809Y-118768880D02*
X178609571Y-118768880D01*
X178514333Y-118816500D01*
X178466714Y-118864119D01*
X178419095Y-118959357D01*
X178371476Y-119149833D01*
X178371476Y-119387928D01*
X178419095Y-119578404D01*
X178466714Y-119673642D01*
X178514333Y-119721261D01*
X178609571Y-119768880D01*
X178704809Y-119768880D01*
X178800047Y-119721261D01*
X178847666Y-119673642D01*
X178895285Y-119578404D01*
X178942904Y-119387928D01*
X178942904Y-119149833D01*
X178895285Y-118959357D01*
X178847666Y-118864119D01*
X178800047Y-118816500D01*
X178704809Y-118768880D01*
X177514333Y-119102214D02*
X177514333Y-119768880D01*
X177942904Y-119102214D02*
X177942904Y-119626023D01*
X177895285Y-119721261D01*
X177800047Y-119768880D01*
X177657190Y-119768880D01*
X177561952Y-119721261D01*
X177514333Y-119673642D01*
X178823857Y-138247380D02*
X179395285Y-138247380D01*
X179109571Y-138247380D02*
X179109571Y-137247380D01*
X179204809Y-137390238D01*
X179300047Y-137485476D01*
X179395285Y-137533095D01*
X178204809Y-137247380D02*
X178109571Y-137247380D01*
X178014333Y-137295000D01*
X177966714Y-137342619D01*
X177919095Y-137437857D01*
X177871476Y-137628333D01*
X177871476Y-137866428D01*
X177919095Y-138056904D01*
X177966714Y-138152142D01*
X178014333Y-138199761D01*
X178109571Y-138247380D01*
X178204809Y-138247380D01*
X178300047Y-138199761D01*
X178347666Y-138152142D01*
X178395285Y-138056904D01*
X178442904Y-137866428D01*
X178442904Y-137628333D01*
X178395285Y-137437857D01*
X178347666Y-137342619D01*
X178300047Y-137295000D01*
X178204809Y-137247380D01*
X177014333Y-137580714D02*
X177014333Y-138247380D01*
X177442904Y-137580714D02*
X177442904Y-138104523D01*
X177395285Y-138199761D01*
X177300047Y-138247380D01*
X177157190Y-138247380D01*
X177061952Y-138199761D01*
X177014333Y-138152142D01*
X188226057Y-147518380D02*
X188797485Y-147518380D01*
X188511771Y-147518380D02*
X188511771Y-146518380D01*
X188607009Y-146661238D01*
X188702247Y-146756476D01*
X188797485Y-146804095D01*
X187607009Y-146518380D02*
X187511771Y-146518380D01*
X187416533Y-146566000D01*
X187368914Y-146613619D01*
X187321295Y-146708857D01*
X187273676Y-146899333D01*
X187273676Y-147137428D01*
X187321295Y-147327904D01*
X187368914Y-147423142D01*
X187416533Y-147470761D01*
X187511771Y-147518380D01*
X187607009Y-147518380D01*
X187702247Y-147470761D01*
X187749866Y-147423142D01*
X187797485Y-147327904D01*
X187845104Y-147137428D01*
X187845104Y-146899333D01*
X187797485Y-146708857D01*
X187749866Y-146613619D01*
X187702247Y-146566000D01*
X187607009Y-146518380D01*
X186416533Y-146851714D02*
X186416533Y-147518380D01*
X186845104Y-146851714D02*
X186845104Y-147375523D01*
X186797485Y-147470761D01*
X186702247Y-147518380D01*
X186559390Y-147518380D01*
X186464152Y-147470761D01*
X186416533Y-147423142D01*
X122967238Y-153947761D02*
X122824380Y-153995380D01*
X122586285Y-153995380D01*
X122491047Y-153947761D01*
X122443428Y-153900142D01*
X122395809Y-153804904D01*
X122395809Y-153709666D01*
X122443428Y-153614428D01*
X122491047Y-153566809D01*
X122586285Y-153519190D01*
X122776761Y-153471571D01*
X122872000Y-153423952D01*
X122919619Y-153376333D01*
X122967238Y-153281095D01*
X122967238Y-153185857D01*
X122919619Y-153090619D01*
X122872000Y-153043000D01*
X122776761Y-152995380D01*
X122538666Y-152995380D01*
X122395809Y-153043000D01*
X121586285Y-153947761D02*
X121681523Y-153995380D01*
X121872000Y-153995380D01*
X121967238Y-153947761D01*
X122014857Y-153852523D01*
X122014857Y-153471571D01*
X121967238Y-153376333D01*
X121872000Y-153328714D01*
X121681523Y-153328714D01*
X121586285Y-153376333D01*
X121538666Y-153471571D01*
X121538666Y-153566809D01*
X122014857Y-153662047D01*
X121110095Y-153328714D02*
X121110095Y-153995380D01*
X121110095Y-153423952D02*
X121062476Y-153376333D01*
X120967238Y-153328714D01*
X120824380Y-153328714D01*
X120729142Y-153376333D01*
X120681523Y-153471571D01*
X120681523Y-153995380D01*
X120252952Y-153947761D02*
X120157714Y-153995380D01*
X119967238Y-153995380D01*
X119872000Y-153947761D01*
X119824380Y-153852523D01*
X119824380Y-153804904D01*
X119872000Y-153709666D01*
X119967238Y-153662047D01*
X120110095Y-153662047D01*
X120205333Y-153614428D01*
X120252952Y-153519190D01*
X120252952Y-153471571D01*
X120205333Y-153376333D01*
X120110095Y-153328714D01*
X119967238Y-153328714D01*
X119872000Y-153376333D01*
X118967238Y-153995380D02*
X118967238Y-153471571D01*
X119014857Y-153376333D01*
X119110095Y-153328714D01*
X119300571Y-153328714D01*
X119395809Y-153376333D01*
X118967238Y-153947761D02*
X119062476Y-153995380D01*
X119300571Y-153995380D01*
X119395809Y-153947761D01*
X119443428Y-153852523D01*
X119443428Y-153757285D01*
X119395809Y-153662047D01*
X119300571Y-153614428D01*
X119062476Y-153614428D01*
X118967238Y-153566809D01*
X118062476Y-153947761D02*
X118157714Y-153995380D01*
X118348190Y-153995380D01*
X118443428Y-153947761D01*
X118491047Y-153900142D01*
X118538666Y-153804904D01*
X118538666Y-153519190D01*
X118491047Y-153423952D01*
X118443428Y-153376333D01*
X118348190Y-153328714D01*
X118157714Y-153328714D01*
X118062476Y-153376333D01*
X117776761Y-153328714D02*
X117395809Y-153328714D01*
X117633904Y-152995380D02*
X117633904Y-153852523D01*
X117586285Y-153947761D01*
X117491047Y-153995380D01*
X117395809Y-153995380D01*
X116729142Y-153471571D02*
X116586285Y-153519190D01*
X116538666Y-153566809D01*
X116491047Y-153662047D01*
X116491047Y-153804904D01*
X116538666Y-153900142D01*
X116586285Y-153947761D01*
X116681523Y-153995380D01*
X117062476Y-153995380D01*
X117062476Y-152995380D01*
X116729142Y-152995380D01*
X116633904Y-153043000D01*
X116586285Y-153090619D01*
X116538666Y-153185857D01*
X116538666Y-153281095D01*
X116586285Y-153376333D01*
X116633904Y-153423952D01*
X116729142Y-153471571D01*
X117062476Y-153471571D01*
X115633904Y-153328714D02*
X115633904Y-153995380D01*
X116062476Y-153328714D02*
X116062476Y-153852523D01*
X116014857Y-153947761D01*
X115919619Y-153995380D01*
X115776761Y-153995380D01*
X115681523Y-153947761D01*
X115633904Y-153900142D01*
X115205333Y-153947761D02*
X115110095Y-153995380D01*
X114919619Y-153995380D01*
X114824380Y-153947761D01*
X114776761Y-153852523D01*
X114776761Y-153804904D01*
X114824380Y-153709666D01*
X114919619Y-153662047D01*
X115062476Y-153662047D01*
X115157714Y-153614428D01*
X115205333Y-153519190D01*
X115205333Y-153471571D01*
X115157714Y-153376333D01*
X115062476Y-153328714D01*
X114919619Y-153328714D01*
X114824380Y-153376333D01*
X118675899Y-118455099D02*
X118675899Y-116850036D01*
X118675899Y-117614352D02*
X117758720Y-117614352D01*
X117758720Y-118455099D02*
X117758720Y-116850036D01*
X116077225Y-118455099D02*
X116612246Y-117690784D01*
X116994404Y-118455099D02*
X116994404Y-116850036D01*
X116382952Y-116850036D01*
X116230089Y-116926468D01*
X116153657Y-117002900D01*
X116077225Y-117155763D01*
X116077225Y-117385057D01*
X116153657Y-117537921D01*
X116230089Y-117614352D01*
X116382952Y-117690784D01*
X116994404Y-117690784D01*
X115312910Y-118455099D02*
X115007183Y-118455099D01*
X114854320Y-118378668D01*
X114777889Y-118302236D01*
X114625026Y-118072942D01*
X114548594Y-117767215D01*
X114548594Y-117155763D01*
X114625026Y-117002900D01*
X114701457Y-116926468D01*
X114854320Y-116850036D01*
X115160047Y-116850036D01*
X115312910Y-116926468D01*
X115389341Y-117002900D01*
X115465773Y-117155763D01*
X115465773Y-117537921D01*
X115389341Y-117690784D01*
X115312910Y-117767215D01*
X115160047Y-117843647D01*
X114854320Y-117843647D01*
X114701457Y-117767215D01*
X114625026Y-117690784D01*
X114548594Y-117537921D01*
X113019963Y-118455099D02*
X113937141Y-118455099D01*
X113478552Y-118455099D02*
X113478552Y-116850036D01*
X113631415Y-117079331D01*
X113784278Y-117232194D01*
X113937141Y-117308626D01*
X111491331Y-118455099D02*
X112408510Y-118455099D01*
X111949921Y-118455099D02*
X111949921Y-116850036D01*
X112102784Y-117079331D01*
X112255647Y-117232194D01*
X112408510Y-117308626D01*
X109962700Y-118455099D02*
X110879879Y-118455099D01*
X110421289Y-118455099D02*
X110421289Y-116850036D01*
X110574152Y-117079331D01*
X110727015Y-117232194D01*
X110879879Y-117308626D01*
X108969089Y-116850036D02*
X108816226Y-116850036D01*
X108663363Y-116926468D01*
X108586931Y-117002900D01*
X108510500Y-117155763D01*
X108434068Y-117461489D01*
X108434068Y-117843647D01*
X108510500Y-118149373D01*
X108586931Y-118302236D01*
X108663363Y-118378668D01*
X108816226Y-118455099D01*
X108969089Y-118455099D01*
X109121952Y-118378668D01*
X109198384Y-118302236D01*
X109274816Y-118149373D01*
X109351247Y-117843647D01*
X109351247Y-117461489D01*
X109274816Y-117155763D01*
X109198384Y-117002900D01*
X109121952Y-116926468D01*
X108969089Y-116850036D01*
X106981868Y-116850036D02*
X107746184Y-116850036D01*
X107822616Y-117614352D01*
X107746184Y-117537921D01*
X107593321Y-117461489D01*
X107211163Y-117461489D01*
X107058300Y-117537921D01*
X106981868Y-117614352D01*
X106905437Y-117767215D01*
X106905437Y-118149373D01*
X106981868Y-118302236D01*
X107058300Y-118378668D01*
X107211163Y-118455099D01*
X107593321Y-118455099D01*
X107746184Y-118378668D01*
X107822616Y-118302236D01*
X106293984Y-117996510D02*
X105529669Y-117996510D01*
X106446847Y-118455099D02*
X105911826Y-116850036D01*
X105376805Y-118455099D01*
X143248047Y-146629380D02*
X143819476Y-146629380D01*
X143533761Y-146629380D02*
X143533761Y-145629380D01*
X143629000Y-145772238D01*
X143724238Y-145867476D01*
X143819476Y-145915095D01*
X142819476Y-146629380D02*
X142819476Y-145629380D01*
X142724238Y-146248428D02*
X142438523Y-146629380D01*
X142438523Y-145962714D02*
X142819476Y-146343666D01*
X141406476Y-143676714D02*
X141406476Y-144343380D01*
X141644571Y-143295761D02*
X141882666Y-144010047D01*
X141263619Y-144010047D01*
X140882666Y-144343380D02*
X140882666Y-143343380D01*
X140787428Y-143962428D02*
X140501714Y-144343380D01*
X140501714Y-143676714D02*
X140882666Y-144057666D01*
X140168380Y-143343380D02*
X139501714Y-143343380D01*
X139930285Y-144343380D01*
X138263238Y-144343380D02*
X138834666Y-144343380D01*
X138548952Y-144343380D02*
X138548952Y-143343380D01*
X138644190Y-143486238D01*
X138739428Y-143581476D01*
X138834666Y-143629095D01*
X137644190Y-143343380D02*
X137548952Y-143343380D01*
X137453714Y-143391000D01*
X137406095Y-143438619D01*
X137358476Y-143533857D01*
X137310857Y-143724333D01*
X137310857Y-143962428D01*
X137358476Y-144152904D01*
X137406095Y-144248142D01*
X137453714Y-144295761D01*
X137548952Y-144343380D01*
X137644190Y-144343380D01*
X137739428Y-144295761D01*
X137787047Y-144248142D01*
X137834666Y-144152904D01*
X137882285Y-143962428D01*
X137882285Y-143724333D01*
X137834666Y-143533857D01*
X137787047Y-143438619D01*
X137739428Y-143391000D01*
X137644190Y-143343380D01*
X136882285Y-144343380D02*
X136882285Y-143343380D01*
X136787047Y-143962428D02*
X136501333Y-144343380D01*
X136501333Y-143676714D02*
X136882285Y-144057666D01*
X126495085Y-139400019D02*
X126447466Y-139352400D01*
X126352228Y-139304780D01*
X126114133Y-139304780D01*
X126018895Y-139352400D01*
X125971276Y-139400019D01*
X125923657Y-139495257D01*
X125923657Y-139590495D01*
X125971276Y-139733352D01*
X126542704Y-140304780D01*
X125923657Y-140304780D01*
X125542704Y-140019066D02*
X125066514Y-140019066D01*
X125637942Y-140304780D02*
X125304609Y-139304780D01*
X124971276Y-140304780D01*
X140325361Y-134615180D02*
X140325361Y-133948514D01*
X140325361Y-134043752D02*
X140277742Y-133996133D01*
X140182504Y-133948514D01*
X140039647Y-133948514D01*
X139944409Y-133996133D01*
X139896790Y-134091371D01*
X139896790Y-134615180D01*
X139896790Y-134091371D02*
X139849171Y-133996133D01*
X139753933Y-133948514D01*
X139611076Y-133948514D01*
X139515838Y-133996133D01*
X139468219Y-134091371D01*
X139468219Y-134615180D01*
X138468219Y-134615180D02*
X139039647Y-134615180D01*
X138753933Y-134615180D02*
X138753933Y-133615180D01*
X138849171Y-133758038D01*
X138944409Y-133853276D01*
X139039647Y-133900895D01*
X140198361Y-140076180D02*
X140198361Y-139409514D01*
X140198361Y-139504752D02*
X140150742Y-139457133D01*
X140055504Y-139409514D01*
X139912647Y-139409514D01*
X139817409Y-139457133D01*
X139769790Y-139552371D01*
X139769790Y-140076180D01*
X139769790Y-139552371D02*
X139722171Y-139457133D01*
X139626933Y-139409514D01*
X139484076Y-139409514D01*
X139388838Y-139457133D01*
X139341219Y-139552371D01*
X139341219Y-140076180D01*
X138341219Y-140076180D02*
X138912647Y-140076180D01*
X138626933Y-140076180D02*
X138626933Y-139076180D01*
X138722171Y-139219038D01*
X138817409Y-139314276D01*
X138912647Y-139361895D01*
X143474961Y-142285980D02*
X143474961Y-141619314D01*
X143474961Y-141714552D02*
X143427342Y-141666933D01*
X143332104Y-141619314D01*
X143189247Y-141619314D01*
X143094009Y-141666933D01*
X143046390Y-141762171D01*
X143046390Y-142285980D01*
X143046390Y-141762171D02*
X142998771Y-141666933D01*
X142903533Y-141619314D01*
X142760676Y-141619314D01*
X142665438Y-141666933D01*
X142617819Y-141762171D01*
X142617819Y-142285980D01*
X141617819Y-142285980D02*
X142189247Y-142285980D01*
X141903533Y-142285980D02*
X141903533Y-141285980D01*
X141998771Y-141428838D01*
X142094009Y-141524076D01*
X142189247Y-141571695D01*
X140325361Y-132456180D02*
X140325361Y-131789514D01*
X140325361Y-131884752D02*
X140277742Y-131837133D01*
X140182504Y-131789514D01*
X140039647Y-131789514D01*
X139944409Y-131837133D01*
X139896790Y-131932371D01*
X139896790Y-132456180D01*
X139896790Y-131932371D02*
X139849171Y-131837133D01*
X139753933Y-131789514D01*
X139611076Y-131789514D01*
X139515838Y-131837133D01*
X139468219Y-131932371D01*
X139468219Y-132456180D01*
X138468219Y-132456180D02*
X139039647Y-132456180D01*
X138753933Y-132456180D02*
X138753933Y-131456180D01*
X138849171Y-131599038D01*
X138944409Y-131694276D01*
X139039647Y-131741895D01*
X135643857Y-141930380D02*
X136215285Y-141930380D01*
X135929571Y-141930380D02*
X135929571Y-140930380D01*
X136024809Y-141073238D01*
X136120047Y-141168476D01*
X136215285Y-141216095D01*
X135024809Y-140930380D02*
X134929571Y-140930380D01*
X134834333Y-140978000D01*
X134786714Y-141025619D01*
X134739095Y-141120857D01*
X134691476Y-141311333D01*
X134691476Y-141549428D01*
X134739095Y-141739904D01*
X134786714Y-141835142D01*
X134834333Y-141882761D01*
X134929571Y-141930380D01*
X135024809Y-141930380D01*
X135120047Y-141882761D01*
X135167666Y-141835142D01*
X135215285Y-141739904D01*
X135262904Y-141549428D01*
X135262904Y-141311333D01*
X135215285Y-141120857D01*
X135167666Y-141025619D01*
X135120047Y-140978000D01*
X135024809Y-140930380D01*
X134262904Y-141263714D02*
X134262904Y-141930380D01*
X134262904Y-141358952D02*
X134215285Y-141311333D01*
X134120047Y-141263714D01*
X133977190Y-141263714D01*
X133881952Y-141311333D01*
X133834333Y-141406571D01*
X133834333Y-141930380D01*
X122435857Y-143327380D02*
X123007285Y-143327380D01*
X122721571Y-143327380D02*
X122721571Y-142327380D01*
X122816809Y-142470238D01*
X122912047Y-142565476D01*
X123007285Y-142613095D01*
X121816809Y-142327380D02*
X121721571Y-142327380D01*
X121626333Y-142375000D01*
X121578714Y-142422619D01*
X121531095Y-142517857D01*
X121483476Y-142708333D01*
X121483476Y-142946428D01*
X121531095Y-143136904D01*
X121578714Y-143232142D01*
X121626333Y-143279761D01*
X121721571Y-143327380D01*
X121816809Y-143327380D01*
X121912047Y-143279761D01*
X121959666Y-143232142D01*
X122007285Y-143136904D01*
X122054904Y-142946428D01*
X122054904Y-142708333D01*
X122007285Y-142517857D01*
X121959666Y-142422619D01*
X121912047Y-142375000D01*
X121816809Y-142327380D01*
X120626333Y-142660714D02*
X120626333Y-143327380D01*
X121054904Y-142660714D02*
X121054904Y-143184523D01*
X121007285Y-143279761D01*
X120912047Y-143327380D01*
X120769190Y-143327380D01*
X120673952Y-143279761D01*
X120626333Y-143232142D01*
X191365142Y-113054142D02*
X191412761Y-113006523D01*
X191460380Y-112863666D01*
X191460380Y-112768428D01*
X191412761Y-112625571D01*
X191317523Y-112530333D01*
X191222285Y-112482714D01*
X191031809Y-112435095D01*
X190888952Y-112435095D01*
X190698476Y-112482714D01*
X190603238Y-112530333D01*
X190508000Y-112625571D01*
X190460380Y-112768428D01*
X190460380Y-112863666D01*
X190508000Y-113006523D01*
X190555619Y-113054142D01*
X191174666Y-113435095D02*
X191174666Y-113911285D01*
X191460380Y-113339857D02*
X190460380Y-113673190D01*
X191460380Y-114006523D01*
X191460380Y-114339857D02*
X190460380Y-114339857D01*
X191460380Y-114911285D01*
X190460380Y-114911285D01*
X191079428Y-115387476D02*
X191079428Y-116149380D01*
X191460380Y-115768428D02*
X190698476Y-115768428D01*
X190555619Y-116577952D02*
X190508000Y-116625571D01*
X190460380Y-116720809D01*
X190460380Y-116958904D01*
X190508000Y-117054142D01*
X190555619Y-117101761D01*
X190650857Y-117149380D01*
X190746095Y-117149380D01*
X190888952Y-117101761D01*
X191460380Y-116530333D01*
X191460380Y-117149380D01*
X190793714Y-118006523D02*
X191460380Y-118006523D01*
X190412761Y-117768428D02*
X191127047Y-117530333D01*
X191127047Y-118149380D01*
X190460380Y-118387476D02*
X191460380Y-118720809D01*
X190460380Y-119054142D01*
X156066666Y-126579380D02*
X155495238Y-126579380D01*
X155780952Y-127579380D02*
X155780952Y-126579380D01*
X155209523Y-127293666D02*
X154733333Y-127293666D01*
X155304761Y-127579380D02*
X154971428Y-126579380D01*
X154638095Y-127579380D01*
X154352380Y-127531761D02*
X154209523Y-127579380D01*
X153971428Y-127579380D01*
X153876190Y-127531761D01*
X153828571Y-127484142D01*
X153780952Y-127388904D01*
X153780952Y-127293666D01*
X153828571Y-127198428D01*
X153876190Y-127150809D01*
X153971428Y-127103190D01*
X154161904Y-127055571D01*
X154257142Y-127007952D01*
X154304761Y-126960333D01*
X154352380Y-126865095D01*
X154352380Y-126769857D01*
X154304761Y-126674619D01*
X154257142Y-126627000D01*
X154161904Y-126579380D01*
X153923809Y-126579380D01*
X153780952Y-126627000D01*
X152876190Y-126579380D02*
X153352380Y-126579380D01*
X153400000Y-127055571D01*
X153352380Y-127007952D01*
X153257142Y-126960333D01*
X153019047Y-126960333D01*
X152923809Y-127007952D01*
X152876190Y-127055571D01*
X152828571Y-127150809D01*
X152828571Y-127388904D01*
X152876190Y-127484142D01*
X152923809Y-127531761D01*
X153019047Y-127579380D01*
X153257142Y-127579380D01*
X153352380Y-127531761D01*
X153400000Y-127484142D01*
X152257142Y-127007952D02*
X152352380Y-126960333D01*
X152400000Y-126912714D01*
X152447619Y-126817476D01*
X152447619Y-126769857D01*
X152400000Y-126674619D01*
X152352380Y-126627000D01*
X152257142Y-126579380D01*
X152066666Y-126579380D01*
X151971428Y-126627000D01*
X151923809Y-126674619D01*
X151876190Y-126769857D01*
X151876190Y-126817476D01*
X151923809Y-126912714D01*
X151971428Y-126960333D01*
X152066666Y-127007952D01*
X152257142Y-127007952D01*
X152352380Y-127055571D01*
X152400000Y-127103190D01*
X152447619Y-127198428D01*
X152447619Y-127388904D01*
X152400000Y-127484142D01*
X152352380Y-127531761D01*
X152257142Y-127579380D01*
X152066666Y-127579380D01*
X151971428Y-127531761D01*
X151923809Y-127484142D01*
X151876190Y-127388904D01*
X151876190Y-127198428D01*
X151923809Y-127103190D01*
X151971428Y-127055571D01*
X152066666Y-127007952D01*
X151257142Y-126579380D02*
X151161904Y-126579380D01*
X151066666Y-126627000D01*
X151019047Y-126674619D01*
X150971428Y-126769857D01*
X150923809Y-126960333D01*
X150923809Y-127198428D01*
X150971428Y-127388904D01*
X151019047Y-127484142D01*
X151066666Y-127531761D01*
X151161904Y-127579380D01*
X151257142Y-127579380D01*
X151352380Y-127531761D01*
X151400000Y-127484142D01*
X151447619Y-127388904D01*
X151495238Y-127198428D01*
X151495238Y-126960333D01*
X151447619Y-126769857D01*
X151400000Y-126674619D01*
X151352380Y-126627000D01*
X151257142Y-126579380D01*
X150019047Y-126579380D02*
X150495238Y-126579380D01*
X150542857Y-127055571D01*
X150495238Y-127007952D01*
X150399999Y-126960333D01*
X150161904Y-126960333D01*
X150066666Y-127007952D01*
X150019047Y-127055571D01*
X149971428Y-127150809D01*
X149971428Y-127388904D01*
X150019047Y-127484142D01*
X150066666Y-127531761D01*
X150161904Y-127579380D01*
X150399999Y-127579380D01*
X150495238Y-127531761D01*
X150542857Y-127484142D01*
X149542857Y-127579380D02*
X149542857Y-126579380D01*
X149209523Y-127293666D01*
X148876190Y-126579380D01*
X148876190Y-127579380D01*
X155249476Y-140120714D02*
X155249476Y-140787380D01*
X155487571Y-139739761D02*
X155725666Y-140454047D01*
X155106619Y-140454047D01*
X154725666Y-140787380D02*
X154725666Y-139787380D01*
X154630428Y-140406428D02*
X154344714Y-140787380D01*
X154344714Y-140120714D02*
X154725666Y-140501666D01*
X154011380Y-139787380D02*
X153344714Y-139787380D01*
X153773285Y-140787380D01*
X164028285Y-106354619D02*
X163980666Y-106307000D01*
X163885428Y-106259380D01*
X163647333Y-106259380D01*
X163552095Y-106307000D01*
X163504476Y-106354619D01*
X163456857Y-106449857D01*
X163456857Y-106545095D01*
X163504476Y-106687952D01*
X164075904Y-107259380D01*
X163456857Y-107259380D01*
X163075904Y-106354619D02*
X163028285Y-106307000D01*
X162933047Y-106259380D01*
X162694952Y-106259380D01*
X162599714Y-106307000D01*
X162552095Y-106354619D01*
X162504476Y-106449857D01*
X162504476Y-106545095D01*
X162552095Y-106687952D01*
X163123523Y-107259380D01*
X162504476Y-107259380D01*
X161647333Y-106592714D02*
X161647333Y-107259380D01*
X162075904Y-106592714D02*
X162075904Y-107116523D01*
X162028285Y-107211761D01*
X161933047Y-107259380D01*
X161790190Y-107259380D01*
X161694952Y-107211761D01*
X161647333Y-107164142D01*
X158376904Y-103671714D02*
X158376904Y-104338380D01*
X158805476Y-103671714D02*
X158805476Y-104195523D01*
X158757857Y-104290761D01*
X158662619Y-104338380D01*
X158519761Y-104338380D01*
X158424523Y-104290761D01*
X158376904Y-104243142D01*
X157376904Y-104338380D02*
X157948333Y-104338380D01*
X157662619Y-104338380D02*
X157662619Y-103338380D01*
X157757857Y-103481238D01*
X157853095Y-103576476D01*
X157948333Y-103624095D01*
X127312704Y-112764914D02*
X127312704Y-113431580D01*
X127741276Y-112764914D02*
X127741276Y-113288723D01*
X127693657Y-113383961D01*
X127598419Y-113431580D01*
X127455561Y-113431580D01*
X127360323Y-113383961D01*
X127312704Y-113336342D01*
X126312704Y-113431580D02*
X126884133Y-113431580D01*
X126598419Y-113431580D02*
X126598419Y-112431580D01*
X126693657Y-112574438D01*
X126788895Y-112669676D01*
X126884133Y-112717295D01*
X127290904Y-122721714D02*
X127290904Y-123388380D01*
X127719476Y-122721714D02*
X127719476Y-123245523D01*
X127671857Y-123340761D01*
X127576619Y-123388380D01*
X127433761Y-123388380D01*
X127338523Y-123340761D01*
X127290904Y-123293142D01*
X126290904Y-123388380D02*
X126862333Y-123388380D01*
X126576619Y-123388380D02*
X126576619Y-122388380D01*
X126671857Y-122531238D01*
X126767095Y-122626476D01*
X126862333Y-122674095D01*
X133865904Y-117451214D02*
X133865904Y-118117880D01*
X134294476Y-117451214D02*
X134294476Y-117975023D01*
X134246857Y-118070261D01*
X134151619Y-118117880D01*
X134008761Y-118117880D01*
X133913523Y-118070261D01*
X133865904Y-118022642D01*
X132865904Y-118117880D02*
X133437333Y-118117880D01*
X133151619Y-118117880D02*
X133151619Y-117117880D01*
X133246857Y-117260738D01*
X133342095Y-117355976D01*
X133437333Y-117403595D01*
X134691285Y-111434619D02*
X134643666Y-111387000D01*
X134548428Y-111339380D01*
X134310333Y-111339380D01*
X134215095Y-111387000D01*
X134167476Y-111434619D01*
X134119857Y-111529857D01*
X134119857Y-111625095D01*
X134167476Y-111767952D01*
X134738904Y-112339380D01*
X134119857Y-112339380D01*
X133262714Y-111672714D02*
X133262714Y-112339380D01*
X133691285Y-111672714D02*
X133691285Y-112196523D01*
X133643666Y-112291761D01*
X133548428Y-112339380D01*
X133405571Y-112339380D01*
X133310333Y-112291761D01*
X133262714Y-112244142D01*
X132834142Y-111434619D02*
X132786523Y-111387000D01*
X132691285Y-111339380D01*
X132453190Y-111339380D01*
X132357952Y-111387000D01*
X132310333Y-111434619D01*
X132262714Y-111529857D01*
X132262714Y-111625095D01*
X132310333Y-111767952D01*
X132881761Y-112339380D01*
X132262714Y-112339380D01*
X133256303Y-113681115D02*
X133256303Y-114347781D01*
X133684875Y-113681115D02*
X133684875Y-114204924D01*
X133637256Y-114300162D01*
X133542018Y-114347781D01*
X133399160Y-114347781D01*
X133303922Y-114300162D01*
X133256303Y-114252543D01*
X132256303Y-114347781D02*
X132827732Y-114347781D01*
X132542018Y-114347781D02*
X132542018Y-113347781D01*
X132637256Y-113490639D01*
X132732494Y-113585877D01*
X132827732Y-113633496D01*
X159392904Y-110910714D02*
X159392904Y-111577380D01*
X159821476Y-110910714D02*
X159821476Y-111434523D01*
X159773857Y-111529761D01*
X159678619Y-111577380D01*
X159535761Y-111577380D01*
X159440523Y-111529761D01*
X159392904Y-111482142D01*
X158392904Y-111577380D02*
X158964333Y-111577380D01*
X158678619Y-111577380D02*
X158678619Y-110577380D01*
X158773857Y-110720238D01*
X158869095Y-110815476D01*
X158964333Y-110863095D01*
X142533714Y-136263095D02*
X143200380Y-136263095D01*
X142533714Y-135834523D02*
X143057523Y-135834523D01*
X143152761Y-135882142D01*
X143200380Y-135977380D01*
X143200380Y-136120238D01*
X143152761Y-136215476D01*
X143105142Y-136263095D01*
X143200380Y-137263095D02*
X143200380Y-136691666D01*
X143200380Y-136977380D02*
X142200380Y-136977380D01*
X142343238Y-136882142D01*
X142438476Y-136786904D01*
X142486095Y-136691666D01*
X143200380Y-134834333D02*
X143200380Y-134262904D01*
X143200380Y-134548619D02*
X142200380Y-134548619D01*
X142343238Y-134453380D01*
X142438476Y-134358142D01*
X142486095Y-134262904D01*
X142533714Y-135691476D02*
X143200380Y-135691476D01*
X142533714Y-135262904D02*
X143057523Y-135262904D01*
X143152761Y-135310523D01*
X143200380Y-135405761D01*
X143200380Y-135548619D01*
X143152761Y-135643857D01*
X143105142Y-135691476D01*
X172549374Y-130881450D02*
X172077969Y-131352854D01*
X172852419Y-131184496D02*
X172482030Y-131554885D01*
X172381015Y-131588557D01*
X172280000Y-131554885D01*
X172178984Y-131453870D01*
X172145313Y-131352854D01*
X172145313Y-131285511D01*
X172414687Y-130410045D02*
X172414687Y-130342702D01*
X172381015Y-130241686D01*
X172212656Y-130073328D01*
X172111641Y-130039656D01*
X172044297Y-130039656D01*
X171943282Y-130073328D01*
X171875939Y-130140671D01*
X171808595Y-130275358D01*
X171808595Y-131083480D01*
X171370862Y-130645748D01*
X171741251Y-129736610D02*
X171741251Y-129669267D01*
X171707580Y-129568251D01*
X171539221Y-129399893D01*
X171438206Y-129366221D01*
X171370862Y-129366221D01*
X171269847Y-129399893D01*
X171202503Y-129467236D01*
X171135160Y-129601923D01*
X171135160Y-130410045D01*
X170697427Y-129972312D01*
X171488435Y-126989389D02*
X171017030Y-127460793D01*
X171791480Y-127292435D02*
X171421091Y-127662824D01*
X171320076Y-127696496D01*
X171219061Y-127662824D01*
X171118045Y-127561809D01*
X171084374Y-127460793D01*
X171084374Y-127393450D01*
X171353748Y-126517984D02*
X171353748Y-126450641D01*
X171320076Y-126349625D01*
X171151717Y-126181267D01*
X171050702Y-126147595D01*
X170983358Y-126147595D01*
X170882343Y-126181267D01*
X170815000Y-126248610D01*
X170747656Y-126383297D01*
X170747656Y-127191419D01*
X170309923Y-126753687D01*
X170680312Y-125844549D02*
X170680312Y-125777206D01*
X170646641Y-125676190D01*
X170478282Y-125507832D01*
X170377267Y-125474160D01*
X170309923Y-125474160D01*
X170208908Y-125507832D01*
X170141564Y-125575175D01*
X170074221Y-125709862D01*
X170074221Y-126517984D01*
X169636488Y-126080251D01*
X170251450Y-133520625D02*
X170722854Y-133992030D01*
X170554496Y-133217580D02*
X170924885Y-133587969D01*
X170958557Y-133688984D01*
X170924885Y-133789999D01*
X170823870Y-133891015D01*
X170722854Y-133924686D01*
X170655511Y-133924686D01*
X169780045Y-133655312D02*
X169712702Y-133655312D01*
X169611686Y-133688984D01*
X169443328Y-133857343D01*
X169409656Y-133958358D01*
X169409656Y-134025702D01*
X169443328Y-134126717D01*
X169510671Y-134194061D01*
X169645358Y-134261404D01*
X170453480Y-134261404D01*
X170015748Y-134699137D01*
X169106610Y-134328748D02*
X169039267Y-134328748D01*
X168938251Y-134362419D01*
X168769893Y-134530778D01*
X168736221Y-134631793D01*
X168736221Y-134699137D01*
X168769893Y-134800152D01*
X168837236Y-134867496D01*
X168971923Y-134934839D01*
X169780045Y-134934839D01*
X169342312Y-135372572D01*
X169235450Y-137330625D02*
X169706854Y-137802030D01*
X169538496Y-137027580D02*
X169908885Y-137397969D01*
X169942557Y-137498984D01*
X169908885Y-137599999D01*
X169807870Y-137701015D01*
X169706854Y-137734686D01*
X169639511Y-137734686D01*
X168764045Y-137465312D02*
X168696702Y-137465312D01*
X168595686Y-137498984D01*
X168427328Y-137667343D01*
X168393656Y-137768358D01*
X168393656Y-137835702D01*
X168427328Y-137936717D01*
X168494671Y-138004061D01*
X168629358Y-138071404D01*
X169437480Y-138071404D01*
X168999748Y-138509137D01*
X168090610Y-138138748D02*
X168023267Y-138138748D01*
X167922251Y-138172419D01*
X167753893Y-138340778D01*
X167720221Y-138441793D01*
X167720221Y-138509137D01*
X167753893Y-138610152D01*
X167821236Y-138677496D01*
X167955923Y-138744839D01*
X168764045Y-138744839D01*
X168326312Y-139182572D01*
X153011166Y-135072380D02*
X153582595Y-135072380D01*
X153296880Y-135072380D02*
X153296880Y-134072380D01*
X153392119Y-134215238D01*
X153487357Y-134310476D01*
X153582595Y-134358095D01*
X152154023Y-134405714D02*
X152154023Y-135072380D01*
X152582595Y-134405714D02*
X152582595Y-134929523D01*
X152534976Y-135024761D01*
X152439738Y-135072380D01*
X152296880Y-135072380D01*
X152201642Y-135024761D01*
X152154023Y-134977142D01*
X155233666Y-129103380D02*
X155805095Y-129103380D01*
X155519380Y-129103380D02*
X155519380Y-128103380D01*
X155614619Y-128246238D01*
X155709857Y-128341476D01*
X155805095Y-128389095D01*
X154376523Y-128436714D02*
X154376523Y-129103380D01*
X154805095Y-128436714D02*
X154805095Y-128960523D01*
X154757476Y-129055761D01*
X154662238Y-129103380D01*
X154519380Y-129103380D01*
X154424142Y-129055761D01*
X154376523Y-129008142D01*
X153550904Y-136564714D02*
X153550904Y-137231380D01*
X153979476Y-136564714D02*
X153979476Y-137088523D01*
X153931857Y-137183761D01*
X153836619Y-137231380D01*
X153693761Y-137231380D01*
X153598523Y-137183761D01*
X153550904Y-137136142D01*
X152550904Y-137231380D02*
X153122333Y-137231380D01*
X152836619Y-137231380D02*
X152836619Y-136231380D01*
X152931857Y-136374238D01*
X153027095Y-136469476D01*
X153122333Y-136517095D01*
X169107857Y-110315761D02*
X168965000Y-110363380D01*
X168726904Y-110363380D01*
X168631666Y-110315761D01*
X168584047Y-110268142D01*
X168536428Y-110172904D01*
X168536428Y-110077666D01*
X168584047Y-109982428D01*
X168631666Y-109934809D01*
X168726904Y-109887190D01*
X168917380Y-109839571D01*
X169012619Y-109791952D01*
X169060238Y-109744333D01*
X169107857Y-109649095D01*
X169107857Y-109553857D01*
X169060238Y-109458619D01*
X169012619Y-109411000D01*
X168917380Y-109363380D01*
X168679285Y-109363380D01*
X168536428Y-109411000D01*
X168107857Y-110363380D02*
X168107857Y-109363380D01*
X167536428Y-110363380D01*
X167536428Y-109363380D01*
X166631666Y-109363380D02*
X166822142Y-109363380D01*
X166917380Y-109411000D01*
X166965000Y-109458619D01*
X167060238Y-109601476D01*
X167107857Y-109791952D01*
X167107857Y-110172904D01*
X167060238Y-110268142D01*
X167012619Y-110315761D01*
X166917380Y-110363380D01*
X166726904Y-110363380D01*
X166631666Y-110315761D01*
X166584047Y-110268142D01*
X166536428Y-110172904D01*
X166536428Y-109934809D01*
X166584047Y-109839571D01*
X166631666Y-109791952D01*
X166726904Y-109744333D01*
X166917380Y-109744333D01*
X167012619Y-109791952D01*
X167060238Y-109839571D01*
X167107857Y-109934809D01*
X165631666Y-109363380D02*
X166107857Y-109363380D01*
X166155476Y-109839571D01*
X166107857Y-109791952D01*
X166012619Y-109744333D01*
X165774523Y-109744333D01*
X165679285Y-109791952D01*
X165631666Y-109839571D01*
X165584047Y-109934809D01*
X165584047Y-110172904D01*
X165631666Y-110268142D01*
X165679285Y-110315761D01*
X165774523Y-110363380D01*
X166012619Y-110363380D01*
X166107857Y-110315761D01*
X166155476Y-110268142D01*
X165155476Y-110363380D02*
X165155476Y-109363380D01*
X165155476Y-109839571D02*
X164584047Y-109839571D01*
X164584047Y-110363380D02*
X164584047Y-109363380D01*
X164250714Y-109363380D02*
X163917380Y-110363380D01*
X163584047Y-109363380D01*
X163250714Y-110363380D02*
X163250714Y-109363380D01*
X163012619Y-109363380D01*
X162869761Y-109411000D01*
X162774523Y-109506238D01*
X162726904Y-109601476D01*
X162679285Y-109791952D01*
X162679285Y-109934809D01*
X162726904Y-110125285D01*
X162774523Y-110220523D01*
X162869761Y-110315761D01*
X163012619Y-110363380D01*
X163250714Y-110363380D01*
X162298333Y-109458619D02*
X162250714Y-109411000D01*
X162155476Y-109363380D01*
X161917380Y-109363380D01*
X161822142Y-109411000D01*
X161774523Y-109458619D01*
X161726904Y-109553857D01*
X161726904Y-109649095D01*
X161774523Y-109791952D01*
X162345952Y-110363380D01*
X161726904Y-110363380D01*
X161393571Y-109363380D02*
X160774523Y-109363380D01*
X161107857Y-109744333D01*
X160965000Y-109744333D01*
X160869761Y-109791952D01*
X160822142Y-109839571D01*
X160774523Y-109934809D01*
X160774523Y-110172904D01*
X160822142Y-110268142D01*
X160869761Y-110315761D01*
X160965000Y-110363380D01*
X161250714Y-110363380D01*
X161345952Y-110315761D01*
X161393571Y-110268142D01*
X160155476Y-109363380D02*
X160060238Y-109363380D01*
X159965000Y-109411000D01*
X159917380Y-109458619D01*
X159869761Y-109553857D01*
X159822142Y-109744333D01*
X159822142Y-109982428D01*
X159869761Y-110172904D01*
X159917380Y-110268142D01*
X159965000Y-110315761D01*
X160060238Y-110363380D01*
X160155476Y-110363380D01*
X160250714Y-110315761D01*
X160298333Y-110268142D01*
X160345952Y-110172904D01*
X160393571Y-109982428D01*
X160393571Y-109744333D01*
X160345952Y-109553857D01*
X160298333Y-109458619D01*
X160250714Y-109411000D01*
X160155476Y-109363380D01*
X151090357Y-128778380D02*
X151090357Y-127778380D01*
X150852261Y-127778380D01*
X150709404Y-127826000D01*
X150614166Y-127921238D01*
X150566547Y-128016476D01*
X150518928Y-128206952D01*
X150518928Y-128349809D01*
X150566547Y-128540285D01*
X150614166Y-128635523D01*
X150709404Y-128730761D01*
X150852261Y-128778380D01*
X151090357Y-128778380D01*
X150137976Y-128730761D02*
X149995119Y-128778380D01*
X149757023Y-128778380D01*
X149661785Y-128730761D01*
X149614166Y-128683142D01*
X149566547Y-128587904D01*
X149566547Y-128492666D01*
X149614166Y-128397428D01*
X149661785Y-128349809D01*
X149757023Y-128302190D01*
X149947500Y-128254571D01*
X150042738Y-128206952D01*
X150090357Y-128159333D01*
X150137976Y-128064095D01*
X150137976Y-127968857D01*
X150090357Y-127873619D01*
X150042738Y-127826000D01*
X149947500Y-127778380D01*
X149709404Y-127778380D01*
X149566547Y-127826000D01*
X149185595Y-127873619D02*
X149137976Y-127826000D01*
X149042738Y-127778380D01*
X148804642Y-127778380D01*
X148709404Y-127826000D01*
X148661785Y-127873619D01*
X148614166Y-127968857D01*
X148614166Y-128064095D01*
X148661785Y-128206952D01*
X149233214Y-128778380D01*
X148614166Y-128778380D01*
X147757023Y-128111714D02*
X147757023Y-128778380D01*
X147995119Y-127730761D02*
X148233214Y-128445047D01*
X147614166Y-128445047D01*
X147090357Y-128206952D02*
X147185595Y-128159333D01*
X147233214Y-128111714D01*
X147280833Y-128016476D01*
X147280833Y-127968857D01*
X147233214Y-127873619D01*
X147185595Y-127826000D01*
X147090357Y-127778380D01*
X146899880Y-127778380D01*
X146804642Y-127826000D01*
X146757023Y-127873619D01*
X146709404Y-127968857D01*
X146709404Y-128016476D01*
X146757023Y-128111714D01*
X146804642Y-128159333D01*
X146899880Y-128206952D01*
X147090357Y-128206952D01*
X147185595Y-128254571D01*
X147233214Y-128302190D01*
X147280833Y-128397428D01*
X147280833Y-128587904D01*
X147233214Y-128683142D01*
X147185595Y-128730761D01*
X147090357Y-128778380D01*
X146899880Y-128778380D01*
X146804642Y-128730761D01*
X146757023Y-128683142D01*
X146709404Y-128587904D01*
X146709404Y-128397428D01*
X146757023Y-128302190D01*
X146804642Y-128254571D01*
X146899880Y-128206952D01*
X146328452Y-127873619D02*
X146280833Y-127826000D01*
X146185595Y-127778380D01*
X145947500Y-127778380D01*
X145852261Y-127826000D01*
X145804642Y-127873619D01*
X145757023Y-127968857D01*
X145757023Y-128064095D01*
X145804642Y-128206952D01*
X146376071Y-128778380D01*
X145757023Y-128778380D01*
X135056190Y-122118380D02*
X135532380Y-122118380D01*
X135532380Y-121118380D01*
X134770476Y-121832666D02*
X134294285Y-121832666D01*
X134865714Y-122118380D02*
X134532380Y-121118380D01*
X134199047Y-122118380D01*
X133865714Y-122118380D02*
X133865714Y-121118380D01*
X133294285Y-122118380D01*
X133294285Y-121118380D01*
X132675238Y-121546952D02*
X132770476Y-121499333D01*
X132818095Y-121451714D01*
X132865714Y-121356476D01*
X132865714Y-121308857D01*
X132818095Y-121213619D01*
X132770476Y-121166000D01*
X132675238Y-121118380D01*
X132484761Y-121118380D01*
X132389523Y-121166000D01*
X132341904Y-121213619D01*
X132294285Y-121308857D01*
X132294285Y-121356476D01*
X132341904Y-121451714D01*
X132389523Y-121499333D01*
X132484761Y-121546952D01*
X132675238Y-121546952D01*
X132770476Y-121594571D01*
X132818095Y-121642190D01*
X132865714Y-121737428D01*
X132865714Y-121927904D01*
X132818095Y-122023142D01*
X132770476Y-122070761D01*
X132675238Y-122118380D01*
X132484761Y-122118380D01*
X132389523Y-122070761D01*
X132341904Y-122023142D01*
X132294285Y-121927904D01*
X132294285Y-121737428D01*
X132341904Y-121642190D01*
X132389523Y-121594571D01*
X132484761Y-121546952D01*
X131960952Y-121118380D02*
X131294285Y-121118380D01*
X131722857Y-122118380D01*
X130960952Y-121213619D02*
X130913333Y-121166000D01*
X130818095Y-121118380D01*
X130580000Y-121118380D01*
X130484761Y-121166000D01*
X130437142Y-121213619D01*
X130389523Y-121308857D01*
X130389523Y-121404095D01*
X130437142Y-121546952D01*
X131008571Y-122118380D01*
X130389523Y-122118380D01*
X129770476Y-121118380D02*
X129675238Y-121118380D01*
X129580000Y-121166000D01*
X129532380Y-121213619D01*
X129484761Y-121308857D01*
X129437142Y-121499333D01*
X129437142Y-121737428D01*
X129484761Y-121927904D01*
X129532380Y-122023142D01*
X129580000Y-122070761D01*
X129675238Y-122118380D01*
X129770476Y-122118380D01*
X129865714Y-122070761D01*
X129913333Y-122023142D01*
X129960952Y-121927904D01*
X130008571Y-121737428D01*
X130008571Y-121499333D01*
X129960952Y-121308857D01*
X129913333Y-121213619D01*
X129865714Y-121166000D01*
X129770476Y-121118380D01*
X129056190Y-121832666D02*
X128580000Y-121832666D01*
X129151428Y-122118380D02*
X128818095Y-121118380D01*
X128484761Y-122118380D01*
%LPC*%
D15*
G36*
X179720000Y-110883602D02*
G01*
X179744534Y-110883602D01*
X179793365Y-110888412D01*
X179841490Y-110897984D01*
X179888445Y-110912228D01*
X179933778Y-110931005D01*
X179977051Y-110954136D01*
X180017850Y-110981396D01*
X180055779Y-111012524D01*
X180090476Y-111047221D01*
X180121604Y-111085150D01*
X180148864Y-111125949D01*
X180171995Y-111169222D01*
X180190772Y-111214555D01*
X180205016Y-111261510D01*
X180214588Y-111309635D01*
X180219398Y-111358466D01*
X180219398Y-111383000D01*
X180220000Y-111383000D01*
X180220000Y-111883000D01*
X180219398Y-111883000D01*
X180219398Y-111907534D01*
X180214588Y-111956365D01*
X180205016Y-112004490D01*
X180190772Y-112051445D01*
X180171995Y-112096778D01*
X180148864Y-112140051D01*
X180121604Y-112180850D01*
X180090476Y-112218779D01*
X180055779Y-112253476D01*
X180017850Y-112284604D01*
X179977051Y-112311864D01*
X179933778Y-112334995D01*
X179888445Y-112353772D01*
X179841490Y-112368016D01*
X179793365Y-112377588D01*
X179744534Y-112382398D01*
X179720000Y-112382398D01*
X179720000Y-112383000D01*
X179220000Y-112383000D01*
X179220000Y-110883000D01*
X179720000Y-110883000D01*
X179720000Y-110883602D01*
G37*
G36*
X178920000Y-112383000D02*
G01*
X178420000Y-112383000D01*
X178420000Y-112382398D01*
X178395466Y-112382398D01*
X178346635Y-112377588D01*
X178298510Y-112368016D01*
X178251555Y-112353772D01*
X178206222Y-112334995D01*
X178162949Y-112311864D01*
X178122150Y-112284604D01*
X178084221Y-112253476D01*
X178049524Y-112218779D01*
X178018396Y-112180850D01*
X177991136Y-112140051D01*
X177968005Y-112096778D01*
X177949228Y-112051445D01*
X177934984Y-112004490D01*
X177925412Y-111956365D01*
X177920602Y-111907534D01*
X177920602Y-111883000D01*
X177920000Y-111883000D01*
X177920000Y-111383000D01*
X177920602Y-111383000D01*
X177920602Y-111358466D01*
X177925412Y-111309635D01*
X177934984Y-111261510D01*
X177949228Y-111214555D01*
X177968005Y-111169222D01*
X177991136Y-111125949D01*
X178018396Y-111085150D01*
X178049524Y-111047221D01*
X178084221Y-111012524D01*
X178122150Y-110981396D01*
X178162949Y-110954136D01*
X178206222Y-110931005D01*
X178251555Y-110912228D01*
X178298510Y-110897984D01*
X178346635Y-110888412D01*
X178395466Y-110883602D01*
X178420000Y-110883602D01*
X178420000Y-110883000D01*
X178920000Y-110883000D01*
X178920000Y-112383000D01*
G37*
G36*
G01*
X183026000Y-111067001D02*
X183026000Y-110166999D01*
G75*
G02*
X183275999Y-109917000I249999J0D01*
G01*
X183976001Y-109917000D01*
G75*
G02*
X184226000Y-110166999I0J-249999D01*
G01*
X184226000Y-111067001D01*
G75*
G02*
X183976001Y-111317000I-249999J0D01*
G01*
X183275999Y-111317000D01*
G75*
G02*
X183026000Y-111067001I0J249999D01*
G01*
G37*
G36*
G01*
X181026000Y-111067001D02*
X181026000Y-110166999D01*
G75*
G02*
X181275999Y-109917000I249999J0D01*
G01*
X181976001Y-109917000D01*
G75*
G02*
X182226000Y-110166999I0J-249999D01*
G01*
X182226000Y-111067001D01*
G75*
G02*
X181976001Y-111317000I-249999J0D01*
G01*
X181275999Y-111317000D01*
G75*
G02*
X181026000Y-111067001I0J249999D01*
G01*
G37*
G36*
G01*
X182226000Y-112198999D02*
X182226000Y-113099001D01*
G75*
G02*
X181976001Y-113349000I-249999J0D01*
G01*
X181275999Y-113349000D01*
G75*
G02*
X181026000Y-113099001I0J249999D01*
G01*
X181026000Y-112198999D01*
G75*
G02*
X181275999Y-111949000I249999J0D01*
G01*
X181976001Y-111949000D01*
G75*
G02*
X182226000Y-112198999I0J-249999D01*
G01*
G37*
G36*
G01*
X184226000Y-112198999D02*
X184226000Y-113099001D01*
G75*
G02*
X183976001Y-113349000I-249999J0D01*
G01*
X183275999Y-113349000D01*
G75*
G02*
X183026000Y-113099001I0J249999D01*
G01*
X183026000Y-112198999D01*
G75*
G02*
X183275999Y-111949000I249999J0D01*
G01*
X183976001Y-111949000D01*
G75*
G02*
X184226000Y-112198999I0J-249999D01*
G01*
G37*
D16*
X193040000Y-114476400D03*
X193040000Y-117476400D03*
D17*
X117043000Y-131286000D03*
D18*
X107943000Y-129286000D03*
X110443000Y-129286000D03*
X112943000Y-129286000D03*
G36*
G01*
X116293000Y-128561000D02*
X116293000Y-130011000D01*
G75*
G02*
X116043000Y-130261000I-250000J0D01*
G01*
X114843000Y-130261000D01*
G75*
G02*
X114593000Y-130011000I0J250000D01*
G01*
X114593000Y-128561000D01*
G75*
G02*
X114843000Y-128311000I250000J0D01*
G01*
X116043000Y-128311000D01*
G75*
G02*
X116293000Y-128561000I0J-250000D01*
G01*
G37*
D19*
X130330000Y-103886000D03*
X132870000Y-103886000D03*
X130330000Y-101346000D03*
G36*
G01*
X132108000Y-101727000D02*
X132108000Y-100965000D01*
G75*
G02*
X132489000Y-100584000I381000J0D01*
G01*
X133251000Y-100584000D01*
G75*
G02*
X133632000Y-100965000I0J-381000D01*
G01*
X133632000Y-101727000D01*
G75*
G02*
X133251000Y-102108000I-381000J0D01*
G01*
X132489000Y-102108000D01*
G75*
G02*
X132108000Y-101727000I0J381000D01*
G01*
G37*
D20*
X182676800Y-151130000D03*
D21*
X192836800Y-151130000D03*
G36*
G01*
X130028800Y-138732800D02*
X130028800Y-141132800D01*
G75*
G02*
X129428800Y-141732800I-600000J0D01*
G01*
X128228800Y-141732800D01*
G75*
G02*
X127628800Y-141132800I0J600000D01*
G01*
X127628800Y-138732800D01*
G75*
G02*
X128228800Y-138132800I600000J0D01*
G01*
X129428800Y-138132800D01*
G75*
G02*
X130028800Y-138732800I0J-600000D01*
G01*
G37*
G36*
G01*
X130028800Y-129732800D02*
X130028800Y-132132800D01*
G75*
G02*
X129428800Y-132732800I-600000J0D01*
G01*
X128228800Y-132732800D01*
G75*
G02*
X127628800Y-132132800I0J600000D01*
G01*
X127628800Y-129732800D01*
G75*
G02*
X128228800Y-129132800I600000J0D01*
G01*
X129428800Y-129132800D01*
G75*
G02*
X130028800Y-129732800I0J-600000D01*
G01*
G37*
D22*
X186944000Y-139430400D03*
X186944000Y-135930400D03*
X186944000Y-132430400D03*
G36*
G01*
X185394000Y-128030400D02*
X188494000Y-128030400D01*
G75*
G02*
X188744000Y-128280400I0J-250000D01*
G01*
X188744000Y-129580400D01*
G75*
G02*
X188494000Y-129830400I-250000J0D01*
G01*
X185394000Y-129830400D01*
G75*
G02*
X185144000Y-129580400I0J250000D01*
G01*
X185144000Y-128280400D01*
G75*
G02*
X185394000Y-128030400I250000J0D01*
G01*
G37*
D23*
X159196126Y-144333874D03*
D15*
G36*
X161671000Y-140444786D02*
G01*
X163085214Y-141859000D01*
X161671000Y-143273214D01*
X160256786Y-141859000D01*
X161671000Y-140444786D01*
G37*
D24*
X149250400Y-146173200D03*
X151790400Y-146173200D03*
X151790400Y-136173200D03*
X149250400Y-136173200D03*
X147269200Y-136173200D03*
X144729200Y-136173200D03*
X144729200Y-146173200D03*
X147269200Y-146173200D03*
G36*
G01*
X154069201Y-145716800D02*
X153169199Y-145716800D01*
G75*
G02*
X152919200Y-145466801I0J249999D01*
G01*
X152919200Y-144766799D01*
G75*
G02*
X153169199Y-144516800I249999J0D01*
G01*
X154069201Y-144516800D01*
G75*
G02*
X154319200Y-144766799I0J-249999D01*
G01*
X154319200Y-145466801D01*
G75*
G02*
X154069201Y-145716800I-249999J0D01*
G01*
G37*
G36*
G01*
X154069201Y-147716800D02*
X153169199Y-147716800D01*
G75*
G02*
X152919200Y-147466801I0J249999D01*
G01*
X152919200Y-146766799D01*
G75*
G02*
X153169199Y-146516800I249999J0D01*
G01*
X154069201Y-146516800D01*
G75*
G02*
X154319200Y-146766799I0J-249999D01*
G01*
X154319200Y-147466801D01*
G75*
G02*
X154069201Y-147716800I-249999J0D01*
G01*
G37*
G36*
G01*
X169244017Y-125299225D02*
X168324775Y-124379983D01*
G75*
G02*
X168324775Y-124026433I176775J176775D01*
G01*
X168908141Y-123443067D01*
G75*
G02*
X169261691Y-123443067I176775J-176775D01*
G01*
X170180933Y-124362309D01*
G75*
G02*
X170180933Y-124715859I-176775J-176775D01*
G01*
X169597567Y-125299225D01*
G75*
G02*
X169244017Y-125299225I-176775J176775D01*
G01*
G37*
G36*
G01*
X167034309Y-127508933D02*
X166115067Y-126589691D01*
G75*
G02*
X166115067Y-126236141I176775J176775D01*
G01*
X166698433Y-125652775D01*
G75*
G02*
X167051983Y-125652775I176775J-176775D01*
G01*
X167971225Y-126572017D01*
G75*
G02*
X167971225Y-126925567I-176775J-176775D01*
G01*
X167387859Y-127508933D01*
G75*
G02*
X167034309Y-127508933I-176775J176775D01*
G01*
G37*
G36*
G01*
X166927775Y-141431017D02*
X167847017Y-140511775D01*
G75*
G02*
X168200567Y-140511775I176775J-176775D01*
G01*
X168783933Y-141095141D01*
G75*
G02*
X168783933Y-141448691I-176775J-176775D01*
G01*
X167864691Y-142367933D01*
G75*
G02*
X167511141Y-142367933I-176775J176775D01*
G01*
X166927775Y-141784567D01*
G75*
G02*
X166927775Y-141431017I176775J176775D01*
G01*
G37*
G36*
G01*
X164718067Y-139221309D02*
X165637309Y-138302067D01*
G75*
G02*
X165990859Y-138302067I176775J-176775D01*
G01*
X166574225Y-138885433D01*
G75*
G02*
X166574225Y-139238983I-176775J-176775D01*
G01*
X165654983Y-140158225D01*
G75*
G02*
X165301433Y-140158225I-176775J176775D01*
G01*
X164718067Y-139574859D01*
G75*
G02*
X164718067Y-139221309I176775J176775D01*
G01*
G37*
G36*
G01*
X136010500Y-106009000D02*
X136010500Y-105559000D01*
G75*
G02*
X136235500Y-105334000I225000J0D01*
G01*
X138785500Y-105334000D01*
G75*
G02*
X139010500Y-105559000I0J-225000D01*
G01*
X139010500Y-106009000D01*
G75*
G02*
X138785500Y-106234000I-225000J0D01*
G01*
X136235500Y-106234000D01*
G75*
G02*
X136010500Y-106009000I0J225000D01*
G01*
G37*
G36*
G01*
X136010500Y-107279000D02*
X136010500Y-106829000D01*
G75*
G02*
X136235500Y-106604000I225000J0D01*
G01*
X138785500Y-106604000D01*
G75*
G02*
X139010500Y-106829000I0J-225000D01*
G01*
X139010500Y-107279000D01*
G75*
G02*
X138785500Y-107504000I-225000J0D01*
G01*
X136235500Y-107504000D01*
G75*
G02*
X136010500Y-107279000I0J225000D01*
G01*
G37*
G36*
G01*
X136010500Y-108549000D02*
X136010500Y-108099000D01*
G75*
G02*
X136235500Y-107874000I225000J0D01*
G01*
X138785500Y-107874000D01*
G75*
G02*
X139010500Y-108099000I0J-225000D01*
G01*
X139010500Y-108549000D01*
G75*
G02*
X138785500Y-108774000I-225000J0D01*
G01*
X136235500Y-108774000D01*
G75*
G02*
X136010500Y-108549000I0J225000D01*
G01*
G37*
G36*
G01*
X136010500Y-109819000D02*
X136010500Y-109369000D01*
G75*
G02*
X136235500Y-109144000I225000J0D01*
G01*
X138785500Y-109144000D01*
G75*
G02*
X139010500Y-109369000I0J-225000D01*
G01*
X139010500Y-109819000D01*
G75*
G02*
X138785500Y-110044000I-225000J0D01*
G01*
X136235500Y-110044000D01*
G75*
G02*
X136010500Y-109819000I0J225000D01*
G01*
G37*
G36*
G01*
X136010500Y-111089000D02*
X136010500Y-110639000D01*
G75*
G02*
X136235500Y-110414000I225000J0D01*
G01*
X138785500Y-110414000D01*
G75*
G02*
X139010500Y-110639000I0J-225000D01*
G01*
X139010500Y-111089000D01*
G75*
G02*
X138785500Y-111314000I-225000J0D01*
G01*
X136235500Y-111314000D01*
G75*
G02*
X136010500Y-111089000I0J225000D01*
G01*
G37*
G36*
G01*
X136010500Y-112359000D02*
X136010500Y-111909000D01*
G75*
G02*
X136235500Y-111684000I225000J0D01*
G01*
X138785500Y-111684000D01*
G75*
G02*
X139010500Y-111909000I0J-225000D01*
G01*
X139010500Y-112359000D01*
G75*
G02*
X138785500Y-112584000I-225000J0D01*
G01*
X136235500Y-112584000D01*
G75*
G02*
X136010500Y-112359000I0J225000D01*
G01*
G37*
G36*
G01*
X136010500Y-113629000D02*
X136010500Y-113179000D01*
G75*
G02*
X136235500Y-112954000I225000J0D01*
G01*
X138785500Y-112954000D01*
G75*
G02*
X139010500Y-113179000I0J-225000D01*
G01*
X139010500Y-113629000D01*
G75*
G02*
X138785500Y-113854000I-225000J0D01*
G01*
X136235500Y-113854000D01*
G75*
G02*
X136010500Y-113629000I0J225000D01*
G01*
G37*
G36*
G01*
X136010500Y-114899000D02*
X136010500Y-114449000D01*
G75*
G02*
X136235500Y-114224000I225000J0D01*
G01*
X138785500Y-114224000D01*
G75*
G02*
X139010500Y-114449000I0J-225000D01*
G01*
X139010500Y-114899000D01*
G75*
G02*
X138785500Y-115124000I-225000J0D01*
G01*
X136235500Y-115124000D01*
G75*
G02*
X136010500Y-114899000I0J225000D01*
G01*
G37*
G36*
G01*
X136010500Y-116169000D02*
X136010500Y-115719000D01*
G75*
G02*
X136235500Y-115494000I225000J0D01*
G01*
X138785500Y-115494000D01*
G75*
G02*
X139010500Y-115719000I0J-225000D01*
G01*
X139010500Y-116169000D01*
G75*
G02*
X138785500Y-116394000I-225000J0D01*
G01*
X136235500Y-116394000D01*
G75*
G02*
X136010500Y-116169000I0J225000D01*
G01*
G37*
G36*
G01*
X136010500Y-117439000D02*
X136010500Y-116989000D01*
G75*
G02*
X136235500Y-116764000I225000J0D01*
G01*
X138785500Y-116764000D01*
G75*
G02*
X139010500Y-116989000I0J-225000D01*
G01*
X139010500Y-117439000D01*
G75*
G02*
X138785500Y-117664000I-225000J0D01*
G01*
X136235500Y-117664000D01*
G75*
G02*
X136010500Y-117439000I0J225000D01*
G01*
G37*
G36*
G01*
X136010500Y-118709000D02*
X136010500Y-118259000D01*
G75*
G02*
X136235500Y-118034000I225000J0D01*
G01*
X138785500Y-118034000D01*
G75*
G02*
X139010500Y-118259000I0J-225000D01*
G01*
X139010500Y-118709000D01*
G75*
G02*
X138785500Y-118934000I-225000J0D01*
G01*
X136235500Y-118934000D01*
G75*
G02*
X136010500Y-118709000I0J225000D01*
G01*
G37*
G36*
G01*
X136010500Y-119979000D02*
X136010500Y-119529000D01*
G75*
G02*
X136235500Y-119304000I225000J0D01*
G01*
X138785500Y-119304000D01*
G75*
G02*
X139010500Y-119529000I0J-225000D01*
G01*
X139010500Y-119979000D01*
G75*
G02*
X138785500Y-120204000I-225000J0D01*
G01*
X136235500Y-120204000D01*
G75*
G02*
X136010500Y-119979000I0J225000D01*
G01*
G37*
G36*
G01*
X136010500Y-121249000D02*
X136010500Y-120799000D01*
G75*
G02*
X136235500Y-120574000I225000J0D01*
G01*
X138785500Y-120574000D01*
G75*
G02*
X139010500Y-120799000I0J-225000D01*
G01*
X139010500Y-121249000D01*
G75*
G02*
X138785500Y-121474000I-225000J0D01*
G01*
X136235500Y-121474000D01*
G75*
G02*
X136010500Y-121249000I0J225000D01*
G01*
G37*
G36*
G01*
X136010500Y-122519000D02*
X136010500Y-122069000D01*
G75*
G02*
X136235500Y-121844000I225000J0D01*
G01*
X138785500Y-121844000D01*
G75*
G02*
X139010500Y-122069000I0J-225000D01*
G01*
X139010500Y-122519000D01*
G75*
G02*
X138785500Y-122744000I-225000J0D01*
G01*
X136235500Y-122744000D01*
G75*
G02*
X136010500Y-122519000I0J225000D01*
G01*
G37*
G36*
G01*
X141020500Y-125294000D02*
X140570500Y-125294000D01*
G75*
G02*
X140345500Y-125069000I0J225000D01*
G01*
X140345500Y-122519000D01*
G75*
G02*
X140570500Y-122294000I225000J0D01*
G01*
X141020500Y-122294000D01*
G75*
G02*
X141245500Y-122519000I0J-225000D01*
G01*
X141245500Y-125069000D01*
G75*
G02*
X141020500Y-125294000I-225000J0D01*
G01*
G37*
G36*
G01*
X142290500Y-125294000D02*
X141840500Y-125294000D01*
G75*
G02*
X141615500Y-125069000I0J225000D01*
G01*
X141615500Y-122519000D01*
G75*
G02*
X141840500Y-122294000I225000J0D01*
G01*
X142290500Y-122294000D01*
G75*
G02*
X142515500Y-122519000I0J-225000D01*
G01*
X142515500Y-125069000D01*
G75*
G02*
X142290500Y-125294000I-225000J0D01*
G01*
G37*
G36*
G01*
X143560500Y-125294000D02*
X143110500Y-125294000D01*
G75*
G02*
X142885500Y-125069000I0J225000D01*
G01*
X142885500Y-122519000D01*
G75*
G02*
X143110500Y-122294000I225000J0D01*
G01*
X143560500Y-122294000D01*
G75*
G02*
X143785500Y-122519000I0J-225000D01*
G01*
X143785500Y-125069000D01*
G75*
G02*
X143560500Y-125294000I-225000J0D01*
G01*
G37*
G36*
G01*
X144830500Y-125294000D02*
X144380500Y-125294000D01*
G75*
G02*
X144155500Y-125069000I0J225000D01*
G01*
X144155500Y-122519000D01*
G75*
G02*
X144380500Y-122294000I225000J0D01*
G01*
X144830500Y-122294000D01*
G75*
G02*
X145055500Y-122519000I0J-225000D01*
G01*
X145055500Y-125069000D01*
G75*
G02*
X144830500Y-125294000I-225000J0D01*
G01*
G37*
G36*
G01*
X146100500Y-125294000D02*
X145650500Y-125294000D01*
G75*
G02*
X145425500Y-125069000I0J225000D01*
G01*
X145425500Y-122519000D01*
G75*
G02*
X145650500Y-122294000I225000J0D01*
G01*
X146100500Y-122294000D01*
G75*
G02*
X146325500Y-122519000I0J-225000D01*
G01*
X146325500Y-125069000D01*
G75*
G02*
X146100500Y-125294000I-225000J0D01*
G01*
G37*
G36*
G01*
X147370500Y-125294000D02*
X146920500Y-125294000D01*
G75*
G02*
X146695500Y-125069000I0J225000D01*
G01*
X146695500Y-122519000D01*
G75*
G02*
X146920500Y-122294000I225000J0D01*
G01*
X147370500Y-122294000D01*
G75*
G02*
X147595500Y-122519000I0J-225000D01*
G01*
X147595500Y-125069000D01*
G75*
G02*
X147370500Y-125294000I-225000J0D01*
G01*
G37*
G36*
G01*
X148640500Y-125294000D02*
X148190500Y-125294000D01*
G75*
G02*
X147965500Y-125069000I0J225000D01*
G01*
X147965500Y-122519000D01*
G75*
G02*
X148190500Y-122294000I225000J0D01*
G01*
X148640500Y-122294000D01*
G75*
G02*
X148865500Y-122519000I0J-225000D01*
G01*
X148865500Y-125069000D01*
G75*
G02*
X148640500Y-125294000I-225000J0D01*
G01*
G37*
G36*
G01*
X149910500Y-125294000D02*
X149460500Y-125294000D01*
G75*
G02*
X149235500Y-125069000I0J225000D01*
G01*
X149235500Y-122519000D01*
G75*
G02*
X149460500Y-122294000I225000J0D01*
G01*
X149910500Y-122294000D01*
G75*
G02*
X150135500Y-122519000I0J-225000D01*
G01*
X150135500Y-125069000D01*
G75*
G02*
X149910500Y-125294000I-225000J0D01*
G01*
G37*
G36*
G01*
X151180500Y-125294000D02*
X150730500Y-125294000D01*
G75*
G02*
X150505500Y-125069000I0J225000D01*
G01*
X150505500Y-122519000D01*
G75*
G02*
X150730500Y-122294000I225000J0D01*
G01*
X151180500Y-122294000D01*
G75*
G02*
X151405500Y-122519000I0J-225000D01*
G01*
X151405500Y-125069000D01*
G75*
G02*
X151180500Y-125294000I-225000J0D01*
G01*
G37*
G36*
G01*
X152450500Y-125294000D02*
X152000500Y-125294000D01*
G75*
G02*
X151775500Y-125069000I0J225000D01*
G01*
X151775500Y-122519000D01*
G75*
G02*
X152000500Y-122294000I225000J0D01*
G01*
X152450500Y-122294000D01*
G75*
G02*
X152675500Y-122519000I0J-225000D01*
G01*
X152675500Y-125069000D01*
G75*
G02*
X152450500Y-125294000I-225000J0D01*
G01*
G37*
G36*
G01*
X157010500Y-122069000D02*
X157010500Y-122519000D01*
G75*
G02*
X156785500Y-122744000I-225000J0D01*
G01*
X154235500Y-122744000D01*
G75*
G02*
X154010500Y-122519000I0J225000D01*
G01*
X154010500Y-122069000D01*
G75*
G02*
X154235500Y-121844000I225000J0D01*
G01*
X156785500Y-121844000D01*
G75*
G02*
X157010500Y-122069000I0J-225000D01*
G01*
G37*
G36*
G01*
X157010500Y-120799000D02*
X157010500Y-121249000D01*
G75*
G02*
X156785500Y-121474000I-225000J0D01*
G01*
X154235500Y-121474000D01*
G75*
G02*
X154010500Y-121249000I0J225000D01*
G01*
X154010500Y-120799000D01*
G75*
G02*
X154235500Y-120574000I225000J0D01*
G01*
X156785500Y-120574000D01*
G75*
G02*
X157010500Y-120799000I0J-225000D01*
G01*
G37*
G36*
G01*
X157010500Y-119529000D02*
X157010500Y-119979000D01*
G75*
G02*
X156785500Y-120204000I-225000J0D01*
G01*
X154235500Y-120204000D01*
G75*
G02*
X154010500Y-119979000I0J225000D01*
G01*
X154010500Y-119529000D01*
G75*
G02*
X154235500Y-119304000I225000J0D01*
G01*
X156785500Y-119304000D01*
G75*
G02*
X157010500Y-119529000I0J-225000D01*
G01*
G37*
G36*
G01*
X157010500Y-118259000D02*
X157010500Y-118709000D01*
G75*
G02*
X156785500Y-118934000I-225000J0D01*
G01*
X154235500Y-118934000D01*
G75*
G02*
X154010500Y-118709000I0J225000D01*
G01*
X154010500Y-118259000D01*
G75*
G02*
X154235500Y-118034000I225000J0D01*
G01*
X156785500Y-118034000D01*
G75*
G02*
X157010500Y-118259000I0J-225000D01*
G01*
G37*
G36*
G01*
X157010500Y-116989000D02*
X157010500Y-117439000D01*
G75*
G02*
X156785500Y-117664000I-225000J0D01*
G01*
X154235500Y-117664000D01*
G75*
G02*
X154010500Y-117439000I0J225000D01*
G01*
X154010500Y-116989000D01*
G75*
G02*
X154235500Y-116764000I225000J0D01*
G01*
X156785500Y-116764000D01*
G75*
G02*
X157010500Y-116989000I0J-225000D01*
G01*
G37*
G36*
G01*
X157010500Y-115719000D02*
X157010500Y-116169000D01*
G75*
G02*
X156785500Y-116394000I-225000J0D01*
G01*
X154235500Y-116394000D01*
G75*
G02*
X154010500Y-116169000I0J225000D01*
G01*
X154010500Y-115719000D01*
G75*
G02*
X154235500Y-115494000I225000J0D01*
G01*
X156785500Y-115494000D01*
G75*
G02*
X157010500Y-115719000I0J-225000D01*
G01*
G37*
G36*
G01*
X157010500Y-114449000D02*
X157010500Y-114899000D01*
G75*
G02*
X156785500Y-115124000I-225000J0D01*
G01*
X154235500Y-115124000D01*
G75*
G02*
X154010500Y-114899000I0J225000D01*
G01*
X154010500Y-114449000D01*
G75*
G02*
X154235500Y-114224000I225000J0D01*
G01*
X156785500Y-114224000D01*
G75*
G02*
X157010500Y-114449000I0J-225000D01*
G01*
G37*
G36*
G01*
X157010500Y-113179000D02*
X157010500Y-113629000D01*
G75*
G02*
X156785500Y-113854000I-225000J0D01*
G01*
X154235500Y-113854000D01*
G75*
G02*
X154010500Y-113629000I0J225000D01*
G01*
X154010500Y-113179000D01*
G75*
G02*
X154235500Y-112954000I225000J0D01*
G01*
X156785500Y-112954000D01*
G75*
G02*
X157010500Y-113179000I0J-225000D01*
G01*
G37*
G36*
G01*
X157010500Y-111909000D02*
X157010500Y-112359000D01*
G75*
G02*
X156785500Y-112584000I-225000J0D01*
G01*
X154235500Y-112584000D01*
G75*
G02*
X154010500Y-112359000I0J225000D01*
G01*
X154010500Y-111909000D01*
G75*
G02*
X154235500Y-111684000I225000J0D01*
G01*
X156785500Y-111684000D01*
G75*
G02*
X157010500Y-111909000I0J-225000D01*
G01*
G37*
G36*
G01*
X157010500Y-110639000D02*
X157010500Y-111089000D01*
G75*
G02*
X156785500Y-111314000I-225000J0D01*
G01*
X154235500Y-111314000D01*
G75*
G02*
X154010500Y-111089000I0J225000D01*
G01*
X154010500Y-110639000D01*
G75*
G02*
X154235500Y-110414000I225000J0D01*
G01*
X156785500Y-110414000D01*
G75*
G02*
X157010500Y-110639000I0J-225000D01*
G01*
G37*
G36*
G01*
X157010500Y-109369000D02*
X157010500Y-109819000D01*
G75*
G02*
X156785500Y-110044000I-225000J0D01*
G01*
X154235500Y-110044000D01*
G75*
G02*
X154010500Y-109819000I0J225000D01*
G01*
X154010500Y-109369000D01*
G75*
G02*
X154235500Y-109144000I225000J0D01*
G01*
X156785500Y-109144000D01*
G75*
G02*
X157010500Y-109369000I0J-225000D01*
G01*
G37*
G36*
G01*
X157010500Y-108099000D02*
X157010500Y-108549000D01*
G75*
G02*
X156785500Y-108774000I-225000J0D01*
G01*
X154235500Y-108774000D01*
G75*
G02*
X154010500Y-108549000I0J225000D01*
G01*
X154010500Y-108099000D01*
G75*
G02*
X154235500Y-107874000I225000J0D01*
G01*
X156785500Y-107874000D01*
G75*
G02*
X157010500Y-108099000I0J-225000D01*
G01*
G37*
G36*
G01*
X157010500Y-106829000D02*
X157010500Y-107279000D01*
G75*
G02*
X156785500Y-107504000I-225000J0D01*
G01*
X154235500Y-107504000D01*
G75*
G02*
X154010500Y-107279000I0J225000D01*
G01*
X154010500Y-106829000D01*
G75*
G02*
X154235500Y-106604000I225000J0D01*
G01*
X156785500Y-106604000D01*
G75*
G02*
X157010500Y-106829000I0J-225000D01*
G01*
G37*
G36*
G01*
X157010500Y-105559000D02*
X157010500Y-106009000D01*
G75*
G02*
X156785500Y-106234000I-225000J0D01*
G01*
X154235500Y-106234000D01*
G75*
G02*
X154010500Y-106009000I0J225000D01*
G01*
X154010500Y-105559000D01*
G75*
G02*
X154235500Y-105334000I225000J0D01*
G01*
X156785500Y-105334000D01*
G75*
G02*
X157010500Y-105559000I0J-225000D01*
G01*
G37*
D25*
X147510500Y-113284000D03*
D15*
G36*
X133634000Y-143638000D02*
G01*
X133634000Y-146938000D01*
X131034000Y-146938000D01*
X131034000Y-143638000D01*
X133634000Y-143638000D01*
G37*
D26*
X129334000Y-143383000D03*
X129334000Y-144653000D03*
X129334000Y-145923000D03*
X129334000Y-147193000D03*
X135334000Y-147193000D03*
X135334000Y-145923000D03*
X135334000Y-144653000D03*
X135334000Y-143383000D03*
D27*
X138176000Y-126619000D03*
X138176000Y-127889000D03*
X139446000Y-126619000D03*
X139446000Y-127889000D03*
X140716000Y-126619000D03*
D28*
X140716000Y-127889000D03*
D29*
X179150000Y-108750000D03*
X180850000Y-108750000D03*
D30*
X169250000Y-101990000D03*
D31*
X168000000Y-99500000D03*
X163500000Y-99500000D03*
D30*
X162240000Y-101990000D03*
D23*
X160974126Y-121096126D03*
D15*
G36*
X164863214Y-123571000D02*
G01*
X163449000Y-124985214D01*
X162034786Y-123571000D01*
X163449000Y-122156786D01*
X164863214Y-123571000D01*
G37*
G36*
G01*
X174881000Y-129787500D02*
X172481000Y-129787500D01*
G75*
G02*
X171881000Y-129187500I0J600000D01*
G01*
X171881000Y-127987500D01*
G75*
G02*
X172481000Y-127387500I600000J0D01*
G01*
X174881000Y-127387500D01*
G75*
G02*
X175481000Y-127987500I0J-600000D01*
G01*
X175481000Y-129187500D01*
G75*
G02*
X174881000Y-129787500I-600000J0D01*
G01*
G37*
G36*
G01*
X183881000Y-129787500D02*
X181481000Y-129787500D01*
G75*
G02*
X180881000Y-129187500I0J600000D01*
G01*
X180881000Y-127987500D01*
G75*
G02*
X181481000Y-127387500I600000J0D01*
G01*
X183881000Y-127387500D01*
G75*
G02*
X184481000Y-127987500I0J-600000D01*
G01*
X184481000Y-129187500D01*
G75*
G02*
X183881000Y-129787500I-600000J0D01*
G01*
G37*
G36*
G01*
X174881000Y-120516500D02*
X172481000Y-120516500D01*
G75*
G02*
X171881000Y-119916500I0J600000D01*
G01*
X171881000Y-118716500D01*
G75*
G02*
X172481000Y-118116500I600000J0D01*
G01*
X174881000Y-118116500D01*
G75*
G02*
X175481000Y-118716500I0J-600000D01*
G01*
X175481000Y-119916500D01*
G75*
G02*
X174881000Y-120516500I-600000J0D01*
G01*
G37*
G36*
G01*
X183881000Y-120516500D02*
X181481000Y-120516500D01*
G75*
G02*
X180881000Y-119916500I0J600000D01*
G01*
X180881000Y-118716500D01*
G75*
G02*
X181481000Y-118116500I600000J0D01*
G01*
X183881000Y-118116500D01*
G75*
G02*
X184481000Y-118716500I0J-600000D01*
G01*
X184481000Y-119916500D01*
G75*
G02*
X183881000Y-120516500I-600000J0D01*
G01*
G37*
G36*
G01*
X174881000Y-138995000D02*
X172481000Y-138995000D01*
G75*
G02*
X171881000Y-138395000I0J600000D01*
G01*
X171881000Y-137195000D01*
G75*
G02*
X172481000Y-136595000I600000J0D01*
G01*
X174881000Y-136595000D01*
G75*
G02*
X175481000Y-137195000I0J-600000D01*
G01*
X175481000Y-138395000D01*
G75*
G02*
X174881000Y-138995000I-600000J0D01*
G01*
G37*
G36*
G01*
X183881000Y-138995000D02*
X181481000Y-138995000D01*
G75*
G02*
X180881000Y-138395000I0J600000D01*
G01*
X180881000Y-137195000D01*
G75*
G02*
X181481000Y-136595000I600000J0D01*
G01*
X183881000Y-136595000D01*
G75*
G02*
X184481000Y-137195000I0J-600000D01*
G01*
X184481000Y-138395000D01*
G75*
G02*
X183881000Y-138995000I-600000J0D01*
G01*
G37*
G36*
G01*
X184283200Y-148266000D02*
X181883200Y-148266000D01*
G75*
G02*
X181283200Y-147666000I0J600000D01*
G01*
X181283200Y-146466000D01*
G75*
G02*
X181883200Y-145866000I600000J0D01*
G01*
X184283200Y-145866000D01*
G75*
G02*
X184883200Y-146466000I0J-600000D01*
G01*
X184883200Y-147666000D01*
G75*
G02*
X184283200Y-148266000I-600000J0D01*
G01*
G37*
G36*
G01*
X193283200Y-148266000D02*
X190883200Y-148266000D01*
G75*
G02*
X190283200Y-147666000I0J600000D01*
G01*
X190283200Y-146466000D01*
G75*
G02*
X190883200Y-145866000I600000J0D01*
G01*
X193283200Y-145866000D01*
G75*
G02*
X193883200Y-146466000I0J-600000D01*
G01*
X193883200Y-147666000D01*
G75*
G02*
X193283200Y-148266000I-600000J0D01*
G01*
G37*
D32*
X116205000Y-148971000D03*
X116205000Y-146431000D03*
X116205000Y-143891000D03*
X116205000Y-141351000D03*
X116205000Y-138811000D03*
X118745000Y-148971000D03*
X118745000Y-146431000D03*
X118745000Y-143891000D03*
X118745000Y-141351000D03*
G36*
G01*
X119595000Y-138211000D02*
X119595000Y-139411000D01*
G75*
G02*
X119345000Y-139661000I-250000J0D01*
G01*
X118145000Y-139661000D01*
G75*
G02*
X117895000Y-139411000I0J250000D01*
G01*
X117895000Y-138211000D01*
G75*
G02*
X118145000Y-137961000I250000J0D01*
G01*
X119345000Y-137961000D01*
G75*
G02*
X119595000Y-138211000I0J-250000D01*
G01*
G37*
D33*
X113538000Y-122809000D03*
X113538000Y-111379000D03*
D34*
X116588000Y-109349000D03*
X116588000Y-124839000D03*
D35*
X108638000Y-113009000D03*
X108638000Y-110469000D03*
X108638000Y-121179000D03*
X108638000Y-123719000D03*
D36*
X122428000Y-112654000D03*
X119888000Y-113924000D03*
X122428000Y-115194000D03*
X119888000Y-116464000D03*
X122428000Y-117734000D03*
X119888000Y-119004000D03*
X122428000Y-120274000D03*
D37*
X119888000Y-121544000D03*
G36*
G01*
X141154999Y-146577000D02*
X142055001Y-146577000D01*
G75*
G02*
X142305000Y-146826999I0J-249999D01*
G01*
X142305000Y-147527001D01*
G75*
G02*
X142055001Y-147777000I-249999J0D01*
G01*
X141154999Y-147777000D01*
G75*
G02*
X140905000Y-147527001I0J249999D01*
G01*
X140905000Y-146826999D01*
G75*
G02*
X141154999Y-146577000I249999J0D01*
G01*
G37*
G36*
G01*
X141154999Y-144577000D02*
X142055001Y-144577000D01*
G75*
G02*
X142305000Y-144826999I0J-249999D01*
G01*
X142305000Y-145527001D01*
G75*
G02*
X142055001Y-145777000I-249999J0D01*
G01*
X141154999Y-145777000D01*
G75*
G02*
X140905000Y-145527001I0J249999D01*
G01*
X140905000Y-144826999D01*
G75*
G02*
X141154999Y-144577000I249999J0D01*
G01*
G37*
G36*
G01*
X140023001Y-145777000D02*
X139122999Y-145777000D01*
G75*
G02*
X138873000Y-145527001I0J249999D01*
G01*
X138873000Y-144826999D01*
G75*
G02*
X139122999Y-144577000I249999J0D01*
G01*
X140023001Y-144577000D01*
G75*
G02*
X140273000Y-144826999I0J-249999D01*
G01*
X140273000Y-145527001D01*
G75*
G02*
X140023001Y-145777000I-249999J0D01*
G01*
G37*
G36*
G01*
X140023001Y-147777000D02*
X139122999Y-147777000D01*
G75*
G02*
X138873000Y-147527001I0J249999D01*
G01*
X138873000Y-146826999D01*
G75*
G02*
X139122999Y-146577000I249999J0D01*
G01*
X140023001Y-146577000D01*
G75*
G02*
X140273000Y-146826999I0J-249999D01*
G01*
X140273000Y-147527001D01*
G75*
G02*
X140023001Y-147777000I-249999J0D01*
G01*
G37*
G36*
G01*
X137090999Y-146577000D02*
X137991001Y-146577000D01*
G75*
G02*
X138241000Y-146826999I0J-249999D01*
G01*
X138241000Y-147527001D01*
G75*
G02*
X137991001Y-147777000I-249999J0D01*
G01*
X137090999Y-147777000D01*
G75*
G02*
X136841000Y-147527001I0J249999D01*
G01*
X136841000Y-146826999D01*
G75*
G02*
X137090999Y-146577000I249999J0D01*
G01*
G37*
G36*
G01*
X137090999Y-144577000D02*
X137991001Y-144577000D01*
G75*
G02*
X138241000Y-144826999I0J-249999D01*
G01*
X138241000Y-145527001D01*
G75*
G02*
X137991001Y-145777000I-249999J0D01*
G01*
X137090999Y-145777000D01*
G75*
G02*
X136841000Y-145527001I0J249999D01*
G01*
X136841000Y-144826999D01*
G75*
G02*
X137090999Y-144577000I249999J0D01*
G01*
G37*
D38*
X125780800Y-147886400D03*
X125780800Y-142486400D03*
G36*
G01*
X136891600Y-136405802D02*
X136891600Y-134205798D01*
G75*
G02*
X137141598Y-133955800I249998J0D01*
G01*
X137966602Y-133955800D01*
G75*
G02*
X138216600Y-134205798I0J-249998D01*
G01*
X138216600Y-136405802D01*
G75*
G02*
X137966602Y-136655800I-249998J0D01*
G01*
X137141598Y-136655800D01*
G75*
G02*
X136891600Y-136405802I0J249998D01*
G01*
G37*
G36*
G01*
X133766600Y-136405802D02*
X133766600Y-134205798D01*
G75*
G02*
X134016598Y-133955800I249998J0D01*
G01*
X134841602Y-133955800D01*
G75*
G02*
X135091600Y-134205798I0J-249998D01*
G01*
X135091600Y-136405802D01*
G75*
G02*
X134841602Y-136655800I-249998J0D01*
G01*
X134016598Y-136655800D01*
G75*
G02*
X133766600Y-136405802I0J249998D01*
G01*
G37*
G36*
G01*
X136891600Y-139707802D02*
X136891600Y-137507798D01*
G75*
G02*
X137141598Y-137257800I249998J0D01*
G01*
X137966602Y-137257800D01*
G75*
G02*
X138216600Y-137507798I0J-249998D01*
G01*
X138216600Y-139707802D01*
G75*
G02*
X137966602Y-139957800I-249998J0D01*
G01*
X137141598Y-139957800D01*
G75*
G02*
X136891600Y-139707802I0J249998D01*
G01*
G37*
G36*
G01*
X133766600Y-139707802D02*
X133766600Y-137507798D01*
G75*
G02*
X134016598Y-137257800I249998J0D01*
G01*
X134841602Y-137257800D01*
G75*
G02*
X135091600Y-137507798I0J-249998D01*
G01*
X135091600Y-139707802D01*
G75*
G02*
X134841602Y-139957800I-249998J0D01*
G01*
X134016598Y-139957800D01*
G75*
G02*
X133766600Y-139707802I0J249998D01*
G01*
G37*
G36*
G01*
X140041200Y-142933602D02*
X140041200Y-140733598D01*
G75*
G02*
X140291198Y-140483600I249998J0D01*
G01*
X141116202Y-140483600D01*
G75*
G02*
X141366200Y-140733598I0J-249998D01*
G01*
X141366200Y-142933602D01*
G75*
G02*
X141116202Y-143183600I-249998J0D01*
G01*
X140291198Y-143183600D01*
G75*
G02*
X140041200Y-142933602I0J249998D01*
G01*
G37*
G36*
G01*
X136916200Y-142933602D02*
X136916200Y-140733598D01*
G75*
G02*
X137166198Y-140483600I249998J0D01*
G01*
X137991202Y-140483600D01*
G75*
G02*
X138241200Y-140733598I0J-249998D01*
G01*
X138241200Y-142933602D01*
G75*
G02*
X137991202Y-143183600I-249998J0D01*
G01*
X137166198Y-143183600D01*
G75*
G02*
X136916200Y-142933602I0J249998D01*
G01*
G37*
G36*
G01*
X136891600Y-133103802D02*
X136891600Y-130903798D01*
G75*
G02*
X137141598Y-130653800I249998J0D01*
G01*
X137966602Y-130653800D01*
G75*
G02*
X138216600Y-130903798I0J-249998D01*
G01*
X138216600Y-133103802D01*
G75*
G02*
X137966602Y-133353800I-249998J0D01*
G01*
X137141598Y-133353800D01*
G75*
G02*
X136891600Y-133103802I0J249998D01*
G01*
G37*
G36*
G01*
X133766600Y-133103802D02*
X133766600Y-130903798D01*
G75*
G02*
X134016598Y-130653800I249998J0D01*
G01*
X134841602Y-130653800D01*
G75*
G02*
X135091600Y-130903798I0J-249998D01*
G01*
X135091600Y-133103802D01*
G75*
G02*
X134841602Y-133353800I-249998J0D01*
G01*
X134016598Y-133353800D01*
G75*
G02*
X133766600Y-133103802I0J249998D01*
G01*
G37*
G36*
G01*
X132276000Y-141953000D02*
X132276000Y-141003000D01*
G75*
G02*
X132526000Y-140753000I250000J0D01*
G01*
X133201000Y-140753000D01*
G75*
G02*
X133451000Y-141003000I0J-250000D01*
G01*
X133451000Y-141953000D01*
G75*
G02*
X133201000Y-142203000I-250000J0D01*
G01*
X132526000Y-142203000D01*
G75*
G02*
X132276000Y-141953000I0J250000D01*
G01*
G37*
G36*
G01*
X130201000Y-141953000D02*
X130201000Y-141003000D01*
G75*
G02*
X130451000Y-140753000I250000J0D01*
G01*
X131126000Y-140753000D01*
G75*
G02*
X131376000Y-141003000I0J-250000D01*
G01*
X131376000Y-141953000D01*
G75*
G02*
X131126000Y-142203000I-250000J0D01*
G01*
X130451000Y-142203000D01*
G75*
G02*
X130201000Y-141953000I0J250000D01*
G01*
G37*
G36*
G01*
X120692998Y-146823000D02*
X122893002Y-146823000D01*
G75*
G02*
X123143000Y-147072998I0J-249998D01*
G01*
X123143000Y-147898002D01*
G75*
G02*
X122893002Y-148148000I-249998J0D01*
G01*
X120692998Y-148148000D01*
G75*
G02*
X120443000Y-147898002I0J249998D01*
G01*
X120443000Y-147072998D01*
G75*
G02*
X120692998Y-146823000I249998J0D01*
G01*
G37*
G36*
G01*
X120692998Y-143698000D02*
X122893002Y-143698000D01*
G75*
G02*
X123143000Y-143947998I0J-249998D01*
G01*
X123143000Y-144773002D01*
G75*
G02*
X122893002Y-145023000I-249998J0D01*
G01*
X120692998Y-145023000D01*
G75*
G02*
X120443000Y-144773002I0J249998D01*
G01*
X120443000Y-143947998D01*
G75*
G02*
X120692998Y-143698000I249998J0D01*
G01*
G37*
D22*
X186944000Y-120863000D03*
X186944000Y-117363000D03*
X186944000Y-113863000D03*
G36*
G01*
X185394000Y-109463000D02*
X188494000Y-109463000D01*
G75*
G02*
X188744000Y-109713000I0J-250000D01*
G01*
X188744000Y-111013000D01*
G75*
G02*
X188494000Y-111263000I-250000J0D01*
G01*
X185394000Y-111263000D01*
G75*
G02*
X185144000Y-111013000I0J250000D01*
G01*
X185144000Y-109713000D01*
G75*
G02*
X185394000Y-109463000I250000J0D01*
G01*
G37*
D39*
X162433000Y-132715000D03*
D40*
X165733000Y-136940000D03*
X165733000Y-136290000D03*
X165733000Y-135640000D03*
X165733000Y-134990000D03*
X165733000Y-134340000D03*
X165733000Y-133690000D03*
X165733000Y-133040000D03*
X165733000Y-132390000D03*
X165733000Y-131740000D03*
X165733000Y-131090000D03*
X165733000Y-130440000D03*
X165733000Y-129790000D03*
X165733000Y-129140000D03*
X159133000Y-128490000D03*
X159133000Y-129140000D03*
X159133000Y-129790000D03*
X159133000Y-130440000D03*
X159133000Y-131090000D03*
X159133000Y-131740000D03*
X159133000Y-132390000D03*
X159133000Y-133040000D03*
X159133000Y-133690000D03*
X159133000Y-134340000D03*
X159133000Y-134990000D03*
X159133000Y-135640000D03*
X159133000Y-136290000D03*
X165733000Y-128490000D03*
X159133000Y-136940000D03*
G36*
G01*
X154082800Y-138335599D02*
X154082800Y-139235601D01*
G75*
G02*
X153832801Y-139485600I-249999J0D01*
G01*
X153132799Y-139485600D01*
G75*
G02*
X152882800Y-139235601I0J249999D01*
G01*
X152882800Y-138335599D01*
G75*
G02*
X153132799Y-138085600I249999J0D01*
G01*
X153832801Y-138085600D01*
G75*
G02*
X154082800Y-138335599I0J-249999D01*
G01*
G37*
G36*
G01*
X156082800Y-138335599D02*
X156082800Y-139235601D01*
G75*
G02*
X155832801Y-139485600I-249999J0D01*
G01*
X155132799Y-139485600D01*
G75*
G02*
X154882800Y-139235601I0J249999D01*
G01*
X154882800Y-138335599D01*
G75*
G02*
X155132799Y-138085600I249999J0D01*
G01*
X155832801Y-138085600D01*
G75*
G02*
X156082800Y-138335599I0J-249999D01*
G01*
G37*
G36*
G01*
X161051002Y-105907000D02*
X159750998Y-105907000D01*
G75*
G02*
X159501000Y-105657002I0J249998D01*
G01*
X159501000Y-104831998D01*
G75*
G02*
X159750998Y-104582000I249998J0D01*
G01*
X161051002Y-104582000D01*
G75*
G02*
X161301000Y-104831998I0J-249998D01*
G01*
X161301000Y-105657002D01*
G75*
G02*
X161051002Y-105907000I-249998J0D01*
G01*
G37*
G36*
G01*
X161051002Y-109032000D02*
X159750998Y-109032000D01*
G75*
G02*
X159501000Y-108782002I0J249998D01*
G01*
X159501000Y-107956998D01*
G75*
G02*
X159750998Y-107707000I249998J0D01*
G01*
X161051002Y-107707000D01*
G75*
G02*
X161301000Y-107956998I0J-249998D01*
G01*
X161301000Y-108782002D01*
G75*
G02*
X161051002Y-109032000I-249998J0D01*
G01*
G37*
G36*
G01*
X158590000Y-105849000D02*
X157640000Y-105849000D01*
G75*
G02*
X157390000Y-105599000I0J250000D01*
G01*
X157390000Y-104924000D01*
G75*
G02*
X157640000Y-104674000I250000J0D01*
G01*
X158590000Y-104674000D01*
G75*
G02*
X158840000Y-104924000I0J-250000D01*
G01*
X158840000Y-105599000D01*
G75*
G02*
X158590000Y-105849000I-250000J0D01*
G01*
G37*
G36*
G01*
X158590000Y-107924000D02*
X157640000Y-107924000D01*
G75*
G02*
X157390000Y-107674000I0J250000D01*
G01*
X157390000Y-106999000D01*
G75*
G02*
X157640000Y-106749000I250000J0D01*
G01*
X158590000Y-106749000D01*
G75*
G02*
X158840000Y-106999000I0J-250000D01*
G01*
X158840000Y-107674000D01*
G75*
G02*
X158590000Y-107924000I-250000J0D01*
G01*
G37*
G36*
G01*
X125824000Y-112580000D02*
X124874000Y-112580000D01*
G75*
G02*
X124624000Y-112330000I0J250000D01*
G01*
X124624000Y-111655000D01*
G75*
G02*
X124874000Y-111405000I250000J0D01*
G01*
X125824000Y-111405000D01*
G75*
G02*
X126074000Y-111655000I0J-250000D01*
G01*
X126074000Y-112330000D01*
G75*
G02*
X125824000Y-112580000I-250000J0D01*
G01*
G37*
G36*
G01*
X125824000Y-114655000D02*
X124874000Y-114655000D01*
G75*
G02*
X124624000Y-114405000I0J250000D01*
G01*
X124624000Y-113730000D01*
G75*
G02*
X124874000Y-113480000I250000J0D01*
G01*
X125824000Y-113480000D01*
G75*
G02*
X126074000Y-113730000I0J-250000D01*
G01*
X126074000Y-114405000D01*
G75*
G02*
X125824000Y-114655000I-250000J0D01*
G01*
G37*
G36*
G01*
X124874000Y-123386000D02*
X125824000Y-123386000D01*
G75*
G02*
X126074000Y-123636000I0J-250000D01*
G01*
X126074000Y-124311000D01*
G75*
G02*
X125824000Y-124561000I-250000J0D01*
G01*
X124874000Y-124561000D01*
G75*
G02*
X124624000Y-124311000I0J250000D01*
G01*
X124624000Y-123636000D01*
G75*
G02*
X124874000Y-123386000I250000J0D01*
G01*
G37*
G36*
G01*
X124874000Y-121311000D02*
X125824000Y-121311000D01*
G75*
G02*
X126074000Y-121561000I0J-250000D01*
G01*
X126074000Y-122236000D01*
G75*
G02*
X125824000Y-122486000I-250000J0D01*
G01*
X124874000Y-122486000D01*
G75*
G02*
X124624000Y-122236000I0J250000D01*
G01*
X124624000Y-121561000D01*
G75*
G02*
X124874000Y-121311000I250000J0D01*
G01*
G37*
G36*
G01*
X132428000Y-117215500D02*
X131478000Y-117215500D01*
G75*
G02*
X131228000Y-116965500I0J250000D01*
G01*
X131228000Y-116290500D01*
G75*
G02*
X131478000Y-116040500I250000J0D01*
G01*
X132428000Y-116040500D01*
G75*
G02*
X132678000Y-116290500I0J-250000D01*
G01*
X132678000Y-116965500D01*
G75*
G02*
X132428000Y-117215500I-250000J0D01*
G01*
G37*
G36*
G01*
X132428000Y-119290500D02*
X131478000Y-119290500D01*
G75*
G02*
X131228000Y-119040500I0J250000D01*
G01*
X131228000Y-118365500D01*
G75*
G02*
X131478000Y-118115500I250000J0D01*
G01*
X132428000Y-118115500D01*
G75*
G02*
X132678000Y-118365500I0J-250000D01*
G01*
X132678000Y-119040500D01*
G75*
G02*
X132428000Y-119290500I-250000J0D01*
G01*
G37*
G36*
G01*
X130752000Y-112362000D02*
X130752000Y-111412000D01*
G75*
G02*
X131002000Y-111162000I250000J0D01*
G01*
X131677000Y-111162000D01*
G75*
G02*
X131927000Y-111412000I0J-250000D01*
G01*
X131927000Y-112362000D01*
G75*
G02*
X131677000Y-112612000I-250000J0D01*
G01*
X131002000Y-112612000D01*
G75*
G02*
X130752000Y-112362000I0J250000D01*
G01*
G37*
G36*
G01*
X128677000Y-112362000D02*
X128677000Y-111412000D01*
G75*
G02*
X128927000Y-111162000I250000J0D01*
G01*
X129602000Y-111162000D01*
G75*
G02*
X129852000Y-111412000I0J-250000D01*
G01*
X129852000Y-112362000D01*
G75*
G02*
X129602000Y-112612000I-250000J0D01*
G01*
X128927000Y-112612000D01*
G75*
G02*
X128677000Y-112362000I0J250000D01*
G01*
G37*
G36*
G01*
X130752000Y-114394000D02*
X130752000Y-113444000D01*
G75*
G02*
X131002000Y-113194000I250000J0D01*
G01*
X131677000Y-113194000D01*
G75*
G02*
X131927000Y-113444000I0J-250000D01*
G01*
X131927000Y-114394000D01*
G75*
G02*
X131677000Y-114644000I-250000J0D01*
G01*
X131002000Y-114644000D01*
G75*
G02*
X130752000Y-114394000I0J250000D01*
G01*
G37*
G36*
G01*
X128677000Y-114394000D02*
X128677000Y-113444000D01*
G75*
G02*
X128927000Y-113194000I250000J0D01*
G01*
X129602000Y-113194000D01*
G75*
G02*
X129852000Y-113444000I0J-250000D01*
G01*
X129852000Y-114394000D01*
G75*
G02*
X129602000Y-114644000I-250000J0D01*
G01*
X128927000Y-114644000D01*
G75*
G02*
X128677000Y-114394000I0J250000D01*
G01*
G37*
G36*
G01*
X158656000Y-113988000D02*
X159606000Y-113988000D01*
G75*
G02*
X159856000Y-114238000I0J-250000D01*
G01*
X159856000Y-114913000D01*
G75*
G02*
X159606000Y-115163000I-250000J0D01*
G01*
X158656000Y-115163000D01*
G75*
G02*
X158406000Y-114913000I0J250000D01*
G01*
X158406000Y-114238000D01*
G75*
G02*
X158656000Y-113988000I250000J0D01*
G01*
G37*
G36*
G01*
X158656000Y-111913000D02*
X159606000Y-111913000D01*
G75*
G02*
X159856000Y-112163000I0J-250000D01*
G01*
X159856000Y-112838000D01*
G75*
G02*
X159606000Y-113088000I-250000J0D01*
G01*
X158656000Y-113088000D01*
G75*
G02*
X158406000Y-112838000I0J250000D01*
G01*
X158406000Y-112163000D01*
G75*
G02*
X158656000Y-111913000I250000J0D01*
G01*
G37*
G36*
G01*
X143223000Y-133408000D02*
X142273000Y-133408000D01*
G75*
G02*
X142023000Y-133158000I0J250000D01*
G01*
X142023000Y-132483000D01*
G75*
G02*
X142273000Y-132233000I250000J0D01*
G01*
X143223000Y-132233000D01*
G75*
G02*
X143473000Y-132483000I0J-250000D01*
G01*
X143473000Y-133158000D01*
G75*
G02*
X143223000Y-133408000I-250000J0D01*
G01*
G37*
G36*
G01*
X143223000Y-135483000D02*
X142273000Y-135483000D01*
G75*
G02*
X142023000Y-135233000I0J250000D01*
G01*
X142023000Y-134558000D01*
G75*
G02*
X142273000Y-134308000I250000J0D01*
G01*
X143223000Y-134308000D01*
G75*
G02*
X143473000Y-134558000I0J-250000D01*
G01*
X143473000Y-135233000D01*
G75*
G02*
X143223000Y-135483000I-250000J0D01*
G01*
G37*
G36*
G01*
X142273000Y-138118000D02*
X143223000Y-138118000D01*
G75*
G02*
X143473000Y-138368000I0J-250000D01*
G01*
X143473000Y-139043000D01*
G75*
G02*
X143223000Y-139293000I-250000J0D01*
G01*
X142273000Y-139293000D01*
G75*
G02*
X142023000Y-139043000I0J250000D01*
G01*
X142023000Y-138368000D01*
G75*
G02*
X142273000Y-138118000I250000J0D01*
G01*
G37*
G36*
G01*
X142273000Y-136043000D02*
X143223000Y-136043000D01*
G75*
G02*
X143473000Y-136293000I0J-250000D01*
G01*
X143473000Y-136968000D01*
G75*
G02*
X143223000Y-137218000I-250000J0D01*
G01*
X142273000Y-137218000D01*
G75*
G02*
X142023000Y-136968000I0J250000D01*
G01*
X142023000Y-136293000D01*
G75*
G02*
X142273000Y-136043000I250000J0D01*
G01*
G37*
G36*
G01*
X170670322Y-132353073D02*
X171342073Y-131681322D01*
G75*
G02*
X171695627Y-131681322I176777J-176777D01*
G01*
X172172924Y-132158619D01*
G75*
G02*
X172172924Y-132512173I-176777J-176777D01*
G01*
X171501173Y-133183924D01*
G75*
G02*
X171147619Y-133183924I-176777J176777D01*
G01*
X170670322Y-132706627D01*
G75*
G02*
X170670322Y-132353073I176777J176777D01*
G01*
G37*
G36*
G01*
X169203076Y-130885827D02*
X169874827Y-130214076D01*
G75*
G02*
X170228381Y-130214076I176777J-176777D01*
G01*
X170705678Y-130691373D01*
G75*
G02*
X170705678Y-131044927I-176777J-176777D01*
G01*
X170033927Y-131716678D01*
G75*
G02*
X169680373Y-131716678I-176777J176777D01*
G01*
X169203076Y-131239381D01*
G75*
G02*
X169203076Y-130885827I176777J176777D01*
G01*
G37*
G36*
G01*
X169908322Y-128670073D02*
X170580073Y-127998322D01*
G75*
G02*
X170933627Y-127998322I176777J-176777D01*
G01*
X171410924Y-128475619D01*
G75*
G02*
X171410924Y-128829173I-176777J-176777D01*
G01*
X170739173Y-129500924D01*
G75*
G02*
X170385619Y-129500924I-176777J176777D01*
G01*
X169908322Y-129023627D01*
G75*
G02*
X169908322Y-128670073I176777J176777D01*
G01*
G37*
G36*
G01*
X168441076Y-127202827D02*
X169112827Y-126531076D01*
G75*
G02*
X169466381Y-126531076I176777J-176777D01*
G01*
X169943678Y-127008373D01*
G75*
G02*
X169943678Y-127361927I-176777J-176777D01*
G01*
X169271927Y-128033678D01*
G75*
G02*
X168918373Y-128033678I-176777J176777D01*
G01*
X168441076Y-127556381D01*
G75*
G02*
X168441076Y-127202827I176777J176777D01*
G01*
G37*
G36*
G01*
X171723073Y-135399678D02*
X171051322Y-134727927D01*
G75*
G02*
X171051322Y-134374373I176777J176777D01*
G01*
X171528619Y-133897076D01*
G75*
G02*
X171882173Y-133897076I176777J-176777D01*
G01*
X172553924Y-134568827D01*
G75*
G02*
X172553924Y-134922381I-176777J-176777D01*
G01*
X172076627Y-135399678D01*
G75*
G02*
X171723073Y-135399678I-176777J176777D01*
G01*
G37*
G36*
G01*
X170255827Y-136866924D02*
X169584076Y-136195173D01*
G75*
G02*
X169584076Y-135841619I176777J176777D01*
G01*
X170061373Y-135364322D01*
G75*
G02*
X170414927Y-135364322I176777J-176777D01*
G01*
X171086678Y-136036073D01*
G75*
G02*
X171086678Y-136389627I-176777J-176777D01*
G01*
X170609381Y-136866924D01*
G75*
G02*
X170255827Y-136866924I-176777J176777D01*
G01*
G37*
G36*
G01*
X170707073Y-139209678D02*
X170035322Y-138537927D01*
G75*
G02*
X170035322Y-138184373I176777J176777D01*
G01*
X170512619Y-137707076D01*
G75*
G02*
X170866173Y-137707076I176777J-176777D01*
G01*
X171537924Y-138378827D01*
G75*
G02*
X171537924Y-138732381I-176777J-176777D01*
G01*
X171060627Y-139209678D01*
G75*
G02*
X170707073Y-139209678I-176777J176777D01*
G01*
G37*
G36*
G01*
X169239827Y-140676924D02*
X168568076Y-140005173D01*
G75*
G02*
X168568076Y-139651619I176777J176777D01*
G01*
X169045373Y-139174322D01*
G75*
G02*
X169398927Y-139174322I176777J-176777D01*
G01*
X170070678Y-139846073D01*
G75*
G02*
X170070678Y-140199627I-176777J-176777D01*
G01*
X169593381Y-140676924D01*
G75*
G02*
X169239827Y-140676924I-176777J176777D01*
G01*
G37*
G36*
G01*
X155061500Y-134145000D02*
X155061500Y-135095000D01*
G75*
G02*
X154811500Y-135345000I-250000J0D01*
G01*
X154136500Y-135345000D01*
G75*
G02*
X153886500Y-135095000I0J250000D01*
G01*
X153886500Y-134145000D01*
G75*
G02*
X154136500Y-133895000I250000J0D01*
G01*
X154811500Y-133895000D01*
G75*
G02*
X155061500Y-134145000I0J-250000D01*
G01*
G37*
G36*
G01*
X157136500Y-134145000D02*
X157136500Y-135095000D01*
G75*
G02*
X156886500Y-135345000I-250000J0D01*
G01*
X156211500Y-135345000D01*
G75*
G02*
X155961500Y-135095000I0J250000D01*
G01*
X155961500Y-134145000D01*
G75*
G02*
X156211500Y-133895000I250000J0D01*
G01*
X156886500Y-133895000D01*
G75*
G02*
X157136500Y-134145000I0J-250000D01*
G01*
G37*
G36*
G01*
X157447000Y-127312000D02*
X156497000Y-127312000D01*
G75*
G02*
X156247000Y-127062000I0J250000D01*
G01*
X156247000Y-126387000D01*
G75*
G02*
X156497000Y-126137000I250000J0D01*
G01*
X157447000Y-126137000D01*
G75*
G02*
X157697000Y-126387000I0J-250000D01*
G01*
X157697000Y-127062000D01*
G75*
G02*
X157447000Y-127312000I-250000J0D01*
G01*
G37*
G36*
G01*
X157447000Y-129387000D02*
X156497000Y-129387000D01*
G75*
G02*
X156247000Y-129137000I0J250000D01*
G01*
X156247000Y-128462000D01*
G75*
G02*
X156497000Y-128212000I250000J0D01*
G01*
X157447000Y-128212000D01*
G75*
G02*
X157697000Y-128462000I0J-250000D01*
G01*
X157697000Y-129137000D01*
G75*
G02*
X157447000Y-129387000I-250000J0D01*
G01*
G37*
G36*
G01*
X155506000Y-136304000D02*
X155506000Y-137254000D01*
G75*
G02*
X155256000Y-137504000I-250000J0D01*
G01*
X154581000Y-137504000D01*
G75*
G02*
X154331000Y-137254000I0J250000D01*
G01*
X154331000Y-136304000D01*
G75*
G02*
X154581000Y-136054000I250000J0D01*
G01*
X155256000Y-136054000D01*
G75*
G02*
X155506000Y-136304000I0J-250000D01*
G01*
G37*
G36*
G01*
X157581000Y-136304000D02*
X157581000Y-137254000D01*
G75*
G02*
X157331000Y-137504000I-250000J0D01*
G01*
X156656000Y-137504000D01*
G75*
G02*
X156406000Y-137254000I0J250000D01*
G01*
X156406000Y-136304000D01*
G75*
G02*
X156656000Y-136054000I250000J0D01*
G01*
X157331000Y-136054000D01*
G75*
G02*
X157581000Y-136304000I0J-250000D01*
G01*
G37*
D26*
X167465000Y-115316000D03*
X167465000Y-114046000D03*
X167465000Y-112776000D03*
X167465000Y-111506000D03*
X161465000Y-111506000D03*
X161465000Y-112776000D03*
X161465000Y-114046000D03*
X161465000Y-115316000D03*
X151447500Y-133731000D03*
X151447500Y-132461000D03*
X151447500Y-131191000D03*
X151447500Y-129921000D03*
X145447500Y-129921000D03*
X145447500Y-131191000D03*
X145447500Y-132461000D03*
X145447500Y-133731000D03*
G36*
G01*
X124493500Y-116608000D02*
X125793500Y-116608000D01*
G75*
G02*
X125856000Y-116670500I0J-62500D01*
G01*
X125856000Y-116795500D01*
G75*
G02*
X125793500Y-116858000I-62500J0D01*
G01*
X124493500Y-116858000D01*
G75*
G02*
X124431000Y-116795500I0J62500D01*
G01*
X124431000Y-116670500D01*
G75*
G02*
X124493500Y-116608000I62500J0D01*
G01*
G37*
G36*
G01*
X124493500Y-117108000D02*
X125793500Y-117108000D01*
G75*
G02*
X125856000Y-117170500I0J-62500D01*
G01*
X125856000Y-117295500D01*
G75*
G02*
X125793500Y-117358000I-62500J0D01*
G01*
X124493500Y-117358000D01*
G75*
G02*
X124431000Y-117295500I0J62500D01*
G01*
X124431000Y-117170500D01*
G75*
G02*
X124493500Y-117108000I62500J0D01*
G01*
G37*
G36*
G01*
X124493500Y-117608000D02*
X125793500Y-117608000D01*
G75*
G02*
X125856000Y-117670500I0J-62500D01*
G01*
X125856000Y-117795500D01*
G75*
G02*
X125793500Y-117858000I-62500J0D01*
G01*
X124493500Y-117858000D01*
G75*
G02*
X124431000Y-117795500I0J62500D01*
G01*
X124431000Y-117670500D01*
G75*
G02*
X124493500Y-117608000I62500J0D01*
G01*
G37*
G36*
G01*
X124493500Y-118108000D02*
X125793500Y-118108000D01*
G75*
G02*
X125856000Y-118170500I0J-62500D01*
G01*
X125856000Y-118295500D01*
G75*
G02*
X125793500Y-118358000I-62500J0D01*
G01*
X124493500Y-118358000D01*
G75*
G02*
X124431000Y-118295500I0J62500D01*
G01*
X124431000Y-118170500D01*
G75*
G02*
X124493500Y-118108000I62500J0D01*
G01*
G37*
G36*
G01*
X124493500Y-118608000D02*
X125793500Y-118608000D01*
G75*
G02*
X125856000Y-118670500I0J-62500D01*
G01*
X125856000Y-118795500D01*
G75*
G02*
X125793500Y-118858000I-62500J0D01*
G01*
X124493500Y-118858000D01*
G75*
G02*
X124431000Y-118795500I0J62500D01*
G01*
X124431000Y-118670500D01*
G75*
G02*
X124493500Y-118608000I62500J0D01*
G01*
G37*
G36*
G01*
X124493500Y-119108000D02*
X125793500Y-119108000D01*
G75*
G02*
X125856000Y-119170500I0J-62500D01*
G01*
X125856000Y-119295500D01*
G75*
G02*
X125793500Y-119358000I-62500J0D01*
G01*
X124493500Y-119358000D01*
G75*
G02*
X124431000Y-119295500I0J62500D01*
G01*
X124431000Y-119170500D01*
G75*
G02*
X124493500Y-119108000I62500J0D01*
G01*
G37*
G36*
G01*
X126068500Y-119508000D02*
X126193500Y-119508000D01*
G75*
G02*
X126256000Y-119570500I0J-62500D01*
G01*
X126256000Y-120870500D01*
G75*
G02*
X126193500Y-120933000I-62500J0D01*
G01*
X126068500Y-120933000D01*
G75*
G02*
X126006000Y-120870500I0J62500D01*
G01*
X126006000Y-119570500D01*
G75*
G02*
X126068500Y-119508000I62500J0D01*
G01*
G37*
G36*
G01*
X126568500Y-119508000D02*
X126693500Y-119508000D01*
G75*
G02*
X126756000Y-119570500I0J-62500D01*
G01*
X126756000Y-120870500D01*
G75*
G02*
X126693500Y-120933000I-62500J0D01*
G01*
X126568500Y-120933000D01*
G75*
G02*
X126506000Y-120870500I0J62500D01*
G01*
X126506000Y-119570500D01*
G75*
G02*
X126568500Y-119508000I62500J0D01*
G01*
G37*
G36*
G01*
X127068500Y-119508000D02*
X127193500Y-119508000D01*
G75*
G02*
X127256000Y-119570500I0J-62500D01*
G01*
X127256000Y-120870500D01*
G75*
G02*
X127193500Y-120933000I-62500J0D01*
G01*
X127068500Y-120933000D01*
G75*
G02*
X127006000Y-120870500I0J62500D01*
G01*
X127006000Y-119570500D01*
G75*
G02*
X127068500Y-119508000I62500J0D01*
G01*
G37*
G36*
G01*
X127568500Y-119508000D02*
X127693500Y-119508000D01*
G75*
G02*
X127756000Y-119570500I0J-62500D01*
G01*
X127756000Y-120870500D01*
G75*
G02*
X127693500Y-120933000I-62500J0D01*
G01*
X127568500Y-120933000D01*
G75*
G02*
X127506000Y-120870500I0J62500D01*
G01*
X127506000Y-119570500D01*
G75*
G02*
X127568500Y-119508000I62500J0D01*
G01*
G37*
G36*
G01*
X128068500Y-119508000D02*
X128193500Y-119508000D01*
G75*
G02*
X128256000Y-119570500I0J-62500D01*
G01*
X128256000Y-120870500D01*
G75*
G02*
X128193500Y-120933000I-62500J0D01*
G01*
X128068500Y-120933000D01*
G75*
G02*
X128006000Y-120870500I0J62500D01*
G01*
X128006000Y-119570500D01*
G75*
G02*
X128068500Y-119508000I62500J0D01*
G01*
G37*
G36*
G01*
X128568500Y-119508000D02*
X128693500Y-119508000D01*
G75*
G02*
X128756000Y-119570500I0J-62500D01*
G01*
X128756000Y-120870500D01*
G75*
G02*
X128693500Y-120933000I-62500J0D01*
G01*
X128568500Y-120933000D01*
G75*
G02*
X128506000Y-120870500I0J62500D01*
G01*
X128506000Y-119570500D01*
G75*
G02*
X128568500Y-119508000I62500J0D01*
G01*
G37*
G36*
G01*
X128968500Y-119108000D02*
X130268500Y-119108000D01*
G75*
G02*
X130331000Y-119170500I0J-62500D01*
G01*
X130331000Y-119295500D01*
G75*
G02*
X130268500Y-119358000I-62500J0D01*
G01*
X128968500Y-119358000D01*
G75*
G02*
X128906000Y-119295500I0J62500D01*
G01*
X128906000Y-119170500D01*
G75*
G02*
X128968500Y-119108000I62500J0D01*
G01*
G37*
G36*
G01*
X128968500Y-118608000D02*
X130268500Y-118608000D01*
G75*
G02*
X130331000Y-118670500I0J-62500D01*
G01*
X130331000Y-118795500D01*
G75*
G02*
X130268500Y-118858000I-62500J0D01*
G01*
X128968500Y-118858000D01*
G75*
G02*
X128906000Y-118795500I0J62500D01*
G01*
X128906000Y-118670500D01*
G75*
G02*
X128968500Y-118608000I62500J0D01*
G01*
G37*
G36*
G01*
X128968500Y-118108000D02*
X130268500Y-118108000D01*
G75*
G02*
X130331000Y-118170500I0J-62500D01*
G01*
X130331000Y-118295500D01*
G75*
G02*
X130268500Y-118358000I-62500J0D01*
G01*
X128968500Y-118358000D01*
G75*
G02*
X128906000Y-118295500I0J62500D01*
G01*
X128906000Y-118170500D01*
G75*
G02*
X128968500Y-118108000I62500J0D01*
G01*
G37*
G36*
G01*
X128968500Y-117608000D02*
X130268500Y-117608000D01*
G75*
G02*
X130331000Y-117670500I0J-62500D01*
G01*
X130331000Y-117795500D01*
G75*
G02*
X130268500Y-117858000I-62500J0D01*
G01*
X128968500Y-117858000D01*
G75*
G02*
X128906000Y-117795500I0J62500D01*
G01*
X128906000Y-117670500D01*
G75*
G02*
X128968500Y-117608000I62500J0D01*
G01*
G37*
G36*
G01*
X128968500Y-117108000D02*
X130268500Y-117108000D01*
G75*
G02*
X130331000Y-117170500I0J-62500D01*
G01*
X130331000Y-117295500D01*
G75*
G02*
X130268500Y-117358000I-62500J0D01*
G01*
X128968500Y-117358000D01*
G75*
G02*
X128906000Y-117295500I0J62500D01*
G01*
X128906000Y-117170500D01*
G75*
G02*
X128968500Y-117108000I62500J0D01*
G01*
G37*
G36*
G01*
X128968500Y-116608000D02*
X130268500Y-116608000D01*
G75*
G02*
X130331000Y-116670500I0J-62500D01*
G01*
X130331000Y-116795500D01*
G75*
G02*
X130268500Y-116858000I-62500J0D01*
G01*
X128968500Y-116858000D01*
G75*
G02*
X128906000Y-116795500I0J62500D01*
G01*
X128906000Y-116670500D01*
G75*
G02*
X128968500Y-116608000I62500J0D01*
G01*
G37*
G36*
G01*
X128568500Y-115033000D02*
X128693500Y-115033000D01*
G75*
G02*
X128756000Y-115095500I0J-62500D01*
G01*
X128756000Y-116395500D01*
G75*
G02*
X128693500Y-116458000I-62500J0D01*
G01*
X128568500Y-116458000D01*
G75*
G02*
X128506000Y-116395500I0J62500D01*
G01*
X128506000Y-115095500D01*
G75*
G02*
X128568500Y-115033000I62500J0D01*
G01*
G37*
G36*
G01*
X128068500Y-115033000D02*
X128193500Y-115033000D01*
G75*
G02*
X128256000Y-115095500I0J-62500D01*
G01*
X128256000Y-116395500D01*
G75*
G02*
X128193500Y-116458000I-62500J0D01*
G01*
X128068500Y-116458000D01*
G75*
G02*
X128006000Y-116395500I0J62500D01*
G01*
X128006000Y-115095500D01*
G75*
G02*
X128068500Y-115033000I62500J0D01*
G01*
G37*
G36*
G01*
X127568500Y-115033000D02*
X127693500Y-115033000D01*
G75*
G02*
X127756000Y-115095500I0J-62500D01*
G01*
X127756000Y-116395500D01*
G75*
G02*
X127693500Y-116458000I-62500J0D01*
G01*
X127568500Y-116458000D01*
G75*
G02*
X127506000Y-116395500I0J62500D01*
G01*
X127506000Y-115095500D01*
G75*
G02*
X127568500Y-115033000I62500J0D01*
G01*
G37*
G36*
G01*
X127068500Y-115033000D02*
X127193500Y-115033000D01*
G75*
G02*
X127256000Y-115095500I0J-62500D01*
G01*
X127256000Y-116395500D01*
G75*
G02*
X127193500Y-116458000I-62500J0D01*
G01*
X127068500Y-116458000D01*
G75*
G02*
X127006000Y-116395500I0J62500D01*
G01*
X127006000Y-115095500D01*
G75*
G02*
X127068500Y-115033000I62500J0D01*
G01*
G37*
G36*
G01*
X126568500Y-115033000D02*
X126693500Y-115033000D01*
G75*
G02*
X126756000Y-115095500I0J-62500D01*
G01*
X126756000Y-116395500D01*
G75*
G02*
X126693500Y-116458000I-62500J0D01*
G01*
X126568500Y-116458000D01*
G75*
G02*
X126506000Y-116395500I0J62500D01*
G01*
X126506000Y-115095500D01*
G75*
G02*
X126568500Y-115033000I62500J0D01*
G01*
G37*
G36*
G01*
X126068500Y-115033000D02*
X126193500Y-115033000D01*
G75*
G02*
X126256000Y-115095500I0J-62500D01*
G01*
X126256000Y-116395500D01*
G75*
G02*
X126193500Y-116458000I-62500J0D01*
G01*
X126068500Y-116458000D01*
G75*
G02*
X126006000Y-116395500I0J62500D01*
G01*
X126006000Y-115095500D01*
G75*
G02*
X126068500Y-115033000I62500J0D01*
G01*
G37*
G36*
G01*
X126330600Y-116683000D02*
X128431400Y-116683000D01*
G75*
G02*
X128681000Y-116932600I0J-249600D01*
G01*
X128681000Y-119033400D01*
G75*
G02*
X128431400Y-119283000I-249600J0D01*
G01*
X126330600Y-119283000D01*
G75*
G02*
X126081000Y-119033400I0J249600D01*
G01*
X126081000Y-116932600D01*
G75*
G02*
X126330600Y-116683000I249600J0D01*
G01*
G37*
M02*
