M48
; DRILL file {KiCad (5.1.8)-1} date 07/21/21 13:57:46
; FORMAT={-:-/ absolute / metric / decimal}
; #@! TF.CreationDate,2021-07-21T13:57:46+02:00
; #@! TF.GenerationSoftware,Kicad,Pcbnew,(5.1.8)-1
FMAT,2
METRIC
T1C0.300
T2C0.650
T3C0.762
T4C0.890
T5C0.950
T6C0.990
T7C1.000
T8C1.020
T9C1.100
T10C1.200
T11C1.300
T12C1.500
T13C1.630
T14C2.000
T15C2.500
T16C3.000
T17C0.700
T18C0.900
T19C1.200
T20C3.250
%
G90
G05
T1
X110.559Y-121.555
X110.601Y-114.935
X121.285Y-113.474
X121.793Y-116.459
X122.936Y-128.168
X123.139Y-126.546
X124.65Y-113.792
X125.222Y-120.015
X126.815Y-125.291
X127.762Y-121.412
X127.965Y-132.182
X128.143Y-114.681
X129.286Y-129.438
X129.667Y-110.236
X130.493Y-116.522
X130.647Y-120.931
X130.945Y-119.704
X131.088Y-117.6
X131.318Y-147.574
X132.08Y-147.574
X132.334Y-143.002
X132.842Y-147.574
X133.159Y-114.363
X133.604Y-147.574
X134.366Y-108.585
X134.366Y-126.111
X134.429Y-132.004
X134.747Y-123.063
X135.255Y-110.871
X135.618Y-115.289
X135.953Y-122.809
X136.334Y-108.458
X137.196Y-126.759
X137.511Y-115.944
X138.049Y-123.507
X139.573Y-105.791
X139.573Y-119.57
X139.573Y-120.523
X139.7Y-114.046
X140.208Y-109.728
X144.271Y-146.304
X144.907Y-133.731
X145.987Y-129.857
X146.939Y-126.238
X147.32Y-143.561
X147.371Y-135.296
X147.371Y-145.339
X147.828Y-126.238
X148.717Y-126.238
X149.809Y-137.82
X150.173Y-128.202
X151.003Y-128.207
X151.384Y-121.158
X152.082Y-130.003
X152.337Y-121.158
X153.111Y-132.182
X153.147Y-110.871
X153.365Y-145.288
X153.487Y-147.249
X153.924Y-118.491
X153.924Y-119.761
X154.432Y-131.216
X154.502Y-110.864
X154.534Y-117.348
X154.581Y-108.309
X154.686Y-128.397
X154.686Y-130.302
X154.689Y-129.473
X155.51Y-112.134
X155.51Y-115.944
X156.083Y-109.601
X157.11Y-136.663
X158.115Y-107.337
X158.131Y-113.427
X159.893Y-109.728
X159.893Y-110.617
X165.733Y-128.78
X165.733Y-136.629
X167.513Y-115.316
X167.792Y-145.304
X170.561Y-112.776
X170.561Y-114.046
X173.415Y-147.061
X176.276Y-136.652
X176.53Y-128.778
X176.911Y-111.379
X177.419Y-136.652
X177.8Y-128.778
X178.435Y-136.652
X178.816Y-128.778
X179.705Y-136.652
X180.086Y-128.778
X185.674Y-124.206
X191.28Y-115.226
X193.321Y-108.727
X193.891Y-131.75
T2
X138.176Y-126.619
X138.176Y-127.889
X139.446Y-126.619
X139.446Y-127.889
X140.716Y-126.619
X140.716Y-127.889
T3
X130.33Y-101.346
X130.33Y-103.886
X132.87Y-101.346
X132.87Y-103.886
T4
X119.888Y-113.924
X119.888Y-116.464
X119.888Y-119.004
X119.888Y-121.544
X122.428Y-112.654
X122.428Y-115.194
X122.428Y-117.734
X122.428Y-120.274
T5
X107.943Y-129.286
X110.443Y-129.286
X112.943Y-129.286
X115.443Y-129.286
T6
X163.5Y-99.5
X168.0Y-99.5
T7
X121.551Y-144.602
X159.258Y-126.365
X159.258Y-138.43
X160.401Y-124.206
X161.29Y-126.238
X161.417Y-128.143
X161.417Y-136.906
X161.417Y-138.938
X163.322Y-128.016
X163.449Y-136.906
X164.719Y-120.396
X167.386Y-120.396
X169.926Y-120.269
X116.205Y-138.811
X116.205Y-141.351
X116.205Y-143.891
X116.205Y-146.431
X116.205Y-148.971
X118.745Y-138.811
X118.745Y-141.351
X118.745Y-143.891
X118.745Y-146.431
X118.745Y-148.971
X159.196Y-144.334
X161.671Y-141.859
X160.974Y-121.096
X163.449Y-123.571
T8
X108.638Y-110.469
X108.638Y-113.009
X108.638Y-121.179
X108.638Y-123.719
T9
X182.677Y-151.13
X192.837Y-151.13
T10
X186.944Y-128.93
X186.944Y-132.43
X186.944Y-135.93
X186.944Y-139.43
X186.944Y-110.363
X186.944Y-113.863
X186.944Y-117.363
X186.944Y-120.863
T11
X162.24Y-101.99
X169.25Y-101.99
T12
X127.381Y-117.983
T13
X116.588Y-109.349
X116.588Y-124.839
T14
X132.334Y-145.288
T15
X162.433Y-132.715
T16
X147.511Y-113.284
T17
X179.15Y-108.75
X180.85Y-108.75
T18
X193.04Y-114.476
X193.04Y-117.476
T19
X117.043Y-131.286
T20
X113.538Y-111.379
X113.538Y-122.809
T0
M30
