G04 #@! TF.FileFunction,Soldermask,Bot*
%FSLAX46Y46*%
G04 Gerber Fmt 4.6, Leading zero omitted, Abs format (unit mm)*
G04 Created by KiCad (PCBNEW 4.0.5) date 07/26/17 23:20:59*
%MOMM*%
%LPD*%
G01*
G04 APERTURE LIST*
%ADD10C,0.100000*%
%ADD11O,1.900000X2.400000*%
%ADD12R,1.900000X2.400000*%
%ADD13R,2.900000X2.400000*%
%ADD14R,1.650000X1.900000*%
%ADD15R,0.800000X2.400000*%
%ADD16R,1.900000X1.700000*%
%ADD17R,1.050000X1.900000*%
%ADD18C,2.000000*%
%ADD19R,1.000000X2.600000*%
%ADD20R,1.416000X1.416000*%
%ADD21O,2.400000X1.900000*%
%ADD22R,2.400000X1.900000*%
%ADD23C,4.700000*%
G04 APERTURE END LIST*
D10*
D11*
X169926000Y-114042000D03*
X169926000Y-111002000D03*
X167386000Y-111002000D03*
X167386000Y-114042000D03*
D12*
X159766000Y-114042000D03*
D11*
X159766000Y-111002000D03*
X162306000Y-114042000D03*
X162306000Y-111002000D03*
X164846000Y-114042000D03*
X164846000Y-111002000D03*
D13*
X168910000Y-127540000D03*
X168910000Y-131540000D03*
D14*
X166370000Y-127274000D03*
X166370000Y-129774000D03*
D15*
X168002000Y-118620000D03*
X175152000Y-125220000D03*
X168652000Y-118620000D03*
X169302000Y-118620000D03*
X169952000Y-118620000D03*
X170602000Y-118620000D03*
X171252000Y-118620000D03*
X171902000Y-118620000D03*
X172552000Y-118620000D03*
X173202000Y-118620000D03*
X173852000Y-118620000D03*
X174502000Y-118620000D03*
X175152000Y-118620000D03*
X174502000Y-125220000D03*
X173852000Y-125220000D03*
X173202000Y-125220000D03*
X172552000Y-125220000D03*
X171902000Y-125220000D03*
X171252000Y-125220000D03*
X170602000Y-125220000D03*
X169952000Y-125220000D03*
X169302000Y-125220000D03*
X168652000Y-125220000D03*
X168002000Y-125220000D03*
D16*
X184070000Y-102870000D03*
X186770000Y-102870000D03*
X184070000Y-113030000D03*
X186770000Y-113030000D03*
X178355000Y-105029000D03*
X181055000Y-105029000D03*
X181055000Y-102870000D03*
X178355000Y-102870000D03*
X178355000Y-115189000D03*
X181055000Y-115189000D03*
X181055000Y-113030000D03*
X178355000Y-113030000D03*
X178355000Y-108331000D03*
X181055000Y-108331000D03*
X181055000Y-110490000D03*
X178355000Y-110490000D03*
X178355000Y-118491000D03*
X181055000Y-118491000D03*
X181055000Y-120650000D03*
X178355000Y-120650000D03*
X186770000Y-110490000D03*
X184070000Y-110490000D03*
X186770000Y-120650000D03*
X184070000Y-120650000D03*
X184070000Y-123190000D03*
X186770000Y-123190000D03*
X184070000Y-133350000D03*
X186770000Y-133350000D03*
X178355000Y-125349000D03*
X181055000Y-125349000D03*
X181055000Y-123190000D03*
X178355000Y-123190000D03*
X178355000Y-135509000D03*
X181055000Y-135509000D03*
X181055000Y-133350000D03*
X178355000Y-133350000D03*
X178355000Y-128651000D03*
X181055000Y-128651000D03*
X181055000Y-130810000D03*
X178355000Y-130810000D03*
X178482000Y-138811000D03*
X181182000Y-138811000D03*
X181182000Y-140970000D03*
X178482000Y-140970000D03*
X186770000Y-130810000D03*
X184070000Y-130810000D03*
X186770000Y-140970000D03*
X184070000Y-140970000D03*
D17*
X183073000Y-105330000D03*
X184023000Y-105330000D03*
X184973000Y-105330000D03*
X184973000Y-108030000D03*
X183073000Y-108030000D03*
X184023000Y-108030000D03*
X182946000Y-115490000D03*
X183896000Y-115490000D03*
X184846000Y-115490000D03*
X184846000Y-118190000D03*
X182946000Y-118190000D03*
X183896000Y-118190000D03*
X182946000Y-125650000D03*
X183896000Y-125650000D03*
X184846000Y-125650000D03*
X184846000Y-128350000D03*
X182946000Y-128350000D03*
X183896000Y-128350000D03*
X182946000Y-135810000D03*
X183896000Y-135810000D03*
X184846000Y-135810000D03*
X184846000Y-138510000D03*
X182946000Y-138510000D03*
X183896000Y-138510000D03*
D18*
X155956000Y-127508000D03*
X155956000Y-132588000D03*
X158496000Y-127508000D03*
X158496000Y-132588000D03*
D19*
X159766000Y-125047000D03*
X158496000Y-125047000D03*
X157226000Y-125047000D03*
X155956000Y-125047000D03*
X155956000Y-119047000D03*
X157226000Y-119047000D03*
X158496000Y-119047000D03*
X159766000Y-119047000D03*
D14*
X160528000Y-127274000D03*
X160528000Y-129774000D03*
D20*
X161798000Y-108902500D03*
X161798000Y-107505500D03*
X163576000Y-108902500D03*
X163576000Y-107505500D03*
X165354000Y-108902500D03*
X165354000Y-107505500D03*
D21*
X191139000Y-140970000D03*
X194179000Y-140970000D03*
X191139000Y-135890000D03*
X194179000Y-135890000D03*
X194179000Y-138430000D03*
X191139000Y-138430000D03*
X191139000Y-133350000D03*
X194179000Y-133350000D03*
X194179000Y-130810000D03*
X191139000Y-130810000D03*
X191139000Y-128270000D03*
X194179000Y-128270000D03*
X194179000Y-125730000D03*
X191139000Y-125730000D03*
X191139000Y-123190000D03*
X194179000Y-123190000D03*
X194179000Y-120650000D03*
X191139000Y-120650000D03*
X191139000Y-118110000D03*
X194179000Y-118110000D03*
X194179000Y-115570000D03*
X191139000Y-115570000D03*
X191139000Y-113030000D03*
X194179000Y-113030000D03*
X194179000Y-110490000D03*
X191139000Y-110490000D03*
D22*
X191139000Y-102870000D03*
D21*
X194179000Y-102870000D03*
X191139000Y-105410000D03*
X194179000Y-105410000D03*
X191139000Y-107950000D03*
X194179000Y-107950000D03*
D23*
X170180000Y-137160000D03*
X159000000Y-102000000D03*
M02*
