M48
;DRILL file {KiCad 4.0.0-stable} date 08.12.2015 15:00:08
;FORMAT={-:-/ absolute / metric / decimal}
FMAT,2
METRIC,TZ
T1C0.305
T2C0.610
T3C0.800
T4C0.813
T5C0.900
T6C1.001
T7C1.016
T8C2.200
T9C3.700
%
G90
G05
M71
T1
X124.714Y-88.011
X124.968Y-90.805
X126.365Y-105.283
X126.365Y-112.776
X127.127Y-103.632
X128.143Y-103.632
X128.651Y-77.216
X128.651Y-78.105
X128.651Y-78.994
X128.651Y-79.883
X128.651Y-80.899
X129.159Y-84.709
X129.54Y-80.899
X129.54Y-91.567
X130.048Y-88.773
X130.429Y-94.742
X131.064Y-95.631
X131.064Y-96.774
X131.064Y-97.917
X131.064Y-98.806
X131.064Y-99.695
X131.064Y-100.584
X132.969Y-81.153
X133.35Y-95.123
X133.35Y-96.012
X133.35Y-96.901
X133.35Y-97.79
X133.35Y-98.679
X133.35Y-99.568
X133.35Y-100.457
X133.477Y-108.585
X133.477Y-109.601
X133.858Y-76.454
X133.858Y-77.343
X133.858Y-78.232
X133.858Y-79.121
X133.858Y-80.01
X133.858Y-80.899
X134.239Y-95.123
X134.239Y-96.012
X134.239Y-96.901
X134.239Y-97.79
X134.239Y-98.679
X134.239Y-99.568
X134.239Y-100.457
X134.239Y-106.426
X134.493Y-112.776
X135.128Y-95.123
X135.128Y-96.012
X135.128Y-96.901
X135.128Y-98.679
X135.128Y-99.568
X135.128Y-100.457
X135.763Y-90.17
X135.763Y-112.776
X136.017Y-95.123
X136.017Y-96.012
X136.017Y-96.901
X136.017Y-98.044
X136.017Y-99.568
X136.017Y-100.457
X136.652Y-90.17
X136.906Y-93.853
X137.414Y-113.284
X138.43Y-106.553
X138.43Y-107.823
X139.065Y-107.188
X139.827Y-100.076
X140.843Y-107.823
X141.478Y-107.188
X142.113Y-106.553
X142.113Y-122.936
X143.002Y-122.682
X143.383Y-105.41
X144.272Y-122.174
X145.669Y-121.412
X146.685Y-120.904
X152.527Y-85.725
X160.909Y-123.063
X177.038Y-132.969
T2
X129.667Y-103.759
X131.191Y-119.761
X131.445Y-123.952
X139.446Y-101.6
X153.924Y-127.762
T3
X129.159Y-113.538
T4
X133.858Y-83.058
X133.858Y-90.678
X138.938Y-83.058
X138.938Y-90.678
T5
X148.844Y-114.046
X148.844Y-116.586
X148.844Y-121.666
X148.844Y-124.206
X153.924Y-114.046
X153.924Y-116.586
X153.924Y-121.666
X153.924Y-124.206
T6
X147.501Y-92.499
X147.501Y-107.
X150.Y-92.499
X152.499Y-92.499
X152.499Y-107.
T7
X127.889Y-106.172
X127.889Y-108.712
X127.889Y-111.252
X130.429Y-106.172
X130.429Y-108.712
X130.429Y-111.252
X140.97Y-77.216
X140.97Y-79.756
X143.51Y-77.216
X143.51Y-79.756
X143.637Y-109.093
X146.05Y-77.216
X146.05Y-79.756
X146.177Y-109.093
X148.59Y-77.216
X148.59Y-79.756
X148.717Y-109.093
X151.13Y-77.216
X151.13Y-79.756
X151.257Y-109.093
X153.67Y-77.216
X153.67Y-79.756
X153.797Y-109.093
X156.21Y-77.216
X156.21Y-79.756
X156.337Y-109.093
X158.75Y-77.216
X158.75Y-79.756
X158.75Y-82.296
X158.75Y-84.836
X158.75Y-87.376
X158.75Y-89.916
X161.544Y-82.296
X161.544Y-84.836
X161.544Y-87.376
X161.544Y-89.916
X161.671Y-79.756
X164.084Y-82.296
X164.084Y-84.836
X164.084Y-87.376
X164.084Y-89.916
X172.847Y-95.123
X172.847Y-97.663
X172.847Y-106.553
X172.847Y-109.093
T8
X143.8Y-100.
X156.2Y-100.
T9
X150.Y-100.
T0
M30
