G04 #@! TF.FileFunction,Legend,Bot*
%FSLAX46Y46*%
G04 Gerber Fmt 4.6, Leading zero omitted, Abs format (unit mm)*
G04 Created by KiCad (PCBNEW 4.0.0-stable) date 08.12.2015 15:00:05*
%MOMM*%
G01*
G04 APERTURE LIST*
%ADD10C,0.100000*%
%ADD11C,0.300000*%
%ADD12C,0.200000*%
%ADD13C,0.150000*%
%ADD14C,0.381000*%
%ADD15C,0.285750*%
%ADD16C,0.287020*%
%ADD17R,0.290000X2.000000*%
%ADD18R,2.000000X0.290000*%
%ADD19R,2.032000X1.727200*%
%ADD20O,2.032000X1.727200*%
%ADD21R,1.500000X1.250000*%
%ADD22R,1.250000X1.500000*%
%ADD23C,1.397000*%
%ADD24R,1.727200X1.727200*%
%ADD25O,1.727200X1.727200*%
%ADD26R,1.500000X1.300000*%
%ADD27R,2.800000X0.600000*%
%ADD28C,1.600000*%
%ADD29R,1.400000X2.200000*%
%ADD30R,1.501140X1.501140*%
%ADD31R,2.500000X1.800000*%
%ADD32R,1.300000X1.500000*%
%ADD33R,2.032000X2.032000*%
%ADD34O,2.032000X2.032000*%
%ADD35R,1.700000X2.000000*%
%ADD36O,1.501140X1.998980*%
%ADD37C,3.500120*%
%ADD38R,2.235200X2.235200*%
%ADD39R,0.600000X2.200000*%
%ADD40R,1.727200X2.032000*%
%ADD41O,1.727200X2.032000*%
G04 APERTURE END LIST*
D10*
D11*
X169417572Y-115779000D02*
X169560429Y-115707571D01*
X169774715Y-115707571D01*
X169989000Y-115779000D01*
X170131858Y-115921857D01*
X170203286Y-116064714D01*
X170274715Y-116350429D01*
X170274715Y-116564714D01*
X170203286Y-116850429D01*
X170131858Y-116993286D01*
X169989000Y-117136143D01*
X169774715Y-117207571D01*
X169631858Y-117207571D01*
X169417572Y-117136143D01*
X169346143Y-117064714D01*
X169346143Y-116564714D01*
X169631858Y-116564714D01*
X168703286Y-117207571D02*
X168703286Y-115707571D01*
X167846143Y-117207571D01*
X167846143Y-115707571D01*
X167131857Y-117207571D02*
X167131857Y-115707571D01*
X166774714Y-115707571D01*
X166560429Y-115779000D01*
X166417571Y-115921857D01*
X166346143Y-116064714D01*
X166274714Y-116350429D01*
X166274714Y-116564714D01*
X166346143Y-116850429D01*
X166417571Y-116993286D01*
X166560429Y-117136143D01*
X166774714Y-117207571D01*
X167131857Y-117207571D01*
X174631855Y-118107571D02*
X174274712Y-119607571D01*
X173988998Y-118536143D01*
X173703284Y-119607571D01*
X173346141Y-118107571D01*
X172846141Y-119536143D02*
X172631855Y-119607571D01*
X172274712Y-119607571D01*
X172131855Y-119536143D01*
X172060426Y-119464714D01*
X171988998Y-119321857D01*
X171988998Y-119179000D01*
X172060426Y-119036143D01*
X172131855Y-118964714D01*
X172274712Y-118893286D01*
X172560426Y-118821857D01*
X172703284Y-118750429D01*
X172774712Y-118679000D01*
X172846141Y-118536143D01*
X172846141Y-118393286D01*
X172774712Y-118250429D01*
X172703284Y-118179000D01*
X172560426Y-118107571D01*
X172203284Y-118107571D01*
X171988998Y-118179000D01*
X171417570Y-118250429D02*
X171346141Y-118179000D01*
X171203284Y-118107571D01*
X170846141Y-118107571D01*
X170703284Y-118179000D01*
X170631855Y-118250429D01*
X170560427Y-118393286D01*
X170560427Y-118536143D01*
X170631855Y-118750429D01*
X171488998Y-119607571D01*
X170560427Y-119607571D01*
X169703284Y-118750429D02*
X169846142Y-118679000D01*
X169917570Y-118607571D01*
X169988999Y-118464714D01*
X169988999Y-118393286D01*
X169917570Y-118250429D01*
X169846142Y-118179000D01*
X169703284Y-118107571D01*
X169417570Y-118107571D01*
X169274713Y-118179000D01*
X169203284Y-118250429D01*
X169131856Y-118393286D01*
X169131856Y-118464714D01*
X169203284Y-118607571D01*
X169274713Y-118679000D01*
X169417570Y-118750429D01*
X169703284Y-118750429D01*
X169846142Y-118821857D01*
X169917570Y-118893286D01*
X169988999Y-119036143D01*
X169988999Y-119321857D01*
X169917570Y-119464714D01*
X169846142Y-119536143D01*
X169703284Y-119607571D01*
X169417570Y-119607571D01*
X169274713Y-119536143D01*
X169203284Y-119464714D01*
X169131856Y-119321857D01*
X169131856Y-119036143D01*
X169203284Y-118893286D01*
X169274713Y-118821857D01*
X169417570Y-118750429D01*
X167703285Y-119607571D02*
X168560428Y-119607571D01*
X168131856Y-119607571D02*
X168131856Y-118107571D01*
X168274713Y-118321857D01*
X168417571Y-118464714D01*
X168560428Y-118536143D01*
X167131857Y-118250429D02*
X167060428Y-118179000D01*
X166917571Y-118107571D01*
X166560428Y-118107571D01*
X166417571Y-118179000D01*
X166346142Y-118250429D01*
X166274714Y-118393286D01*
X166274714Y-118536143D01*
X166346142Y-118750429D01*
X167203285Y-119607571D01*
X166274714Y-119607571D01*
D12*
X172802571Y-82882857D02*
X172059714Y-82882857D01*
X172459714Y-83340000D01*
X172288286Y-83340000D01*
X172174000Y-83397143D01*
X172116857Y-83454286D01*
X172059714Y-83568571D01*
X172059714Y-83854286D01*
X172116857Y-83968571D01*
X172174000Y-84025714D01*
X172288286Y-84082857D01*
X172631143Y-84082857D01*
X172745429Y-84025714D01*
X172802571Y-83968571D01*
X171716857Y-82882857D02*
X171316857Y-84082857D01*
X170916857Y-82882857D01*
X170631143Y-82882857D02*
X169888286Y-82882857D01*
X170288286Y-83340000D01*
X170116858Y-83340000D01*
X170002572Y-83397143D01*
X169945429Y-83454286D01*
X169888286Y-83568571D01*
X169888286Y-83854286D01*
X169945429Y-83968571D01*
X170002572Y-84025714D01*
X170116858Y-84082857D01*
X170459715Y-84082857D01*
X170574001Y-84025714D01*
X170631143Y-83968571D01*
X172688286Y-85962857D02*
X172688286Y-84762857D01*
X172002571Y-85962857D01*
X172002571Y-84762857D01*
X170745428Y-85848571D02*
X170802571Y-85905714D01*
X170974000Y-85962857D01*
X171088286Y-85962857D01*
X171259714Y-85905714D01*
X171374000Y-85791429D01*
X171431143Y-85677143D01*
X171488286Y-85448571D01*
X171488286Y-85277143D01*
X171431143Y-85048571D01*
X171374000Y-84934286D01*
X171259714Y-84820000D01*
X171088286Y-84762857D01*
X170974000Y-84762857D01*
X170802571Y-84820000D01*
X170745428Y-84877143D01*
X172802571Y-86642857D02*
X172059714Y-86642857D01*
X172459714Y-87100000D01*
X172288286Y-87100000D01*
X172174000Y-87157143D01*
X172116857Y-87214286D01*
X172059714Y-87328571D01*
X172059714Y-87614286D01*
X172116857Y-87728571D01*
X172174000Y-87785714D01*
X172288286Y-87842857D01*
X172631143Y-87842857D01*
X172745429Y-87785714D01*
X172802571Y-87728571D01*
X171716857Y-86642857D02*
X171316857Y-87842857D01*
X170916857Y-86642857D01*
X170631143Y-86642857D02*
X169888286Y-86642857D01*
X170288286Y-87100000D01*
X170116858Y-87100000D01*
X170002572Y-87157143D01*
X169945429Y-87214286D01*
X169888286Y-87328571D01*
X169888286Y-87614286D01*
X169945429Y-87728571D01*
X170002572Y-87785714D01*
X170116858Y-87842857D01*
X170459715Y-87842857D01*
X170574001Y-87785714D01*
X170631143Y-87728571D01*
X172859714Y-88522857D02*
X172174000Y-88522857D01*
X172516857Y-89722857D02*
X172516857Y-88522857D01*
X171888285Y-88522857D02*
X171088285Y-89722857D01*
X171088285Y-88522857D02*
X171888285Y-89722857D01*
X174853428Y-84082857D02*
X175253428Y-83511429D01*
X175539143Y-84082857D02*
X175539143Y-82882857D01*
X175082000Y-82882857D01*
X174967714Y-82940000D01*
X174910571Y-82997143D01*
X174853428Y-83111429D01*
X174853428Y-83282857D01*
X174910571Y-83397143D01*
X174967714Y-83454286D01*
X175082000Y-83511429D01*
X175539143Y-83511429D01*
X174453428Y-82882857D02*
X173653428Y-84082857D01*
X173653428Y-82882857D02*
X174453428Y-84082857D01*
X177710572Y-85962857D02*
X177710572Y-84762857D01*
X177024857Y-85962857D01*
X177024857Y-84762857D01*
X175767714Y-85962857D02*
X176167714Y-85391429D01*
X176453429Y-85962857D02*
X176453429Y-84762857D01*
X175996286Y-84762857D01*
X175882000Y-84820000D01*
X175824857Y-84877143D01*
X175767714Y-84991429D01*
X175767714Y-85162857D01*
X175824857Y-85277143D01*
X175882000Y-85334286D01*
X175996286Y-85391429D01*
X176453429Y-85391429D01*
X175310572Y-85905714D02*
X175139143Y-85962857D01*
X174853429Y-85962857D01*
X174739143Y-85905714D01*
X174682000Y-85848571D01*
X174624857Y-85734286D01*
X174624857Y-85620000D01*
X174682000Y-85505714D01*
X174739143Y-85448571D01*
X174853429Y-85391429D01*
X175082000Y-85334286D01*
X175196286Y-85277143D01*
X175253429Y-85220000D01*
X175310572Y-85105714D01*
X175310572Y-84991429D01*
X175253429Y-84877143D01*
X175196286Y-84820000D01*
X175082000Y-84762857D01*
X174796286Y-84762857D01*
X174624857Y-84820000D01*
X174282000Y-84762857D02*
X173596286Y-84762857D01*
X173939143Y-85962857D02*
X173939143Y-84762857D01*
X178567715Y-87214286D02*
X178396286Y-87271429D01*
X178339143Y-87328571D01*
X178282000Y-87442857D01*
X178282000Y-87614286D01*
X178339143Y-87728571D01*
X178396286Y-87785714D01*
X178510572Y-87842857D01*
X178967715Y-87842857D01*
X178967715Y-86642857D01*
X178567715Y-86642857D01*
X178453429Y-86700000D01*
X178396286Y-86757143D01*
X178339143Y-86871429D01*
X178339143Y-86985714D01*
X178396286Y-87100000D01*
X178453429Y-87157143D01*
X178567715Y-87214286D01*
X178967715Y-87214286D01*
X177539143Y-86642857D02*
X177310572Y-86642857D01*
X177196286Y-86700000D01*
X177082000Y-86814286D01*
X177024858Y-87042857D01*
X177024858Y-87442857D01*
X177082000Y-87671429D01*
X177196286Y-87785714D01*
X177310572Y-87842857D01*
X177539143Y-87842857D01*
X177653429Y-87785714D01*
X177767715Y-87671429D01*
X177824858Y-87442857D01*
X177824858Y-87042857D01*
X177767715Y-86814286D01*
X177653429Y-86700000D01*
X177539143Y-86642857D01*
X176282000Y-86642857D02*
X176053429Y-86642857D01*
X175939143Y-86700000D01*
X175824857Y-86814286D01*
X175767715Y-87042857D01*
X175767715Y-87442857D01*
X175824857Y-87671429D01*
X175939143Y-87785714D01*
X176053429Y-87842857D01*
X176282000Y-87842857D01*
X176396286Y-87785714D01*
X176510572Y-87671429D01*
X176567715Y-87442857D01*
X176567715Y-87042857D01*
X176510572Y-86814286D01*
X176396286Y-86700000D01*
X176282000Y-86642857D01*
X175424857Y-86642857D02*
X174739143Y-86642857D01*
X175082000Y-87842857D02*
X175082000Y-86642857D01*
X174110571Y-86642857D02*
X173996286Y-86642857D01*
X173882000Y-86700000D01*
X173824857Y-86757143D01*
X173767714Y-86871429D01*
X173710571Y-87100000D01*
X173710571Y-87385714D01*
X173767714Y-87614286D01*
X173824857Y-87728571D01*
X173882000Y-87785714D01*
X173996286Y-87842857D01*
X174110571Y-87842857D01*
X174224857Y-87785714D01*
X174282000Y-87728571D01*
X174339143Y-87614286D01*
X174396286Y-87385714D01*
X174396286Y-87100000D01*
X174339143Y-86871429D01*
X174282000Y-86757143D01*
X174224857Y-86700000D01*
X174110571Y-86642857D01*
X176224857Y-88580000D02*
X176339143Y-88522857D01*
X176510572Y-88522857D01*
X176682000Y-88580000D01*
X176796286Y-88694286D01*
X176853429Y-88808571D01*
X176910572Y-89037143D01*
X176910572Y-89208571D01*
X176853429Y-89437143D01*
X176796286Y-89551429D01*
X176682000Y-89665714D01*
X176510572Y-89722857D01*
X176396286Y-89722857D01*
X176224857Y-89665714D01*
X176167714Y-89608571D01*
X176167714Y-89208571D01*
X176396286Y-89208571D01*
X175653429Y-89722857D02*
X175653429Y-88522857D01*
X174967714Y-89722857D01*
X174967714Y-88522857D01*
X174396286Y-89722857D02*
X174396286Y-88522857D01*
X174110571Y-88522857D01*
X173939143Y-88580000D01*
X173824857Y-88694286D01*
X173767714Y-88808571D01*
X173710571Y-89037143D01*
X173710571Y-89208571D01*
X173767714Y-89437143D01*
X173824857Y-89551429D01*
X173939143Y-89665714D01*
X174110571Y-89722857D01*
X174396286Y-89722857D01*
D11*
X162024000Y-117121714D02*
X162095429Y-117193143D01*
X162309715Y-117264571D01*
X162452572Y-117264571D01*
X162666857Y-117193143D01*
X162809715Y-117050286D01*
X162881143Y-116907429D01*
X162952572Y-116621714D01*
X162952572Y-116407429D01*
X162881143Y-116121714D01*
X162809715Y-115978857D01*
X162666857Y-115836000D01*
X162452572Y-115764571D01*
X162309715Y-115764571D01*
X162095429Y-115836000D01*
X162024000Y-115907429D01*
X161452572Y-116836000D02*
X160738286Y-116836000D01*
X161595429Y-117264571D02*
X161095429Y-115764571D01*
X160595429Y-117264571D01*
X160095429Y-117264571D02*
X160095429Y-115764571D01*
X159238286Y-117264571D01*
X159238286Y-115764571D01*
X158524000Y-117264571D02*
X158524000Y-115764571D01*
X158524000Y-116478857D02*
X157666857Y-116478857D01*
X157666857Y-117264571D02*
X157666857Y-115764571D01*
X161845428Y-114581714D02*
X161916857Y-114653143D01*
X162131143Y-114724571D01*
X162274000Y-114724571D01*
X162488285Y-114653143D01*
X162631143Y-114510286D01*
X162702571Y-114367429D01*
X162774000Y-114081714D01*
X162774000Y-113867429D01*
X162702571Y-113581714D01*
X162631143Y-113438857D01*
X162488285Y-113296000D01*
X162274000Y-113224571D01*
X162131143Y-113224571D01*
X161916857Y-113296000D01*
X161845428Y-113367429D01*
X161274000Y-114296000D02*
X160559714Y-114296000D01*
X161416857Y-114724571D02*
X160916857Y-113224571D01*
X160416857Y-114724571D01*
X159916857Y-114724571D02*
X159916857Y-113224571D01*
X159059714Y-114724571D01*
X159059714Y-113224571D01*
X157631142Y-114724571D02*
X158345428Y-114724571D01*
X158345428Y-113224571D01*
X161297714Y-120987429D02*
X161226285Y-120916000D01*
X161083428Y-120844571D01*
X160726285Y-120844571D01*
X160583428Y-120916000D01*
X160511999Y-120987429D01*
X160440571Y-121130286D01*
X160440571Y-121273143D01*
X160511999Y-121487429D01*
X161369142Y-122344571D01*
X160440571Y-122344571D01*
X159154857Y-121344571D02*
X159154857Y-122344571D01*
X159512000Y-120773143D02*
X159869143Y-121844571D01*
X158940571Y-121844571D01*
X158583429Y-120844571D02*
X158083429Y-122344571D01*
X157583429Y-120844571D01*
X160654857Y-123456000D02*
X160797714Y-123384571D01*
X161012000Y-123384571D01*
X161226285Y-123456000D01*
X161369143Y-123598857D01*
X161440571Y-123741714D01*
X161512000Y-124027429D01*
X161512000Y-124241714D01*
X161440571Y-124527429D01*
X161369143Y-124670286D01*
X161226285Y-124813143D01*
X161012000Y-124884571D01*
X160869143Y-124884571D01*
X160654857Y-124813143D01*
X160583428Y-124741714D01*
X160583428Y-124241714D01*
X160869143Y-124241714D01*
X159940571Y-124884571D02*
X159940571Y-123384571D01*
X159083428Y-124884571D01*
X159083428Y-123384571D01*
X158369142Y-124884571D02*
X158369142Y-123384571D01*
X158011999Y-123384571D01*
X157797714Y-123456000D01*
X157654856Y-123598857D01*
X157583428Y-123741714D01*
X157511999Y-124027429D01*
X157511999Y-124241714D01*
X157583428Y-124527429D01*
X157654856Y-124670286D01*
X157797714Y-124813143D01*
X158011999Y-124884571D01*
X158369142Y-124884571D01*
D13*
X145803809Y-82367381D02*
X145803809Y-81367381D01*
X145422856Y-81367381D01*
X145327618Y-81415000D01*
X145279999Y-81462619D01*
X145232380Y-81557857D01*
X145232380Y-81700714D01*
X145279999Y-81795952D01*
X145327618Y-81843571D01*
X145422856Y-81891190D01*
X145803809Y-81891190D01*
X144803809Y-82367381D02*
X144803809Y-81367381D01*
X144137143Y-81367381D02*
X143946666Y-81367381D01*
X143851428Y-81415000D01*
X143756190Y-81510238D01*
X143708571Y-81700714D01*
X143708571Y-82034048D01*
X143756190Y-82224524D01*
X143851428Y-82319762D01*
X143946666Y-82367381D01*
X144137143Y-82367381D01*
X144232381Y-82319762D01*
X144327619Y-82224524D01*
X144375238Y-82034048D01*
X144375238Y-81700714D01*
X144327619Y-81510238D01*
X144232381Y-81415000D01*
X144137143Y-81367381D01*
X146184762Y-75636381D02*
X146184762Y-74636381D01*
X145803809Y-74636381D01*
X145708571Y-74684000D01*
X145660952Y-74731619D01*
X145613333Y-74826857D01*
X145613333Y-74969714D01*
X145660952Y-75064952D01*
X145708571Y-75112571D01*
X145803809Y-75160190D01*
X146184762Y-75160190D01*
X145280000Y-74636381D02*
X145041905Y-75636381D01*
X144851428Y-74922095D01*
X144660952Y-75636381D01*
X144422857Y-74636381D01*
X144041905Y-75636381D02*
X144041905Y-74636381D01*
X143708571Y-75350667D01*
X143375238Y-74636381D01*
X143375238Y-75636381D01*
X149375714Y-82272143D02*
X149423333Y-82319762D01*
X149566190Y-82367381D01*
X149661428Y-82367381D01*
X149804286Y-82319762D01*
X149899524Y-82224524D01*
X149947143Y-82129286D01*
X149994762Y-81938810D01*
X149994762Y-81795952D01*
X149947143Y-81605476D01*
X149899524Y-81510238D01*
X149804286Y-81415000D01*
X149661428Y-81367381D01*
X149566190Y-81367381D01*
X149423333Y-81415000D01*
X149375714Y-81462619D01*
X148756667Y-81367381D02*
X148566190Y-81367381D01*
X148470952Y-81415000D01*
X148375714Y-81510238D01*
X148328095Y-81700714D01*
X148328095Y-82034048D01*
X148375714Y-82224524D01*
X148470952Y-82319762D01*
X148566190Y-82367381D01*
X148756667Y-82367381D01*
X148851905Y-82319762D01*
X148947143Y-82224524D01*
X148994762Y-82034048D01*
X148994762Y-81700714D01*
X148947143Y-81510238D01*
X148851905Y-81415000D01*
X148756667Y-81367381D01*
X147899524Y-82367381D02*
X147899524Y-81367381D01*
X147566190Y-82081667D01*
X147232857Y-81367381D01*
X147232857Y-82367381D01*
X162671000Y-77668381D02*
X162671000Y-76668381D01*
X162004334Y-76668381D02*
X161813857Y-76668381D01*
X161718619Y-76716000D01*
X161623381Y-76811238D01*
X161575762Y-77001714D01*
X161575762Y-77335048D01*
X161623381Y-77525524D01*
X161718619Y-77620762D01*
X161813857Y-77668381D01*
X162004334Y-77668381D01*
X162099572Y-77620762D01*
X162194810Y-77525524D01*
X162242429Y-77335048D01*
X162242429Y-77001714D01*
X162194810Y-76811238D01*
X162099572Y-76716000D01*
X162004334Y-76668381D01*
X161242429Y-76668381D02*
X160575762Y-76668381D01*
X161004334Y-77668381D01*
X152130000Y-75636381D02*
X152130000Y-74636381D01*
X151463334Y-74636381D02*
X151272857Y-74636381D01*
X151177619Y-74684000D01*
X151082381Y-74779238D01*
X151034762Y-74969714D01*
X151034762Y-75303048D01*
X151082381Y-75493524D01*
X151177619Y-75588762D01*
X151272857Y-75636381D01*
X151463334Y-75636381D01*
X151558572Y-75588762D01*
X151653810Y-75493524D01*
X151701429Y-75303048D01*
X151701429Y-74969714D01*
X151653810Y-74779238D01*
X151558572Y-74684000D01*
X151463334Y-74636381D01*
X150082381Y-75636381D02*
X150653810Y-75636381D01*
X150368096Y-75636381D02*
X150368096Y-74636381D01*
X150463334Y-74779238D01*
X150558572Y-74874476D01*
X150653810Y-74922095D01*
D12*
X168808429Y-83771714D02*
X168637000Y-83828857D01*
X168351286Y-83828857D01*
X168237000Y-83771714D01*
X168179857Y-83714571D01*
X168122714Y-83600286D01*
X168122714Y-83486000D01*
X168179857Y-83371714D01*
X168237000Y-83314571D01*
X168351286Y-83257429D01*
X168579857Y-83200286D01*
X168694143Y-83143143D01*
X168751286Y-83086000D01*
X168808429Y-82971714D01*
X168808429Y-82857429D01*
X168751286Y-82743143D01*
X168694143Y-82686000D01*
X168579857Y-82628857D01*
X168294143Y-82628857D01*
X168122714Y-82686000D01*
X167608429Y-83828857D02*
X167608429Y-82628857D01*
X167322714Y-82628857D01*
X167151286Y-82686000D01*
X167037000Y-82800286D01*
X166979857Y-82914571D01*
X166922714Y-83143143D01*
X166922714Y-83314571D01*
X166979857Y-83543143D01*
X167037000Y-83657429D01*
X167151286Y-83771714D01*
X167322714Y-83828857D01*
X167608429Y-83828857D01*
X166465572Y-83486000D02*
X165894143Y-83486000D01*
X166579857Y-83828857D02*
X166179857Y-82628857D01*
X165779857Y-83828857D01*
X168808429Y-85651714D02*
X168637000Y-85708857D01*
X168351286Y-85708857D01*
X168237000Y-85651714D01*
X168179857Y-85594571D01*
X168122714Y-85480286D01*
X168122714Y-85366000D01*
X168179857Y-85251714D01*
X168237000Y-85194571D01*
X168351286Y-85137429D01*
X168579857Y-85080286D01*
X168694143Y-85023143D01*
X168751286Y-84966000D01*
X168808429Y-84851714D01*
X168808429Y-84737429D01*
X168751286Y-84623143D01*
X168694143Y-84566000D01*
X168579857Y-84508857D01*
X168294143Y-84508857D01*
X168122714Y-84566000D01*
X166922714Y-85594571D02*
X166979857Y-85651714D01*
X167151286Y-85708857D01*
X167265572Y-85708857D01*
X167437000Y-85651714D01*
X167551286Y-85537429D01*
X167608429Y-85423143D01*
X167665572Y-85194571D01*
X167665572Y-85023143D01*
X167608429Y-84794571D01*
X167551286Y-84680286D01*
X167437000Y-84566000D01*
X167265572Y-84508857D01*
X167151286Y-84508857D01*
X166979857Y-84566000D01*
X166922714Y-84623143D01*
X165837000Y-85708857D02*
X166408429Y-85708857D01*
X166408429Y-84508857D01*
X168122714Y-86446000D02*
X168237000Y-86388857D01*
X168408429Y-86388857D01*
X168579857Y-86446000D01*
X168694143Y-86560286D01*
X168751286Y-86674571D01*
X168808429Y-86903143D01*
X168808429Y-87074571D01*
X168751286Y-87303143D01*
X168694143Y-87417429D01*
X168579857Y-87531714D01*
X168408429Y-87588857D01*
X168294143Y-87588857D01*
X168122714Y-87531714D01*
X168065571Y-87474571D01*
X168065571Y-87074571D01*
X168294143Y-87074571D01*
X167551286Y-87588857D02*
X167551286Y-86388857D01*
X166865571Y-87588857D01*
X166865571Y-86388857D01*
X166294143Y-87588857D02*
X166294143Y-86388857D01*
X166008428Y-86388857D01*
X165837000Y-86446000D01*
X165722714Y-86560286D01*
X165665571Y-86674571D01*
X165608428Y-86903143D01*
X165608428Y-87074571D01*
X165665571Y-87303143D01*
X165722714Y-87417429D01*
X165837000Y-87531714D01*
X166008428Y-87588857D01*
X166294143Y-87588857D01*
X168865571Y-88268857D02*
X168122714Y-88268857D01*
X168522714Y-88726000D01*
X168351286Y-88726000D01*
X168237000Y-88783143D01*
X168179857Y-88840286D01*
X168122714Y-88954571D01*
X168122714Y-89240286D01*
X168179857Y-89354571D01*
X168237000Y-89411714D01*
X168351286Y-89468857D01*
X168694143Y-89468857D01*
X168808429Y-89411714D01*
X168865571Y-89354571D01*
X167779857Y-88268857D02*
X167379857Y-89468857D01*
X166979857Y-88268857D01*
X166694143Y-88268857D02*
X165951286Y-88268857D01*
X166351286Y-88726000D01*
X166179858Y-88726000D01*
X166065572Y-88783143D01*
X166008429Y-88840286D01*
X165951286Y-88954571D01*
X165951286Y-89240286D01*
X166008429Y-89354571D01*
X166065572Y-89411714D01*
X166179858Y-89468857D01*
X166522715Y-89468857D01*
X166637001Y-89411714D01*
X166694143Y-89354571D01*
D10*
X129667000Y-93218000D02*
G75*
G03X129667000Y-93218000I-508000J0D01*
G01*
D13*
X129598000Y-93911000D02*
X130123000Y-93911000D01*
X129598000Y-101161000D02*
X130123000Y-101161000D01*
X136848000Y-101161000D02*
X136323000Y-101161000D01*
X136848000Y-93911000D02*
X136323000Y-93911000D01*
X129598000Y-93911000D02*
X129598000Y-94436000D01*
X136848000Y-93911000D02*
X136848000Y-94436000D01*
X136848000Y-101161000D02*
X136848000Y-100636000D01*
X129598000Y-101161000D02*
X129598000Y-100636000D01*
X130123000Y-93911000D02*
X130123000Y-92536000D01*
X127389000Y-101385000D02*
X128389000Y-101385000D01*
X128389000Y-103085000D02*
X127389000Y-103085000D01*
X129755000Y-87003000D02*
X129755000Y-88003000D01*
X128055000Y-88003000D02*
X128055000Y-87003000D01*
X137072000Y-103370000D02*
X137072000Y-102370000D01*
X138772000Y-102370000D02*
X138772000Y-103370000D01*
X127389000Y-92114000D02*
X128389000Y-92114000D01*
X128389000Y-93814000D02*
X127389000Y-93814000D01*
X139184000Y-93433000D02*
X138184000Y-93433000D01*
X138184000Y-91733000D02*
X139184000Y-91733000D01*
X132930000Y-115324000D02*
X132930000Y-116324000D01*
X131230000Y-116324000D02*
X131230000Y-115324000D01*
X160274000Y-88646000D02*
X160274000Y-81026000D01*
X160274000Y-81026000D02*
X165354000Y-81026000D01*
X165354000Y-81026000D02*
X165354000Y-91186000D01*
X165354000Y-91186000D02*
X162814000Y-91186000D01*
X161544000Y-91466000D02*
X159994000Y-91466000D01*
X162814000Y-91186000D02*
X162814000Y-88646000D01*
X162814000Y-88646000D02*
X160274000Y-88646000D01*
X159994000Y-91466000D02*
X159994000Y-89916000D01*
X140554000Y-119267000D02*
X139354000Y-119267000D01*
X139354000Y-121017000D02*
X140554000Y-121017000D01*
X135847000Y-118399000D02*
X135847000Y-118254000D01*
X139997000Y-118399000D02*
X139997000Y-118254000D01*
X139997000Y-113249000D02*
X139997000Y-113394000D01*
X135847000Y-113249000D02*
X135847000Y-113394000D01*
X135847000Y-118399000D02*
X139997000Y-118399000D01*
X135847000Y-113249000D02*
X139997000Y-113249000D01*
X135847000Y-118254000D02*
X134447000Y-118254000D01*
X156845000Y-117856000D02*
X157099000Y-117856000D01*
X157099000Y-117856000D02*
X157099000Y-125476000D01*
X157099000Y-125476000D02*
X156845000Y-125476000D01*
X146812000Y-117856000D02*
X142875000Y-117856000D01*
X142875000Y-117856000D02*
X142875000Y-125476000D01*
X142875000Y-125476000D02*
X156845000Y-125476000D01*
X156845000Y-117856000D02*
X146812000Y-117856000D01*
X156845000Y-110236000D02*
X157099000Y-110236000D01*
X157099000Y-110236000D02*
X157099000Y-117856000D01*
X157099000Y-117856000D02*
X156845000Y-117856000D01*
X146812000Y-110236000D02*
X142875000Y-110236000D01*
X142875000Y-110236000D02*
X142875000Y-117856000D01*
X142875000Y-117856000D02*
X156845000Y-117856000D01*
X156845000Y-110236000D02*
X146812000Y-110236000D01*
D10*
X130488000Y-85268000D02*
G75*
G03X130488000Y-85268000I-400000J0D01*
G01*
X134688000Y-85268000D02*
X135088000Y-85268000D01*
X135088000Y-85268000D02*
X135088000Y-88468000D01*
X135088000Y-88468000D02*
X134688000Y-88468000D01*
X130488000Y-85268000D02*
X130088000Y-85268000D01*
X130088000Y-85268000D02*
X130088000Y-86768000D01*
X132088000Y-85268000D02*
X133088000Y-85268000D01*
X132088000Y-88468000D02*
X133088000Y-88468000D01*
X130088000Y-86768000D02*
X130088000Y-88468000D01*
X130088000Y-88468000D02*
X130488000Y-88468000D01*
D13*
X160020000Y-83566000D02*
X160020000Y-91186000D01*
X157480000Y-83566000D02*
X157480000Y-91186000D01*
X157200000Y-80746000D02*
X157200000Y-82296000D01*
X160020000Y-91186000D02*
X157480000Y-91186000D01*
X157480000Y-83566000D02*
X160020000Y-83566000D01*
X160300000Y-82296000D02*
X160300000Y-80746000D01*
X160300000Y-80746000D02*
X157200000Y-80746000D01*
D14*
X161727000Y-110296000D02*
X161727000Y-105096000D01*
X161727000Y-105096000D02*
X168727000Y-105096000D01*
X168727000Y-105096000D02*
X168727000Y-110296000D01*
X168727000Y-110296000D02*
X161727000Y-110296000D01*
X168027000Y-106496000D02*
G75*
G03X168027000Y-106496000I-800000J0D01*
G01*
D13*
X170596000Y-105142000D02*
X171796000Y-105142000D01*
X171796000Y-103392000D02*
X170596000Y-103392000D01*
X160514000Y-101692000D02*
X160514000Y-100492000D01*
X158764000Y-100492000D02*
X158764000Y-101692000D01*
X171577000Y-107823000D02*
X171577000Y-110363000D01*
X171297000Y-105003000D02*
X171297000Y-106553000D01*
X171577000Y-107823000D02*
X174117000Y-107823000D01*
X174397000Y-106553000D02*
X174397000Y-105003000D01*
X174397000Y-105003000D02*
X171297000Y-105003000D01*
X174117000Y-107823000D02*
X174117000Y-110363000D01*
X174117000Y-110363000D02*
X171577000Y-110363000D01*
X174117000Y-96393000D02*
X174117000Y-93853000D01*
X174397000Y-99213000D02*
X174397000Y-97663000D01*
X174117000Y-96393000D02*
X171577000Y-96393000D01*
X171297000Y-97663000D02*
X171297000Y-99213000D01*
X171297000Y-99213000D02*
X174397000Y-99213000D01*
X171577000Y-96393000D02*
X171577000Y-93853000D01*
X171577000Y-93853000D02*
X174117000Y-93853000D01*
X126619000Y-109982000D02*
X126619000Y-104902000D01*
X126619000Y-104902000D02*
X129159000Y-104902000D01*
X129159000Y-104902000D02*
X129159000Y-109982000D01*
X129439000Y-112802000D02*
X129439000Y-111252000D01*
X129159000Y-109982000D02*
X126619000Y-109982000D01*
X126339000Y-111252000D02*
X126339000Y-112802000D01*
X126339000Y-112802000D02*
X129439000Y-112802000D01*
X163263000Y-116729000D02*
X163263000Y-118729000D01*
X165413000Y-118729000D02*
X165413000Y-116729000D01*
X160020000Y-81026000D02*
X139700000Y-81026000D01*
X142240000Y-75946000D02*
X160020000Y-75946000D01*
X160020000Y-81026000D02*
X160020000Y-75946000D01*
X139700000Y-81026000D02*
X139700000Y-78486000D01*
X139420000Y-77216000D02*
X139420000Y-75666000D01*
X139700000Y-78486000D02*
X142240000Y-78486000D01*
X142240000Y-78486000D02*
X142240000Y-75946000D01*
X139420000Y-75666000D02*
X140970000Y-75666000D01*
X160121000Y-78206000D02*
X160121000Y-79756000D01*
X163221000Y-79756000D02*
X163221000Y-78206000D01*
X163221000Y-78206000D02*
X160121000Y-78206000D01*
X162941000Y-81026000D02*
X160401000Y-81026000D01*
X152111000Y-84793000D02*
X152256000Y-84793000D01*
X152111000Y-88943000D02*
X152256000Y-88943000D01*
X157261000Y-88943000D02*
X157116000Y-88943000D01*
X157261000Y-84793000D02*
X157116000Y-84793000D01*
X152111000Y-84793000D02*
X152111000Y-88943000D01*
X157261000Y-84793000D02*
X157261000Y-88943000D01*
X152256000Y-84793000D02*
X152256000Y-83393000D01*
X151726000Y-85098000D02*
X151726000Y-86098000D01*
X150026000Y-86098000D02*
X150026000Y-85098000D01*
D14*
X168727000Y-93793000D02*
X168727000Y-98993000D01*
X168727000Y-98993000D02*
X161727000Y-98993000D01*
X161727000Y-98993000D02*
X161727000Y-93793000D01*
X161727000Y-93793000D02*
X168727000Y-93793000D01*
X164027000Y-97593000D02*
G75*
G03X164027000Y-97593000I-800000J0D01*
G01*
D13*
X126860904Y-99988714D02*
X126860904Y-100655381D01*
X127289476Y-99988714D02*
X127289476Y-100512524D01*
X127241857Y-100607762D01*
X127146619Y-100655381D01*
X127003761Y-100655381D01*
X126908523Y-100607762D01*
X126860904Y-100560143D01*
X125860904Y-100655381D02*
X126432333Y-100655381D01*
X126146619Y-100655381D02*
X126146619Y-99655381D01*
X126241857Y-99798238D01*
X126337095Y-99893476D01*
X126432333Y-99941095D01*
X127261904Y-87288714D02*
X127261904Y-87955381D01*
X127690476Y-87288714D02*
X127690476Y-87812524D01*
X127642857Y-87907762D01*
X127547619Y-87955381D01*
X127404761Y-87955381D01*
X127309523Y-87907762D01*
X127261904Y-87860143D01*
X126261904Y-87955381D02*
X126833333Y-87955381D01*
X126547619Y-87955381D02*
X126547619Y-86955381D01*
X126642857Y-87098238D01*
X126738095Y-87193476D01*
X126833333Y-87241095D01*
X139231714Y-102608096D02*
X139898381Y-102608096D01*
X139231714Y-102179524D02*
X139755524Y-102179524D01*
X139850762Y-102227143D01*
X139898381Y-102322381D01*
X139898381Y-102465239D01*
X139850762Y-102560477D01*
X139803143Y-102608096D01*
X139898381Y-103608096D02*
X139898381Y-103036667D01*
X139898381Y-103322381D02*
X138898381Y-103322381D01*
X139041238Y-103227143D01*
X139136476Y-103131905D01*
X139184095Y-103036667D01*
X128150904Y-91098714D02*
X128150904Y-91765381D01*
X128579476Y-91098714D02*
X128579476Y-91622524D01*
X128531857Y-91717762D01*
X128436619Y-91765381D01*
X128293761Y-91765381D01*
X128198523Y-91717762D01*
X128150904Y-91670143D01*
X127150904Y-91765381D02*
X127722333Y-91765381D01*
X127436619Y-91765381D02*
X127436619Y-90765381D01*
X127531857Y-90908238D01*
X127627095Y-91003476D01*
X127722333Y-91051095D01*
X137548904Y-90844714D02*
X137548904Y-91511381D01*
X137977476Y-90844714D02*
X137977476Y-91368524D01*
X137929857Y-91463762D01*
X137834619Y-91511381D01*
X137691761Y-91511381D01*
X137596523Y-91463762D01*
X137548904Y-91416143D01*
X136548904Y-91511381D02*
X137120333Y-91511381D01*
X136834619Y-91511381D02*
X136834619Y-90511381D01*
X136929857Y-90654238D01*
X137025095Y-90749476D01*
X137120333Y-90797095D01*
X130309904Y-115609714D02*
X130309904Y-116276381D01*
X130738476Y-115609714D02*
X130738476Y-116133524D01*
X130690857Y-116228762D01*
X130595619Y-116276381D01*
X130452761Y-116276381D01*
X130357523Y-116228762D01*
X130309904Y-116181143D01*
X129309904Y-116276381D02*
X129881333Y-116276381D01*
X129595619Y-116276381D02*
X129595619Y-115276381D01*
X129690857Y-115419238D01*
X129786095Y-115514476D01*
X129881333Y-115562095D01*
X136866238Y-120594381D02*
X137437667Y-120594381D01*
X137151953Y-120594381D02*
X137151953Y-119594381D01*
X137247191Y-119737238D01*
X137342429Y-119832476D01*
X137437667Y-119880095D01*
X136247191Y-119594381D02*
X136151952Y-119594381D01*
X136056714Y-119642000D01*
X136009095Y-119689619D01*
X135961476Y-119784857D01*
X135913857Y-119975333D01*
X135913857Y-120213429D01*
X135961476Y-120403905D01*
X136009095Y-120499143D01*
X136056714Y-120546762D01*
X136151952Y-120594381D01*
X136247191Y-120594381D01*
X136342429Y-120546762D01*
X136390048Y-120499143D01*
X136437667Y-120403905D01*
X136485286Y-120213429D01*
X136485286Y-119975333D01*
X136437667Y-119784857D01*
X136390048Y-119689619D01*
X136342429Y-119642000D01*
X136247191Y-119594381D01*
X135485286Y-120594381D02*
X135485286Y-119594381D01*
X135390048Y-120213429D02*
X135104333Y-120594381D01*
X135104333Y-119927714D02*
X135485286Y-120308667D01*
X172981714Y-101941381D02*
X172362666Y-101941381D01*
X172696000Y-102322333D01*
X172553142Y-102322333D01*
X172457904Y-102369952D01*
X172410285Y-102417571D01*
X172362666Y-102512810D01*
X172362666Y-102750905D01*
X172410285Y-102846143D01*
X172457904Y-102893762D01*
X172553142Y-102941381D01*
X172838857Y-102941381D01*
X172934095Y-102893762D01*
X172981714Y-102846143D01*
X172029333Y-101941381D02*
X171410285Y-101941381D01*
X171743619Y-102322333D01*
X171600761Y-102322333D01*
X171505523Y-102369952D01*
X171457904Y-102417571D01*
X171410285Y-102512810D01*
X171410285Y-102750905D01*
X171457904Y-102846143D01*
X171505523Y-102893762D01*
X171600761Y-102941381D01*
X171886476Y-102941381D01*
X171981714Y-102893762D01*
X172029333Y-102846143D01*
X170791238Y-101941381D02*
X170695999Y-101941381D01*
X170600761Y-101989000D01*
X170553142Y-102036619D01*
X170505523Y-102131857D01*
X170457904Y-102322333D01*
X170457904Y-102560429D01*
X170505523Y-102750905D01*
X170553142Y-102846143D01*
X170600761Y-102893762D01*
X170695999Y-102941381D01*
X170791238Y-102941381D01*
X170886476Y-102893762D01*
X170934095Y-102846143D01*
X170981714Y-102750905D01*
X171029333Y-102560429D01*
X171029333Y-102322333D01*
X170981714Y-102131857D01*
X170934095Y-102036619D01*
X170886476Y-101989000D01*
X170791238Y-101941381D01*
X169457904Y-102941381D02*
X169791238Y-102465190D01*
X170029333Y-102941381D02*
X170029333Y-101941381D01*
X169648380Y-101941381D01*
X169553142Y-101989000D01*
X169505523Y-102036619D01*
X169457904Y-102131857D01*
X169457904Y-102274714D01*
X169505523Y-102369952D01*
X169553142Y-102417571D01*
X169648380Y-102465190D01*
X170029333Y-102465190D01*
X162440714Y-103592381D02*
X161821666Y-103592381D01*
X162155000Y-103973333D01*
X162012142Y-103973333D01*
X161916904Y-104020952D01*
X161869285Y-104068571D01*
X161821666Y-104163810D01*
X161821666Y-104401905D01*
X161869285Y-104497143D01*
X161916904Y-104544762D01*
X162012142Y-104592381D01*
X162297857Y-104592381D01*
X162393095Y-104544762D01*
X162440714Y-104497143D01*
X161488333Y-103592381D02*
X160869285Y-103592381D01*
X161202619Y-103973333D01*
X161059761Y-103973333D01*
X160964523Y-104020952D01*
X160916904Y-104068571D01*
X160869285Y-104163810D01*
X160869285Y-104401905D01*
X160916904Y-104497143D01*
X160964523Y-104544762D01*
X161059761Y-104592381D01*
X161345476Y-104592381D01*
X161440714Y-104544762D01*
X161488333Y-104497143D01*
X160250238Y-103592381D02*
X160154999Y-103592381D01*
X160059761Y-103640000D01*
X160012142Y-103687619D01*
X159964523Y-103782857D01*
X159916904Y-103973333D01*
X159916904Y-104211429D01*
X159964523Y-104401905D01*
X160012142Y-104497143D01*
X160059761Y-104544762D01*
X160154999Y-104592381D01*
X160250238Y-104592381D01*
X160345476Y-104544762D01*
X160393095Y-104497143D01*
X160440714Y-104401905D01*
X160488333Y-104211429D01*
X160488333Y-103973333D01*
X160440714Y-103782857D01*
X160393095Y-103687619D01*
X160345476Y-103640000D01*
X160250238Y-103592381D01*
X158916904Y-104592381D02*
X159250238Y-104116190D01*
X159488333Y-104592381D02*
X159488333Y-103592381D01*
X159107380Y-103592381D01*
X159012142Y-103640000D01*
X158964523Y-103687619D01*
X158916904Y-103782857D01*
X158916904Y-103925714D01*
X158964523Y-104020952D01*
X159012142Y-104068571D01*
X159107380Y-104116190D01*
X159488333Y-104116190D01*
X178633191Y-107148381D02*
X178442714Y-107148381D01*
X178347476Y-107196000D01*
X178252238Y-107291238D01*
X178204619Y-107481714D01*
X178204619Y-107815048D01*
X178252238Y-108005524D01*
X178347476Y-108100762D01*
X178442714Y-108148381D01*
X178633191Y-108148381D01*
X178728429Y-108100762D01*
X178823667Y-108005524D01*
X178871286Y-107815048D01*
X178871286Y-107481714D01*
X178823667Y-107291238D01*
X178728429Y-107196000D01*
X178633191Y-107148381D01*
X177776048Y-108148381D02*
X177776048Y-107148381D01*
X177395095Y-107148381D01*
X177299857Y-107196000D01*
X177252238Y-107243619D01*
X177204619Y-107338857D01*
X177204619Y-107481714D01*
X177252238Y-107576952D01*
X177299857Y-107624571D01*
X177395095Y-107672190D01*
X177776048Y-107672190D01*
X176918905Y-107148381D02*
X176347476Y-107148381D01*
X176633191Y-108148381D02*
X176633191Y-107148381D01*
X175823667Y-107148381D02*
X175633190Y-107148381D01*
X175537952Y-107196000D01*
X175442714Y-107291238D01*
X175395095Y-107481714D01*
X175395095Y-107815048D01*
X175442714Y-108005524D01*
X175537952Y-108100762D01*
X175633190Y-108148381D01*
X175823667Y-108148381D01*
X175918905Y-108100762D01*
X176014143Y-108005524D01*
X176061762Y-107815048D01*
X176061762Y-107481714D01*
X176014143Y-107291238D01*
X175918905Y-107196000D01*
X175823667Y-107148381D01*
X174442714Y-108148381D02*
X175014143Y-108148381D01*
X174728429Y-108148381D02*
X174728429Y-107148381D01*
X174823667Y-107291238D01*
X174918905Y-107386476D01*
X175014143Y-107434095D01*
X178760191Y-95972381D02*
X178569714Y-95972381D01*
X178474476Y-96020000D01*
X178379238Y-96115238D01*
X178331619Y-96305714D01*
X178331619Y-96639048D01*
X178379238Y-96829524D01*
X178474476Y-96924762D01*
X178569714Y-96972381D01*
X178760191Y-96972381D01*
X178855429Y-96924762D01*
X178950667Y-96829524D01*
X178998286Y-96639048D01*
X178998286Y-96305714D01*
X178950667Y-96115238D01*
X178855429Y-96020000D01*
X178760191Y-95972381D01*
X177903048Y-96972381D02*
X177903048Y-95972381D01*
X177522095Y-95972381D01*
X177426857Y-96020000D01*
X177379238Y-96067619D01*
X177331619Y-96162857D01*
X177331619Y-96305714D01*
X177379238Y-96400952D01*
X177426857Y-96448571D01*
X177522095Y-96496190D01*
X177903048Y-96496190D01*
X177045905Y-95972381D02*
X176474476Y-95972381D01*
X176760191Y-96972381D02*
X176760191Y-95972381D01*
X175950667Y-95972381D02*
X175760190Y-95972381D01*
X175664952Y-96020000D01*
X175569714Y-96115238D01*
X175522095Y-96305714D01*
X175522095Y-96639048D01*
X175569714Y-96829524D01*
X175664952Y-96924762D01*
X175760190Y-96972381D01*
X175950667Y-96972381D01*
X176045905Y-96924762D01*
X176141143Y-96829524D01*
X176188762Y-96639048D01*
X176188762Y-96305714D01*
X176141143Y-96115238D01*
X176045905Y-96020000D01*
X175950667Y-95972381D01*
X175141143Y-96067619D02*
X175093524Y-96020000D01*
X174998286Y-95972381D01*
X174760190Y-95972381D01*
X174664952Y-96020000D01*
X174617333Y-96067619D01*
X174569714Y-96162857D01*
X174569714Y-96258095D01*
X174617333Y-96400952D01*
X175188762Y-96972381D01*
X174569714Y-96972381D01*
D11*
X141827143Y-74235571D02*
X141541429Y-74235571D01*
X141398571Y-74307000D01*
X141255714Y-74449857D01*
X141184286Y-74735571D01*
X141184286Y-75235571D01*
X141255714Y-75521286D01*
X141398571Y-75664143D01*
X141541429Y-75735571D01*
X141827143Y-75735571D01*
X141970000Y-75664143D01*
X142112857Y-75521286D01*
X142184286Y-75235571D01*
X142184286Y-74735571D01*
X142112857Y-74449857D01*
X141970000Y-74307000D01*
X141827143Y-74235571D01*
X139755714Y-75735571D02*
X140612857Y-75735571D01*
X140184285Y-75735571D02*
X140184285Y-74235571D01*
X140327142Y-74449857D01*
X140470000Y-74592714D01*
X140612857Y-74664143D01*
D13*
X164750714Y-80208381D02*
X165322143Y-80208381D01*
X165036429Y-80208381D02*
X165036429Y-79208381D01*
X165131667Y-79351238D01*
X165226905Y-79446476D01*
X165322143Y-79494095D01*
X164417381Y-79208381D02*
X164179286Y-80208381D01*
X163988809Y-79494095D01*
X163798333Y-80208381D01*
X163560238Y-79208381D01*
X149232904Y-85383714D02*
X149232904Y-86050381D01*
X149661476Y-85383714D02*
X149661476Y-85907524D01*
X149613857Y-86002762D01*
X149518619Y-86050381D01*
X149375761Y-86050381D01*
X149280523Y-86002762D01*
X149232904Y-85955143D01*
X148232904Y-86050381D02*
X148804333Y-86050381D01*
X148518619Y-86050381D02*
X148518619Y-85050381D01*
X148613857Y-85193238D01*
X148709095Y-85288476D01*
X148804333Y-85336095D01*
D15*
X171758429Y-95522143D02*
X172992143Y-95522143D01*
X173137286Y-95576571D01*
X173209857Y-95631000D01*
X173282429Y-95739857D01*
X173282429Y-95957571D01*
X173209857Y-96066429D01*
X173137286Y-96120857D01*
X172992143Y-96175286D01*
X171758429Y-96175286D01*
X171758429Y-96610715D02*
X171758429Y-97372715D01*
X173282429Y-96882858D01*
D16*
%LPC*%
D17*
X130473000Y-92836000D03*
D18*
X137923000Y-94786000D03*
D17*
X135973000Y-102236000D03*
D18*
X128523000Y-100286000D03*
D17*
X130973000Y-92836000D03*
X131473000Y-92836000D03*
X131973000Y-92836000D03*
X132473000Y-92836000D03*
X132973000Y-92836000D03*
X133473000Y-92836000D03*
X133973000Y-92836000D03*
X134473000Y-92836000D03*
X134973000Y-92836000D03*
X135473000Y-92836000D03*
X135973000Y-92836000D03*
D18*
X137923000Y-95286000D03*
X137923000Y-95786000D03*
X137923000Y-96286000D03*
X137923000Y-96786000D03*
X137923000Y-97286000D03*
X137923000Y-97786000D03*
X137923000Y-98286000D03*
X137923000Y-98786000D03*
X137923000Y-99286000D03*
X137923000Y-99786000D03*
X137923000Y-100286000D03*
D17*
X135473000Y-102236000D03*
X134973000Y-102236000D03*
X134473000Y-102236000D03*
X133973000Y-102236000D03*
X133473000Y-102236000D03*
X132973000Y-102236000D03*
X132473000Y-102236000D03*
X131973000Y-102236000D03*
X131473000Y-102236000D03*
X130973000Y-102236000D03*
X130473000Y-102236000D03*
D18*
X128523000Y-99786000D03*
X128523000Y-99286000D03*
X128523000Y-98786000D03*
X128523000Y-98286000D03*
X128523000Y-97786000D03*
X128523000Y-97286000D03*
X128523000Y-96786000D03*
X128523000Y-96286000D03*
X128523000Y-95786000D03*
X128523000Y-95286000D03*
X128523000Y-94786000D03*
D19*
X130429000Y-111252000D03*
D20*
X130429000Y-108712000D03*
X130429000Y-106172000D03*
D21*
X129139000Y-102235000D03*
X126639000Y-102235000D03*
D22*
X128905000Y-88753000D03*
X128905000Y-86253000D03*
D23*
X138938000Y-90678000D03*
X133858000Y-90678000D03*
X138938000Y-83058000D03*
X133858000Y-83058000D03*
D22*
X137922000Y-101620000D03*
X137922000Y-104120000D03*
D21*
X129139000Y-92964000D03*
X126639000Y-92964000D03*
X137434000Y-92583000D03*
X139934000Y-92583000D03*
D22*
X132080000Y-117074000D03*
X132080000Y-114574000D03*
D24*
X161544000Y-89916000D03*
D25*
X164084000Y-89916000D03*
X161544000Y-87376000D03*
X164084000Y-87376000D03*
X161544000Y-84836000D03*
X164084000Y-84836000D03*
X161544000Y-82296000D03*
X164084000Y-82296000D03*
D26*
X138604000Y-120142000D03*
X141304000Y-120142000D03*
D27*
X134622000Y-117729000D03*
X134622000Y-116459000D03*
X134622000Y-115189000D03*
X134622000Y-113919000D03*
X141222000Y-113919000D03*
X141222000Y-115189000D03*
X141222000Y-116459000D03*
X141222000Y-117729000D03*
D28*
X153924000Y-124206000D03*
X148844000Y-124206000D03*
X153924000Y-121666000D03*
X148844000Y-121666000D03*
X153924000Y-116586000D03*
X148844000Y-116586000D03*
X153924000Y-114046000D03*
X148844000Y-114046000D03*
D29*
X131318000Y-88468000D03*
X133858000Y-88468000D03*
X131318000Y-85268000D03*
X133858000Y-85268000D03*
D19*
X158750000Y-82296000D03*
D20*
X158750000Y-84836000D03*
X158750000Y-87376000D03*
X158750000Y-89916000D03*
D30*
X129159000Y-113538000D03*
D31*
X170227000Y-106426000D03*
X170227000Y-108966000D03*
X160227000Y-108966000D03*
X160227000Y-106426000D03*
D26*
X172546000Y-104267000D03*
X169846000Y-104267000D03*
D32*
X159639000Y-99742000D03*
X159639000Y-102442000D03*
D33*
X172847000Y-106553000D03*
D34*
X172847000Y-109093000D03*
D33*
X172847000Y-97663000D03*
D34*
X172847000Y-95123000D03*
D19*
X127889000Y-111252000D03*
D20*
X127889000Y-108712000D03*
X127889000Y-106172000D03*
D35*
X164338000Y-119729000D03*
X164338000Y-115729000D03*
D36*
X152499360Y-92499380D03*
X150000000Y-92499380D03*
X147500640Y-92499380D03*
D37*
X156200140Y-100000000D03*
X143799860Y-100000000D03*
D36*
X152499360Y-107000240D03*
X147500640Y-107000240D03*
D24*
X140970000Y-77216000D03*
D25*
X140970000Y-79756000D03*
X143510000Y-77216000D03*
X143510000Y-79756000D03*
X146050000Y-77216000D03*
X146050000Y-79756000D03*
X148590000Y-77216000D03*
X148590000Y-79756000D03*
X151130000Y-77216000D03*
X151130000Y-79756000D03*
X153670000Y-77216000D03*
X153670000Y-79756000D03*
X156210000Y-77216000D03*
X156210000Y-79756000D03*
X158750000Y-77216000D03*
X158750000Y-79756000D03*
D38*
X161671000Y-79756000D03*
D39*
X152781000Y-83868000D03*
X154051000Y-83868000D03*
X155321000Y-83868000D03*
X156591000Y-83868000D03*
X156591000Y-89868000D03*
X155321000Y-89868000D03*
X154051000Y-89868000D03*
X152781000Y-89868000D03*
D22*
X150876000Y-86848000D03*
X150876000Y-84348000D03*
D40*
X143637000Y-109093000D03*
D41*
X146177000Y-109093000D03*
X148717000Y-109093000D03*
X151257000Y-109093000D03*
X153797000Y-109093000D03*
X156337000Y-109093000D03*
D31*
X160227000Y-97663000D03*
X160227000Y-95123000D03*
X170227000Y-95123000D03*
X170227000Y-97663000D03*
M02*
