G04 #@! TF.FileFunction,Profile,NP*
%FSLAX46Y46*%
G04 Gerber Fmt 4.6, Leading zero omitted, Abs format (unit mm)*
G04 Created by KiCad (PCBNEW 4.0.0-stable) date 08.12.2015 15:00:05*
%MOMM*%
G01*
G04 APERTURE LIST*
%ADD10C,0.100000*%
G04 APERTURE END LIST*
D10*
X133000000Y-64500000D02*
X120000000Y-64500000D01*
X165000000Y-64500000D02*
X135000000Y-64500000D01*
X180000000Y-64500000D02*
X167000000Y-64500000D01*
X185500000Y-83000000D02*
X185500000Y-70000000D01*
X185500000Y-115000000D02*
X185500000Y-85000000D01*
X185500000Y-130000000D02*
X185500000Y-117000000D01*
X167894000Y-87122000D02*
X166370000Y-87122000D01*
X167894000Y-90932000D02*
X167894000Y-87122000D01*
X164338000Y-94488000D02*
X167894000Y-90932000D01*
X164338000Y-107188000D02*
X164338000Y-94488000D01*
X167640000Y-110490000D02*
X164338000Y-107188000D01*
X167640000Y-113538000D02*
X167640000Y-110490000D01*
X171450000Y-117348000D02*
X167640000Y-113538000D01*
X169672000Y-117348000D02*
X171450000Y-117348000D01*
X165862000Y-113538000D02*
X169672000Y-117348000D01*
X165862000Y-110490000D02*
X165862000Y-113538000D01*
X162560000Y-107188000D02*
X165862000Y-110490000D01*
X162560000Y-106426000D02*
X162560000Y-107188000D01*
X162560000Y-94488000D02*
X162560000Y-106426000D01*
X166370000Y-90678000D02*
X162560000Y-94488000D01*
X166370000Y-87122000D02*
X166370000Y-90678000D01*
X122000000Y-100000000D02*
G75*
G03X122000000Y-100000000I-2000000J0D01*
G01*
X152061553Y-130000000D02*
G75*
G03X152061553Y-130000000I-2061553J0D01*
G01*
X182000000Y-100000000D02*
G75*
G03X182000000Y-100000000I-2000000J0D01*
G01*
X152061553Y-70000000D02*
G75*
G03X152061553Y-70000000I-2061553J0D01*
G01*
X134500000Y-65000000D02*
X135000000Y-64500000D01*
X133500000Y-65000000D02*
X134500000Y-65000000D01*
X133000000Y-64500000D02*
X133500000Y-65000000D01*
X114500000Y-70000000D02*
X120000000Y-64500000D01*
X114500000Y-83000000D02*
X114500000Y-70000000D01*
X115000000Y-83500000D02*
X114500000Y-83000000D01*
X115000000Y-84500000D02*
X115000000Y-83500000D01*
X114500000Y-85000000D02*
X115000000Y-84500000D01*
X114500000Y-115000000D02*
X114500000Y-85000000D01*
X115000000Y-115500000D02*
X114500000Y-115000000D01*
X115000000Y-116500000D02*
X115000000Y-115500000D01*
X114500000Y-117000000D02*
X115000000Y-116500000D01*
X114500000Y-130000000D02*
X114500000Y-117000000D01*
X120000000Y-135500000D02*
X114500000Y-130000000D01*
X133000000Y-135500000D02*
X120000000Y-135500000D01*
X133500000Y-135000000D02*
X133000000Y-135500000D01*
X134500000Y-135000000D02*
X133500000Y-135000000D01*
X135000000Y-135500000D02*
X134500000Y-135000000D01*
X165000000Y-135500000D02*
X135000000Y-135500000D01*
X165500000Y-135000000D02*
X165000000Y-135500000D01*
X166500000Y-135000000D02*
X165500000Y-135000000D01*
X167000000Y-135500000D02*
X166500000Y-135000000D01*
X180000000Y-135500000D02*
X167000000Y-135500000D01*
X180500000Y-135000000D02*
X180000000Y-135500000D01*
X185500000Y-130000000D02*
X180500000Y-135000000D01*
X185000000Y-116500000D02*
X185500000Y-117000000D01*
X185000000Y-115500000D02*
X185000000Y-116500000D01*
X185500000Y-115000000D02*
X185000000Y-115500000D01*
X185000000Y-84500000D02*
X185500000Y-85000000D01*
X185000000Y-83500000D02*
X185000000Y-84500000D01*
X185500000Y-83000000D02*
X185000000Y-83500000D01*
X180000000Y-64500000D02*
X185500000Y-70000000D01*
X166500000Y-65000000D02*
X167000000Y-64500000D01*
X165500000Y-65000000D02*
X166500000Y-65000000D01*
X165000000Y-64500000D02*
X165500000Y-65000000D01*
M02*
