G04 #@! TF.FileFunction,Paste,Bot*
%FSLAX46Y46*%
G04 Gerber Fmt 4.6, Leading zero omitted, Abs format (unit mm)*
G04 Created by KiCad (PCBNEW 4.0.0-stable) date 08.12.2015 15:00:05*
%MOMM*%
G01*
G04 APERTURE LIST*
%ADD10C,0.100000*%
%ADD11R,0.290000X2.000000*%
%ADD12R,2.000000X0.290000*%
%ADD13R,1.500000X1.250000*%
%ADD14R,1.250000X1.500000*%
%ADD15R,1.500000X1.300000*%
%ADD16R,2.800000X0.600000*%
%ADD17R,1.400000X2.200000*%
%ADD18R,2.500000X1.800000*%
%ADD19R,1.300000X1.500000*%
%ADD20R,1.700000X2.000000*%
%ADD21R,0.600000X2.200000*%
G04 APERTURE END LIST*
D10*
D11*
X130473000Y-92836000D03*
D12*
X137923000Y-94786000D03*
D11*
X135973000Y-102236000D03*
D12*
X128523000Y-100286000D03*
D11*
X130973000Y-92836000D03*
X131473000Y-92836000D03*
X131973000Y-92836000D03*
X132473000Y-92836000D03*
X132973000Y-92836000D03*
X133473000Y-92836000D03*
X133973000Y-92836000D03*
X134473000Y-92836000D03*
X134973000Y-92836000D03*
X135473000Y-92836000D03*
X135973000Y-92836000D03*
D12*
X137923000Y-95286000D03*
X137923000Y-95786000D03*
X137923000Y-96286000D03*
X137923000Y-96786000D03*
X137923000Y-97286000D03*
X137923000Y-97786000D03*
X137923000Y-98286000D03*
X137923000Y-98786000D03*
X137923000Y-99286000D03*
X137923000Y-99786000D03*
X137923000Y-100286000D03*
D11*
X135473000Y-102236000D03*
X134973000Y-102236000D03*
X134473000Y-102236000D03*
X133973000Y-102236000D03*
X133473000Y-102236000D03*
X132973000Y-102236000D03*
X132473000Y-102236000D03*
X131973000Y-102236000D03*
X131473000Y-102236000D03*
X130973000Y-102236000D03*
X130473000Y-102236000D03*
D12*
X128523000Y-99786000D03*
X128523000Y-99286000D03*
X128523000Y-98786000D03*
X128523000Y-98286000D03*
X128523000Y-97786000D03*
X128523000Y-97286000D03*
X128523000Y-96786000D03*
X128523000Y-96286000D03*
X128523000Y-95786000D03*
X128523000Y-95286000D03*
X128523000Y-94786000D03*
D13*
X129139000Y-102235000D03*
X126639000Y-102235000D03*
D14*
X128905000Y-88753000D03*
X128905000Y-86253000D03*
X137922000Y-101620000D03*
X137922000Y-104120000D03*
D13*
X129139000Y-92964000D03*
X126639000Y-92964000D03*
X137434000Y-92583000D03*
X139934000Y-92583000D03*
D14*
X132080000Y-117074000D03*
X132080000Y-114574000D03*
D15*
X138604000Y-120142000D03*
X141304000Y-120142000D03*
D16*
X134622000Y-117729000D03*
X134622000Y-116459000D03*
X134622000Y-115189000D03*
X134622000Y-113919000D03*
X141222000Y-113919000D03*
X141222000Y-115189000D03*
X141222000Y-116459000D03*
X141222000Y-117729000D03*
D17*
X131318000Y-88468000D03*
X133858000Y-88468000D03*
X131318000Y-85268000D03*
X133858000Y-85268000D03*
D18*
X170227000Y-106426000D03*
X170227000Y-108966000D03*
X160227000Y-108966000D03*
X160227000Y-106426000D03*
D15*
X172546000Y-104267000D03*
X169846000Y-104267000D03*
D19*
X159639000Y-99742000D03*
X159639000Y-102442000D03*
D20*
X164338000Y-119729000D03*
X164338000Y-115729000D03*
D21*
X152781000Y-83868000D03*
X154051000Y-83868000D03*
X155321000Y-83868000D03*
X156591000Y-83868000D03*
X156591000Y-89868000D03*
X155321000Y-89868000D03*
X154051000Y-89868000D03*
X152781000Y-89868000D03*
D14*
X150876000Y-86848000D03*
X150876000Y-84348000D03*
D18*
X160227000Y-97663000D03*
X160227000Y-95123000D03*
X170227000Y-95123000D03*
X170227000Y-97663000D03*
M02*
