G04 #@! TF.FileFunction,Soldermask,Top*
%FSLAX46Y46*%
G04 Gerber Fmt 4.6, Leading zero omitted, Abs format (unit mm)*
G04 Created by KiCad (PCBNEW 4.0.0-stable) date 08.12.2015 15:00:05*
%MOMM*%
G01*
G04 APERTURE LIST*
%ADD10C,0.100000*%
%ADD11R,2.000000X1.700000*%
%ADD12R,2.032000X1.727200*%
%ADD13O,2.032000X1.727200*%
%ADD14R,1.250000X1.500000*%
%ADD15R,1.500000X1.250000*%
%ADD16R,1.300000X1.500000*%
%ADD17C,1.397000*%
%ADD18R,2.000000X1.600000*%
%ADD19R,1.400000X2.200000*%
%ADD20R,1.727200X1.727200*%
%ADD21O,1.727200X1.727200*%
%ADD22R,1.500000X1.300000*%
%ADD23C,1.600000*%
%ADD24R,1.600000X2.000000*%
%ADD25R,1.850900X0.850900*%
%ADD26R,2.000000X0.650000*%
%ADD27R,1.699260X2.800000*%
%ADD28R,1.501140X1.501140*%
%ADD29R,0.650000X1.500000*%
%ADD30R,5.200000X3.400000*%
%ADD31R,3.400000X5.200000*%
%ADD32R,2.032000X2.032000*%
%ADD33O,2.032000X2.032000*%
%ADD34O,1.501140X1.998980*%
%ADD35C,3.500120*%
%ADD36R,2.000000X0.350000*%
%ADD37R,2.235200X2.235200*%
%ADD38R,1.727200X2.032000*%
%ADD39O,1.727200X2.032000*%
G04 APERTURE END LIST*
D10*
D11*
X131223000Y-92964000D03*
X135223000Y-92964000D03*
D12*
X130429000Y-111252000D03*
D13*
X130429000Y-108712000D03*
X130429000Y-106172000D03*
D14*
X166243000Y-82189000D03*
X166243000Y-84689000D03*
D15*
X181250000Y-76500000D03*
X183750000Y-76500000D03*
D14*
X173500000Y-131250000D03*
X173500000Y-133750000D03*
D16*
X126365000Y-85424000D03*
X126365000Y-82724000D03*
D17*
X138938000Y-90678000D03*
X133858000Y-90678000D03*
X138938000Y-83058000D03*
X133858000Y-83058000D03*
D15*
X137434000Y-92583000D03*
X139934000Y-92583000D03*
X131806000Y-83058000D03*
X129306000Y-83058000D03*
D18*
X137509000Y-123825000D03*
X133509000Y-123825000D03*
D14*
X126500000Y-68750000D03*
X126500000Y-66250000D03*
X134874000Y-110343000D03*
X134874000Y-107843000D03*
D15*
X118750000Y-123500000D03*
X116250000Y-123500000D03*
D19*
X137034000Y-110042000D03*
X140334000Y-110042000D03*
X140334000Y-104842000D03*
X137034000Y-104842000D03*
D10*
G36*
X120611092Y-127267588D02*
X119055457Y-125711953D01*
X120045406Y-124722004D01*
X121601041Y-126277639D01*
X120611092Y-127267588D01*
X120611092Y-127267588D01*
G37*
G36*
X118277639Y-129601041D02*
X116722004Y-128045406D01*
X117711953Y-127055457D01*
X119267588Y-128611092D01*
X118277639Y-129601041D01*
X118277639Y-129601041D01*
G37*
G36*
X121954594Y-133277996D02*
X120398959Y-131722361D01*
X121388908Y-130732412D01*
X122944543Y-132288047D01*
X121954594Y-133277996D01*
X121954594Y-133277996D01*
G37*
G36*
X124288047Y-130944543D02*
X122732412Y-129388908D01*
X123722361Y-128398959D01*
X125277996Y-129954594D01*
X124288047Y-130944543D01*
X124288047Y-130944543D01*
G37*
G36*
X122732412Y-70611092D02*
X124288047Y-69055457D01*
X125277996Y-70045406D01*
X123722361Y-71601041D01*
X122732412Y-70611092D01*
X122732412Y-70611092D01*
G37*
G36*
X120398959Y-68277639D02*
X121954594Y-66722004D01*
X122944543Y-67711953D01*
X121388908Y-69267588D01*
X120398959Y-68277639D01*
X120398959Y-68277639D01*
G37*
G36*
X116722004Y-71954594D02*
X118277639Y-70398959D01*
X119267588Y-71388908D01*
X117711953Y-72944543D01*
X116722004Y-71954594D01*
X116722004Y-71954594D01*
G37*
G36*
X119055457Y-74288047D02*
X120611092Y-72732412D01*
X121601041Y-73722361D01*
X120045406Y-75277996D01*
X119055457Y-74288047D01*
X119055457Y-74288047D01*
G37*
G36*
X179388908Y-72732412D02*
X180944543Y-74288047D01*
X179954594Y-75277996D01*
X178398959Y-73722361D01*
X179388908Y-72732412D01*
X179388908Y-72732412D01*
G37*
G36*
X181722361Y-70398959D02*
X183277996Y-71954594D01*
X182288047Y-72944543D01*
X180732412Y-71388908D01*
X181722361Y-70398959D01*
X181722361Y-70398959D01*
G37*
G36*
X178045406Y-66722004D02*
X179601041Y-68277639D01*
X178611092Y-69267588D01*
X177055457Y-67711953D01*
X178045406Y-66722004D01*
X178045406Y-66722004D01*
G37*
G36*
X175711953Y-69055457D02*
X177267588Y-70611092D01*
X176277639Y-71601041D01*
X174722004Y-70045406D01*
X175711953Y-69055457D01*
X175711953Y-69055457D01*
G37*
G36*
X177267588Y-129388908D02*
X175711953Y-130944543D01*
X174722004Y-129954594D01*
X176277639Y-128398959D01*
X177267588Y-129388908D01*
X177267588Y-129388908D01*
G37*
G36*
X179601041Y-131722361D02*
X178045406Y-133277996D01*
X177055457Y-132288047D01*
X178611092Y-130732412D01*
X179601041Y-131722361D01*
X179601041Y-131722361D01*
G37*
G36*
X183277996Y-128045406D02*
X181722361Y-129601041D01*
X180732412Y-128611092D01*
X182288047Y-127055457D01*
X183277996Y-128045406D01*
X183277996Y-128045406D01*
G37*
G36*
X180944543Y-125711953D02*
X179388908Y-127267588D01*
X178398959Y-126277639D01*
X179954594Y-124722004D01*
X180944543Y-125711953D01*
X180944543Y-125711953D01*
G37*
D20*
X161544000Y-89916000D03*
D21*
X164084000Y-89916000D03*
X161544000Y-87376000D03*
X164084000Y-87376000D03*
X161544000Y-84836000D03*
X164084000Y-84836000D03*
X161544000Y-82296000D03*
X164084000Y-82296000D03*
D16*
X126365000Y-90758000D03*
X126365000Y-88058000D03*
D22*
X142922000Y-91694000D03*
X145622000Y-91694000D03*
X157179000Y-91694000D03*
X154479000Y-91694000D03*
D14*
X138176000Y-119868000D03*
X138176000Y-117368000D03*
D23*
X153924000Y-124206000D03*
X148844000Y-124206000D03*
X153924000Y-121666000D03*
X148844000Y-121666000D03*
X153924000Y-116586000D03*
X148844000Y-116586000D03*
X153924000Y-114046000D03*
X148844000Y-114046000D03*
D12*
X158750000Y-82296000D03*
D13*
X158750000Y-84836000D03*
X158750000Y-87376000D03*
X158750000Y-89916000D03*
D22*
X153844000Y-82296000D03*
X156544000Y-82296000D03*
X141144000Y-89789000D03*
X143844000Y-89789000D03*
D16*
X140335000Y-94408000D03*
X140335000Y-97108000D03*
D24*
X146685000Y-113951000D03*
X146685000Y-117951000D03*
X131826000Y-89249000D03*
X131826000Y-85249000D03*
D25*
X137555860Y-121920000D03*
X133208140Y-121920000D03*
D16*
X151892000Y-113966000D03*
X151892000Y-116666000D03*
D22*
X156638000Y-123317000D03*
X159338000Y-123317000D03*
X136859000Y-115189000D03*
X134159000Y-115189000D03*
D16*
X132969000Y-117268000D03*
X132969000Y-119968000D03*
D26*
X156769000Y-119827000D03*
X156769000Y-120777000D03*
X156769000Y-121727000D03*
X159969000Y-121727000D03*
X159969000Y-119827000D03*
X159969000Y-120777000D03*
D24*
X165227000Y-120047000D03*
X165227000Y-124047000D03*
D18*
X154019000Y-111633000D03*
X150019000Y-111633000D03*
D27*
X162560000Y-122877000D03*
X162560000Y-118677000D03*
D15*
X159619000Y-117856000D03*
X157119000Y-117856000D03*
D27*
X151384000Y-120836000D03*
X151384000Y-125036000D03*
D28*
X129159000Y-113538000D03*
D29*
X136459000Y-117268000D03*
X135509000Y-117268000D03*
X134559000Y-117268000D03*
X134559000Y-119968000D03*
X136459000Y-119968000D03*
X135509000Y-119968000D03*
D30*
X142748000Y-113397000D03*
X142748000Y-117997000D03*
D31*
X157085000Y-114046000D03*
X161685000Y-114046000D03*
D32*
X172847000Y-106553000D03*
D33*
X172847000Y-109093000D03*
D32*
X172847000Y-97663000D03*
D33*
X172847000Y-95123000D03*
D22*
X153844000Y-84836000D03*
X156544000Y-84836000D03*
D12*
X127889000Y-111252000D03*
D13*
X127889000Y-108712000D03*
X127889000Y-106172000D03*
D34*
X152499360Y-92499380D03*
X150000000Y-92499380D03*
X147500640Y-92499380D03*
D35*
X156200140Y-100000000D03*
X143799860Y-100000000D03*
D34*
X152499360Y-107000240D03*
X147500640Y-107000240D03*
D36*
X131293000Y-77100000D03*
X131293000Y-77750000D03*
X131293000Y-78400000D03*
X131293000Y-79050000D03*
X131293000Y-79700000D03*
X131293000Y-80350000D03*
X131293000Y-81000000D03*
X131293000Y-81650000D03*
X137693000Y-81650000D03*
X137693000Y-81000000D03*
X137693000Y-80350000D03*
X137693000Y-79700000D03*
X137693000Y-79050000D03*
X137693000Y-78400000D03*
X137693000Y-77750000D03*
X137693000Y-77100000D03*
D20*
X140970000Y-77216000D03*
D21*
X140970000Y-79756000D03*
X143510000Y-77216000D03*
X143510000Y-79756000D03*
X146050000Y-77216000D03*
X146050000Y-79756000D03*
X148590000Y-77216000D03*
X148590000Y-79756000D03*
X151130000Y-77216000D03*
X151130000Y-79756000D03*
X153670000Y-77216000D03*
X153670000Y-79756000D03*
X156210000Y-77216000D03*
X156210000Y-79756000D03*
X158750000Y-77216000D03*
X158750000Y-79756000D03*
D37*
X161671000Y-79756000D03*
D38*
X143637000Y-109093000D03*
D39*
X146177000Y-109093000D03*
X148717000Y-109093000D03*
X151257000Y-109093000D03*
X153797000Y-109093000D03*
X156337000Y-109093000D03*
D16*
X138430000Y-97108000D03*
X138430000Y-94408000D03*
M02*
