G04 #@! TF.FileFunction,Copper,L2,Bot,Signal*
%FSLAX46Y46*%
G04 Gerber Fmt 4.6, Leading zero omitted, Abs format (unit mm)*
G04 Created by KiCad (PCBNEW 4.0.0-stable) date 08.12.2015 15:00:05*
%MOMM*%
G01*
G04 APERTURE LIST*
%ADD10C,0.100000*%
%ADD11R,0.290000X2.000000*%
%ADD12R,2.000000X0.290000*%
%ADD13R,2.032000X1.727200*%
%ADD14O,2.032000X1.727200*%
%ADD15R,1.500000X1.250000*%
%ADD16R,1.250000X1.500000*%
%ADD17C,1.397000*%
%ADD18R,1.727200X1.727200*%
%ADD19O,1.727200X1.727200*%
%ADD20R,1.500000X1.300000*%
%ADD21R,2.800000X0.600000*%
%ADD22C,1.600000*%
%ADD23R,1.400000X2.200000*%
%ADD24R,1.501140X1.501140*%
%ADD25R,2.500000X1.800000*%
%ADD26R,1.300000X1.500000*%
%ADD27R,2.032000X2.032000*%
%ADD28O,2.032000X2.032000*%
%ADD29R,1.700000X2.000000*%
%ADD30O,1.501140X1.998980*%
%ADD31C,3.500120*%
%ADD32R,2.235200X2.235200*%
%ADD33R,0.600000X2.200000*%
%ADD34R,1.727200X2.032000*%
%ADD35O,1.727200X2.032000*%
%ADD36C,0.609600*%
%ADD37C,1.219200*%
%ADD38C,0.203200*%
%ADD39C,0.812800*%
%ADD40C,0.406400*%
%ADD41C,0.210000*%
G04 APERTURE END LIST*
D10*
D11*
X130473000Y-92836000D03*
D12*
X137923000Y-94786000D03*
D11*
X135973000Y-102236000D03*
D12*
X128523000Y-100286000D03*
D11*
X130973000Y-92836000D03*
X131473000Y-92836000D03*
X131973000Y-92836000D03*
X132473000Y-92836000D03*
X132973000Y-92836000D03*
X133473000Y-92836000D03*
X133973000Y-92836000D03*
X134473000Y-92836000D03*
X134973000Y-92836000D03*
X135473000Y-92836000D03*
X135973000Y-92836000D03*
D12*
X137923000Y-95286000D03*
X137923000Y-95786000D03*
X137923000Y-96286000D03*
X137923000Y-96786000D03*
X137923000Y-97286000D03*
X137923000Y-97786000D03*
X137923000Y-98286000D03*
X137923000Y-98786000D03*
X137923000Y-99286000D03*
X137923000Y-99786000D03*
X137923000Y-100286000D03*
D11*
X135473000Y-102236000D03*
X134973000Y-102236000D03*
X134473000Y-102236000D03*
X133973000Y-102236000D03*
X133473000Y-102236000D03*
X132973000Y-102236000D03*
X132473000Y-102236000D03*
X131973000Y-102236000D03*
X131473000Y-102236000D03*
X130973000Y-102236000D03*
X130473000Y-102236000D03*
D12*
X128523000Y-99786000D03*
X128523000Y-99286000D03*
X128523000Y-98786000D03*
X128523000Y-98286000D03*
X128523000Y-97786000D03*
X128523000Y-97286000D03*
X128523000Y-96786000D03*
X128523000Y-96286000D03*
X128523000Y-95786000D03*
X128523000Y-95286000D03*
X128523000Y-94786000D03*
D13*
X130429000Y-111252000D03*
D14*
X130429000Y-108712000D03*
X130429000Y-106172000D03*
D15*
X129139000Y-102235000D03*
X126639000Y-102235000D03*
D16*
X128905000Y-88753000D03*
X128905000Y-86253000D03*
D17*
X138938000Y-90678000D03*
X133858000Y-90678000D03*
X138938000Y-83058000D03*
X133858000Y-83058000D03*
D16*
X137922000Y-101620000D03*
X137922000Y-104120000D03*
D15*
X129139000Y-92964000D03*
X126639000Y-92964000D03*
X137434000Y-92583000D03*
X139934000Y-92583000D03*
D16*
X132080000Y-117074000D03*
X132080000Y-114574000D03*
D18*
X161544000Y-89916000D03*
D19*
X164084000Y-89916000D03*
X161544000Y-87376000D03*
X164084000Y-87376000D03*
X161544000Y-84836000D03*
X164084000Y-84836000D03*
X161544000Y-82296000D03*
X164084000Y-82296000D03*
D20*
X138604000Y-120142000D03*
X141304000Y-120142000D03*
D21*
X134622000Y-117729000D03*
X134622000Y-116459000D03*
X134622000Y-115189000D03*
X134622000Y-113919000D03*
X141222000Y-113919000D03*
X141222000Y-115189000D03*
X141222000Y-116459000D03*
X141222000Y-117729000D03*
D22*
X153924000Y-124206000D03*
X148844000Y-124206000D03*
X153924000Y-121666000D03*
X148844000Y-121666000D03*
X153924000Y-116586000D03*
X148844000Y-116586000D03*
X153924000Y-114046000D03*
X148844000Y-114046000D03*
D23*
X131318000Y-88468000D03*
X133858000Y-88468000D03*
X131318000Y-85268000D03*
X133858000Y-85268000D03*
D13*
X158750000Y-82296000D03*
D14*
X158750000Y-84836000D03*
X158750000Y-87376000D03*
X158750000Y-89916000D03*
D24*
X129159000Y-113538000D03*
D25*
X170227000Y-106426000D03*
X170227000Y-108966000D03*
X160227000Y-108966000D03*
X160227000Y-106426000D03*
D20*
X172546000Y-104267000D03*
X169846000Y-104267000D03*
D26*
X159639000Y-99742000D03*
X159639000Y-102442000D03*
D27*
X172847000Y-106553000D03*
D28*
X172847000Y-109093000D03*
D27*
X172847000Y-97663000D03*
D28*
X172847000Y-95123000D03*
D13*
X127889000Y-111252000D03*
D14*
X127889000Y-108712000D03*
X127889000Y-106172000D03*
D29*
X164338000Y-119729000D03*
X164338000Y-115729000D03*
D30*
X152499360Y-92499380D03*
X150000000Y-92499380D03*
X147500640Y-92499380D03*
D31*
X156200140Y-100000000D03*
X143799860Y-100000000D03*
D30*
X152499360Y-107000240D03*
X147500640Y-107000240D03*
D18*
X140970000Y-77216000D03*
D19*
X140970000Y-79756000D03*
X143510000Y-77216000D03*
X143510000Y-79756000D03*
X146050000Y-77216000D03*
X146050000Y-79756000D03*
X148590000Y-77216000D03*
X148590000Y-79756000D03*
X151130000Y-77216000D03*
X151130000Y-79756000D03*
X153670000Y-77216000D03*
X153670000Y-79756000D03*
X156210000Y-77216000D03*
X156210000Y-79756000D03*
X158750000Y-77216000D03*
X158750000Y-79756000D03*
D32*
X161671000Y-79756000D03*
D33*
X152781000Y-83868000D03*
X154051000Y-83868000D03*
X155321000Y-83868000D03*
X156591000Y-83868000D03*
X156591000Y-89868000D03*
X155321000Y-89868000D03*
X154051000Y-89868000D03*
X152781000Y-89868000D03*
D16*
X150876000Y-86848000D03*
X150876000Y-84348000D03*
D34*
X143637000Y-109093000D03*
D35*
X146177000Y-109093000D03*
X148717000Y-109093000D03*
X151257000Y-109093000D03*
X153797000Y-109093000D03*
X156337000Y-109093000D03*
D25*
X160227000Y-97663000D03*
X160227000Y-95123000D03*
X170227000Y-95123000D03*
X170227000Y-97663000D03*
D36*
X135763000Y-112776000D03*
X134493000Y-112776000D03*
X133477000Y-108585000D03*
X133477000Y-109601000D03*
X128143000Y-103632000D03*
X127127000Y-103632000D03*
X133858000Y-76454000D03*
X133858000Y-77343000D03*
X133858000Y-78232000D03*
X133858000Y-79121000D03*
X133858000Y-80010000D03*
X133858000Y-80899000D03*
X129159000Y-84709000D03*
D37*
X131191000Y-119761000D03*
X131445000Y-123952000D03*
D36*
X135128000Y-100457000D03*
X134239000Y-100457000D03*
X133350000Y-100457000D03*
X133350000Y-99568000D03*
X134239000Y-99568000D03*
X135128000Y-99568000D03*
X136017000Y-99568000D03*
X135128000Y-98679000D03*
X134239000Y-98679000D03*
X133350000Y-98679000D03*
X133350000Y-97790000D03*
X134239000Y-97790000D03*
X136017000Y-100457000D03*
X135128000Y-96012000D03*
X134239000Y-96012000D03*
X133350000Y-96012000D03*
X133350000Y-95123000D03*
X134239000Y-95123000D03*
X135128000Y-95123000D03*
X136017000Y-95123000D03*
X136017000Y-96012000D03*
X136017000Y-96901000D03*
X135128000Y-96901000D03*
X134239000Y-96901000D03*
X133350000Y-96901000D03*
X142113000Y-122936000D03*
X143002000Y-122682000D03*
X144272000Y-122174000D03*
X145669000Y-121412000D03*
X146685000Y-120904000D03*
X130429000Y-94742000D03*
X131064000Y-97917000D03*
X131064000Y-96774000D03*
X131064000Y-95631000D03*
X131064000Y-99695000D03*
X131064000Y-100584000D03*
X131064000Y-98806000D03*
D37*
X153924000Y-127762000D03*
D36*
X152527000Y-85725000D03*
X130048000Y-88773000D03*
X129540000Y-91567000D03*
X143383000Y-105410000D03*
D37*
X139446000Y-101600000D03*
X129667000Y-103759000D03*
D36*
X137414000Y-113284000D03*
X136906000Y-93853000D03*
X124968000Y-90805000D03*
X135763000Y-90170000D03*
X136652000Y-90170000D03*
X128651000Y-79883000D03*
X128651000Y-77216000D03*
X134239000Y-106426000D03*
X124714000Y-88011000D03*
X128651000Y-80899000D03*
X129540000Y-80899000D03*
X132969000Y-81153000D03*
X160909000Y-123063000D03*
X126365000Y-105283000D03*
X126365000Y-112776000D03*
X138430000Y-106553000D03*
X142113000Y-106553000D03*
X141478000Y-107188000D03*
X139065000Y-107188000D03*
X177038000Y-132969000D03*
X128651000Y-78105000D03*
X128651000Y-78994000D03*
X140843000Y-107823000D03*
X138430000Y-107823000D03*
X139827000Y-100076000D03*
X136017000Y-98044000D03*
D38*
X126873000Y-103505000D02*
X127000000Y-103505000D01*
X127000000Y-103505000D02*
X127127000Y-103632000D01*
X154686000Y-94259402D02*
X154740598Y-94259402D01*
X129159000Y-84709000D02*
X129159000Y-84267740D01*
X133858000Y-78232000D02*
X133858000Y-77343000D01*
X133858000Y-80010000D02*
X133858000Y-79121000D01*
X133858000Y-81407000D02*
X133858000Y-80899000D01*
X133350000Y-81915000D02*
X133858000Y-81407000D01*
X131511740Y-81915000D02*
X133350000Y-81915000D01*
X129159000Y-84267740D02*
X131511740Y-81915000D01*
X128905000Y-86253000D02*
X128905000Y-84963000D01*
X128905000Y-84963000D02*
X129159000Y-84709000D01*
X128523000Y-95286000D02*
X126721740Y-95286000D01*
X126639000Y-95203260D02*
X126639000Y-92964000D01*
X126721740Y-95286000D02*
X126639000Y-95203260D01*
X134239000Y-100457000D02*
X133350000Y-100457000D01*
X133350000Y-99568000D02*
X134239000Y-99568000D01*
X135128000Y-99568000D02*
X136017000Y-99568000D01*
X135128000Y-98679000D02*
X134239000Y-98679000D01*
X133350000Y-98679000D02*
X133350000Y-97790000D01*
X136886000Y-104120000D02*
X136652000Y-103886000D01*
X136652000Y-103886000D02*
X136652000Y-101092000D01*
X136652000Y-101092000D02*
X136017000Y-100457000D01*
X137922000Y-104120000D02*
X136886000Y-104120000D01*
X136017000Y-100457000D02*
X135128000Y-100457000D01*
X134239000Y-96012000D02*
X135128000Y-96012000D01*
X133350000Y-95123000D02*
X133350000Y-96012000D01*
X135128000Y-95123000D02*
X134239000Y-95123000D01*
X136017000Y-96012000D02*
X136017000Y-95123000D01*
X135128000Y-96901000D02*
X136017000Y-96901000D01*
X133350000Y-96901000D02*
X134239000Y-96901000D01*
X141351000Y-123571000D02*
X141224000Y-123571000D01*
X141986000Y-122936000D02*
X141351000Y-123571000D01*
X142113000Y-122936000D02*
X141986000Y-122936000D01*
X143891000Y-122682000D02*
X143002000Y-122682000D01*
X144272000Y-122301000D02*
X143891000Y-122682000D01*
X144272000Y-122174000D02*
X144272000Y-122301000D01*
X146177000Y-121412000D02*
X145669000Y-121412000D01*
X146685000Y-120904000D02*
X146177000Y-121412000D01*
X131064000Y-96774000D02*
X131064000Y-95631000D01*
X130973000Y-100675000D02*
X130973000Y-102236000D01*
X130973000Y-100675000D02*
X131064000Y-100584000D01*
X131064000Y-98806000D02*
X131064000Y-97917000D01*
X133096000Y-120142000D02*
X138604000Y-120142000D01*
X132334000Y-119380000D02*
X133096000Y-120142000D01*
D39*
X153924000Y-124206000D02*
X153924000Y-127762000D01*
X148844000Y-124206000D02*
X153924000Y-124206000D01*
D40*
X150876000Y-84348000D02*
X152301000Y-84348000D01*
X152301000Y-84348000D02*
X152781000Y-83868000D01*
X152781000Y-85471000D02*
X152781000Y-83868000D01*
X152527000Y-85725000D02*
X152781000Y-85471000D01*
X128905000Y-88753000D02*
X130028000Y-88753000D01*
X130028000Y-88753000D02*
X130048000Y-88773000D01*
X128905000Y-88753000D02*
X131033000Y-88753000D01*
X131033000Y-88753000D02*
X131318000Y-88468000D01*
D38*
X129540000Y-91567000D02*
X129540000Y-92563000D01*
X129540000Y-92563000D02*
X129139000Y-92964000D01*
X130048000Y-91567000D02*
X129540000Y-91567000D01*
X130048000Y-91567000D02*
X130473000Y-91992000D01*
X130473000Y-92836000D02*
X130473000Y-91992000D01*
X128523000Y-94786000D02*
X128523000Y-93580000D01*
X128523000Y-93580000D02*
X129139000Y-92964000D01*
X130473000Y-92836000D02*
X129267000Y-92836000D01*
X129267000Y-92836000D02*
X129139000Y-92964000D01*
X143383000Y-105410000D02*
X143662402Y-105130598D01*
X143662402Y-105130598D02*
X156997402Y-105130598D01*
X156997402Y-105130598D02*
X157607000Y-104521000D01*
X157607000Y-104521000D02*
X159639000Y-102489000D01*
X159639000Y-102442000D02*
X159639000Y-102489000D01*
X139446000Y-101600000D02*
X139446000Y-100711000D01*
X139021000Y-100286000D02*
X137923000Y-100286000D01*
X139446000Y-100711000D02*
X139021000Y-100286000D01*
D39*
X137922000Y-101620000D02*
X139426000Y-101620000D01*
X139426000Y-101620000D02*
X139446000Y-101600000D01*
D38*
X129667000Y-103759000D02*
X129139000Y-103231000D01*
X129139000Y-103231000D02*
X129139000Y-102235000D01*
X130473000Y-102953000D02*
X129667000Y-103759000D01*
X130473000Y-102953000D02*
X130473000Y-102236000D01*
X130473000Y-102236000D02*
X129140000Y-102236000D01*
X129140000Y-102236000D02*
X129139000Y-102235000D01*
X137923000Y-100286000D02*
X137923000Y-101619000D01*
X137923000Y-101619000D02*
X137922000Y-101620000D01*
D40*
X136779000Y-115189000D02*
X134622000Y-115189000D01*
X137414000Y-114554000D02*
X136779000Y-115189000D01*
X137414000Y-113284000D02*
X137414000Y-114554000D01*
X132080000Y-114574000D02*
X132695000Y-115189000D01*
X132695000Y-115189000D02*
X134622000Y-115189000D01*
X141222000Y-117729000D02*
X141222000Y-120060000D01*
X141222000Y-120060000D02*
X141304000Y-120142000D01*
D38*
X136906000Y-93853000D02*
X136906000Y-93111000D01*
X136906000Y-93111000D02*
X137434000Y-92583000D01*
X134473000Y-92836000D02*
X134473000Y-94087000D01*
X136525000Y-94234000D02*
X136906000Y-93853000D01*
X134620000Y-94234000D02*
X136525000Y-94234000D01*
X134473000Y-94087000D02*
X134620000Y-94234000D01*
X124837760Y-95126240D02*
X124663196Y-94951676D01*
X124663196Y-91109804D02*
X124968000Y-90805000D01*
X124663196Y-94951676D02*
X124663196Y-91109804D01*
X128523000Y-96786000D02*
X126497520Y-96786000D01*
X126497520Y-96786000D02*
X124837760Y-95126240D01*
X124837760Y-95126240D02*
X124790196Y-95078676D01*
X134973000Y-91528260D02*
X135763000Y-90738260D01*
X135763000Y-90738260D02*
X135763000Y-90170000D01*
X134973000Y-92836000D02*
X134973000Y-91528260D01*
X135473000Y-91603000D02*
X136652000Y-90424000D01*
X136652000Y-90424000D02*
X136652000Y-90170000D01*
X135473000Y-92836000D02*
X135473000Y-91603000D01*
X127155000Y-95786000D02*
X126647000Y-95786000D01*
X125476000Y-94107000D02*
X125476000Y-91821000D01*
X125476000Y-91821000D02*
X126669794Y-90627206D01*
X126669794Y-90627206D02*
X126669794Y-81864206D01*
X126669794Y-81864206D02*
X128651000Y-79883000D01*
X127155000Y-95786000D02*
X128523000Y-95786000D01*
X125476000Y-94615000D02*
X125476000Y-94107000D01*
X126647000Y-95786000D02*
X125476000Y-94615000D01*
X123850392Y-91440000D02*
X123850392Y-90458868D01*
X125450588Y-80416412D02*
X127127000Y-78740000D01*
X125450588Y-88858672D02*
X125450588Y-80416412D01*
X123850392Y-90458868D02*
X125450588Y-88858672D01*
X128523000Y-97786000D02*
X126348040Y-97786000D01*
X127127000Y-78740000D02*
X128651000Y-77216000D01*
X123850392Y-95288352D02*
X123850392Y-91440000D01*
X126348040Y-97786000D02*
X123850392Y-95288352D01*
X132473000Y-102236000D02*
X132473000Y-105034520D01*
X132638804Y-113080804D02*
X133477000Y-113919000D01*
X132638804Y-105200324D02*
X132638804Y-113080804D01*
X132473000Y-105034520D02*
X132638804Y-105200324D01*
X133477000Y-113919000D02*
X134622000Y-113919000D01*
X133985000Y-113919000D02*
X134622000Y-113919000D01*
X131973000Y-102236000D02*
X131973000Y-105109260D01*
X131064000Y-113538000D02*
X131064000Y-117983000D01*
X131064000Y-117983000D02*
X131318000Y-118237000D01*
X131318000Y-118237000D02*
X132969000Y-118237000D01*
X132969000Y-118237000D02*
X133477000Y-117729000D01*
X132232402Y-112369598D02*
X131064000Y-113538000D01*
X132232402Y-105368662D02*
X132232402Y-112369598D01*
X131973000Y-105109260D02*
X132232402Y-105368662D01*
X133477000Y-117729000D02*
X134622000Y-117729000D01*
X133731000Y-117729000D02*
X134622000Y-117729000D01*
X132473000Y-92836000D02*
X132473000Y-90158000D01*
X132473000Y-90158000D02*
X133858000Y-88773000D01*
X133858000Y-88773000D02*
X133858000Y-88468000D01*
X133973000Y-106160000D02*
X134239000Y-106426000D01*
X133973000Y-102236000D02*
X133973000Y-106160000D01*
X128270000Y-76581000D02*
X130937000Y-73914000D01*
X124714000Y-80137000D02*
X128270000Y-76581000D01*
X124714000Y-88011000D02*
X124714000Y-80137000D01*
X130937000Y-73914000D02*
X138074402Y-66776598D01*
X138074402Y-66776598D02*
X153330338Y-66776598D01*
X153330338Y-66776598D02*
X160467730Y-73913990D01*
X165887402Y-81492662D02*
X165887402Y-79333662D01*
X165887402Y-81492662D02*
X165887402Y-85572598D01*
X165887402Y-85572598D02*
X164084000Y-87376000D01*
X165887402Y-79333662D02*
X160467730Y-73913990D01*
X130937000Y-73914000D02*
X130937010Y-73913990D01*
X130973000Y-92836000D02*
X130973000Y-91349000D01*
X127806324Y-90855804D02*
X127076196Y-90125676D01*
X127076196Y-90125676D02*
X127076196Y-82473804D01*
X127076196Y-82473804D02*
X128651000Y-80899000D01*
X130479804Y-90855804D02*
X127806324Y-90855804D01*
X130973000Y-91349000D02*
X130479804Y-90855804D01*
X131473000Y-92836000D02*
X131473000Y-91274260D01*
X127974662Y-90449402D02*
X127482598Y-89957338D01*
X127482598Y-89957338D02*
X127482598Y-82956402D01*
X127482598Y-82956402D02*
X129540000Y-80899000D01*
X130648142Y-90449402D02*
X127974662Y-90449402D01*
X131473000Y-91274260D02*
X130648142Y-90449402D01*
X131973000Y-92836000D02*
X131973000Y-91199520D01*
X128143000Y-90043000D02*
X127889000Y-89789000D01*
X127889000Y-89789000D02*
X127889000Y-84963000D01*
X127889000Y-84963000D02*
X131699000Y-81153000D01*
X131699000Y-81153000D02*
X132969000Y-81153000D01*
X130816480Y-90043000D02*
X128143000Y-90043000D01*
X131973000Y-91199520D02*
X130816480Y-90043000D01*
X133858000Y-83058000D02*
X134594598Y-82321402D01*
X134594598Y-76326482D02*
X134924540Y-75996540D01*
X134594598Y-82321402D02*
X134594598Y-76326482D01*
X133473000Y-92836000D02*
X133473000Y-91063000D01*
X133473000Y-91063000D02*
X133858000Y-90678000D01*
X135229598Y-75691482D02*
X136067540Y-74853540D01*
X134924540Y-75996540D02*
X135229598Y-75691482D01*
X153670000Y-67691000D02*
X153162000Y-67183000D01*
X153162000Y-67183000D02*
X143738080Y-67183000D01*
X143738080Y-67183000D02*
X136067540Y-74853540D01*
X164084000Y-84836000D02*
X165481000Y-83439000D01*
X158419784Y-72440784D02*
X153670000Y-67691000D01*
X165481000Y-79502000D02*
X158419784Y-72440784D01*
X165481000Y-83439000D02*
X165481000Y-79502000D01*
X136067540Y-74853540D02*
X136131040Y-74790040D01*
X156591000Y-89868000D02*
X156591000Y-94548260D01*
X156591000Y-94548260D02*
X156473456Y-94665804D01*
X160147000Y-90992260D02*
X160147000Y-83693000D01*
X145075856Y-94665804D02*
X156473456Y-94665804D01*
X156473456Y-94665804D02*
X160147000Y-90992260D01*
X144501116Y-94665804D02*
X145075856Y-94665804D01*
X139880920Y-99286000D02*
X144501116Y-94665804D01*
X137923000Y-99286000D02*
X139880920Y-99286000D01*
X160147000Y-83693000D02*
X158750000Y-82296000D01*
X148183598Y-94259402D02*
X150850598Y-94259402D01*
X151257000Y-88900000D02*
X152527000Y-87630000D01*
X151257000Y-93853000D02*
X151257000Y-88900000D01*
X150850598Y-94259402D02*
X151257000Y-93853000D01*
X147828000Y-94259402D02*
X148183598Y-94259402D01*
X156591000Y-85217000D02*
X156591000Y-83868000D01*
X154813000Y-86995000D02*
X156591000Y-85217000D01*
X153162000Y-86995000D02*
X154813000Y-86995000D01*
X152527000Y-87630000D02*
X153162000Y-86995000D01*
X158750000Y-84836000D02*
X157559000Y-84836000D01*
X157559000Y-84836000D02*
X156591000Y-83868000D01*
X137923000Y-98786000D02*
X139806180Y-98786000D01*
X144332778Y-94259402D02*
X145075856Y-94259402D01*
X139806180Y-98786000D02*
X143362590Y-95229590D01*
X143362590Y-95229590D02*
X144124590Y-94467590D01*
X144124590Y-94467590D02*
X144332778Y-94259402D01*
X144907518Y-94259402D02*
X145075856Y-94259402D01*
X145075856Y-94259402D02*
X147828000Y-94259402D01*
X138088850Y-84923150D02*
X137439412Y-84273712D01*
X138074412Y-76869848D02*
X139658662Y-75285598D01*
X139658662Y-75285598D02*
X149393338Y-75285598D01*
X149393338Y-75285598D02*
X151130000Y-77022260D01*
X137439412Y-77504848D02*
X138074412Y-76869848D01*
X137439412Y-84273712D02*
X137439412Y-77504848D01*
X140156700Y-97286000D02*
X143129010Y-94313690D01*
X143129010Y-94313690D02*
X143129010Y-89963310D01*
X143129010Y-89963310D02*
X138088850Y-84923150D01*
X138088850Y-84923150D02*
X138074412Y-84908712D01*
X137923000Y-97286000D02*
X140156700Y-97286000D01*
X151130000Y-77022260D02*
X151130000Y-77216000D01*
X137261608Y-85245388D02*
X136626608Y-84610388D01*
X137923000Y-96286000D02*
X140007220Y-96286000D01*
X142316206Y-90299986D02*
X137261608Y-85245388D01*
X142316206Y-93977014D02*
X142316206Y-90299986D01*
X140007220Y-96286000D02*
X142316206Y-93977014D01*
X136626608Y-77168172D02*
X137380640Y-76414140D01*
X136626608Y-84610388D02*
X136626608Y-77168172D01*
X151120534Y-74472794D02*
X153670000Y-77022260D01*
X139321986Y-74472794D02*
X151120534Y-74472794D01*
X137261608Y-76533172D02*
X137380640Y-76414140D01*
X137380640Y-76414140D02*
X139321986Y-74472794D01*
X153670000Y-77022260D02*
X153670000Y-77216000D01*
X137668010Y-85077050D02*
X137033010Y-84442050D01*
X137668010Y-76701510D02*
X139490324Y-74879196D01*
X139490324Y-74879196D02*
X150952196Y-74879196D01*
X150952196Y-74879196D02*
X152400000Y-76327000D01*
X152400000Y-76327000D02*
X152400000Y-78486000D01*
X153670000Y-79756000D02*
X152400000Y-78486000D01*
X140081960Y-96786000D02*
X137923000Y-96786000D01*
X142722608Y-90131648D02*
X137668010Y-85077050D01*
X142722608Y-94145352D02*
X142722608Y-90131648D01*
X140081960Y-96786000D02*
X142722608Y-94145352D01*
X137033010Y-77336510D02*
X137668010Y-76701510D01*
X137033010Y-84442050D02*
X137033010Y-77336510D01*
X136448804Y-85582064D02*
X135813804Y-84947064D01*
X138099804Y-87233064D02*
X136448804Y-85582064D01*
X139857740Y-95286000D02*
X141503402Y-93640338D01*
X141503402Y-93640338D02*
X141503402Y-90636662D01*
X141503402Y-90636662D02*
X138099804Y-87233064D01*
X137923000Y-95286000D02*
X139857740Y-95286000D01*
X135813804Y-76831496D02*
X136448804Y-76196496D01*
X135813804Y-84947064D02*
X135813804Y-76831496D01*
X152847730Y-73659990D02*
X156210000Y-77022260D01*
X138985310Y-73659990D02*
X152847730Y-73659990D01*
X136448804Y-76196496D02*
X138985310Y-73659990D01*
X156210000Y-77022260D02*
X156210000Y-77216000D01*
X136855206Y-85413726D02*
X136220206Y-84778726D01*
X137923000Y-95786000D02*
X139932480Y-95786000D01*
X141909804Y-90468324D02*
X136855206Y-85413726D01*
X141909804Y-93808676D02*
X141909804Y-90468324D01*
X139932480Y-95786000D02*
X141909804Y-93808676D01*
X136220206Y-76999834D02*
X136855206Y-76364834D01*
X136220206Y-84778726D02*
X136220206Y-76999834D01*
X154940000Y-78486000D02*
X156210000Y-79756000D01*
X154940000Y-76327000D02*
X154940000Y-78486000D01*
X152679392Y-74066392D02*
X154940000Y-76327000D01*
X139153648Y-74066392D02*
X152679392Y-74066392D01*
X136855206Y-76364834D02*
X139153648Y-74066392D01*
X137287000Y-88519000D02*
X137287000Y-87569740D01*
X135001000Y-85283740D02*
X135001000Y-85090000D01*
X137287000Y-87569740D02*
X135001000Y-85283740D01*
X137287000Y-88646000D02*
X137287000Y-88519000D01*
X154574926Y-72847186D02*
X158750000Y-77022260D01*
X138648634Y-72847186D02*
X154574926Y-72847186D01*
X135001000Y-76494820D02*
X138648634Y-72847186D01*
X135001000Y-82931000D02*
X135001000Y-76494820D01*
X135001000Y-85090000D02*
X135001000Y-82931000D01*
X158750000Y-77022260D02*
X158750000Y-77216000D01*
X135973000Y-91865000D02*
X137287000Y-90551000D01*
X137287000Y-90551000D02*
X137287000Y-89789000D01*
X137287000Y-89789000D02*
X137287000Y-88646000D01*
X158750000Y-77022260D02*
X158750000Y-77216000D01*
X135973000Y-92836000D02*
X135973000Y-91865000D01*
D40*
X148844000Y-114046000D02*
X153924000Y-114046000D01*
X141222000Y-115189000D02*
X147701000Y-115189000D01*
X147701000Y-115189000D02*
X148844000Y-114046000D01*
X148844000Y-116586000D02*
X153924000Y-116586000D01*
X141222000Y-116459000D02*
X148717000Y-116459000D01*
X148717000Y-116459000D02*
X148844000Y-116586000D01*
D38*
X141224000Y-105918000D02*
X141224000Y-100898260D01*
X141033500Y-106108500D02*
X141224000Y-105918000D01*
X156641794Y-95072206D02*
X161544000Y-90170000D01*
X144669454Y-95072206D02*
X156641794Y-95072206D01*
X140762330Y-98979330D02*
X144669454Y-95072206D01*
X140762330Y-100436590D02*
X140762330Y-98979330D01*
X141224000Y-100898260D02*
X140762330Y-100436590D01*
X161544000Y-90170000D02*
X161544000Y-89916000D01*
X133473000Y-102236000D02*
X133473000Y-106549000D01*
X138684000Y-108458000D02*
X141033500Y-106108500D01*
X141033500Y-106108500D02*
X141071598Y-106070402D01*
X135382000Y-108458000D02*
X138684000Y-108458000D01*
X133473000Y-106549000D02*
X135382000Y-108458000D01*
X141168732Y-99441000D02*
X141168732Y-99147668D01*
X141168732Y-100268252D02*
X141168732Y-99441000D01*
X141630402Y-106086338D02*
X141630402Y-100729922D01*
X141447870Y-106268870D02*
X141630402Y-106086338D01*
X141630402Y-100729922D02*
X141481240Y-100580760D01*
X141481240Y-100580760D02*
X141168732Y-100268252D01*
X160721740Y-91567000D02*
X162433000Y-91567000D01*
X156810132Y-95478608D02*
X160721740Y-91567000D01*
X144837792Y-95478608D02*
X156810132Y-95478608D01*
X141168732Y-99147668D02*
X144837792Y-95478608D01*
X162433000Y-91567000D02*
X162814000Y-91186000D01*
X162814000Y-83566000D02*
X164084000Y-82296000D01*
X162814000Y-91186000D02*
X162814000Y-83566000D01*
X132973000Y-102236000D02*
X132973000Y-104046402D01*
X138852338Y-108864402D02*
X141447870Y-106268870D01*
X141447870Y-106268870D02*
X141478000Y-106238740D01*
X135213662Y-108864402D02*
X138852338Y-108864402D01*
X133066598Y-106717338D02*
X135213662Y-108864402D01*
X133066598Y-104140000D02*
X133066598Y-106717338D01*
X132973000Y-104046402D02*
X133066598Y-104140000D01*
X132207000Y-126238000D02*
X139065000Y-133096000D01*
X126365000Y-112776000D02*
X126365000Y-120396000D01*
X126365000Y-120396000D02*
X132207000Y-126238000D01*
X126334260Y-99786000D02*
X128523000Y-99786000D01*
X126365000Y-104714740D02*
X126365000Y-105283000D01*
X125069598Y-103419338D02*
X126365000Y-104714740D01*
X125069598Y-101050662D02*
X125069598Y-103419338D01*
X126334260Y-99786000D02*
X125069598Y-101050662D01*
X160909000Y-127000000D02*
X160909000Y-123063000D01*
X154813000Y-133096000D02*
X160909000Y-127000000D01*
X139065000Y-133096000D02*
X154813000Y-133096000D01*
X125476000Y-103251000D02*
X126238000Y-104013000D01*
X128523000Y-100286000D02*
X126409000Y-100286000D01*
X125476000Y-101219000D02*
X125476000Y-103251000D01*
X126409000Y-100286000D02*
X125476000Y-101219000D01*
X129032000Y-104775000D02*
X130429000Y-106172000D01*
X127000000Y-104775000D02*
X129032000Y-104775000D01*
X126238000Y-104013000D02*
X127000000Y-104775000D01*
X131473000Y-102236000D02*
X131473000Y-105184000D01*
X131826000Y-109855000D02*
X130429000Y-111252000D01*
X131826000Y-105537000D02*
X131826000Y-109855000D01*
X131473000Y-105184000D02*
X131826000Y-105537000D01*
X136080500Y-85788500D02*
X135407402Y-85115402D01*
X135407402Y-76663158D02*
X136161434Y-75909126D01*
X135407402Y-85115402D02*
X135407402Y-76663158D01*
X137923000Y-94786000D02*
X139783000Y-94786000D01*
X141097000Y-90805000D02*
X137693402Y-87401402D01*
X141097000Y-93472000D02*
X141097000Y-90805000D01*
X139783000Y-94786000D02*
X141097000Y-93472000D01*
X137693402Y-87401402D02*
X136080500Y-85788500D01*
X136080500Y-85788500D02*
X136042402Y-85750402D01*
X157480000Y-78486000D02*
X158750000Y-79756000D01*
X136161434Y-75909126D02*
X138816972Y-73253588D01*
X138816972Y-73253588D02*
X154406588Y-73253588D01*
X154406588Y-73253588D02*
X157480000Y-76327000D01*
X157480000Y-76327000D02*
X157480000Y-78486000D01*
X169846000Y-104267000D02*
X169973000Y-106172000D01*
X169973000Y-106172000D02*
X170227000Y-106426000D01*
X170227000Y-108966000D02*
X172720000Y-108966000D01*
X172720000Y-108966000D02*
X172847000Y-109093000D01*
X158369000Y-101346000D02*
X158369000Y-103184260D01*
X135473000Y-105501000D02*
X136525000Y-106553000D01*
X136525000Y-106553000D02*
X138430000Y-106553000D01*
X135473000Y-102236000D02*
X135473000Y-105501000D01*
X158369000Y-101346000D02*
X158369000Y-95885000D01*
X158369000Y-95885000D02*
X159131000Y-95123000D01*
X142113000Y-105791000D02*
X142113000Y-106553000D01*
X143179804Y-104724196D02*
X142113000Y-105791000D01*
X156829064Y-104724196D02*
X143179804Y-104724196D01*
X158369000Y-103184260D02*
X156829064Y-104724196D01*
X159131000Y-95123000D02*
X160227000Y-95123000D01*
X144018000Y-105664000D02*
X144145000Y-105537000D01*
X141478000Y-107188000D02*
X142367000Y-107188000D01*
X142367000Y-107188000D02*
X142494000Y-107188000D01*
X142494000Y-107188000D02*
X144018000Y-105664000D01*
X159338000Y-105537000D02*
X160227000Y-106426000D01*
X144145000Y-105537000D02*
X159338000Y-105537000D01*
X134973000Y-102236000D02*
X134973000Y-105575740D01*
X136585260Y-107188000D02*
X139065000Y-107188000D01*
X134973000Y-105575740D02*
X136585260Y-107188000D01*
X170227000Y-95123000D02*
X172847000Y-95123000D01*
X172546000Y-104267000D02*
X172546000Y-106252000D01*
X172546000Y-106252000D02*
X172847000Y-106553000D01*
X172847000Y-97663000D02*
X170227000Y-97663000D01*
X160227000Y-97663000D02*
X159639000Y-98251000D01*
X159639000Y-98251000D02*
X159639000Y-99742000D01*
X164338000Y-119729000D02*
X177038000Y-132429000D01*
X177038000Y-132429000D02*
X177038000Y-132969000D01*
X124256794Y-91186000D02*
X124256794Y-90627206D01*
X125856990Y-80899010D02*
X125984000Y-80772000D01*
X125856990Y-89027010D02*
X125856990Y-80899010D01*
X124256794Y-90627206D02*
X125856990Y-89027010D01*
X128523000Y-97286000D02*
X126422780Y-97286000D01*
X125984000Y-80772000D02*
X128651000Y-78105000D01*
X124256794Y-95120014D02*
X124256794Y-91186000D01*
X126422780Y-97286000D02*
X124256794Y-95120014D01*
X127080260Y-96286000D02*
X126572260Y-96286000D01*
X125069598Y-94275338D02*
X125069598Y-91652662D01*
X125069598Y-91652662D02*
X126263392Y-90458868D01*
X126263392Y-90458868D02*
X126263392Y-81381608D01*
X126263392Y-81381608D02*
X128651000Y-78994000D01*
X127080260Y-96286000D02*
X128523000Y-96286000D01*
X125069598Y-94783338D02*
X125069598Y-94275338D01*
X126572260Y-96286000D02*
X125069598Y-94783338D01*
X128523000Y-98786000D02*
X126184780Y-98786000D01*
X124256794Y-104638534D02*
X127889000Y-108270740D01*
X124256794Y-100713986D02*
X124256794Y-104638534D01*
X126184780Y-98786000D02*
X124256794Y-100713986D01*
X127889000Y-108270740D02*
X127889000Y-108712000D01*
X128523000Y-98286000D02*
X126110040Y-98286000D01*
X126365000Y-109728000D02*
X127889000Y-111252000D01*
X126365000Y-107321480D02*
X126365000Y-109728000D01*
X123850392Y-104806872D02*
X126365000Y-107321480D01*
X123850392Y-100545648D02*
X123850392Y-104806872D01*
X126110040Y-98286000D02*
X123850392Y-100545648D01*
X128523000Y-99286000D02*
X126259520Y-99286000D01*
X126365000Y-106172000D02*
X127889000Y-106172000D01*
X124663196Y-104470196D02*
X126365000Y-106172000D01*
X124663196Y-100882324D02*
X124663196Y-104470196D01*
X126259520Y-99286000D02*
X124663196Y-100882324D01*
X127822260Y-106172000D02*
X127889000Y-106172000D01*
X140471720Y-86731280D02*
X137845814Y-84105374D01*
X137845814Y-77673186D02*
X139573000Y-75946000D01*
X137845814Y-84105374D02*
X137845814Y-77673186D01*
X149860000Y-78232000D02*
X149860000Y-78486000D01*
X139573000Y-75946000D02*
X139827000Y-75692000D01*
X139827000Y-75692000D02*
X149225000Y-75692000D01*
X149225000Y-75692000D02*
X149860000Y-76327000D01*
X149860000Y-76327000D02*
X149860000Y-78232000D01*
X149860000Y-78486000D02*
X151130000Y-79756000D01*
X137923000Y-97786000D02*
X140231440Y-97786000D01*
X143535412Y-89794972D02*
X140471720Y-86731280D01*
X140471720Y-86731280D02*
X140462000Y-86721560D01*
X143535412Y-94482028D02*
X143535412Y-89794972D01*
X140231440Y-97786000D02*
X143535412Y-94482028D01*
X140843000Y-107823000D02*
X142433740Y-107823000D01*
X134473000Y-102236000D02*
X134473000Y-105650480D01*
X136645520Y-107823000D02*
X138430000Y-107823000D01*
X134473000Y-105650480D02*
X136645520Y-107823000D01*
X143256500Y-107000240D02*
X147500640Y-107000240D01*
X142433740Y-107823000D02*
X143256500Y-107000240D01*
X140817598Y-104673402D02*
X140817598Y-101066598D01*
X140817598Y-101066598D02*
X139827000Y-100076000D01*
X135973000Y-105426260D02*
X136464740Y-105918000D01*
X135973000Y-105426260D02*
X135973000Y-102236000D01*
X136464740Y-105918000D02*
X139573000Y-105918000D01*
X139573000Y-105918000D02*
X140589000Y-104902000D01*
X140589000Y-104902000D02*
X140817598Y-104673402D01*
X154051000Y-83868000D02*
X154051000Y-82296000D01*
X160401000Y-81026000D02*
X161671000Y-79756000D01*
X155321000Y-81026000D02*
X160401000Y-81026000D01*
X154051000Y-82296000D02*
X155321000Y-81026000D01*
X136259000Y-98286000D02*
X136017000Y-98044000D01*
X137923000Y-98286000D02*
X136259000Y-98286000D01*
D41*
G36*
X151749424Y-105994313D02*
X151516815Y-106338925D01*
X151433790Y-106746320D01*
X151433790Y-106995240D01*
X152494360Y-106995240D01*
X152494360Y-106975240D01*
X152504360Y-106975240D01*
X152504360Y-106995240D01*
X153564930Y-106995240D01*
X153564930Y-106746320D01*
X153481905Y-106338925D01*
X153249296Y-105994313D01*
X153187741Y-105953600D01*
X158655829Y-105953600D01*
X158655829Y-107326000D01*
X158677794Y-107442732D01*
X158746782Y-107549943D01*
X158852046Y-107621867D01*
X158977000Y-107647171D01*
X161477000Y-107647171D01*
X161593732Y-107625206D01*
X161693562Y-107560967D01*
X161693540Y-107837063D01*
X161655433Y-107798956D01*
X161539658Y-107751000D01*
X160310750Y-107751000D01*
X160232000Y-107829750D01*
X160232000Y-108961000D01*
X160252000Y-108961000D01*
X160252000Y-108971000D01*
X160232000Y-108971000D01*
X160232000Y-110102250D01*
X160310750Y-110181000D01*
X161539658Y-110181000D01*
X161655433Y-110133044D01*
X161693355Y-110095122D01*
X161693000Y-114426991D01*
X161701269Y-114467843D01*
X161724780Y-114502259D01*
X161759829Y-114524816D01*
X161798000Y-114532000D01*
X163239523Y-114532000D01*
X163220956Y-114550567D01*
X163173000Y-114666343D01*
X163173000Y-115645250D01*
X163251750Y-115724000D01*
X164333000Y-115724000D01*
X164333000Y-115704000D01*
X164343000Y-115704000D01*
X164343000Y-115724000D01*
X164363000Y-115724000D01*
X164363000Y-115734000D01*
X164343000Y-115734000D01*
X164343000Y-116965250D01*
X164421750Y-117044000D01*
X165250658Y-117044000D01*
X165366433Y-116996044D01*
X165376000Y-116986477D01*
X165376000Y-118476211D01*
X165312954Y-118433133D01*
X165188000Y-118407829D01*
X163488000Y-118407829D01*
X163371268Y-118429794D01*
X163264057Y-118498782D01*
X163192133Y-118604046D01*
X163166829Y-118729000D01*
X163166829Y-120729000D01*
X163188794Y-120845732D01*
X163257782Y-120952943D01*
X163363046Y-121024867D01*
X163488000Y-121050171D01*
X165070009Y-121050171D01*
X165376000Y-121356162D01*
X165376000Y-125371075D01*
X161325600Y-125373978D01*
X161325600Y-123522893D01*
X161434135Y-123414547D01*
X161528693Y-123186827D01*
X161528908Y-122940255D01*
X161434748Y-122712370D01*
X161260547Y-122537865D01*
X161032827Y-122443307D01*
X160786255Y-122443092D01*
X160558370Y-122537252D01*
X160383865Y-122711453D01*
X160289307Y-122939173D01*
X160289092Y-123185745D01*
X160383252Y-123413630D01*
X160492400Y-123522968D01*
X160492400Y-125374576D01*
X132043461Y-125394969D01*
X131606204Y-124957712D01*
X148099359Y-124957712D01*
X148179831Y-125128656D01*
X148583473Y-125312590D01*
X149026779Y-125328055D01*
X149442257Y-125172698D01*
X149508169Y-125128656D01*
X149588641Y-124957712D01*
X153179359Y-124957712D01*
X153259831Y-125128656D01*
X153663473Y-125312590D01*
X154106779Y-125328055D01*
X154522257Y-125172698D01*
X154588169Y-125128656D01*
X154668641Y-124957712D01*
X153924000Y-124213071D01*
X153179359Y-124957712D01*
X149588641Y-124957712D01*
X148844000Y-124213071D01*
X148099359Y-124957712D01*
X131606204Y-124957712D01*
X131037271Y-124388779D01*
X147721945Y-124388779D01*
X147877302Y-124804257D01*
X147921344Y-124870169D01*
X148092288Y-124950641D01*
X148836929Y-124206000D01*
X148851071Y-124206000D01*
X149595712Y-124950641D01*
X149766656Y-124870169D01*
X149950590Y-124466527D01*
X149953302Y-124388779D01*
X152801945Y-124388779D01*
X152957302Y-124804257D01*
X153001344Y-124870169D01*
X153172288Y-124950641D01*
X153916929Y-124206000D01*
X153931071Y-124206000D01*
X154675712Y-124950641D01*
X154846656Y-124870169D01*
X155030590Y-124466527D01*
X155046055Y-124023221D01*
X154890698Y-123607743D01*
X154846656Y-123541831D01*
X154675712Y-123461359D01*
X153931071Y-124206000D01*
X153916929Y-124206000D01*
X153172288Y-123461359D01*
X153001344Y-123541831D01*
X152817410Y-123945473D01*
X152801945Y-124388779D01*
X149953302Y-124388779D01*
X149966055Y-124023221D01*
X149810698Y-123607743D01*
X149766656Y-123541831D01*
X149595712Y-123461359D01*
X148851071Y-124206000D01*
X148836929Y-124206000D01*
X148092288Y-123461359D01*
X147921344Y-123541831D01*
X147737410Y-123945473D01*
X147721945Y-124388779D01*
X131037271Y-124388779D01*
X130102780Y-123454288D01*
X148099359Y-123454288D01*
X148844000Y-124198929D01*
X149588641Y-123454288D01*
X153179359Y-123454288D01*
X153924000Y-124198929D01*
X154668641Y-123454288D01*
X154588169Y-123283344D01*
X154184527Y-123099410D01*
X153741221Y-123083945D01*
X153325743Y-123239302D01*
X153259831Y-123283344D01*
X153179359Y-123454288D01*
X149588641Y-123454288D01*
X149508169Y-123283344D01*
X149104527Y-123099410D01*
X148661221Y-123083945D01*
X148245743Y-123239302D01*
X148179831Y-123283344D01*
X148099359Y-123454288D01*
X130102780Y-123454288D01*
X128553130Y-121904638D01*
X147638792Y-121904638D01*
X147821855Y-122347686D01*
X148160531Y-122686953D01*
X148603259Y-122870790D01*
X149082638Y-122871208D01*
X149525686Y-122688145D01*
X149864953Y-122349469D01*
X150048790Y-121906741D01*
X150048791Y-121904638D01*
X152718792Y-121904638D01*
X152901855Y-122347686D01*
X153240531Y-122686953D01*
X153683259Y-122870790D01*
X154162638Y-122871208D01*
X154605686Y-122688145D01*
X154944953Y-122349469D01*
X155128790Y-121906741D01*
X155129208Y-121427362D01*
X154946145Y-120984314D01*
X154607469Y-120645047D01*
X154164741Y-120461210D01*
X153685362Y-120460792D01*
X153242314Y-120643855D01*
X152903047Y-120982531D01*
X152719210Y-121425259D01*
X152718792Y-121904638D01*
X150048791Y-121904638D01*
X150049208Y-121427362D01*
X149866145Y-120984314D01*
X149527469Y-120645047D01*
X149084741Y-120461210D01*
X148605362Y-120460792D01*
X148162314Y-120643855D01*
X147823047Y-120982531D01*
X147639210Y-121425259D01*
X147638792Y-121904638D01*
X128553130Y-121904638D01*
X126874242Y-120225750D01*
X137539000Y-120225750D01*
X137539000Y-120854658D01*
X137586956Y-120970433D01*
X137675567Y-121059044D01*
X137791343Y-121107000D01*
X138520250Y-121107000D01*
X138599000Y-121028250D01*
X138599000Y-120147000D01*
X138609000Y-120147000D01*
X138609000Y-121028250D01*
X138687750Y-121107000D01*
X139416657Y-121107000D01*
X139532433Y-121059044D01*
X139621044Y-120970433D01*
X139669000Y-120854658D01*
X139669000Y-120225750D01*
X139590250Y-120147000D01*
X138609000Y-120147000D01*
X138599000Y-120147000D01*
X137617750Y-120147000D01*
X137539000Y-120225750D01*
X126874242Y-120225750D01*
X126781600Y-120133108D01*
X126781600Y-119429342D01*
X137539000Y-119429342D01*
X137539000Y-120058250D01*
X137617750Y-120137000D01*
X138599000Y-120137000D01*
X138599000Y-119255750D01*
X138609000Y-119255750D01*
X138609000Y-120137000D01*
X139590250Y-120137000D01*
X139669000Y-120058250D01*
X139669000Y-119429342D01*
X139621044Y-119313567D01*
X139532433Y-119224956D01*
X139416657Y-119177000D01*
X138687750Y-119177000D01*
X138609000Y-119255750D01*
X138599000Y-119255750D01*
X138520250Y-119177000D01*
X137791343Y-119177000D01*
X137675567Y-119224956D01*
X137586956Y-119313567D01*
X137539000Y-119429342D01*
X126781600Y-119429342D01*
X126781600Y-113235893D01*
X126890135Y-113127547D01*
X126984693Y-112899827D01*
X126984791Y-112787430D01*
X128087259Y-112787430D01*
X128087259Y-114288570D01*
X128109224Y-114405302D01*
X128178212Y-114512513D01*
X128283476Y-114584437D01*
X128408430Y-114609741D01*
X129909570Y-114609741D01*
X130026302Y-114587776D01*
X130133513Y-114518788D01*
X130205437Y-114413524D01*
X130230741Y-114288570D01*
X130230741Y-112787430D01*
X130208776Y-112670698D01*
X130139788Y-112563487D01*
X130034524Y-112491563D01*
X129909570Y-112466259D01*
X128408430Y-112466259D01*
X128291698Y-112488224D01*
X128184487Y-112557212D01*
X128112563Y-112662476D01*
X128087259Y-112787430D01*
X126984791Y-112787430D01*
X126984908Y-112653255D01*
X126895459Y-112436771D01*
X128905000Y-112436771D01*
X129021732Y-112414806D01*
X129128943Y-112345818D01*
X129158749Y-112302195D01*
X129182782Y-112339543D01*
X129288046Y-112411467D01*
X129413000Y-112436771D01*
X131445000Y-112436771D01*
X131561732Y-112414806D01*
X131663549Y-112349289D01*
X130769419Y-113243419D01*
X130679112Y-113378574D01*
X130647400Y-113538000D01*
X130647400Y-117983000D01*
X130679112Y-118142426D01*
X130769419Y-118277581D01*
X131023419Y-118531581D01*
X131158574Y-118621888D01*
X131318000Y-118653600D01*
X132969000Y-118653600D01*
X133128426Y-118621888D01*
X133263581Y-118531581D01*
X133444991Y-118350171D01*
X136022000Y-118350171D01*
X136138732Y-118328206D01*
X136245943Y-118259218D01*
X136317867Y-118153954D01*
X136343171Y-118029000D01*
X136343171Y-117429000D01*
X139500829Y-117429000D01*
X139500829Y-118029000D01*
X139522794Y-118145732D01*
X139591782Y-118252943D01*
X139697046Y-118324867D01*
X139822000Y-118350171D01*
X140703800Y-118350171D01*
X140703800Y-119170829D01*
X140554000Y-119170829D01*
X140437268Y-119192794D01*
X140330057Y-119261782D01*
X140258133Y-119367046D01*
X140232829Y-119492000D01*
X140232829Y-120792000D01*
X140254794Y-120908732D01*
X140323782Y-121015943D01*
X140429046Y-121087867D01*
X140554000Y-121113171D01*
X142054000Y-121113171D01*
X142170732Y-121091206D01*
X142277943Y-121022218D01*
X142349867Y-120916954D01*
X142375171Y-120792000D01*
X142375171Y-119492000D01*
X142353206Y-119375268D01*
X142284218Y-119268057D01*
X142178954Y-119196133D01*
X142054000Y-119170829D01*
X141740200Y-119170829D01*
X141740200Y-118350171D01*
X142622000Y-118350171D01*
X142738732Y-118328206D01*
X142845943Y-118259218D01*
X142917867Y-118153954D01*
X142943171Y-118029000D01*
X142943171Y-117429000D01*
X142921206Y-117312268D01*
X142852218Y-117205057D01*
X142746954Y-117133133D01*
X142622000Y-117107829D01*
X139822000Y-117107829D01*
X139705268Y-117129794D01*
X139598057Y-117198782D01*
X139526133Y-117304046D01*
X139500829Y-117429000D01*
X136343171Y-117429000D01*
X136321206Y-117312268D01*
X136252218Y-117205057D01*
X136146954Y-117133133D01*
X136022000Y-117107829D01*
X133222000Y-117107829D01*
X133105268Y-117129794D01*
X133020000Y-117184662D01*
X133020000Y-117157750D01*
X132941250Y-117079000D01*
X132085000Y-117079000D01*
X132085000Y-117099000D01*
X132075000Y-117099000D01*
X132075000Y-117079000D01*
X132055000Y-117079000D01*
X132055000Y-117069000D01*
X132075000Y-117069000D01*
X132075000Y-116087750D01*
X132085000Y-116087750D01*
X132085000Y-117069000D01*
X132941250Y-117069000D01*
X133013887Y-116996364D01*
X133043567Y-117026044D01*
X133159343Y-117074000D01*
X134538250Y-117074000D01*
X134617000Y-116995250D01*
X134617000Y-116464000D01*
X134627000Y-116464000D01*
X134627000Y-116995250D01*
X134705750Y-117074000D01*
X136084657Y-117074000D01*
X136200433Y-117026044D01*
X136289044Y-116937433D01*
X136337000Y-116821658D01*
X136337000Y-116542750D01*
X136258250Y-116464000D01*
X134627000Y-116464000D01*
X134617000Y-116464000D01*
X134597000Y-116464000D01*
X134597000Y-116454000D01*
X134617000Y-116454000D01*
X134617000Y-115922750D01*
X134627000Y-115922750D01*
X134627000Y-116454000D01*
X136258250Y-116454000D01*
X136337000Y-116375250D01*
X136337000Y-116159000D01*
X139500829Y-116159000D01*
X139500829Y-116759000D01*
X139522794Y-116875732D01*
X139591782Y-116982943D01*
X139697046Y-117054867D01*
X139822000Y-117080171D01*
X142622000Y-117080171D01*
X142738732Y-117058206D01*
X142845943Y-116989218D01*
X142854155Y-116977200D01*
X147799209Y-116977200D01*
X147898198Y-117216772D01*
X148211579Y-117530700D01*
X148621240Y-117700806D01*
X149064814Y-117701193D01*
X149474772Y-117531802D01*
X149788700Y-117218421D01*
X149836129Y-117104200D01*
X152931684Y-117104200D01*
X152978198Y-117216772D01*
X153291579Y-117530700D01*
X153701240Y-117700806D01*
X154144814Y-117701193D01*
X154554772Y-117531802D01*
X154868700Y-117218421D01*
X155038806Y-116808760D01*
X155039193Y-116365186D01*
X154869802Y-115955228D01*
X154727573Y-115812750D01*
X163173000Y-115812750D01*
X163173000Y-116791657D01*
X163220956Y-116907433D01*
X163309567Y-116996044D01*
X163425342Y-117044000D01*
X164254250Y-117044000D01*
X164333000Y-116965250D01*
X164333000Y-115734000D01*
X163251750Y-115734000D01*
X163173000Y-115812750D01*
X154727573Y-115812750D01*
X154556421Y-115641300D01*
X154146760Y-115471194D01*
X153703186Y-115470807D01*
X153293228Y-115640198D01*
X152979300Y-115953579D01*
X152931871Y-116067800D01*
X149836316Y-116067800D01*
X149789802Y-115955228D01*
X149476421Y-115641300D01*
X149066760Y-115471194D01*
X148623186Y-115470807D01*
X148213228Y-115640198D01*
X147912101Y-115940800D01*
X142855913Y-115940800D01*
X142852218Y-115935057D01*
X142746954Y-115863133D01*
X142622000Y-115837829D01*
X139822000Y-115837829D01*
X139705268Y-115859794D01*
X139598057Y-115928782D01*
X139526133Y-116034046D01*
X139500829Y-116159000D01*
X136337000Y-116159000D01*
X136337000Y-116096342D01*
X136289044Y-115980567D01*
X136200433Y-115891956D01*
X136084657Y-115844000D01*
X134705750Y-115844000D01*
X134627000Y-115922750D01*
X134617000Y-115922750D01*
X134538250Y-115844000D01*
X133159343Y-115844000D01*
X133043567Y-115891956D01*
X132954956Y-115980567D01*
X132911633Y-116085156D01*
X132883433Y-116056956D01*
X132767658Y-116009000D01*
X132163750Y-116009000D01*
X132085000Y-116087750D01*
X132075000Y-116087750D01*
X131996250Y-116009000D01*
X131480600Y-116009000D01*
X131480600Y-115645171D01*
X132462895Y-115645171D01*
X132496693Y-115667754D01*
X132695000Y-115707200D01*
X132988087Y-115707200D01*
X132991782Y-115712943D01*
X133097046Y-115784867D01*
X133222000Y-115810171D01*
X136022000Y-115810171D01*
X136138732Y-115788206D01*
X136245943Y-115719218D01*
X136254155Y-115707200D01*
X136779000Y-115707200D01*
X136977307Y-115667754D01*
X137145423Y-115555423D01*
X137145424Y-115555422D01*
X137780420Y-114920425D01*
X137780423Y-114920423D01*
X137801419Y-114889000D01*
X139500829Y-114889000D01*
X139500829Y-115489000D01*
X139522794Y-115605732D01*
X139591782Y-115712943D01*
X139697046Y-115784867D01*
X139822000Y-115810171D01*
X142622000Y-115810171D01*
X142738732Y-115788206D01*
X142845943Y-115719218D01*
X142854155Y-115707200D01*
X147701000Y-115707200D01*
X147899307Y-115667754D01*
X148067423Y-115555423D01*
X148508750Y-115114096D01*
X148621240Y-115160806D01*
X149064814Y-115161193D01*
X149474772Y-114991802D01*
X149788700Y-114678421D01*
X149836129Y-114564200D01*
X152931684Y-114564200D01*
X152978198Y-114676772D01*
X153291579Y-114990700D01*
X153701240Y-115160806D01*
X154144814Y-115161193D01*
X154554772Y-114991802D01*
X154868700Y-114678421D01*
X155038806Y-114268760D01*
X155039193Y-113825186D01*
X154869802Y-113415228D01*
X154556421Y-113101300D01*
X154146760Y-112931194D01*
X153703186Y-112930807D01*
X153293228Y-113100198D01*
X152979300Y-113413579D01*
X152931871Y-113527800D01*
X149836316Y-113527800D01*
X149789802Y-113415228D01*
X149476421Y-113101300D01*
X149066760Y-112931194D01*
X148623186Y-112930807D01*
X148213228Y-113100198D01*
X147899300Y-113413579D01*
X147729194Y-113823240D01*
X147728807Y-114266814D01*
X147776036Y-114381118D01*
X147486354Y-114670800D01*
X142855913Y-114670800D01*
X142852218Y-114665057D01*
X142746954Y-114593133D01*
X142622000Y-114567829D01*
X139822000Y-114567829D01*
X139705268Y-114589794D01*
X139598057Y-114658782D01*
X139526133Y-114764046D01*
X139500829Y-114889000D01*
X137801419Y-114889000D01*
X137879417Y-114772268D01*
X137892755Y-114752306D01*
X137932201Y-114554000D01*
X137932200Y-114553995D01*
X137932200Y-113642470D01*
X137939135Y-113635547D01*
X137946005Y-113619000D01*
X139500829Y-113619000D01*
X139500829Y-114219000D01*
X139522794Y-114335732D01*
X139591782Y-114442943D01*
X139697046Y-114514867D01*
X139822000Y-114540171D01*
X142622000Y-114540171D01*
X142738732Y-114518206D01*
X142845943Y-114449218D01*
X142917867Y-114343954D01*
X142943171Y-114219000D01*
X142943171Y-113619000D01*
X142921206Y-113502268D01*
X142852218Y-113395057D01*
X142746954Y-113323133D01*
X142622000Y-113297829D01*
X139822000Y-113297829D01*
X139705268Y-113319794D01*
X139598057Y-113388782D01*
X139526133Y-113494046D01*
X139500829Y-113619000D01*
X137946005Y-113619000D01*
X138033693Y-113407827D01*
X138033908Y-113161255D01*
X137939748Y-112933370D01*
X137765547Y-112758865D01*
X137537827Y-112664307D01*
X137291255Y-112664092D01*
X137063370Y-112758252D01*
X136888865Y-112932453D01*
X136794307Y-113160173D01*
X136794092Y-113406745D01*
X136888252Y-113634630D01*
X136895800Y-113642191D01*
X136895800Y-114339355D01*
X136564354Y-114670800D01*
X136255913Y-114670800D01*
X136252218Y-114665057D01*
X136146954Y-114593133D01*
X136022000Y-114567829D01*
X133222000Y-114567829D01*
X133105268Y-114589794D01*
X133026171Y-114640691D01*
X133026171Y-114466440D01*
X133097046Y-114514867D01*
X133222000Y-114540171D01*
X136022000Y-114540171D01*
X136138732Y-114518206D01*
X136245943Y-114449218D01*
X136317867Y-114343954D01*
X136343171Y-114219000D01*
X136343171Y-113619000D01*
X136321206Y-113502268D01*
X136252218Y-113395057D01*
X136146954Y-113323133D01*
X136089857Y-113311571D01*
X136113630Y-113301748D01*
X136288135Y-113127547D01*
X136382693Y-112899827D01*
X136382908Y-112653255D01*
X136288748Y-112425370D01*
X136114547Y-112250865D01*
X135886827Y-112156307D01*
X135640255Y-112156092D01*
X135412370Y-112250252D01*
X135237865Y-112424453D01*
X135143307Y-112652173D01*
X135143092Y-112898745D01*
X135237252Y-113126630D01*
X135408153Y-113297829D01*
X134847556Y-113297829D01*
X135018135Y-113127547D01*
X135112693Y-112899827D01*
X135112908Y-112653255D01*
X135018748Y-112425370D01*
X134844547Y-112250865D01*
X134616827Y-112156307D01*
X134370255Y-112156092D01*
X134142370Y-112250252D01*
X133967865Y-112424453D01*
X133873307Y-112652173D01*
X133873092Y-112898745D01*
X133967252Y-113126630D01*
X134138153Y-113297829D01*
X133444991Y-113297829D01*
X133055404Y-112908242D01*
X133055404Y-110055964D01*
X133125453Y-110126135D01*
X133353173Y-110220693D01*
X133599745Y-110220908D01*
X133827630Y-110126748D01*
X134002135Y-109952547D01*
X134096693Y-109724827D01*
X134096908Y-109478255D01*
X134002748Y-109250370D01*
X133845531Y-109092878D01*
X134002135Y-108936547D01*
X134096693Y-108708827D01*
X134096908Y-108462255D01*
X134008578Y-108248480D01*
X134919081Y-109158983D01*
X135054236Y-109249290D01*
X135213662Y-109281002D01*
X138852338Y-109281002D01*
X139011764Y-109249290D01*
X139146919Y-109158983D01*
X140263167Y-108042734D01*
X140317252Y-108173630D01*
X140491453Y-108348135D01*
X140719173Y-108442693D01*
X140965745Y-108442908D01*
X141193630Y-108348748D01*
X141302968Y-108239600D01*
X142433740Y-108239600D01*
X142452229Y-108235922D01*
X142452229Y-110109000D01*
X142474194Y-110225732D01*
X142543182Y-110332943D01*
X142648446Y-110404867D01*
X142773400Y-110430171D01*
X144500600Y-110430171D01*
X144617332Y-110408206D01*
X144724543Y-110339218D01*
X144796467Y-110233954D01*
X144821771Y-110109000D01*
X144821771Y-108077000D01*
X144799806Y-107960268D01*
X144730818Y-107853057D01*
X144625554Y-107781133D01*
X144500600Y-107755829D01*
X143090073Y-107755829D01*
X143429061Y-107416840D01*
X146463301Y-107416840D01*
X146516182Y-107682688D01*
X146609196Y-107821893D01*
X146177000Y-107735924D01*
X145725969Y-107825640D01*
X145343604Y-108081128D01*
X145088116Y-108463493D01*
X144998400Y-108914524D01*
X144998400Y-109271476D01*
X145088116Y-109722507D01*
X145343604Y-110104872D01*
X145725969Y-110360360D01*
X146177000Y-110450076D01*
X146628031Y-110360360D01*
X147010396Y-110104872D01*
X147265884Y-109722507D01*
X147355600Y-109271476D01*
X147355600Y-108914524D01*
X147265884Y-108463493D01*
X147135108Y-108267773D01*
X147500640Y-108340482D01*
X147742448Y-108292383D01*
X147628116Y-108463493D01*
X147538400Y-108914524D01*
X147538400Y-109271476D01*
X147628116Y-109722507D01*
X147883604Y-110104872D01*
X148265969Y-110360360D01*
X148717000Y-110450076D01*
X149168031Y-110360360D01*
X149550396Y-110104872D01*
X149805884Y-109722507D01*
X149895600Y-109271476D01*
X149895600Y-109098000D01*
X150078400Y-109098000D01*
X150078400Y-109250400D01*
X150170029Y-109701050D01*
X150427139Y-110082332D01*
X150810588Y-110336198D01*
X151067690Y-110408696D01*
X151252000Y-110345239D01*
X151252000Y-109098000D01*
X151262000Y-109098000D01*
X151262000Y-110345239D01*
X151446310Y-110408696D01*
X151703412Y-110336198D01*
X152086861Y-110082332D01*
X152343971Y-109701050D01*
X152435600Y-109250400D01*
X152435600Y-109098000D01*
X152618400Y-109098000D01*
X152618400Y-109250400D01*
X152710029Y-109701050D01*
X152967139Y-110082332D01*
X153350588Y-110336198D01*
X153607690Y-110408696D01*
X153792000Y-110345239D01*
X153792000Y-109098000D01*
X153802000Y-109098000D01*
X153802000Y-110345239D01*
X153986310Y-110408696D01*
X154243412Y-110336198D01*
X154626861Y-110082332D01*
X154883971Y-109701050D01*
X154975600Y-109250400D01*
X154975600Y-109098000D01*
X155158400Y-109098000D01*
X155158400Y-109250400D01*
X155250029Y-109701050D01*
X155507139Y-110082332D01*
X155890588Y-110336198D01*
X156147690Y-110408696D01*
X156332000Y-110345239D01*
X156332000Y-109098000D01*
X156342000Y-109098000D01*
X156342000Y-110345239D01*
X156526310Y-110408696D01*
X156783412Y-110336198D01*
X157166861Y-110082332D01*
X157423971Y-109701050D01*
X157515600Y-109250400D01*
X157515600Y-109098000D01*
X156342000Y-109098000D01*
X156332000Y-109098000D01*
X155158400Y-109098000D01*
X154975600Y-109098000D01*
X153802000Y-109098000D01*
X153792000Y-109098000D01*
X152618400Y-109098000D01*
X152435600Y-109098000D01*
X151262000Y-109098000D01*
X151252000Y-109098000D01*
X150078400Y-109098000D01*
X149895600Y-109098000D01*
X149895600Y-108935600D01*
X150078400Y-108935600D01*
X150078400Y-109088000D01*
X151252000Y-109088000D01*
X151252000Y-107840761D01*
X151262000Y-107840761D01*
X151262000Y-109088000D01*
X152435600Y-109088000D01*
X152435600Y-108935600D01*
X152343971Y-108484950D01*
X152194464Y-108263238D01*
X152327732Y-108300817D01*
X152494360Y-108235967D01*
X152494360Y-107005240D01*
X152504360Y-107005240D01*
X152504360Y-108235967D01*
X152670988Y-108300817D01*
X152872515Y-108243991D01*
X152710029Y-108484950D01*
X152618400Y-108935600D01*
X152618400Y-109088000D01*
X153792000Y-109088000D01*
X153792000Y-107840761D01*
X153802000Y-107840761D01*
X153802000Y-109088000D01*
X154975600Y-109088000D01*
X154975600Y-108935600D01*
X155158400Y-108935600D01*
X155158400Y-109088000D01*
X156332000Y-109088000D01*
X156332000Y-107840761D01*
X156342000Y-107840761D01*
X156342000Y-109088000D01*
X157515600Y-109088000D01*
X157515600Y-109049750D01*
X158662000Y-109049750D01*
X158662000Y-109928657D01*
X158709956Y-110044433D01*
X158798567Y-110133044D01*
X158914342Y-110181000D01*
X160143250Y-110181000D01*
X160222000Y-110102250D01*
X160222000Y-108971000D01*
X158740750Y-108971000D01*
X158662000Y-109049750D01*
X157515600Y-109049750D01*
X157515600Y-108935600D01*
X157423971Y-108484950D01*
X157166861Y-108103668D01*
X157015327Y-108003343D01*
X158662000Y-108003343D01*
X158662000Y-108882250D01*
X158740750Y-108961000D01*
X160222000Y-108961000D01*
X160222000Y-107829750D01*
X160143250Y-107751000D01*
X158914342Y-107751000D01*
X158798567Y-107798956D01*
X158709956Y-107887567D01*
X158662000Y-108003343D01*
X157015327Y-108003343D01*
X156783412Y-107849802D01*
X156526310Y-107777304D01*
X156342000Y-107840761D01*
X156332000Y-107840761D01*
X156147690Y-107777304D01*
X155890588Y-107849802D01*
X155507139Y-108103668D01*
X155250029Y-108484950D01*
X155158400Y-108935600D01*
X154975600Y-108935600D01*
X154883971Y-108484950D01*
X154626861Y-108103668D01*
X154243412Y-107849802D01*
X153986310Y-107777304D01*
X153802000Y-107840761D01*
X153792000Y-107840761D01*
X153607690Y-107777304D01*
X153355840Y-107848321D01*
X153481905Y-107661555D01*
X153564930Y-107254160D01*
X153564930Y-107005240D01*
X152504360Y-107005240D01*
X152494360Y-107005240D01*
X151433790Y-107005240D01*
X151433790Y-107254160D01*
X151516815Y-107661555D01*
X151629885Y-107829069D01*
X151446310Y-107777304D01*
X151262000Y-107840761D01*
X151252000Y-107840761D01*
X151067690Y-107777304D01*
X150810588Y-107849802D01*
X150427139Y-108103668D01*
X150170029Y-108484950D01*
X150078400Y-108935600D01*
X149895600Y-108935600D01*
X149895600Y-108914524D01*
X149805884Y-108463493D01*
X149550396Y-108081128D01*
X149168031Y-107825640D01*
X148717000Y-107735924D01*
X148408528Y-107797283D01*
X148485098Y-107682688D01*
X148566210Y-107274912D01*
X148566210Y-106725568D01*
X148485098Y-106317792D01*
X148254112Y-105972096D01*
X148226431Y-105953600D01*
X151810979Y-105953600D01*
X151749424Y-105994313D01*
X151749424Y-105994313D01*
G37*
X151749424Y-105994313D02*
X151516815Y-106338925D01*
X151433790Y-106746320D01*
X151433790Y-106995240D01*
X152494360Y-106995240D01*
X152494360Y-106975240D01*
X152504360Y-106975240D01*
X152504360Y-106995240D01*
X153564930Y-106995240D01*
X153564930Y-106746320D01*
X153481905Y-106338925D01*
X153249296Y-105994313D01*
X153187741Y-105953600D01*
X158655829Y-105953600D01*
X158655829Y-107326000D01*
X158677794Y-107442732D01*
X158746782Y-107549943D01*
X158852046Y-107621867D01*
X158977000Y-107647171D01*
X161477000Y-107647171D01*
X161593732Y-107625206D01*
X161693562Y-107560967D01*
X161693540Y-107837063D01*
X161655433Y-107798956D01*
X161539658Y-107751000D01*
X160310750Y-107751000D01*
X160232000Y-107829750D01*
X160232000Y-108961000D01*
X160252000Y-108961000D01*
X160252000Y-108971000D01*
X160232000Y-108971000D01*
X160232000Y-110102250D01*
X160310750Y-110181000D01*
X161539658Y-110181000D01*
X161655433Y-110133044D01*
X161693355Y-110095122D01*
X161693000Y-114426991D01*
X161701269Y-114467843D01*
X161724780Y-114502259D01*
X161759829Y-114524816D01*
X161798000Y-114532000D01*
X163239523Y-114532000D01*
X163220956Y-114550567D01*
X163173000Y-114666343D01*
X163173000Y-115645250D01*
X163251750Y-115724000D01*
X164333000Y-115724000D01*
X164333000Y-115704000D01*
X164343000Y-115704000D01*
X164343000Y-115724000D01*
X164363000Y-115724000D01*
X164363000Y-115734000D01*
X164343000Y-115734000D01*
X164343000Y-116965250D01*
X164421750Y-117044000D01*
X165250658Y-117044000D01*
X165366433Y-116996044D01*
X165376000Y-116986477D01*
X165376000Y-118476211D01*
X165312954Y-118433133D01*
X165188000Y-118407829D01*
X163488000Y-118407829D01*
X163371268Y-118429794D01*
X163264057Y-118498782D01*
X163192133Y-118604046D01*
X163166829Y-118729000D01*
X163166829Y-120729000D01*
X163188794Y-120845732D01*
X163257782Y-120952943D01*
X163363046Y-121024867D01*
X163488000Y-121050171D01*
X165070009Y-121050171D01*
X165376000Y-121356162D01*
X165376000Y-125371075D01*
X161325600Y-125373978D01*
X161325600Y-123522893D01*
X161434135Y-123414547D01*
X161528693Y-123186827D01*
X161528908Y-122940255D01*
X161434748Y-122712370D01*
X161260547Y-122537865D01*
X161032827Y-122443307D01*
X160786255Y-122443092D01*
X160558370Y-122537252D01*
X160383865Y-122711453D01*
X160289307Y-122939173D01*
X160289092Y-123185745D01*
X160383252Y-123413630D01*
X160492400Y-123522968D01*
X160492400Y-125374576D01*
X132043461Y-125394969D01*
X131606204Y-124957712D01*
X148099359Y-124957712D01*
X148179831Y-125128656D01*
X148583473Y-125312590D01*
X149026779Y-125328055D01*
X149442257Y-125172698D01*
X149508169Y-125128656D01*
X149588641Y-124957712D01*
X153179359Y-124957712D01*
X153259831Y-125128656D01*
X153663473Y-125312590D01*
X154106779Y-125328055D01*
X154522257Y-125172698D01*
X154588169Y-125128656D01*
X154668641Y-124957712D01*
X153924000Y-124213071D01*
X153179359Y-124957712D01*
X149588641Y-124957712D01*
X148844000Y-124213071D01*
X148099359Y-124957712D01*
X131606204Y-124957712D01*
X131037271Y-124388779D01*
X147721945Y-124388779D01*
X147877302Y-124804257D01*
X147921344Y-124870169D01*
X148092288Y-124950641D01*
X148836929Y-124206000D01*
X148851071Y-124206000D01*
X149595712Y-124950641D01*
X149766656Y-124870169D01*
X149950590Y-124466527D01*
X149953302Y-124388779D01*
X152801945Y-124388779D01*
X152957302Y-124804257D01*
X153001344Y-124870169D01*
X153172288Y-124950641D01*
X153916929Y-124206000D01*
X153931071Y-124206000D01*
X154675712Y-124950641D01*
X154846656Y-124870169D01*
X155030590Y-124466527D01*
X155046055Y-124023221D01*
X154890698Y-123607743D01*
X154846656Y-123541831D01*
X154675712Y-123461359D01*
X153931071Y-124206000D01*
X153916929Y-124206000D01*
X153172288Y-123461359D01*
X153001344Y-123541831D01*
X152817410Y-123945473D01*
X152801945Y-124388779D01*
X149953302Y-124388779D01*
X149966055Y-124023221D01*
X149810698Y-123607743D01*
X149766656Y-123541831D01*
X149595712Y-123461359D01*
X148851071Y-124206000D01*
X148836929Y-124206000D01*
X148092288Y-123461359D01*
X147921344Y-123541831D01*
X147737410Y-123945473D01*
X147721945Y-124388779D01*
X131037271Y-124388779D01*
X130102780Y-123454288D01*
X148099359Y-123454288D01*
X148844000Y-124198929D01*
X149588641Y-123454288D01*
X153179359Y-123454288D01*
X153924000Y-124198929D01*
X154668641Y-123454288D01*
X154588169Y-123283344D01*
X154184527Y-123099410D01*
X153741221Y-123083945D01*
X153325743Y-123239302D01*
X153259831Y-123283344D01*
X153179359Y-123454288D01*
X149588641Y-123454288D01*
X149508169Y-123283344D01*
X149104527Y-123099410D01*
X148661221Y-123083945D01*
X148245743Y-123239302D01*
X148179831Y-123283344D01*
X148099359Y-123454288D01*
X130102780Y-123454288D01*
X128553130Y-121904638D01*
X147638792Y-121904638D01*
X147821855Y-122347686D01*
X148160531Y-122686953D01*
X148603259Y-122870790D01*
X149082638Y-122871208D01*
X149525686Y-122688145D01*
X149864953Y-122349469D01*
X150048790Y-121906741D01*
X150048791Y-121904638D01*
X152718792Y-121904638D01*
X152901855Y-122347686D01*
X153240531Y-122686953D01*
X153683259Y-122870790D01*
X154162638Y-122871208D01*
X154605686Y-122688145D01*
X154944953Y-122349469D01*
X155128790Y-121906741D01*
X155129208Y-121427362D01*
X154946145Y-120984314D01*
X154607469Y-120645047D01*
X154164741Y-120461210D01*
X153685362Y-120460792D01*
X153242314Y-120643855D01*
X152903047Y-120982531D01*
X152719210Y-121425259D01*
X152718792Y-121904638D01*
X150048791Y-121904638D01*
X150049208Y-121427362D01*
X149866145Y-120984314D01*
X149527469Y-120645047D01*
X149084741Y-120461210D01*
X148605362Y-120460792D01*
X148162314Y-120643855D01*
X147823047Y-120982531D01*
X147639210Y-121425259D01*
X147638792Y-121904638D01*
X128553130Y-121904638D01*
X126874242Y-120225750D01*
X137539000Y-120225750D01*
X137539000Y-120854658D01*
X137586956Y-120970433D01*
X137675567Y-121059044D01*
X137791343Y-121107000D01*
X138520250Y-121107000D01*
X138599000Y-121028250D01*
X138599000Y-120147000D01*
X138609000Y-120147000D01*
X138609000Y-121028250D01*
X138687750Y-121107000D01*
X139416657Y-121107000D01*
X139532433Y-121059044D01*
X139621044Y-120970433D01*
X139669000Y-120854658D01*
X139669000Y-120225750D01*
X139590250Y-120147000D01*
X138609000Y-120147000D01*
X138599000Y-120147000D01*
X137617750Y-120147000D01*
X137539000Y-120225750D01*
X126874242Y-120225750D01*
X126781600Y-120133108D01*
X126781600Y-119429342D01*
X137539000Y-119429342D01*
X137539000Y-120058250D01*
X137617750Y-120137000D01*
X138599000Y-120137000D01*
X138599000Y-119255750D01*
X138609000Y-119255750D01*
X138609000Y-120137000D01*
X139590250Y-120137000D01*
X139669000Y-120058250D01*
X139669000Y-119429342D01*
X139621044Y-119313567D01*
X139532433Y-119224956D01*
X139416657Y-119177000D01*
X138687750Y-119177000D01*
X138609000Y-119255750D01*
X138599000Y-119255750D01*
X138520250Y-119177000D01*
X137791343Y-119177000D01*
X137675567Y-119224956D01*
X137586956Y-119313567D01*
X137539000Y-119429342D01*
X126781600Y-119429342D01*
X126781600Y-113235893D01*
X126890135Y-113127547D01*
X126984693Y-112899827D01*
X126984791Y-112787430D01*
X128087259Y-112787430D01*
X128087259Y-114288570D01*
X128109224Y-114405302D01*
X128178212Y-114512513D01*
X128283476Y-114584437D01*
X128408430Y-114609741D01*
X129909570Y-114609741D01*
X130026302Y-114587776D01*
X130133513Y-114518788D01*
X130205437Y-114413524D01*
X130230741Y-114288570D01*
X130230741Y-112787430D01*
X130208776Y-112670698D01*
X130139788Y-112563487D01*
X130034524Y-112491563D01*
X129909570Y-112466259D01*
X128408430Y-112466259D01*
X128291698Y-112488224D01*
X128184487Y-112557212D01*
X128112563Y-112662476D01*
X128087259Y-112787430D01*
X126984791Y-112787430D01*
X126984908Y-112653255D01*
X126895459Y-112436771D01*
X128905000Y-112436771D01*
X129021732Y-112414806D01*
X129128943Y-112345818D01*
X129158749Y-112302195D01*
X129182782Y-112339543D01*
X129288046Y-112411467D01*
X129413000Y-112436771D01*
X131445000Y-112436771D01*
X131561732Y-112414806D01*
X131663549Y-112349289D01*
X130769419Y-113243419D01*
X130679112Y-113378574D01*
X130647400Y-113538000D01*
X130647400Y-117983000D01*
X130679112Y-118142426D01*
X130769419Y-118277581D01*
X131023419Y-118531581D01*
X131158574Y-118621888D01*
X131318000Y-118653600D01*
X132969000Y-118653600D01*
X133128426Y-118621888D01*
X133263581Y-118531581D01*
X133444991Y-118350171D01*
X136022000Y-118350171D01*
X136138732Y-118328206D01*
X136245943Y-118259218D01*
X136317867Y-118153954D01*
X136343171Y-118029000D01*
X136343171Y-117429000D01*
X139500829Y-117429000D01*
X139500829Y-118029000D01*
X139522794Y-118145732D01*
X139591782Y-118252943D01*
X139697046Y-118324867D01*
X139822000Y-118350171D01*
X140703800Y-118350171D01*
X140703800Y-119170829D01*
X140554000Y-119170829D01*
X140437268Y-119192794D01*
X140330057Y-119261782D01*
X140258133Y-119367046D01*
X140232829Y-119492000D01*
X140232829Y-120792000D01*
X140254794Y-120908732D01*
X140323782Y-121015943D01*
X140429046Y-121087867D01*
X140554000Y-121113171D01*
X142054000Y-121113171D01*
X142170732Y-121091206D01*
X142277943Y-121022218D01*
X142349867Y-120916954D01*
X142375171Y-120792000D01*
X142375171Y-119492000D01*
X142353206Y-119375268D01*
X142284218Y-119268057D01*
X142178954Y-119196133D01*
X142054000Y-119170829D01*
X141740200Y-119170829D01*
X141740200Y-118350171D01*
X142622000Y-118350171D01*
X142738732Y-118328206D01*
X142845943Y-118259218D01*
X142917867Y-118153954D01*
X142943171Y-118029000D01*
X142943171Y-117429000D01*
X142921206Y-117312268D01*
X142852218Y-117205057D01*
X142746954Y-117133133D01*
X142622000Y-117107829D01*
X139822000Y-117107829D01*
X139705268Y-117129794D01*
X139598057Y-117198782D01*
X139526133Y-117304046D01*
X139500829Y-117429000D01*
X136343171Y-117429000D01*
X136321206Y-117312268D01*
X136252218Y-117205057D01*
X136146954Y-117133133D01*
X136022000Y-117107829D01*
X133222000Y-117107829D01*
X133105268Y-117129794D01*
X133020000Y-117184662D01*
X133020000Y-117157750D01*
X132941250Y-117079000D01*
X132085000Y-117079000D01*
X132085000Y-117099000D01*
X132075000Y-117099000D01*
X132075000Y-117079000D01*
X132055000Y-117079000D01*
X132055000Y-117069000D01*
X132075000Y-117069000D01*
X132075000Y-116087750D01*
X132085000Y-116087750D01*
X132085000Y-117069000D01*
X132941250Y-117069000D01*
X133013887Y-116996364D01*
X133043567Y-117026044D01*
X133159343Y-117074000D01*
X134538250Y-117074000D01*
X134617000Y-116995250D01*
X134617000Y-116464000D01*
X134627000Y-116464000D01*
X134627000Y-116995250D01*
X134705750Y-117074000D01*
X136084657Y-117074000D01*
X136200433Y-117026044D01*
X136289044Y-116937433D01*
X136337000Y-116821658D01*
X136337000Y-116542750D01*
X136258250Y-116464000D01*
X134627000Y-116464000D01*
X134617000Y-116464000D01*
X134597000Y-116464000D01*
X134597000Y-116454000D01*
X134617000Y-116454000D01*
X134617000Y-115922750D01*
X134627000Y-115922750D01*
X134627000Y-116454000D01*
X136258250Y-116454000D01*
X136337000Y-116375250D01*
X136337000Y-116159000D01*
X139500829Y-116159000D01*
X139500829Y-116759000D01*
X139522794Y-116875732D01*
X139591782Y-116982943D01*
X139697046Y-117054867D01*
X139822000Y-117080171D01*
X142622000Y-117080171D01*
X142738732Y-117058206D01*
X142845943Y-116989218D01*
X142854155Y-116977200D01*
X147799209Y-116977200D01*
X147898198Y-117216772D01*
X148211579Y-117530700D01*
X148621240Y-117700806D01*
X149064814Y-117701193D01*
X149474772Y-117531802D01*
X149788700Y-117218421D01*
X149836129Y-117104200D01*
X152931684Y-117104200D01*
X152978198Y-117216772D01*
X153291579Y-117530700D01*
X153701240Y-117700806D01*
X154144814Y-117701193D01*
X154554772Y-117531802D01*
X154868700Y-117218421D01*
X155038806Y-116808760D01*
X155039193Y-116365186D01*
X154869802Y-115955228D01*
X154727573Y-115812750D01*
X163173000Y-115812750D01*
X163173000Y-116791657D01*
X163220956Y-116907433D01*
X163309567Y-116996044D01*
X163425342Y-117044000D01*
X164254250Y-117044000D01*
X164333000Y-116965250D01*
X164333000Y-115734000D01*
X163251750Y-115734000D01*
X163173000Y-115812750D01*
X154727573Y-115812750D01*
X154556421Y-115641300D01*
X154146760Y-115471194D01*
X153703186Y-115470807D01*
X153293228Y-115640198D01*
X152979300Y-115953579D01*
X152931871Y-116067800D01*
X149836316Y-116067800D01*
X149789802Y-115955228D01*
X149476421Y-115641300D01*
X149066760Y-115471194D01*
X148623186Y-115470807D01*
X148213228Y-115640198D01*
X147912101Y-115940800D01*
X142855913Y-115940800D01*
X142852218Y-115935057D01*
X142746954Y-115863133D01*
X142622000Y-115837829D01*
X139822000Y-115837829D01*
X139705268Y-115859794D01*
X139598057Y-115928782D01*
X139526133Y-116034046D01*
X139500829Y-116159000D01*
X136337000Y-116159000D01*
X136337000Y-116096342D01*
X136289044Y-115980567D01*
X136200433Y-115891956D01*
X136084657Y-115844000D01*
X134705750Y-115844000D01*
X134627000Y-115922750D01*
X134617000Y-115922750D01*
X134538250Y-115844000D01*
X133159343Y-115844000D01*
X133043567Y-115891956D01*
X132954956Y-115980567D01*
X132911633Y-116085156D01*
X132883433Y-116056956D01*
X132767658Y-116009000D01*
X132163750Y-116009000D01*
X132085000Y-116087750D01*
X132075000Y-116087750D01*
X131996250Y-116009000D01*
X131480600Y-116009000D01*
X131480600Y-115645171D01*
X132462895Y-115645171D01*
X132496693Y-115667754D01*
X132695000Y-115707200D01*
X132988087Y-115707200D01*
X132991782Y-115712943D01*
X133097046Y-115784867D01*
X133222000Y-115810171D01*
X136022000Y-115810171D01*
X136138732Y-115788206D01*
X136245943Y-115719218D01*
X136254155Y-115707200D01*
X136779000Y-115707200D01*
X136977307Y-115667754D01*
X137145423Y-115555423D01*
X137145424Y-115555422D01*
X137780420Y-114920425D01*
X137780423Y-114920423D01*
X137801419Y-114889000D01*
X139500829Y-114889000D01*
X139500829Y-115489000D01*
X139522794Y-115605732D01*
X139591782Y-115712943D01*
X139697046Y-115784867D01*
X139822000Y-115810171D01*
X142622000Y-115810171D01*
X142738732Y-115788206D01*
X142845943Y-115719218D01*
X142854155Y-115707200D01*
X147701000Y-115707200D01*
X147899307Y-115667754D01*
X148067423Y-115555423D01*
X148508750Y-115114096D01*
X148621240Y-115160806D01*
X149064814Y-115161193D01*
X149474772Y-114991802D01*
X149788700Y-114678421D01*
X149836129Y-114564200D01*
X152931684Y-114564200D01*
X152978198Y-114676772D01*
X153291579Y-114990700D01*
X153701240Y-115160806D01*
X154144814Y-115161193D01*
X154554772Y-114991802D01*
X154868700Y-114678421D01*
X155038806Y-114268760D01*
X155039193Y-113825186D01*
X154869802Y-113415228D01*
X154556421Y-113101300D01*
X154146760Y-112931194D01*
X153703186Y-112930807D01*
X153293228Y-113100198D01*
X152979300Y-113413579D01*
X152931871Y-113527800D01*
X149836316Y-113527800D01*
X149789802Y-113415228D01*
X149476421Y-113101300D01*
X149066760Y-112931194D01*
X148623186Y-112930807D01*
X148213228Y-113100198D01*
X147899300Y-113413579D01*
X147729194Y-113823240D01*
X147728807Y-114266814D01*
X147776036Y-114381118D01*
X147486354Y-114670800D01*
X142855913Y-114670800D01*
X142852218Y-114665057D01*
X142746954Y-114593133D01*
X142622000Y-114567829D01*
X139822000Y-114567829D01*
X139705268Y-114589794D01*
X139598057Y-114658782D01*
X139526133Y-114764046D01*
X139500829Y-114889000D01*
X137801419Y-114889000D01*
X137879417Y-114772268D01*
X137892755Y-114752306D01*
X137932201Y-114554000D01*
X137932200Y-114553995D01*
X137932200Y-113642470D01*
X137939135Y-113635547D01*
X137946005Y-113619000D01*
X139500829Y-113619000D01*
X139500829Y-114219000D01*
X139522794Y-114335732D01*
X139591782Y-114442943D01*
X139697046Y-114514867D01*
X139822000Y-114540171D01*
X142622000Y-114540171D01*
X142738732Y-114518206D01*
X142845943Y-114449218D01*
X142917867Y-114343954D01*
X142943171Y-114219000D01*
X142943171Y-113619000D01*
X142921206Y-113502268D01*
X142852218Y-113395057D01*
X142746954Y-113323133D01*
X142622000Y-113297829D01*
X139822000Y-113297829D01*
X139705268Y-113319794D01*
X139598057Y-113388782D01*
X139526133Y-113494046D01*
X139500829Y-113619000D01*
X137946005Y-113619000D01*
X138033693Y-113407827D01*
X138033908Y-113161255D01*
X137939748Y-112933370D01*
X137765547Y-112758865D01*
X137537827Y-112664307D01*
X137291255Y-112664092D01*
X137063370Y-112758252D01*
X136888865Y-112932453D01*
X136794307Y-113160173D01*
X136794092Y-113406745D01*
X136888252Y-113634630D01*
X136895800Y-113642191D01*
X136895800Y-114339355D01*
X136564354Y-114670800D01*
X136255913Y-114670800D01*
X136252218Y-114665057D01*
X136146954Y-114593133D01*
X136022000Y-114567829D01*
X133222000Y-114567829D01*
X133105268Y-114589794D01*
X133026171Y-114640691D01*
X133026171Y-114466440D01*
X133097046Y-114514867D01*
X133222000Y-114540171D01*
X136022000Y-114540171D01*
X136138732Y-114518206D01*
X136245943Y-114449218D01*
X136317867Y-114343954D01*
X136343171Y-114219000D01*
X136343171Y-113619000D01*
X136321206Y-113502268D01*
X136252218Y-113395057D01*
X136146954Y-113323133D01*
X136089857Y-113311571D01*
X136113630Y-113301748D01*
X136288135Y-113127547D01*
X136382693Y-112899827D01*
X136382908Y-112653255D01*
X136288748Y-112425370D01*
X136114547Y-112250865D01*
X135886827Y-112156307D01*
X135640255Y-112156092D01*
X135412370Y-112250252D01*
X135237865Y-112424453D01*
X135143307Y-112652173D01*
X135143092Y-112898745D01*
X135237252Y-113126630D01*
X135408153Y-113297829D01*
X134847556Y-113297829D01*
X135018135Y-113127547D01*
X135112693Y-112899827D01*
X135112908Y-112653255D01*
X135018748Y-112425370D01*
X134844547Y-112250865D01*
X134616827Y-112156307D01*
X134370255Y-112156092D01*
X134142370Y-112250252D01*
X133967865Y-112424453D01*
X133873307Y-112652173D01*
X133873092Y-112898745D01*
X133967252Y-113126630D01*
X134138153Y-113297829D01*
X133444991Y-113297829D01*
X133055404Y-112908242D01*
X133055404Y-110055964D01*
X133125453Y-110126135D01*
X133353173Y-110220693D01*
X133599745Y-110220908D01*
X133827630Y-110126748D01*
X134002135Y-109952547D01*
X134096693Y-109724827D01*
X134096908Y-109478255D01*
X134002748Y-109250370D01*
X133845531Y-109092878D01*
X134002135Y-108936547D01*
X134096693Y-108708827D01*
X134096908Y-108462255D01*
X134008578Y-108248480D01*
X134919081Y-109158983D01*
X135054236Y-109249290D01*
X135213662Y-109281002D01*
X138852338Y-109281002D01*
X139011764Y-109249290D01*
X139146919Y-109158983D01*
X140263167Y-108042734D01*
X140317252Y-108173630D01*
X140491453Y-108348135D01*
X140719173Y-108442693D01*
X140965745Y-108442908D01*
X141193630Y-108348748D01*
X141302968Y-108239600D01*
X142433740Y-108239600D01*
X142452229Y-108235922D01*
X142452229Y-110109000D01*
X142474194Y-110225732D01*
X142543182Y-110332943D01*
X142648446Y-110404867D01*
X142773400Y-110430171D01*
X144500600Y-110430171D01*
X144617332Y-110408206D01*
X144724543Y-110339218D01*
X144796467Y-110233954D01*
X144821771Y-110109000D01*
X144821771Y-108077000D01*
X144799806Y-107960268D01*
X144730818Y-107853057D01*
X144625554Y-107781133D01*
X144500600Y-107755829D01*
X143090073Y-107755829D01*
X143429061Y-107416840D01*
X146463301Y-107416840D01*
X146516182Y-107682688D01*
X146609196Y-107821893D01*
X146177000Y-107735924D01*
X145725969Y-107825640D01*
X145343604Y-108081128D01*
X145088116Y-108463493D01*
X144998400Y-108914524D01*
X144998400Y-109271476D01*
X145088116Y-109722507D01*
X145343604Y-110104872D01*
X145725969Y-110360360D01*
X146177000Y-110450076D01*
X146628031Y-110360360D01*
X147010396Y-110104872D01*
X147265884Y-109722507D01*
X147355600Y-109271476D01*
X147355600Y-108914524D01*
X147265884Y-108463493D01*
X147135108Y-108267773D01*
X147500640Y-108340482D01*
X147742448Y-108292383D01*
X147628116Y-108463493D01*
X147538400Y-108914524D01*
X147538400Y-109271476D01*
X147628116Y-109722507D01*
X147883604Y-110104872D01*
X148265969Y-110360360D01*
X148717000Y-110450076D01*
X149168031Y-110360360D01*
X149550396Y-110104872D01*
X149805884Y-109722507D01*
X149895600Y-109271476D01*
X149895600Y-109098000D01*
X150078400Y-109098000D01*
X150078400Y-109250400D01*
X150170029Y-109701050D01*
X150427139Y-110082332D01*
X150810588Y-110336198D01*
X151067690Y-110408696D01*
X151252000Y-110345239D01*
X151252000Y-109098000D01*
X151262000Y-109098000D01*
X151262000Y-110345239D01*
X151446310Y-110408696D01*
X151703412Y-110336198D01*
X152086861Y-110082332D01*
X152343971Y-109701050D01*
X152435600Y-109250400D01*
X152435600Y-109098000D01*
X152618400Y-109098000D01*
X152618400Y-109250400D01*
X152710029Y-109701050D01*
X152967139Y-110082332D01*
X153350588Y-110336198D01*
X153607690Y-110408696D01*
X153792000Y-110345239D01*
X153792000Y-109098000D01*
X153802000Y-109098000D01*
X153802000Y-110345239D01*
X153986310Y-110408696D01*
X154243412Y-110336198D01*
X154626861Y-110082332D01*
X154883971Y-109701050D01*
X154975600Y-109250400D01*
X154975600Y-109098000D01*
X155158400Y-109098000D01*
X155158400Y-109250400D01*
X155250029Y-109701050D01*
X155507139Y-110082332D01*
X155890588Y-110336198D01*
X156147690Y-110408696D01*
X156332000Y-110345239D01*
X156332000Y-109098000D01*
X156342000Y-109098000D01*
X156342000Y-110345239D01*
X156526310Y-110408696D01*
X156783412Y-110336198D01*
X157166861Y-110082332D01*
X157423971Y-109701050D01*
X157515600Y-109250400D01*
X157515600Y-109098000D01*
X156342000Y-109098000D01*
X156332000Y-109098000D01*
X155158400Y-109098000D01*
X154975600Y-109098000D01*
X153802000Y-109098000D01*
X153792000Y-109098000D01*
X152618400Y-109098000D01*
X152435600Y-109098000D01*
X151262000Y-109098000D01*
X151252000Y-109098000D01*
X150078400Y-109098000D01*
X149895600Y-109098000D01*
X149895600Y-108935600D01*
X150078400Y-108935600D01*
X150078400Y-109088000D01*
X151252000Y-109088000D01*
X151252000Y-107840761D01*
X151262000Y-107840761D01*
X151262000Y-109088000D01*
X152435600Y-109088000D01*
X152435600Y-108935600D01*
X152343971Y-108484950D01*
X152194464Y-108263238D01*
X152327732Y-108300817D01*
X152494360Y-108235967D01*
X152494360Y-107005240D01*
X152504360Y-107005240D01*
X152504360Y-108235967D01*
X152670988Y-108300817D01*
X152872515Y-108243991D01*
X152710029Y-108484950D01*
X152618400Y-108935600D01*
X152618400Y-109088000D01*
X153792000Y-109088000D01*
X153792000Y-107840761D01*
X153802000Y-107840761D01*
X153802000Y-109088000D01*
X154975600Y-109088000D01*
X154975600Y-108935600D01*
X155158400Y-108935600D01*
X155158400Y-109088000D01*
X156332000Y-109088000D01*
X156332000Y-107840761D01*
X156342000Y-107840761D01*
X156342000Y-109088000D01*
X157515600Y-109088000D01*
X157515600Y-109049750D01*
X158662000Y-109049750D01*
X158662000Y-109928657D01*
X158709956Y-110044433D01*
X158798567Y-110133044D01*
X158914342Y-110181000D01*
X160143250Y-110181000D01*
X160222000Y-110102250D01*
X160222000Y-108971000D01*
X158740750Y-108971000D01*
X158662000Y-109049750D01*
X157515600Y-109049750D01*
X157515600Y-108935600D01*
X157423971Y-108484950D01*
X157166861Y-108103668D01*
X157015327Y-108003343D01*
X158662000Y-108003343D01*
X158662000Y-108882250D01*
X158740750Y-108961000D01*
X160222000Y-108961000D01*
X160222000Y-107829750D01*
X160143250Y-107751000D01*
X158914342Y-107751000D01*
X158798567Y-107798956D01*
X158709956Y-107887567D01*
X158662000Y-108003343D01*
X157015327Y-108003343D01*
X156783412Y-107849802D01*
X156526310Y-107777304D01*
X156342000Y-107840761D01*
X156332000Y-107840761D01*
X156147690Y-107777304D01*
X155890588Y-107849802D01*
X155507139Y-108103668D01*
X155250029Y-108484950D01*
X155158400Y-108935600D01*
X154975600Y-108935600D01*
X154883971Y-108484950D01*
X154626861Y-108103668D01*
X154243412Y-107849802D01*
X153986310Y-107777304D01*
X153802000Y-107840761D01*
X153792000Y-107840761D01*
X153607690Y-107777304D01*
X153355840Y-107848321D01*
X153481905Y-107661555D01*
X153564930Y-107254160D01*
X153564930Y-107005240D01*
X152504360Y-107005240D01*
X152494360Y-107005240D01*
X151433790Y-107005240D01*
X151433790Y-107254160D01*
X151516815Y-107661555D01*
X151629885Y-107829069D01*
X151446310Y-107777304D01*
X151262000Y-107840761D01*
X151252000Y-107840761D01*
X151067690Y-107777304D01*
X150810588Y-107849802D01*
X150427139Y-108103668D01*
X150170029Y-108484950D01*
X150078400Y-108935600D01*
X149895600Y-108935600D01*
X149895600Y-108914524D01*
X149805884Y-108463493D01*
X149550396Y-108081128D01*
X149168031Y-107825640D01*
X148717000Y-107735924D01*
X148408528Y-107797283D01*
X148485098Y-107682688D01*
X148566210Y-107274912D01*
X148566210Y-106725568D01*
X148485098Y-106317792D01*
X148254112Y-105972096D01*
X148226431Y-105953600D01*
X151810979Y-105953600D01*
X151749424Y-105994313D01*
G36*
X129161640Y-106623031D02*
X129417128Y-107005396D01*
X129799493Y-107260884D01*
X130250524Y-107350600D01*
X130607476Y-107350600D01*
X131058507Y-107260884D01*
X131409400Y-107026425D01*
X131409400Y-107876116D01*
X131037050Y-107625029D01*
X130586400Y-107533400D01*
X130434000Y-107533400D01*
X130434000Y-108707000D01*
X130454000Y-108707000D01*
X130454000Y-108717000D01*
X130434000Y-108717000D01*
X130434000Y-109890600D01*
X130586400Y-109890600D01*
X131037050Y-109798971D01*
X131409400Y-109547884D01*
X131409400Y-109682439D01*
X131024610Y-110067229D01*
X129413000Y-110067229D01*
X129296268Y-110089194D01*
X129189057Y-110158182D01*
X129159251Y-110201805D01*
X129135218Y-110164457D01*
X129029954Y-110092533D01*
X128905000Y-110067229D01*
X127293391Y-110067229D01*
X126781600Y-109555438D01*
X126781600Y-109402428D01*
X126877128Y-109545396D01*
X127259493Y-109800884D01*
X127710524Y-109890600D01*
X128067476Y-109890600D01*
X128518507Y-109800884D01*
X128900872Y-109545396D01*
X129156360Y-109163031D01*
X129169077Y-109099099D01*
X129185802Y-109158412D01*
X129439668Y-109541861D01*
X129820950Y-109798971D01*
X130271600Y-109890600D01*
X130424000Y-109890600D01*
X130424000Y-108717000D01*
X130404000Y-108717000D01*
X130404000Y-108707000D01*
X130424000Y-108707000D01*
X130424000Y-107533400D01*
X130271600Y-107533400D01*
X129820950Y-107625029D01*
X129439668Y-107882139D01*
X129185802Y-108265588D01*
X129169077Y-108324901D01*
X129156360Y-108260969D01*
X128900872Y-107878604D01*
X128518507Y-107623116D01*
X128067476Y-107533400D01*
X127740822Y-107533400D01*
X127520155Y-107312733D01*
X127710524Y-107350600D01*
X128067476Y-107350600D01*
X128518507Y-107260884D01*
X128900872Y-107005396D01*
X129156360Y-106623031D01*
X129159000Y-106609759D01*
X129161640Y-106623031D01*
X129161640Y-106623031D01*
G37*
X129161640Y-106623031D02*
X129417128Y-107005396D01*
X129799493Y-107260884D01*
X130250524Y-107350600D01*
X130607476Y-107350600D01*
X131058507Y-107260884D01*
X131409400Y-107026425D01*
X131409400Y-107876116D01*
X131037050Y-107625029D01*
X130586400Y-107533400D01*
X130434000Y-107533400D01*
X130434000Y-108707000D01*
X130454000Y-108707000D01*
X130454000Y-108717000D01*
X130434000Y-108717000D01*
X130434000Y-109890600D01*
X130586400Y-109890600D01*
X131037050Y-109798971D01*
X131409400Y-109547884D01*
X131409400Y-109682439D01*
X131024610Y-110067229D01*
X129413000Y-110067229D01*
X129296268Y-110089194D01*
X129189057Y-110158182D01*
X129159251Y-110201805D01*
X129135218Y-110164457D01*
X129029954Y-110092533D01*
X128905000Y-110067229D01*
X127293391Y-110067229D01*
X126781600Y-109555438D01*
X126781600Y-109402428D01*
X126877128Y-109545396D01*
X127259493Y-109800884D01*
X127710524Y-109890600D01*
X128067476Y-109890600D01*
X128518507Y-109800884D01*
X128900872Y-109545396D01*
X129156360Y-109163031D01*
X129169077Y-109099099D01*
X129185802Y-109158412D01*
X129439668Y-109541861D01*
X129820950Y-109798971D01*
X130271600Y-109890600D01*
X130424000Y-109890600D01*
X130424000Y-108717000D01*
X130404000Y-108717000D01*
X130404000Y-108707000D01*
X130424000Y-108707000D01*
X130424000Y-107533400D01*
X130271600Y-107533400D01*
X129820950Y-107625029D01*
X129439668Y-107882139D01*
X129185802Y-108265588D01*
X129169077Y-108324901D01*
X129156360Y-108260969D01*
X128900872Y-107878604D01*
X128518507Y-107623116D01*
X128067476Y-107533400D01*
X127740822Y-107533400D01*
X127520155Y-107312733D01*
X127710524Y-107350600D01*
X128067476Y-107350600D01*
X128518507Y-107260884D01*
X128900872Y-107005396D01*
X129156360Y-106623031D01*
X129159000Y-106609759D01*
X129161640Y-106623031D01*
G36*
X127511743Y-91150385D02*
X127646898Y-91240692D01*
X127806324Y-91272405D01*
X127806329Y-91272404D01*
X128991217Y-91272404D01*
X128920307Y-91443173D01*
X128920092Y-91689745D01*
X129014252Y-91917630D01*
X129114276Y-92017829D01*
X128389000Y-92017829D01*
X128272268Y-92039794D01*
X128165057Y-92108782D01*
X128093133Y-92214046D01*
X128067829Y-92339000D01*
X128067829Y-93589000D01*
X128089794Y-93705732D01*
X128106400Y-93731539D01*
X128106400Y-94319829D01*
X127523000Y-94319829D01*
X127406268Y-94341794D01*
X127299057Y-94410782D01*
X127227133Y-94516046D01*
X127201829Y-94641000D01*
X127201829Y-94931000D01*
X127222821Y-95042561D01*
X127208000Y-95078342D01*
X127208000Y-95202250D01*
X127286750Y-95281000D01*
X128518000Y-95281000D01*
X128518000Y-95261000D01*
X128528000Y-95261000D01*
X128528000Y-95281000D01*
X129759250Y-95281000D01*
X129838000Y-95202250D01*
X129838000Y-95078342D01*
X129822104Y-95039967D01*
X129844171Y-94931000D01*
X129844171Y-94641000D01*
X129822206Y-94524268D01*
X129753218Y-94417057D01*
X129647954Y-94345133D01*
X129523000Y-94319829D01*
X128939600Y-94319829D01*
X128939600Y-93910171D01*
X129889000Y-93910171D01*
X130005732Y-93888206D01*
X130015473Y-93881938D01*
X130028794Y-93952732D01*
X130097782Y-94059943D01*
X130203046Y-94131867D01*
X130328000Y-94157171D01*
X130618000Y-94157171D01*
X130726854Y-94136688D01*
X130828000Y-94157171D01*
X131118000Y-94157171D01*
X131226854Y-94136688D01*
X131328000Y-94157171D01*
X131618000Y-94157171D01*
X131726854Y-94136688D01*
X131828000Y-94157171D01*
X132118000Y-94157171D01*
X132226854Y-94136688D01*
X132328000Y-94157171D01*
X132618000Y-94157171D01*
X132726854Y-94136688D01*
X132828000Y-94157171D01*
X133118000Y-94157171D01*
X133226854Y-94136688D01*
X133328000Y-94157171D01*
X133618000Y-94157171D01*
X133729561Y-94136179D01*
X133765342Y-94151000D01*
X133889250Y-94151000D01*
X133968000Y-94072250D01*
X133968000Y-92841000D01*
X133948000Y-92841000D01*
X133948000Y-92831000D01*
X133968000Y-92831000D01*
X133968000Y-92811000D01*
X133978000Y-92811000D01*
X133978000Y-92831000D01*
X133998000Y-92831000D01*
X133998000Y-92841000D01*
X133978000Y-92841000D01*
X133978000Y-94072250D01*
X134056750Y-94151000D01*
X134069130Y-94151000D01*
X134088112Y-94246426D01*
X134178419Y-94381581D01*
X134325417Y-94528578D01*
X134325419Y-94528581D01*
X134454755Y-94615000D01*
X134460574Y-94618888D01*
X134620000Y-94650600D01*
X136525000Y-94650600D01*
X136603028Y-94635079D01*
X136601829Y-94641000D01*
X136601829Y-94931000D01*
X136622312Y-95039854D01*
X136601829Y-95141000D01*
X136601829Y-95431000D01*
X136622312Y-95539854D01*
X136601829Y-95641000D01*
X136601829Y-95931000D01*
X136622312Y-96039854D01*
X136601829Y-96141000D01*
X136601829Y-96431000D01*
X136622312Y-96539854D01*
X136601829Y-96641000D01*
X136601829Y-96931000D01*
X136622312Y-97039854D01*
X136601829Y-97141000D01*
X136601829Y-97431000D01*
X136622312Y-97539854D01*
X136601829Y-97641000D01*
X136601829Y-97836357D01*
X136542748Y-97693370D01*
X136368547Y-97518865D01*
X136140827Y-97424307D01*
X135894255Y-97424092D01*
X135666370Y-97518252D01*
X135491865Y-97692453D01*
X135397307Y-97920173D01*
X135397092Y-98166745D01*
X135491252Y-98394630D01*
X135665453Y-98569135D01*
X135893173Y-98663693D01*
X136089061Y-98663864D01*
X136099574Y-98670888D01*
X136126025Y-98676150D01*
X136259000Y-98702601D01*
X136259005Y-98702600D01*
X136601829Y-98702600D01*
X136601829Y-98931000D01*
X136622312Y-99039854D01*
X136601829Y-99141000D01*
X136601829Y-99431000D01*
X136622821Y-99542561D01*
X136608000Y-99578342D01*
X136608000Y-99702250D01*
X136686750Y-99781000D01*
X137918000Y-99781000D01*
X137918000Y-99761000D01*
X137928000Y-99761000D01*
X137928000Y-99781000D01*
X139159250Y-99781000D01*
X139237650Y-99702600D01*
X139323756Y-99702600D01*
X139301865Y-99724453D01*
X139238000Y-99878256D01*
X139238000Y-99869750D01*
X139159250Y-99791000D01*
X137928000Y-99791000D01*
X137928000Y-99811000D01*
X137918000Y-99811000D01*
X137918000Y-99791000D01*
X136686750Y-99791000D01*
X136608000Y-99869750D01*
X136608000Y-99993658D01*
X136623896Y-100032033D01*
X136601829Y-100141000D01*
X136601829Y-100431000D01*
X136623794Y-100547732D01*
X136692782Y-100654943D01*
X136798046Y-100726867D01*
X136923000Y-100752171D01*
X136999690Y-100752171D01*
X136975829Y-100870000D01*
X136975829Y-102370000D01*
X136997794Y-102486732D01*
X137066782Y-102593943D01*
X137172046Y-102665867D01*
X137297000Y-102691171D01*
X138547000Y-102691171D01*
X138663732Y-102669206D01*
X138770943Y-102600218D01*
X138842867Y-102494954D01*
X138868171Y-102370000D01*
X138868171Y-102341400D01*
X138879664Y-102341400D01*
X138921572Y-102383381D01*
X139261279Y-102524439D01*
X139629107Y-102524760D01*
X139969060Y-102384295D01*
X140229381Y-102124428D01*
X140370439Y-101784721D01*
X140370760Y-101416893D01*
X140230295Y-101076940D01*
X139970428Y-100816619D01*
X139862600Y-100771845D01*
X139862600Y-100711005D01*
X139862601Y-100711000D01*
X139860059Y-100698221D01*
X140400998Y-101239160D01*
X140400998Y-104500840D01*
X139400438Y-105501400D01*
X136637301Y-105501400D01*
X136389600Y-105253698D01*
X136389600Y-104203750D01*
X136982000Y-104203750D01*
X136982000Y-104932657D01*
X137029956Y-105048433D01*
X137118567Y-105137044D01*
X137234342Y-105185000D01*
X137838250Y-105185000D01*
X137917000Y-105106250D01*
X137917000Y-104125000D01*
X137927000Y-104125000D01*
X137927000Y-105106250D01*
X138005750Y-105185000D01*
X138609658Y-105185000D01*
X138725433Y-105137044D01*
X138814044Y-105048433D01*
X138862000Y-104932657D01*
X138862000Y-104203750D01*
X138783250Y-104125000D01*
X137927000Y-104125000D01*
X137917000Y-104125000D01*
X137060750Y-104125000D01*
X136982000Y-104203750D01*
X136389600Y-104203750D01*
X136389600Y-103396470D01*
X136413867Y-103360954D01*
X136424723Y-103307343D01*
X136982000Y-103307343D01*
X136982000Y-104036250D01*
X137060750Y-104115000D01*
X137917000Y-104115000D01*
X137917000Y-103133750D01*
X137927000Y-103133750D01*
X137927000Y-104115000D01*
X138783250Y-104115000D01*
X138862000Y-104036250D01*
X138862000Y-103307343D01*
X138814044Y-103191567D01*
X138725433Y-103102956D01*
X138609658Y-103055000D01*
X138005750Y-103055000D01*
X137927000Y-103133750D01*
X137917000Y-103133750D01*
X137838250Y-103055000D01*
X137234342Y-103055000D01*
X137118567Y-103102956D01*
X137029956Y-103191567D01*
X136982000Y-103307343D01*
X136424723Y-103307343D01*
X136439171Y-103236000D01*
X136439171Y-101236000D01*
X136417206Y-101119268D01*
X136348218Y-101012057D01*
X136242954Y-100940133D01*
X136118000Y-100914829D01*
X135828000Y-100914829D01*
X135719146Y-100935312D01*
X135618000Y-100914829D01*
X135328000Y-100914829D01*
X135219146Y-100935312D01*
X135118000Y-100914829D01*
X134828000Y-100914829D01*
X134719146Y-100935312D01*
X134618000Y-100914829D01*
X134328000Y-100914829D01*
X134219146Y-100935312D01*
X134118000Y-100914829D01*
X133828000Y-100914829D01*
X133719146Y-100935312D01*
X133618000Y-100914829D01*
X133328000Y-100914829D01*
X133219146Y-100935312D01*
X133118000Y-100914829D01*
X132828000Y-100914829D01*
X132719146Y-100935312D01*
X132618000Y-100914829D01*
X132328000Y-100914829D01*
X132219146Y-100935312D01*
X132118000Y-100914829D01*
X131828000Y-100914829D01*
X131719146Y-100935312D01*
X131618000Y-100914829D01*
X131328000Y-100914829D01*
X131216439Y-100935821D01*
X131180658Y-100921000D01*
X131056750Y-100921000D01*
X130978000Y-100999750D01*
X130978000Y-102231000D01*
X130998000Y-102231000D01*
X130998000Y-102241000D01*
X130978000Y-102241000D01*
X130978000Y-103472250D01*
X131056400Y-103550650D01*
X131056400Y-105082697D01*
X130607476Y-104993400D01*
X130250524Y-104993400D01*
X129907745Y-105061583D01*
X129529642Y-104683480D01*
X129850107Y-104683760D01*
X130190060Y-104543295D01*
X130450381Y-104283428D01*
X130591439Y-103943721D01*
X130591760Y-103575893D01*
X130584024Y-103557171D01*
X130618000Y-103557171D01*
X130729561Y-103536179D01*
X130765342Y-103551000D01*
X130889250Y-103551000D01*
X130968000Y-103472250D01*
X130968000Y-102241000D01*
X130948000Y-102241000D01*
X130948000Y-102231000D01*
X130968000Y-102231000D01*
X130968000Y-100999750D01*
X130889250Y-100921000D01*
X130765342Y-100921000D01*
X130726967Y-100936896D01*
X130618000Y-100914829D01*
X130328000Y-100914829D01*
X130211268Y-100936794D01*
X130104057Y-101005782D01*
X130032133Y-101111046D01*
X130006829Y-101236000D01*
X130006829Y-101312690D01*
X129889000Y-101288829D01*
X128389000Y-101288829D01*
X128272268Y-101310794D01*
X128165057Y-101379782D01*
X128093133Y-101485046D01*
X128067829Y-101610000D01*
X128067829Y-102860000D01*
X128089794Y-102976732D01*
X128112599Y-103012173D01*
X128020255Y-103012092D01*
X127792370Y-103106252D01*
X127634878Y-103263469D01*
X127518800Y-103147188D01*
X127567433Y-103127044D01*
X127656044Y-103038433D01*
X127704000Y-102922658D01*
X127704000Y-102318750D01*
X127625250Y-102240000D01*
X126644000Y-102240000D01*
X126644000Y-102260000D01*
X126634000Y-102260000D01*
X126634000Y-102240000D01*
X126614000Y-102240000D01*
X126614000Y-102230000D01*
X126634000Y-102230000D01*
X126634000Y-101373750D01*
X126644000Y-101373750D01*
X126644000Y-102230000D01*
X127625250Y-102230000D01*
X127704000Y-102151250D01*
X127704000Y-101547342D01*
X127656044Y-101431567D01*
X127567433Y-101342956D01*
X127451657Y-101295000D01*
X126722750Y-101295000D01*
X126644000Y-101373750D01*
X126634000Y-101373750D01*
X126555250Y-101295000D01*
X125989162Y-101295000D01*
X126581562Y-100702600D01*
X127362530Y-100702600D01*
X127398046Y-100726867D01*
X127523000Y-100752171D01*
X129523000Y-100752171D01*
X129639732Y-100730206D01*
X129746943Y-100661218D01*
X129818867Y-100555954D01*
X129844171Y-100431000D01*
X129844171Y-100141000D01*
X129823688Y-100032146D01*
X129844171Y-99931000D01*
X129844171Y-99641000D01*
X129823688Y-99532146D01*
X129844171Y-99431000D01*
X129844171Y-99141000D01*
X129823688Y-99032146D01*
X129844171Y-98931000D01*
X129844171Y-98641000D01*
X129823688Y-98532146D01*
X129844171Y-98431000D01*
X129844171Y-98141000D01*
X129823688Y-98032146D01*
X129844171Y-97931000D01*
X129844171Y-97641000D01*
X129823688Y-97532146D01*
X129844171Y-97431000D01*
X129844171Y-97141000D01*
X129823688Y-97032146D01*
X129844171Y-96931000D01*
X129844171Y-96641000D01*
X129823688Y-96532146D01*
X129844171Y-96431000D01*
X129844171Y-96141000D01*
X129823688Y-96032146D01*
X129844171Y-95931000D01*
X129844171Y-95641000D01*
X129823179Y-95529439D01*
X129838000Y-95493658D01*
X129838000Y-95369750D01*
X129759250Y-95291000D01*
X128528000Y-95291000D01*
X128528000Y-95311000D01*
X128518000Y-95311000D01*
X128518000Y-95291000D01*
X127286750Y-95291000D01*
X127208350Y-95369400D01*
X126819562Y-95369400D01*
X125892600Y-94442438D01*
X125892600Y-93904000D01*
X126555250Y-93904000D01*
X126634000Y-93825250D01*
X126634000Y-92969000D01*
X126644000Y-92969000D01*
X126644000Y-93825250D01*
X126722750Y-93904000D01*
X127451657Y-93904000D01*
X127567433Y-93856044D01*
X127656044Y-93767433D01*
X127704000Y-93651658D01*
X127704000Y-93047750D01*
X127625250Y-92969000D01*
X126644000Y-92969000D01*
X126634000Y-92969000D01*
X126614000Y-92969000D01*
X126614000Y-92959000D01*
X126634000Y-92959000D01*
X126634000Y-92102750D01*
X126644000Y-92102750D01*
X126644000Y-92959000D01*
X127625250Y-92959000D01*
X127704000Y-92880250D01*
X127704000Y-92276342D01*
X127656044Y-92160567D01*
X127567433Y-92071956D01*
X127451657Y-92024000D01*
X126722750Y-92024000D01*
X126644000Y-92102750D01*
X126634000Y-92102750D01*
X126555250Y-92024000D01*
X125892600Y-92024000D01*
X125892600Y-91993562D01*
X126964372Y-90921789D01*
X126964375Y-90921787D01*
X127054682Y-90786632D01*
X127062089Y-90749396D01*
X127070163Y-90708805D01*
X127511743Y-91150385D01*
X127511743Y-91150385D01*
G37*
X127511743Y-91150385D02*
X127646898Y-91240692D01*
X127806324Y-91272405D01*
X127806329Y-91272404D01*
X128991217Y-91272404D01*
X128920307Y-91443173D01*
X128920092Y-91689745D01*
X129014252Y-91917630D01*
X129114276Y-92017829D01*
X128389000Y-92017829D01*
X128272268Y-92039794D01*
X128165057Y-92108782D01*
X128093133Y-92214046D01*
X128067829Y-92339000D01*
X128067829Y-93589000D01*
X128089794Y-93705732D01*
X128106400Y-93731539D01*
X128106400Y-94319829D01*
X127523000Y-94319829D01*
X127406268Y-94341794D01*
X127299057Y-94410782D01*
X127227133Y-94516046D01*
X127201829Y-94641000D01*
X127201829Y-94931000D01*
X127222821Y-95042561D01*
X127208000Y-95078342D01*
X127208000Y-95202250D01*
X127286750Y-95281000D01*
X128518000Y-95281000D01*
X128518000Y-95261000D01*
X128528000Y-95261000D01*
X128528000Y-95281000D01*
X129759250Y-95281000D01*
X129838000Y-95202250D01*
X129838000Y-95078342D01*
X129822104Y-95039967D01*
X129844171Y-94931000D01*
X129844171Y-94641000D01*
X129822206Y-94524268D01*
X129753218Y-94417057D01*
X129647954Y-94345133D01*
X129523000Y-94319829D01*
X128939600Y-94319829D01*
X128939600Y-93910171D01*
X129889000Y-93910171D01*
X130005732Y-93888206D01*
X130015473Y-93881938D01*
X130028794Y-93952732D01*
X130097782Y-94059943D01*
X130203046Y-94131867D01*
X130328000Y-94157171D01*
X130618000Y-94157171D01*
X130726854Y-94136688D01*
X130828000Y-94157171D01*
X131118000Y-94157171D01*
X131226854Y-94136688D01*
X131328000Y-94157171D01*
X131618000Y-94157171D01*
X131726854Y-94136688D01*
X131828000Y-94157171D01*
X132118000Y-94157171D01*
X132226854Y-94136688D01*
X132328000Y-94157171D01*
X132618000Y-94157171D01*
X132726854Y-94136688D01*
X132828000Y-94157171D01*
X133118000Y-94157171D01*
X133226854Y-94136688D01*
X133328000Y-94157171D01*
X133618000Y-94157171D01*
X133729561Y-94136179D01*
X133765342Y-94151000D01*
X133889250Y-94151000D01*
X133968000Y-94072250D01*
X133968000Y-92841000D01*
X133948000Y-92841000D01*
X133948000Y-92831000D01*
X133968000Y-92831000D01*
X133968000Y-92811000D01*
X133978000Y-92811000D01*
X133978000Y-92831000D01*
X133998000Y-92831000D01*
X133998000Y-92841000D01*
X133978000Y-92841000D01*
X133978000Y-94072250D01*
X134056750Y-94151000D01*
X134069130Y-94151000D01*
X134088112Y-94246426D01*
X134178419Y-94381581D01*
X134325417Y-94528578D01*
X134325419Y-94528581D01*
X134454755Y-94615000D01*
X134460574Y-94618888D01*
X134620000Y-94650600D01*
X136525000Y-94650600D01*
X136603028Y-94635079D01*
X136601829Y-94641000D01*
X136601829Y-94931000D01*
X136622312Y-95039854D01*
X136601829Y-95141000D01*
X136601829Y-95431000D01*
X136622312Y-95539854D01*
X136601829Y-95641000D01*
X136601829Y-95931000D01*
X136622312Y-96039854D01*
X136601829Y-96141000D01*
X136601829Y-96431000D01*
X136622312Y-96539854D01*
X136601829Y-96641000D01*
X136601829Y-96931000D01*
X136622312Y-97039854D01*
X136601829Y-97141000D01*
X136601829Y-97431000D01*
X136622312Y-97539854D01*
X136601829Y-97641000D01*
X136601829Y-97836357D01*
X136542748Y-97693370D01*
X136368547Y-97518865D01*
X136140827Y-97424307D01*
X135894255Y-97424092D01*
X135666370Y-97518252D01*
X135491865Y-97692453D01*
X135397307Y-97920173D01*
X135397092Y-98166745D01*
X135491252Y-98394630D01*
X135665453Y-98569135D01*
X135893173Y-98663693D01*
X136089061Y-98663864D01*
X136099574Y-98670888D01*
X136126025Y-98676150D01*
X136259000Y-98702601D01*
X136259005Y-98702600D01*
X136601829Y-98702600D01*
X136601829Y-98931000D01*
X136622312Y-99039854D01*
X136601829Y-99141000D01*
X136601829Y-99431000D01*
X136622821Y-99542561D01*
X136608000Y-99578342D01*
X136608000Y-99702250D01*
X136686750Y-99781000D01*
X137918000Y-99781000D01*
X137918000Y-99761000D01*
X137928000Y-99761000D01*
X137928000Y-99781000D01*
X139159250Y-99781000D01*
X139237650Y-99702600D01*
X139323756Y-99702600D01*
X139301865Y-99724453D01*
X139238000Y-99878256D01*
X139238000Y-99869750D01*
X139159250Y-99791000D01*
X137928000Y-99791000D01*
X137928000Y-99811000D01*
X137918000Y-99811000D01*
X137918000Y-99791000D01*
X136686750Y-99791000D01*
X136608000Y-99869750D01*
X136608000Y-99993658D01*
X136623896Y-100032033D01*
X136601829Y-100141000D01*
X136601829Y-100431000D01*
X136623794Y-100547732D01*
X136692782Y-100654943D01*
X136798046Y-100726867D01*
X136923000Y-100752171D01*
X136999690Y-100752171D01*
X136975829Y-100870000D01*
X136975829Y-102370000D01*
X136997794Y-102486732D01*
X137066782Y-102593943D01*
X137172046Y-102665867D01*
X137297000Y-102691171D01*
X138547000Y-102691171D01*
X138663732Y-102669206D01*
X138770943Y-102600218D01*
X138842867Y-102494954D01*
X138868171Y-102370000D01*
X138868171Y-102341400D01*
X138879664Y-102341400D01*
X138921572Y-102383381D01*
X139261279Y-102524439D01*
X139629107Y-102524760D01*
X139969060Y-102384295D01*
X140229381Y-102124428D01*
X140370439Y-101784721D01*
X140370760Y-101416893D01*
X140230295Y-101076940D01*
X139970428Y-100816619D01*
X139862600Y-100771845D01*
X139862600Y-100711005D01*
X139862601Y-100711000D01*
X139860059Y-100698221D01*
X140400998Y-101239160D01*
X140400998Y-104500840D01*
X139400438Y-105501400D01*
X136637301Y-105501400D01*
X136389600Y-105253698D01*
X136389600Y-104203750D01*
X136982000Y-104203750D01*
X136982000Y-104932657D01*
X137029956Y-105048433D01*
X137118567Y-105137044D01*
X137234342Y-105185000D01*
X137838250Y-105185000D01*
X137917000Y-105106250D01*
X137917000Y-104125000D01*
X137927000Y-104125000D01*
X137927000Y-105106250D01*
X138005750Y-105185000D01*
X138609658Y-105185000D01*
X138725433Y-105137044D01*
X138814044Y-105048433D01*
X138862000Y-104932657D01*
X138862000Y-104203750D01*
X138783250Y-104125000D01*
X137927000Y-104125000D01*
X137917000Y-104125000D01*
X137060750Y-104125000D01*
X136982000Y-104203750D01*
X136389600Y-104203750D01*
X136389600Y-103396470D01*
X136413867Y-103360954D01*
X136424723Y-103307343D01*
X136982000Y-103307343D01*
X136982000Y-104036250D01*
X137060750Y-104115000D01*
X137917000Y-104115000D01*
X137917000Y-103133750D01*
X137927000Y-103133750D01*
X137927000Y-104115000D01*
X138783250Y-104115000D01*
X138862000Y-104036250D01*
X138862000Y-103307343D01*
X138814044Y-103191567D01*
X138725433Y-103102956D01*
X138609658Y-103055000D01*
X138005750Y-103055000D01*
X137927000Y-103133750D01*
X137917000Y-103133750D01*
X137838250Y-103055000D01*
X137234342Y-103055000D01*
X137118567Y-103102956D01*
X137029956Y-103191567D01*
X136982000Y-103307343D01*
X136424723Y-103307343D01*
X136439171Y-103236000D01*
X136439171Y-101236000D01*
X136417206Y-101119268D01*
X136348218Y-101012057D01*
X136242954Y-100940133D01*
X136118000Y-100914829D01*
X135828000Y-100914829D01*
X135719146Y-100935312D01*
X135618000Y-100914829D01*
X135328000Y-100914829D01*
X135219146Y-100935312D01*
X135118000Y-100914829D01*
X134828000Y-100914829D01*
X134719146Y-100935312D01*
X134618000Y-100914829D01*
X134328000Y-100914829D01*
X134219146Y-100935312D01*
X134118000Y-100914829D01*
X133828000Y-100914829D01*
X133719146Y-100935312D01*
X133618000Y-100914829D01*
X133328000Y-100914829D01*
X133219146Y-100935312D01*
X133118000Y-100914829D01*
X132828000Y-100914829D01*
X132719146Y-100935312D01*
X132618000Y-100914829D01*
X132328000Y-100914829D01*
X132219146Y-100935312D01*
X132118000Y-100914829D01*
X131828000Y-100914829D01*
X131719146Y-100935312D01*
X131618000Y-100914829D01*
X131328000Y-100914829D01*
X131216439Y-100935821D01*
X131180658Y-100921000D01*
X131056750Y-100921000D01*
X130978000Y-100999750D01*
X130978000Y-102231000D01*
X130998000Y-102231000D01*
X130998000Y-102241000D01*
X130978000Y-102241000D01*
X130978000Y-103472250D01*
X131056400Y-103550650D01*
X131056400Y-105082697D01*
X130607476Y-104993400D01*
X130250524Y-104993400D01*
X129907745Y-105061583D01*
X129529642Y-104683480D01*
X129850107Y-104683760D01*
X130190060Y-104543295D01*
X130450381Y-104283428D01*
X130591439Y-103943721D01*
X130591760Y-103575893D01*
X130584024Y-103557171D01*
X130618000Y-103557171D01*
X130729561Y-103536179D01*
X130765342Y-103551000D01*
X130889250Y-103551000D01*
X130968000Y-103472250D01*
X130968000Y-102241000D01*
X130948000Y-102241000D01*
X130948000Y-102231000D01*
X130968000Y-102231000D01*
X130968000Y-100999750D01*
X130889250Y-100921000D01*
X130765342Y-100921000D01*
X130726967Y-100936896D01*
X130618000Y-100914829D01*
X130328000Y-100914829D01*
X130211268Y-100936794D01*
X130104057Y-101005782D01*
X130032133Y-101111046D01*
X130006829Y-101236000D01*
X130006829Y-101312690D01*
X129889000Y-101288829D01*
X128389000Y-101288829D01*
X128272268Y-101310794D01*
X128165057Y-101379782D01*
X128093133Y-101485046D01*
X128067829Y-101610000D01*
X128067829Y-102860000D01*
X128089794Y-102976732D01*
X128112599Y-103012173D01*
X128020255Y-103012092D01*
X127792370Y-103106252D01*
X127634878Y-103263469D01*
X127518800Y-103147188D01*
X127567433Y-103127044D01*
X127656044Y-103038433D01*
X127704000Y-102922658D01*
X127704000Y-102318750D01*
X127625250Y-102240000D01*
X126644000Y-102240000D01*
X126644000Y-102260000D01*
X126634000Y-102260000D01*
X126634000Y-102240000D01*
X126614000Y-102240000D01*
X126614000Y-102230000D01*
X126634000Y-102230000D01*
X126634000Y-101373750D01*
X126644000Y-101373750D01*
X126644000Y-102230000D01*
X127625250Y-102230000D01*
X127704000Y-102151250D01*
X127704000Y-101547342D01*
X127656044Y-101431567D01*
X127567433Y-101342956D01*
X127451657Y-101295000D01*
X126722750Y-101295000D01*
X126644000Y-101373750D01*
X126634000Y-101373750D01*
X126555250Y-101295000D01*
X125989162Y-101295000D01*
X126581562Y-100702600D01*
X127362530Y-100702600D01*
X127398046Y-100726867D01*
X127523000Y-100752171D01*
X129523000Y-100752171D01*
X129639732Y-100730206D01*
X129746943Y-100661218D01*
X129818867Y-100555954D01*
X129844171Y-100431000D01*
X129844171Y-100141000D01*
X129823688Y-100032146D01*
X129844171Y-99931000D01*
X129844171Y-99641000D01*
X129823688Y-99532146D01*
X129844171Y-99431000D01*
X129844171Y-99141000D01*
X129823688Y-99032146D01*
X129844171Y-98931000D01*
X129844171Y-98641000D01*
X129823688Y-98532146D01*
X129844171Y-98431000D01*
X129844171Y-98141000D01*
X129823688Y-98032146D01*
X129844171Y-97931000D01*
X129844171Y-97641000D01*
X129823688Y-97532146D01*
X129844171Y-97431000D01*
X129844171Y-97141000D01*
X129823688Y-97032146D01*
X129844171Y-96931000D01*
X129844171Y-96641000D01*
X129823688Y-96532146D01*
X129844171Y-96431000D01*
X129844171Y-96141000D01*
X129823688Y-96032146D01*
X129844171Y-95931000D01*
X129844171Y-95641000D01*
X129823179Y-95529439D01*
X129838000Y-95493658D01*
X129838000Y-95369750D01*
X129759250Y-95291000D01*
X128528000Y-95291000D01*
X128528000Y-95311000D01*
X128518000Y-95311000D01*
X128518000Y-95291000D01*
X127286750Y-95291000D01*
X127208350Y-95369400D01*
X126819562Y-95369400D01*
X125892600Y-94442438D01*
X125892600Y-93904000D01*
X126555250Y-93904000D01*
X126634000Y-93825250D01*
X126634000Y-92969000D01*
X126644000Y-92969000D01*
X126644000Y-93825250D01*
X126722750Y-93904000D01*
X127451657Y-93904000D01*
X127567433Y-93856044D01*
X127656044Y-93767433D01*
X127704000Y-93651658D01*
X127704000Y-93047750D01*
X127625250Y-92969000D01*
X126644000Y-92969000D01*
X126634000Y-92969000D01*
X126614000Y-92969000D01*
X126614000Y-92959000D01*
X126634000Y-92959000D01*
X126634000Y-92102750D01*
X126644000Y-92102750D01*
X126644000Y-92959000D01*
X127625250Y-92959000D01*
X127704000Y-92880250D01*
X127704000Y-92276342D01*
X127656044Y-92160567D01*
X127567433Y-92071956D01*
X127451657Y-92024000D01*
X126722750Y-92024000D01*
X126644000Y-92102750D01*
X126634000Y-92102750D01*
X126555250Y-92024000D01*
X125892600Y-92024000D01*
X125892600Y-91993562D01*
X126964372Y-90921789D01*
X126964375Y-90921787D01*
X127054682Y-90786632D01*
X127062089Y-90749396D01*
X127070163Y-90708805D01*
X127511743Y-91150385D01*
G36*
X139655883Y-89953044D02*
X139609463Y-89999464D01*
X139541340Y-89839068D01*
X139174367Y-89672040D01*
X138771411Y-89658160D01*
X138393816Y-89799542D01*
X138334660Y-89839068D01*
X138266536Y-89999465D01*
X138938000Y-90670929D01*
X138952143Y-90656787D01*
X138959214Y-90663858D01*
X138945071Y-90678000D01*
X139616535Y-91349464D01*
X139776932Y-91281340D01*
X139943960Y-90914367D01*
X139957840Y-90511411D01*
X139816458Y-90133816D01*
X139776932Y-90074660D01*
X139616536Y-90006537D01*
X139662956Y-89960117D01*
X140680400Y-90977561D01*
X140680400Y-91643000D01*
X140017750Y-91643000D01*
X139939000Y-91721750D01*
X139939000Y-92578000D01*
X139959000Y-92578000D01*
X139959000Y-92588000D01*
X139939000Y-92588000D01*
X139939000Y-93444250D01*
X140017750Y-93523000D01*
X140456839Y-93523000D01*
X139610438Y-94369400D01*
X139083470Y-94369400D01*
X139047954Y-94345133D01*
X138923000Y-94319829D01*
X137315652Y-94319829D01*
X137431135Y-94204547D01*
X137525693Y-93976827D01*
X137525908Y-93730255D01*
X137442822Y-93529171D01*
X138184000Y-93529171D01*
X138300732Y-93507206D01*
X138407943Y-93438218D01*
X138479867Y-93332954D01*
X138505171Y-93208000D01*
X138505171Y-92666750D01*
X138869000Y-92666750D01*
X138869000Y-93270658D01*
X138916956Y-93386433D01*
X139005567Y-93475044D01*
X139121343Y-93523000D01*
X139850250Y-93523000D01*
X139929000Y-93444250D01*
X139929000Y-92588000D01*
X138947750Y-92588000D01*
X138869000Y-92666750D01*
X138505171Y-92666750D01*
X138505171Y-91958000D01*
X138483206Y-91841268D01*
X138414218Y-91734057D01*
X138308954Y-91662133D01*
X138184000Y-91636829D01*
X136790333Y-91636829D01*
X137070626Y-91356535D01*
X138266536Y-91356535D01*
X138334660Y-91516932D01*
X138701633Y-91683960D01*
X139002210Y-91694313D01*
X138916956Y-91779567D01*
X138869000Y-91895342D01*
X138869000Y-92499250D01*
X138947750Y-92578000D01*
X139929000Y-92578000D01*
X139929000Y-91721750D01*
X139850250Y-91643000D01*
X139251053Y-91643000D01*
X139482184Y-91556458D01*
X139541340Y-91516932D01*
X139609464Y-91356535D01*
X138938000Y-90685071D01*
X138266536Y-91356535D01*
X137070626Y-91356535D01*
X137581578Y-90845583D01*
X137581581Y-90845581D01*
X137582243Y-90844589D01*
X137918160Y-90844589D01*
X138059542Y-91222184D01*
X138099068Y-91281340D01*
X138259465Y-91349464D01*
X138930929Y-90678000D01*
X138259465Y-90006536D01*
X138099068Y-90074660D01*
X137932040Y-90441633D01*
X137918160Y-90844589D01*
X137582243Y-90844589D01*
X137671888Y-90710426D01*
X137679152Y-90673906D01*
X137703601Y-90551000D01*
X137703600Y-90550995D01*
X137703600Y-88000762D01*
X139655883Y-89953044D01*
X139655883Y-89953044D01*
G37*
X139655883Y-89953044D02*
X139609463Y-89999464D01*
X139541340Y-89839068D01*
X139174367Y-89672040D01*
X138771411Y-89658160D01*
X138393816Y-89799542D01*
X138334660Y-89839068D01*
X138266536Y-89999465D01*
X138938000Y-90670929D01*
X138952143Y-90656787D01*
X138959214Y-90663858D01*
X138945071Y-90678000D01*
X139616535Y-91349464D01*
X139776932Y-91281340D01*
X139943960Y-90914367D01*
X139957840Y-90511411D01*
X139816458Y-90133816D01*
X139776932Y-90074660D01*
X139616536Y-90006537D01*
X139662956Y-89960117D01*
X140680400Y-90977561D01*
X140680400Y-91643000D01*
X140017750Y-91643000D01*
X139939000Y-91721750D01*
X139939000Y-92578000D01*
X139959000Y-92578000D01*
X139959000Y-92588000D01*
X139939000Y-92588000D01*
X139939000Y-93444250D01*
X140017750Y-93523000D01*
X140456839Y-93523000D01*
X139610438Y-94369400D01*
X139083470Y-94369400D01*
X139047954Y-94345133D01*
X138923000Y-94319829D01*
X137315652Y-94319829D01*
X137431135Y-94204547D01*
X137525693Y-93976827D01*
X137525908Y-93730255D01*
X137442822Y-93529171D01*
X138184000Y-93529171D01*
X138300732Y-93507206D01*
X138407943Y-93438218D01*
X138479867Y-93332954D01*
X138505171Y-93208000D01*
X138505171Y-92666750D01*
X138869000Y-92666750D01*
X138869000Y-93270658D01*
X138916956Y-93386433D01*
X139005567Y-93475044D01*
X139121343Y-93523000D01*
X139850250Y-93523000D01*
X139929000Y-93444250D01*
X139929000Y-92588000D01*
X138947750Y-92588000D01*
X138869000Y-92666750D01*
X138505171Y-92666750D01*
X138505171Y-91958000D01*
X138483206Y-91841268D01*
X138414218Y-91734057D01*
X138308954Y-91662133D01*
X138184000Y-91636829D01*
X136790333Y-91636829D01*
X137070626Y-91356535D01*
X138266536Y-91356535D01*
X138334660Y-91516932D01*
X138701633Y-91683960D01*
X139002210Y-91694313D01*
X138916956Y-91779567D01*
X138869000Y-91895342D01*
X138869000Y-92499250D01*
X138947750Y-92578000D01*
X139929000Y-92578000D01*
X139929000Y-91721750D01*
X139850250Y-91643000D01*
X139251053Y-91643000D01*
X139482184Y-91556458D01*
X139541340Y-91516932D01*
X139609464Y-91356535D01*
X138938000Y-90685071D01*
X138266536Y-91356535D01*
X137070626Y-91356535D01*
X137581578Y-90845583D01*
X137581581Y-90845581D01*
X137582243Y-90844589D01*
X137918160Y-90844589D01*
X138059542Y-91222184D01*
X138099068Y-91281340D01*
X138259465Y-91349464D01*
X138930929Y-90678000D01*
X138259465Y-90006536D01*
X138099068Y-90074660D01*
X137932040Y-90441633D01*
X137918160Y-90844589D01*
X137582243Y-90844589D01*
X137671888Y-90710426D01*
X137679152Y-90673906D01*
X137703601Y-90551000D01*
X137703600Y-90550995D01*
X137703600Y-88000762D01*
X139655883Y-89953044D01*
G36*
X157264417Y-85130578D02*
X157264419Y-85130581D01*
X157364086Y-85197176D01*
X157399574Y-85220888D01*
X157472363Y-85235367D01*
X157482640Y-85287031D01*
X157738128Y-85669396D01*
X158120493Y-85924884D01*
X158571524Y-86014600D01*
X158928476Y-86014600D01*
X159379507Y-85924884D01*
X159730400Y-85690425D01*
X159730400Y-86540116D01*
X159358050Y-86289029D01*
X158907400Y-86197400D01*
X158755000Y-86197400D01*
X158755000Y-87371000D01*
X158775000Y-87371000D01*
X158775000Y-87381000D01*
X158755000Y-87381000D01*
X158755000Y-88554600D01*
X158907400Y-88554600D01*
X159358050Y-88462971D01*
X159730400Y-88211884D01*
X159730400Y-89061575D01*
X159379507Y-88827116D01*
X158928476Y-88737400D01*
X158571524Y-88737400D01*
X158120493Y-88827116D01*
X157738128Y-89082604D01*
X157482640Y-89464969D01*
X157392924Y-89916000D01*
X157482640Y-90367031D01*
X157738128Y-90749396D01*
X158120493Y-91004884D01*
X158571524Y-91094600D01*
X158928476Y-91094600D01*
X159379507Y-91004884D01*
X159730400Y-90770425D01*
X159730400Y-90819698D01*
X157007600Y-93542498D01*
X157007600Y-91267231D01*
X157007732Y-91267206D01*
X157114943Y-91198218D01*
X157186867Y-91092954D01*
X157212171Y-90968000D01*
X157212171Y-88768000D01*
X157190206Y-88651268D01*
X157121218Y-88544057D01*
X157015954Y-88472133D01*
X156891000Y-88446829D01*
X156291000Y-88446829D01*
X156174268Y-88468794D01*
X156067057Y-88537782D01*
X155995133Y-88643046D01*
X155969829Y-88768000D01*
X155969829Y-90968000D01*
X155991794Y-91084732D01*
X156060782Y-91191943D01*
X156166046Y-91263867D01*
X156174400Y-91265559D01*
X156174400Y-94249204D01*
X155155169Y-94249204D01*
X155125486Y-94099976D01*
X155035179Y-93964821D01*
X154900024Y-93874514D01*
X154740598Y-93842802D01*
X154686000Y-93842802D01*
X154526574Y-93874514D01*
X154391419Y-93964821D01*
X154301112Y-94099976D01*
X154271429Y-94249204D01*
X151449958Y-94249204D01*
X151551581Y-94147581D01*
X151641888Y-94012426D01*
X151673600Y-93853000D01*
X151673600Y-93419337D01*
X151745888Y-93527524D01*
X152091584Y-93758510D01*
X152499360Y-93839622D01*
X152907136Y-93758510D01*
X153252832Y-93527524D01*
X153483818Y-93181828D01*
X153564930Y-92774052D01*
X153564930Y-92224708D01*
X153483818Y-91816932D01*
X153252832Y-91471236D01*
X152971116Y-91283000D01*
X153143658Y-91283000D01*
X153259433Y-91235044D01*
X153348044Y-91146433D01*
X153396000Y-91030657D01*
X153396000Y-89951750D01*
X153436000Y-89951750D01*
X153436000Y-91030657D01*
X153483956Y-91146433D01*
X153572567Y-91235044D01*
X153688342Y-91283000D01*
X153967250Y-91283000D01*
X154046000Y-91204250D01*
X154046000Y-89873000D01*
X154056000Y-89873000D01*
X154056000Y-91204250D01*
X154134750Y-91283000D01*
X154413658Y-91283000D01*
X154529433Y-91235044D01*
X154618044Y-91146433D01*
X154666000Y-91030657D01*
X154666000Y-89951750D01*
X154587250Y-89873000D01*
X154056000Y-89873000D01*
X154046000Y-89873000D01*
X153514750Y-89873000D01*
X153436000Y-89951750D01*
X153396000Y-89951750D01*
X153317250Y-89873000D01*
X152786000Y-89873000D01*
X152786000Y-89893000D01*
X152776000Y-89893000D01*
X152776000Y-89873000D01*
X152244750Y-89873000D01*
X152166000Y-89951750D01*
X152166000Y-91030657D01*
X152213956Y-91146433D01*
X152271905Y-91204382D01*
X152091584Y-91240250D01*
X151745888Y-91471236D01*
X151673600Y-91579423D01*
X151673600Y-89072562D01*
X152040819Y-88705343D01*
X152166000Y-88705343D01*
X152166000Y-89784250D01*
X152244750Y-89863000D01*
X152776000Y-89863000D01*
X152776000Y-88531750D01*
X152786000Y-88531750D01*
X152786000Y-89863000D01*
X153317250Y-89863000D01*
X153396000Y-89784250D01*
X153396000Y-88705343D01*
X153436000Y-88705343D01*
X153436000Y-89784250D01*
X153514750Y-89863000D01*
X154046000Y-89863000D01*
X154046000Y-88531750D01*
X154056000Y-88531750D01*
X154056000Y-89863000D01*
X154587250Y-89863000D01*
X154666000Y-89784250D01*
X154666000Y-88768000D01*
X154699829Y-88768000D01*
X154699829Y-90968000D01*
X154721794Y-91084732D01*
X154790782Y-91191943D01*
X154896046Y-91263867D01*
X155021000Y-91289171D01*
X155621000Y-91289171D01*
X155737732Y-91267206D01*
X155844943Y-91198218D01*
X155916867Y-91092954D01*
X155942171Y-90968000D01*
X155942171Y-88768000D01*
X155920206Y-88651268D01*
X155851218Y-88544057D01*
X155745954Y-88472133D01*
X155621000Y-88446829D01*
X155021000Y-88446829D01*
X154904268Y-88468794D01*
X154797057Y-88537782D01*
X154725133Y-88643046D01*
X154699829Y-88768000D01*
X154666000Y-88768000D01*
X154666000Y-88705343D01*
X154618044Y-88589567D01*
X154529433Y-88500956D01*
X154413658Y-88453000D01*
X154134750Y-88453000D01*
X154056000Y-88531750D01*
X154046000Y-88531750D01*
X153967250Y-88453000D01*
X153688342Y-88453000D01*
X153572567Y-88500956D01*
X153483956Y-88589567D01*
X153436000Y-88705343D01*
X153396000Y-88705343D01*
X153348044Y-88589567D01*
X153259433Y-88500956D01*
X153143658Y-88453000D01*
X152864750Y-88453000D01*
X152786000Y-88531750D01*
X152776000Y-88531750D01*
X152697250Y-88453000D01*
X152418342Y-88453000D01*
X152302567Y-88500956D01*
X152213956Y-88589567D01*
X152166000Y-88705343D01*
X152040819Y-88705343D01*
X152821581Y-87924581D01*
X153180851Y-87565310D01*
X157434304Y-87565310D01*
X157506802Y-87822412D01*
X157760668Y-88205861D01*
X158141950Y-88462971D01*
X158592600Y-88554600D01*
X158745000Y-88554600D01*
X158745000Y-87381000D01*
X157497761Y-87381000D01*
X157434304Y-87565310D01*
X153180851Y-87565310D01*
X153334561Y-87411600D01*
X154813000Y-87411600D01*
X154972426Y-87379888D01*
X155107581Y-87289581D01*
X155107582Y-87289580D01*
X155210471Y-87186690D01*
X157434304Y-87186690D01*
X157497761Y-87371000D01*
X158745000Y-87371000D01*
X158745000Y-86197400D01*
X158592600Y-86197400D01*
X158141950Y-86289029D01*
X157760668Y-86546139D01*
X157506802Y-86929588D01*
X157434304Y-87186690D01*
X155210471Y-87186690D01*
X156885578Y-85511583D01*
X156885581Y-85511581D01*
X156975888Y-85376426D01*
X156978427Y-85363664D01*
X156997221Y-85269184D01*
X157007732Y-85267206D01*
X157114943Y-85198218D01*
X157186867Y-85092954D01*
X157193591Y-85059752D01*
X157264417Y-85130578D01*
X157264417Y-85130578D01*
G37*
X157264417Y-85130578D02*
X157264419Y-85130581D01*
X157364086Y-85197176D01*
X157399574Y-85220888D01*
X157472363Y-85235367D01*
X157482640Y-85287031D01*
X157738128Y-85669396D01*
X158120493Y-85924884D01*
X158571524Y-86014600D01*
X158928476Y-86014600D01*
X159379507Y-85924884D01*
X159730400Y-85690425D01*
X159730400Y-86540116D01*
X159358050Y-86289029D01*
X158907400Y-86197400D01*
X158755000Y-86197400D01*
X158755000Y-87371000D01*
X158775000Y-87371000D01*
X158775000Y-87381000D01*
X158755000Y-87381000D01*
X158755000Y-88554600D01*
X158907400Y-88554600D01*
X159358050Y-88462971D01*
X159730400Y-88211884D01*
X159730400Y-89061575D01*
X159379507Y-88827116D01*
X158928476Y-88737400D01*
X158571524Y-88737400D01*
X158120493Y-88827116D01*
X157738128Y-89082604D01*
X157482640Y-89464969D01*
X157392924Y-89916000D01*
X157482640Y-90367031D01*
X157738128Y-90749396D01*
X158120493Y-91004884D01*
X158571524Y-91094600D01*
X158928476Y-91094600D01*
X159379507Y-91004884D01*
X159730400Y-90770425D01*
X159730400Y-90819698D01*
X157007600Y-93542498D01*
X157007600Y-91267231D01*
X157007732Y-91267206D01*
X157114943Y-91198218D01*
X157186867Y-91092954D01*
X157212171Y-90968000D01*
X157212171Y-88768000D01*
X157190206Y-88651268D01*
X157121218Y-88544057D01*
X157015954Y-88472133D01*
X156891000Y-88446829D01*
X156291000Y-88446829D01*
X156174268Y-88468794D01*
X156067057Y-88537782D01*
X155995133Y-88643046D01*
X155969829Y-88768000D01*
X155969829Y-90968000D01*
X155991794Y-91084732D01*
X156060782Y-91191943D01*
X156166046Y-91263867D01*
X156174400Y-91265559D01*
X156174400Y-94249204D01*
X155155169Y-94249204D01*
X155125486Y-94099976D01*
X155035179Y-93964821D01*
X154900024Y-93874514D01*
X154740598Y-93842802D01*
X154686000Y-93842802D01*
X154526574Y-93874514D01*
X154391419Y-93964821D01*
X154301112Y-94099976D01*
X154271429Y-94249204D01*
X151449958Y-94249204D01*
X151551581Y-94147581D01*
X151641888Y-94012426D01*
X151673600Y-93853000D01*
X151673600Y-93419337D01*
X151745888Y-93527524D01*
X152091584Y-93758510D01*
X152499360Y-93839622D01*
X152907136Y-93758510D01*
X153252832Y-93527524D01*
X153483818Y-93181828D01*
X153564930Y-92774052D01*
X153564930Y-92224708D01*
X153483818Y-91816932D01*
X153252832Y-91471236D01*
X152971116Y-91283000D01*
X153143658Y-91283000D01*
X153259433Y-91235044D01*
X153348044Y-91146433D01*
X153396000Y-91030657D01*
X153396000Y-89951750D01*
X153436000Y-89951750D01*
X153436000Y-91030657D01*
X153483956Y-91146433D01*
X153572567Y-91235044D01*
X153688342Y-91283000D01*
X153967250Y-91283000D01*
X154046000Y-91204250D01*
X154046000Y-89873000D01*
X154056000Y-89873000D01*
X154056000Y-91204250D01*
X154134750Y-91283000D01*
X154413658Y-91283000D01*
X154529433Y-91235044D01*
X154618044Y-91146433D01*
X154666000Y-91030657D01*
X154666000Y-89951750D01*
X154587250Y-89873000D01*
X154056000Y-89873000D01*
X154046000Y-89873000D01*
X153514750Y-89873000D01*
X153436000Y-89951750D01*
X153396000Y-89951750D01*
X153317250Y-89873000D01*
X152786000Y-89873000D01*
X152786000Y-89893000D01*
X152776000Y-89893000D01*
X152776000Y-89873000D01*
X152244750Y-89873000D01*
X152166000Y-89951750D01*
X152166000Y-91030657D01*
X152213956Y-91146433D01*
X152271905Y-91204382D01*
X152091584Y-91240250D01*
X151745888Y-91471236D01*
X151673600Y-91579423D01*
X151673600Y-89072562D01*
X152040819Y-88705343D01*
X152166000Y-88705343D01*
X152166000Y-89784250D01*
X152244750Y-89863000D01*
X152776000Y-89863000D01*
X152776000Y-88531750D01*
X152786000Y-88531750D01*
X152786000Y-89863000D01*
X153317250Y-89863000D01*
X153396000Y-89784250D01*
X153396000Y-88705343D01*
X153436000Y-88705343D01*
X153436000Y-89784250D01*
X153514750Y-89863000D01*
X154046000Y-89863000D01*
X154046000Y-88531750D01*
X154056000Y-88531750D01*
X154056000Y-89863000D01*
X154587250Y-89863000D01*
X154666000Y-89784250D01*
X154666000Y-88768000D01*
X154699829Y-88768000D01*
X154699829Y-90968000D01*
X154721794Y-91084732D01*
X154790782Y-91191943D01*
X154896046Y-91263867D01*
X155021000Y-91289171D01*
X155621000Y-91289171D01*
X155737732Y-91267206D01*
X155844943Y-91198218D01*
X155916867Y-91092954D01*
X155942171Y-90968000D01*
X155942171Y-88768000D01*
X155920206Y-88651268D01*
X155851218Y-88544057D01*
X155745954Y-88472133D01*
X155621000Y-88446829D01*
X155021000Y-88446829D01*
X154904268Y-88468794D01*
X154797057Y-88537782D01*
X154725133Y-88643046D01*
X154699829Y-88768000D01*
X154666000Y-88768000D01*
X154666000Y-88705343D01*
X154618044Y-88589567D01*
X154529433Y-88500956D01*
X154413658Y-88453000D01*
X154134750Y-88453000D01*
X154056000Y-88531750D01*
X154046000Y-88531750D01*
X153967250Y-88453000D01*
X153688342Y-88453000D01*
X153572567Y-88500956D01*
X153483956Y-88589567D01*
X153436000Y-88705343D01*
X153396000Y-88705343D01*
X153348044Y-88589567D01*
X153259433Y-88500956D01*
X153143658Y-88453000D01*
X152864750Y-88453000D01*
X152786000Y-88531750D01*
X152776000Y-88531750D01*
X152697250Y-88453000D01*
X152418342Y-88453000D01*
X152302567Y-88500956D01*
X152213956Y-88589567D01*
X152166000Y-88705343D01*
X152040819Y-88705343D01*
X152821581Y-87924581D01*
X153180851Y-87565310D01*
X157434304Y-87565310D01*
X157506802Y-87822412D01*
X157760668Y-88205861D01*
X158141950Y-88462971D01*
X158592600Y-88554600D01*
X158745000Y-88554600D01*
X158745000Y-87381000D01*
X157497761Y-87381000D01*
X157434304Y-87565310D01*
X153180851Y-87565310D01*
X153334561Y-87411600D01*
X154813000Y-87411600D01*
X154972426Y-87379888D01*
X155107581Y-87289581D01*
X155107582Y-87289580D01*
X155210471Y-87186690D01*
X157434304Y-87186690D01*
X157497761Y-87371000D01*
X158745000Y-87371000D01*
X158745000Y-86197400D01*
X158592600Y-86197400D01*
X158141950Y-86289029D01*
X157760668Y-86546139D01*
X157506802Y-86929588D01*
X157434304Y-87186690D01*
X155210471Y-87186690D01*
X156885578Y-85511583D01*
X156885581Y-85511581D01*
X156975888Y-85376426D01*
X156978427Y-85363664D01*
X156997221Y-85269184D01*
X157007732Y-85267206D01*
X157114943Y-85198218D01*
X157186867Y-85092954D01*
X157193591Y-85059752D01*
X157264417Y-85130578D01*
G36*
X142676604Y-76359514D02*
X142421116Y-76741879D01*
X142331400Y-77192910D01*
X142331400Y-77239090D01*
X142421116Y-77690121D01*
X142676604Y-78072486D01*
X143058969Y-78327974D01*
X143510000Y-78417690D01*
X143961031Y-78327974D01*
X144343396Y-78072486D01*
X144598884Y-77690121D01*
X144688600Y-77239090D01*
X144688600Y-77192910D01*
X144598884Y-76741879D01*
X144343396Y-76359514D01*
X143967876Y-76108600D01*
X145592124Y-76108600D01*
X145216604Y-76359514D01*
X144961116Y-76741879D01*
X144871400Y-77192910D01*
X144871400Y-77239090D01*
X144961116Y-77690121D01*
X145216604Y-78072486D01*
X145598969Y-78327974D01*
X146050000Y-78417690D01*
X146501031Y-78327974D01*
X146883396Y-78072486D01*
X147138884Y-77690121D01*
X147228600Y-77239090D01*
X147228600Y-77192910D01*
X147138884Y-76741879D01*
X146883396Y-76359514D01*
X146507876Y-76108600D01*
X148132124Y-76108600D01*
X147756604Y-76359514D01*
X147501116Y-76741879D01*
X147411400Y-77192910D01*
X147411400Y-77239090D01*
X147501116Y-77690121D01*
X147756604Y-78072486D01*
X148138969Y-78327974D01*
X148590000Y-78417690D01*
X149041031Y-78327974D01*
X149423396Y-78072486D01*
X149443400Y-78042548D01*
X149443400Y-78486000D01*
X149475112Y-78645426D01*
X149565419Y-78780581D01*
X150051370Y-79266532D01*
X150041116Y-79281879D01*
X149951400Y-79732910D01*
X149951400Y-79779090D01*
X150041116Y-80230121D01*
X150296604Y-80612486D01*
X150678969Y-80867974D01*
X151130000Y-80957690D01*
X151581031Y-80867974D01*
X151963396Y-80612486D01*
X152218884Y-80230121D01*
X152308600Y-79779090D01*
X152308600Y-79732910D01*
X152218884Y-79281879D01*
X151963396Y-78899514D01*
X151581031Y-78644026D01*
X151130000Y-78554310D01*
X150678969Y-78644026D01*
X150635939Y-78672777D01*
X150276600Y-78313438D01*
X150276600Y-78042548D01*
X150296604Y-78072486D01*
X150678969Y-78327974D01*
X151130000Y-78417690D01*
X151581031Y-78327974D01*
X151963396Y-78072486D01*
X151983400Y-78042548D01*
X151983400Y-78486000D01*
X152015112Y-78645426D01*
X152105419Y-78780581D01*
X152591370Y-79266532D01*
X152581116Y-79281879D01*
X152491400Y-79732910D01*
X152491400Y-79779090D01*
X152581116Y-80230121D01*
X152836604Y-80612486D01*
X153218969Y-80867974D01*
X153670000Y-80957690D01*
X154121031Y-80867974D01*
X154503396Y-80612486D01*
X154758884Y-80230121D01*
X154848600Y-79779090D01*
X154848600Y-79732910D01*
X154758884Y-79281879D01*
X154503396Y-78899514D01*
X154121031Y-78644026D01*
X153670000Y-78554310D01*
X153218969Y-78644026D01*
X153175939Y-78672777D01*
X152816600Y-78313438D01*
X152816600Y-78042548D01*
X152836604Y-78072486D01*
X153218969Y-78327974D01*
X153670000Y-78417690D01*
X154121031Y-78327974D01*
X154503396Y-78072486D01*
X154523400Y-78042548D01*
X154523400Y-78486000D01*
X154555112Y-78645426D01*
X154645419Y-78780581D01*
X155131370Y-79266532D01*
X155121116Y-79281879D01*
X155031400Y-79732910D01*
X155031400Y-79779090D01*
X155121116Y-80230121D01*
X155374542Y-80609400D01*
X155321000Y-80609400D01*
X155161574Y-80641112D01*
X155026419Y-80731419D01*
X153756419Y-82001419D01*
X153666112Y-82136574D01*
X153634400Y-82296000D01*
X153634400Y-82468769D01*
X153634268Y-82468794D01*
X153527057Y-82537782D01*
X153455133Y-82643046D01*
X153429829Y-82768000D01*
X153429829Y-84968000D01*
X153451794Y-85084732D01*
X153520782Y-85191943D01*
X153626046Y-85263867D01*
X153751000Y-85289171D01*
X154351000Y-85289171D01*
X154467732Y-85267206D01*
X154574943Y-85198218D01*
X154646867Y-85092954D01*
X154672171Y-84968000D01*
X154672171Y-83951750D01*
X154706000Y-83951750D01*
X154706000Y-85030657D01*
X154753956Y-85146433D01*
X154842567Y-85235044D01*
X154958342Y-85283000D01*
X155237250Y-85283000D01*
X155316000Y-85204250D01*
X155316000Y-83873000D01*
X155326000Y-83873000D01*
X155326000Y-85204250D01*
X155404750Y-85283000D01*
X155683658Y-85283000D01*
X155799433Y-85235044D01*
X155888044Y-85146433D01*
X155936000Y-85030657D01*
X155936000Y-83951750D01*
X155857250Y-83873000D01*
X155326000Y-83873000D01*
X155316000Y-83873000D01*
X154784750Y-83873000D01*
X154706000Y-83951750D01*
X154672171Y-83951750D01*
X154672171Y-82768000D01*
X154660382Y-82705343D01*
X154706000Y-82705343D01*
X154706000Y-83784250D01*
X154784750Y-83863000D01*
X155316000Y-83863000D01*
X155316000Y-82531750D01*
X155326000Y-82531750D01*
X155326000Y-83863000D01*
X155857250Y-83863000D01*
X155936000Y-83784250D01*
X155936000Y-82705343D01*
X155888044Y-82589567D01*
X155799433Y-82500956D01*
X155683658Y-82453000D01*
X155404750Y-82453000D01*
X155326000Y-82531750D01*
X155316000Y-82531750D01*
X155237250Y-82453000D01*
X154958342Y-82453000D01*
X154842567Y-82500956D01*
X154753956Y-82589567D01*
X154706000Y-82705343D01*
X154660382Y-82705343D01*
X154650206Y-82651268D01*
X154581218Y-82544057D01*
X154475954Y-82472133D01*
X154467600Y-82470441D01*
X154467600Y-82468562D01*
X155493562Y-81442600D01*
X157412829Y-81442600D01*
X157412829Y-83159600D01*
X157434794Y-83276332D01*
X157503782Y-83383543D01*
X157609046Y-83455467D01*
X157734000Y-83480771D01*
X159345610Y-83480771D01*
X159730400Y-83865561D01*
X159730400Y-83981575D01*
X159379507Y-83747116D01*
X158928476Y-83657400D01*
X158571524Y-83657400D01*
X158120493Y-83747116D01*
X157738128Y-84002604D01*
X157568553Y-84256391D01*
X157212171Y-83900009D01*
X157212171Y-82768000D01*
X157190206Y-82651268D01*
X157121218Y-82544057D01*
X157015954Y-82472133D01*
X156891000Y-82446829D01*
X156291000Y-82446829D01*
X156174268Y-82468794D01*
X156067057Y-82537782D01*
X155995133Y-82643046D01*
X155969829Y-82768000D01*
X155969829Y-84968000D01*
X155991794Y-85084732D01*
X156047514Y-85171324D01*
X154640438Y-86578400D01*
X153162005Y-86578400D01*
X153162000Y-86578399D01*
X153032044Y-86604250D01*
X153002574Y-86610112D01*
X152867419Y-86700419D01*
X152867417Y-86700422D01*
X152232419Y-87335419D01*
X150962419Y-88605419D01*
X150872112Y-88740574D01*
X150840400Y-88900000D01*
X150840400Y-91627476D01*
X150749936Y-91493453D01*
X150403156Y-91264089D01*
X150171628Y-91198803D01*
X150005000Y-91263653D01*
X150005000Y-92494380D01*
X150025000Y-92494380D01*
X150025000Y-92504380D01*
X150005000Y-92504380D01*
X150005000Y-93735107D01*
X150171628Y-93799957D01*
X150403156Y-93734671D01*
X150749936Y-93505307D01*
X150840400Y-93371284D01*
X150840400Y-93680438D01*
X150678036Y-93842802D01*
X144332778Y-93842802D01*
X144173352Y-93874514D01*
X144038197Y-93964821D01*
X144038195Y-93964824D01*
X143952012Y-94051007D01*
X143952012Y-92224708D01*
X146435070Y-92224708D01*
X146435070Y-92774052D01*
X146516182Y-93181828D01*
X146747168Y-93527524D01*
X147092864Y-93758510D01*
X147500640Y-93839622D01*
X147908416Y-93758510D01*
X148254112Y-93527524D01*
X148485098Y-93181828D01*
X148566210Y-92774052D01*
X148566210Y-92504380D01*
X148934430Y-92504380D01*
X148934430Y-92753300D01*
X149017455Y-93160695D01*
X149250064Y-93505307D01*
X149596844Y-93734671D01*
X149828372Y-93799957D01*
X149995000Y-93735107D01*
X149995000Y-92504380D01*
X148934430Y-92504380D01*
X148566210Y-92504380D01*
X148566210Y-92245460D01*
X148934430Y-92245460D01*
X148934430Y-92494380D01*
X149995000Y-92494380D01*
X149995000Y-91263653D01*
X149828372Y-91198803D01*
X149596844Y-91264089D01*
X149250064Y-91493453D01*
X149017455Y-91838065D01*
X148934430Y-92245460D01*
X148566210Y-92245460D01*
X148566210Y-92224708D01*
X148485098Y-91816932D01*
X148254112Y-91471236D01*
X147908416Y-91240250D01*
X147500640Y-91159138D01*
X147092864Y-91240250D01*
X146747168Y-91471236D01*
X146516182Y-91816932D01*
X146435070Y-92224708D01*
X143952012Y-92224708D01*
X143952012Y-89794977D01*
X143952013Y-89794972D01*
X143920300Y-89635546D01*
X143829993Y-89500391D01*
X141261352Y-86931750D01*
X149936000Y-86931750D01*
X149936000Y-87660657D01*
X149983956Y-87776433D01*
X150072567Y-87865044D01*
X150188342Y-87913000D01*
X150792250Y-87913000D01*
X150871000Y-87834250D01*
X150871000Y-86853000D01*
X150881000Y-86853000D01*
X150881000Y-87834250D01*
X150959750Y-87913000D01*
X151563658Y-87913000D01*
X151679433Y-87865044D01*
X151768044Y-87776433D01*
X151816000Y-87660657D01*
X151816000Y-86931750D01*
X151737250Y-86853000D01*
X150881000Y-86853000D01*
X150871000Y-86853000D01*
X150014750Y-86853000D01*
X149936000Y-86931750D01*
X141261352Y-86931750D01*
X140364945Y-86035343D01*
X149936000Y-86035343D01*
X149936000Y-86764250D01*
X150014750Y-86843000D01*
X150871000Y-86843000D01*
X150871000Y-85861750D01*
X150881000Y-85861750D01*
X150881000Y-86843000D01*
X151737250Y-86843000D01*
X151816000Y-86764250D01*
X151816000Y-86035343D01*
X151768044Y-85919567D01*
X151679433Y-85830956D01*
X151563658Y-85783000D01*
X150959750Y-85783000D01*
X150881000Y-85861750D01*
X150871000Y-85861750D01*
X150792250Y-85783000D01*
X150188342Y-85783000D01*
X150072567Y-85830956D01*
X149983956Y-85919567D01*
X149936000Y-86035343D01*
X140364945Y-86035343D01*
X138262414Y-83932812D01*
X138262414Y-83740659D01*
X138266537Y-83736536D01*
X138334660Y-83896932D01*
X138701633Y-84063960D01*
X139104589Y-84077840D01*
X139482184Y-83936458D01*
X139541340Y-83896932D01*
X139609464Y-83736535D01*
X138938000Y-83065071D01*
X138923858Y-83079214D01*
X138916787Y-83072143D01*
X138930929Y-83058000D01*
X138945071Y-83058000D01*
X139616535Y-83729464D01*
X139776932Y-83661340D01*
X139805761Y-83598000D01*
X149929829Y-83598000D01*
X149929829Y-85098000D01*
X149951794Y-85214732D01*
X150020782Y-85321943D01*
X150126046Y-85393867D01*
X150251000Y-85419171D01*
X151501000Y-85419171D01*
X151617732Y-85397206D01*
X151724943Y-85328218D01*
X151796867Y-85222954D01*
X151822171Y-85098000D01*
X151822171Y-84866200D01*
X152159829Y-84866200D01*
X152159829Y-84968000D01*
X152181794Y-85084732D01*
X152238868Y-85173428D01*
X152176370Y-85199252D01*
X152001865Y-85373453D01*
X151907307Y-85601173D01*
X151907092Y-85847745D01*
X152001252Y-86075630D01*
X152175453Y-86250135D01*
X152403173Y-86344693D01*
X152649745Y-86344908D01*
X152877630Y-86250748D01*
X153052135Y-86076547D01*
X153146693Y-85848827D01*
X153146702Y-85838144D01*
X153147423Y-85837423D01*
X153217848Y-85732024D01*
X153259754Y-85669307D01*
X153299200Y-85471000D01*
X153299200Y-85201913D01*
X153304943Y-85198218D01*
X153376867Y-85092954D01*
X153402171Y-84968000D01*
X153402171Y-82768000D01*
X153380206Y-82651268D01*
X153311218Y-82544057D01*
X153205954Y-82472133D01*
X153081000Y-82446829D01*
X152481000Y-82446829D01*
X152364268Y-82468794D01*
X152257057Y-82537782D01*
X152185133Y-82643046D01*
X152159829Y-82768000D01*
X152159829Y-83756325D01*
X152086354Y-83829800D01*
X151822171Y-83829800D01*
X151822171Y-83598000D01*
X151800206Y-83481268D01*
X151731218Y-83374057D01*
X151625954Y-83302133D01*
X151501000Y-83276829D01*
X150251000Y-83276829D01*
X150134268Y-83298794D01*
X150027057Y-83367782D01*
X149955133Y-83473046D01*
X149929829Y-83598000D01*
X139805761Y-83598000D01*
X139943960Y-83294367D01*
X139957840Y-82891411D01*
X139816458Y-82513816D01*
X139776932Y-82454660D01*
X139616535Y-82386536D01*
X138945071Y-83058000D01*
X138930929Y-83058000D01*
X138916787Y-83043858D01*
X138923858Y-83036787D01*
X138938000Y-83050929D01*
X139609464Y-82379465D01*
X139541340Y-82219068D01*
X139174367Y-82052040D01*
X138771411Y-82038160D01*
X138393816Y-82179542D01*
X138334660Y-82219068D01*
X138266537Y-82379464D01*
X138262414Y-82375341D01*
X138262414Y-79732910D01*
X139791400Y-79732910D01*
X139791400Y-79779090D01*
X139881116Y-80230121D01*
X140136604Y-80612486D01*
X140518969Y-80867974D01*
X140970000Y-80957690D01*
X141421031Y-80867974D01*
X141803396Y-80612486D01*
X142058884Y-80230121D01*
X142148600Y-79779090D01*
X142148600Y-79732910D01*
X142331400Y-79732910D01*
X142331400Y-79779090D01*
X142421116Y-80230121D01*
X142676604Y-80612486D01*
X143058969Y-80867974D01*
X143510000Y-80957690D01*
X143961031Y-80867974D01*
X144343396Y-80612486D01*
X144598884Y-80230121D01*
X144688600Y-79779090D01*
X144688600Y-79732910D01*
X144871400Y-79732910D01*
X144871400Y-79779090D01*
X144961116Y-80230121D01*
X145216604Y-80612486D01*
X145598969Y-80867974D01*
X146050000Y-80957690D01*
X146501031Y-80867974D01*
X146883396Y-80612486D01*
X147138884Y-80230121D01*
X147228600Y-79779090D01*
X147228600Y-79732910D01*
X147411400Y-79732910D01*
X147411400Y-79779090D01*
X147501116Y-80230121D01*
X147756604Y-80612486D01*
X148138969Y-80867974D01*
X148590000Y-80957690D01*
X149041031Y-80867974D01*
X149423396Y-80612486D01*
X149678884Y-80230121D01*
X149768600Y-79779090D01*
X149768600Y-79732910D01*
X149678884Y-79281879D01*
X149423396Y-78899514D01*
X149041031Y-78644026D01*
X148590000Y-78554310D01*
X148138969Y-78644026D01*
X147756604Y-78899514D01*
X147501116Y-79281879D01*
X147411400Y-79732910D01*
X147228600Y-79732910D01*
X147138884Y-79281879D01*
X146883396Y-78899514D01*
X146501031Y-78644026D01*
X146050000Y-78554310D01*
X145598969Y-78644026D01*
X145216604Y-78899514D01*
X144961116Y-79281879D01*
X144871400Y-79732910D01*
X144688600Y-79732910D01*
X144598884Y-79281879D01*
X144343396Y-78899514D01*
X143961031Y-78644026D01*
X143510000Y-78554310D01*
X143058969Y-78644026D01*
X142676604Y-78899514D01*
X142421116Y-79281879D01*
X142331400Y-79732910D01*
X142148600Y-79732910D01*
X142058884Y-79281879D01*
X141803396Y-78899514D01*
X141421031Y-78644026D01*
X140970000Y-78554310D01*
X140518969Y-78644026D01*
X140136604Y-78899514D01*
X139881116Y-79281879D01*
X139791400Y-79732910D01*
X138262414Y-79732910D01*
X138262414Y-77845748D01*
X139792712Y-76315450D01*
X139785229Y-76352400D01*
X139785229Y-78079600D01*
X139807194Y-78196332D01*
X139876182Y-78303543D01*
X139981446Y-78375467D01*
X140106400Y-78400771D01*
X141833600Y-78400771D01*
X141950332Y-78378806D01*
X142057543Y-78309818D01*
X142129467Y-78204554D01*
X142154771Y-78079600D01*
X142154771Y-76352400D01*
X142132806Y-76235668D01*
X142063818Y-76128457D01*
X142034756Y-76108600D01*
X143052124Y-76108600D01*
X142676604Y-76359514D01*
X142676604Y-76359514D01*
G37*
X142676604Y-76359514D02*
X142421116Y-76741879D01*
X142331400Y-77192910D01*
X142331400Y-77239090D01*
X142421116Y-77690121D01*
X142676604Y-78072486D01*
X143058969Y-78327974D01*
X143510000Y-78417690D01*
X143961031Y-78327974D01*
X144343396Y-78072486D01*
X144598884Y-77690121D01*
X144688600Y-77239090D01*
X144688600Y-77192910D01*
X144598884Y-76741879D01*
X144343396Y-76359514D01*
X143967876Y-76108600D01*
X145592124Y-76108600D01*
X145216604Y-76359514D01*
X144961116Y-76741879D01*
X144871400Y-77192910D01*
X144871400Y-77239090D01*
X144961116Y-77690121D01*
X145216604Y-78072486D01*
X145598969Y-78327974D01*
X146050000Y-78417690D01*
X146501031Y-78327974D01*
X146883396Y-78072486D01*
X147138884Y-77690121D01*
X147228600Y-77239090D01*
X147228600Y-77192910D01*
X147138884Y-76741879D01*
X146883396Y-76359514D01*
X146507876Y-76108600D01*
X148132124Y-76108600D01*
X147756604Y-76359514D01*
X147501116Y-76741879D01*
X147411400Y-77192910D01*
X147411400Y-77239090D01*
X147501116Y-77690121D01*
X147756604Y-78072486D01*
X148138969Y-78327974D01*
X148590000Y-78417690D01*
X149041031Y-78327974D01*
X149423396Y-78072486D01*
X149443400Y-78042548D01*
X149443400Y-78486000D01*
X149475112Y-78645426D01*
X149565419Y-78780581D01*
X150051370Y-79266532D01*
X150041116Y-79281879D01*
X149951400Y-79732910D01*
X149951400Y-79779090D01*
X150041116Y-80230121D01*
X150296604Y-80612486D01*
X150678969Y-80867974D01*
X151130000Y-80957690D01*
X151581031Y-80867974D01*
X151963396Y-80612486D01*
X152218884Y-80230121D01*
X152308600Y-79779090D01*
X152308600Y-79732910D01*
X152218884Y-79281879D01*
X151963396Y-78899514D01*
X151581031Y-78644026D01*
X151130000Y-78554310D01*
X150678969Y-78644026D01*
X150635939Y-78672777D01*
X150276600Y-78313438D01*
X150276600Y-78042548D01*
X150296604Y-78072486D01*
X150678969Y-78327974D01*
X151130000Y-78417690D01*
X151581031Y-78327974D01*
X151963396Y-78072486D01*
X151983400Y-78042548D01*
X151983400Y-78486000D01*
X152015112Y-78645426D01*
X152105419Y-78780581D01*
X152591370Y-79266532D01*
X152581116Y-79281879D01*
X152491400Y-79732910D01*
X152491400Y-79779090D01*
X152581116Y-80230121D01*
X152836604Y-80612486D01*
X153218969Y-80867974D01*
X153670000Y-80957690D01*
X154121031Y-80867974D01*
X154503396Y-80612486D01*
X154758884Y-80230121D01*
X154848600Y-79779090D01*
X154848600Y-79732910D01*
X154758884Y-79281879D01*
X154503396Y-78899514D01*
X154121031Y-78644026D01*
X153670000Y-78554310D01*
X153218969Y-78644026D01*
X153175939Y-78672777D01*
X152816600Y-78313438D01*
X152816600Y-78042548D01*
X152836604Y-78072486D01*
X153218969Y-78327974D01*
X153670000Y-78417690D01*
X154121031Y-78327974D01*
X154503396Y-78072486D01*
X154523400Y-78042548D01*
X154523400Y-78486000D01*
X154555112Y-78645426D01*
X154645419Y-78780581D01*
X155131370Y-79266532D01*
X155121116Y-79281879D01*
X155031400Y-79732910D01*
X155031400Y-79779090D01*
X155121116Y-80230121D01*
X155374542Y-80609400D01*
X155321000Y-80609400D01*
X155161574Y-80641112D01*
X155026419Y-80731419D01*
X153756419Y-82001419D01*
X153666112Y-82136574D01*
X153634400Y-82296000D01*
X153634400Y-82468769D01*
X153634268Y-82468794D01*
X153527057Y-82537782D01*
X153455133Y-82643046D01*
X153429829Y-82768000D01*
X153429829Y-84968000D01*
X153451794Y-85084732D01*
X153520782Y-85191943D01*
X153626046Y-85263867D01*
X153751000Y-85289171D01*
X154351000Y-85289171D01*
X154467732Y-85267206D01*
X154574943Y-85198218D01*
X154646867Y-85092954D01*
X154672171Y-84968000D01*
X154672171Y-83951750D01*
X154706000Y-83951750D01*
X154706000Y-85030657D01*
X154753956Y-85146433D01*
X154842567Y-85235044D01*
X154958342Y-85283000D01*
X155237250Y-85283000D01*
X155316000Y-85204250D01*
X155316000Y-83873000D01*
X155326000Y-83873000D01*
X155326000Y-85204250D01*
X155404750Y-85283000D01*
X155683658Y-85283000D01*
X155799433Y-85235044D01*
X155888044Y-85146433D01*
X155936000Y-85030657D01*
X155936000Y-83951750D01*
X155857250Y-83873000D01*
X155326000Y-83873000D01*
X155316000Y-83873000D01*
X154784750Y-83873000D01*
X154706000Y-83951750D01*
X154672171Y-83951750D01*
X154672171Y-82768000D01*
X154660382Y-82705343D01*
X154706000Y-82705343D01*
X154706000Y-83784250D01*
X154784750Y-83863000D01*
X155316000Y-83863000D01*
X155316000Y-82531750D01*
X155326000Y-82531750D01*
X155326000Y-83863000D01*
X155857250Y-83863000D01*
X155936000Y-83784250D01*
X155936000Y-82705343D01*
X155888044Y-82589567D01*
X155799433Y-82500956D01*
X155683658Y-82453000D01*
X155404750Y-82453000D01*
X155326000Y-82531750D01*
X155316000Y-82531750D01*
X155237250Y-82453000D01*
X154958342Y-82453000D01*
X154842567Y-82500956D01*
X154753956Y-82589567D01*
X154706000Y-82705343D01*
X154660382Y-82705343D01*
X154650206Y-82651268D01*
X154581218Y-82544057D01*
X154475954Y-82472133D01*
X154467600Y-82470441D01*
X154467600Y-82468562D01*
X155493562Y-81442600D01*
X157412829Y-81442600D01*
X157412829Y-83159600D01*
X157434794Y-83276332D01*
X157503782Y-83383543D01*
X157609046Y-83455467D01*
X157734000Y-83480771D01*
X159345610Y-83480771D01*
X159730400Y-83865561D01*
X159730400Y-83981575D01*
X159379507Y-83747116D01*
X158928476Y-83657400D01*
X158571524Y-83657400D01*
X158120493Y-83747116D01*
X157738128Y-84002604D01*
X157568553Y-84256391D01*
X157212171Y-83900009D01*
X157212171Y-82768000D01*
X157190206Y-82651268D01*
X157121218Y-82544057D01*
X157015954Y-82472133D01*
X156891000Y-82446829D01*
X156291000Y-82446829D01*
X156174268Y-82468794D01*
X156067057Y-82537782D01*
X155995133Y-82643046D01*
X155969829Y-82768000D01*
X155969829Y-84968000D01*
X155991794Y-85084732D01*
X156047514Y-85171324D01*
X154640438Y-86578400D01*
X153162005Y-86578400D01*
X153162000Y-86578399D01*
X153032044Y-86604250D01*
X153002574Y-86610112D01*
X152867419Y-86700419D01*
X152867417Y-86700422D01*
X152232419Y-87335419D01*
X150962419Y-88605419D01*
X150872112Y-88740574D01*
X150840400Y-88900000D01*
X150840400Y-91627476D01*
X150749936Y-91493453D01*
X150403156Y-91264089D01*
X150171628Y-91198803D01*
X150005000Y-91263653D01*
X150005000Y-92494380D01*
X150025000Y-92494380D01*
X150025000Y-92504380D01*
X150005000Y-92504380D01*
X150005000Y-93735107D01*
X150171628Y-93799957D01*
X150403156Y-93734671D01*
X150749936Y-93505307D01*
X150840400Y-93371284D01*
X150840400Y-93680438D01*
X150678036Y-93842802D01*
X144332778Y-93842802D01*
X144173352Y-93874514D01*
X144038197Y-93964821D01*
X144038195Y-93964824D01*
X143952012Y-94051007D01*
X143952012Y-92224708D01*
X146435070Y-92224708D01*
X146435070Y-92774052D01*
X146516182Y-93181828D01*
X146747168Y-93527524D01*
X147092864Y-93758510D01*
X147500640Y-93839622D01*
X147908416Y-93758510D01*
X148254112Y-93527524D01*
X148485098Y-93181828D01*
X148566210Y-92774052D01*
X148566210Y-92504380D01*
X148934430Y-92504380D01*
X148934430Y-92753300D01*
X149017455Y-93160695D01*
X149250064Y-93505307D01*
X149596844Y-93734671D01*
X149828372Y-93799957D01*
X149995000Y-93735107D01*
X149995000Y-92504380D01*
X148934430Y-92504380D01*
X148566210Y-92504380D01*
X148566210Y-92245460D01*
X148934430Y-92245460D01*
X148934430Y-92494380D01*
X149995000Y-92494380D01*
X149995000Y-91263653D01*
X149828372Y-91198803D01*
X149596844Y-91264089D01*
X149250064Y-91493453D01*
X149017455Y-91838065D01*
X148934430Y-92245460D01*
X148566210Y-92245460D01*
X148566210Y-92224708D01*
X148485098Y-91816932D01*
X148254112Y-91471236D01*
X147908416Y-91240250D01*
X147500640Y-91159138D01*
X147092864Y-91240250D01*
X146747168Y-91471236D01*
X146516182Y-91816932D01*
X146435070Y-92224708D01*
X143952012Y-92224708D01*
X143952012Y-89794977D01*
X143952013Y-89794972D01*
X143920300Y-89635546D01*
X143829993Y-89500391D01*
X141261352Y-86931750D01*
X149936000Y-86931750D01*
X149936000Y-87660657D01*
X149983956Y-87776433D01*
X150072567Y-87865044D01*
X150188342Y-87913000D01*
X150792250Y-87913000D01*
X150871000Y-87834250D01*
X150871000Y-86853000D01*
X150881000Y-86853000D01*
X150881000Y-87834250D01*
X150959750Y-87913000D01*
X151563658Y-87913000D01*
X151679433Y-87865044D01*
X151768044Y-87776433D01*
X151816000Y-87660657D01*
X151816000Y-86931750D01*
X151737250Y-86853000D01*
X150881000Y-86853000D01*
X150871000Y-86853000D01*
X150014750Y-86853000D01*
X149936000Y-86931750D01*
X141261352Y-86931750D01*
X140364945Y-86035343D01*
X149936000Y-86035343D01*
X149936000Y-86764250D01*
X150014750Y-86843000D01*
X150871000Y-86843000D01*
X150871000Y-85861750D01*
X150881000Y-85861750D01*
X150881000Y-86843000D01*
X151737250Y-86843000D01*
X151816000Y-86764250D01*
X151816000Y-86035343D01*
X151768044Y-85919567D01*
X151679433Y-85830956D01*
X151563658Y-85783000D01*
X150959750Y-85783000D01*
X150881000Y-85861750D01*
X150871000Y-85861750D01*
X150792250Y-85783000D01*
X150188342Y-85783000D01*
X150072567Y-85830956D01*
X149983956Y-85919567D01*
X149936000Y-86035343D01*
X140364945Y-86035343D01*
X138262414Y-83932812D01*
X138262414Y-83740659D01*
X138266537Y-83736536D01*
X138334660Y-83896932D01*
X138701633Y-84063960D01*
X139104589Y-84077840D01*
X139482184Y-83936458D01*
X139541340Y-83896932D01*
X139609464Y-83736535D01*
X138938000Y-83065071D01*
X138923858Y-83079214D01*
X138916787Y-83072143D01*
X138930929Y-83058000D01*
X138945071Y-83058000D01*
X139616535Y-83729464D01*
X139776932Y-83661340D01*
X139805761Y-83598000D01*
X149929829Y-83598000D01*
X149929829Y-85098000D01*
X149951794Y-85214732D01*
X150020782Y-85321943D01*
X150126046Y-85393867D01*
X150251000Y-85419171D01*
X151501000Y-85419171D01*
X151617732Y-85397206D01*
X151724943Y-85328218D01*
X151796867Y-85222954D01*
X151822171Y-85098000D01*
X151822171Y-84866200D01*
X152159829Y-84866200D01*
X152159829Y-84968000D01*
X152181794Y-85084732D01*
X152238868Y-85173428D01*
X152176370Y-85199252D01*
X152001865Y-85373453D01*
X151907307Y-85601173D01*
X151907092Y-85847745D01*
X152001252Y-86075630D01*
X152175453Y-86250135D01*
X152403173Y-86344693D01*
X152649745Y-86344908D01*
X152877630Y-86250748D01*
X153052135Y-86076547D01*
X153146693Y-85848827D01*
X153146702Y-85838144D01*
X153147423Y-85837423D01*
X153217848Y-85732024D01*
X153259754Y-85669307D01*
X153299200Y-85471000D01*
X153299200Y-85201913D01*
X153304943Y-85198218D01*
X153376867Y-85092954D01*
X153402171Y-84968000D01*
X153402171Y-82768000D01*
X153380206Y-82651268D01*
X153311218Y-82544057D01*
X153205954Y-82472133D01*
X153081000Y-82446829D01*
X152481000Y-82446829D01*
X152364268Y-82468794D01*
X152257057Y-82537782D01*
X152185133Y-82643046D01*
X152159829Y-82768000D01*
X152159829Y-83756325D01*
X152086354Y-83829800D01*
X151822171Y-83829800D01*
X151822171Y-83598000D01*
X151800206Y-83481268D01*
X151731218Y-83374057D01*
X151625954Y-83302133D01*
X151501000Y-83276829D01*
X150251000Y-83276829D01*
X150134268Y-83298794D01*
X150027057Y-83367782D01*
X149955133Y-83473046D01*
X149929829Y-83598000D01*
X139805761Y-83598000D01*
X139943960Y-83294367D01*
X139957840Y-82891411D01*
X139816458Y-82513816D01*
X139776932Y-82454660D01*
X139616535Y-82386536D01*
X138945071Y-83058000D01*
X138930929Y-83058000D01*
X138916787Y-83043858D01*
X138923858Y-83036787D01*
X138938000Y-83050929D01*
X139609464Y-82379465D01*
X139541340Y-82219068D01*
X139174367Y-82052040D01*
X138771411Y-82038160D01*
X138393816Y-82179542D01*
X138334660Y-82219068D01*
X138266537Y-82379464D01*
X138262414Y-82375341D01*
X138262414Y-79732910D01*
X139791400Y-79732910D01*
X139791400Y-79779090D01*
X139881116Y-80230121D01*
X140136604Y-80612486D01*
X140518969Y-80867974D01*
X140970000Y-80957690D01*
X141421031Y-80867974D01*
X141803396Y-80612486D01*
X142058884Y-80230121D01*
X142148600Y-79779090D01*
X142148600Y-79732910D01*
X142331400Y-79732910D01*
X142331400Y-79779090D01*
X142421116Y-80230121D01*
X142676604Y-80612486D01*
X143058969Y-80867974D01*
X143510000Y-80957690D01*
X143961031Y-80867974D01*
X144343396Y-80612486D01*
X144598884Y-80230121D01*
X144688600Y-79779090D01*
X144688600Y-79732910D01*
X144871400Y-79732910D01*
X144871400Y-79779090D01*
X144961116Y-80230121D01*
X145216604Y-80612486D01*
X145598969Y-80867974D01*
X146050000Y-80957690D01*
X146501031Y-80867974D01*
X146883396Y-80612486D01*
X147138884Y-80230121D01*
X147228600Y-79779090D01*
X147228600Y-79732910D01*
X147411400Y-79732910D01*
X147411400Y-79779090D01*
X147501116Y-80230121D01*
X147756604Y-80612486D01*
X148138969Y-80867974D01*
X148590000Y-80957690D01*
X149041031Y-80867974D01*
X149423396Y-80612486D01*
X149678884Y-80230121D01*
X149768600Y-79779090D01*
X149768600Y-79732910D01*
X149678884Y-79281879D01*
X149423396Y-78899514D01*
X149041031Y-78644026D01*
X148590000Y-78554310D01*
X148138969Y-78644026D01*
X147756604Y-78899514D01*
X147501116Y-79281879D01*
X147411400Y-79732910D01*
X147228600Y-79732910D01*
X147138884Y-79281879D01*
X146883396Y-78899514D01*
X146501031Y-78644026D01*
X146050000Y-78554310D01*
X145598969Y-78644026D01*
X145216604Y-78899514D01*
X144961116Y-79281879D01*
X144871400Y-79732910D01*
X144688600Y-79732910D01*
X144598884Y-79281879D01*
X144343396Y-78899514D01*
X143961031Y-78644026D01*
X143510000Y-78554310D01*
X143058969Y-78644026D01*
X142676604Y-78899514D01*
X142421116Y-79281879D01*
X142331400Y-79732910D01*
X142148600Y-79732910D01*
X142058884Y-79281879D01*
X141803396Y-78899514D01*
X141421031Y-78644026D01*
X140970000Y-78554310D01*
X140518969Y-78644026D01*
X140136604Y-78899514D01*
X139881116Y-79281879D01*
X139791400Y-79732910D01*
X138262414Y-79732910D01*
X138262414Y-77845748D01*
X139792712Y-76315450D01*
X139785229Y-76352400D01*
X139785229Y-78079600D01*
X139807194Y-78196332D01*
X139876182Y-78303543D01*
X139981446Y-78375467D01*
X140106400Y-78400771D01*
X141833600Y-78400771D01*
X141950332Y-78378806D01*
X142057543Y-78309818D01*
X142129467Y-78204554D01*
X142154771Y-78079600D01*
X142154771Y-76352400D01*
X142132806Y-76235668D01*
X142063818Y-76128457D01*
X142034756Y-76108600D01*
X143052124Y-76108600D01*
X142676604Y-76359514D01*
G36*
X134629959Y-75701959D02*
X134629957Y-75701962D01*
X134300017Y-76031901D01*
X134209710Y-76167056D01*
X134177998Y-76326482D01*
X134177998Y-82093473D01*
X134060482Y-82044676D01*
X133657287Y-82044324D01*
X133284648Y-82198295D01*
X132999297Y-82483149D01*
X132844676Y-82855518D01*
X132844324Y-83258713D01*
X132998295Y-83631352D01*
X133219557Y-83853000D01*
X133095343Y-83853000D01*
X132979567Y-83900956D01*
X132890956Y-83989567D01*
X132843000Y-84105342D01*
X132843000Y-85184250D01*
X132921750Y-85263000D01*
X133853000Y-85263000D01*
X133853000Y-85243000D01*
X133863000Y-85243000D01*
X133863000Y-85263000D01*
X133883000Y-85263000D01*
X133883000Y-85273000D01*
X133863000Y-85273000D01*
X133863000Y-86604250D01*
X133941750Y-86683000D01*
X134620657Y-86683000D01*
X134736433Y-86635044D01*
X134825044Y-86546433D01*
X134873000Y-86430658D01*
X134873000Y-85744902D01*
X136870400Y-87742302D01*
X136870400Y-89589577D01*
X136775827Y-89550307D01*
X136529255Y-89550092D01*
X136301370Y-89644252D01*
X136207489Y-89737969D01*
X136114547Y-89644865D01*
X135886827Y-89550307D01*
X135640255Y-89550092D01*
X135412370Y-89644252D01*
X135237865Y-89818453D01*
X135143307Y-90046173D01*
X135143092Y-90292745D01*
X135237252Y-90520630D01*
X135314293Y-90597806D01*
X134757502Y-91154596D01*
X134871324Y-90880482D01*
X134871676Y-90477287D01*
X134717705Y-90104648D01*
X134502603Y-89889171D01*
X134558000Y-89889171D01*
X134674732Y-89867206D01*
X134781943Y-89798218D01*
X134853867Y-89692954D01*
X134879171Y-89568000D01*
X134879171Y-87368000D01*
X134857206Y-87251268D01*
X134788218Y-87144057D01*
X134682954Y-87072133D01*
X134558000Y-87046829D01*
X133158000Y-87046829D01*
X133041268Y-87068794D01*
X132934057Y-87137782D01*
X132862133Y-87243046D01*
X132836829Y-87368000D01*
X132836829Y-89205009D01*
X132178419Y-89863419D01*
X132088112Y-89998574D01*
X132056400Y-90158000D01*
X132056400Y-90693759D01*
X131251813Y-89889171D01*
X132018000Y-89889171D01*
X132134732Y-89867206D01*
X132241943Y-89798218D01*
X132313867Y-89692954D01*
X132339171Y-89568000D01*
X132339171Y-87368000D01*
X132317206Y-87251268D01*
X132248218Y-87144057D01*
X132142954Y-87072133D01*
X132018000Y-87046829D01*
X130618000Y-87046829D01*
X130501268Y-87068794D01*
X130394057Y-87137782D01*
X130322133Y-87243046D01*
X130296829Y-87368000D01*
X130296829Y-88205213D01*
X130171827Y-88153307D01*
X129925255Y-88153092D01*
X129851171Y-88183703D01*
X129851171Y-88003000D01*
X129829206Y-87886268D01*
X129760218Y-87779057D01*
X129654954Y-87707133D01*
X129530000Y-87681829D01*
X128305600Y-87681829D01*
X128305600Y-87318000D01*
X128821250Y-87318000D01*
X128900000Y-87239250D01*
X128900000Y-86258000D01*
X128910000Y-86258000D01*
X128910000Y-87239250D01*
X128988750Y-87318000D01*
X129592658Y-87318000D01*
X129708433Y-87270044D01*
X129797044Y-87181433D01*
X129845000Y-87065657D01*
X129845000Y-86336750D01*
X129766250Y-86258000D01*
X128910000Y-86258000D01*
X128900000Y-86258000D01*
X128880000Y-86258000D01*
X128880000Y-86248000D01*
X128900000Y-86248000D01*
X128900000Y-85266750D01*
X128910000Y-85266750D01*
X128910000Y-86248000D01*
X129766250Y-86248000D01*
X129845000Y-86169250D01*
X129845000Y-85440343D01*
X129797044Y-85324567D01*
X129708433Y-85235956D01*
X129592658Y-85188000D01*
X128988750Y-85188000D01*
X128910000Y-85266750D01*
X128900000Y-85266750D01*
X128821250Y-85188000D01*
X128305600Y-85188000D01*
X128305600Y-85135562D01*
X129273161Y-84168000D01*
X130296829Y-84168000D01*
X130296829Y-86368000D01*
X130318794Y-86484732D01*
X130387782Y-86591943D01*
X130493046Y-86663867D01*
X130618000Y-86689171D01*
X132018000Y-86689171D01*
X132134732Y-86667206D01*
X132241943Y-86598218D01*
X132313867Y-86492954D01*
X132339171Y-86368000D01*
X132339171Y-85351750D01*
X132843000Y-85351750D01*
X132843000Y-86430658D01*
X132890956Y-86546433D01*
X132979567Y-86635044D01*
X133095343Y-86683000D01*
X133774250Y-86683000D01*
X133853000Y-86604250D01*
X133853000Y-85273000D01*
X132921750Y-85273000D01*
X132843000Y-85351750D01*
X132339171Y-85351750D01*
X132339171Y-84168000D01*
X132317206Y-84051268D01*
X132248218Y-83944057D01*
X132142954Y-83872133D01*
X132018000Y-83846829D01*
X130618000Y-83846829D01*
X130501268Y-83868794D01*
X130394057Y-83937782D01*
X130322133Y-84043046D01*
X130296829Y-84168000D01*
X129273161Y-84168000D01*
X131871561Y-81569600D01*
X132509107Y-81569600D01*
X132617453Y-81678135D01*
X132845173Y-81772693D01*
X133091745Y-81772908D01*
X133319630Y-81678748D01*
X133494135Y-81504547D01*
X133588693Y-81276827D01*
X133588908Y-81030255D01*
X133494748Y-80802370D01*
X133320547Y-80627865D01*
X133092827Y-80533307D01*
X132846255Y-80533092D01*
X132618370Y-80627252D01*
X132509032Y-80736400D01*
X131699005Y-80736400D01*
X131699000Y-80736399D01*
X131566025Y-80762850D01*
X131539574Y-80768112D01*
X131404419Y-80858419D01*
X131404417Y-80858422D01*
X127899198Y-84363640D01*
X127899198Y-83128964D01*
X129509388Y-81518774D01*
X129662745Y-81518908D01*
X129890630Y-81424748D01*
X130065135Y-81250547D01*
X130159693Y-81022827D01*
X130159908Y-80776255D01*
X130065748Y-80548370D01*
X129891547Y-80373865D01*
X129663827Y-80279307D01*
X129417255Y-80279092D01*
X129189370Y-80373252D01*
X129095489Y-80466969D01*
X129019531Y-80390878D01*
X129176135Y-80234547D01*
X129270693Y-80006827D01*
X129270908Y-79760255D01*
X129176748Y-79532370D01*
X129083031Y-79438489D01*
X129176135Y-79345547D01*
X129270693Y-79117827D01*
X129270908Y-78871255D01*
X129176748Y-78643370D01*
X129083031Y-78549489D01*
X129176135Y-78456547D01*
X129270693Y-78228827D01*
X129270908Y-77982255D01*
X129176748Y-77754370D01*
X129083031Y-77660489D01*
X129176135Y-77567547D01*
X129243729Y-77404763D01*
X132043492Y-74605000D01*
X135726918Y-74605000D01*
X134629959Y-75701959D01*
X134629959Y-75701959D01*
G37*
X134629959Y-75701959D02*
X134629957Y-75701962D01*
X134300017Y-76031901D01*
X134209710Y-76167056D01*
X134177998Y-76326482D01*
X134177998Y-82093473D01*
X134060482Y-82044676D01*
X133657287Y-82044324D01*
X133284648Y-82198295D01*
X132999297Y-82483149D01*
X132844676Y-82855518D01*
X132844324Y-83258713D01*
X132998295Y-83631352D01*
X133219557Y-83853000D01*
X133095343Y-83853000D01*
X132979567Y-83900956D01*
X132890956Y-83989567D01*
X132843000Y-84105342D01*
X132843000Y-85184250D01*
X132921750Y-85263000D01*
X133853000Y-85263000D01*
X133853000Y-85243000D01*
X133863000Y-85243000D01*
X133863000Y-85263000D01*
X133883000Y-85263000D01*
X133883000Y-85273000D01*
X133863000Y-85273000D01*
X133863000Y-86604250D01*
X133941750Y-86683000D01*
X134620657Y-86683000D01*
X134736433Y-86635044D01*
X134825044Y-86546433D01*
X134873000Y-86430658D01*
X134873000Y-85744902D01*
X136870400Y-87742302D01*
X136870400Y-89589577D01*
X136775827Y-89550307D01*
X136529255Y-89550092D01*
X136301370Y-89644252D01*
X136207489Y-89737969D01*
X136114547Y-89644865D01*
X135886827Y-89550307D01*
X135640255Y-89550092D01*
X135412370Y-89644252D01*
X135237865Y-89818453D01*
X135143307Y-90046173D01*
X135143092Y-90292745D01*
X135237252Y-90520630D01*
X135314293Y-90597806D01*
X134757502Y-91154596D01*
X134871324Y-90880482D01*
X134871676Y-90477287D01*
X134717705Y-90104648D01*
X134502603Y-89889171D01*
X134558000Y-89889171D01*
X134674732Y-89867206D01*
X134781943Y-89798218D01*
X134853867Y-89692954D01*
X134879171Y-89568000D01*
X134879171Y-87368000D01*
X134857206Y-87251268D01*
X134788218Y-87144057D01*
X134682954Y-87072133D01*
X134558000Y-87046829D01*
X133158000Y-87046829D01*
X133041268Y-87068794D01*
X132934057Y-87137782D01*
X132862133Y-87243046D01*
X132836829Y-87368000D01*
X132836829Y-89205009D01*
X132178419Y-89863419D01*
X132088112Y-89998574D01*
X132056400Y-90158000D01*
X132056400Y-90693759D01*
X131251813Y-89889171D01*
X132018000Y-89889171D01*
X132134732Y-89867206D01*
X132241943Y-89798218D01*
X132313867Y-89692954D01*
X132339171Y-89568000D01*
X132339171Y-87368000D01*
X132317206Y-87251268D01*
X132248218Y-87144057D01*
X132142954Y-87072133D01*
X132018000Y-87046829D01*
X130618000Y-87046829D01*
X130501268Y-87068794D01*
X130394057Y-87137782D01*
X130322133Y-87243046D01*
X130296829Y-87368000D01*
X130296829Y-88205213D01*
X130171827Y-88153307D01*
X129925255Y-88153092D01*
X129851171Y-88183703D01*
X129851171Y-88003000D01*
X129829206Y-87886268D01*
X129760218Y-87779057D01*
X129654954Y-87707133D01*
X129530000Y-87681829D01*
X128305600Y-87681829D01*
X128305600Y-87318000D01*
X128821250Y-87318000D01*
X128900000Y-87239250D01*
X128900000Y-86258000D01*
X128910000Y-86258000D01*
X128910000Y-87239250D01*
X128988750Y-87318000D01*
X129592658Y-87318000D01*
X129708433Y-87270044D01*
X129797044Y-87181433D01*
X129845000Y-87065657D01*
X129845000Y-86336750D01*
X129766250Y-86258000D01*
X128910000Y-86258000D01*
X128900000Y-86258000D01*
X128880000Y-86258000D01*
X128880000Y-86248000D01*
X128900000Y-86248000D01*
X128900000Y-85266750D01*
X128910000Y-85266750D01*
X128910000Y-86248000D01*
X129766250Y-86248000D01*
X129845000Y-86169250D01*
X129845000Y-85440343D01*
X129797044Y-85324567D01*
X129708433Y-85235956D01*
X129592658Y-85188000D01*
X128988750Y-85188000D01*
X128910000Y-85266750D01*
X128900000Y-85266750D01*
X128821250Y-85188000D01*
X128305600Y-85188000D01*
X128305600Y-85135562D01*
X129273161Y-84168000D01*
X130296829Y-84168000D01*
X130296829Y-86368000D01*
X130318794Y-86484732D01*
X130387782Y-86591943D01*
X130493046Y-86663867D01*
X130618000Y-86689171D01*
X132018000Y-86689171D01*
X132134732Y-86667206D01*
X132241943Y-86598218D01*
X132313867Y-86492954D01*
X132339171Y-86368000D01*
X132339171Y-85351750D01*
X132843000Y-85351750D01*
X132843000Y-86430658D01*
X132890956Y-86546433D01*
X132979567Y-86635044D01*
X133095343Y-86683000D01*
X133774250Y-86683000D01*
X133853000Y-86604250D01*
X133853000Y-85273000D01*
X132921750Y-85273000D01*
X132843000Y-85351750D01*
X132339171Y-85351750D01*
X132339171Y-84168000D01*
X132317206Y-84051268D01*
X132248218Y-83944057D01*
X132142954Y-83872133D01*
X132018000Y-83846829D01*
X130618000Y-83846829D01*
X130501268Y-83868794D01*
X130394057Y-83937782D01*
X130322133Y-84043046D01*
X130296829Y-84168000D01*
X129273161Y-84168000D01*
X131871561Y-81569600D01*
X132509107Y-81569600D01*
X132617453Y-81678135D01*
X132845173Y-81772693D01*
X133091745Y-81772908D01*
X133319630Y-81678748D01*
X133494135Y-81504547D01*
X133588693Y-81276827D01*
X133588908Y-81030255D01*
X133494748Y-80802370D01*
X133320547Y-80627865D01*
X133092827Y-80533307D01*
X132846255Y-80533092D01*
X132618370Y-80627252D01*
X132509032Y-80736400D01*
X131699005Y-80736400D01*
X131699000Y-80736399D01*
X131566025Y-80762850D01*
X131539574Y-80768112D01*
X131404419Y-80858419D01*
X131404417Y-80858422D01*
X127899198Y-84363640D01*
X127899198Y-83128964D01*
X129509388Y-81518774D01*
X129662745Y-81518908D01*
X129890630Y-81424748D01*
X130065135Y-81250547D01*
X130159693Y-81022827D01*
X130159908Y-80776255D01*
X130065748Y-80548370D01*
X129891547Y-80373865D01*
X129663827Y-80279307D01*
X129417255Y-80279092D01*
X129189370Y-80373252D01*
X129095489Y-80466969D01*
X129019531Y-80390878D01*
X129176135Y-80234547D01*
X129270693Y-80006827D01*
X129270908Y-79760255D01*
X129176748Y-79532370D01*
X129083031Y-79438489D01*
X129176135Y-79345547D01*
X129270693Y-79117827D01*
X129270908Y-78871255D01*
X129176748Y-78643370D01*
X129083031Y-78549489D01*
X129176135Y-78456547D01*
X129270693Y-78228827D01*
X129270908Y-77982255D01*
X129176748Y-77754370D01*
X129083031Y-77660489D01*
X129176135Y-77567547D01*
X129243729Y-77404763D01*
X132043492Y-74605000D01*
X135726918Y-74605000D01*
X134629959Y-75701959D01*
M02*
