G04 #@! TF.FileFunction,Paste,Top*
%FSLAX46Y46*%
G04 Gerber Fmt 4.6, Leading zero omitted, Abs format (unit mm)*
G04 Created by KiCad (PCBNEW 4.0.5) date 03/20/17 17:49:22*
%MOMM*%
%LPD*%
G01*
G04 APERTURE LIST*
%ADD10C,0.100000*%
%ADD11R,2.000000X1.700000*%
%ADD12R,1.500000X1.250000*%
%ADD13R,1.250000X1.500000*%
%ADD14R,1.600000X2.000000*%
%ADD15R,1.300000X1.500000*%
%ADD16R,1.500000X1.300000*%
%ADD17R,2.000000X1.600000*%
%ADD18R,1.699260X2.800000*%
%ADD19R,0.850900X1.850900*%
%ADD20R,1.400000X2.200000*%
%ADD21R,5.200000X3.400000*%
%ADD22R,1.500000X0.650000*%
G04 APERTURE END LIST*
D10*
D11*
X131223000Y-92964000D03*
X135223000Y-92964000D03*
D12*
X181250000Y-76500000D03*
X183750000Y-76500000D03*
D13*
X173500000Y-131250000D03*
X173500000Y-133750000D03*
D14*
X141859000Y-116618000D03*
X141859000Y-120618000D03*
D13*
X126500000Y-68750000D03*
X126500000Y-66250000D03*
X154305000Y-82951000D03*
X154305000Y-85451000D03*
D12*
X118750000Y-123500000D03*
X116250000Y-123500000D03*
X137902000Y-115189000D03*
X135402000Y-115189000D03*
D15*
X163131500Y-84819500D03*
X163131500Y-87519500D03*
D14*
X145796000Y-109760000D03*
X145796000Y-113760000D03*
D16*
X156798000Y-111125000D03*
X154098000Y-111125000D03*
X152480000Y-111125000D03*
X149780000Y-111125000D03*
D15*
X133223000Y-116252000D03*
X133223000Y-118952000D03*
D16*
X135302000Y-120777000D03*
X138002000Y-120777000D03*
D14*
X161671000Y-116999000D03*
X161671000Y-120999000D03*
D17*
X156559000Y-109093000D03*
X152559000Y-109093000D03*
D13*
X156591000Y-113812000D03*
X156591000Y-116312000D03*
D15*
X165036500Y-84819500D03*
X165036500Y-87519500D03*
D18*
X158877000Y-121099000D03*
X158877000Y-116899000D03*
D19*
X139827000Y-116317140D03*
X139827000Y-120664860D03*
D18*
X149606000Y-116645000D03*
X149606000Y-120845000D03*
D20*
X151637000Y-83379000D03*
X148337000Y-83379000D03*
X148337000Y-88579000D03*
X151637000Y-88579000D03*
D10*
G36*
X120611092Y-127267588D02*
X119055457Y-125711953D01*
X120045406Y-124722004D01*
X121601041Y-126277639D01*
X120611092Y-127267588D01*
X120611092Y-127267588D01*
G37*
G36*
X118277639Y-129601041D02*
X116722004Y-128045406D01*
X117711953Y-127055457D01*
X119267588Y-128611092D01*
X118277639Y-129601041D01*
X118277639Y-129601041D01*
G37*
G36*
X121954594Y-133277996D02*
X120398959Y-131722361D01*
X121388908Y-130732412D01*
X122944543Y-132288047D01*
X121954594Y-133277996D01*
X121954594Y-133277996D01*
G37*
G36*
X124288047Y-130944543D02*
X122732412Y-129388908D01*
X123722361Y-128398959D01*
X125277996Y-129954594D01*
X124288047Y-130944543D01*
X124288047Y-130944543D01*
G37*
G36*
X122732412Y-70611092D02*
X124288047Y-69055457D01*
X125277996Y-70045406D01*
X123722361Y-71601041D01*
X122732412Y-70611092D01*
X122732412Y-70611092D01*
G37*
G36*
X120398959Y-68277639D02*
X121954594Y-66722004D01*
X122944543Y-67711953D01*
X121388908Y-69267588D01*
X120398959Y-68277639D01*
X120398959Y-68277639D01*
G37*
G36*
X116722004Y-71954594D02*
X118277639Y-70398959D01*
X119267588Y-71388908D01*
X117711953Y-72944543D01*
X116722004Y-71954594D01*
X116722004Y-71954594D01*
G37*
G36*
X119055457Y-74288047D02*
X120611092Y-72732412D01*
X121601041Y-73722361D01*
X120045406Y-75277996D01*
X119055457Y-74288047D01*
X119055457Y-74288047D01*
G37*
G36*
X179388908Y-72732412D02*
X180944543Y-74288047D01*
X179954594Y-75277996D01*
X178398959Y-73722361D01*
X179388908Y-72732412D01*
X179388908Y-72732412D01*
G37*
G36*
X181722361Y-70398959D02*
X183277996Y-71954594D01*
X182288047Y-72944543D01*
X180732412Y-71388908D01*
X181722361Y-70398959D01*
X181722361Y-70398959D01*
G37*
G36*
X178045406Y-66722004D02*
X179601041Y-68277639D01*
X178611092Y-69267588D01*
X177055457Y-67711953D01*
X178045406Y-66722004D01*
X178045406Y-66722004D01*
G37*
G36*
X175711953Y-69055457D02*
X177267588Y-70611092D01*
X176277639Y-71601041D01*
X174722004Y-70045406D01*
X175711953Y-69055457D01*
X175711953Y-69055457D01*
G37*
G36*
X177267588Y-129388908D02*
X175711953Y-130944543D01*
X174722004Y-129954594D01*
X176277639Y-128398959D01*
X177267588Y-129388908D01*
X177267588Y-129388908D01*
G37*
G36*
X179601041Y-131722361D02*
X178045406Y-133277996D01*
X177055457Y-132288047D01*
X178611092Y-130732412D01*
X179601041Y-131722361D01*
X179601041Y-131722361D01*
G37*
G36*
X183277996Y-128045406D02*
X181722361Y-129601041D01*
X180732412Y-128611092D01*
X182288047Y-127055457D01*
X183277996Y-128045406D01*
X183277996Y-128045406D01*
G37*
G36*
X180944543Y-125711953D02*
X179388908Y-127267588D01*
X178398959Y-126277639D01*
X179954594Y-124722004D01*
X180944543Y-125711953D01*
X180944543Y-125711953D01*
G37*
D21*
X141605000Y-108698000D03*
X141605000Y-113298000D03*
X160655000Y-109079000D03*
X160655000Y-113679000D03*
D22*
X153971000Y-118049000D03*
X153971000Y-118999000D03*
X153971000Y-119949000D03*
X156671000Y-119949000D03*
X156671000Y-118049000D03*
X156671000Y-118999000D03*
X135302000Y-117033000D03*
X135302000Y-117983000D03*
X135302000Y-118933000D03*
X138002000Y-118933000D03*
X138002000Y-117033000D03*
X138002000Y-117983000D03*
D16*
X136445000Y-79883000D03*
X139145000Y-79883000D03*
X136445000Y-77978000D03*
X139145000Y-77978000D03*
D17*
X133636000Y-97663000D03*
X137636000Y-97663000D03*
D12*
X137434000Y-92583000D03*
X139934000Y-92583000D03*
M02*
