M48
METRIC,TZ
T1C0.305
T2C0.400
T3C0.550
T4C0.800
T5C0.900
T6C1.000
T7C1.001
T8C1.100
T9C2.200
T10C3.200
%
G90
G05
T1
X124.206Y-97.155
X124.206Y-98.044
X124.841Y-95.123
X125.73Y-95.123
X125.857Y-96.901
X125.857Y-97.79
X125.857Y-98.679
X125.984Y-94.361
X126.746Y-96.901
X126.746Y-99.441
X127.762Y-85.979
X127.762Y-86.995
X127.762Y-88.011
X127.762Y-89.027
X127.762Y-90.043
X128.524Y-85.217
X129.667Y-103.759
X130.302Y-95.123
X130.302Y-96.139
X130.302Y-97.155
X130.302Y-98.171
X130.302Y-99.187
X130.302Y-100.203
X131.191Y-94.869
X131.445Y-96.139
X131.445Y-97.155
X131.445Y-98.171
X131.445Y-99.187
X131.445Y-100.203
X131.953Y-116.078
X131.953Y-117.348
X134.874Y-77.978
X135.255Y-94.488
X135.255Y-95.758
X135.255Y-96.647
X135.255Y-97.663
X135.255Y-98.679
X136.144Y-100.457
X136.779Y-81.788
X136.779Y-90.932
X137.414Y-93.853
X139.319Y-93.98
X140.208Y-93.98
X141.097Y-91.313
X141.986Y-97.155
X142.367Y-90.297
X143.891Y-85.979
X143.891Y-112.014
X143.891Y-113.03
X144.272Y-114.046
X144.399Y-94.742
X144.907Y-104.14
X144.907Y-112.014
X144.907Y-113.03
X145.161Y-86.614
X145.288Y-114.046
X145.288Y-115.062
X145.923Y-105.156
X146.558Y-96.647
X147.066Y-98.171
X147.32Y-96.012
X147.701Y-111.379
X148.717Y-90.932
X151.638Y-86.614
X152.527Y-85.725
X153.035Y-83.947
X153.035Y-84.836
X156.718Y-116.078
X157.607Y-97.409
T3
X135.001Y-107.92
X135.001Y-109.22
X135.001Y-110.52
X136.001Y-108.57
X136.001Y-109.87
T4
X132.207Y-105.283
X132.207Y-107.283
X132.207Y-109.283
T5
X144.145Y-116.332
X144.145Y-121.412
X146.685Y-116.332
X146.685Y-121.412
X152.019Y-116.332
X152.019Y-121.412
X154.559Y-116.332
X154.559Y-121.412
T6
X116.586Y-78.232
X116.586Y-80.772
X116.586Y-83.312
X116.586Y-85.852
X116.586Y-88.392
X116.586Y-90.932
X116.586Y-93.472
X116.586Y-96.012
X116.586Y-102.87
X116.586Y-105.41
X116.586Y-107.95
X116.586Y-110.49
X116.586Y-113.03
X116.586Y-115.57
X119.126Y-78.232
X119.126Y-80.772
X119.126Y-83.312
X119.126Y-85.852
X119.126Y-88.392
X119.126Y-90.932
X119.126Y-93.472
X119.126Y-96.012
X119.126Y-102.87
X119.126Y-105.41
X119.126Y-107.95
X119.126Y-110.49
X119.126Y-113.03
X119.126Y-115.57
X121.666Y-78.232
X121.666Y-80.772
X121.666Y-83.312
X121.666Y-85.852
X121.666Y-88.392
X121.666Y-90.932
X121.666Y-93.472
X121.666Y-96.012
X121.666Y-102.87
X121.666Y-105.41
X121.666Y-107.95
X121.666Y-110.49
X121.666Y-113.03
X121.666Y-115.57
X125.476Y-114.808
X125.476Y-117.348
X125.476Y-119.888
X125.476Y-122.682
X125.476Y-125.222
X126.746Y-128.524
X126.746Y-131.064
X127.127Y-106.426
X127.127Y-108.966
X128.016Y-114.808
X128.016Y-117.348
X128.016Y-119.888
X128.016Y-122.682
X128.016Y-125.222
X129.286Y-66.294
X129.286Y-68.834
X129.286Y-71.374
X129.286Y-73.914
X129.286Y-76.454
X129.286Y-128.524
X129.286Y-131.064
X129.667Y-106.426
X129.667Y-108.966
X130.556Y-122.682
X130.556Y-125.222
X131.826Y-66.294
X131.826Y-68.834
X131.826Y-71.374
X131.826Y-73.914
X131.826Y-76.454
X131.826Y-128.524
X131.826Y-131.064
X133.096Y-122.682
X133.096Y-125.222
X134.366Y-66.294
X134.366Y-68.834
X134.366Y-71.374
X134.366Y-73.914
X134.366Y-76.454
X134.366Y-128.524
X134.366Y-131.064
X135.636Y-122.682
X135.636Y-125.222
X136.906Y-66.294
X136.906Y-68.834
X136.906Y-71.374
X136.906Y-73.914
X136.906Y-76.454
X136.906Y-128.524
X136.906Y-131.064
X138.176Y-122.682
X138.176Y-125.222
X139.446Y-128.524
X139.446Y-131.064
X141.097Y-66.421
X141.097Y-68.961
X141.097Y-73.914
X141.11Y-77.33
X141.11Y-79.87
X141.986Y-128.524
X141.986Y-131.064
X143.637Y-73.914
X143.65Y-77.33
X143.65Y-79.87
X144.526Y-128.524
X144.526Y-131.064
X146.177Y-73.914
X146.19Y-77.33
X146.19Y-79.87
X147.066Y-128.524
X147.066Y-131.064
X148.717Y-73.914
X148.73Y-77.33
X148.73Y-79.87
X151.27Y-77.33
X151.27Y-79.87
X153.81Y-77.33
X153.81Y-79.87
X156.35Y-77.33
X156.35Y-79.87
X156.718Y-84.455
X156.718Y-86.995
X156.718Y-89.535
X156.718Y-92.075
X156.718Y-94.615
X158.89Y-77.33
X158.89Y-79.87
X159.004Y-118.364
X159.004Y-120.904
X159.004Y-123.444
X159.004Y-125.984
X159.004Y-128.524
X159.258Y-84.455
X159.258Y-86.995
X159.258Y-89.535
X159.258Y-92.075
X159.258Y-94.615
X160.909Y-66.421
X160.909Y-68.961
X161.544Y-118.364
X161.544Y-120.904
X161.544Y-123.444
X161.544Y-125.984
X161.544Y-128.524
X161.798Y-71.755
X161.798Y-74.295
X161.798Y-76.835
X161.798Y-79.375
X161.798Y-81.915
X161.798Y-84.455
X161.798Y-86.995
X163.33Y-89.52
X163.33Y-92.06
X163.33Y-94.6
X163.33Y-97.14
X163.33Y-99.68
X164.338Y-71.755
X164.338Y-74.295
X164.338Y-76.835
X164.338Y-79.375
X164.338Y-81.915
X164.338Y-84.455
X164.338Y-86.995
X165.1Y-121.666
X165.1Y-124.206
X165.1Y-126.746
X165.1Y-129.286
X165.87Y-89.52
X165.87Y-92.06
X165.87Y-94.6
X165.87Y-97.14
X165.87Y-99.68
X166.878Y-71.755
X166.878Y-74.295
X166.878Y-76.835
X166.878Y-79.375
X166.878Y-81.915
X166.878Y-84.455
X166.878Y-86.995
X167.64Y-121.666
X167.64Y-124.206
X167.64Y-126.746
X167.64Y-129.286
X168.529Y-89.535
X168.529Y-92.075
X168.529Y-94.615
X168.529Y-97.155
X168.529Y-99.695
X168.529Y-102.235
X168.529Y-104.775
X168.529Y-107.315
X168.91Y-111.506
X168.91Y-114.046
X168.91Y-116.586
X168.91Y-119.126
X169.418Y-71.755
X169.418Y-74.295
X169.418Y-76.835
X169.418Y-79.375
X169.418Y-81.915
X169.418Y-84.455
X169.418Y-86.995
X170.18Y-121.666
X170.18Y-124.206
X170.18Y-126.746
X170.18Y-129.286
X170.307Y-66.548
X170.307Y-69.088
X171.45Y-111.506
X171.45Y-114.046
X171.45Y-116.586
X171.45Y-119.126
X171.958Y-71.755
X171.958Y-74.295
X171.958Y-76.835
X171.958Y-79.375
X171.958Y-81.915
X171.958Y-84.455
X171.958Y-86.995
X172.72Y-121.666
X172.72Y-124.206
X172.72Y-126.746
X172.847Y-66.548
X172.847Y-69.088
X173.99Y-111.506
X173.99Y-114.046
X173.99Y-116.586
X173.99Y-119.126
X174.498Y-71.755
X174.498Y-74.295
X174.498Y-76.835
X174.498Y-79.375
X174.498Y-81.915
X174.498Y-84.455
X174.498Y-86.995
X175.26Y-121.666
X175.26Y-124.206
X175.26Y-126.746
X178.308Y-79.248
X178.308Y-81.788
X178.308Y-84.582
X178.308Y-87.122
X178.308Y-89.916
X178.308Y-92.456
X178.308Y-104.648
X178.308Y-107.188
X178.308Y-109.728
X178.308Y-112.268
X178.308Y-114.808
X178.308Y-117.348
X178.308Y-119.888
X178.308Y-122.428
X180.848Y-79.248
X180.848Y-81.788
X180.848Y-84.582
X180.848Y-87.122
X180.848Y-89.916
X180.848Y-92.456
X180.848Y-104.648
X180.848Y-107.188
X180.848Y-109.728
X180.848Y-112.268
X180.848Y-114.808
X180.848Y-117.348
X180.848Y-119.888
X180.848Y-122.428
X183.388Y-79.248
X183.388Y-81.788
X183.388Y-84.582
X183.388Y-87.122
X183.388Y-89.916
X183.388Y-92.456
X183.388Y-104.648
X183.388Y-107.188
X183.388Y-109.728
X183.388Y-112.268
X183.388Y-114.808
X183.388Y-117.348
X183.388Y-119.888
X183.388Y-122.428
T7
X147.501Y-92.499
X147.501Y-107.
X150.Y-92.499
X152.499Y-92.499
X152.499Y-107.
X157.988Y-103.124
T8
X134.565Y-83.947
X134.565Y-90.447
X139.065Y-83.947
X139.065Y-90.447
T9
X143.8Y-100.
X156.2Y-100.
T10
X120.Y-100.
X150.Y-70.
X150.Y-100.
X150.Y-130.
X180.Y-100.
T2
X134.621Y-105.645G85X135.821Y-105.645
G05
X134.621Y-112.795G85X135.821Y-112.795
G05
T0
M30
