G04 #@! TF.FileFunction,Paste,Bot*
%FSLAX46Y46*%
G04 Gerber Fmt 4.6, Leading zero omitted, Abs format (unit mm)*
G04 Created by KiCad (PCBNEW 4.0.5) date 03/20/17 17:49:22*
%MOMM*%
%LPD*%
G01*
G04 APERTURE LIST*
%ADD10C,0.100000*%
%ADD11R,1.500000X1.250000*%
%ADD12R,1.250000X1.500000*%
%ADD13R,1.500000X1.300000*%
%ADD14R,1.300000X1.500000*%
%ADD15R,0.300000X2.000000*%
%ADD16R,2.000000X0.300000*%
%ADD17R,2.200000X0.600000*%
%ADD18R,1.200000X2.000000*%
G04 APERTURE END LIST*
D10*
D11*
X132060000Y-84709000D03*
X129560000Y-84709000D03*
D12*
X135600000Y-85650000D03*
X135600000Y-83150000D03*
X133604000Y-117963000D03*
X133604000Y-115463000D03*
D13*
X138604000Y-120142000D03*
X141304000Y-120142000D03*
D14*
X147510500Y-87677000D03*
X147510500Y-90377000D03*
X152527000Y-87677000D03*
X152527000Y-90377000D03*
D15*
X130473000Y-92836000D03*
D16*
X137923000Y-94786000D03*
D15*
X135973000Y-102236000D03*
D16*
X128523000Y-100286000D03*
D15*
X130973000Y-92836000D03*
X131473000Y-92836000D03*
X131973000Y-92836000D03*
X132473000Y-92836000D03*
X132973000Y-92836000D03*
X133473000Y-92836000D03*
X133973000Y-92836000D03*
X134473000Y-92836000D03*
X134973000Y-92836000D03*
X135473000Y-92836000D03*
X135973000Y-92836000D03*
D16*
X137923000Y-95286000D03*
X137923000Y-95786000D03*
X137923000Y-96286000D03*
X137923000Y-96786000D03*
X137923000Y-97286000D03*
X137923000Y-97786000D03*
X137923000Y-98286000D03*
X137923000Y-98786000D03*
X137923000Y-99286000D03*
X137923000Y-99786000D03*
X137923000Y-100286000D03*
D15*
X135473000Y-102236000D03*
X134973000Y-102236000D03*
X134473000Y-102236000D03*
X133973000Y-102236000D03*
X133473000Y-102236000D03*
X132973000Y-102236000D03*
X132473000Y-102236000D03*
X131973000Y-102236000D03*
X131473000Y-102236000D03*
X130973000Y-102236000D03*
X130473000Y-102236000D03*
D16*
X128523000Y-99786000D03*
X128523000Y-99286000D03*
X128523000Y-98786000D03*
X128523000Y-98286000D03*
X128523000Y-97786000D03*
X128523000Y-97286000D03*
X128523000Y-96786000D03*
X128523000Y-96286000D03*
X128523000Y-95786000D03*
X128523000Y-95286000D03*
X128523000Y-94786000D03*
D17*
X135684000Y-118618000D03*
X135684000Y-117348000D03*
X135684000Y-116078000D03*
X135684000Y-114808000D03*
X141684000Y-114808000D03*
X141684000Y-116078000D03*
X141684000Y-117348000D03*
X141684000Y-118618000D03*
D14*
X133858000Y-88980000D03*
X133858000Y-86280000D03*
D12*
X128397000Y-90150000D03*
X128397000Y-87650000D03*
D13*
X132127000Y-109347000D03*
X134827000Y-109347000D03*
D18*
X130391000Y-89919000D03*
X130391000Y-87119000D03*
X131991000Y-89919000D03*
X131991000Y-87119000D03*
D11*
X129139000Y-102235000D03*
X126639000Y-102235000D03*
X129139000Y-92964000D03*
X126639000Y-92964000D03*
X137434000Y-101981000D03*
X139934000Y-101981000D03*
X137434000Y-92583000D03*
X139934000Y-92583000D03*
M02*
