G04 #@! TF.FileFunction,Paste,Top*
%FSLAX46Y46*%
G04 Gerber Fmt 4.6, Leading zero omitted, Abs format (unit mm)*
G04 Created by KiCad (PCBNEW 4.0.5) date 07/26/17 23:18:41*
%MOMM*%
%LPD*%
G01*
G04 APERTURE LIST*
%ADD10C,0.100000*%
%ADD11R,2.800000X2.600000*%
%ADD12R,2.000000X1.600000*%
%ADD13R,1.400000X2.200000*%
%ADD14R,1.500000X0.650000*%
%ADD15R,2.800000X1.699260*%
%ADD16R,2.000000X1.700000*%
%ADD17R,1.500000X1.250000*%
%ADD18R,1.250000X1.500000*%
%ADD19R,1.600000X2.000000*%
%ADD20R,1.500000X1.300000*%
%ADD21R,1.300000X1.500000*%
%ADD22R,0.850900X1.850900*%
%ADD23R,1.699260X2.800000*%
%ADD24R,0.650000X1.500000*%
%ADD25R,1.900000X0.800000*%
%ADD26R,2.600000X2.800000*%
%ADD27R,0.650000X2.000000*%
G04 APERTURE END LIST*
D10*
D11*
X141351000Y-114190000D03*
X141351000Y-106790000D03*
D12*
X133382000Y-97663000D03*
X137382000Y-97663000D03*
D13*
X151637000Y-83379000D03*
X148337000Y-83379000D03*
X148337000Y-88579000D03*
X151637000Y-88579000D03*
D14*
X135683000Y-117033000D03*
X135683000Y-117983000D03*
X135683000Y-118933000D03*
X138383000Y-118933000D03*
X138383000Y-117033000D03*
X138383000Y-117983000D03*
D15*
X147379000Y-114046000D03*
X151579000Y-114046000D03*
D16*
X133382000Y-95123000D03*
X137382000Y-95123000D03*
D17*
X181250000Y-76500000D03*
X183750000Y-76500000D03*
D18*
X173500000Y-131250000D03*
X173500000Y-133750000D03*
D19*
X142240000Y-118269000D03*
X142240000Y-122269000D03*
D18*
X126500000Y-68750000D03*
X126500000Y-66250000D03*
X154305000Y-82951000D03*
X154305000Y-85451000D03*
D17*
X118750000Y-123500000D03*
X116250000Y-123500000D03*
D20*
X154766000Y-90805000D03*
X152066000Y-90805000D03*
D17*
X138283000Y-115316000D03*
X135783000Y-115316000D03*
D21*
X170307000Y-91233000D03*
X170307000Y-93933000D03*
D12*
X138144000Y-102362000D03*
X134144000Y-102362000D03*
D20*
X160100000Y-107569000D03*
X157400000Y-107569000D03*
D21*
X146304000Y-109267000D03*
X146304000Y-111967000D03*
X133858000Y-116252000D03*
X133858000Y-118952000D03*
D20*
X135683000Y-120523000D03*
X138383000Y-120523000D03*
D12*
X152813000Y-118491000D03*
X156813000Y-118491000D03*
D19*
X164592000Y-105378000D03*
X164592000Y-101378000D03*
D18*
X152146000Y-111740000D03*
X152146000Y-109240000D03*
D22*
X140081000Y-116444140D03*
X140081000Y-120791860D03*
D23*
X149733000Y-121607000D03*
X149733000Y-117407000D03*
D10*
G36*
X120611092Y-127267588D02*
X119055457Y-125711953D01*
X120045406Y-124722004D01*
X121601041Y-126277639D01*
X120611092Y-127267588D01*
X120611092Y-127267588D01*
G37*
G36*
X118277639Y-129601041D02*
X116722004Y-128045406D01*
X117711953Y-127055457D01*
X119267588Y-128611092D01*
X118277639Y-129601041D01*
X118277639Y-129601041D01*
G37*
G36*
X121954594Y-133277996D02*
X120398959Y-131722361D01*
X121388908Y-130732412D01*
X122944543Y-132288047D01*
X121954594Y-133277996D01*
X121954594Y-133277996D01*
G37*
G36*
X124288047Y-130944543D02*
X122732412Y-129388908D01*
X123722361Y-128398959D01*
X125277996Y-129954594D01*
X124288047Y-130944543D01*
X124288047Y-130944543D01*
G37*
G36*
X122732412Y-70611092D02*
X124288047Y-69055457D01*
X125277996Y-70045406D01*
X123722361Y-71601041D01*
X122732412Y-70611092D01*
X122732412Y-70611092D01*
G37*
G36*
X120398959Y-68277639D02*
X121954594Y-66722004D01*
X122944543Y-67711953D01*
X121388908Y-69267588D01*
X120398959Y-68277639D01*
X120398959Y-68277639D01*
G37*
G36*
X116722004Y-71954594D02*
X118277639Y-70398959D01*
X119267588Y-71388908D01*
X117711953Y-72944543D01*
X116722004Y-71954594D01*
X116722004Y-71954594D01*
G37*
G36*
X119055457Y-74288047D02*
X120611092Y-72732412D01*
X121601041Y-73722361D01*
X120045406Y-75277996D01*
X119055457Y-74288047D01*
X119055457Y-74288047D01*
G37*
G36*
X179388908Y-72732412D02*
X180944543Y-74288047D01*
X179954594Y-75277996D01*
X178398959Y-73722361D01*
X179388908Y-72732412D01*
X179388908Y-72732412D01*
G37*
G36*
X181722361Y-70398959D02*
X183277996Y-71954594D01*
X182288047Y-72944543D01*
X180732412Y-71388908D01*
X181722361Y-70398959D01*
X181722361Y-70398959D01*
G37*
G36*
X178045406Y-66722004D02*
X179601041Y-68277639D01*
X178611092Y-69267588D01*
X177055457Y-67711953D01*
X178045406Y-66722004D01*
X178045406Y-66722004D01*
G37*
G36*
X175711953Y-69055457D02*
X177267588Y-70611092D01*
X176277639Y-71601041D01*
X174722004Y-70045406D01*
X175711953Y-69055457D01*
X175711953Y-69055457D01*
G37*
G36*
X177267588Y-129388908D02*
X175711953Y-130944543D01*
X174722004Y-129954594D01*
X176277639Y-128398959D01*
X177267588Y-129388908D01*
X177267588Y-129388908D01*
G37*
G36*
X179601041Y-131722361D02*
X178045406Y-133277996D01*
X177055457Y-132288047D01*
X178611092Y-130732412D01*
X179601041Y-131722361D01*
X179601041Y-131722361D01*
G37*
G36*
X183277996Y-128045406D02*
X181722361Y-129601041D01*
X180732412Y-128611092D01*
X182288047Y-127055457D01*
X183277996Y-128045406D01*
X183277996Y-128045406D01*
G37*
G36*
X180944543Y-125711953D02*
X179388908Y-127267588D01*
X178398959Y-126277639D01*
X179954594Y-124722004D01*
X180944543Y-125711953D01*
X180944543Y-125711953D01*
G37*
D24*
X150429000Y-108886000D03*
X149479000Y-108886000D03*
X148529000Y-108886000D03*
X148529000Y-111586000D03*
X150429000Y-111586000D03*
X149479000Y-111586000D03*
D20*
X136445000Y-79883000D03*
X139145000Y-79883000D03*
X136445000Y-77978000D03*
X139145000Y-77978000D03*
D17*
X137434000Y-92710000D03*
X139934000Y-92710000D03*
D21*
X140843000Y-100029000D03*
X140843000Y-97329000D03*
X141097000Y-104474000D03*
X141097000Y-101774000D03*
D25*
X166092000Y-68514000D03*
X166092000Y-66614000D03*
X163092000Y-67564000D03*
X146407000Y-67498000D03*
X146407000Y-65598000D03*
X143407000Y-66548000D03*
D21*
X156718000Y-69041000D03*
X156718000Y-66341000D03*
X168021000Y-69041000D03*
X168021000Y-66341000D03*
X153162000Y-69041000D03*
X153162000Y-66341000D03*
X154940000Y-66341000D03*
X154940000Y-69041000D03*
D26*
X154288000Y-112014000D03*
X161688000Y-112014000D03*
D27*
X141986000Y-91938000D03*
X143256000Y-91938000D03*
X144526000Y-91938000D03*
X145796000Y-91938000D03*
X145796000Y-84338000D03*
X144526000Y-84338000D03*
X143256000Y-84338000D03*
X141986000Y-84338000D03*
D17*
X143403000Y-82169000D03*
X145903000Y-82169000D03*
M02*
