G04 #@! TF.FileFunction,Legend,Bot*
%FSLAX46Y46*%
G04 Gerber Fmt 4.6, Leading zero omitted, Abs format (unit mm)*
G04 Created by KiCad (PCBNEW 4.0.5) date 03/27/17 18:08:10*
%MOMM*%
%LPD*%
G01*
G04 APERTURE LIST*
%ADD10C,0.100000*%
%ADD11C,0.250000*%
%ADD12C,0.300000*%
%ADD13C,0.304800*%
%ADD14C,0.299720*%
%ADD15C,0.120000*%
%ADD16C,0.150000*%
%ADD17C,1.397000*%
%ADD18O,1.500000X2.000000*%
%ADD19R,1.500000X2.000000*%
%ADD20O,2.000000X1.500000*%
%ADD21R,2.000000X1.500000*%
%ADD22R,1.500000X1.250000*%
%ADD23R,1.250000X1.500000*%
%ADD24R,1.500000X1.300000*%
%ADD25R,1.300000X1.500000*%
%ADD26C,1.600000*%
%ADD27C,3.000000*%
%ADD28R,0.300000X2.000000*%
%ADD29R,2.000000X0.300000*%
%ADD30R,2.200000X0.600000*%
%ADD31O,1.501140X1.998980*%
%ADD32C,3.500120*%
%ADD33C,0.950000*%
%ADD34O,1.000000X2.200000*%
%ADD35R,1.200000X2.000000*%
%ADD36O,2.200000X1.000000*%
%ADD37R,1.700000X1.700000*%
%ADD38O,1.700000X1.700000*%
%ADD39R,3.000000X3.000000*%
G04 APERTURE END LIST*
D10*
D11*
X154020571Y-65684857D02*
X153020571Y-66313428D01*
X153020571Y-65684857D02*
X154020571Y-66313428D01*
X154020571Y-67456286D02*
X153306286Y-67056286D01*
X154020571Y-66770571D02*
X152520571Y-66770571D01*
X152520571Y-67227714D01*
X152592000Y-67342000D01*
X152663429Y-67399143D01*
X152806286Y-67456286D01*
X153020571Y-67456286D01*
X153163429Y-67399143D01*
X153234857Y-67342000D01*
X153306286Y-67227714D01*
X153306286Y-66770571D01*
X154020571Y-67970571D02*
X152520571Y-67970571D01*
X152520571Y-68256286D01*
X152592000Y-68427714D01*
X152734857Y-68542000D01*
X152877714Y-68599143D01*
X153163429Y-68656286D01*
X153377714Y-68656286D01*
X153663429Y-68599143D01*
X153806286Y-68542000D01*
X153949143Y-68427714D01*
X154020571Y-68256286D01*
X154020571Y-67970571D01*
X154020571Y-69970572D02*
X153020571Y-70599143D01*
X153020571Y-69970572D02*
X154020571Y-70599143D01*
X154020571Y-71742001D02*
X153306286Y-71342001D01*
X154020571Y-71056286D02*
X152520571Y-71056286D01*
X152520571Y-71513429D01*
X152592000Y-71627715D01*
X152663429Y-71684858D01*
X152806286Y-71742001D01*
X153020571Y-71742001D01*
X153163429Y-71684858D01*
X153234857Y-71627715D01*
X153306286Y-71513429D01*
X153306286Y-71056286D01*
X153234857Y-72656286D02*
X153306286Y-72827715D01*
X153377714Y-72884858D01*
X153520571Y-72942001D01*
X153734857Y-72942001D01*
X153877714Y-72884858D01*
X153949143Y-72827715D01*
X154020571Y-72713429D01*
X154020571Y-72256286D01*
X152520571Y-72256286D01*
X152520571Y-72656286D01*
X152592000Y-72770572D01*
X152663429Y-72827715D01*
X152806286Y-72884858D01*
X152949143Y-72884858D01*
X153092000Y-72827715D01*
X153163429Y-72770572D01*
X153234857Y-72656286D01*
X153234857Y-72256286D01*
X156520571Y-65713429D02*
X155520571Y-66342000D01*
X155520571Y-65713429D02*
X156520571Y-66342000D01*
X156520571Y-67484858D02*
X155806286Y-67084858D01*
X156520571Y-66799143D02*
X155020571Y-66799143D01*
X155020571Y-67256286D01*
X155092000Y-67370572D01*
X155163429Y-67427715D01*
X155306286Y-67484858D01*
X155520571Y-67484858D01*
X155663429Y-67427715D01*
X155734857Y-67370572D01*
X155806286Y-67256286D01*
X155806286Y-66799143D01*
X156092000Y-67942000D02*
X156092000Y-68513429D01*
X156520571Y-67827715D02*
X155020571Y-68227715D01*
X156520571Y-68627715D01*
X156449143Y-69884857D02*
X156520571Y-70056286D01*
X156520571Y-70342000D01*
X156449143Y-70456286D01*
X156377714Y-70513429D01*
X156234857Y-70570572D01*
X156092000Y-70570572D01*
X155949143Y-70513429D01*
X155877714Y-70456286D01*
X155806286Y-70342000D01*
X155734857Y-70113429D01*
X155663429Y-69999143D01*
X155592000Y-69942000D01*
X155449143Y-69884857D01*
X155306286Y-69884857D01*
X155163429Y-69942000D01*
X155092000Y-69999143D01*
X155020571Y-70113429D01*
X155020571Y-70399143D01*
X155092000Y-70570572D01*
X156377714Y-71770572D02*
X156449143Y-71713429D01*
X156520571Y-71542000D01*
X156520571Y-71427714D01*
X156449143Y-71256286D01*
X156306286Y-71142000D01*
X156163429Y-71084857D01*
X155877714Y-71027714D01*
X155663429Y-71027714D01*
X155377714Y-71084857D01*
X155234857Y-71142000D01*
X155092000Y-71256286D01*
X155020571Y-71427714D01*
X155020571Y-71542000D01*
X155092000Y-71713429D01*
X155163429Y-71770572D01*
X156520571Y-72913429D02*
X156520571Y-72227714D01*
X156520571Y-72570572D02*
X155020571Y-72570572D01*
X155234857Y-72456286D01*
X155377714Y-72342000D01*
X155449143Y-72227714D01*
X157520571Y-65484858D02*
X159020571Y-65770572D01*
X157949143Y-65999143D01*
X159020571Y-66227715D01*
X157520571Y-66513429D01*
X158949143Y-66913429D02*
X159020571Y-67084858D01*
X159020571Y-67370572D01*
X158949143Y-67484858D01*
X158877714Y-67542001D01*
X158734857Y-67599144D01*
X158592000Y-67599144D01*
X158449143Y-67542001D01*
X158377714Y-67484858D01*
X158306286Y-67370572D01*
X158234857Y-67142001D01*
X158163429Y-67027715D01*
X158092000Y-66970572D01*
X157949143Y-66913429D01*
X157806286Y-66913429D01*
X157663429Y-66970572D01*
X157592000Y-67027715D01*
X157520571Y-67142001D01*
X157520571Y-67427715D01*
X157592000Y-67599144D01*
X157663429Y-68056286D02*
X157592000Y-68113429D01*
X157520571Y-68227715D01*
X157520571Y-68513429D01*
X157592000Y-68627715D01*
X157663429Y-68684858D01*
X157806286Y-68742001D01*
X157949143Y-68742001D01*
X158163429Y-68684858D01*
X159020571Y-67999144D01*
X159020571Y-68742001D01*
X158949143Y-70113429D02*
X159020571Y-70284858D01*
X159020571Y-70570572D01*
X158949143Y-70684858D01*
X158877714Y-70742001D01*
X158734857Y-70799144D01*
X158592000Y-70799144D01*
X158449143Y-70742001D01*
X158377714Y-70684858D01*
X158306286Y-70570572D01*
X158234857Y-70342001D01*
X158163429Y-70227715D01*
X158092000Y-70170572D01*
X157949143Y-70113429D01*
X157806286Y-70113429D01*
X157663429Y-70170572D01*
X157592000Y-70227715D01*
X157520571Y-70342001D01*
X157520571Y-70627715D01*
X157592000Y-70799144D01*
X159020571Y-71313429D02*
X157520571Y-71313429D01*
X157520571Y-71599144D01*
X157592000Y-71770572D01*
X157734857Y-71884858D01*
X157877714Y-71942001D01*
X158163429Y-71999144D01*
X158377714Y-71999144D01*
X158663429Y-71942001D01*
X158806286Y-71884858D01*
X158949143Y-71770572D01*
X159020571Y-71599144D01*
X159020571Y-71313429D01*
X159020571Y-73142001D02*
X159020571Y-72456286D01*
X159020571Y-72799144D02*
X157520571Y-72799144D01*
X157734857Y-72684858D01*
X157877714Y-72570572D01*
X157949143Y-72456286D01*
X161520571Y-66199142D02*
X160020571Y-66199142D01*
X160020571Y-66999143D02*
X160020571Y-67227714D01*
X160092000Y-67342000D01*
X160234857Y-67456286D01*
X160520571Y-67513428D01*
X161020571Y-67513428D01*
X161306286Y-67456286D01*
X161449143Y-67342000D01*
X161520571Y-67227714D01*
X161520571Y-66999143D01*
X161449143Y-66884857D01*
X161306286Y-66770571D01*
X161020571Y-66713428D01*
X160520571Y-66713428D01*
X160234857Y-66770571D01*
X160092000Y-66884857D01*
X160020571Y-66999143D01*
X161520571Y-68656286D02*
X161520571Y-67970571D01*
X161520571Y-68313429D02*
X160020571Y-68313429D01*
X160234857Y-68199143D01*
X160377714Y-68084857D01*
X160449143Y-67970571D01*
X161520571Y-70084857D02*
X160020571Y-70084857D01*
X160020571Y-70884858D02*
X160020571Y-71113429D01*
X160092000Y-71227715D01*
X160234857Y-71342001D01*
X160520571Y-71399143D01*
X161020571Y-71399143D01*
X161306286Y-71342001D01*
X161449143Y-71227715D01*
X161520571Y-71113429D01*
X161520571Y-70884858D01*
X161449143Y-70770572D01*
X161306286Y-70656286D01*
X161020571Y-70599143D01*
X160520571Y-70599143D01*
X160234857Y-70656286D01*
X160092000Y-70770572D01*
X160020571Y-70884858D01*
X160163429Y-71856286D02*
X160092000Y-71913429D01*
X160020571Y-72027715D01*
X160020571Y-72313429D01*
X160092000Y-72427715D01*
X160163429Y-72484858D01*
X160306286Y-72542001D01*
X160449143Y-72542001D01*
X160663429Y-72484858D01*
X161520571Y-71799144D01*
X161520571Y-72542001D01*
X164020571Y-66199142D02*
X162520571Y-66199142D01*
X162520571Y-66999143D02*
X162520571Y-67227714D01*
X162592000Y-67342000D01*
X162734857Y-67456286D01*
X163020571Y-67513428D01*
X163520571Y-67513428D01*
X163806286Y-67456286D01*
X163949143Y-67342000D01*
X164020571Y-67227714D01*
X164020571Y-66999143D01*
X163949143Y-66884857D01*
X163806286Y-66770571D01*
X163520571Y-66713428D01*
X163020571Y-66713428D01*
X162734857Y-66770571D01*
X162592000Y-66884857D01*
X162520571Y-66999143D01*
X162520571Y-67913429D02*
X162520571Y-68656286D01*
X163092000Y-68256286D01*
X163092000Y-68427714D01*
X163163429Y-68542000D01*
X163234857Y-68599143D01*
X163377714Y-68656286D01*
X163734857Y-68656286D01*
X163877714Y-68599143D01*
X163949143Y-68542000D01*
X164020571Y-68427714D01*
X164020571Y-68084857D01*
X163949143Y-67970571D01*
X163877714Y-67913429D01*
X164020571Y-70084857D02*
X162520571Y-70084857D01*
X162520571Y-70884858D02*
X162520571Y-71113429D01*
X162592000Y-71227715D01*
X162734857Y-71342001D01*
X163020571Y-71399143D01*
X163520571Y-71399143D01*
X163806286Y-71342001D01*
X163949143Y-71227715D01*
X164020571Y-71113429D01*
X164020571Y-70884858D01*
X163949143Y-70770572D01*
X163806286Y-70656286D01*
X163520571Y-70599143D01*
X163020571Y-70599143D01*
X162734857Y-70656286D01*
X162592000Y-70770572D01*
X162520571Y-70884858D01*
X163020571Y-72427715D02*
X164020571Y-72427715D01*
X162449143Y-72142001D02*
X163520571Y-71856286D01*
X163520571Y-72599144D01*
X166520571Y-66199142D02*
X165020571Y-66199142D01*
X165020571Y-66999143D02*
X165020571Y-67227714D01*
X165092000Y-67342000D01*
X165234857Y-67456286D01*
X165520571Y-67513428D01*
X166020571Y-67513428D01*
X166306286Y-67456286D01*
X166449143Y-67342000D01*
X166520571Y-67227714D01*
X166520571Y-66999143D01*
X166449143Y-66884857D01*
X166306286Y-66770571D01*
X166020571Y-66713428D01*
X165520571Y-66713428D01*
X165234857Y-66770571D01*
X165092000Y-66884857D01*
X165020571Y-66999143D01*
X165020571Y-68599143D02*
X165020571Y-68027714D01*
X165734857Y-67970571D01*
X165663429Y-68027714D01*
X165592000Y-68142000D01*
X165592000Y-68427714D01*
X165663429Y-68542000D01*
X165734857Y-68599143D01*
X165877714Y-68656286D01*
X166234857Y-68656286D01*
X166377714Y-68599143D01*
X166449143Y-68542000D01*
X166520571Y-68427714D01*
X166520571Y-68142000D01*
X166449143Y-68027714D01*
X166377714Y-67970571D01*
X166520571Y-70084857D02*
X165020571Y-70084857D01*
X165020571Y-70884858D02*
X165020571Y-71113429D01*
X165092000Y-71227715D01*
X165234857Y-71342001D01*
X165520571Y-71399143D01*
X166020571Y-71399143D01*
X166306286Y-71342001D01*
X166449143Y-71227715D01*
X166520571Y-71113429D01*
X166520571Y-70884858D01*
X166449143Y-70770572D01*
X166306286Y-70656286D01*
X166020571Y-70599143D01*
X165520571Y-70599143D01*
X165234857Y-70656286D01*
X165092000Y-70770572D01*
X165020571Y-70884858D01*
X165020571Y-72427715D02*
X165020571Y-72199144D01*
X165092000Y-72084858D01*
X165163429Y-72027715D01*
X165377714Y-71913429D01*
X165663429Y-71856286D01*
X166234857Y-71856286D01*
X166377714Y-71913429D01*
X166449143Y-71970572D01*
X166520571Y-72084858D01*
X166520571Y-72313429D01*
X166449143Y-72427715D01*
X166377714Y-72484858D01*
X166234857Y-72542001D01*
X165877714Y-72542001D01*
X165734857Y-72484858D01*
X165663429Y-72427715D01*
X165592000Y-72313429D01*
X165592000Y-72084858D01*
X165663429Y-71970572D01*
X165734857Y-71913429D01*
X165877714Y-71856286D01*
X169020571Y-66199142D02*
X167520571Y-66199142D01*
X167520571Y-66999143D02*
X167520571Y-67227714D01*
X167592000Y-67342000D01*
X167734857Y-67456286D01*
X168020571Y-67513428D01*
X168520571Y-67513428D01*
X168806286Y-67456286D01*
X168949143Y-67342000D01*
X169020571Y-67227714D01*
X169020571Y-66999143D01*
X168949143Y-66884857D01*
X168806286Y-66770571D01*
X168520571Y-66713428D01*
X168020571Y-66713428D01*
X167734857Y-66770571D01*
X167592000Y-66884857D01*
X167520571Y-66999143D01*
X167520571Y-67913429D02*
X167520571Y-68713429D01*
X169020571Y-68199143D01*
X169020571Y-70084857D02*
X167520571Y-70084857D01*
X167520571Y-70884858D02*
X167520571Y-71113429D01*
X167592000Y-71227715D01*
X167734857Y-71342001D01*
X168020571Y-71399143D01*
X168520571Y-71399143D01*
X168806286Y-71342001D01*
X168949143Y-71227715D01*
X169020571Y-71113429D01*
X169020571Y-70884858D01*
X168949143Y-70770572D01*
X168806286Y-70656286D01*
X168520571Y-70599143D01*
X168020571Y-70599143D01*
X167734857Y-70656286D01*
X167592000Y-70770572D01*
X167520571Y-70884858D01*
X168163429Y-72084858D02*
X168092000Y-71970572D01*
X168020571Y-71913429D01*
X167877714Y-71856286D01*
X167806286Y-71856286D01*
X167663429Y-71913429D01*
X167592000Y-71970572D01*
X167520571Y-72084858D01*
X167520571Y-72313429D01*
X167592000Y-72427715D01*
X167663429Y-72484858D01*
X167806286Y-72542001D01*
X167877714Y-72542001D01*
X168020571Y-72484858D01*
X168092000Y-72427715D01*
X168163429Y-72313429D01*
X168163429Y-72084858D01*
X168234857Y-71970572D01*
X168306286Y-71913429D01*
X168449143Y-71856286D01*
X168734857Y-71856286D01*
X168877714Y-71913429D01*
X168949143Y-71970572D01*
X169020571Y-72084858D01*
X169020571Y-72313429D01*
X168949143Y-72427715D01*
X168877714Y-72484858D01*
X168734857Y-72542001D01*
X168449143Y-72542001D01*
X168306286Y-72484858D01*
X168234857Y-72427715D01*
X168163429Y-72313429D01*
X170092000Y-66313429D02*
X170020571Y-66199143D01*
X170020571Y-66027714D01*
X170092000Y-65856286D01*
X170234857Y-65742000D01*
X170377714Y-65684857D01*
X170663429Y-65627714D01*
X170877714Y-65627714D01*
X171163429Y-65684857D01*
X171306286Y-65742000D01*
X171449143Y-65856286D01*
X171520571Y-66027714D01*
X171520571Y-66142000D01*
X171449143Y-66313429D01*
X171377714Y-66370572D01*
X170877714Y-66370572D01*
X170877714Y-66142000D01*
X171520571Y-66884857D02*
X170020571Y-66884857D01*
X171520571Y-67570572D01*
X170020571Y-67570572D01*
X171520571Y-68142000D02*
X170020571Y-68142000D01*
X170020571Y-68427715D01*
X170092000Y-68599143D01*
X170234857Y-68713429D01*
X170377714Y-68770572D01*
X170663429Y-68827715D01*
X170877714Y-68827715D01*
X171163429Y-68770572D01*
X171306286Y-68713429D01*
X171449143Y-68599143D01*
X171520571Y-68427715D01*
X171520571Y-68142000D01*
X170020571Y-70142001D02*
X170020571Y-70884858D01*
X170592000Y-70484858D01*
X170592000Y-70656286D01*
X170663429Y-70770572D01*
X170734857Y-70827715D01*
X170877714Y-70884858D01*
X171234857Y-70884858D01*
X171377714Y-70827715D01*
X171449143Y-70770572D01*
X171520571Y-70656286D01*
X171520571Y-70313429D01*
X171449143Y-70199143D01*
X171377714Y-70142001D01*
X170020571Y-71227715D02*
X171520571Y-71627715D01*
X170020571Y-72027715D01*
X170020571Y-72313429D02*
X170020571Y-73056286D01*
X170592000Y-72656286D01*
X170592000Y-72827714D01*
X170663429Y-72942000D01*
X170734857Y-72999143D01*
X170877714Y-73056286D01*
X171234857Y-73056286D01*
X171377714Y-72999143D01*
X171449143Y-72942000D01*
X171520571Y-72827714D01*
X171520571Y-72484857D01*
X171449143Y-72370571D01*
X171377714Y-72313429D01*
D12*
X176533570Y-88693571D02*
X175604999Y-88693571D01*
X176104999Y-89265000D01*
X175890713Y-89265000D01*
X175747856Y-89336429D01*
X175676427Y-89407857D01*
X175604999Y-89550714D01*
X175604999Y-89907857D01*
X175676427Y-90050714D01*
X175747856Y-90122143D01*
X175890713Y-90193571D01*
X176319285Y-90193571D01*
X176462142Y-90122143D01*
X176533570Y-90050714D01*
X175176428Y-88693571D02*
X174676428Y-90193571D01*
X174176428Y-88693571D01*
X172605000Y-90122143D02*
X172390714Y-90193571D01*
X172033571Y-90193571D01*
X171890714Y-90122143D01*
X171819285Y-90050714D01*
X171747857Y-89907857D01*
X171747857Y-89765000D01*
X171819285Y-89622143D01*
X171890714Y-89550714D01*
X172033571Y-89479286D01*
X172319285Y-89407857D01*
X172462143Y-89336429D01*
X172533571Y-89265000D01*
X172605000Y-89122143D01*
X172605000Y-88979286D01*
X172533571Y-88836429D01*
X172462143Y-88765000D01*
X172319285Y-88693571D01*
X171962143Y-88693571D01*
X171747857Y-88765000D01*
X170247857Y-90050714D02*
X170319286Y-90122143D01*
X170533572Y-90193571D01*
X170676429Y-90193571D01*
X170890714Y-90122143D01*
X171033572Y-89979286D01*
X171105000Y-89836429D01*
X171176429Y-89550714D01*
X171176429Y-89336429D01*
X171105000Y-89050714D01*
X171033572Y-88907857D01*
X170890714Y-88765000D01*
X170676429Y-88693571D01*
X170533572Y-88693571D01*
X170319286Y-88765000D01*
X170247857Y-88836429D01*
X176176428Y-92672143D02*
X175962142Y-92743571D01*
X175604999Y-92743571D01*
X175462142Y-92672143D01*
X175390713Y-92600714D01*
X175319285Y-92457857D01*
X175319285Y-92315000D01*
X175390713Y-92172143D01*
X175462142Y-92100714D01*
X175604999Y-92029286D01*
X175890713Y-91957857D01*
X176033571Y-91886429D01*
X176104999Y-91815000D01*
X176176428Y-91672143D01*
X176176428Y-91529286D01*
X176104999Y-91386429D01*
X176033571Y-91315000D01*
X175890713Y-91243571D01*
X175533571Y-91243571D01*
X175319285Y-91315000D01*
X174676428Y-92743571D02*
X174676428Y-91243571D01*
X174319285Y-91243571D01*
X174105000Y-91315000D01*
X173962142Y-91457857D01*
X173890714Y-91600714D01*
X173819285Y-91886429D01*
X173819285Y-92100714D01*
X173890714Y-92386429D01*
X173962142Y-92529286D01*
X174105000Y-92672143D01*
X174319285Y-92743571D01*
X174676428Y-92743571D01*
X172033571Y-92743571D02*
X172033571Y-91243571D01*
X170533571Y-92743571D02*
X171390714Y-92743571D01*
X170962142Y-92743571D02*
X170962142Y-91243571D01*
X171104999Y-91457857D01*
X171247857Y-91600714D01*
X171390714Y-91672143D01*
X175712142Y-95293571D02*
X175712142Y-93793571D01*
X175069285Y-93936429D02*
X174997856Y-93865000D01*
X174854999Y-93793571D01*
X174497856Y-93793571D01*
X174354999Y-93865000D01*
X174283570Y-93936429D01*
X174212142Y-94079286D01*
X174212142Y-94222143D01*
X174283570Y-94436429D01*
X175140713Y-95293571D01*
X174212142Y-95293571D01*
X172426428Y-95293571D02*
X172426428Y-93793571D01*
X171854999Y-93793571D02*
X170926428Y-93793571D01*
X171426428Y-94365000D01*
X171212142Y-94365000D01*
X171069285Y-94436429D01*
X170997856Y-94507857D01*
X170926428Y-94650714D01*
X170926428Y-95007857D01*
X170997856Y-95150714D01*
X171069285Y-95222143D01*
X171212142Y-95293571D01*
X171640714Y-95293571D01*
X171783571Y-95222143D01*
X171854999Y-95150714D01*
X176497856Y-96486429D02*
X176426427Y-96415000D01*
X176283570Y-96343571D01*
X175926427Y-96343571D01*
X175783570Y-96415000D01*
X175712141Y-96486429D01*
X175640713Y-96629286D01*
X175640713Y-96772143D01*
X175712141Y-96986429D01*
X176569284Y-97843571D01*
X175640713Y-97843571D01*
X174354999Y-96843571D02*
X174354999Y-97843571D01*
X174712142Y-96272143D02*
X175069285Y-97343571D01*
X174140713Y-97343571D01*
X172497857Y-96486429D02*
X172426428Y-96415000D01*
X172283571Y-96343571D01*
X171926428Y-96343571D01*
X171783571Y-96415000D01*
X171712142Y-96486429D01*
X171640714Y-96629286D01*
X171640714Y-96772143D01*
X171712142Y-96986429D01*
X172569285Y-97843571D01*
X171640714Y-97843571D01*
X170355000Y-96843571D02*
X170355000Y-97843571D01*
X170712143Y-96272143D02*
X171069286Y-97343571D01*
X170140714Y-97343571D01*
X175855000Y-98965000D02*
X175997857Y-98893571D01*
X176212143Y-98893571D01*
X176426428Y-98965000D01*
X176569286Y-99107857D01*
X176640714Y-99250714D01*
X176712143Y-99536429D01*
X176712143Y-99750714D01*
X176640714Y-100036429D01*
X176569286Y-100179286D01*
X176426428Y-100322143D01*
X176212143Y-100393571D01*
X176069286Y-100393571D01*
X175855000Y-100322143D01*
X175783571Y-100250714D01*
X175783571Y-99750714D01*
X176069286Y-99750714D01*
X175140714Y-100393571D02*
X175140714Y-98893571D01*
X174283571Y-100393571D01*
X174283571Y-98893571D01*
X171640714Y-98965000D02*
X171783571Y-98893571D01*
X171997857Y-98893571D01*
X172212142Y-98965000D01*
X172355000Y-99107857D01*
X172426428Y-99250714D01*
X172497857Y-99536429D01*
X172497857Y-99750714D01*
X172426428Y-100036429D01*
X172355000Y-100179286D01*
X172212142Y-100322143D01*
X171997857Y-100393571D01*
X171855000Y-100393571D01*
X171640714Y-100322143D01*
X171569285Y-100250714D01*
X171569285Y-99750714D01*
X171855000Y-99750714D01*
X170926428Y-100393571D02*
X170926428Y-98893571D01*
X170069285Y-100393571D01*
X170069285Y-98893571D01*
X146331714Y-105692000D02*
X146403143Y-105620571D01*
X146474571Y-105406285D01*
X146474571Y-105263428D01*
X146403143Y-105049143D01*
X146260286Y-104906285D01*
X146117429Y-104834857D01*
X145831714Y-104763428D01*
X145617429Y-104763428D01*
X145331714Y-104834857D01*
X145188857Y-104906285D01*
X145046000Y-105049143D01*
X144974571Y-105263428D01*
X144974571Y-105406285D01*
X145046000Y-105620571D01*
X145117429Y-105692000D01*
X146046000Y-106263428D02*
X146046000Y-106977714D01*
X146474571Y-106120571D02*
X144974571Y-106620571D01*
X146474571Y-107120571D01*
X146474571Y-107620571D02*
X144974571Y-107620571D01*
X146474571Y-108477714D01*
X144974571Y-108477714D01*
X146474571Y-109192000D02*
X144974571Y-109192000D01*
X145688857Y-109192000D02*
X145688857Y-110049143D01*
X146474571Y-110049143D02*
X144974571Y-110049143D01*
X144426714Y-105616572D02*
X144498143Y-105545143D01*
X144569571Y-105330857D01*
X144569571Y-105188000D01*
X144498143Y-104973715D01*
X144355286Y-104830857D01*
X144212429Y-104759429D01*
X143926714Y-104688000D01*
X143712429Y-104688000D01*
X143426714Y-104759429D01*
X143283857Y-104830857D01*
X143141000Y-104973715D01*
X143069571Y-105188000D01*
X143069571Y-105330857D01*
X143141000Y-105545143D01*
X143212429Y-105616572D01*
X144141000Y-106188000D02*
X144141000Y-106902286D01*
X144569571Y-106045143D02*
X143069571Y-106545143D01*
X144569571Y-107045143D01*
X144569571Y-107545143D02*
X143069571Y-107545143D01*
X144569571Y-108402286D01*
X143069571Y-108402286D01*
X144569571Y-109830858D02*
X144569571Y-109116572D01*
X143069571Y-109116572D01*
X154388429Y-106164286D02*
X154317000Y-106235715D01*
X154245571Y-106378572D01*
X154245571Y-106735715D01*
X154317000Y-106878572D01*
X154388429Y-106950001D01*
X154531286Y-107021429D01*
X154674143Y-107021429D01*
X154888429Y-106950001D01*
X155745571Y-106092858D01*
X155745571Y-107021429D01*
X154745571Y-108307143D02*
X155745571Y-108307143D01*
X154174143Y-107950000D02*
X155245571Y-107592857D01*
X155245571Y-108521429D01*
X154245571Y-108878571D02*
X155745571Y-109378571D01*
X154245571Y-109878571D01*
X156857000Y-106807143D02*
X156785571Y-106664286D01*
X156785571Y-106450000D01*
X156857000Y-106235715D01*
X156999857Y-106092857D01*
X157142714Y-106021429D01*
X157428429Y-105950000D01*
X157642714Y-105950000D01*
X157928429Y-106021429D01*
X158071286Y-106092857D01*
X158214143Y-106235715D01*
X158285571Y-106450000D01*
X158285571Y-106592857D01*
X158214143Y-106807143D01*
X158142714Y-106878572D01*
X157642714Y-106878572D01*
X157642714Y-106592857D01*
X158285571Y-107521429D02*
X156785571Y-107521429D01*
X158285571Y-108378572D01*
X156785571Y-108378572D01*
X158285571Y-109092858D02*
X156785571Y-109092858D01*
X156785571Y-109450001D01*
X156857000Y-109664286D01*
X156999857Y-109807144D01*
X157142714Y-109878572D01*
X157428429Y-109950001D01*
X157642714Y-109950001D01*
X157928429Y-109878572D01*
X158071286Y-109807144D01*
X158214143Y-109664286D01*
X158285571Y-109450001D01*
X158285571Y-109092858D01*
D13*
X135800000Y-73900000D02*
X164200000Y-73900000D01*
X164200000Y-83300000D02*
X135800000Y-83300000D01*
X135800000Y-83300000D02*
X135800000Y-73900000D01*
X164200000Y-83300000D02*
X164200000Y-73900000D01*
D14*
X152300000Y-73900000D02*
X152300000Y-75300000D01*
X152300000Y-75300000D02*
X147700000Y-75300000D01*
X147700000Y-75300000D02*
X147700000Y-73900000D01*
D13*
X169300000Y-84200000D02*
X169300000Y-105000000D01*
X159900000Y-105000000D02*
X159900000Y-84200000D01*
X159900000Y-84200000D02*
X169300000Y-84200000D01*
X159900000Y-105000000D02*
X169300000Y-105000000D01*
D14*
X169300000Y-96900000D02*
X167900000Y-96900000D01*
X167900000Y-96900000D02*
X167900000Y-92300000D01*
X167900000Y-92300000D02*
X169300000Y-92300000D01*
D15*
X130310000Y-83859000D02*
X131310000Y-83859000D01*
X131310000Y-85559000D02*
X130310000Y-85559000D01*
X136450000Y-83900000D02*
X136450000Y-84900000D01*
X134750000Y-84900000D02*
X134750000Y-83900000D01*
X134454000Y-116213000D02*
X134454000Y-117213000D01*
X132754000Y-117213000D02*
X132754000Y-116213000D01*
X140554000Y-119262000D02*
X139354000Y-119262000D01*
X139354000Y-121022000D02*
X140554000Y-121022000D01*
X148390500Y-89627000D02*
X148390500Y-88427000D01*
X146630500Y-88427000D02*
X146630500Y-89627000D01*
X153407000Y-89627000D02*
X153407000Y-88427000D01*
X151647000Y-88427000D02*
X151647000Y-89627000D01*
D16*
X158369000Y-124333000D02*
X158369000Y-124587000D01*
X158369000Y-124587000D02*
X150749000Y-124587000D01*
X150749000Y-124587000D02*
X150749000Y-124333000D01*
X158369000Y-114300000D02*
X158369000Y-110363000D01*
X158369000Y-110363000D02*
X150749000Y-110363000D01*
X150749000Y-110363000D02*
X150749000Y-124333000D01*
X158369000Y-124333000D02*
X158369000Y-114300000D01*
X150495000Y-124333000D02*
X150495000Y-124587000D01*
X150495000Y-124587000D02*
X142875000Y-124587000D01*
X142875000Y-124587000D02*
X142875000Y-124333000D01*
X150495000Y-114300000D02*
X150495000Y-110363000D01*
X150495000Y-110363000D02*
X142875000Y-110363000D01*
X142875000Y-110363000D02*
X142875000Y-124333000D01*
X150495000Y-124333000D02*
X150495000Y-114300000D01*
D10*
X129667000Y-93218000D02*
G75*
G03X129667000Y-93218000I-508000J0D01*
G01*
D16*
X129598000Y-93911000D02*
X130123000Y-93911000D01*
X129598000Y-101161000D02*
X130123000Y-101161000D01*
X136848000Y-101161000D02*
X136323000Y-101161000D01*
X136848000Y-93911000D02*
X136323000Y-93911000D01*
X129598000Y-93911000D02*
X129598000Y-94436000D01*
X136848000Y-93911000D02*
X136848000Y-94436000D01*
X136848000Y-101161000D02*
X136848000Y-100636000D01*
X129598000Y-101161000D02*
X129598000Y-100636000D01*
X130123000Y-93911000D02*
X130123000Y-92536000D01*
X136609000Y-119288000D02*
X136609000Y-119143000D01*
X140759000Y-119288000D02*
X140759000Y-119143000D01*
X140759000Y-114138000D02*
X140759000Y-114283000D01*
X136609000Y-114138000D02*
X136609000Y-114283000D01*
X136609000Y-119288000D02*
X140759000Y-119288000D01*
X136609000Y-114138000D02*
X140759000Y-114138000D01*
X136609000Y-119143000D02*
X135209000Y-119143000D01*
D15*
X132978000Y-87030000D02*
X132978000Y-88230000D01*
X134738000Y-88230000D02*
X134738000Y-87030000D01*
X129247000Y-88400000D02*
X129247000Y-89400000D01*
X127547000Y-89400000D02*
X127547000Y-88400000D01*
D16*
X135191000Y-108334000D02*
X132341000Y-108334000D01*
X127191000Y-108334000D02*
X130041000Y-108334000D01*
X135191000Y-105984000D02*
X127191000Y-105984000D01*
D15*
X134077000Y-108467000D02*
X132877000Y-108467000D01*
X132877000Y-110227000D02*
X134077000Y-110227000D01*
D16*
X132491000Y-90119000D02*
X132491000Y-86919000D01*
X132491000Y-86919000D02*
X129891000Y-86919000D01*
X129891000Y-86919000D02*
X129891000Y-90119000D01*
X129891000Y-90119000D02*
X132491000Y-90119000D01*
D15*
X127389000Y-101385000D02*
X128389000Y-101385000D01*
X128389000Y-103085000D02*
X127389000Y-103085000D01*
X127389000Y-92114000D02*
X128389000Y-92114000D01*
X128389000Y-93814000D02*
X127389000Y-93814000D01*
X139184000Y-102831000D02*
X138184000Y-102831000D01*
X138184000Y-101131000D02*
X139184000Y-101131000D01*
X139184000Y-93433000D02*
X138184000Y-93433000D01*
X138184000Y-91733000D02*
X139184000Y-91733000D01*
X151257000Y-96513000D02*
X143517000Y-96513000D01*
X143517000Y-96513000D02*
X143517000Y-93733000D01*
X143517000Y-93733000D02*
X151257000Y-93733000D01*
X151257000Y-93733000D02*
X151257000Y-96513000D01*
X152527000Y-96513000D02*
X153917000Y-96513000D01*
X153917000Y-96513000D02*
X153917000Y-95123000D01*
D16*
X132024286Y-82478619D02*
X131976667Y-82431000D01*
X131881429Y-82383381D01*
X131643333Y-82383381D01*
X131548095Y-82431000D01*
X131500476Y-82478619D01*
X131452857Y-82573857D01*
X131452857Y-82669095D01*
X131500476Y-82811952D01*
X132071905Y-83383381D01*
X131452857Y-83383381D01*
X131071905Y-82478619D02*
X131024286Y-82431000D01*
X130929048Y-82383381D01*
X130690952Y-82383381D01*
X130595714Y-82431000D01*
X130548095Y-82478619D01*
X130500476Y-82573857D01*
X130500476Y-82669095D01*
X130548095Y-82811952D01*
X131119524Y-83383381D01*
X130500476Y-83383381D01*
X130071905Y-82716714D02*
X130071905Y-83716714D01*
X130071905Y-82764333D02*
X129976667Y-82716714D01*
X129786190Y-82716714D01*
X129690952Y-82764333D01*
X129643333Y-82811952D01*
X129595714Y-82907190D01*
X129595714Y-83192905D01*
X129643333Y-83288143D01*
X129690952Y-83335762D01*
X129786190Y-83383381D01*
X129976667Y-83383381D01*
X130071905Y-83335762D01*
X136945714Y-84129596D02*
X137612381Y-84129596D01*
X136945714Y-83701024D02*
X137469524Y-83701024D01*
X137564762Y-83748643D01*
X137612381Y-83843881D01*
X137612381Y-83986739D01*
X137564762Y-84081977D01*
X137517143Y-84129596D01*
X137612381Y-85129596D02*
X137612381Y-84558167D01*
X137612381Y-84843881D02*
X136612381Y-84843881D01*
X136755238Y-84748643D01*
X136850476Y-84653405D01*
X136898095Y-84558167D01*
X131639714Y-116451096D02*
X132306381Y-116451096D01*
X131639714Y-116022524D02*
X132163524Y-116022524D01*
X132258762Y-116070143D01*
X132306381Y-116165381D01*
X132306381Y-116308239D01*
X132258762Y-116403477D01*
X132211143Y-116451096D01*
X132306381Y-117451096D02*
X132306381Y-116879667D01*
X132306381Y-117165381D02*
X131306381Y-117165381D01*
X131449238Y-117070143D01*
X131544476Y-116974905D01*
X131592095Y-116879667D01*
X140549238Y-122245381D02*
X141120667Y-122245381D01*
X140834953Y-122245381D02*
X140834953Y-121245381D01*
X140930191Y-121388238D01*
X141025429Y-121483476D01*
X141120667Y-121531095D01*
X139930191Y-121245381D02*
X139834952Y-121245381D01*
X139739714Y-121293000D01*
X139692095Y-121340619D01*
X139644476Y-121435857D01*
X139596857Y-121626333D01*
X139596857Y-121864429D01*
X139644476Y-122054905D01*
X139692095Y-122150143D01*
X139739714Y-122197762D01*
X139834952Y-122245381D01*
X139930191Y-122245381D01*
X140025429Y-122197762D01*
X140073048Y-122150143D01*
X140120667Y-122054905D01*
X140168286Y-121864429D01*
X140168286Y-121626333D01*
X140120667Y-121435857D01*
X140073048Y-121340619D01*
X140025429Y-121293000D01*
X139930191Y-121245381D01*
X139168286Y-122245381D02*
X139168286Y-121245381D01*
X139073048Y-121864429D02*
X138787333Y-122245381D01*
X138787333Y-121578714D02*
X139168286Y-121959667D01*
X146121381Y-88907953D02*
X146121381Y-88336524D01*
X146121381Y-88622238D02*
X145121381Y-88622238D01*
X145264238Y-88527000D01*
X145359476Y-88431762D01*
X145407095Y-88336524D01*
X146121381Y-89336524D02*
X145121381Y-89336524D01*
X145740429Y-89431762D02*
X146121381Y-89717477D01*
X145454714Y-89717477D02*
X145835667Y-89336524D01*
X154729381Y-88907953D02*
X154729381Y-88336524D01*
X154729381Y-88622238D02*
X153729381Y-88622238D01*
X153872238Y-88527000D01*
X153967476Y-88431762D01*
X154015095Y-88336524D01*
X154729381Y-89336524D02*
X153729381Y-89336524D01*
X154348429Y-89431762D02*
X154729381Y-89717477D01*
X154062714Y-89717477D02*
X154443667Y-89336524D01*
X155670095Y-85304381D02*
X155051047Y-85304381D01*
X155384381Y-85685333D01*
X155241523Y-85685333D01*
X155146285Y-85732952D01*
X155098666Y-85780571D01*
X155051047Y-85875810D01*
X155051047Y-86113905D01*
X155098666Y-86209143D01*
X155146285Y-86256762D01*
X155241523Y-86304381D01*
X155527238Y-86304381D01*
X155622476Y-86256762D01*
X155670095Y-86209143D01*
X154765333Y-85304381D02*
X154432000Y-86304381D01*
X154098666Y-85304381D01*
X153860571Y-85304381D02*
X153241523Y-85304381D01*
X153574857Y-85685333D01*
X153431999Y-85685333D01*
X153336761Y-85732952D01*
X153289142Y-85780571D01*
X153241523Y-85875810D01*
X153241523Y-86113905D01*
X153289142Y-86209143D01*
X153336761Y-86256762D01*
X153431999Y-86304381D01*
X153717714Y-86304381D01*
X153812952Y-86256762D01*
X153860571Y-86209143D01*
X135120119Y-86780905D02*
X135072500Y-86828524D01*
X135024881Y-86923762D01*
X135024881Y-87161858D01*
X135072500Y-87257096D01*
X135120119Y-87304715D01*
X135215357Y-87352334D01*
X135310595Y-87352334D01*
X135453452Y-87304715D01*
X136024881Y-86733286D01*
X136024881Y-87352334D01*
X135120119Y-87733286D02*
X135072500Y-87780905D01*
X135024881Y-87876143D01*
X135024881Y-88114239D01*
X135072500Y-88209477D01*
X135120119Y-88257096D01*
X135215357Y-88304715D01*
X135310595Y-88304715D01*
X135453452Y-88257096D01*
X136024881Y-87685667D01*
X136024881Y-88304715D01*
X135024881Y-88923762D02*
X135024881Y-89019001D01*
X135072500Y-89114239D01*
X135120119Y-89161858D01*
X135215357Y-89209477D01*
X135405833Y-89257096D01*
X135643929Y-89257096D01*
X135834405Y-89209477D01*
X135929643Y-89161858D01*
X135977262Y-89114239D01*
X136024881Y-89019001D01*
X136024881Y-88923762D01*
X135977262Y-88828524D01*
X135929643Y-88780905D01*
X135834405Y-88733286D01*
X135643929Y-88685667D01*
X135405833Y-88685667D01*
X135215357Y-88733286D01*
X135120119Y-88780905D01*
X135072500Y-88828524D01*
X135024881Y-88923762D01*
X136024881Y-90257096D02*
X135548690Y-89923762D01*
X136024881Y-89685667D02*
X135024881Y-89685667D01*
X135024881Y-90066620D01*
X135072500Y-90161858D01*
X135120119Y-90209477D01*
X135215357Y-90257096D01*
X135358214Y-90257096D01*
X135453452Y-90209477D01*
X135501071Y-90161858D01*
X135548690Y-90066620D01*
X135548690Y-89685667D01*
X126194619Y-87685714D02*
X126147000Y-87733333D01*
X126099381Y-87828571D01*
X126099381Y-88066667D01*
X126147000Y-88161905D01*
X126194619Y-88209524D01*
X126289857Y-88257143D01*
X126385095Y-88257143D01*
X126527952Y-88209524D01*
X127099381Y-87638095D01*
X127099381Y-88257143D01*
X126194619Y-88638095D02*
X126147000Y-88685714D01*
X126099381Y-88780952D01*
X126099381Y-89019048D01*
X126147000Y-89114286D01*
X126194619Y-89161905D01*
X126289857Y-89209524D01*
X126385095Y-89209524D01*
X126527952Y-89161905D01*
X127099381Y-88590476D01*
X127099381Y-89209524D01*
X126432714Y-89638095D02*
X127432714Y-89638095D01*
X126480333Y-89638095D02*
X126432714Y-89733333D01*
X126432714Y-89923810D01*
X126480333Y-90019048D01*
X126527952Y-90066667D01*
X126623190Y-90114286D01*
X126908905Y-90114286D01*
X127004143Y-90066667D01*
X127051762Y-90019048D01*
X127099381Y-89923810D01*
X127099381Y-89733333D01*
X127051762Y-89638095D01*
X130984524Y-109799381D02*
X130984524Y-108799381D01*
X130651190Y-109513667D01*
X130317857Y-108799381D01*
X130317857Y-109799381D01*
X129317857Y-109799381D02*
X129889286Y-109799381D01*
X129603572Y-109799381D02*
X129603572Y-108799381D01*
X129698810Y-108942238D01*
X129794048Y-109037476D01*
X129889286Y-109085095D01*
X128150904Y-103770714D02*
X128150904Y-104437381D01*
X128579476Y-103770714D02*
X128579476Y-104294524D01*
X128531857Y-104389762D01*
X128436619Y-104437381D01*
X128293761Y-104437381D01*
X128198523Y-104389762D01*
X128150904Y-104342143D01*
X127150904Y-104437381D02*
X127722333Y-104437381D01*
X127436619Y-104437381D02*
X127436619Y-103437381D01*
X127531857Y-103580238D01*
X127627095Y-103675476D01*
X127722333Y-103723095D01*
X126055404Y-91225714D02*
X126055404Y-91892381D01*
X126483976Y-91225714D02*
X126483976Y-91749524D01*
X126436357Y-91844762D01*
X126341119Y-91892381D01*
X126198261Y-91892381D01*
X126103023Y-91844762D01*
X126055404Y-91797143D01*
X125055404Y-91892381D02*
X125626833Y-91892381D01*
X125341119Y-91892381D02*
X125341119Y-90892381D01*
X125436357Y-91035238D01*
X125531595Y-91130476D01*
X125626833Y-91178095D01*
X138882404Y-103290714D02*
X138882404Y-103957381D01*
X139310976Y-103290714D02*
X139310976Y-103814524D01*
X139263357Y-103909762D01*
X139168119Y-103957381D01*
X139025261Y-103957381D01*
X138930023Y-103909762D01*
X138882404Y-103862143D01*
X137882404Y-103957381D02*
X138453833Y-103957381D01*
X138168119Y-103957381D02*
X138168119Y-102957381D01*
X138263357Y-103100238D01*
X138358595Y-103195476D01*
X138453833Y-103243095D01*
X142216166Y-93035381D02*
X142787595Y-93035381D01*
X142501881Y-93035381D02*
X142501881Y-92035381D01*
X142597119Y-92178238D01*
X142692357Y-92273476D01*
X142787595Y-92321095D01*
X141359023Y-92368714D02*
X141359023Y-93035381D01*
X141787595Y-92368714D02*
X141787595Y-92892524D01*
X141739976Y-92987762D01*
X141644738Y-93035381D01*
X141501880Y-93035381D01*
X141406642Y-92987762D01*
X141359023Y-92940143D01*
X151097952Y-97797881D02*
X151431286Y-97321690D01*
X151669381Y-97797881D02*
X151669381Y-96797881D01*
X151288428Y-96797881D01*
X151193190Y-96845500D01*
X151145571Y-96893119D01*
X151097952Y-96988357D01*
X151097952Y-97131214D01*
X151145571Y-97226452D01*
X151193190Y-97274071D01*
X151288428Y-97321690D01*
X151669381Y-97321690D01*
X150478905Y-96797881D02*
X150288428Y-96797881D01*
X150193190Y-96845500D01*
X150097952Y-96940738D01*
X150050333Y-97131214D01*
X150050333Y-97464548D01*
X150097952Y-97655024D01*
X150193190Y-97750262D01*
X150288428Y-97797881D01*
X150478905Y-97797881D01*
X150574143Y-97750262D01*
X150669381Y-97655024D01*
X150717000Y-97464548D01*
X150717000Y-97131214D01*
X150669381Y-96940738D01*
X150574143Y-96845500D01*
X150478905Y-96797881D01*
X149764619Y-96797881D02*
X149193190Y-96797881D01*
X149478905Y-97797881D02*
X149478905Y-96797881D01*
X148907476Y-96893119D02*
X148859857Y-96845500D01*
X148764619Y-96797881D01*
X148526523Y-96797881D01*
X148431285Y-96845500D01*
X148383666Y-96893119D01*
X148336047Y-96988357D01*
X148336047Y-97083595D01*
X148383666Y-97226452D01*
X148955095Y-97797881D01*
X148336047Y-97797881D01*
X147907476Y-97274071D02*
X147574142Y-97274071D01*
X147431285Y-97797881D02*
X147907476Y-97797881D01*
X147907476Y-96797881D01*
X147431285Y-96797881D01*
X147097952Y-96797881D02*
X146431285Y-97797881D01*
X146431285Y-96797881D02*
X147097952Y-97797881D01*
X146193190Y-96797881D02*
X145621761Y-96797881D01*
X145907476Y-97797881D02*
X145907476Y-96797881D01*
X170179904Y-105799000D02*
X170275142Y-105751381D01*
X170417999Y-105751381D01*
X170560857Y-105799000D01*
X170656095Y-105894238D01*
X170703714Y-105989476D01*
X170751333Y-106179952D01*
X170751333Y-106322810D01*
X170703714Y-106513286D01*
X170656095Y-106608524D01*
X170560857Y-106703762D01*
X170417999Y-106751381D01*
X170322761Y-106751381D01*
X170179904Y-106703762D01*
X170132285Y-106656143D01*
X170132285Y-106322810D01*
X170322761Y-106322810D01*
X169703714Y-106751381D02*
X169703714Y-105751381D01*
X169132285Y-106751381D01*
X169132285Y-105751381D01*
X168656095Y-106751381D02*
X168656095Y-105751381D01*
X168418000Y-105751381D01*
X168275142Y-105799000D01*
X168179904Y-105894238D01*
X168132285Y-105989476D01*
X168084666Y-106179952D01*
X168084666Y-106322810D01*
X168132285Y-106513286D01*
X168179904Y-106608524D01*
X168275142Y-106703762D01*
X168418000Y-106751381D01*
X168656095Y-106751381D01*
X158368904Y-91575000D02*
X158464142Y-91527381D01*
X158606999Y-91527381D01*
X158749857Y-91575000D01*
X158845095Y-91670238D01*
X158892714Y-91765476D01*
X158940333Y-91955952D01*
X158940333Y-92098810D01*
X158892714Y-92289286D01*
X158845095Y-92384524D01*
X158749857Y-92479762D01*
X158606999Y-92527381D01*
X158511761Y-92527381D01*
X158368904Y-92479762D01*
X158321285Y-92432143D01*
X158321285Y-92098810D01*
X158511761Y-92098810D01*
X157892714Y-92527381D02*
X157892714Y-91527381D01*
X157321285Y-92527381D01*
X157321285Y-91527381D01*
X156845095Y-92527381D02*
X156845095Y-91527381D01*
X156607000Y-91527381D01*
X156464142Y-91575000D01*
X156368904Y-91670238D01*
X156321285Y-91765476D01*
X156273666Y-91955952D01*
X156273666Y-92098810D01*
X156321285Y-92289286D01*
X156368904Y-92384524D01*
X156464142Y-92479762D01*
X156607000Y-92527381D01*
X156845095Y-92527381D01*
X165671476Y-105751381D02*
X166147667Y-105751381D01*
X166195286Y-106227571D01*
X166147667Y-106179952D01*
X166052429Y-106132333D01*
X165814333Y-106132333D01*
X165719095Y-106179952D01*
X165671476Y-106227571D01*
X165623857Y-106322810D01*
X165623857Y-106560905D01*
X165671476Y-106656143D01*
X165719095Y-106703762D01*
X165814333Y-106751381D01*
X166052429Y-106751381D01*
X166147667Y-106703762D01*
X166195286Y-106656143D01*
X165338143Y-105751381D02*
X165004810Y-106751381D01*
X164671476Y-105751381D01*
%LPC*%
D17*
X139065000Y-90805000D03*
X133985000Y-90805000D03*
X139065000Y-83185000D03*
X133985000Y-83185000D03*
D18*
X158890000Y-80120000D03*
X158890000Y-77080000D03*
X156350000Y-77080000D03*
X156350000Y-80120000D03*
X153810000Y-80120000D03*
X153810000Y-77080000D03*
X151270000Y-77080000D03*
X151270000Y-80120000D03*
X148730000Y-80120000D03*
X148730000Y-77080000D03*
D19*
X141110000Y-77080000D03*
D18*
X141110000Y-80120000D03*
X143650000Y-77080000D03*
X143650000Y-80120000D03*
X146190000Y-77080000D03*
X146190000Y-80120000D03*
D20*
X166120000Y-99680000D03*
X163080000Y-99680000D03*
X163080000Y-97140000D03*
X166120000Y-97140000D03*
D21*
X166120000Y-89520000D03*
D20*
X163080000Y-89520000D03*
X166120000Y-92060000D03*
X163080000Y-92060000D03*
X166120000Y-94600000D03*
X163080000Y-94600000D03*
D22*
X132060000Y-84709000D03*
X129560000Y-84709000D03*
D23*
X135600000Y-85650000D03*
X135600000Y-83150000D03*
X133604000Y-117963000D03*
X133604000Y-115463000D03*
D24*
X138604000Y-120142000D03*
X141304000Y-120142000D03*
D25*
X147510500Y-87677000D03*
X147510500Y-90377000D03*
X152527000Y-87677000D03*
X152527000Y-90377000D03*
D26*
X152019000Y-121412000D03*
X152019000Y-116332000D03*
X154559000Y-121412000D03*
X154559000Y-116332000D03*
X144145000Y-121412000D03*
X144145000Y-116332000D03*
X146685000Y-121412000D03*
X146685000Y-116332000D03*
D27*
X157607000Y-85852000D03*
D28*
X130473000Y-92836000D03*
D29*
X137923000Y-94786000D03*
D28*
X135973000Y-102236000D03*
D29*
X128523000Y-100286000D03*
D28*
X130973000Y-92836000D03*
X131473000Y-92836000D03*
X131973000Y-92836000D03*
X132473000Y-92836000D03*
X132973000Y-92836000D03*
X133473000Y-92836000D03*
X133973000Y-92836000D03*
X134473000Y-92836000D03*
X134973000Y-92836000D03*
X135473000Y-92836000D03*
X135973000Y-92836000D03*
D29*
X137923000Y-95286000D03*
X137923000Y-95786000D03*
X137923000Y-96286000D03*
X137923000Y-96786000D03*
X137923000Y-97286000D03*
X137923000Y-97786000D03*
X137923000Y-98286000D03*
X137923000Y-98786000D03*
X137923000Y-99286000D03*
X137923000Y-99786000D03*
X137923000Y-100286000D03*
D28*
X135473000Y-102236000D03*
X134973000Y-102236000D03*
X134473000Y-102236000D03*
X133973000Y-102236000D03*
X133473000Y-102236000D03*
X132973000Y-102236000D03*
X132473000Y-102236000D03*
X131973000Y-102236000D03*
X131473000Y-102236000D03*
X130973000Y-102236000D03*
X130473000Y-102236000D03*
D29*
X128523000Y-99786000D03*
X128523000Y-99286000D03*
X128523000Y-98786000D03*
X128523000Y-98286000D03*
X128523000Y-97786000D03*
X128523000Y-97286000D03*
X128523000Y-96786000D03*
X128523000Y-96286000D03*
X128523000Y-95786000D03*
X128523000Y-95286000D03*
X128523000Y-94786000D03*
D30*
X135684000Y-118618000D03*
X135684000Y-117348000D03*
X135684000Y-116078000D03*
X135684000Y-114808000D03*
X141684000Y-114808000D03*
X141684000Y-116078000D03*
X141684000Y-117348000D03*
X141684000Y-118618000D03*
D31*
X152499360Y-92499380D03*
X150000000Y-92499380D03*
X147500640Y-92499380D03*
D32*
X156200140Y-100000000D03*
X143799860Y-100000000D03*
D31*
X152499360Y-107000240D03*
X147500640Y-107000240D03*
D25*
X133858000Y-88980000D03*
X133858000Y-86280000D03*
D23*
X128397000Y-90150000D03*
X128397000Y-87650000D03*
D33*
X131191000Y-106934000D03*
X132491000Y-106934000D03*
X131841000Y-107934000D03*
X130541000Y-107934000D03*
X129891000Y-106934000D03*
D34*
X127616000Y-107154000D03*
X134766000Y-107154000D03*
D24*
X132127000Y-109347000D03*
X134827000Y-109347000D03*
D35*
X130391000Y-89919000D03*
X130391000Y-87119000D03*
X131991000Y-89919000D03*
X131991000Y-87119000D03*
D22*
X129139000Y-102235000D03*
X126639000Y-102235000D03*
X129139000Y-92964000D03*
X126639000Y-92964000D03*
X137434000Y-101981000D03*
X139934000Y-101981000D03*
X137434000Y-92583000D03*
X139934000Y-92583000D03*
D33*
X136906000Y-109728000D03*
X136906000Y-111028000D03*
X137906000Y-110378000D03*
X137906000Y-109078000D03*
X136906000Y-108428000D03*
D36*
X137126000Y-106153000D03*
X137126000Y-113303000D03*
D37*
X152527000Y-95123000D03*
D38*
X149987000Y-95123000D03*
X147447000Y-95123000D03*
X144907000Y-95123000D03*
D39*
X169418000Y-108966000D03*
X157607000Y-89535000D03*
D27*
X132080000Y-77724000D03*
X165481000Y-108966000D03*
D37*
X133604000Y-112776000D03*
M02*
