G04 #@! TF.FileFunction,Legend,Bot*
%FSLAX46Y46*%
G04 Gerber Fmt 4.6, Leading zero omitted, Abs format (unit mm)*
G04 Created by KiCad (PCBNEW 4.0.5) date 07/26/17 23:18:41*
%MOMM*%
%LPD*%
G01*
G04 APERTURE LIST*
%ADD10C,0.100000*%
%ADD11C,0.200000*%
%ADD12C,0.250000*%
%ADD13C,0.300000*%
%ADD14C,0.150000*%
%ADD15C,0.304800*%
%ADD16C,0.299720*%
%ADD17C,0.120000*%
%ADD18R,1.700000X1.700000*%
%ADD19O,1.700000X1.700000*%
%ADD20O,1.501140X1.998980*%
%ADD21C,3.500120*%
%ADD22R,0.300000X2.000000*%
%ADD23R,2.000000X0.300000*%
%ADD24O,2.000000X1.500000*%
%ADD25R,2.000000X1.500000*%
%ADD26R,1.350000X1.350000*%
%ADD27O,1.350000X1.350000*%
%ADD28C,3.200000*%
%ADD29O,1.500000X2.000000*%
%ADD30R,1.500000X2.000000*%
%ADD31R,1.500000X1.250000*%
%ADD32R,1.250000X1.500000*%
%ADD33R,1.500000X1.300000*%
%ADD34R,1.300000X1.500000*%
%ADD35R,2.200000X0.600000*%
%ADD36R,1.200000X2.000000*%
%ADD37C,0.950000*%
%ADD38O,2.200000X1.000000*%
%ADD39R,0.600000X2.200000*%
%ADD40R,1.900000X0.800000*%
%ADD41R,0.800000X1.900000*%
%ADD42C,1.600000*%
%ADD43R,0.650000X1.500000*%
%ADD44R,2.000000X1.700000*%
%ADD45C,1.850000*%
%ADD46C,2.000000*%
%ADD47C,2.499360*%
G04 APERTURE END LIST*
D10*
D11*
X142672857Y-67678286D02*
X141872857Y-68097333D01*
X141872857Y-67678286D02*
X142672857Y-68097333D01*
X142672857Y-68859238D02*
X142101429Y-68592571D01*
X142672857Y-68402095D02*
X141472857Y-68402095D01*
X141472857Y-68706857D01*
X141530000Y-68783048D01*
X141587143Y-68821143D01*
X141701429Y-68859238D01*
X141872857Y-68859238D01*
X141987143Y-68821143D01*
X142044286Y-68783048D01*
X142101429Y-68706857D01*
X142101429Y-68402095D01*
X142044286Y-69468762D02*
X142101429Y-69583048D01*
X142158571Y-69621143D01*
X142272857Y-69659238D01*
X142444286Y-69659238D01*
X142558571Y-69621143D01*
X142615714Y-69583048D01*
X142672857Y-69506857D01*
X142672857Y-69202095D01*
X141472857Y-69202095D01*
X141472857Y-69468762D01*
X141530000Y-69544952D01*
X141587143Y-69583048D01*
X141701429Y-69621143D01*
X141815714Y-69621143D01*
X141930000Y-69583048D01*
X141987143Y-69544952D01*
X142044286Y-69468762D01*
X142044286Y-69202095D01*
X142672857Y-70535429D02*
X141872857Y-70954476D01*
X141872857Y-70535429D02*
X142672857Y-70954476D01*
X142672857Y-71716381D02*
X142101429Y-71449714D01*
X142672857Y-71259238D02*
X141472857Y-71259238D01*
X141472857Y-71564000D01*
X141530000Y-71640191D01*
X141587143Y-71678286D01*
X141701429Y-71716381D01*
X141872857Y-71716381D01*
X141987143Y-71678286D01*
X142044286Y-71640191D01*
X142101429Y-71564000D01*
X142101429Y-71259238D01*
X142672857Y-72059238D02*
X141472857Y-72059238D01*
X141472857Y-72249714D01*
X141530000Y-72364000D01*
X141644286Y-72440191D01*
X141758571Y-72478286D01*
X141987143Y-72516381D01*
X142158571Y-72516381D01*
X142387143Y-72478286D01*
X142501429Y-72440191D01*
X142615714Y-72364000D01*
X142672857Y-72249714D01*
X142672857Y-72059238D01*
X144615714Y-67716381D02*
X144672857Y-67830667D01*
X144672857Y-68021143D01*
X144615714Y-68097333D01*
X144558571Y-68135429D01*
X144444286Y-68173524D01*
X144330000Y-68173524D01*
X144215714Y-68135429D01*
X144158571Y-68097333D01*
X144101429Y-68021143D01*
X144044286Y-67868762D01*
X143987143Y-67792571D01*
X143930000Y-67754476D01*
X143815714Y-67716381D01*
X143701429Y-67716381D01*
X143587143Y-67754476D01*
X143530000Y-67792571D01*
X143472857Y-67868762D01*
X143472857Y-68059238D01*
X143530000Y-68173524D01*
X144558571Y-68973524D02*
X144615714Y-68935429D01*
X144672857Y-68821143D01*
X144672857Y-68744953D01*
X144615714Y-68630667D01*
X144501429Y-68554476D01*
X144387143Y-68516381D01*
X144158571Y-68478286D01*
X143987143Y-68478286D01*
X143758571Y-68516381D01*
X143644286Y-68554476D01*
X143530000Y-68630667D01*
X143472857Y-68744953D01*
X143472857Y-68821143D01*
X143530000Y-68935429D01*
X143587143Y-68973524D01*
X144672857Y-69735429D02*
X144672857Y-69278286D01*
X144672857Y-69506857D02*
X143472857Y-69506857D01*
X143644286Y-69430667D01*
X143758571Y-69354476D01*
X143815714Y-69278286D01*
X144672857Y-70611620D02*
X143872857Y-71030667D01*
X143872857Y-70611620D02*
X144672857Y-71030667D01*
X144672857Y-71792572D02*
X144101429Y-71525905D01*
X144672857Y-71335429D02*
X143472857Y-71335429D01*
X143472857Y-71640191D01*
X143530000Y-71716382D01*
X143587143Y-71754477D01*
X143701429Y-71792572D01*
X143872857Y-71792572D01*
X143987143Y-71754477D01*
X144044286Y-71716382D01*
X144101429Y-71640191D01*
X144101429Y-71335429D01*
X144330000Y-72097334D02*
X144330000Y-72478286D01*
X144672857Y-72021143D02*
X143472857Y-72287810D01*
X144672857Y-72554477D01*
X146615714Y-67716381D02*
X146672857Y-67830667D01*
X146672857Y-68021143D01*
X146615714Y-68097333D01*
X146558571Y-68135429D01*
X146444286Y-68173524D01*
X146330000Y-68173524D01*
X146215714Y-68135429D01*
X146158571Y-68097333D01*
X146101429Y-68021143D01*
X146044286Y-67868762D01*
X145987143Y-67792571D01*
X145930000Y-67754476D01*
X145815714Y-67716381D01*
X145701429Y-67716381D01*
X145587143Y-67754476D01*
X145530000Y-67792571D01*
X145472857Y-67868762D01*
X145472857Y-68059238D01*
X145530000Y-68173524D01*
X146672857Y-68516381D02*
X145472857Y-68516381D01*
X145472857Y-68706857D01*
X145530000Y-68821143D01*
X145644286Y-68897334D01*
X145758571Y-68935429D01*
X145987143Y-68973524D01*
X146158571Y-68973524D01*
X146387143Y-68935429D01*
X146501429Y-68897334D01*
X146615714Y-68821143D01*
X146672857Y-68706857D01*
X146672857Y-68516381D01*
X146672857Y-69735429D02*
X146672857Y-69278286D01*
X146672857Y-69506857D02*
X145472857Y-69506857D01*
X145644286Y-69430667D01*
X145758571Y-69354476D01*
X145815714Y-69278286D01*
X145472857Y-70611620D02*
X145472857Y-71106858D01*
X145930000Y-70840191D01*
X145930000Y-70954477D01*
X145987143Y-71030667D01*
X146044286Y-71068763D01*
X146158571Y-71106858D01*
X146444286Y-71106858D01*
X146558571Y-71068763D01*
X146615714Y-71030667D01*
X146672857Y-70954477D01*
X146672857Y-70725905D01*
X146615714Y-70649715D01*
X146558571Y-70611620D01*
X145472857Y-71335429D02*
X146672857Y-71602096D01*
X145472857Y-71868763D01*
X145472857Y-72059239D02*
X145472857Y-72554477D01*
X145930000Y-72287810D01*
X145930000Y-72402096D01*
X145987143Y-72478286D01*
X146044286Y-72516382D01*
X146158571Y-72554477D01*
X146444286Y-72554477D01*
X146558571Y-72516382D01*
X146615714Y-72478286D01*
X146672857Y-72402096D01*
X146672857Y-72173524D01*
X146615714Y-72097334D01*
X146558571Y-72059239D01*
X148672857Y-67754476D02*
X147472857Y-67754476D01*
X147472857Y-68287809D02*
X147472857Y-68440190D01*
X147530000Y-68516381D01*
X147644286Y-68592571D01*
X147872857Y-68630666D01*
X148272857Y-68630666D01*
X148501429Y-68592571D01*
X148615714Y-68516381D01*
X148672857Y-68440190D01*
X148672857Y-68287809D01*
X148615714Y-68211619D01*
X148501429Y-68135428D01*
X148272857Y-68097333D01*
X147872857Y-68097333D01*
X147644286Y-68135428D01*
X147530000Y-68211619D01*
X147472857Y-68287809D01*
X148672857Y-69392571D02*
X148672857Y-68935428D01*
X148672857Y-69163999D02*
X147472857Y-69163999D01*
X147644286Y-69087809D01*
X147758571Y-69011618D01*
X147815714Y-68935428D01*
X147472857Y-70268762D02*
X148672857Y-70459238D01*
X147815714Y-70611619D01*
X148672857Y-70764000D01*
X147472857Y-70954476D01*
X148615714Y-71221143D02*
X148672857Y-71335429D01*
X148672857Y-71525905D01*
X148615714Y-71602095D01*
X148558571Y-71640191D01*
X148444286Y-71678286D01*
X148330000Y-71678286D01*
X148215714Y-71640191D01*
X148158571Y-71602095D01*
X148101429Y-71525905D01*
X148044286Y-71373524D01*
X147987143Y-71297333D01*
X147930000Y-71259238D01*
X147815714Y-71221143D01*
X147701429Y-71221143D01*
X147587143Y-71259238D01*
X147530000Y-71297333D01*
X147472857Y-71373524D01*
X147472857Y-71564000D01*
X147530000Y-71678286D01*
X148672857Y-72440191D02*
X148672857Y-71983048D01*
X148672857Y-72211619D02*
X147472857Y-72211619D01*
X147644286Y-72135429D01*
X147758571Y-72059238D01*
X147815714Y-71983048D01*
X152672857Y-67754476D02*
X151472857Y-67754476D01*
X151472857Y-68287809D02*
X151472857Y-68440190D01*
X151530000Y-68516381D01*
X151644286Y-68592571D01*
X151872857Y-68630666D01*
X152272857Y-68630666D01*
X152501429Y-68592571D01*
X152615714Y-68516381D01*
X152672857Y-68440190D01*
X152672857Y-68287809D01*
X152615714Y-68211619D01*
X152501429Y-68135428D01*
X152272857Y-68097333D01*
X151872857Y-68097333D01*
X151644286Y-68135428D01*
X151530000Y-68211619D01*
X151472857Y-68287809D01*
X151472857Y-68897333D02*
X151472857Y-69392571D01*
X151930000Y-69125904D01*
X151930000Y-69240190D01*
X151987143Y-69316380D01*
X152044286Y-69354476D01*
X152158571Y-69392571D01*
X152444286Y-69392571D01*
X152558571Y-69354476D01*
X152615714Y-69316380D01*
X152672857Y-69240190D01*
X152672857Y-69011618D01*
X152615714Y-68935428D01*
X152558571Y-68897333D01*
X152672857Y-70344952D02*
X151472857Y-70344952D01*
X151472857Y-70878285D02*
X151472857Y-71030666D01*
X151530000Y-71106857D01*
X151644286Y-71183047D01*
X151872857Y-71221142D01*
X152272857Y-71221142D01*
X152501429Y-71183047D01*
X152615714Y-71106857D01*
X152672857Y-71030666D01*
X152672857Y-70878285D01*
X152615714Y-70802095D01*
X152501429Y-70725904D01*
X152272857Y-70687809D01*
X151872857Y-70687809D01*
X151644286Y-70725904D01*
X151530000Y-70802095D01*
X151472857Y-70878285D01*
X151587143Y-71525904D02*
X151530000Y-71563999D01*
X151472857Y-71640190D01*
X151472857Y-71830666D01*
X151530000Y-71906856D01*
X151587143Y-71944952D01*
X151701429Y-71983047D01*
X151815714Y-71983047D01*
X151987143Y-71944952D01*
X152672857Y-71487809D01*
X152672857Y-71983047D01*
X154672857Y-67754476D02*
X153472857Y-67754476D01*
X153472857Y-68287809D02*
X153472857Y-68440190D01*
X153530000Y-68516381D01*
X153644286Y-68592571D01*
X153872857Y-68630666D01*
X154272857Y-68630666D01*
X154501429Y-68592571D01*
X154615714Y-68516381D01*
X154672857Y-68440190D01*
X154672857Y-68287809D01*
X154615714Y-68211619D01*
X154501429Y-68135428D01*
X154272857Y-68097333D01*
X153872857Y-68097333D01*
X153644286Y-68135428D01*
X153530000Y-68211619D01*
X153472857Y-68287809D01*
X153472857Y-69354476D02*
X153472857Y-68973523D01*
X154044286Y-68935428D01*
X153987143Y-68973523D01*
X153930000Y-69049714D01*
X153930000Y-69240190D01*
X153987143Y-69316380D01*
X154044286Y-69354476D01*
X154158571Y-69392571D01*
X154444286Y-69392571D01*
X154558571Y-69354476D01*
X154615714Y-69316380D01*
X154672857Y-69240190D01*
X154672857Y-69049714D01*
X154615714Y-68973523D01*
X154558571Y-68935428D01*
X154672857Y-70344952D02*
X153472857Y-70344952D01*
X153472857Y-70878285D02*
X153472857Y-71030666D01*
X153530000Y-71106857D01*
X153644286Y-71183047D01*
X153872857Y-71221142D01*
X154272857Y-71221142D01*
X154501429Y-71183047D01*
X154615714Y-71106857D01*
X154672857Y-71030666D01*
X154672857Y-70878285D01*
X154615714Y-70802095D01*
X154501429Y-70725904D01*
X154272857Y-70687809D01*
X153872857Y-70687809D01*
X153644286Y-70725904D01*
X153530000Y-70802095D01*
X153472857Y-70878285D01*
X153872857Y-71906856D02*
X154672857Y-71906856D01*
X153415714Y-71716380D02*
X154272857Y-71525904D01*
X154272857Y-72021142D01*
X156672857Y-67754476D02*
X155472857Y-67754476D01*
X155472857Y-68287809D02*
X155472857Y-68440190D01*
X155530000Y-68516381D01*
X155644286Y-68592571D01*
X155872857Y-68630666D01*
X156272857Y-68630666D01*
X156501429Y-68592571D01*
X156615714Y-68516381D01*
X156672857Y-68440190D01*
X156672857Y-68287809D01*
X156615714Y-68211619D01*
X156501429Y-68135428D01*
X156272857Y-68097333D01*
X155872857Y-68097333D01*
X155644286Y-68135428D01*
X155530000Y-68211619D01*
X155472857Y-68287809D01*
X155472857Y-68897333D02*
X155472857Y-69430666D01*
X156672857Y-69087809D01*
X156672857Y-70344952D02*
X155472857Y-70344952D01*
X155472857Y-70878285D02*
X155472857Y-71030666D01*
X155530000Y-71106857D01*
X155644286Y-71183047D01*
X155872857Y-71221142D01*
X156272857Y-71221142D01*
X156501429Y-71183047D01*
X156615714Y-71106857D01*
X156672857Y-71030666D01*
X156672857Y-70878285D01*
X156615714Y-70802095D01*
X156501429Y-70725904D01*
X156272857Y-70687809D01*
X155872857Y-70687809D01*
X155644286Y-70725904D01*
X155530000Y-70802095D01*
X155472857Y-70878285D01*
X155472857Y-71906856D02*
X155472857Y-71754475D01*
X155530000Y-71678285D01*
X155587143Y-71640190D01*
X155758571Y-71563999D01*
X155987143Y-71525904D01*
X156444286Y-71525904D01*
X156558571Y-71563999D01*
X156615714Y-71602094D01*
X156672857Y-71678285D01*
X156672857Y-71830666D01*
X156615714Y-71906856D01*
X156558571Y-71944952D01*
X156444286Y-71983047D01*
X156158571Y-71983047D01*
X156044286Y-71944952D01*
X155987143Y-71906856D01*
X155930000Y-71830666D01*
X155930000Y-71678285D01*
X155987143Y-71602094D01*
X156044286Y-71563999D01*
X156158571Y-71525904D01*
X157530000Y-68173524D02*
X157472857Y-68097333D01*
X157472857Y-67983048D01*
X157530000Y-67868762D01*
X157644286Y-67792571D01*
X157758571Y-67754476D01*
X157987143Y-67716381D01*
X158158571Y-67716381D01*
X158387143Y-67754476D01*
X158501429Y-67792571D01*
X158615714Y-67868762D01*
X158672857Y-67983048D01*
X158672857Y-68059238D01*
X158615714Y-68173524D01*
X158558571Y-68211619D01*
X158158571Y-68211619D01*
X158158571Y-68059238D01*
X158672857Y-68554476D02*
X157472857Y-68554476D01*
X158672857Y-69011619D01*
X157472857Y-69011619D01*
X158672857Y-69392571D02*
X157472857Y-69392571D01*
X157472857Y-69583047D01*
X157530000Y-69697333D01*
X157644286Y-69773524D01*
X157758571Y-69811619D01*
X157987143Y-69849714D01*
X158158571Y-69849714D01*
X158387143Y-69811619D01*
X158501429Y-69773524D01*
X158615714Y-69697333D01*
X158672857Y-69583047D01*
X158672857Y-69392571D01*
X158672857Y-70802095D02*
X157472857Y-70802095D01*
X157472857Y-71335428D02*
X157472857Y-71487809D01*
X157530000Y-71564000D01*
X157644286Y-71640190D01*
X157872857Y-71678285D01*
X158272857Y-71678285D01*
X158501429Y-71640190D01*
X158615714Y-71564000D01*
X158672857Y-71487809D01*
X158672857Y-71335428D01*
X158615714Y-71259238D01*
X158501429Y-71183047D01*
X158272857Y-71144952D01*
X157872857Y-71144952D01*
X157644286Y-71183047D01*
X157530000Y-71259238D01*
X157472857Y-71335428D01*
X157987143Y-72135428D02*
X157930000Y-72059237D01*
X157872857Y-72021142D01*
X157758571Y-71983047D01*
X157701429Y-71983047D01*
X157587143Y-72021142D01*
X157530000Y-72059237D01*
X157472857Y-72135428D01*
X157472857Y-72287809D01*
X157530000Y-72363999D01*
X157587143Y-72402095D01*
X157701429Y-72440190D01*
X157758571Y-72440190D01*
X157872857Y-72402095D01*
X157930000Y-72363999D01*
X157987143Y-72287809D01*
X157987143Y-72135428D01*
X158044286Y-72059237D01*
X158101429Y-72021142D01*
X158215714Y-71983047D01*
X158444286Y-71983047D01*
X158558571Y-72021142D01*
X158615714Y-72059237D01*
X158672857Y-72135428D01*
X158672857Y-72287809D01*
X158615714Y-72363999D01*
X158558571Y-72402095D01*
X158444286Y-72440190D01*
X158215714Y-72440190D01*
X158101429Y-72402095D01*
X158044286Y-72363999D01*
X157987143Y-72287809D01*
D12*
X176998762Y-88920571D02*
X176194000Y-88920571D01*
X176627333Y-89492000D01*
X176441619Y-89492000D01*
X176317809Y-89563429D01*
X176255905Y-89634857D01*
X176194000Y-89777714D01*
X176194000Y-90134857D01*
X176255905Y-90277714D01*
X176317809Y-90349143D01*
X176441619Y-90420571D01*
X176813047Y-90420571D01*
X176936857Y-90349143D01*
X176998762Y-90277714D01*
X175822571Y-88920571D02*
X175389238Y-90420571D01*
X174955905Y-88920571D01*
X173594000Y-90349143D02*
X173408286Y-90420571D01*
X173098762Y-90420571D01*
X172974952Y-90349143D01*
X172913048Y-90277714D01*
X172851143Y-90134857D01*
X172851143Y-89992000D01*
X172913048Y-89849143D01*
X172974952Y-89777714D01*
X173098762Y-89706286D01*
X173346381Y-89634857D01*
X173470190Y-89563429D01*
X173532095Y-89492000D01*
X173594000Y-89349143D01*
X173594000Y-89206286D01*
X173532095Y-89063429D01*
X173470190Y-88992000D01*
X173346381Y-88920571D01*
X173036857Y-88920571D01*
X172851143Y-88992000D01*
X171551143Y-90277714D02*
X171613048Y-90349143D01*
X171798762Y-90420571D01*
X171922572Y-90420571D01*
X172108286Y-90349143D01*
X172232095Y-90206286D01*
X172294000Y-90063429D01*
X172355905Y-89777714D01*
X172355905Y-89563429D01*
X172294000Y-89277714D01*
X172232095Y-89134857D01*
X172108286Y-88992000D01*
X171922572Y-88920571D01*
X171798762Y-88920571D01*
X171613048Y-88992000D01*
X171551143Y-89063429D01*
X176689238Y-92849143D02*
X176503524Y-92920571D01*
X176194000Y-92920571D01*
X176070190Y-92849143D01*
X176008286Y-92777714D01*
X175946381Y-92634857D01*
X175946381Y-92492000D01*
X176008286Y-92349143D01*
X176070190Y-92277714D01*
X176194000Y-92206286D01*
X176441619Y-92134857D01*
X176565428Y-92063429D01*
X176627333Y-91992000D01*
X176689238Y-91849143D01*
X176689238Y-91706286D01*
X176627333Y-91563429D01*
X176565428Y-91492000D01*
X176441619Y-91420571D01*
X176132095Y-91420571D01*
X175946381Y-91492000D01*
X175389238Y-92920571D02*
X175389238Y-91420571D01*
X175079714Y-91420571D01*
X174894000Y-91492000D01*
X174770191Y-91634857D01*
X174708286Y-91777714D01*
X174646381Y-92063429D01*
X174646381Y-92277714D01*
X174708286Y-92563429D01*
X174770191Y-92706286D01*
X174894000Y-92849143D01*
X175079714Y-92920571D01*
X175389238Y-92920571D01*
X173098762Y-92920571D02*
X173098762Y-91420571D01*
X171798762Y-92920571D02*
X172541619Y-92920571D01*
X172170190Y-92920571D02*
X172170190Y-91420571D01*
X172294000Y-91634857D01*
X172417809Y-91777714D01*
X172541619Y-91849143D01*
X176286857Y-95420571D02*
X176286857Y-93920571D01*
X175729714Y-94063429D02*
X175667809Y-93992000D01*
X175544000Y-93920571D01*
X175234476Y-93920571D01*
X175110666Y-93992000D01*
X175048762Y-94063429D01*
X174986857Y-94206286D01*
X174986857Y-94349143D01*
X175048762Y-94563429D01*
X175791619Y-95420571D01*
X174986857Y-95420571D01*
X173439238Y-95420571D02*
X173439238Y-93920571D01*
X172944000Y-93920571D02*
X172139238Y-93920571D01*
X172572571Y-94492000D01*
X172386857Y-94492000D01*
X172263047Y-94563429D01*
X172201143Y-94634857D01*
X172139238Y-94777714D01*
X172139238Y-95134857D01*
X172201143Y-95277714D01*
X172263047Y-95349143D01*
X172386857Y-95420571D01*
X172758285Y-95420571D01*
X172882095Y-95349143D01*
X172944000Y-95277714D01*
X176967809Y-96563429D02*
X176905904Y-96492000D01*
X176782095Y-96420571D01*
X176472571Y-96420571D01*
X176348761Y-96492000D01*
X176286857Y-96563429D01*
X176224952Y-96706286D01*
X176224952Y-96849143D01*
X176286857Y-97063429D01*
X177029714Y-97920571D01*
X176224952Y-97920571D01*
X175110666Y-96920571D02*
X175110666Y-97920571D01*
X175420190Y-96349143D02*
X175729714Y-97420571D01*
X174924952Y-97420571D01*
X173501143Y-96563429D02*
X173439238Y-96492000D01*
X173315429Y-96420571D01*
X173005905Y-96420571D01*
X172882095Y-96492000D01*
X172820191Y-96563429D01*
X172758286Y-96706286D01*
X172758286Y-96849143D01*
X172820191Y-97063429D01*
X173563048Y-97920571D01*
X172758286Y-97920571D01*
X171644000Y-96920571D02*
X171644000Y-97920571D01*
X171953524Y-96349143D02*
X172263048Y-97420571D01*
X171458286Y-97420571D01*
X176410667Y-98992000D02*
X176534476Y-98920571D01*
X176720191Y-98920571D01*
X176905905Y-98992000D01*
X177029714Y-99134857D01*
X177091619Y-99277714D01*
X177153524Y-99563429D01*
X177153524Y-99777714D01*
X177091619Y-100063429D01*
X177029714Y-100206286D01*
X176905905Y-100349143D01*
X176720191Y-100420571D01*
X176596381Y-100420571D01*
X176410667Y-100349143D01*
X176348762Y-100277714D01*
X176348762Y-99777714D01*
X176596381Y-99777714D01*
X175791619Y-100420571D02*
X175791619Y-98920571D01*
X175048762Y-100420571D01*
X175048762Y-98920571D01*
X172758286Y-98992000D02*
X172882095Y-98920571D01*
X173067810Y-98920571D01*
X173253524Y-98992000D01*
X173377333Y-99134857D01*
X173439238Y-99277714D01*
X173501143Y-99563429D01*
X173501143Y-99777714D01*
X173439238Y-100063429D01*
X173377333Y-100206286D01*
X173253524Y-100349143D01*
X173067810Y-100420571D01*
X172944000Y-100420571D01*
X172758286Y-100349143D01*
X172696381Y-100277714D01*
X172696381Y-99777714D01*
X172944000Y-99777714D01*
X172139238Y-100420571D02*
X172139238Y-98920571D01*
X171396381Y-100420571D01*
X171396381Y-98920571D01*
D13*
X147220714Y-125762285D02*
X147292143Y-125690856D01*
X147363571Y-125476570D01*
X147363571Y-125333713D01*
X147292143Y-125119428D01*
X147149286Y-124976570D01*
X147006429Y-124905142D01*
X146720714Y-124833713D01*
X146506429Y-124833713D01*
X146220714Y-124905142D01*
X146077857Y-124976570D01*
X145935000Y-125119428D01*
X145863571Y-125333713D01*
X145863571Y-125476570D01*
X145935000Y-125690856D01*
X146006429Y-125762285D01*
X146935000Y-126333713D02*
X146935000Y-127047999D01*
X147363571Y-126190856D02*
X145863571Y-126690856D01*
X147363571Y-127190856D01*
X147363571Y-127690856D02*
X145863571Y-127690856D01*
X147363571Y-128547999D01*
X145863571Y-128547999D01*
X147363571Y-129262285D02*
X145863571Y-129262285D01*
X146577857Y-129262285D02*
X146577857Y-130119428D01*
X147363571Y-130119428D02*
X145863571Y-130119428D01*
X145792143Y-131905142D02*
X147720714Y-130619428D01*
X147363571Y-133119429D02*
X147363571Y-132405143D01*
X145863571Y-132405143D01*
X147363571Y-133619429D02*
X145863571Y-133619429D01*
X147363571Y-134333715D02*
X145863571Y-134333715D01*
X147363571Y-135190858D01*
X145863571Y-135190858D01*
X144680714Y-125952715D02*
X144752143Y-125881286D01*
X144823571Y-125667000D01*
X144823571Y-125524143D01*
X144752143Y-125309858D01*
X144609286Y-125167000D01*
X144466429Y-125095572D01*
X144180714Y-125024143D01*
X143966429Y-125024143D01*
X143680714Y-125095572D01*
X143537857Y-125167000D01*
X143395000Y-125309858D01*
X143323571Y-125524143D01*
X143323571Y-125667000D01*
X143395000Y-125881286D01*
X143466429Y-125952715D01*
X144395000Y-126524143D02*
X144395000Y-127238429D01*
X144823571Y-126381286D02*
X143323571Y-126881286D01*
X144823571Y-127381286D01*
X144823571Y-127881286D02*
X143323571Y-127881286D01*
X144823571Y-128738429D01*
X143323571Y-128738429D01*
X144823571Y-130167001D02*
X144823571Y-129452715D01*
X143323571Y-129452715D01*
X143252143Y-131738429D02*
X145180714Y-130452715D01*
X143323571Y-132952716D02*
X143323571Y-132238430D01*
X144037857Y-132167001D01*
X143966429Y-132238430D01*
X143895000Y-132381287D01*
X143895000Y-132738430D01*
X143966429Y-132881287D01*
X144037857Y-132952716D01*
X144180714Y-133024144D01*
X144537857Y-133024144D01*
X144680714Y-132952716D01*
X144752143Y-132881287D01*
X144823571Y-132738430D01*
X144823571Y-132381287D01*
X144752143Y-132238430D01*
X144680714Y-132167001D01*
X143323571Y-133452715D02*
X144823571Y-133952715D01*
X143323571Y-134452715D01*
X151340429Y-124833286D02*
X151269000Y-124904715D01*
X151197571Y-125047572D01*
X151197571Y-125404715D01*
X151269000Y-125547572D01*
X151340429Y-125619001D01*
X151483286Y-125690429D01*
X151626143Y-125690429D01*
X151840429Y-125619001D01*
X152697571Y-124761858D01*
X152697571Y-125690429D01*
X151697571Y-126976143D02*
X152697571Y-126976143D01*
X151126143Y-126619000D02*
X152197571Y-126261857D01*
X152197571Y-127190429D01*
X151197571Y-127547571D02*
X152697571Y-128047571D01*
X151197571Y-128547571D01*
X153809000Y-125730143D02*
X153737571Y-125587286D01*
X153737571Y-125373000D01*
X153809000Y-125158715D01*
X153951857Y-125015857D01*
X154094714Y-124944429D01*
X154380429Y-124873000D01*
X154594714Y-124873000D01*
X154880429Y-124944429D01*
X155023286Y-125015857D01*
X155166143Y-125158715D01*
X155237571Y-125373000D01*
X155237571Y-125515857D01*
X155166143Y-125730143D01*
X155094714Y-125801572D01*
X154594714Y-125801572D01*
X154594714Y-125515857D01*
X155237571Y-126444429D02*
X153737571Y-126444429D01*
X155237571Y-127301572D01*
X153737571Y-127301572D01*
X155237571Y-128015858D02*
X153737571Y-128015858D01*
X153737571Y-128373001D01*
X153809000Y-128587286D01*
X153951857Y-128730144D01*
X154094714Y-128801572D01*
X154380429Y-128873001D01*
X154594714Y-128873001D01*
X154880429Y-128801572D01*
X155023286Y-128730144D01*
X155166143Y-128587286D01*
X155237571Y-128373001D01*
X155237571Y-128015858D01*
D10*
X129667000Y-93218000D02*
G75*
G03X129667000Y-93218000I-508000J0D01*
G01*
D14*
X129598000Y-93911000D02*
X130123000Y-93911000D01*
X129598000Y-101161000D02*
X130123000Y-101161000D01*
X136848000Y-101161000D02*
X136323000Y-101161000D01*
X136848000Y-93911000D02*
X136323000Y-93911000D01*
X129598000Y-93911000D02*
X129598000Y-94436000D01*
X136848000Y-93911000D02*
X136848000Y-94436000D01*
X136848000Y-101161000D02*
X136848000Y-100636000D01*
X129598000Y-101161000D02*
X129598000Y-100636000D01*
X130123000Y-93911000D02*
X130123000Y-92536000D01*
D15*
X169300000Y-84200000D02*
X169300000Y-105000000D01*
X159900000Y-105000000D02*
X159900000Y-84200000D01*
X159900000Y-84200000D02*
X169300000Y-84200000D01*
X159900000Y-105000000D02*
X169300000Y-105000000D01*
D16*
X169300000Y-96900000D02*
X167900000Y-96900000D01*
X167900000Y-96900000D02*
X167900000Y-92300000D01*
X167900000Y-92300000D02*
X169300000Y-92300000D01*
D17*
X133267000Y-110343000D02*
X131147000Y-110343000D01*
X133267000Y-106283000D02*
X133267000Y-110343000D01*
X131147000Y-106283000D02*
X131147000Y-110343000D01*
X133267000Y-106283000D02*
X131147000Y-106283000D01*
X133267000Y-105283000D02*
X133267000Y-104223000D01*
X133267000Y-104223000D02*
X132207000Y-104223000D01*
D15*
X135800000Y-73900000D02*
X164200000Y-73900000D01*
X164200000Y-83300000D02*
X135800000Y-83300000D01*
X135800000Y-83300000D02*
X135800000Y-73900000D01*
X164200000Y-83300000D02*
X164200000Y-73900000D01*
D16*
X152300000Y-73900000D02*
X152300000Y-75300000D01*
X152300000Y-75300000D02*
X147700000Y-75300000D01*
X147700000Y-75300000D02*
X147700000Y-73900000D01*
D17*
X130557437Y-84081271D02*
X131497129Y-83739251D01*
X132078563Y-85336729D02*
X131138871Y-85678749D01*
X133977000Y-83146000D02*
X132977000Y-83146000D01*
X132977000Y-81446000D02*
X133977000Y-81446000D01*
X134454000Y-116213000D02*
X134454000Y-117213000D01*
X132754000Y-117213000D02*
X132754000Y-116213000D01*
X140554000Y-119262000D02*
X139354000Y-119262000D01*
X139354000Y-121022000D02*
X140554000Y-121022000D01*
X154931000Y-89881000D02*
X154931000Y-88681000D01*
X153171000Y-88681000D02*
X153171000Y-89881000D01*
X171187000Y-93183000D02*
X171187000Y-91983000D01*
X169427000Y-91983000D02*
X169427000Y-93183000D01*
D14*
X136609000Y-119288000D02*
X136609000Y-119143000D01*
X140759000Y-119288000D02*
X140759000Y-119143000D01*
X140759000Y-114138000D02*
X140759000Y-114283000D01*
X136609000Y-114138000D02*
X136609000Y-114283000D01*
X136609000Y-119288000D02*
X140759000Y-119288000D01*
X136609000Y-114138000D02*
X140759000Y-114138000D01*
X136609000Y-119143000D02*
X135209000Y-119143000D01*
D17*
X132978000Y-86585500D02*
X132978000Y-87785500D01*
X134738000Y-87785500D02*
X134738000Y-86585500D01*
X130136000Y-87765000D02*
X130136000Y-88765000D01*
X128436000Y-88765000D02*
X128436000Y-87765000D01*
D14*
X132872000Y-89865000D02*
X132872000Y-86665000D01*
X132872000Y-86665000D02*
X130272000Y-86665000D01*
X130272000Y-86665000D02*
X130272000Y-89865000D01*
X130272000Y-89865000D02*
X132872000Y-89865000D01*
D17*
X127389000Y-101385000D02*
X128389000Y-101385000D01*
X128389000Y-103085000D02*
X127389000Y-103085000D01*
X127389000Y-92114000D02*
X128389000Y-92114000D01*
X128389000Y-93814000D02*
X127389000Y-93814000D01*
X139184000Y-102831000D02*
X138184000Y-102831000D01*
X138184000Y-101131000D02*
X139184000Y-101131000D01*
X139184000Y-93560000D02*
X138184000Y-93560000D01*
X138184000Y-91860000D02*
X139184000Y-91860000D01*
X138438000Y-111672000D02*
X139438000Y-111672000D01*
X139438000Y-113372000D02*
X138438000Y-113372000D01*
D14*
X158715000Y-108796000D02*
X158860000Y-108796000D01*
X158715000Y-112946000D02*
X158860000Y-112946000D01*
X163865000Y-112946000D02*
X163720000Y-112946000D01*
X163865000Y-108796000D02*
X163720000Y-108796000D01*
X158715000Y-108796000D02*
X158715000Y-112946000D01*
X163865000Y-108796000D02*
X163865000Y-112946000D01*
X158860000Y-108796000D02*
X158860000Y-107396000D01*
D17*
X151128000Y-87447000D02*
X151128000Y-88377000D01*
X151128000Y-90607000D02*
X151128000Y-89677000D01*
X151128000Y-90607000D02*
X147968000Y-90607000D01*
X151128000Y-87447000D02*
X149668000Y-87447000D01*
X135199000Y-84330000D02*
X136129000Y-84330000D01*
X138359000Y-84330000D02*
X137429000Y-84330000D01*
X138359000Y-84330000D02*
X138359000Y-87490000D01*
X135199000Y-84330000D02*
X135199000Y-85790000D01*
X147819000Y-89754000D02*
X147819000Y-88554000D01*
X146059000Y-88554000D02*
X146059000Y-89754000D01*
X145660000Y-92548000D02*
X145660000Y-91348000D01*
X143900000Y-91348000D02*
X143900000Y-92548000D01*
X137633000Y-87639000D02*
X136433000Y-87639000D01*
X136433000Y-89399000D02*
X137633000Y-89399000D01*
X139201000Y-86522000D02*
X139201000Y-87722000D01*
X140961000Y-87722000D02*
X140961000Y-86522000D01*
D14*
X158369000Y-124333000D02*
X158369000Y-124587000D01*
X158369000Y-124587000D02*
X150749000Y-124587000D01*
X150749000Y-124587000D02*
X150749000Y-124333000D01*
X158369000Y-114300000D02*
X158369000Y-110363000D01*
X158369000Y-110363000D02*
X150749000Y-110363000D01*
X150749000Y-110363000D02*
X150749000Y-124333000D01*
X158369000Y-124333000D02*
X158369000Y-114300000D01*
X150495000Y-124333000D02*
X150495000Y-124587000D01*
X150495000Y-124587000D02*
X142875000Y-124587000D01*
X142875000Y-124587000D02*
X142875000Y-124333000D01*
X150495000Y-114300000D02*
X150495000Y-110363000D01*
X150495000Y-110363000D02*
X142875000Y-110363000D01*
X142875000Y-110363000D02*
X142875000Y-124333000D01*
X150495000Y-124333000D02*
X150495000Y-114300000D01*
X137084000Y-115524000D02*
G75*
G03X137084000Y-115524000I-100000J0D01*
G01*
X137234000Y-116074000D02*
X137234000Y-115574000D01*
X140134000Y-116074000D02*
X137234000Y-116074000D01*
X140134000Y-115574000D02*
X140134000Y-116074000D01*
X137234000Y-115574000D02*
X140134000Y-115574000D01*
D17*
X142485000Y-85182000D02*
X142485000Y-83982000D01*
X140725000Y-83982000D02*
X140725000Y-85182000D01*
X144796000Y-85017000D02*
X146796000Y-85017000D01*
X146796000Y-82877000D02*
X144796000Y-82877000D01*
X163742000Y-114038000D02*
X163742000Y-113038000D01*
X165442000Y-113038000D02*
X165442000Y-114038000D01*
X161790000Y-117182000D02*
X160790000Y-117182000D01*
X160790000Y-115482000D02*
X161790000Y-115482000D01*
X159757000Y-99406000D02*
X159757000Y-98206000D01*
X157997000Y-98206000D02*
X157997000Y-99406000D01*
D14*
X133468905Y-110795381D02*
X133468905Y-111604905D01*
X133421286Y-111700143D01*
X133373667Y-111747762D01*
X133278429Y-111795381D01*
X133087952Y-111795381D01*
X132992714Y-111747762D01*
X132945095Y-111700143D01*
X132897476Y-111604905D01*
X132897476Y-110795381D01*
X132468905Y-111747762D02*
X132326048Y-111795381D01*
X132087952Y-111795381D01*
X131992714Y-111747762D01*
X131945095Y-111700143D01*
X131897476Y-111604905D01*
X131897476Y-111509667D01*
X131945095Y-111414429D01*
X131992714Y-111366810D01*
X132087952Y-111319190D01*
X132278429Y-111271571D01*
X132373667Y-111223952D01*
X132421286Y-111176333D01*
X132468905Y-111081095D01*
X132468905Y-110985857D01*
X132421286Y-110890619D01*
X132373667Y-110843000D01*
X132278429Y-110795381D01*
X132040333Y-110795381D01*
X131897476Y-110843000D01*
X131135571Y-111271571D02*
X130992714Y-111319190D01*
X130945095Y-111366810D01*
X130897476Y-111462048D01*
X130897476Y-111604905D01*
X130945095Y-111700143D01*
X130992714Y-111747762D01*
X131087952Y-111795381D01*
X131468905Y-111795381D01*
X131468905Y-110795381D01*
X131135571Y-110795381D01*
X131040333Y-110843000D01*
X130992714Y-110890619D01*
X130945095Y-110985857D01*
X130945095Y-111081095D01*
X130992714Y-111176333D01*
X131040333Y-111223952D01*
X131135571Y-111271571D01*
X131468905Y-111271571D01*
X130526333Y-82725591D02*
X130465299Y-82697130D01*
X130359518Y-82684956D01*
X130135781Y-82766390D01*
X130062573Y-82843710D01*
X130034113Y-82904744D01*
X130021939Y-83010525D01*
X130054512Y-83100020D01*
X130148119Y-83217975D01*
X130880527Y-83559502D01*
X130298812Y-83771229D01*
X129631388Y-83051324D02*
X129570354Y-83022864D01*
X129464573Y-83010690D01*
X129240836Y-83092123D01*
X129167628Y-83169444D01*
X129139167Y-83230478D01*
X129126993Y-83336259D01*
X129159567Y-83425753D01*
X129253174Y-83543708D01*
X129985582Y-83885236D01*
X129403867Y-84096963D01*
X128773128Y-83617080D02*
X129115149Y-84556773D01*
X128789415Y-83661828D02*
X128683634Y-83649654D01*
X128504644Y-83714801D01*
X128431436Y-83792121D01*
X128402976Y-83853155D01*
X128390802Y-83958936D01*
X128488522Y-84227420D01*
X128565843Y-84300628D01*
X128626877Y-84329089D01*
X128732658Y-84341263D01*
X128911648Y-84276116D01*
X128984855Y-84198795D01*
X130690904Y-81573714D02*
X130690904Y-82240381D01*
X131119476Y-81573714D02*
X131119476Y-82097524D01*
X131071857Y-82192762D01*
X130976619Y-82240381D01*
X130833761Y-82240381D01*
X130738523Y-82192762D01*
X130690904Y-82145143D01*
X129690904Y-82240381D02*
X130262333Y-82240381D01*
X129976619Y-82240381D02*
X129976619Y-81240381D01*
X130071857Y-81383238D01*
X130167095Y-81478476D01*
X130262333Y-81526095D01*
X131611714Y-115141572D02*
X132278381Y-115141572D01*
X131611714Y-114713000D02*
X132135524Y-114713000D01*
X132230762Y-114760619D01*
X132278381Y-114855857D01*
X132278381Y-114998715D01*
X132230762Y-115093953D01*
X132183143Y-115141572D01*
X132278381Y-116141572D02*
X132278381Y-115570143D01*
X132278381Y-115855857D02*
X131278381Y-115855857D01*
X131421238Y-115760619D01*
X131516476Y-115665381D01*
X131564095Y-115570143D01*
X132373619Y-116332048D02*
X132373619Y-117093953D01*
X132278381Y-117855858D02*
X132278381Y-117284429D01*
X132278381Y-117570143D02*
X131278381Y-117570143D01*
X131421238Y-117474905D01*
X131516476Y-117379667D01*
X131564095Y-117284429D01*
X131611714Y-118713001D02*
X132278381Y-118713001D01*
X131611714Y-118284429D02*
X132135524Y-118284429D01*
X132230762Y-118332048D01*
X132278381Y-118427286D01*
X132278381Y-118570144D01*
X132230762Y-118665382D01*
X132183143Y-118713001D01*
X140549238Y-122245381D02*
X141120667Y-122245381D01*
X140834953Y-122245381D02*
X140834953Y-121245381D01*
X140930191Y-121388238D01*
X141025429Y-121483476D01*
X141120667Y-121531095D01*
X139930191Y-121245381D02*
X139834952Y-121245381D01*
X139739714Y-121293000D01*
X139692095Y-121340619D01*
X139644476Y-121435857D01*
X139596857Y-121626333D01*
X139596857Y-121864429D01*
X139644476Y-122054905D01*
X139692095Y-122150143D01*
X139739714Y-122197762D01*
X139834952Y-122245381D01*
X139930191Y-122245381D01*
X140025429Y-122197762D01*
X140073048Y-122150143D01*
X140120667Y-122054905D01*
X140168286Y-121864429D01*
X140168286Y-121626333D01*
X140120667Y-121435857D01*
X140073048Y-121340619D01*
X140025429Y-121293000D01*
X139930191Y-121245381D01*
X139168286Y-122245381D02*
X139168286Y-121245381D01*
X139073048Y-121864429D02*
X138787333Y-122245381D01*
X138787333Y-121578714D02*
X139168286Y-121959667D01*
X154503381Y-86113953D02*
X154503381Y-85542524D01*
X154503381Y-85828238D02*
X153503381Y-85828238D01*
X153646238Y-85733000D01*
X153741476Y-85637762D01*
X153789095Y-85542524D01*
X154503381Y-86542524D02*
X153503381Y-86542524D01*
X154122429Y-86637762D02*
X154503381Y-86923477D01*
X153836714Y-86923477D02*
X154217667Y-86542524D01*
X170600714Y-95702524D02*
X171267381Y-95702524D01*
X170219762Y-95464428D02*
X170934048Y-95226333D01*
X170934048Y-95845381D01*
X171267381Y-96226333D02*
X170267381Y-96226333D01*
X170886429Y-96321571D02*
X171267381Y-96607286D01*
X170600714Y-96607286D02*
X170981667Y-96226333D01*
X170267381Y-96940619D02*
X170267381Y-97607286D01*
X171267381Y-97178714D01*
X133580048Y-91765381D02*
X133580048Y-90765381D01*
X133484810Y-91384429D02*
X133199095Y-91765381D01*
X133199095Y-91098714D02*
X133580048Y-91479667D01*
X132818143Y-90860619D02*
X132770524Y-90813000D01*
X132675286Y-90765381D01*
X132437190Y-90765381D01*
X132341952Y-90813000D01*
X132294333Y-90860619D01*
X132246714Y-90955857D01*
X132246714Y-91051095D01*
X132294333Y-91193952D01*
X132865762Y-91765381D01*
X132246714Y-91765381D01*
X131865762Y-90860619D02*
X131818143Y-90813000D01*
X131722905Y-90765381D01*
X131484809Y-90765381D01*
X131389571Y-90813000D01*
X131341952Y-90860619D01*
X131294333Y-90955857D01*
X131294333Y-91051095D01*
X131341952Y-91193952D01*
X131913381Y-91765381D01*
X131294333Y-91765381D01*
X127083619Y-87050714D02*
X127036000Y-87098333D01*
X126988381Y-87193571D01*
X126988381Y-87431667D01*
X127036000Y-87526905D01*
X127083619Y-87574524D01*
X127178857Y-87622143D01*
X127274095Y-87622143D01*
X127416952Y-87574524D01*
X127988381Y-87003095D01*
X127988381Y-87622143D01*
X127083619Y-88003095D02*
X127036000Y-88050714D01*
X126988381Y-88145952D01*
X126988381Y-88384048D01*
X127036000Y-88479286D01*
X127083619Y-88526905D01*
X127178857Y-88574524D01*
X127274095Y-88574524D01*
X127416952Y-88526905D01*
X127988381Y-87955476D01*
X127988381Y-88574524D01*
X127321714Y-89003095D02*
X128321714Y-89003095D01*
X127369333Y-89003095D02*
X127321714Y-89098333D01*
X127321714Y-89288810D01*
X127369333Y-89384048D01*
X127416952Y-89431667D01*
X127512190Y-89479286D01*
X127797905Y-89479286D01*
X127893143Y-89431667D01*
X127940762Y-89384048D01*
X127988381Y-89288810D01*
X127988381Y-89098333D01*
X127940762Y-89003095D01*
X128150904Y-103770714D02*
X128150904Y-104437381D01*
X128579476Y-103770714D02*
X128579476Y-104294524D01*
X128531857Y-104389762D01*
X128436619Y-104437381D01*
X128293761Y-104437381D01*
X128198523Y-104389762D01*
X128150904Y-104342143D01*
X127150904Y-104437381D02*
X127722333Y-104437381D01*
X127436619Y-104437381D02*
X127436619Y-103437381D01*
X127531857Y-103580238D01*
X127627095Y-103675476D01*
X127722333Y-103723095D01*
X126499904Y-94273714D02*
X126499904Y-94940381D01*
X126928476Y-94273714D02*
X126928476Y-94797524D01*
X126880857Y-94892762D01*
X126785619Y-94940381D01*
X126642761Y-94940381D01*
X126547523Y-94892762D01*
X126499904Y-94845143D01*
X125499904Y-94940381D02*
X126071333Y-94940381D01*
X125785619Y-94940381D02*
X125785619Y-93940381D01*
X125880857Y-94083238D01*
X125976095Y-94178476D01*
X126071333Y-94226095D01*
X138882404Y-103290714D02*
X138882404Y-103957381D01*
X139310976Y-103290714D02*
X139310976Y-103814524D01*
X139263357Y-103909762D01*
X139168119Y-103957381D01*
X139025261Y-103957381D01*
X138930023Y-103909762D01*
X138882404Y-103862143D01*
X137882404Y-103957381D02*
X138453833Y-103957381D01*
X138168119Y-103957381D02*
X138168119Y-102957381D01*
X138263357Y-103100238D01*
X138358595Y-103195476D01*
X138453833Y-103243095D01*
X140247666Y-94686381D02*
X140819095Y-94686381D01*
X140533381Y-94686381D02*
X140533381Y-93686381D01*
X140628619Y-93829238D01*
X140723857Y-93924476D01*
X140819095Y-93972095D01*
X139390523Y-94019714D02*
X139390523Y-94686381D01*
X139819095Y-94019714D02*
X139819095Y-94543524D01*
X139771476Y-94638762D01*
X139676238Y-94686381D01*
X139533380Y-94686381D01*
X139438142Y-94638762D01*
X139390523Y-94591143D01*
X139199904Y-110529714D02*
X139199904Y-111196381D01*
X139628476Y-110529714D02*
X139628476Y-111053524D01*
X139580857Y-111148762D01*
X139485619Y-111196381D01*
X139342761Y-111196381D01*
X139247523Y-111148762D01*
X139199904Y-111101143D01*
X138199904Y-111196381D02*
X138771333Y-111196381D01*
X138485619Y-111196381D02*
X138485619Y-110196381D01*
X138580857Y-110339238D01*
X138676095Y-110434476D01*
X138771333Y-110482095D01*
X145613381Y-88780953D02*
X145613381Y-88209524D01*
X145613381Y-88495238D02*
X144613381Y-88495238D01*
X144756238Y-88400000D01*
X144851476Y-88304762D01*
X144899095Y-88209524D01*
X145613381Y-89209524D02*
X144613381Y-89209524D01*
X145232429Y-89304762D02*
X145613381Y-89590477D01*
X144946714Y-89590477D02*
X145327667Y-89209524D01*
X143581381Y-91225762D02*
X143581381Y-90654333D01*
X143581381Y-90940047D02*
X142581381Y-90940047D01*
X142724238Y-90844809D01*
X142819476Y-90749571D01*
X142867095Y-90654333D01*
X142581381Y-91844809D02*
X142581381Y-91940048D01*
X142629000Y-92035286D01*
X142676619Y-92082905D01*
X142771857Y-92130524D01*
X142962333Y-92178143D01*
X143200429Y-92178143D01*
X143390905Y-92130524D01*
X143486143Y-92082905D01*
X143533762Y-92035286D01*
X143581381Y-91940048D01*
X143581381Y-91844809D01*
X143533762Y-91749571D01*
X143486143Y-91701952D01*
X143390905Y-91654333D01*
X143200429Y-91606714D01*
X142962333Y-91606714D01*
X142771857Y-91654333D01*
X142676619Y-91701952D01*
X142629000Y-91749571D01*
X142581381Y-91844809D01*
X143581381Y-92606714D02*
X142581381Y-92606714D01*
X143200429Y-92701952D02*
X143581381Y-92987667D01*
X142914714Y-92987667D02*
X143295667Y-92606714D01*
X136644047Y-90622381D02*
X137215476Y-90622381D01*
X136929762Y-90622381D02*
X136929762Y-89622381D01*
X137025000Y-89765238D01*
X137120238Y-89860476D01*
X137215476Y-89908095D01*
X136215476Y-90622381D02*
X136215476Y-89622381D01*
X136120238Y-90241429D02*
X135834523Y-90622381D01*
X135834523Y-89955714D02*
X136215476Y-90336667D01*
X142184381Y-87669762D02*
X142184381Y-87098333D01*
X142184381Y-87384047D02*
X141184381Y-87384047D01*
X141327238Y-87288809D01*
X141422476Y-87193571D01*
X141470095Y-87098333D01*
X141184381Y-88288809D02*
X141184381Y-88384048D01*
X141232000Y-88479286D01*
X141279619Y-88526905D01*
X141374857Y-88574524D01*
X141565333Y-88622143D01*
X141803429Y-88622143D01*
X141993905Y-88574524D01*
X142089143Y-88526905D01*
X142136762Y-88479286D01*
X142184381Y-88384048D01*
X142184381Y-88288809D01*
X142136762Y-88193571D01*
X142089143Y-88145952D01*
X141993905Y-88098333D01*
X141803429Y-88050714D01*
X141565333Y-88050714D01*
X141374857Y-88098333D01*
X141279619Y-88145952D01*
X141232000Y-88193571D01*
X141184381Y-88288809D01*
X142184381Y-89050714D02*
X141184381Y-89050714D01*
X141803429Y-89145952D02*
X142184381Y-89431667D01*
X141517714Y-89431667D02*
X141898667Y-89050714D01*
X135586381Y-115012095D02*
X136395905Y-115012095D01*
X136491143Y-115059714D01*
X136538762Y-115107333D01*
X136586381Y-115202571D01*
X136586381Y-115393048D01*
X136538762Y-115488286D01*
X136491143Y-115535905D01*
X136395905Y-115583524D01*
X135586381Y-115583524D01*
X135919714Y-116488286D02*
X136586381Y-116488286D01*
X135538762Y-116250190D02*
X136253048Y-116012095D01*
X136253048Y-116631143D01*
X143708381Y-85478953D02*
X143708381Y-84907524D01*
X143708381Y-85193238D02*
X142708381Y-85193238D01*
X142851238Y-85098000D01*
X142946476Y-85002762D01*
X142994095Y-84907524D01*
X143708381Y-85907524D02*
X142708381Y-85907524D01*
X143327429Y-86002762D02*
X143708381Y-86288477D01*
X143041714Y-86288477D02*
X143422667Y-85907524D01*
X146486476Y-85299381D02*
X146676953Y-85299381D01*
X146772191Y-85347000D01*
X146819810Y-85394619D01*
X146915048Y-85537476D01*
X146962667Y-85727952D01*
X146962667Y-86108905D01*
X146915048Y-86204143D01*
X146867429Y-86251762D01*
X146772191Y-86299381D01*
X146581714Y-86299381D01*
X146486476Y-86251762D01*
X146438857Y-86204143D01*
X146391238Y-86108905D01*
X146391238Y-85870810D01*
X146438857Y-85775571D01*
X146486476Y-85727952D01*
X146581714Y-85680333D01*
X146772191Y-85680333D01*
X146867429Y-85727952D01*
X146915048Y-85775571D01*
X146962667Y-85870810D01*
X145962667Y-86299381D02*
X145962667Y-85299381D01*
X145867429Y-85918429D02*
X145581714Y-86299381D01*
X145581714Y-85632714D02*
X145962667Y-86013667D01*
X145010286Y-85727952D02*
X145105524Y-85680333D01*
X145153143Y-85632714D01*
X145200762Y-85537476D01*
X145200762Y-85489857D01*
X145153143Y-85394619D01*
X145105524Y-85347000D01*
X145010286Y-85299381D01*
X144819809Y-85299381D01*
X144724571Y-85347000D01*
X144676952Y-85394619D01*
X144629333Y-85489857D01*
X144629333Y-85537476D01*
X144676952Y-85632714D01*
X144724571Y-85680333D01*
X144819809Y-85727952D01*
X145010286Y-85727952D01*
X145105524Y-85775571D01*
X145153143Y-85823190D01*
X145200762Y-85918429D01*
X145200762Y-86108905D01*
X145153143Y-86204143D01*
X145105524Y-86251762D01*
X145010286Y-86299381D01*
X144819809Y-86299381D01*
X144724571Y-86251762D01*
X144676952Y-86204143D01*
X144629333Y-86108905D01*
X144629333Y-85918429D01*
X144676952Y-85823190D01*
X144724571Y-85775571D01*
X144819809Y-85727952D01*
X165889619Y-112323714D02*
X165842000Y-112371333D01*
X165794381Y-112466571D01*
X165794381Y-112704667D01*
X165842000Y-112799905D01*
X165889619Y-112847524D01*
X165984857Y-112895143D01*
X166080095Y-112895143D01*
X166222952Y-112847524D01*
X166794381Y-112276095D01*
X166794381Y-112895143D01*
X165889619Y-113276095D02*
X165842000Y-113323714D01*
X165794381Y-113418952D01*
X165794381Y-113657048D01*
X165842000Y-113752286D01*
X165889619Y-113799905D01*
X165984857Y-113847524D01*
X166080095Y-113847524D01*
X166222952Y-113799905D01*
X166794381Y-113228476D01*
X166794381Y-113847524D01*
X166127714Y-114276095D02*
X167127714Y-114276095D01*
X166175333Y-114276095D02*
X166127714Y-114371333D01*
X166127714Y-114561810D01*
X166175333Y-114657048D01*
X166222952Y-114704667D01*
X166318190Y-114752286D01*
X166603905Y-114752286D01*
X166699143Y-114704667D01*
X166746762Y-114657048D01*
X166794381Y-114561810D01*
X166794381Y-114371333D01*
X166746762Y-114276095D01*
X164726904Y-116244714D02*
X164726904Y-116911381D01*
X165155476Y-116244714D02*
X165155476Y-116768524D01*
X165107857Y-116863762D01*
X165012619Y-116911381D01*
X164869761Y-116911381D01*
X164774523Y-116863762D01*
X164726904Y-116816143D01*
X163726904Y-116911381D02*
X164298333Y-116911381D01*
X164012619Y-116911381D02*
X164012619Y-115911381D01*
X164107857Y-116054238D01*
X164203095Y-116149476D01*
X164298333Y-116197095D01*
X157629381Y-98163143D02*
X157153190Y-97829809D01*
X157629381Y-97591714D02*
X156629381Y-97591714D01*
X156629381Y-97972667D01*
X156677000Y-98067905D01*
X156724619Y-98115524D01*
X156819857Y-98163143D01*
X156962714Y-98163143D01*
X157057952Y-98115524D01*
X157105571Y-98067905D01*
X157153190Y-97972667D01*
X157153190Y-97591714D01*
X156724619Y-98544095D02*
X156677000Y-98591714D01*
X156629381Y-98686952D01*
X156629381Y-98925048D01*
X156677000Y-99020286D01*
X156724619Y-99067905D01*
X156819857Y-99115524D01*
X156915095Y-99115524D01*
X157057952Y-99067905D01*
X157629381Y-98496476D01*
X157629381Y-99115524D01*
X156962714Y-99972667D02*
X157629381Y-99972667D01*
X156581762Y-99734571D02*
X157296048Y-99496476D01*
X157296048Y-100115524D01*
X161079381Y-98210762D02*
X161079381Y-97639333D01*
X161079381Y-97925047D02*
X160079381Y-97925047D01*
X160222238Y-97829809D01*
X160317476Y-97734571D01*
X160365095Y-97639333D01*
X160079381Y-98829809D02*
X160079381Y-98925048D01*
X160127000Y-99020286D01*
X160174619Y-99067905D01*
X160269857Y-99115524D01*
X160460333Y-99163143D01*
X160698429Y-99163143D01*
X160888905Y-99115524D01*
X160984143Y-99067905D01*
X161031762Y-99020286D01*
X161079381Y-98925048D01*
X161079381Y-98829809D01*
X161031762Y-98734571D01*
X160984143Y-98686952D01*
X160888905Y-98639333D01*
X160698429Y-98591714D01*
X160460333Y-98591714D01*
X160269857Y-98639333D01*
X160174619Y-98686952D01*
X160127000Y-98734571D01*
X160079381Y-98829809D01*
X161079381Y-99591714D02*
X160079381Y-99591714D01*
X160698429Y-99686952D02*
X161079381Y-99972667D01*
X160412714Y-99972667D02*
X160793667Y-99591714D01*
%LPC*%
D18*
X178308000Y-92456000D03*
D19*
X178308000Y-89916000D03*
X180848000Y-92456000D03*
X180848000Y-89916000D03*
X183388000Y-92456000D03*
X183388000Y-89916000D03*
D18*
X178308000Y-117348000D03*
D19*
X178308000Y-114808000D03*
X180848000Y-117348000D03*
X180848000Y-114808000D03*
X183388000Y-117348000D03*
X183388000Y-114808000D03*
D18*
X165100000Y-129286000D03*
D19*
X165100000Y-126746000D03*
X167640000Y-129286000D03*
X167640000Y-126746000D03*
X170180000Y-129286000D03*
X170180000Y-126746000D03*
D20*
X152499360Y-92499380D03*
X150000000Y-92499380D03*
X147500640Y-92499380D03*
D21*
X156200140Y-100000000D03*
X143799860Y-100000000D03*
D20*
X152499360Y-107000240D03*
X147500640Y-107000240D03*
D22*
X130473000Y-92836000D03*
D23*
X137923000Y-94786000D03*
D22*
X135973000Y-102236000D03*
D23*
X128523000Y-100286000D03*
D22*
X130973000Y-92836000D03*
X131473000Y-92836000D03*
X131973000Y-92836000D03*
X132473000Y-92836000D03*
X132973000Y-92836000D03*
X133473000Y-92836000D03*
X133973000Y-92836000D03*
X134473000Y-92836000D03*
X134973000Y-92836000D03*
X135473000Y-92836000D03*
X135973000Y-92836000D03*
D23*
X137923000Y-95286000D03*
X137923000Y-95786000D03*
X137923000Y-96286000D03*
X137923000Y-96786000D03*
X137923000Y-97286000D03*
X137923000Y-97786000D03*
X137923000Y-98286000D03*
X137923000Y-98786000D03*
X137923000Y-99286000D03*
X137923000Y-99786000D03*
X137923000Y-100286000D03*
D22*
X135473000Y-102236000D03*
X134973000Y-102236000D03*
X134473000Y-102236000D03*
X133973000Y-102236000D03*
X133473000Y-102236000D03*
X132973000Y-102236000D03*
X132473000Y-102236000D03*
X131973000Y-102236000D03*
X131473000Y-102236000D03*
X130973000Y-102236000D03*
X130473000Y-102236000D03*
D23*
X128523000Y-99786000D03*
X128523000Y-99286000D03*
X128523000Y-98786000D03*
X128523000Y-98286000D03*
X128523000Y-97786000D03*
X128523000Y-97286000D03*
X128523000Y-96786000D03*
X128523000Y-96286000D03*
X128523000Y-95786000D03*
X128523000Y-95286000D03*
X128523000Y-94786000D03*
D18*
X116586000Y-115570000D03*
D19*
X116586000Y-113030000D03*
X119126000Y-115570000D03*
X119126000Y-113030000D03*
X121666000Y-115570000D03*
X121666000Y-113030000D03*
D18*
X116586000Y-110490000D03*
D19*
X116586000Y-107950000D03*
X119126000Y-110490000D03*
X119126000Y-107950000D03*
X121666000Y-110490000D03*
X121666000Y-107950000D03*
D18*
X116586000Y-105410000D03*
D19*
X116586000Y-102870000D03*
X119126000Y-105410000D03*
X119126000Y-102870000D03*
X121666000Y-105410000D03*
X121666000Y-102870000D03*
D18*
X116586000Y-96012000D03*
D19*
X116586000Y-93472000D03*
X119126000Y-96012000D03*
X119126000Y-93472000D03*
X121666000Y-96012000D03*
X121666000Y-93472000D03*
D18*
X116586000Y-90932000D03*
D19*
X116586000Y-88392000D03*
X119126000Y-90932000D03*
X119126000Y-88392000D03*
X121666000Y-90932000D03*
X121666000Y-88392000D03*
D18*
X116586000Y-85852000D03*
D19*
X116586000Y-83312000D03*
X119126000Y-85852000D03*
X119126000Y-83312000D03*
X121666000Y-85852000D03*
X121666000Y-83312000D03*
D18*
X116586000Y-80772000D03*
D19*
X116586000Y-78232000D03*
X119126000Y-80772000D03*
X119126000Y-78232000D03*
X121666000Y-80772000D03*
X121666000Y-78232000D03*
D18*
X165100000Y-124206000D03*
D19*
X165100000Y-121666000D03*
X167640000Y-124206000D03*
X167640000Y-121666000D03*
X170180000Y-124206000D03*
X170180000Y-121666000D03*
D18*
X125476000Y-114808000D03*
D19*
X128016000Y-114808000D03*
X125476000Y-117348000D03*
X128016000Y-117348000D03*
X125476000Y-119888000D03*
X128016000Y-119888000D03*
D18*
X130556000Y-122682000D03*
D19*
X130556000Y-125222000D03*
X128016000Y-122682000D03*
X128016000Y-125222000D03*
X125476000Y-122682000D03*
X125476000Y-125222000D03*
D18*
X138176000Y-122682000D03*
D19*
X138176000Y-125222000D03*
X135636000Y-122682000D03*
X135636000Y-125222000D03*
X133096000Y-122682000D03*
X133096000Y-125222000D03*
D18*
X126746000Y-131064000D03*
D19*
X126746000Y-128524000D03*
X129286000Y-131064000D03*
X129286000Y-128524000D03*
X131826000Y-131064000D03*
X131826000Y-128524000D03*
D18*
X134366000Y-131064000D03*
D19*
X134366000Y-128524000D03*
X136906000Y-131064000D03*
X136906000Y-128524000D03*
X139446000Y-131064000D03*
X139446000Y-128524000D03*
D18*
X178308000Y-122428000D03*
D19*
X178308000Y-119888000D03*
X180848000Y-122428000D03*
X180848000Y-119888000D03*
X183388000Y-122428000D03*
X183388000Y-119888000D03*
D18*
X141986000Y-131064000D03*
D19*
X141986000Y-128524000D03*
X144526000Y-131064000D03*
X144526000Y-128524000D03*
X147066000Y-131064000D03*
X147066000Y-128524000D03*
D18*
X172720000Y-121666000D03*
D19*
X175260000Y-121666000D03*
X172720000Y-124206000D03*
X175260000Y-124206000D03*
X172720000Y-126746000D03*
X175260000Y-126746000D03*
D18*
X168910000Y-119126000D03*
D19*
X168910000Y-116586000D03*
X171450000Y-119126000D03*
X171450000Y-116586000D03*
X173990000Y-119126000D03*
X173990000Y-116586000D03*
D18*
X168910000Y-114046000D03*
D19*
X168910000Y-111506000D03*
X171450000Y-114046000D03*
X171450000Y-111506000D03*
X173990000Y-114046000D03*
X173990000Y-111506000D03*
D18*
X178308000Y-112268000D03*
D19*
X178308000Y-109728000D03*
X180848000Y-112268000D03*
X180848000Y-109728000D03*
X183388000Y-112268000D03*
X183388000Y-109728000D03*
D18*
X178308000Y-107188000D03*
D19*
X178308000Y-104648000D03*
X180848000Y-107188000D03*
X180848000Y-104648000D03*
X183388000Y-107188000D03*
X183388000Y-104648000D03*
D18*
X178308000Y-87122000D03*
D19*
X178308000Y-84582000D03*
X180848000Y-87122000D03*
X180848000Y-84582000D03*
X183388000Y-87122000D03*
X183388000Y-84582000D03*
D24*
X166120000Y-99680000D03*
X163080000Y-99680000D03*
X163080000Y-97140000D03*
X166120000Y-97140000D03*
D25*
X166120000Y-89520000D03*
D24*
X163080000Y-89520000D03*
X166120000Y-92060000D03*
X163080000Y-92060000D03*
X166120000Y-94600000D03*
X163080000Y-94600000D03*
D26*
X132207000Y-105283000D03*
D27*
X132207000Y-107283000D03*
X132207000Y-109283000D03*
D28*
X150000000Y-100000000D03*
D29*
X158890000Y-80120000D03*
X158890000Y-77080000D03*
X156350000Y-77080000D03*
X156350000Y-80120000D03*
X153810000Y-80120000D03*
X153810000Y-77080000D03*
X151270000Y-77080000D03*
X151270000Y-80120000D03*
X148730000Y-80120000D03*
X148730000Y-77080000D03*
D30*
X141110000Y-77080000D03*
D29*
X141110000Y-80120000D03*
X143650000Y-77080000D03*
X143650000Y-80120000D03*
X146190000Y-77080000D03*
X146190000Y-80120000D03*
D10*
G36*
X132983623Y-83437652D02*
X133411148Y-84612268D01*
X132001609Y-85125298D01*
X131574084Y-83950682D01*
X132983623Y-83437652D01*
X132983623Y-83437652D01*
G37*
G36*
X130634391Y-84292702D02*
X131061916Y-85467318D01*
X129652377Y-85980348D01*
X129224852Y-84805732D01*
X130634391Y-84292702D01*
X130634391Y-84292702D01*
G37*
D31*
X132227000Y-82296000D03*
X134727000Y-82296000D03*
D32*
X133604000Y-117963000D03*
X133604000Y-115463000D03*
D33*
X138604000Y-120142000D03*
X141304000Y-120142000D03*
D34*
X154051000Y-87931000D03*
X154051000Y-90631000D03*
X170307000Y-91233000D03*
X170307000Y-93933000D03*
D35*
X135684000Y-118618000D03*
X135684000Y-117348000D03*
X135684000Y-116078000D03*
X135684000Y-114808000D03*
X141684000Y-114808000D03*
X141684000Y-116078000D03*
X141684000Y-117348000D03*
X141684000Y-118618000D03*
D34*
X133858000Y-88535500D03*
X133858000Y-85835500D03*
D32*
X129286000Y-89515000D03*
X129286000Y-87015000D03*
D36*
X130772000Y-89665000D03*
X130772000Y-86865000D03*
X132372000Y-89665000D03*
X132372000Y-86865000D03*
D31*
X129139000Y-102235000D03*
X126639000Y-102235000D03*
X129139000Y-92964000D03*
X126639000Y-92964000D03*
X137434000Y-101981000D03*
X139934000Y-101981000D03*
X137434000Y-92710000D03*
X139934000Y-92710000D03*
D37*
X135001000Y-109220000D03*
X135001000Y-110520000D03*
X136001000Y-109870000D03*
X136001000Y-108570000D03*
X135001000Y-107920000D03*
D38*
X135221000Y-105645000D03*
X135221000Y-112795000D03*
D31*
X140188000Y-112522000D03*
X137688000Y-112522000D03*
D39*
X159385000Y-107871000D03*
X160655000Y-107871000D03*
X161925000Y-107871000D03*
X163195000Y-107871000D03*
X163195000Y-113871000D03*
X161925000Y-113871000D03*
X160655000Y-113871000D03*
X159385000Y-113871000D03*
D28*
X180000000Y-100000000D03*
X120000000Y-100000000D03*
X150000000Y-130000000D03*
X150000000Y-70000000D03*
D40*
X148868000Y-89977000D03*
X148868000Y-88077000D03*
X151868000Y-89027000D03*
D41*
X137729000Y-86590000D03*
X135829000Y-86590000D03*
X136779000Y-83590000D03*
D34*
X146939000Y-87804000D03*
X146939000Y-90504000D03*
X144780000Y-90598000D03*
X144780000Y-93298000D03*
D33*
X135683000Y-88519000D03*
X138383000Y-88519000D03*
D34*
X140081000Y-88472000D03*
X140081000Y-85772000D03*
D18*
X160909000Y-66421000D03*
D19*
X160909000Y-68961000D03*
D18*
X141097000Y-66421000D03*
D19*
X141097000Y-68961000D03*
D42*
X152019000Y-121412000D03*
X152019000Y-116332000D03*
X154559000Y-121412000D03*
X154559000Y-116332000D03*
X144145000Y-121412000D03*
X144145000Y-116332000D03*
X146685000Y-121412000D03*
X146685000Y-116332000D03*
D18*
X127127000Y-106426000D03*
D19*
X129667000Y-106426000D03*
X127127000Y-108966000D03*
X129667000Y-108966000D03*
D18*
X168529000Y-89535000D03*
D19*
X168529000Y-92075000D03*
X168529000Y-94615000D03*
X168529000Y-97155000D03*
X168529000Y-99695000D03*
X168529000Y-102235000D03*
X168529000Y-104775000D03*
X168529000Y-107315000D03*
D18*
X129286000Y-66294000D03*
D19*
X131826000Y-66294000D03*
X129286000Y-68834000D03*
X131826000Y-68834000D03*
X129286000Y-71374000D03*
X131826000Y-71374000D03*
X129286000Y-73914000D03*
X131826000Y-73914000D03*
X129286000Y-76454000D03*
X131826000Y-76454000D03*
D18*
X134366000Y-66294000D03*
D19*
X136906000Y-66294000D03*
X134366000Y-68834000D03*
X136906000Y-68834000D03*
X134366000Y-71374000D03*
X136906000Y-71374000D03*
X134366000Y-73914000D03*
X136906000Y-73914000D03*
X134366000Y-76454000D03*
X136906000Y-76454000D03*
D18*
X166878000Y-71755000D03*
D19*
X169418000Y-71755000D03*
X166878000Y-74295000D03*
X169418000Y-74295000D03*
X166878000Y-76835000D03*
X169418000Y-76835000D03*
X166878000Y-79375000D03*
X169418000Y-79375000D03*
X166878000Y-81915000D03*
X169418000Y-81915000D03*
X166878000Y-84455000D03*
X169418000Y-84455000D03*
X166878000Y-86995000D03*
X169418000Y-86995000D03*
D43*
X137734000Y-114474000D03*
X138684000Y-114474000D03*
X139634000Y-114474000D03*
X139634000Y-117174000D03*
X137734000Y-117174000D03*
D18*
X170307000Y-66548000D03*
D19*
X172847000Y-66548000D03*
X170307000Y-69088000D03*
X172847000Y-69088000D03*
D18*
X171958000Y-71755000D03*
D19*
X174498000Y-71755000D03*
X171958000Y-74295000D03*
X174498000Y-74295000D03*
X171958000Y-76835000D03*
X174498000Y-76835000D03*
X171958000Y-79375000D03*
X174498000Y-79375000D03*
X171958000Y-81915000D03*
X174498000Y-81915000D03*
X171958000Y-84455000D03*
X174498000Y-84455000D03*
X171958000Y-86995000D03*
X174498000Y-86995000D03*
D18*
X161798000Y-71755000D03*
D19*
X164338000Y-71755000D03*
X161798000Y-74295000D03*
X164338000Y-74295000D03*
X161798000Y-76835000D03*
X164338000Y-76835000D03*
X161798000Y-79375000D03*
X164338000Y-79375000D03*
X161798000Y-81915000D03*
X164338000Y-81915000D03*
X161798000Y-84455000D03*
X164338000Y-84455000D03*
X161798000Y-86995000D03*
X164338000Y-86995000D03*
D18*
X156718000Y-84455000D03*
D19*
X159258000Y-84455000D03*
X156718000Y-86995000D03*
X159258000Y-86995000D03*
X156718000Y-89535000D03*
X159258000Y-89535000D03*
X156718000Y-92075000D03*
X159258000Y-92075000D03*
X156718000Y-94615000D03*
X159258000Y-94615000D03*
D18*
X178308000Y-81788000D03*
D19*
X178308000Y-79248000D03*
X180848000Y-81788000D03*
X180848000Y-79248000D03*
X183388000Y-81788000D03*
X183388000Y-79248000D03*
D18*
X141097000Y-73914000D03*
D19*
X143637000Y-73914000D03*
X146177000Y-73914000D03*
X148717000Y-73914000D03*
D34*
X141605000Y-83232000D03*
X141605000Y-85932000D03*
D44*
X147796000Y-83947000D03*
X143796000Y-83947000D03*
D45*
X134565000Y-83947000D03*
D46*
X139065000Y-83947000D03*
D45*
X134565000Y-90447000D03*
D46*
X139065000Y-90447000D03*
D32*
X164592000Y-112288000D03*
X164592000Y-114788000D03*
D31*
X160040000Y-116332000D03*
X162540000Y-116332000D03*
D47*
X157988000Y-103124000D03*
D34*
X158877000Y-97456000D03*
X158877000Y-100156000D03*
D18*
X159004000Y-118364000D03*
D19*
X161544000Y-118364000D03*
X159004000Y-120904000D03*
X161544000Y-120904000D03*
X159004000Y-123444000D03*
X161544000Y-123444000D03*
X159004000Y-125984000D03*
X161544000Y-125984000D03*
X159004000Y-128524000D03*
X161544000Y-128524000D03*
M02*
