G04 #@! TF.FileFunction,Copper,L2,Bot,Signal*
%FSLAX46Y46*%
G04 Gerber Fmt 4.6, Leading zero omitted, Abs format (unit mm)*
G04 Created by KiCad (PCBNEW 4.0.5) date 03/27/17 18:08:10*
%MOMM*%
%LPD*%
G01*
G04 APERTURE LIST*
%ADD10C,0.100000*%
%ADD11C,1.397000*%
%ADD12O,1.500000X2.000000*%
%ADD13R,1.500000X2.000000*%
%ADD14O,2.000000X1.500000*%
%ADD15R,2.000000X1.500000*%
%ADD16R,1.500000X1.250000*%
%ADD17R,1.250000X1.500000*%
%ADD18R,1.500000X1.300000*%
%ADD19R,1.300000X1.500000*%
%ADD20C,1.600000*%
%ADD21C,3.000000*%
%ADD22R,0.300000X2.000000*%
%ADD23R,2.000000X0.300000*%
%ADD24R,2.200000X0.600000*%
%ADD25O,1.501140X1.998980*%
%ADD26C,3.500120*%
%ADD27C,0.950000*%
%ADD28O,1.000000X2.200000*%
%ADD29R,1.200000X2.000000*%
%ADD30O,2.200000X1.000000*%
%ADD31R,1.700000X1.700000*%
%ADD32O,1.700000X1.700000*%
%ADD33R,3.000000X3.000000*%
%ADD34C,0.609600*%
%ADD35C,0.203200*%
%ADD36C,0.406400*%
%ADD37C,0.812800*%
%ADD38C,1.625600*%
%ADD39C,0.250000*%
G04 APERTURE END LIST*
D10*
D11*
X139065000Y-90805000D03*
X133985000Y-90805000D03*
X139065000Y-83185000D03*
X133985000Y-83185000D03*
D12*
X158890000Y-80120000D03*
X158890000Y-77080000D03*
X156350000Y-77080000D03*
X156350000Y-80120000D03*
X153810000Y-80120000D03*
X153810000Y-77080000D03*
X151270000Y-77080000D03*
X151270000Y-80120000D03*
X148730000Y-80120000D03*
X148730000Y-77080000D03*
D13*
X141110000Y-77080000D03*
D12*
X141110000Y-80120000D03*
X143650000Y-77080000D03*
X143650000Y-80120000D03*
X146190000Y-77080000D03*
X146190000Y-80120000D03*
D14*
X166120000Y-99680000D03*
X163080000Y-99680000D03*
X163080000Y-97140000D03*
X166120000Y-97140000D03*
D15*
X166120000Y-89520000D03*
D14*
X163080000Y-89520000D03*
X166120000Y-92060000D03*
X163080000Y-92060000D03*
X166120000Y-94600000D03*
X163080000Y-94600000D03*
D16*
X132060000Y-84709000D03*
X129560000Y-84709000D03*
D17*
X135600000Y-85650000D03*
X135600000Y-83150000D03*
X133604000Y-117963000D03*
X133604000Y-115463000D03*
D18*
X138604000Y-120142000D03*
X141304000Y-120142000D03*
D19*
X147510500Y-87677000D03*
X147510500Y-90377000D03*
X152527000Y-87677000D03*
X152527000Y-90377000D03*
D20*
X152019000Y-121412000D03*
X152019000Y-116332000D03*
X154559000Y-121412000D03*
X154559000Y-116332000D03*
X144145000Y-121412000D03*
X144145000Y-116332000D03*
X146685000Y-121412000D03*
X146685000Y-116332000D03*
D21*
X157607000Y-85852000D03*
D22*
X130473000Y-92836000D03*
D23*
X137923000Y-94786000D03*
D22*
X135973000Y-102236000D03*
D23*
X128523000Y-100286000D03*
D22*
X130973000Y-92836000D03*
X131473000Y-92836000D03*
X131973000Y-92836000D03*
X132473000Y-92836000D03*
X132973000Y-92836000D03*
X133473000Y-92836000D03*
X133973000Y-92836000D03*
X134473000Y-92836000D03*
X134973000Y-92836000D03*
X135473000Y-92836000D03*
X135973000Y-92836000D03*
D23*
X137923000Y-95286000D03*
X137923000Y-95786000D03*
X137923000Y-96286000D03*
X137923000Y-96786000D03*
X137923000Y-97286000D03*
X137923000Y-97786000D03*
X137923000Y-98286000D03*
X137923000Y-98786000D03*
X137923000Y-99286000D03*
X137923000Y-99786000D03*
X137923000Y-100286000D03*
D22*
X135473000Y-102236000D03*
X134973000Y-102236000D03*
X134473000Y-102236000D03*
X133973000Y-102236000D03*
X133473000Y-102236000D03*
X132973000Y-102236000D03*
X132473000Y-102236000D03*
X131973000Y-102236000D03*
X131473000Y-102236000D03*
X130973000Y-102236000D03*
X130473000Y-102236000D03*
D23*
X128523000Y-99786000D03*
X128523000Y-99286000D03*
X128523000Y-98786000D03*
X128523000Y-98286000D03*
X128523000Y-97786000D03*
X128523000Y-97286000D03*
X128523000Y-96786000D03*
X128523000Y-96286000D03*
X128523000Y-95786000D03*
X128523000Y-95286000D03*
X128523000Y-94786000D03*
D24*
X135684000Y-118618000D03*
X135684000Y-117348000D03*
X135684000Y-116078000D03*
X135684000Y-114808000D03*
X141684000Y-114808000D03*
X141684000Y-116078000D03*
X141684000Y-117348000D03*
X141684000Y-118618000D03*
D25*
X152499360Y-92499380D03*
X150000000Y-92499380D03*
X147500640Y-92499380D03*
D26*
X156200140Y-100000000D03*
X143799860Y-100000000D03*
D25*
X152499360Y-107000240D03*
X147500640Y-107000240D03*
D19*
X133858000Y-88980000D03*
X133858000Y-86280000D03*
D17*
X128397000Y-90150000D03*
X128397000Y-87650000D03*
D27*
X131191000Y-106934000D03*
X132491000Y-106934000D03*
X131841000Y-107934000D03*
X130541000Y-107934000D03*
X129891000Y-106934000D03*
D28*
X127616000Y-107154000D03*
X134766000Y-107154000D03*
D18*
X132127000Y-109347000D03*
X134827000Y-109347000D03*
D29*
X130391000Y-89919000D03*
X130391000Y-87119000D03*
X131991000Y-89919000D03*
X131991000Y-87119000D03*
D16*
X129139000Y-102235000D03*
X126639000Y-102235000D03*
X129139000Y-92964000D03*
X126639000Y-92964000D03*
X137434000Y-101981000D03*
X139934000Y-101981000D03*
X137434000Y-92583000D03*
X139934000Y-92583000D03*
D27*
X136906000Y-109728000D03*
X136906000Y-111028000D03*
X137906000Y-110378000D03*
X137906000Y-109078000D03*
X136906000Y-108428000D03*
D30*
X137126000Y-106153000D03*
X137126000Y-113303000D03*
D31*
X152527000Y-95123000D03*
D32*
X149987000Y-95123000D03*
X147447000Y-95123000D03*
X144907000Y-95123000D03*
D33*
X169418000Y-108966000D03*
X157607000Y-89535000D03*
D21*
X132080000Y-77724000D03*
X165481000Y-108966000D03*
D31*
X133604000Y-112776000D03*
D34*
X135826500Y-95758000D03*
X134747000Y-95758000D03*
X133667500Y-95758000D03*
X133667500Y-94678500D03*
X127635000Y-111315500D03*
X126619000Y-103632000D03*
X126619000Y-104648000D03*
X131064000Y-96774000D03*
X131064000Y-97917000D03*
X131064000Y-98806000D03*
X131064000Y-100584000D03*
X131064000Y-99695000D03*
X129667000Y-103759000D03*
X131953000Y-116078000D03*
X131191000Y-94869000D03*
X136144000Y-100457000D03*
X144145000Y-118618000D03*
X136906000Y-93853000D03*
X146177000Y-105092500D03*
X125857000Y-98679000D03*
X124206000Y-97155000D03*
X124206000Y-96266000D03*
X125857000Y-97790000D03*
X124206000Y-98044000D03*
X126746000Y-99441000D03*
X144018000Y-89662000D03*
X137287000Y-89662000D03*
X136779000Y-89027000D03*
X144526000Y-89027000D03*
X156591000Y-120777000D03*
X126746000Y-96901000D03*
X125095000Y-95250000D03*
X124206000Y-95250000D03*
X125857000Y-96901000D03*
D35*
X133973000Y-92836000D02*
X133973000Y-94373000D01*
X133973000Y-94373000D02*
X133667500Y-94678500D01*
X133667500Y-95758000D02*
X134747000Y-95758000D01*
X126639000Y-102235000D02*
X126619000Y-102255000D01*
X126619000Y-102255000D02*
X126619000Y-103632000D01*
X127616000Y-107154000D02*
X127616000Y-108058000D01*
X127616000Y-108058000D02*
X128524000Y-108966000D01*
X134766000Y-107154000D02*
X134766000Y-106572000D01*
X134766000Y-106572000D02*
X133477000Y-105283000D01*
X134827000Y-109347000D02*
X134827000Y-107215000D01*
X134827000Y-107215000D02*
X134766000Y-107154000D01*
D36*
X133604000Y-117963000D02*
X134219000Y-117348000D01*
X134219000Y-117348000D02*
X135684000Y-117348000D01*
D35*
X133973000Y-94373000D02*
X133858000Y-94488000D01*
X130048000Y-96774000D02*
X128535000Y-96774000D01*
X128535000Y-96774000D02*
X128523000Y-96786000D01*
X128523000Y-95286000D02*
X130266000Y-95286000D01*
X130266000Y-95286000D02*
X130302000Y-95250000D01*
X137923000Y-99786000D02*
X139664000Y-99786000D01*
X139664000Y-99786000D02*
X139954000Y-100076000D01*
X137923000Y-99786000D02*
X136616000Y-99786000D01*
X136616000Y-99786000D02*
X136144000Y-99314000D01*
X131064000Y-98806000D02*
X131064000Y-97917000D01*
X130973000Y-100675000D02*
X131064000Y-100584000D01*
X130973000Y-100675000D02*
X130973000Y-102236000D01*
X128523000Y-95286000D02*
X126721740Y-95286000D01*
X126639000Y-95203260D02*
X126639000Y-92964000D01*
X126721740Y-95286000D02*
X126639000Y-95203260D01*
X152527000Y-87677000D02*
X155782000Y-87677000D01*
X155782000Y-87677000D02*
X157607000Y-85852000D01*
X152527000Y-87677000D02*
X147510500Y-87677000D01*
D37*
X158890000Y-79870000D02*
X158890000Y-84569000D01*
X158890000Y-84569000D02*
X157607000Y-85852000D01*
D36*
X135684000Y-116078000D02*
X134219000Y-116078000D01*
X134219000Y-116078000D02*
X133604000Y-115463000D01*
X131953000Y-116078000D02*
X132989000Y-116078000D01*
X132989000Y-116078000D02*
X133604000Y-115463000D01*
X135684000Y-116078000D02*
X131953000Y-116078000D01*
D35*
X129667000Y-103759000D02*
X129667000Y-102763000D01*
X129667000Y-102763000D02*
X129139000Y-102235000D01*
X130473000Y-102236000D02*
X129140000Y-102236000D01*
X129140000Y-102236000D02*
X129139000Y-102235000D01*
X130473000Y-92836000D02*
X130473000Y-94151000D01*
X130473000Y-94151000D02*
X131191000Y-94869000D01*
X137923000Y-100286000D02*
X137923000Y-101492000D01*
X137923000Y-101492000D02*
X137434000Y-101981000D01*
X137923000Y-100286000D02*
X136315000Y-100286000D01*
X136315000Y-100286000D02*
X136144000Y-100457000D01*
X128523000Y-94786000D02*
X128523000Y-93580000D01*
X128523000Y-93580000D02*
X129139000Y-92964000D01*
X130473000Y-92836000D02*
X129267000Y-92836000D01*
X129267000Y-92836000D02*
X129139000Y-92964000D01*
X130473000Y-102953000D02*
X129667000Y-103759000D01*
X130473000Y-102953000D02*
X130473000Y-102236000D01*
X141304000Y-120142000D02*
X141304000Y-118998000D01*
X141304000Y-118998000D02*
X141684000Y-118618000D01*
X144145000Y-118618000D02*
X144145000Y-121412000D01*
D36*
X144145000Y-116332000D02*
X143891000Y-116078000D01*
X143891000Y-116078000D02*
X141684000Y-116078000D01*
X144145000Y-117729000D02*
X144780000Y-117729000D01*
X144780000Y-117729000D02*
X146177000Y-116332000D01*
X146177000Y-116332000D02*
X146685000Y-116332000D01*
X146685000Y-116332000D02*
X146685000Y-121412000D01*
X141684000Y-117348000D02*
X143256000Y-117348000D01*
X143637000Y-117729000D02*
X144145000Y-117729000D01*
X143256000Y-117348000D02*
X143637000Y-117729000D01*
D38*
X152019000Y-116332000D02*
X152019000Y-115443000D01*
X161559000Y-97140000D02*
X163330000Y-97140000D01*
X159893000Y-98806000D02*
X161559000Y-97140000D01*
X159893000Y-107569000D02*
X159893000Y-98806000D01*
X152019000Y-115443000D02*
X159893000Y-107569000D01*
X163330000Y-97140000D02*
X165870000Y-97140000D01*
D35*
X130391000Y-89919000D02*
X128628000Y-89919000D01*
X128628000Y-89919000D02*
X128397000Y-90150000D01*
X130391000Y-89919000D02*
X130160000Y-90150000D01*
X130391000Y-89919000D02*
X130241000Y-89769000D01*
X131445000Y-91313000D02*
X131191000Y-91313000D01*
X132473000Y-91579000D02*
X132207000Y-91313000D01*
X132207000Y-91313000D02*
X131445000Y-91313000D01*
X132473000Y-92836000D02*
X132473000Y-91579000D01*
X131191000Y-91313000D02*
X130391000Y-90513000D01*
X130391000Y-90513000D02*
X130391000Y-89919000D01*
X132060000Y-84709000D02*
X132060000Y-87050000D01*
X132060000Y-87050000D02*
X131991000Y-87119000D01*
X133858000Y-86280000D02*
X133524000Y-86614000D01*
X133524000Y-86614000D02*
X132496000Y-86614000D01*
X132496000Y-86614000D02*
X131991000Y-87119000D01*
X135600000Y-83150000D02*
X135565000Y-83185000D01*
X135565000Y-83185000D02*
X133985000Y-83185000D01*
X133473000Y-92836000D02*
X133473000Y-91317000D01*
X133473000Y-91317000D02*
X133985000Y-90805000D01*
X136906000Y-93853000D02*
X136906000Y-93111000D01*
X136906000Y-93111000D02*
X137434000Y-92583000D01*
X134473000Y-92836000D02*
X134473000Y-94087000D01*
X136525000Y-94234000D02*
X136906000Y-93853000D01*
X134620000Y-94234000D02*
X136525000Y-94234000D01*
X134473000Y-94087000D02*
X134620000Y-94234000D01*
X144018000Y-104775008D02*
X145859508Y-104775008D01*
X144018000Y-104775008D02*
X138176000Y-104775008D01*
X133973000Y-102236000D02*
X133973000Y-103462182D01*
X135285826Y-104775008D02*
X138176000Y-104775008D01*
X133973000Y-103462182D02*
X135285826Y-104775008D01*
X145859508Y-104775008D02*
X146177000Y-105092500D01*
X143343006Y-92964000D02*
X143343006Y-88651448D01*
X140046908Y-97786000D02*
X143343006Y-94489902D01*
X143343006Y-94489902D02*
X143343006Y-92964000D01*
X137923000Y-97786000D02*
X140046908Y-97786000D01*
X153065808Y-83439010D02*
X156350000Y-80154818D01*
X148555444Y-83439010D02*
X153065808Y-83439010D01*
X143343006Y-88651448D02*
X148555444Y-83439010D01*
X156350000Y-80154818D02*
X156350000Y-79870000D01*
X142962004Y-91600000D02*
X142962004Y-88493632D01*
X137923000Y-97286000D02*
X140008090Y-97286000D01*
X142962004Y-94332086D02*
X142962004Y-91600000D01*
X140008090Y-97286000D02*
X142962004Y-94332086D01*
X155067000Y-78613000D02*
X156350000Y-77330000D01*
X155067000Y-80899000D02*
X155067000Y-78613000D01*
X152907992Y-83058008D02*
X155067000Y-80899000D01*
X148397628Y-83058008D02*
X152907992Y-83058008D01*
X142962004Y-88493632D02*
X148397628Y-83058008D01*
X142200000Y-91200000D02*
X142200000Y-88178000D01*
X137923000Y-96286000D02*
X139930454Y-96286000D01*
X142200000Y-94016454D02*
X142200000Y-91200000D01*
X139930454Y-96286000D02*
X142200000Y-94016454D01*
X152527000Y-78613000D02*
X153810000Y-77330000D01*
X152527000Y-81026000D02*
X152527000Y-78613000D01*
X151256996Y-82296004D02*
X152527000Y-81026000D01*
X148081996Y-82296004D02*
X151256996Y-82296004D01*
X142200000Y-88178000D02*
X148081996Y-82296004D01*
X142581002Y-91200000D02*
X142581002Y-88335816D01*
X139969272Y-96786000D02*
X142581002Y-94174270D01*
X142581002Y-94174270D02*
X142581002Y-91200000D01*
X137923000Y-96786000D02*
X139969272Y-96786000D01*
X151414812Y-82677006D02*
X153810000Y-80281818D01*
X148239812Y-82677006D02*
X151414812Y-82677006D01*
X142581002Y-88335816D02*
X148239812Y-82677006D01*
X153810000Y-80281818D02*
X153810000Y-79870000D01*
X141762004Y-91000000D02*
X141762004Y-88073450D01*
X137923000Y-95786000D02*
X139891636Y-95786000D01*
X141762004Y-93915632D02*
X141762004Y-91000000D01*
X139891636Y-95786000D02*
X141762004Y-93915632D01*
X149509816Y-81915002D02*
X151270000Y-80154818D01*
X147920452Y-81915002D02*
X149509816Y-81915002D01*
X141762004Y-88073450D02*
X147920452Y-81915002D01*
X151270000Y-80154818D02*
X151270000Y-79870000D01*
X141381002Y-91000000D02*
X141381002Y-87915634D01*
X137923000Y-95286000D02*
X139852818Y-95286000D01*
X141381002Y-93757816D02*
X141381002Y-91000000D01*
X139852818Y-95286000D02*
X141381002Y-93757816D01*
X149987000Y-78613000D02*
X151270000Y-77330000D01*
X149987000Y-80899000D02*
X149987000Y-78613000D01*
X149352000Y-81534000D02*
X149987000Y-80899000D01*
X147762636Y-81534000D02*
X149352000Y-81534000D01*
X141381002Y-87915634D02*
X147762636Y-81534000D01*
X135973000Y-92836000D02*
X135973000Y-92246000D01*
X135973000Y-92246000D02*
X147447000Y-80772000D01*
X147447000Y-80772000D02*
X147447000Y-78613000D01*
X147447000Y-78613000D02*
X148730000Y-77330000D01*
X148730000Y-80027818D02*
X142699909Y-86057909D01*
X140985500Y-91962500D02*
X140985500Y-87772318D01*
X140985500Y-87772318D02*
X142699909Y-86057909D01*
X140985500Y-91962500D02*
X140985500Y-93614500D01*
X148730000Y-80027818D02*
X148730000Y-79870000D01*
X137923000Y-94786000D02*
X139814000Y-94786000D01*
X139814000Y-94786000D02*
X140985500Y-93614500D01*
X140985500Y-93614500D02*
X141000000Y-93600000D01*
X130175000Y-80771994D02*
X128935824Y-80771994D01*
X123951994Y-85755824D02*
X123951994Y-86995000D01*
X128935824Y-80771994D02*
X123951994Y-85755824D01*
X141732000Y-78613000D02*
X142367000Y-78613000D01*
X125964000Y-98786000D02*
X125857000Y-98679000D01*
X128523000Y-98786000D02*
X125964000Y-98786000D01*
X123951994Y-94076188D02*
X123951994Y-86995000D01*
X123189998Y-94838184D02*
X123951994Y-94076188D01*
X123189998Y-96138998D02*
X123189998Y-94838184D01*
X124206000Y-97155000D02*
X123189998Y-96138998D01*
X130175000Y-80771994D02*
X138303006Y-80771994D01*
X138303006Y-80771994D02*
X140462000Y-78613000D01*
X140462000Y-78613000D02*
X141732000Y-78613000D01*
X142367000Y-78613000D02*
X143650000Y-77330000D01*
X130302000Y-81152996D02*
X129093640Y-81152996D01*
X124332996Y-85913640D02*
X124332996Y-87249000D01*
X129093640Y-81152996D02*
X124332996Y-85913640D01*
X124206000Y-96266000D02*
X123571000Y-95631000D01*
X123571000Y-95631000D02*
X123571000Y-94996000D01*
X123571000Y-94996000D02*
X124332996Y-94234004D01*
X124332996Y-94234004D02*
X124332996Y-87249000D01*
X128523000Y-98286000D02*
X126353000Y-98286000D01*
X126353000Y-98286000D02*
X125857000Y-97790000D01*
X139827004Y-81152996D02*
X141110000Y-79870000D01*
X130302000Y-81152996D02*
X139827004Y-81152996D01*
X129921000Y-80390992D02*
X128778008Y-80390992D01*
X123570992Y-85598008D02*
X123570992Y-86648552D01*
X128778008Y-80390992D02*
X123570992Y-85598008D01*
X122808996Y-95758000D02*
X122808996Y-94680368D01*
X122808996Y-96646996D02*
X122808996Y-95758000D01*
X122936000Y-96774000D02*
X124206000Y-98044000D01*
X128523000Y-99286000D02*
X126901000Y-99286000D01*
X126901000Y-99286000D02*
X126746000Y-99441000D01*
X122936000Y-96774000D02*
X122808996Y-96646996D01*
X123570992Y-93918372D02*
X123570992Y-86648552D01*
X122808996Y-94680368D02*
X123570992Y-93918372D01*
X138049008Y-80390992D02*
X141110000Y-77330000D01*
X129921000Y-80390992D02*
X138049008Y-80390992D01*
X125476000Y-104838500D02*
X125476000Y-107599818D01*
X125476000Y-107599818D02*
X126635341Y-108759159D01*
X125476000Y-103759000D02*
X125476000Y-104838500D01*
X128747184Y-110871002D02*
X136749002Y-110871002D01*
X126635341Y-108759159D02*
X128747184Y-110871002D01*
X136749002Y-110871002D02*
X136906000Y-111028000D01*
X125476000Y-103632000D02*
X125476000Y-103759000D01*
X127425000Y-100286000D02*
X127253998Y-100457002D01*
X127253998Y-100457002D02*
X126364998Y-100457002D01*
X126364998Y-100457002D02*
X125730000Y-101092000D01*
X125730000Y-101092000D02*
X125476000Y-101346000D01*
X125476000Y-101346000D02*
X125476000Y-103632000D01*
X128523000Y-100286000D02*
X127425000Y-100286000D01*
X136876000Y-110998000D02*
X136906000Y-111028000D01*
X131473000Y-102236000D02*
X131473000Y-104620000D01*
X136144000Y-110490000D02*
X136906000Y-109728000D01*
X128905000Y-110490000D02*
X136144000Y-110490000D01*
X126619000Y-108204000D02*
X128905000Y-110490000D01*
X126619000Y-106045000D02*
X126619000Y-108204000D01*
X127127000Y-105537000D02*
X126619000Y-106045000D01*
X130556000Y-105537000D02*
X127127000Y-105537000D01*
X131473000Y-104620000D02*
X130556000Y-105537000D01*
X132973000Y-102236000D02*
X132973000Y-103539818D01*
X135636000Y-107158000D02*
X136906000Y-108428000D01*
X135636000Y-106202818D02*
X135636000Y-107158000D01*
X132973000Y-103539818D02*
X135636000Y-106202818D01*
X133473000Y-102236000D02*
X133473000Y-103501000D01*
X138684000Y-108300000D02*
X137906000Y-109078000D01*
X138684000Y-105664000D02*
X138684000Y-108300000D01*
X138176010Y-105156010D02*
X138684000Y-105664000D01*
X135128010Y-105156010D02*
X138176010Y-105156010D01*
X133473000Y-103501000D02*
X135128010Y-105156010D01*
X144399000Y-104394006D02*
X147066006Y-104394006D01*
X147500640Y-104828640D02*
X147500640Y-107000240D01*
X147066006Y-104394006D02*
X147500640Y-104828640D01*
X138557000Y-104394006D02*
X144399000Y-104394006D01*
X134473000Y-103419636D02*
X135447370Y-104394006D01*
X135447370Y-104394006D02*
X138557000Y-104394006D01*
X134473000Y-102236000D02*
X134473000Y-103419636D01*
X132127000Y-109347000D02*
X131954000Y-109347000D01*
X131954000Y-109347000D02*
X130541000Y-107934000D01*
X137923000Y-98786000D02*
X141340182Y-98786000D01*
X161243364Y-89520000D02*
X163330000Y-89520000D01*
X153354366Y-97408998D02*
X161243364Y-89520000D01*
X142717184Y-97408998D02*
X153354366Y-97408998D01*
X141340182Y-98786000D02*
X142717184Y-97408998D01*
X152908000Y-97790000D02*
X153512182Y-97790000D01*
X141379000Y-99286000D02*
X142875000Y-97790000D01*
X142875000Y-97790000D02*
X152908000Y-97790000D01*
X137923000Y-99286000D02*
X141379000Y-99286000D01*
X164615000Y-90805000D02*
X165870000Y-92060000D01*
X160497182Y-90805000D02*
X164615000Y-90805000D01*
X153512182Y-97790000D02*
X160497182Y-90805000D01*
X140208000Y-103251000D02*
X148590000Y-103251000D01*
X136144000Y-103251000D02*
X140208000Y-103251000D01*
X135973000Y-103080000D02*
X136144000Y-103251000D01*
X159781000Y-92060000D02*
X163330000Y-92060000D01*
X148590000Y-103251000D02*
X159781000Y-92060000D01*
X135973000Y-102236000D02*
X135973000Y-103080000D01*
X138557000Y-103632002D02*
X148747816Y-103632002D01*
X135473000Y-103342000D02*
X135763002Y-103632002D01*
X135763002Y-103632002D02*
X138557000Y-103632002D01*
X135473000Y-102236000D02*
X135473000Y-103342000D01*
X164615000Y-93345000D02*
X165870000Y-94600000D01*
X159034818Y-93345000D02*
X164615000Y-93345000D01*
X148747816Y-103632002D02*
X159034818Y-93345000D01*
X138557000Y-104013004D02*
X148905632Y-104013004D01*
X134973000Y-103380818D02*
X135605186Y-104013004D01*
X135605186Y-104013004D02*
X138557000Y-104013004D01*
X134973000Y-102236000D02*
X134973000Y-103380818D01*
X158318636Y-94600000D02*
X163330000Y-94600000D01*
X148905632Y-104013004D02*
X158318636Y-94600000D01*
X132973000Y-92836000D02*
X132973000Y-89865000D01*
X132973000Y-89865000D02*
X133858000Y-88980000D01*
X149987000Y-95123000D02*
X149987000Y-94985740D01*
X149987000Y-94985740D02*
X147500640Y-92499380D01*
X144018000Y-89662000D02*
X146795500Y-89662000D01*
X135473000Y-92836000D02*
X135473000Y-91476000D01*
X135473000Y-91476000D02*
X137287000Y-89662000D01*
X146795500Y-89662000D02*
X147510500Y-90377000D01*
X147510500Y-90377000D02*
X147510500Y-92489520D01*
X147510500Y-92489520D02*
X147500640Y-92499380D01*
X147500640Y-92499380D02*
X147744380Y-92499380D01*
X152527000Y-95123000D02*
X152527000Y-92527020D01*
X152527000Y-92527020D02*
X152499360Y-92499380D01*
X151113500Y-89027000D02*
X151177000Y-89027000D01*
X144526000Y-89027000D02*
X151113500Y-89027000D01*
X151177000Y-89027000D02*
X152527000Y-90377000D01*
X152527000Y-90377000D02*
X152527000Y-92471740D01*
X152527000Y-92471740D02*
X152499360Y-92499380D01*
X152527000Y-92471740D02*
X152499360Y-92499380D01*
X134973000Y-92836000D02*
X134973000Y-90833000D01*
X134973000Y-90833000D02*
X136779000Y-89027000D01*
X144526000Y-89027000D02*
X144567078Y-89027000D01*
X151193500Y-118681500D02*
X154495500Y-118681500D01*
X154495500Y-118681500D02*
X156591000Y-120777000D01*
X125094998Y-105092500D02*
X125094998Y-107757634D01*
X125094998Y-107757634D02*
X126207182Y-108869818D01*
X125094998Y-103759000D02*
X125094998Y-105092500D01*
X135763004Y-111252004D02*
X136652000Y-112141000D01*
X128589368Y-111252004D02*
X135763004Y-111252004D01*
X126207182Y-108869818D02*
X128589368Y-111252004D01*
X144653000Y-112141000D02*
X151193500Y-118681500D01*
X136652000Y-112141000D02*
X144653000Y-112141000D01*
X128523000Y-99786000D02*
X127290000Y-99786000D01*
X126207182Y-100076000D02*
X125460591Y-100822591D01*
X127000000Y-100076000D02*
X126207182Y-100076000D01*
X127290000Y-99786000D02*
X127000000Y-100076000D01*
X125094998Y-101188184D02*
X125094998Y-103759000D01*
X125094998Y-103759000D02*
X125094998Y-103789816D01*
X125572184Y-100710998D02*
X125460591Y-100822591D01*
X125460591Y-100822591D02*
X125094998Y-101188184D01*
X128523000Y-96286000D02*
X125583000Y-96286000D01*
X124713996Y-101030368D02*
X124713996Y-101600000D01*
X125222000Y-100522364D02*
X124713996Y-101030368D01*
X125222000Y-96647000D02*
X125222000Y-100522364D01*
X125583000Y-96286000D02*
X125222000Y-96647000D01*
X135684000Y-114808000D02*
X134874000Y-114808000D01*
X134874000Y-114808000D02*
X134366000Y-114300000D01*
X134366000Y-114300000D02*
X129413000Y-114300000D01*
X129413000Y-114300000D02*
X128905000Y-113792000D01*
X124713996Y-109600996D02*
X128905000Y-113792000D01*
X124713996Y-101346000D02*
X124713996Y-101600000D01*
X124713996Y-101600000D02*
X124713996Y-109600996D01*
X128523000Y-95786000D02*
X125544182Y-95786000D01*
X124206000Y-100999546D02*
X124206000Y-101346000D01*
X124840998Y-100364548D02*
X124206000Y-100999546D01*
X124840998Y-96489184D02*
X124840998Y-100364548D01*
X125544182Y-95786000D02*
X124840998Y-96489184D01*
X124206000Y-101346000D02*
X124206000Y-101473000D01*
X135684000Y-118618000D02*
X134747000Y-118618000D01*
X134747000Y-118618000D02*
X134239000Y-119126000D01*
X124206000Y-110744000D02*
X124206000Y-101473000D01*
X132588000Y-119126000D02*
X124206000Y-110744000D01*
X134239000Y-119126000D02*
X132588000Y-119126000D01*
X131973000Y-102236000D02*
X131973000Y-106152000D01*
X131973000Y-106152000D02*
X131191000Y-106934000D01*
X132473000Y-102236000D02*
X132473000Y-105422000D01*
X133112000Y-107934000D02*
X131841000Y-107934000D01*
X133604000Y-107442000D02*
X133112000Y-107934000D01*
X133604000Y-106553000D02*
X133604000Y-107442000D01*
X132473000Y-105422000D02*
X133604000Y-106553000D01*
X130429000Y-81915000D02*
X129409272Y-81915000D01*
X125095000Y-86229272D02*
X125095000Y-87503000D01*
X129409272Y-81915000D02*
X125095000Y-86229272D01*
X141605000Y-81915000D02*
X144145000Y-81915000D01*
X144145000Y-81915000D02*
X146190000Y-79870000D01*
X127131000Y-97286000D02*
X126746000Y-96901000D01*
X128523000Y-97286000D02*
X127131000Y-97286000D01*
X125095000Y-95250000D02*
X125095000Y-87503000D01*
X130429000Y-81915000D02*
X141605000Y-81915000D01*
X130810000Y-81533998D02*
X129251456Y-81533998D01*
X124713998Y-86071456D02*
X124713998Y-87376000D01*
X129251456Y-81533998D02*
X124713998Y-86071456D01*
X141605000Y-81533998D02*
X141986002Y-81533998D01*
X141986002Y-81533998D02*
X143650000Y-79870000D01*
X124713998Y-94742002D02*
X124713998Y-87376000D01*
X124206000Y-95250000D02*
X124713998Y-94742002D01*
X128523000Y-97786000D02*
X126742000Y-97786000D01*
X126742000Y-97786000D02*
X125857000Y-96901000D01*
X130810000Y-81533998D02*
X141605000Y-81533998D01*
X141605000Y-81533998D02*
X141605002Y-81533998D01*
D39*
G36*
X175375000Y-82051776D02*
X175375000Y-117948224D01*
X167948224Y-125375000D01*
X132051776Y-125375000D01*
X126917526Y-120240750D01*
X137479000Y-120240750D01*
X137479000Y-120866592D01*
X137536090Y-121004421D01*
X137641580Y-121109910D01*
X137779408Y-121167000D01*
X138505250Y-121167000D01*
X138599000Y-121073250D01*
X138599000Y-120147000D01*
X138609000Y-120147000D01*
X138609000Y-121073250D01*
X138702750Y-121167000D01*
X139428592Y-121167000D01*
X139566420Y-121109910D01*
X139671910Y-121004421D01*
X139729000Y-120866592D01*
X139729000Y-120240750D01*
X139635250Y-120147000D01*
X138609000Y-120147000D01*
X138599000Y-120147000D01*
X137572750Y-120147000D01*
X137479000Y-120240750D01*
X126917526Y-120240750D01*
X124625000Y-117948224D01*
X124625000Y-111837014D01*
X132250993Y-119463007D01*
X132405613Y-119566321D01*
X132588000Y-119602600D01*
X134239000Y-119602600D01*
X134421387Y-119566321D01*
X134576007Y-119463007D01*
X134621606Y-119417408D01*
X137479000Y-119417408D01*
X137479000Y-120043250D01*
X137572750Y-120137000D01*
X138599000Y-120137000D01*
X138599000Y-119210750D01*
X138609000Y-119210750D01*
X138609000Y-120137000D01*
X139635250Y-120137000D01*
X139729000Y-120043250D01*
X139729000Y-119417408D01*
X139671910Y-119279579D01*
X139566420Y-119174090D01*
X139428592Y-119117000D01*
X138702750Y-119117000D01*
X138609000Y-119210750D01*
X138599000Y-119210750D01*
X138505250Y-119117000D01*
X137779408Y-119117000D01*
X137641580Y-119174090D01*
X137536090Y-119279579D01*
X137479000Y-119417408D01*
X134621606Y-119417408D01*
X134738668Y-119300346D01*
X136784000Y-119300346D01*
X136922966Y-119274198D01*
X137050599Y-119192069D01*
X137136223Y-119066754D01*
X137166346Y-118918000D01*
X137166346Y-118318000D01*
X137140198Y-118179034D01*
X137058069Y-118051401D01*
X136956904Y-117982278D01*
X136996420Y-117965910D01*
X137101910Y-117860421D01*
X137159000Y-117722592D01*
X137159000Y-117446750D01*
X137065250Y-117353000D01*
X135689000Y-117353000D01*
X135689000Y-117373000D01*
X135679000Y-117373000D01*
X135679000Y-117353000D01*
X135659000Y-117353000D01*
X135659000Y-117343000D01*
X135679000Y-117343000D01*
X135679000Y-117323000D01*
X135689000Y-117323000D01*
X135689000Y-117343000D01*
X137065250Y-117343000D01*
X137159000Y-117249250D01*
X137159000Y-116973408D01*
X137101910Y-116835579D01*
X136996420Y-116730090D01*
X136955616Y-116713188D01*
X137050599Y-116652069D01*
X137136223Y-116526754D01*
X137166346Y-116378000D01*
X137166346Y-115778000D01*
X137140198Y-115639034D01*
X137058069Y-115511401D01*
X136956966Y-115442320D01*
X137050599Y-115382069D01*
X137136223Y-115256754D01*
X137166346Y-115108000D01*
X137166346Y-114508000D01*
X137140198Y-114369034D01*
X137058069Y-114241401D01*
X136965278Y-114178000D01*
X137121000Y-114178000D01*
X137121000Y-113308000D01*
X137131000Y-113308000D01*
X137131000Y-114178000D01*
X137731000Y-114178000D01*
X138065467Y-114109481D01*
X138348254Y-113918183D01*
X138536308Y-113633229D01*
X138589431Y-113444816D01*
X138507234Y-113308000D01*
X137131000Y-113308000D01*
X137121000Y-113308000D01*
X135744766Y-113308000D01*
X135662569Y-113444816D01*
X135715692Y-113633229D01*
X135903746Y-113918183D01*
X136186533Y-114109481D01*
X136265479Y-114125654D01*
X134865668Y-114125654D01*
X134703007Y-113962993D01*
X134663664Y-113936705D01*
X134720599Y-113900069D01*
X134806223Y-113774754D01*
X134836346Y-113626000D01*
X134836346Y-111926000D01*
X134810198Y-111787034D01*
X134772600Y-111728604D01*
X135565590Y-111728604D01*
X136308516Y-112471530D01*
X136186533Y-112496519D01*
X135903746Y-112687817D01*
X135715692Y-112972771D01*
X135662569Y-113161184D01*
X135744766Y-113298000D01*
X137121000Y-113298000D01*
X137121000Y-113278000D01*
X137131000Y-113278000D01*
X137131000Y-113298000D01*
X138507234Y-113298000D01*
X138589431Y-113161184D01*
X138536308Y-112972771D01*
X138348254Y-112687817D01*
X138244455Y-112617600D01*
X144455586Y-112617600D01*
X146956178Y-115118192D01*
X146929737Y-115107213D01*
X146442401Y-115106788D01*
X145992000Y-115292890D01*
X145647101Y-115637187D01*
X145460213Y-116087263D01*
X145460149Y-116160442D01*
X145370071Y-116250520D01*
X145370212Y-116089401D01*
X145184110Y-115639000D01*
X144839813Y-115294101D01*
X144389737Y-115107213D01*
X143902401Y-115106788D01*
X143452000Y-115292890D01*
X143294816Y-115449800D01*
X143056480Y-115449800D01*
X143002577Y-115412970D01*
X143050599Y-115382069D01*
X143136223Y-115256754D01*
X143166346Y-115108000D01*
X143166346Y-114508000D01*
X143140198Y-114369034D01*
X143058069Y-114241401D01*
X142932754Y-114155777D01*
X142784000Y-114125654D01*
X140584000Y-114125654D01*
X140445034Y-114151802D01*
X140317401Y-114233931D01*
X140231777Y-114359246D01*
X140201654Y-114508000D01*
X140201654Y-115108000D01*
X140227802Y-115246966D01*
X140309931Y-115374599D01*
X140366251Y-115413081D01*
X140281854Y-115467389D01*
X140184814Y-115609412D01*
X140150674Y-115778000D01*
X140150674Y-116378000D01*
X140180309Y-116535496D01*
X140273389Y-116680146D01*
X140320640Y-116712431D01*
X140281854Y-116737389D01*
X140184814Y-116879412D01*
X140150674Y-117048000D01*
X140150674Y-117648000D01*
X140180309Y-117805496D01*
X140273389Y-117950146D01*
X140365423Y-118013030D01*
X140317401Y-118043931D01*
X140231777Y-118169246D01*
X140201654Y-118318000D01*
X140201654Y-118918000D01*
X140227802Y-119056966D01*
X140309931Y-119184599D01*
X140324127Y-119194299D01*
X140287401Y-119217931D01*
X140201777Y-119343246D01*
X140171654Y-119492000D01*
X140171654Y-120792000D01*
X140197802Y-120930966D01*
X140279931Y-121058599D01*
X140405246Y-121144223D01*
X140554000Y-121174346D01*
X142054000Y-121174346D01*
X142192966Y-121148198D01*
X142320599Y-121066069D01*
X142406223Y-120940754D01*
X142436346Y-120792000D01*
X142436346Y-119492000D01*
X142410198Y-119353034D01*
X142376294Y-119300346D01*
X142784000Y-119300346D01*
X142922966Y-119274198D01*
X143050599Y-119192069D01*
X143136223Y-119066754D01*
X143166346Y-118918000D01*
X143166346Y-118318000D01*
X143140198Y-118179034D01*
X143058069Y-118051401D01*
X143001749Y-118012919D01*
X143020466Y-118000875D01*
X143192795Y-118173204D01*
X143396598Y-118309381D01*
X143476347Y-118325244D01*
X143415327Y-118472197D01*
X143415073Y-118762529D01*
X143525945Y-119030859D01*
X143618400Y-119123475D01*
X143618400Y-120304135D01*
X143452000Y-120372890D01*
X143107101Y-120717187D01*
X142920213Y-121167263D01*
X142919788Y-121654599D01*
X143105890Y-122105000D01*
X143450187Y-122449899D01*
X143900263Y-122636787D01*
X144387599Y-122637212D01*
X144838000Y-122451110D01*
X145182899Y-122106813D01*
X145369787Y-121656737D01*
X145370212Y-121169401D01*
X145184110Y-120719000D01*
X144839813Y-120374101D01*
X144671600Y-120304253D01*
X144671600Y-119123512D01*
X144763334Y-119031938D01*
X144874673Y-118763803D01*
X144874927Y-118473471D01*
X144823324Y-118348582D01*
X145020402Y-118309381D01*
X145224204Y-118173204D01*
X146016559Y-117380850D01*
X146056800Y-117397559D01*
X146056800Y-120346115D01*
X145992000Y-120372890D01*
X145647101Y-120717187D01*
X145460213Y-121167263D01*
X145459788Y-121654599D01*
X145645890Y-122105000D01*
X145990187Y-122449899D01*
X146440263Y-122636787D01*
X146927599Y-122637212D01*
X147378000Y-122451110D01*
X147722899Y-122106813D01*
X147909787Y-121656737D01*
X147909788Y-121654599D01*
X150793788Y-121654599D01*
X150979890Y-122105000D01*
X151324187Y-122449899D01*
X151774263Y-122636787D01*
X152261599Y-122637212D01*
X152712000Y-122451110D01*
X152967190Y-122196365D01*
X153781707Y-122196365D01*
X153858872Y-122384149D01*
X154284191Y-122578076D01*
X154751348Y-122594478D01*
X155189221Y-122430860D01*
X155259128Y-122384149D01*
X155336293Y-122196365D01*
X154559000Y-121419071D01*
X153781707Y-122196365D01*
X152967190Y-122196365D01*
X153056899Y-122106813D01*
X153243787Y-121656737D01*
X153243832Y-121604348D01*
X153376522Y-121604348D01*
X153540140Y-122042221D01*
X153586851Y-122112128D01*
X153774635Y-122189293D01*
X154551929Y-121412000D01*
X154566071Y-121412000D01*
X155343365Y-122189293D01*
X155531149Y-122112128D01*
X155725076Y-121686809D01*
X155741478Y-121219652D01*
X155577860Y-120781779D01*
X155531149Y-120711872D01*
X155343365Y-120634707D01*
X154566071Y-121412000D01*
X154551929Y-121412000D01*
X153774635Y-120634707D01*
X153586851Y-120711872D01*
X153392924Y-121137191D01*
X153376522Y-121604348D01*
X153243832Y-121604348D01*
X153244212Y-121169401D01*
X153058110Y-120719000D01*
X152966905Y-120627635D01*
X153781707Y-120627635D01*
X154559000Y-121404929D01*
X155336293Y-120627635D01*
X155259128Y-120439851D01*
X154833809Y-120245924D01*
X154366652Y-120229522D01*
X153928779Y-120393140D01*
X153858872Y-120439851D01*
X153781707Y-120627635D01*
X152966905Y-120627635D01*
X152713813Y-120374101D01*
X152263737Y-120187213D01*
X151776401Y-120186788D01*
X151326000Y-120372890D01*
X150981101Y-120717187D01*
X150794213Y-121167263D01*
X150793788Y-121654599D01*
X147909788Y-121654599D01*
X147910212Y-121169401D01*
X147724110Y-120719000D01*
X147379813Y-120374101D01*
X147313200Y-120346441D01*
X147313200Y-117397885D01*
X147378000Y-117371110D01*
X147722899Y-117026813D01*
X147909787Y-116576737D01*
X147910212Y-116089401D01*
X147898118Y-116060132D01*
X150856493Y-119018507D01*
X151011113Y-119121821D01*
X151193500Y-119158100D01*
X154298086Y-119158100D01*
X155911205Y-120771219D01*
X155911082Y-120911627D01*
X156014358Y-121161573D01*
X156205421Y-121352970D01*
X156455186Y-121456682D01*
X156725627Y-121456918D01*
X156975573Y-121353642D01*
X157166970Y-121162579D01*
X157270682Y-120912814D01*
X157270918Y-120642373D01*
X157167642Y-120392427D01*
X156976579Y-120201030D01*
X156726814Y-120097318D01*
X156585208Y-120097194D01*
X154832507Y-118344493D01*
X154677887Y-118241179D01*
X154495500Y-118204900D01*
X151390914Y-118204900D01*
X148629014Y-115443000D01*
X150781200Y-115443000D01*
X150781200Y-116332000D01*
X150793944Y-116396067D01*
X150793788Y-116574599D01*
X150862566Y-116741054D01*
X150875422Y-116805686D01*
X150911713Y-116860000D01*
X150979890Y-117025000D01*
X151107131Y-117152464D01*
X151143743Y-117207257D01*
X151198057Y-117243548D01*
X151324187Y-117369899D01*
X151490523Y-117438968D01*
X151545314Y-117475578D01*
X151609380Y-117488321D01*
X151774263Y-117556787D01*
X151954369Y-117556944D01*
X152019000Y-117569800D01*
X152083067Y-117557056D01*
X152261599Y-117557212D01*
X152428054Y-117488434D01*
X152492686Y-117475578D01*
X152547000Y-117439287D01*
X152712000Y-117371110D01*
X152839464Y-117243869D01*
X152894257Y-117207257D01*
X152930548Y-117152943D01*
X152967190Y-117116365D01*
X153781707Y-117116365D01*
X153858872Y-117304149D01*
X154284191Y-117498076D01*
X154751348Y-117514478D01*
X155189221Y-117350860D01*
X155259128Y-117304149D01*
X155336293Y-117116365D01*
X154559000Y-116339071D01*
X153781707Y-117116365D01*
X152967190Y-117116365D01*
X153056899Y-117026813D01*
X153125968Y-116860477D01*
X153162578Y-116805686D01*
X153175321Y-116741620D01*
X153243787Y-116576737D01*
X153243944Y-116396631D01*
X153256800Y-116332000D01*
X153256800Y-115955714D01*
X153716220Y-115496294D01*
X153774634Y-115554708D01*
X153586851Y-115631872D01*
X153392924Y-116057191D01*
X153376522Y-116524348D01*
X153540140Y-116962221D01*
X153586851Y-117032128D01*
X153774635Y-117109293D01*
X154551929Y-116332000D01*
X154566071Y-116332000D01*
X155343365Y-117109293D01*
X155531149Y-117032128D01*
X155725076Y-116606809D01*
X155741478Y-116139652D01*
X155577860Y-115701779D01*
X155531149Y-115631872D01*
X155343365Y-115554707D01*
X154566071Y-116332000D01*
X154551929Y-116332000D01*
X154537786Y-116317858D01*
X154544858Y-116310786D01*
X154559000Y-116324929D01*
X155336293Y-115547635D01*
X155259128Y-115359851D01*
X154833809Y-115165924D01*
X154366652Y-115149522D01*
X153928779Y-115313140D01*
X153858872Y-115359851D01*
X153781708Y-115547634D01*
X153723294Y-115489220D01*
X159875189Y-109337324D01*
X163605676Y-109337324D01*
X163890526Y-110026714D01*
X164417511Y-110554620D01*
X165106403Y-110840673D01*
X165852324Y-110841324D01*
X166541714Y-110556474D01*
X167069620Y-110029489D01*
X167355673Y-109340597D01*
X167355913Y-109064750D01*
X167543000Y-109064750D01*
X167543000Y-110540592D01*
X167600090Y-110678421D01*
X167705580Y-110783910D01*
X167843408Y-110841000D01*
X169319250Y-110841000D01*
X169413000Y-110747250D01*
X169413000Y-108971000D01*
X169423000Y-108971000D01*
X169423000Y-110747250D01*
X169516750Y-110841000D01*
X170992592Y-110841000D01*
X171130420Y-110783910D01*
X171235910Y-110678421D01*
X171293000Y-110540592D01*
X171293000Y-109064750D01*
X171199250Y-108971000D01*
X169423000Y-108971000D01*
X169413000Y-108971000D01*
X167636750Y-108971000D01*
X167543000Y-109064750D01*
X167355913Y-109064750D01*
X167356324Y-108594676D01*
X167071474Y-107905286D01*
X166558493Y-107391408D01*
X167543000Y-107391408D01*
X167543000Y-108867250D01*
X167636750Y-108961000D01*
X169413000Y-108961000D01*
X169413000Y-107184750D01*
X169423000Y-107184750D01*
X169423000Y-108961000D01*
X171199250Y-108961000D01*
X171293000Y-108867250D01*
X171293000Y-107391408D01*
X171235910Y-107253579D01*
X171130420Y-107148090D01*
X170992592Y-107091000D01*
X169516750Y-107091000D01*
X169423000Y-107184750D01*
X169413000Y-107184750D01*
X169319250Y-107091000D01*
X167843408Y-107091000D01*
X167705580Y-107148090D01*
X167600090Y-107253579D01*
X167543000Y-107391408D01*
X166558493Y-107391408D01*
X166544489Y-107377380D01*
X165855597Y-107091327D01*
X165109676Y-107090676D01*
X164420286Y-107375526D01*
X163892380Y-107902511D01*
X163606327Y-108591403D01*
X163605676Y-109337324D01*
X159875189Y-109337324D01*
X160768254Y-108444259D01*
X160768257Y-108444257D01*
X160947544Y-108175935D01*
X161036579Y-108042685D01*
X161130801Y-107569000D01*
X161130800Y-107568995D01*
X161130800Y-99860925D01*
X161719644Y-99860925D01*
X161788723Y-100105900D01*
X162030970Y-100471960D01*
X162394862Y-100717451D01*
X162825000Y-100805000D01*
X163075000Y-100805000D01*
X163075000Y-99685000D01*
X163085000Y-99685000D01*
X163085000Y-100805000D01*
X163335000Y-100805000D01*
X163765138Y-100717451D01*
X164129030Y-100471960D01*
X164371277Y-100105900D01*
X164440356Y-99860925D01*
X164759644Y-99860925D01*
X164828723Y-100105900D01*
X165070970Y-100471960D01*
X165434862Y-100717451D01*
X165865000Y-100805000D01*
X166115000Y-100805000D01*
X166115000Y-99685000D01*
X166125000Y-99685000D01*
X166125000Y-100805000D01*
X166375000Y-100805000D01*
X166805138Y-100717451D01*
X167169030Y-100471960D01*
X167411277Y-100105900D01*
X167480356Y-99860925D01*
X167401238Y-99685000D01*
X166125000Y-99685000D01*
X166115000Y-99685000D01*
X164838762Y-99685000D01*
X164759644Y-99860925D01*
X164440356Y-99860925D01*
X164361238Y-99685000D01*
X163085000Y-99685000D01*
X163075000Y-99685000D01*
X161798762Y-99685000D01*
X161719644Y-99860925D01*
X161130800Y-99860925D01*
X161130800Y-99499075D01*
X161719644Y-99499075D01*
X161798762Y-99675000D01*
X163075000Y-99675000D01*
X163075000Y-98555000D01*
X163085000Y-98555000D01*
X163085000Y-99675000D01*
X164361238Y-99675000D01*
X164440356Y-99499075D01*
X164759644Y-99499075D01*
X164838762Y-99675000D01*
X166115000Y-99675000D01*
X166115000Y-98555000D01*
X166125000Y-98555000D01*
X166125000Y-99675000D01*
X167401238Y-99675000D01*
X167480356Y-99499075D01*
X167411277Y-99254100D01*
X167169030Y-98888040D01*
X166805138Y-98642549D01*
X166375000Y-98555000D01*
X166125000Y-98555000D01*
X166115000Y-98555000D01*
X165865000Y-98555000D01*
X165434862Y-98642549D01*
X165070970Y-98888040D01*
X164828723Y-99254100D01*
X164759644Y-99499075D01*
X164440356Y-99499075D01*
X164371277Y-99254100D01*
X164129030Y-98888040D01*
X163765138Y-98642549D01*
X163335000Y-98555000D01*
X163085000Y-98555000D01*
X163075000Y-98555000D01*
X162825000Y-98555000D01*
X162394862Y-98642549D01*
X162030970Y-98888040D01*
X161788723Y-99254100D01*
X161719644Y-99499075D01*
X161130800Y-99499075D01*
X161130800Y-99318714D01*
X162071714Y-98377800D01*
X165870000Y-98377800D01*
X166185717Y-98315000D01*
X166397917Y-98315000D01*
X166847570Y-98225558D01*
X167228767Y-97970850D01*
X167483475Y-97589653D01*
X167572917Y-97140000D01*
X167483475Y-96690347D01*
X167228767Y-96309150D01*
X166847570Y-96054442D01*
X166397917Y-95965000D01*
X166185717Y-95965000D01*
X165870000Y-95902200D01*
X161559000Y-95902200D01*
X161085314Y-95996422D01*
X160748733Y-96221318D01*
X160683743Y-96264743D01*
X159017743Y-97930743D01*
X158749422Y-98332314D01*
X158655200Y-98806000D01*
X158655200Y-107056287D01*
X151143743Y-114567743D01*
X150875422Y-114969314D01*
X150781200Y-115443000D01*
X148629014Y-115443000D01*
X144990007Y-111803993D01*
X144835387Y-111700679D01*
X144653000Y-111664400D01*
X137471620Y-111664400D01*
X137626174Y-111510115D01*
X137745356Y-111223094D01*
X138046511Y-111233186D01*
X138363080Y-111114318D01*
X138411352Y-111082063D01*
X138448977Y-110928048D01*
X137906000Y-110385071D01*
X137891858Y-110399214D01*
X137884787Y-110392143D01*
X137898929Y-110378000D01*
X137913071Y-110378000D01*
X138456048Y-110920977D01*
X138610063Y-110883352D01*
X138749860Y-110575451D01*
X138761186Y-110237489D01*
X138642318Y-109920920D01*
X138610063Y-109872648D01*
X138456048Y-109835023D01*
X137913071Y-110378000D01*
X137898929Y-110378000D01*
X137884787Y-110363858D01*
X137891858Y-110356787D01*
X137906000Y-110370929D01*
X138448977Y-109827952D01*
X138431115Y-109754834D01*
X138626174Y-109560115D01*
X138755852Y-109247817D01*
X138756147Y-108909666D01*
X138753867Y-108904147D01*
X139021007Y-108637007D01*
X139124321Y-108482387D01*
X139160600Y-108300000D01*
X139160600Y-105664000D01*
X139124321Y-105481613D01*
X139021007Y-105326993D01*
X138945622Y-105251608D01*
X145507197Y-105251608D01*
X145600358Y-105477073D01*
X145791421Y-105668470D01*
X146041186Y-105772182D01*
X146311627Y-105772418D01*
X146561573Y-105669142D01*
X146752970Y-105478079D01*
X146856682Y-105228314D01*
X146856918Y-104957873D01*
X146820860Y-104870606D01*
X146868592Y-104870606D01*
X147024040Y-105026054D01*
X147024040Y-105715146D01*
X146704742Y-105928494D01*
X146460749Y-106293655D01*
X146375070Y-106724392D01*
X146375070Y-107276088D01*
X146460749Y-107706825D01*
X146704742Y-108071986D01*
X147069903Y-108315979D01*
X147500640Y-108401658D01*
X147931377Y-108315979D01*
X148296538Y-108071986D01*
X148540531Y-107706825D01*
X148626210Y-107276088D01*
X148626210Y-107005240D01*
X151373790Y-107005240D01*
X151373790Y-107254160D01*
X151461382Y-107684516D01*
X151706997Y-108048593D01*
X152073242Y-108290964D01*
X152318345Y-108360079D01*
X152494360Y-108280968D01*
X152494360Y-107005240D01*
X152504360Y-107005240D01*
X152504360Y-108280968D01*
X152680375Y-108360079D01*
X152925478Y-108290964D01*
X153291723Y-108048593D01*
X153537338Y-107684516D01*
X153624930Y-107254160D01*
X153624930Y-107005240D01*
X152504360Y-107005240D01*
X152494360Y-107005240D01*
X151373790Y-107005240D01*
X148626210Y-107005240D01*
X148626210Y-106746320D01*
X151373790Y-106746320D01*
X151373790Y-106995240D01*
X152494360Y-106995240D01*
X152494360Y-105719512D01*
X152504360Y-105719512D01*
X152504360Y-106995240D01*
X153624930Y-106995240D01*
X153624930Y-106746320D01*
X153537338Y-106315964D01*
X153291723Y-105951887D01*
X152925478Y-105709516D01*
X152680375Y-105640401D01*
X152504360Y-105719512D01*
X152494360Y-105719512D01*
X152318345Y-105640401D01*
X152073242Y-105709516D01*
X151706997Y-105951887D01*
X151461382Y-106315964D01*
X151373790Y-106746320D01*
X148626210Y-106746320D01*
X148626210Y-106724392D01*
X148540531Y-106293655D01*
X148296538Y-105928494D01*
X147977240Y-105715146D01*
X147977240Y-104828640D01*
X147940961Y-104646253D01*
X147837647Y-104491633D01*
X147835618Y-104489604D01*
X148905632Y-104489604D01*
X149088019Y-104453325D01*
X149242639Y-104350011D01*
X152123327Y-101469323D01*
X154737888Y-101469323D01*
X154930639Y-101755825D01*
X155699199Y-102107988D01*
X156544023Y-102139229D01*
X157336494Y-101844791D01*
X157469641Y-101755825D01*
X157662392Y-101469323D01*
X156200140Y-100007071D01*
X154737888Y-101469323D01*
X152123327Y-101469323D01*
X154092097Y-99500553D01*
X154060911Y-100343883D01*
X154355349Y-101136354D01*
X154444315Y-101269501D01*
X154730817Y-101462252D01*
X156193069Y-100000000D01*
X156207211Y-100000000D01*
X157669463Y-101462252D01*
X157955965Y-101269501D01*
X158308128Y-100500941D01*
X158339369Y-99656117D01*
X158044931Y-98863646D01*
X157955965Y-98730499D01*
X157669463Y-98537748D01*
X156207211Y-100000000D01*
X156193069Y-100000000D01*
X156178927Y-99985858D01*
X156185998Y-99978787D01*
X156200140Y-99992929D01*
X157662392Y-98530677D01*
X157469641Y-98244175D01*
X156701081Y-97892012D01*
X155856257Y-97860771D01*
X155658347Y-97934303D01*
X158516050Y-95076600D01*
X161794488Y-95076600D01*
X162007567Y-95395495D01*
X162372543Y-95639364D01*
X162803062Y-95725000D01*
X163356938Y-95725000D01*
X163787457Y-95639364D01*
X164152433Y-95395495D01*
X164396302Y-95030519D01*
X164481938Y-94600000D01*
X164396302Y-94169481D01*
X164163856Y-93821600D01*
X164417586Y-93821600D01*
X164797355Y-94201369D01*
X164718062Y-94600000D01*
X164803698Y-95030519D01*
X165047567Y-95395495D01*
X165412543Y-95639364D01*
X165843062Y-95725000D01*
X166396938Y-95725000D01*
X166827457Y-95639364D01*
X167192433Y-95395495D01*
X167436302Y-95030519D01*
X167521938Y-94600000D01*
X167436302Y-94169481D01*
X167192433Y-93804505D01*
X166827457Y-93560636D01*
X166396938Y-93475000D01*
X165843062Y-93475000D01*
X165489368Y-93545354D01*
X164952007Y-93007993D01*
X164797387Y-92904679D01*
X164615000Y-92868400D01*
X164133119Y-92868400D01*
X164152433Y-92855495D01*
X164396302Y-92490519D01*
X164481938Y-92060000D01*
X164396302Y-91629481D01*
X164163856Y-91281600D01*
X164417586Y-91281600D01*
X164797355Y-91661369D01*
X164718062Y-92060000D01*
X164803698Y-92490519D01*
X165047567Y-92855495D01*
X165412543Y-93099364D01*
X165843062Y-93185000D01*
X166396938Y-93185000D01*
X166827457Y-93099364D01*
X167192433Y-92855495D01*
X167436302Y-92490519D01*
X167521938Y-92060000D01*
X167436302Y-91629481D01*
X167192433Y-91264505D01*
X166827457Y-91020636D01*
X166396938Y-90935000D01*
X165843062Y-90935000D01*
X165489368Y-91005354D01*
X165136360Y-90652346D01*
X167120000Y-90652346D01*
X167258966Y-90626198D01*
X167386599Y-90544069D01*
X167472223Y-90418754D01*
X167502346Y-90270000D01*
X167502346Y-88770000D01*
X167476198Y-88631034D01*
X167394069Y-88503401D01*
X167268754Y-88417777D01*
X167120000Y-88387654D01*
X165120000Y-88387654D01*
X164981034Y-88413802D01*
X164853401Y-88495931D01*
X164767777Y-88621246D01*
X164737654Y-88770000D01*
X164737654Y-90270000D01*
X164753839Y-90356017D01*
X164615000Y-90328400D01*
X164133119Y-90328400D01*
X164152433Y-90315495D01*
X164396302Y-89950519D01*
X164481938Y-89520000D01*
X164396302Y-89089481D01*
X164152433Y-88724505D01*
X163787457Y-88480636D01*
X163356938Y-88395000D01*
X162803062Y-88395000D01*
X162372543Y-88480636D01*
X162007567Y-88724505D01*
X161794488Y-89043400D01*
X161243364Y-89043400D01*
X161060977Y-89079679D01*
X160906357Y-89182993D01*
X159482000Y-90607350D01*
X159482000Y-89633750D01*
X159388250Y-89540000D01*
X157612000Y-89540000D01*
X157612000Y-91316250D01*
X157705750Y-91410000D01*
X158679350Y-91410000D01*
X153156952Y-96932398D01*
X142717184Y-96932398D01*
X142534797Y-96968677D01*
X142380177Y-97071991D01*
X141142768Y-98309400D01*
X139305346Y-98309400D01*
X139305346Y-98262600D01*
X140046908Y-98262600D01*
X140229295Y-98226321D01*
X140383915Y-98123007D01*
X143187353Y-95319569D01*
X143697874Y-95319569D01*
X143865137Y-95767319D01*
X144191014Y-96116977D01*
X144625894Y-96315311D01*
X144710431Y-96332126D01*
X144902000Y-96254239D01*
X144902000Y-95128000D01*
X144912000Y-95128000D01*
X144912000Y-96254239D01*
X145103569Y-96332126D01*
X145188106Y-96315311D01*
X145622986Y-96116977D01*
X145948863Y-95767319D01*
X146116126Y-95319569D01*
X146038240Y-95128000D01*
X144912000Y-95128000D01*
X144902000Y-95128000D01*
X143775760Y-95128000D01*
X143697874Y-95319569D01*
X143187353Y-95319569D01*
X143580491Y-94926431D01*
X143697874Y-94926431D01*
X143775760Y-95118000D01*
X144902000Y-95118000D01*
X144902000Y-93991761D01*
X144912000Y-93991761D01*
X144912000Y-95118000D01*
X146038240Y-95118000D01*
X146116126Y-94926431D01*
X145948863Y-94478681D01*
X145622986Y-94129023D01*
X145188106Y-93930689D01*
X145103569Y-93913874D01*
X144912000Y-93991761D01*
X144902000Y-93991761D01*
X144710431Y-93913874D01*
X144625894Y-93930689D01*
X144191014Y-94129023D01*
X143865137Y-94478681D01*
X143697874Y-94926431D01*
X143580491Y-94926431D01*
X143680013Y-94826909D01*
X143783327Y-94672289D01*
X143819606Y-94489902D01*
X143819606Y-90315696D01*
X143882186Y-90341682D01*
X144152627Y-90341918D01*
X144402573Y-90238642D01*
X144502790Y-90138600D01*
X146478154Y-90138600D01*
X146478154Y-91127000D01*
X146504302Y-91265966D01*
X146586431Y-91393599D01*
X146683271Y-91459767D01*
X146460749Y-91792795D01*
X146375070Y-92223532D01*
X146375070Y-92775228D01*
X146460749Y-93205965D01*
X146704742Y-93571126D01*
X147069903Y-93815119D01*
X147406461Y-93882065D01*
X146978213Y-93967249D01*
X146580794Y-94232795D01*
X146315248Y-94630214D01*
X146222000Y-95099001D01*
X146222000Y-95146999D01*
X146315248Y-95615786D01*
X146580794Y-96013205D01*
X146978213Y-96278751D01*
X147447000Y-96371999D01*
X147915787Y-96278751D01*
X148313206Y-96013205D01*
X148578752Y-95615786D01*
X148672000Y-95146999D01*
X148672000Y-95099001D01*
X148578752Y-94630214D01*
X148313206Y-94232795D01*
X147915787Y-93967249D01*
X147541179Y-93892734D01*
X147931377Y-93815119D01*
X148057855Y-93730609D01*
X148896188Y-94568942D01*
X148855248Y-94630214D01*
X148762000Y-95099001D01*
X148762000Y-95146999D01*
X148855248Y-95615786D01*
X149120794Y-96013205D01*
X149518213Y-96278751D01*
X149987000Y-96371999D01*
X150455787Y-96278751D01*
X150853206Y-96013205D01*
X151118752Y-95615786D01*
X151212000Y-95146999D01*
X151212000Y-95099001D01*
X151118752Y-94630214D01*
X150853206Y-94232795D01*
X150455787Y-93967249D01*
X149987000Y-93874001D01*
X149621899Y-93946625D01*
X149253080Y-93577806D01*
X149573882Y-93790104D01*
X149818985Y-93859219D01*
X149995000Y-93780108D01*
X149995000Y-92504380D01*
X150005000Y-92504380D01*
X150005000Y-93780108D01*
X150181015Y-93859219D01*
X150426118Y-93790104D01*
X150792363Y-93547733D01*
X151037978Y-93183656D01*
X151125570Y-92753300D01*
X151125570Y-92504380D01*
X150005000Y-92504380D01*
X149995000Y-92504380D01*
X148874430Y-92504380D01*
X148874430Y-92753300D01*
X148962022Y-93183656D01*
X149175769Y-93500495D01*
X148597058Y-92921784D01*
X148626210Y-92775228D01*
X148626210Y-92245460D01*
X148874430Y-92245460D01*
X148874430Y-92494380D01*
X149995000Y-92494380D01*
X149995000Y-91218652D01*
X150005000Y-91218652D01*
X150005000Y-92494380D01*
X151125570Y-92494380D01*
X151125570Y-92245460D01*
X151037978Y-91815104D01*
X150792363Y-91451027D01*
X150426118Y-91208656D01*
X150181015Y-91139541D01*
X150005000Y-91218652D01*
X149995000Y-91218652D01*
X149818985Y-91139541D01*
X149573882Y-91208656D01*
X149207637Y-91451027D01*
X148962022Y-91815104D01*
X148874430Y-92245460D01*
X148626210Y-92245460D01*
X148626210Y-92223532D01*
X148540531Y-91792795D01*
X148323382Y-91467809D01*
X148427099Y-91401069D01*
X148512723Y-91275754D01*
X148542846Y-91127000D01*
X148542846Y-89627000D01*
X148519627Y-89503600D01*
X150979586Y-89503600D01*
X151494654Y-90018668D01*
X151494654Y-91127000D01*
X151520802Y-91265966D01*
X151602931Y-91393599D01*
X151687564Y-91451426D01*
X151459469Y-91792795D01*
X151373790Y-92223532D01*
X151373790Y-92775228D01*
X151459469Y-93205965D01*
X151703462Y-93571126D01*
X152050400Y-93802943D01*
X152050400Y-93890654D01*
X151677000Y-93890654D01*
X151538034Y-93916802D01*
X151410401Y-93998931D01*
X151324777Y-94124246D01*
X151294654Y-94273000D01*
X151294654Y-95973000D01*
X151320802Y-96111966D01*
X151402931Y-96239599D01*
X151528246Y-96325223D01*
X151677000Y-96355346D01*
X153377000Y-96355346D01*
X153515966Y-96329198D01*
X153643599Y-96247069D01*
X153729223Y-96121754D01*
X153759346Y-95973000D01*
X153759346Y-94273000D01*
X153733198Y-94134034D01*
X153651069Y-94006401D01*
X153525754Y-93920777D01*
X153377000Y-93890654D01*
X153003600Y-93890654D01*
X153003600Y-93766006D01*
X153295258Y-93571126D01*
X153539251Y-93205965D01*
X153624930Y-92775228D01*
X153624930Y-92223532D01*
X153539251Y-91792795D01*
X153327448Y-91475810D01*
X153443599Y-91401069D01*
X153529223Y-91275754D01*
X153559346Y-91127000D01*
X153559346Y-89633750D01*
X155732000Y-89633750D01*
X155732000Y-91109592D01*
X155789090Y-91247421D01*
X155894580Y-91352910D01*
X156032408Y-91410000D01*
X157508250Y-91410000D01*
X157602000Y-91316250D01*
X157602000Y-89540000D01*
X155825750Y-89540000D01*
X155732000Y-89633750D01*
X153559346Y-89633750D01*
X153559346Y-89627000D01*
X153533198Y-89488034D01*
X153451069Y-89360401D01*
X153325754Y-89274777D01*
X153177000Y-89244654D01*
X152068668Y-89244654D01*
X151514007Y-88689993D01*
X151359387Y-88586679D01*
X151177000Y-88550400D01*
X148517857Y-88550400D01*
X148542846Y-88427000D01*
X148542846Y-88153600D01*
X151494654Y-88153600D01*
X151494654Y-88427000D01*
X151520802Y-88565966D01*
X151602931Y-88693599D01*
X151728246Y-88779223D01*
X151877000Y-88809346D01*
X153177000Y-88809346D01*
X153315966Y-88783198D01*
X153443599Y-88701069D01*
X153529223Y-88575754D01*
X153559346Y-88427000D01*
X153559346Y-88153600D01*
X155732000Y-88153600D01*
X155732000Y-89436250D01*
X155825750Y-89530000D01*
X157602000Y-89530000D01*
X157602000Y-89510000D01*
X157612000Y-89510000D01*
X157612000Y-89530000D01*
X159388250Y-89530000D01*
X159482000Y-89436250D01*
X159482000Y-87960408D01*
X159424910Y-87822579D01*
X159319420Y-87717090D01*
X159181592Y-87660000D01*
X158141261Y-87660000D01*
X158667714Y-87442474D01*
X159195620Y-86915489D01*
X159481673Y-86226597D01*
X159482324Y-85480676D01*
X159365683Y-85198383D01*
X159442533Y-85121533D01*
X159611919Y-84868029D01*
X159671400Y-84569000D01*
X159671400Y-81201851D01*
X159685495Y-81192433D01*
X159929364Y-80827457D01*
X160015000Y-80396938D01*
X160015000Y-79843062D01*
X159929364Y-79412543D01*
X159685495Y-79047567D01*
X159320519Y-78803698D01*
X158890000Y-78718062D01*
X158459481Y-78803698D01*
X158094505Y-79047567D01*
X157850636Y-79412543D01*
X157765000Y-79843062D01*
X157765000Y-80396938D01*
X157850636Y-80827457D01*
X158094505Y-81192433D01*
X158108600Y-81201851D01*
X158108600Y-84030063D01*
X157981597Y-83977327D01*
X157235676Y-83976676D01*
X156546286Y-84261526D01*
X156018380Y-84788511D01*
X155732327Y-85477403D01*
X155731676Y-86223324D01*
X155974349Y-86810637D01*
X155584586Y-87200400D01*
X153559346Y-87200400D01*
X153559346Y-86927000D01*
X153533198Y-86788034D01*
X153451069Y-86660401D01*
X153325754Y-86574777D01*
X153177000Y-86544654D01*
X151877000Y-86544654D01*
X151738034Y-86570802D01*
X151610401Y-86652931D01*
X151524777Y-86778246D01*
X151494654Y-86927000D01*
X151494654Y-87200400D01*
X148542846Y-87200400D01*
X148542846Y-86927000D01*
X148516698Y-86788034D01*
X148434569Y-86660401D01*
X148309254Y-86574777D01*
X148160500Y-86544654D01*
X146860500Y-86544654D01*
X146721534Y-86570802D01*
X146593901Y-86652931D01*
X146508277Y-86778246D01*
X146478154Y-86927000D01*
X146478154Y-88427000D01*
X146501373Y-88550400D01*
X145010776Y-88550400D01*
X144911579Y-88451030D01*
X144661814Y-88347318D01*
X144391373Y-88347082D01*
X144272105Y-88396363D01*
X148752858Y-83915610D01*
X153065808Y-83915610D01*
X153248195Y-83879331D01*
X153402815Y-83776017D01*
X155813407Y-81365425D01*
X155919481Y-81436302D01*
X156350000Y-81521938D01*
X156780519Y-81436302D01*
X157145495Y-81192433D01*
X157389364Y-80827457D01*
X157475000Y-80396938D01*
X157475000Y-79843062D01*
X157389364Y-79412543D01*
X157145495Y-79047567D01*
X156780519Y-78803698D01*
X156350000Y-78718062D01*
X155919481Y-78803698D01*
X155554505Y-79047567D01*
X155543600Y-79063887D01*
X155543600Y-78810414D01*
X155951369Y-78402645D01*
X156350000Y-78481938D01*
X156780519Y-78396302D01*
X157145495Y-78152433D01*
X157389364Y-77787457D01*
X157475000Y-77356938D01*
X157475000Y-77085000D01*
X157765000Y-77085000D01*
X157765000Y-77335000D01*
X157852549Y-77765138D01*
X158098040Y-78129030D01*
X158464100Y-78371277D01*
X158709075Y-78440356D01*
X158885000Y-78361238D01*
X158885000Y-77085000D01*
X158895000Y-77085000D01*
X158895000Y-78361238D01*
X159070925Y-78440356D01*
X159315900Y-78371277D01*
X159681960Y-78129030D01*
X159927451Y-77765138D01*
X160015000Y-77335000D01*
X160015000Y-77085000D01*
X158895000Y-77085000D01*
X158885000Y-77085000D01*
X157765000Y-77085000D01*
X157475000Y-77085000D01*
X157475000Y-76825000D01*
X157765000Y-76825000D01*
X157765000Y-77075000D01*
X158885000Y-77075000D01*
X158885000Y-75798762D01*
X158895000Y-75798762D01*
X158895000Y-77075000D01*
X160015000Y-77075000D01*
X160015000Y-76825000D01*
X159927451Y-76394862D01*
X159681960Y-76030970D01*
X159315900Y-75788723D01*
X159070925Y-75719644D01*
X158895000Y-75798762D01*
X158885000Y-75798762D01*
X158709075Y-75719644D01*
X158464100Y-75788723D01*
X158098040Y-76030970D01*
X157852549Y-76394862D01*
X157765000Y-76825000D01*
X157475000Y-76825000D01*
X157475000Y-76803062D01*
X157389364Y-76372543D01*
X157145495Y-76007567D01*
X156780519Y-75763698D01*
X156350000Y-75678062D01*
X155919481Y-75763698D01*
X155554505Y-76007567D01*
X155310636Y-76372543D01*
X155225000Y-76803062D01*
X155225000Y-77356938D01*
X155295354Y-77710632D01*
X154729993Y-78275993D01*
X154626679Y-78430613D01*
X154590400Y-78613000D01*
X154590400Y-79037481D01*
X154240519Y-78803698D01*
X153810000Y-78718062D01*
X153379481Y-78803698D01*
X153014505Y-79047567D01*
X153003600Y-79063887D01*
X153003600Y-78810414D01*
X153411369Y-78402645D01*
X153810000Y-78481938D01*
X154240519Y-78396302D01*
X154605495Y-78152433D01*
X154849364Y-77787457D01*
X154935000Y-77356938D01*
X154935000Y-76803062D01*
X154849364Y-76372543D01*
X154605495Y-76007567D01*
X154240519Y-75763698D01*
X153810000Y-75678062D01*
X153379481Y-75763698D01*
X153014505Y-76007567D01*
X152770636Y-76372543D01*
X152685000Y-76803062D01*
X152685000Y-77356938D01*
X152755354Y-77710632D01*
X152189993Y-78275993D01*
X152086679Y-78430613D01*
X152050400Y-78613000D01*
X152050400Y-79037481D01*
X151700519Y-78803698D01*
X151270000Y-78718062D01*
X150839481Y-78803698D01*
X150474505Y-79047567D01*
X150463600Y-79063887D01*
X150463600Y-78810414D01*
X150871369Y-78402645D01*
X151270000Y-78481938D01*
X151700519Y-78396302D01*
X152065495Y-78152433D01*
X152309364Y-77787457D01*
X152395000Y-77356938D01*
X152395000Y-76803062D01*
X152309364Y-76372543D01*
X152065495Y-76007567D01*
X151700519Y-75763698D01*
X151270000Y-75678062D01*
X150839481Y-75763698D01*
X150474505Y-76007567D01*
X150230636Y-76372543D01*
X150145000Y-76803062D01*
X150145000Y-77356938D01*
X150215354Y-77710632D01*
X149649993Y-78275993D01*
X149546679Y-78430613D01*
X149510400Y-78613000D01*
X149510400Y-79037481D01*
X149160519Y-78803698D01*
X148730000Y-78718062D01*
X148299481Y-78803698D01*
X147934505Y-79047567D01*
X147923600Y-79063887D01*
X147923600Y-78810414D01*
X148331369Y-78402645D01*
X148730000Y-78481938D01*
X149160519Y-78396302D01*
X149525495Y-78152433D01*
X149769364Y-77787457D01*
X149855000Y-77356938D01*
X149855000Y-76803062D01*
X149769364Y-76372543D01*
X149525495Y-76007567D01*
X149160519Y-75763698D01*
X148730000Y-75678062D01*
X148299481Y-75763698D01*
X147934505Y-76007567D01*
X147690636Y-76372543D01*
X147605000Y-76803062D01*
X147605000Y-77356938D01*
X147675354Y-77710632D01*
X147109993Y-78275993D01*
X147006679Y-78430613D01*
X146970400Y-78613000D01*
X146970400Y-79037481D01*
X146620519Y-78803698D01*
X146190000Y-78718062D01*
X145759481Y-78803698D01*
X145394505Y-79047567D01*
X145150636Y-79412543D01*
X145065000Y-79843062D01*
X145065000Y-80320986D01*
X144721851Y-80664135D01*
X144775000Y-80396938D01*
X144775000Y-79843062D01*
X144689364Y-79412543D01*
X144445495Y-79047567D01*
X144080519Y-78803698D01*
X143650000Y-78718062D01*
X143219481Y-78803698D01*
X142854505Y-79047567D01*
X142610636Y-79412543D01*
X142525000Y-79843062D01*
X142525000Y-80320986D01*
X142181851Y-80664135D01*
X142235000Y-80396938D01*
X142235000Y-79843062D01*
X142149364Y-79412543D01*
X141933581Y-79089600D01*
X142367000Y-79089600D01*
X142549387Y-79053321D01*
X142704007Y-78950007D01*
X143251369Y-78402645D01*
X143650000Y-78481938D01*
X144080519Y-78396302D01*
X144445495Y-78152433D01*
X144689364Y-77787457D01*
X144775000Y-77356938D01*
X144775000Y-76803062D01*
X145065000Y-76803062D01*
X145065000Y-77356938D01*
X145150636Y-77787457D01*
X145394505Y-78152433D01*
X145759481Y-78396302D01*
X146190000Y-78481938D01*
X146620519Y-78396302D01*
X146985495Y-78152433D01*
X147229364Y-77787457D01*
X147315000Y-77356938D01*
X147315000Y-76803062D01*
X147229364Y-76372543D01*
X146985495Y-76007567D01*
X146620519Y-75763698D01*
X146190000Y-75678062D01*
X145759481Y-75763698D01*
X145394505Y-76007567D01*
X145150636Y-76372543D01*
X145065000Y-76803062D01*
X144775000Y-76803062D01*
X144689364Y-76372543D01*
X144445495Y-76007567D01*
X144080519Y-75763698D01*
X143650000Y-75678062D01*
X143219481Y-75763698D01*
X142854505Y-76007567D01*
X142610636Y-76372543D01*
X142525000Y-76803062D01*
X142525000Y-77356938D01*
X142595354Y-77710632D01*
X142242346Y-78063640D01*
X142242346Y-76080000D01*
X142216198Y-75941034D01*
X142134069Y-75813401D01*
X142008754Y-75727777D01*
X141860000Y-75697654D01*
X140360000Y-75697654D01*
X140221034Y-75723802D01*
X140093401Y-75805931D01*
X140007777Y-75931246D01*
X139977654Y-76080000D01*
X139977654Y-77788332D01*
X137851594Y-79914392D01*
X128778008Y-79914392D01*
X128595621Y-79950671D01*
X128441001Y-80053985D01*
X124625000Y-83869986D01*
X124625000Y-82051776D01*
X128581452Y-78095324D01*
X130204676Y-78095324D01*
X130489526Y-78784714D01*
X131016511Y-79312620D01*
X131705403Y-79598673D01*
X132451324Y-79599324D01*
X133140714Y-79314474D01*
X133668620Y-78787489D01*
X133954673Y-78098597D01*
X133955324Y-77352676D01*
X133670474Y-76663286D01*
X133143489Y-76135380D01*
X132454597Y-75849327D01*
X131708676Y-75848676D01*
X131019286Y-76133526D01*
X130491380Y-76660511D01*
X130205327Y-77349403D01*
X130204676Y-78095324D01*
X128581452Y-78095324D01*
X132051776Y-74625000D01*
X167948224Y-74625000D01*
X175375000Y-82051776D01*
X175375000Y-82051776D01*
G37*
X175375000Y-82051776D02*
X175375000Y-117948224D01*
X167948224Y-125375000D01*
X132051776Y-125375000D01*
X126917526Y-120240750D01*
X137479000Y-120240750D01*
X137479000Y-120866592D01*
X137536090Y-121004421D01*
X137641580Y-121109910D01*
X137779408Y-121167000D01*
X138505250Y-121167000D01*
X138599000Y-121073250D01*
X138599000Y-120147000D01*
X138609000Y-120147000D01*
X138609000Y-121073250D01*
X138702750Y-121167000D01*
X139428592Y-121167000D01*
X139566420Y-121109910D01*
X139671910Y-121004421D01*
X139729000Y-120866592D01*
X139729000Y-120240750D01*
X139635250Y-120147000D01*
X138609000Y-120147000D01*
X138599000Y-120147000D01*
X137572750Y-120147000D01*
X137479000Y-120240750D01*
X126917526Y-120240750D01*
X124625000Y-117948224D01*
X124625000Y-111837014D01*
X132250993Y-119463007D01*
X132405613Y-119566321D01*
X132588000Y-119602600D01*
X134239000Y-119602600D01*
X134421387Y-119566321D01*
X134576007Y-119463007D01*
X134621606Y-119417408D01*
X137479000Y-119417408D01*
X137479000Y-120043250D01*
X137572750Y-120137000D01*
X138599000Y-120137000D01*
X138599000Y-119210750D01*
X138609000Y-119210750D01*
X138609000Y-120137000D01*
X139635250Y-120137000D01*
X139729000Y-120043250D01*
X139729000Y-119417408D01*
X139671910Y-119279579D01*
X139566420Y-119174090D01*
X139428592Y-119117000D01*
X138702750Y-119117000D01*
X138609000Y-119210750D01*
X138599000Y-119210750D01*
X138505250Y-119117000D01*
X137779408Y-119117000D01*
X137641580Y-119174090D01*
X137536090Y-119279579D01*
X137479000Y-119417408D01*
X134621606Y-119417408D01*
X134738668Y-119300346D01*
X136784000Y-119300346D01*
X136922966Y-119274198D01*
X137050599Y-119192069D01*
X137136223Y-119066754D01*
X137166346Y-118918000D01*
X137166346Y-118318000D01*
X137140198Y-118179034D01*
X137058069Y-118051401D01*
X136956904Y-117982278D01*
X136996420Y-117965910D01*
X137101910Y-117860421D01*
X137159000Y-117722592D01*
X137159000Y-117446750D01*
X137065250Y-117353000D01*
X135689000Y-117353000D01*
X135689000Y-117373000D01*
X135679000Y-117373000D01*
X135679000Y-117353000D01*
X135659000Y-117353000D01*
X135659000Y-117343000D01*
X135679000Y-117343000D01*
X135679000Y-117323000D01*
X135689000Y-117323000D01*
X135689000Y-117343000D01*
X137065250Y-117343000D01*
X137159000Y-117249250D01*
X137159000Y-116973408D01*
X137101910Y-116835579D01*
X136996420Y-116730090D01*
X136955616Y-116713188D01*
X137050599Y-116652069D01*
X137136223Y-116526754D01*
X137166346Y-116378000D01*
X137166346Y-115778000D01*
X137140198Y-115639034D01*
X137058069Y-115511401D01*
X136956966Y-115442320D01*
X137050599Y-115382069D01*
X137136223Y-115256754D01*
X137166346Y-115108000D01*
X137166346Y-114508000D01*
X137140198Y-114369034D01*
X137058069Y-114241401D01*
X136965278Y-114178000D01*
X137121000Y-114178000D01*
X137121000Y-113308000D01*
X137131000Y-113308000D01*
X137131000Y-114178000D01*
X137731000Y-114178000D01*
X138065467Y-114109481D01*
X138348254Y-113918183D01*
X138536308Y-113633229D01*
X138589431Y-113444816D01*
X138507234Y-113308000D01*
X137131000Y-113308000D01*
X137121000Y-113308000D01*
X135744766Y-113308000D01*
X135662569Y-113444816D01*
X135715692Y-113633229D01*
X135903746Y-113918183D01*
X136186533Y-114109481D01*
X136265479Y-114125654D01*
X134865668Y-114125654D01*
X134703007Y-113962993D01*
X134663664Y-113936705D01*
X134720599Y-113900069D01*
X134806223Y-113774754D01*
X134836346Y-113626000D01*
X134836346Y-111926000D01*
X134810198Y-111787034D01*
X134772600Y-111728604D01*
X135565590Y-111728604D01*
X136308516Y-112471530D01*
X136186533Y-112496519D01*
X135903746Y-112687817D01*
X135715692Y-112972771D01*
X135662569Y-113161184D01*
X135744766Y-113298000D01*
X137121000Y-113298000D01*
X137121000Y-113278000D01*
X137131000Y-113278000D01*
X137131000Y-113298000D01*
X138507234Y-113298000D01*
X138589431Y-113161184D01*
X138536308Y-112972771D01*
X138348254Y-112687817D01*
X138244455Y-112617600D01*
X144455586Y-112617600D01*
X146956178Y-115118192D01*
X146929737Y-115107213D01*
X146442401Y-115106788D01*
X145992000Y-115292890D01*
X145647101Y-115637187D01*
X145460213Y-116087263D01*
X145460149Y-116160442D01*
X145370071Y-116250520D01*
X145370212Y-116089401D01*
X145184110Y-115639000D01*
X144839813Y-115294101D01*
X144389737Y-115107213D01*
X143902401Y-115106788D01*
X143452000Y-115292890D01*
X143294816Y-115449800D01*
X143056480Y-115449800D01*
X143002577Y-115412970D01*
X143050599Y-115382069D01*
X143136223Y-115256754D01*
X143166346Y-115108000D01*
X143166346Y-114508000D01*
X143140198Y-114369034D01*
X143058069Y-114241401D01*
X142932754Y-114155777D01*
X142784000Y-114125654D01*
X140584000Y-114125654D01*
X140445034Y-114151802D01*
X140317401Y-114233931D01*
X140231777Y-114359246D01*
X140201654Y-114508000D01*
X140201654Y-115108000D01*
X140227802Y-115246966D01*
X140309931Y-115374599D01*
X140366251Y-115413081D01*
X140281854Y-115467389D01*
X140184814Y-115609412D01*
X140150674Y-115778000D01*
X140150674Y-116378000D01*
X140180309Y-116535496D01*
X140273389Y-116680146D01*
X140320640Y-116712431D01*
X140281854Y-116737389D01*
X140184814Y-116879412D01*
X140150674Y-117048000D01*
X140150674Y-117648000D01*
X140180309Y-117805496D01*
X140273389Y-117950146D01*
X140365423Y-118013030D01*
X140317401Y-118043931D01*
X140231777Y-118169246D01*
X140201654Y-118318000D01*
X140201654Y-118918000D01*
X140227802Y-119056966D01*
X140309931Y-119184599D01*
X140324127Y-119194299D01*
X140287401Y-119217931D01*
X140201777Y-119343246D01*
X140171654Y-119492000D01*
X140171654Y-120792000D01*
X140197802Y-120930966D01*
X140279931Y-121058599D01*
X140405246Y-121144223D01*
X140554000Y-121174346D01*
X142054000Y-121174346D01*
X142192966Y-121148198D01*
X142320599Y-121066069D01*
X142406223Y-120940754D01*
X142436346Y-120792000D01*
X142436346Y-119492000D01*
X142410198Y-119353034D01*
X142376294Y-119300346D01*
X142784000Y-119300346D01*
X142922966Y-119274198D01*
X143050599Y-119192069D01*
X143136223Y-119066754D01*
X143166346Y-118918000D01*
X143166346Y-118318000D01*
X143140198Y-118179034D01*
X143058069Y-118051401D01*
X143001749Y-118012919D01*
X143020466Y-118000875D01*
X143192795Y-118173204D01*
X143396598Y-118309381D01*
X143476347Y-118325244D01*
X143415327Y-118472197D01*
X143415073Y-118762529D01*
X143525945Y-119030859D01*
X143618400Y-119123475D01*
X143618400Y-120304135D01*
X143452000Y-120372890D01*
X143107101Y-120717187D01*
X142920213Y-121167263D01*
X142919788Y-121654599D01*
X143105890Y-122105000D01*
X143450187Y-122449899D01*
X143900263Y-122636787D01*
X144387599Y-122637212D01*
X144838000Y-122451110D01*
X145182899Y-122106813D01*
X145369787Y-121656737D01*
X145370212Y-121169401D01*
X145184110Y-120719000D01*
X144839813Y-120374101D01*
X144671600Y-120304253D01*
X144671600Y-119123512D01*
X144763334Y-119031938D01*
X144874673Y-118763803D01*
X144874927Y-118473471D01*
X144823324Y-118348582D01*
X145020402Y-118309381D01*
X145224204Y-118173204D01*
X146016559Y-117380850D01*
X146056800Y-117397559D01*
X146056800Y-120346115D01*
X145992000Y-120372890D01*
X145647101Y-120717187D01*
X145460213Y-121167263D01*
X145459788Y-121654599D01*
X145645890Y-122105000D01*
X145990187Y-122449899D01*
X146440263Y-122636787D01*
X146927599Y-122637212D01*
X147378000Y-122451110D01*
X147722899Y-122106813D01*
X147909787Y-121656737D01*
X147909788Y-121654599D01*
X150793788Y-121654599D01*
X150979890Y-122105000D01*
X151324187Y-122449899D01*
X151774263Y-122636787D01*
X152261599Y-122637212D01*
X152712000Y-122451110D01*
X152967190Y-122196365D01*
X153781707Y-122196365D01*
X153858872Y-122384149D01*
X154284191Y-122578076D01*
X154751348Y-122594478D01*
X155189221Y-122430860D01*
X155259128Y-122384149D01*
X155336293Y-122196365D01*
X154559000Y-121419071D01*
X153781707Y-122196365D01*
X152967190Y-122196365D01*
X153056899Y-122106813D01*
X153243787Y-121656737D01*
X153243832Y-121604348D01*
X153376522Y-121604348D01*
X153540140Y-122042221D01*
X153586851Y-122112128D01*
X153774635Y-122189293D01*
X154551929Y-121412000D01*
X154566071Y-121412000D01*
X155343365Y-122189293D01*
X155531149Y-122112128D01*
X155725076Y-121686809D01*
X155741478Y-121219652D01*
X155577860Y-120781779D01*
X155531149Y-120711872D01*
X155343365Y-120634707D01*
X154566071Y-121412000D01*
X154551929Y-121412000D01*
X153774635Y-120634707D01*
X153586851Y-120711872D01*
X153392924Y-121137191D01*
X153376522Y-121604348D01*
X153243832Y-121604348D01*
X153244212Y-121169401D01*
X153058110Y-120719000D01*
X152966905Y-120627635D01*
X153781707Y-120627635D01*
X154559000Y-121404929D01*
X155336293Y-120627635D01*
X155259128Y-120439851D01*
X154833809Y-120245924D01*
X154366652Y-120229522D01*
X153928779Y-120393140D01*
X153858872Y-120439851D01*
X153781707Y-120627635D01*
X152966905Y-120627635D01*
X152713813Y-120374101D01*
X152263737Y-120187213D01*
X151776401Y-120186788D01*
X151326000Y-120372890D01*
X150981101Y-120717187D01*
X150794213Y-121167263D01*
X150793788Y-121654599D01*
X147909788Y-121654599D01*
X147910212Y-121169401D01*
X147724110Y-120719000D01*
X147379813Y-120374101D01*
X147313200Y-120346441D01*
X147313200Y-117397885D01*
X147378000Y-117371110D01*
X147722899Y-117026813D01*
X147909787Y-116576737D01*
X147910212Y-116089401D01*
X147898118Y-116060132D01*
X150856493Y-119018507D01*
X151011113Y-119121821D01*
X151193500Y-119158100D01*
X154298086Y-119158100D01*
X155911205Y-120771219D01*
X155911082Y-120911627D01*
X156014358Y-121161573D01*
X156205421Y-121352970D01*
X156455186Y-121456682D01*
X156725627Y-121456918D01*
X156975573Y-121353642D01*
X157166970Y-121162579D01*
X157270682Y-120912814D01*
X157270918Y-120642373D01*
X157167642Y-120392427D01*
X156976579Y-120201030D01*
X156726814Y-120097318D01*
X156585208Y-120097194D01*
X154832507Y-118344493D01*
X154677887Y-118241179D01*
X154495500Y-118204900D01*
X151390914Y-118204900D01*
X148629014Y-115443000D01*
X150781200Y-115443000D01*
X150781200Y-116332000D01*
X150793944Y-116396067D01*
X150793788Y-116574599D01*
X150862566Y-116741054D01*
X150875422Y-116805686D01*
X150911713Y-116860000D01*
X150979890Y-117025000D01*
X151107131Y-117152464D01*
X151143743Y-117207257D01*
X151198057Y-117243548D01*
X151324187Y-117369899D01*
X151490523Y-117438968D01*
X151545314Y-117475578D01*
X151609380Y-117488321D01*
X151774263Y-117556787D01*
X151954369Y-117556944D01*
X152019000Y-117569800D01*
X152083067Y-117557056D01*
X152261599Y-117557212D01*
X152428054Y-117488434D01*
X152492686Y-117475578D01*
X152547000Y-117439287D01*
X152712000Y-117371110D01*
X152839464Y-117243869D01*
X152894257Y-117207257D01*
X152930548Y-117152943D01*
X152967190Y-117116365D01*
X153781707Y-117116365D01*
X153858872Y-117304149D01*
X154284191Y-117498076D01*
X154751348Y-117514478D01*
X155189221Y-117350860D01*
X155259128Y-117304149D01*
X155336293Y-117116365D01*
X154559000Y-116339071D01*
X153781707Y-117116365D01*
X152967190Y-117116365D01*
X153056899Y-117026813D01*
X153125968Y-116860477D01*
X153162578Y-116805686D01*
X153175321Y-116741620D01*
X153243787Y-116576737D01*
X153243944Y-116396631D01*
X153256800Y-116332000D01*
X153256800Y-115955714D01*
X153716220Y-115496294D01*
X153774634Y-115554708D01*
X153586851Y-115631872D01*
X153392924Y-116057191D01*
X153376522Y-116524348D01*
X153540140Y-116962221D01*
X153586851Y-117032128D01*
X153774635Y-117109293D01*
X154551929Y-116332000D01*
X154566071Y-116332000D01*
X155343365Y-117109293D01*
X155531149Y-117032128D01*
X155725076Y-116606809D01*
X155741478Y-116139652D01*
X155577860Y-115701779D01*
X155531149Y-115631872D01*
X155343365Y-115554707D01*
X154566071Y-116332000D01*
X154551929Y-116332000D01*
X154537786Y-116317858D01*
X154544858Y-116310786D01*
X154559000Y-116324929D01*
X155336293Y-115547635D01*
X155259128Y-115359851D01*
X154833809Y-115165924D01*
X154366652Y-115149522D01*
X153928779Y-115313140D01*
X153858872Y-115359851D01*
X153781708Y-115547634D01*
X153723294Y-115489220D01*
X159875189Y-109337324D01*
X163605676Y-109337324D01*
X163890526Y-110026714D01*
X164417511Y-110554620D01*
X165106403Y-110840673D01*
X165852324Y-110841324D01*
X166541714Y-110556474D01*
X167069620Y-110029489D01*
X167355673Y-109340597D01*
X167355913Y-109064750D01*
X167543000Y-109064750D01*
X167543000Y-110540592D01*
X167600090Y-110678421D01*
X167705580Y-110783910D01*
X167843408Y-110841000D01*
X169319250Y-110841000D01*
X169413000Y-110747250D01*
X169413000Y-108971000D01*
X169423000Y-108971000D01*
X169423000Y-110747250D01*
X169516750Y-110841000D01*
X170992592Y-110841000D01*
X171130420Y-110783910D01*
X171235910Y-110678421D01*
X171293000Y-110540592D01*
X171293000Y-109064750D01*
X171199250Y-108971000D01*
X169423000Y-108971000D01*
X169413000Y-108971000D01*
X167636750Y-108971000D01*
X167543000Y-109064750D01*
X167355913Y-109064750D01*
X167356324Y-108594676D01*
X167071474Y-107905286D01*
X166558493Y-107391408D01*
X167543000Y-107391408D01*
X167543000Y-108867250D01*
X167636750Y-108961000D01*
X169413000Y-108961000D01*
X169413000Y-107184750D01*
X169423000Y-107184750D01*
X169423000Y-108961000D01*
X171199250Y-108961000D01*
X171293000Y-108867250D01*
X171293000Y-107391408D01*
X171235910Y-107253579D01*
X171130420Y-107148090D01*
X170992592Y-107091000D01*
X169516750Y-107091000D01*
X169423000Y-107184750D01*
X169413000Y-107184750D01*
X169319250Y-107091000D01*
X167843408Y-107091000D01*
X167705580Y-107148090D01*
X167600090Y-107253579D01*
X167543000Y-107391408D01*
X166558493Y-107391408D01*
X166544489Y-107377380D01*
X165855597Y-107091327D01*
X165109676Y-107090676D01*
X164420286Y-107375526D01*
X163892380Y-107902511D01*
X163606327Y-108591403D01*
X163605676Y-109337324D01*
X159875189Y-109337324D01*
X160768254Y-108444259D01*
X160768257Y-108444257D01*
X160947544Y-108175935D01*
X161036579Y-108042685D01*
X161130801Y-107569000D01*
X161130800Y-107568995D01*
X161130800Y-99860925D01*
X161719644Y-99860925D01*
X161788723Y-100105900D01*
X162030970Y-100471960D01*
X162394862Y-100717451D01*
X162825000Y-100805000D01*
X163075000Y-100805000D01*
X163075000Y-99685000D01*
X163085000Y-99685000D01*
X163085000Y-100805000D01*
X163335000Y-100805000D01*
X163765138Y-100717451D01*
X164129030Y-100471960D01*
X164371277Y-100105900D01*
X164440356Y-99860925D01*
X164759644Y-99860925D01*
X164828723Y-100105900D01*
X165070970Y-100471960D01*
X165434862Y-100717451D01*
X165865000Y-100805000D01*
X166115000Y-100805000D01*
X166115000Y-99685000D01*
X166125000Y-99685000D01*
X166125000Y-100805000D01*
X166375000Y-100805000D01*
X166805138Y-100717451D01*
X167169030Y-100471960D01*
X167411277Y-100105900D01*
X167480356Y-99860925D01*
X167401238Y-99685000D01*
X166125000Y-99685000D01*
X166115000Y-99685000D01*
X164838762Y-99685000D01*
X164759644Y-99860925D01*
X164440356Y-99860925D01*
X164361238Y-99685000D01*
X163085000Y-99685000D01*
X163075000Y-99685000D01*
X161798762Y-99685000D01*
X161719644Y-99860925D01*
X161130800Y-99860925D01*
X161130800Y-99499075D01*
X161719644Y-99499075D01*
X161798762Y-99675000D01*
X163075000Y-99675000D01*
X163075000Y-98555000D01*
X163085000Y-98555000D01*
X163085000Y-99675000D01*
X164361238Y-99675000D01*
X164440356Y-99499075D01*
X164759644Y-99499075D01*
X164838762Y-99675000D01*
X166115000Y-99675000D01*
X166115000Y-98555000D01*
X166125000Y-98555000D01*
X166125000Y-99675000D01*
X167401238Y-99675000D01*
X167480356Y-99499075D01*
X167411277Y-99254100D01*
X167169030Y-98888040D01*
X166805138Y-98642549D01*
X166375000Y-98555000D01*
X166125000Y-98555000D01*
X166115000Y-98555000D01*
X165865000Y-98555000D01*
X165434862Y-98642549D01*
X165070970Y-98888040D01*
X164828723Y-99254100D01*
X164759644Y-99499075D01*
X164440356Y-99499075D01*
X164371277Y-99254100D01*
X164129030Y-98888040D01*
X163765138Y-98642549D01*
X163335000Y-98555000D01*
X163085000Y-98555000D01*
X163075000Y-98555000D01*
X162825000Y-98555000D01*
X162394862Y-98642549D01*
X162030970Y-98888040D01*
X161788723Y-99254100D01*
X161719644Y-99499075D01*
X161130800Y-99499075D01*
X161130800Y-99318714D01*
X162071714Y-98377800D01*
X165870000Y-98377800D01*
X166185717Y-98315000D01*
X166397917Y-98315000D01*
X166847570Y-98225558D01*
X167228767Y-97970850D01*
X167483475Y-97589653D01*
X167572917Y-97140000D01*
X167483475Y-96690347D01*
X167228767Y-96309150D01*
X166847570Y-96054442D01*
X166397917Y-95965000D01*
X166185717Y-95965000D01*
X165870000Y-95902200D01*
X161559000Y-95902200D01*
X161085314Y-95996422D01*
X160748733Y-96221318D01*
X160683743Y-96264743D01*
X159017743Y-97930743D01*
X158749422Y-98332314D01*
X158655200Y-98806000D01*
X158655200Y-107056287D01*
X151143743Y-114567743D01*
X150875422Y-114969314D01*
X150781200Y-115443000D01*
X148629014Y-115443000D01*
X144990007Y-111803993D01*
X144835387Y-111700679D01*
X144653000Y-111664400D01*
X137471620Y-111664400D01*
X137626174Y-111510115D01*
X137745356Y-111223094D01*
X138046511Y-111233186D01*
X138363080Y-111114318D01*
X138411352Y-111082063D01*
X138448977Y-110928048D01*
X137906000Y-110385071D01*
X137891858Y-110399214D01*
X137884787Y-110392143D01*
X137898929Y-110378000D01*
X137913071Y-110378000D01*
X138456048Y-110920977D01*
X138610063Y-110883352D01*
X138749860Y-110575451D01*
X138761186Y-110237489D01*
X138642318Y-109920920D01*
X138610063Y-109872648D01*
X138456048Y-109835023D01*
X137913071Y-110378000D01*
X137898929Y-110378000D01*
X137884787Y-110363858D01*
X137891858Y-110356787D01*
X137906000Y-110370929D01*
X138448977Y-109827952D01*
X138431115Y-109754834D01*
X138626174Y-109560115D01*
X138755852Y-109247817D01*
X138756147Y-108909666D01*
X138753867Y-108904147D01*
X139021007Y-108637007D01*
X139124321Y-108482387D01*
X139160600Y-108300000D01*
X139160600Y-105664000D01*
X139124321Y-105481613D01*
X139021007Y-105326993D01*
X138945622Y-105251608D01*
X145507197Y-105251608D01*
X145600358Y-105477073D01*
X145791421Y-105668470D01*
X146041186Y-105772182D01*
X146311627Y-105772418D01*
X146561573Y-105669142D01*
X146752970Y-105478079D01*
X146856682Y-105228314D01*
X146856918Y-104957873D01*
X146820860Y-104870606D01*
X146868592Y-104870606D01*
X147024040Y-105026054D01*
X147024040Y-105715146D01*
X146704742Y-105928494D01*
X146460749Y-106293655D01*
X146375070Y-106724392D01*
X146375070Y-107276088D01*
X146460749Y-107706825D01*
X146704742Y-108071986D01*
X147069903Y-108315979D01*
X147500640Y-108401658D01*
X147931377Y-108315979D01*
X148296538Y-108071986D01*
X148540531Y-107706825D01*
X148626210Y-107276088D01*
X148626210Y-107005240D01*
X151373790Y-107005240D01*
X151373790Y-107254160D01*
X151461382Y-107684516D01*
X151706997Y-108048593D01*
X152073242Y-108290964D01*
X152318345Y-108360079D01*
X152494360Y-108280968D01*
X152494360Y-107005240D01*
X152504360Y-107005240D01*
X152504360Y-108280968D01*
X152680375Y-108360079D01*
X152925478Y-108290964D01*
X153291723Y-108048593D01*
X153537338Y-107684516D01*
X153624930Y-107254160D01*
X153624930Y-107005240D01*
X152504360Y-107005240D01*
X152494360Y-107005240D01*
X151373790Y-107005240D01*
X148626210Y-107005240D01*
X148626210Y-106746320D01*
X151373790Y-106746320D01*
X151373790Y-106995240D01*
X152494360Y-106995240D01*
X152494360Y-105719512D01*
X152504360Y-105719512D01*
X152504360Y-106995240D01*
X153624930Y-106995240D01*
X153624930Y-106746320D01*
X153537338Y-106315964D01*
X153291723Y-105951887D01*
X152925478Y-105709516D01*
X152680375Y-105640401D01*
X152504360Y-105719512D01*
X152494360Y-105719512D01*
X152318345Y-105640401D01*
X152073242Y-105709516D01*
X151706997Y-105951887D01*
X151461382Y-106315964D01*
X151373790Y-106746320D01*
X148626210Y-106746320D01*
X148626210Y-106724392D01*
X148540531Y-106293655D01*
X148296538Y-105928494D01*
X147977240Y-105715146D01*
X147977240Y-104828640D01*
X147940961Y-104646253D01*
X147837647Y-104491633D01*
X147835618Y-104489604D01*
X148905632Y-104489604D01*
X149088019Y-104453325D01*
X149242639Y-104350011D01*
X152123327Y-101469323D01*
X154737888Y-101469323D01*
X154930639Y-101755825D01*
X155699199Y-102107988D01*
X156544023Y-102139229D01*
X157336494Y-101844791D01*
X157469641Y-101755825D01*
X157662392Y-101469323D01*
X156200140Y-100007071D01*
X154737888Y-101469323D01*
X152123327Y-101469323D01*
X154092097Y-99500553D01*
X154060911Y-100343883D01*
X154355349Y-101136354D01*
X154444315Y-101269501D01*
X154730817Y-101462252D01*
X156193069Y-100000000D01*
X156207211Y-100000000D01*
X157669463Y-101462252D01*
X157955965Y-101269501D01*
X158308128Y-100500941D01*
X158339369Y-99656117D01*
X158044931Y-98863646D01*
X157955965Y-98730499D01*
X157669463Y-98537748D01*
X156207211Y-100000000D01*
X156193069Y-100000000D01*
X156178927Y-99985858D01*
X156185998Y-99978787D01*
X156200140Y-99992929D01*
X157662392Y-98530677D01*
X157469641Y-98244175D01*
X156701081Y-97892012D01*
X155856257Y-97860771D01*
X155658347Y-97934303D01*
X158516050Y-95076600D01*
X161794488Y-95076600D01*
X162007567Y-95395495D01*
X162372543Y-95639364D01*
X162803062Y-95725000D01*
X163356938Y-95725000D01*
X163787457Y-95639364D01*
X164152433Y-95395495D01*
X164396302Y-95030519D01*
X164481938Y-94600000D01*
X164396302Y-94169481D01*
X164163856Y-93821600D01*
X164417586Y-93821600D01*
X164797355Y-94201369D01*
X164718062Y-94600000D01*
X164803698Y-95030519D01*
X165047567Y-95395495D01*
X165412543Y-95639364D01*
X165843062Y-95725000D01*
X166396938Y-95725000D01*
X166827457Y-95639364D01*
X167192433Y-95395495D01*
X167436302Y-95030519D01*
X167521938Y-94600000D01*
X167436302Y-94169481D01*
X167192433Y-93804505D01*
X166827457Y-93560636D01*
X166396938Y-93475000D01*
X165843062Y-93475000D01*
X165489368Y-93545354D01*
X164952007Y-93007993D01*
X164797387Y-92904679D01*
X164615000Y-92868400D01*
X164133119Y-92868400D01*
X164152433Y-92855495D01*
X164396302Y-92490519D01*
X164481938Y-92060000D01*
X164396302Y-91629481D01*
X164163856Y-91281600D01*
X164417586Y-91281600D01*
X164797355Y-91661369D01*
X164718062Y-92060000D01*
X164803698Y-92490519D01*
X165047567Y-92855495D01*
X165412543Y-93099364D01*
X165843062Y-93185000D01*
X166396938Y-93185000D01*
X166827457Y-93099364D01*
X167192433Y-92855495D01*
X167436302Y-92490519D01*
X167521938Y-92060000D01*
X167436302Y-91629481D01*
X167192433Y-91264505D01*
X166827457Y-91020636D01*
X166396938Y-90935000D01*
X165843062Y-90935000D01*
X165489368Y-91005354D01*
X165136360Y-90652346D01*
X167120000Y-90652346D01*
X167258966Y-90626198D01*
X167386599Y-90544069D01*
X167472223Y-90418754D01*
X167502346Y-90270000D01*
X167502346Y-88770000D01*
X167476198Y-88631034D01*
X167394069Y-88503401D01*
X167268754Y-88417777D01*
X167120000Y-88387654D01*
X165120000Y-88387654D01*
X164981034Y-88413802D01*
X164853401Y-88495931D01*
X164767777Y-88621246D01*
X164737654Y-88770000D01*
X164737654Y-90270000D01*
X164753839Y-90356017D01*
X164615000Y-90328400D01*
X164133119Y-90328400D01*
X164152433Y-90315495D01*
X164396302Y-89950519D01*
X164481938Y-89520000D01*
X164396302Y-89089481D01*
X164152433Y-88724505D01*
X163787457Y-88480636D01*
X163356938Y-88395000D01*
X162803062Y-88395000D01*
X162372543Y-88480636D01*
X162007567Y-88724505D01*
X161794488Y-89043400D01*
X161243364Y-89043400D01*
X161060977Y-89079679D01*
X160906357Y-89182993D01*
X159482000Y-90607350D01*
X159482000Y-89633750D01*
X159388250Y-89540000D01*
X157612000Y-89540000D01*
X157612000Y-91316250D01*
X157705750Y-91410000D01*
X158679350Y-91410000D01*
X153156952Y-96932398D01*
X142717184Y-96932398D01*
X142534797Y-96968677D01*
X142380177Y-97071991D01*
X141142768Y-98309400D01*
X139305346Y-98309400D01*
X139305346Y-98262600D01*
X140046908Y-98262600D01*
X140229295Y-98226321D01*
X140383915Y-98123007D01*
X143187353Y-95319569D01*
X143697874Y-95319569D01*
X143865137Y-95767319D01*
X144191014Y-96116977D01*
X144625894Y-96315311D01*
X144710431Y-96332126D01*
X144902000Y-96254239D01*
X144902000Y-95128000D01*
X144912000Y-95128000D01*
X144912000Y-96254239D01*
X145103569Y-96332126D01*
X145188106Y-96315311D01*
X145622986Y-96116977D01*
X145948863Y-95767319D01*
X146116126Y-95319569D01*
X146038240Y-95128000D01*
X144912000Y-95128000D01*
X144902000Y-95128000D01*
X143775760Y-95128000D01*
X143697874Y-95319569D01*
X143187353Y-95319569D01*
X143580491Y-94926431D01*
X143697874Y-94926431D01*
X143775760Y-95118000D01*
X144902000Y-95118000D01*
X144902000Y-93991761D01*
X144912000Y-93991761D01*
X144912000Y-95118000D01*
X146038240Y-95118000D01*
X146116126Y-94926431D01*
X145948863Y-94478681D01*
X145622986Y-94129023D01*
X145188106Y-93930689D01*
X145103569Y-93913874D01*
X144912000Y-93991761D01*
X144902000Y-93991761D01*
X144710431Y-93913874D01*
X144625894Y-93930689D01*
X144191014Y-94129023D01*
X143865137Y-94478681D01*
X143697874Y-94926431D01*
X143580491Y-94926431D01*
X143680013Y-94826909D01*
X143783327Y-94672289D01*
X143819606Y-94489902D01*
X143819606Y-90315696D01*
X143882186Y-90341682D01*
X144152627Y-90341918D01*
X144402573Y-90238642D01*
X144502790Y-90138600D01*
X146478154Y-90138600D01*
X146478154Y-91127000D01*
X146504302Y-91265966D01*
X146586431Y-91393599D01*
X146683271Y-91459767D01*
X146460749Y-91792795D01*
X146375070Y-92223532D01*
X146375070Y-92775228D01*
X146460749Y-93205965D01*
X146704742Y-93571126D01*
X147069903Y-93815119D01*
X147406461Y-93882065D01*
X146978213Y-93967249D01*
X146580794Y-94232795D01*
X146315248Y-94630214D01*
X146222000Y-95099001D01*
X146222000Y-95146999D01*
X146315248Y-95615786D01*
X146580794Y-96013205D01*
X146978213Y-96278751D01*
X147447000Y-96371999D01*
X147915787Y-96278751D01*
X148313206Y-96013205D01*
X148578752Y-95615786D01*
X148672000Y-95146999D01*
X148672000Y-95099001D01*
X148578752Y-94630214D01*
X148313206Y-94232795D01*
X147915787Y-93967249D01*
X147541179Y-93892734D01*
X147931377Y-93815119D01*
X148057855Y-93730609D01*
X148896188Y-94568942D01*
X148855248Y-94630214D01*
X148762000Y-95099001D01*
X148762000Y-95146999D01*
X148855248Y-95615786D01*
X149120794Y-96013205D01*
X149518213Y-96278751D01*
X149987000Y-96371999D01*
X150455787Y-96278751D01*
X150853206Y-96013205D01*
X151118752Y-95615786D01*
X151212000Y-95146999D01*
X151212000Y-95099001D01*
X151118752Y-94630214D01*
X150853206Y-94232795D01*
X150455787Y-93967249D01*
X149987000Y-93874001D01*
X149621899Y-93946625D01*
X149253080Y-93577806D01*
X149573882Y-93790104D01*
X149818985Y-93859219D01*
X149995000Y-93780108D01*
X149995000Y-92504380D01*
X150005000Y-92504380D01*
X150005000Y-93780108D01*
X150181015Y-93859219D01*
X150426118Y-93790104D01*
X150792363Y-93547733D01*
X151037978Y-93183656D01*
X151125570Y-92753300D01*
X151125570Y-92504380D01*
X150005000Y-92504380D01*
X149995000Y-92504380D01*
X148874430Y-92504380D01*
X148874430Y-92753300D01*
X148962022Y-93183656D01*
X149175769Y-93500495D01*
X148597058Y-92921784D01*
X148626210Y-92775228D01*
X148626210Y-92245460D01*
X148874430Y-92245460D01*
X148874430Y-92494380D01*
X149995000Y-92494380D01*
X149995000Y-91218652D01*
X150005000Y-91218652D01*
X150005000Y-92494380D01*
X151125570Y-92494380D01*
X151125570Y-92245460D01*
X151037978Y-91815104D01*
X150792363Y-91451027D01*
X150426118Y-91208656D01*
X150181015Y-91139541D01*
X150005000Y-91218652D01*
X149995000Y-91218652D01*
X149818985Y-91139541D01*
X149573882Y-91208656D01*
X149207637Y-91451027D01*
X148962022Y-91815104D01*
X148874430Y-92245460D01*
X148626210Y-92245460D01*
X148626210Y-92223532D01*
X148540531Y-91792795D01*
X148323382Y-91467809D01*
X148427099Y-91401069D01*
X148512723Y-91275754D01*
X148542846Y-91127000D01*
X148542846Y-89627000D01*
X148519627Y-89503600D01*
X150979586Y-89503600D01*
X151494654Y-90018668D01*
X151494654Y-91127000D01*
X151520802Y-91265966D01*
X151602931Y-91393599D01*
X151687564Y-91451426D01*
X151459469Y-91792795D01*
X151373790Y-92223532D01*
X151373790Y-92775228D01*
X151459469Y-93205965D01*
X151703462Y-93571126D01*
X152050400Y-93802943D01*
X152050400Y-93890654D01*
X151677000Y-93890654D01*
X151538034Y-93916802D01*
X151410401Y-93998931D01*
X151324777Y-94124246D01*
X151294654Y-94273000D01*
X151294654Y-95973000D01*
X151320802Y-96111966D01*
X151402931Y-96239599D01*
X151528246Y-96325223D01*
X151677000Y-96355346D01*
X153377000Y-96355346D01*
X153515966Y-96329198D01*
X153643599Y-96247069D01*
X153729223Y-96121754D01*
X153759346Y-95973000D01*
X153759346Y-94273000D01*
X153733198Y-94134034D01*
X153651069Y-94006401D01*
X153525754Y-93920777D01*
X153377000Y-93890654D01*
X153003600Y-93890654D01*
X153003600Y-93766006D01*
X153295258Y-93571126D01*
X153539251Y-93205965D01*
X153624930Y-92775228D01*
X153624930Y-92223532D01*
X153539251Y-91792795D01*
X153327448Y-91475810D01*
X153443599Y-91401069D01*
X153529223Y-91275754D01*
X153559346Y-91127000D01*
X153559346Y-89633750D01*
X155732000Y-89633750D01*
X155732000Y-91109592D01*
X155789090Y-91247421D01*
X155894580Y-91352910D01*
X156032408Y-91410000D01*
X157508250Y-91410000D01*
X157602000Y-91316250D01*
X157602000Y-89540000D01*
X155825750Y-89540000D01*
X155732000Y-89633750D01*
X153559346Y-89633750D01*
X153559346Y-89627000D01*
X153533198Y-89488034D01*
X153451069Y-89360401D01*
X153325754Y-89274777D01*
X153177000Y-89244654D01*
X152068668Y-89244654D01*
X151514007Y-88689993D01*
X151359387Y-88586679D01*
X151177000Y-88550400D01*
X148517857Y-88550400D01*
X148542846Y-88427000D01*
X148542846Y-88153600D01*
X151494654Y-88153600D01*
X151494654Y-88427000D01*
X151520802Y-88565966D01*
X151602931Y-88693599D01*
X151728246Y-88779223D01*
X151877000Y-88809346D01*
X153177000Y-88809346D01*
X153315966Y-88783198D01*
X153443599Y-88701069D01*
X153529223Y-88575754D01*
X153559346Y-88427000D01*
X153559346Y-88153600D01*
X155732000Y-88153600D01*
X155732000Y-89436250D01*
X155825750Y-89530000D01*
X157602000Y-89530000D01*
X157602000Y-89510000D01*
X157612000Y-89510000D01*
X157612000Y-89530000D01*
X159388250Y-89530000D01*
X159482000Y-89436250D01*
X159482000Y-87960408D01*
X159424910Y-87822579D01*
X159319420Y-87717090D01*
X159181592Y-87660000D01*
X158141261Y-87660000D01*
X158667714Y-87442474D01*
X159195620Y-86915489D01*
X159481673Y-86226597D01*
X159482324Y-85480676D01*
X159365683Y-85198383D01*
X159442533Y-85121533D01*
X159611919Y-84868029D01*
X159671400Y-84569000D01*
X159671400Y-81201851D01*
X159685495Y-81192433D01*
X159929364Y-80827457D01*
X160015000Y-80396938D01*
X160015000Y-79843062D01*
X159929364Y-79412543D01*
X159685495Y-79047567D01*
X159320519Y-78803698D01*
X158890000Y-78718062D01*
X158459481Y-78803698D01*
X158094505Y-79047567D01*
X157850636Y-79412543D01*
X157765000Y-79843062D01*
X157765000Y-80396938D01*
X157850636Y-80827457D01*
X158094505Y-81192433D01*
X158108600Y-81201851D01*
X158108600Y-84030063D01*
X157981597Y-83977327D01*
X157235676Y-83976676D01*
X156546286Y-84261526D01*
X156018380Y-84788511D01*
X155732327Y-85477403D01*
X155731676Y-86223324D01*
X155974349Y-86810637D01*
X155584586Y-87200400D01*
X153559346Y-87200400D01*
X153559346Y-86927000D01*
X153533198Y-86788034D01*
X153451069Y-86660401D01*
X153325754Y-86574777D01*
X153177000Y-86544654D01*
X151877000Y-86544654D01*
X151738034Y-86570802D01*
X151610401Y-86652931D01*
X151524777Y-86778246D01*
X151494654Y-86927000D01*
X151494654Y-87200400D01*
X148542846Y-87200400D01*
X148542846Y-86927000D01*
X148516698Y-86788034D01*
X148434569Y-86660401D01*
X148309254Y-86574777D01*
X148160500Y-86544654D01*
X146860500Y-86544654D01*
X146721534Y-86570802D01*
X146593901Y-86652931D01*
X146508277Y-86778246D01*
X146478154Y-86927000D01*
X146478154Y-88427000D01*
X146501373Y-88550400D01*
X145010776Y-88550400D01*
X144911579Y-88451030D01*
X144661814Y-88347318D01*
X144391373Y-88347082D01*
X144272105Y-88396363D01*
X148752858Y-83915610D01*
X153065808Y-83915610D01*
X153248195Y-83879331D01*
X153402815Y-83776017D01*
X155813407Y-81365425D01*
X155919481Y-81436302D01*
X156350000Y-81521938D01*
X156780519Y-81436302D01*
X157145495Y-81192433D01*
X157389364Y-80827457D01*
X157475000Y-80396938D01*
X157475000Y-79843062D01*
X157389364Y-79412543D01*
X157145495Y-79047567D01*
X156780519Y-78803698D01*
X156350000Y-78718062D01*
X155919481Y-78803698D01*
X155554505Y-79047567D01*
X155543600Y-79063887D01*
X155543600Y-78810414D01*
X155951369Y-78402645D01*
X156350000Y-78481938D01*
X156780519Y-78396302D01*
X157145495Y-78152433D01*
X157389364Y-77787457D01*
X157475000Y-77356938D01*
X157475000Y-77085000D01*
X157765000Y-77085000D01*
X157765000Y-77335000D01*
X157852549Y-77765138D01*
X158098040Y-78129030D01*
X158464100Y-78371277D01*
X158709075Y-78440356D01*
X158885000Y-78361238D01*
X158885000Y-77085000D01*
X158895000Y-77085000D01*
X158895000Y-78361238D01*
X159070925Y-78440356D01*
X159315900Y-78371277D01*
X159681960Y-78129030D01*
X159927451Y-77765138D01*
X160015000Y-77335000D01*
X160015000Y-77085000D01*
X158895000Y-77085000D01*
X158885000Y-77085000D01*
X157765000Y-77085000D01*
X157475000Y-77085000D01*
X157475000Y-76825000D01*
X157765000Y-76825000D01*
X157765000Y-77075000D01*
X158885000Y-77075000D01*
X158885000Y-75798762D01*
X158895000Y-75798762D01*
X158895000Y-77075000D01*
X160015000Y-77075000D01*
X160015000Y-76825000D01*
X159927451Y-76394862D01*
X159681960Y-76030970D01*
X159315900Y-75788723D01*
X159070925Y-75719644D01*
X158895000Y-75798762D01*
X158885000Y-75798762D01*
X158709075Y-75719644D01*
X158464100Y-75788723D01*
X158098040Y-76030970D01*
X157852549Y-76394862D01*
X157765000Y-76825000D01*
X157475000Y-76825000D01*
X157475000Y-76803062D01*
X157389364Y-76372543D01*
X157145495Y-76007567D01*
X156780519Y-75763698D01*
X156350000Y-75678062D01*
X155919481Y-75763698D01*
X155554505Y-76007567D01*
X155310636Y-76372543D01*
X155225000Y-76803062D01*
X155225000Y-77356938D01*
X155295354Y-77710632D01*
X154729993Y-78275993D01*
X154626679Y-78430613D01*
X154590400Y-78613000D01*
X154590400Y-79037481D01*
X154240519Y-78803698D01*
X153810000Y-78718062D01*
X153379481Y-78803698D01*
X153014505Y-79047567D01*
X153003600Y-79063887D01*
X153003600Y-78810414D01*
X153411369Y-78402645D01*
X153810000Y-78481938D01*
X154240519Y-78396302D01*
X154605495Y-78152433D01*
X154849364Y-77787457D01*
X154935000Y-77356938D01*
X154935000Y-76803062D01*
X154849364Y-76372543D01*
X154605495Y-76007567D01*
X154240519Y-75763698D01*
X153810000Y-75678062D01*
X153379481Y-75763698D01*
X153014505Y-76007567D01*
X152770636Y-76372543D01*
X152685000Y-76803062D01*
X152685000Y-77356938D01*
X152755354Y-77710632D01*
X152189993Y-78275993D01*
X152086679Y-78430613D01*
X152050400Y-78613000D01*
X152050400Y-79037481D01*
X151700519Y-78803698D01*
X151270000Y-78718062D01*
X150839481Y-78803698D01*
X150474505Y-79047567D01*
X150463600Y-79063887D01*
X150463600Y-78810414D01*
X150871369Y-78402645D01*
X151270000Y-78481938D01*
X151700519Y-78396302D01*
X152065495Y-78152433D01*
X152309364Y-77787457D01*
X152395000Y-77356938D01*
X152395000Y-76803062D01*
X152309364Y-76372543D01*
X152065495Y-76007567D01*
X151700519Y-75763698D01*
X151270000Y-75678062D01*
X150839481Y-75763698D01*
X150474505Y-76007567D01*
X150230636Y-76372543D01*
X150145000Y-76803062D01*
X150145000Y-77356938D01*
X150215354Y-77710632D01*
X149649993Y-78275993D01*
X149546679Y-78430613D01*
X149510400Y-78613000D01*
X149510400Y-79037481D01*
X149160519Y-78803698D01*
X148730000Y-78718062D01*
X148299481Y-78803698D01*
X147934505Y-79047567D01*
X147923600Y-79063887D01*
X147923600Y-78810414D01*
X148331369Y-78402645D01*
X148730000Y-78481938D01*
X149160519Y-78396302D01*
X149525495Y-78152433D01*
X149769364Y-77787457D01*
X149855000Y-77356938D01*
X149855000Y-76803062D01*
X149769364Y-76372543D01*
X149525495Y-76007567D01*
X149160519Y-75763698D01*
X148730000Y-75678062D01*
X148299481Y-75763698D01*
X147934505Y-76007567D01*
X147690636Y-76372543D01*
X147605000Y-76803062D01*
X147605000Y-77356938D01*
X147675354Y-77710632D01*
X147109993Y-78275993D01*
X147006679Y-78430613D01*
X146970400Y-78613000D01*
X146970400Y-79037481D01*
X146620519Y-78803698D01*
X146190000Y-78718062D01*
X145759481Y-78803698D01*
X145394505Y-79047567D01*
X145150636Y-79412543D01*
X145065000Y-79843062D01*
X145065000Y-80320986D01*
X144721851Y-80664135D01*
X144775000Y-80396938D01*
X144775000Y-79843062D01*
X144689364Y-79412543D01*
X144445495Y-79047567D01*
X144080519Y-78803698D01*
X143650000Y-78718062D01*
X143219481Y-78803698D01*
X142854505Y-79047567D01*
X142610636Y-79412543D01*
X142525000Y-79843062D01*
X142525000Y-80320986D01*
X142181851Y-80664135D01*
X142235000Y-80396938D01*
X142235000Y-79843062D01*
X142149364Y-79412543D01*
X141933581Y-79089600D01*
X142367000Y-79089600D01*
X142549387Y-79053321D01*
X142704007Y-78950007D01*
X143251369Y-78402645D01*
X143650000Y-78481938D01*
X144080519Y-78396302D01*
X144445495Y-78152433D01*
X144689364Y-77787457D01*
X144775000Y-77356938D01*
X144775000Y-76803062D01*
X145065000Y-76803062D01*
X145065000Y-77356938D01*
X145150636Y-77787457D01*
X145394505Y-78152433D01*
X145759481Y-78396302D01*
X146190000Y-78481938D01*
X146620519Y-78396302D01*
X146985495Y-78152433D01*
X147229364Y-77787457D01*
X147315000Y-77356938D01*
X147315000Y-76803062D01*
X147229364Y-76372543D01*
X146985495Y-76007567D01*
X146620519Y-75763698D01*
X146190000Y-75678062D01*
X145759481Y-75763698D01*
X145394505Y-76007567D01*
X145150636Y-76372543D01*
X145065000Y-76803062D01*
X144775000Y-76803062D01*
X144689364Y-76372543D01*
X144445495Y-76007567D01*
X144080519Y-75763698D01*
X143650000Y-75678062D01*
X143219481Y-75763698D01*
X142854505Y-76007567D01*
X142610636Y-76372543D01*
X142525000Y-76803062D01*
X142525000Y-77356938D01*
X142595354Y-77710632D01*
X142242346Y-78063640D01*
X142242346Y-76080000D01*
X142216198Y-75941034D01*
X142134069Y-75813401D01*
X142008754Y-75727777D01*
X141860000Y-75697654D01*
X140360000Y-75697654D01*
X140221034Y-75723802D01*
X140093401Y-75805931D01*
X140007777Y-75931246D01*
X139977654Y-76080000D01*
X139977654Y-77788332D01*
X137851594Y-79914392D01*
X128778008Y-79914392D01*
X128595621Y-79950671D01*
X128441001Y-80053985D01*
X124625000Y-83869986D01*
X124625000Y-82051776D01*
X128581452Y-78095324D01*
X130204676Y-78095324D01*
X130489526Y-78784714D01*
X131016511Y-79312620D01*
X131705403Y-79598673D01*
X132451324Y-79599324D01*
X133140714Y-79314474D01*
X133668620Y-78787489D01*
X133954673Y-78098597D01*
X133955324Y-77352676D01*
X133670474Y-76663286D01*
X133143489Y-76135380D01*
X132454597Y-75849327D01*
X131708676Y-75848676D01*
X131019286Y-76133526D01*
X130491380Y-76660511D01*
X130205327Y-77349403D01*
X130204676Y-78095324D01*
X128581452Y-78095324D01*
X132051776Y-74625000D01*
X167948224Y-74625000D01*
X175375000Y-82051776D01*
G36*
X129075993Y-114637007D02*
X129230613Y-114740321D01*
X129413000Y-114776600D01*
X132596654Y-114776600D01*
X132596654Y-115499800D01*
X132333209Y-115499800D01*
X132088814Y-115398318D01*
X131818373Y-115398082D01*
X131568427Y-115501358D01*
X131377030Y-115692421D01*
X131273318Y-115942186D01*
X131273082Y-116212627D01*
X131376358Y-116462573D01*
X131567421Y-116653970D01*
X131817186Y-116757682D01*
X132087627Y-116757918D01*
X132333802Y-116656200D01*
X134326910Y-116656200D01*
X134411096Y-116713722D01*
X134371580Y-116730090D01*
X134266090Y-116835579D01*
X134265087Y-116838000D01*
X133702750Y-116838000D01*
X133609000Y-116931750D01*
X133609000Y-117958000D01*
X133629000Y-117958000D01*
X133629000Y-117968000D01*
X133609000Y-117968000D01*
X133609000Y-117988000D01*
X133599000Y-117988000D01*
X133599000Y-117968000D01*
X132697750Y-117968000D01*
X132604000Y-118061750D01*
X132604000Y-118467986D01*
X131274422Y-117138408D01*
X132604000Y-117138408D01*
X132604000Y-117864250D01*
X132697750Y-117958000D01*
X133599000Y-117958000D01*
X133599000Y-116931750D01*
X133505250Y-116838000D01*
X132904408Y-116838000D01*
X132766579Y-116895090D01*
X132661090Y-117000580D01*
X132604000Y-117138408D01*
X131274422Y-117138408D01*
X124682600Y-110546586D01*
X124682600Y-110243614D01*
X129075993Y-114637007D01*
X129075993Y-114637007D01*
G37*
X129075993Y-114637007D02*
X129230613Y-114740321D01*
X129413000Y-114776600D01*
X132596654Y-114776600D01*
X132596654Y-115499800D01*
X132333209Y-115499800D01*
X132088814Y-115398318D01*
X131818373Y-115398082D01*
X131568427Y-115501358D01*
X131377030Y-115692421D01*
X131273318Y-115942186D01*
X131273082Y-116212627D01*
X131376358Y-116462573D01*
X131567421Y-116653970D01*
X131817186Y-116757682D01*
X132087627Y-116757918D01*
X132333802Y-116656200D01*
X134326910Y-116656200D01*
X134411096Y-116713722D01*
X134371580Y-116730090D01*
X134266090Y-116835579D01*
X134265087Y-116838000D01*
X133702750Y-116838000D01*
X133609000Y-116931750D01*
X133609000Y-117958000D01*
X133629000Y-117958000D01*
X133629000Y-117968000D01*
X133609000Y-117968000D01*
X133609000Y-117988000D01*
X133599000Y-117988000D01*
X133599000Y-117968000D01*
X132697750Y-117968000D01*
X132604000Y-118061750D01*
X132604000Y-118467986D01*
X131274422Y-117138408D01*
X132604000Y-117138408D01*
X132604000Y-117864250D01*
X132697750Y-117958000D01*
X133599000Y-117958000D01*
X133599000Y-116931750D01*
X133505250Y-116838000D01*
X132904408Y-116838000D01*
X132766579Y-116895090D01*
X132661090Y-117000580D01*
X132604000Y-117138408D01*
X131274422Y-117138408D01*
X124682600Y-110546586D01*
X124682600Y-110243614D01*
X129075993Y-114637007D01*
G36*
X128252361Y-111589011D02*
X128406981Y-111692325D01*
X128589368Y-111728604D01*
X132435013Y-111728604D01*
X132401777Y-111777246D01*
X132371654Y-111926000D01*
X132371654Y-113626000D01*
X132397802Y-113764966D01*
X132435403Y-113823400D01*
X129610414Y-113823400D01*
X125190596Y-109403582D01*
X125190596Y-108527246D01*
X128252361Y-111589011D01*
X128252361Y-111589011D01*
G37*
X128252361Y-111589011D02*
X128406981Y-111692325D01*
X128589368Y-111728604D01*
X132435013Y-111728604D01*
X132401777Y-111777246D01*
X132371654Y-111926000D01*
X132371654Y-113626000D01*
X132397802Y-113764966D01*
X132435403Y-113823400D01*
X129610414Y-113823400D01*
X125190596Y-109403582D01*
X125190596Y-108527246D01*
X128252361Y-111589011D01*
G36*
X133959519Y-108093467D02*
X134114116Y-108322000D01*
X134002408Y-108322000D01*
X133864580Y-108379090D01*
X133759090Y-108484579D01*
X133702000Y-108622408D01*
X133702000Y-109248250D01*
X133795750Y-109342000D01*
X134822000Y-109342000D01*
X134822000Y-109322000D01*
X134832000Y-109322000D01*
X134832000Y-109342000D01*
X135858250Y-109342000D01*
X135952000Y-109248250D01*
X135952000Y-108622408D01*
X135894910Y-108484579D01*
X135789420Y-108379090D01*
X135651592Y-108322000D01*
X135417884Y-108322000D01*
X135572481Y-108093467D01*
X135627735Y-107823749D01*
X136057915Y-108253929D01*
X136056148Y-108258183D01*
X136055853Y-108596334D01*
X136184985Y-108908857D01*
X136353919Y-109078085D01*
X136185826Y-109245885D01*
X136056148Y-109558183D01*
X136055853Y-109896334D01*
X136058133Y-109901853D01*
X135952000Y-110007986D01*
X135952000Y-109445750D01*
X135858250Y-109352000D01*
X134832000Y-109352000D01*
X134832000Y-109372000D01*
X134822000Y-109372000D01*
X134822000Y-109352000D01*
X133795750Y-109352000D01*
X133702000Y-109445750D01*
X133702000Y-110013400D01*
X133256025Y-110013400D01*
X133259346Y-109997000D01*
X133259346Y-108697000D01*
X133233198Y-108558034D01*
X133151069Y-108430401D01*
X133119814Y-108409046D01*
X133294387Y-108374321D01*
X133449007Y-108271007D01*
X133902904Y-107817110D01*
X133959519Y-108093467D01*
X133959519Y-108093467D01*
G37*
X133959519Y-108093467D02*
X134114116Y-108322000D01*
X134002408Y-108322000D01*
X133864580Y-108379090D01*
X133759090Y-108484579D01*
X133702000Y-108622408D01*
X133702000Y-109248250D01*
X133795750Y-109342000D01*
X134822000Y-109342000D01*
X134822000Y-109322000D01*
X134832000Y-109322000D01*
X134832000Y-109342000D01*
X135858250Y-109342000D01*
X135952000Y-109248250D01*
X135952000Y-108622408D01*
X135894910Y-108484579D01*
X135789420Y-108379090D01*
X135651592Y-108322000D01*
X135417884Y-108322000D01*
X135572481Y-108093467D01*
X135627735Y-107823749D01*
X136057915Y-108253929D01*
X136056148Y-108258183D01*
X136055853Y-108596334D01*
X136184985Y-108908857D01*
X136353919Y-109078085D01*
X136185826Y-109245885D01*
X136056148Y-109558183D01*
X136055853Y-109896334D01*
X136058133Y-109901853D01*
X135952000Y-110007986D01*
X135952000Y-109445750D01*
X135858250Y-109352000D01*
X134832000Y-109352000D01*
X134832000Y-109372000D01*
X134822000Y-109372000D01*
X134822000Y-109352000D01*
X133795750Y-109352000D01*
X133702000Y-109445750D01*
X133702000Y-110013400D01*
X133256025Y-110013400D01*
X133259346Y-109997000D01*
X133259346Y-108697000D01*
X133233198Y-108558034D01*
X133151069Y-108430401D01*
X133119814Y-108409046D01*
X133294387Y-108374321D01*
X133449007Y-108271007D01*
X133902904Y-107817110D01*
X133959519Y-108093467D01*
G36*
X131496400Y-105954586D02*
X131365071Y-106085915D01*
X131360817Y-106084148D01*
X131022666Y-106083853D01*
X130710143Y-106212985D01*
X130513953Y-106408833D01*
X130441048Y-106391023D01*
X129898071Y-106934000D01*
X129912214Y-106948143D01*
X129905143Y-106955214D01*
X129891000Y-106941071D01*
X129348023Y-107484048D01*
X129385648Y-107638063D01*
X129691137Y-107776765D01*
X129690853Y-108102334D01*
X129819985Y-108414857D01*
X130058885Y-108654174D01*
X130371183Y-108783852D01*
X130709334Y-108784147D01*
X130714853Y-108781867D01*
X130994654Y-109061668D01*
X130994654Y-109997000D01*
X130997740Y-110013400D01*
X129102414Y-110013400D01*
X127629136Y-108540122D01*
X127757816Y-108617431D01*
X127946229Y-108564308D01*
X128231183Y-108376254D01*
X128422481Y-108093467D01*
X128491000Y-107759000D01*
X128491000Y-107159000D01*
X127621000Y-107159000D01*
X127621000Y-107179000D01*
X127611000Y-107179000D01*
X127611000Y-107159000D01*
X127591000Y-107159000D01*
X127591000Y-107149000D01*
X127611000Y-107149000D01*
X127611000Y-107129000D01*
X127621000Y-107129000D01*
X127621000Y-107149000D01*
X128491000Y-107149000D01*
X128491000Y-107074511D01*
X129035814Y-107074511D01*
X129154682Y-107391080D01*
X129186937Y-107439352D01*
X129340952Y-107476977D01*
X129883929Y-106934000D01*
X129340952Y-106391023D01*
X129186937Y-106428648D01*
X129047140Y-106736549D01*
X129035814Y-107074511D01*
X128491000Y-107074511D01*
X128491000Y-106549000D01*
X128457189Y-106383952D01*
X129348023Y-106383952D01*
X129891000Y-106926929D01*
X130433977Y-106383952D01*
X130396352Y-106229937D01*
X130088451Y-106090140D01*
X129750489Y-106078814D01*
X129433920Y-106197682D01*
X129385648Y-106229937D01*
X129348023Y-106383952D01*
X128457189Y-106383952D01*
X128422481Y-106214533D01*
X128286555Y-106013600D01*
X130556000Y-106013600D01*
X130738387Y-105977321D01*
X130893007Y-105874007D01*
X131496400Y-105270614D01*
X131496400Y-105954586D01*
X131496400Y-105954586D01*
G37*
X131496400Y-105954586D02*
X131365071Y-106085915D01*
X131360817Y-106084148D01*
X131022666Y-106083853D01*
X130710143Y-106212985D01*
X130513953Y-106408833D01*
X130441048Y-106391023D01*
X129898071Y-106934000D01*
X129912214Y-106948143D01*
X129905143Y-106955214D01*
X129891000Y-106941071D01*
X129348023Y-107484048D01*
X129385648Y-107638063D01*
X129691137Y-107776765D01*
X129690853Y-108102334D01*
X129819985Y-108414857D01*
X130058885Y-108654174D01*
X130371183Y-108783852D01*
X130709334Y-108784147D01*
X130714853Y-108781867D01*
X130994654Y-109061668D01*
X130994654Y-109997000D01*
X130997740Y-110013400D01*
X129102414Y-110013400D01*
X127629136Y-108540122D01*
X127757816Y-108617431D01*
X127946229Y-108564308D01*
X128231183Y-108376254D01*
X128422481Y-108093467D01*
X128491000Y-107759000D01*
X128491000Y-107159000D01*
X127621000Y-107159000D01*
X127621000Y-107179000D01*
X127611000Y-107179000D01*
X127611000Y-107159000D01*
X127591000Y-107159000D01*
X127591000Y-107149000D01*
X127611000Y-107149000D01*
X127611000Y-107129000D01*
X127621000Y-107129000D01*
X127621000Y-107149000D01*
X128491000Y-107149000D01*
X128491000Y-107074511D01*
X129035814Y-107074511D01*
X129154682Y-107391080D01*
X129186937Y-107439352D01*
X129340952Y-107476977D01*
X129883929Y-106934000D01*
X129340952Y-106391023D01*
X129186937Y-106428648D01*
X129047140Y-106736549D01*
X129035814Y-107074511D01*
X128491000Y-107074511D01*
X128491000Y-106549000D01*
X128457189Y-106383952D01*
X129348023Y-106383952D01*
X129891000Y-106926929D01*
X130433977Y-106383952D01*
X130396352Y-106229937D01*
X130088451Y-106090140D01*
X129750489Y-106078814D01*
X129433920Y-106197682D01*
X129385648Y-106229937D01*
X129348023Y-106383952D01*
X128457189Y-106383952D01*
X128422481Y-106214533D01*
X128286555Y-106013600D01*
X130556000Y-106013600D01*
X130738387Y-105977321D01*
X130893007Y-105874007D01*
X131496400Y-105270614D01*
X131496400Y-105954586D01*
G36*
X137131000Y-106148000D02*
X137151000Y-106148000D01*
X137151000Y-106158000D01*
X137131000Y-106158000D01*
X137131000Y-107028000D01*
X137731000Y-107028000D01*
X138065467Y-106959481D01*
X138207400Y-106863467D01*
X138207400Y-108102586D01*
X138080071Y-108229915D01*
X138075817Y-108228148D01*
X137743004Y-108227858D01*
X137627015Y-107947143D01*
X137388115Y-107707826D01*
X137075817Y-107578148D01*
X136737666Y-107577853D01*
X136732147Y-107580133D01*
X136112600Y-106960586D01*
X136112600Y-106909467D01*
X136186533Y-106959481D01*
X136521000Y-107028000D01*
X137121000Y-107028000D01*
X137121000Y-106158000D01*
X137101000Y-106158000D01*
X137101000Y-106148000D01*
X137121000Y-106148000D01*
X137121000Y-106128000D01*
X137131000Y-106128000D01*
X137131000Y-106148000D01*
X137131000Y-106148000D01*
G37*
X137131000Y-106148000D02*
X137151000Y-106148000D01*
X137151000Y-106158000D01*
X137131000Y-106158000D01*
X137131000Y-107028000D01*
X137731000Y-107028000D01*
X138065467Y-106959481D01*
X138207400Y-106863467D01*
X138207400Y-108102586D01*
X138080071Y-108229915D01*
X138075817Y-108228148D01*
X137743004Y-108227858D01*
X137627015Y-107947143D01*
X137388115Y-107707826D01*
X137075817Y-107578148D01*
X136737666Y-107577853D01*
X136732147Y-107580133D01*
X136112600Y-106960586D01*
X136112600Y-106909467D01*
X136186533Y-106959481D01*
X136521000Y-107028000D01*
X137121000Y-107028000D01*
X137121000Y-106158000D01*
X137101000Y-106158000D01*
X137101000Y-106148000D01*
X137121000Y-106148000D01*
X137121000Y-106128000D01*
X137131000Y-106128000D01*
X137131000Y-106148000D01*
G36*
X129966802Y-93974966D02*
X129996400Y-94020963D01*
X129996400Y-94151000D01*
X130032679Y-94333387D01*
X130135993Y-94488007D01*
X130511205Y-94863219D01*
X130511082Y-95003627D01*
X130614358Y-95253573D01*
X130805421Y-95444970D01*
X131055186Y-95548682D01*
X131325627Y-95548918D01*
X131575573Y-95445642D01*
X131766970Y-95254579D01*
X131870682Y-95004814D01*
X131870918Y-94734373D01*
X131767642Y-94484427D01*
X131576579Y-94293030D01*
X131396721Y-94218346D01*
X131623000Y-94218346D01*
X131726671Y-94198839D01*
X131823000Y-94218346D01*
X132123000Y-94218346D01*
X132226671Y-94198839D01*
X132323000Y-94218346D01*
X132623000Y-94218346D01*
X132726671Y-94198839D01*
X132823000Y-94218346D01*
X133123000Y-94218346D01*
X133226671Y-94198839D01*
X133323000Y-94218346D01*
X133623000Y-94218346D01*
X133721430Y-94199825D01*
X133748408Y-94211000D01*
X133874250Y-94211000D01*
X133968000Y-94117250D01*
X133968000Y-93995325D01*
X133974130Y-93986354D01*
X133978000Y-93992368D01*
X133978000Y-94117250D01*
X134008480Y-94147730D01*
X134032679Y-94269387D01*
X134135993Y-94424007D01*
X134282993Y-94571007D01*
X134437613Y-94674321D01*
X134620000Y-94710600D01*
X136525000Y-94710600D01*
X136540654Y-94707486D01*
X136540654Y-94936000D01*
X136560161Y-95039671D01*
X136540654Y-95136000D01*
X136540654Y-95436000D01*
X136560161Y-95539671D01*
X136540654Y-95636000D01*
X136540654Y-95936000D01*
X136560161Y-96039671D01*
X136540654Y-96136000D01*
X136540654Y-96436000D01*
X136560161Y-96539671D01*
X136540654Y-96636000D01*
X136540654Y-96936000D01*
X136560161Y-97039671D01*
X136540654Y-97136000D01*
X136540654Y-97436000D01*
X136560161Y-97539671D01*
X136540654Y-97636000D01*
X136540654Y-97936000D01*
X136560161Y-98039671D01*
X136540654Y-98136000D01*
X136540654Y-98436000D01*
X136560161Y-98539671D01*
X136540654Y-98636000D01*
X136540654Y-98936000D01*
X136560161Y-99039671D01*
X136540654Y-99136000D01*
X136540654Y-99436000D01*
X136559175Y-99534430D01*
X136548000Y-99561408D01*
X136548000Y-99687250D01*
X136641750Y-99781000D01*
X136763675Y-99781000D01*
X136772646Y-99787130D01*
X136766632Y-99791000D01*
X136641750Y-99791000D01*
X136623350Y-99809400D01*
X136357076Y-99809400D01*
X136279814Y-99777318D01*
X136009373Y-99777082D01*
X135759427Y-99880358D01*
X135568030Y-100071421D01*
X135464318Y-100321186D01*
X135464082Y-100591627D01*
X135567358Y-100841573D01*
X135579418Y-100853654D01*
X135323000Y-100853654D01*
X135219329Y-100873161D01*
X135123000Y-100853654D01*
X134823000Y-100853654D01*
X134719329Y-100873161D01*
X134623000Y-100853654D01*
X134323000Y-100853654D01*
X134219329Y-100873161D01*
X134123000Y-100853654D01*
X133823000Y-100853654D01*
X133719329Y-100873161D01*
X133623000Y-100853654D01*
X133323000Y-100853654D01*
X133219329Y-100873161D01*
X133123000Y-100853654D01*
X132823000Y-100853654D01*
X132719329Y-100873161D01*
X132623000Y-100853654D01*
X132323000Y-100853654D01*
X132219329Y-100873161D01*
X132123000Y-100853654D01*
X131823000Y-100853654D01*
X131719329Y-100873161D01*
X131623000Y-100853654D01*
X131323000Y-100853654D01*
X131224570Y-100872175D01*
X131197592Y-100861000D01*
X131071750Y-100861000D01*
X130978000Y-100954750D01*
X130978000Y-101076675D01*
X130971870Y-101085646D01*
X130968000Y-101079632D01*
X130968000Y-100954750D01*
X130874250Y-100861000D01*
X130748408Y-100861000D01*
X130719141Y-100873123D01*
X130623000Y-100853654D01*
X130323000Y-100853654D01*
X130184034Y-100879802D01*
X130056401Y-100961931D01*
X129970777Y-101087246D01*
X129940654Y-101236000D01*
X129940654Y-101238114D01*
X129889000Y-101227654D01*
X128389000Y-101227654D01*
X128250034Y-101253802D01*
X128122401Y-101335931D01*
X128036777Y-101461246D01*
X128006654Y-101610000D01*
X128006654Y-102860000D01*
X128032802Y-102998966D01*
X128114931Y-103126599D01*
X128240246Y-103212223D01*
X128389000Y-103242346D01*
X129190400Y-103242346D01*
X129190400Y-103274224D01*
X129091030Y-103373421D01*
X128987318Y-103623186D01*
X128987082Y-103893627D01*
X129090358Y-104143573D01*
X129281421Y-104334970D01*
X129531186Y-104438682D01*
X129801627Y-104438918D01*
X130051573Y-104335642D01*
X130242970Y-104144579D01*
X130346682Y-103894814D01*
X130346806Y-103753208D01*
X130481668Y-103618346D01*
X130623000Y-103618346D01*
X130721430Y-103599825D01*
X130748408Y-103611000D01*
X130874250Y-103611000D01*
X130968000Y-103517250D01*
X130968000Y-103395325D01*
X130974130Y-103386354D01*
X130978000Y-103392368D01*
X130978000Y-103517250D01*
X130996400Y-103535650D01*
X130996400Y-104422586D01*
X130358586Y-105060400D01*
X127127000Y-105060400D01*
X126944613Y-105096679D01*
X126789993Y-105199993D01*
X126281993Y-105707993D01*
X126178679Y-105862613D01*
X126142400Y-106045000D01*
X126142400Y-107592204D01*
X125952600Y-107402404D01*
X125952600Y-103235000D01*
X126540250Y-103235000D01*
X126634000Y-103141250D01*
X126634000Y-102240000D01*
X126644000Y-102240000D01*
X126644000Y-103141250D01*
X126737750Y-103235000D01*
X127463592Y-103235000D01*
X127601420Y-103177910D01*
X127706910Y-103072421D01*
X127764000Y-102934592D01*
X127764000Y-102333750D01*
X127670250Y-102240000D01*
X126644000Y-102240000D01*
X126634000Y-102240000D01*
X126614000Y-102240000D01*
X126614000Y-102230000D01*
X126634000Y-102230000D01*
X126634000Y-101328750D01*
X126644000Y-101328750D01*
X126644000Y-102230000D01*
X127670250Y-102230000D01*
X127764000Y-102136250D01*
X127764000Y-101535408D01*
X127706910Y-101397579D01*
X127601420Y-101292090D01*
X127463592Y-101235000D01*
X126737750Y-101235000D01*
X126644000Y-101328750D01*
X126634000Y-101328750D01*
X126540250Y-101235000D01*
X126261014Y-101235000D01*
X126562412Y-100933602D01*
X127253998Y-100933602D01*
X127436385Y-100897323D01*
X127554582Y-100818346D01*
X129523000Y-100818346D01*
X129661966Y-100792198D01*
X129789599Y-100710069D01*
X129875223Y-100584754D01*
X129905346Y-100436000D01*
X129905346Y-100136000D01*
X129885839Y-100032329D01*
X129905346Y-99936000D01*
X129905346Y-99636000D01*
X129885839Y-99532329D01*
X129905346Y-99436000D01*
X129905346Y-99136000D01*
X129885839Y-99032329D01*
X129905346Y-98936000D01*
X129905346Y-98636000D01*
X129885839Y-98532329D01*
X129905346Y-98436000D01*
X129905346Y-98136000D01*
X129885839Y-98032329D01*
X129905346Y-97936000D01*
X129905346Y-97636000D01*
X129885839Y-97532329D01*
X129905346Y-97436000D01*
X129905346Y-97136000D01*
X129886825Y-97037570D01*
X129898000Y-97010592D01*
X129898000Y-96884750D01*
X129804250Y-96791000D01*
X129682325Y-96791000D01*
X129673354Y-96784870D01*
X129679368Y-96781000D01*
X129804250Y-96781000D01*
X129898000Y-96687250D01*
X129898000Y-96561408D01*
X129885877Y-96532141D01*
X129905346Y-96436000D01*
X129905346Y-96136000D01*
X129885839Y-96032329D01*
X129905346Y-95936000D01*
X129905346Y-95636000D01*
X129886825Y-95537570D01*
X129898000Y-95510592D01*
X129898000Y-95384750D01*
X129804250Y-95291000D01*
X129682325Y-95291000D01*
X129673354Y-95284870D01*
X129679368Y-95281000D01*
X129804250Y-95281000D01*
X129898000Y-95187250D01*
X129898000Y-95061408D01*
X129885877Y-95032141D01*
X129905346Y-94936000D01*
X129905346Y-94636000D01*
X129879198Y-94497034D01*
X129797069Y-94369401D01*
X129671754Y-94283777D01*
X129523000Y-94253654D01*
X128999600Y-94253654D01*
X128999600Y-93971346D01*
X129889000Y-93971346D01*
X129963484Y-93957331D01*
X129966802Y-93974966D01*
X129966802Y-93974966D01*
G37*
X129966802Y-93974966D02*
X129996400Y-94020963D01*
X129996400Y-94151000D01*
X130032679Y-94333387D01*
X130135993Y-94488007D01*
X130511205Y-94863219D01*
X130511082Y-95003627D01*
X130614358Y-95253573D01*
X130805421Y-95444970D01*
X131055186Y-95548682D01*
X131325627Y-95548918D01*
X131575573Y-95445642D01*
X131766970Y-95254579D01*
X131870682Y-95004814D01*
X131870918Y-94734373D01*
X131767642Y-94484427D01*
X131576579Y-94293030D01*
X131396721Y-94218346D01*
X131623000Y-94218346D01*
X131726671Y-94198839D01*
X131823000Y-94218346D01*
X132123000Y-94218346D01*
X132226671Y-94198839D01*
X132323000Y-94218346D01*
X132623000Y-94218346D01*
X132726671Y-94198839D01*
X132823000Y-94218346D01*
X133123000Y-94218346D01*
X133226671Y-94198839D01*
X133323000Y-94218346D01*
X133623000Y-94218346D01*
X133721430Y-94199825D01*
X133748408Y-94211000D01*
X133874250Y-94211000D01*
X133968000Y-94117250D01*
X133968000Y-93995325D01*
X133974130Y-93986354D01*
X133978000Y-93992368D01*
X133978000Y-94117250D01*
X134008480Y-94147730D01*
X134032679Y-94269387D01*
X134135993Y-94424007D01*
X134282993Y-94571007D01*
X134437613Y-94674321D01*
X134620000Y-94710600D01*
X136525000Y-94710600D01*
X136540654Y-94707486D01*
X136540654Y-94936000D01*
X136560161Y-95039671D01*
X136540654Y-95136000D01*
X136540654Y-95436000D01*
X136560161Y-95539671D01*
X136540654Y-95636000D01*
X136540654Y-95936000D01*
X136560161Y-96039671D01*
X136540654Y-96136000D01*
X136540654Y-96436000D01*
X136560161Y-96539671D01*
X136540654Y-96636000D01*
X136540654Y-96936000D01*
X136560161Y-97039671D01*
X136540654Y-97136000D01*
X136540654Y-97436000D01*
X136560161Y-97539671D01*
X136540654Y-97636000D01*
X136540654Y-97936000D01*
X136560161Y-98039671D01*
X136540654Y-98136000D01*
X136540654Y-98436000D01*
X136560161Y-98539671D01*
X136540654Y-98636000D01*
X136540654Y-98936000D01*
X136560161Y-99039671D01*
X136540654Y-99136000D01*
X136540654Y-99436000D01*
X136559175Y-99534430D01*
X136548000Y-99561408D01*
X136548000Y-99687250D01*
X136641750Y-99781000D01*
X136763675Y-99781000D01*
X136772646Y-99787130D01*
X136766632Y-99791000D01*
X136641750Y-99791000D01*
X136623350Y-99809400D01*
X136357076Y-99809400D01*
X136279814Y-99777318D01*
X136009373Y-99777082D01*
X135759427Y-99880358D01*
X135568030Y-100071421D01*
X135464318Y-100321186D01*
X135464082Y-100591627D01*
X135567358Y-100841573D01*
X135579418Y-100853654D01*
X135323000Y-100853654D01*
X135219329Y-100873161D01*
X135123000Y-100853654D01*
X134823000Y-100853654D01*
X134719329Y-100873161D01*
X134623000Y-100853654D01*
X134323000Y-100853654D01*
X134219329Y-100873161D01*
X134123000Y-100853654D01*
X133823000Y-100853654D01*
X133719329Y-100873161D01*
X133623000Y-100853654D01*
X133323000Y-100853654D01*
X133219329Y-100873161D01*
X133123000Y-100853654D01*
X132823000Y-100853654D01*
X132719329Y-100873161D01*
X132623000Y-100853654D01*
X132323000Y-100853654D01*
X132219329Y-100873161D01*
X132123000Y-100853654D01*
X131823000Y-100853654D01*
X131719329Y-100873161D01*
X131623000Y-100853654D01*
X131323000Y-100853654D01*
X131224570Y-100872175D01*
X131197592Y-100861000D01*
X131071750Y-100861000D01*
X130978000Y-100954750D01*
X130978000Y-101076675D01*
X130971870Y-101085646D01*
X130968000Y-101079632D01*
X130968000Y-100954750D01*
X130874250Y-100861000D01*
X130748408Y-100861000D01*
X130719141Y-100873123D01*
X130623000Y-100853654D01*
X130323000Y-100853654D01*
X130184034Y-100879802D01*
X130056401Y-100961931D01*
X129970777Y-101087246D01*
X129940654Y-101236000D01*
X129940654Y-101238114D01*
X129889000Y-101227654D01*
X128389000Y-101227654D01*
X128250034Y-101253802D01*
X128122401Y-101335931D01*
X128036777Y-101461246D01*
X128006654Y-101610000D01*
X128006654Y-102860000D01*
X128032802Y-102998966D01*
X128114931Y-103126599D01*
X128240246Y-103212223D01*
X128389000Y-103242346D01*
X129190400Y-103242346D01*
X129190400Y-103274224D01*
X129091030Y-103373421D01*
X128987318Y-103623186D01*
X128987082Y-103893627D01*
X129090358Y-104143573D01*
X129281421Y-104334970D01*
X129531186Y-104438682D01*
X129801627Y-104438918D01*
X130051573Y-104335642D01*
X130242970Y-104144579D01*
X130346682Y-103894814D01*
X130346806Y-103753208D01*
X130481668Y-103618346D01*
X130623000Y-103618346D01*
X130721430Y-103599825D01*
X130748408Y-103611000D01*
X130874250Y-103611000D01*
X130968000Y-103517250D01*
X130968000Y-103395325D01*
X130974130Y-103386354D01*
X130978000Y-103392368D01*
X130978000Y-103517250D01*
X130996400Y-103535650D01*
X130996400Y-104422586D01*
X130358586Y-105060400D01*
X127127000Y-105060400D01*
X126944613Y-105096679D01*
X126789993Y-105199993D01*
X126281993Y-105707993D01*
X126178679Y-105862613D01*
X126142400Y-106045000D01*
X126142400Y-107592204D01*
X125952600Y-107402404D01*
X125952600Y-103235000D01*
X126540250Y-103235000D01*
X126634000Y-103141250D01*
X126634000Y-102240000D01*
X126644000Y-102240000D01*
X126644000Y-103141250D01*
X126737750Y-103235000D01*
X127463592Y-103235000D01*
X127601420Y-103177910D01*
X127706910Y-103072421D01*
X127764000Y-102934592D01*
X127764000Y-102333750D01*
X127670250Y-102240000D01*
X126644000Y-102240000D01*
X126634000Y-102240000D01*
X126614000Y-102240000D01*
X126614000Y-102230000D01*
X126634000Y-102230000D01*
X126634000Y-101328750D01*
X126644000Y-101328750D01*
X126644000Y-102230000D01*
X127670250Y-102230000D01*
X127764000Y-102136250D01*
X127764000Y-101535408D01*
X127706910Y-101397579D01*
X127601420Y-101292090D01*
X127463592Y-101235000D01*
X126737750Y-101235000D01*
X126644000Y-101328750D01*
X126634000Y-101328750D01*
X126540250Y-101235000D01*
X126261014Y-101235000D01*
X126562412Y-100933602D01*
X127253998Y-100933602D01*
X127436385Y-100897323D01*
X127554582Y-100818346D01*
X129523000Y-100818346D01*
X129661966Y-100792198D01*
X129789599Y-100710069D01*
X129875223Y-100584754D01*
X129905346Y-100436000D01*
X129905346Y-100136000D01*
X129885839Y-100032329D01*
X129905346Y-99936000D01*
X129905346Y-99636000D01*
X129885839Y-99532329D01*
X129905346Y-99436000D01*
X129905346Y-99136000D01*
X129885839Y-99032329D01*
X129905346Y-98936000D01*
X129905346Y-98636000D01*
X129885839Y-98532329D01*
X129905346Y-98436000D01*
X129905346Y-98136000D01*
X129885839Y-98032329D01*
X129905346Y-97936000D01*
X129905346Y-97636000D01*
X129885839Y-97532329D01*
X129905346Y-97436000D01*
X129905346Y-97136000D01*
X129886825Y-97037570D01*
X129898000Y-97010592D01*
X129898000Y-96884750D01*
X129804250Y-96791000D01*
X129682325Y-96791000D01*
X129673354Y-96784870D01*
X129679368Y-96781000D01*
X129804250Y-96781000D01*
X129898000Y-96687250D01*
X129898000Y-96561408D01*
X129885877Y-96532141D01*
X129905346Y-96436000D01*
X129905346Y-96136000D01*
X129885839Y-96032329D01*
X129905346Y-95936000D01*
X129905346Y-95636000D01*
X129886825Y-95537570D01*
X129898000Y-95510592D01*
X129898000Y-95384750D01*
X129804250Y-95291000D01*
X129682325Y-95291000D01*
X129673354Y-95284870D01*
X129679368Y-95281000D01*
X129804250Y-95281000D01*
X129898000Y-95187250D01*
X129898000Y-95061408D01*
X129885877Y-95032141D01*
X129905346Y-94936000D01*
X129905346Y-94636000D01*
X129879198Y-94497034D01*
X129797069Y-94369401D01*
X129671754Y-94283777D01*
X129523000Y-94253654D01*
X128999600Y-94253654D01*
X128999600Y-93971346D01*
X129889000Y-93971346D01*
X129963484Y-93957331D01*
X129966802Y-93974966D01*
G36*
X134771000Y-107149000D02*
X134791000Y-107149000D01*
X134791000Y-107159000D01*
X134771000Y-107159000D01*
X134771000Y-107179000D01*
X134761000Y-107179000D01*
X134761000Y-107159000D01*
X134741000Y-107159000D01*
X134741000Y-107149000D01*
X134761000Y-107149000D01*
X134761000Y-107129000D01*
X134771000Y-107129000D01*
X134771000Y-107149000D01*
X134771000Y-107149000D01*
G37*
X134771000Y-107149000D02*
X134791000Y-107149000D01*
X134791000Y-107159000D01*
X134771000Y-107159000D01*
X134771000Y-107179000D01*
X134761000Y-107179000D01*
X134761000Y-107159000D01*
X134741000Y-107159000D01*
X134741000Y-107149000D01*
X134761000Y-107149000D01*
X134761000Y-107129000D01*
X134771000Y-107129000D01*
X134771000Y-107149000D01*
G36*
X134488105Y-105728937D02*
X134435771Y-105743692D01*
X134150817Y-105931746D01*
X133959519Y-106214533D01*
X133954946Y-106236854D01*
X133941007Y-106215993D01*
X132949600Y-105224586D01*
X132949600Y-104190432D01*
X134488105Y-105728937D01*
X134488105Y-105728937D01*
G37*
X134488105Y-105728937D02*
X134435771Y-105743692D01*
X134150817Y-105931746D01*
X133959519Y-106214533D01*
X133954946Y-106236854D01*
X133941007Y-106215993D01*
X132949600Y-105224586D01*
X132949600Y-104190432D01*
X134488105Y-105728937D01*
G36*
X148392586Y-102774400D02*
X141020144Y-102774400D01*
X141059000Y-102680592D01*
X141059000Y-102079750D01*
X140965250Y-101986000D01*
X139939000Y-101986000D01*
X139939000Y-102006000D01*
X139929000Y-102006000D01*
X139929000Y-101986000D01*
X138902750Y-101986000D01*
X138809000Y-102079750D01*
X138809000Y-102680592D01*
X138847856Y-102774400D01*
X138522799Y-102774400D01*
X138536223Y-102754754D01*
X138566346Y-102606000D01*
X138566346Y-101356000D01*
X138552311Y-101281408D01*
X138809000Y-101281408D01*
X138809000Y-101882250D01*
X138902750Y-101976000D01*
X139929000Y-101976000D01*
X139929000Y-101074750D01*
X139939000Y-101074750D01*
X139939000Y-101976000D01*
X140965250Y-101976000D01*
X141059000Y-101882250D01*
X141059000Y-101469323D01*
X142337608Y-101469323D01*
X142530359Y-101755825D01*
X143298919Y-102107988D01*
X144143743Y-102139229D01*
X144936214Y-101844791D01*
X145069361Y-101755825D01*
X145262112Y-101469323D01*
X143799860Y-100007071D01*
X142337608Y-101469323D01*
X141059000Y-101469323D01*
X141059000Y-101281408D01*
X141001910Y-101143579D01*
X140896420Y-101038090D01*
X140758592Y-100981000D01*
X140032750Y-100981000D01*
X139939000Y-101074750D01*
X139929000Y-101074750D01*
X139835250Y-100981000D01*
X139109408Y-100981000D01*
X138971580Y-101038090D01*
X138866090Y-101143579D01*
X138809000Y-101281408D01*
X138552311Y-101281408D01*
X138540198Y-101217034D01*
X138458069Y-101089401D01*
X138399600Y-101049451D01*
X138399600Y-100818346D01*
X138923000Y-100818346D01*
X139061966Y-100792198D01*
X139189599Y-100710069D01*
X139275223Y-100584754D01*
X139305346Y-100436000D01*
X139305346Y-100136000D01*
X139286825Y-100037570D01*
X139298000Y-100010592D01*
X139298000Y-99884750D01*
X139204250Y-99791000D01*
X139082325Y-99791000D01*
X139073354Y-99784870D01*
X139079368Y-99781000D01*
X139204250Y-99781000D01*
X139222650Y-99762600D01*
X141379000Y-99762600D01*
X141561387Y-99726321D01*
X141686561Y-99642682D01*
X141660631Y-100343883D01*
X141955069Y-101136354D01*
X142044035Y-101269501D01*
X142330537Y-101462252D01*
X143792789Y-100000000D01*
X143806931Y-100000000D01*
X145269183Y-101462252D01*
X145555685Y-101269501D01*
X145907848Y-100500941D01*
X145939089Y-99656117D01*
X145644651Y-98863646D01*
X145555685Y-98730499D01*
X145269183Y-98537748D01*
X143806931Y-100000000D01*
X143792789Y-100000000D01*
X143778647Y-99985858D01*
X143785718Y-99978787D01*
X143799860Y-99992929D01*
X145262112Y-98530677D01*
X145084448Y-98266600D01*
X152900386Y-98266600D01*
X148392586Y-102774400D01*
X148392586Y-102774400D01*
G37*
X148392586Y-102774400D02*
X141020144Y-102774400D01*
X141059000Y-102680592D01*
X141059000Y-102079750D01*
X140965250Y-101986000D01*
X139939000Y-101986000D01*
X139939000Y-102006000D01*
X139929000Y-102006000D01*
X139929000Y-101986000D01*
X138902750Y-101986000D01*
X138809000Y-102079750D01*
X138809000Y-102680592D01*
X138847856Y-102774400D01*
X138522799Y-102774400D01*
X138536223Y-102754754D01*
X138566346Y-102606000D01*
X138566346Y-101356000D01*
X138552311Y-101281408D01*
X138809000Y-101281408D01*
X138809000Y-101882250D01*
X138902750Y-101976000D01*
X139929000Y-101976000D01*
X139929000Y-101074750D01*
X139939000Y-101074750D01*
X139939000Y-101976000D01*
X140965250Y-101976000D01*
X141059000Y-101882250D01*
X141059000Y-101469323D01*
X142337608Y-101469323D01*
X142530359Y-101755825D01*
X143298919Y-102107988D01*
X144143743Y-102139229D01*
X144936214Y-101844791D01*
X145069361Y-101755825D01*
X145262112Y-101469323D01*
X143799860Y-100007071D01*
X142337608Y-101469323D01*
X141059000Y-101469323D01*
X141059000Y-101281408D01*
X141001910Y-101143579D01*
X140896420Y-101038090D01*
X140758592Y-100981000D01*
X140032750Y-100981000D01*
X139939000Y-101074750D01*
X139929000Y-101074750D01*
X139835250Y-100981000D01*
X139109408Y-100981000D01*
X138971580Y-101038090D01*
X138866090Y-101143579D01*
X138809000Y-101281408D01*
X138552311Y-101281408D01*
X138540198Y-101217034D01*
X138458069Y-101089401D01*
X138399600Y-101049451D01*
X138399600Y-100818346D01*
X138923000Y-100818346D01*
X139061966Y-100792198D01*
X139189599Y-100710069D01*
X139275223Y-100584754D01*
X139305346Y-100436000D01*
X139305346Y-100136000D01*
X139286825Y-100037570D01*
X139298000Y-100010592D01*
X139298000Y-99884750D01*
X139204250Y-99791000D01*
X139082325Y-99791000D01*
X139073354Y-99784870D01*
X139079368Y-99781000D01*
X139204250Y-99781000D01*
X139222650Y-99762600D01*
X141379000Y-99762600D01*
X141561387Y-99726321D01*
X141686561Y-99642682D01*
X141660631Y-100343883D01*
X141955069Y-101136354D01*
X142044035Y-101269501D01*
X142330537Y-101462252D01*
X143792789Y-100000000D01*
X143806931Y-100000000D01*
X145269183Y-101462252D01*
X145555685Y-101269501D01*
X145907848Y-100500941D01*
X145939089Y-99656117D01*
X145644651Y-98863646D01*
X145555685Y-98730499D01*
X145269183Y-98537748D01*
X143806931Y-100000000D01*
X143792789Y-100000000D01*
X143778647Y-99985858D01*
X143785718Y-99978787D01*
X143799860Y-99992929D01*
X145262112Y-98530677D01*
X145084448Y-98266600D01*
X152900386Y-98266600D01*
X148392586Y-102774400D01*
G36*
X145759481Y-81436302D02*
X146050747Y-81494239D01*
X137966874Y-89578112D01*
X137966918Y-89527373D01*
X137863642Y-89277427D01*
X137672579Y-89086030D01*
X137458826Y-88997272D01*
X137458918Y-88892373D01*
X137355642Y-88642427D01*
X137164579Y-88451030D01*
X136914814Y-88347318D01*
X136644373Y-88347082D01*
X136394427Y-88450358D01*
X136203030Y-88641421D01*
X136099318Y-88891186D01*
X136099194Y-89032792D01*
X134906909Y-90225077D01*
X134895600Y-90197706D01*
X134730578Y-90032396D01*
X134774599Y-90004069D01*
X134860223Y-89878754D01*
X134890346Y-89730000D01*
X134890346Y-88230000D01*
X134864198Y-88091034D01*
X134782069Y-87963401D01*
X134656754Y-87877777D01*
X134508000Y-87847654D01*
X133208000Y-87847654D01*
X133069034Y-87873802D01*
X132973346Y-87935375D01*
X132973346Y-87323530D01*
X133059246Y-87382223D01*
X133208000Y-87412346D01*
X134508000Y-87412346D01*
X134646966Y-87386198D01*
X134774599Y-87304069D01*
X134860223Y-87178754D01*
X134890346Y-87030000D01*
X134890346Y-86770832D01*
X134900408Y-86775000D01*
X135501250Y-86775000D01*
X135595000Y-86681250D01*
X135595000Y-85655000D01*
X135605000Y-85655000D01*
X135605000Y-86681250D01*
X135698750Y-86775000D01*
X136299592Y-86775000D01*
X136437421Y-86717910D01*
X136542910Y-86612420D01*
X136600000Y-86474592D01*
X136600000Y-85748750D01*
X136506250Y-85655000D01*
X135605000Y-85655000D01*
X135595000Y-85655000D01*
X135575000Y-85655000D01*
X135575000Y-85645000D01*
X135595000Y-85645000D01*
X135595000Y-84618750D01*
X135605000Y-84618750D01*
X135605000Y-85645000D01*
X136506250Y-85645000D01*
X136600000Y-85551250D01*
X136600000Y-84825408D01*
X136542910Y-84687580D01*
X136437421Y-84582090D01*
X136299592Y-84525000D01*
X135698750Y-84525000D01*
X135605000Y-84618750D01*
X135595000Y-84618750D01*
X135501250Y-84525000D01*
X134900408Y-84525000D01*
X134762579Y-84582090D01*
X134657090Y-84687580D01*
X134600000Y-84825408D01*
X134600000Y-85166284D01*
X134508000Y-85147654D01*
X133208000Y-85147654D01*
X133192346Y-85150599D01*
X133192346Y-84084000D01*
X133166198Y-83945034D01*
X133084069Y-83817401D01*
X132958754Y-83731777D01*
X132810000Y-83701654D01*
X131310000Y-83701654D01*
X131171034Y-83727802D01*
X131043401Y-83809931D01*
X130957777Y-83935246D01*
X130927654Y-84084000D01*
X130927654Y-85334000D01*
X130953802Y-85472966D01*
X131035931Y-85600599D01*
X131161246Y-85686223D01*
X131310000Y-85716346D01*
X131583400Y-85716346D01*
X131583400Y-85736654D01*
X131391000Y-85736654D01*
X131252034Y-85762802D01*
X131196797Y-85798346D01*
X131065592Y-85744000D01*
X130489750Y-85744000D01*
X130396000Y-85837750D01*
X130396000Y-87114000D01*
X130416000Y-87114000D01*
X130416000Y-87124000D01*
X130396000Y-87124000D01*
X130396000Y-88400250D01*
X130489750Y-88494000D01*
X131065592Y-88494000D01*
X131196327Y-88439848D01*
X131242246Y-88471223D01*
X131391000Y-88501346D01*
X132591000Y-88501346D01*
X132729966Y-88475198D01*
X132825654Y-88413625D01*
X132825654Y-88623323D01*
X132803421Y-88601090D01*
X132665592Y-88544000D01*
X132089750Y-88544000D01*
X131996000Y-88637750D01*
X131996000Y-89914000D01*
X132016000Y-89914000D01*
X132016000Y-89924000D01*
X131996000Y-89924000D01*
X131996000Y-89944000D01*
X131986000Y-89944000D01*
X131986000Y-89924000D01*
X131966000Y-89924000D01*
X131966000Y-89914000D01*
X131986000Y-89914000D01*
X131986000Y-88637750D01*
X131892250Y-88544000D01*
X131316408Y-88544000D01*
X131185673Y-88598152D01*
X131139754Y-88566777D01*
X130991000Y-88536654D01*
X129791000Y-88536654D01*
X129652034Y-88562802D01*
X129524401Y-88644931D01*
X129438777Y-88770246D01*
X129408654Y-88919000D01*
X129408654Y-89442400D01*
X129404346Y-89442400D01*
X129404346Y-89400000D01*
X129378198Y-89261034D01*
X129296069Y-89133401D01*
X129170754Y-89047777D01*
X129022000Y-89017654D01*
X127772000Y-89017654D01*
X127633034Y-89043802D01*
X127505401Y-89125931D01*
X127419777Y-89251246D01*
X127389654Y-89400000D01*
X127389654Y-90900000D01*
X127415802Y-91038966D01*
X127497931Y-91166599D01*
X127623246Y-91252223D01*
X127772000Y-91282346D01*
X129022000Y-91282346D01*
X129160966Y-91256198D01*
X129288599Y-91174069D01*
X129374223Y-91048754D01*
X129404346Y-90900000D01*
X129404346Y-90395600D01*
X129408654Y-90395600D01*
X129408654Y-90919000D01*
X129434802Y-91057966D01*
X129516931Y-91185599D01*
X129642246Y-91271223D01*
X129791000Y-91301346D01*
X130505332Y-91301346D01*
X130666436Y-91462450D01*
X130623000Y-91453654D01*
X130323000Y-91453654D01*
X130184034Y-91479802D01*
X130056401Y-91561931D01*
X129970777Y-91687246D01*
X129940654Y-91836000D01*
X129940654Y-91967114D01*
X129889000Y-91956654D01*
X128389000Y-91956654D01*
X128250034Y-91982802D01*
X128122401Y-92064931D01*
X128036777Y-92190246D01*
X128006654Y-92339000D01*
X128006654Y-93589000D01*
X128032802Y-93727966D01*
X128046400Y-93749098D01*
X128046400Y-94253654D01*
X127523000Y-94253654D01*
X127384034Y-94279802D01*
X127256401Y-94361931D01*
X127170777Y-94487246D01*
X127140654Y-94636000D01*
X127140654Y-94936000D01*
X127159175Y-95034430D01*
X127148000Y-95061408D01*
X127148000Y-95187250D01*
X127241750Y-95281000D01*
X127363675Y-95281000D01*
X127372646Y-95287130D01*
X127366632Y-95291000D01*
X127241750Y-95291000D01*
X127223350Y-95309400D01*
X125774749Y-95309400D01*
X125774918Y-95115373D01*
X125671642Y-94865427D01*
X125571600Y-94765210D01*
X125571600Y-93801931D01*
X125676580Y-93906910D01*
X125814408Y-93964000D01*
X126540250Y-93964000D01*
X126634000Y-93870250D01*
X126634000Y-92969000D01*
X126644000Y-92969000D01*
X126644000Y-93870250D01*
X126737750Y-93964000D01*
X127463592Y-93964000D01*
X127601420Y-93906910D01*
X127706910Y-93801421D01*
X127764000Y-93663592D01*
X127764000Y-93062750D01*
X127670250Y-92969000D01*
X126644000Y-92969000D01*
X126634000Y-92969000D01*
X126614000Y-92969000D01*
X126614000Y-92959000D01*
X126634000Y-92959000D01*
X126634000Y-92057750D01*
X126644000Y-92057750D01*
X126644000Y-92959000D01*
X127670250Y-92959000D01*
X127764000Y-92865250D01*
X127764000Y-92264408D01*
X127706910Y-92126579D01*
X127601420Y-92021090D01*
X127463592Y-91964000D01*
X126737750Y-91964000D01*
X126644000Y-92057750D01*
X126634000Y-92057750D01*
X126540250Y-91964000D01*
X125814408Y-91964000D01*
X125676580Y-92021090D01*
X125571600Y-92126069D01*
X125571600Y-87748750D01*
X127397000Y-87748750D01*
X127397000Y-88474592D01*
X127454090Y-88612420D01*
X127559579Y-88717910D01*
X127697408Y-88775000D01*
X128298250Y-88775000D01*
X128392000Y-88681250D01*
X128392000Y-87655000D01*
X128402000Y-87655000D01*
X128402000Y-88681250D01*
X128495750Y-88775000D01*
X129096592Y-88775000D01*
X129234421Y-88717910D01*
X129339910Y-88612420D01*
X129397000Y-88474592D01*
X129397000Y-87748750D01*
X129303250Y-87655000D01*
X128402000Y-87655000D01*
X128392000Y-87655000D01*
X127490750Y-87655000D01*
X127397000Y-87748750D01*
X125571600Y-87748750D01*
X125571600Y-86825408D01*
X127397000Y-86825408D01*
X127397000Y-87551250D01*
X127490750Y-87645000D01*
X128392000Y-87645000D01*
X128392000Y-86618750D01*
X128402000Y-86618750D01*
X128402000Y-87645000D01*
X129303250Y-87645000D01*
X129397000Y-87551250D01*
X129397000Y-87217750D01*
X129416000Y-87217750D01*
X129416000Y-88193592D01*
X129473090Y-88331420D01*
X129578579Y-88436910D01*
X129716408Y-88494000D01*
X130292250Y-88494000D01*
X130386000Y-88400250D01*
X130386000Y-87124000D01*
X129509750Y-87124000D01*
X129416000Y-87217750D01*
X129397000Y-87217750D01*
X129397000Y-86825408D01*
X129339910Y-86687580D01*
X129234421Y-86582090D01*
X129096592Y-86525000D01*
X128495750Y-86525000D01*
X128402000Y-86618750D01*
X128392000Y-86618750D01*
X128298250Y-86525000D01*
X127697408Y-86525000D01*
X127559579Y-86582090D01*
X127454090Y-86687580D01*
X127397000Y-86825408D01*
X125571600Y-86825408D01*
X125571600Y-86426686D01*
X125953878Y-86044408D01*
X129416000Y-86044408D01*
X129416000Y-87020250D01*
X129509750Y-87114000D01*
X130386000Y-87114000D01*
X130386000Y-85837750D01*
X130292250Y-85744000D01*
X129716408Y-85744000D01*
X129578579Y-85801090D01*
X129473090Y-85906580D01*
X129416000Y-86044408D01*
X125953878Y-86044408D01*
X127190536Y-84807750D01*
X128435000Y-84807750D01*
X128435000Y-85408592D01*
X128492090Y-85546421D01*
X128597580Y-85651910D01*
X128735408Y-85709000D01*
X129461250Y-85709000D01*
X129555000Y-85615250D01*
X129555000Y-84714000D01*
X129565000Y-84714000D01*
X129565000Y-85615250D01*
X129658750Y-85709000D01*
X130384592Y-85709000D01*
X130522420Y-85651910D01*
X130627910Y-85546421D01*
X130685000Y-85408592D01*
X130685000Y-84807750D01*
X130591250Y-84714000D01*
X129565000Y-84714000D01*
X129555000Y-84714000D01*
X128528750Y-84714000D01*
X128435000Y-84807750D01*
X127190536Y-84807750D01*
X127988878Y-84009408D01*
X128435000Y-84009408D01*
X128435000Y-84610250D01*
X128528750Y-84704000D01*
X129555000Y-84704000D01*
X129555000Y-83802750D01*
X129565000Y-83802750D01*
X129565000Y-84704000D01*
X130591250Y-84704000D01*
X130685000Y-84610250D01*
X130685000Y-84009408D01*
X130627910Y-83871579D01*
X130522420Y-83766090D01*
X130384592Y-83709000D01*
X129658750Y-83709000D01*
X129565000Y-83802750D01*
X129555000Y-83802750D01*
X129461250Y-83709000D01*
X128735408Y-83709000D01*
X128597580Y-83766090D01*
X128492090Y-83871579D01*
X128435000Y-84009408D01*
X127988878Y-84009408D01*
X129606686Y-82391600D01*
X133260301Y-82391600D01*
X133075462Y-82576117D01*
X132911687Y-82970531D01*
X132911314Y-83397596D01*
X133074400Y-83792294D01*
X133376117Y-84094538D01*
X133770531Y-84258313D01*
X134197596Y-84258686D01*
X134592294Y-84095600D01*
X134630624Y-84057337D01*
X134700931Y-84166599D01*
X134826246Y-84252223D01*
X134975000Y-84282346D01*
X136225000Y-84282346D01*
X136363966Y-84256198D01*
X136491599Y-84174069D01*
X136577223Y-84048754D01*
X136607346Y-83900000D01*
X136607346Y-83896186D01*
X138360885Y-83896186D01*
X138425703Y-84073424D01*
X138814351Y-84250445D01*
X139241159Y-84265263D01*
X139641148Y-84115620D01*
X139704297Y-84073424D01*
X139769115Y-83896186D01*
X139065000Y-83192071D01*
X138360885Y-83896186D01*
X136607346Y-83896186D01*
X136607346Y-83361159D01*
X137984737Y-83361159D01*
X138134380Y-83761148D01*
X138176576Y-83824297D01*
X138353814Y-83889115D01*
X139057929Y-83185000D01*
X139072071Y-83185000D01*
X139776186Y-83889115D01*
X139953424Y-83824297D01*
X140130445Y-83435649D01*
X140145263Y-83008841D01*
X139995620Y-82608852D01*
X139953424Y-82545703D01*
X139776186Y-82480885D01*
X139072071Y-83185000D01*
X139057929Y-83185000D01*
X138353814Y-82480885D01*
X138176576Y-82545703D01*
X137999555Y-82934351D01*
X137984737Y-83361159D01*
X136607346Y-83361159D01*
X136607346Y-82400000D01*
X136605765Y-82391600D01*
X138390952Y-82391600D01*
X138360885Y-82473814D01*
X139065000Y-83177929D01*
X139769115Y-82473814D01*
X139739048Y-82391600D01*
X144145000Y-82391600D01*
X144327387Y-82355321D01*
X144482007Y-82252007D01*
X145482671Y-81251343D01*
X145759481Y-81436302D01*
X145759481Y-81436302D01*
G37*
X145759481Y-81436302D02*
X146050747Y-81494239D01*
X137966874Y-89578112D01*
X137966918Y-89527373D01*
X137863642Y-89277427D01*
X137672579Y-89086030D01*
X137458826Y-88997272D01*
X137458918Y-88892373D01*
X137355642Y-88642427D01*
X137164579Y-88451030D01*
X136914814Y-88347318D01*
X136644373Y-88347082D01*
X136394427Y-88450358D01*
X136203030Y-88641421D01*
X136099318Y-88891186D01*
X136099194Y-89032792D01*
X134906909Y-90225077D01*
X134895600Y-90197706D01*
X134730578Y-90032396D01*
X134774599Y-90004069D01*
X134860223Y-89878754D01*
X134890346Y-89730000D01*
X134890346Y-88230000D01*
X134864198Y-88091034D01*
X134782069Y-87963401D01*
X134656754Y-87877777D01*
X134508000Y-87847654D01*
X133208000Y-87847654D01*
X133069034Y-87873802D01*
X132973346Y-87935375D01*
X132973346Y-87323530D01*
X133059246Y-87382223D01*
X133208000Y-87412346D01*
X134508000Y-87412346D01*
X134646966Y-87386198D01*
X134774599Y-87304069D01*
X134860223Y-87178754D01*
X134890346Y-87030000D01*
X134890346Y-86770832D01*
X134900408Y-86775000D01*
X135501250Y-86775000D01*
X135595000Y-86681250D01*
X135595000Y-85655000D01*
X135605000Y-85655000D01*
X135605000Y-86681250D01*
X135698750Y-86775000D01*
X136299592Y-86775000D01*
X136437421Y-86717910D01*
X136542910Y-86612420D01*
X136600000Y-86474592D01*
X136600000Y-85748750D01*
X136506250Y-85655000D01*
X135605000Y-85655000D01*
X135595000Y-85655000D01*
X135575000Y-85655000D01*
X135575000Y-85645000D01*
X135595000Y-85645000D01*
X135595000Y-84618750D01*
X135605000Y-84618750D01*
X135605000Y-85645000D01*
X136506250Y-85645000D01*
X136600000Y-85551250D01*
X136600000Y-84825408D01*
X136542910Y-84687580D01*
X136437421Y-84582090D01*
X136299592Y-84525000D01*
X135698750Y-84525000D01*
X135605000Y-84618750D01*
X135595000Y-84618750D01*
X135501250Y-84525000D01*
X134900408Y-84525000D01*
X134762579Y-84582090D01*
X134657090Y-84687580D01*
X134600000Y-84825408D01*
X134600000Y-85166284D01*
X134508000Y-85147654D01*
X133208000Y-85147654D01*
X133192346Y-85150599D01*
X133192346Y-84084000D01*
X133166198Y-83945034D01*
X133084069Y-83817401D01*
X132958754Y-83731777D01*
X132810000Y-83701654D01*
X131310000Y-83701654D01*
X131171034Y-83727802D01*
X131043401Y-83809931D01*
X130957777Y-83935246D01*
X130927654Y-84084000D01*
X130927654Y-85334000D01*
X130953802Y-85472966D01*
X131035931Y-85600599D01*
X131161246Y-85686223D01*
X131310000Y-85716346D01*
X131583400Y-85716346D01*
X131583400Y-85736654D01*
X131391000Y-85736654D01*
X131252034Y-85762802D01*
X131196797Y-85798346D01*
X131065592Y-85744000D01*
X130489750Y-85744000D01*
X130396000Y-85837750D01*
X130396000Y-87114000D01*
X130416000Y-87114000D01*
X130416000Y-87124000D01*
X130396000Y-87124000D01*
X130396000Y-88400250D01*
X130489750Y-88494000D01*
X131065592Y-88494000D01*
X131196327Y-88439848D01*
X131242246Y-88471223D01*
X131391000Y-88501346D01*
X132591000Y-88501346D01*
X132729966Y-88475198D01*
X132825654Y-88413625D01*
X132825654Y-88623323D01*
X132803421Y-88601090D01*
X132665592Y-88544000D01*
X132089750Y-88544000D01*
X131996000Y-88637750D01*
X131996000Y-89914000D01*
X132016000Y-89914000D01*
X132016000Y-89924000D01*
X131996000Y-89924000D01*
X131996000Y-89944000D01*
X131986000Y-89944000D01*
X131986000Y-89924000D01*
X131966000Y-89924000D01*
X131966000Y-89914000D01*
X131986000Y-89914000D01*
X131986000Y-88637750D01*
X131892250Y-88544000D01*
X131316408Y-88544000D01*
X131185673Y-88598152D01*
X131139754Y-88566777D01*
X130991000Y-88536654D01*
X129791000Y-88536654D01*
X129652034Y-88562802D01*
X129524401Y-88644931D01*
X129438777Y-88770246D01*
X129408654Y-88919000D01*
X129408654Y-89442400D01*
X129404346Y-89442400D01*
X129404346Y-89400000D01*
X129378198Y-89261034D01*
X129296069Y-89133401D01*
X129170754Y-89047777D01*
X129022000Y-89017654D01*
X127772000Y-89017654D01*
X127633034Y-89043802D01*
X127505401Y-89125931D01*
X127419777Y-89251246D01*
X127389654Y-89400000D01*
X127389654Y-90900000D01*
X127415802Y-91038966D01*
X127497931Y-91166599D01*
X127623246Y-91252223D01*
X127772000Y-91282346D01*
X129022000Y-91282346D01*
X129160966Y-91256198D01*
X129288599Y-91174069D01*
X129374223Y-91048754D01*
X129404346Y-90900000D01*
X129404346Y-90395600D01*
X129408654Y-90395600D01*
X129408654Y-90919000D01*
X129434802Y-91057966D01*
X129516931Y-91185599D01*
X129642246Y-91271223D01*
X129791000Y-91301346D01*
X130505332Y-91301346D01*
X130666436Y-91462450D01*
X130623000Y-91453654D01*
X130323000Y-91453654D01*
X130184034Y-91479802D01*
X130056401Y-91561931D01*
X129970777Y-91687246D01*
X129940654Y-91836000D01*
X129940654Y-91967114D01*
X129889000Y-91956654D01*
X128389000Y-91956654D01*
X128250034Y-91982802D01*
X128122401Y-92064931D01*
X128036777Y-92190246D01*
X128006654Y-92339000D01*
X128006654Y-93589000D01*
X128032802Y-93727966D01*
X128046400Y-93749098D01*
X128046400Y-94253654D01*
X127523000Y-94253654D01*
X127384034Y-94279802D01*
X127256401Y-94361931D01*
X127170777Y-94487246D01*
X127140654Y-94636000D01*
X127140654Y-94936000D01*
X127159175Y-95034430D01*
X127148000Y-95061408D01*
X127148000Y-95187250D01*
X127241750Y-95281000D01*
X127363675Y-95281000D01*
X127372646Y-95287130D01*
X127366632Y-95291000D01*
X127241750Y-95291000D01*
X127223350Y-95309400D01*
X125774749Y-95309400D01*
X125774918Y-95115373D01*
X125671642Y-94865427D01*
X125571600Y-94765210D01*
X125571600Y-93801931D01*
X125676580Y-93906910D01*
X125814408Y-93964000D01*
X126540250Y-93964000D01*
X126634000Y-93870250D01*
X126634000Y-92969000D01*
X126644000Y-92969000D01*
X126644000Y-93870250D01*
X126737750Y-93964000D01*
X127463592Y-93964000D01*
X127601420Y-93906910D01*
X127706910Y-93801421D01*
X127764000Y-93663592D01*
X127764000Y-93062750D01*
X127670250Y-92969000D01*
X126644000Y-92969000D01*
X126634000Y-92969000D01*
X126614000Y-92969000D01*
X126614000Y-92959000D01*
X126634000Y-92959000D01*
X126634000Y-92057750D01*
X126644000Y-92057750D01*
X126644000Y-92959000D01*
X127670250Y-92959000D01*
X127764000Y-92865250D01*
X127764000Y-92264408D01*
X127706910Y-92126579D01*
X127601420Y-92021090D01*
X127463592Y-91964000D01*
X126737750Y-91964000D01*
X126644000Y-92057750D01*
X126634000Y-92057750D01*
X126540250Y-91964000D01*
X125814408Y-91964000D01*
X125676580Y-92021090D01*
X125571600Y-92126069D01*
X125571600Y-87748750D01*
X127397000Y-87748750D01*
X127397000Y-88474592D01*
X127454090Y-88612420D01*
X127559579Y-88717910D01*
X127697408Y-88775000D01*
X128298250Y-88775000D01*
X128392000Y-88681250D01*
X128392000Y-87655000D01*
X128402000Y-87655000D01*
X128402000Y-88681250D01*
X128495750Y-88775000D01*
X129096592Y-88775000D01*
X129234421Y-88717910D01*
X129339910Y-88612420D01*
X129397000Y-88474592D01*
X129397000Y-87748750D01*
X129303250Y-87655000D01*
X128402000Y-87655000D01*
X128392000Y-87655000D01*
X127490750Y-87655000D01*
X127397000Y-87748750D01*
X125571600Y-87748750D01*
X125571600Y-86825408D01*
X127397000Y-86825408D01*
X127397000Y-87551250D01*
X127490750Y-87645000D01*
X128392000Y-87645000D01*
X128392000Y-86618750D01*
X128402000Y-86618750D01*
X128402000Y-87645000D01*
X129303250Y-87645000D01*
X129397000Y-87551250D01*
X129397000Y-87217750D01*
X129416000Y-87217750D01*
X129416000Y-88193592D01*
X129473090Y-88331420D01*
X129578579Y-88436910D01*
X129716408Y-88494000D01*
X130292250Y-88494000D01*
X130386000Y-88400250D01*
X130386000Y-87124000D01*
X129509750Y-87124000D01*
X129416000Y-87217750D01*
X129397000Y-87217750D01*
X129397000Y-86825408D01*
X129339910Y-86687580D01*
X129234421Y-86582090D01*
X129096592Y-86525000D01*
X128495750Y-86525000D01*
X128402000Y-86618750D01*
X128392000Y-86618750D01*
X128298250Y-86525000D01*
X127697408Y-86525000D01*
X127559579Y-86582090D01*
X127454090Y-86687580D01*
X127397000Y-86825408D01*
X125571600Y-86825408D01*
X125571600Y-86426686D01*
X125953878Y-86044408D01*
X129416000Y-86044408D01*
X129416000Y-87020250D01*
X129509750Y-87114000D01*
X130386000Y-87114000D01*
X130386000Y-85837750D01*
X130292250Y-85744000D01*
X129716408Y-85744000D01*
X129578579Y-85801090D01*
X129473090Y-85906580D01*
X129416000Y-86044408D01*
X125953878Y-86044408D01*
X127190536Y-84807750D01*
X128435000Y-84807750D01*
X128435000Y-85408592D01*
X128492090Y-85546421D01*
X128597580Y-85651910D01*
X128735408Y-85709000D01*
X129461250Y-85709000D01*
X129555000Y-85615250D01*
X129555000Y-84714000D01*
X129565000Y-84714000D01*
X129565000Y-85615250D01*
X129658750Y-85709000D01*
X130384592Y-85709000D01*
X130522420Y-85651910D01*
X130627910Y-85546421D01*
X130685000Y-85408592D01*
X130685000Y-84807750D01*
X130591250Y-84714000D01*
X129565000Y-84714000D01*
X129555000Y-84714000D01*
X128528750Y-84714000D01*
X128435000Y-84807750D01*
X127190536Y-84807750D01*
X127988878Y-84009408D01*
X128435000Y-84009408D01*
X128435000Y-84610250D01*
X128528750Y-84704000D01*
X129555000Y-84704000D01*
X129555000Y-83802750D01*
X129565000Y-83802750D01*
X129565000Y-84704000D01*
X130591250Y-84704000D01*
X130685000Y-84610250D01*
X130685000Y-84009408D01*
X130627910Y-83871579D01*
X130522420Y-83766090D01*
X130384592Y-83709000D01*
X129658750Y-83709000D01*
X129565000Y-83802750D01*
X129555000Y-83802750D01*
X129461250Y-83709000D01*
X128735408Y-83709000D01*
X128597580Y-83766090D01*
X128492090Y-83871579D01*
X128435000Y-84009408D01*
X127988878Y-84009408D01*
X129606686Y-82391600D01*
X133260301Y-82391600D01*
X133075462Y-82576117D01*
X132911687Y-82970531D01*
X132911314Y-83397596D01*
X133074400Y-83792294D01*
X133376117Y-84094538D01*
X133770531Y-84258313D01*
X134197596Y-84258686D01*
X134592294Y-84095600D01*
X134630624Y-84057337D01*
X134700931Y-84166599D01*
X134826246Y-84252223D01*
X134975000Y-84282346D01*
X136225000Y-84282346D01*
X136363966Y-84256198D01*
X136491599Y-84174069D01*
X136577223Y-84048754D01*
X136607346Y-83900000D01*
X136607346Y-83896186D01*
X138360885Y-83896186D01*
X138425703Y-84073424D01*
X138814351Y-84250445D01*
X139241159Y-84265263D01*
X139641148Y-84115620D01*
X139704297Y-84073424D01*
X139769115Y-83896186D01*
X139065000Y-83192071D01*
X138360885Y-83896186D01*
X136607346Y-83896186D01*
X136607346Y-83361159D01*
X137984737Y-83361159D01*
X138134380Y-83761148D01*
X138176576Y-83824297D01*
X138353814Y-83889115D01*
X139057929Y-83185000D01*
X139072071Y-83185000D01*
X139776186Y-83889115D01*
X139953424Y-83824297D01*
X140130445Y-83435649D01*
X140145263Y-83008841D01*
X139995620Y-82608852D01*
X139953424Y-82545703D01*
X139776186Y-82480885D01*
X139072071Y-83185000D01*
X139057929Y-83185000D01*
X138353814Y-82480885D01*
X138176576Y-82545703D01*
X137999555Y-82934351D01*
X137984737Y-83361159D01*
X136607346Y-83361159D01*
X136607346Y-82400000D01*
X136605765Y-82391600D01*
X138390952Y-82391600D01*
X138360885Y-82473814D01*
X139065000Y-83177929D01*
X139769115Y-82473814D01*
X139739048Y-82391600D01*
X144145000Y-82391600D01*
X144327387Y-82355321D01*
X144482007Y-82252007D01*
X145482671Y-81251343D01*
X145759481Y-81436302D01*
G36*
X140508900Y-91583000D02*
X140032750Y-91583000D01*
X139939000Y-91676750D01*
X139939000Y-92578000D01*
X139959000Y-92578000D01*
X139959000Y-92588000D01*
X139939000Y-92588000D01*
X139939000Y-93489250D01*
X140032750Y-93583000D01*
X140342986Y-93583000D01*
X139616586Y-94309400D01*
X139109255Y-94309400D01*
X139071754Y-94283777D01*
X138923000Y-94253654D01*
X137466869Y-94253654D01*
X137481970Y-94238579D01*
X137585682Y-93988814D01*
X137585918Y-93718373D01*
X137533018Y-93590346D01*
X138184000Y-93590346D01*
X138322966Y-93564198D01*
X138450599Y-93482069D01*
X138536223Y-93356754D01*
X138566346Y-93208000D01*
X138566346Y-92681750D01*
X138809000Y-92681750D01*
X138809000Y-93282592D01*
X138866090Y-93420421D01*
X138971580Y-93525910D01*
X139109408Y-93583000D01*
X139835250Y-93583000D01*
X139929000Y-93489250D01*
X139929000Y-92588000D01*
X138902750Y-92588000D01*
X138809000Y-92681750D01*
X138566346Y-92681750D01*
X138566346Y-91958000D01*
X138540198Y-91819034D01*
X138473330Y-91715117D01*
X138814351Y-91870445D01*
X138814369Y-91870446D01*
X138809000Y-91883408D01*
X138809000Y-92484250D01*
X138902750Y-92578000D01*
X139929000Y-92578000D01*
X139929000Y-91676750D01*
X139835250Y-91583000D01*
X139744680Y-91583000D01*
X139769115Y-91516186D01*
X139065000Y-90812071D01*
X138360885Y-91516186D01*
X138413935Y-91661246D01*
X138332754Y-91605777D01*
X138184000Y-91575654D01*
X137317360Y-91575654D01*
X137987358Y-90905656D01*
X137984737Y-90981159D01*
X138134380Y-91381148D01*
X138176576Y-91444297D01*
X138353814Y-91509115D01*
X139057929Y-90805000D01*
X139072071Y-90805000D01*
X139776186Y-91509115D01*
X139953424Y-91444297D01*
X140130445Y-91055649D01*
X140145263Y-90628841D01*
X139995620Y-90228852D01*
X139953424Y-90165703D01*
X139776186Y-90100885D01*
X139072071Y-90805000D01*
X139057929Y-90805000D01*
X139043787Y-90790858D01*
X139050858Y-90783787D01*
X139065000Y-90797929D01*
X139769115Y-90093814D01*
X139704297Y-89916576D01*
X139315649Y-89739555D01*
X139158901Y-89734113D01*
X140508900Y-88384114D01*
X140508900Y-91583000D01*
X140508900Y-91583000D01*
G37*
X140508900Y-91583000D02*
X140032750Y-91583000D01*
X139939000Y-91676750D01*
X139939000Y-92578000D01*
X139959000Y-92578000D01*
X139959000Y-92588000D01*
X139939000Y-92588000D01*
X139939000Y-93489250D01*
X140032750Y-93583000D01*
X140342986Y-93583000D01*
X139616586Y-94309400D01*
X139109255Y-94309400D01*
X139071754Y-94283777D01*
X138923000Y-94253654D01*
X137466869Y-94253654D01*
X137481970Y-94238579D01*
X137585682Y-93988814D01*
X137585918Y-93718373D01*
X137533018Y-93590346D01*
X138184000Y-93590346D01*
X138322966Y-93564198D01*
X138450599Y-93482069D01*
X138536223Y-93356754D01*
X138566346Y-93208000D01*
X138566346Y-92681750D01*
X138809000Y-92681750D01*
X138809000Y-93282592D01*
X138866090Y-93420421D01*
X138971580Y-93525910D01*
X139109408Y-93583000D01*
X139835250Y-93583000D01*
X139929000Y-93489250D01*
X139929000Y-92588000D01*
X138902750Y-92588000D01*
X138809000Y-92681750D01*
X138566346Y-92681750D01*
X138566346Y-91958000D01*
X138540198Y-91819034D01*
X138473330Y-91715117D01*
X138814351Y-91870445D01*
X138814369Y-91870446D01*
X138809000Y-91883408D01*
X138809000Y-92484250D01*
X138902750Y-92578000D01*
X139929000Y-92578000D01*
X139929000Y-91676750D01*
X139835250Y-91583000D01*
X139744680Y-91583000D01*
X139769115Y-91516186D01*
X139065000Y-90812071D01*
X138360885Y-91516186D01*
X138413935Y-91661246D01*
X138332754Y-91605777D01*
X138184000Y-91575654D01*
X137317360Y-91575654D01*
X137987358Y-90905656D01*
X137984737Y-90981159D01*
X138134380Y-91381148D01*
X138176576Y-91444297D01*
X138353814Y-91509115D01*
X139057929Y-90805000D01*
X139072071Y-90805000D01*
X139776186Y-91509115D01*
X139953424Y-91444297D01*
X140130445Y-91055649D01*
X140145263Y-90628841D01*
X139995620Y-90228852D01*
X139953424Y-90165703D01*
X139776186Y-90100885D01*
X139072071Y-90805000D01*
X139057929Y-90805000D01*
X139043787Y-90790858D01*
X139050858Y-90783787D01*
X139065000Y-90797929D01*
X139769115Y-90093814D01*
X139704297Y-89916576D01*
X139315649Y-89739555D01*
X139158901Y-89734113D01*
X140508900Y-88384114D01*
X140508900Y-91583000D01*
M02*
