G04 #@! TF.FileFunction,Paste,Bot*
%FSLAX46Y46*%
G04 Gerber Fmt 4.6, Leading zero omitted, Abs format (unit mm)*
G04 Created by KiCad (PCBNEW 4.0.5) date 07/26/17 23:18:41*
%MOMM*%
%LPD*%
G01*
G04 APERTURE LIST*
%ADD10C,0.100000*%
%ADD11R,0.300000X2.000000*%
%ADD12R,2.000000X0.300000*%
%ADD13R,1.500000X1.250000*%
%ADD14R,1.250000X1.500000*%
%ADD15R,1.500000X1.300000*%
%ADD16R,1.300000X1.500000*%
%ADD17R,2.200000X0.600000*%
%ADD18R,1.200000X2.000000*%
%ADD19R,0.600000X2.200000*%
%ADD20R,1.900000X0.800000*%
%ADD21R,0.800000X1.900000*%
%ADD22R,0.650000X1.500000*%
%ADD23R,2.000000X1.700000*%
G04 APERTURE END LIST*
D10*
D11*
X130473000Y-92836000D03*
D12*
X137923000Y-94786000D03*
D11*
X135973000Y-102236000D03*
D12*
X128523000Y-100286000D03*
D11*
X130973000Y-92836000D03*
X131473000Y-92836000D03*
X131973000Y-92836000D03*
X132473000Y-92836000D03*
X132973000Y-92836000D03*
X133473000Y-92836000D03*
X133973000Y-92836000D03*
X134473000Y-92836000D03*
X134973000Y-92836000D03*
X135473000Y-92836000D03*
X135973000Y-92836000D03*
D12*
X137923000Y-95286000D03*
X137923000Y-95786000D03*
X137923000Y-96286000D03*
X137923000Y-96786000D03*
X137923000Y-97286000D03*
X137923000Y-97786000D03*
X137923000Y-98286000D03*
X137923000Y-98786000D03*
X137923000Y-99286000D03*
X137923000Y-99786000D03*
X137923000Y-100286000D03*
D11*
X135473000Y-102236000D03*
X134973000Y-102236000D03*
X134473000Y-102236000D03*
X133973000Y-102236000D03*
X133473000Y-102236000D03*
X132973000Y-102236000D03*
X132473000Y-102236000D03*
X131973000Y-102236000D03*
X131473000Y-102236000D03*
X130973000Y-102236000D03*
X130473000Y-102236000D03*
D12*
X128523000Y-99786000D03*
X128523000Y-99286000D03*
X128523000Y-98786000D03*
X128523000Y-98286000D03*
X128523000Y-97786000D03*
X128523000Y-97286000D03*
X128523000Y-96786000D03*
X128523000Y-96286000D03*
X128523000Y-95786000D03*
X128523000Y-95286000D03*
X128523000Y-94786000D03*
D10*
G36*
X132983623Y-83437652D02*
X133411148Y-84612268D01*
X132001609Y-85125298D01*
X131574084Y-83950682D01*
X132983623Y-83437652D01*
X132983623Y-83437652D01*
G37*
G36*
X130634391Y-84292702D02*
X131061916Y-85467318D01*
X129652377Y-85980348D01*
X129224852Y-84805732D01*
X130634391Y-84292702D01*
X130634391Y-84292702D01*
G37*
D13*
X132227000Y-82296000D03*
X134727000Y-82296000D03*
D14*
X133604000Y-117963000D03*
X133604000Y-115463000D03*
D15*
X138604000Y-120142000D03*
X141304000Y-120142000D03*
D16*
X154051000Y-87931000D03*
X154051000Y-90631000D03*
X170307000Y-91233000D03*
X170307000Y-93933000D03*
D17*
X135684000Y-118618000D03*
X135684000Y-117348000D03*
X135684000Y-116078000D03*
X135684000Y-114808000D03*
X141684000Y-114808000D03*
X141684000Y-116078000D03*
X141684000Y-117348000D03*
X141684000Y-118618000D03*
D16*
X133858000Y-88535500D03*
X133858000Y-85835500D03*
D14*
X129286000Y-89515000D03*
X129286000Y-87015000D03*
D18*
X130772000Y-89665000D03*
X130772000Y-86865000D03*
X132372000Y-89665000D03*
X132372000Y-86865000D03*
D13*
X129139000Y-102235000D03*
X126639000Y-102235000D03*
X129139000Y-92964000D03*
X126639000Y-92964000D03*
X137434000Y-101981000D03*
X139934000Y-101981000D03*
X137434000Y-92710000D03*
X139934000Y-92710000D03*
X140188000Y-112522000D03*
X137688000Y-112522000D03*
D19*
X159385000Y-107871000D03*
X160655000Y-107871000D03*
X161925000Y-107871000D03*
X163195000Y-107871000D03*
X163195000Y-113871000D03*
X161925000Y-113871000D03*
X160655000Y-113871000D03*
X159385000Y-113871000D03*
D20*
X148868000Y-89977000D03*
X148868000Y-88077000D03*
X151868000Y-89027000D03*
D21*
X137729000Y-86590000D03*
X135829000Y-86590000D03*
X136779000Y-83590000D03*
D16*
X146939000Y-87804000D03*
X146939000Y-90504000D03*
X144780000Y-90598000D03*
X144780000Y-93298000D03*
D15*
X135683000Y-88519000D03*
X138383000Y-88519000D03*
D16*
X140081000Y-88472000D03*
X140081000Y-85772000D03*
D22*
X137734000Y-114474000D03*
X138684000Y-114474000D03*
X139634000Y-114474000D03*
X139634000Y-117174000D03*
X137734000Y-117174000D03*
D16*
X141605000Y-83232000D03*
X141605000Y-85932000D03*
D23*
X147796000Y-83947000D03*
X143796000Y-83947000D03*
D14*
X164592000Y-112288000D03*
X164592000Y-114788000D03*
D13*
X160040000Y-116332000D03*
X162540000Y-116332000D03*
D16*
X158877000Y-97456000D03*
X158877000Y-100156000D03*
M02*
