G04 #@! TF.FileFunction,Legend,Top*
%FSLAX46Y46*%
G04 Gerber Fmt 4.6, Leading zero omitted, Abs format (unit mm)*
G04 Created by KiCad (PCBNEW 4.0.5) date 03/20/17 17:49:22*
%MOMM*%
%LPD*%
G01*
G04 APERTURE LIST*
%ADD10C,0.100000*%
%ADD11C,0.300000*%
%ADD12C,0.150000*%
%ADD13C,0.120000*%
%ADD14C,0.127000*%
%ADD15C,0.203200*%
%ADD16C,0.200000*%
%ADD17C,0.381000*%
%ADD18C,1.397000*%
%ADD19O,1.500000X2.000000*%
%ADD20R,1.500000X2.000000*%
%ADD21O,2.000000X1.500000*%
%ADD22R,2.000000X1.500000*%
%ADD23R,2.000000X1.700000*%
%ADD24R,1.500000X1.250000*%
%ADD25R,1.250000X1.500000*%
%ADD26R,1.600000X2.000000*%
%ADD27R,1.300000X1.500000*%
%ADD28R,1.500000X1.300000*%
%ADD29R,2.000000X1.600000*%
%ADD30R,1.699260X2.800000*%
%ADD31R,0.850900X1.850900*%
%ADD32R,1.400000X2.200000*%
%ADD33R,5.200000X3.400000*%
%ADD34C,1.600000*%
%ADD35C,3.000000*%
%ADD36R,1.500000X0.650000*%
%ADD37O,1.501140X1.998980*%
%ADD38C,3.500120*%
%ADD39C,0.950000*%
%ADD40O,1.000000X2.200000*%
%ADD41O,2.200000X1.000000*%
%ADD42R,1.700000X1.700000*%
%ADD43O,1.700000X1.700000*%
%ADD44R,3.000000X3.000000*%
G04 APERTURE END LIST*
D10*
D11*
X122502859Y-134211143D02*
X122645716Y-134282571D01*
X122931431Y-134282571D01*
X123074288Y-134211143D01*
X123145716Y-134068286D01*
X123145716Y-133996857D01*
X123074288Y-133854000D01*
X122931431Y-133782571D01*
X122717145Y-133782571D01*
X122574288Y-133711143D01*
X122502859Y-133568286D01*
X122502859Y-133496857D01*
X122574288Y-133354000D01*
X122717145Y-133282571D01*
X122931431Y-133282571D01*
X123074288Y-133354000D01*
X124360002Y-134211143D02*
X124217145Y-134282571D01*
X123931431Y-134282571D01*
X123788574Y-134211143D01*
X123717145Y-134068286D01*
X123717145Y-133496857D01*
X123788574Y-133354000D01*
X123931431Y-133282571D01*
X124217145Y-133282571D01*
X124360002Y-133354000D01*
X124431431Y-133496857D01*
X124431431Y-133639714D01*
X123717145Y-133782571D01*
X125074288Y-133282571D02*
X125074288Y-134282571D01*
X125074288Y-133425429D02*
X125145716Y-133354000D01*
X125288574Y-133282571D01*
X125502859Y-133282571D01*
X125645716Y-133354000D01*
X125717145Y-133496857D01*
X125717145Y-134282571D01*
X126360002Y-134211143D02*
X126502859Y-134282571D01*
X126788574Y-134282571D01*
X126931431Y-134211143D01*
X127002859Y-134068286D01*
X127002859Y-133996857D01*
X126931431Y-133854000D01*
X126788574Y-133782571D01*
X126574288Y-133782571D01*
X126431431Y-133711143D01*
X126360002Y-133568286D01*
X126360002Y-133496857D01*
X126431431Y-133354000D01*
X126574288Y-133282571D01*
X126788574Y-133282571D01*
X126931431Y-133354000D01*
X128288574Y-134282571D02*
X128288574Y-133496857D01*
X128217145Y-133354000D01*
X128074288Y-133282571D01*
X127788574Y-133282571D01*
X127645717Y-133354000D01*
X128288574Y-134211143D02*
X128145717Y-134282571D01*
X127788574Y-134282571D01*
X127645717Y-134211143D01*
X127574288Y-134068286D01*
X127574288Y-133925429D01*
X127645717Y-133782571D01*
X127788574Y-133711143D01*
X128145717Y-133711143D01*
X128288574Y-133639714D01*
X129645717Y-134211143D02*
X129502860Y-134282571D01*
X129217146Y-134282571D01*
X129074288Y-134211143D01*
X129002860Y-134139714D01*
X128931431Y-133996857D01*
X128931431Y-133568286D01*
X129002860Y-133425429D01*
X129074288Y-133354000D01*
X129217146Y-133282571D01*
X129502860Y-133282571D01*
X129645717Y-133354000D01*
X130074288Y-133282571D02*
X130645717Y-133282571D01*
X130288574Y-132782571D02*
X130288574Y-134068286D01*
X130360002Y-134211143D01*
X130502860Y-134282571D01*
X130645717Y-134282571D01*
X131145717Y-132782571D02*
X131145717Y-133996857D01*
X131217145Y-134139714D01*
X131288574Y-134211143D01*
X131431431Y-134282571D01*
X131717145Y-134282571D01*
X131860003Y-134211143D01*
X131931431Y-134139714D01*
X132002860Y-133996857D01*
X132002860Y-132782571D01*
X132717146Y-134282571D02*
X132717146Y-132782571D01*
X133288574Y-132782571D01*
X133431432Y-132854000D01*
X133502860Y-132925429D01*
X133574289Y-133068286D01*
X133574289Y-133282571D01*
X133502860Y-133425429D01*
X133431432Y-133496857D01*
X133288574Y-133568286D01*
X132717146Y-133568286D01*
X135288574Y-132925429D02*
X135360003Y-132854000D01*
X135502860Y-132782571D01*
X135860003Y-132782571D01*
X136002860Y-132854000D01*
X136074289Y-132925429D01*
X136145717Y-133068286D01*
X136145717Y-133211143D01*
X136074289Y-133425429D01*
X135217146Y-134282571D01*
X136145717Y-134282571D01*
X137074288Y-132782571D02*
X137217145Y-132782571D01*
X137360002Y-132854000D01*
X137431431Y-132925429D01*
X137502860Y-133068286D01*
X137574288Y-133354000D01*
X137574288Y-133711143D01*
X137502860Y-133996857D01*
X137431431Y-134139714D01*
X137360002Y-134211143D01*
X137217145Y-134282571D01*
X137074288Y-134282571D01*
X136931431Y-134211143D01*
X136860002Y-134139714D01*
X136788574Y-133996857D01*
X136717145Y-133711143D01*
X136717145Y-133354000D01*
X136788574Y-133068286D01*
X136860002Y-132925429D01*
X136931431Y-132854000D01*
X137074288Y-132782571D01*
X139002859Y-134282571D02*
X138145716Y-134282571D01*
X138574288Y-134282571D02*
X138574288Y-132782571D01*
X138431431Y-132996857D01*
X138288573Y-133139714D01*
X138145716Y-133211143D01*
X139502859Y-132782571D02*
X140502859Y-132782571D01*
X139860002Y-134282571D01*
X141074287Y-133711143D02*
X142217144Y-133711143D01*
X143217144Y-132782571D02*
X143360001Y-132782571D01*
X143502858Y-132854000D01*
X143574287Y-132925429D01*
X143645716Y-133068286D01*
X143717144Y-133354000D01*
X143717144Y-133711143D01*
X143645716Y-133996857D01*
X143574287Y-134139714D01*
X143502858Y-134211143D01*
X143360001Y-134282571D01*
X143217144Y-134282571D01*
X143074287Y-134211143D01*
X143002858Y-134139714D01*
X142931430Y-133996857D01*
X142860001Y-133711143D01*
X142860001Y-133354000D01*
X142931430Y-133068286D01*
X143002858Y-132925429D01*
X143074287Y-132854000D01*
X143217144Y-132782571D01*
X144217144Y-132782571D02*
X145145715Y-132782571D01*
X144645715Y-133354000D01*
X144860001Y-133354000D01*
X145002858Y-133425429D01*
X145074287Y-133496857D01*
X145145715Y-133639714D01*
X145145715Y-133996857D01*
X145074287Y-134139714D01*
X145002858Y-134211143D01*
X144860001Y-134282571D01*
X144431429Y-134282571D01*
X144288572Y-134211143D01*
X144217144Y-134139714D01*
X145788572Y-133711143D02*
X146931429Y-133711143D01*
X147574286Y-132925429D02*
X147645715Y-132854000D01*
X147788572Y-132782571D01*
X148145715Y-132782571D01*
X148288572Y-132854000D01*
X148360001Y-132925429D01*
X148431429Y-133068286D01*
X148431429Y-133211143D01*
X148360001Y-133425429D01*
X147502858Y-134282571D01*
X148431429Y-134282571D01*
X149360000Y-132782571D02*
X149502857Y-132782571D01*
X149645714Y-132854000D01*
X149717143Y-132925429D01*
X149788572Y-133068286D01*
X149860000Y-133354000D01*
X149860000Y-133711143D01*
X149788572Y-133996857D01*
X149717143Y-134139714D01*
X149645714Y-134211143D01*
X149502857Y-134282571D01*
X149360000Y-134282571D01*
X149217143Y-134211143D01*
X149145714Y-134139714D01*
X149074286Y-133996857D01*
X149002857Y-133711143D01*
X149002857Y-133354000D01*
X149074286Y-133068286D01*
X149145714Y-132925429D01*
X149217143Y-132854000D01*
X149360000Y-132782571D01*
X152788571Y-134282571D02*
X152788571Y-133282571D01*
X152788571Y-133425429D02*
X152859999Y-133354000D01*
X153002857Y-133282571D01*
X153217142Y-133282571D01*
X153359999Y-133354000D01*
X153431428Y-133496857D01*
X153431428Y-134282571D01*
X153431428Y-133496857D02*
X153502857Y-133354000D01*
X153645714Y-133282571D01*
X153859999Y-133282571D01*
X154002857Y-133354000D01*
X154074285Y-133496857D01*
X154074285Y-134282571D01*
X155431428Y-134282571D02*
X155431428Y-133496857D01*
X155359999Y-133354000D01*
X155217142Y-133282571D01*
X154931428Y-133282571D01*
X154788571Y-133354000D01*
X155431428Y-134211143D02*
X155288571Y-134282571D01*
X154931428Y-134282571D01*
X154788571Y-134211143D01*
X154717142Y-134068286D01*
X154717142Y-133925429D01*
X154788571Y-133782571D01*
X154931428Y-133711143D01*
X155288571Y-133711143D01*
X155431428Y-133639714D01*
X156145714Y-134282571D02*
X156145714Y-133282571D01*
X156145714Y-132782571D02*
X156074285Y-132854000D01*
X156145714Y-132925429D01*
X156217142Y-132854000D01*
X156145714Y-132782571D01*
X156145714Y-132925429D01*
X157074286Y-134282571D02*
X156931428Y-134211143D01*
X156860000Y-134068286D01*
X156860000Y-132782571D01*
X158574285Y-133568286D02*
X158502857Y-133496857D01*
X158360000Y-133425429D01*
X158217142Y-133425429D01*
X158074285Y-133496857D01*
X158002857Y-133568286D01*
X157931428Y-133711143D01*
X157931428Y-133854000D01*
X158002857Y-133996857D01*
X158074285Y-134068286D01*
X158217142Y-134139714D01*
X158360000Y-134139714D01*
X158502857Y-134068286D01*
X158574285Y-133996857D01*
X158574285Y-133425429D02*
X158574285Y-133996857D01*
X158645714Y-134068286D01*
X158717142Y-134068286D01*
X158860000Y-133996857D01*
X158931428Y-133854000D01*
X158931428Y-133496857D01*
X158788571Y-133282571D01*
X158574285Y-133139714D01*
X158288571Y-133068286D01*
X158002857Y-133139714D01*
X157788571Y-133282571D01*
X157645714Y-133496857D01*
X157574285Y-133782571D01*
X157645714Y-134068286D01*
X157788571Y-134282571D01*
X158002857Y-134425429D01*
X158288571Y-134496857D01*
X158574285Y-134425429D01*
X158788571Y-134282571D01*
X159574285Y-134282571D02*
X159574285Y-132782571D01*
X159717142Y-133711143D02*
X160145713Y-134282571D01*
X160145713Y-133282571D02*
X159574285Y-133854000D01*
X161002857Y-134282571D02*
X160859999Y-134211143D01*
X160788571Y-134068286D01*
X160788571Y-132782571D01*
X162217142Y-134282571D02*
X162217142Y-133496857D01*
X162145713Y-133354000D01*
X162002856Y-133282571D01*
X161717142Y-133282571D01*
X161574285Y-133354000D01*
X162217142Y-134211143D02*
X162074285Y-134282571D01*
X161717142Y-134282571D01*
X161574285Y-134211143D01*
X161502856Y-134068286D01*
X161502856Y-133925429D01*
X161574285Y-133782571D01*
X161717142Y-133711143D01*
X162074285Y-133711143D01*
X162217142Y-133639714D01*
X163574285Y-133282571D02*
X163574285Y-134282571D01*
X162931428Y-133282571D02*
X162931428Y-134068286D01*
X163002856Y-134211143D01*
X163145714Y-134282571D01*
X163359999Y-134282571D01*
X163502856Y-134211143D01*
X163574285Y-134139714D01*
X164217142Y-134211143D02*
X164359999Y-134282571D01*
X164645714Y-134282571D01*
X164788571Y-134211143D01*
X164859999Y-134068286D01*
X164859999Y-133996857D01*
X164788571Y-133854000D01*
X164645714Y-133782571D01*
X164431428Y-133782571D01*
X164288571Y-133711143D01*
X164217142Y-133568286D01*
X164217142Y-133496857D01*
X164288571Y-133354000D01*
X164431428Y-133282571D01*
X164645714Y-133282571D01*
X164788571Y-133354000D01*
X165502857Y-133711143D02*
X166645714Y-133711143D01*
X167574286Y-134282571D02*
X167431428Y-134211143D01*
X167360000Y-134068286D01*
X167360000Y-132782571D01*
X168145714Y-134282571D02*
X168145714Y-133282571D01*
X168145714Y-132782571D02*
X168074285Y-132854000D01*
X168145714Y-132925429D01*
X168217142Y-132854000D01*
X168145714Y-132782571D01*
X168145714Y-132925429D01*
X169431428Y-134211143D02*
X169288571Y-134282571D01*
X169002857Y-134282571D01*
X168860000Y-134211143D01*
X168788571Y-134068286D01*
X168788571Y-133496857D01*
X168860000Y-133354000D01*
X169002857Y-133282571D01*
X169288571Y-133282571D01*
X169431428Y-133354000D01*
X169502857Y-133496857D01*
X169502857Y-133639714D01*
X168788571Y-133782571D01*
X170145714Y-134282571D02*
X170145714Y-132782571D01*
X170145714Y-133354000D02*
X170288571Y-133282571D01*
X170574285Y-133282571D01*
X170717142Y-133354000D01*
X170788571Y-133425429D01*
X170860000Y-133568286D01*
X170860000Y-133996857D01*
X170788571Y-134139714D01*
X170717142Y-134211143D01*
X170574285Y-134282571D01*
X170288571Y-134282571D01*
X170145714Y-134211143D01*
X171717143Y-134282571D02*
X171574285Y-134211143D01*
X171502857Y-134068286D01*
X171502857Y-132782571D01*
X172859999Y-134211143D02*
X172717142Y-134282571D01*
X172431428Y-134282571D01*
X172288571Y-134211143D01*
X172217142Y-134068286D01*
X172217142Y-133496857D01*
X172288571Y-133354000D01*
X172431428Y-133282571D01*
X172717142Y-133282571D01*
X172859999Y-133354000D01*
X172931428Y-133496857D01*
X172931428Y-133639714D01*
X172217142Y-133782571D01*
X173574285Y-134282571D02*
X173574285Y-133282571D01*
X173574285Y-133568286D02*
X173645713Y-133425429D01*
X173717142Y-133354000D01*
X173859999Y-133282571D01*
X174002856Y-133282571D01*
X174502856Y-134139714D02*
X174574284Y-134211143D01*
X174502856Y-134282571D01*
X174431427Y-134211143D01*
X174502856Y-134139714D01*
X174502856Y-134282571D01*
X175859999Y-134282571D02*
X175859999Y-132782571D01*
X175859999Y-134211143D02*
X175717142Y-134282571D01*
X175431428Y-134282571D01*
X175288570Y-134211143D01*
X175217142Y-134139714D01*
X175145713Y-133996857D01*
X175145713Y-133568286D01*
X175217142Y-133425429D01*
X175288570Y-133354000D01*
X175431428Y-133282571D01*
X175717142Y-133282571D01*
X175859999Y-133354000D01*
X177145713Y-134211143D02*
X177002856Y-134282571D01*
X176717142Y-134282571D01*
X176574285Y-134211143D01*
X176502856Y-134068286D01*
X176502856Y-133496857D01*
X176574285Y-133354000D01*
X176717142Y-133282571D01*
X177002856Y-133282571D01*
X177145713Y-133354000D01*
X177217142Y-133496857D01*
X177217142Y-133639714D01*
X176502856Y-133782571D01*
D12*
X139065000Y-86995000D02*
G75*
G03X139065000Y-86995000I-2540000J0D01*
G01*
X140335000Y-83185000D02*
X140335000Y-90805000D01*
X140335000Y-90805000D02*
X132715000Y-90805000D01*
X132715000Y-90805000D02*
X132715000Y-83185000D01*
X140335000Y-83185000D02*
X132715000Y-83185000D01*
D13*
X134223000Y-94034000D02*
X132223000Y-94034000D01*
X132223000Y-91894000D02*
X134223000Y-91894000D01*
X183000000Y-75650000D02*
X182000000Y-75650000D01*
X182000000Y-77350000D02*
X183000000Y-77350000D01*
X174350000Y-133000000D02*
X174350000Y-132000000D01*
X172650000Y-132000000D02*
X172650000Y-133000000D01*
X142879000Y-119618000D02*
X142879000Y-117618000D01*
X140839000Y-117618000D02*
X140839000Y-119618000D01*
X125650000Y-67000000D02*
X125650000Y-68000000D01*
X127350000Y-68000000D02*
X127350000Y-67000000D01*
X155155000Y-84701000D02*
X155155000Y-83701000D01*
X153455000Y-83701000D02*
X153455000Y-84701000D01*
X117000000Y-124350000D02*
X118000000Y-124350000D01*
X118000000Y-122650000D02*
X117000000Y-122650000D01*
X136152000Y-116039000D02*
X137152000Y-116039000D01*
X137152000Y-114339000D02*
X136152000Y-114339000D01*
X162251500Y-86769500D02*
X162251500Y-85569500D01*
X164011500Y-85569500D02*
X164011500Y-86769500D01*
X146816000Y-112760000D02*
X146816000Y-110760000D01*
X144776000Y-110760000D02*
X144776000Y-112760000D01*
X154848000Y-110245000D02*
X156048000Y-110245000D01*
X156048000Y-112005000D02*
X154848000Y-112005000D01*
X150530000Y-110245000D02*
X151730000Y-110245000D01*
X151730000Y-112005000D02*
X150530000Y-112005000D01*
X132343000Y-118202000D02*
X132343000Y-117002000D01*
X134103000Y-117002000D02*
X134103000Y-118202000D01*
X137252000Y-121657000D02*
X136052000Y-121657000D01*
X136052000Y-119897000D02*
X137252000Y-119897000D01*
X162691000Y-119999000D02*
X162691000Y-117999000D01*
X160651000Y-117999000D02*
X160651000Y-119999000D01*
X153559000Y-110113000D02*
X155559000Y-110113000D01*
X155559000Y-108073000D02*
X153559000Y-108073000D01*
X157441000Y-115562000D02*
X157441000Y-114562000D01*
X155741000Y-114562000D02*
X155741000Y-115562000D01*
X164156500Y-86769500D02*
X164156500Y-85569500D01*
X165916500Y-85569500D02*
X165916500Y-86769500D01*
D14*
X157477460Y-121099580D02*
X160276540Y-121099580D01*
X160276540Y-120997980D02*
X157477460Y-120997980D01*
X157477460Y-120898920D02*
X160276540Y-120898920D01*
X160276540Y-120799860D02*
X157477460Y-120799860D01*
X160276540Y-120698260D02*
X157477460Y-120698260D01*
X160276540Y-121198640D02*
X160276540Y-116799360D01*
X160276540Y-116799360D02*
X157477460Y-116799360D01*
X157477460Y-116799360D02*
X157477460Y-121198640D01*
X157477460Y-121198640D02*
X160276540Y-121198640D01*
X140627100Y-117591840D02*
X139026900Y-117591840D01*
X139026900Y-117490240D02*
X140627100Y-117490240D01*
X139026900Y-119890540D02*
X139026900Y-117091460D01*
X139026900Y-117091460D02*
X140627100Y-117091460D01*
X140627100Y-117091460D02*
X140627100Y-119890540D01*
X140627100Y-119890540D02*
X139026900Y-119890540D01*
X151005540Y-116644420D02*
X148206460Y-116644420D01*
X148206460Y-116746020D02*
X151005540Y-116746020D01*
X151005540Y-116845080D02*
X148206460Y-116845080D01*
X148206460Y-116944140D02*
X151005540Y-116944140D01*
X148206460Y-117045740D02*
X151005540Y-117045740D01*
X148206460Y-116545360D02*
X148206460Y-120944640D01*
X148206460Y-120944640D02*
X151005540Y-120944640D01*
X151005540Y-120944640D02*
X151005540Y-116545360D01*
X151005540Y-116545360D02*
X148206460Y-116545360D01*
D15*
X151637000Y-84979000D02*
X151187000Y-85729000D01*
X151187000Y-85729000D02*
X152087000Y-85729000D01*
X152087000Y-85729000D02*
X151637000Y-84979000D01*
X147487000Y-84979000D02*
X147487000Y-86979000D01*
X149487000Y-88479000D02*
X150487000Y-88479000D01*
X152487000Y-84979000D02*
X152487000Y-86979000D01*
X149487000Y-83479000D02*
X150487000Y-83479000D01*
D16*
X146987000Y-89829000D02*
X146987000Y-82129000D01*
X152987000Y-89829000D02*
X146987000Y-89829000D01*
X146987000Y-82129000D02*
X152987000Y-82129000D01*
X152987000Y-82129000D02*
X152987000Y-89829000D01*
D15*
X121459619Y-127126167D02*
X121671751Y-127974695D01*
X121671751Y-127974695D02*
X122308148Y-127338299D01*
X122308148Y-127338299D02*
X121459619Y-127126167D01*
X118525126Y-130060660D02*
X119939340Y-131474874D01*
X122414214Y-131121320D02*
X123121320Y-130414214D01*
X122060660Y-126525126D02*
X123474874Y-127939340D01*
X118878680Y-127585786D02*
X119585786Y-126878680D01*
D16*
X121601041Y-133843681D02*
X116156319Y-128398959D01*
X125843681Y-129601041D02*
X121601041Y-133843681D01*
X116156319Y-128398959D02*
X120398959Y-124156319D01*
X120398959Y-124156319D02*
X125843681Y-129601041D01*
D15*
X122873833Y-71459619D02*
X122025305Y-71671751D01*
X122025305Y-71671751D02*
X122661701Y-72308148D01*
X122661701Y-72308148D02*
X122873833Y-71459619D01*
X119939340Y-68525126D02*
X118525126Y-69939340D01*
X118878680Y-72414214D02*
X119585786Y-73121320D01*
X123474874Y-72060660D02*
X122060660Y-73474874D01*
X122414214Y-68878680D02*
X123121320Y-69585786D01*
D16*
X116156319Y-71601041D02*
X121601041Y-66156319D01*
X120398959Y-75843681D02*
X116156319Y-71601041D01*
X121601041Y-66156319D02*
X125843681Y-70398959D01*
X125843681Y-70398959D02*
X120398959Y-75843681D01*
D15*
X178540381Y-72873833D02*
X178328249Y-72025305D01*
X178328249Y-72025305D02*
X177691852Y-72661701D01*
X177691852Y-72661701D02*
X178540381Y-72873833D01*
X181474874Y-69939340D02*
X180060660Y-68525126D01*
X177585786Y-68878680D02*
X176878680Y-69585786D01*
X177939340Y-73474874D02*
X176525126Y-72060660D01*
X181121320Y-72414214D02*
X180414214Y-73121320D01*
D16*
X178398959Y-66156319D02*
X183843681Y-71601041D01*
X174156319Y-70398959D02*
X178398959Y-66156319D01*
X183843681Y-71601041D02*
X179601041Y-75843681D01*
X179601041Y-75843681D02*
X174156319Y-70398959D01*
D15*
X177126167Y-128540381D02*
X177974695Y-128328249D01*
X177974695Y-128328249D02*
X177338299Y-127691852D01*
X177338299Y-127691852D02*
X177126167Y-128540381D01*
X180060660Y-131474874D02*
X181474874Y-130060660D01*
X181121320Y-127585786D02*
X180414214Y-126878680D01*
X176525126Y-127939340D02*
X177939340Y-126525126D01*
X177585786Y-131121320D02*
X176878680Y-130414214D01*
D16*
X183843681Y-128398959D02*
X178398959Y-133843681D01*
X179601041Y-124156319D02*
X183843681Y-128398959D01*
X178398959Y-133843681D02*
X174156319Y-129601041D01*
X174156319Y-129601041D02*
X179601041Y-124156319D01*
D10*
X144305000Y-111298000D02*
X144305000Y-110698000D01*
X138905000Y-111298000D02*
X138905000Y-110698000D01*
X163355000Y-111679000D02*
X163355000Y-111079000D01*
X157955000Y-111679000D02*
X157955000Y-111079000D01*
D12*
X155021000Y-117299000D02*
G75*
G03X155021000Y-117299000I-100000J0D01*
G01*
X155571000Y-117549000D02*
X155071000Y-117549000D01*
X155571000Y-120449000D02*
X155571000Y-117549000D01*
X155071000Y-120449000D02*
X155571000Y-120449000D01*
X155071000Y-117549000D02*
X155071000Y-120449000D01*
X136352000Y-116283000D02*
G75*
G03X136352000Y-116283000I-100000J0D01*
G01*
X136902000Y-116533000D02*
X136402000Y-116533000D01*
X136902000Y-119433000D02*
X136902000Y-116533000D01*
X136402000Y-119433000D02*
X136902000Y-119433000D01*
X136402000Y-116533000D02*
X136402000Y-119433000D01*
D17*
X146301760Y-94899680D02*
G75*
G03X146301760Y-94899680I-401320J0D01*
G01*
X154500880Y-94899680D02*
G75*
G03X154500880Y-94899680I-401320J0D01*
G01*
X146299220Y-105100320D02*
G75*
G03X146299220Y-105100320I-398780J0D01*
G01*
X154500880Y-105100320D02*
G75*
G03X154500880Y-105100320I-401320J0D01*
G01*
X152600960Y-101501140D02*
X147399040Y-101501140D01*
X152999740Y-100000000D02*
G75*
G03X152999740Y-100000000I-2999740J0D01*
G01*
X153401060Y-100000000D02*
G75*
G03X153401060Y-100000000I-3401060J0D01*
G01*
X156200140Y-93401080D02*
X143799860Y-93401080D01*
X143799860Y-93401080D02*
X143799860Y-106598920D01*
X143799860Y-106598920D02*
X156200140Y-106598920D01*
X156200140Y-106598920D02*
X156200140Y-93401080D01*
D13*
X138395000Y-80763000D02*
X137195000Y-80763000D01*
X137195000Y-79003000D02*
X138395000Y-79003000D01*
X138395000Y-78858000D02*
X137195000Y-78858000D01*
X137195000Y-77098000D02*
X138395000Y-77098000D01*
X136636000Y-96643000D02*
X134636000Y-96643000D01*
X134636000Y-98683000D02*
X136636000Y-98683000D01*
X139184000Y-91733000D02*
X138184000Y-91733000D01*
X138184000Y-93433000D02*
X139184000Y-93433000D01*
D12*
X138306000Y-113728000D02*
X138306000Y-110878000D01*
X138306000Y-105728000D02*
X138306000Y-108578000D01*
X135956000Y-113728000D02*
X135956000Y-105728000D01*
D13*
X132274000Y-114046000D02*
X132274000Y-114106000D01*
X132274000Y-114106000D02*
X134934000Y-114106000D01*
X134934000Y-114106000D02*
X134934000Y-114046000D01*
X134934000Y-114046000D02*
X132274000Y-114046000D01*
X132274000Y-112776000D02*
X132274000Y-111446000D01*
X132274000Y-111446000D02*
X133604000Y-111446000D01*
D12*
X141295619Y-87447381D02*
X140962285Y-86971190D01*
X140724190Y-87447381D02*
X140724190Y-86447381D01*
X141105143Y-86447381D01*
X141200381Y-86495000D01*
X141248000Y-86542619D01*
X141295619Y-86637857D01*
X141295619Y-86780714D01*
X141248000Y-86875952D01*
X141200381Y-86923571D01*
X141105143Y-86971190D01*
X140724190Y-86971190D01*
X141724190Y-86923571D02*
X142057524Y-86923571D01*
X142200381Y-87447381D02*
X141724190Y-87447381D01*
X141724190Y-86447381D01*
X142200381Y-86447381D01*
X142581333Y-87399762D02*
X142724190Y-87447381D01*
X142962286Y-87447381D01*
X143057524Y-87399762D01*
X143105143Y-87352143D01*
X143152762Y-87256905D01*
X143152762Y-87161667D01*
X143105143Y-87066429D01*
X143057524Y-87018810D01*
X142962286Y-86971190D01*
X142771809Y-86923571D01*
X142676571Y-86875952D01*
X142628952Y-86828333D01*
X142581333Y-86733095D01*
X142581333Y-86637857D01*
X142628952Y-86542619D01*
X142676571Y-86495000D01*
X142771809Y-86447381D01*
X143009905Y-86447381D01*
X143152762Y-86495000D01*
X143581333Y-86923571D02*
X143914667Y-86923571D01*
X144057524Y-87447381D02*
X143581333Y-87447381D01*
X143581333Y-86447381D01*
X144057524Y-86447381D01*
X144343238Y-86447381D02*
X144914667Y-86447381D01*
X144628952Y-87447381D02*
X144628952Y-86447381D01*
X131389667Y-94792571D02*
X131056333Y-94792571D01*
X131056333Y-95316381D02*
X131056333Y-94316381D01*
X131532524Y-94316381D01*
X131913476Y-95316381D02*
X131913476Y-94316381D01*
X132865857Y-95316381D02*
X132389666Y-95316381D01*
X132389666Y-94316381D01*
X133056333Y-94316381D02*
X133627762Y-94316381D01*
X133342047Y-95316381D02*
X133342047Y-94316381D01*
X133961095Y-94792571D02*
X134294429Y-94792571D01*
X134437286Y-95316381D02*
X133961095Y-95316381D01*
X133961095Y-94316381D01*
X134437286Y-94316381D01*
X135437286Y-95316381D02*
X135103952Y-94840190D01*
X134865857Y-95316381D02*
X134865857Y-94316381D01*
X135246810Y-94316381D01*
X135342048Y-94364000D01*
X135389667Y-94411619D01*
X135437286Y-94506857D01*
X135437286Y-94649714D01*
X135389667Y-94744952D01*
X135342048Y-94792571D01*
X135246810Y-94840190D01*
X134865857Y-94840190D01*
X182238096Y-78035714D02*
X182238096Y-78702381D01*
X181809524Y-78035714D02*
X181809524Y-78559524D01*
X181857143Y-78654762D01*
X181952381Y-78702381D01*
X182095239Y-78702381D01*
X182190477Y-78654762D01*
X182238096Y-78607143D01*
X183238096Y-78702381D02*
X182666667Y-78702381D01*
X182952381Y-78702381D02*
X182952381Y-77702381D01*
X182857143Y-77845238D01*
X182761905Y-77940476D01*
X182666667Y-77988095D01*
X171535714Y-132761904D02*
X172202381Y-132761904D01*
X171535714Y-133190476D02*
X172059524Y-133190476D01*
X172154762Y-133142857D01*
X172202381Y-133047619D01*
X172202381Y-132904761D01*
X172154762Y-132809523D01*
X172107143Y-132761904D01*
X172202381Y-131761904D02*
X172202381Y-132333333D01*
X172202381Y-132047619D02*
X171202381Y-132047619D01*
X171345238Y-132142857D01*
X171440476Y-132238095D01*
X171488095Y-132333333D01*
X141644714Y-124055095D02*
X142311381Y-124055095D01*
X141263762Y-124293191D02*
X141978048Y-124531286D01*
X141978048Y-123912238D01*
X141644714Y-123102714D02*
X142311381Y-123102714D01*
X141644714Y-123531286D02*
X142168524Y-123531286D01*
X142263762Y-123483667D01*
X142311381Y-123388429D01*
X142311381Y-123245571D01*
X142263762Y-123150333D01*
X142216143Y-123102714D01*
X141311381Y-122721762D02*
X141311381Y-122055095D01*
X142311381Y-122483667D01*
X128035714Y-67761904D02*
X128702381Y-67761904D01*
X128035714Y-68190476D02*
X128559524Y-68190476D01*
X128654762Y-68142857D01*
X128702381Y-68047619D01*
X128702381Y-67904761D01*
X128654762Y-67809523D01*
X128607143Y-67761904D01*
X128702381Y-66761904D02*
X128702381Y-67333333D01*
X128702381Y-67047619D02*
X127702381Y-67047619D01*
X127845238Y-67142857D01*
X127940476Y-67238095D01*
X127988095Y-67333333D01*
X155741714Y-84462904D02*
X156408381Y-84462904D01*
X155741714Y-84891476D02*
X156265524Y-84891476D01*
X156360762Y-84843857D01*
X156408381Y-84748619D01*
X156408381Y-84605761D01*
X156360762Y-84510523D01*
X156313143Y-84462904D01*
X156408381Y-83462904D02*
X156408381Y-84034333D01*
X156408381Y-83748619D02*
X155408381Y-83748619D01*
X155551238Y-83843857D01*
X155646476Y-83939095D01*
X155694095Y-84034333D01*
X117238096Y-121535714D02*
X117238096Y-122202381D01*
X116809524Y-121535714D02*
X116809524Y-122059524D01*
X116857143Y-122154762D01*
X116952381Y-122202381D01*
X117095239Y-122202381D01*
X117190477Y-122154762D01*
X117238096Y-122107143D01*
X118238096Y-122202381D02*
X117666667Y-122202381D01*
X117952381Y-122202381D02*
X117952381Y-121202381D01*
X117857143Y-121345238D01*
X117761905Y-121440476D01*
X117666667Y-121488095D01*
X133278596Y-114466714D02*
X133278596Y-115133381D01*
X132850024Y-114466714D02*
X132850024Y-114990524D01*
X132897643Y-115085762D01*
X132992881Y-115133381D01*
X133135739Y-115133381D01*
X133230977Y-115085762D01*
X133278596Y-115038143D01*
X134278596Y-115133381D02*
X133707167Y-115133381D01*
X133992881Y-115133381D02*
X133992881Y-114133381D01*
X133897643Y-114276238D01*
X133802405Y-114371476D01*
X133707167Y-114419095D01*
X161167214Y-86859976D02*
X161833881Y-86859976D01*
X160786262Y-87098072D02*
X161500548Y-87336167D01*
X161500548Y-86717119D01*
X161833881Y-86336167D02*
X160833881Y-86336167D01*
X161452929Y-86240929D02*
X161833881Y-85955214D01*
X161167214Y-85955214D02*
X161548167Y-86336167D01*
X160833881Y-85621881D02*
X160833881Y-84955214D01*
X161833881Y-85383786D01*
X148153381Y-112664762D02*
X147486714Y-112664762D01*
X147581952Y-112664762D02*
X147534333Y-112617143D01*
X147486714Y-112521905D01*
X147486714Y-112379047D01*
X147534333Y-112283809D01*
X147629571Y-112236190D01*
X148153381Y-112236190D01*
X147629571Y-112236190D02*
X147534333Y-112188571D01*
X147486714Y-112093333D01*
X147486714Y-111950476D01*
X147534333Y-111855238D01*
X147629571Y-111807619D01*
X148153381Y-111807619D01*
X148153381Y-110807619D02*
X148153381Y-111379048D01*
X148153381Y-111093334D02*
X147153381Y-111093334D01*
X147296238Y-111188572D01*
X147391476Y-111283810D01*
X147439095Y-111379048D01*
X152884333Y-112323619D02*
X152931952Y-112276000D01*
X153027190Y-112228381D01*
X153265286Y-112228381D01*
X153360524Y-112276000D01*
X153408143Y-112323619D01*
X153455762Y-112418857D01*
X153455762Y-112514095D01*
X153408143Y-112656952D01*
X152836714Y-113228381D01*
X153455762Y-113228381D01*
X153836714Y-112323619D02*
X153884333Y-112276000D01*
X153979571Y-112228381D01*
X154217667Y-112228381D01*
X154312905Y-112276000D01*
X154360524Y-112323619D01*
X154408143Y-112418857D01*
X154408143Y-112514095D01*
X154360524Y-112656952D01*
X153789095Y-113228381D01*
X154408143Y-113228381D01*
X154836714Y-113228381D02*
X154836714Y-112228381D01*
X154931952Y-112847429D02*
X155217667Y-113228381D01*
X155217667Y-112561714D02*
X154836714Y-112942667D01*
X149296524Y-109132714D02*
X149296524Y-109799381D01*
X149058428Y-108751762D02*
X148820333Y-109466048D01*
X149439381Y-109466048D01*
X149820333Y-109799381D02*
X149820333Y-108799381D01*
X149915571Y-109418429D02*
X150201286Y-109799381D01*
X150201286Y-109132714D02*
X149820333Y-109513667D01*
X150534619Y-108799381D02*
X151201286Y-108799381D01*
X150772714Y-109799381D01*
X130925381Y-118816286D02*
X130925381Y-118197238D01*
X131306333Y-118530572D01*
X131306333Y-118387714D01*
X131353952Y-118292476D01*
X131401571Y-118244857D01*
X131496810Y-118197238D01*
X131734905Y-118197238D01*
X131830143Y-118244857D01*
X131877762Y-118292476D01*
X131925381Y-118387714D01*
X131925381Y-118673429D01*
X131877762Y-118768667D01*
X131830143Y-118816286D01*
X131925381Y-117768667D02*
X130925381Y-117768667D01*
X131544429Y-117673429D02*
X131925381Y-117387714D01*
X131258714Y-117387714D02*
X131639667Y-117768667D01*
X130925381Y-117054381D02*
X130925381Y-116435333D01*
X131306333Y-116768667D01*
X131306333Y-116625809D01*
X131353952Y-116530571D01*
X131401571Y-116482952D01*
X131496810Y-116435333D01*
X131734905Y-116435333D01*
X131830143Y-116482952D01*
X131877762Y-116530571D01*
X131925381Y-116625809D01*
X131925381Y-116911524D01*
X131877762Y-117006762D01*
X131830143Y-117054381D01*
X136532953Y-122979381D02*
X135961524Y-122979381D01*
X136247238Y-122979381D02*
X136247238Y-121979381D01*
X136152000Y-122122238D01*
X136056762Y-122217476D01*
X135961524Y-122265095D01*
X136961524Y-122979381D02*
X136961524Y-121979381D01*
X137056762Y-122598429D02*
X137342477Y-122979381D01*
X137342477Y-122312714D02*
X136961524Y-122693667D01*
X163234714Y-119800595D02*
X163901381Y-119800595D01*
X162853762Y-120038691D02*
X163568048Y-120276786D01*
X163568048Y-119657738D01*
X163234714Y-118848214D02*
X163901381Y-118848214D01*
X163234714Y-119276786D02*
X163758524Y-119276786D01*
X163853762Y-119229167D01*
X163901381Y-119133929D01*
X163901381Y-118991071D01*
X163853762Y-118895833D01*
X163806143Y-118848214D01*
X162901381Y-118467262D02*
X162901381Y-117800595D01*
X163901381Y-118229167D01*
X153654238Y-107545381D02*
X153654238Y-106878714D01*
X153654238Y-106973952D02*
X153701857Y-106926333D01*
X153797095Y-106878714D01*
X153939953Y-106878714D01*
X154035191Y-106926333D01*
X154082810Y-107021571D01*
X154082810Y-107545381D01*
X154082810Y-107021571D02*
X154130429Y-106926333D01*
X154225667Y-106878714D01*
X154368524Y-106878714D01*
X154463762Y-106926333D01*
X154511381Y-107021571D01*
X154511381Y-107545381D01*
X155511381Y-107545381D02*
X154939952Y-107545381D01*
X155225666Y-107545381D02*
X155225666Y-106545381D01*
X155130428Y-106688238D01*
X155035190Y-106783476D01*
X154939952Y-106831095D01*
X154626714Y-115323904D02*
X155293381Y-115323904D01*
X154626714Y-115752476D02*
X155150524Y-115752476D01*
X155245762Y-115704857D01*
X155293381Y-115609619D01*
X155293381Y-115466761D01*
X155245762Y-115371523D01*
X155198143Y-115323904D01*
X155293381Y-114323904D02*
X155293381Y-114895333D01*
X155293381Y-114609619D02*
X154293381Y-114609619D01*
X154436238Y-114704857D01*
X154531476Y-114800095D01*
X154579095Y-114895333D01*
X166621214Y-86864976D02*
X167287881Y-86864976D01*
X166240262Y-87103072D02*
X166954548Y-87341167D01*
X166954548Y-86722119D01*
X167287881Y-86341167D02*
X166287881Y-86341167D01*
X166906929Y-86245929D02*
X167287881Y-85960214D01*
X166621214Y-85960214D02*
X167002167Y-86341167D01*
X166287881Y-85626881D02*
X166287881Y-84960214D01*
X167287881Y-85388786D01*
X138557381Y-111164666D02*
X138557381Y-111640857D01*
X137557381Y-111640857D01*
X138557381Y-110307523D02*
X138557381Y-110878952D01*
X138557381Y-110593238D02*
X137557381Y-110593238D01*
X137700238Y-110688476D01*
X137795476Y-110783714D01*
X137843095Y-110878952D01*
X139723953Y-106306881D02*
X139152524Y-106306881D01*
X139438238Y-106306881D02*
X139438238Y-105306881D01*
X139343000Y-105449738D01*
X139247762Y-105544976D01*
X139152524Y-105592595D01*
X140628715Y-105306881D02*
X140152524Y-105306881D01*
X140104905Y-105783071D01*
X140152524Y-105735452D01*
X140247762Y-105687833D01*
X140485858Y-105687833D01*
X140581096Y-105735452D01*
X140628715Y-105783071D01*
X140676334Y-105878310D01*
X140676334Y-106116405D01*
X140628715Y-106211643D01*
X140581096Y-106259262D01*
X140485858Y-106306881D01*
X140247762Y-106306881D01*
X140152524Y-106259262D01*
X140104905Y-106211643D01*
X141295381Y-105306881D02*
X141390620Y-105306881D01*
X141485858Y-105354500D01*
X141533477Y-105402119D01*
X141581096Y-105497357D01*
X141628715Y-105687833D01*
X141628715Y-105925929D01*
X141581096Y-106116405D01*
X141533477Y-106211643D01*
X141485858Y-106259262D01*
X141390620Y-106306881D01*
X141295381Y-106306881D01*
X141200143Y-106259262D01*
X141152524Y-106211643D01*
X141104905Y-106116405D01*
X141057286Y-105925929D01*
X141057286Y-105687833D01*
X141104905Y-105497357D01*
X141152524Y-105402119D01*
X141200143Y-105354500D01*
X141295381Y-105306881D01*
X142485858Y-105640214D02*
X142485858Y-106306881D01*
X142057286Y-105640214D02*
X142057286Y-106164024D01*
X142104905Y-106259262D01*
X142200143Y-106306881D01*
X142343001Y-106306881D01*
X142438239Y-106259262D01*
X142485858Y-106211643D01*
X156307381Y-112498047D02*
X156307381Y-113069476D01*
X156307381Y-112783762D02*
X155307381Y-112783762D01*
X155450238Y-112879000D01*
X155545476Y-112974238D01*
X155593095Y-113069476D01*
X155307381Y-111879000D02*
X155307381Y-111783761D01*
X155355000Y-111688523D01*
X155402619Y-111640904D01*
X155497857Y-111593285D01*
X155688333Y-111545666D01*
X155926429Y-111545666D01*
X156116905Y-111593285D01*
X156212143Y-111640904D01*
X156259762Y-111688523D01*
X156307381Y-111783761D01*
X156307381Y-111879000D01*
X156259762Y-111974238D01*
X156212143Y-112021857D01*
X156116905Y-112069476D01*
X155926429Y-112117095D01*
X155688333Y-112117095D01*
X155497857Y-112069476D01*
X155402619Y-112021857D01*
X155355000Y-111974238D01*
X155307381Y-111879000D01*
X155307381Y-110926619D02*
X155307381Y-110831380D01*
X155355000Y-110736142D01*
X155402619Y-110688523D01*
X155497857Y-110640904D01*
X155688333Y-110593285D01*
X155926429Y-110593285D01*
X156116905Y-110640904D01*
X156212143Y-110688523D01*
X156259762Y-110736142D01*
X156307381Y-110831380D01*
X156307381Y-110926619D01*
X156259762Y-111021857D01*
X156212143Y-111069476D01*
X156116905Y-111117095D01*
X155926429Y-111164714D01*
X155688333Y-111164714D01*
X155497857Y-111117095D01*
X155402619Y-111069476D01*
X155355000Y-111021857D01*
X155307381Y-110926619D01*
X155640714Y-109736142D02*
X156307381Y-109736142D01*
X155640714Y-110164714D02*
X156164524Y-110164714D01*
X156259762Y-110117095D01*
X156307381Y-110021857D01*
X156307381Y-109878999D01*
X156259762Y-109783761D01*
X156212143Y-109736142D01*
X134373953Y-80335381D02*
X133802524Y-80335381D01*
X134088238Y-80335381D02*
X134088238Y-79335381D01*
X133993000Y-79478238D01*
X133897762Y-79573476D01*
X133802524Y-79621095D01*
X134802524Y-80335381D02*
X134802524Y-79335381D01*
X134897762Y-79954429D02*
X135183477Y-80335381D01*
X135183477Y-79668714D02*
X134802524Y-80049667D01*
X134373953Y-78430381D02*
X133802524Y-78430381D01*
X134088238Y-78430381D02*
X134088238Y-77430381D01*
X133993000Y-77573238D01*
X133897762Y-77668476D01*
X133802524Y-77716095D01*
X134802524Y-78430381D02*
X134802524Y-77430381D01*
X134897762Y-78049429D02*
X135183477Y-78430381D01*
X135183477Y-77763714D02*
X134802524Y-78144667D01*
X134897905Y-99448714D02*
X134897905Y-100115381D01*
X134659809Y-99067762D02*
X134421714Y-99782048D01*
X135040762Y-99782048D01*
X135850286Y-99448714D02*
X135850286Y-100115381D01*
X135421714Y-99448714D02*
X135421714Y-99972524D01*
X135469333Y-100067762D01*
X135564571Y-100115381D01*
X135707429Y-100115381D01*
X135802667Y-100067762D01*
X135850286Y-100020143D01*
X136231238Y-99115381D02*
X136897905Y-99115381D01*
X136469333Y-100115381D01*
X138041143Y-94785381D02*
X137469714Y-94785381D01*
X137755428Y-94785381D02*
X137755428Y-93785381D01*
X137660190Y-93928238D01*
X137564952Y-94023476D01*
X137469714Y-94071095D01*
X138660190Y-93785381D02*
X138755429Y-93785381D01*
X138850667Y-93833000D01*
X138898286Y-93880619D01*
X138945905Y-93975857D01*
X138993524Y-94166333D01*
X138993524Y-94404429D01*
X138945905Y-94594905D01*
X138898286Y-94690143D01*
X138850667Y-94737762D01*
X138755429Y-94785381D01*
X138660190Y-94785381D01*
X138564952Y-94737762D01*
X138517333Y-94690143D01*
X138469714Y-94594905D01*
X138422095Y-94404429D01*
X138422095Y-94166333D01*
X138469714Y-93975857D01*
X138517333Y-93880619D01*
X138564952Y-93833000D01*
X138660190Y-93785381D01*
X139422095Y-94118714D02*
X139422095Y-94785381D01*
X139422095Y-94213952D02*
X139469714Y-94166333D01*
X139564952Y-94118714D01*
X139707810Y-94118714D01*
X139803048Y-94166333D01*
X139850667Y-94261571D01*
X139850667Y-94785381D01*
X129095524Y-77176381D02*
X128619333Y-77176381D01*
X128571714Y-77652571D01*
X128619333Y-77604952D01*
X128714571Y-77557333D01*
X128952667Y-77557333D01*
X129047905Y-77604952D01*
X129095524Y-77652571D01*
X129143143Y-77747810D01*
X129143143Y-77985905D01*
X129095524Y-78081143D01*
X129047905Y-78128762D01*
X128952667Y-78176381D01*
X128714571Y-78176381D01*
X128619333Y-78128762D01*
X128571714Y-78081143D01*
X129428857Y-77176381D02*
X129762190Y-78176381D01*
X130095524Y-77176381D01*
X129190905Y-112228381D02*
X129809953Y-112228381D01*
X129476619Y-112609333D01*
X129619477Y-112609333D01*
X129714715Y-112656952D01*
X129762334Y-112704571D01*
X129809953Y-112799810D01*
X129809953Y-113037905D01*
X129762334Y-113133143D01*
X129714715Y-113180762D01*
X129619477Y-113228381D01*
X129333762Y-113228381D01*
X129238524Y-113180762D01*
X129190905Y-113133143D01*
X130095667Y-112228381D02*
X130429000Y-113228381D01*
X130762334Y-112228381D01*
X131000429Y-112228381D02*
X131619477Y-112228381D01*
X131286143Y-112609333D01*
X131429001Y-112609333D01*
X131524239Y-112656952D01*
X131571858Y-112704571D01*
X131619477Y-112799810D01*
X131619477Y-113037905D01*
X131571858Y-113133143D01*
X131524239Y-113180762D01*
X131429001Y-113228381D01*
X131143286Y-113228381D01*
X131048048Y-113180762D01*
X131000429Y-113133143D01*
%LPC*%
D18*
X139065000Y-90805000D03*
X133985000Y-90805000D03*
X139065000Y-83185000D03*
X133985000Y-83185000D03*
D19*
X158890000Y-80120000D03*
X158890000Y-77080000D03*
X156350000Y-77080000D03*
X156350000Y-80120000D03*
X153810000Y-80120000D03*
X153810000Y-77080000D03*
X151270000Y-77080000D03*
X151270000Y-80120000D03*
X148730000Y-80120000D03*
X148730000Y-77080000D03*
D20*
X141110000Y-77080000D03*
D19*
X141110000Y-80120000D03*
X143650000Y-77080000D03*
X143650000Y-80120000D03*
X146190000Y-77080000D03*
X146190000Y-80120000D03*
D21*
X166120000Y-99680000D03*
X163080000Y-99680000D03*
X163080000Y-97140000D03*
X166120000Y-97140000D03*
D22*
X166120000Y-89520000D03*
D21*
X163080000Y-89520000D03*
X166120000Y-92060000D03*
X163080000Y-92060000D03*
X166120000Y-94600000D03*
X163080000Y-94600000D03*
D23*
X131223000Y-92964000D03*
X135223000Y-92964000D03*
D24*
X181250000Y-76500000D03*
X183750000Y-76500000D03*
D25*
X173500000Y-131250000D03*
X173500000Y-133750000D03*
D26*
X141859000Y-116618000D03*
X141859000Y-120618000D03*
D25*
X126500000Y-68750000D03*
X126500000Y-66250000D03*
X154305000Y-82951000D03*
X154305000Y-85451000D03*
D24*
X118750000Y-123500000D03*
X116250000Y-123500000D03*
X137902000Y-115189000D03*
X135402000Y-115189000D03*
D27*
X163131500Y-84819500D03*
X163131500Y-87519500D03*
D26*
X145796000Y-109760000D03*
X145796000Y-113760000D03*
D28*
X156798000Y-111125000D03*
X154098000Y-111125000D03*
X152480000Y-111125000D03*
X149780000Y-111125000D03*
D27*
X133223000Y-116252000D03*
X133223000Y-118952000D03*
D28*
X135302000Y-120777000D03*
X138002000Y-120777000D03*
D26*
X161671000Y-116999000D03*
X161671000Y-120999000D03*
D29*
X156559000Y-109093000D03*
X152559000Y-109093000D03*
D25*
X156591000Y-113812000D03*
X156591000Y-116312000D03*
D27*
X165036500Y-84819500D03*
X165036500Y-87519500D03*
D30*
X158877000Y-121099000D03*
X158877000Y-116899000D03*
D31*
X139827000Y-116317140D03*
X139827000Y-120664860D03*
D30*
X149606000Y-116645000D03*
X149606000Y-120845000D03*
D32*
X151637000Y-83379000D03*
X148337000Y-83379000D03*
X148337000Y-88579000D03*
X151637000Y-88579000D03*
D10*
G36*
X120611092Y-127267588D02*
X119055457Y-125711953D01*
X120045406Y-124722004D01*
X121601041Y-126277639D01*
X120611092Y-127267588D01*
X120611092Y-127267588D01*
G37*
G36*
X118277639Y-129601041D02*
X116722004Y-128045406D01*
X117711953Y-127055457D01*
X119267588Y-128611092D01*
X118277639Y-129601041D01*
X118277639Y-129601041D01*
G37*
G36*
X121954594Y-133277996D02*
X120398959Y-131722361D01*
X121388908Y-130732412D01*
X122944543Y-132288047D01*
X121954594Y-133277996D01*
X121954594Y-133277996D01*
G37*
G36*
X124288047Y-130944543D02*
X122732412Y-129388908D01*
X123722361Y-128398959D01*
X125277996Y-129954594D01*
X124288047Y-130944543D01*
X124288047Y-130944543D01*
G37*
G36*
X122732412Y-70611092D02*
X124288047Y-69055457D01*
X125277996Y-70045406D01*
X123722361Y-71601041D01*
X122732412Y-70611092D01*
X122732412Y-70611092D01*
G37*
G36*
X120398959Y-68277639D02*
X121954594Y-66722004D01*
X122944543Y-67711953D01*
X121388908Y-69267588D01*
X120398959Y-68277639D01*
X120398959Y-68277639D01*
G37*
G36*
X116722004Y-71954594D02*
X118277639Y-70398959D01*
X119267588Y-71388908D01*
X117711953Y-72944543D01*
X116722004Y-71954594D01*
X116722004Y-71954594D01*
G37*
G36*
X119055457Y-74288047D02*
X120611092Y-72732412D01*
X121601041Y-73722361D01*
X120045406Y-75277996D01*
X119055457Y-74288047D01*
X119055457Y-74288047D01*
G37*
G36*
X179388908Y-72732412D02*
X180944543Y-74288047D01*
X179954594Y-75277996D01*
X178398959Y-73722361D01*
X179388908Y-72732412D01*
X179388908Y-72732412D01*
G37*
G36*
X181722361Y-70398959D02*
X183277996Y-71954594D01*
X182288047Y-72944543D01*
X180732412Y-71388908D01*
X181722361Y-70398959D01*
X181722361Y-70398959D01*
G37*
G36*
X178045406Y-66722004D02*
X179601041Y-68277639D01*
X178611092Y-69267588D01*
X177055457Y-67711953D01*
X178045406Y-66722004D01*
X178045406Y-66722004D01*
G37*
G36*
X175711953Y-69055457D02*
X177267588Y-70611092D01*
X176277639Y-71601041D01*
X174722004Y-70045406D01*
X175711953Y-69055457D01*
X175711953Y-69055457D01*
G37*
G36*
X177267588Y-129388908D02*
X175711953Y-130944543D01*
X174722004Y-129954594D01*
X176277639Y-128398959D01*
X177267588Y-129388908D01*
X177267588Y-129388908D01*
G37*
G36*
X179601041Y-131722361D02*
X178045406Y-133277996D01*
X177055457Y-132288047D01*
X178611092Y-130732412D01*
X179601041Y-131722361D01*
X179601041Y-131722361D01*
G37*
G36*
X183277996Y-128045406D02*
X181722361Y-129601041D01*
X180732412Y-128611092D01*
X182288047Y-127055457D01*
X183277996Y-128045406D01*
X183277996Y-128045406D01*
G37*
G36*
X180944543Y-125711953D02*
X179388908Y-127267588D01*
X178398959Y-126277639D01*
X179954594Y-124722004D01*
X180944543Y-125711953D01*
X180944543Y-125711953D01*
G37*
D33*
X141605000Y-108698000D03*
X141605000Y-113298000D03*
X160655000Y-109079000D03*
X160655000Y-113679000D03*
D34*
X152019000Y-121412000D03*
X152019000Y-116332000D03*
X154559000Y-121412000D03*
X154559000Y-116332000D03*
X144145000Y-121412000D03*
X144145000Y-116332000D03*
X146685000Y-121412000D03*
X146685000Y-116332000D03*
D35*
X157607000Y-85852000D03*
D36*
X153971000Y-118049000D03*
X153971000Y-118999000D03*
X153971000Y-119949000D03*
X156671000Y-119949000D03*
X156671000Y-118049000D03*
X156671000Y-118999000D03*
X135302000Y-117033000D03*
X135302000Y-117983000D03*
X135302000Y-118933000D03*
X138002000Y-118933000D03*
X138002000Y-117033000D03*
X138002000Y-117983000D03*
D37*
X152499360Y-92499380D03*
X150000000Y-92499380D03*
X147500640Y-92499380D03*
D38*
X156200140Y-100000000D03*
X143799860Y-100000000D03*
D37*
X152499360Y-107000240D03*
X147500640Y-107000240D03*
D28*
X136445000Y-79883000D03*
X139145000Y-79883000D03*
X136445000Y-77978000D03*
X139145000Y-77978000D03*
D29*
X133636000Y-97663000D03*
X137636000Y-97663000D03*
D39*
X131191000Y-106934000D03*
X132491000Y-106934000D03*
X131841000Y-107934000D03*
X130541000Y-107934000D03*
X129891000Y-106934000D03*
D40*
X127616000Y-107154000D03*
X134766000Y-107154000D03*
D24*
X137434000Y-92583000D03*
X139934000Y-92583000D03*
D39*
X136906000Y-109728000D03*
X136906000Y-111028000D03*
X137906000Y-110378000D03*
X137906000Y-109078000D03*
X136906000Y-108428000D03*
D41*
X137126000Y-106153000D03*
X137126000Y-113303000D03*
D42*
X152527000Y-95123000D03*
D43*
X149987000Y-95123000D03*
X147447000Y-95123000D03*
X144907000Y-95123000D03*
D44*
X169418000Y-108966000D03*
X157607000Y-89535000D03*
D35*
X132080000Y-77724000D03*
X165481000Y-108966000D03*
D42*
X133604000Y-112776000D03*
M02*
