M48
;DRILL file {KiCad 4.0.5} date 03/20/17 17:49:32
;FORMAT={-:-/ absolute / metric / decimal}
FMAT,2
METRIC,TZ
T1C0.305
T2C0.400
T3C0.550
T4C0.813
T5C0.900
T6C1.000
T7C1.001
T8C1.500
T9C2.200
%
G90
G05
M71
T1
X124.206Y-95.25
X124.206Y-96.266
X124.206Y-97.155
X124.206Y-98.044
X125.095Y-95.25
X125.857Y-96.901
X125.857Y-97.79
X125.857Y-98.679
X126.619Y-103.632
X126.619Y-104.648
X126.746Y-96.901
X126.746Y-99.441
X127.635Y-111.316
X129.667Y-103.759
X131.064Y-96.774
X131.064Y-97.917
X131.064Y-98.806
X131.064Y-99.695
X131.064Y-100.584
X131.191Y-94.869
X131.953Y-116.078
X133.667Y-94.678
X133.667Y-95.758
X134.747Y-95.758
X135.826Y-95.758
X136.144Y-100.457
X136.779Y-89.027
X136.906Y-93.853
X137.287Y-89.662
X144.018Y-89.662
X144.145Y-118.618
X144.526Y-89.027
X146.177Y-105.093
X156.591Y-120.777
T3
X129.891Y-106.934
X130.541Y-107.934
X131.191Y-106.934
X131.841Y-107.934
X132.491Y-106.934
X136.906Y-108.428
X136.906Y-109.728
X136.906Y-111.028
X137.906Y-109.078
X137.906Y-110.378
T4
X133.985Y-83.185
X133.985Y-90.805
X139.065Y-83.185
X139.065Y-90.805
T5
X144.145Y-116.332
X144.145Y-121.412
X146.685Y-116.332
X146.685Y-121.412
X152.019Y-116.332
X152.019Y-121.412
X154.559Y-116.332
X154.559Y-121.412
T6
X133.604Y-112.776
X141.11Y-77.33
X141.11Y-79.87
X143.65Y-77.33
X143.65Y-79.87
X144.907Y-95.123
X146.19Y-77.33
X146.19Y-79.87
X147.447Y-95.123
X148.73Y-77.33
X148.73Y-79.87
X149.987Y-95.123
X151.27Y-77.33
X151.27Y-79.87
X152.527Y-95.123
X153.81Y-77.33
X153.81Y-79.87
X156.35Y-77.33
X156.35Y-79.87
X158.89Y-77.33
X158.89Y-79.87
X163.33Y-89.52
X163.33Y-92.06
X163.33Y-94.6
X163.33Y-97.14
X163.33Y-99.68
X165.87Y-89.52
X165.87Y-92.06
X165.87Y-94.6
X165.87Y-97.14
X165.87Y-99.68
T7
X147.501Y-92.499
X147.501Y-107.
X150.Y-92.499
X152.499Y-92.499
X152.499Y-107.
T8
X132.08Y-77.724
X157.607Y-85.852
X157.607Y-89.535
X165.481Y-108.966
X169.418Y-108.966
T9
X143.8Y-100.
X156.2Y-100.
T2
X127.616Y-107.754G85X127.616Y-106.554
G05
X134.766Y-107.754G85X134.766Y-106.554
G05
X136.526Y-106.153G85X137.726Y-106.153
G05
X136.526Y-113.303G85X137.726Y-113.303
G05
T0
M30
