G04 #@! TF.GenerationSoftware,KiCad,Pcbnew,(5.1.8)-1*
G04 #@! TF.CreationDate,2021-05-03T11:51:10+02:00*
G04 #@! TF.ProjectId,sensactOutdoor,73656e73-6163-4744-9f75-74646f6f722e,rev?*
G04 #@! TF.SameCoordinates,Original*
G04 #@! TF.FileFunction,Profile,NP*
%FSLAX46Y46*%
G04 Gerber Fmt 4.6, Leading zero omitted, Abs format (unit mm)*
G04 Created by KiCad (PCBNEW (5.1.8)-1) date 2021-05-03 11:51:10*
%MOMM*%
%LPD*%
G01*
G04 APERTURE LIST*
G04 #@! TA.AperFunction,Profile*
%ADD10C,0.050000*%
G04 #@! TD*
G04 APERTURE END LIST*
D10*
X40300000Y-75900000D02*
X41148000Y-75057000D01*
X35052000Y-58420000D02*
X40894000Y-58420000D01*
X35052000Y-55499000D02*
X35052000Y-58420000D01*
X28067000Y-55499000D02*
X35052000Y-55499000D01*
X28067000Y-57912000D02*
X28067000Y-55499000D01*
X31750000Y-57912000D02*
X28067000Y-57912000D01*
X31750000Y-60706000D02*
X31750000Y-57912000D01*
X36703000Y-60706000D02*
X31750000Y-60706000D01*
X36703000Y-68453000D02*
X39624000Y-71374000D01*
X41148000Y-72009000D02*
X40513000Y-71374000D01*
X45900000Y-71400000D02*
X45900000Y-76900000D01*
X44831000Y-70358000D02*
X45900000Y-71400000D01*
X42799000Y-70358000D02*
X44831000Y-70358000D01*
X40894000Y-68453000D02*
X42799000Y-70358000D01*
X40894000Y-58420000D02*
X40894000Y-68453000D01*
X36703000Y-68453000D02*
X36703000Y-60706000D01*
X40513000Y-71374000D02*
X39624000Y-71374000D01*
X41148000Y-75057000D02*
X41148000Y-72009000D01*
X35400000Y-75900000D02*
X35400000Y-76900000D01*
X40300000Y-75900000D02*
X35400000Y-75900000D01*
X35400000Y-76900000D02*
X45900000Y-76900000D01*
X91500000Y-99000000D02*
X89500000Y-99000000D01*
X91500000Y-85500000D02*
X91500000Y-99000000D01*
X89500000Y-85500000D02*
X91500000Y-85500000D01*
X89500000Y-99000000D02*
X89500000Y-85500000D01*
X110500000Y-102500000D02*
X98500000Y-102500000D01*
X86500000Y-102500000D02*
G75*
G02*
X85500000Y-101500000I0J1000000D01*
G01*
X73500000Y-101500000D02*
G75*
G02*
X72500000Y-102500000I-1000000J0D01*
G01*
X73500000Y-101500000D02*
G75*
G02*
X85500000Y-101500000I6000000J0D01*
G01*
X72500000Y-21500000D02*
G75*
G02*
X73500000Y-22500000I0J-1000000D01*
G01*
X85500000Y-22500000D02*
G75*
G02*
X86500000Y-21500000I1000000J0D01*
G01*
X85500000Y-22500000D02*
G75*
G02*
X73500000Y-22500000I-6000000J0D01*
G01*
X83947000Y-73787000D02*
X102362000Y-73787000D01*
X83947000Y-75946000D02*
X83947000Y-73787000D01*
X99822000Y-75946000D02*
X83947000Y-75946000D01*
X80137000Y-81280000D02*
X83947000Y-81280000D01*
X80137000Y-89789000D02*
X80137000Y-81280000D01*
X83947000Y-89789000D02*
X80137000Y-89789000D01*
X83947000Y-81280000D02*
X83947000Y-89789000D01*
X125000000Y-102500000D02*
X110500000Y-102500000D01*
X99822000Y-83439000D02*
X99822000Y-75946000D01*
X102362000Y-83439000D02*
X99822000Y-83439000D01*
X102362000Y-73787000D02*
X102362000Y-83439000D01*
X125000000Y-21500000D02*
X86500000Y-21500000D01*
X98500000Y-102500000D02*
X86500000Y-102500000D01*
X25000000Y-102500000D02*
X25000000Y-21500000D01*
X72500000Y-102500000D02*
X25000000Y-102500000D01*
X125000000Y-21500000D02*
X125000000Y-102500000D01*
X25000000Y-21500000D02*
X72500000Y-21500000D01*
M02*
