G04 #@! TF.GenerationSoftware,KiCad,Pcbnew,(5.1.8)-1*
G04 #@! TF.CreationDate,2021-05-03T11:51:10+02:00*
G04 #@! TF.ProjectId,sensactOutdoor,73656e73-6163-4744-9f75-74646f6f722e,rev?*
G04 #@! TF.SameCoordinates,Original*
G04 #@! TF.FileFunction,Soldermask,Top*
G04 #@! TF.FilePolarity,Negative*
%FSLAX46Y46*%
G04 Gerber Fmt 4.6, Leading zero omitted, Abs format (unit mm)*
G04 Created by KiCad (PCBNEW (5.1.8)-1) date 2021-05-03 11:51:10*
%MOMM*%
%LPD*%
G01*
G04 APERTURE LIST*
%ADD10O,2.000000X1.500000*%
%ADD11R,1.300000X2.000000*%
%ADD12C,2.000000*%
%ADD13R,2.200000X1.400000*%
%ADD14O,1.000000X1.000000*%
%ADD15R,1.000000X1.000000*%
%ADD16C,1.524000*%
%ADD17R,1.524000X1.524000*%
%ADD18C,1.650000*%
%ADD19O,3.600000X1.800000*%
%ADD20O,1.950000X1.700000*%
%ADD21C,1.500000*%
%ADD22R,1.500000X1.500000*%
%ADD23C,1.800000*%
%ADD24O,1.600000X2.000000*%
%ADD25C,1.600000*%
%ADD26O,1.700000X1.700000*%
%ADD27R,1.700000X1.700000*%
%ADD28R,1.000000X1.500000*%
%ADD29C,0.100000*%
%ADD30C,3.200000*%
%ADD31O,3.600000X2.100000*%
%ADD32R,4.800000X4.500000*%
%ADD33R,2.200000X0.600000*%
%ADD34O,1.905000X2.000000*%
%ADD35R,1.905000X2.000000*%
%ADD36R,5.000000X5.000000*%
%ADD37R,1.500000X3.000000*%
%ADD38R,3.800000X3.000000*%
%ADD39R,1.800000X1.800000*%
%ADD40O,3.600000X2.080000*%
%ADD41R,3.500000X1.800000*%
G04 APERTURE END LIST*
D10*
X39751000Y-72517000D03*
X39751000Y-74957000D03*
X39751000Y-77697000D03*
X39751000Y-80137000D03*
D11*
X75402000Y-47235000D03*
X70902000Y-47235000D03*
X70902000Y-55635000D03*
X75402000Y-55635000D03*
D12*
X62348000Y-99760000D03*
X45348000Y-99760000D03*
X45348000Y-60260000D03*
X62348000Y-60260000D03*
D13*
X70679000Y-44829000D03*
X70679000Y-41529000D03*
X75879000Y-41529000D03*
X75879000Y-44829000D03*
D14*
X79629000Y-34798000D03*
X78359000Y-34798000D03*
X79629000Y-33528000D03*
X78359000Y-33528000D03*
X79629000Y-32258000D03*
D15*
X78359000Y-32258000D03*
D16*
X47879000Y-65532000D03*
X50419000Y-65532000D03*
X47879000Y-68072000D03*
X50419000Y-68072000D03*
X47879000Y-70612000D03*
X50419000Y-70612000D03*
X47879000Y-73152000D03*
D17*
X50419000Y-73152000D03*
D18*
X113750000Y-62739000D03*
X106750000Y-62739000D03*
X95250000Y-58039000D03*
X95250000Y-62739000D03*
G36*
G01*
X67729199Y-96701600D02*
X69329201Y-96701600D01*
G75*
G02*
X69579200Y-96951599I0J-249999D01*
G01*
X69579200Y-100951601D01*
G75*
G02*
X69329201Y-101201600I-249999J0D01*
G01*
X67729199Y-101201600D01*
G75*
G02*
X67479200Y-100951601I0J249999D01*
G01*
X67479200Y-96951599D01*
G75*
G02*
X67729199Y-96701600I249999J0D01*
G01*
G37*
G36*
G01*
X67729199Y-89501600D02*
X69329201Y-89501600D01*
G75*
G02*
X69579200Y-89751599I0J-249999D01*
G01*
X69579200Y-93751601D01*
G75*
G02*
X69329201Y-94001600I-249999J0D01*
G01*
X67729199Y-94001600D01*
G75*
G02*
X67479200Y-93751601I0J249999D01*
G01*
X67479200Y-89751599D01*
G75*
G02*
X67729199Y-89501600I249999J0D01*
G01*
G37*
D19*
X29514800Y-59223000D03*
X29514800Y-62723000D03*
X29514800Y-66223000D03*
G36*
G01*
X31064800Y-70623000D02*
X27964800Y-70623000D01*
G75*
G02*
X27714800Y-70373000I0J250000D01*
G01*
X27714800Y-69073000D01*
G75*
G02*
X27964800Y-68823000I250000J0D01*
G01*
X31064800Y-68823000D01*
G75*
G02*
X31314800Y-69073000I0J-250000D01*
G01*
X31314800Y-70373000D01*
G75*
G02*
X31064800Y-70623000I-250000J0D01*
G01*
G37*
D12*
X87349000Y-60310000D03*
X82249000Y-63810000D03*
G36*
G01*
X86749000Y-66310000D02*
X87749000Y-66310000D01*
G75*
G02*
X88249000Y-66810000I0J-500000D01*
G01*
X88249000Y-67810000D01*
G75*
G02*
X87749000Y-68310000I-500000J0D01*
G01*
X86749000Y-68310000D01*
G75*
G02*
X86249000Y-67810000I0J500000D01*
G01*
X86249000Y-66810000D01*
G75*
G02*
X86749000Y-66310000I500000J0D01*
G01*
G37*
X37973000Y-91694000D03*
G36*
G01*
X35791000Y-69179500D02*
X35791000Y-69504500D01*
G75*
G02*
X35628500Y-69667000I-162500J0D01*
G01*
X33203500Y-69667000D01*
G75*
G02*
X33041000Y-69504500I0J162500D01*
G01*
X33041000Y-69179500D01*
G75*
G02*
X33203500Y-69017000I162500J0D01*
G01*
X35628500Y-69017000D01*
G75*
G02*
X35791000Y-69179500I0J-162500D01*
G01*
G37*
G36*
G01*
X35791000Y-66639500D02*
X35791000Y-66964500D01*
G75*
G02*
X35628500Y-67127000I-162500J0D01*
G01*
X33203500Y-67127000D01*
G75*
G02*
X33041000Y-66964500I0J162500D01*
G01*
X33041000Y-66639500D01*
G75*
G02*
X33203500Y-66477000I162500J0D01*
G01*
X35628500Y-66477000D01*
G75*
G02*
X35791000Y-66639500I0J-162500D01*
G01*
G37*
G36*
G01*
X35791000Y-64099500D02*
X35791000Y-64424500D01*
G75*
G02*
X35628500Y-64587000I-162500J0D01*
G01*
X33203500Y-64587000D01*
G75*
G02*
X33041000Y-64424500I0J162500D01*
G01*
X33041000Y-64099500D01*
G75*
G02*
X33203500Y-63937000I162500J0D01*
G01*
X35628500Y-63937000D01*
G75*
G02*
X35791000Y-64099500I0J-162500D01*
G01*
G37*
G36*
G01*
X35791000Y-61559500D02*
X35791000Y-61884500D01*
G75*
G02*
X35628500Y-62047000I-162500J0D01*
G01*
X33203500Y-62047000D01*
G75*
G02*
X33041000Y-61884500I0J162500D01*
G01*
X33041000Y-61559500D01*
G75*
G02*
X33203500Y-61397000I162500J0D01*
G01*
X35628500Y-61397000D01*
G75*
G02*
X35791000Y-61559500I0J-162500D01*
G01*
G37*
G36*
G01*
X45216000Y-61559500D02*
X45216000Y-61884500D01*
G75*
G02*
X45053500Y-62047000I-162500J0D01*
G01*
X42628500Y-62047000D01*
G75*
G02*
X42466000Y-61884500I0J162500D01*
G01*
X42466000Y-61559500D01*
G75*
G02*
X42628500Y-61397000I162500J0D01*
G01*
X45053500Y-61397000D01*
G75*
G02*
X45216000Y-61559500I0J-162500D01*
G01*
G37*
G36*
G01*
X45241000Y-64099500D02*
X45241000Y-64424500D01*
G75*
G02*
X45078500Y-64587000I-162500J0D01*
G01*
X42653500Y-64587000D01*
G75*
G02*
X42491000Y-64424500I0J162500D01*
G01*
X42491000Y-64099500D01*
G75*
G02*
X42653500Y-63937000I162500J0D01*
G01*
X45078500Y-63937000D01*
G75*
G02*
X45241000Y-64099500I0J-162500D01*
G01*
G37*
G36*
G01*
X45191000Y-66639500D02*
X45191000Y-66964500D01*
G75*
G02*
X45028500Y-67127000I-162500J0D01*
G01*
X42603500Y-67127000D01*
G75*
G02*
X42441000Y-66964500I0J162500D01*
G01*
X42441000Y-66639500D01*
G75*
G02*
X42603500Y-66477000I162500J0D01*
G01*
X45028500Y-66477000D01*
G75*
G02*
X45191000Y-66639500I0J-162500D01*
G01*
G37*
G36*
G01*
X45191000Y-69179500D02*
X45191000Y-69504500D01*
G75*
G02*
X45028500Y-69667000I-162500J0D01*
G01*
X42603500Y-69667000D01*
G75*
G02*
X42441000Y-69504500I0J162500D01*
G01*
X42441000Y-69179500D01*
G75*
G02*
X42603500Y-69017000I162500J0D01*
G01*
X45028500Y-69017000D01*
G75*
G02*
X45191000Y-69179500I0J-162500D01*
G01*
G37*
G36*
G01*
X41386998Y-80021000D02*
X42687002Y-80021000D01*
G75*
G02*
X42937000Y-80270998I0J-249998D01*
G01*
X42937000Y-81096002D01*
G75*
G02*
X42687002Y-81346000I-249998J0D01*
G01*
X41386998Y-81346000D01*
G75*
G02*
X41137000Y-81096002I0J249998D01*
G01*
X41137000Y-80270998D01*
G75*
G02*
X41386998Y-80021000I249998J0D01*
G01*
G37*
G36*
G01*
X41386998Y-76896000D02*
X42687002Y-76896000D01*
G75*
G02*
X42937000Y-77145998I0J-249998D01*
G01*
X42937000Y-77971002D01*
G75*
G02*
X42687002Y-78221000I-249998J0D01*
G01*
X41386998Y-78221000D01*
G75*
G02*
X41137000Y-77971002I0J249998D01*
G01*
X41137000Y-77145998D01*
G75*
G02*
X41386998Y-76896000I249998J0D01*
G01*
G37*
D20*
X81153000Y-53307000D03*
X81153000Y-50807000D03*
X81153000Y-48307000D03*
X81153000Y-45807000D03*
G36*
G01*
X80428000Y-42457000D02*
X81878000Y-42457000D01*
G75*
G02*
X82128000Y-42707000I0J-250000D01*
G01*
X82128000Y-43907000D01*
G75*
G02*
X81878000Y-44157000I-250000J0D01*
G01*
X80428000Y-44157000D01*
G75*
G02*
X80178000Y-43907000I0J250000D01*
G01*
X80178000Y-42707000D01*
G75*
G02*
X80428000Y-42457000I250000J0D01*
G01*
G37*
G36*
G01*
X41587000Y-32569999D02*
X41587000Y-33470001D01*
G75*
G02*
X41337001Y-33720000I-249999J0D01*
G01*
X40686999Y-33720000D01*
G75*
G02*
X40437000Y-33470001I0J249999D01*
G01*
X40437000Y-32569999D01*
G75*
G02*
X40686999Y-32320000I249999J0D01*
G01*
X41337001Y-32320000D01*
G75*
G02*
X41587000Y-32569999I0J-249999D01*
G01*
G37*
G36*
G01*
X43637000Y-32569999D02*
X43637000Y-33470001D01*
G75*
G02*
X43387001Y-33720000I-249999J0D01*
G01*
X42736999Y-33720000D01*
G75*
G02*
X42487000Y-33470001I0J249999D01*
G01*
X42487000Y-32569999D01*
G75*
G02*
X42736999Y-32320000I249999J0D01*
G01*
X43387001Y-32320000D01*
G75*
G02*
X43637000Y-32569999I0J-249999D01*
G01*
G37*
G36*
G01*
X37534000Y-57600001D02*
X37534000Y-56699999D01*
G75*
G02*
X37783999Y-56450000I249999J0D01*
G01*
X38434001Y-56450000D01*
G75*
G02*
X38684000Y-56699999I0J-249999D01*
G01*
X38684000Y-57600001D01*
G75*
G02*
X38434001Y-57850000I-249999J0D01*
G01*
X37783999Y-57850000D01*
G75*
G02*
X37534000Y-57600001I0J249999D01*
G01*
G37*
G36*
G01*
X35484000Y-57600001D02*
X35484000Y-56699999D01*
G75*
G02*
X35733999Y-56450000I249999J0D01*
G01*
X36384001Y-56450000D01*
G75*
G02*
X36634000Y-56699999I0J-249999D01*
G01*
X36634000Y-57600001D01*
G75*
G02*
X36384001Y-57850000I-249999J0D01*
G01*
X35733999Y-57850000D01*
G75*
G02*
X35484000Y-57600001I0J249999D01*
G01*
G37*
G36*
G01*
X92513999Y-26485000D02*
X93414001Y-26485000D01*
G75*
G02*
X93664000Y-26734999I0J-249999D01*
G01*
X93664000Y-27385001D01*
G75*
G02*
X93414001Y-27635000I-249999J0D01*
G01*
X92513999Y-27635000D01*
G75*
G02*
X92264000Y-27385001I0J249999D01*
G01*
X92264000Y-26734999D01*
G75*
G02*
X92513999Y-26485000I249999J0D01*
G01*
G37*
G36*
G01*
X92513999Y-24435000D02*
X93414001Y-24435000D01*
G75*
G02*
X93664000Y-24684999I0J-249999D01*
G01*
X93664000Y-25335001D01*
G75*
G02*
X93414001Y-25585000I-249999J0D01*
G01*
X92513999Y-25585000D01*
G75*
G02*
X92264000Y-25335001I0J249999D01*
G01*
X92264000Y-24684999D01*
G75*
G02*
X92513999Y-24435000I249999J0D01*
G01*
G37*
G36*
G01*
X40494000Y-56699999D02*
X40494000Y-57600001D01*
G75*
G02*
X40244001Y-57850000I-249999J0D01*
G01*
X39543999Y-57850000D01*
G75*
G02*
X39294000Y-57600001I0J249999D01*
G01*
X39294000Y-56699999D01*
G75*
G02*
X39543999Y-56450000I249999J0D01*
G01*
X40244001Y-56450000D01*
G75*
G02*
X40494000Y-56699999I0J-249999D01*
G01*
G37*
G36*
G01*
X42494000Y-56699999D02*
X42494000Y-57600001D01*
G75*
G02*
X42244001Y-57850000I-249999J0D01*
G01*
X41543999Y-57850000D01*
G75*
G02*
X41294000Y-57600001I0J249999D01*
G01*
X41294000Y-56699999D01*
G75*
G02*
X41543999Y-56450000I249999J0D01*
G01*
X42244001Y-56450000D01*
G75*
G02*
X42494000Y-56699999I0J-249999D01*
G01*
G37*
D18*
X113750000Y-43053000D03*
X106750000Y-43053000D03*
X95250000Y-38353000D03*
X95250000Y-43053000D03*
D21*
X79212000Y-74566000D03*
X79212000Y-92566000D03*
X112812000Y-80566000D03*
D22*
X112812000Y-86566000D03*
D23*
X107957000Y-99698000D03*
X100457000Y-98298000D03*
D24*
X29337000Y-74549000D03*
X26837000Y-74549000D03*
X31837000Y-74549000D03*
D18*
X113750000Y-70358000D03*
X106750000Y-70358000D03*
X95250000Y-65658000D03*
X95250000Y-70358000D03*
D12*
X85075000Y-30400000D03*
X88575000Y-35500000D03*
G36*
G01*
X91075000Y-31000000D02*
X91075000Y-30000000D01*
G75*
G02*
X91575000Y-29500000I500000J0D01*
G01*
X92575000Y-29500000D01*
G75*
G02*
X93075000Y-30000000I0J-500000D01*
G01*
X93075000Y-31000000D01*
G75*
G02*
X92575000Y-31500000I-500000J0D01*
G01*
X91575000Y-31500000D01*
G75*
G02*
X91075000Y-31000000I0J500000D01*
G01*
G37*
X74295000Y-73518000D03*
X69195000Y-77018000D03*
G36*
G01*
X73695000Y-79518000D02*
X74695000Y-79518000D01*
G75*
G02*
X75195000Y-80018000I0J-500000D01*
G01*
X75195000Y-81018000D01*
G75*
G02*
X74695000Y-81518000I-500000J0D01*
G01*
X73695000Y-81518000D01*
G75*
G02*
X73195000Y-81018000I0J500000D01*
G01*
X73195000Y-80018000D01*
G75*
G02*
X73695000Y-79518000I500000J0D01*
G01*
G37*
D18*
X113750000Y-55118000D03*
X106750000Y-55118000D03*
X95250000Y-50418000D03*
X95250000Y-55118000D03*
X113750000Y-35433000D03*
X106750000Y-35433000D03*
X95250000Y-30733000D03*
X95250000Y-35433000D03*
X113750000Y-27813000D03*
X106750000Y-27813000D03*
X95250000Y-23113000D03*
X95250000Y-27813000D03*
D25*
X86741000Y-98298000D03*
X96741000Y-98298000D03*
D12*
X122936000Y-97790000D03*
X117856000Y-97790000D03*
X39370000Y-99060000D03*
X62611000Y-95758000D03*
D26*
X53340000Y-54356000D03*
X50800000Y-54356000D03*
X48260000Y-54356000D03*
D27*
X45720000Y-54356000D03*
D28*
X61595000Y-54356000D03*
D29*
G36*
X60295000Y-55105398D02*
G01*
X60270466Y-55105398D01*
X60221635Y-55100588D01*
X60173510Y-55091016D01*
X60126555Y-55076772D01*
X60081222Y-55057995D01*
X60037949Y-55034864D01*
X59997150Y-55007604D01*
X59959221Y-54976476D01*
X59924524Y-54941779D01*
X59893396Y-54903850D01*
X59866136Y-54863051D01*
X59843005Y-54819778D01*
X59824228Y-54774445D01*
X59809984Y-54727490D01*
X59800412Y-54679365D01*
X59795602Y-54630534D01*
X59795602Y-54606000D01*
X59795000Y-54606000D01*
X59795000Y-54106000D01*
X59795602Y-54106000D01*
X59795602Y-54081466D01*
X59800412Y-54032635D01*
X59809984Y-53984510D01*
X59824228Y-53937555D01*
X59843005Y-53892222D01*
X59866136Y-53848949D01*
X59893396Y-53808150D01*
X59924524Y-53770221D01*
X59959221Y-53735524D01*
X59997150Y-53704396D01*
X60037949Y-53677136D01*
X60081222Y-53654005D01*
X60126555Y-53635228D01*
X60173510Y-53620984D01*
X60221635Y-53611412D01*
X60270466Y-53606602D01*
X60295000Y-53606602D01*
X60295000Y-53606000D01*
X60845000Y-53606000D01*
X60845000Y-55106000D01*
X60295000Y-55106000D01*
X60295000Y-55105398D01*
G37*
G36*
X62345000Y-53606000D02*
G01*
X62895000Y-53606000D01*
X62895000Y-53606602D01*
X62919534Y-53606602D01*
X62968365Y-53611412D01*
X63016490Y-53620984D01*
X63063445Y-53635228D01*
X63108778Y-53654005D01*
X63152051Y-53677136D01*
X63192850Y-53704396D01*
X63230779Y-53735524D01*
X63265476Y-53770221D01*
X63296604Y-53808150D01*
X63323864Y-53848949D01*
X63346995Y-53892222D01*
X63365772Y-53937555D01*
X63380016Y-53984510D01*
X63389588Y-54032635D01*
X63394398Y-54081466D01*
X63394398Y-54106000D01*
X63395000Y-54106000D01*
X63395000Y-54606000D01*
X63394398Y-54606000D01*
X63394398Y-54630534D01*
X63389588Y-54679365D01*
X63380016Y-54727490D01*
X63365772Y-54774445D01*
X63346995Y-54819778D01*
X63323864Y-54863051D01*
X63296604Y-54903850D01*
X63265476Y-54941779D01*
X63230779Y-54976476D01*
X63192850Y-55007604D01*
X63152051Y-55034864D01*
X63108778Y-55057995D01*
X63063445Y-55076772D01*
X63016490Y-55091016D01*
X62968365Y-55100588D01*
X62919534Y-55105398D01*
X62895000Y-55105398D01*
X62895000Y-55106000D01*
X62345000Y-55106000D01*
X62345000Y-53606000D01*
G37*
G36*
G01*
X61987000Y-75707003D02*
X61987000Y-74406997D01*
G75*
G02*
X62236997Y-74157000I249997J0D01*
G01*
X63062003Y-74157000D01*
G75*
G02*
X63312000Y-74406997I0J-249997D01*
G01*
X63312000Y-75707003D01*
G75*
G02*
X63062003Y-75957000I-249997J0D01*
G01*
X62236997Y-75957000D01*
G75*
G02*
X61987000Y-75707003I0J249997D01*
G01*
G37*
G36*
G01*
X58862000Y-75707003D02*
X58862000Y-74406997D01*
G75*
G02*
X59111997Y-74157000I249997J0D01*
G01*
X59937003Y-74157000D01*
G75*
G02*
X60187000Y-74406997I0J-249997D01*
G01*
X60187000Y-75707003D01*
G75*
G02*
X59937003Y-75957000I-249997J0D01*
G01*
X59111997Y-75957000D01*
G75*
G02*
X58862000Y-75707003I0J249997D01*
G01*
G37*
G36*
G01*
X61987000Y-73294003D02*
X61987000Y-71993997D01*
G75*
G02*
X62236997Y-71744000I249997J0D01*
G01*
X63062003Y-71744000D01*
G75*
G02*
X63312000Y-71993997I0J-249997D01*
G01*
X63312000Y-73294003D01*
G75*
G02*
X63062003Y-73544000I-249997J0D01*
G01*
X62236997Y-73544000D01*
G75*
G02*
X61987000Y-73294003I0J249997D01*
G01*
G37*
G36*
G01*
X58862000Y-73294003D02*
X58862000Y-71993997D01*
G75*
G02*
X59111997Y-71744000I249997J0D01*
G01*
X59937003Y-71744000D01*
G75*
G02*
X60187000Y-71993997I0J-249997D01*
G01*
X60187000Y-73294003D01*
G75*
G02*
X59937003Y-73544000I-249997J0D01*
G01*
X59111997Y-73544000D01*
G75*
G02*
X58862000Y-73294003I0J249997D01*
G01*
G37*
D12*
X62865000Y-80264000D03*
X49911000Y-83058000D03*
D30*
X119761000Y-50038000D03*
D31*
X119634000Y-88773000D03*
G36*
G01*
X118083999Y-80103000D02*
X121184001Y-80103000D01*
G75*
G02*
X121434000Y-80352999I0J-249999D01*
G01*
X121434000Y-81953001D01*
G75*
G02*
X121184001Y-82203000I-249999J0D01*
G01*
X118083999Y-82203000D01*
G75*
G02*
X117834000Y-81953001I0J249999D01*
G01*
X117834000Y-80352999D01*
G75*
G02*
X118083999Y-80103000I249999J0D01*
G01*
G37*
X119634000Y-72390000D03*
X119634000Y-64770000D03*
G36*
G01*
X118083999Y-56100000D02*
X121184001Y-56100000D01*
G75*
G02*
X121434000Y-56349999I0J-249999D01*
G01*
X121434000Y-57950001D01*
G75*
G02*
X121184001Y-58200000I-249999J0D01*
G01*
X118083999Y-58200000D01*
G75*
G02*
X117834000Y-57950001I0J249999D01*
G01*
X117834000Y-56349999D01*
G75*
G02*
X118083999Y-56100000I249999J0D01*
G01*
G37*
X119634000Y-41240000D03*
X119634000Y-33620000D03*
G36*
G01*
X118083999Y-24950000D02*
X121184001Y-24950000D01*
G75*
G02*
X121434000Y-25199999I0J-249999D01*
G01*
X121434000Y-26800001D01*
G75*
G02*
X121184001Y-27050000I-249999J0D01*
G01*
X118083999Y-27050000D01*
G75*
G02*
X117834000Y-26800001I0J249999D01*
G01*
X117834000Y-25199999D01*
G75*
G02*
X118083999Y-24950000I249999J0D01*
G01*
G37*
D32*
X52408400Y-92964000D03*
X41808400Y-92964000D03*
D29*
G36*
X59923200Y-85675200D02*
G01*
X59923200Y-88975200D01*
X57323200Y-88975200D01*
X57323200Y-85675200D01*
X59923200Y-85675200D01*
G37*
D33*
X55623200Y-89230200D03*
X55623200Y-87960200D03*
X55623200Y-86690200D03*
X55623200Y-85420200D03*
X61623200Y-85420200D03*
X61623200Y-86690200D03*
X61623200Y-87960200D03*
X61623200Y-89230200D03*
D34*
X35941000Y-28702000D03*
X38481000Y-28702000D03*
D35*
X41021000Y-28702000D03*
G36*
G01*
X68904000Y-33423000D02*
X68904000Y-33873000D01*
G75*
G02*
X68679000Y-34098000I-225000J0D01*
G01*
X66129000Y-34098000D01*
G75*
G02*
X65904000Y-33873000I0J225000D01*
G01*
X65904000Y-33423000D01*
G75*
G02*
X66129000Y-33198000I225000J0D01*
G01*
X68679000Y-33198000D01*
G75*
G02*
X68904000Y-33423000I0J-225000D01*
G01*
G37*
G36*
G01*
X68904000Y-34693000D02*
X68904000Y-35143000D01*
G75*
G02*
X68679000Y-35368000I-225000J0D01*
G01*
X66129000Y-35368000D01*
G75*
G02*
X65904000Y-35143000I0J225000D01*
G01*
X65904000Y-34693000D01*
G75*
G02*
X66129000Y-34468000I225000J0D01*
G01*
X68679000Y-34468000D01*
G75*
G02*
X68904000Y-34693000I0J-225000D01*
G01*
G37*
G36*
G01*
X68904000Y-35963000D02*
X68904000Y-36413000D01*
G75*
G02*
X68679000Y-36638000I-225000J0D01*
G01*
X66129000Y-36638000D01*
G75*
G02*
X65904000Y-36413000I0J225000D01*
G01*
X65904000Y-35963000D01*
G75*
G02*
X66129000Y-35738000I225000J0D01*
G01*
X68679000Y-35738000D01*
G75*
G02*
X68904000Y-35963000I0J-225000D01*
G01*
G37*
G36*
G01*
X68904000Y-37233000D02*
X68904000Y-37683000D01*
G75*
G02*
X68679000Y-37908000I-225000J0D01*
G01*
X66129000Y-37908000D01*
G75*
G02*
X65904000Y-37683000I0J225000D01*
G01*
X65904000Y-37233000D01*
G75*
G02*
X66129000Y-37008000I225000J0D01*
G01*
X68679000Y-37008000D01*
G75*
G02*
X68904000Y-37233000I0J-225000D01*
G01*
G37*
G36*
G01*
X68904000Y-38503000D02*
X68904000Y-38953000D01*
G75*
G02*
X68679000Y-39178000I-225000J0D01*
G01*
X66129000Y-39178000D01*
G75*
G02*
X65904000Y-38953000I0J225000D01*
G01*
X65904000Y-38503000D01*
G75*
G02*
X66129000Y-38278000I225000J0D01*
G01*
X68679000Y-38278000D01*
G75*
G02*
X68904000Y-38503000I0J-225000D01*
G01*
G37*
G36*
G01*
X68904000Y-39773000D02*
X68904000Y-40223000D01*
G75*
G02*
X68679000Y-40448000I-225000J0D01*
G01*
X66129000Y-40448000D01*
G75*
G02*
X65904000Y-40223000I0J225000D01*
G01*
X65904000Y-39773000D01*
G75*
G02*
X66129000Y-39548000I225000J0D01*
G01*
X68679000Y-39548000D01*
G75*
G02*
X68904000Y-39773000I0J-225000D01*
G01*
G37*
G36*
G01*
X68904000Y-41043000D02*
X68904000Y-41493000D01*
G75*
G02*
X68679000Y-41718000I-225000J0D01*
G01*
X66129000Y-41718000D01*
G75*
G02*
X65904000Y-41493000I0J225000D01*
G01*
X65904000Y-41043000D01*
G75*
G02*
X66129000Y-40818000I225000J0D01*
G01*
X68679000Y-40818000D01*
G75*
G02*
X68904000Y-41043000I0J-225000D01*
G01*
G37*
G36*
G01*
X68904000Y-42313000D02*
X68904000Y-42763000D01*
G75*
G02*
X68679000Y-42988000I-225000J0D01*
G01*
X66129000Y-42988000D01*
G75*
G02*
X65904000Y-42763000I0J225000D01*
G01*
X65904000Y-42313000D01*
G75*
G02*
X66129000Y-42088000I225000J0D01*
G01*
X68679000Y-42088000D01*
G75*
G02*
X68904000Y-42313000I0J-225000D01*
G01*
G37*
G36*
G01*
X68904000Y-43583000D02*
X68904000Y-44033000D01*
G75*
G02*
X68679000Y-44258000I-225000J0D01*
G01*
X66129000Y-44258000D01*
G75*
G02*
X65904000Y-44033000I0J225000D01*
G01*
X65904000Y-43583000D01*
G75*
G02*
X66129000Y-43358000I225000J0D01*
G01*
X68679000Y-43358000D01*
G75*
G02*
X68904000Y-43583000I0J-225000D01*
G01*
G37*
G36*
G01*
X68904000Y-44853000D02*
X68904000Y-45303000D01*
G75*
G02*
X68679000Y-45528000I-225000J0D01*
G01*
X66129000Y-45528000D01*
G75*
G02*
X65904000Y-45303000I0J225000D01*
G01*
X65904000Y-44853000D01*
G75*
G02*
X66129000Y-44628000I225000J0D01*
G01*
X68679000Y-44628000D01*
G75*
G02*
X68904000Y-44853000I0J-225000D01*
G01*
G37*
G36*
G01*
X68904000Y-46123000D02*
X68904000Y-46573000D01*
G75*
G02*
X68679000Y-46798000I-225000J0D01*
G01*
X66129000Y-46798000D01*
G75*
G02*
X65904000Y-46573000I0J225000D01*
G01*
X65904000Y-46123000D01*
G75*
G02*
X66129000Y-45898000I225000J0D01*
G01*
X68679000Y-45898000D01*
G75*
G02*
X68904000Y-46123000I0J-225000D01*
G01*
G37*
G36*
G01*
X68904000Y-47393000D02*
X68904000Y-47843000D01*
G75*
G02*
X68679000Y-48068000I-225000J0D01*
G01*
X66129000Y-48068000D01*
G75*
G02*
X65904000Y-47843000I0J225000D01*
G01*
X65904000Y-47393000D01*
G75*
G02*
X66129000Y-47168000I225000J0D01*
G01*
X68679000Y-47168000D01*
G75*
G02*
X68904000Y-47393000I0J-225000D01*
G01*
G37*
G36*
G01*
X68904000Y-48663000D02*
X68904000Y-49113000D01*
G75*
G02*
X68679000Y-49338000I-225000J0D01*
G01*
X66129000Y-49338000D01*
G75*
G02*
X65904000Y-49113000I0J225000D01*
G01*
X65904000Y-48663000D01*
G75*
G02*
X66129000Y-48438000I225000J0D01*
G01*
X68679000Y-48438000D01*
G75*
G02*
X68904000Y-48663000I0J-225000D01*
G01*
G37*
G36*
G01*
X68904000Y-49933000D02*
X68904000Y-50383000D01*
G75*
G02*
X68679000Y-50608000I-225000J0D01*
G01*
X66129000Y-50608000D01*
G75*
G02*
X65904000Y-50383000I0J225000D01*
G01*
X65904000Y-49933000D01*
G75*
G02*
X66129000Y-49708000I225000J0D01*
G01*
X68679000Y-49708000D01*
G75*
G02*
X68904000Y-49933000I0J-225000D01*
G01*
G37*
G36*
G01*
X64344000Y-53158000D02*
X63894000Y-53158000D01*
G75*
G02*
X63669000Y-52933000I0J225000D01*
G01*
X63669000Y-50383000D01*
G75*
G02*
X63894000Y-50158000I225000J0D01*
G01*
X64344000Y-50158000D01*
G75*
G02*
X64569000Y-50383000I0J-225000D01*
G01*
X64569000Y-52933000D01*
G75*
G02*
X64344000Y-53158000I-225000J0D01*
G01*
G37*
G36*
G01*
X63074000Y-53158000D02*
X62624000Y-53158000D01*
G75*
G02*
X62399000Y-52933000I0J225000D01*
G01*
X62399000Y-50383000D01*
G75*
G02*
X62624000Y-50158000I225000J0D01*
G01*
X63074000Y-50158000D01*
G75*
G02*
X63299000Y-50383000I0J-225000D01*
G01*
X63299000Y-52933000D01*
G75*
G02*
X63074000Y-53158000I-225000J0D01*
G01*
G37*
G36*
G01*
X61804000Y-53158000D02*
X61354000Y-53158000D01*
G75*
G02*
X61129000Y-52933000I0J225000D01*
G01*
X61129000Y-50383000D01*
G75*
G02*
X61354000Y-50158000I225000J0D01*
G01*
X61804000Y-50158000D01*
G75*
G02*
X62029000Y-50383000I0J-225000D01*
G01*
X62029000Y-52933000D01*
G75*
G02*
X61804000Y-53158000I-225000J0D01*
G01*
G37*
G36*
G01*
X60534000Y-53158000D02*
X60084000Y-53158000D01*
G75*
G02*
X59859000Y-52933000I0J225000D01*
G01*
X59859000Y-50383000D01*
G75*
G02*
X60084000Y-50158000I225000J0D01*
G01*
X60534000Y-50158000D01*
G75*
G02*
X60759000Y-50383000I0J-225000D01*
G01*
X60759000Y-52933000D01*
G75*
G02*
X60534000Y-53158000I-225000J0D01*
G01*
G37*
G36*
G01*
X59264000Y-53158000D02*
X58814000Y-53158000D01*
G75*
G02*
X58589000Y-52933000I0J225000D01*
G01*
X58589000Y-50383000D01*
G75*
G02*
X58814000Y-50158000I225000J0D01*
G01*
X59264000Y-50158000D01*
G75*
G02*
X59489000Y-50383000I0J-225000D01*
G01*
X59489000Y-52933000D01*
G75*
G02*
X59264000Y-53158000I-225000J0D01*
G01*
G37*
G36*
G01*
X57994000Y-53158000D02*
X57544000Y-53158000D01*
G75*
G02*
X57319000Y-52933000I0J225000D01*
G01*
X57319000Y-50383000D01*
G75*
G02*
X57544000Y-50158000I225000J0D01*
G01*
X57994000Y-50158000D01*
G75*
G02*
X58219000Y-50383000I0J-225000D01*
G01*
X58219000Y-52933000D01*
G75*
G02*
X57994000Y-53158000I-225000J0D01*
G01*
G37*
G36*
G01*
X56724000Y-53158000D02*
X56274000Y-53158000D01*
G75*
G02*
X56049000Y-52933000I0J225000D01*
G01*
X56049000Y-50383000D01*
G75*
G02*
X56274000Y-50158000I225000J0D01*
G01*
X56724000Y-50158000D01*
G75*
G02*
X56949000Y-50383000I0J-225000D01*
G01*
X56949000Y-52933000D01*
G75*
G02*
X56724000Y-53158000I-225000J0D01*
G01*
G37*
G36*
G01*
X55454000Y-53158000D02*
X55004000Y-53158000D01*
G75*
G02*
X54779000Y-52933000I0J225000D01*
G01*
X54779000Y-50383000D01*
G75*
G02*
X55004000Y-50158000I225000J0D01*
G01*
X55454000Y-50158000D01*
G75*
G02*
X55679000Y-50383000I0J-225000D01*
G01*
X55679000Y-52933000D01*
G75*
G02*
X55454000Y-53158000I-225000J0D01*
G01*
G37*
G36*
G01*
X54184000Y-53158000D02*
X53734000Y-53158000D01*
G75*
G02*
X53509000Y-52933000I0J225000D01*
G01*
X53509000Y-50383000D01*
G75*
G02*
X53734000Y-50158000I225000J0D01*
G01*
X54184000Y-50158000D01*
G75*
G02*
X54409000Y-50383000I0J-225000D01*
G01*
X54409000Y-52933000D01*
G75*
G02*
X54184000Y-53158000I-225000J0D01*
G01*
G37*
G36*
G01*
X52914000Y-53158000D02*
X52464000Y-53158000D01*
G75*
G02*
X52239000Y-52933000I0J225000D01*
G01*
X52239000Y-50383000D01*
G75*
G02*
X52464000Y-50158000I225000J0D01*
G01*
X52914000Y-50158000D01*
G75*
G02*
X53139000Y-50383000I0J-225000D01*
G01*
X53139000Y-52933000D01*
G75*
G02*
X52914000Y-53158000I-225000J0D01*
G01*
G37*
G36*
G01*
X47904000Y-50383000D02*
X47904000Y-49933000D01*
G75*
G02*
X48129000Y-49708000I225000J0D01*
G01*
X50679000Y-49708000D01*
G75*
G02*
X50904000Y-49933000I0J-225000D01*
G01*
X50904000Y-50383000D01*
G75*
G02*
X50679000Y-50608000I-225000J0D01*
G01*
X48129000Y-50608000D01*
G75*
G02*
X47904000Y-50383000I0J225000D01*
G01*
G37*
G36*
G01*
X47904000Y-49113000D02*
X47904000Y-48663000D01*
G75*
G02*
X48129000Y-48438000I225000J0D01*
G01*
X50679000Y-48438000D01*
G75*
G02*
X50904000Y-48663000I0J-225000D01*
G01*
X50904000Y-49113000D01*
G75*
G02*
X50679000Y-49338000I-225000J0D01*
G01*
X48129000Y-49338000D01*
G75*
G02*
X47904000Y-49113000I0J225000D01*
G01*
G37*
G36*
G01*
X47904000Y-47843000D02*
X47904000Y-47393000D01*
G75*
G02*
X48129000Y-47168000I225000J0D01*
G01*
X50679000Y-47168000D01*
G75*
G02*
X50904000Y-47393000I0J-225000D01*
G01*
X50904000Y-47843000D01*
G75*
G02*
X50679000Y-48068000I-225000J0D01*
G01*
X48129000Y-48068000D01*
G75*
G02*
X47904000Y-47843000I0J225000D01*
G01*
G37*
G36*
G01*
X47904000Y-46573000D02*
X47904000Y-46123000D01*
G75*
G02*
X48129000Y-45898000I225000J0D01*
G01*
X50679000Y-45898000D01*
G75*
G02*
X50904000Y-46123000I0J-225000D01*
G01*
X50904000Y-46573000D01*
G75*
G02*
X50679000Y-46798000I-225000J0D01*
G01*
X48129000Y-46798000D01*
G75*
G02*
X47904000Y-46573000I0J225000D01*
G01*
G37*
G36*
G01*
X47904000Y-45303000D02*
X47904000Y-44853000D01*
G75*
G02*
X48129000Y-44628000I225000J0D01*
G01*
X50679000Y-44628000D01*
G75*
G02*
X50904000Y-44853000I0J-225000D01*
G01*
X50904000Y-45303000D01*
G75*
G02*
X50679000Y-45528000I-225000J0D01*
G01*
X48129000Y-45528000D01*
G75*
G02*
X47904000Y-45303000I0J225000D01*
G01*
G37*
G36*
G01*
X47904000Y-44033000D02*
X47904000Y-43583000D01*
G75*
G02*
X48129000Y-43358000I225000J0D01*
G01*
X50679000Y-43358000D01*
G75*
G02*
X50904000Y-43583000I0J-225000D01*
G01*
X50904000Y-44033000D01*
G75*
G02*
X50679000Y-44258000I-225000J0D01*
G01*
X48129000Y-44258000D01*
G75*
G02*
X47904000Y-44033000I0J225000D01*
G01*
G37*
G36*
G01*
X47904000Y-42763000D02*
X47904000Y-42313000D01*
G75*
G02*
X48129000Y-42088000I225000J0D01*
G01*
X50679000Y-42088000D01*
G75*
G02*
X50904000Y-42313000I0J-225000D01*
G01*
X50904000Y-42763000D01*
G75*
G02*
X50679000Y-42988000I-225000J0D01*
G01*
X48129000Y-42988000D01*
G75*
G02*
X47904000Y-42763000I0J225000D01*
G01*
G37*
G36*
G01*
X47904000Y-41493000D02*
X47904000Y-41043000D01*
G75*
G02*
X48129000Y-40818000I225000J0D01*
G01*
X50679000Y-40818000D01*
G75*
G02*
X50904000Y-41043000I0J-225000D01*
G01*
X50904000Y-41493000D01*
G75*
G02*
X50679000Y-41718000I-225000J0D01*
G01*
X48129000Y-41718000D01*
G75*
G02*
X47904000Y-41493000I0J225000D01*
G01*
G37*
G36*
G01*
X47904000Y-40223000D02*
X47904000Y-39773000D01*
G75*
G02*
X48129000Y-39548000I225000J0D01*
G01*
X50679000Y-39548000D01*
G75*
G02*
X50904000Y-39773000I0J-225000D01*
G01*
X50904000Y-40223000D01*
G75*
G02*
X50679000Y-40448000I-225000J0D01*
G01*
X48129000Y-40448000D01*
G75*
G02*
X47904000Y-40223000I0J225000D01*
G01*
G37*
G36*
G01*
X47904000Y-38953000D02*
X47904000Y-38503000D01*
G75*
G02*
X48129000Y-38278000I225000J0D01*
G01*
X50679000Y-38278000D01*
G75*
G02*
X50904000Y-38503000I0J-225000D01*
G01*
X50904000Y-38953000D01*
G75*
G02*
X50679000Y-39178000I-225000J0D01*
G01*
X48129000Y-39178000D01*
G75*
G02*
X47904000Y-38953000I0J225000D01*
G01*
G37*
G36*
G01*
X47904000Y-37683000D02*
X47904000Y-37233000D01*
G75*
G02*
X48129000Y-37008000I225000J0D01*
G01*
X50679000Y-37008000D01*
G75*
G02*
X50904000Y-37233000I0J-225000D01*
G01*
X50904000Y-37683000D01*
G75*
G02*
X50679000Y-37908000I-225000J0D01*
G01*
X48129000Y-37908000D01*
G75*
G02*
X47904000Y-37683000I0J225000D01*
G01*
G37*
G36*
G01*
X47904000Y-36413000D02*
X47904000Y-35963000D01*
G75*
G02*
X48129000Y-35738000I225000J0D01*
G01*
X50679000Y-35738000D01*
G75*
G02*
X50904000Y-35963000I0J-225000D01*
G01*
X50904000Y-36413000D01*
G75*
G02*
X50679000Y-36638000I-225000J0D01*
G01*
X48129000Y-36638000D01*
G75*
G02*
X47904000Y-36413000I0J225000D01*
G01*
G37*
G36*
G01*
X47904000Y-35143000D02*
X47904000Y-34693000D01*
G75*
G02*
X48129000Y-34468000I225000J0D01*
G01*
X50679000Y-34468000D01*
G75*
G02*
X50904000Y-34693000I0J-225000D01*
G01*
X50904000Y-35143000D01*
G75*
G02*
X50679000Y-35368000I-225000J0D01*
G01*
X48129000Y-35368000D01*
G75*
G02*
X47904000Y-35143000I0J225000D01*
G01*
G37*
G36*
G01*
X47904000Y-33873000D02*
X47904000Y-33423000D01*
G75*
G02*
X48129000Y-33198000I225000J0D01*
G01*
X50679000Y-33198000D01*
G75*
G02*
X50904000Y-33423000I0J-225000D01*
G01*
X50904000Y-33873000D01*
G75*
G02*
X50679000Y-34098000I-225000J0D01*
G01*
X48129000Y-34098000D01*
G75*
G02*
X47904000Y-33873000I0J225000D01*
G01*
G37*
D36*
X57404000Y-41148000D03*
G36*
G01*
X44312000Y-36306997D02*
X44312000Y-37607003D01*
G75*
G02*
X44062003Y-37857000I-249997J0D01*
G01*
X43236997Y-37857000D01*
G75*
G02*
X42987000Y-37607003I0J249997D01*
G01*
X42987000Y-36306997D01*
G75*
G02*
X43236997Y-36057000I249997J0D01*
G01*
X44062003Y-36057000D01*
G75*
G02*
X44312000Y-36306997I0J-249997D01*
G01*
G37*
G36*
G01*
X47437000Y-36306997D02*
X47437000Y-37607003D01*
G75*
G02*
X47187003Y-37857000I-249997J0D01*
G01*
X46361997Y-37857000D01*
G75*
G02*
X46112000Y-37607003I0J249997D01*
G01*
X46112000Y-36306997D01*
G75*
G02*
X46361997Y-36057000I249997J0D01*
G01*
X47187003Y-36057000D01*
G75*
G02*
X47437000Y-36306997I0J-249997D01*
G01*
G37*
G36*
G01*
X45397000Y-34323000D02*
X45397000Y-35273000D01*
G75*
G02*
X45147000Y-35523000I-250000J0D01*
G01*
X44472000Y-35523000D01*
G75*
G02*
X44222000Y-35273000I0J250000D01*
G01*
X44222000Y-34323000D01*
G75*
G02*
X44472000Y-34073000I250000J0D01*
G01*
X45147000Y-34073000D01*
G75*
G02*
X45397000Y-34323000I0J-250000D01*
G01*
G37*
G36*
G01*
X47472000Y-34323000D02*
X47472000Y-35273000D01*
G75*
G02*
X47222000Y-35523000I-250000J0D01*
G01*
X46547000Y-35523000D01*
G75*
G02*
X46297000Y-35273000I0J250000D01*
G01*
X46297000Y-34323000D01*
G75*
G02*
X46547000Y-34073000I250000J0D01*
G01*
X47222000Y-34073000D01*
G75*
G02*
X47472000Y-34323000I0J-250000D01*
G01*
G37*
D20*
X88011000Y-53307000D03*
X88011000Y-50807000D03*
X88011000Y-48307000D03*
X88011000Y-45807000D03*
G36*
G01*
X87286000Y-42457000D02*
X88736000Y-42457000D01*
G75*
G02*
X88986000Y-42707000I0J-250000D01*
G01*
X88986000Y-43907000D01*
G75*
G02*
X88736000Y-44157000I-250000J0D01*
G01*
X87286000Y-44157000D01*
G75*
G02*
X87036000Y-43907000I0J250000D01*
G01*
X87036000Y-42707000D01*
G75*
G02*
X87286000Y-42457000I250000J0D01*
G01*
G37*
D19*
X29527500Y-40690800D03*
X29527500Y-44190800D03*
X29527500Y-47690800D03*
G36*
G01*
X31077500Y-52090800D02*
X27977500Y-52090800D01*
G75*
G02*
X27727500Y-51840800I0J250000D01*
G01*
X27727500Y-50540800D01*
G75*
G02*
X27977500Y-50290800I250000J0D01*
G01*
X31077500Y-50290800D01*
G75*
G02*
X31327500Y-50540800I0J-250000D01*
G01*
X31327500Y-51840800D01*
G75*
G02*
X31077500Y-52090800I-250000J0D01*
G01*
G37*
D30*
X38500000Y-87000000D03*
D37*
X54977000Y-67658000D03*
X59577000Y-67658000D03*
X57277000Y-67658000D03*
D38*
X57277000Y-60358000D03*
D23*
X86995000Y-24765000D03*
D39*
X89535000Y-24765000D03*
G36*
G01*
X55107000Y-73898997D02*
X55107000Y-75199003D01*
G75*
G02*
X54857003Y-75449000I-249997J0D01*
G01*
X54031997Y-75449000D01*
G75*
G02*
X53782000Y-75199003I0J249997D01*
G01*
X53782000Y-73898997D01*
G75*
G02*
X54031997Y-73649000I249997J0D01*
G01*
X54857003Y-73649000D01*
G75*
G02*
X55107000Y-73898997I0J-249997D01*
G01*
G37*
G36*
G01*
X58232000Y-73898997D02*
X58232000Y-75199003D01*
G75*
G02*
X57982003Y-75449000I-249997J0D01*
G01*
X57156997Y-75449000D01*
G75*
G02*
X56907000Y-75199003I0J249997D01*
G01*
X56907000Y-73898997D01*
G75*
G02*
X57156997Y-73649000I249997J0D01*
G01*
X57982003Y-73649000D01*
G75*
G02*
X58232000Y-73898997I0J-249997D01*
G01*
G37*
D30*
X72500000Y-87000000D03*
G36*
G01*
X55107000Y-71485997D02*
X55107000Y-72786003D01*
G75*
G02*
X54857003Y-73036000I-249997J0D01*
G01*
X54031997Y-73036000D01*
G75*
G02*
X53782000Y-72786003I0J249997D01*
G01*
X53782000Y-71485997D01*
G75*
G02*
X54031997Y-71236000I249997J0D01*
G01*
X54857003Y-71236000D01*
G75*
G02*
X55107000Y-71485997I0J-249997D01*
G01*
G37*
G36*
G01*
X58232000Y-71485997D02*
X58232000Y-72786003D01*
G75*
G02*
X57982003Y-73036000I-249997J0D01*
G01*
X57156997Y-73036000D01*
G75*
G02*
X56907000Y-72786003I0J249997D01*
G01*
X56907000Y-71485997D01*
G75*
G02*
X57156997Y-71236000I249997J0D01*
G01*
X57982003Y-71236000D01*
G75*
G02*
X58232000Y-71485997I0J-249997D01*
G01*
G37*
G36*
G01*
X55684000Y-69502000D02*
X55684000Y-70452000D01*
G75*
G02*
X55434000Y-70702000I-250000J0D01*
G01*
X54759000Y-70702000D01*
G75*
G02*
X54509000Y-70452000I0J250000D01*
G01*
X54509000Y-69502000D01*
G75*
G02*
X54759000Y-69252000I250000J0D01*
G01*
X55434000Y-69252000D01*
G75*
G02*
X55684000Y-69502000I0J-250000D01*
G01*
G37*
G36*
G01*
X57759000Y-69502000D02*
X57759000Y-70452000D01*
G75*
G02*
X57509000Y-70702000I-250000J0D01*
G01*
X56834000Y-70702000D01*
G75*
G02*
X56584000Y-70452000I0J250000D01*
G01*
X56584000Y-69502000D01*
G75*
G02*
X56834000Y-69252000I250000J0D01*
G01*
X57509000Y-69252000D01*
G75*
G02*
X57759000Y-69502000I0J-250000D01*
G01*
G37*
G36*
G01*
X61987000Y-70881003D02*
X61987000Y-69580997D01*
G75*
G02*
X62236997Y-69331000I249997J0D01*
G01*
X63062003Y-69331000D01*
G75*
G02*
X63312000Y-69580997I0J-249997D01*
G01*
X63312000Y-70881003D01*
G75*
G02*
X63062003Y-71131000I-249997J0D01*
G01*
X62236997Y-71131000D01*
G75*
G02*
X61987000Y-70881003I0J249997D01*
G01*
G37*
G36*
G01*
X58862000Y-70881003D02*
X58862000Y-69580997D01*
G75*
G02*
X59111997Y-69331000I249997J0D01*
G01*
X59937003Y-69331000D01*
G75*
G02*
X60187000Y-69580997I0J-249997D01*
G01*
X60187000Y-70881003D01*
G75*
G02*
X59937003Y-71131000I-249997J0D01*
G01*
X59111997Y-71131000D01*
G75*
G02*
X58862000Y-70881003I0J249997D01*
G01*
G37*
D34*
X35941000Y-42367200D03*
X38481000Y-42367200D03*
D35*
X41021000Y-42367200D03*
G36*
G01*
X52865000Y-85286000D02*
X53815000Y-85286000D01*
G75*
G02*
X54065000Y-85536000I0J-250000D01*
G01*
X54065000Y-86211000D01*
G75*
G02*
X53815000Y-86461000I-250000J0D01*
G01*
X52865000Y-86461000D01*
G75*
G02*
X52615000Y-86211000I0J250000D01*
G01*
X52615000Y-85536000D01*
G75*
G02*
X52865000Y-85286000I250000J0D01*
G01*
G37*
G36*
G01*
X52865000Y-83211000D02*
X53815000Y-83211000D01*
G75*
G02*
X54065000Y-83461000I0J-250000D01*
G01*
X54065000Y-84136000D01*
G75*
G02*
X53815000Y-84386000I-250000J0D01*
G01*
X52865000Y-84386000D01*
G75*
G02*
X52615000Y-84136000I0J250000D01*
G01*
X52615000Y-83461000D01*
G75*
G02*
X52865000Y-83211000I250000J0D01*
G01*
G37*
G36*
G01*
X35442999Y-93737000D02*
X36693001Y-93737000D01*
G75*
G02*
X36943000Y-93986999I0J-249999D01*
G01*
X36943000Y-94787001D01*
G75*
G02*
X36693001Y-95037000I-249999J0D01*
G01*
X35442999Y-95037000D01*
G75*
G02*
X35193000Y-94787001I0J249999D01*
G01*
X35193000Y-93986999D01*
G75*
G02*
X35442999Y-93737000I249999J0D01*
G01*
G37*
G36*
G01*
X35442999Y-90637000D02*
X36693001Y-90637000D01*
G75*
G02*
X36943000Y-90886999I0J-249999D01*
G01*
X36943000Y-91687001D01*
G75*
G02*
X36693001Y-91937000I-249999J0D01*
G01*
X35442999Y-91937000D01*
G75*
G02*
X35193000Y-91687001I0J249999D01*
G01*
X35193000Y-90886999D01*
G75*
G02*
X35442999Y-90637000I249999J0D01*
G01*
G37*
G36*
G01*
X63557999Y-88995200D02*
X64458001Y-88995200D01*
G75*
G02*
X64708000Y-89245199I0J-249999D01*
G01*
X64708000Y-89945201D01*
G75*
G02*
X64458001Y-90195200I-249999J0D01*
G01*
X63557999Y-90195200D01*
G75*
G02*
X63308000Y-89945201I0J249999D01*
G01*
X63308000Y-89245199D01*
G75*
G02*
X63557999Y-88995200I249999J0D01*
G01*
G37*
G36*
G01*
X63557999Y-86995200D02*
X64458001Y-86995200D01*
G75*
G02*
X64708000Y-87245199I0J-249999D01*
G01*
X64708000Y-87945201D01*
G75*
G02*
X64458001Y-88195200I-249999J0D01*
G01*
X63557999Y-88195200D01*
G75*
G02*
X63308000Y-87945201I0J249999D01*
G01*
X63308000Y-87245199D01*
G75*
G02*
X63557999Y-86995200I249999J0D01*
G01*
G37*
D34*
X35941000Y-47599600D03*
X38481000Y-47599600D03*
D35*
X41021000Y-47599600D03*
D34*
X35941000Y-23368000D03*
X38481000Y-23368000D03*
D35*
X41021000Y-23368000D03*
D34*
X35941000Y-52832000D03*
X38481000Y-52832000D03*
D35*
X41021000Y-52832000D03*
D19*
X29527500Y-24193500D03*
X29527500Y-27693500D03*
X29527500Y-31193500D03*
G36*
G01*
X31077500Y-35593500D02*
X27977500Y-35593500D01*
G75*
G02*
X27727500Y-35343500I0J250000D01*
G01*
X27727500Y-34043500D01*
G75*
G02*
X27977500Y-33793500I250000J0D01*
G01*
X31077500Y-33793500D01*
G75*
G02*
X31327500Y-34043500I0J-250000D01*
G01*
X31327500Y-35343500D01*
G75*
G02*
X31077500Y-35593500I-250000J0D01*
G01*
G37*
D40*
X29019500Y-98742500D03*
G36*
G01*
X27469497Y-92622500D02*
X30569503Y-92622500D01*
G75*
G02*
X30819500Y-92872497I0J-249997D01*
G01*
X30819500Y-94452503D01*
G75*
G02*
X30569503Y-94702500I-249997J0D01*
G01*
X27469497Y-94702500D01*
G75*
G02*
X27219500Y-94452503I0J249997D01*
G01*
X27219500Y-92872497D01*
G75*
G02*
X27469497Y-92622500I249997J0D01*
G01*
G37*
X29083000Y-85471000D03*
G36*
G01*
X27532997Y-79351000D02*
X30633003Y-79351000D01*
G75*
G02*
X30883000Y-79600997I0J-249997D01*
G01*
X30883000Y-81181003D01*
G75*
G02*
X30633003Y-81431000I-249997J0D01*
G01*
X27532997Y-81431000D01*
G75*
G02*
X27283000Y-81181003I0J249997D01*
G01*
X27283000Y-79600997D01*
G75*
G02*
X27532997Y-79351000I249997J0D01*
G01*
G37*
D30*
X38500000Y-37000000D03*
X72500000Y-37000000D03*
D41*
X59345200Y-96520000D03*
X54345200Y-96520000D03*
G36*
G01*
X36718003Y-97017000D02*
X35417997Y-97017000D01*
G75*
G02*
X35168000Y-96767003I0J249997D01*
G01*
X35168000Y-95941997D01*
G75*
G02*
X35417997Y-95692000I249997J0D01*
G01*
X36718003Y-95692000D01*
G75*
G02*
X36968000Y-95941997I0J-249997D01*
G01*
X36968000Y-96767003D01*
G75*
G02*
X36718003Y-97017000I-249997J0D01*
G01*
G37*
G36*
G01*
X36718003Y-100142000D02*
X35417997Y-100142000D01*
G75*
G02*
X35168000Y-99892003I0J249997D01*
G01*
X35168000Y-99066997D01*
G75*
G02*
X35417997Y-98817000I249997J0D01*
G01*
X36718003Y-98817000D01*
G75*
G02*
X36968000Y-99066997I0J-249997D01*
G01*
X36968000Y-99892003D01*
G75*
G02*
X36718003Y-100142000I-249997J0D01*
G01*
G37*
G36*
G01*
X53815000Y-88246800D02*
X52865000Y-88246800D01*
G75*
G02*
X52615000Y-87996800I0J250000D01*
G01*
X52615000Y-87321800D01*
G75*
G02*
X52865000Y-87071800I250000J0D01*
G01*
X53815000Y-87071800D01*
G75*
G02*
X54065000Y-87321800I0J-250000D01*
G01*
X54065000Y-87996800D01*
G75*
G02*
X53815000Y-88246800I-250000J0D01*
G01*
G37*
G36*
G01*
X53815000Y-90321800D02*
X52865000Y-90321800D01*
G75*
G02*
X52615000Y-90071800I0J250000D01*
G01*
X52615000Y-89396800D01*
G75*
G02*
X52865000Y-89146800I250000J0D01*
G01*
X53815000Y-89146800D01*
G75*
G02*
X54065000Y-89396800I0J-250000D01*
G01*
X54065000Y-90071800D01*
G75*
G02*
X53815000Y-90321800I-250000J0D01*
G01*
G37*
G36*
G01*
X59508400Y-91005998D02*
X59508400Y-93906002D01*
G75*
G02*
X59258402Y-94156000I-249998J0D01*
G01*
X58183398Y-94156000D01*
G75*
G02*
X57933400Y-93906002I0J249998D01*
G01*
X57933400Y-91005998D01*
G75*
G02*
X58183398Y-90756000I249998J0D01*
G01*
X59258402Y-90756000D01*
G75*
G02*
X59508400Y-91005998I0J-249998D01*
G01*
G37*
G36*
G01*
X63783400Y-91005998D02*
X63783400Y-93906002D01*
G75*
G02*
X63533402Y-94156000I-249998J0D01*
G01*
X62458398Y-94156000D01*
G75*
G02*
X62208400Y-93906002I0J249998D01*
G01*
X62208400Y-91005998D01*
G75*
G02*
X62458398Y-90756000I249998J0D01*
G01*
X63533402Y-90756000D01*
G75*
G02*
X63783400Y-91005998I0J-249998D01*
G01*
G37*
G36*
G01*
X68506002Y-84298800D02*
X65605998Y-84298800D01*
G75*
G02*
X65356000Y-84048802I0J249998D01*
G01*
X65356000Y-82973798D01*
G75*
G02*
X65605998Y-82723800I249998J0D01*
G01*
X68506002Y-82723800D01*
G75*
G02*
X68756000Y-82973798I0J-249998D01*
G01*
X68756000Y-84048802D01*
G75*
G02*
X68506002Y-84298800I-249998J0D01*
G01*
G37*
G36*
G01*
X68506002Y-88573800D02*
X65605998Y-88573800D01*
G75*
G02*
X65356000Y-88323802I0J249998D01*
G01*
X65356000Y-87248798D01*
G75*
G02*
X65605998Y-86998800I249998J0D01*
G01*
X68506002Y-86998800D01*
G75*
G02*
X68756000Y-87248798I0J-249998D01*
G01*
X68756000Y-88323802D01*
G75*
G02*
X68506002Y-88573800I-249998J0D01*
G01*
G37*
M02*
