%TF.GenerationSoftware,KiCad,Pcbnew,(5.1.8)-1*%
%TF.CreationDate,2021-03-17T21:52:08+01:00*%
%TF.ProjectId,sensactOutdoor,73656e73-6163-4744-9f75-74646f6f722e,rev?*%
%TF.SameCoordinates,Original*%
%TF.FileFunction,Legend,Top*%
%TF.FilePolarity,Positive*%
%FSLAX46Y46*%
G04 Gerber Fmt 4.6, Leading zero omitted, Abs format (unit mm)*
G04 Created by KiCad (PCBNEW (5.1.8)-1) date 2021-03-17 21:52:08*
%MOMM*%
%LPD*%
G01*
G04 APERTURE LIST*
%ADD10C,0.250000*%
%ADD11C,0.120000*%
%ADD12C,0.152400*%
%ADD13C,0.200000*%
%ADD14C,0.203200*%
%ADD15C,0.127000*%
%ADD16C,0.150000*%
G04 APERTURE END LIST*
D10*
X76922857Y-30873000D02*
X76827619Y-30801571D01*
X76684761Y-30801571D01*
X76541904Y-30873000D01*
X76446666Y-31015857D01*
X76399047Y-31158714D01*
X76351428Y-31444428D01*
X76351428Y-31658714D01*
X76399047Y-31944428D01*
X76446666Y-32087285D01*
X76541904Y-32230142D01*
X76684761Y-32301571D01*
X76780000Y-32301571D01*
X76922857Y-32230142D01*
X76970476Y-32158714D01*
X76970476Y-31658714D01*
X76780000Y-31658714D01*
X78065714Y-30801571D02*
X78303809Y-32301571D01*
X78494285Y-31230142D01*
X78684761Y-32301571D01*
X78922857Y-30801571D01*
X79256190Y-32230142D02*
X79399047Y-32301571D01*
X79637142Y-32301571D01*
X79732380Y-32230142D01*
X79780000Y-32158714D01*
X79827619Y-32015857D01*
X79827619Y-31873000D01*
X79780000Y-31730142D01*
X79732380Y-31658714D01*
X79637142Y-31587285D01*
X79446666Y-31515857D01*
X79351428Y-31444428D01*
X79303809Y-31373000D01*
X79256190Y-31230142D01*
X79256190Y-31087285D01*
X79303809Y-30944428D01*
X79351428Y-30873000D01*
X79446666Y-30801571D01*
X79684761Y-30801571D01*
X79827619Y-30873000D01*
X80208571Y-30944428D02*
X80256190Y-30873000D01*
X80351428Y-30801571D01*
X80589523Y-30801571D01*
X80684761Y-30873000D01*
X80732380Y-30944428D01*
X80780000Y-31087285D01*
X80780000Y-31230142D01*
X80732380Y-31444428D01*
X80160952Y-32301571D01*
X80780000Y-32301571D01*
X81351428Y-31444428D02*
X81256190Y-31373000D01*
X81208571Y-31301571D01*
X81160952Y-31158714D01*
X81160952Y-31087285D01*
X81208571Y-30944428D01*
X81256190Y-30873000D01*
X81351428Y-30801571D01*
X81541904Y-30801571D01*
X81637142Y-30873000D01*
X81684761Y-30944428D01*
X81732380Y-31087285D01*
X81732380Y-31158714D01*
X81684761Y-31301571D01*
X81637142Y-31373000D01*
X81541904Y-31444428D01*
X81351428Y-31444428D01*
X81256190Y-31515857D01*
X81208571Y-31587285D01*
X81160952Y-31730142D01*
X81160952Y-32015857D01*
X81208571Y-32158714D01*
X81256190Y-32230142D01*
X81351428Y-32301571D01*
X81541904Y-32301571D01*
X81637142Y-32230142D01*
X81684761Y-32158714D01*
X81732380Y-32015857D01*
X81732380Y-31730142D01*
X81684761Y-31587285D01*
X81637142Y-31515857D01*
X81541904Y-31444428D01*
X82684761Y-32301571D02*
X82113333Y-32301571D01*
X82399047Y-32301571D02*
X82399047Y-30801571D01*
X82303809Y-31015857D01*
X82208571Y-31158714D01*
X82113333Y-31230142D01*
X83065714Y-30944428D02*
X83113333Y-30873000D01*
X83208571Y-30801571D01*
X83446666Y-30801571D01*
X83541904Y-30873000D01*
X83589523Y-30944428D01*
X83637142Y-31087285D01*
X83637142Y-31230142D01*
X83589523Y-31444428D01*
X83018095Y-32301571D01*
X83637142Y-32301571D01*
X85303809Y-30801571D02*
X84827619Y-30801571D01*
X84780000Y-31515857D01*
X84827619Y-31444428D01*
X84922857Y-31373000D01*
X85160952Y-31373000D01*
X85256190Y-31444428D01*
X85303809Y-31515857D01*
X85351428Y-31658714D01*
X85351428Y-32015857D01*
X85303809Y-32158714D01*
X85256190Y-32230142D01*
X85160952Y-32301571D01*
X84922857Y-32301571D01*
X84827619Y-32230142D01*
X84780000Y-32158714D01*
X85637142Y-30801571D02*
X85970476Y-32301571D01*
X86303809Y-30801571D01*
X38421166Y-74922571D02*
X38421166Y-75922571D01*
X38183071Y-74351142D02*
X37944976Y-75422571D01*
X38564023Y-75422571D01*
X39087833Y-75065428D02*
X38992595Y-74994000D01*
X38944976Y-74922571D01*
X38897357Y-74779714D01*
X38897357Y-74708285D01*
X38944976Y-74565428D01*
X38992595Y-74494000D01*
X39087833Y-74422571D01*
X39278309Y-74422571D01*
X39373547Y-74494000D01*
X39421166Y-74565428D01*
X39468785Y-74708285D01*
X39468785Y-74779714D01*
X39421166Y-74922571D01*
X39373547Y-74994000D01*
X39278309Y-75065428D01*
X39087833Y-75065428D01*
X38992595Y-75136857D01*
X38944976Y-75208285D01*
X38897357Y-75351142D01*
X38897357Y-75636857D01*
X38944976Y-75779714D01*
X38992595Y-75851142D01*
X39087833Y-75922571D01*
X39278309Y-75922571D01*
X39373547Y-75851142D01*
X39421166Y-75779714D01*
X39468785Y-75636857D01*
X39468785Y-75351142D01*
X39421166Y-75208285D01*
X39373547Y-75136857D01*
X39278309Y-75065428D01*
X39754500Y-74422571D02*
X40087833Y-75922571D01*
X40421166Y-74422571D01*
X38516404Y-76994000D02*
X38421166Y-76922571D01*
X38278309Y-76922571D01*
X38135452Y-76994000D01*
X38040214Y-77136857D01*
X37992595Y-77279714D01*
X37944976Y-77565428D01*
X37944976Y-77779714D01*
X37992595Y-78065428D01*
X38040214Y-78208285D01*
X38135452Y-78351142D01*
X38278309Y-78422571D01*
X38373547Y-78422571D01*
X38516404Y-78351142D01*
X38564023Y-78279714D01*
X38564023Y-77779714D01*
X38373547Y-77779714D01*
X38992595Y-78422571D02*
X38992595Y-76922571D01*
X39564023Y-78422571D01*
X39564023Y-76922571D01*
X40040214Y-78422571D02*
X40040214Y-76922571D01*
X40278309Y-76922571D01*
X40421166Y-76994000D01*
X40516404Y-77136857D01*
X40564023Y-77279714D01*
X40611642Y-77565428D01*
X40611642Y-77779714D01*
X40564023Y-78065428D01*
X40516404Y-78208285D01*
X40421166Y-78351142D01*
X40278309Y-78422571D01*
X40040214Y-78422571D01*
X38183071Y-79422571D02*
X38373547Y-79422571D01*
X38468785Y-79494000D01*
X38564023Y-79636857D01*
X38611642Y-79922571D01*
X38611642Y-80422571D01*
X38564023Y-80708285D01*
X38468785Y-80851142D01*
X38373547Y-80922571D01*
X38183071Y-80922571D01*
X38087833Y-80851142D01*
X37992595Y-80708285D01*
X37944976Y-80422571D01*
X37944976Y-79922571D01*
X37992595Y-79636857D01*
X38087833Y-79494000D01*
X38183071Y-79422571D01*
X39040214Y-79422571D02*
X39040214Y-80636857D01*
X39087833Y-80779714D01*
X39135452Y-80851142D01*
X39230690Y-80922571D01*
X39421166Y-80922571D01*
X39516404Y-80851142D01*
X39564023Y-80779714D01*
X39611642Y-80636857D01*
X39611642Y-79422571D01*
X39944976Y-79422571D02*
X40516404Y-79422571D01*
X40230690Y-80922571D02*
X40230690Y-79422571D01*
X40849738Y-80351142D02*
X41611642Y-80351142D01*
X41230690Y-80922571D02*
X41230690Y-79779714D01*
X38183071Y-81922571D02*
X38373547Y-81922571D01*
X38468785Y-81994000D01*
X38564023Y-82136857D01*
X38611642Y-82422571D01*
X38611642Y-82922571D01*
X38564023Y-83208285D01*
X38468785Y-83351142D01*
X38373547Y-83422571D01*
X38183071Y-83422571D01*
X38087833Y-83351142D01*
X37992595Y-83208285D01*
X37944976Y-82922571D01*
X37944976Y-82422571D01*
X37992595Y-82136857D01*
X38087833Y-81994000D01*
X38183071Y-81922571D01*
X39040214Y-81922571D02*
X39040214Y-83136857D01*
X39087833Y-83279714D01*
X39135452Y-83351142D01*
X39230690Y-83422571D01*
X39421166Y-83422571D01*
X39516404Y-83351142D01*
X39564023Y-83279714D01*
X39611642Y-83136857D01*
X39611642Y-81922571D01*
X39944976Y-81922571D02*
X40516404Y-81922571D01*
X40230690Y-83422571D02*
X40230690Y-81922571D01*
X40849738Y-82851142D02*
X41611642Y-82851142D01*
X45104595Y-24360571D02*
X45104595Y-22860571D01*
X45485547Y-22860571D01*
X45580785Y-22932000D01*
X45628404Y-23003428D01*
X45676023Y-23146285D01*
X45676023Y-23360571D01*
X45628404Y-23503428D01*
X45580785Y-23574857D01*
X45485547Y-23646285D01*
X45104595Y-23646285D01*
X46009357Y-22860571D02*
X46247452Y-24360571D01*
X46437928Y-23289142D01*
X46628404Y-24360571D01*
X46866500Y-22860571D01*
X47247452Y-24360571D02*
X47247452Y-22860571D01*
X47580785Y-23932000D01*
X47914119Y-22860571D01*
X47914119Y-24360571D01*
X48580785Y-22860571D02*
X48676023Y-22860571D01*
X48771261Y-22932000D01*
X48818880Y-23003428D01*
X48866500Y-23146285D01*
X48914119Y-23432000D01*
X48914119Y-23789142D01*
X48866500Y-24074857D01*
X48818880Y-24217714D01*
X48771261Y-24289142D01*
X48676023Y-24360571D01*
X48580785Y-24360571D01*
X48485547Y-24289142D01*
X48437928Y-24217714D01*
X48390309Y-24074857D01*
X48342690Y-23789142D01*
X48342690Y-23432000D01*
X48390309Y-23146285D01*
X48437928Y-23003428D01*
X48485547Y-22932000D01*
X48580785Y-22860571D01*
X50104595Y-24217714D02*
X50152214Y-24289142D01*
X50104595Y-24360571D01*
X50056976Y-24289142D01*
X50104595Y-24217714D01*
X50104595Y-24360571D01*
X50580785Y-24217714D02*
X50628404Y-24289142D01*
X50580785Y-24360571D01*
X50533166Y-24289142D01*
X50580785Y-24217714D01*
X50580785Y-24360571D01*
X51056976Y-24217714D02*
X51104595Y-24289142D01*
X51056976Y-24360571D01*
X51009357Y-24289142D01*
X51056976Y-24217714D01*
X51056976Y-24360571D01*
X52295071Y-24360571D02*
X52295071Y-22860571D01*
X52676023Y-22860571D01*
X52771261Y-22932000D01*
X52818880Y-23003428D01*
X52866500Y-23146285D01*
X52866500Y-23360571D01*
X52818880Y-23503428D01*
X52771261Y-23574857D01*
X52676023Y-23646285D01*
X52295071Y-23646285D01*
X53199833Y-22860571D02*
X53437928Y-24360571D01*
X53628404Y-23289142D01*
X53818880Y-24360571D01*
X54056976Y-22860571D01*
X54437928Y-24360571D02*
X54437928Y-22860571D01*
X54771261Y-23932000D01*
X55104595Y-22860571D01*
X55104595Y-24360571D01*
X56009357Y-23360571D02*
X56009357Y-24360571D01*
X55771261Y-22789142D02*
X55533166Y-23860571D01*
X56152214Y-23860571D01*
X45628404Y-25432000D02*
X45533166Y-25360571D01*
X45390309Y-25360571D01*
X45247452Y-25432000D01*
X45152214Y-25574857D01*
X45104595Y-25717714D01*
X45056976Y-26003428D01*
X45056976Y-26217714D01*
X45104595Y-26503428D01*
X45152214Y-26646285D01*
X45247452Y-26789142D01*
X45390309Y-26860571D01*
X45485547Y-26860571D01*
X45628404Y-26789142D01*
X45676023Y-26717714D01*
X45676023Y-26217714D01*
X45485547Y-26217714D01*
X46104595Y-26860571D02*
X46104595Y-25360571D01*
X46676023Y-26860571D01*
X46676023Y-25360571D01*
X47152214Y-26860571D02*
X47152214Y-25360571D01*
X47390309Y-25360571D01*
X47533166Y-25432000D01*
X47628404Y-25574857D01*
X47676023Y-25717714D01*
X47723642Y-26003428D01*
X47723642Y-26217714D01*
X47676023Y-26503428D01*
X47628404Y-26646285D01*
X47533166Y-26789142D01*
X47390309Y-26860571D01*
X47152214Y-26860571D01*
X45104595Y-29360571D02*
X45104595Y-27860571D01*
X45580785Y-29360571D02*
X45580785Y-27860571D01*
X46152214Y-29360571D01*
X46152214Y-27860571D01*
X45295071Y-30360571D02*
X45485547Y-30360571D01*
X45580785Y-30432000D01*
X45676023Y-30574857D01*
X45723642Y-30860571D01*
X45723642Y-31360571D01*
X45676023Y-31646285D01*
X45580785Y-31789142D01*
X45485547Y-31860571D01*
X45295071Y-31860571D01*
X45199833Y-31789142D01*
X45104595Y-31646285D01*
X45056976Y-31360571D01*
X45056976Y-30860571D01*
X45104595Y-30574857D01*
X45199833Y-30432000D01*
X45295071Y-30360571D01*
X46152214Y-30360571D02*
X46152214Y-31574857D01*
X46199833Y-31717714D01*
X46247452Y-31789142D01*
X46342690Y-31860571D01*
X46533166Y-31860571D01*
X46628404Y-31789142D01*
X46676023Y-31717714D01*
X46723642Y-31574857D01*
X46723642Y-30360571D01*
X47056976Y-30360571D02*
X47628404Y-30360571D01*
X47342690Y-31860571D02*
X47342690Y-30360571D01*
X44172476Y-78529571D02*
X44172476Y-77029571D01*
X44553428Y-77029571D01*
X44648666Y-77101000D01*
X44696285Y-77172428D01*
X44743904Y-77315285D01*
X44743904Y-77529571D01*
X44696285Y-77672428D01*
X44648666Y-77743857D01*
X44553428Y-77815285D01*
X44172476Y-77815285D01*
X45362952Y-77029571D02*
X45553428Y-77029571D01*
X45648666Y-77101000D01*
X45743904Y-77243857D01*
X45791523Y-77529571D01*
X45791523Y-78029571D01*
X45743904Y-78315285D01*
X45648666Y-78458142D01*
X45553428Y-78529571D01*
X45362952Y-78529571D01*
X45267714Y-78458142D01*
X45172476Y-78315285D01*
X45124857Y-78029571D01*
X45124857Y-77529571D01*
X45172476Y-77243857D01*
X45267714Y-77101000D01*
X45362952Y-77029571D01*
X46124857Y-77029571D02*
X46362952Y-78529571D01*
X46553428Y-77458142D01*
X46743904Y-78529571D01*
X46982000Y-77029571D01*
X47362952Y-77743857D02*
X47696285Y-77743857D01*
X47839142Y-78529571D02*
X47362952Y-78529571D01*
X47362952Y-77029571D01*
X47839142Y-77029571D01*
X48839142Y-78529571D02*
X48505809Y-77815285D01*
X48267714Y-78529571D02*
X48267714Y-77029571D01*
X48648666Y-77029571D01*
X48743904Y-77101000D01*
X48791523Y-77172428D01*
X48839142Y-77315285D01*
X48839142Y-77529571D01*
X48791523Y-77672428D01*
X48743904Y-77743857D01*
X48648666Y-77815285D01*
X48267714Y-77815285D01*
X83232809Y-30015571D02*
X83232809Y-28515571D01*
X83709000Y-30015571D02*
X83709000Y-28515571D01*
X84280428Y-30015571D01*
X84280428Y-28515571D01*
X85089952Y-29229857D02*
X84756619Y-29229857D01*
X84756619Y-30015571D02*
X84756619Y-28515571D01*
X85232809Y-28515571D01*
X85804238Y-28515571D02*
X85994714Y-28515571D01*
X86089952Y-28587000D01*
X86185190Y-28729857D01*
X86232809Y-29015571D01*
X86232809Y-29515571D01*
X86185190Y-29801285D01*
X86089952Y-29944142D01*
X85994714Y-30015571D01*
X85804238Y-30015571D01*
X85709000Y-29944142D01*
X85613761Y-29801285D01*
X85566142Y-29515571D01*
X85566142Y-29015571D01*
X85613761Y-28729857D01*
X85709000Y-28587000D01*
X85804238Y-28515571D01*
X72699714Y-58472142D02*
X72842571Y-58543571D01*
X73080666Y-58543571D01*
X73175904Y-58472142D01*
X73223523Y-58400714D01*
X73271142Y-58257857D01*
X73271142Y-58115000D01*
X73223523Y-57972142D01*
X73175904Y-57900714D01*
X73080666Y-57829285D01*
X72890190Y-57757857D01*
X72794952Y-57686428D01*
X72747333Y-57615000D01*
X72699714Y-57472142D01*
X72699714Y-57329285D01*
X72747333Y-57186428D01*
X72794952Y-57115000D01*
X72890190Y-57043571D01*
X73128285Y-57043571D01*
X73271142Y-57115000D01*
X73699714Y-58543571D02*
X73699714Y-57043571D01*
X73937809Y-57043571D01*
X74080666Y-57115000D01*
X74175904Y-57257857D01*
X74223523Y-57400714D01*
X74271142Y-57686428D01*
X74271142Y-57900714D01*
X74223523Y-58186428D01*
X74175904Y-58329285D01*
X74080666Y-58472142D01*
X73937809Y-58543571D01*
X73699714Y-58543571D01*
X74652095Y-58115000D02*
X75128285Y-58115000D01*
X74556857Y-58543571D02*
X74890190Y-57043571D01*
X75223523Y-58543571D01*
X72723523Y-60972142D02*
X72866380Y-61043571D01*
X73104476Y-61043571D01*
X73199714Y-60972142D01*
X73247333Y-60900714D01*
X73294952Y-60757857D01*
X73294952Y-60615000D01*
X73247333Y-60472142D01*
X73199714Y-60400714D01*
X73104476Y-60329285D01*
X72914000Y-60257857D01*
X72818761Y-60186428D01*
X72771142Y-60115000D01*
X72723523Y-59972142D01*
X72723523Y-59829285D01*
X72771142Y-59686428D01*
X72818761Y-59615000D01*
X72914000Y-59543571D01*
X73152095Y-59543571D01*
X73294952Y-59615000D01*
X74294952Y-60900714D02*
X74247333Y-60972142D01*
X74104476Y-61043571D01*
X74009238Y-61043571D01*
X73866380Y-60972142D01*
X73771142Y-60829285D01*
X73723523Y-60686428D01*
X73675904Y-60400714D01*
X73675904Y-60186428D01*
X73723523Y-59900714D01*
X73771142Y-59757857D01*
X73866380Y-59615000D01*
X74009238Y-59543571D01*
X74104476Y-59543571D01*
X74247333Y-59615000D01*
X74294952Y-59686428D01*
X75199714Y-61043571D02*
X74723523Y-61043571D01*
X74723523Y-59543571D01*
X73152095Y-62115000D02*
X73056857Y-62043571D01*
X72914000Y-62043571D01*
X72771142Y-62115000D01*
X72675904Y-62257857D01*
X72628285Y-62400714D01*
X72580666Y-62686428D01*
X72580666Y-62900714D01*
X72628285Y-63186428D01*
X72675904Y-63329285D01*
X72771142Y-63472142D01*
X72914000Y-63543571D01*
X73009238Y-63543571D01*
X73152095Y-63472142D01*
X73199714Y-63400714D01*
X73199714Y-62900714D01*
X73009238Y-62900714D01*
X73628285Y-63543571D02*
X73628285Y-62043571D01*
X74199714Y-63543571D01*
X74199714Y-62043571D01*
X74675904Y-63543571D02*
X74675904Y-62043571D01*
X74914000Y-62043571D01*
X75056857Y-62115000D01*
X75152095Y-62257857D01*
X75199714Y-62400714D01*
X75247333Y-62686428D01*
X75247333Y-62900714D01*
X75199714Y-63186428D01*
X75152095Y-63329285D01*
X75056857Y-63472142D01*
X74914000Y-63543571D01*
X74675904Y-63543571D01*
X72675904Y-64543571D02*
X73294952Y-64543571D01*
X72961619Y-65115000D01*
X73104476Y-65115000D01*
X73199714Y-65186428D01*
X73247333Y-65257857D01*
X73294952Y-65400714D01*
X73294952Y-65757857D01*
X73247333Y-65900714D01*
X73199714Y-65972142D01*
X73104476Y-66043571D01*
X72818761Y-66043571D01*
X72723523Y-65972142D01*
X72675904Y-65900714D01*
X73580666Y-64543571D02*
X73914000Y-66043571D01*
X74247333Y-64543571D01*
X74485428Y-64543571D02*
X75104476Y-64543571D01*
X74771142Y-65115000D01*
X74914000Y-65115000D01*
X75009238Y-65186428D01*
X75056857Y-65257857D01*
X75104476Y-65400714D01*
X75104476Y-65757857D01*
X75056857Y-65900714D01*
X75009238Y-65972142D01*
X74914000Y-66043571D01*
X74628285Y-66043571D01*
X74533047Y-65972142D01*
X74485428Y-65900714D01*
X73723523Y-67043571D02*
X73247333Y-67043571D01*
X73199714Y-67757857D01*
X73247333Y-67686428D01*
X73342571Y-67615000D01*
X73580666Y-67615000D01*
X73675904Y-67686428D01*
X73723523Y-67757857D01*
X73771142Y-67900714D01*
X73771142Y-68257857D01*
X73723523Y-68400714D01*
X73675904Y-68472142D01*
X73580666Y-68543571D01*
X73342571Y-68543571D01*
X73247333Y-68472142D01*
X73199714Y-68400714D01*
X74056857Y-67043571D02*
X74390190Y-68543571D01*
X74723523Y-67043571D01*
X57476476Y-81871428D02*
X57524095Y-81800000D01*
X57619333Y-81728571D01*
X57857428Y-81728571D01*
X57952666Y-81800000D01*
X58000285Y-81871428D01*
X58047904Y-82014285D01*
X58047904Y-82157142D01*
X58000285Y-82371428D01*
X57428857Y-83228571D01*
X58047904Y-83228571D01*
X59047904Y-83085714D02*
X59000285Y-83157142D01*
X58857428Y-83228571D01*
X58762190Y-83228571D01*
X58619333Y-83157142D01*
X58524095Y-83014285D01*
X58476476Y-82871428D01*
X58428857Y-82585714D01*
X58428857Y-82371428D01*
X58476476Y-82085714D01*
X58524095Y-81942857D01*
X58619333Y-81800000D01*
X58762190Y-81728571D01*
X58857428Y-81728571D01*
X59000285Y-81800000D01*
X59047904Y-81871428D01*
X59428857Y-82800000D02*
X59905047Y-82800000D01*
X59333619Y-83228571D02*
X59666952Y-81728571D01*
X60000285Y-83228571D01*
X60333619Y-83228571D02*
X60333619Y-81728571D01*
X60905047Y-83228571D01*
X60905047Y-81728571D01*
X61381238Y-83228571D02*
X61381238Y-81728571D01*
X61381238Y-82442857D02*
X61952666Y-82442857D01*
X61952666Y-83228571D02*
X61952666Y-81728571D01*
X63143142Y-81871428D02*
X63190761Y-81800000D01*
X63286000Y-81728571D01*
X63524095Y-81728571D01*
X63619333Y-81800000D01*
X63666952Y-81871428D01*
X63714571Y-82014285D01*
X63714571Y-82157142D01*
X63666952Y-82371428D01*
X63095523Y-83228571D01*
X63714571Y-83228571D01*
X64714571Y-83085714D02*
X64666952Y-83157142D01*
X64524095Y-83228571D01*
X64428857Y-83228571D01*
X64286000Y-83157142D01*
X64190761Y-83014285D01*
X64143142Y-82871428D01*
X64095523Y-82585714D01*
X64095523Y-82371428D01*
X64143142Y-82085714D01*
X64190761Y-81942857D01*
X64286000Y-81800000D01*
X64428857Y-81728571D01*
X64524095Y-81728571D01*
X64666952Y-81800000D01*
X64714571Y-81871428D01*
X65095523Y-82800000D02*
X65571714Y-82800000D01*
X65000285Y-83228571D02*
X65333619Y-81728571D01*
X65666952Y-83228571D01*
X66000285Y-83228571D02*
X66000285Y-81728571D01*
X66571714Y-83228571D01*
X66571714Y-81728571D01*
X67524095Y-83228571D02*
X67047904Y-83228571D01*
X67047904Y-81728571D01*
X69143142Y-81800000D02*
X69047904Y-81728571D01*
X68905047Y-81728571D01*
X68762190Y-81800000D01*
X68666952Y-81942857D01*
X68619333Y-82085714D01*
X68571714Y-82371428D01*
X68571714Y-82585714D01*
X68619333Y-82871428D01*
X68666952Y-83014285D01*
X68762190Y-83157142D01*
X68905047Y-83228571D01*
X69000285Y-83228571D01*
X69143142Y-83157142D01*
X69190761Y-83085714D01*
X69190761Y-82585714D01*
X69000285Y-82585714D01*
X69619333Y-83228571D02*
X69619333Y-81728571D01*
X70190761Y-83228571D01*
X70190761Y-81728571D01*
X70666952Y-83228571D02*
X70666952Y-81728571D01*
X70905047Y-81728571D01*
X71047904Y-81800000D01*
X71143142Y-81942857D01*
X71190761Y-82085714D01*
X71238380Y-82371428D01*
X71238380Y-82585714D01*
X71190761Y-82871428D01*
X71143142Y-83014285D01*
X71047904Y-83157142D01*
X70905047Y-83228571D01*
X70666952Y-83228571D01*
X72952666Y-83228571D02*
X72381238Y-83228571D01*
X72666952Y-83228571D02*
X72666952Y-81728571D01*
X72571714Y-81942857D01*
X72476476Y-82085714D01*
X72381238Y-82157142D01*
X73286000Y-81728571D02*
X73524095Y-83228571D01*
X73714571Y-82157142D01*
X73905047Y-83228571D01*
X74143142Y-81728571D01*
D11*
%TO.C,C23*%
X86535000Y-97373000D02*
X86535000Y-95628000D01*
X86535000Y-100968000D02*
X86535000Y-99223000D01*
X97775000Y-97373000D02*
X97775000Y-95628000D01*
X97775000Y-100968000D02*
X97775000Y-99223000D01*
X97775000Y-95628000D02*
X86535000Y-95628000D01*
X97775000Y-100968000D02*
X86535000Y-100968000D01*
D12*
%TO.C,J13*%
X89497933Y-32845002D02*
X77243937Y-32845002D01*
X77243937Y-32845002D02*
X77243937Y-45099001D01*
X77243937Y-45099001D02*
X89497933Y-45099001D01*
X89497933Y-45099001D02*
X89497933Y-32845002D01*
X91656935Y-37672000D02*
G75*
G03*
X91656935Y-37672000I-381000J0D01*
G01*
%TO.C,J12*%
X63018668Y-81153998D02*
X75272664Y-81153998D01*
X75272664Y-81153998D02*
X75272664Y-68899999D01*
X75272664Y-68899999D02*
X63018668Y-68899999D01*
X63018668Y-68899999D02*
X63018668Y-81153998D01*
X61621666Y-76327000D02*
G75*
G03*
X61621666Y-76327000I-381000J0D01*
G01*
%TO.C,J10*%
X49963068Y-81153998D02*
X62217064Y-81153998D01*
X62217064Y-81153998D02*
X62217064Y-68899999D01*
X62217064Y-68899999D02*
X49963068Y-68899999D01*
X49963068Y-68899999D02*
X49963068Y-81153998D01*
X48566066Y-76327000D02*
G75*
G03*
X48566066Y-76327000I-381000J0D01*
G01*
D13*
%TO.C,D5*%
X86535000Y-31409000D02*
X86535000Y-23709000D01*
X92535000Y-31409000D02*
X86535000Y-31409000D01*
X86535000Y-23709000D02*
X92535000Y-23709000D01*
X92535000Y-23709000D02*
X92535000Y-31409000D01*
D14*
X90035000Y-30059000D02*
X89035000Y-30059000D01*
X87035000Y-28559000D02*
X87035000Y-26559000D01*
X90035000Y-25059000D02*
X89035000Y-25059000D01*
X92035000Y-28559000D02*
X92035000Y-26559000D01*
X87435000Y-27809000D02*
X87885000Y-28559000D01*
X88335000Y-27809000D02*
X87435000Y-27809000D01*
X87885000Y-28559000D02*
X88335000Y-27809000D01*
D15*
%TO.C,PS1*%
X114250000Y-94702000D02*
X114250000Y-71702000D01*
X114250000Y-71702000D02*
X76250000Y-71702000D01*
X76250000Y-71702000D02*
X76250000Y-94702000D01*
X76250000Y-94702000D02*
X114250000Y-94702000D01*
D13*
X115150000Y-86402000D02*
G75*
G03*
X115150000Y-86402000I-100000J0D01*
G01*
D16*
%TO.C,RV1*%
X114264000Y-95322000D02*
X102264000Y-95322000D01*
X114264000Y-101422000D02*
X102264000Y-101422000D01*
X102264000Y-101422000D02*
X102264000Y-95322000D01*
X114264000Y-101422000D02*
X114264000Y-95322000D01*
D11*
%TO.C,F1*%
X126661000Y-97028000D02*
G75*
G03*
X126661000Y-97028000I-4360000J0D01*
G01*
%TO.C,TP4*%
X37522000Y-99568000D02*
G75*
G03*
X37522000Y-99568000I-1200000J0D01*
G01*
%TO.C,TP2*%
X59366000Y-99314000D02*
G75*
G03*
X59366000Y-99314000I-1200000J0D01*
G01*
%TO.C,U7*%
X72704000Y-65599000D02*
X72704000Y-66929000D01*
X71374000Y-65599000D02*
X72704000Y-65599000D01*
X70104000Y-65599000D02*
X70104000Y-68259000D01*
X70104000Y-68259000D02*
X62424000Y-68259000D01*
X70104000Y-65599000D02*
X62424000Y-65599000D01*
X62424000Y-65599000D02*
X62424000Y-68259000D01*
%TO.C,JP1*%
X68407000Y-52814000D02*
X69007000Y-52814000D01*
X67707000Y-56264000D02*
X67707000Y-53464000D01*
X69007000Y-56914000D02*
X68407000Y-56914000D01*
X69707000Y-53464000D02*
X69707000Y-56264000D01*
X69007000Y-52814000D02*
G75*
G02*
X69707000Y-53514000I0J-700000D01*
G01*
X67707000Y-53514000D02*
G75*
G02*
X68407000Y-52814000I700000J0D01*
G01*
X68407000Y-56914000D02*
G75*
G02*
X67707000Y-56214000I0J700000D01*
G01*
X69707000Y-56214000D02*
G75*
G02*
X69007000Y-56914000I-700000J0D01*
G01*
%TO.C,C21*%
X69265748Y-62463000D02*
X70688252Y-62463000D01*
X69265748Y-64283000D02*
X70688252Y-64283000D01*
%TO.C,C20*%
X67797000Y-60401252D02*
X67797000Y-58978748D01*
X69617000Y-60401252D02*
X69617000Y-58978748D01*
%TO.C,U6*%
X45720000Y-53721000D02*
X51054000Y-53721000D01*
X51054000Y-53721000D02*
X51054000Y-64389000D01*
X51054000Y-64389000D02*
X45720000Y-64389000D01*
X45720000Y-64389000D02*
X45720000Y-64389000D01*
X48260000Y-54229000D02*
X48260000Y-56515000D01*
X48260000Y-56515000D02*
X45974000Y-56515000D01*
X45974000Y-56515000D02*
X45974000Y-56515000D01*
X45390000Y-53145000D02*
X74590000Y-53145000D01*
X74590000Y-53145000D02*
X74590000Y-68595000D01*
X74590000Y-68595000D02*
X45390000Y-68595000D01*
X45390000Y-68595000D02*
X45390000Y-53145000D01*
X45390000Y-53145000D02*
X45390000Y-53145000D01*
X45720000Y-64389000D02*
X45720000Y-53721000D01*
X45720000Y-53721000D02*
X45720000Y-53721000D01*
%TO.C,TP3*%
X59620000Y-86106000D02*
G75*
G03*
X59620000Y-86106000I-1200000J0D01*
G01*
%TO.C,TP5*%
X37522000Y-82550000D02*
G75*
G03*
X37522000Y-82550000I-1200000J0D01*
G01*
%TO.C,TP1*%
X57080000Y-82804000D02*
G75*
G03*
X57080000Y-82804000I-1200000J0D01*
G01*
%TO.C,J9*%
X124036000Y-75582000D02*
X115216000Y-75582000D01*
X115216000Y-75582000D02*
X115216000Y-91042000D01*
X115216000Y-91042000D02*
X124036000Y-91042000D01*
X124036000Y-91042000D02*
X124036000Y-75582000D01*
X123226000Y-75582000D02*
X123226000Y-78392000D01*
X123226000Y-91042000D02*
X123226000Y-88232000D01*
X123226000Y-80502000D02*
X123226000Y-86122000D01*
X122226000Y-78502000D02*
X124036000Y-78502000D01*
X124036000Y-78502000D02*
X124036000Y-80502000D01*
X124036000Y-80502000D02*
X122226000Y-80502000D01*
X122226000Y-80502000D02*
X122226000Y-78502000D01*
X122226000Y-86122000D02*
X124036000Y-86122000D01*
X124036000Y-86122000D02*
X124036000Y-88122000D01*
X124036000Y-88122000D02*
X122226000Y-88122000D01*
X122226000Y-88122000D02*
X122226000Y-86122000D01*
X116926000Y-81502000D02*
X116926000Y-85122000D01*
X116926000Y-77502000D02*
X116926000Y-76492000D01*
X116926000Y-76492000D02*
X122226000Y-76492000D01*
X122226000Y-76492000D02*
X122226000Y-90132000D01*
X122226000Y-90132000D02*
X116926000Y-90132000D01*
X116926000Y-90132000D02*
X116926000Y-89122000D01*
X124836000Y-79802000D02*
X124236000Y-79502000D01*
X124236000Y-79502000D02*
X124836000Y-79202000D01*
X124836000Y-79202000D02*
X124836000Y-79802000D01*
X116910179Y-89108841D02*
G75*
G02*
X116926000Y-85122000I1665821J1986841D01*
G01*
X116910179Y-81488841D02*
G75*
G02*
X116926000Y-77502000I1665821J1986841D01*
G01*
%TO.C,J3*%
X124036000Y-50690000D02*
X115216000Y-50690000D01*
X115216000Y-50690000D02*
X115216000Y-73770000D01*
X115216000Y-73770000D02*
X124036000Y-73770000D01*
X124036000Y-73770000D02*
X124036000Y-50690000D01*
X123226000Y-50690000D02*
X123226000Y-53500000D01*
X123226000Y-73770000D02*
X123226000Y-70960000D01*
X123226000Y-55610000D02*
X123226000Y-61230000D01*
X123226000Y-63230000D02*
X123226000Y-68850000D01*
X122226000Y-53610000D02*
X124036000Y-53610000D01*
X124036000Y-53610000D02*
X124036000Y-55610000D01*
X124036000Y-55610000D02*
X122226000Y-55610000D01*
X122226000Y-55610000D02*
X122226000Y-53610000D01*
X122226000Y-61230000D02*
X124036000Y-61230000D01*
X124036000Y-61230000D02*
X124036000Y-63230000D01*
X124036000Y-63230000D02*
X122226000Y-63230000D01*
X122226000Y-63230000D02*
X122226000Y-61230000D01*
X122226000Y-68850000D02*
X124036000Y-68850000D01*
X124036000Y-68850000D02*
X124036000Y-70850000D01*
X124036000Y-70850000D02*
X122226000Y-70850000D01*
X122226000Y-70850000D02*
X122226000Y-68850000D01*
X116926000Y-56610000D02*
X116926000Y-60230000D01*
X116926000Y-64230000D02*
X116926000Y-67850000D01*
X116926000Y-52610000D02*
X116926000Y-51600000D01*
X116926000Y-51600000D02*
X122226000Y-51600000D01*
X122226000Y-51600000D02*
X122226000Y-72860000D01*
X122226000Y-72860000D02*
X116926000Y-72860000D01*
X116926000Y-72860000D02*
X116926000Y-71850000D01*
X124836000Y-54910000D02*
X124236000Y-54610000D01*
X124236000Y-54610000D02*
X124836000Y-54310000D01*
X124836000Y-54310000D02*
X124836000Y-54910000D01*
X116910179Y-71836841D02*
G75*
G02*
X116926000Y-67850000I1665821J1986841D01*
G01*
X116910179Y-64216841D02*
G75*
G02*
X116926000Y-60230000I1665821J1986841D01*
G01*
X116910179Y-56596841D02*
G75*
G02*
X116926000Y-52610000I1665821J1986841D01*
G01*
%TO.C,J2*%
X124036000Y-23004000D02*
X115216000Y-23004000D01*
X115216000Y-23004000D02*
X115216000Y-46084000D01*
X115216000Y-46084000D02*
X124036000Y-46084000D01*
X124036000Y-46084000D02*
X124036000Y-23004000D01*
X123226000Y-23004000D02*
X123226000Y-25814000D01*
X123226000Y-46084000D02*
X123226000Y-43274000D01*
X123226000Y-27924000D02*
X123226000Y-33544000D01*
X123226000Y-35544000D02*
X123226000Y-41164000D01*
X122226000Y-25924000D02*
X124036000Y-25924000D01*
X124036000Y-25924000D02*
X124036000Y-27924000D01*
X124036000Y-27924000D02*
X122226000Y-27924000D01*
X122226000Y-27924000D02*
X122226000Y-25924000D01*
X122226000Y-33544000D02*
X124036000Y-33544000D01*
X124036000Y-33544000D02*
X124036000Y-35544000D01*
X124036000Y-35544000D02*
X122226000Y-35544000D01*
X122226000Y-35544000D02*
X122226000Y-33544000D01*
X122226000Y-41164000D02*
X124036000Y-41164000D01*
X124036000Y-41164000D02*
X124036000Y-43164000D01*
X124036000Y-43164000D02*
X122226000Y-43164000D01*
X122226000Y-43164000D02*
X122226000Y-41164000D01*
X116926000Y-28924000D02*
X116926000Y-32544000D01*
X116926000Y-36544000D02*
X116926000Y-40164000D01*
X116926000Y-24924000D02*
X116926000Y-23914000D01*
X116926000Y-23914000D02*
X122226000Y-23914000D01*
X122226000Y-23914000D02*
X122226000Y-45174000D01*
X122226000Y-45174000D02*
X116926000Y-45174000D01*
X116926000Y-45174000D02*
X116926000Y-44164000D01*
X124836000Y-27224000D02*
X124236000Y-26924000D01*
X124236000Y-26924000D02*
X124836000Y-26624000D01*
X124836000Y-26624000D02*
X124836000Y-27224000D01*
X116910179Y-44150841D02*
G75*
G02*
X116926000Y-40164000I1665821J1986841D01*
G01*
X116910179Y-36530841D02*
G75*
G02*
X116926000Y-32544000I1665821J1986841D01*
G01*
X116910179Y-28910841D02*
G75*
G02*
X116926000Y-24924000I1665821J1986841D01*
G01*
%TO.C,L2*%
X37522000Y-90712000D02*
X47822000Y-90712000D01*
X37522000Y-101312000D02*
X47822000Y-101312000D01*
D16*
%TO.C,U2*%
X50589000Y-89806000D02*
X51989000Y-89806000D01*
X50589000Y-84801000D02*
X46439000Y-84801000D01*
X50589000Y-89951000D02*
X46439000Y-89951000D01*
X50589000Y-84801000D02*
X50589000Y-84946000D01*
X46439000Y-84801000D02*
X46439000Y-84946000D01*
X46439000Y-89951000D02*
X46439000Y-89806000D01*
X50589000Y-89951000D02*
X50589000Y-89806000D01*
D11*
%TO.C,Q3*%
X43985000Y-33140000D02*
X33485000Y-33140000D01*
X43985000Y-28199000D02*
X33485000Y-28199000D01*
X43985000Y-33140000D02*
X43985000Y-28199000D01*
X33485000Y-33140000D02*
X33485000Y-28199000D01*
X43985000Y-30380000D02*
X42378000Y-30380000D01*
X40172000Y-30380000D02*
X39837000Y-30380000D01*
X37632000Y-30380000D02*
X37297000Y-30380000D01*
X35092000Y-30380000D02*
X33485000Y-30380000D01*
X40585000Y-33140000D02*
X40585000Y-31122000D01*
X36884000Y-33140000D02*
X36884000Y-31122000D01*
D15*
%TO.C,K6*%
X105292000Y-71127000D02*
X95792000Y-71127000D01*
X107192000Y-71127000D02*
X111992000Y-71127000D01*
X114192000Y-63927000D02*
X114192000Y-68627000D01*
X95992000Y-63927000D02*
X114192000Y-63927000D01*
X93692000Y-68627000D02*
X93692000Y-66377000D01*
D13*
X92692000Y-65287000D02*
G75*
G03*
X92692000Y-65287000I-100000J0D01*
G01*
D15*
%TO.C,K5*%
X105292000Y-63380000D02*
X95792000Y-63380000D01*
X107192000Y-63380000D02*
X111992000Y-63380000D01*
X114192000Y-56180000D02*
X114192000Y-60880000D01*
X95992000Y-56180000D02*
X114192000Y-56180000D01*
X93692000Y-60880000D02*
X93692000Y-58630000D01*
D13*
X92692000Y-57540000D02*
G75*
G03*
X92692000Y-57540000I-100000J0D01*
G01*
D15*
%TO.C,K4*%
X105292000Y-55633000D02*
X95792000Y-55633000D01*
X107192000Y-55633000D02*
X111992000Y-55633000D01*
X114192000Y-48433000D02*
X114192000Y-53133000D01*
X95992000Y-48433000D02*
X114192000Y-48433000D01*
X93692000Y-53133000D02*
X93692000Y-50883000D01*
D13*
X92692000Y-49793000D02*
G75*
G03*
X92692000Y-49793000I-100000J0D01*
G01*
D15*
%TO.C,K3*%
X105292000Y-45854000D02*
X95792000Y-45854000D01*
X107192000Y-45854000D02*
X111992000Y-45854000D01*
X114192000Y-38654000D02*
X114192000Y-43354000D01*
X95992000Y-38654000D02*
X114192000Y-38654000D01*
X93692000Y-43354000D02*
X93692000Y-41104000D01*
D13*
X92692000Y-40014000D02*
G75*
G03*
X92692000Y-40014000I-100000J0D01*
G01*
D15*
%TO.C,K2*%
X105292000Y-37980000D02*
X95792000Y-37980000D01*
X107192000Y-37980000D02*
X111992000Y-37980000D01*
X114192000Y-30780000D02*
X114192000Y-35480000D01*
X95992000Y-30780000D02*
X114192000Y-30780000D01*
X93692000Y-35480000D02*
X93692000Y-33230000D01*
D13*
X92692000Y-32140000D02*
G75*
G03*
X92692000Y-32140000I-100000J0D01*
G01*
D15*
%TO.C,K1*%
X105292000Y-30106000D02*
X95792000Y-30106000D01*
X107192000Y-30106000D02*
X111992000Y-30106000D01*
X114192000Y-22906000D02*
X114192000Y-27606000D01*
X95992000Y-22906000D02*
X114192000Y-22906000D01*
X93692000Y-27606000D02*
X93692000Y-25356000D01*
D13*
X92692000Y-24266000D02*
G75*
G03*
X92692000Y-24266000I-100000J0D01*
G01*
D11*
%TO.C,C18*%
X54348748Y-55853000D02*
X54871252Y-55853000D01*
X54348748Y-54383000D02*
X54871252Y-54383000D01*
%TO.C,J11*%
X82252000Y-55570000D02*
X81002000Y-55570000D01*
X82252000Y-56820000D02*
X82252000Y-55570000D01*
X76752000Y-70220000D02*
X76752000Y-63420000D01*
X79702000Y-70220000D02*
X76752000Y-70220000D01*
X79702000Y-70970000D02*
X79702000Y-70220000D01*
X76752000Y-56620000D02*
X76752000Y-63420000D01*
X79702000Y-56620000D02*
X76752000Y-56620000D01*
X79702000Y-55870000D02*
X79702000Y-56620000D01*
X81952000Y-70970000D02*
X81952000Y-69170000D01*
X81202000Y-70970000D02*
X81952000Y-70970000D01*
X81202000Y-69170000D02*
X81202000Y-70970000D01*
X81952000Y-69170000D02*
X81202000Y-69170000D01*
X81952000Y-57670000D02*
X81952000Y-55870000D01*
X81202000Y-57670000D02*
X81952000Y-57670000D01*
X81202000Y-55870000D02*
X81202000Y-57670000D01*
X81952000Y-55870000D02*
X81202000Y-55870000D01*
X81952000Y-67670000D02*
X81952000Y-59170000D01*
X81202000Y-67670000D02*
X81952000Y-67670000D01*
X81202000Y-59170000D02*
X81202000Y-67670000D01*
X81952000Y-59170000D02*
X81202000Y-59170000D01*
X81962000Y-70980000D02*
X81962000Y-55860000D01*
X75992000Y-70980000D02*
X81962000Y-70980000D01*
X75992000Y-55860000D02*
X75992000Y-70980000D01*
X81962000Y-55860000D02*
X75992000Y-55860000D01*
%TO.C,U1*%
X49284000Y-51003000D02*
X49284000Y-51783000D01*
X49284000Y-51783000D02*
X50284000Y-51783000D01*
X67524000Y-51003000D02*
X67524000Y-51783000D01*
X67524000Y-51783000D02*
X66524000Y-51783000D01*
X49284000Y-26038000D02*
X67524000Y-26038000D01*
X67524000Y-26038000D02*
X67524000Y-32458000D01*
X49284000Y-26038000D02*
X49284000Y-32458000D01*
X49284000Y-32458000D02*
X48904000Y-32458000D01*
%TO.C,C17*%
X45699000Y-37896748D02*
X45699000Y-39319252D01*
X47519000Y-37896748D02*
X47519000Y-39319252D01*
%TO.C,C16*%
X47471000Y-34424252D02*
X47471000Y-33901748D01*
X46001000Y-34424252D02*
X46001000Y-33901748D01*
%TO.C,J7*%
X88820000Y-55860000D02*
X82850000Y-55860000D01*
X82850000Y-55860000D02*
X82850000Y-70980000D01*
X82850000Y-70980000D02*
X88820000Y-70980000D01*
X88820000Y-70980000D02*
X88820000Y-55860000D01*
X88810000Y-59170000D02*
X88060000Y-59170000D01*
X88060000Y-59170000D02*
X88060000Y-67670000D01*
X88060000Y-67670000D02*
X88810000Y-67670000D01*
X88810000Y-67670000D02*
X88810000Y-59170000D01*
X88810000Y-55870000D02*
X88060000Y-55870000D01*
X88060000Y-55870000D02*
X88060000Y-57670000D01*
X88060000Y-57670000D02*
X88810000Y-57670000D01*
X88810000Y-57670000D02*
X88810000Y-55870000D01*
X88810000Y-69170000D02*
X88060000Y-69170000D01*
X88060000Y-69170000D02*
X88060000Y-70970000D01*
X88060000Y-70970000D02*
X88810000Y-70970000D01*
X88810000Y-70970000D02*
X88810000Y-69170000D01*
X86560000Y-55870000D02*
X86560000Y-56620000D01*
X86560000Y-56620000D02*
X83610000Y-56620000D01*
X83610000Y-56620000D02*
X83610000Y-63420000D01*
X86560000Y-70970000D02*
X86560000Y-70220000D01*
X86560000Y-70220000D02*
X83610000Y-70220000D01*
X83610000Y-70220000D02*
X83610000Y-63420000D01*
X89110000Y-56820000D02*
X89110000Y-55570000D01*
X89110000Y-55570000D02*
X87860000Y-55570000D01*
%TO.C,J4*%
X83574000Y-44469000D02*
X84074000Y-45469000D01*
X84574000Y-44469000D02*
X83574000Y-44469000D01*
X84074000Y-45469000D02*
X84574000Y-44469000D01*
X79484000Y-47169000D02*
X79484000Y-45859000D01*
X79484000Y-47169000D02*
X79484000Y-47169000D01*
X75084000Y-47169000D02*
X79484000Y-47169000D01*
X75084000Y-53669000D02*
X75084000Y-47169000D01*
X87984000Y-53669000D02*
X75084000Y-53669000D01*
X87984000Y-47169000D02*
X87984000Y-53669000D01*
X83584000Y-47169000D02*
X87984000Y-47169000D01*
X83584000Y-45859000D02*
X83584000Y-47169000D01*
X73784000Y-45859000D02*
X89284000Y-45859000D01*
X73784000Y-54979000D02*
X73784000Y-45859000D01*
X89284000Y-54979000D02*
X73784000Y-54979000D01*
X89284000Y-45859000D02*
X89284000Y-54979000D01*
%TO.C,R24*%
X91339936Y-69369000D02*
X91794064Y-69369000D01*
X91339936Y-70839000D02*
X91794064Y-70839000D01*
%TO.C,R23*%
X91339936Y-61622000D02*
X91794064Y-61622000D01*
X91339936Y-63092000D02*
X91794064Y-63092000D01*
%TO.C,Q11*%
X93147000Y-65661000D02*
X92217000Y-65661000D01*
X89987000Y-65661000D02*
X90917000Y-65661000D01*
X89987000Y-65661000D02*
X89987000Y-68821000D01*
X93147000Y-65661000D02*
X93147000Y-67121000D01*
%TO.C,Q10*%
X93147000Y-57914000D02*
X92217000Y-57914000D01*
X89987000Y-57914000D02*
X90917000Y-57914000D01*
X89987000Y-57914000D02*
X89987000Y-61074000D01*
X93147000Y-57914000D02*
X93147000Y-59374000D01*
%TO.C,J8*%
X24968000Y-58154000D02*
X24968000Y-56154000D01*
X26218000Y-58154000D02*
X24968000Y-58154000D01*
X31968000Y-43204000D02*
X31968000Y-43954000D01*
X27668000Y-43204000D02*
X31968000Y-43204000D01*
X27668000Y-43954000D02*
X27668000Y-43204000D01*
X27318000Y-43954000D02*
X27668000Y-43954000D01*
X27318000Y-43454000D02*
X27318000Y-43954000D01*
X26318000Y-43204000D02*
X27318000Y-43454000D01*
X26318000Y-46204000D02*
X26318000Y-43204000D01*
X27318000Y-45954000D02*
X26318000Y-46204000D01*
X27318000Y-45454000D02*
X27318000Y-45954000D01*
X27668000Y-45454000D02*
X27318000Y-45454000D01*
X27668000Y-46204000D02*
X27668000Y-45454000D01*
X31968000Y-46204000D02*
X27668000Y-46204000D01*
X31968000Y-45454000D02*
X31968000Y-46204000D01*
X31968000Y-46704000D02*
X31968000Y-47454000D01*
X27668000Y-46704000D02*
X31968000Y-46704000D01*
X27668000Y-47454000D02*
X27668000Y-46704000D01*
X27318000Y-47454000D02*
X27668000Y-47454000D01*
X27318000Y-46954000D02*
X27318000Y-47454000D01*
X26318000Y-46704000D02*
X27318000Y-46954000D01*
X26318000Y-49704000D02*
X26318000Y-46704000D01*
X27318000Y-49454000D02*
X26318000Y-49704000D01*
X27318000Y-48954000D02*
X27318000Y-49454000D01*
X27668000Y-48954000D02*
X27318000Y-48954000D01*
X27668000Y-49704000D02*
X27668000Y-48954000D01*
X31968000Y-49704000D02*
X27668000Y-49704000D01*
X31968000Y-48954000D02*
X31968000Y-49704000D01*
X31968000Y-50204000D02*
X31968000Y-50954000D01*
X27668000Y-50204000D02*
X31968000Y-50204000D01*
X27668000Y-50954000D02*
X27668000Y-50204000D01*
X27318000Y-50954000D02*
X27668000Y-50954000D01*
X27318000Y-50454000D02*
X27318000Y-50954000D01*
X26318000Y-50204000D02*
X27318000Y-50454000D01*
X26318000Y-53204000D02*
X26318000Y-50204000D01*
X27318000Y-52954000D02*
X26318000Y-53204000D01*
X27318000Y-52454000D02*
X27318000Y-52954000D01*
X27668000Y-52454000D02*
X27318000Y-52454000D01*
X27668000Y-53204000D02*
X27668000Y-52454000D01*
X31968000Y-53204000D02*
X27668000Y-53204000D01*
X31968000Y-52454000D02*
X31968000Y-53204000D01*
X31968000Y-53704000D02*
X31968000Y-54454000D01*
X27668000Y-53704000D02*
X31968000Y-53704000D01*
X27668000Y-54454000D02*
X27668000Y-53704000D01*
X27318000Y-54454000D02*
X27668000Y-54454000D01*
X27318000Y-53954000D02*
X27318000Y-54454000D01*
X26318000Y-53704000D02*
X27318000Y-53954000D01*
X26318000Y-56704000D02*
X26318000Y-53704000D01*
X27318000Y-56454000D02*
X26318000Y-56704000D01*
X27318000Y-55954000D02*
X27318000Y-56454000D01*
X27668000Y-55954000D02*
X27318000Y-55954000D01*
X27668000Y-56704000D02*
X27668000Y-55954000D01*
X31968000Y-56704000D02*
X27668000Y-56704000D01*
X31968000Y-55954000D02*
X31968000Y-56704000D01*
X25358000Y-42144000D02*
X25358000Y-57764000D01*
X32828000Y-42144000D02*
X25358000Y-42144000D01*
X32828000Y-57764000D02*
X32828000Y-42144000D01*
X25358000Y-57764000D02*
X32828000Y-57764000D01*
X31967845Y-43954353D02*
G75*
G03*
X31968000Y-45454000I1700155J-749647D01*
G01*
X31967845Y-47454353D02*
G75*
G03*
X31968000Y-48954000I1700155J-749647D01*
G01*
X31967845Y-50954353D02*
G75*
G03*
X31968000Y-52454000I1700155J-749647D01*
G01*
X31967845Y-54454353D02*
G75*
G03*
X31968000Y-55954000I1700155J-749647D01*
G01*
%TO.C,U5*%
X67164000Y-58669000D02*
X65904000Y-58669000D01*
X60344000Y-58669000D02*
X61604000Y-58669000D01*
X67164000Y-62429000D02*
X67164000Y-58669000D01*
X60344000Y-64679000D02*
X60344000Y-58669000D01*
%TO.C,R10*%
X55653000Y-66447936D02*
X55653000Y-66902064D01*
X57123000Y-66447936D02*
X57123000Y-66902064D01*
%TO.C,R8*%
X91339936Y-55345000D02*
X91794064Y-55345000D01*
X91339936Y-53875000D02*
X91794064Y-53875000D01*
%TO.C,R7*%
X91339936Y-47598000D02*
X91794064Y-47598000D01*
X91339936Y-46128000D02*
X91794064Y-46128000D01*
%TO.C,R6*%
X91339936Y-39851000D02*
X91794064Y-39851000D01*
X91339936Y-38381000D02*
X91794064Y-38381000D01*
%TO.C,Q9*%
X93147000Y-50167000D02*
X93147000Y-51627000D01*
X89987000Y-50167000D02*
X89987000Y-53327000D01*
X89987000Y-50167000D02*
X90917000Y-50167000D01*
X93147000Y-50167000D02*
X92217000Y-50167000D01*
%TO.C,Q8*%
X93147000Y-42420000D02*
X93147000Y-43880000D01*
X89987000Y-42420000D02*
X89987000Y-45580000D01*
X89987000Y-42420000D02*
X90917000Y-42420000D01*
X93147000Y-42420000D02*
X92217000Y-42420000D01*
%TO.C,Q7*%
X93147000Y-34649000D02*
X93147000Y-36109000D01*
X89987000Y-34649000D02*
X89987000Y-37809000D01*
X89987000Y-34649000D02*
X90917000Y-34649000D01*
X93147000Y-34649000D02*
X92217000Y-34649000D01*
%TO.C,D3*%
X44937000Y-74569000D02*
X48027000Y-74569000D01*
X48982000Y-72009000D02*
G75*
G03*
X48982000Y-72009000I-2500000J0D01*
G01*
X46481538Y-69019000D02*
G75*
G02*
X48026830Y-74569000I462J-2990000D01*
G01*
X46482462Y-69019000D02*
G75*
G03*
X44937170Y-74569000I-462J-2990000D01*
G01*
%TO.C,C19*%
X57891000Y-63042748D02*
X57891000Y-64465252D01*
X59711000Y-63042748D02*
X59711000Y-64465252D01*
%TO.C,C14*%
X59711000Y-57962748D02*
X59711000Y-59385252D01*
X57891000Y-57962748D02*
X57891000Y-59385252D01*
%TO.C,C13*%
X60078252Y-55853000D02*
X59555748Y-55853000D01*
X60078252Y-54383000D02*
X59555748Y-54383000D01*
%TO.C,C12*%
X70210000Y-60401252D02*
X70210000Y-58978748D01*
X72030000Y-60401252D02*
X72030000Y-58978748D01*
%TO.C,Q4*%
X44112000Y-45840000D02*
X33612000Y-45840000D01*
X44112000Y-40899000D02*
X33612000Y-40899000D01*
X44112000Y-45840000D02*
X44112000Y-40899000D01*
X33612000Y-45840000D02*
X33612000Y-40899000D01*
X44112000Y-43080000D02*
X42505000Y-43080000D01*
X40299000Y-43080000D02*
X39964000Y-43080000D01*
X37759000Y-43080000D02*
X37424000Y-43080000D01*
X35219000Y-43080000D02*
X33612000Y-43080000D01*
X40712000Y-45840000D02*
X40712000Y-43822000D01*
X37011000Y-45840000D02*
X37011000Y-43822000D01*
%TO.C,C6*%
X43915000Y-84828748D02*
X43915000Y-85351252D01*
X42445000Y-84828748D02*
X42445000Y-85351252D01*
%TO.C,D1*%
X35224000Y-64009000D02*
X35224000Y-67309000D01*
X35224000Y-67309000D02*
X42124000Y-67309000D01*
X35224000Y-64009000D02*
X42124000Y-64009000D01*
D16*
%TO.C,U4*%
X57185000Y-58377000D02*
X57040000Y-58377000D01*
X57185000Y-62527000D02*
X57040000Y-62527000D01*
X52035000Y-62527000D02*
X52180000Y-62527000D01*
X52035000Y-58377000D02*
X52180000Y-58377000D01*
X57185000Y-58377000D02*
X57185000Y-62527000D01*
X52035000Y-58377000D02*
X52035000Y-62527000D01*
X57040000Y-58377000D02*
X57040000Y-56977000D01*
D11*
%TO.C,U3*%
X40853000Y-70369000D02*
X40853000Y-68569000D01*
X37633000Y-68569000D02*
X37633000Y-71019000D01*
%TO.C,R4*%
X41429000Y-69823064D02*
X41429000Y-69368936D01*
X42899000Y-69823064D02*
X42899000Y-69368936D01*
%TO.C,R3*%
X39015936Y-71655000D02*
X39470064Y-71655000D01*
X39015936Y-73125000D02*
X39470064Y-73125000D01*
%TO.C,R1*%
X54583000Y-88418936D02*
X54583000Y-88873064D01*
X53113000Y-88418936D02*
X53113000Y-88873064D01*
%TO.C,Q5*%
X44112000Y-51174000D02*
X33612000Y-51174000D01*
X44112000Y-46233000D02*
X33612000Y-46233000D01*
X44112000Y-51174000D02*
X44112000Y-46233000D01*
X33612000Y-51174000D02*
X33612000Y-46233000D01*
X44112000Y-48414000D02*
X42505000Y-48414000D01*
X40299000Y-48414000D02*
X39964000Y-48414000D01*
X37759000Y-48414000D02*
X37424000Y-48414000D01*
X35219000Y-48414000D02*
X33612000Y-48414000D01*
X40712000Y-51174000D02*
X40712000Y-49156000D01*
X37011000Y-51174000D02*
X37011000Y-49156000D01*
%TO.C,Q2*%
X43985000Y-27806000D02*
X33485000Y-27806000D01*
X43985000Y-22865000D02*
X33485000Y-22865000D01*
X43985000Y-27806000D02*
X43985000Y-22865000D01*
X33485000Y-27806000D02*
X33485000Y-22865000D01*
X43985000Y-25046000D02*
X42378000Y-25046000D01*
X40172000Y-25046000D02*
X39837000Y-25046000D01*
X37632000Y-25046000D02*
X37297000Y-25046000D01*
X35092000Y-25046000D02*
X33485000Y-25046000D01*
X40585000Y-27806000D02*
X40585000Y-25788000D01*
X36884000Y-27806000D02*
X36884000Y-25788000D01*
%TO.C,Q1*%
X44112000Y-56508000D02*
X33612000Y-56508000D01*
X44112000Y-51567000D02*
X33612000Y-51567000D01*
X44112000Y-56508000D02*
X44112000Y-51567000D01*
X33612000Y-56508000D02*
X33612000Y-51567000D01*
X44112000Y-53748000D02*
X42505000Y-53748000D01*
X40299000Y-53748000D02*
X39964000Y-53748000D01*
X37759000Y-53748000D02*
X37424000Y-53748000D01*
X35219000Y-53748000D02*
X33612000Y-53748000D01*
X40712000Y-56508000D02*
X40712000Y-54490000D01*
X37011000Y-56508000D02*
X37011000Y-54490000D01*
%TO.C,L1*%
X34473000Y-64245000D02*
X34473000Y-66545000D01*
X27073000Y-64245000D02*
X34473000Y-64245000D01*
X27073000Y-66545000D02*
X27073000Y-64245000D01*
X27073000Y-71645000D02*
X27073000Y-69345000D01*
X34473000Y-71645000D02*
X27073000Y-71645000D01*
X34473000Y-69345000D02*
X34473000Y-71645000D01*
%TO.C,J6*%
X25358000Y-41168000D02*
X32828000Y-41168000D01*
X32828000Y-41168000D02*
X32828000Y-25548000D01*
X32828000Y-25548000D02*
X25358000Y-25548000D01*
X25358000Y-25548000D02*
X25358000Y-41168000D01*
X31968000Y-39358000D02*
X31968000Y-40108000D01*
X31968000Y-40108000D02*
X27668000Y-40108000D01*
X27668000Y-40108000D02*
X27668000Y-39358000D01*
X27668000Y-39358000D02*
X27318000Y-39358000D01*
X27318000Y-39358000D02*
X27318000Y-39858000D01*
X27318000Y-39858000D02*
X26318000Y-40108000D01*
X26318000Y-40108000D02*
X26318000Y-37108000D01*
X26318000Y-37108000D02*
X27318000Y-37358000D01*
X27318000Y-37358000D02*
X27318000Y-37858000D01*
X27318000Y-37858000D02*
X27668000Y-37858000D01*
X27668000Y-37858000D02*
X27668000Y-37108000D01*
X27668000Y-37108000D02*
X31968000Y-37108000D01*
X31968000Y-37108000D02*
X31968000Y-37858000D01*
X31968000Y-35858000D02*
X31968000Y-36608000D01*
X31968000Y-36608000D02*
X27668000Y-36608000D01*
X27668000Y-36608000D02*
X27668000Y-35858000D01*
X27668000Y-35858000D02*
X27318000Y-35858000D01*
X27318000Y-35858000D02*
X27318000Y-36358000D01*
X27318000Y-36358000D02*
X26318000Y-36608000D01*
X26318000Y-36608000D02*
X26318000Y-33608000D01*
X26318000Y-33608000D02*
X27318000Y-33858000D01*
X27318000Y-33858000D02*
X27318000Y-34358000D01*
X27318000Y-34358000D02*
X27668000Y-34358000D01*
X27668000Y-34358000D02*
X27668000Y-33608000D01*
X27668000Y-33608000D02*
X31968000Y-33608000D01*
X31968000Y-33608000D02*
X31968000Y-34358000D01*
X31968000Y-32358000D02*
X31968000Y-33108000D01*
X31968000Y-33108000D02*
X27668000Y-33108000D01*
X27668000Y-33108000D02*
X27668000Y-32358000D01*
X27668000Y-32358000D02*
X27318000Y-32358000D01*
X27318000Y-32358000D02*
X27318000Y-32858000D01*
X27318000Y-32858000D02*
X26318000Y-33108000D01*
X26318000Y-33108000D02*
X26318000Y-30108000D01*
X26318000Y-30108000D02*
X27318000Y-30358000D01*
X27318000Y-30358000D02*
X27318000Y-30858000D01*
X27318000Y-30858000D02*
X27668000Y-30858000D01*
X27668000Y-30858000D02*
X27668000Y-30108000D01*
X27668000Y-30108000D02*
X31968000Y-30108000D01*
X31968000Y-30108000D02*
X31968000Y-30858000D01*
X31968000Y-28858000D02*
X31968000Y-29608000D01*
X31968000Y-29608000D02*
X27668000Y-29608000D01*
X27668000Y-29608000D02*
X27668000Y-28858000D01*
X27668000Y-28858000D02*
X27318000Y-28858000D01*
X27318000Y-28858000D02*
X27318000Y-29358000D01*
X27318000Y-29358000D02*
X26318000Y-29608000D01*
X26318000Y-29608000D02*
X26318000Y-26608000D01*
X26318000Y-26608000D02*
X27318000Y-26858000D01*
X27318000Y-26858000D02*
X27318000Y-27358000D01*
X27318000Y-27358000D02*
X27668000Y-27358000D01*
X27668000Y-27358000D02*
X27668000Y-26608000D01*
X27668000Y-26608000D02*
X31968000Y-26608000D01*
X31968000Y-26608000D02*
X31968000Y-27358000D01*
X26218000Y-41558000D02*
X24968000Y-41558000D01*
X24968000Y-41558000D02*
X24968000Y-39558000D01*
X31967845Y-27358353D02*
G75*
G03*
X31968000Y-28858000I1700155J-749647D01*
G01*
X31967845Y-30858353D02*
G75*
G03*
X31968000Y-32358000I1700155J-749647D01*
G01*
X31967845Y-34358353D02*
G75*
G03*
X31968000Y-35858000I1700155J-749647D01*
G01*
X31967845Y-37858353D02*
G75*
G03*
X31968000Y-39358000I1700155J-749647D01*
G01*
%TO.C,J5*%
X34374000Y-88552000D02*
X25554000Y-88552000D01*
X25554000Y-88552000D02*
X25554000Y-100932000D01*
X25554000Y-100932000D02*
X34374000Y-100932000D01*
X34374000Y-100932000D02*
X34374000Y-88552000D01*
X33564000Y-88552000D02*
X33564000Y-91092000D01*
X33564000Y-100932000D02*
X33564000Y-98392000D01*
X33564000Y-93202000D02*
X33564000Y-96282000D01*
X32564000Y-91202000D02*
X34374000Y-91202000D01*
X34374000Y-91202000D02*
X34374000Y-93202000D01*
X34374000Y-93202000D02*
X32564000Y-93202000D01*
X32564000Y-93202000D02*
X32564000Y-91202000D01*
X32564000Y-96282000D02*
X34374000Y-96282000D01*
X34374000Y-96282000D02*
X34374000Y-98282000D01*
X34374000Y-98282000D02*
X32564000Y-98282000D01*
X32564000Y-98282000D02*
X32564000Y-96282000D01*
X27264000Y-94202000D02*
X27264000Y-95282000D01*
X27264000Y-90202000D02*
X27264000Y-89462000D01*
X27264000Y-89462000D02*
X32564000Y-89462000D01*
X32564000Y-89462000D02*
X32564000Y-100022000D01*
X32564000Y-100022000D02*
X27264000Y-100022000D01*
X27264000Y-100022000D02*
X27264000Y-99282000D01*
X35174000Y-92502000D02*
X34574000Y-92202000D01*
X34574000Y-92202000D02*
X35174000Y-91902000D01*
X35174000Y-91902000D02*
X35174000Y-92502000D01*
X27248179Y-99268841D02*
G75*
G02*
X27264000Y-95282000I1665821J1986841D01*
G01*
X27248179Y-94188841D02*
G75*
G02*
X27264000Y-90202000I1665821J1986841D01*
G01*
%TO.C,J1*%
X34374000Y-75090000D02*
X25554000Y-75090000D01*
X25554000Y-75090000D02*
X25554000Y-87470000D01*
X25554000Y-87470000D02*
X34374000Y-87470000D01*
X34374000Y-87470000D02*
X34374000Y-75090000D01*
X33564000Y-75090000D02*
X33564000Y-77630000D01*
X33564000Y-87470000D02*
X33564000Y-84930000D01*
X33564000Y-79740000D02*
X33564000Y-82820000D01*
X32564000Y-77740000D02*
X34374000Y-77740000D01*
X34374000Y-77740000D02*
X34374000Y-79740000D01*
X34374000Y-79740000D02*
X32564000Y-79740000D01*
X32564000Y-79740000D02*
X32564000Y-77740000D01*
X32564000Y-82820000D02*
X34374000Y-82820000D01*
X34374000Y-82820000D02*
X34374000Y-84820000D01*
X34374000Y-84820000D02*
X32564000Y-84820000D01*
X32564000Y-84820000D02*
X32564000Y-82820000D01*
X27264000Y-80740000D02*
X27264000Y-81820000D01*
X27264000Y-76740000D02*
X27264000Y-76000000D01*
X27264000Y-76000000D02*
X32564000Y-76000000D01*
X32564000Y-76000000D02*
X32564000Y-86560000D01*
X32564000Y-86560000D02*
X27264000Y-86560000D01*
X27264000Y-86560000D02*
X27264000Y-85820000D01*
X35174000Y-79040000D02*
X34574000Y-78740000D01*
X34574000Y-78740000D02*
X35174000Y-78440000D01*
X35174000Y-78440000D02*
X35174000Y-79040000D01*
X27248179Y-85806841D02*
G75*
G02*
X27264000Y-81820000I1665821J1986841D01*
G01*
X27248179Y-80726841D02*
G75*
G02*
X27264000Y-76740000I1665821J1986841D01*
G01*
%TO.C,D2*%
X48178000Y-97918000D02*
X48178000Y-101218000D01*
X48178000Y-101218000D02*
X55078000Y-101218000D01*
X48178000Y-97918000D02*
X55078000Y-97918000D01*
%TO.C,C11*%
X27736748Y-61955000D02*
X29159252Y-61955000D01*
X27736748Y-63775000D02*
X29159252Y-63775000D01*
%TO.C,C9*%
X27736748Y-59542000D02*
X29159252Y-59542000D01*
X27736748Y-61362000D02*
X29159252Y-61362000D01*
%TO.C,C8*%
X42445000Y-89161252D02*
X42445000Y-88638748D01*
X43915000Y-89161252D02*
X43915000Y-88638748D01*
%TO.C,C7*%
X35587000Y-69730252D02*
X35587000Y-69207748D01*
X37057000Y-69730252D02*
X37057000Y-69207748D01*
%TO.C,C5*%
X35324252Y-63559000D02*
X33001748Y-63559000D01*
X35324252Y-60139000D02*
X33001748Y-60139000D01*
%TO.C,C4*%
X54288000Y-92818748D02*
X54288000Y-95141252D01*
X50868000Y-92818748D02*
X50868000Y-95141252D01*
%TO.C,C3*%
X39478748Y-60139000D02*
X41801252Y-60139000D01*
X39478748Y-63559000D02*
X41801252Y-63559000D01*
%TO.C,C2*%
X58352000Y-92818748D02*
X58352000Y-95141252D01*
X54932000Y-92818748D02*
X54932000Y-95141252D01*
%TO.C,C1*%
X58732000Y-99510000D02*
X61682000Y-99510000D01*
X67252000Y-99510000D02*
X64302000Y-99510000D01*
X67252000Y-92054437D02*
X67252000Y-99510000D01*
X58732000Y-92054437D02*
X58732000Y-99510000D01*
X59796437Y-90990000D02*
X61682000Y-90990000D01*
X66187563Y-90990000D02*
X64302000Y-90990000D01*
X66187563Y-90990000D02*
X67252000Y-92054437D01*
X59796437Y-90990000D02*
X58732000Y-92054437D01*
%TO.C,JP1*%
D16*
X67127380Y-52546285D02*
X67127380Y-53117714D01*
X67127380Y-52832000D02*
X66127380Y-52832000D01*
X66270238Y-52927238D01*
X66365476Y-53022476D01*
X66413095Y-53117714D01*
X66254380Y-57102333D02*
X66254380Y-56483285D01*
X66635333Y-56816619D01*
X66635333Y-56673761D01*
X66682952Y-56578523D01*
X66730571Y-56530904D01*
X66825809Y-56483285D01*
X67063904Y-56483285D01*
X67159142Y-56530904D01*
X67206761Y-56578523D01*
X67254380Y-56673761D01*
X67254380Y-56959476D01*
X67206761Y-57054714D01*
X67159142Y-57102333D01*
%TD*%
M02*
