%TF.GenerationSoftware,KiCad,Pcbnew,(5.1.8)-1*%
%TF.CreationDate,2021-03-17T21:52:09+01:00*%
%TF.ProjectId,sensactOutdoor,73656e73-6163-4744-9f75-74646f6f722e,rev?*%
%TF.SameCoordinates,Original*%
%TF.FileFunction,Profile,NP*%
%FSLAX46Y46*%
G04 Gerber Fmt 4.6, Leading zero omitted, Abs format (unit mm)*
G04 Created by KiCad (PCBNEW (5.1.8)-1) date 2021-03-17 21:52:09*
%MOMM*%
%LPD*%
G01*
G04 APERTURE LIST*
%TA.AperFunction,Profile*%
%ADD10C,0.050000*%
%TD*%
G04 APERTURE END LIST*
D10*
X83947000Y-73787000D02*
X102362000Y-73787000D01*
X83947000Y-75946000D02*
X83947000Y-73787000D01*
X99822000Y-75946000D02*
X83947000Y-75946000D01*
X80137000Y-81280000D02*
X83947000Y-81280000D01*
X80137000Y-89789000D02*
X80137000Y-81280000D01*
X83947000Y-89789000D02*
X80137000Y-89789000D01*
X83947000Y-81280000D02*
X83947000Y-89789000D01*
X114000000Y-89500000D02*
X116000000Y-89500000D01*
X106500000Y-82000000D02*
X106500000Y-98500000D01*
X110482000Y-84836000D02*
X110500000Y-101500000D01*
X106500000Y-98500000D02*
X102500000Y-98500000D01*
X125000000Y-101500000D02*
X110500000Y-101500000D01*
X102500000Y-88500000D02*
X102500000Y-98500000D01*
X102500000Y-88500000D02*
X98500000Y-88500000D01*
X98500000Y-101500000D02*
X98500000Y-88500000D01*
X110500000Y-72366000D02*
X110500000Y-67366000D01*
X108500000Y-67366000D02*
X108500000Y-72366000D01*
X110500000Y-67366000D02*
X108500000Y-67366000D01*
X108500000Y-72366000D02*
X110500000Y-72366000D01*
X116000000Y-82000000D02*
X116000000Y-89500000D01*
X106500000Y-82000000D02*
X116000000Y-82000000D01*
X114000000Y-84836000D02*
X110482000Y-84836000D01*
X114000000Y-89500000D02*
X114000000Y-84836000D01*
X110500000Y-27000000D02*
X108500000Y-27000000D01*
X108500000Y-27000000D02*
X108500000Y-32000000D01*
X110500000Y-32000000D02*
X110500000Y-27000000D01*
X108500000Y-32000000D02*
X110500000Y-32000000D01*
X110500000Y-35000000D02*
X108500000Y-35000000D01*
X108500000Y-40000000D02*
X110500000Y-40000000D01*
X108500000Y-35000000D02*
X108500000Y-40000000D01*
X110500000Y-40000000D02*
X110500000Y-35000000D01*
X108500000Y-47500000D02*
X110500000Y-47500000D01*
X108500000Y-42500000D02*
X108500000Y-47500000D01*
X110500000Y-42500000D02*
X108500000Y-42500000D01*
X110500000Y-47500000D02*
X110500000Y-42500000D01*
X108500000Y-60000000D02*
X108500000Y-65000000D01*
X110500000Y-60000000D02*
X108500000Y-60000000D01*
X110500000Y-65000000D02*
X110500000Y-60000000D01*
X108500000Y-65000000D02*
X110500000Y-65000000D01*
X110500000Y-57000000D02*
X110500000Y-52000000D01*
X108500000Y-57000000D02*
X110500000Y-57000000D01*
X108500000Y-52000000D02*
X108500000Y-57000000D01*
X110500000Y-52000000D02*
X108500000Y-52000000D01*
X99822000Y-83439000D02*
X99822000Y-75946000D01*
X102362000Y-83439000D02*
X99822000Y-83439000D01*
X102362000Y-73787000D02*
X102362000Y-83439000D01*
X125000000Y-22500000D02*
X86000000Y-22500000D01*
X86000000Y-22500000D02*
G75*
G02*
X72000000Y-22500000I-7000000J0D01*
G01*
X98500000Y-101500000D02*
X86000000Y-101500000D01*
X72000000Y-101500000D02*
G75*
G02*
X86000000Y-101500000I7000000J0D01*
G01*
X25000000Y-101500000D02*
X25000000Y-22500000D01*
X72000000Y-101500000D02*
X25000000Y-101500000D01*
X125000000Y-22500000D02*
X125000000Y-101500000D01*
X25000000Y-22500000D02*
X72000000Y-22500000D01*
M02*
