G04 #@! TF.GenerationSoftware,KiCad,Pcbnew,(5.1.8)-1*
G04 #@! TF.CreationDate,2021-07-21T13:46:01+02:00*
G04 #@! TF.ProjectId,sensactOutdoor,73656e73-6163-4744-9f75-74646f6f722e,rev?*
G04 #@! TF.SameCoordinates,Original*
G04 #@! TF.FileFunction,Paste,Top*
G04 #@! TF.FilePolarity,Positive*
%FSLAX46Y46*%
G04 Gerber Fmt 4.6, Leading zero omitted, Abs format (unit mm)*
G04 Created by KiCad (PCBNEW (5.1.8)-1) date 2021-07-21 13:46:01*
%MOMM*%
%LPD*%
G01*
G04 APERTURE LIST*
%ADD10R,4.800000X4.500000*%
%ADD11R,1.300000X2.000000*%
%ADD12R,2.200000X1.400000*%
%ADD13R,2.200000X0.600000*%
%ADD14R,1.500000X3.000000*%
%ADD15R,3.800000X3.000000*%
%ADD16R,3.500000X1.800000*%
G04 APERTURE END LIST*
G36*
G01*
X56609000Y-92387000D02*
X55659000Y-92387000D01*
G75*
G02*
X55409000Y-92137000I0J250000D01*
G01*
X55409000Y-91462000D01*
G75*
G02*
X55659000Y-91212000I250000J0D01*
G01*
X56609000Y-91212000D01*
G75*
G02*
X56859000Y-91462000I0J-250000D01*
G01*
X56859000Y-92137000D01*
G75*
G02*
X56609000Y-92387000I-250000J0D01*
G01*
G37*
G36*
G01*
X56609000Y-94462000D02*
X55659000Y-94462000D01*
G75*
G02*
X55409000Y-94212000I0J250000D01*
G01*
X55409000Y-93537000D01*
G75*
G02*
X55659000Y-93287000I250000J0D01*
G01*
X56609000Y-93287000D01*
G75*
G02*
X56859000Y-93537000I0J-250000D01*
G01*
X56859000Y-94212000D01*
G75*
G02*
X56609000Y-94462000I-250000J0D01*
G01*
G37*
D10*
X52408400Y-92964000D03*
X41808400Y-92964000D03*
G36*
G01*
X37400001Y-95350000D02*
X36099999Y-95350000D01*
G75*
G02*
X35850000Y-95100001I0J249999D01*
G01*
X35850000Y-94274999D01*
G75*
G02*
X36099999Y-94025000I249999J0D01*
G01*
X37400001Y-94025000D01*
G75*
G02*
X37650000Y-94274999I0J-249999D01*
G01*
X37650000Y-95100001D01*
G75*
G02*
X37400001Y-95350000I-249999J0D01*
G01*
G37*
G36*
G01*
X37400001Y-98475000D02*
X36099999Y-98475000D01*
G75*
G02*
X35850000Y-98225001I0J249999D01*
G01*
X35850000Y-97399999D01*
G75*
G02*
X36099999Y-97150000I249999J0D01*
G01*
X37400001Y-97150000D01*
G75*
G02*
X37650000Y-97399999I0J-249999D01*
G01*
X37650000Y-98225001D01*
G75*
G02*
X37400001Y-98475000I-249999J0D01*
G01*
G37*
G36*
G01*
X68468001Y-87111000D02*
X67167999Y-87111000D01*
G75*
G02*
X66918000Y-86861001I0J249999D01*
G01*
X66918000Y-86035999D01*
G75*
G02*
X67167999Y-85786000I249999J0D01*
G01*
X68468001Y-85786000D01*
G75*
G02*
X68718000Y-86035999I0J-249999D01*
G01*
X68718000Y-86861001D01*
G75*
G02*
X68468001Y-87111000I-249999J0D01*
G01*
G37*
G36*
G01*
X68468001Y-90236000D02*
X67167999Y-90236000D01*
G75*
G02*
X66918000Y-89986001I0J249999D01*
G01*
X66918000Y-89160999D01*
G75*
G02*
X67167999Y-88911000I249999J0D01*
G01*
X68468001Y-88911000D01*
G75*
G02*
X68718000Y-89160999I0J-249999D01*
G01*
X68718000Y-89986001D01*
G75*
G02*
X68468001Y-90236000I-249999J0D01*
G01*
G37*
G36*
G01*
X71258000Y-93360001D02*
X71258000Y-92059999D01*
G75*
G02*
X71507999Y-91810000I249999J0D01*
G01*
X72333001Y-91810000D01*
G75*
G02*
X72583000Y-92059999I0J-249999D01*
G01*
X72583000Y-93360001D01*
G75*
G02*
X72333001Y-93610000I-249999J0D01*
G01*
X71507999Y-93610000D01*
G75*
G02*
X71258000Y-93360001I0J249999D01*
G01*
G37*
G36*
G01*
X68133000Y-93360001D02*
X68133000Y-92059999D01*
G75*
G02*
X68382999Y-91810000I249999J0D01*
G01*
X69208001Y-91810000D01*
G75*
G02*
X69458000Y-92059999I0J-249999D01*
G01*
X69458000Y-93360001D01*
G75*
G02*
X69208001Y-93610000I-249999J0D01*
G01*
X68382999Y-93610000D01*
G75*
G02*
X68133000Y-93360001I0J249999D01*
G01*
G37*
G36*
G01*
X68904000Y-33423000D02*
X68904000Y-33873000D01*
G75*
G02*
X68679000Y-34098000I-225000J0D01*
G01*
X66129000Y-34098000D01*
G75*
G02*
X65904000Y-33873000I0J225000D01*
G01*
X65904000Y-33423000D01*
G75*
G02*
X66129000Y-33198000I225000J0D01*
G01*
X68679000Y-33198000D01*
G75*
G02*
X68904000Y-33423000I0J-225000D01*
G01*
G37*
G36*
G01*
X68904000Y-34693000D02*
X68904000Y-35143000D01*
G75*
G02*
X68679000Y-35368000I-225000J0D01*
G01*
X66129000Y-35368000D01*
G75*
G02*
X65904000Y-35143000I0J225000D01*
G01*
X65904000Y-34693000D01*
G75*
G02*
X66129000Y-34468000I225000J0D01*
G01*
X68679000Y-34468000D01*
G75*
G02*
X68904000Y-34693000I0J-225000D01*
G01*
G37*
G36*
G01*
X68904000Y-35963000D02*
X68904000Y-36413000D01*
G75*
G02*
X68679000Y-36638000I-225000J0D01*
G01*
X66129000Y-36638000D01*
G75*
G02*
X65904000Y-36413000I0J225000D01*
G01*
X65904000Y-35963000D01*
G75*
G02*
X66129000Y-35738000I225000J0D01*
G01*
X68679000Y-35738000D01*
G75*
G02*
X68904000Y-35963000I0J-225000D01*
G01*
G37*
G36*
G01*
X68904000Y-37233000D02*
X68904000Y-37683000D01*
G75*
G02*
X68679000Y-37908000I-225000J0D01*
G01*
X66129000Y-37908000D01*
G75*
G02*
X65904000Y-37683000I0J225000D01*
G01*
X65904000Y-37233000D01*
G75*
G02*
X66129000Y-37008000I225000J0D01*
G01*
X68679000Y-37008000D01*
G75*
G02*
X68904000Y-37233000I0J-225000D01*
G01*
G37*
G36*
G01*
X68904000Y-38503000D02*
X68904000Y-38953000D01*
G75*
G02*
X68679000Y-39178000I-225000J0D01*
G01*
X66129000Y-39178000D01*
G75*
G02*
X65904000Y-38953000I0J225000D01*
G01*
X65904000Y-38503000D01*
G75*
G02*
X66129000Y-38278000I225000J0D01*
G01*
X68679000Y-38278000D01*
G75*
G02*
X68904000Y-38503000I0J-225000D01*
G01*
G37*
G36*
G01*
X68904000Y-39773000D02*
X68904000Y-40223000D01*
G75*
G02*
X68679000Y-40448000I-225000J0D01*
G01*
X66129000Y-40448000D01*
G75*
G02*
X65904000Y-40223000I0J225000D01*
G01*
X65904000Y-39773000D01*
G75*
G02*
X66129000Y-39548000I225000J0D01*
G01*
X68679000Y-39548000D01*
G75*
G02*
X68904000Y-39773000I0J-225000D01*
G01*
G37*
G36*
G01*
X68904000Y-41043000D02*
X68904000Y-41493000D01*
G75*
G02*
X68679000Y-41718000I-225000J0D01*
G01*
X66129000Y-41718000D01*
G75*
G02*
X65904000Y-41493000I0J225000D01*
G01*
X65904000Y-41043000D01*
G75*
G02*
X66129000Y-40818000I225000J0D01*
G01*
X68679000Y-40818000D01*
G75*
G02*
X68904000Y-41043000I0J-225000D01*
G01*
G37*
G36*
G01*
X68904000Y-42313000D02*
X68904000Y-42763000D01*
G75*
G02*
X68679000Y-42988000I-225000J0D01*
G01*
X66129000Y-42988000D01*
G75*
G02*
X65904000Y-42763000I0J225000D01*
G01*
X65904000Y-42313000D01*
G75*
G02*
X66129000Y-42088000I225000J0D01*
G01*
X68679000Y-42088000D01*
G75*
G02*
X68904000Y-42313000I0J-225000D01*
G01*
G37*
G36*
G01*
X68904000Y-43583000D02*
X68904000Y-44033000D01*
G75*
G02*
X68679000Y-44258000I-225000J0D01*
G01*
X66129000Y-44258000D01*
G75*
G02*
X65904000Y-44033000I0J225000D01*
G01*
X65904000Y-43583000D01*
G75*
G02*
X66129000Y-43358000I225000J0D01*
G01*
X68679000Y-43358000D01*
G75*
G02*
X68904000Y-43583000I0J-225000D01*
G01*
G37*
G36*
G01*
X68904000Y-44853000D02*
X68904000Y-45303000D01*
G75*
G02*
X68679000Y-45528000I-225000J0D01*
G01*
X66129000Y-45528000D01*
G75*
G02*
X65904000Y-45303000I0J225000D01*
G01*
X65904000Y-44853000D01*
G75*
G02*
X66129000Y-44628000I225000J0D01*
G01*
X68679000Y-44628000D01*
G75*
G02*
X68904000Y-44853000I0J-225000D01*
G01*
G37*
G36*
G01*
X68904000Y-46123000D02*
X68904000Y-46573000D01*
G75*
G02*
X68679000Y-46798000I-225000J0D01*
G01*
X66129000Y-46798000D01*
G75*
G02*
X65904000Y-46573000I0J225000D01*
G01*
X65904000Y-46123000D01*
G75*
G02*
X66129000Y-45898000I225000J0D01*
G01*
X68679000Y-45898000D01*
G75*
G02*
X68904000Y-46123000I0J-225000D01*
G01*
G37*
G36*
G01*
X68904000Y-47393000D02*
X68904000Y-47843000D01*
G75*
G02*
X68679000Y-48068000I-225000J0D01*
G01*
X66129000Y-48068000D01*
G75*
G02*
X65904000Y-47843000I0J225000D01*
G01*
X65904000Y-47393000D01*
G75*
G02*
X66129000Y-47168000I225000J0D01*
G01*
X68679000Y-47168000D01*
G75*
G02*
X68904000Y-47393000I0J-225000D01*
G01*
G37*
G36*
G01*
X68904000Y-48663000D02*
X68904000Y-49113000D01*
G75*
G02*
X68679000Y-49338000I-225000J0D01*
G01*
X66129000Y-49338000D01*
G75*
G02*
X65904000Y-49113000I0J225000D01*
G01*
X65904000Y-48663000D01*
G75*
G02*
X66129000Y-48438000I225000J0D01*
G01*
X68679000Y-48438000D01*
G75*
G02*
X68904000Y-48663000I0J-225000D01*
G01*
G37*
G36*
G01*
X68904000Y-49933000D02*
X68904000Y-50383000D01*
G75*
G02*
X68679000Y-50608000I-225000J0D01*
G01*
X66129000Y-50608000D01*
G75*
G02*
X65904000Y-50383000I0J225000D01*
G01*
X65904000Y-49933000D01*
G75*
G02*
X66129000Y-49708000I225000J0D01*
G01*
X68679000Y-49708000D01*
G75*
G02*
X68904000Y-49933000I0J-225000D01*
G01*
G37*
G36*
G01*
X64344000Y-53158000D02*
X63894000Y-53158000D01*
G75*
G02*
X63669000Y-52933000I0J225000D01*
G01*
X63669000Y-50383000D01*
G75*
G02*
X63894000Y-50158000I225000J0D01*
G01*
X64344000Y-50158000D01*
G75*
G02*
X64569000Y-50383000I0J-225000D01*
G01*
X64569000Y-52933000D01*
G75*
G02*
X64344000Y-53158000I-225000J0D01*
G01*
G37*
G36*
G01*
X63074000Y-53158000D02*
X62624000Y-53158000D01*
G75*
G02*
X62399000Y-52933000I0J225000D01*
G01*
X62399000Y-50383000D01*
G75*
G02*
X62624000Y-50158000I225000J0D01*
G01*
X63074000Y-50158000D01*
G75*
G02*
X63299000Y-50383000I0J-225000D01*
G01*
X63299000Y-52933000D01*
G75*
G02*
X63074000Y-53158000I-225000J0D01*
G01*
G37*
G36*
G01*
X61804000Y-53158000D02*
X61354000Y-53158000D01*
G75*
G02*
X61129000Y-52933000I0J225000D01*
G01*
X61129000Y-50383000D01*
G75*
G02*
X61354000Y-50158000I225000J0D01*
G01*
X61804000Y-50158000D01*
G75*
G02*
X62029000Y-50383000I0J-225000D01*
G01*
X62029000Y-52933000D01*
G75*
G02*
X61804000Y-53158000I-225000J0D01*
G01*
G37*
G36*
G01*
X60534000Y-53158000D02*
X60084000Y-53158000D01*
G75*
G02*
X59859000Y-52933000I0J225000D01*
G01*
X59859000Y-50383000D01*
G75*
G02*
X60084000Y-50158000I225000J0D01*
G01*
X60534000Y-50158000D01*
G75*
G02*
X60759000Y-50383000I0J-225000D01*
G01*
X60759000Y-52933000D01*
G75*
G02*
X60534000Y-53158000I-225000J0D01*
G01*
G37*
G36*
G01*
X59264000Y-53158000D02*
X58814000Y-53158000D01*
G75*
G02*
X58589000Y-52933000I0J225000D01*
G01*
X58589000Y-50383000D01*
G75*
G02*
X58814000Y-50158000I225000J0D01*
G01*
X59264000Y-50158000D01*
G75*
G02*
X59489000Y-50383000I0J-225000D01*
G01*
X59489000Y-52933000D01*
G75*
G02*
X59264000Y-53158000I-225000J0D01*
G01*
G37*
G36*
G01*
X57994000Y-53158000D02*
X57544000Y-53158000D01*
G75*
G02*
X57319000Y-52933000I0J225000D01*
G01*
X57319000Y-50383000D01*
G75*
G02*
X57544000Y-50158000I225000J0D01*
G01*
X57994000Y-50158000D01*
G75*
G02*
X58219000Y-50383000I0J-225000D01*
G01*
X58219000Y-52933000D01*
G75*
G02*
X57994000Y-53158000I-225000J0D01*
G01*
G37*
G36*
G01*
X56724000Y-53158000D02*
X56274000Y-53158000D01*
G75*
G02*
X56049000Y-52933000I0J225000D01*
G01*
X56049000Y-50383000D01*
G75*
G02*
X56274000Y-50158000I225000J0D01*
G01*
X56724000Y-50158000D01*
G75*
G02*
X56949000Y-50383000I0J-225000D01*
G01*
X56949000Y-52933000D01*
G75*
G02*
X56724000Y-53158000I-225000J0D01*
G01*
G37*
G36*
G01*
X55454000Y-53158000D02*
X55004000Y-53158000D01*
G75*
G02*
X54779000Y-52933000I0J225000D01*
G01*
X54779000Y-50383000D01*
G75*
G02*
X55004000Y-50158000I225000J0D01*
G01*
X55454000Y-50158000D01*
G75*
G02*
X55679000Y-50383000I0J-225000D01*
G01*
X55679000Y-52933000D01*
G75*
G02*
X55454000Y-53158000I-225000J0D01*
G01*
G37*
G36*
G01*
X54184000Y-53158000D02*
X53734000Y-53158000D01*
G75*
G02*
X53509000Y-52933000I0J225000D01*
G01*
X53509000Y-50383000D01*
G75*
G02*
X53734000Y-50158000I225000J0D01*
G01*
X54184000Y-50158000D01*
G75*
G02*
X54409000Y-50383000I0J-225000D01*
G01*
X54409000Y-52933000D01*
G75*
G02*
X54184000Y-53158000I-225000J0D01*
G01*
G37*
G36*
G01*
X52914000Y-53158000D02*
X52464000Y-53158000D01*
G75*
G02*
X52239000Y-52933000I0J225000D01*
G01*
X52239000Y-50383000D01*
G75*
G02*
X52464000Y-50158000I225000J0D01*
G01*
X52914000Y-50158000D01*
G75*
G02*
X53139000Y-50383000I0J-225000D01*
G01*
X53139000Y-52933000D01*
G75*
G02*
X52914000Y-53158000I-225000J0D01*
G01*
G37*
G36*
G01*
X47904000Y-50383000D02*
X47904000Y-49933000D01*
G75*
G02*
X48129000Y-49708000I225000J0D01*
G01*
X50679000Y-49708000D01*
G75*
G02*
X50904000Y-49933000I0J-225000D01*
G01*
X50904000Y-50383000D01*
G75*
G02*
X50679000Y-50608000I-225000J0D01*
G01*
X48129000Y-50608000D01*
G75*
G02*
X47904000Y-50383000I0J225000D01*
G01*
G37*
G36*
G01*
X47904000Y-49113000D02*
X47904000Y-48663000D01*
G75*
G02*
X48129000Y-48438000I225000J0D01*
G01*
X50679000Y-48438000D01*
G75*
G02*
X50904000Y-48663000I0J-225000D01*
G01*
X50904000Y-49113000D01*
G75*
G02*
X50679000Y-49338000I-225000J0D01*
G01*
X48129000Y-49338000D01*
G75*
G02*
X47904000Y-49113000I0J225000D01*
G01*
G37*
G36*
G01*
X47904000Y-47843000D02*
X47904000Y-47393000D01*
G75*
G02*
X48129000Y-47168000I225000J0D01*
G01*
X50679000Y-47168000D01*
G75*
G02*
X50904000Y-47393000I0J-225000D01*
G01*
X50904000Y-47843000D01*
G75*
G02*
X50679000Y-48068000I-225000J0D01*
G01*
X48129000Y-48068000D01*
G75*
G02*
X47904000Y-47843000I0J225000D01*
G01*
G37*
G36*
G01*
X47904000Y-46573000D02*
X47904000Y-46123000D01*
G75*
G02*
X48129000Y-45898000I225000J0D01*
G01*
X50679000Y-45898000D01*
G75*
G02*
X50904000Y-46123000I0J-225000D01*
G01*
X50904000Y-46573000D01*
G75*
G02*
X50679000Y-46798000I-225000J0D01*
G01*
X48129000Y-46798000D01*
G75*
G02*
X47904000Y-46573000I0J225000D01*
G01*
G37*
G36*
G01*
X47904000Y-45303000D02*
X47904000Y-44853000D01*
G75*
G02*
X48129000Y-44628000I225000J0D01*
G01*
X50679000Y-44628000D01*
G75*
G02*
X50904000Y-44853000I0J-225000D01*
G01*
X50904000Y-45303000D01*
G75*
G02*
X50679000Y-45528000I-225000J0D01*
G01*
X48129000Y-45528000D01*
G75*
G02*
X47904000Y-45303000I0J225000D01*
G01*
G37*
G36*
G01*
X47904000Y-44033000D02*
X47904000Y-43583000D01*
G75*
G02*
X48129000Y-43358000I225000J0D01*
G01*
X50679000Y-43358000D01*
G75*
G02*
X50904000Y-43583000I0J-225000D01*
G01*
X50904000Y-44033000D01*
G75*
G02*
X50679000Y-44258000I-225000J0D01*
G01*
X48129000Y-44258000D01*
G75*
G02*
X47904000Y-44033000I0J225000D01*
G01*
G37*
G36*
G01*
X47904000Y-42763000D02*
X47904000Y-42313000D01*
G75*
G02*
X48129000Y-42088000I225000J0D01*
G01*
X50679000Y-42088000D01*
G75*
G02*
X50904000Y-42313000I0J-225000D01*
G01*
X50904000Y-42763000D01*
G75*
G02*
X50679000Y-42988000I-225000J0D01*
G01*
X48129000Y-42988000D01*
G75*
G02*
X47904000Y-42763000I0J225000D01*
G01*
G37*
G36*
G01*
X47904000Y-41493000D02*
X47904000Y-41043000D01*
G75*
G02*
X48129000Y-40818000I225000J0D01*
G01*
X50679000Y-40818000D01*
G75*
G02*
X50904000Y-41043000I0J-225000D01*
G01*
X50904000Y-41493000D01*
G75*
G02*
X50679000Y-41718000I-225000J0D01*
G01*
X48129000Y-41718000D01*
G75*
G02*
X47904000Y-41493000I0J225000D01*
G01*
G37*
G36*
G01*
X47904000Y-40223000D02*
X47904000Y-39773000D01*
G75*
G02*
X48129000Y-39548000I225000J0D01*
G01*
X50679000Y-39548000D01*
G75*
G02*
X50904000Y-39773000I0J-225000D01*
G01*
X50904000Y-40223000D01*
G75*
G02*
X50679000Y-40448000I-225000J0D01*
G01*
X48129000Y-40448000D01*
G75*
G02*
X47904000Y-40223000I0J225000D01*
G01*
G37*
G36*
G01*
X47904000Y-38953000D02*
X47904000Y-38503000D01*
G75*
G02*
X48129000Y-38278000I225000J0D01*
G01*
X50679000Y-38278000D01*
G75*
G02*
X50904000Y-38503000I0J-225000D01*
G01*
X50904000Y-38953000D01*
G75*
G02*
X50679000Y-39178000I-225000J0D01*
G01*
X48129000Y-39178000D01*
G75*
G02*
X47904000Y-38953000I0J225000D01*
G01*
G37*
G36*
G01*
X47904000Y-37683000D02*
X47904000Y-37233000D01*
G75*
G02*
X48129000Y-37008000I225000J0D01*
G01*
X50679000Y-37008000D01*
G75*
G02*
X50904000Y-37233000I0J-225000D01*
G01*
X50904000Y-37683000D01*
G75*
G02*
X50679000Y-37908000I-225000J0D01*
G01*
X48129000Y-37908000D01*
G75*
G02*
X47904000Y-37683000I0J225000D01*
G01*
G37*
G36*
G01*
X47904000Y-36413000D02*
X47904000Y-35963000D01*
G75*
G02*
X48129000Y-35738000I225000J0D01*
G01*
X50679000Y-35738000D01*
G75*
G02*
X50904000Y-35963000I0J-225000D01*
G01*
X50904000Y-36413000D01*
G75*
G02*
X50679000Y-36638000I-225000J0D01*
G01*
X48129000Y-36638000D01*
G75*
G02*
X47904000Y-36413000I0J225000D01*
G01*
G37*
G36*
G01*
X47904000Y-35143000D02*
X47904000Y-34693000D01*
G75*
G02*
X48129000Y-34468000I225000J0D01*
G01*
X50679000Y-34468000D01*
G75*
G02*
X50904000Y-34693000I0J-225000D01*
G01*
X50904000Y-35143000D01*
G75*
G02*
X50679000Y-35368000I-225000J0D01*
G01*
X48129000Y-35368000D01*
G75*
G02*
X47904000Y-35143000I0J225000D01*
G01*
G37*
G36*
G01*
X47904000Y-33873000D02*
X47904000Y-33423000D01*
G75*
G02*
X48129000Y-33198000I225000J0D01*
G01*
X50679000Y-33198000D01*
G75*
G02*
X50904000Y-33423000I0J-225000D01*
G01*
X50904000Y-33873000D01*
G75*
G02*
X50679000Y-34098000I-225000J0D01*
G01*
X48129000Y-34098000D01*
G75*
G02*
X47904000Y-33873000I0J225000D01*
G01*
G37*
G36*
G01*
X77989000Y-63705501D02*
X77989000Y-62405499D01*
G75*
G02*
X78238999Y-62155500I249999J0D01*
G01*
X79064001Y-62155500D01*
G75*
G02*
X79314000Y-62405499I0J-249999D01*
G01*
X79314000Y-63705501D01*
G75*
G02*
X79064001Y-63955500I-249999J0D01*
G01*
X78238999Y-63955500D01*
G75*
G02*
X77989000Y-63705501I0J249999D01*
G01*
G37*
G36*
G01*
X74864000Y-63705501D02*
X74864000Y-62405499D01*
G75*
G02*
X75113999Y-62155500I249999J0D01*
G01*
X75939001Y-62155500D01*
G75*
G02*
X76189000Y-62405499I0J-249999D01*
G01*
X76189000Y-63705501D01*
G75*
G02*
X75939001Y-63955500I-249999J0D01*
G01*
X75113999Y-63955500D01*
G75*
G02*
X74864000Y-63705501I0J249999D01*
G01*
G37*
G36*
G01*
X77989000Y-61292501D02*
X77989000Y-59992499D01*
G75*
G02*
X78238999Y-59742500I249999J0D01*
G01*
X79064001Y-59742500D01*
G75*
G02*
X79314000Y-59992499I0J-249999D01*
G01*
X79314000Y-61292501D01*
G75*
G02*
X79064001Y-61542500I-249999J0D01*
G01*
X78238999Y-61542500D01*
G75*
G02*
X77989000Y-61292501I0J249999D01*
G01*
G37*
G36*
G01*
X74864000Y-61292501D02*
X74864000Y-59992499D01*
G75*
G02*
X75113999Y-59742500I249999J0D01*
G01*
X75939001Y-59742500D01*
G75*
G02*
X76189000Y-59992499I0J-249999D01*
G01*
X76189000Y-61292501D01*
G75*
G02*
X75939001Y-61542500I-249999J0D01*
G01*
X75113999Y-61542500D01*
G75*
G02*
X74864000Y-61292501I0J249999D01*
G01*
G37*
G36*
G01*
X77989000Y-58879501D02*
X77989000Y-57579499D01*
G75*
G02*
X78238999Y-57329500I249999J0D01*
G01*
X79064001Y-57329500D01*
G75*
G02*
X79314000Y-57579499I0J-249999D01*
G01*
X79314000Y-58879501D01*
G75*
G02*
X79064001Y-59129500I-249999J0D01*
G01*
X78238999Y-59129500D01*
G75*
G02*
X77989000Y-58879501I0J249999D01*
G01*
G37*
G36*
G01*
X74864000Y-58879501D02*
X74864000Y-57579499D01*
G75*
G02*
X75113999Y-57329500I249999J0D01*
G01*
X75939001Y-57329500D01*
G75*
G02*
X76189000Y-57579499I0J-249999D01*
G01*
X76189000Y-58879501D01*
G75*
G02*
X75939001Y-59129500I-249999J0D01*
G01*
X75113999Y-59129500D01*
G75*
G02*
X74864000Y-58879501I0J249999D01*
G01*
G37*
G36*
G01*
X62816501Y-65648000D02*
X61516499Y-65648000D01*
G75*
G02*
X61266500Y-65398001I0J249999D01*
G01*
X61266500Y-64572999D01*
G75*
G02*
X61516499Y-64323000I249999J0D01*
G01*
X62816501Y-64323000D01*
G75*
G02*
X63066500Y-64572999I0J-249999D01*
G01*
X63066500Y-65398001D01*
G75*
G02*
X62816501Y-65648000I-249999J0D01*
G01*
G37*
G36*
G01*
X62816501Y-68773000D02*
X61516499Y-68773000D01*
G75*
G02*
X61266500Y-68523001I0J249999D01*
G01*
X61266500Y-67697999D01*
G75*
G02*
X61516499Y-67448000I249999J0D01*
G01*
X62816501Y-67448000D01*
G75*
G02*
X63066500Y-67697999I0J-249999D01*
G01*
X63066500Y-68523001D01*
G75*
G02*
X62816501Y-68773000I-249999J0D01*
G01*
G37*
G36*
G01*
X65166001Y-65648000D02*
X63865999Y-65648000D01*
G75*
G02*
X63616000Y-65398001I0J249999D01*
G01*
X63616000Y-64572999D01*
G75*
G02*
X63865999Y-64323000I249999J0D01*
G01*
X65166001Y-64323000D01*
G75*
G02*
X65416000Y-64572999I0J-249999D01*
G01*
X65416000Y-65398001D01*
G75*
G02*
X65166001Y-65648000I-249999J0D01*
G01*
G37*
G36*
G01*
X65166001Y-68773000D02*
X63865999Y-68773000D01*
G75*
G02*
X63616000Y-68523001I0J249999D01*
G01*
X63616000Y-67697999D01*
G75*
G02*
X63865999Y-67448000I249999J0D01*
G01*
X65166001Y-67448000D01*
G75*
G02*
X65416000Y-67697999I0J-249999D01*
G01*
X65416000Y-68523001D01*
G75*
G02*
X65166001Y-68773000I-249999J0D01*
G01*
G37*
G36*
G01*
X61987000Y-77929501D02*
X61987000Y-76629499D01*
G75*
G02*
X62236999Y-76379500I249999J0D01*
G01*
X63062001Y-76379500D01*
G75*
G02*
X63312000Y-76629499I0J-249999D01*
G01*
X63312000Y-77929501D01*
G75*
G02*
X63062001Y-78179500I-249999J0D01*
G01*
X62236999Y-78179500D01*
G75*
G02*
X61987000Y-77929501I0J249999D01*
G01*
G37*
G36*
G01*
X58862000Y-77929501D02*
X58862000Y-76629499D01*
G75*
G02*
X59111999Y-76379500I249999J0D01*
G01*
X59937001Y-76379500D01*
G75*
G02*
X60187000Y-76629499I0J-249999D01*
G01*
X60187000Y-77929501D01*
G75*
G02*
X59937001Y-78179500I-249999J0D01*
G01*
X59111999Y-78179500D01*
G75*
G02*
X58862000Y-77929501I0J249999D01*
G01*
G37*
D11*
X76100500Y-47235000D03*
X71600500Y-47235000D03*
X71600500Y-55635000D03*
X76100500Y-55635000D03*
G36*
G01*
X78643500Y-45397000D02*
X77693500Y-45397000D01*
G75*
G02*
X77443500Y-45147000I0J250000D01*
G01*
X77443500Y-44472000D01*
G75*
G02*
X77693500Y-44222000I250000J0D01*
G01*
X78643500Y-44222000D01*
G75*
G02*
X78893500Y-44472000I0J-250000D01*
G01*
X78893500Y-45147000D01*
G75*
G02*
X78643500Y-45397000I-250000J0D01*
G01*
G37*
G36*
G01*
X78643500Y-47472000D02*
X77693500Y-47472000D01*
G75*
G02*
X77443500Y-47222000I0J250000D01*
G01*
X77443500Y-46547000D01*
G75*
G02*
X77693500Y-46297000I250000J0D01*
G01*
X78643500Y-46297000D01*
G75*
G02*
X78893500Y-46547000I0J-250000D01*
G01*
X78893500Y-47222000D01*
G75*
G02*
X78643500Y-47472000I-250000J0D01*
G01*
G37*
D12*
X70679000Y-44829000D03*
X70679000Y-41529000D03*
X75879000Y-41529000D03*
X75879000Y-44829000D03*
G36*
G01*
X35868200Y-69179500D02*
X35868200Y-69504500D01*
G75*
G02*
X35705700Y-69667000I-162500J0D01*
G01*
X33280700Y-69667000D01*
G75*
G02*
X33118200Y-69504500I0J162500D01*
G01*
X33118200Y-69179500D01*
G75*
G02*
X33280700Y-69017000I162500J0D01*
G01*
X35705700Y-69017000D01*
G75*
G02*
X35868200Y-69179500I0J-162500D01*
G01*
G37*
G36*
G01*
X35868200Y-66639500D02*
X35868200Y-66964500D01*
G75*
G02*
X35705700Y-67127000I-162500J0D01*
G01*
X33280700Y-67127000D01*
G75*
G02*
X33118200Y-66964500I0J162500D01*
G01*
X33118200Y-66639500D01*
G75*
G02*
X33280700Y-66477000I162500J0D01*
G01*
X35705700Y-66477000D01*
G75*
G02*
X35868200Y-66639500I0J-162500D01*
G01*
G37*
G36*
G01*
X35868200Y-64099500D02*
X35868200Y-64424500D01*
G75*
G02*
X35705700Y-64587000I-162500J0D01*
G01*
X33280700Y-64587000D01*
G75*
G02*
X33118200Y-64424500I0J162500D01*
G01*
X33118200Y-64099500D01*
G75*
G02*
X33280700Y-63937000I162500J0D01*
G01*
X35705700Y-63937000D01*
G75*
G02*
X35868200Y-64099500I0J-162500D01*
G01*
G37*
G36*
G01*
X35868200Y-61559500D02*
X35868200Y-61884500D01*
G75*
G02*
X35705700Y-62047000I-162500J0D01*
G01*
X33280700Y-62047000D01*
G75*
G02*
X33118200Y-61884500I0J162500D01*
G01*
X33118200Y-61559500D01*
G75*
G02*
X33280700Y-61397000I162500J0D01*
G01*
X35705700Y-61397000D01*
G75*
G02*
X35868200Y-61559500I0J-162500D01*
G01*
G37*
G36*
G01*
X45293200Y-61559500D02*
X45293200Y-61884500D01*
G75*
G02*
X45130700Y-62047000I-162500J0D01*
G01*
X42705700Y-62047000D01*
G75*
G02*
X42543200Y-61884500I0J162500D01*
G01*
X42543200Y-61559500D01*
G75*
G02*
X42705700Y-61397000I162500J0D01*
G01*
X45130700Y-61397000D01*
G75*
G02*
X45293200Y-61559500I0J-162500D01*
G01*
G37*
G36*
G01*
X45318200Y-64099500D02*
X45318200Y-64424500D01*
G75*
G02*
X45155700Y-64587000I-162500J0D01*
G01*
X42730700Y-64587000D01*
G75*
G02*
X42568200Y-64424500I0J162500D01*
G01*
X42568200Y-64099500D01*
G75*
G02*
X42730700Y-63937000I162500J0D01*
G01*
X45155700Y-63937000D01*
G75*
G02*
X45318200Y-64099500I0J-162500D01*
G01*
G37*
G36*
G01*
X45268200Y-66639500D02*
X45268200Y-66964500D01*
G75*
G02*
X45105700Y-67127000I-162500J0D01*
G01*
X42680700Y-67127000D01*
G75*
G02*
X42518200Y-66964500I0J162500D01*
G01*
X42518200Y-66639500D01*
G75*
G02*
X42680700Y-66477000I162500J0D01*
G01*
X45105700Y-66477000D01*
G75*
G02*
X45268200Y-66639500I0J-162500D01*
G01*
G37*
G36*
G01*
X45268200Y-69179500D02*
X45268200Y-69504500D01*
G75*
G02*
X45105700Y-69667000I-162500J0D01*
G01*
X42680700Y-69667000D01*
G75*
G02*
X42518200Y-69504500I0J162500D01*
G01*
X42518200Y-69179500D01*
G75*
G02*
X42680700Y-69017000I162500J0D01*
G01*
X45105700Y-69017000D01*
G75*
G02*
X45268200Y-69179500I0J-162500D01*
G01*
G37*
G36*
G01*
X41386997Y-80021000D02*
X42687003Y-80021000D01*
G75*
G02*
X42937000Y-80270997I0J-249997D01*
G01*
X42937000Y-81096003D01*
G75*
G02*
X42687003Y-81346000I-249997J0D01*
G01*
X41386997Y-81346000D01*
G75*
G02*
X41137000Y-81096003I0J249997D01*
G01*
X41137000Y-80270997D01*
G75*
G02*
X41386997Y-80021000I249997J0D01*
G01*
G37*
G36*
G01*
X41386997Y-76896000D02*
X42687003Y-76896000D01*
G75*
G02*
X42937000Y-77145997I0J-249997D01*
G01*
X42937000Y-77971003D01*
G75*
G02*
X42687003Y-78221000I-249997J0D01*
G01*
X41386997Y-78221000D01*
G75*
G02*
X41137000Y-77971003I0J249997D01*
G01*
X41137000Y-77145997D01*
G75*
G02*
X41386997Y-76896000I249997J0D01*
G01*
G37*
G36*
G01*
X42537800Y-33444601D02*
X42537800Y-32544599D01*
G75*
G02*
X42787799Y-32294600I249999J0D01*
G01*
X43437801Y-32294600D01*
G75*
G02*
X43687800Y-32544599I0J-249999D01*
G01*
X43687800Y-33444601D01*
G75*
G02*
X43437801Y-33694600I-249999J0D01*
G01*
X42787799Y-33694600D01*
G75*
G02*
X42537800Y-33444601I0J249999D01*
G01*
G37*
G36*
G01*
X40487800Y-33444601D02*
X40487800Y-32544599D01*
G75*
G02*
X40737799Y-32294600I249999J0D01*
G01*
X41387801Y-32294600D01*
G75*
G02*
X41637800Y-32544599I0J-249999D01*
G01*
X41637800Y-33444601D01*
G75*
G02*
X41387801Y-33694600I-249999J0D01*
G01*
X40737799Y-33694600D01*
G75*
G02*
X40487800Y-33444601I0J249999D01*
G01*
G37*
G36*
G01*
X37534000Y-57600001D02*
X37534000Y-56699999D01*
G75*
G02*
X37783999Y-56450000I249999J0D01*
G01*
X38434001Y-56450000D01*
G75*
G02*
X38684000Y-56699999I0J-249999D01*
G01*
X38684000Y-57600001D01*
G75*
G02*
X38434001Y-57850000I-249999J0D01*
G01*
X37783999Y-57850000D01*
G75*
G02*
X37534000Y-57600001I0J249999D01*
G01*
G37*
G36*
G01*
X35484000Y-57600001D02*
X35484000Y-56699999D01*
G75*
G02*
X35733999Y-56450000I249999J0D01*
G01*
X36384001Y-56450000D01*
G75*
G02*
X36634000Y-56699999I0J-249999D01*
G01*
X36634000Y-57600001D01*
G75*
G02*
X36384001Y-57850000I-249999J0D01*
G01*
X35733999Y-57850000D01*
G75*
G02*
X35484000Y-57600001I0J249999D01*
G01*
G37*
G36*
G01*
X40494000Y-56699999D02*
X40494000Y-57600001D01*
G75*
G02*
X40244001Y-57850000I-249999J0D01*
G01*
X39543999Y-57850000D01*
G75*
G02*
X39294000Y-57600001I0J249999D01*
G01*
X39294000Y-56699999D01*
G75*
G02*
X39543999Y-56450000I249999J0D01*
G01*
X40244001Y-56450000D01*
G75*
G02*
X40494000Y-56699999I0J-249999D01*
G01*
G37*
G36*
G01*
X42494000Y-56699999D02*
X42494000Y-57600001D01*
G75*
G02*
X42244001Y-57850000I-249999J0D01*
G01*
X41543999Y-57850000D01*
G75*
G02*
X41294000Y-57600001I0J249999D01*
G01*
X41294000Y-56699999D01*
G75*
G02*
X41543999Y-56450000I249999J0D01*
G01*
X42244001Y-56450000D01*
G75*
G02*
X42494000Y-56699999I0J-249999D01*
G01*
G37*
G36*
G01*
X61987000Y-75580003D02*
X61987000Y-74279997D01*
G75*
G02*
X62236997Y-74030000I249997J0D01*
G01*
X63062003Y-74030000D01*
G75*
G02*
X63312000Y-74279997I0J-249997D01*
G01*
X63312000Y-75580003D01*
G75*
G02*
X63062003Y-75830000I-249997J0D01*
G01*
X62236997Y-75830000D01*
G75*
G02*
X61987000Y-75580003I0J249997D01*
G01*
G37*
G36*
G01*
X58862000Y-75580003D02*
X58862000Y-74279997D01*
G75*
G02*
X59111997Y-74030000I249997J0D01*
G01*
X59937003Y-74030000D01*
G75*
G02*
X60187000Y-74279997I0J-249997D01*
G01*
X60187000Y-75580003D01*
G75*
G02*
X59937003Y-75830000I-249997J0D01*
G01*
X59111997Y-75830000D01*
G75*
G02*
X58862000Y-75580003I0J249997D01*
G01*
G37*
G36*
G01*
X61987000Y-73230503D02*
X61987000Y-71930497D01*
G75*
G02*
X62236997Y-71680500I249997J0D01*
G01*
X63062003Y-71680500D01*
G75*
G02*
X63312000Y-71930497I0J-249997D01*
G01*
X63312000Y-73230503D01*
G75*
G02*
X63062003Y-73480500I-249997J0D01*
G01*
X62236997Y-73480500D01*
G75*
G02*
X61987000Y-73230503I0J249997D01*
G01*
G37*
G36*
G01*
X58862000Y-73230503D02*
X58862000Y-71930497D01*
G75*
G02*
X59111997Y-71680500I249997J0D01*
G01*
X59937003Y-71680500D01*
G75*
G02*
X60187000Y-71930497I0J-249997D01*
G01*
X60187000Y-73230503D01*
G75*
G02*
X59937003Y-73480500I-249997J0D01*
G01*
X59111997Y-73480500D01*
G75*
G02*
X58862000Y-73230503I0J249997D01*
G01*
G37*
D13*
X58468000Y-93726000D03*
X58468000Y-92456000D03*
X58468000Y-91186000D03*
X58468000Y-89916000D03*
X64468000Y-89916000D03*
X64468000Y-91186000D03*
X64468000Y-92456000D03*
X64468000Y-93726000D03*
G36*
G01*
X44312000Y-36306997D02*
X44312000Y-37607003D01*
G75*
G02*
X44062003Y-37857000I-249997J0D01*
G01*
X43236997Y-37857000D01*
G75*
G02*
X42987000Y-37607003I0J249997D01*
G01*
X42987000Y-36306997D01*
G75*
G02*
X43236997Y-36057000I249997J0D01*
G01*
X44062003Y-36057000D01*
G75*
G02*
X44312000Y-36306997I0J-249997D01*
G01*
G37*
G36*
G01*
X47437000Y-36306997D02*
X47437000Y-37607003D01*
G75*
G02*
X47187003Y-37857000I-249997J0D01*
G01*
X46361997Y-37857000D01*
G75*
G02*
X46112000Y-37607003I0J249997D01*
G01*
X46112000Y-36306997D01*
G75*
G02*
X46361997Y-36057000I249997J0D01*
G01*
X47187003Y-36057000D01*
G75*
G02*
X47437000Y-36306997I0J-249997D01*
G01*
G37*
G36*
G01*
X45397000Y-34323000D02*
X45397000Y-35273000D01*
G75*
G02*
X45147000Y-35523000I-250000J0D01*
G01*
X44472000Y-35523000D01*
G75*
G02*
X44222000Y-35273000I0J250000D01*
G01*
X44222000Y-34323000D01*
G75*
G02*
X44472000Y-34073000I250000J0D01*
G01*
X45147000Y-34073000D01*
G75*
G02*
X45397000Y-34323000I0J-250000D01*
G01*
G37*
G36*
G01*
X47472000Y-34323000D02*
X47472000Y-35273000D01*
G75*
G02*
X47222000Y-35523000I-250000J0D01*
G01*
X46547000Y-35523000D01*
G75*
G02*
X46297000Y-35273000I0J250000D01*
G01*
X46297000Y-34323000D01*
G75*
G02*
X46547000Y-34073000I250000J0D01*
G01*
X47222000Y-34073000D01*
G75*
G02*
X47472000Y-34323000I0J-250000D01*
G01*
G37*
D14*
X54977000Y-67658000D03*
X59577000Y-67658000D03*
X57277000Y-67658000D03*
D15*
X57277000Y-60358000D03*
G36*
G01*
X55107000Y-73898997D02*
X55107000Y-75199003D01*
G75*
G02*
X54857003Y-75449000I-249997J0D01*
G01*
X54031997Y-75449000D01*
G75*
G02*
X53782000Y-75199003I0J249997D01*
G01*
X53782000Y-73898997D01*
G75*
G02*
X54031997Y-73649000I249997J0D01*
G01*
X54857003Y-73649000D01*
G75*
G02*
X55107000Y-73898997I0J-249997D01*
G01*
G37*
G36*
G01*
X58232000Y-73898997D02*
X58232000Y-75199003D01*
G75*
G02*
X57982003Y-75449000I-249997J0D01*
G01*
X57156997Y-75449000D01*
G75*
G02*
X56907000Y-75199003I0J249997D01*
G01*
X56907000Y-73898997D01*
G75*
G02*
X57156997Y-73649000I249997J0D01*
G01*
X57982003Y-73649000D01*
G75*
G02*
X58232000Y-73898997I0J-249997D01*
G01*
G37*
G36*
G01*
X55107000Y-71485997D02*
X55107000Y-72786003D01*
G75*
G02*
X54857003Y-73036000I-249997J0D01*
G01*
X54031997Y-73036000D01*
G75*
G02*
X53782000Y-72786003I0J249997D01*
G01*
X53782000Y-71485997D01*
G75*
G02*
X54031997Y-71236000I249997J0D01*
G01*
X54857003Y-71236000D01*
G75*
G02*
X55107000Y-71485997I0J-249997D01*
G01*
G37*
G36*
G01*
X58232000Y-71485997D02*
X58232000Y-72786003D01*
G75*
G02*
X57982003Y-73036000I-249997J0D01*
G01*
X57156997Y-73036000D01*
G75*
G02*
X56907000Y-72786003I0J249997D01*
G01*
X56907000Y-71485997D01*
G75*
G02*
X57156997Y-71236000I249997J0D01*
G01*
X57982003Y-71236000D01*
G75*
G02*
X58232000Y-71485997I0J-249997D01*
G01*
G37*
G36*
G01*
X55684000Y-69502000D02*
X55684000Y-70452000D01*
G75*
G02*
X55434000Y-70702000I-250000J0D01*
G01*
X54759000Y-70702000D01*
G75*
G02*
X54509000Y-70452000I0J250000D01*
G01*
X54509000Y-69502000D01*
G75*
G02*
X54759000Y-69252000I250000J0D01*
G01*
X55434000Y-69252000D01*
G75*
G02*
X55684000Y-69502000I0J-250000D01*
G01*
G37*
G36*
G01*
X57759000Y-69502000D02*
X57759000Y-70452000D01*
G75*
G02*
X57509000Y-70702000I-250000J0D01*
G01*
X56834000Y-70702000D01*
G75*
G02*
X56584000Y-70452000I0J250000D01*
G01*
X56584000Y-69502000D01*
G75*
G02*
X56834000Y-69252000I250000J0D01*
G01*
X57509000Y-69252000D01*
G75*
G02*
X57759000Y-69502000I0J-250000D01*
G01*
G37*
G36*
G01*
X61987000Y-70881003D02*
X61987000Y-69580997D01*
G75*
G02*
X62236997Y-69331000I249997J0D01*
G01*
X63062003Y-69331000D01*
G75*
G02*
X63312000Y-69580997I0J-249997D01*
G01*
X63312000Y-70881003D01*
G75*
G02*
X63062003Y-71131000I-249997J0D01*
G01*
X62236997Y-71131000D01*
G75*
G02*
X61987000Y-70881003I0J249997D01*
G01*
G37*
G36*
G01*
X58862000Y-70881003D02*
X58862000Y-69580997D01*
G75*
G02*
X59111997Y-69331000I249997J0D01*
G01*
X59937003Y-69331000D01*
G75*
G02*
X60187000Y-69580997I0J-249997D01*
G01*
X60187000Y-70881003D01*
G75*
G02*
X59937003Y-71131000I-249997J0D01*
G01*
X59111997Y-71131000D01*
G75*
G02*
X58862000Y-70881003I0J249997D01*
G01*
G37*
G36*
G01*
X54795000Y-88933000D02*
X54795000Y-89883000D01*
G75*
G02*
X54545000Y-90133000I-250000J0D01*
G01*
X53870000Y-90133000D01*
G75*
G02*
X53620000Y-89883000I0J250000D01*
G01*
X53620000Y-88933000D01*
G75*
G02*
X53870000Y-88683000I250000J0D01*
G01*
X54545000Y-88683000D01*
G75*
G02*
X54795000Y-88933000I0J-250000D01*
G01*
G37*
G36*
G01*
X56870000Y-88933000D02*
X56870000Y-89883000D01*
G75*
G02*
X56620000Y-90133000I-250000J0D01*
G01*
X55945000Y-90133000D01*
G75*
G02*
X55695000Y-89883000I0J250000D01*
G01*
X55695000Y-88933000D01*
G75*
G02*
X55945000Y-88683000I250000J0D01*
G01*
X56620000Y-88683000D01*
G75*
G02*
X56870000Y-88933000I0J-250000D01*
G01*
G37*
G36*
G01*
X66351999Y-92856000D02*
X67252001Y-92856000D01*
G75*
G02*
X67502000Y-93105999I0J-249999D01*
G01*
X67502000Y-93806001D01*
G75*
G02*
X67252001Y-94056000I-249999J0D01*
G01*
X66351999Y-94056000D01*
G75*
G02*
X66102000Y-93806001I0J249999D01*
G01*
X66102000Y-93105999D01*
G75*
G02*
X66351999Y-92856000I249999J0D01*
G01*
G37*
G36*
G01*
X66351999Y-90856000D02*
X67252001Y-90856000D01*
G75*
G02*
X67502000Y-91105999I0J-249999D01*
G01*
X67502000Y-91806001D01*
G75*
G02*
X67252001Y-92056000I-249999J0D01*
G01*
X66351999Y-92056000D01*
G75*
G02*
X66102000Y-91806001I0J249999D01*
G01*
X66102000Y-91105999D01*
G75*
G02*
X66351999Y-90856000I249999J0D01*
G01*
G37*
D16*
X59345200Y-96520000D03*
X54345200Y-96520000D03*
M02*
