%TF.GenerationSoftware,KiCad,Pcbnew,(5.1.8)-1*%
%TF.CreationDate,2021-03-17T21:52:09+01:00*%
%TF.ProjectId,sensactOutdoor,73656e73-6163-4744-9f75-74646f6f722e,rev?*%
%TF.SameCoordinates,Original*%
%TF.FileFunction,Soldermask,Bot*%
%TF.FilePolarity,Negative*%
%FSLAX46Y46*%
G04 Gerber Fmt 4.6, Leading zero omitted, Abs format (unit mm)*
G04 Created by KiCad (PCBNEW (5.1.8)-1) date 2021-03-17 21:52:09*
%MOMM*%
%LPD*%
G01*
G04 APERTURE LIST*
%ADD10C,3.200000*%
%ADD11R,2.300000X1.500000*%
%ADD12C,1.600000*%
%ADD13R,1.900000X0.800000*%
%ADD14C,2.000000*%
%ADD15R,3.500000X1.800000*%
%ADD16C,1.500000*%
%ADD17R,1.500000X1.500000*%
%ADD18C,1.800000*%
%ADD19O,1.700000X1.700000*%
%ADD20R,1.700000X1.700000*%
%ADD21C,1.524000*%
%ADD22R,1.524000X1.524000*%
%ADD23O,3.600000X2.100000*%
%ADD24C,0.100000*%
%ADD25O,1.905000X2.000000*%
%ADD26R,1.905000X2.000000*%
%ADD27C,1.650000*%
%ADD28O,1.950000X1.700000*%
%ADD29R,5.000000X5.000000*%
%ADD30C,1.700000*%
%ADD31O,3.600000X1.800000*%
%ADD32R,1.800000X1.800000*%
%ADD33O,3.600000X2.080000*%
G04 APERTURE END LIST*
%TO.C,R31*%
G36*
G01*
X95060000Y-89055001D02*
X95060000Y-86204999D01*
G75*
G02*
X95309999Y-85955000I249999J0D01*
G01*
X96210001Y-85955000D01*
G75*
G02*
X96460000Y-86204999I0J-249999D01*
G01*
X96460000Y-89055001D01*
G75*
G02*
X96210001Y-89305000I-249999J0D01*
G01*
X95309999Y-89305000D01*
G75*
G02*
X95060000Y-89055001I0J249999D01*
G01*
G37*
G36*
G01*
X88960000Y-89055001D02*
X88960000Y-86204999D01*
G75*
G02*
X89209999Y-85955000I249999J0D01*
G01*
X90110001Y-85955000D01*
G75*
G02*
X90360000Y-86204999I0J-249999D01*
G01*
X90360000Y-89055001D01*
G75*
G02*
X90110001Y-89305000I-249999J0D01*
G01*
X89209999Y-89305000D01*
G75*
G02*
X88960000Y-89055001I0J249999D01*
G01*
G37*
%TD*%
%TO.C,R32*%
G36*
G01*
X67180000Y-68510999D02*
X67180000Y-69411001D01*
G75*
G02*
X66930001Y-69661000I-249999J0D01*
G01*
X66229999Y-69661000D01*
G75*
G02*
X65980000Y-69411001I0J249999D01*
G01*
X65980000Y-68510999D01*
G75*
G02*
X66229999Y-68261000I249999J0D01*
G01*
X66930001Y-68261000D01*
G75*
G02*
X67180000Y-68510999I0J-249999D01*
G01*
G37*
G36*
G01*
X69180000Y-68510999D02*
X69180000Y-69411001D01*
G75*
G02*
X68930001Y-69661000I-249999J0D01*
G01*
X68229999Y-69661000D01*
G75*
G02*
X67980000Y-69411001I0J249999D01*
G01*
X67980000Y-68510999D01*
G75*
G02*
X68229999Y-68261000I249999J0D01*
G01*
X68930001Y-68261000D01*
G75*
G02*
X69180000Y-68510999I0J-249999D01*
G01*
G37*
%TD*%
%TO.C,Ce*%
G36*
G01*
X50911999Y-69861000D02*
X52212001Y-69861000D01*
G75*
G02*
X52462000Y-70110999I0J-249999D01*
G01*
X52462000Y-70936001D01*
G75*
G02*
X52212001Y-71186000I-249999J0D01*
G01*
X50911999Y-71186000D01*
G75*
G02*
X50662000Y-70936001I0J249999D01*
G01*
X50662000Y-70110999D01*
G75*
G02*
X50911999Y-69861000I249999J0D01*
G01*
G37*
G36*
G01*
X50911999Y-66736000D02*
X52212001Y-66736000D01*
G75*
G02*
X52462000Y-66985999I0J-249999D01*
G01*
X52462000Y-67811001D01*
G75*
G02*
X52212001Y-68061000I-249999J0D01*
G01*
X50911999Y-68061000D01*
G75*
G02*
X50662000Y-67811001I0J249999D01*
G01*
X50662000Y-66985999D01*
G75*
G02*
X50911999Y-66736000I249999J0D01*
G01*
G37*
%TD*%
%TO.C,J15*%
G36*
G01*
X97512000Y-101203000D02*
X94512000Y-101203000D01*
G75*
G02*
X94012000Y-100703000I0J500000D01*
G01*
X94012000Y-99703000D01*
G75*
G02*
X94512000Y-99203000I500000J0D01*
G01*
X97512000Y-99203000D01*
G75*
G02*
X98012000Y-99703000I0J-500000D01*
G01*
X98012000Y-100703000D01*
G75*
G02*
X97512000Y-101203000I-500000J0D01*
G01*
G37*
%TD*%
%TO.C,J14*%
G36*
G01*
X111530000Y-96790000D02*
X114530000Y-96790000D01*
G75*
G02*
X115030000Y-97290000I0J-500000D01*
G01*
X115030000Y-98290000D01*
G75*
G02*
X114530000Y-98790000I-500000J0D01*
G01*
X111530000Y-98790000D01*
G75*
G02*
X111030000Y-98290000I0J500000D01*
G01*
X111030000Y-97290000D01*
G75*
G02*
X111530000Y-96790000I500000J0D01*
G01*
G37*
%TD*%
D10*
%TO.C,H6*%
X116586000Y-93599000D03*
%TD*%
D11*
%TO.C,U8*%
X77423000Y-84328000D03*
X77423000Y-86868000D03*
X87423000Y-86868000D03*
X87423000Y-84328000D03*
%TD*%
%TO.C,R30*%
G36*
G01*
X94586999Y-95951000D02*
X97437001Y-95951000D01*
G75*
G02*
X97687000Y-96200999I0J-249999D01*
G01*
X97687000Y-97101001D01*
G75*
G02*
X97437001Y-97351000I-249999J0D01*
G01*
X94586999Y-97351000D01*
G75*
G02*
X94337000Y-97101001I0J249999D01*
G01*
X94337000Y-96200999D01*
G75*
G02*
X94586999Y-95951000I249999J0D01*
G01*
G37*
G36*
G01*
X94586999Y-89851000D02*
X97437001Y-89851000D01*
G75*
G02*
X97687000Y-90100999I0J-249999D01*
G01*
X97687000Y-91001001D01*
G75*
G02*
X97437001Y-91251000I-249999J0D01*
G01*
X94586999Y-91251000D01*
G75*
G02*
X94337000Y-91001001I0J249999D01*
G01*
X94337000Y-90100999D01*
G75*
G02*
X94586999Y-89851000I249999J0D01*
G01*
G37*
%TD*%
%TO.C,R28*%
G36*
G01*
X103569000Y-80165001D02*
X103569000Y-77314999D01*
G75*
G02*
X103818999Y-77065000I249999J0D01*
G01*
X104719001Y-77065000D01*
G75*
G02*
X104969000Y-77314999I0J-249999D01*
G01*
X104969000Y-80165001D01*
G75*
G02*
X104719001Y-80415000I-249999J0D01*
G01*
X103818999Y-80415000D01*
G75*
G02*
X103569000Y-80165001I0J249999D01*
G01*
G37*
G36*
G01*
X97469000Y-80165001D02*
X97469000Y-77314999D01*
G75*
G02*
X97718999Y-77065000I249999J0D01*
G01*
X98619001Y-77065000D01*
G75*
G02*
X98869000Y-77314999I0J-249999D01*
G01*
X98869000Y-80165001D01*
G75*
G02*
X98619001Y-80415000I-249999J0D01*
G01*
X97718999Y-80415000D01*
G75*
G02*
X97469000Y-80165001I0J249999D01*
G01*
G37*
%TD*%
%TO.C,R16*%
G36*
G01*
X95441000Y-80165001D02*
X95441000Y-77314999D01*
G75*
G02*
X95690999Y-77065000I249999J0D01*
G01*
X96591001Y-77065000D01*
G75*
G02*
X96841000Y-77314999I0J-249999D01*
G01*
X96841000Y-80165001D01*
G75*
G02*
X96591001Y-80415000I-249999J0D01*
G01*
X95690999Y-80415000D01*
G75*
G02*
X95441000Y-80165001I0J249999D01*
G01*
G37*
G36*
G01*
X89341000Y-80165001D02*
X89341000Y-77314999D01*
G75*
G02*
X89590999Y-77065000I249999J0D01*
G01*
X90491001Y-77065000D01*
G75*
G02*
X90741000Y-77314999I0J-249999D01*
G01*
X90741000Y-80165001D01*
G75*
G02*
X90491001Y-80415000I-249999J0D01*
G01*
X89590999Y-80415000D01*
G75*
G02*
X89341000Y-80165001I0J249999D01*
G01*
G37*
%TD*%
D12*
%TO.C,C23*%
X87155000Y-98298000D03*
X97155000Y-98298000D03*
%TD*%
%TO.C,R29*%
G36*
G01*
X52012001Y-64227000D02*
X51111999Y-64227000D01*
G75*
G02*
X50862000Y-63977001I0J249999D01*
G01*
X50862000Y-63276999D01*
G75*
G02*
X51111999Y-63027000I249999J0D01*
G01*
X52012001Y-63027000D01*
G75*
G02*
X52262000Y-63276999I0J-249999D01*
G01*
X52262000Y-63977001D01*
G75*
G02*
X52012001Y-64227000I-249999J0D01*
G01*
G37*
G36*
G01*
X52012001Y-66227000D02*
X51111999Y-66227000D01*
G75*
G02*
X50862000Y-65977001I0J249999D01*
G01*
X50862000Y-65276999D01*
G75*
G02*
X51111999Y-65027000I249999J0D01*
G01*
X52012001Y-65027000D01*
G75*
G02*
X52262000Y-65276999I0J-249999D01*
G01*
X52262000Y-65977001D01*
G75*
G02*
X52012001Y-66227000I-249999J0D01*
G01*
G37*
%TD*%
D13*
%TO.C,Q6*%
X85066000Y-34417000D03*
X82066000Y-33467000D03*
X82066000Y-35367000D03*
%TD*%
D14*
%TO.C,J13*%
X79121000Y-37672000D03*
X82621000Y-42672000D03*
X86121001Y-37672000D03*
%TD*%
%TO.C,J12*%
X73395601Y-76327000D03*
X69895601Y-71327000D03*
X66395600Y-76327000D03*
%TD*%
%TO.C,J10*%
X60340001Y-76327000D03*
X56840001Y-71327000D03*
X53340000Y-76327000D03*
%TD*%
D15*
%TO.C,D4*%
X91654000Y-30861000D03*
X86654000Y-30861000D03*
%TD*%
D16*
%TO.C,PS1*%
X78450000Y-74202000D03*
X78450000Y-92202000D03*
X112050000Y-80202000D03*
D17*
X112050000Y-86202000D03*
%TD*%
D18*
%TO.C,RV1*%
X104514000Y-96922000D03*
X112014000Y-99822000D03*
%TD*%
D14*
%TO.C,F1*%
X122301000Y-94488000D03*
X122301000Y-99568000D03*
%TD*%
%TO.C,TP4*%
X36322000Y-99568000D03*
%TD*%
%TO.C,TP2*%
X58166000Y-99314000D03*
%TD*%
D19*
%TO.C,U7*%
X63754000Y-66929000D03*
X66294000Y-66929000D03*
X68834000Y-66929000D03*
D20*
X71374000Y-66929000D03*
%TD*%
%TO.C,C22*%
G36*
G01*
X52085001Y-52821000D02*
X50784999Y-52821000D01*
G75*
G02*
X50535000Y-52571001I0J249999D01*
G01*
X50535000Y-51745999D01*
G75*
G02*
X50784999Y-51496000I249999J0D01*
G01*
X52085001Y-51496000D01*
G75*
G02*
X52335000Y-51745999I0J-249999D01*
G01*
X52335000Y-52571001D01*
G75*
G02*
X52085001Y-52821000I-249999J0D01*
G01*
G37*
G36*
G01*
X52085001Y-55946000D02*
X50784999Y-55946000D01*
G75*
G02*
X50535000Y-55696001I0J249999D01*
G01*
X50535000Y-54870999D01*
G75*
G02*
X50784999Y-54621000I249999J0D01*
G01*
X52085001Y-54621000D01*
G75*
G02*
X52335000Y-54870999I0J-249999D01*
G01*
X52335000Y-55696001D01*
G75*
G02*
X52085001Y-55946000I-249999J0D01*
G01*
G37*
%TD*%
D21*
%TO.C,U6*%
X49530000Y-62865000D03*
X46990000Y-62865000D03*
X49530000Y-60325000D03*
X46990000Y-60325000D03*
X49530000Y-57785000D03*
X46990000Y-57785000D03*
X49530000Y-55245000D03*
D22*
X46990000Y-55245000D03*
%TD*%
D14*
%TO.C,TP3*%
X58420000Y-86106000D03*
%TD*%
%TO.C,TP5*%
X36322000Y-82550000D03*
%TD*%
%TO.C,TP1*%
X55880000Y-82804000D03*
%TD*%
D10*
%TO.C,H5*%
X119888000Y-48260000D03*
%TD*%
D23*
%TO.C,J9*%
X119126000Y-87122000D03*
G36*
G01*
X117576000Y-78452000D02*
X120676000Y-78452000D01*
G75*
G02*
X120926000Y-78702000I0J-250000D01*
G01*
X120926000Y-80302000D01*
G75*
G02*
X120676000Y-80552000I-250000J0D01*
G01*
X117576000Y-80552000D01*
G75*
G02*
X117326000Y-80302000I0J250000D01*
G01*
X117326000Y-78702000D01*
G75*
G02*
X117576000Y-78452000I250000J0D01*
G01*
G37*
%TD*%
%TO.C,J3*%
X119126000Y-69850000D03*
X119126000Y-62230000D03*
G36*
G01*
X117576000Y-53560000D02*
X120676000Y-53560000D01*
G75*
G02*
X120926000Y-53810000I0J-250000D01*
G01*
X120926000Y-55410000D01*
G75*
G02*
X120676000Y-55660000I-250000J0D01*
G01*
X117576000Y-55660000D01*
G75*
G02*
X117326000Y-55410000I0J250000D01*
G01*
X117326000Y-53810000D01*
G75*
G02*
X117576000Y-53560000I250000J0D01*
G01*
G37*
%TD*%
%TO.C,J2*%
X119126000Y-42164000D03*
X119126000Y-34544000D03*
G36*
G01*
X117576000Y-25874000D02*
X120676000Y-25874000D01*
G75*
G02*
X120926000Y-26124000I0J-250000D01*
G01*
X120926000Y-27724000D01*
G75*
G02*
X120676000Y-27974000I-250000J0D01*
G01*
X117576000Y-27974000D01*
G75*
G02*
X117326000Y-27724000I0J250000D01*
G01*
X117326000Y-26124000D01*
G75*
G02*
X117576000Y-25874000I250000J0D01*
G01*
G37*
%TD*%
D24*
%TO.C,U2*%
G36*
X49814000Y-85726000D02*
G01*
X49814000Y-89026000D01*
X47214000Y-89026000D01*
X47214000Y-85726000D01*
X49814000Y-85726000D01*
G37*
%TD*%
%TO.C,R27*%
G36*
G01*
X75092000Y-66236001D02*
X75092000Y-65335999D01*
G75*
G02*
X75341999Y-65086000I249999J0D01*
G01*
X76042001Y-65086000D01*
G75*
G02*
X76292000Y-65335999I0J-249999D01*
G01*
X76292000Y-66236001D01*
G75*
G02*
X76042001Y-66486000I-249999J0D01*
G01*
X75341999Y-66486000D01*
G75*
G02*
X75092000Y-66236001I0J249999D01*
G01*
G37*
G36*
G01*
X73092000Y-66236001D02*
X73092000Y-65335999D01*
G75*
G02*
X73341999Y-65086000I249999J0D01*
G01*
X74042001Y-65086000D01*
G75*
G02*
X74292000Y-65335999I0J-249999D01*
G01*
X74292000Y-66236001D01*
G75*
G02*
X74042001Y-66486000I-249999J0D01*
G01*
X73341999Y-66486000D01*
G75*
G02*
X73092000Y-66236001I0J249999D01*
G01*
G37*
%TD*%
D25*
%TO.C,Q3*%
X36195000Y-29972000D03*
X38735000Y-29972000D03*
D26*
X41275000Y-29972000D03*
%TD*%
D27*
%TO.C,K6*%
X113242000Y-69977000D03*
X106242000Y-69977000D03*
X94742000Y-65277000D03*
X94742000Y-69977000D03*
%TD*%
%TO.C,K5*%
X113242000Y-62230000D03*
X106242000Y-62230000D03*
X94742000Y-57530000D03*
X94742000Y-62230000D03*
%TD*%
%TO.C,K4*%
X113242000Y-54483000D03*
X106242000Y-54483000D03*
X94742000Y-49783000D03*
X94742000Y-54483000D03*
%TD*%
%TO.C,K3*%
X113242000Y-44704000D03*
X106242000Y-44704000D03*
X94742000Y-40004000D03*
X94742000Y-44704000D03*
%TD*%
%TO.C,K2*%
X113242000Y-36830000D03*
X106242000Y-36830000D03*
X94742000Y-32130000D03*
X94742000Y-36830000D03*
%TD*%
%TO.C,K1*%
X113242000Y-28956000D03*
X106242000Y-28956000D03*
X94742000Y-24256000D03*
X94742000Y-28956000D03*
%TD*%
D28*
%TO.C,J11*%
X79502000Y-68420000D03*
X79502000Y-65920000D03*
X79502000Y-63420000D03*
X79502000Y-60920000D03*
G36*
G01*
X78777000Y-57570000D02*
X80227000Y-57570000D01*
G75*
G02*
X80477000Y-57820000I0J-250000D01*
G01*
X80477000Y-59020000D01*
G75*
G02*
X80227000Y-59270000I-250000J0D01*
G01*
X78777000Y-59270000D01*
G75*
G02*
X78527000Y-59020000I0J250000D01*
G01*
X78527000Y-57820000D01*
G75*
G02*
X78777000Y-57570000I250000J0D01*
G01*
G37*
%TD*%
%TO.C,R26*%
G36*
G01*
X82111001Y-61830000D02*
X81210999Y-61830000D01*
G75*
G02*
X80961000Y-61580001I0J249999D01*
G01*
X80961000Y-60879999D01*
G75*
G02*
X81210999Y-60630000I249999J0D01*
G01*
X82111001Y-60630000D01*
G75*
G02*
X82361000Y-60879999I0J-249999D01*
G01*
X82361000Y-61580001D01*
G75*
G02*
X82111001Y-61830000I-249999J0D01*
G01*
G37*
G36*
G01*
X82111001Y-63830000D02*
X81210999Y-63830000D01*
G75*
G02*
X80961000Y-63580001I0J249999D01*
G01*
X80961000Y-62879999D01*
G75*
G02*
X81210999Y-62630000I249999J0D01*
G01*
X82111001Y-62630000D01*
G75*
G02*
X82361000Y-62879999I0J-249999D01*
G01*
X82361000Y-63580001D01*
G75*
G02*
X82111001Y-63830000I-249999J0D01*
G01*
G37*
%TD*%
%TO.C,R25*%
G36*
G01*
X84524001Y-61830000D02*
X83623999Y-61830000D01*
G75*
G02*
X83374000Y-61580001I0J249999D01*
G01*
X83374000Y-60879999D01*
G75*
G02*
X83623999Y-60630000I249999J0D01*
G01*
X84524001Y-60630000D01*
G75*
G02*
X84774000Y-60879999I0J-249999D01*
G01*
X84774000Y-61580001D01*
G75*
G02*
X84524001Y-61830000I-249999J0D01*
G01*
G37*
G36*
G01*
X84524001Y-63830000D02*
X83623999Y-63830000D01*
G75*
G02*
X83374000Y-63580001I0J249999D01*
G01*
X83374000Y-62879999D01*
G75*
G02*
X83623999Y-62630000I249999J0D01*
G01*
X84524001Y-62630000D01*
G75*
G02*
X84774000Y-62879999I0J-249999D01*
G01*
X84774000Y-63580001D01*
G75*
G02*
X84524001Y-63830000I-249999J0D01*
G01*
G37*
%TD*%
D29*
%TO.C,U1*%
X57404000Y-41148000D03*
%TD*%
%TO.C,R9*%
G36*
G01*
X85528999Y-51089000D02*
X86429001Y-51089000D01*
G75*
G02*
X86679000Y-51338999I0J-249999D01*
G01*
X86679000Y-52039001D01*
G75*
G02*
X86429001Y-52289000I-249999J0D01*
G01*
X85528999Y-52289000D01*
G75*
G02*
X85279000Y-52039001I0J249999D01*
G01*
X85279000Y-51338999D01*
G75*
G02*
X85528999Y-51089000I249999J0D01*
G01*
G37*
G36*
G01*
X85528999Y-49089000D02*
X86429001Y-49089000D01*
G75*
G02*
X86679000Y-49338999I0J-249999D01*
G01*
X86679000Y-50039001D01*
G75*
G02*
X86429001Y-50289000I-249999J0D01*
G01*
X85528999Y-50289000D01*
G75*
G02*
X85279000Y-50039001I0J249999D01*
G01*
X85279000Y-49338999D01*
G75*
G02*
X85528999Y-49089000I249999J0D01*
G01*
G37*
%TD*%
%TO.C,C15*%
G36*
G01*
X86418000Y-47277000D02*
X86418000Y-48227000D01*
G75*
G02*
X86168000Y-48477000I-250000J0D01*
G01*
X85493000Y-48477000D01*
G75*
G02*
X85243000Y-48227000I0J250000D01*
G01*
X85243000Y-47277000D01*
G75*
G02*
X85493000Y-47027000I250000J0D01*
G01*
X86168000Y-47027000D01*
G75*
G02*
X86418000Y-47277000I0J-250000D01*
G01*
G37*
G36*
G01*
X88493000Y-47277000D02*
X88493000Y-48227000D01*
G75*
G02*
X88243000Y-48477000I-250000J0D01*
G01*
X87568000Y-48477000D01*
G75*
G02*
X87318000Y-48227000I0J250000D01*
G01*
X87318000Y-47277000D01*
G75*
G02*
X87568000Y-47027000I250000J0D01*
G01*
X88243000Y-47027000D01*
G75*
G02*
X88493000Y-47277000I0J-250000D01*
G01*
G37*
%TD*%
%TO.C,R21*%
G36*
G01*
X41256000Y-49841999D02*
X41256000Y-50742001D01*
G75*
G02*
X41006001Y-50992000I-249999J0D01*
G01*
X40305999Y-50992000D01*
G75*
G02*
X40056000Y-50742001I0J249999D01*
G01*
X40056000Y-49841999D01*
G75*
G02*
X40305999Y-49592000I249999J0D01*
G01*
X41006001Y-49592000D01*
G75*
G02*
X41256000Y-49841999I0J-249999D01*
G01*
G37*
G36*
G01*
X43256000Y-49841999D02*
X43256000Y-50742001D01*
G75*
G02*
X43006001Y-50992000I-249999J0D01*
G01*
X42305999Y-50992000D01*
G75*
G02*
X42056000Y-50742001I0J249999D01*
G01*
X42056000Y-49841999D01*
G75*
G02*
X42305999Y-49592000I249999J0D01*
G01*
X43006001Y-49592000D01*
G75*
G02*
X43256000Y-49841999I0J-249999D01*
G01*
G37*
%TD*%
%TO.C,R19*%
G36*
G01*
X41256000Y-44507999D02*
X41256000Y-45408001D01*
G75*
G02*
X41006001Y-45658000I-249999J0D01*
G01*
X40305999Y-45658000D01*
G75*
G02*
X40056000Y-45408001I0J249999D01*
G01*
X40056000Y-44507999D01*
G75*
G02*
X40305999Y-44258000I249999J0D01*
G01*
X41006001Y-44258000D01*
G75*
G02*
X41256000Y-44507999I0J-249999D01*
G01*
G37*
G36*
G01*
X43256000Y-44507999D02*
X43256000Y-45408001D01*
G75*
G02*
X43006001Y-45658000I-249999J0D01*
G01*
X42305999Y-45658000D01*
G75*
G02*
X42056000Y-45408001I0J249999D01*
G01*
X42056000Y-44507999D01*
G75*
G02*
X42305999Y-44258000I249999J0D01*
G01*
X43006001Y-44258000D01*
G75*
G02*
X43256000Y-44507999I0J-249999D01*
G01*
G37*
%TD*%
D28*
%TO.C,J7*%
X86360000Y-68420000D03*
X86360000Y-65920000D03*
X86360000Y-63420000D03*
X86360000Y-60920000D03*
G36*
G01*
X85635000Y-57570000D02*
X87085000Y-57570000D01*
G75*
G02*
X87335000Y-57820000I0J-250000D01*
G01*
X87335000Y-59020000D01*
G75*
G02*
X87085000Y-59270000I-250000J0D01*
G01*
X85635000Y-59270000D01*
G75*
G02*
X85385000Y-59020000I0J250000D01*
G01*
X85385000Y-57820000D01*
G75*
G02*
X85635000Y-57570000I250000J0D01*
G01*
G37*
%TD*%
D30*
%TO.C,J4*%
X78994000Y-51689000D03*
X81534000Y-51689000D03*
X84074000Y-51689000D03*
X78994000Y-49149000D03*
X81534000Y-49149000D03*
G36*
G01*
X83474000Y-48299000D02*
X84674000Y-48299000D01*
G75*
G02*
X84924000Y-48549000I0J-250000D01*
G01*
X84924000Y-49749000D01*
G75*
G02*
X84674000Y-49999000I-250000J0D01*
G01*
X83474000Y-49999000D01*
G75*
G02*
X83224000Y-49749000I0J250000D01*
G01*
X83224000Y-48549000D01*
G75*
G02*
X83474000Y-48299000I250000J0D01*
G01*
G37*
%TD*%
D31*
%TO.C,J8*%
X29718000Y-44704000D03*
X29718000Y-48204000D03*
X29718000Y-51704000D03*
G36*
G01*
X31268000Y-56104000D02*
X28168000Y-56104000D01*
G75*
G02*
X27918000Y-55854000I0J250000D01*
G01*
X27918000Y-54554000D01*
G75*
G02*
X28168000Y-54304000I250000J0D01*
G01*
X31268000Y-54304000D01*
G75*
G02*
X31518000Y-54554000I0J-250000D01*
G01*
X31518000Y-55854000D01*
G75*
G02*
X31268000Y-56104000I-250000J0D01*
G01*
G37*
%TD*%
D10*
%TO.C,H3*%
X38500000Y-87000000D03*
%TD*%
%TO.C,R22*%
G36*
G01*
X37446000Y-49841999D02*
X37446000Y-50742001D01*
G75*
G02*
X37196001Y-50992000I-249999J0D01*
G01*
X36495999Y-50992000D01*
G75*
G02*
X36246000Y-50742001I0J249999D01*
G01*
X36246000Y-49841999D01*
G75*
G02*
X36495999Y-49592000I249999J0D01*
G01*
X37196001Y-49592000D01*
G75*
G02*
X37446000Y-49841999I0J-249999D01*
G01*
G37*
G36*
G01*
X39446000Y-49841999D02*
X39446000Y-50742001D01*
G75*
G02*
X39196001Y-50992000I-249999J0D01*
G01*
X38495999Y-50992000D01*
G75*
G02*
X38246000Y-50742001I0J249999D01*
G01*
X38246000Y-49841999D01*
G75*
G02*
X38495999Y-49592000I249999J0D01*
G01*
X39196001Y-49592000D01*
G75*
G02*
X39446000Y-49841999I0J-249999D01*
G01*
G37*
%TD*%
%TO.C,R20*%
G36*
G01*
X37446000Y-44507999D02*
X37446000Y-45408001D01*
G75*
G02*
X37196001Y-45658000I-249999J0D01*
G01*
X36495999Y-45658000D01*
G75*
G02*
X36246000Y-45408001I0J249999D01*
G01*
X36246000Y-44507999D01*
G75*
G02*
X36495999Y-44258000I249999J0D01*
G01*
X37196001Y-44258000D01*
G75*
G02*
X37446000Y-44507999I0J-249999D01*
G01*
G37*
G36*
G01*
X39446000Y-44507999D02*
X39446000Y-45408001D01*
G75*
G02*
X39196001Y-45658000I-249999J0D01*
G01*
X38495999Y-45658000D01*
G75*
G02*
X38246000Y-45408001I0J249999D01*
G01*
X38246000Y-44507999D01*
G75*
G02*
X38495999Y-44258000I249999J0D01*
G01*
X39196001Y-44258000D01*
G75*
G02*
X39446000Y-44507999I0J-249999D01*
G01*
G37*
%TD*%
%TO.C,R18*%
G36*
G01*
X37446000Y-31807999D02*
X37446000Y-32708001D01*
G75*
G02*
X37196001Y-32958000I-249999J0D01*
G01*
X36495999Y-32958000D01*
G75*
G02*
X36246000Y-32708001I0J249999D01*
G01*
X36246000Y-31807999D01*
G75*
G02*
X36495999Y-31558000I249999J0D01*
G01*
X37196001Y-31558000D01*
G75*
G02*
X37446000Y-31807999I0J-249999D01*
G01*
G37*
G36*
G01*
X39446000Y-31807999D02*
X39446000Y-32708001D01*
G75*
G02*
X39196001Y-32958000I-249999J0D01*
G01*
X38495999Y-32958000D01*
G75*
G02*
X38246000Y-32708001I0J249999D01*
G01*
X38246000Y-31807999D01*
G75*
G02*
X38495999Y-31558000I249999J0D01*
G01*
X39196001Y-31558000D01*
G75*
G02*
X39446000Y-31807999I0J-249999D01*
G01*
G37*
%TD*%
%TO.C,R17*%
G36*
G01*
X41256000Y-31807999D02*
X41256000Y-32708001D01*
G75*
G02*
X41006001Y-32958000I-249999J0D01*
G01*
X40305999Y-32958000D01*
G75*
G02*
X40056000Y-32708001I0J249999D01*
G01*
X40056000Y-31807999D01*
G75*
G02*
X40305999Y-31558000I249999J0D01*
G01*
X41006001Y-31558000D01*
G75*
G02*
X41256000Y-31807999I0J-249999D01*
G01*
G37*
G36*
G01*
X43256000Y-31807999D02*
X43256000Y-32708001D01*
G75*
G02*
X43006001Y-32958000I-249999J0D01*
G01*
X42305999Y-32958000D01*
G75*
G02*
X42056000Y-32708001I0J249999D01*
G01*
X42056000Y-31807999D01*
G75*
G02*
X42305999Y-31558000I249999J0D01*
G01*
X43006001Y-31558000D01*
G75*
G02*
X43256000Y-31807999I0J-249999D01*
G01*
G37*
%TD*%
%TO.C,R15*%
G36*
G01*
X37446000Y-26473999D02*
X37446000Y-27374001D01*
G75*
G02*
X37196001Y-27624000I-249999J0D01*
G01*
X36495999Y-27624000D01*
G75*
G02*
X36246000Y-27374001I0J249999D01*
G01*
X36246000Y-26473999D01*
G75*
G02*
X36495999Y-26224000I249999J0D01*
G01*
X37196001Y-26224000D01*
G75*
G02*
X37446000Y-26473999I0J-249999D01*
G01*
G37*
G36*
G01*
X39446000Y-26473999D02*
X39446000Y-27374001D01*
G75*
G02*
X39196001Y-27624000I-249999J0D01*
G01*
X38495999Y-27624000D01*
G75*
G02*
X38246000Y-27374001I0J249999D01*
G01*
X38246000Y-26473999D01*
G75*
G02*
X38495999Y-26224000I249999J0D01*
G01*
X39196001Y-26224000D01*
G75*
G02*
X39446000Y-26473999I0J-249999D01*
G01*
G37*
%TD*%
%TO.C,R14*%
G36*
G01*
X41256000Y-26473999D02*
X41256000Y-27374001D01*
G75*
G02*
X41006001Y-27624000I-249999J0D01*
G01*
X40305999Y-27624000D01*
G75*
G02*
X40056000Y-27374001I0J249999D01*
G01*
X40056000Y-26473999D01*
G75*
G02*
X40305999Y-26224000I249999J0D01*
G01*
X41006001Y-26224000D01*
G75*
G02*
X41256000Y-26473999I0J-249999D01*
G01*
G37*
G36*
G01*
X43256000Y-26473999D02*
X43256000Y-27374001D01*
G75*
G02*
X43006001Y-27624000I-249999J0D01*
G01*
X42305999Y-27624000D01*
G75*
G02*
X42056000Y-27374001I0J249999D01*
G01*
X42056000Y-26473999D01*
G75*
G02*
X42305999Y-26224000I249999J0D01*
G01*
X43006001Y-26224000D01*
G75*
G02*
X43256000Y-26473999I0J-249999D01*
G01*
G37*
%TD*%
%TO.C,R13*%
G36*
G01*
X49091001Y-71863000D02*
X48190999Y-71863000D01*
G75*
G02*
X47941000Y-71613001I0J249999D01*
G01*
X47941000Y-70912999D01*
G75*
G02*
X48190999Y-70663000I249999J0D01*
G01*
X49091001Y-70663000D01*
G75*
G02*
X49341000Y-70912999I0J-249999D01*
G01*
X49341000Y-71613001D01*
G75*
G02*
X49091001Y-71863000I-249999J0D01*
G01*
G37*
G36*
G01*
X49091001Y-73863000D02*
X48190999Y-73863000D01*
G75*
G02*
X47941000Y-73613001I0J249999D01*
G01*
X47941000Y-72912999D01*
G75*
G02*
X48190999Y-72663000I249999J0D01*
G01*
X49091001Y-72663000D01*
G75*
G02*
X49341000Y-72912999I0J-249999D01*
G01*
X49341000Y-73613001D01*
G75*
G02*
X49091001Y-73863000I-249999J0D01*
G01*
G37*
%TD*%
%TO.C,R12*%
G36*
G01*
X37446000Y-55175999D02*
X37446000Y-56076001D01*
G75*
G02*
X37196001Y-56326000I-249999J0D01*
G01*
X36495999Y-56326000D01*
G75*
G02*
X36246000Y-56076001I0J249999D01*
G01*
X36246000Y-55175999D01*
G75*
G02*
X36495999Y-54926000I249999J0D01*
G01*
X37196001Y-54926000D01*
G75*
G02*
X37446000Y-55175999I0J-249999D01*
G01*
G37*
G36*
G01*
X39446000Y-55175999D02*
X39446000Y-56076001D01*
G75*
G02*
X39196001Y-56326000I-249999J0D01*
G01*
X38495999Y-56326000D01*
G75*
G02*
X38246000Y-56076001I0J249999D01*
G01*
X38246000Y-55175999D01*
G75*
G02*
X38495999Y-54926000I249999J0D01*
G01*
X39196001Y-54926000D01*
G75*
G02*
X39446000Y-55175999I0J-249999D01*
G01*
G37*
%TD*%
%TO.C,R11*%
G36*
G01*
X41256000Y-55175999D02*
X41256000Y-56076001D01*
G75*
G02*
X41006001Y-56326000I-249999J0D01*
G01*
X40305999Y-56326000D01*
G75*
G02*
X40056000Y-56076001I0J249999D01*
G01*
X40056000Y-55175999D01*
G75*
G02*
X40305999Y-54926000I249999J0D01*
G01*
X41006001Y-54926000D01*
G75*
G02*
X41256000Y-55175999I0J-249999D01*
G01*
G37*
G36*
G01*
X43256000Y-55175999D02*
X43256000Y-56076001D01*
G75*
G02*
X43006001Y-56326000I-249999J0D01*
G01*
X42305999Y-56326000D01*
G75*
G02*
X42056000Y-56076001I0J249999D01*
G01*
X42056000Y-55175999D01*
G75*
G02*
X42305999Y-54926000I249999J0D01*
G01*
X43006001Y-54926000D01*
G75*
G02*
X43256000Y-55175999I0J-249999D01*
G01*
G37*
%TD*%
%TO.C,R5*%
G36*
G01*
X79378000Y-35883001D02*
X79378000Y-34982999D01*
G75*
G02*
X79627999Y-34733000I249999J0D01*
G01*
X80328001Y-34733000D01*
G75*
G02*
X80578000Y-34982999I0J-249999D01*
G01*
X80578000Y-35883001D01*
G75*
G02*
X80328001Y-36133000I-249999J0D01*
G01*
X79627999Y-36133000D01*
G75*
G02*
X79378000Y-35883001I0J249999D01*
G01*
G37*
G36*
G01*
X77378000Y-35883001D02*
X77378000Y-34982999D01*
G75*
G02*
X77627999Y-34733000I249999J0D01*
G01*
X78328001Y-34733000D01*
G75*
G02*
X78578000Y-34982999I0J-249999D01*
G01*
X78578000Y-35883001D01*
G75*
G02*
X78328001Y-36133000I-249999J0D01*
G01*
X77627999Y-36133000D01*
G75*
G02*
X77378000Y-35883001I0J249999D01*
G01*
G37*
%TD*%
D18*
%TO.C,D3*%
X46482000Y-70739000D03*
D32*
X46482000Y-73279000D03*
%TD*%
D10*
%TO.C,H4*%
X72500000Y-87000000D03*
%TD*%
D25*
%TO.C,Q4*%
X36322000Y-42672000D03*
X38862000Y-42672000D03*
D26*
X41402000Y-42672000D03*
%TD*%
%TO.C,R2*%
G36*
G01*
X32395000Y-92848000D02*
X33645000Y-92848000D01*
G75*
G02*
X33895000Y-93098000I0J-250000D01*
G01*
X33895000Y-93898000D01*
G75*
G02*
X33645000Y-94148000I-250000J0D01*
G01*
X32395000Y-94148000D01*
G75*
G02*
X32145000Y-93898000I0J250000D01*
G01*
X32145000Y-93098000D01*
G75*
G02*
X32395000Y-92848000I250000J0D01*
G01*
G37*
G36*
G01*
X32395000Y-89748000D02*
X33645000Y-89748000D01*
G75*
G02*
X33895000Y-89998000I0J-250000D01*
G01*
X33895000Y-90798000D01*
G75*
G02*
X33645000Y-91048000I-250000J0D01*
G01*
X32395000Y-91048000D01*
G75*
G02*
X32145000Y-90798000I0J250000D01*
G01*
X32145000Y-89998000D01*
G75*
G02*
X32395000Y-89748000I250000J0D01*
G01*
G37*
%TD*%
D25*
%TO.C,Q5*%
X36322000Y-48006000D03*
X38862000Y-48006000D03*
D26*
X41402000Y-48006000D03*
%TD*%
D25*
%TO.C,Q2*%
X36195000Y-24638000D03*
X38735000Y-24638000D03*
D26*
X41275000Y-24638000D03*
%TD*%
D25*
%TO.C,Q1*%
X36322000Y-53340000D03*
X38862000Y-53340000D03*
D26*
X41402000Y-53340000D03*
%TD*%
D31*
%TO.C,J6*%
X29718000Y-28108000D03*
X29718000Y-31608000D03*
X29718000Y-35108000D03*
G36*
G01*
X31268000Y-39508000D02*
X28168000Y-39508000D01*
G75*
G02*
X27918000Y-39258000I0J250000D01*
G01*
X27918000Y-37958000D01*
G75*
G02*
X28168000Y-37708000I250000J0D01*
G01*
X31268000Y-37708000D01*
G75*
G02*
X31518000Y-37958000I0J-250000D01*
G01*
X31518000Y-39258000D01*
G75*
G02*
X31268000Y-39508000I-250000J0D01*
G01*
G37*
%TD*%
D33*
%TO.C,J5*%
X29464000Y-97282000D03*
G36*
G01*
X27913999Y-91162000D02*
X31014001Y-91162000D01*
G75*
G02*
X31264000Y-91411999I0J-249999D01*
G01*
X31264000Y-92992001D01*
G75*
G02*
X31014001Y-93242000I-249999J0D01*
G01*
X27913999Y-93242000D01*
G75*
G02*
X27664000Y-92992001I0J249999D01*
G01*
X27664000Y-91411999D01*
G75*
G02*
X27913999Y-91162000I249999J0D01*
G01*
G37*
%TD*%
%TO.C,J1*%
X29464000Y-83820000D03*
G36*
G01*
X27913999Y-77700000D02*
X31014001Y-77700000D01*
G75*
G02*
X31264000Y-77949999I0J-249999D01*
G01*
X31264000Y-79530001D01*
G75*
G02*
X31014001Y-79780000I-249999J0D01*
G01*
X27913999Y-79780000D01*
G75*
G02*
X27664000Y-79530001I0J249999D01*
G01*
X27664000Y-77949999D01*
G75*
G02*
X27913999Y-77700000I249999J0D01*
G01*
G37*
%TD*%
D10*
%TO.C,H2*%
X38500000Y-37000000D03*
%TD*%
%TO.C,H1*%
X72500000Y-37000000D03*
%TD*%
%TO.C,C10*%
G36*
G01*
X33670001Y-96128000D02*
X32369999Y-96128000D01*
G75*
G02*
X32120000Y-95878001I0J249999D01*
G01*
X32120000Y-95052999D01*
G75*
G02*
X32369999Y-94803000I249999J0D01*
G01*
X33670001Y-94803000D01*
G75*
G02*
X33920000Y-95052999I0J-249999D01*
G01*
X33920000Y-95878001D01*
G75*
G02*
X33670001Y-96128000I-249999J0D01*
G01*
G37*
G36*
G01*
X33670001Y-99253000D02*
X32369999Y-99253000D01*
G75*
G02*
X32120000Y-99003001I0J249999D01*
G01*
X32120000Y-98177999D01*
G75*
G02*
X32369999Y-97928000I249999J0D01*
G01*
X33670001Y-97928000D01*
G75*
G02*
X33920000Y-98177999I0J-249999D01*
G01*
X33920000Y-99003001D01*
G75*
G02*
X33670001Y-99253000I-249999J0D01*
G01*
G37*
%TD*%
M02*
