M48
; DRILL file {KiCad (5.1.8)-1} date 03/17/21 21:53:07
; FORMAT={-:-/ absolute / inch / decimal}
; #@! TF.CreationDate,2021-03-17T21:53:07+01:00
; #@! TF.GenerationSoftware,Kicad,Pcbnew,(5.1.8)-1
FMAT,2
INCH
T1C0.0157
T2C0.0300
T3C0.0315
T4C0.0354
T5C0.0374
T6C0.0394
T7C0.0400
T8C0.0433
T9C0.0472
T10C0.0551
T11C0.0787
T12C0.1181
T13C0.1260
%
G90
G05
T1
X1.7929Y-2.0479
X1.7948Y-2.4502
X1.84Y-1.87
X1.8613Y-1.675
X1.8613Y-1.725
X1.8613Y-1.775
X1.8613Y-1.825
X1.91Y-2.01
X2.02Y-2.4555
X2.03Y-3.32
X2.1Y-1.43
X2.125Y-1.95
X2.14Y-3.39
X2.235Y-2.17
X2.27Y-2.17
X2.595Y-2.085
X2.735Y-1.785
X2.745Y-2.01
X2.755Y-2.115
X2.905Y-1.23
X2.9207Y-1.8493
X2.945Y-1.23
X2.985Y-1.23
X3.025Y-1.23
X3.065Y-1.23
X3.115Y-1.33
X3.405Y-1.04
X3.46Y-1.125
T2
X1.85Y-2.175
X1.85Y-2.275
X1.85Y-2.375
X1.85Y-2.475
X1.95Y-2.175
X1.95Y-2.275
X1.95Y-2.375
X1.95Y-2.475
T3
X4.1147Y-3.8158
X4.41Y-3.93
X3.4313Y-3.87
X3.825Y-3.87
T4
X1.83Y-2.785
X1.83Y-2.885
T5
X3.13Y-2.3
X3.13Y-2.3984
X3.13Y-2.4969
X3.13Y-2.5953
X3.13Y-2.6937
X3.4Y-2.3
X3.4Y-2.3984
X3.4Y-2.4969
X3.4Y-2.5953
X3.4Y-2.6937
T6
X2.3Y-3.39
X3.11Y-1.935
X3.11Y-2.035
X3.21Y-1.935
X3.21Y-2.035
X3.31Y-1.935
X3.31Y-2.035
X2.29Y-3.91
X1.43Y-3.92
X2.2Y-3.26
X4.815Y-3.72
X4.815Y-3.92
X3.0886Y-2.9213
X3.0886Y-3.63
X4.4114Y-3.1576
X4.4114Y-3.3938
X1.43Y-3.25
X2.51Y-2.635
X2.61Y-2.635
X2.71Y-2.635
X2.81Y-2.635
T7
X2.1Y-3.005
X2.2378Y-2.8081
X2.3756Y-3.005
X3.115Y-1.4831
X3.2528Y-1.68
X3.3906Y-1.4831
X2.614Y-3.005
X2.7518Y-2.8081
X2.8896Y-3.005
T8
X3.73Y-2.265
X3.73Y-2.45
X4.1828Y-2.45
X4.4583Y-2.45
X3.73Y-0.955
X3.73Y-1.14
X4.1828Y-1.14
X4.4583Y-1.14
X3.73Y-1.575
X3.73Y-1.76
X4.1828Y-1.76
X4.4583Y-1.76
X3.73Y-1.96
X3.73Y-2.145
X4.1828Y-2.145
X4.4583Y-2.145
X3.73Y-1.265
X3.73Y-1.45
X4.1828Y-1.45
X4.4583Y-1.45
X3.73Y-2.57
X3.73Y-2.755
X4.1828Y-2.755
X4.4583Y-2.755
T9
X1.17Y-1.76
X1.17Y-1.8978
X1.17Y-2.0356
X1.17Y-2.1734
X1.43Y-1.68
X1.53Y-1.68
X1.63Y-1.68
X1.425Y-1.18
X1.525Y-1.18
X1.625Y-1.18
X1.17Y-1.1066
X1.17Y-1.2444
X1.17Y-1.3822
X1.17Y-1.52
X1.43Y-2.1
X1.53Y-2.1
X1.63Y-2.1
X1.43Y-1.89
X1.53Y-1.89
X1.63Y-1.89
X1.425Y-0.97
X1.525Y-0.97
X1.625Y-0.97
T10
X4.69Y-2.15
X4.69Y-2.45
X4.69Y-2.75
X4.69Y-3.13
X4.69Y-3.43
X1.16Y-3.63
X1.16Y-3.83
X1.16Y-3.1
X1.16Y-3.3
X4.69Y-1.06
X4.69Y-1.36
X4.69Y-1.66
T11
X1.91Y-3.44
T12
X2.26Y-1.62
T13
X1.5157Y-3.4252
X2.8543Y-3.4252
X4.59Y-3.685
X4.72Y-1.9
X1.5157Y-1.4567
X2.8543Y-1.4567
T0
M30
