M48
; DRILL file {KiCad (5.1.8)-1} date 05/03/21 11:51:15
; FORMAT={-:-/ absolute / metric / decimal}
; #@! TF.CreationDate,2021-05-03T11:51:15+02:00
; #@! TF.GenerationSoftware,Kicad,Pcbnew,(5.1.8)-1
FMAT,2
METRIC
T1C0.400
T2C0.650
T3C0.762
T4C0.800
T5C0.900
T6C0.950
T7C1.000
T8C1.100
T9C1.200
T10C1.400
T11C2.000
T12C3.000
T13C3.200
%
G90
G05
T1
X32.385Y-61.722
X40.894Y-34.544
X42.418Y-58.293
X43.815Y-56.769
X44.45Y-62.738
X44.958Y-58.547
X45.582Y-69.987
X45.593Y-62.738
X46.609Y-45.593
X46.99Y-76.454
X47.244Y-40.513
X47.244Y-42.418
X47.244Y-43.561
X47.244Y-44.577
X47.244Y-46.609
X48.514Y-51.054
X51.428Y-36.188
X53.975Y-49.53
X55.372Y-54.356
X56.515Y-54.356
X57.658Y-54.356
X57.912Y-76.581
X61.595Y-84.548
X62.484Y-55.7
X63.246Y-86.233
X69.342Y-50.546
X69.596Y-47.244
X70.231Y-65.024
X70.866Y-54.102
X72.517Y-44.069
X72.517Y-47.244
X78.105Y-53.213
X83.185Y-38.735
X83.312Y-31.242
X84.582Y-42.164
X86.106Y-27.559
X90.043Y-58.42
X90.17Y-28.829
X90.805Y-22.352
X91.186Y-54.737
X91.699Y-47.62
X92.075Y-22.352
T2
X78.359Y-32.258
X78.359Y-33.528
X78.359Y-34.798
X79.629Y-32.258
X79.629Y-33.528
X79.629Y-34.798
T3
X47.879Y-65.532
X47.879Y-68.072
X47.879Y-70.612
X47.879Y-73.152
X50.419Y-65.532
X50.419Y-68.072
X50.419Y-70.612
X50.419Y-73.152
T4
X86.741Y-98.298
X96.741Y-98.298
X100.457Y-98.298
X107.957Y-99.698
X26.837Y-74.549
X29.337Y-74.549
X31.837Y-74.549
T5
X86.995Y-24.765
X89.535Y-24.765
T6
X88.011Y-43.307
X88.011Y-45.807
X88.011Y-48.307
X88.011Y-50.807
X88.011Y-53.307
X81.153Y-43.307
X81.153Y-45.807
X81.153Y-48.307
X81.153Y-50.807
X81.153Y-53.307
T7
X117.856Y-97.79
X122.936Y-97.79
X49.911Y-83.058
X45.72Y-54.356
X48.26Y-54.356
X50.8Y-54.356
X53.34Y-54.356
X79.212Y-74.566
X79.212Y-92.566
X112.812Y-80.566
X112.812Y-86.566
X37.973Y-91.694
X62.865Y-80.264
X39.37Y-99.06
X62.611Y-95.758
X39.751Y-72.517
X39.751Y-75.057
X39.751Y-77.597
X39.751Y-80.137
T8
X95.25Y-65.658
X95.25Y-70.358
X106.75Y-70.358
X113.75Y-70.358
X95.25Y-30.733
X95.25Y-35.433
X106.75Y-35.433
X113.75Y-35.433
X95.25Y-58.039
X95.25Y-62.739
X106.75Y-62.739
X113.75Y-62.739
X95.25Y-38.353
X95.25Y-43.053
X106.75Y-43.053
X113.75Y-43.053
X95.25Y-50.418
X95.25Y-55.118
X106.75Y-55.118
X113.75Y-55.118
X95.25Y-23.113
X95.25Y-27.813
X106.75Y-27.813
X113.75Y-27.813
T9
X35.941Y-28.702
X38.481Y-28.702
X41.021Y-28.702
X69.195Y-77.018
X74.195Y-80.518
X74.295Y-73.518
X82.249Y-63.81
X87.249Y-67.31
X87.349Y-60.31
X35.941Y-42.367
X38.481Y-42.367
X41.021Y-42.367
X29.515Y-59.223
X29.515Y-62.723
X29.515Y-66.223
X29.515Y-69.723
X29.527Y-24.194
X29.527Y-27.694
X29.527Y-31.194
X29.527Y-34.694
X29.527Y-40.691
X29.527Y-44.191
X29.527Y-47.691
X29.527Y-51.191
X45.348Y-60.26
X45.348Y-99.76
X62.348Y-60.26
X62.348Y-99.76
X35.941Y-23.368
X38.481Y-23.368
X41.021Y-23.368
X35.941Y-52.832
X38.481Y-52.832
X41.021Y-52.832
X85.075Y-30.4
X88.575Y-35.5
X92.075Y-30.5
X35.941Y-47.6
X38.481Y-47.6
X41.021Y-47.6
T10
X29.019Y-93.662
X29.019Y-98.742
X29.083Y-80.391
X29.083Y-85.471
X119.634Y-57.15
X119.634Y-64.77
X119.634Y-72.39
X119.634Y-81.153
X119.634Y-88.773
X119.634Y-26.0
X119.634Y-33.62
X119.634Y-41.24
T11
X58.623Y-87.325
T12
X57.404Y-41.148
T13
X72.5Y-87.0
X72.5Y-37.0
X38.5Y-87.0
X119.761Y-50.038
X38.5Y-37.0
T0
M30
