G04 #@! TF.GenerationSoftware,KiCad,Pcbnew,(5.1.8)-1*
G04 #@! TF.CreationDate,2021-05-03T11:51:10+02:00*
G04 #@! TF.ProjectId,sensactOutdoor,73656e73-6163-4744-9f75-74646f6f722e,rev?*
G04 #@! TF.SameCoordinates,Original*
G04 #@! TF.FileFunction,Soldermask,Bot*
G04 #@! TF.FilePolarity,Negative*
%FSLAX46Y46*%
G04 Gerber Fmt 4.6, Leading zero omitted, Abs format (unit mm)*
G04 Created by KiCad (PCBNEW (5.1.8)-1) date 2021-05-03 11:51:10*
%MOMM*%
%LPD*%
G01*
G04 APERTURE LIST*
%ADD10O,2.000000X1.500000*%
%ADD11C,2.000000*%
%ADD12O,1.000000X1.000000*%
%ADD13R,1.000000X1.000000*%
%ADD14C,1.524000*%
%ADD15R,1.524000X1.524000*%
%ADD16C,1.650000*%
%ADD17O,3.600000X1.800000*%
%ADD18R,1.900000X0.800000*%
%ADD19O,1.950000X1.700000*%
%ADD20C,1.500000*%
%ADD21R,1.500000X1.500000*%
%ADD22C,1.800000*%
%ADD23O,1.600000X2.000000*%
%ADD24R,2.300000X1.500000*%
%ADD25C,1.600000*%
%ADD26R,3.500000X1.800000*%
%ADD27O,1.700000X1.700000*%
%ADD28R,1.700000X1.700000*%
%ADD29C,3.200000*%
%ADD30O,3.600000X2.100000*%
%ADD31C,0.100000*%
%ADD32O,1.905000X2.000000*%
%ADD33R,1.905000X2.000000*%
%ADD34R,5.000000X5.000000*%
%ADD35R,1.800000X1.800000*%
%ADD36O,3.600000X2.080000*%
G04 APERTURE END LIST*
D10*
X39751000Y-72517000D03*
X39751000Y-74957000D03*
X39751000Y-77697000D03*
X39751000Y-80137000D03*
G36*
G01*
X71062001Y-44304000D02*
X70161999Y-44304000D01*
G75*
G02*
X69912000Y-44054001I0J249999D01*
G01*
X69912000Y-43353999D01*
G75*
G02*
X70161999Y-43104000I249999J0D01*
G01*
X71062001Y-43104000D01*
G75*
G02*
X71312000Y-43353999I0J-249999D01*
G01*
X71312000Y-44054001D01*
G75*
G02*
X71062001Y-44304000I-249999J0D01*
G01*
G37*
G36*
G01*
X71062001Y-46304000D02*
X70161999Y-46304000D01*
G75*
G02*
X69912000Y-46054001I0J249999D01*
G01*
X69912000Y-45353999D01*
G75*
G02*
X70161999Y-45104000I249999J0D01*
G01*
X71062001Y-45104000D01*
G75*
G02*
X71312000Y-45353999I0J-249999D01*
G01*
X71312000Y-46054001D01*
G75*
G02*
X71062001Y-46304000I-249999J0D01*
G01*
G37*
D11*
X62348000Y-99760000D03*
X45348000Y-99760000D03*
X45348000Y-60260000D03*
X62348000Y-60260000D03*
D12*
X79629000Y-34798000D03*
X78359000Y-34798000D03*
X79629000Y-33528000D03*
X78359000Y-33528000D03*
X79629000Y-32258000D03*
D13*
X78359000Y-32258000D03*
D14*
X47879000Y-65532000D03*
X50419000Y-65532000D03*
X47879000Y-68072000D03*
X50419000Y-68072000D03*
X47879000Y-70612000D03*
X50419000Y-70612000D03*
X47879000Y-73152000D03*
D15*
X50419000Y-73152000D03*
D16*
X113750000Y-62739000D03*
X106750000Y-62739000D03*
X95250000Y-58039000D03*
X95250000Y-62739000D03*
G36*
G01*
X47228997Y-77481000D02*
X48529003Y-77481000D01*
G75*
G02*
X48779000Y-77730997I0J-249997D01*
G01*
X48779000Y-78556003D01*
G75*
G02*
X48529003Y-78806000I-249997J0D01*
G01*
X47228997Y-78806000D01*
G75*
G02*
X46979000Y-78556003I0J249997D01*
G01*
X46979000Y-77730997D01*
G75*
G02*
X47228997Y-77481000I249997J0D01*
G01*
G37*
G36*
G01*
X47228997Y-74356000D02*
X48529003Y-74356000D01*
G75*
G02*
X48779000Y-74605997I0J-249997D01*
G01*
X48779000Y-75431003D01*
G75*
G02*
X48529003Y-75681000I-249997J0D01*
G01*
X47228997Y-75681000D01*
G75*
G02*
X46979000Y-75431003I0J249997D01*
G01*
X46979000Y-74605997D01*
G75*
G02*
X47228997Y-74356000I249997J0D01*
G01*
G37*
D17*
X29514800Y-59223000D03*
X29514800Y-62723000D03*
X29514800Y-66223000D03*
G36*
G01*
X31064800Y-70623000D02*
X27964800Y-70623000D01*
G75*
G02*
X27714800Y-70373000I0J250000D01*
G01*
X27714800Y-69073000D01*
G75*
G02*
X27964800Y-68823000I250000J0D01*
G01*
X31064800Y-68823000D01*
G75*
G02*
X31314800Y-69073000I0J-250000D01*
G01*
X31314800Y-70373000D01*
G75*
G02*
X31064800Y-70623000I-250000J0D01*
G01*
G37*
D11*
X87349000Y-60310000D03*
X82249000Y-63810000D03*
G36*
G01*
X86749000Y-66310000D02*
X87749000Y-66310000D01*
G75*
G02*
X88249000Y-66810000I0J-500000D01*
G01*
X88249000Y-67810000D01*
G75*
G02*
X87749000Y-68310000I-500000J0D01*
G01*
X86749000Y-68310000D01*
G75*
G02*
X86249000Y-67810000I0J500000D01*
G01*
X86249000Y-66810000D01*
G75*
G02*
X86749000Y-66310000I500000J0D01*
G01*
G37*
D18*
X35306000Y-64516000D03*
X32306000Y-63566000D03*
X32306000Y-65466000D03*
D11*
X37973000Y-91694000D03*
G36*
G01*
X36433998Y-74179000D02*
X37734002Y-74179000D01*
G75*
G02*
X37984000Y-74428998I0J-249998D01*
G01*
X37984000Y-75254002D01*
G75*
G02*
X37734002Y-75504000I-249998J0D01*
G01*
X36433998Y-75504000D01*
G75*
G02*
X36184000Y-75254002I0J249998D01*
G01*
X36184000Y-74428998D01*
G75*
G02*
X36433998Y-74179000I249998J0D01*
G01*
G37*
G36*
G01*
X36433998Y-71054000D02*
X37734002Y-71054000D01*
G75*
G02*
X37984000Y-71303998I0J-249998D01*
G01*
X37984000Y-72129002D01*
G75*
G02*
X37734002Y-72379000I-249998J0D01*
G01*
X36433998Y-72379000D01*
G75*
G02*
X36184000Y-72129002I0J249998D01*
G01*
X36184000Y-71303998D01*
G75*
G02*
X36433998Y-71054000I249998J0D01*
G01*
G37*
D18*
X94591000Y-67310000D03*
X91591000Y-66360000D03*
X91591000Y-68260000D03*
D19*
X81153000Y-53307000D03*
X81153000Y-50807000D03*
X81153000Y-48307000D03*
X81153000Y-45807000D03*
G36*
G01*
X80428000Y-42457000D02*
X81878000Y-42457000D01*
G75*
G02*
X82128000Y-42707000I0J-250000D01*
G01*
X82128000Y-43907000D01*
G75*
G02*
X81878000Y-44157000I-250000J0D01*
G01*
X80428000Y-44157000D01*
G75*
G02*
X80178000Y-43907000I0J250000D01*
G01*
X80178000Y-42707000D01*
G75*
G02*
X80428000Y-42457000I250000J0D01*
G01*
G37*
G36*
G01*
X43796000Y-41840999D02*
X43796000Y-42741001D01*
G75*
G02*
X43546001Y-42991000I-249999J0D01*
G01*
X42845999Y-42991000D01*
G75*
G02*
X42596000Y-42741001I0J249999D01*
G01*
X42596000Y-41840999D01*
G75*
G02*
X42845999Y-41591000I249999J0D01*
G01*
X43546001Y-41591000D01*
G75*
G02*
X43796000Y-41840999I0J-249999D01*
G01*
G37*
G36*
G01*
X45796000Y-41840999D02*
X45796000Y-42741001D01*
G75*
G02*
X45546001Y-42991000I-249999J0D01*
G01*
X44845999Y-42991000D01*
G75*
G02*
X44596000Y-42741001I0J249999D01*
G01*
X44596000Y-41840999D01*
G75*
G02*
X44845999Y-41591000I249999J0D01*
G01*
X45546001Y-41591000D01*
G75*
G02*
X45796000Y-41840999I0J-249999D01*
G01*
G37*
G36*
G01*
X87865000Y-27108999D02*
X87865000Y-28009001D01*
G75*
G02*
X87615001Y-28259000I-249999J0D01*
G01*
X86914999Y-28259000D01*
G75*
G02*
X86665000Y-28009001I0J249999D01*
G01*
X86665000Y-27108999D01*
G75*
G02*
X86914999Y-26859000I249999J0D01*
G01*
X87615001Y-26859000D01*
G75*
G02*
X87865000Y-27108999I0J-249999D01*
G01*
G37*
G36*
G01*
X89865000Y-27108999D02*
X89865000Y-28009001D01*
G75*
G02*
X89615001Y-28259000I-249999J0D01*
G01*
X88914999Y-28259000D01*
G75*
G02*
X88665000Y-28009001I0J249999D01*
G01*
X88665000Y-27108999D01*
G75*
G02*
X88914999Y-26859000I249999J0D01*
G01*
X89615001Y-26859000D01*
G75*
G02*
X89865000Y-27108999I0J-249999D01*
G01*
G37*
D16*
X113750000Y-43053000D03*
X106750000Y-43053000D03*
X95250000Y-38353000D03*
X95250000Y-43053000D03*
D20*
X79212000Y-74566000D03*
X79212000Y-92566000D03*
X112812000Y-80566000D03*
D21*
X112812000Y-86566000D03*
D22*
X107957000Y-99698000D03*
X100457000Y-98298000D03*
D23*
X29337000Y-74549000D03*
X26837000Y-74549000D03*
X31837000Y-74549000D03*
D16*
X113750000Y-70358000D03*
X106750000Y-70358000D03*
X95250000Y-65658000D03*
X95250000Y-70358000D03*
D18*
X94718000Y-24765000D03*
X91718000Y-23815000D03*
X91718000Y-25715000D03*
G36*
G01*
X25663999Y-70877000D02*
X26914001Y-70877000D01*
G75*
G02*
X27164000Y-71126999I0J-249999D01*
G01*
X27164000Y-71927001D01*
G75*
G02*
X26914001Y-72177000I-249999J0D01*
G01*
X25663999Y-72177000D01*
G75*
G02*
X25414000Y-71927001I0J249999D01*
G01*
X25414000Y-71126999D01*
G75*
G02*
X25663999Y-70877000I249999J0D01*
G01*
G37*
G36*
G01*
X25663999Y-67777000D02*
X26914001Y-67777000D01*
G75*
G02*
X27164000Y-68026999I0J-249999D01*
G01*
X27164000Y-68827001D01*
G75*
G02*
X26914001Y-69077000I-249999J0D01*
G01*
X25663999Y-69077000D01*
G75*
G02*
X25414000Y-68827001I0J249999D01*
G01*
X25414000Y-68026999D01*
G75*
G02*
X25663999Y-67777000I249999J0D01*
G01*
G37*
D11*
X85075000Y-30400000D03*
X88575000Y-35500000D03*
G36*
G01*
X91075000Y-31000000D02*
X91075000Y-30000000D01*
G75*
G02*
X91575000Y-29500000I500000J0D01*
G01*
X92575000Y-29500000D01*
G75*
G02*
X93075000Y-30000000I0J-500000D01*
G01*
X93075000Y-31000000D01*
G75*
G02*
X92575000Y-31500000I-500000J0D01*
G01*
X91575000Y-31500000D01*
G75*
G02*
X91075000Y-31000000I0J500000D01*
G01*
G37*
X74295000Y-73518000D03*
X69195000Y-77018000D03*
G36*
G01*
X73695000Y-79518000D02*
X74695000Y-79518000D01*
G75*
G02*
X75195000Y-80018000I0J-500000D01*
G01*
X75195000Y-81018000D01*
G75*
G02*
X74695000Y-81518000I-500000J0D01*
G01*
X73695000Y-81518000D01*
G75*
G02*
X73195000Y-81018000I0J500000D01*
G01*
X73195000Y-80018000D01*
G75*
G02*
X73695000Y-79518000I500000J0D01*
G01*
G37*
D16*
X113750000Y-55118000D03*
X106750000Y-55118000D03*
X95250000Y-50418000D03*
X95250000Y-55118000D03*
X113750000Y-35433000D03*
X106750000Y-35433000D03*
X95250000Y-30733000D03*
X95250000Y-35433000D03*
X113750000Y-27813000D03*
X106750000Y-27813000D03*
X95250000Y-23113000D03*
X95250000Y-27813000D03*
G36*
G01*
X92520000Y-93119001D02*
X92520000Y-90268999D01*
G75*
G02*
X92769999Y-90019000I249999J0D01*
G01*
X93670001Y-90019000D01*
G75*
G02*
X93920000Y-90268999I0J-249999D01*
G01*
X93920000Y-93119001D01*
G75*
G02*
X93670001Y-93369000I-249999J0D01*
G01*
X92769999Y-93369000D01*
G75*
G02*
X92520000Y-93119001I0J249999D01*
G01*
G37*
G36*
G01*
X86420000Y-93119001D02*
X86420000Y-90268999D01*
G75*
G02*
X86669999Y-90019000I249999J0D01*
G01*
X87570001Y-90019000D01*
G75*
G02*
X87820000Y-90268999I0J-249999D01*
G01*
X87820000Y-93119001D01*
G75*
G02*
X87570001Y-93369000I-249999J0D01*
G01*
X86669999Y-93369000D01*
G75*
G02*
X86420000Y-93119001I0J249999D01*
G01*
G37*
G36*
G01*
X70974000Y-70415999D02*
X70974000Y-71316001D01*
G75*
G02*
X70724001Y-71566000I-249999J0D01*
G01*
X70023999Y-71566000D01*
G75*
G02*
X69774000Y-71316001I0J249999D01*
G01*
X69774000Y-70415999D01*
G75*
G02*
X70023999Y-70166000I249999J0D01*
G01*
X70724001Y-70166000D01*
G75*
G02*
X70974000Y-70415999I0J-249999D01*
G01*
G37*
G36*
G01*
X72974000Y-70415999D02*
X72974000Y-71316001D01*
G75*
G02*
X72724001Y-71566000I-249999J0D01*
G01*
X72023999Y-71566000D01*
G75*
G02*
X71774000Y-71316001I0J249999D01*
G01*
X71774000Y-70415999D01*
G75*
G02*
X72023999Y-70166000I249999J0D01*
G01*
X72724001Y-70166000D01*
G75*
G02*
X72974000Y-70415999I0J-249999D01*
G01*
G37*
G36*
G01*
X47101997Y-60844000D02*
X48402003Y-60844000D01*
G75*
G02*
X48652000Y-61093997I0J-249997D01*
G01*
X48652000Y-61919003D01*
G75*
G02*
X48402003Y-62169000I-249997J0D01*
G01*
X47101997Y-62169000D01*
G75*
G02*
X46852000Y-61919003I0J249997D01*
G01*
X46852000Y-61093997D01*
G75*
G02*
X47101997Y-60844000I249997J0D01*
G01*
G37*
G36*
G01*
X47101997Y-57719000D02*
X48402003Y-57719000D01*
G75*
G02*
X48652000Y-57968997I0J-249997D01*
G01*
X48652000Y-58794003D01*
G75*
G02*
X48402003Y-59044000I-249997J0D01*
G01*
X47101997Y-59044000D01*
G75*
G02*
X46852000Y-58794003I0J249997D01*
G01*
X46852000Y-57968997D01*
G75*
G02*
X47101997Y-57719000I249997J0D01*
G01*
G37*
D24*
X77423000Y-84328000D03*
X77423000Y-86868000D03*
X87423000Y-86868000D03*
X87423000Y-84328000D03*
G36*
G01*
X98616000Y-89055001D02*
X98616000Y-86204999D01*
G75*
G02*
X98865999Y-85955000I249999J0D01*
G01*
X99766001Y-85955000D01*
G75*
G02*
X100016000Y-86204999I0J-249999D01*
G01*
X100016000Y-89055001D01*
G75*
G02*
X99766001Y-89305000I-249999J0D01*
G01*
X98865999Y-89305000D01*
G75*
G02*
X98616000Y-89055001I0J249999D01*
G01*
G37*
G36*
G01*
X92516000Y-89055001D02*
X92516000Y-86204999D01*
G75*
G02*
X92765999Y-85955000I249999J0D01*
G01*
X93666001Y-85955000D01*
G75*
G02*
X93916000Y-86204999I0J-249999D01*
G01*
X93916000Y-89055001D01*
G75*
G02*
X93666001Y-89305000I-249999J0D01*
G01*
X92765999Y-89305000D01*
G75*
G02*
X92516000Y-89055001I0J249999D01*
G01*
G37*
G36*
G01*
X103569000Y-80165001D02*
X103569000Y-77314999D01*
G75*
G02*
X103818999Y-77065000I249999J0D01*
G01*
X104719001Y-77065000D01*
G75*
G02*
X104969000Y-77314999I0J-249999D01*
G01*
X104969000Y-80165001D01*
G75*
G02*
X104719001Y-80415000I-249999J0D01*
G01*
X103818999Y-80415000D01*
G75*
G02*
X103569000Y-80165001I0J249999D01*
G01*
G37*
G36*
G01*
X97469000Y-80165001D02*
X97469000Y-77314999D01*
G75*
G02*
X97718999Y-77065000I249999J0D01*
G01*
X98619001Y-77065000D01*
G75*
G02*
X98869000Y-77314999I0J-249999D01*
G01*
X98869000Y-80165001D01*
G75*
G02*
X98619001Y-80415000I-249999J0D01*
G01*
X97718999Y-80415000D01*
G75*
G02*
X97469000Y-80165001I0J249999D01*
G01*
G37*
G36*
G01*
X95441000Y-80165001D02*
X95441000Y-77314999D01*
G75*
G02*
X95690999Y-77065000I249999J0D01*
G01*
X96591001Y-77065000D01*
G75*
G02*
X96841000Y-77314999I0J-249999D01*
G01*
X96841000Y-80165001D01*
G75*
G02*
X96591001Y-80415000I-249999J0D01*
G01*
X95690999Y-80415000D01*
G75*
G02*
X95441000Y-80165001I0J249999D01*
G01*
G37*
G36*
G01*
X89341000Y-80165001D02*
X89341000Y-77314999D01*
G75*
G02*
X89590999Y-77065000I249999J0D01*
G01*
X90491001Y-77065000D01*
G75*
G02*
X90741000Y-77314999I0J-249999D01*
G01*
X90741000Y-80165001D01*
G75*
G02*
X90491001Y-80415000I-249999J0D01*
G01*
X89590999Y-80415000D01*
G75*
G02*
X89341000Y-80165001I0J249999D01*
G01*
G37*
D25*
X86741000Y-98298000D03*
X96741000Y-98298000D03*
G36*
G01*
X70681001Y-67545000D02*
X69780999Y-67545000D01*
G75*
G02*
X69531000Y-67295001I0J249999D01*
G01*
X69531000Y-66594999D01*
G75*
G02*
X69780999Y-66345000I249999J0D01*
G01*
X70681001Y-66345000D01*
G75*
G02*
X70931000Y-66594999I0J-249999D01*
G01*
X70931000Y-67295001D01*
G75*
G02*
X70681001Y-67545000I-249999J0D01*
G01*
G37*
G36*
G01*
X70681001Y-69545000D02*
X69780999Y-69545000D01*
G75*
G02*
X69531000Y-69295001I0J249999D01*
G01*
X69531000Y-68594999D01*
G75*
G02*
X69780999Y-68345000I249999J0D01*
G01*
X70681001Y-68345000D01*
G75*
G02*
X70931000Y-68594999I0J-249999D01*
G01*
X70931000Y-69295001D01*
G75*
G02*
X70681001Y-69545000I-249999J0D01*
G01*
G37*
D26*
X92416000Y-40767000D03*
X87416000Y-40767000D03*
D11*
X122936000Y-97790000D03*
X117856000Y-97790000D03*
X39370000Y-99060000D03*
X62611000Y-95758000D03*
D27*
X53340000Y-54356000D03*
X50800000Y-54356000D03*
X48260000Y-54356000D03*
D28*
X45720000Y-54356000D03*
D11*
X62865000Y-80264000D03*
X49911000Y-83058000D03*
D29*
X119761000Y-50038000D03*
D30*
X119634000Y-88773000D03*
G36*
G01*
X118083999Y-80103000D02*
X121184001Y-80103000D01*
G75*
G02*
X121434000Y-80352999I0J-249999D01*
G01*
X121434000Y-81953001D01*
G75*
G02*
X121184001Y-82203000I-249999J0D01*
G01*
X118083999Y-82203000D01*
G75*
G02*
X117834000Y-81953001I0J249999D01*
G01*
X117834000Y-80352999D01*
G75*
G02*
X118083999Y-80103000I249999J0D01*
G01*
G37*
X119634000Y-72390000D03*
X119634000Y-64770000D03*
G36*
G01*
X118083999Y-56100000D02*
X121184001Y-56100000D01*
G75*
G02*
X121434000Y-56349999I0J-249999D01*
G01*
X121434000Y-57950001D01*
G75*
G02*
X121184001Y-58200000I-249999J0D01*
G01*
X118083999Y-58200000D01*
G75*
G02*
X117834000Y-57950001I0J249999D01*
G01*
X117834000Y-56349999D01*
G75*
G02*
X118083999Y-56100000I249999J0D01*
G01*
G37*
X119634000Y-41240000D03*
X119634000Y-33620000D03*
G36*
G01*
X118083999Y-24950000D02*
X121184001Y-24950000D01*
G75*
G02*
X121434000Y-25199999I0J-249999D01*
G01*
X121434000Y-26800001D01*
G75*
G02*
X121184001Y-27050000I-249999J0D01*
G01*
X118083999Y-27050000D01*
G75*
G02*
X117834000Y-26800001I0J249999D01*
G01*
X117834000Y-25199999D01*
G75*
G02*
X118083999Y-24950000I249999J0D01*
G01*
G37*
D31*
G36*
X59923200Y-85675200D02*
G01*
X59923200Y-88975200D01*
X57323200Y-88975200D01*
X57323200Y-85675200D01*
X59923200Y-85675200D01*
G37*
G36*
G01*
X82746001Y-60560000D02*
X81845999Y-60560000D01*
G75*
G02*
X81596000Y-60310001I0J249999D01*
G01*
X81596000Y-59609999D01*
G75*
G02*
X81845999Y-59360000I249999J0D01*
G01*
X82746001Y-59360000D01*
G75*
G02*
X82996000Y-59609999I0J-249999D01*
G01*
X82996000Y-60310001D01*
G75*
G02*
X82746001Y-60560000I-249999J0D01*
G01*
G37*
G36*
G01*
X82746001Y-62560000D02*
X81845999Y-62560000D01*
G75*
G02*
X81596000Y-62310001I0J249999D01*
G01*
X81596000Y-61609999D01*
G75*
G02*
X81845999Y-61360000I249999J0D01*
G01*
X82746001Y-61360000D01*
G75*
G02*
X82996000Y-61609999I0J-249999D01*
G01*
X82996000Y-62310001D01*
G75*
G02*
X82746001Y-62560000I-249999J0D01*
G01*
G37*
D32*
X35941000Y-28702000D03*
X38481000Y-28702000D03*
D33*
X41021000Y-28702000D03*
G36*
G01*
X46068000Y-67495000D02*
X45118000Y-67495000D01*
G75*
G02*
X44868000Y-67245000I0J250000D01*
G01*
X44868000Y-66570000D01*
G75*
G02*
X45118000Y-66320000I250000J0D01*
G01*
X46068000Y-66320000D01*
G75*
G02*
X46318000Y-66570000I0J-250000D01*
G01*
X46318000Y-67245000D01*
G75*
G02*
X46068000Y-67495000I-250000J0D01*
G01*
G37*
G36*
G01*
X46068000Y-69570000D02*
X45118000Y-69570000D01*
G75*
G02*
X44868000Y-69320000I0J250000D01*
G01*
X44868000Y-68645000D01*
G75*
G02*
X45118000Y-68395000I250000J0D01*
G01*
X46068000Y-68395000D01*
G75*
G02*
X46318000Y-68645000I0J-250000D01*
G01*
X46318000Y-69320000D01*
G75*
G02*
X46068000Y-69570000I-250000J0D01*
G01*
G37*
G36*
G01*
X80918000Y-39693001D02*
X80918000Y-38792999D01*
G75*
G02*
X81167999Y-38543000I249999J0D01*
G01*
X81868001Y-38543000D01*
G75*
G02*
X82118000Y-38792999I0J-249999D01*
G01*
X82118000Y-39693001D01*
G75*
G02*
X81868001Y-39943000I-249999J0D01*
G01*
X81167999Y-39943000D01*
G75*
G02*
X80918000Y-39693001I0J249999D01*
G01*
G37*
G36*
G01*
X78918000Y-39693001D02*
X78918000Y-38792999D01*
G75*
G02*
X79167999Y-38543000I249999J0D01*
G01*
X79868001Y-38543000D01*
G75*
G02*
X80118000Y-38792999I0J-249999D01*
G01*
X80118000Y-39693001D01*
G75*
G02*
X79868001Y-39943000I-249999J0D01*
G01*
X79167999Y-39943000D01*
G75*
G02*
X78918000Y-39693001I0J249999D01*
G01*
G37*
G36*
G01*
X80918000Y-41725001D02*
X80918000Y-40824999D01*
G75*
G02*
X81167999Y-40575000I249999J0D01*
G01*
X81868001Y-40575000D01*
G75*
G02*
X82118000Y-40824999I0J-249999D01*
G01*
X82118000Y-41725001D01*
G75*
G02*
X81868001Y-41975000I-249999J0D01*
G01*
X81167999Y-41975000D01*
G75*
G02*
X80918000Y-41725001I0J249999D01*
G01*
G37*
G36*
G01*
X78918000Y-41725001D02*
X78918000Y-40824999D01*
G75*
G02*
X79167999Y-40575000I249999J0D01*
G01*
X79868001Y-40575000D01*
G75*
G02*
X80118000Y-40824999I0J-249999D01*
G01*
X80118000Y-41725001D01*
G75*
G02*
X79868001Y-41975000I-249999J0D01*
G01*
X79167999Y-41975000D01*
G75*
G02*
X78918000Y-41725001I0J249999D01*
G01*
G37*
D34*
X57404000Y-41148000D03*
G36*
G01*
X79394000Y-31184001D02*
X79394000Y-30283999D01*
G75*
G02*
X79643999Y-30034000I249999J0D01*
G01*
X80344001Y-30034000D01*
G75*
G02*
X80594000Y-30283999I0J-249999D01*
G01*
X80594000Y-31184001D01*
G75*
G02*
X80344001Y-31434000I-249999J0D01*
G01*
X79643999Y-31434000D01*
G75*
G02*
X79394000Y-31184001I0J249999D01*
G01*
G37*
G36*
G01*
X77394000Y-31184001D02*
X77394000Y-30283999D01*
G75*
G02*
X77643999Y-30034000I249999J0D01*
G01*
X78344001Y-30034000D01*
G75*
G02*
X78594000Y-30283999I0J-249999D01*
G01*
X78594000Y-31184001D01*
G75*
G02*
X78344001Y-31434000I-249999J0D01*
G01*
X77643999Y-31434000D01*
G75*
G02*
X77394000Y-31184001I0J249999D01*
G01*
G37*
G36*
G01*
X75612500Y-31209000D02*
X75612500Y-30259000D01*
G75*
G02*
X75862500Y-30009000I250000J0D01*
G01*
X76537500Y-30009000D01*
G75*
G02*
X76787500Y-30259000I0J-250000D01*
G01*
X76787500Y-31209000D01*
G75*
G02*
X76537500Y-31459000I-250000J0D01*
G01*
X75862500Y-31459000D01*
G75*
G02*
X75612500Y-31209000I0J250000D01*
G01*
G37*
G36*
G01*
X73537500Y-31209000D02*
X73537500Y-30259000D01*
G75*
G02*
X73787500Y-30009000I250000J0D01*
G01*
X74462500Y-30009000D01*
G75*
G02*
X74712500Y-30259000I0J-250000D01*
G01*
X74712500Y-31209000D01*
G75*
G02*
X74462500Y-31459000I-250000J0D01*
G01*
X73787500Y-31459000D01*
G75*
G02*
X73537500Y-31209000I0J250000D01*
G01*
G37*
G36*
G01*
X41256000Y-49841999D02*
X41256000Y-50742001D01*
G75*
G02*
X41006001Y-50992000I-249999J0D01*
G01*
X40305999Y-50992000D01*
G75*
G02*
X40056000Y-50742001I0J249999D01*
G01*
X40056000Y-49841999D01*
G75*
G02*
X40305999Y-49592000I249999J0D01*
G01*
X41006001Y-49592000D01*
G75*
G02*
X41256000Y-49841999I0J-249999D01*
G01*
G37*
G36*
G01*
X43256000Y-49841999D02*
X43256000Y-50742001D01*
G75*
G02*
X43006001Y-50992000I-249999J0D01*
G01*
X42305999Y-50992000D01*
G75*
G02*
X42056000Y-50742001I0J249999D01*
G01*
X42056000Y-49841999D01*
G75*
G02*
X42305999Y-49592000I249999J0D01*
G01*
X43006001Y-49592000D01*
G75*
G02*
X43256000Y-49841999I0J-249999D01*
G01*
G37*
G36*
G01*
X41256000Y-44507999D02*
X41256000Y-45408001D01*
G75*
G02*
X41006001Y-45658000I-249999J0D01*
G01*
X40305999Y-45658000D01*
G75*
G02*
X40056000Y-45408001I0J249999D01*
G01*
X40056000Y-44507999D01*
G75*
G02*
X40305999Y-44258000I249999J0D01*
G01*
X41006001Y-44258000D01*
G75*
G02*
X41256000Y-44507999I0J-249999D01*
G01*
G37*
G36*
G01*
X43256000Y-44507999D02*
X43256000Y-45408001D01*
G75*
G02*
X43006001Y-45658000I-249999J0D01*
G01*
X42305999Y-45658000D01*
G75*
G02*
X42056000Y-45408001I0J249999D01*
G01*
X42056000Y-44507999D01*
G75*
G02*
X42305999Y-44258000I249999J0D01*
G01*
X43006001Y-44258000D01*
G75*
G02*
X43256000Y-44507999I0J-249999D01*
G01*
G37*
D19*
X88011000Y-53307000D03*
X88011000Y-50807000D03*
X88011000Y-48307000D03*
X88011000Y-45807000D03*
G36*
G01*
X87286000Y-42457000D02*
X88736000Y-42457000D01*
G75*
G02*
X88986000Y-42707000I0J-250000D01*
G01*
X88986000Y-43907000D01*
G75*
G02*
X88736000Y-44157000I-250000J0D01*
G01*
X87286000Y-44157000D01*
G75*
G02*
X87036000Y-43907000I0J250000D01*
G01*
X87036000Y-42707000D01*
G75*
G02*
X87286000Y-42457000I250000J0D01*
G01*
G37*
G36*
G01*
X91878999Y-63773000D02*
X92779001Y-63773000D01*
G75*
G02*
X93029000Y-64022999I0J-249999D01*
G01*
X93029000Y-64723001D01*
G75*
G02*
X92779001Y-64973000I-249999J0D01*
G01*
X91878999Y-64973000D01*
G75*
G02*
X91629000Y-64723001I0J249999D01*
G01*
X91629000Y-64022999D01*
G75*
G02*
X91878999Y-63773000I249999J0D01*
G01*
G37*
G36*
G01*
X91878999Y-61773000D02*
X92779001Y-61773000D01*
G75*
G02*
X93029000Y-62022999I0J-249999D01*
G01*
X93029000Y-62723001D01*
G75*
G02*
X92779001Y-62973000I-249999J0D01*
G01*
X91878999Y-62973000D01*
G75*
G02*
X91629000Y-62723001I0J249999D01*
G01*
X91629000Y-62022999D01*
G75*
G02*
X91878999Y-61773000I249999J0D01*
G01*
G37*
G36*
G01*
X91878999Y-56153000D02*
X92779001Y-56153000D01*
G75*
G02*
X93029000Y-56402999I0J-249999D01*
G01*
X93029000Y-57103001D01*
G75*
G02*
X92779001Y-57353000I-249999J0D01*
G01*
X91878999Y-57353000D01*
G75*
G02*
X91629000Y-57103001I0J249999D01*
G01*
X91629000Y-56402999D01*
G75*
G02*
X91878999Y-56153000I249999J0D01*
G01*
G37*
G36*
G01*
X91878999Y-54153000D02*
X92779001Y-54153000D01*
G75*
G02*
X93029000Y-54402999I0J-249999D01*
G01*
X93029000Y-55103001D01*
G75*
G02*
X92779001Y-55353000I-249999J0D01*
G01*
X91878999Y-55353000D01*
G75*
G02*
X91629000Y-55103001I0J249999D01*
G01*
X91629000Y-54402999D01*
G75*
G02*
X91878999Y-54153000I249999J0D01*
G01*
G37*
D18*
X94718000Y-59563000D03*
X91718000Y-58613000D03*
X91718000Y-60513000D03*
D17*
X29527500Y-40690800D03*
X29527500Y-44190800D03*
X29527500Y-47690800D03*
G36*
G01*
X31077500Y-52090800D02*
X27977500Y-52090800D01*
G75*
G02*
X27727500Y-51840800I0J250000D01*
G01*
X27727500Y-50540800D01*
G75*
G02*
X27977500Y-50290800I250000J0D01*
G01*
X31077500Y-50290800D01*
G75*
G02*
X31327500Y-50540800I0J-250000D01*
G01*
X31327500Y-51840800D01*
G75*
G02*
X31077500Y-52090800I-250000J0D01*
G01*
G37*
D29*
X38500000Y-87000000D03*
G36*
G01*
X37446000Y-49841999D02*
X37446000Y-50742001D01*
G75*
G02*
X37196001Y-50992000I-249999J0D01*
G01*
X36495999Y-50992000D01*
G75*
G02*
X36246000Y-50742001I0J249999D01*
G01*
X36246000Y-49841999D01*
G75*
G02*
X36495999Y-49592000I249999J0D01*
G01*
X37196001Y-49592000D01*
G75*
G02*
X37446000Y-49841999I0J-249999D01*
G01*
G37*
G36*
G01*
X39446000Y-49841999D02*
X39446000Y-50742001D01*
G75*
G02*
X39196001Y-50992000I-249999J0D01*
G01*
X38495999Y-50992000D01*
G75*
G02*
X38246000Y-50742001I0J249999D01*
G01*
X38246000Y-49841999D01*
G75*
G02*
X38495999Y-49592000I249999J0D01*
G01*
X39196001Y-49592000D01*
G75*
G02*
X39446000Y-49841999I0J-249999D01*
G01*
G37*
G36*
G01*
X37446000Y-44507999D02*
X37446000Y-45408001D01*
G75*
G02*
X37196001Y-45658000I-249999J0D01*
G01*
X36495999Y-45658000D01*
G75*
G02*
X36246000Y-45408001I0J249999D01*
G01*
X36246000Y-44507999D01*
G75*
G02*
X36495999Y-44258000I249999J0D01*
G01*
X37196001Y-44258000D01*
G75*
G02*
X37446000Y-44507999I0J-249999D01*
G01*
G37*
G36*
G01*
X39446000Y-44507999D02*
X39446000Y-45408001D01*
G75*
G02*
X39196001Y-45658000I-249999J0D01*
G01*
X38495999Y-45658000D01*
G75*
G02*
X38246000Y-45408001I0J249999D01*
G01*
X38246000Y-44507999D01*
G75*
G02*
X38495999Y-44258000I249999J0D01*
G01*
X39196001Y-44258000D01*
G75*
G02*
X39446000Y-44507999I0J-249999D01*
G01*
G37*
G36*
G01*
X36176000Y-30410999D02*
X36176000Y-31311001D01*
G75*
G02*
X35926001Y-31561000I-249999J0D01*
G01*
X35225999Y-31561000D01*
G75*
G02*
X34976000Y-31311001I0J249999D01*
G01*
X34976000Y-30410999D01*
G75*
G02*
X35225999Y-30161000I249999J0D01*
G01*
X35926001Y-30161000D01*
G75*
G02*
X36176000Y-30410999I0J-249999D01*
G01*
G37*
G36*
G01*
X38176000Y-30410999D02*
X38176000Y-31311001D01*
G75*
G02*
X37926001Y-31561000I-249999J0D01*
G01*
X37225999Y-31561000D01*
G75*
G02*
X36976000Y-31311001I0J249999D01*
G01*
X36976000Y-30410999D01*
G75*
G02*
X37225999Y-30161000I249999J0D01*
G01*
X37926001Y-30161000D01*
G75*
G02*
X38176000Y-30410999I0J-249999D01*
G01*
G37*
G36*
G01*
X39986000Y-30410999D02*
X39986000Y-31311001D01*
G75*
G02*
X39736001Y-31561000I-249999J0D01*
G01*
X39035999Y-31561000D01*
G75*
G02*
X38786000Y-31311001I0J249999D01*
G01*
X38786000Y-30410999D01*
G75*
G02*
X39035999Y-30161000I249999J0D01*
G01*
X39736001Y-30161000D01*
G75*
G02*
X39986000Y-30410999I0J-249999D01*
G01*
G37*
G36*
G01*
X41986000Y-30410999D02*
X41986000Y-31311001D01*
G75*
G02*
X41736001Y-31561000I-249999J0D01*
G01*
X41035999Y-31561000D01*
G75*
G02*
X40786000Y-31311001I0J249999D01*
G01*
X40786000Y-30410999D01*
G75*
G02*
X41035999Y-30161000I249999J0D01*
G01*
X41736001Y-30161000D01*
G75*
G02*
X41986000Y-30410999I0J-249999D01*
G01*
G37*
G36*
G01*
X36557000Y-25076999D02*
X36557000Y-25977001D01*
G75*
G02*
X36307001Y-26227000I-249999J0D01*
G01*
X35606999Y-26227000D01*
G75*
G02*
X35357000Y-25977001I0J249999D01*
G01*
X35357000Y-25076999D01*
G75*
G02*
X35606999Y-24827000I249999J0D01*
G01*
X36307001Y-24827000D01*
G75*
G02*
X36557000Y-25076999I0J-249999D01*
G01*
G37*
G36*
G01*
X38557000Y-25076999D02*
X38557000Y-25977001D01*
G75*
G02*
X38307001Y-26227000I-249999J0D01*
G01*
X37606999Y-26227000D01*
G75*
G02*
X37357000Y-25977001I0J249999D01*
G01*
X37357000Y-25076999D01*
G75*
G02*
X37606999Y-24827000I249999J0D01*
G01*
X38307001Y-24827000D01*
G75*
G02*
X38557000Y-25076999I0J-249999D01*
G01*
G37*
G36*
G01*
X40367000Y-25076999D02*
X40367000Y-25977001D01*
G75*
G02*
X40117001Y-26227000I-249999J0D01*
G01*
X39416999Y-26227000D01*
G75*
G02*
X39167000Y-25977001I0J249999D01*
G01*
X39167000Y-25076999D01*
G75*
G02*
X39416999Y-24827000I249999J0D01*
G01*
X40117001Y-24827000D01*
G75*
G02*
X40367000Y-25076999I0J-249999D01*
G01*
G37*
G36*
G01*
X42367000Y-25076999D02*
X42367000Y-25977001D01*
G75*
G02*
X42117001Y-26227000I-249999J0D01*
G01*
X41416999Y-26227000D01*
G75*
G02*
X41167000Y-25977001I0J249999D01*
G01*
X41167000Y-25076999D01*
G75*
G02*
X41416999Y-24827000I249999J0D01*
G01*
X42117001Y-24827000D01*
G75*
G02*
X42367000Y-25076999I0J-249999D01*
G01*
G37*
G36*
G01*
X88665000Y-23056001D02*
X88665000Y-22155999D01*
G75*
G02*
X88914999Y-21906000I249999J0D01*
G01*
X89615001Y-21906000D01*
G75*
G02*
X89865000Y-22155999I0J-249999D01*
G01*
X89865000Y-23056001D01*
G75*
G02*
X89615001Y-23306000I-249999J0D01*
G01*
X88914999Y-23306000D01*
G75*
G02*
X88665000Y-23056001I0J249999D01*
G01*
G37*
G36*
G01*
X86665000Y-23056001D02*
X86665000Y-22155999D01*
G75*
G02*
X86914999Y-21906000I249999J0D01*
G01*
X87615001Y-21906000D01*
G75*
G02*
X87865000Y-22155999I0J-249999D01*
G01*
X87865000Y-23056001D01*
G75*
G02*
X87615001Y-23306000I-249999J0D01*
G01*
X86914999Y-23306000D01*
G75*
G02*
X86665000Y-23056001I0J249999D01*
G01*
G37*
G36*
G01*
X37446000Y-54540999D02*
X37446000Y-55441001D01*
G75*
G02*
X37196001Y-55691000I-249999J0D01*
G01*
X36495999Y-55691000D01*
G75*
G02*
X36246000Y-55441001I0J249999D01*
G01*
X36246000Y-54540999D01*
G75*
G02*
X36495999Y-54291000I249999J0D01*
G01*
X37196001Y-54291000D01*
G75*
G02*
X37446000Y-54540999I0J-249999D01*
G01*
G37*
G36*
G01*
X39446000Y-54540999D02*
X39446000Y-55441001D01*
G75*
G02*
X39196001Y-55691000I-249999J0D01*
G01*
X38495999Y-55691000D01*
G75*
G02*
X38246000Y-55441001I0J249999D01*
G01*
X38246000Y-54540999D01*
G75*
G02*
X38495999Y-54291000I249999J0D01*
G01*
X39196001Y-54291000D01*
G75*
G02*
X39446000Y-54540999I0J-249999D01*
G01*
G37*
G36*
G01*
X41256000Y-54540999D02*
X41256000Y-55441001D01*
G75*
G02*
X41006001Y-55691000I-249999J0D01*
G01*
X40305999Y-55691000D01*
G75*
G02*
X40056000Y-55441001I0J249999D01*
G01*
X40056000Y-54540999D01*
G75*
G02*
X40305999Y-54291000I249999J0D01*
G01*
X41006001Y-54291000D01*
G75*
G02*
X41256000Y-54540999I0J-249999D01*
G01*
G37*
G36*
G01*
X43256000Y-54540999D02*
X43256000Y-55441001D01*
G75*
G02*
X43006001Y-55691000I-249999J0D01*
G01*
X42305999Y-55691000D01*
G75*
G02*
X42056000Y-55441001I0J249999D01*
G01*
X42056000Y-54540999D01*
G75*
G02*
X42305999Y-54291000I249999J0D01*
G01*
X43006001Y-54291000D01*
G75*
G02*
X43256000Y-54540999I0J-249999D01*
G01*
G37*
G36*
G01*
X92729000Y-49599001D02*
X92729000Y-48698999D01*
G75*
G02*
X92978999Y-48449000I249999J0D01*
G01*
X93679001Y-48449000D01*
G75*
G02*
X93929000Y-48698999I0J-249999D01*
G01*
X93929000Y-49599001D01*
G75*
G02*
X93679001Y-49849000I-249999J0D01*
G01*
X92978999Y-49849000D01*
G75*
G02*
X92729000Y-49599001I0J249999D01*
G01*
G37*
G36*
G01*
X90729000Y-49599001D02*
X90729000Y-48698999D01*
G75*
G02*
X90978999Y-48449000I249999J0D01*
G01*
X91679001Y-48449000D01*
G75*
G02*
X91929000Y-48698999I0J-249999D01*
G01*
X91929000Y-49599001D01*
G75*
G02*
X91679001Y-49849000I-249999J0D01*
G01*
X90978999Y-49849000D01*
G75*
G02*
X90729000Y-49599001I0J249999D01*
G01*
G37*
G36*
G01*
X87903000Y-38296001D02*
X87903000Y-37395999D01*
G75*
G02*
X88152999Y-37146000I249999J0D01*
G01*
X88853001Y-37146000D01*
G75*
G02*
X89103000Y-37395999I0J-249999D01*
G01*
X89103000Y-38296001D01*
G75*
G02*
X88853001Y-38546000I-249999J0D01*
G01*
X88152999Y-38546000D01*
G75*
G02*
X87903000Y-38296001I0J249999D01*
G01*
G37*
G36*
G01*
X85903000Y-38296001D02*
X85903000Y-37395999D01*
G75*
G02*
X86152999Y-37146000I249999J0D01*
G01*
X86853001Y-37146000D01*
G75*
G02*
X87103000Y-37395999I0J-249999D01*
G01*
X87103000Y-38296001D01*
G75*
G02*
X86853001Y-38546000I-249999J0D01*
G01*
X86152999Y-38546000D01*
G75*
G02*
X85903000Y-38296001I0J249999D01*
G01*
G37*
G36*
G01*
X88538000Y-32581001D02*
X88538000Y-31680999D01*
G75*
G02*
X88787999Y-31431000I249999J0D01*
G01*
X89488001Y-31431000D01*
G75*
G02*
X89738000Y-31680999I0J-249999D01*
G01*
X89738000Y-32581001D01*
G75*
G02*
X89488001Y-32831000I-249999J0D01*
G01*
X88787999Y-32831000D01*
G75*
G02*
X88538000Y-32581001I0J249999D01*
G01*
G37*
G36*
G01*
X86538000Y-32581001D02*
X86538000Y-31680999D01*
G75*
G02*
X86787999Y-31431000I249999J0D01*
G01*
X87488001Y-31431000D01*
G75*
G02*
X87738000Y-31680999I0J-249999D01*
G01*
X87738000Y-32581001D01*
G75*
G02*
X87488001Y-32831000I-249999J0D01*
G01*
X86787999Y-32831000D01*
G75*
G02*
X86538000Y-32581001I0J249999D01*
G01*
G37*
G36*
G01*
X92475000Y-28009001D02*
X92475000Y-27108999D01*
G75*
G02*
X92724999Y-26859000I249999J0D01*
G01*
X93425001Y-26859000D01*
G75*
G02*
X93675000Y-27108999I0J-249999D01*
G01*
X93675000Y-28009001D01*
G75*
G02*
X93425001Y-28259000I-249999J0D01*
G01*
X92724999Y-28259000D01*
G75*
G02*
X92475000Y-28009001I0J249999D01*
G01*
G37*
G36*
G01*
X90475000Y-28009001D02*
X90475000Y-27108999D01*
G75*
G02*
X90724999Y-26859000I249999J0D01*
G01*
X91425001Y-26859000D01*
G75*
G02*
X91675000Y-27108999I0J-249999D01*
G01*
X91675000Y-28009001D01*
G75*
G02*
X91425001Y-28259000I-249999J0D01*
G01*
X90724999Y-28259000D01*
G75*
G02*
X90475000Y-28009001I0J249999D01*
G01*
G37*
D18*
X94718000Y-51943000D03*
X91718000Y-50993000D03*
X91718000Y-52893000D03*
X93702000Y-36957000D03*
X90702000Y-36007000D03*
X90702000Y-37907000D03*
X94464000Y-33401000D03*
X91464000Y-32451000D03*
X91464000Y-34351000D03*
D22*
X86995000Y-24765000D03*
D35*
X89535000Y-24765000D03*
D29*
X72500000Y-87000000D03*
D32*
X35941000Y-42367200D03*
X38481000Y-42367200D03*
D33*
X41021000Y-42367200D03*
D32*
X35941000Y-47599600D03*
X38481000Y-47599600D03*
D33*
X41021000Y-47599600D03*
D32*
X35941000Y-23368000D03*
X38481000Y-23368000D03*
D33*
X41021000Y-23368000D03*
D32*
X35941000Y-52832000D03*
X38481000Y-52832000D03*
D33*
X41021000Y-52832000D03*
D17*
X29527500Y-24193500D03*
X29527500Y-27693500D03*
X29527500Y-31193500D03*
G36*
G01*
X31077500Y-35593500D02*
X27977500Y-35593500D01*
G75*
G02*
X27727500Y-35343500I0J250000D01*
G01*
X27727500Y-34043500D01*
G75*
G02*
X27977500Y-33793500I250000J0D01*
G01*
X31077500Y-33793500D01*
G75*
G02*
X31327500Y-34043500I0J-250000D01*
G01*
X31327500Y-35343500D01*
G75*
G02*
X31077500Y-35593500I-250000J0D01*
G01*
G37*
D36*
X29019500Y-98742500D03*
G36*
G01*
X27469497Y-92622500D02*
X30569503Y-92622500D01*
G75*
G02*
X30819500Y-92872497I0J-249997D01*
G01*
X30819500Y-94452503D01*
G75*
G02*
X30569503Y-94702500I-249997J0D01*
G01*
X27469497Y-94702500D01*
G75*
G02*
X27219500Y-94452503I0J249997D01*
G01*
X27219500Y-92872497D01*
G75*
G02*
X27469497Y-92622500I249997J0D01*
G01*
G37*
X29083000Y-85471000D03*
G36*
G01*
X27532997Y-79351000D02*
X30633003Y-79351000D01*
G75*
G02*
X30883000Y-79600997I0J-249997D01*
G01*
X30883000Y-81181003D01*
G75*
G02*
X30633003Y-81431000I-249997J0D01*
G01*
X27532997Y-81431000D01*
G75*
G02*
X27283000Y-81181003I0J249997D01*
G01*
X27283000Y-79600997D01*
G75*
G02*
X27532997Y-79351000I249997J0D01*
G01*
G37*
D29*
X38500000Y-37000000D03*
X72500000Y-37000000D03*
M02*
