G04 #@! TF.GenerationSoftware,KiCad,Pcbnew,(5.1.8)-1*
G04 #@! TF.CreationDate,2021-05-03T11:51:10+02:00*
G04 #@! TF.ProjectId,sensactOutdoor,73656e73-6163-4744-9f75-74646f6f722e,rev?*
G04 #@! TF.SameCoordinates,Original*
G04 #@! TF.FileFunction,Paste,Top*
G04 #@! TF.FilePolarity,Positive*
%FSLAX46Y46*%
G04 Gerber Fmt 4.6, Leading zero omitted, Abs format (unit mm)*
G04 Created by KiCad (PCBNEW (5.1.8)-1) date 2021-05-03 11:51:10*
%MOMM*%
%LPD*%
G01*
G04 APERTURE LIST*
%ADD10R,1.300000X2.000000*%
%ADD11R,2.200000X1.400000*%
%ADD12R,4.800000X4.500000*%
%ADD13R,2.200000X0.600000*%
%ADD14R,1.500000X3.000000*%
%ADD15R,3.800000X3.000000*%
%ADD16R,3.500000X1.800000*%
G04 APERTURE END LIST*
D10*
X75402000Y-47235000D03*
X70902000Y-47235000D03*
X70902000Y-55635000D03*
X75402000Y-55635000D03*
D11*
X70679000Y-44829000D03*
X70679000Y-41529000D03*
X75879000Y-41529000D03*
X75879000Y-44829000D03*
G36*
G01*
X67729199Y-96701600D02*
X69329201Y-96701600D01*
G75*
G02*
X69579200Y-96951599I0J-249999D01*
G01*
X69579200Y-100951601D01*
G75*
G02*
X69329201Y-101201600I-249999J0D01*
G01*
X67729199Y-101201600D01*
G75*
G02*
X67479200Y-100951601I0J249999D01*
G01*
X67479200Y-96951599D01*
G75*
G02*
X67729199Y-96701600I249999J0D01*
G01*
G37*
G36*
G01*
X67729199Y-89501600D02*
X69329201Y-89501600D01*
G75*
G02*
X69579200Y-89751599I0J-249999D01*
G01*
X69579200Y-93751601D01*
G75*
G02*
X69329201Y-94001600I-249999J0D01*
G01*
X67729199Y-94001600D01*
G75*
G02*
X67479200Y-93751601I0J249999D01*
G01*
X67479200Y-89751599D01*
G75*
G02*
X67729199Y-89501600I249999J0D01*
G01*
G37*
G36*
G01*
X35791000Y-69179500D02*
X35791000Y-69504500D01*
G75*
G02*
X35628500Y-69667000I-162500J0D01*
G01*
X33203500Y-69667000D01*
G75*
G02*
X33041000Y-69504500I0J162500D01*
G01*
X33041000Y-69179500D01*
G75*
G02*
X33203500Y-69017000I162500J0D01*
G01*
X35628500Y-69017000D01*
G75*
G02*
X35791000Y-69179500I0J-162500D01*
G01*
G37*
G36*
G01*
X35791000Y-66639500D02*
X35791000Y-66964500D01*
G75*
G02*
X35628500Y-67127000I-162500J0D01*
G01*
X33203500Y-67127000D01*
G75*
G02*
X33041000Y-66964500I0J162500D01*
G01*
X33041000Y-66639500D01*
G75*
G02*
X33203500Y-66477000I162500J0D01*
G01*
X35628500Y-66477000D01*
G75*
G02*
X35791000Y-66639500I0J-162500D01*
G01*
G37*
G36*
G01*
X35791000Y-64099500D02*
X35791000Y-64424500D01*
G75*
G02*
X35628500Y-64587000I-162500J0D01*
G01*
X33203500Y-64587000D01*
G75*
G02*
X33041000Y-64424500I0J162500D01*
G01*
X33041000Y-64099500D01*
G75*
G02*
X33203500Y-63937000I162500J0D01*
G01*
X35628500Y-63937000D01*
G75*
G02*
X35791000Y-64099500I0J-162500D01*
G01*
G37*
G36*
G01*
X35791000Y-61559500D02*
X35791000Y-61884500D01*
G75*
G02*
X35628500Y-62047000I-162500J0D01*
G01*
X33203500Y-62047000D01*
G75*
G02*
X33041000Y-61884500I0J162500D01*
G01*
X33041000Y-61559500D01*
G75*
G02*
X33203500Y-61397000I162500J0D01*
G01*
X35628500Y-61397000D01*
G75*
G02*
X35791000Y-61559500I0J-162500D01*
G01*
G37*
G36*
G01*
X45216000Y-61559500D02*
X45216000Y-61884500D01*
G75*
G02*
X45053500Y-62047000I-162500J0D01*
G01*
X42628500Y-62047000D01*
G75*
G02*
X42466000Y-61884500I0J162500D01*
G01*
X42466000Y-61559500D01*
G75*
G02*
X42628500Y-61397000I162500J0D01*
G01*
X45053500Y-61397000D01*
G75*
G02*
X45216000Y-61559500I0J-162500D01*
G01*
G37*
G36*
G01*
X45241000Y-64099500D02*
X45241000Y-64424500D01*
G75*
G02*
X45078500Y-64587000I-162500J0D01*
G01*
X42653500Y-64587000D01*
G75*
G02*
X42491000Y-64424500I0J162500D01*
G01*
X42491000Y-64099500D01*
G75*
G02*
X42653500Y-63937000I162500J0D01*
G01*
X45078500Y-63937000D01*
G75*
G02*
X45241000Y-64099500I0J-162500D01*
G01*
G37*
G36*
G01*
X45191000Y-66639500D02*
X45191000Y-66964500D01*
G75*
G02*
X45028500Y-67127000I-162500J0D01*
G01*
X42603500Y-67127000D01*
G75*
G02*
X42441000Y-66964500I0J162500D01*
G01*
X42441000Y-66639500D01*
G75*
G02*
X42603500Y-66477000I162500J0D01*
G01*
X45028500Y-66477000D01*
G75*
G02*
X45191000Y-66639500I0J-162500D01*
G01*
G37*
G36*
G01*
X45191000Y-69179500D02*
X45191000Y-69504500D01*
G75*
G02*
X45028500Y-69667000I-162500J0D01*
G01*
X42603500Y-69667000D01*
G75*
G02*
X42441000Y-69504500I0J162500D01*
G01*
X42441000Y-69179500D01*
G75*
G02*
X42603500Y-69017000I162500J0D01*
G01*
X45028500Y-69017000D01*
G75*
G02*
X45191000Y-69179500I0J-162500D01*
G01*
G37*
G36*
G01*
X41386998Y-80021000D02*
X42687002Y-80021000D01*
G75*
G02*
X42937000Y-80270998I0J-249998D01*
G01*
X42937000Y-81096002D01*
G75*
G02*
X42687002Y-81346000I-249998J0D01*
G01*
X41386998Y-81346000D01*
G75*
G02*
X41137000Y-81096002I0J249998D01*
G01*
X41137000Y-80270998D01*
G75*
G02*
X41386998Y-80021000I249998J0D01*
G01*
G37*
G36*
G01*
X41386998Y-76896000D02*
X42687002Y-76896000D01*
G75*
G02*
X42937000Y-77145998I0J-249998D01*
G01*
X42937000Y-77971002D01*
G75*
G02*
X42687002Y-78221000I-249998J0D01*
G01*
X41386998Y-78221000D01*
G75*
G02*
X41137000Y-77971002I0J249998D01*
G01*
X41137000Y-77145998D01*
G75*
G02*
X41386998Y-76896000I249998J0D01*
G01*
G37*
G36*
G01*
X41587000Y-32569999D02*
X41587000Y-33470001D01*
G75*
G02*
X41337001Y-33720000I-249999J0D01*
G01*
X40686999Y-33720000D01*
G75*
G02*
X40437000Y-33470001I0J249999D01*
G01*
X40437000Y-32569999D01*
G75*
G02*
X40686999Y-32320000I249999J0D01*
G01*
X41337001Y-32320000D01*
G75*
G02*
X41587000Y-32569999I0J-249999D01*
G01*
G37*
G36*
G01*
X43637000Y-32569999D02*
X43637000Y-33470001D01*
G75*
G02*
X43387001Y-33720000I-249999J0D01*
G01*
X42736999Y-33720000D01*
G75*
G02*
X42487000Y-33470001I0J249999D01*
G01*
X42487000Y-32569999D01*
G75*
G02*
X42736999Y-32320000I249999J0D01*
G01*
X43387001Y-32320000D01*
G75*
G02*
X43637000Y-32569999I0J-249999D01*
G01*
G37*
G36*
G01*
X37534000Y-57600001D02*
X37534000Y-56699999D01*
G75*
G02*
X37783999Y-56450000I249999J0D01*
G01*
X38434001Y-56450000D01*
G75*
G02*
X38684000Y-56699999I0J-249999D01*
G01*
X38684000Y-57600001D01*
G75*
G02*
X38434001Y-57850000I-249999J0D01*
G01*
X37783999Y-57850000D01*
G75*
G02*
X37534000Y-57600001I0J249999D01*
G01*
G37*
G36*
G01*
X35484000Y-57600001D02*
X35484000Y-56699999D01*
G75*
G02*
X35733999Y-56450000I249999J0D01*
G01*
X36384001Y-56450000D01*
G75*
G02*
X36634000Y-56699999I0J-249999D01*
G01*
X36634000Y-57600001D01*
G75*
G02*
X36384001Y-57850000I-249999J0D01*
G01*
X35733999Y-57850000D01*
G75*
G02*
X35484000Y-57600001I0J249999D01*
G01*
G37*
G36*
G01*
X92513999Y-26485000D02*
X93414001Y-26485000D01*
G75*
G02*
X93664000Y-26734999I0J-249999D01*
G01*
X93664000Y-27385001D01*
G75*
G02*
X93414001Y-27635000I-249999J0D01*
G01*
X92513999Y-27635000D01*
G75*
G02*
X92264000Y-27385001I0J249999D01*
G01*
X92264000Y-26734999D01*
G75*
G02*
X92513999Y-26485000I249999J0D01*
G01*
G37*
G36*
G01*
X92513999Y-24435000D02*
X93414001Y-24435000D01*
G75*
G02*
X93664000Y-24684999I0J-249999D01*
G01*
X93664000Y-25335001D01*
G75*
G02*
X93414001Y-25585000I-249999J0D01*
G01*
X92513999Y-25585000D01*
G75*
G02*
X92264000Y-25335001I0J249999D01*
G01*
X92264000Y-24684999D01*
G75*
G02*
X92513999Y-24435000I249999J0D01*
G01*
G37*
G36*
G01*
X40494000Y-56699999D02*
X40494000Y-57600001D01*
G75*
G02*
X40244001Y-57850000I-249999J0D01*
G01*
X39543999Y-57850000D01*
G75*
G02*
X39294000Y-57600001I0J249999D01*
G01*
X39294000Y-56699999D01*
G75*
G02*
X39543999Y-56450000I249999J0D01*
G01*
X40244001Y-56450000D01*
G75*
G02*
X40494000Y-56699999I0J-249999D01*
G01*
G37*
G36*
G01*
X42494000Y-56699999D02*
X42494000Y-57600001D01*
G75*
G02*
X42244001Y-57850000I-249999J0D01*
G01*
X41543999Y-57850000D01*
G75*
G02*
X41294000Y-57600001I0J249999D01*
G01*
X41294000Y-56699999D01*
G75*
G02*
X41543999Y-56450000I249999J0D01*
G01*
X42244001Y-56450000D01*
G75*
G02*
X42494000Y-56699999I0J-249999D01*
G01*
G37*
G36*
G01*
X61987000Y-75707003D02*
X61987000Y-74406997D01*
G75*
G02*
X62236997Y-74157000I249997J0D01*
G01*
X63062003Y-74157000D01*
G75*
G02*
X63312000Y-74406997I0J-249997D01*
G01*
X63312000Y-75707003D01*
G75*
G02*
X63062003Y-75957000I-249997J0D01*
G01*
X62236997Y-75957000D01*
G75*
G02*
X61987000Y-75707003I0J249997D01*
G01*
G37*
G36*
G01*
X58862000Y-75707003D02*
X58862000Y-74406997D01*
G75*
G02*
X59111997Y-74157000I249997J0D01*
G01*
X59937003Y-74157000D01*
G75*
G02*
X60187000Y-74406997I0J-249997D01*
G01*
X60187000Y-75707003D01*
G75*
G02*
X59937003Y-75957000I-249997J0D01*
G01*
X59111997Y-75957000D01*
G75*
G02*
X58862000Y-75707003I0J249997D01*
G01*
G37*
G36*
G01*
X61987000Y-73294003D02*
X61987000Y-71993997D01*
G75*
G02*
X62236997Y-71744000I249997J0D01*
G01*
X63062003Y-71744000D01*
G75*
G02*
X63312000Y-71993997I0J-249997D01*
G01*
X63312000Y-73294003D01*
G75*
G02*
X63062003Y-73544000I-249997J0D01*
G01*
X62236997Y-73544000D01*
G75*
G02*
X61987000Y-73294003I0J249997D01*
G01*
G37*
G36*
G01*
X58862000Y-73294003D02*
X58862000Y-71993997D01*
G75*
G02*
X59111997Y-71744000I249997J0D01*
G01*
X59937003Y-71744000D01*
G75*
G02*
X60187000Y-71993997I0J-249997D01*
G01*
X60187000Y-73294003D01*
G75*
G02*
X59937003Y-73544000I-249997J0D01*
G01*
X59111997Y-73544000D01*
G75*
G02*
X58862000Y-73294003I0J249997D01*
G01*
G37*
D12*
X52408400Y-92964000D03*
X41808400Y-92964000D03*
D13*
X55623200Y-89230200D03*
X55623200Y-87960200D03*
X55623200Y-86690200D03*
X55623200Y-85420200D03*
X61623200Y-85420200D03*
X61623200Y-86690200D03*
X61623200Y-87960200D03*
X61623200Y-89230200D03*
G36*
G01*
X68904000Y-33423000D02*
X68904000Y-33873000D01*
G75*
G02*
X68679000Y-34098000I-225000J0D01*
G01*
X66129000Y-34098000D01*
G75*
G02*
X65904000Y-33873000I0J225000D01*
G01*
X65904000Y-33423000D01*
G75*
G02*
X66129000Y-33198000I225000J0D01*
G01*
X68679000Y-33198000D01*
G75*
G02*
X68904000Y-33423000I0J-225000D01*
G01*
G37*
G36*
G01*
X68904000Y-34693000D02*
X68904000Y-35143000D01*
G75*
G02*
X68679000Y-35368000I-225000J0D01*
G01*
X66129000Y-35368000D01*
G75*
G02*
X65904000Y-35143000I0J225000D01*
G01*
X65904000Y-34693000D01*
G75*
G02*
X66129000Y-34468000I225000J0D01*
G01*
X68679000Y-34468000D01*
G75*
G02*
X68904000Y-34693000I0J-225000D01*
G01*
G37*
G36*
G01*
X68904000Y-35963000D02*
X68904000Y-36413000D01*
G75*
G02*
X68679000Y-36638000I-225000J0D01*
G01*
X66129000Y-36638000D01*
G75*
G02*
X65904000Y-36413000I0J225000D01*
G01*
X65904000Y-35963000D01*
G75*
G02*
X66129000Y-35738000I225000J0D01*
G01*
X68679000Y-35738000D01*
G75*
G02*
X68904000Y-35963000I0J-225000D01*
G01*
G37*
G36*
G01*
X68904000Y-37233000D02*
X68904000Y-37683000D01*
G75*
G02*
X68679000Y-37908000I-225000J0D01*
G01*
X66129000Y-37908000D01*
G75*
G02*
X65904000Y-37683000I0J225000D01*
G01*
X65904000Y-37233000D01*
G75*
G02*
X66129000Y-37008000I225000J0D01*
G01*
X68679000Y-37008000D01*
G75*
G02*
X68904000Y-37233000I0J-225000D01*
G01*
G37*
G36*
G01*
X68904000Y-38503000D02*
X68904000Y-38953000D01*
G75*
G02*
X68679000Y-39178000I-225000J0D01*
G01*
X66129000Y-39178000D01*
G75*
G02*
X65904000Y-38953000I0J225000D01*
G01*
X65904000Y-38503000D01*
G75*
G02*
X66129000Y-38278000I225000J0D01*
G01*
X68679000Y-38278000D01*
G75*
G02*
X68904000Y-38503000I0J-225000D01*
G01*
G37*
G36*
G01*
X68904000Y-39773000D02*
X68904000Y-40223000D01*
G75*
G02*
X68679000Y-40448000I-225000J0D01*
G01*
X66129000Y-40448000D01*
G75*
G02*
X65904000Y-40223000I0J225000D01*
G01*
X65904000Y-39773000D01*
G75*
G02*
X66129000Y-39548000I225000J0D01*
G01*
X68679000Y-39548000D01*
G75*
G02*
X68904000Y-39773000I0J-225000D01*
G01*
G37*
G36*
G01*
X68904000Y-41043000D02*
X68904000Y-41493000D01*
G75*
G02*
X68679000Y-41718000I-225000J0D01*
G01*
X66129000Y-41718000D01*
G75*
G02*
X65904000Y-41493000I0J225000D01*
G01*
X65904000Y-41043000D01*
G75*
G02*
X66129000Y-40818000I225000J0D01*
G01*
X68679000Y-40818000D01*
G75*
G02*
X68904000Y-41043000I0J-225000D01*
G01*
G37*
G36*
G01*
X68904000Y-42313000D02*
X68904000Y-42763000D01*
G75*
G02*
X68679000Y-42988000I-225000J0D01*
G01*
X66129000Y-42988000D01*
G75*
G02*
X65904000Y-42763000I0J225000D01*
G01*
X65904000Y-42313000D01*
G75*
G02*
X66129000Y-42088000I225000J0D01*
G01*
X68679000Y-42088000D01*
G75*
G02*
X68904000Y-42313000I0J-225000D01*
G01*
G37*
G36*
G01*
X68904000Y-43583000D02*
X68904000Y-44033000D01*
G75*
G02*
X68679000Y-44258000I-225000J0D01*
G01*
X66129000Y-44258000D01*
G75*
G02*
X65904000Y-44033000I0J225000D01*
G01*
X65904000Y-43583000D01*
G75*
G02*
X66129000Y-43358000I225000J0D01*
G01*
X68679000Y-43358000D01*
G75*
G02*
X68904000Y-43583000I0J-225000D01*
G01*
G37*
G36*
G01*
X68904000Y-44853000D02*
X68904000Y-45303000D01*
G75*
G02*
X68679000Y-45528000I-225000J0D01*
G01*
X66129000Y-45528000D01*
G75*
G02*
X65904000Y-45303000I0J225000D01*
G01*
X65904000Y-44853000D01*
G75*
G02*
X66129000Y-44628000I225000J0D01*
G01*
X68679000Y-44628000D01*
G75*
G02*
X68904000Y-44853000I0J-225000D01*
G01*
G37*
G36*
G01*
X68904000Y-46123000D02*
X68904000Y-46573000D01*
G75*
G02*
X68679000Y-46798000I-225000J0D01*
G01*
X66129000Y-46798000D01*
G75*
G02*
X65904000Y-46573000I0J225000D01*
G01*
X65904000Y-46123000D01*
G75*
G02*
X66129000Y-45898000I225000J0D01*
G01*
X68679000Y-45898000D01*
G75*
G02*
X68904000Y-46123000I0J-225000D01*
G01*
G37*
G36*
G01*
X68904000Y-47393000D02*
X68904000Y-47843000D01*
G75*
G02*
X68679000Y-48068000I-225000J0D01*
G01*
X66129000Y-48068000D01*
G75*
G02*
X65904000Y-47843000I0J225000D01*
G01*
X65904000Y-47393000D01*
G75*
G02*
X66129000Y-47168000I225000J0D01*
G01*
X68679000Y-47168000D01*
G75*
G02*
X68904000Y-47393000I0J-225000D01*
G01*
G37*
G36*
G01*
X68904000Y-48663000D02*
X68904000Y-49113000D01*
G75*
G02*
X68679000Y-49338000I-225000J0D01*
G01*
X66129000Y-49338000D01*
G75*
G02*
X65904000Y-49113000I0J225000D01*
G01*
X65904000Y-48663000D01*
G75*
G02*
X66129000Y-48438000I225000J0D01*
G01*
X68679000Y-48438000D01*
G75*
G02*
X68904000Y-48663000I0J-225000D01*
G01*
G37*
G36*
G01*
X68904000Y-49933000D02*
X68904000Y-50383000D01*
G75*
G02*
X68679000Y-50608000I-225000J0D01*
G01*
X66129000Y-50608000D01*
G75*
G02*
X65904000Y-50383000I0J225000D01*
G01*
X65904000Y-49933000D01*
G75*
G02*
X66129000Y-49708000I225000J0D01*
G01*
X68679000Y-49708000D01*
G75*
G02*
X68904000Y-49933000I0J-225000D01*
G01*
G37*
G36*
G01*
X64344000Y-53158000D02*
X63894000Y-53158000D01*
G75*
G02*
X63669000Y-52933000I0J225000D01*
G01*
X63669000Y-50383000D01*
G75*
G02*
X63894000Y-50158000I225000J0D01*
G01*
X64344000Y-50158000D01*
G75*
G02*
X64569000Y-50383000I0J-225000D01*
G01*
X64569000Y-52933000D01*
G75*
G02*
X64344000Y-53158000I-225000J0D01*
G01*
G37*
G36*
G01*
X63074000Y-53158000D02*
X62624000Y-53158000D01*
G75*
G02*
X62399000Y-52933000I0J225000D01*
G01*
X62399000Y-50383000D01*
G75*
G02*
X62624000Y-50158000I225000J0D01*
G01*
X63074000Y-50158000D01*
G75*
G02*
X63299000Y-50383000I0J-225000D01*
G01*
X63299000Y-52933000D01*
G75*
G02*
X63074000Y-53158000I-225000J0D01*
G01*
G37*
G36*
G01*
X61804000Y-53158000D02*
X61354000Y-53158000D01*
G75*
G02*
X61129000Y-52933000I0J225000D01*
G01*
X61129000Y-50383000D01*
G75*
G02*
X61354000Y-50158000I225000J0D01*
G01*
X61804000Y-50158000D01*
G75*
G02*
X62029000Y-50383000I0J-225000D01*
G01*
X62029000Y-52933000D01*
G75*
G02*
X61804000Y-53158000I-225000J0D01*
G01*
G37*
G36*
G01*
X60534000Y-53158000D02*
X60084000Y-53158000D01*
G75*
G02*
X59859000Y-52933000I0J225000D01*
G01*
X59859000Y-50383000D01*
G75*
G02*
X60084000Y-50158000I225000J0D01*
G01*
X60534000Y-50158000D01*
G75*
G02*
X60759000Y-50383000I0J-225000D01*
G01*
X60759000Y-52933000D01*
G75*
G02*
X60534000Y-53158000I-225000J0D01*
G01*
G37*
G36*
G01*
X59264000Y-53158000D02*
X58814000Y-53158000D01*
G75*
G02*
X58589000Y-52933000I0J225000D01*
G01*
X58589000Y-50383000D01*
G75*
G02*
X58814000Y-50158000I225000J0D01*
G01*
X59264000Y-50158000D01*
G75*
G02*
X59489000Y-50383000I0J-225000D01*
G01*
X59489000Y-52933000D01*
G75*
G02*
X59264000Y-53158000I-225000J0D01*
G01*
G37*
G36*
G01*
X57994000Y-53158000D02*
X57544000Y-53158000D01*
G75*
G02*
X57319000Y-52933000I0J225000D01*
G01*
X57319000Y-50383000D01*
G75*
G02*
X57544000Y-50158000I225000J0D01*
G01*
X57994000Y-50158000D01*
G75*
G02*
X58219000Y-50383000I0J-225000D01*
G01*
X58219000Y-52933000D01*
G75*
G02*
X57994000Y-53158000I-225000J0D01*
G01*
G37*
G36*
G01*
X56724000Y-53158000D02*
X56274000Y-53158000D01*
G75*
G02*
X56049000Y-52933000I0J225000D01*
G01*
X56049000Y-50383000D01*
G75*
G02*
X56274000Y-50158000I225000J0D01*
G01*
X56724000Y-50158000D01*
G75*
G02*
X56949000Y-50383000I0J-225000D01*
G01*
X56949000Y-52933000D01*
G75*
G02*
X56724000Y-53158000I-225000J0D01*
G01*
G37*
G36*
G01*
X55454000Y-53158000D02*
X55004000Y-53158000D01*
G75*
G02*
X54779000Y-52933000I0J225000D01*
G01*
X54779000Y-50383000D01*
G75*
G02*
X55004000Y-50158000I225000J0D01*
G01*
X55454000Y-50158000D01*
G75*
G02*
X55679000Y-50383000I0J-225000D01*
G01*
X55679000Y-52933000D01*
G75*
G02*
X55454000Y-53158000I-225000J0D01*
G01*
G37*
G36*
G01*
X54184000Y-53158000D02*
X53734000Y-53158000D01*
G75*
G02*
X53509000Y-52933000I0J225000D01*
G01*
X53509000Y-50383000D01*
G75*
G02*
X53734000Y-50158000I225000J0D01*
G01*
X54184000Y-50158000D01*
G75*
G02*
X54409000Y-50383000I0J-225000D01*
G01*
X54409000Y-52933000D01*
G75*
G02*
X54184000Y-53158000I-225000J0D01*
G01*
G37*
G36*
G01*
X52914000Y-53158000D02*
X52464000Y-53158000D01*
G75*
G02*
X52239000Y-52933000I0J225000D01*
G01*
X52239000Y-50383000D01*
G75*
G02*
X52464000Y-50158000I225000J0D01*
G01*
X52914000Y-50158000D01*
G75*
G02*
X53139000Y-50383000I0J-225000D01*
G01*
X53139000Y-52933000D01*
G75*
G02*
X52914000Y-53158000I-225000J0D01*
G01*
G37*
G36*
G01*
X47904000Y-50383000D02*
X47904000Y-49933000D01*
G75*
G02*
X48129000Y-49708000I225000J0D01*
G01*
X50679000Y-49708000D01*
G75*
G02*
X50904000Y-49933000I0J-225000D01*
G01*
X50904000Y-50383000D01*
G75*
G02*
X50679000Y-50608000I-225000J0D01*
G01*
X48129000Y-50608000D01*
G75*
G02*
X47904000Y-50383000I0J225000D01*
G01*
G37*
G36*
G01*
X47904000Y-49113000D02*
X47904000Y-48663000D01*
G75*
G02*
X48129000Y-48438000I225000J0D01*
G01*
X50679000Y-48438000D01*
G75*
G02*
X50904000Y-48663000I0J-225000D01*
G01*
X50904000Y-49113000D01*
G75*
G02*
X50679000Y-49338000I-225000J0D01*
G01*
X48129000Y-49338000D01*
G75*
G02*
X47904000Y-49113000I0J225000D01*
G01*
G37*
G36*
G01*
X47904000Y-47843000D02*
X47904000Y-47393000D01*
G75*
G02*
X48129000Y-47168000I225000J0D01*
G01*
X50679000Y-47168000D01*
G75*
G02*
X50904000Y-47393000I0J-225000D01*
G01*
X50904000Y-47843000D01*
G75*
G02*
X50679000Y-48068000I-225000J0D01*
G01*
X48129000Y-48068000D01*
G75*
G02*
X47904000Y-47843000I0J225000D01*
G01*
G37*
G36*
G01*
X47904000Y-46573000D02*
X47904000Y-46123000D01*
G75*
G02*
X48129000Y-45898000I225000J0D01*
G01*
X50679000Y-45898000D01*
G75*
G02*
X50904000Y-46123000I0J-225000D01*
G01*
X50904000Y-46573000D01*
G75*
G02*
X50679000Y-46798000I-225000J0D01*
G01*
X48129000Y-46798000D01*
G75*
G02*
X47904000Y-46573000I0J225000D01*
G01*
G37*
G36*
G01*
X47904000Y-45303000D02*
X47904000Y-44853000D01*
G75*
G02*
X48129000Y-44628000I225000J0D01*
G01*
X50679000Y-44628000D01*
G75*
G02*
X50904000Y-44853000I0J-225000D01*
G01*
X50904000Y-45303000D01*
G75*
G02*
X50679000Y-45528000I-225000J0D01*
G01*
X48129000Y-45528000D01*
G75*
G02*
X47904000Y-45303000I0J225000D01*
G01*
G37*
G36*
G01*
X47904000Y-44033000D02*
X47904000Y-43583000D01*
G75*
G02*
X48129000Y-43358000I225000J0D01*
G01*
X50679000Y-43358000D01*
G75*
G02*
X50904000Y-43583000I0J-225000D01*
G01*
X50904000Y-44033000D01*
G75*
G02*
X50679000Y-44258000I-225000J0D01*
G01*
X48129000Y-44258000D01*
G75*
G02*
X47904000Y-44033000I0J225000D01*
G01*
G37*
G36*
G01*
X47904000Y-42763000D02*
X47904000Y-42313000D01*
G75*
G02*
X48129000Y-42088000I225000J0D01*
G01*
X50679000Y-42088000D01*
G75*
G02*
X50904000Y-42313000I0J-225000D01*
G01*
X50904000Y-42763000D01*
G75*
G02*
X50679000Y-42988000I-225000J0D01*
G01*
X48129000Y-42988000D01*
G75*
G02*
X47904000Y-42763000I0J225000D01*
G01*
G37*
G36*
G01*
X47904000Y-41493000D02*
X47904000Y-41043000D01*
G75*
G02*
X48129000Y-40818000I225000J0D01*
G01*
X50679000Y-40818000D01*
G75*
G02*
X50904000Y-41043000I0J-225000D01*
G01*
X50904000Y-41493000D01*
G75*
G02*
X50679000Y-41718000I-225000J0D01*
G01*
X48129000Y-41718000D01*
G75*
G02*
X47904000Y-41493000I0J225000D01*
G01*
G37*
G36*
G01*
X47904000Y-40223000D02*
X47904000Y-39773000D01*
G75*
G02*
X48129000Y-39548000I225000J0D01*
G01*
X50679000Y-39548000D01*
G75*
G02*
X50904000Y-39773000I0J-225000D01*
G01*
X50904000Y-40223000D01*
G75*
G02*
X50679000Y-40448000I-225000J0D01*
G01*
X48129000Y-40448000D01*
G75*
G02*
X47904000Y-40223000I0J225000D01*
G01*
G37*
G36*
G01*
X47904000Y-38953000D02*
X47904000Y-38503000D01*
G75*
G02*
X48129000Y-38278000I225000J0D01*
G01*
X50679000Y-38278000D01*
G75*
G02*
X50904000Y-38503000I0J-225000D01*
G01*
X50904000Y-38953000D01*
G75*
G02*
X50679000Y-39178000I-225000J0D01*
G01*
X48129000Y-39178000D01*
G75*
G02*
X47904000Y-38953000I0J225000D01*
G01*
G37*
G36*
G01*
X47904000Y-37683000D02*
X47904000Y-37233000D01*
G75*
G02*
X48129000Y-37008000I225000J0D01*
G01*
X50679000Y-37008000D01*
G75*
G02*
X50904000Y-37233000I0J-225000D01*
G01*
X50904000Y-37683000D01*
G75*
G02*
X50679000Y-37908000I-225000J0D01*
G01*
X48129000Y-37908000D01*
G75*
G02*
X47904000Y-37683000I0J225000D01*
G01*
G37*
G36*
G01*
X47904000Y-36413000D02*
X47904000Y-35963000D01*
G75*
G02*
X48129000Y-35738000I225000J0D01*
G01*
X50679000Y-35738000D01*
G75*
G02*
X50904000Y-35963000I0J-225000D01*
G01*
X50904000Y-36413000D01*
G75*
G02*
X50679000Y-36638000I-225000J0D01*
G01*
X48129000Y-36638000D01*
G75*
G02*
X47904000Y-36413000I0J225000D01*
G01*
G37*
G36*
G01*
X47904000Y-35143000D02*
X47904000Y-34693000D01*
G75*
G02*
X48129000Y-34468000I225000J0D01*
G01*
X50679000Y-34468000D01*
G75*
G02*
X50904000Y-34693000I0J-225000D01*
G01*
X50904000Y-35143000D01*
G75*
G02*
X50679000Y-35368000I-225000J0D01*
G01*
X48129000Y-35368000D01*
G75*
G02*
X47904000Y-35143000I0J225000D01*
G01*
G37*
G36*
G01*
X47904000Y-33873000D02*
X47904000Y-33423000D01*
G75*
G02*
X48129000Y-33198000I225000J0D01*
G01*
X50679000Y-33198000D01*
G75*
G02*
X50904000Y-33423000I0J-225000D01*
G01*
X50904000Y-33873000D01*
G75*
G02*
X50679000Y-34098000I-225000J0D01*
G01*
X48129000Y-34098000D01*
G75*
G02*
X47904000Y-33873000I0J225000D01*
G01*
G37*
G36*
G01*
X44312000Y-36306997D02*
X44312000Y-37607003D01*
G75*
G02*
X44062003Y-37857000I-249997J0D01*
G01*
X43236997Y-37857000D01*
G75*
G02*
X42987000Y-37607003I0J249997D01*
G01*
X42987000Y-36306997D01*
G75*
G02*
X43236997Y-36057000I249997J0D01*
G01*
X44062003Y-36057000D01*
G75*
G02*
X44312000Y-36306997I0J-249997D01*
G01*
G37*
G36*
G01*
X47437000Y-36306997D02*
X47437000Y-37607003D01*
G75*
G02*
X47187003Y-37857000I-249997J0D01*
G01*
X46361997Y-37857000D01*
G75*
G02*
X46112000Y-37607003I0J249997D01*
G01*
X46112000Y-36306997D01*
G75*
G02*
X46361997Y-36057000I249997J0D01*
G01*
X47187003Y-36057000D01*
G75*
G02*
X47437000Y-36306997I0J-249997D01*
G01*
G37*
G36*
G01*
X45397000Y-34323000D02*
X45397000Y-35273000D01*
G75*
G02*
X45147000Y-35523000I-250000J0D01*
G01*
X44472000Y-35523000D01*
G75*
G02*
X44222000Y-35273000I0J250000D01*
G01*
X44222000Y-34323000D01*
G75*
G02*
X44472000Y-34073000I250000J0D01*
G01*
X45147000Y-34073000D01*
G75*
G02*
X45397000Y-34323000I0J-250000D01*
G01*
G37*
G36*
G01*
X47472000Y-34323000D02*
X47472000Y-35273000D01*
G75*
G02*
X47222000Y-35523000I-250000J0D01*
G01*
X46547000Y-35523000D01*
G75*
G02*
X46297000Y-35273000I0J250000D01*
G01*
X46297000Y-34323000D01*
G75*
G02*
X46547000Y-34073000I250000J0D01*
G01*
X47222000Y-34073000D01*
G75*
G02*
X47472000Y-34323000I0J-250000D01*
G01*
G37*
D14*
X54977000Y-67658000D03*
X59577000Y-67658000D03*
X57277000Y-67658000D03*
D15*
X57277000Y-60358000D03*
G36*
G01*
X55107000Y-73898997D02*
X55107000Y-75199003D01*
G75*
G02*
X54857003Y-75449000I-249997J0D01*
G01*
X54031997Y-75449000D01*
G75*
G02*
X53782000Y-75199003I0J249997D01*
G01*
X53782000Y-73898997D01*
G75*
G02*
X54031997Y-73649000I249997J0D01*
G01*
X54857003Y-73649000D01*
G75*
G02*
X55107000Y-73898997I0J-249997D01*
G01*
G37*
G36*
G01*
X58232000Y-73898997D02*
X58232000Y-75199003D01*
G75*
G02*
X57982003Y-75449000I-249997J0D01*
G01*
X57156997Y-75449000D01*
G75*
G02*
X56907000Y-75199003I0J249997D01*
G01*
X56907000Y-73898997D01*
G75*
G02*
X57156997Y-73649000I249997J0D01*
G01*
X57982003Y-73649000D01*
G75*
G02*
X58232000Y-73898997I0J-249997D01*
G01*
G37*
G36*
G01*
X55107000Y-71485997D02*
X55107000Y-72786003D01*
G75*
G02*
X54857003Y-73036000I-249997J0D01*
G01*
X54031997Y-73036000D01*
G75*
G02*
X53782000Y-72786003I0J249997D01*
G01*
X53782000Y-71485997D01*
G75*
G02*
X54031997Y-71236000I249997J0D01*
G01*
X54857003Y-71236000D01*
G75*
G02*
X55107000Y-71485997I0J-249997D01*
G01*
G37*
G36*
G01*
X58232000Y-71485997D02*
X58232000Y-72786003D01*
G75*
G02*
X57982003Y-73036000I-249997J0D01*
G01*
X57156997Y-73036000D01*
G75*
G02*
X56907000Y-72786003I0J249997D01*
G01*
X56907000Y-71485997D01*
G75*
G02*
X57156997Y-71236000I249997J0D01*
G01*
X57982003Y-71236000D01*
G75*
G02*
X58232000Y-71485997I0J-249997D01*
G01*
G37*
G36*
G01*
X55684000Y-69502000D02*
X55684000Y-70452000D01*
G75*
G02*
X55434000Y-70702000I-250000J0D01*
G01*
X54759000Y-70702000D01*
G75*
G02*
X54509000Y-70452000I0J250000D01*
G01*
X54509000Y-69502000D01*
G75*
G02*
X54759000Y-69252000I250000J0D01*
G01*
X55434000Y-69252000D01*
G75*
G02*
X55684000Y-69502000I0J-250000D01*
G01*
G37*
G36*
G01*
X57759000Y-69502000D02*
X57759000Y-70452000D01*
G75*
G02*
X57509000Y-70702000I-250000J0D01*
G01*
X56834000Y-70702000D01*
G75*
G02*
X56584000Y-70452000I0J250000D01*
G01*
X56584000Y-69502000D01*
G75*
G02*
X56834000Y-69252000I250000J0D01*
G01*
X57509000Y-69252000D01*
G75*
G02*
X57759000Y-69502000I0J-250000D01*
G01*
G37*
G36*
G01*
X61987000Y-70881003D02*
X61987000Y-69580997D01*
G75*
G02*
X62236997Y-69331000I249997J0D01*
G01*
X63062003Y-69331000D01*
G75*
G02*
X63312000Y-69580997I0J-249997D01*
G01*
X63312000Y-70881003D01*
G75*
G02*
X63062003Y-71131000I-249997J0D01*
G01*
X62236997Y-71131000D01*
G75*
G02*
X61987000Y-70881003I0J249997D01*
G01*
G37*
G36*
G01*
X58862000Y-70881003D02*
X58862000Y-69580997D01*
G75*
G02*
X59111997Y-69331000I249997J0D01*
G01*
X59937003Y-69331000D01*
G75*
G02*
X60187000Y-69580997I0J-249997D01*
G01*
X60187000Y-70881003D01*
G75*
G02*
X59937003Y-71131000I-249997J0D01*
G01*
X59111997Y-71131000D01*
G75*
G02*
X58862000Y-70881003I0J249997D01*
G01*
G37*
G36*
G01*
X52865000Y-85286000D02*
X53815000Y-85286000D01*
G75*
G02*
X54065000Y-85536000I0J-250000D01*
G01*
X54065000Y-86211000D01*
G75*
G02*
X53815000Y-86461000I-250000J0D01*
G01*
X52865000Y-86461000D01*
G75*
G02*
X52615000Y-86211000I0J250000D01*
G01*
X52615000Y-85536000D01*
G75*
G02*
X52865000Y-85286000I250000J0D01*
G01*
G37*
G36*
G01*
X52865000Y-83211000D02*
X53815000Y-83211000D01*
G75*
G02*
X54065000Y-83461000I0J-250000D01*
G01*
X54065000Y-84136000D01*
G75*
G02*
X53815000Y-84386000I-250000J0D01*
G01*
X52865000Y-84386000D01*
G75*
G02*
X52615000Y-84136000I0J250000D01*
G01*
X52615000Y-83461000D01*
G75*
G02*
X52865000Y-83211000I250000J0D01*
G01*
G37*
G36*
G01*
X35442999Y-93737000D02*
X36693001Y-93737000D01*
G75*
G02*
X36943000Y-93986999I0J-249999D01*
G01*
X36943000Y-94787001D01*
G75*
G02*
X36693001Y-95037000I-249999J0D01*
G01*
X35442999Y-95037000D01*
G75*
G02*
X35193000Y-94787001I0J249999D01*
G01*
X35193000Y-93986999D01*
G75*
G02*
X35442999Y-93737000I249999J0D01*
G01*
G37*
G36*
G01*
X35442999Y-90637000D02*
X36693001Y-90637000D01*
G75*
G02*
X36943000Y-90886999I0J-249999D01*
G01*
X36943000Y-91687001D01*
G75*
G02*
X36693001Y-91937000I-249999J0D01*
G01*
X35442999Y-91937000D01*
G75*
G02*
X35193000Y-91687001I0J249999D01*
G01*
X35193000Y-90886999D01*
G75*
G02*
X35442999Y-90637000I249999J0D01*
G01*
G37*
G36*
G01*
X63557999Y-88995200D02*
X64458001Y-88995200D01*
G75*
G02*
X64708000Y-89245199I0J-249999D01*
G01*
X64708000Y-89945201D01*
G75*
G02*
X64458001Y-90195200I-249999J0D01*
G01*
X63557999Y-90195200D01*
G75*
G02*
X63308000Y-89945201I0J249999D01*
G01*
X63308000Y-89245199D01*
G75*
G02*
X63557999Y-88995200I249999J0D01*
G01*
G37*
G36*
G01*
X63557999Y-86995200D02*
X64458001Y-86995200D01*
G75*
G02*
X64708000Y-87245199I0J-249999D01*
G01*
X64708000Y-87945201D01*
G75*
G02*
X64458001Y-88195200I-249999J0D01*
G01*
X63557999Y-88195200D01*
G75*
G02*
X63308000Y-87945201I0J249999D01*
G01*
X63308000Y-87245199D01*
G75*
G02*
X63557999Y-86995200I249999J0D01*
G01*
G37*
D16*
X59345200Y-96520000D03*
X54345200Y-96520000D03*
G36*
G01*
X36718003Y-97017000D02*
X35417997Y-97017000D01*
G75*
G02*
X35168000Y-96767003I0J249997D01*
G01*
X35168000Y-95941997D01*
G75*
G02*
X35417997Y-95692000I249997J0D01*
G01*
X36718003Y-95692000D01*
G75*
G02*
X36968000Y-95941997I0J-249997D01*
G01*
X36968000Y-96767003D01*
G75*
G02*
X36718003Y-97017000I-249997J0D01*
G01*
G37*
G36*
G01*
X36718003Y-100142000D02*
X35417997Y-100142000D01*
G75*
G02*
X35168000Y-99892003I0J249997D01*
G01*
X35168000Y-99066997D01*
G75*
G02*
X35417997Y-98817000I249997J0D01*
G01*
X36718003Y-98817000D01*
G75*
G02*
X36968000Y-99066997I0J-249997D01*
G01*
X36968000Y-99892003D01*
G75*
G02*
X36718003Y-100142000I-249997J0D01*
G01*
G37*
G36*
G01*
X53815000Y-88246800D02*
X52865000Y-88246800D01*
G75*
G02*
X52615000Y-87996800I0J250000D01*
G01*
X52615000Y-87321800D01*
G75*
G02*
X52865000Y-87071800I250000J0D01*
G01*
X53815000Y-87071800D01*
G75*
G02*
X54065000Y-87321800I0J-250000D01*
G01*
X54065000Y-87996800D01*
G75*
G02*
X53815000Y-88246800I-250000J0D01*
G01*
G37*
G36*
G01*
X53815000Y-90321800D02*
X52865000Y-90321800D01*
G75*
G02*
X52615000Y-90071800I0J250000D01*
G01*
X52615000Y-89396800D01*
G75*
G02*
X52865000Y-89146800I250000J0D01*
G01*
X53815000Y-89146800D01*
G75*
G02*
X54065000Y-89396800I0J-250000D01*
G01*
X54065000Y-90071800D01*
G75*
G02*
X53815000Y-90321800I-250000J0D01*
G01*
G37*
G36*
G01*
X59508400Y-91005998D02*
X59508400Y-93906002D01*
G75*
G02*
X59258402Y-94156000I-249998J0D01*
G01*
X58183398Y-94156000D01*
G75*
G02*
X57933400Y-93906002I0J249998D01*
G01*
X57933400Y-91005998D01*
G75*
G02*
X58183398Y-90756000I249998J0D01*
G01*
X59258402Y-90756000D01*
G75*
G02*
X59508400Y-91005998I0J-249998D01*
G01*
G37*
G36*
G01*
X63783400Y-91005998D02*
X63783400Y-93906002D01*
G75*
G02*
X63533402Y-94156000I-249998J0D01*
G01*
X62458398Y-94156000D01*
G75*
G02*
X62208400Y-93906002I0J249998D01*
G01*
X62208400Y-91005998D01*
G75*
G02*
X62458398Y-90756000I249998J0D01*
G01*
X63533402Y-90756000D01*
G75*
G02*
X63783400Y-91005998I0J-249998D01*
G01*
G37*
G36*
G01*
X68506002Y-84298800D02*
X65605998Y-84298800D01*
G75*
G02*
X65356000Y-84048802I0J249998D01*
G01*
X65356000Y-82973798D01*
G75*
G02*
X65605998Y-82723800I249998J0D01*
G01*
X68506002Y-82723800D01*
G75*
G02*
X68756000Y-82973798I0J-249998D01*
G01*
X68756000Y-84048802D01*
G75*
G02*
X68506002Y-84298800I-249998J0D01*
G01*
G37*
G36*
G01*
X68506002Y-88573800D02*
X65605998Y-88573800D01*
G75*
G02*
X65356000Y-88323802I0J249998D01*
G01*
X65356000Y-87248798D01*
G75*
G02*
X65605998Y-86998800I249998J0D01*
G01*
X68506002Y-86998800D01*
G75*
G02*
X68756000Y-87248798I0J-249998D01*
G01*
X68756000Y-88323802D01*
G75*
G02*
X68506002Y-88573800I-249998J0D01*
G01*
G37*
M02*
