G04 #@! TF.GenerationSoftware,KiCad,Pcbnew,(5.1.8)-1*
G04 #@! TF.CreationDate,2021-07-21T13:46:02+02:00*
G04 #@! TF.ProjectId,sensactOutdoor,73656e73-6163-4744-9f75-74646f6f722e,rev?*
G04 #@! TF.SameCoordinates,Original*
G04 #@! TF.FileFunction,Soldermask,Bot*
G04 #@! TF.FilePolarity,Negative*
%FSLAX46Y46*%
G04 Gerber Fmt 4.6, Leading zero omitted, Abs format (unit mm)*
G04 Created by KiCad (PCBNEW (5.1.8)-1) date 2021-07-21 13:46:02*
%MOMM*%
%LPD*%
G01*
G04 APERTURE LIST*
%ADD10C,1.600000*%
%ADD11R,1.600000X1.600000*%
%ADD12O,1.700000X1.700000*%
%ADD13R,1.700000X1.700000*%
%ADD14R,1.200000X1.600000*%
%ADD15R,1.600000X1.200000*%
%ADD16R,5.000000X5.000000*%
%ADD17O,3.600000X2.080000*%
%ADD18O,3.600000X1.800000*%
%ADD19O,1.000000X1.000000*%
%ADD20R,1.000000X1.000000*%
%ADD21C,2.500000*%
%ADD22R,2.500000X2.000000*%
%ADD23R,2.300000X1.500000*%
%ADD24O,1.905000X2.000000*%
%ADD25R,1.905000X2.000000*%
%ADD26O,2.000000X1.500000*%
%ADD27C,2.000000*%
%ADD28C,1.524000*%
%ADD29R,1.524000X1.524000*%
%ADD30C,1.650000*%
%ADD31R,1.900000X0.800000*%
%ADD32R,0.800000X1.900000*%
%ADD33O,1.950000X1.700000*%
%ADD34C,1.800000*%
%ADD35O,1.600000X2.000000*%
%ADD36R,3.500000X1.800000*%
%ADD37C,3.200000*%
%ADD38O,3.600000X2.100000*%
%ADD39C,0.100000*%
%ADD40R,1.800000X1.800000*%
G04 APERTURE END LIST*
D10*
X69723000Y-99893000D03*
D11*
X69723000Y-96393000D03*
D12*
X79184500Y-67373500D03*
D13*
X79184500Y-69913500D03*
G36*
G01*
X90100999Y-57169000D02*
X91001001Y-57169000D01*
G75*
G02*
X91251000Y-57418999I0J-249999D01*
G01*
X91251000Y-58119001D01*
G75*
G02*
X91001001Y-58369000I-249999J0D01*
G01*
X90100999Y-58369000D01*
G75*
G02*
X89851000Y-58119001I0J249999D01*
G01*
X89851000Y-57418999D01*
G75*
G02*
X90100999Y-57169000I249999J0D01*
G01*
G37*
G36*
G01*
X90100999Y-55169000D02*
X91001001Y-55169000D01*
G75*
G02*
X91251000Y-55418999I0J-249999D01*
G01*
X91251000Y-56119001D01*
G75*
G02*
X91001001Y-56369000I-249999J0D01*
G01*
X90100999Y-56369000D01*
G75*
G02*
X89851000Y-56119001I0J249999D01*
G01*
X89851000Y-55418999D01*
G75*
G02*
X90100999Y-55169000I249999J0D01*
G01*
G37*
D14*
X93218000Y-66580000D03*
X93218000Y-70580000D03*
X93218000Y-57055000D03*
X93218000Y-61055000D03*
X92964000Y-49054000D03*
X92964000Y-53054000D03*
X92964000Y-47212000D03*
X92964000Y-43212000D03*
D15*
X91091000Y-33020000D03*
X95091000Y-33020000D03*
D14*
X93218000Y-23146000D03*
X93218000Y-27146000D03*
D16*
X57404000Y-41148000D03*
D12*
X81407000Y-58547000D03*
X81407000Y-56007000D03*
X81407000Y-53467000D03*
X81407000Y-50927000D03*
X81407000Y-48387000D03*
X81407000Y-45847000D03*
D13*
X81407000Y-43307000D03*
G36*
G01*
X31374999Y-73150000D02*
X32625001Y-73150000D01*
G75*
G02*
X32875000Y-73399999I0J-249999D01*
G01*
X32875000Y-74200001D01*
G75*
G02*
X32625001Y-74450000I-249999J0D01*
G01*
X31374999Y-74450000D01*
G75*
G02*
X31125000Y-74200001I0J249999D01*
G01*
X31125000Y-73399999D01*
G75*
G02*
X31374999Y-73150000I249999J0D01*
G01*
G37*
G36*
G01*
X31374999Y-70050000D02*
X32625001Y-70050000D01*
G75*
G02*
X32875000Y-70299999I0J-249999D01*
G01*
X32875000Y-71100001D01*
G75*
G02*
X32625001Y-71350000I-249999J0D01*
G01*
X31374999Y-71350000D01*
G75*
G02*
X31125000Y-71100001I0J249999D01*
G01*
X31125000Y-70299999D01*
G75*
G02*
X31374999Y-70050000I249999J0D01*
G01*
G37*
D17*
X29718000Y-93472000D03*
G36*
G01*
X31268001Y-99592000D02*
X28167999Y-99592000D01*
G75*
G02*
X27918000Y-99342001I0J249999D01*
G01*
X27918000Y-97761999D01*
G75*
G02*
X28167999Y-97512000I249999J0D01*
G01*
X31268001Y-97512000D01*
G75*
G02*
X31518000Y-97761999I0J-249999D01*
G01*
X31518000Y-99342001D01*
G75*
G02*
X31268001Y-99592000I-249999J0D01*
G01*
G37*
X29718000Y-80645000D03*
G36*
G01*
X31268001Y-86765000D02*
X28167999Y-86765000D01*
G75*
G02*
X27918000Y-86515001I0J249999D01*
G01*
X27918000Y-84934999D01*
G75*
G02*
X28167999Y-84685000I249999J0D01*
G01*
X31268001Y-84685000D01*
G75*
G02*
X31518000Y-84934999I0J-249999D01*
G01*
X31518000Y-86515001D01*
G75*
G02*
X31268001Y-86765000I-249999J0D01*
G01*
G37*
X28829000Y-38735000D03*
G36*
G01*
X27278999Y-32615000D02*
X30379001Y-32615000D01*
G75*
G02*
X30629000Y-32864999I0J-249999D01*
G01*
X30629000Y-34445001D01*
G75*
G02*
X30379001Y-34695000I-249999J0D01*
G01*
X27278999Y-34695000D01*
G75*
G02*
X27029000Y-34445001I0J249999D01*
G01*
X27029000Y-32864999D01*
G75*
G02*
X27278999Y-32615000I249999J0D01*
G01*
G37*
D18*
X28448000Y-28011000D03*
G36*
G01*
X26898000Y-23611000D02*
X29998000Y-23611000D01*
G75*
G02*
X30248000Y-23861000I0J-250000D01*
G01*
X30248000Y-25161000D01*
G75*
G02*
X29998000Y-25411000I-250000J0D01*
G01*
X26898000Y-25411000D01*
G75*
G02*
X26648000Y-25161000I0J250000D01*
G01*
X26648000Y-23861000D01*
G75*
G02*
X26898000Y-23611000I250000J0D01*
G01*
G37*
D19*
X79629000Y-34798000D03*
X78359000Y-34798000D03*
X79629000Y-33528000D03*
X78359000Y-33528000D03*
X79629000Y-32258000D03*
D20*
X78359000Y-32258000D03*
D21*
X79212000Y-74566000D03*
X79212000Y-92566000D03*
X112812000Y-80566000D03*
D22*
X112812000Y-86566000D03*
D23*
X77423000Y-84328000D03*
X77423000Y-86868000D03*
X87423000Y-86868000D03*
X87423000Y-84328000D03*
G36*
G01*
X88957999Y-86039000D02*
X89858001Y-86039000D01*
G75*
G02*
X90108000Y-86288999I0J-249999D01*
G01*
X90108000Y-86939001D01*
G75*
G02*
X89858001Y-87189000I-249999J0D01*
G01*
X88957999Y-87189000D01*
G75*
G02*
X88708000Y-86939001I0J249999D01*
G01*
X88708000Y-86288999D01*
G75*
G02*
X88957999Y-86039000I249999J0D01*
G01*
G37*
G36*
G01*
X88957999Y-83989000D02*
X89858001Y-83989000D01*
G75*
G02*
X90108000Y-84238999I0J-249999D01*
G01*
X90108000Y-84889001D01*
G75*
G02*
X89858001Y-85139000I-249999J0D01*
G01*
X88957999Y-85139000D01*
G75*
G02*
X88708000Y-84889001I0J249999D01*
G01*
X88708000Y-84238999D01*
G75*
G02*
X88957999Y-83989000I249999J0D01*
G01*
G37*
G36*
G01*
X29708001Y-88698500D02*
X28457999Y-88698500D01*
G75*
G02*
X28208000Y-88448501I0J249999D01*
G01*
X28208000Y-87648499D01*
G75*
G02*
X28457999Y-87398500I249999J0D01*
G01*
X29708001Y-87398500D01*
G75*
G02*
X29958000Y-87648499I0J-249999D01*
G01*
X29958000Y-88448501D01*
G75*
G02*
X29708001Y-88698500I-249999J0D01*
G01*
G37*
G36*
G01*
X29708001Y-91798500D02*
X28457999Y-91798500D01*
G75*
G02*
X28208000Y-91548501I0J249999D01*
G01*
X28208000Y-90748499D01*
G75*
G02*
X28457999Y-90498500I249999J0D01*
G01*
X29708001Y-90498500D01*
G75*
G02*
X29958000Y-90748499I0J-249999D01*
G01*
X29958000Y-91548501D01*
G75*
G02*
X29708001Y-91798500I-249999J0D01*
G01*
G37*
G36*
G01*
X34925001Y-89900000D02*
X32074999Y-89900000D01*
G75*
G02*
X31825000Y-89650001I0J249999D01*
G01*
X31825000Y-88749999D01*
G75*
G02*
X32074999Y-88500000I249999J0D01*
G01*
X34925001Y-88500000D01*
G75*
G02*
X35175000Y-88749999I0J-249999D01*
G01*
X35175000Y-89650001D01*
G75*
G02*
X34925001Y-89900000I-249999J0D01*
G01*
G37*
G36*
G01*
X34925001Y-96000000D02*
X32074999Y-96000000D01*
G75*
G02*
X31825000Y-95750001I0J249999D01*
G01*
X31825000Y-94849999D01*
G75*
G02*
X32074999Y-94600000I249999J0D01*
G01*
X34925001Y-94600000D01*
G75*
G02*
X35175000Y-94849999I0J-249999D01*
G01*
X35175000Y-95750001D01*
G75*
G02*
X34925001Y-96000000I-249999J0D01*
G01*
G37*
D24*
X38163500Y-28702000D03*
X40703500Y-28702000D03*
D25*
X43243500Y-28702000D03*
D26*
X39751000Y-72517000D03*
X39751000Y-74957000D03*
X39751000Y-77697000D03*
X39751000Y-80137000D03*
G36*
G01*
X71062001Y-44304000D02*
X70161999Y-44304000D01*
G75*
G02*
X69912000Y-44054001I0J249999D01*
G01*
X69912000Y-43353999D01*
G75*
G02*
X70161999Y-43104000I249999J0D01*
G01*
X71062001Y-43104000D01*
G75*
G02*
X71312000Y-43353999I0J-249999D01*
G01*
X71312000Y-44054001D01*
G75*
G02*
X71062001Y-44304000I-249999J0D01*
G01*
G37*
G36*
G01*
X71062001Y-46304000D02*
X70161999Y-46304000D01*
G75*
G02*
X69912000Y-46054001I0J249999D01*
G01*
X69912000Y-45353999D01*
G75*
G02*
X70161999Y-45104000I249999J0D01*
G01*
X71062001Y-45104000D01*
G75*
G02*
X71312000Y-45353999I0J-249999D01*
G01*
X71312000Y-46054001D01*
G75*
G02*
X71062001Y-46304000I-249999J0D01*
G01*
G37*
D27*
X62348000Y-99760000D03*
X45348000Y-99760000D03*
X45348000Y-60260000D03*
X62348000Y-60260000D03*
D28*
X47879000Y-65532000D03*
X50419000Y-65532000D03*
X47879000Y-68072000D03*
X50419000Y-68072000D03*
X47879000Y-70612000D03*
X50419000Y-70612000D03*
X47879000Y-73152000D03*
D29*
X50419000Y-73152000D03*
D30*
X113750000Y-62739000D03*
X106750000Y-62739000D03*
X95250000Y-58039000D03*
X95250000Y-62739000D03*
G36*
G01*
X47228997Y-77481000D02*
X48529003Y-77481000D01*
G75*
G02*
X48779000Y-77730997I0J-249997D01*
G01*
X48779000Y-78556003D01*
G75*
G02*
X48529003Y-78806000I-249997J0D01*
G01*
X47228997Y-78806000D01*
G75*
G02*
X46979000Y-78556003I0J249997D01*
G01*
X46979000Y-77730997D01*
G75*
G02*
X47228997Y-77481000I249997J0D01*
G01*
G37*
G36*
G01*
X47228997Y-74356000D02*
X48529003Y-74356000D01*
G75*
G02*
X48779000Y-74605997I0J-249997D01*
G01*
X48779000Y-75431003D01*
G75*
G02*
X48529003Y-75681000I-249997J0D01*
G01*
X47228997Y-75681000D01*
G75*
G02*
X46979000Y-75431003I0J249997D01*
G01*
X46979000Y-74605997D01*
G75*
G02*
X47228997Y-74356000I249997J0D01*
G01*
G37*
D18*
X28448000Y-71333000D03*
X28448000Y-67833000D03*
X28448000Y-64333000D03*
G36*
G01*
X26898000Y-59933000D02*
X29998000Y-59933000D01*
G75*
G02*
X30248000Y-60183000I0J-250000D01*
G01*
X30248000Y-61483000D01*
G75*
G02*
X29998000Y-61733000I-250000J0D01*
G01*
X26898000Y-61733000D01*
G75*
G02*
X26648000Y-61483000I0J250000D01*
G01*
X26648000Y-60183000D01*
G75*
G02*
X26898000Y-59933000I250000J0D01*
G01*
G37*
D27*
X91015500Y-59809500D03*
X85915500Y-63309500D03*
G36*
G01*
X90415500Y-65809500D02*
X91415500Y-65809500D01*
G75*
G02*
X91915500Y-66309500I0J-500000D01*
G01*
X91915500Y-67309500D01*
G75*
G02*
X91415500Y-67809500I-500000J0D01*
G01*
X90415500Y-67809500D01*
G75*
G02*
X89915500Y-67309500I0J500000D01*
G01*
X89915500Y-66309500D01*
G75*
G02*
X90415500Y-65809500I500000J0D01*
G01*
G37*
D31*
X35306000Y-64516000D03*
X32306000Y-63566000D03*
X32306000Y-65466000D03*
G36*
G01*
X36433997Y-74179000D02*
X37734003Y-74179000D01*
G75*
G02*
X37984000Y-74428997I0J-249997D01*
G01*
X37984000Y-75254003D01*
G75*
G02*
X37734003Y-75504000I-249997J0D01*
G01*
X36433997Y-75504000D01*
G75*
G02*
X36184000Y-75254003I0J249997D01*
G01*
X36184000Y-74428997D01*
G75*
G02*
X36433997Y-74179000I249997J0D01*
G01*
G37*
G36*
G01*
X36433997Y-71054000D02*
X37734003Y-71054000D01*
G75*
G02*
X37984000Y-71303997I0J-249997D01*
G01*
X37984000Y-72129003D01*
G75*
G02*
X37734003Y-72379000I-249997J0D01*
G01*
X36433997Y-72379000D01*
G75*
G02*
X36184000Y-72129003I0J249997D01*
G01*
X36184000Y-71303997D01*
G75*
G02*
X36433997Y-71054000I249997J0D01*
G01*
G37*
D32*
X87630000Y-61952000D03*
X88580000Y-58952000D03*
X86680000Y-58952000D03*
D33*
X83566000Y-53307000D03*
X83566000Y-50807000D03*
X83566000Y-48307000D03*
X83566000Y-45807000D03*
G36*
G01*
X82841000Y-42457000D02*
X84291000Y-42457000D01*
G75*
G02*
X84541000Y-42707000I0J-250000D01*
G01*
X84541000Y-43907000D01*
G75*
G02*
X84291000Y-44157000I-250000J0D01*
G01*
X82841000Y-44157000D01*
G75*
G02*
X82591000Y-43907000I0J250000D01*
G01*
X82591000Y-42707000D01*
G75*
G02*
X82841000Y-42457000I250000J0D01*
G01*
G37*
G36*
G01*
X43780000Y-37268999D02*
X43780000Y-38169001D01*
G75*
G02*
X43530001Y-38419000I-249999J0D01*
G01*
X42829999Y-38419000D01*
G75*
G02*
X42580000Y-38169001I0J249999D01*
G01*
X42580000Y-37268999D01*
G75*
G02*
X42829999Y-37019000I249999J0D01*
G01*
X43530001Y-37019000D01*
G75*
G02*
X43780000Y-37268999I0J-249999D01*
G01*
G37*
G36*
G01*
X45780000Y-37268999D02*
X45780000Y-38169001D01*
G75*
G02*
X45530001Y-38419000I-249999J0D01*
G01*
X44829999Y-38419000D01*
G75*
G02*
X44580000Y-38169001I0J249999D01*
G01*
X44580000Y-37268999D01*
G75*
G02*
X44829999Y-37019000I249999J0D01*
G01*
X45530001Y-37019000D01*
G75*
G02*
X45780000Y-37268999I0J-249999D01*
G01*
G37*
D30*
X113750000Y-43053000D03*
X106750000Y-43053000D03*
X95250000Y-38353000D03*
X95250000Y-43053000D03*
D34*
X107957000Y-99698000D03*
X100457000Y-98298000D03*
D35*
X29337000Y-76200000D03*
X26837000Y-76200000D03*
X31837000Y-76200000D03*
D30*
X113750000Y-70358000D03*
X106750000Y-70358000D03*
X95250000Y-65658000D03*
X95250000Y-70358000D03*
D31*
X90781000Y-27559000D03*
X87781000Y-26609000D03*
X87781000Y-28509000D03*
D27*
X85075000Y-30400000D03*
X88575000Y-35500000D03*
G36*
G01*
X91075000Y-31000000D02*
X91075000Y-30000000D01*
G75*
G02*
X91575000Y-29500000I500000J0D01*
G01*
X92575000Y-29500000D01*
G75*
G02*
X93075000Y-30000000I0J-500000D01*
G01*
X93075000Y-31000000D01*
G75*
G02*
X92575000Y-31500000I-500000J0D01*
G01*
X91575000Y-31500000D01*
G75*
G02*
X91075000Y-31000000I0J500000D01*
G01*
G37*
X74295000Y-73518000D03*
X69195000Y-77018000D03*
G36*
G01*
X73695000Y-79518000D02*
X74695000Y-79518000D01*
G75*
G02*
X75195000Y-80018000I0J-500000D01*
G01*
X75195000Y-81018000D01*
G75*
G02*
X74695000Y-81518000I-500000J0D01*
G01*
X73695000Y-81518000D01*
G75*
G02*
X73195000Y-81018000I0J500000D01*
G01*
X73195000Y-80018000D01*
G75*
G02*
X73695000Y-79518000I500000J0D01*
G01*
G37*
D30*
X113750000Y-55118000D03*
X106750000Y-55118000D03*
X95250000Y-50418000D03*
X95250000Y-55118000D03*
X113750000Y-35433000D03*
X106750000Y-35433000D03*
X95250000Y-30733000D03*
X95250000Y-35433000D03*
X113750000Y-27813000D03*
X106750000Y-27813000D03*
X95250000Y-23113000D03*
X95250000Y-27813000D03*
G36*
G01*
X92520000Y-93119001D02*
X92520000Y-90268999D01*
G75*
G02*
X92769999Y-90019000I249999J0D01*
G01*
X93670001Y-90019000D01*
G75*
G02*
X93920000Y-90268999I0J-249999D01*
G01*
X93920000Y-93119001D01*
G75*
G02*
X93670001Y-93369000I-249999J0D01*
G01*
X92769999Y-93369000D01*
G75*
G02*
X92520000Y-93119001I0J249999D01*
G01*
G37*
G36*
G01*
X86420000Y-93119001D02*
X86420000Y-90268999D01*
G75*
G02*
X86669999Y-90019000I249999J0D01*
G01*
X87570001Y-90019000D01*
G75*
G02*
X87820000Y-90268999I0J-249999D01*
G01*
X87820000Y-93119001D01*
G75*
G02*
X87570001Y-93369000I-249999J0D01*
G01*
X86669999Y-93369000D01*
G75*
G02*
X86420000Y-93119001I0J249999D01*
G01*
G37*
G36*
G01*
X70974000Y-70415999D02*
X70974000Y-71316001D01*
G75*
G02*
X70724001Y-71566000I-249999J0D01*
G01*
X70023999Y-71566000D01*
G75*
G02*
X69774000Y-71316001I0J249999D01*
G01*
X69774000Y-70415999D01*
G75*
G02*
X70023999Y-70166000I249999J0D01*
G01*
X70724001Y-70166000D01*
G75*
G02*
X70974000Y-70415999I0J-249999D01*
G01*
G37*
G36*
G01*
X72974000Y-70415999D02*
X72974000Y-71316001D01*
G75*
G02*
X72724001Y-71566000I-249999J0D01*
G01*
X72023999Y-71566000D01*
G75*
G02*
X71774000Y-71316001I0J249999D01*
G01*
X71774000Y-70415999D01*
G75*
G02*
X72023999Y-70166000I249999J0D01*
G01*
X72724001Y-70166000D01*
G75*
G02*
X72974000Y-70415999I0J-249999D01*
G01*
G37*
G36*
G01*
X98616000Y-89055001D02*
X98616000Y-86204999D01*
G75*
G02*
X98865999Y-85955000I249999J0D01*
G01*
X99766001Y-85955000D01*
G75*
G02*
X100016000Y-86204999I0J-249999D01*
G01*
X100016000Y-89055001D01*
G75*
G02*
X99766001Y-89305000I-249999J0D01*
G01*
X98865999Y-89305000D01*
G75*
G02*
X98616000Y-89055001I0J249999D01*
G01*
G37*
G36*
G01*
X92516000Y-89055001D02*
X92516000Y-86204999D01*
G75*
G02*
X92765999Y-85955000I249999J0D01*
G01*
X93666001Y-85955000D01*
G75*
G02*
X93916000Y-86204999I0J-249999D01*
G01*
X93916000Y-89055001D01*
G75*
G02*
X93666001Y-89305000I-249999J0D01*
G01*
X92765999Y-89305000D01*
G75*
G02*
X92516000Y-89055001I0J249999D01*
G01*
G37*
G36*
G01*
X103569000Y-80165001D02*
X103569000Y-77314999D01*
G75*
G02*
X103818999Y-77065000I249999J0D01*
G01*
X104719001Y-77065000D01*
G75*
G02*
X104969000Y-77314999I0J-249999D01*
G01*
X104969000Y-80165001D01*
G75*
G02*
X104719001Y-80415000I-249999J0D01*
G01*
X103818999Y-80415000D01*
G75*
G02*
X103569000Y-80165001I0J249999D01*
G01*
G37*
G36*
G01*
X97469000Y-80165001D02*
X97469000Y-77314999D01*
G75*
G02*
X97718999Y-77065000I249999J0D01*
G01*
X98619001Y-77065000D01*
G75*
G02*
X98869000Y-77314999I0J-249999D01*
G01*
X98869000Y-80165001D01*
G75*
G02*
X98619001Y-80415000I-249999J0D01*
G01*
X97718999Y-80415000D01*
G75*
G02*
X97469000Y-80165001I0J249999D01*
G01*
G37*
G36*
G01*
X95441000Y-80165001D02*
X95441000Y-77314999D01*
G75*
G02*
X95690999Y-77065000I249999J0D01*
G01*
X96591001Y-77065000D01*
G75*
G02*
X96841000Y-77314999I0J-249999D01*
G01*
X96841000Y-80165001D01*
G75*
G02*
X96591001Y-80415000I-249999J0D01*
G01*
X95690999Y-80415000D01*
G75*
G02*
X95441000Y-80165001I0J249999D01*
G01*
G37*
G36*
G01*
X89341000Y-80165001D02*
X89341000Y-77314999D01*
G75*
G02*
X89590999Y-77065000I249999J0D01*
G01*
X90491001Y-77065000D01*
G75*
G02*
X90741000Y-77314999I0J-249999D01*
G01*
X90741000Y-80165001D01*
G75*
G02*
X90491001Y-80415000I-249999J0D01*
G01*
X89590999Y-80415000D01*
G75*
G02*
X89341000Y-80165001I0J249999D01*
G01*
G37*
D10*
X86741000Y-98298000D03*
X96741000Y-98298000D03*
G36*
G01*
X70681001Y-67545000D02*
X69780999Y-67545000D01*
G75*
G02*
X69531000Y-67295001I0J249999D01*
G01*
X69531000Y-66594999D01*
G75*
G02*
X69780999Y-66345000I249999J0D01*
G01*
X70681001Y-66345000D01*
G75*
G02*
X70931000Y-66594999I0J-249999D01*
G01*
X70931000Y-67295001D01*
G75*
G02*
X70681001Y-67545000I-249999J0D01*
G01*
G37*
G36*
G01*
X70681001Y-69545000D02*
X69780999Y-69545000D01*
G75*
G02*
X69531000Y-69295001I0J249999D01*
G01*
X69531000Y-68594999D01*
G75*
G02*
X69780999Y-68345000I249999J0D01*
G01*
X70681001Y-68345000D01*
G75*
G02*
X70931000Y-68594999I0J-249999D01*
G01*
X70931000Y-69295001D01*
G75*
G02*
X70681001Y-69545000I-249999J0D01*
G01*
G37*
D36*
X92416000Y-40767000D03*
X87416000Y-40767000D03*
D27*
X122936000Y-97790000D03*
X117856000Y-97790000D03*
D12*
X55626000Y-54356000D03*
X53086000Y-54356000D03*
X50546000Y-54356000D03*
D13*
X48006000Y-54356000D03*
D27*
X62865000Y-80264000D03*
D37*
X119761000Y-50038000D03*
D38*
X119634000Y-88773000D03*
G36*
G01*
X118083999Y-80103000D02*
X121184001Y-80103000D01*
G75*
G02*
X121434000Y-80352999I0J-249999D01*
G01*
X121434000Y-81953001D01*
G75*
G02*
X121184001Y-82203000I-249999J0D01*
G01*
X118083999Y-82203000D01*
G75*
G02*
X117834000Y-81953001I0J249999D01*
G01*
X117834000Y-80352999D01*
G75*
G02*
X118083999Y-80103000I249999J0D01*
G01*
G37*
X119634000Y-72390000D03*
X119634000Y-64770000D03*
G36*
G01*
X118083999Y-56100000D02*
X121184001Y-56100000D01*
G75*
G02*
X121434000Y-56349999I0J-249999D01*
G01*
X121434000Y-57950001D01*
G75*
G02*
X121184001Y-58200000I-249999J0D01*
G01*
X118083999Y-58200000D01*
G75*
G02*
X117834000Y-57950001I0J249999D01*
G01*
X117834000Y-56349999D01*
G75*
G02*
X118083999Y-56100000I249999J0D01*
G01*
G37*
X119634000Y-41240000D03*
X119634000Y-33620000D03*
G36*
G01*
X118083999Y-24950000D02*
X121184001Y-24950000D01*
G75*
G02*
X121434000Y-25199999I0J-249999D01*
G01*
X121434000Y-26800001D01*
G75*
G02*
X121184001Y-27050000I-249999J0D01*
G01*
X118083999Y-27050000D01*
G75*
G02*
X117834000Y-26800001I0J249999D01*
G01*
X117834000Y-25199999D01*
G75*
G02*
X118083999Y-24950000I249999J0D01*
G01*
G37*
D39*
G36*
X62768000Y-90171000D02*
G01*
X62768000Y-93471000D01*
X60168000Y-93471000D01*
X60168000Y-90171000D01*
X62768000Y-90171000D01*
G37*
G36*
G01*
X82746001Y-61322000D02*
X81845999Y-61322000D01*
G75*
G02*
X81596000Y-61072001I0J249999D01*
G01*
X81596000Y-60371999D01*
G75*
G02*
X81845999Y-60122000I249999J0D01*
G01*
X82746001Y-60122000D01*
G75*
G02*
X82996000Y-60371999I0J-249999D01*
G01*
X82996000Y-61072001D01*
G75*
G02*
X82746001Y-61322000I-249999J0D01*
G01*
G37*
G36*
G01*
X82746001Y-63322000D02*
X81845999Y-63322000D01*
G75*
G02*
X81596000Y-63072001I0J249999D01*
G01*
X81596000Y-62371999D01*
G75*
G02*
X81845999Y-62122000I249999J0D01*
G01*
X82746001Y-62122000D01*
G75*
G02*
X82996000Y-62371999I0J-249999D01*
G01*
X82996000Y-63072001D01*
G75*
G02*
X82746001Y-63322000I-249999J0D01*
G01*
G37*
G36*
G01*
X46068000Y-67495000D02*
X45118000Y-67495000D01*
G75*
G02*
X44868000Y-67245000I0J250000D01*
G01*
X44868000Y-66570000D01*
G75*
G02*
X45118000Y-66320000I250000J0D01*
G01*
X46068000Y-66320000D01*
G75*
G02*
X46318000Y-66570000I0J-250000D01*
G01*
X46318000Y-67245000D01*
G75*
G02*
X46068000Y-67495000I-250000J0D01*
G01*
G37*
G36*
G01*
X46068000Y-69570000D02*
X45118000Y-69570000D01*
G75*
G02*
X44868000Y-69320000I0J250000D01*
G01*
X44868000Y-68645000D01*
G75*
G02*
X45118000Y-68395000I250000J0D01*
G01*
X46068000Y-68395000D01*
G75*
G02*
X46318000Y-68645000I0J-250000D01*
G01*
X46318000Y-69320000D01*
G75*
G02*
X46068000Y-69570000I-250000J0D01*
G01*
G37*
G36*
G01*
X80918000Y-39693001D02*
X80918000Y-38792999D01*
G75*
G02*
X81167999Y-38543000I249999J0D01*
G01*
X81868001Y-38543000D01*
G75*
G02*
X82118000Y-38792999I0J-249999D01*
G01*
X82118000Y-39693001D01*
G75*
G02*
X81868001Y-39943000I-249999J0D01*
G01*
X81167999Y-39943000D01*
G75*
G02*
X80918000Y-39693001I0J249999D01*
G01*
G37*
G36*
G01*
X78918000Y-39693001D02*
X78918000Y-38792999D01*
G75*
G02*
X79167999Y-38543000I249999J0D01*
G01*
X79868001Y-38543000D01*
G75*
G02*
X80118000Y-38792999I0J-249999D01*
G01*
X80118000Y-39693001D01*
G75*
G02*
X79868001Y-39943000I-249999J0D01*
G01*
X79167999Y-39943000D01*
G75*
G02*
X78918000Y-39693001I0J249999D01*
G01*
G37*
G36*
G01*
X80918000Y-41725001D02*
X80918000Y-40824999D01*
G75*
G02*
X81167999Y-40575000I249999J0D01*
G01*
X81868001Y-40575000D01*
G75*
G02*
X82118000Y-40824999I0J-249999D01*
G01*
X82118000Y-41725001D01*
G75*
G02*
X81868001Y-41975000I-249999J0D01*
G01*
X81167999Y-41975000D01*
G75*
G02*
X80918000Y-41725001I0J249999D01*
G01*
G37*
G36*
G01*
X78918000Y-41725001D02*
X78918000Y-40824999D01*
G75*
G02*
X79167999Y-40575000I249999J0D01*
G01*
X79868001Y-40575000D01*
G75*
G02*
X80118000Y-40824999I0J-249999D01*
G01*
X80118000Y-41725001D01*
G75*
G02*
X79868001Y-41975000I-249999J0D01*
G01*
X79167999Y-41975000D01*
G75*
G02*
X78918000Y-41725001I0J249999D01*
G01*
G37*
G36*
G01*
X79394000Y-31184001D02*
X79394000Y-30283999D01*
G75*
G02*
X79643999Y-30034000I249999J0D01*
G01*
X80344001Y-30034000D01*
G75*
G02*
X80594000Y-30283999I0J-249999D01*
G01*
X80594000Y-31184001D01*
G75*
G02*
X80344001Y-31434000I-249999J0D01*
G01*
X79643999Y-31434000D01*
G75*
G02*
X79394000Y-31184001I0J249999D01*
G01*
G37*
G36*
G01*
X77394000Y-31184001D02*
X77394000Y-30283999D01*
G75*
G02*
X77643999Y-30034000I249999J0D01*
G01*
X78344001Y-30034000D01*
G75*
G02*
X78594000Y-30283999I0J-249999D01*
G01*
X78594000Y-31184001D01*
G75*
G02*
X78344001Y-31434000I-249999J0D01*
G01*
X77643999Y-31434000D01*
G75*
G02*
X77394000Y-31184001I0J249999D01*
G01*
G37*
G36*
G01*
X75612500Y-31209000D02*
X75612500Y-30259000D01*
G75*
G02*
X75862500Y-30009000I250000J0D01*
G01*
X76537500Y-30009000D01*
G75*
G02*
X76787500Y-30259000I0J-250000D01*
G01*
X76787500Y-31209000D01*
G75*
G02*
X76537500Y-31459000I-250000J0D01*
G01*
X75862500Y-31459000D01*
G75*
G02*
X75612500Y-31209000I0J250000D01*
G01*
G37*
G36*
G01*
X73537500Y-31209000D02*
X73537500Y-30259000D01*
G75*
G02*
X73787500Y-30009000I250000J0D01*
G01*
X74462500Y-30009000D01*
G75*
G02*
X74712500Y-30259000I0J-250000D01*
G01*
X74712500Y-31209000D01*
G75*
G02*
X74462500Y-31459000I-250000J0D01*
G01*
X73787500Y-31459000D01*
G75*
G02*
X73537500Y-31209000I0J250000D01*
G01*
G37*
G36*
G01*
X44685000Y-49333999D02*
X44685000Y-50234001D01*
G75*
G02*
X44435001Y-50484000I-249999J0D01*
G01*
X43734999Y-50484000D01*
G75*
G02*
X43485000Y-50234001I0J249999D01*
G01*
X43485000Y-49333999D01*
G75*
G02*
X43734999Y-49084000I249999J0D01*
G01*
X44435001Y-49084000D01*
G75*
G02*
X44685000Y-49333999I0J-249999D01*
G01*
G37*
G36*
G01*
X46685000Y-49333999D02*
X46685000Y-50234001D01*
G75*
G02*
X46435001Y-50484000I-249999J0D01*
G01*
X45734999Y-50484000D01*
G75*
G02*
X45485000Y-50234001I0J249999D01*
G01*
X45485000Y-49333999D01*
G75*
G02*
X45734999Y-49084000I249999J0D01*
G01*
X46435001Y-49084000D01*
G75*
G02*
X46685000Y-49333999I0J-249999D01*
G01*
G37*
G36*
G01*
X44685000Y-44063499D02*
X44685000Y-44963501D01*
G75*
G02*
X44435001Y-45213500I-249999J0D01*
G01*
X43734999Y-45213500D01*
G75*
G02*
X43485000Y-44963501I0J249999D01*
G01*
X43485000Y-44063499D01*
G75*
G02*
X43734999Y-43813500I249999J0D01*
G01*
X44435001Y-43813500D01*
G75*
G02*
X44685000Y-44063499I0J-249999D01*
G01*
G37*
G36*
G01*
X46685000Y-44063499D02*
X46685000Y-44963501D01*
G75*
G02*
X46435001Y-45213500I-249999J0D01*
G01*
X45734999Y-45213500D01*
G75*
G02*
X45485000Y-44963501I0J249999D01*
G01*
X45485000Y-44063499D01*
G75*
G02*
X45734999Y-43813500I249999J0D01*
G01*
X46435001Y-43813500D01*
G75*
G02*
X46685000Y-44063499I0J-249999D01*
G01*
G37*
D33*
X90424000Y-53307000D03*
X90424000Y-50807000D03*
X90424000Y-48307000D03*
X90424000Y-45807000D03*
G36*
G01*
X89699000Y-42457000D02*
X91149000Y-42457000D01*
G75*
G02*
X91399000Y-42707000I0J-250000D01*
G01*
X91399000Y-43907000D01*
G75*
G02*
X91149000Y-44157000I-250000J0D01*
G01*
X89699000Y-44157000D01*
G75*
G02*
X89449000Y-43907000I0J250000D01*
G01*
X89449000Y-42707000D01*
G75*
G02*
X89699000Y-42457000I250000J0D01*
G01*
G37*
G36*
G01*
X86849000Y-50603999D02*
X86849000Y-51504001D01*
G75*
G02*
X86599001Y-51754000I-249999J0D01*
G01*
X85898999Y-51754000D01*
G75*
G02*
X85649000Y-51504001I0J249999D01*
G01*
X85649000Y-50603999D01*
G75*
G02*
X85898999Y-50354000I249999J0D01*
G01*
X86599001Y-50354000D01*
G75*
G02*
X86849000Y-50603999I0J-249999D01*
G01*
G37*
G36*
G01*
X88849000Y-50603999D02*
X88849000Y-51504001D01*
G75*
G02*
X88599001Y-51754000I-249999J0D01*
G01*
X87898999Y-51754000D01*
G75*
G02*
X87649000Y-51504001I0J249999D01*
G01*
X87649000Y-50603999D01*
G75*
G02*
X87898999Y-50354000I249999J0D01*
G01*
X88599001Y-50354000D01*
G75*
G02*
X88849000Y-50603999I0J-249999D01*
G01*
G37*
D32*
X86614000Y-56364000D03*
X87564000Y-53364000D03*
X85664000Y-53364000D03*
D18*
X28448000Y-54823000D03*
X28448000Y-51323000D03*
X28448000Y-47823000D03*
G36*
G01*
X26898000Y-43423000D02*
X29998000Y-43423000D01*
G75*
G02*
X30248000Y-43673000I0J-250000D01*
G01*
X30248000Y-44973000D01*
G75*
G02*
X29998000Y-45223000I-250000J0D01*
G01*
X26898000Y-45223000D01*
G75*
G02*
X26648000Y-44973000I0J250000D01*
G01*
X26648000Y-43673000D01*
G75*
G02*
X26898000Y-43423000I250000J0D01*
G01*
G37*
D37*
X38500000Y-87000000D03*
G36*
G01*
X40875000Y-49333999D02*
X40875000Y-50234001D01*
G75*
G02*
X40625001Y-50484000I-249999J0D01*
G01*
X39924999Y-50484000D01*
G75*
G02*
X39675000Y-50234001I0J249999D01*
G01*
X39675000Y-49333999D01*
G75*
G02*
X39924999Y-49084000I249999J0D01*
G01*
X40625001Y-49084000D01*
G75*
G02*
X40875000Y-49333999I0J-249999D01*
G01*
G37*
G36*
G01*
X42875000Y-49333999D02*
X42875000Y-50234001D01*
G75*
G02*
X42625001Y-50484000I-249999J0D01*
G01*
X41924999Y-50484000D01*
G75*
G02*
X41675000Y-50234001I0J249999D01*
G01*
X41675000Y-49333999D01*
G75*
G02*
X41924999Y-49084000I249999J0D01*
G01*
X42625001Y-49084000D01*
G75*
G02*
X42875000Y-49333999I0J-249999D01*
G01*
G37*
G36*
G01*
X40875000Y-44063499D02*
X40875000Y-44963501D01*
G75*
G02*
X40625001Y-45213500I-249999J0D01*
G01*
X39924999Y-45213500D01*
G75*
G02*
X39675000Y-44963501I0J249999D01*
G01*
X39675000Y-44063499D01*
G75*
G02*
X39924999Y-43813500I249999J0D01*
G01*
X40625001Y-43813500D01*
G75*
G02*
X40875000Y-44063499I0J-249999D01*
G01*
G37*
G36*
G01*
X42875000Y-44063499D02*
X42875000Y-44963501D01*
G75*
G02*
X42625001Y-45213500I-249999J0D01*
G01*
X41924999Y-45213500D01*
G75*
G02*
X41675000Y-44963501I0J249999D01*
G01*
X41675000Y-44063499D01*
G75*
G02*
X41924999Y-43813500I249999J0D01*
G01*
X42625001Y-43813500D01*
G75*
G02*
X42875000Y-44063499I0J-249999D01*
G01*
G37*
G36*
G01*
X38398500Y-30410999D02*
X38398500Y-31311001D01*
G75*
G02*
X38148501Y-31561000I-249999J0D01*
G01*
X37448499Y-31561000D01*
G75*
G02*
X37198500Y-31311001I0J249999D01*
G01*
X37198500Y-30410999D01*
G75*
G02*
X37448499Y-30161000I249999J0D01*
G01*
X38148501Y-30161000D01*
G75*
G02*
X38398500Y-30410999I0J-249999D01*
G01*
G37*
G36*
G01*
X40398500Y-30410999D02*
X40398500Y-31311001D01*
G75*
G02*
X40148501Y-31561000I-249999J0D01*
G01*
X39448499Y-31561000D01*
G75*
G02*
X39198500Y-31311001I0J249999D01*
G01*
X39198500Y-30410999D01*
G75*
G02*
X39448499Y-30161000I249999J0D01*
G01*
X40148501Y-30161000D01*
G75*
G02*
X40398500Y-30410999I0J-249999D01*
G01*
G37*
G36*
G01*
X42208500Y-30410999D02*
X42208500Y-31311001D01*
G75*
G02*
X41958501Y-31561000I-249999J0D01*
G01*
X41258499Y-31561000D01*
G75*
G02*
X41008500Y-31311001I0J249999D01*
G01*
X41008500Y-30410999D01*
G75*
G02*
X41258499Y-30161000I249999J0D01*
G01*
X41958501Y-30161000D01*
G75*
G02*
X42208500Y-30410999I0J-249999D01*
G01*
G37*
G36*
G01*
X44208500Y-30410999D02*
X44208500Y-31311001D01*
G75*
G02*
X43958501Y-31561000I-249999J0D01*
G01*
X43258499Y-31561000D01*
G75*
G02*
X43008500Y-31311001I0J249999D01*
G01*
X43008500Y-30410999D01*
G75*
G02*
X43258499Y-30161000I249999J0D01*
G01*
X43958501Y-30161000D01*
G75*
G02*
X44208500Y-30410999I0J-249999D01*
G01*
G37*
G36*
G01*
X38779500Y-25076999D02*
X38779500Y-25977001D01*
G75*
G02*
X38529501Y-26227000I-249999J0D01*
G01*
X37829499Y-26227000D01*
G75*
G02*
X37579500Y-25977001I0J249999D01*
G01*
X37579500Y-25076999D01*
G75*
G02*
X37829499Y-24827000I249999J0D01*
G01*
X38529501Y-24827000D01*
G75*
G02*
X38779500Y-25076999I0J-249999D01*
G01*
G37*
G36*
G01*
X40779500Y-25076999D02*
X40779500Y-25977001D01*
G75*
G02*
X40529501Y-26227000I-249999J0D01*
G01*
X39829499Y-26227000D01*
G75*
G02*
X39579500Y-25977001I0J249999D01*
G01*
X39579500Y-25076999D01*
G75*
G02*
X39829499Y-24827000I249999J0D01*
G01*
X40529501Y-24827000D01*
G75*
G02*
X40779500Y-25076999I0J-249999D01*
G01*
G37*
G36*
G01*
X42589500Y-25076999D02*
X42589500Y-25977001D01*
G75*
G02*
X42339501Y-26227000I-249999J0D01*
G01*
X41639499Y-26227000D01*
G75*
G02*
X41389500Y-25977001I0J249999D01*
G01*
X41389500Y-25076999D01*
G75*
G02*
X41639499Y-24827000I249999J0D01*
G01*
X42339501Y-24827000D01*
G75*
G02*
X42589500Y-25076999I0J-249999D01*
G01*
G37*
G36*
G01*
X44589500Y-25076999D02*
X44589500Y-25977001D01*
G75*
G02*
X44339501Y-26227000I-249999J0D01*
G01*
X43639499Y-26227000D01*
G75*
G02*
X43389500Y-25977001I0J249999D01*
G01*
X43389500Y-25076999D01*
G75*
G02*
X43639499Y-24827000I249999J0D01*
G01*
X44339501Y-24827000D01*
G75*
G02*
X44589500Y-25076999I0J-249999D01*
G01*
G37*
G36*
G01*
X88665000Y-23056001D02*
X88665000Y-22155999D01*
G75*
G02*
X88914999Y-21906000I249999J0D01*
G01*
X89615001Y-21906000D01*
G75*
G02*
X89865000Y-22155999I0J-249999D01*
G01*
X89865000Y-23056001D01*
G75*
G02*
X89615001Y-23306000I-249999J0D01*
G01*
X88914999Y-23306000D01*
G75*
G02*
X88665000Y-23056001I0J249999D01*
G01*
G37*
G36*
G01*
X86665000Y-23056001D02*
X86665000Y-22155999D01*
G75*
G02*
X86914999Y-21906000I249999J0D01*
G01*
X87615001Y-21906000D01*
G75*
G02*
X87865000Y-22155999I0J-249999D01*
G01*
X87865000Y-23056001D01*
G75*
G02*
X87615001Y-23306000I-249999J0D01*
G01*
X86914999Y-23306000D01*
G75*
G02*
X86665000Y-23056001I0J249999D01*
G01*
G37*
G36*
G01*
X36684000Y-56699999D02*
X36684000Y-57600001D01*
G75*
G02*
X36434001Y-57850000I-249999J0D01*
G01*
X35733999Y-57850000D01*
G75*
G02*
X35484000Y-57600001I0J249999D01*
G01*
X35484000Y-56699999D01*
G75*
G02*
X35733999Y-56450000I249999J0D01*
G01*
X36434001Y-56450000D01*
G75*
G02*
X36684000Y-56699999I0J-249999D01*
G01*
G37*
G36*
G01*
X38684000Y-56699999D02*
X38684000Y-57600001D01*
G75*
G02*
X38434001Y-57850000I-249999J0D01*
G01*
X37733999Y-57850000D01*
G75*
G02*
X37484000Y-57600001I0J249999D01*
G01*
X37484000Y-56699999D01*
G75*
G02*
X37733999Y-56450000I249999J0D01*
G01*
X38434001Y-56450000D01*
G75*
G02*
X38684000Y-56699999I0J-249999D01*
G01*
G37*
G36*
G01*
X40494000Y-56699999D02*
X40494000Y-57600001D01*
G75*
G02*
X40244001Y-57850000I-249999J0D01*
G01*
X39543999Y-57850000D01*
G75*
G02*
X39294000Y-57600001I0J249999D01*
G01*
X39294000Y-56699999D01*
G75*
G02*
X39543999Y-56450000I249999J0D01*
G01*
X40244001Y-56450000D01*
G75*
G02*
X40494000Y-56699999I0J-249999D01*
G01*
G37*
G36*
G01*
X42494000Y-56699999D02*
X42494000Y-57600001D01*
G75*
G02*
X42244001Y-57850000I-249999J0D01*
G01*
X41543999Y-57850000D01*
G75*
G02*
X41294000Y-57600001I0J249999D01*
G01*
X41294000Y-56699999D01*
G75*
G02*
X41543999Y-56450000I249999J0D01*
G01*
X42244001Y-56450000D01*
G75*
G02*
X42494000Y-56699999I0J-249999D01*
G01*
G37*
G36*
G01*
X86849000Y-43110999D02*
X86849000Y-44011001D01*
G75*
G02*
X86599001Y-44261000I-249999J0D01*
G01*
X85898999Y-44261000D01*
G75*
G02*
X85649000Y-44011001I0J249999D01*
G01*
X85649000Y-43110999D01*
G75*
G02*
X85898999Y-42861000I249999J0D01*
G01*
X86599001Y-42861000D01*
G75*
G02*
X86849000Y-43110999I0J-249999D01*
G01*
G37*
G36*
G01*
X88849000Y-43110999D02*
X88849000Y-44011001D01*
G75*
G02*
X88599001Y-44261000I-249999J0D01*
G01*
X87898999Y-44261000D01*
G75*
G02*
X87649000Y-44011001I0J249999D01*
G01*
X87649000Y-43110999D01*
G75*
G02*
X87898999Y-42861000I249999J0D01*
G01*
X88599001Y-42861000D01*
G75*
G02*
X88849000Y-43110999I0J-249999D01*
G01*
G37*
G36*
G01*
X87903000Y-38296001D02*
X87903000Y-37395999D01*
G75*
G02*
X88152999Y-37146000I249999J0D01*
G01*
X88853001Y-37146000D01*
G75*
G02*
X89103000Y-37395999I0J-249999D01*
G01*
X89103000Y-38296001D01*
G75*
G02*
X88853001Y-38546000I-249999J0D01*
G01*
X88152999Y-38546000D01*
G75*
G02*
X87903000Y-38296001I0J249999D01*
G01*
G37*
G36*
G01*
X85903000Y-38296001D02*
X85903000Y-37395999D01*
G75*
G02*
X86152999Y-37146000I249999J0D01*
G01*
X86853001Y-37146000D01*
G75*
G02*
X87103000Y-37395999I0J-249999D01*
G01*
X87103000Y-38296001D01*
G75*
G02*
X86853001Y-38546000I-249999J0D01*
G01*
X86152999Y-38546000D01*
G75*
G02*
X85903000Y-38296001I0J249999D01*
G01*
G37*
G36*
G01*
X82607999Y-33928000D02*
X83508001Y-33928000D01*
G75*
G02*
X83758000Y-34177999I0J-249999D01*
G01*
X83758000Y-34878001D01*
G75*
G02*
X83508001Y-35128000I-249999J0D01*
G01*
X82607999Y-35128000D01*
G75*
G02*
X82358000Y-34878001I0J249999D01*
G01*
X82358000Y-34177999D01*
G75*
G02*
X82607999Y-33928000I249999J0D01*
G01*
G37*
G36*
G01*
X82607999Y-31928000D02*
X83508001Y-31928000D01*
G75*
G02*
X83758000Y-32177999I0J-249999D01*
G01*
X83758000Y-32878001D01*
G75*
G02*
X83508001Y-33128000I-249999J0D01*
G01*
X82607999Y-33128000D01*
G75*
G02*
X82358000Y-32878001I0J249999D01*
G01*
X82358000Y-32177999D01*
G75*
G02*
X82607999Y-31928000I249999J0D01*
G01*
G37*
G36*
G01*
X84982000Y-28771001D02*
X84982000Y-27870999D01*
G75*
G02*
X85231999Y-27621000I249999J0D01*
G01*
X85932001Y-27621000D01*
G75*
G02*
X86182000Y-27870999I0J-249999D01*
G01*
X86182000Y-28771001D01*
G75*
G02*
X85932001Y-29021000I-249999J0D01*
G01*
X85231999Y-29021000D01*
G75*
G02*
X84982000Y-28771001I0J249999D01*
G01*
G37*
G36*
G01*
X82982000Y-28771001D02*
X82982000Y-27870999D01*
G75*
G02*
X83231999Y-27621000I249999J0D01*
G01*
X83932001Y-27621000D01*
G75*
G02*
X84182000Y-27870999I0J-249999D01*
G01*
X84182000Y-28771001D01*
G75*
G02*
X83932001Y-29021000I-249999J0D01*
G01*
X83231999Y-29021000D01*
G75*
G02*
X82982000Y-28771001I0J249999D01*
G01*
G37*
D32*
X87249000Y-48807500D03*
X88199000Y-45807500D03*
X86299000Y-45807500D03*
D31*
X93702000Y-36957000D03*
X90702000Y-36007000D03*
X90702000Y-37907000D03*
D32*
X85852000Y-35663000D03*
X86802000Y-32663000D03*
X84902000Y-32663000D03*
D34*
X86995000Y-24765000D03*
D40*
X89535000Y-24765000D03*
D37*
X72500000Y-87000000D03*
D24*
X38163500Y-42367200D03*
X40703500Y-42367200D03*
D25*
X43243500Y-42367200D03*
D24*
X38163500Y-47599600D03*
X40703500Y-47599600D03*
D25*
X43243500Y-47599600D03*
D24*
X38163500Y-23368000D03*
X40703500Y-23368000D03*
D25*
X43243500Y-23368000D03*
D24*
X38163500Y-52832000D03*
X40703500Y-52832000D03*
D25*
X43243500Y-52832000D03*
D37*
X38500000Y-37000000D03*
X72500000Y-37000000D03*
M02*
