G04 #@! TF.GenerationSoftware,KiCad,Pcbnew,(5.1.8)-1*
G04 #@! TF.CreationDate,2021-07-21T13:46:01+02:00*
G04 #@! TF.ProjectId,sensactOutdoor,73656e73-6163-4744-9f75-74646f6f722e,rev?*
G04 #@! TF.SameCoordinates,Original*
G04 #@! TF.FileFunction,Legend,Top*
G04 #@! TF.FilePolarity,Positive*
%FSLAX46Y46*%
G04 Gerber Fmt 4.6, Leading zero omitted, Abs format (unit mm)*
G04 Created by KiCad (PCBNEW (5.1.8)-1) date 2021-07-21 13:46:01*
%MOMM*%
%LPD*%
G01*
G04 APERTURE LIST*
%ADD10C,0.300000*%
%ADD11C,0.250000*%
%ADD12C,0.200000*%
%ADD13C,0.120000*%
%ADD14C,0.127000*%
%ADD15C,0.203200*%
%ADD16C,0.150000*%
%ADD17R,4.800000X4.500000*%
%ADD18C,1.600000*%
%ADD19R,1.600000X1.600000*%
%ADD20O,1.700000X1.700000*%
%ADD21R,1.700000X1.700000*%
%ADD22R,5.000000X5.000000*%
%ADD23O,3.600000X2.080000*%
%ADD24O,3.600000X1.800000*%
%ADD25O,1.000000X1.000000*%
%ADD26R,1.000000X1.000000*%
%ADD27C,2.500000*%
%ADD28R,2.500000X2.000000*%
%ADD29R,1.300000X2.000000*%
%ADD30O,1.905000X2.000000*%
%ADD31R,1.905000X2.000000*%
%ADD32R,1.500000X1.000000*%
%ADD33C,0.100000*%
%ADD34O,2.000000X1.500000*%
%ADD35C,2.000000*%
%ADD36R,2.200000X1.400000*%
%ADD37C,1.524000*%
%ADD38R,1.524000X1.524000*%
%ADD39C,1.650000*%
%ADD40O,1.950000X1.700000*%
%ADD41C,1.800000*%
%ADD42O,1.600000X2.000000*%
%ADD43R,1.000000X1.500000*%
%ADD44C,3.200000*%
%ADD45O,3.600000X2.100000*%
%ADD46R,2.200000X0.600000*%
%ADD47R,1.500000X3.000000*%
%ADD48R,3.800000X3.000000*%
%ADD49R,1.800000X1.800000*%
%ADD50R,3.500000X1.800000*%
G04 APERTURE END LIST*
D10*
X51647428Y-23589142D02*
X51790285Y-23660571D01*
X52076000Y-23660571D01*
X52218857Y-23589142D01*
X52290285Y-23446285D01*
X52290285Y-23374857D01*
X52218857Y-23232000D01*
X52076000Y-23160571D01*
X51861714Y-23160571D01*
X51718857Y-23089142D01*
X51647428Y-22946285D01*
X51647428Y-22874857D01*
X51718857Y-22732000D01*
X51861714Y-22660571D01*
X52076000Y-22660571D01*
X52218857Y-22732000D01*
X53504571Y-23589142D02*
X53361714Y-23660571D01*
X53076000Y-23660571D01*
X52933142Y-23589142D01*
X52861714Y-23446285D01*
X52861714Y-22874857D01*
X52933142Y-22732000D01*
X53076000Y-22660571D01*
X53361714Y-22660571D01*
X53504571Y-22732000D01*
X53576000Y-22874857D01*
X53576000Y-23017714D01*
X52861714Y-23160571D01*
X54218857Y-22660571D02*
X54218857Y-23660571D01*
X54218857Y-22803428D02*
X54290285Y-22732000D01*
X54433142Y-22660571D01*
X54647428Y-22660571D01*
X54790285Y-22732000D01*
X54861714Y-22874857D01*
X54861714Y-23660571D01*
X55504571Y-23589142D02*
X55647428Y-23660571D01*
X55933142Y-23660571D01*
X56076000Y-23589142D01*
X56147428Y-23446285D01*
X56147428Y-23374857D01*
X56076000Y-23232000D01*
X55933142Y-23160571D01*
X55718857Y-23160571D01*
X55576000Y-23089142D01*
X55504571Y-22946285D01*
X55504571Y-22874857D01*
X55576000Y-22732000D01*
X55718857Y-22660571D01*
X55933142Y-22660571D01*
X56076000Y-22732000D01*
X57433142Y-23660571D02*
X57433142Y-22874857D01*
X57361714Y-22732000D01*
X57218857Y-22660571D01*
X56933142Y-22660571D01*
X56790285Y-22732000D01*
X57433142Y-23589142D02*
X57290285Y-23660571D01*
X56933142Y-23660571D01*
X56790285Y-23589142D01*
X56718857Y-23446285D01*
X56718857Y-23303428D01*
X56790285Y-23160571D01*
X56933142Y-23089142D01*
X57290285Y-23089142D01*
X57433142Y-23017714D01*
X58790285Y-23589142D02*
X58647428Y-23660571D01*
X58361714Y-23660571D01*
X58218857Y-23589142D01*
X58147428Y-23517714D01*
X58076000Y-23374857D01*
X58076000Y-22946285D01*
X58147428Y-22803428D01*
X58218857Y-22732000D01*
X58361714Y-22660571D01*
X58647428Y-22660571D01*
X58790285Y-22732000D01*
X59218857Y-22660571D02*
X59790285Y-22660571D01*
X59433142Y-22160571D02*
X59433142Y-23446285D01*
X59504571Y-23589142D01*
X59647428Y-23660571D01*
X59790285Y-23660571D01*
X60576000Y-22160571D02*
X60861714Y-22160571D01*
X61004571Y-22232000D01*
X61147428Y-22374857D01*
X61218857Y-22660571D01*
X61218857Y-23160571D01*
X61147428Y-23446285D01*
X61004571Y-23589142D01*
X60861714Y-23660571D01*
X60576000Y-23660571D01*
X60433142Y-23589142D01*
X60290285Y-23446285D01*
X60218857Y-23160571D01*
X60218857Y-22660571D01*
X60290285Y-22374857D01*
X60433142Y-22232000D01*
X60576000Y-22160571D01*
X62504571Y-22660571D02*
X62504571Y-23660571D01*
X61861714Y-22660571D02*
X61861714Y-23446285D01*
X61933142Y-23589142D01*
X62076000Y-23660571D01*
X62290285Y-23660571D01*
X62433142Y-23589142D01*
X62504571Y-23517714D01*
X63004571Y-22660571D02*
X63576000Y-22660571D01*
X63218857Y-22160571D02*
X63218857Y-23446285D01*
X63290285Y-23589142D01*
X63433142Y-23660571D01*
X63576000Y-23660571D01*
X64718857Y-23660571D02*
X64718857Y-22160571D01*
X64718857Y-23589142D02*
X64575999Y-23660571D01*
X64290285Y-23660571D01*
X64147428Y-23589142D01*
X64075999Y-23517714D01*
X64004571Y-23374857D01*
X64004571Y-22946285D01*
X64075999Y-22803428D01*
X64147428Y-22732000D01*
X64290285Y-22660571D01*
X64575999Y-22660571D01*
X64718857Y-22732000D01*
X65647428Y-23660571D02*
X65504571Y-23589142D01*
X65433142Y-23517714D01*
X65361714Y-23374857D01*
X65361714Y-22946285D01*
X65433142Y-22803428D01*
X65504571Y-22732000D01*
X65647428Y-22660571D01*
X65861714Y-22660571D01*
X66004571Y-22732000D01*
X66075999Y-22803428D01*
X66147428Y-22946285D01*
X66147428Y-23374857D01*
X66075999Y-23517714D01*
X66004571Y-23589142D01*
X65861714Y-23660571D01*
X65647428Y-23660571D01*
X67004571Y-23660571D02*
X66861714Y-23589142D01*
X66790285Y-23517714D01*
X66718857Y-23374857D01*
X66718857Y-22946285D01*
X66790285Y-22803428D01*
X66861714Y-22732000D01*
X67004571Y-22660571D01*
X67218857Y-22660571D01*
X67361714Y-22732000D01*
X67433142Y-22803428D01*
X67504571Y-22946285D01*
X67504571Y-23374857D01*
X67433142Y-23517714D01*
X67361714Y-23589142D01*
X67218857Y-23660571D01*
X67004571Y-23660571D01*
X68147428Y-23660571D02*
X68147428Y-22660571D01*
X68147428Y-22946285D02*
X68218857Y-22803428D01*
X68290285Y-22732000D01*
X68433142Y-22660571D01*
X68576000Y-22660571D01*
X70004571Y-22160571D02*
X70504571Y-23660571D01*
X71004571Y-22160571D01*
X71361714Y-22160571D02*
X72290285Y-22160571D01*
X71790285Y-22732000D01*
X72004571Y-22732000D01*
X72147428Y-22803428D01*
X72218857Y-22874857D01*
X72290285Y-23017714D01*
X72290285Y-23374857D01*
X72218857Y-23517714D01*
X72147428Y-23589142D01*
X72004571Y-23660571D01*
X71576000Y-23660571D01*
X71433142Y-23589142D01*
X71361714Y-23517714D01*
X57718857Y-24853428D02*
X57790285Y-24782000D01*
X57933142Y-24710571D01*
X58290285Y-24710571D01*
X58433142Y-24782000D01*
X58504571Y-24853428D01*
X58576000Y-24996285D01*
X58576000Y-25139142D01*
X58504571Y-25353428D01*
X57647428Y-26210571D01*
X58576000Y-26210571D01*
X59504571Y-24710571D02*
X59647428Y-24710571D01*
X59790285Y-24782000D01*
X59861714Y-24853428D01*
X59933142Y-24996285D01*
X60004571Y-25282000D01*
X60004571Y-25639142D01*
X59933142Y-25924857D01*
X59861714Y-26067714D01*
X59790285Y-26139142D01*
X59647428Y-26210571D01*
X59504571Y-26210571D01*
X59361714Y-26139142D01*
X59290285Y-26067714D01*
X59218857Y-25924857D01*
X59147428Y-25639142D01*
X59147428Y-25282000D01*
X59218857Y-24996285D01*
X59290285Y-24853428D01*
X59361714Y-24782000D01*
X59504571Y-24710571D01*
X60576000Y-24853428D02*
X60647428Y-24782000D01*
X60790285Y-24710571D01*
X61147428Y-24710571D01*
X61290285Y-24782000D01*
X61361714Y-24853428D01*
X61433142Y-24996285D01*
X61433142Y-25139142D01*
X61361714Y-25353428D01*
X60504571Y-26210571D01*
X61433142Y-26210571D01*
X62861714Y-26210571D02*
X62004571Y-26210571D01*
X62433142Y-26210571D02*
X62433142Y-24710571D01*
X62290285Y-24924857D01*
X62147428Y-25067714D01*
X62004571Y-25139142D01*
X63504571Y-25639142D02*
X64647428Y-25639142D01*
X65647428Y-24710571D02*
X65790285Y-24710571D01*
X65933142Y-24782000D01*
X66004571Y-24853428D01*
X66076000Y-24996285D01*
X66147428Y-25282000D01*
X66147428Y-25639142D01*
X66076000Y-25924857D01*
X66004571Y-26067714D01*
X65933142Y-26139142D01*
X65790285Y-26210571D01*
X65647428Y-26210571D01*
X65504571Y-26139142D01*
X65433142Y-26067714D01*
X65361714Y-25924857D01*
X65290285Y-25639142D01*
X65290285Y-25282000D01*
X65361714Y-24996285D01*
X65433142Y-24853428D01*
X65504571Y-24782000D01*
X65647428Y-24710571D01*
X66647428Y-24710571D02*
X67647428Y-24710571D01*
X67004571Y-26210571D01*
X68218857Y-25639142D02*
X69361714Y-25639142D01*
X70004571Y-24853428D02*
X70076000Y-24782000D01*
X70218857Y-24710571D01*
X70576000Y-24710571D01*
X70718857Y-24782000D01*
X70790285Y-24853428D01*
X70861714Y-24996285D01*
X70861714Y-25139142D01*
X70790285Y-25353428D01*
X69933142Y-26210571D01*
X70861714Y-26210571D01*
X72290285Y-26210571D02*
X71433142Y-26210571D01*
X71861714Y-26210571D02*
X71861714Y-24710571D01*
X71718857Y-24924857D01*
X71576000Y-25067714D01*
X71433142Y-25139142D01*
D11*
X65889809Y-27753571D02*
X66127904Y-29253571D01*
X66318380Y-28182142D01*
X66508857Y-29253571D01*
X66746952Y-27753571D01*
X67080285Y-29182142D02*
X67223142Y-29253571D01*
X67461238Y-29253571D01*
X67556476Y-29182142D01*
X67604095Y-29110714D01*
X67651714Y-28967857D01*
X67651714Y-28825000D01*
X67604095Y-28682142D01*
X67556476Y-28610714D01*
X67461238Y-28539285D01*
X67270761Y-28467857D01*
X67175523Y-28396428D01*
X67127904Y-28325000D01*
X67080285Y-28182142D01*
X67080285Y-28039285D01*
X67127904Y-27896428D01*
X67175523Y-27825000D01*
X67270761Y-27753571D01*
X67508857Y-27753571D01*
X67651714Y-27825000D01*
X68032666Y-27896428D02*
X68080285Y-27825000D01*
X68175523Y-27753571D01*
X68413619Y-27753571D01*
X68508857Y-27825000D01*
X68556476Y-27896428D01*
X68604095Y-28039285D01*
X68604095Y-28182142D01*
X68556476Y-28396428D01*
X67985047Y-29253571D01*
X68604095Y-29253571D01*
X69175523Y-28396428D02*
X69080285Y-28325000D01*
X69032666Y-28253571D01*
X68985047Y-28110714D01*
X68985047Y-28039285D01*
X69032666Y-27896428D01*
X69080285Y-27825000D01*
X69175523Y-27753571D01*
X69366000Y-27753571D01*
X69461238Y-27825000D01*
X69508857Y-27896428D01*
X69556476Y-28039285D01*
X69556476Y-28110714D01*
X69508857Y-28253571D01*
X69461238Y-28325000D01*
X69366000Y-28396428D01*
X69175523Y-28396428D01*
X69080285Y-28467857D01*
X69032666Y-28539285D01*
X68985047Y-28682142D01*
X68985047Y-28967857D01*
X69032666Y-29110714D01*
X69080285Y-29182142D01*
X69175523Y-29253571D01*
X69366000Y-29253571D01*
X69461238Y-29182142D01*
X69508857Y-29110714D01*
X69556476Y-28967857D01*
X69556476Y-28682142D01*
X69508857Y-28539285D01*
X69461238Y-28467857D01*
X69366000Y-28396428D01*
X70508857Y-29253571D02*
X69937428Y-29253571D01*
X70223142Y-29253571D02*
X70223142Y-27753571D01*
X70127904Y-27967857D01*
X70032666Y-28110714D01*
X69937428Y-28182142D01*
X70889809Y-27896428D02*
X70937428Y-27825000D01*
X71032666Y-27753571D01*
X71270761Y-27753571D01*
X71366000Y-27825000D01*
X71413619Y-27896428D01*
X71461238Y-28039285D01*
X71461238Y-28182142D01*
X71413619Y-28396428D01*
X70842190Y-29253571D01*
X71461238Y-29253571D01*
X73175523Y-27825000D02*
X73080285Y-27753571D01*
X72937428Y-27753571D01*
X72794571Y-27825000D01*
X72699333Y-27967857D01*
X72651714Y-28110714D01*
X72604095Y-28396428D01*
X72604095Y-28610714D01*
X72651714Y-28896428D01*
X72699333Y-29039285D01*
X72794571Y-29182142D01*
X72937428Y-29253571D01*
X73032666Y-29253571D01*
X73175523Y-29182142D01*
X73223142Y-29110714D01*
X73223142Y-28610714D01*
X73032666Y-28610714D01*
X74889809Y-27753571D02*
X74413619Y-27753571D01*
X74366000Y-28467857D01*
X74413619Y-28396428D01*
X74508857Y-28325000D01*
X74746952Y-28325000D01*
X74842190Y-28396428D01*
X74889809Y-28467857D01*
X74937428Y-28610714D01*
X74937428Y-28967857D01*
X74889809Y-29110714D01*
X74842190Y-29182142D01*
X74746952Y-29253571D01*
X74508857Y-29253571D01*
X74413619Y-29182142D01*
X74366000Y-29110714D01*
X75223142Y-27753571D02*
X75556476Y-29253571D01*
X75889809Y-27753571D01*
X44517166Y-78605571D02*
X44517166Y-79605571D01*
X44279071Y-78034142D02*
X44040976Y-79105571D01*
X44660023Y-79105571D01*
X45183833Y-78748428D02*
X45088595Y-78677000D01*
X45040976Y-78605571D01*
X44993357Y-78462714D01*
X44993357Y-78391285D01*
X45040976Y-78248428D01*
X45088595Y-78177000D01*
X45183833Y-78105571D01*
X45374309Y-78105571D01*
X45469547Y-78177000D01*
X45517166Y-78248428D01*
X45564785Y-78391285D01*
X45564785Y-78462714D01*
X45517166Y-78605571D01*
X45469547Y-78677000D01*
X45374309Y-78748428D01*
X45183833Y-78748428D01*
X45088595Y-78819857D01*
X45040976Y-78891285D01*
X44993357Y-79034142D01*
X44993357Y-79319857D01*
X45040976Y-79462714D01*
X45088595Y-79534142D01*
X45183833Y-79605571D01*
X45374309Y-79605571D01*
X45469547Y-79534142D01*
X45517166Y-79462714D01*
X45564785Y-79319857D01*
X45564785Y-79034142D01*
X45517166Y-78891285D01*
X45469547Y-78819857D01*
X45374309Y-78748428D01*
X45850500Y-78105571D02*
X46183833Y-79605571D01*
X46517166Y-78105571D01*
X44612404Y-80677000D02*
X44517166Y-80605571D01*
X44374309Y-80605571D01*
X44231452Y-80677000D01*
X44136214Y-80819857D01*
X44088595Y-80962714D01*
X44040976Y-81248428D01*
X44040976Y-81462714D01*
X44088595Y-81748428D01*
X44136214Y-81891285D01*
X44231452Y-82034142D01*
X44374309Y-82105571D01*
X44469547Y-82105571D01*
X44612404Y-82034142D01*
X44660023Y-81962714D01*
X44660023Y-81462714D01*
X44469547Y-81462714D01*
X45088595Y-82105571D02*
X45088595Y-80605571D01*
X45660023Y-82105571D01*
X45660023Y-80605571D01*
X46136214Y-82105571D02*
X46136214Y-80605571D01*
X46374309Y-80605571D01*
X46517166Y-80677000D01*
X46612404Y-80819857D01*
X46660023Y-80962714D01*
X46707642Y-81248428D01*
X46707642Y-81462714D01*
X46660023Y-81748428D01*
X46612404Y-81891285D01*
X46517166Y-82034142D01*
X46374309Y-82105571D01*
X46136214Y-82105571D01*
X44564785Y-84605571D02*
X44088595Y-84605571D01*
X44088595Y-83105571D01*
X44898119Y-83819857D02*
X45231452Y-83819857D01*
X45374309Y-84605571D02*
X44898119Y-84605571D01*
X44898119Y-83105571D01*
X45374309Y-83105571D01*
X45802880Y-84605571D02*
X45802880Y-83105571D01*
X46040976Y-83105571D01*
X46183833Y-83177000D01*
X46279071Y-83319857D01*
X46326690Y-83462714D01*
X46374309Y-83748428D01*
X46374309Y-83962714D01*
X46326690Y-84248428D01*
X46279071Y-84391285D01*
X46183833Y-84534142D01*
X46040976Y-84605571D01*
X45802880Y-84605571D01*
X46802880Y-84034142D02*
X47564785Y-84034142D01*
X44564785Y-87105571D02*
X44088595Y-87105571D01*
X44088595Y-85605571D01*
X44898119Y-86319857D02*
X45231452Y-86319857D01*
X45374309Y-87105571D02*
X44898119Y-87105571D01*
X44898119Y-85605571D01*
X45374309Y-85605571D01*
X45802880Y-87105571D02*
X45802880Y-85605571D01*
X46040976Y-85605571D01*
X46183833Y-85677000D01*
X46279071Y-85819857D01*
X46326690Y-85962714D01*
X46374309Y-86248428D01*
X46374309Y-86462714D01*
X46326690Y-86748428D01*
X46279071Y-86891285D01*
X46183833Y-87034142D01*
X46040976Y-87105571D01*
X45802880Y-87105571D01*
X46802880Y-86534142D02*
X47564785Y-86534142D01*
X47183833Y-87105571D02*
X47183833Y-85962714D01*
X45104595Y-24360571D02*
X45104595Y-22860571D01*
X45485547Y-22860571D01*
X45580785Y-22932000D01*
X45628404Y-23003428D01*
X45676023Y-23146285D01*
X45676023Y-23360571D01*
X45628404Y-23503428D01*
X45580785Y-23574857D01*
X45485547Y-23646285D01*
X45104595Y-23646285D01*
X46009357Y-22860571D02*
X46247452Y-24360571D01*
X46437928Y-23289142D01*
X46628404Y-24360571D01*
X46866500Y-22860571D01*
X47247452Y-24360571D02*
X47247452Y-22860571D01*
X47580785Y-23932000D01*
X47914119Y-22860571D01*
X47914119Y-24360571D01*
X48914119Y-24360571D02*
X48342690Y-24360571D01*
X48628404Y-24360571D02*
X48628404Y-22860571D01*
X48533166Y-23074857D01*
X48437928Y-23217714D01*
X48342690Y-23289142D01*
X49342690Y-24217714D02*
X49390309Y-24289142D01*
X49342690Y-24360571D01*
X49295071Y-24289142D01*
X49342690Y-24217714D01*
X49342690Y-24360571D01*
X49818880Y-24217714D02*
X49866500Y-24289142D01*
X49818880Y-24360571D01*
X49771261Y-24289142D01*
X49818880Y-24217714D01*
X49818880Y-24360571D01*
X50247452Y-23003428D02*
X50295071Y-22932000D01*
X50390309Y-22860571D01*
X50628404Y-22860571D01*
X50723642Y-22932000D01*
X50771261Y-23003428D01*
X50818880Y-23146285D01*
X50818880Y-23289142D01*
X50771261Y-23503428D01*
X50199833Y-24360571D01*
X50818880Y-24360571D01*
X45628404Y-25432000D02*
X45533166Y-25360571D01*
X45390309Y-25360571D01*
X45247452Y-25432000D01*
X45152214Y-25574857D01*
X45104595Y-25717714D01*
X45056976Y-26003428D01*
X45056976Y-26217714D01*
X45104595Y-26503428D01*
X45152214Y-26646285D01*
X45247452Y-26789142D01*
X45390309Y-26860571D01*
X45485547Y-26860571D01*
X45628404Y-26789142D01*
X45676023Y-26717714D01*
X45676023Y-26217714D01*
X45485547Y-26217714D01*
X46104595Y-26860571D02*
X46104595Y-25360571D01*
X46676023Y-26860571D01*
X46676023Y-25360571D01*
X47152214Y-26860571D02*
X47152214Y-25360571D01*
X47390309Y-25360571D01*
X47533166Y-25432000D01*
X47628404Y-25574857D01*
X47676023Y-25717714D01*
X47723642Y-26003428D01*
X47723642Y-26217714D01*
X47676023Y-26503428D01*
X47628404Y-26646285D01*
X47533166Y-26789142D01*
X47390309Y-26860571D01*
X47152214Y-26860571D01*
X45056976Y-28003428D02*
X45104595Y-27932000D01*
X45199833Y-27860571D01*
X45437928Y-27860571D01*
X45533166Y-27932000D01*
X45580785Y-28003428D01*
X45628404Y-28146285D01*
X45628404Y-28289142D01*
X45580785Y-28503428D01*
X45009357Y-29360571D01*
X45628404Y-29360571D01*
X46199833Y-27860571D02*
X46199833Y-28217714D01*
X45961738Y-28074857D02*
X46199833Y-28217714D01*
X46437928Y-28074857D01*
X46056976Y-28503428D02*
X46199833Y-28217714D01*
X46342690Y-28503428D01*
X46771261Y-28003428D02*
X46818880Y-27932000D01*
X46914119Y-27860571D01*
X47152214Y-27860571D01*
X47247452Y-27932000D01*
X47295071Y-28003428D01*
X47342690Y-28146285D01*
X47342690Y-28289142D01*
X47295071Y-28503428D01*
X46723642Y-29360571D01*
X47342690Y-29360571D01*
X48199833Y-28360571D02*
X48199833Y-29360571D01*
X47961738Y-27789142D02*
X47723642Y-28860571D01*
X48342690Y-28860571D01*
X48580785Y-27860571D02*
X48914119Y-29360571D01*
X49247452Y-27860571D01*
X45104595Y-31860571D02*
X45104595Y-30360571D01*
X45485547Y-30360571D01*
X45580785Y-30432000D01*
X45628404Y-30503428D01*
X45676023Y-30646285D01*
X45676023Y-30860571D01*
X45628404Y-31003428D01*
X45580785Y-31074857D01*
X45485547Y-31146285D01*
X45104595Y-31146285D01*
X46009357Y-30360571D02*
X46247452Y-31860571D01*
X46437928Y-30789142D01*
X46628404Y-31860571D01*
X46866500Y-30360571D01*
X47247452Y-31860571D02*
X47247452Y-30360571D01*
X47580785Y-31432000D01*
X47914119Y-30360571D01*
X47914119Y-31860571D01*
X48295071Y-30360571D02*
X48914119Y-30360571D01*
X48580785Y-30932000D01*
X48723642Y-30932000D01*
X48818880Y-31003428D01*
X48866500Y-31074857D01*
X48914119Y-31217714D01*
X48914119Y-31574857D01*
X48866500Y-31717714D01*
X48818880Y-31789142D01*
X48723642Y-31860571D01*
X48437928Y-31860571D01*
X48342690Y-31789142D01*
X48295071Y-31717714D01*
X49342690Y-31717714D02*
X49390309Y-31789142D01*
X49342690Y-31860571D01*
X49295071Y-31789142D01*
X49342690Y-31717714D01*
X49342690Y-31860571D01*
X49818880Y-31717714D02*
X49866500Y-31789142D01*
X49818880Y-31860571D01*
X49771261Y-31789142D01*
X49818880Y-31717714D01*
X49818880Y-31860571D01*
X50771261Y-30360571D02*
X50295071Y-30360571D01*
X50247452Y-31074857D01*
X50295071Y-31003428D01*
X50390309Y-30932000D01*
X50628404Y-30932000D01*
X50723642Y-31003428D01*
X50771261Y-31074857D01*
X50818880Y-31217714D01*
X50818880Y-31574857D01*
X50771261Y-31717714D01*
X50723642Y-31789142D01*
X50628404Y-31860571D01*
X50390309Y-31860571D01*
X50295071Y-31789142D01*
X50247452Y-31717714D01*
D12*
X77271714Y-49201761D02*
X77414571Y-49249380D01*
X77652666Y-49249380D01*
X77747904Y-49201761D01*
X77795523Y-49154142D01*
X77843142Y-49058904D01*
X77843142Y-48963666D01*
X77795523Y-48868428D01*
X77747904Y-48820809D01*
X77652666Y-48773190D01*
X77462190Y-48725571D01*
X77366952Y-48677952D01*
X77319333Y-48630333D01*
X77271714Y-48535095D01*
X77271714Y-48439857D01*
X77319333Y-48344619D01*
X77366952Y-48297000D01*
X77462190Y-48249380D01*
X77700285Y-48249380D01*
X77843142Y-48297000D01*
X78271714Y-49249380D02*
X78271714Y-48249380D01*
X78509809Y-48249380D01*
X78652666Y-48297000D01*
X78747904Y-48392238D01*
X78795523Y-48487476D01*
X78843142Y-48677952D01*
X78843142Y-48820809D01*
X78795523Y-49011285D01*
X78747904Y-49106523D01*
X78652666Y-49201761D01*
X78509809Y-49249380D01*
X78271714Y-49249380D01*
X79224095Y-48963666D02*
X79700285Y-48963666D01*
X79128857Y-49249380D02*
X79462190Y-48249380D01*
X79795523Y-49249380D01*
X77295523Y-50901761D02*
X77438380Y-50949380D01*
X77676476Y-50949380D01*
X77771714Y-50901761D01*
X77819333Y-50854142D01*
X77866952Y-50758904D01*
X77866952Y-50663666D01*
X77819333Y-50568428D01*
X77771714Y-50520809D01*
X77676476Y-50473190D01*
X77486000Y-50425571D01*
X77390761Y-50377952D01*
X77343142Y-50330333D01*
X77295523Y-50235095D01*
X77295523Y-50139857D01*
X77343142Y-50044619D01*
X77390761Y-49997000D01*
X77486000Y-49949380D01*
X77724095Y-49949380D01*
X77866952Y-49997000D01*
X78866952Y-50854142D02*
X78819333Y-50901761D01*
X78676476Y-50949380D01*
X78581238Y-50949380D01*
X78438380Y-50901761D01*
X78343142Y-50806523D01*
X78295523Y-50711285D01*
X78247904Y-50520809D01*
X78247904Y-50377952D01*
X78295523Y-50187476D01*
X78343142Y-50092238D01*
X78438380Y-49997000D01*
X78581238Y-49949380D01*
X78676476Y-49949380D01*
X78819333Y-49997000D01*
X78866952Y-50044619D01*
X79771714Y-50949380D02*
X79295523Y-50949380D01*
X79295523Y-49949380D01*
X77724095Y-51697000D02*
X77628857Y-51649380D01*
X77486000Y-51649380D01*
X77343142Y-51697000D01*
X77247904Y-51792238D01*
X77200285Y-51887476D01*
X77152666Y-52077952D01*
X77152666Y-52220809D01*
X77200285Y-52411285D01*
X77247904Y-52506523D01*
X77343142Y-52601761D01*
X77486000Y-52649380D01*
X77581238Y-52649380D01*
X77724095Y-52601761D01*
X77771714Y-52554142D01*
X77771714Y-52220809D01*
X77581238Y-52220809D01*
X78200285Y-52649380D02*
X78200285Y-51649380D01*
X78771714Y-52649380D01*
X78771714Y-51649380D01*
X79247904Y-52649380D02*
X79247904Y-51649380D01*
X79486000Y-51649380D01*
X79628857Y-51697000D01*
X79724095Y-51792238D01*
X79771714Y-51887476D01*
X79819333Y-52077952D01*
X79819333Y-52220809D01*
X79771714Y-52411285D01*
X79724095Y-52506523D01*
X79628857Y-52601761D01*
X79486000Y-52649380D01*
X79247904Y-52649380D01*
X77247904Y-53349380D02*
X77866952Y-53349380D01*
X77533619Y-53730333D01*
X77676476Y-53730333D01*
X77771714Y-53777952D01*
X77819333Y-53825571D01*
X77866952Y-53920809D01*
X77866952Y-54158904D01*
X77819333Y-54254142D01*
X77771714Y-54301761D01*
X77676476Y-54349380D01*
X77390761Y-54349380D01*
X77295523Y-54301761D01*
X77247904Y-54254142D01*
X78152666Y-53349380D02*
X78486000Y-54349380D01*
X78819333Y-53349380D01*
X79057428Y-53349380D02*
X79676476Y-53349380D01*
X79343142Y-53730333D01*
X79486000Y-53730333D01*
X79581238Y-53777952D01*
X79628857Y-53825571D01*
X79676476Y-53920809D01*
X79676476Y-54158904D01*
X79628857Y-54254142D01*
X79581238Y-54301761D01*
X79486000Y-54349380D01*
X79200285Y-54349380D01*
X79105047Y-54301761D01*
X79057428Y-54254142D01*
X78295523Y-55049380D02*
X77819333Y-55049380D01*
X77771714Y-55525571D01*
X77819333Y-55477952D01*
X77914571Y-55430333D01*
X78152666Y-55430333D01*
X78247904Y-55477952D01*
X78295523Y-55525571D01*
X78343142Y-55620809D01*
X78343142Y-55858904D01*
X78295523Y-55954142D01*
X78247904Y-56001761D01*
X78152666Y-56049380D01*
X77914571Y-56049380D01*
X77819333Y-56001761D01*
X77771714Y-55954142D01*
X78628857Y-55049380D02*
X78962190Y-56049380D01*
X79295523Y-55049380D01*
X66952380Y-61249714D02*
X66904761Y-61321142D01*
X66761904Y-61392571D01*
X66666666Y-61392571D01*
X66523809Y-61321142D01*
X66428571Y-61178285D01*
X66380952Y-61035428D01*
X66333333Y-60749714D01*
X66333333Y-60535428D01*
X66380952Y-60249714D01*
X66428571Y-60106857D01*
X66523809Y-59964000D01*
X66666666Y-59892571D01*
X66761904Y-59892571D01*
X66904761Y-59964000D01*
X66952380Y-60035428D01*
X67333333Y-60964000D02*
X67809523Y-60964000D01*
X67238095Y-61392571D02*
X67571428Y-59892571D01*
X67904761Y-61392571D01*
X68238095Y-61392571D02*
X68238095Y-59892571D01*
X68809523Y-61392571D01*
X68809523Y-59892571D01*
X69761904Y-61392571D02*
X69285714Y-61392571D01*
X69285714Y-59892571D01*
X66833333Y-63699714D02*
X66785714Y-63771142D01*
X66642857Y-63842571D01*
X66547619Y-63842571D01*
X66404761Y-63771142D01*
X66309523Y-63628285D01*
X66261904Y-63485428D01*
X66214285Y-63199714D01*
X66214285Y-62985428D01*
X66261904Y-62699714D01*
X66309523Y-62556857D01*
X66404761Y-62414000D01*
X66547619Y-62342571D01*
X66642857Y-62342571D01*
X66785714Y-62414000D01*
X66833333Y-62485428D01*
X67214285Y-63414000D02*
X67690476Y-63414000D01*
X67119047Y-63842571D02*
X67452380Y-62342571D01*
X67785714Y-63842571D01*
X68119047Y-63842571D02*
X68119047Y-62342571D01*
X68690476Y-63842571D01*
X68690476Y-62342571D01*
X69166666Y-63842571D02*
X69166666Y-62342571D01*
X69166666Y-63056857D02*
X69738095Y-63056857D01*
X69738095Y-63842571D02*
X69738095Y-62342571D01*
X66952380Y-66149714D02*
X66904761Y-66221142D01*
X66761904Y-66292571D01*
X66666666Y-66292571D01*
X66523809Y-66221142D01*
X66428571Y-66078285D01*
X66380952Y-65935428D01*
X66333333Y-65649714D01*
X66333333Y-65435428D01*
X66380952Y-65149714D01*
X66428571Y-65006857D01*
X66523809Y-64864000D01*
X66666666Y-64792571D01*
X66761904Y-64792571D01*
X66904761Y-64864000D01*
X66952380Y-64935428D01*
X67333333Y-65864000D02*
X67809523Y-65864000D01*
X67238095Y-66292571D02*
X67571428Y-64792571D01*
X67904761Y-66292571D01*
X68238095Y-66292571D02*
X68238095Y-64792571D01*
X68809523Y-66292571D01*
X68809523Y-64792571D01*
X69761904Y-66292571D02*
X69285714Y-66292571D01*
X69285714Y-64792571D01*
X66833333Y-68599714D02*
X66785714Y-68671142D01*
X66642857Y-68742571D01*
X66547619Y-68742571D01*
X66404761Y-68671142D01*
X66309523Y-68528285D01*
X66261904Y-68385428D01*
X66214285Y-68099714D01*
X66214285Y-67885428D01*
X66261904Y-67599714D01*
X66309523Y-67456857D01*
X66404761Y-67314000D01*
X66547619Y-67242571D01*
X66642857Y-67242571D01*
X66785714Y-67314000D01*
X66833333Y-67385428D01*
X67214285Y-68314000D02*
X67690476Y-68314000D01*
X67119047Y-68742571D02*
X67452380Y-67242571D01*
X67785714Y-68742571D01*
X68119047Y-68742571D02*
X68119047Y-67242571D01*
X68690476Y-68742571D01*
X68690476Y-67242571D01*
X69166666Y-68742571D02*
X69166666Y-67242571D01*
X69166666Y-67956857D02*
X69738095Y-67956857D01*
X69738095Y-68742571D02*
X69738095Y-67242571D01*
D13*
X56869000Y-93098252D02*
X56869000Y-92575748D01*
X55399000Y-93098252D02*
X55399000Y-92575748D01*
X41958400Y-98264000D02*
X52258400Y-98264000D01*
X41958400Y-87664000D02*
X52258400Y-87664000D01*
X35840000Y-96961252D02*
X35840000Y-95538748D01*
X37660000Y-96961252D02*
X37660000Y-95538748D01*
X66908000Y-88722252D02*
X66908000Y-87299748D01*
X68728000Y-88722252D02*
X68728000Y-87299748D01*
X69646748Y-91800000D02*
X71069252Y-91800000D01*
X69646748Y-93620000D02*
X71069252Y-93620000D01*
X73843000Y-98143000D02*
G75*
G03*
X73843000Y-98143000I-4120000J0D01*
G01*
X73803000Y-98143000D02*
X65643000Y-98143000D01*
X73803000Y-98183000D02*
X65643000Y-98183000D01*
X73803000Y-98223000D02*
X65643000Y-98223000D01*
X73802000Y-98263000D02*
X65644000Y-98263000D01*
X73800000Y-98303000D02*
X65646000Y-98303000D01*
X73799000Y-98343000D02*
X65647000Y-98343000D01*
X73797000Y-98383000D02*
X65649000Y-98383000D01*
X73794000Y-98423000D02*
X65652000Y-98423000D01*
X73791000Y-98463000D02*
X65655000Y-98463000D01*
X73788000Y-98503000D02*
X65658000Y-98503000D01*
X73784000Y-98543000D02*
X65662000Y-98543000D01*
X73780000Y-98583000D02*
X65666000Y-98583000D01*
X73775000Y-98623000D02*
X65671000Y-98623000D01*
X73771000Y-98663000D02*
X65675000Y-98663000D01*
X73765000Y-98703000D02*
X65681000Y-98703000D01*
X73760000Y-98743000D02*
X65686000Y-98743000D01*
X73753000Y-98783000D02*
X65693000Y-98783000D01*
X73747000Y-98823000D02*
X65699000Y-98823000D01*
X73740000Y-98864000D02*
X70763000Y-98864000D01*
X68683000Y-98864000D02*
X65706000Y-98864000D01*
X73733000Y-98904000D02*
X70763000Y-98904000D01*
X68683000Y-98904000D02*
X65713000Y-98904000D01*
X73725000Y-98944000D02*
X70763000Y-98944000D01*
X68683000Y-98944000D02*
X65721000Y-98944000D01*
X73717000Y-98984000D02*
X70763000Y-98984000D01*
X68683000Y-98984000D02*
X65729000Y-98984000D01*
X73708000Y-99024000D02*
X70763000Y-99024000D01*
X68683000Y-99024000D02*
X65738000Y-99024000D01*
X73699000Y-99064000D02*
X70763000Y-99064000D01*
X68683000Y-99064000D02*
X65747000Y-99064000D01*
X73690000Y-99104000D02*
X70763000Y-99104000D01*
X68683000Y-99104000D02*
X65756000Y-99104000D01*
X73680000Y-99144000D02*
X70763000Y-99144000D01*
X68683000Y-99144000D02*
X65766000Y-99144000D01*
X73670000Y-99184000D02*
X70763000Y-99184000D01*
X68683000Y-99184000D02*
X65776000Y-99184000D01*
X73659000Y-99224000D02*
X70763000Y-99224000D01*
X68683000Y-99224000D02*
X65787000Y-99224000D01*
X73648000Y-99264000D02*
X70763000Y-99264000D01*
X68683000Y-99264000D02*
X65798000Y-99264000D01*
X73637000Y-99304000D02*
X70763000Y-99304000D01*
X68683000Y-99304000D02*
X65809000Y-99304000D01*
X73625000Y-99344000D02*
X70763000Y-99344000D01*
X68683000Y-99344000D02*
X65821000Y-99344000D01*
X73612000Y-99384000D02*
X70763000Y-99384000D01*
X68683000Y-99384000D02*
X65834000Y-99384000D01*
X73600000Y-99424000D02*
X70763000Y-99424000D01*
X68683000Y-99424000D02*
X65846000Y-99424000D01*
X73586000Y-99464000D02*
X70763000Y-99464000D01*
X68683000Y-99464000D02*
X65860000Y-99464000D01*
X73573000Y-99504000D02*
X70763000Y-99504000D01*
X68683000Y-99504000D02*
X65873000Y-99504000D01*
X73558000Y-99544000D02*
X70763000Y-99544000D01*
X68683000Y-99544000D02*
X65888000Y-99544000D01*
X73544000Y-99584000D02*
X70763000Y-99584000D01*
X68683000Y-99584000D02*
X65902000Y-99584000D01*
X73528000Y-99624000D02*
X70763000Y-99624000D01*
X68683000Y-99624000D02*
X65918000Y-99624000D01*
X73513000Y-99664000D02*
X70763000Y-99664000D01*
X68683000Y-99664000D02*
X65933000Y-99664000D01*
X73497000Y-99704000D02*
X70763000Y-99704000D01*
X68683000Y-99704000D02*
X65949000Y-99704000D01*
X73480000Y-99744000D02*
X70763000Y-99744000D01*
X68683000Y-99744000D02*
X65966000Y-99744000D01*
X73463000Y-99784000D02*
X70763000Y-99784000D01*
X68683000Y-99784000D02*
X65983000Y-99784000D01*
X73445000Y-99824000D02*
X70763000Y-99824000D01*
X68683000Y-99824000D02*
X66001000Y-99824000D01*
X73427000Y-99864000D02*
X70763000Y-99864000D01*
X68683000Y-99864000D02*
X66019000Y-99864000D01*
X73409000Y-99904000D02*
X70763000Y-99904000D01*
X68683000Y-99904000D02*
X66037000Y-99904000D01*
X73389000Y-99944000D02*
X70763000Y-99944000D01*
X68683000Y-99944000D02*
X66057000Y-99944000D01*
X73370000Y-99984000D02*
X70763000Y-99984000D01*
X68683000Y-99984000D02*
X66076000Y-99984000D01*
X73350000Y-100024000D02*
X70763000Y-100024000D01*
X68683000Y-100024000D02*
X66096000Y-100024000D01*
X73329000Y-100064000D02*
X70763000Y-100064000D01*
X68683000Y-100064000D02*
X66117000Y-100064000D01*
X73307000Y-100104000D02*
X70763000Y-100104000D01*
X68683000Y-100104000D02*
X66139000Y-100104000D01*
X73285000Y-100144000D02*
X70763000Y-100144000D01*
X68683000Y-100144000D02*
X66161000Y-100144000D01*
X73263000Y-100184000D02*
X70763000Y-100184000D01*
X68683000Y-100184000D02*
X66183000Y-100184000D01*
X73240000Y-100224000D02*
X70763000Y-100224000D01*
X68683000Y-100224000D02*
X66206000Y-100224000D01*
X73216000Y-100264000D02*
X70763000Y-100264000D01*
X68683000Y-100264000D02*
X66230000Y-100264000D01*
X73192000Y-100304000D02*
X70763000Y-100304000D01*
X68683000Y-100304000D02*
X66254000Y-100304000D01*
X73167000Y-100344000D02*
X70763000Y-100344000D01*
X68683000Y-100344000D02*
X66279000Y-100344000D01*
X73141000Y-100384000D02*
X70763000Y-100384000D01*
X68683000Y-100384000D02*
X66305000Y-100384000D01*
X73115000Y-100424000D02*
X70763000Y-100424000D01*
X68683000Y-100424000D02*
X66331000Y-100424000D01*
X73088000Y-100464000D02*
X70763000Y-100464000D01*
X68683000Y-100464000D02*
X66358000Y-100464000D01*
X73061000Y-100504000D02*
X70763000Y-100504000D01*
X68683000Y-100504000D02*
X66385000Y-100504000D01*
X73032000Y-100544000D02*
X70763000Y-100544000D01*
X68683000Y-100544000D02*
X66414000Y-100544000D01*
X73003000Y-100584000D02*
X70763000Y-100584000D01*
X68683000Y-100584000D02*
X66443000Y-100584000D01*
X72973000Y-100624000D02*
X70763000Y-100624000D01*
X68683000Y-100624000D02*
X66473000Y-100624000D01*
X72943000Y-100664000D02*
X70763000Y-100664000D01*
X68683000Y-100664000D02*
X66503000Y-100664000D01*
X72912000Y-100704000D02*
X70763000Y-100704000D01*
X68683000Y-100704000D02*
X66534000Y-100704000D01*
X72879000Y-100744000D02*
X70763000Y-100744000D01*
X68683000Y-100744000D02*
X66567000Y-100744000D01*
X72847000Y-100784000D02*
X70763000Y-100784000D01*
X68683000Y-100784000D02*
X66599000Y-100784000D01*
X72813000Y-100824000D02*
X70763000Y-100824000D01*
X68683000Y-100824000D02*
X66633000Y-100824000D01*
X72778000Y-100864000D02*
X70763000Y-100864000D01*
X68683000Y-100864000D02*
X66668000Y-100864000D01*
X72742000Y-100904000D02*
X70763000Y-100904000D01*
X68683000Y-100904000D02*
X66704000Y-100904000D01*
X72706000Y-100944000D02*
X66740000Y-100944000D01*
X72668000Y-100984000D02*
X66778000Y-100984000D01*
X72630000Y-101024000D02*
X66816000Y-101024000D01*
X72590000Y-101064000D02*
X66856000Y-101064000D01*
X72549000Y-101104000D02*
X66897000Y-101104000D01*
X72507000Y-101144000D02*
X66939000Y-101144000D01*
X72464000Y-101184000D02*
X66982000Y-101184000D01*
X72420000Y-101224000D02*
X67026000Y-101224000D01*
X72374000Y-101264000D02*
X67072000Y-101264000D01*
X72327000Y-101304000D02*
X67119000Y-101304000D01*
X72279000Y-101344000D02*
X67167000Y-101344000D01*
X72228000Y-101384000D02*
X67218000Y-101384000D01*
X72177000Y-101424000D02*
X67269000Y-101424000D01*
X72123000Y-101464000D02*
X67323000Y-101464000D01*
X72068000Y-101504000D02*
X67378000Y-101504000D01*
X72010000Y-101544000D02*
X67436000Y-101544000D01*
X71951000Y-101584000D02*
X67495000Y-101584000D01*
X71889000Y-101624000D02*
X67557000Y-101624000D01*
X71825000Y-101664000D02*
X67621000Y-101664000D01*
X71757000Y-101704000D02*
X67689000Y-101704000D01*
X71687000Y-101744000D02*
X67759000Y-101744000D01*
X71613000Y-101784000D02*
X67833000Y-101784000D01*
X71536000Y-101824000D02*
X67910000Y-101824000D01*
X71454000Y-101864000D02*
X67992000Y-101864000D01*
X71368000Y-101904000D02*
X68078000Y-101904000D01*
X71275000Y-101944000D02*
X68171000Y-101944000D01*
X71176000Y-101984000D02*
X68270000Y-101984000D01*
X71069000Y-102024000D02*
X68377000Y-102024000D01*
X70952000Y-102064000D02*
X68494000Y-102064000D01*
X70821000Y-102104000D02*
X68625000Y-102104000D01*
X70671000Y-102144000D02*
X68775000Y-102144000D01*
X70491000Y-102184000D02*
X68955000Y-102184000D01*
X70256000Y-102224000D02*
X69190000Y-102224000D01*
X72038000Y-93733302D02*
X72038000Y-94533302D01*
X72438000Y-94133302D02*
X71638000Y-94133302D01*
X80514500Y-71243500D02*
X79184500Y-71243500D01*
X80514500Y-69913500D02*
X80514500Y-71243500D01*
X80514500Y-68643500D02*
X77854500Y-68643500D01*
X77854500Y-68643500D02*
X77854500Y-66043500D01*
X80514500Y-68643500D02*
X80514500Y-66043500D01*
X80514500Y-66043500D02*
X77854500Y-66043500D01*
X49284000Y-32458000D02*
X48904000Y-32458000D01*
X49284000Y-26038000D02*
X49284000Y-32458000D01*
X67524000Y-26038000D02*
X67524000Y-32458000D01*
X49284000Y-26038000D02*
X67524000Y-26038000D01*
X67524000Y-51783000D02*
X66524000Y-51783000D01*
X67524000Y-51003000D02*
X67524000Y-51783000D01*
X49284000Y-51783000D02*
X50284000Y-51783000D01*
X49284000Y-51003000D02*
X49284000Y-51783000D01*
X76377748Y-63965500D02*
X77800252Y-63965500D01*
X76377748Y-62145500D02*
X77800252Y-62145500D01*
X76377748Y-61552500D02*
X77800252Y-61552500D01*
X76377748Y-59732500D02*
X77800252Y-59732500D01*
X76377748Y-59139500D02*
X77800252Y-59139500D01*
X76377748Y-57319500D02*
X77800252Y-57319500D01*
X80077000Y-59877000D02*
X82737000Y-59877000D01*
X80077000Y-44577000D02*
X80077000Y-59877000D01*
X82737000Y-44577000D02*
X82737000Y-59877000D01*
X80077000Y-44577000D02*
X82737000Y-44577000D01*
X80077000Y-43307000D02*
X80077000Y-41977000D01*
X80077000Y-41977000D02*
X81407000Y-41977000D01*
X24008000Y-98852000D02*
X24008000Y-98252000D01*
X24608000Y-98552000D02*
X24008000Y-98852000D01*
X24008000Y-98252000D02*
X24608000Y-98552000D01*
X31918000Y-90932000D02*
X31918000Y-91472000D01*
X31918000Y-100552000D02*
X31918000Y-101092000D01*
X31918000Y-96552000D02*
X31918000Y-95472000D01*
X33588000Y-101092000D02*
X33588000Y-90932000D01*
X33588000Y-90932000D02*
X25018000Y-90932000D01*
X25018000Y-90932000D02*
X25018000Y-101092000D01*
X25018000Y-101092000D02*
X33588000Y-101092000D01*
X26598000Y-101092000D02*
X26598000Y-90932000D01*
X31933821Y-91485159D02*
G75*
G02*
X31918000Y-95472000I-1665821J-1986841D01*
G01*
X31933821Y-96565159D02*
G75*
G02*
X31918000Y-100552000I-1665821J-1986841D01*
G01*
X24008000Y-86025000D02*
X24008000Y-85425000D01*
X24608000Y-85725000D02*
X24008000Y-86025000D01*
X24008000Y-85425000D02*
X24608000Y-85725000D01*
X31918000Y-78105000D02*
X31918000Y-78645000D01*
X31918000Y-87725000D02*
X31918000Y-88265000D01*
X31918000Y-83725000D02*
X31918000Y-82645000D01*
X33588000Y-88265000D02*
X33588000Y-78105000D01*
X33588000Y-78105000D02*
X25018000Y-78105000D01*
X25018000Y-78105000D02*
X25018000Y-88265000D01*
X25018000Y-88265000D02*
X33588000Y-88265000D01*
X26598000Y-88265000D02*
X26598000Y-78105000D01*
X31933821Y-78658159D02*
G75*
G02*
X31918000Y-82645000I-1665821J-1986841D01*
G01*
X31933821Y-83738159D02*
G75*
G02*
X31918000Y-87725000I-1665821J-1986841D01*
G01*
X34539000Y-33355000D02*
X34539000Y-33955000D01*
X33939000Y-33655000D02*
X34539000Y-33355000D01*
X34539000Y-33955000D02*
X33939000Y-33655000D01*
X26629000Y-41275000D02*
X26629000Y-40735000D01*
X26629000Y-31655000D02*
X26629000Y-31115000D01*
X26629000Y-35655000D02*
X26629000Y-36735000D01*
X24959000Y-31115000D02*
X24959000Y-41275000D01*
X24959000Y-41275000D02*
X33529000Y-41275000D01*
X33529000Y-41275000D02*
X33529000Y-31115000D01*
X33529000Y-31115000D02*
X24959000Y-31115000D01*
X31949000Y-31115000D02*
X31949000Y-41275000D01*
X26613179Y-40721841D02*
G75*
G02*
X26629000Y-36735000I1665821J1986841D01*
G01*
X26613179Y-35641841D02*
G75*
G02*
X26629000Y-31655000I1665821J1986841D01*
G01*
X32808000Y-21951000D02*
X25338000Y-21951000D01*
X25338000Y-21951000D02*
X25338000Y-30571000D01*
X25338000Y-30571000D02*
X32808000Y-30571000D01*
X32808000Y-30571000D02*
X32808000Y-21951000D01*
X26198000Y-23761000D02*
X26198000Y-23011000D01*
X26198000Y-23011000D02*
X30498000Y-23011000D01*
X30498000Y-23011000D02*
X30498000Y-23761000D01*
X30498000Y-23761000D02*
X30848000Y-23761000D01*
X30848000Y-23761000D02*
X30848000Y-23261000D01*
X30848000Y-23261000D02*
X31848000Y-23011000D01*
X31848000Y-23011000D02*
X31848000Y-26011000D01*
X31848000Y-26011000D02*
X30848000Y-25761000D01*
X30848000Y-25761000D02*
X30848000Y-25261000D01*
X30848000Y-25261000D02*
X30498000Y-25261000D01*
X30498000Y-25261000D02*
X30498000Y-26011000D01*
X30498000Y-26011000D02*
X26198000Y-26011000D01*
X26198000Y-26011000D02*
X26198000Y-25261000D01*
X26198000Y-27261000D02*
X26198000Y-26511000D01*
X26198000Y-26511000D02*
X30498000Y-26511000D01*
X30498000Y-26511000D02*
X30498000Y-27261000D01*
X30498000Y-27261000D02*
X30848000Y-27261000D01*
X30848000Y-27261000D02*
X30848000Y-26761000D01*
X30848000Y-26761000D02*
X31848000Y-26511000D01*
X31848000Y-26511000D02*
X31848000Y-29511000D01*
X31848000Y-29511000D02*
X30848000Y-29261000D01*
X30848000Y-29261000D02*
X30848000Y-28761000D01*
X30848000Y-28761000D02*
X30498000Y-28761000D01*
X30498000Y-28761000D02*
X30498000Y-29511000D01*
X30498000Y-29511000D02*
X26198000Y-29511000D01*
X26198000Y-29511000D02*
X26198000Y-28761000D01*
X31948000Y-21561000D02*
X33198000Y-21561000D01*
X33198000Y-21561000D02*
X33198000Y-23561000D01*
X26198155Y-28760647D02*
G75*
G03*
X26198000Y-27261000I-1700155J749647D01*
G01*
X26198155Y-25260647D02*
G75*
G03*
X26198000Y-23761000I-1700155J749647D01*
G01*
X81494000Y-33528000D02*
X81494000Y-29128000D01*
X81494000Y-29128000D02*
X76494000Y-29128000D01*
X76494000Y-29128000D02*
X76494000Y-37928000D01*
X76494000Y-37928000D02*
X81494000Y-37928000D01*
X81494000Y-37928000D02*
X81494000Y-33528000D01*
X76494000Y-32328000D02*
X77294000Y-32328000D01*
X77294000Y-32328000D02*
X77294000Y-34728000D01*
X77294000Y-34728000D02*
X76494000Y-34728000D01*
D12*
X115912000Y-86766000D02*
G75*
G03*
X115912000Y-86766000I-100000J0D01*
G01*
D14*
X77012000Y-95066000D02*
X115012000Y-95066000D01*
X77012000Y-72066000D02*
X77012000Y-95066000D01*
X115012000Y-72066000D02*
X77012000Y-72066000D01*
X115012000Y-95066000D02*
X115012000Y-72066000D01*
D13*
X63076500Y-67259252D02*
X63076500Y-65836748D01*
X61256500Y-67259252D02*
X61256500Y-65836748D01*
X65426000Y-67259252D02*
X65426000Y-65836748D01*
X63606000Y-67259252D02*
X63606000Y-65836748D01*
X60375748Y-78189500D02*
X61798252Y-78189500D01*
X60375748Y-76369500D02*
X61798252Y-76369500D01*
X70620500Y-48205000D02*
X70650500Y-48205000D01*
X77080500Y-48205000D02*
X77050500Y-48205000D01*
X77080500Y-54665000D02*
X77050500Y-54665000D01*
X70650500Y-54665000D02*
X70620500Y-54665000D01*
X72550500Y-48205000D02*
X75150500Y-48205000D01*
X70620500Y-54665000D02*
X70620500Y-48205000D01*
X72550500Y-54665000D02*
X75150500Y-54665000D01*
X77080500Y-54665000D02*
X77080500Y-48205000D01*
X38852500Y-31870000D02*
X38852500Y-29852000D01*
X42553500Y-31870000D02*
X42553500Y-29852000D01*
X37060500Y-29110000D02*
X35453500Y-29110000D01*
X39600500Y-29110000D02*
X39265500Y-29110000D01*
X42140500Y-29110000D02*
X41805500Y-29110000D01*
X45953500Y-29110000D02*
X44346500Y-29110000D01*
X35453500Y-31870000D02*
X35453500Y-26929000D01*
X45953500Y-31870000D02*
X45953500Y-26929000D01*
X45953500Y-26929000D02*
X35453500Y-26929000D01*
X45953500Y-31870000D02*
X35453500Y-31870000D01*
X50182500Y-56433500D02*
X50782500Y-56433500D01*
X49482500Y-59883500D02*
X49482500Y-57083500D01*
X50782500Y-60533500D02*
X50182500Y-60533500D01*
X51482500Y-57083500D02*
X51482500Y-59883500D01*
X50782500Y-56433500D02*
G75*
G02*
X51482500Y-57133500I0J-700000D01*
G01*
X49482500Y-57133500D02*
G75*
G02*
X50182500Y-56433500I700000J0D01*
G01*
X50182500Y-60533500D02*
G75*
G02*
X49482500Y-59833500I0J700000D01*
G01*
X51482500Y-59833500D02*
G75*
G02*
X50782500Y-60533500I-700000J0D01*
G01*
X77433500Y-46108252D02*
X77433500Y-45585748D01*
X78903500Y-46108252D02*
X78903500Y-45585748D01*
X40651000Y-82127000D02*
X40651000Y-80927000D01*
X40651000Y-70527000D02*
X40651000Y-71727000D01*
X40651000Y-82127000D02*
X34651000Y-82127000D01*
X34651000Y-82127000D02*
X34651000Y-70527000D01*
X34651000Y-70527000D02*
X40651000Y-70527000D01*
X64048000Y-101810000D02*
X64048000Y-97610000D01*
X61448000Y-101810000D02*
X64048000Y-101810000D01*
X43648000Y-101810000D02*
X43648000Y-97610000D01*
X46248000Y-101810000D02*
X43648000Y-101810000D01*
X43648000Y-58210000D02*
X43648000Y-61510000D01*
X46248000Y-58210000D02*
X43648000Y-58210000D01*
X64048000Y-58210000D02*
X64048000Y-61510000D01*
X61448000Y-58210000D02*
X64048000Y-58210000D01*
D15*
X75779000Y-42679000D02*
X75779000Y-43679000D01*
X74279000Y-45679000D02*
X72279000Y-45679000D01*
X70779000Y-42679000D02*
X70779000Y-43679000D01*
X74279000Y-40679000D02*
X72279000Y-40679000D01*
X73529000Y-45279000D02*
X74279000Y-44829000D01*
X73529000Y-44379000D02*
X73529000Y-45279000D01*
X74279000Y-44829000D02*
X73529000Y-44379000D01*
D13*
X51689000Y-74676000D02*
X51689000Y-74676000D01*
X51689000Y-64008000D02*
X51689000Y-74676000D01*
X52019000Y-75252000D02*
X52019000Y-75252000D01*
X51435000Y-71882000D02*
X51435000Y-71882000D01*
X49149000Y-71882000D02*
X51435000Y-71882000D01*
X49149000Y-74168000D02*
X49149000Y-71882000D01*
X51689000Y-64008000D02*
X51689000Y-64008000D01*
X46355000Y-64008000D02*
X51689000Y-64008000D01*
X46355000Y-74676000D02*
X46355000Y-64008000D01*
X51689000Y-74676000D02*
X46355000Y-74676000D01*
D12*
X94650000Y-63549000D02*
G75*
G03*
X94650000Y-63549000I-100000J0D01*
G01*
D14*
X94200000Y-61389000D02*
X94200000Y-59139000D01*
X96500000Y-56689000D02*
X114700000Y-56689000D01*
X114700000Y-56689000D02*
X114700000Y-61389000D01*
X107700000Y-63889000D02*
X112500000Y-63889000D01*
X105800000Y-63889000D02*
X96300000Y-63889000D01*
D13*
X32808000Y-58273000D02*
X25338000Y-58273000D01*
X25338000Y-58273000D02*
X25338000Y-73893000D01*
X25338000Y-73893000D02*
X32808000Y-73893000D01*
X32808000Y-73893000D02*
X32808000Y-58273000D01*
X26198000Y-60083000D02*
X26198000Y-59333000D01*
X26198000Y-59333000D02*
X30498000Y-59333000D01*
X30498000Y-59333000D02*
X30498000Y-60083000D01*
X30498000Y-60083000D02*
X30848000Y-60083000D01*
X30848000Y-60083000D02*
X30848000Y-59583000D01*
X30848000Y-59583000D02*
X31848000Y-59333000D01*
X31848000Y-59333000D02*
X31848000Y-62333000D01*
X31848000Y-62333000D02*
X30848000Y-62083000D01*
X30848000Y-62083000D02*
X30848000Y-61583000D01*
X30848000Y-61583000D02*
X30498000Y-61583000D01*
X30498000Y-61583000D02*
X30498000Y-62333000D01*
X30498000Y-62333000D02*
X26198000Y-62333000D01*
X26198000Y-62333000D02*
X26198000Y-61583000D01*
X26198000Y-63583000D02*
X26198000Y-62833000D01*
X26198000Y-62833000D02*
X30498000Y-62833000D01*
X30498000Y-62833000D02*
X30498000Y-63583000D01*
X30498000Y-63583000D02*
X30848000Y-63583000D01*
X30848000Y-63583000D02*
X30848000Y-63083000D01*
X30848000Y-63083000D02*
X31848000Y-62833000D01*
X31848000Y-62833000D02*
X31848000Y-65833000D01*
X31848000Y-65833000D02*
X30848000Y-65583000D01*
X30848000Y-65583000D02*
X30848000Y-65083000D01*
X30848000Y-65083000D02*
X30498000Y-65083000D01*
X30498000Y-65083000D02*
X30498000Y-65833000D01*
X30498000Y-65833000D02*
X26198000Y-65833000D01*
X26198000Y-65833000D02*
X26198000Y-65083000D01*
X26198000Y-67083000D02*
X26198000Y-66333000D01*
X26198000Y-66333000D02*
X30498000Y-66333000D01*
X30498000Y-66333000D02*
X30498000Y-67083000D01*
X30498000Y-67083000D02*
X30848000Y-67083000D01*
X30848000Y-67083000D02*
X30848000Y-66583000D01*
X30848000Y-66583000D02*
X31848000Y-66333000D01*
X31848000Y-66333000D02*
X31848000Y-69333000D01*
X31848000Y-69333000D02*
X30848000Y-69083000D01*
X30848000Y-69083000D02*
X30848000Y-68583000D01*
X30848000Y-68583000D02*
X30498000Y-68583000D01*
X30498000Y-68583000D02*
X30498000Y-69333000D01*
X30498000Y-69333000D02*
X26198000Y-69333000D01*
X26198000Y-69333000D02*
X26198000Y-68583000D01*
X26198000Y-70583000D02*
X26198000Y-69833000D01*
X26198000Y-69833000D02*
X30498000Y-69833000D01*
X30498000Y-69833000D02*
X30498000Y-70583000D01*
X30498000Y-70583000D02*
X30848000Y-70583000D01*
X30848000Y-70583000D02*
X30848000Y-70083000D01*
X30848000Y-70083000D02*
X31848000Y-69833000D01*
X31848000Y-69833000D02*
X31848000Y-72833000D01*
X31848000Y-72833000D02*
X30848000Y-72583000D01*
X30848000Y-72583000D02*
X30848000Y-72083000D01*
X30848000Y-72083000D02*
X30498000Y-72083000D01*
X30498000Y-72083000D02*
X30498000Y-72833000D01*
X30498000Y-72833000D02*
X26198000Y-72833000D01*
X26198000Y-72833000D02*
X26198000Y-72083000D01*
X31948000Y-57883000D02*
X33198000Y-57883000D01*
X33198000Y-57883000D02*
X33198000Y-59883000D01*
X26198155Y-72082647D02*
G75*
G03*
X26198000Y-70583000I-1700155J749647D01*
G01*
X26198155Y-68582647D02*
G75*
G03*
X26198000Y-67083000I-1700155J749647D01*
G01*
X26198155Y-65082647D02*
G75*
G03*
X26198000Y-63583000I-1700155J749647D01*
G01*
X26198155Y-61582647D02*
G75*
G03*
X26198000Y-60083000I-1700155J749647D01*
G01*
X81265500Y-68559500D02*
X93265500Y-68559500D01*
X93265500Y-68559500D02*
X93265500Y-56559500D01*
X93265500Y-56559500D02*
X81265500Y-56559500D01*
X81265500Y-56559500D02*
X81265500Y-68559500D01*
X42613200Y-69927000D02*
X44893200Y-69927000D01*
X42613200Y-70217000D02*
X42613200Y-69927000D01*
X39193200Y-70217000D02*
X42613200Y-70217000D01*
X35773200Y-70217000D02*
X35773200Y-69927000D01*
X39193200Y-70217000D02*
X35773200Y-70217000D01*
X42613200Y-60847000D02*
X42613200Y-61137000D01*
X39193200Y-60847000D02*
X42613200Y-60847000D01*
X35773200Y-60847000D02*
X35773200Y-61137000D01*
X39193200Y-60847000D02*
X35773200Y-60847000D01*
X42947000Y-78409748D02*
X42947000Y-79832252D01*
X41127000Y-78409748D02*
X41127000Y-79832252D01*
X86026000Y-40747000D02*
X80056000Y-40747000D01*
X80056000Y-40747000D02*
X80056000Y-55867000D01*
X80056000Y-55867000D02*
X86026000Y-55867000D01*
X86026000Y-55867000D02*
X86026000Y-40747000D01*
X86016000Y-44057000D02*
X85266000Y-44057000D01*
X85266000Y-44057000D02*
X85266000Y-52557000D01*
X85266000Y-52557000D02*
X86016000Y-52557000D01*
X86016000Y-52557000D02*
X86016000Y-44057000D01*
X86016000Y-40757000D02*
X85266000Y-40757000D01*
X85266000Y-40757000D02*
X85266000Y-42557000D01*
X85266000Y-42557000D02*
X86016000Y-42557000D01*
X86016000Y-42557000D02*
X86016000Y-40757000D01*
X86016000Y-54057000D02*
X85266000Y-54057000D01*
X85266000Y-54057000D02*
X85266000Y-55857000D01*
X85266000Y-55857000D02*
X86016000Y-55857000D01*
X86016000Y-55857000D02*
X86016000Y-54057000D01*
X83766000Y-40757000D02*
X83766000Y-41507000D01*
X83766000Y-41507000D02*
X80816000Y-41507000D01*
X80816000Y-41507000D02*
X80816000Y-48307000D01*
X83766000Y-55857000D02*
X83766000Y-55107000D01*
X83766000Y-55107000D02*
X80816000Y-55107000D01*
X80816000Y-55107000D02*
X80816000Y-48307000D01*
X86316000Y-41707000D02*
X86316000Y-40457000D01*
X86316000Y-40457000D02*
X85066000Y-40457000D01*
X43087800Y-32034600D02*
X40227800Y-32034600D01*
X40227800Y-32034600D02*
X40227800Y-33954600D01*
X40227800Y-33954600D02*
X43087800Y-33954600D01*
X38084000Y-56190000D02*
X35224000Y-56190000D01*
X35224000Y-56190000D02*
X35224000Y-58110000D01*
X35224000Y-58110000D02*
X38084000Y-58110000D01*
X41121064Y-57885000D02*
X40666936Y-57885000D01*
X41121064Y-56415000D02*
X40666936Y-56415000D01*
D12*
X94650000Y-43863000D02*
G75*
G03*
X94650000Y-43863000I-100000J0D01*
G01*
D14*
X94200000Y-41703000D02*
X94200000Y-39453000D01*
X96500000Y-37003000D02*
X114700000Y-37003000D01*
X114700000Y-37003000D02*
X114700000Y-41703000D01*
X107700000Y-44203000D02*
X112500000Y-44203000D01*
X105800000Y-44203000D02*
X96300000Y-44203000D01*
D16*
X98207000Y-100948000D02*
X110207000Y-100948000D01*
X98207000Y-97048000D02*
X110207000Y-97048000D01*
X110207000Y-97048000D02*
X110207000Y-100948000D01*
X98207000Y-97048000D02*
X98207000Y-100948000D01*
D13*
X33587000Y-74450000D02*
X33587000Y-76200000D01*
X25087000Y-74450000D02*
X33587000Y-74450000D01*
X25087000Y-77950000D02*
X25087000Y-74450000D01*
X33587000Y-77950000D02*
X25087000Y-77950000D01*
X33587000Y-76200000D02*
X33587000Y-77950000D01*
D12*
X94650000Y-71168000D02*
G75*
G03*
X94650000Y-71168000I-100000J0D01*
G01*
D14*
X94200000Y-69008000D02*
X94200000Y-66758000D01*
X96500000Y-64308000D02*
X114700000Y-64308000D01*
X114700000Y-64308000D02*
X114700000Y-69008000D01*
X107700000Y-71508000D02*
X112500000Y-71508000D01*
X105800000Y-71508000D02*
X96300000Y-71508000D01*
D13*
X93825000Y-40150000D02*
X93825000Y-28150000D01*
X93825000Y-28150000D02*
X81825000Y-28150000D01*
X81825000Y-28150000D02*
X81825000Y-40150000D01*
X81825000Y-40150000D02*
X93825000Y-40150000D01*
X64545000Y-82268000D02*
X76545000Y-82268000D01*
X76545000Y-82268000D02*
X76545000Y-70268000D01*
X76545000Y-70268000D02*
X64545000Y-70268000D01*
X64545000Y-70268000D02*
X64545000Y-82268000D01*
D12*
X94650000Y-55928000D02*
G75*
G03*
X94650000Y-55928000I-100000J0D01*
G01*
D14*
X94200000Y-53768000D02*
X94200000Y-51518000D01*
X96500000Y-49068000D02*
X114700000Y-49068000D01*
X114700000Y-49068000D02*
X114700000Y-53768000D01*
X107700000Y-56268000D02*
X112500000Y-56268000D01*
X105800000Y-56268000D02*
X96300000Y-56268000D01*
D12*
X94650000Y-36243000D02*
G75*
G03*
X94650000Y-36243000I-100000J0D01*
G01*
D14*
X94200000Y-34083000D02*
X94200000Y-31833000D01*
X96500000Y-29383000D02*
X114700000Y-29383000D01*
X114700000Y-29383000D02*
X114700000Y-34083000D01*
X107700000Y-36583000D02*
X112500000Y-36583000D01*
X105800000Y-36583000D02*
X96300000Y-36583000D01*
D12*
X94650000Y-28623000D02*
G75*
G03*
X94650000Y-28623000I-100000J0D01*
G01*
D14*
X94200000Y-26463000D02*
X94200000Y-24213000D01*
X96500000Y-21763000D02*
X114700000Y-21763000D01*
X114700000Y-21763000D02*
X114700000Y-26463000D01*
X107700000Y-28963000D02*
X112500000Y-28963000D01*
X105800000Y-28963000D02*
X96300000Y-28963000D01*
D13*
X97361000Y-100968000D02*
X86121000Y-100968000D01*
X97361000Y-95628000D02*
X86121000Y-95628000D01*
X97361000Y-100968000D02*
X97361000Y-99223000D01*
X97361000Y-97373000D02*
X97361000Y-95628000D01*
X86121000Y-100968000D02*
X86121000Y-99223000D01*
X86121000Y-97373000D02*
X86121000Y-95628000D01*
X124756000Y-97790000D02*
G75*
G03*
X124756000Y-97790000I-4360000J0D01*
G01*
X56956000Y-55686000D02*
X56956000Y-53026000D01*
X49276000Y-55686000D02*
X56956000Y-55686000D01*
X49276000Y-53026000D02*
X56956000Y-53026000D01*
X49276000Y-55686000D02*
X49276000Y-53026000D01*
X48006000Y-55686000D02*
X46676000Y-55686000D01*
X46676000Y-55686000D02*
X46676000Y-54356000D01*
X61725000Y-55356000D02*
X58925000Y-55356000D01*
X58275000Y-54656000D02*
X58275000Y-54056000D01*
X58925000Y-53356000D02*
X61725000Y-53356000D01*
X62375000Y-54056000D02*
X62375000Y-54656000D01*
X62375000Y-54656000D02*
G75*
G02*
X61675000Y-55356000I-700000J0D01*
G01*
X61675000Y-53356000D02*
G75*
G02*
X62375000Y-54056000I0J-700000D01*
G01*
X58275000Y-54056000D02*
G75*
G02*
X58975000Y-53356000I700000J0D01*
G01*
X58975000Y-55356000D02*
G75*
G02*
X58275000Y-54656000I0J700000D01*
G01*
X60375748Y-75840000D02*
X61798252Y-75840000D01*
X60375748Y-74020000D02*
X61798252Y-74020000D01*
X60375748Y-73490500D02*
X61798252Y-73490500D01*
X60375748Y-71670500D02*
X61798252Y-71670500D01*
X64065000Y-80264000D02*
G75*
G03*
X64065000Y-80264000I-1200000J0D01*
G01*
X125344000Y-80853000D02*
X125344000Y-81453000D01*
X124744000Y-81153000D02*
X125344000Y-80853000D01*
X125344000Y-81453000D02*
X124744000Y-81153000D01*
X117434000Y-91783000D02*
X117434000Y-90773000D01*
X122734000Y-91783000D02*
X117434000Y-91783000D01*
X122734000Y-78143000D02*
X122734000Y-91783000D01*
X117434000Y-78143000D02*
X122734000Y-78143000D01*
X117434000Y-79153000D02*
X117434000Y-78143000D01*
X117434000Y-83153000D02*
X117434000Y-86773000D01*
X122734000Y-89773000D02*
X122734000Y-87773000D01*
X124544000Y-89773000D02*
X122734000Y-89773000D01*
X124544000Y-87773000D02*
X124544000Y-89773000D01*
X122734000Y-87773000D02*
X124544000Y-87773000D01*
X122734000Y-82153000D02*
X122734000Y-80153000D01*
X124544000Y-82153000D02*
X122734000Y-82153000D01*
X124544000Y-80153000D02*
X124544000Y-82153000D01*
X122734000Y-80153000D02*
X124544000Y-80153000D01*
X123734000Y-82153000D02*
X123734000Y-87773000D01*
X123734000Y-92693000D02*
X123734000Y-89883000D01*
X123734000Y-77233000D02*
X123734000Y-80043000D01*
X124544000Y-92693000D02*
X124544000Y-77233000D01*
X115724000Y-92693000D02*
X124544000Y-92693000D01*
X115724000Y-77233000D02*
X115724000Y-92693000D01*
X124544000Y-77233000D02*
X115724000Y-77233000D01*
X117418179Y-90759841D02*
G75*
G02*
X117434000Y-86773000I1665821J1986841D01*
G01*
X117418179Y-83139841D02*
G75*
G02*
X117434000Y-79153000I1665821J1986841D01*
G01*
X125344000Y-56850000D02*
X125344000Y-57450000D01*
X124744000Y-57150000D02*
X125344000Y-56850000D01*
X125344000Y-57450000D02*
X124744000Y-57150000D01*
X117434000Y-75400000D02*
X117434000Y-74390000D01*
X122734000Y-75400000D02*
X117434000Y-75400000D01*
X122734000Y-54140000D02*
X122734000Y-75400000D01*
X117434000Y-54140000D02*
X122734000Y-54140000D01*
X117434000Y-55150000D02*
X117434000Y-54140000D01*
X117434000Y-66770000D02*
X117434000Y-70390000D01*
X117434000Y-59150000D02*
X117434000Y-62770000D01*
X122734000Y-73390000D02*
X122734000Y-71390000D01*
X124544000Y-73390000D02*
X122734000Y-73390000D01*
X124544000Y-71390000D02*
X124544000Y-73390000D01*
X122734000Y-71390000D02*
X124544000Y-71390000D01*
X122734000Y-65770000D02*
X122734000Y-63770000D01*
X124544000Y-65770000D02*
X122734000Y-65770000D01*
X124544000Y-63770000D02*
X124544000Y-65770000D01*
X122734000Y-63770000D02*
X124544000Y-63770000D01*
X122734000Y-58150000D02*
X122734000Y-56150000D01*
X124544000Y-58150000D02*
X122734000Y-58150000D01*
X124544000Y-56150000D02*
X124544000Y-58150000D01*
X122734000Y-56150000D02*
X124544000Y-56150000D01*
X123734000Y-65770000D02*
X123734000Y-71390000D01*
X123734000Y-58150000D02*
X123734000Y-63770000D01*
X123734000Y-76310000D02*
X123734000Y-73500000D01*
X123734000Y-53230000D02*
X123734000Y-56040000D01*
X124544000Y-76310000D02*
X124544000Y-53230000D01*
X115724000Y-76310000D02*
X124544000Y-76310000D01*
X115724000Y-53230000D02*
X115724000Y-76310000D01*
X124544000Y-53230000D02*
X115724000Y-53230000D01*
X117418179Y-74376841D02*
G75*
G02*
X117434000Y-70390000I1665821J1986841D01*
G01*
X117418179Y-66756841D02*
G75*
G02*
X117434000Y-62770000I1665821J1986841D01*
G01*
X117418179Y-59136841D02*
G75*
G02*
X117434000Y-55150000I1665821J1986841D01*
G01*
X125344000Y-25700000D02*
X125344000Y-26300000D01*
X124744000Y-26000000D02*
X125344000Y-25700000D01*
X125344000Y-26300000D02*
X124744000Y-26000000D01*
X117434000Y-44250000D02*
X117434000Y-43240000D01*
X122734000Y-44250000D02*
X117434000Y-44250000D01*
X122734000Y-22990000D02*
X122734000Y-44250000D01*
X117434000Y-22990000D02*
X122734000Y-22990000D01*
X117434000Y-24000000D02*
X117434000Y-22990000D01*
X117434000Y-35620000D02*
X117434000Y-39240000D01*
X117434000Y-28000000D02*
X117434000Y-31620000D01*
X122734000Y-42240000D02*
X122734000Y-40240000D01*
X124544000Y-42240000D02*
X122734000Y-42240000D01*
X124544000Y-40240000D02*
X124544000Y-42240000D01*
X122734000Y-40240000D02*
X124544000Y-40240000D01*
X122734000Y-34620000D02*
X122734000Y-32620000D01*
X124544000Y-34620000D02*
X122734000Y-34620000D01*
X124544000Y-32620000D02*
X124544000Y-34620000D01*
X122734000Y-32620000D02*
X124544000Y-32620000D01*
X122734000Y-27000000D02*
X122734000Y-25000000D01*
X124544000Y-27000000D02*
X122734000Y-27000000D01*
X124544000Y-25000000D02*
X124544000Y-27000000D01*
X122734000Y-25000000D02*
X124544000Y-25000000D01*
X123734000Y-34620000D02*
X123734000Y-40240000D01*
X123734000Y-27000000D02*
X123734000Y-32620000D01*
X123734000Y-45160000D02*
X123734000Y-42350000D01*
X123734000Y-22080000D02*
X123734000Y-24890000D01*
X124544000Y-45160000D02*
X124544000Y-22080000D01*
X115724000Y-45160000D02*
X124544000Y-45160000D01*
X115724000Y-22080000D02*
X115724000Y-45160000D01*
X124544000Y-22080000D02*
X115724000Y-22080000D01*
X117418179Y-43226841D02*
G75*
G02*
X117434000Y-39240000I1665821J1986841D01*
G01*
X117418179Y-35606841D02*
G75*
G02*
X117434000Y-31620000I1665821J1986841D01*
G01*
X117418179Y-27986841D02*
G75*
G02*
X117434000Y-24000000I1665821J1986841D01*
G01*
D16*
X63543000Y-94396000D02*
X63543000Y-94251000D01*
X59393000Y-94396000D02*
X59393000Y-94251000D01*
X59393000Y-89246000D02*
X59393000Y-89391000D01*
X63543000Y-89246000D02*
X63543000Y-89391000D01*
X63543000Y-94396000D02*
X59393000Y-94396000D01*
X63543000Y-89246000D02*
X59393000Y-89246000D01*
X63543000Y-94251000D02*
X64943000Y-94251000D01*
D13*
X45923252Y-37867000D02*
X44500748Y-37867000D01*
X45923252Y-36047000D02*
X44500748Y-36047000D01*
X46108252Y-35533000D02*
X45585748Y-35533000D01*
X46108252Y-34063000D02*
X45585748Y-34063000D01*
X93174000Y-40457000D02*
X91924000Y-40457000D01*
X93174000Y-41707000D02*
X93174000Y-40457000D01*
X87674000Y-55107000D02*
X87674000Y-48307000D01*
X90624000Y-55107000D02*
X87674000Y-55107000D01*
X90624000Y-55857000D02*
X90624000Y-55107000D01*
X87674000Y-41507000D02*
X87674000Y-48307000D01*
X90624000Y-41507000D02*
X87674000Y-41507000D01*
X90624000Y-40757000D02*
X90624000Y-41507000D01*
X92874000Y-55857000D02*
X92874000Y-54057000D01*
X92124000Y-55857000D02*
X92874000Y-55857000D01*
X92124000Y-54057000D02*
X92124000Y-55857000D01*
X92874000Y-54057000D02*
X92124000Y-54057000D01*
X92874000Y-42557000D02*
X92874000Y-40757000D01*
X92124000Y-42557000D02*
X92874000Y-42557000D01*
X92124000Y-40757000D02*
X92124000Y-42557000D01*
X92874000Y-40757000D02*
X92124000Y-40757000D01*
X92874000Y-52557000D02*
X92874000Y-44057000D01*
X92124000Y-52557000D02*
X92874000Y-52557000D01*
X92124000Y-44057000D02*
X92124000Y-52557000D01*
X92874000Y-44057000D02*
X92124000Y-44057000D01*
X92884000Y-55867000D02*
X92884000Y-40747000D01*
X86914000Y-55867000D02*
X92884000Y-55867000D01*
X86914000Y-40747000D02*
X86914000Y-55867000D01*
X92884000Y-40747000D02*
X86914000Y-40747000D01*
X32808000Y-41763000D02*
X25338000Y-41763000D01*
X25338000Y-41763000D02*
X25338000Y-57383000D01*
X25338000Y-57383000D02*
X32808000Y-57383000D01*
X32808000Y-57383000D02*
X32808000Y-41763000D01*
X26198000Y-43573000D02*
X26198000Y-42823000D01*
X26198000Y-42823000D02*
X30498000Y-42823000D01*
X30498000Y-42823000D02*
X30498000Y-43573000D01*
X30498000Y-43573000D02*
X30848000Y-43573000D01*
X30848000Y-43573000D02*
X30848000Y-43073000D01*
X30848000Y-43073000D02*
X31848000Y-42823000D01*
X31848000Y-42823000D02*
X31848000Y-45823000D01*
X31848000Y-45823000D02*
X30848000Y-45573000D01*
X30848000Y-45573000D02*
X30848000Y-45073000D01*
X30848000Y-45073000D02*
X30498000Y-45073000D01*
X30498000Y-45073000D02*
X30498000Y-45823000D01*
X30498000Y-45823000D02*
X26198000Y-45823000D01*
X26198000Y-45823000D02*
X26198000Y-45073000D01*
X26198000Y-47073000D02*
X26198000Y-46323000D01*
X26198000Y-46323000D02*
X30498000Y-46323000D01*
X30498000Y-46323000D02*
X30498000Y-47073000D01*
X30498000Y-47073000D02*
X30848000Y-47073000D01*
X30848000Y-47073000D02*
X30848000Y-46573000D01*
X30848000Y-46573000D02*
X31848000Y-46323000D01*
X31848000Y-46323000D02*
X31848000Y-49323000D01*
X31848000Y-49323000D02*
X30848000Y-49073000D01*
X30848000Y-49073000D02*
X30848000Y-48573000D01*
X30848000Y-48573000D02*
X30498000Y-48573000D01*
X30498000Y-48573000D02*
X30498000Y-49323000D01*
X30498000Y-49323000D02*
X26198000Y-49323000D01*
X26198000Y-49323000D02*
X26198000Y-48573000D01*
X26198000Y-50573000D02*
X26198000Y-49823000D01*
X26198000Y-49823000D02*
X30498000Y-49823000D01*
X30498000Y-49823000D02*
X30498000Y-50573000D01*
X30498000Y-50573000D02*
X30848000Y-50573000D01*
X30848000Y-50573000D02*
X30848000Y-50073000D01*
X30848000Y-50073000D02*
X31848000Y-49823000D01*
X31848000Y-49823000D02*
X31848000Y-52823000D01*
X31848000Y-52823000D02*
X30848000Y-52573000D01*
X30848000Y-52573000D02*
X30848000Y-52073000D01*
X30848000Y-52073000D02*
X30498000Y-52073000D01*
X30498000Y-52073000D02*
X30498000Y-52823000D01*
X30498000Y-52823000D02*
X26198000Y-52823000D01*
X26198000Y-52823000D02*
X26198000Y-52073000D01*
X26198000Y-54073000D02*
X26198000Y-53323000D01*
X26198000Y-53323000D02*
X30498000Y-53323000D01*
X30498000Y-53323000D02*
X30498000Y-54073000D01*
X30498000Y-54073000D02*
X30848000Y-54073000D01*
X30848000Y-54073000D02*
X30848000Y-53573000D01*
X30848000Y-53573000D02*
X31848000Y-53323000D01*
X31848000Y-53323000D02*
X31848000Y-56323000D01*
X31848000Y-56323000D02*
X30848000Y-56073000D01*
X30848000Y-56073000D02*
X30848000Y-55573000D01*
X30848000Y-55573000D02*
X30498000Y-55573000D01*
X30498000Y-55573000D02*
X30498000Y-56323000D01*
X30498000Y-56323000D02*
X26198000Y-56323000D01*
X26198000Y-56323000D02*
X26198000Y-55573000D01*
X31948000Y-41373000D02*
X33198000Y-41373000D01*
X33198000Y-41373000D02*
X33198000Y-43373000D01*
X26198155Y-55572647D02*
G75*
G03*
X26198000Y-54073000I-1700155J749647D01*
G01*
X26198155Y-52072647D02*
G75*
G03*
X26198000Y-50573000I-1700155J749647D01*
G01*
X26198155Y-48572647D02*
G75*
G03*
X26198000Y-47073000I-1700155J749647D01*
G01*
X26198155Y-45072647D02*
G75*
G03*
X26198000Y-43573000I-1700155J749647D01*
G01*
X53867000Y-68108000D02*
X53867000Y-62098000D01*
X60687000Y-65858000D02*
X60687000Y-62098000D01*
X53867000Y-62098000D02*
X55127000Y-62098000D01*
X60687000Y-62098000D02*
X59427000Y-62098000D01*
X90765000Y-24765000D02*
G75*
G03*
X90765000Y-24765000I-2500000J0D01*
G01*
X90825000Y-26310000D02*
X90825000Y-23220000D01*
X85275000Y-24765462D02*
G75*
G02*
X90825000Y-23220170I2990000J462D01*
G01*
X85275000Y-24764538D02*
G75*
G03*
X90825000Y-26309830I2990000J-462D01*
G01*
X56718252Y-75459000D02*
X55295748Y-75459000D01*
X56718252Y-73639000D02*
X55295748Y-73639000D01*
X56718252Y-71226000D02*
X55295748Y-71226000D01*
X56718252Y-73046000D02*
X55295748Y-73046000D01*
X56395252Y-69242000D02*
X55872748Y-69242000D01*
X56395252Y-70712000D02*
X55872748Y-70712000D01*
X60375748Y-71141000D02*
X61798252Y-71141000D01*
X60375748Y-69321000D02*
X61798252Y-69321000D01*
X38852500Y-45535200D02*
X38852500Y-43517200D01*
X42553500Y-45535200D02*
X42553500Y-43517200D01*
X37060500Y-42775200D02*
X35453500Y-42775200D01*
X39600500Y-42775200D02*
X39265500Y-42775200D01*
X42140500Y-42775200D02*
X41805500Y-42775200D01*
X45953500Y-42775200D02*
X44346500Y-42775200D01*
X35453500Y-45535200D02*
X35453500Y-40594200D01*
X45953500Y-45535200D02*
X45953500Y-40594200D01*
X45953500Y-40594200D02*
X35453500Y-40594200D01*
X45953500Y-45535200D02*
X35453500Y-45535200D01*
X55506252Y-88673000D02*
X54983748Y-88673000D01*
X55506252Y-90143000D02*
X54983748Y-90143000D01*
X66067000Y-92228936D02*
X66067000Y-92683064D01*
X67537000Y-92228936D02*
X67537000Y-92683064D01*
X38852500Y-50767600D02*
X38852500Y-48749600D01*
X42553500Y-50767600D02*
X42553500Y-48749600D01*
X37060500Y-48007600D02*
X35453500Y-48007600D01*
X39600500Y-48007600D02*
X39265500Y-48007600D01*
X42140500Y-48007600D02*
X41805500Y-48007600D01*
X45953500Y-48007600D02*
X44346500Y-48007600D01*
X35453500Y-50767600D02*
X35453500Y-45826600D01*
X45953500Y-50767600D02*
X45953500Y-45826600D01*
X45953500Y-45826600D02*
X35453500Y-45826600D01*
X45953500Y-50767600D02*
X35453500Y-50767600D01*
X38852500Y-26536000D02*
X38852500Y-24518000D01*
X42553500Y-26536000D02*
X42553500Y-24518000D01*
X37060500Y-23776000D02*
X35453500Y-23776000D01*
X39600500Y-23776000D02*
X39265500Y-23776000D01*
X42140500Y-23776000D02*
X41805500Y-23776000D01*
X45953500Y-23776000D02*
X44346500Y-23776000D01*
X35453500Y-26536000D02*
X35453500Y-21595000D01*
X45953500Y-26536000D02*
X45953500Y-21595000D01*
X45953500Y-21595000D02*
X35453500Y-21595000D01*
X45953500Y-26536000D02*
X35453500Y-26536000D01*
X38852500Y-56000000D02*
X38852500Y-53982000D01*
X42553500Y-56000000D02*
X42553500Y-53982000D01*
X37060500Y-53240000D02*
X35453500Y-53240000D01*
X39600500Y-53240000D02*
X39265500Y-53240000D01*
X42140500Y-53240000D02*
X41805500Y-53240000D01*
X45953500Y-53240000D02*
X44346500Y-53240000D01*
X35453500Y-56000000D02*
X35453500Y-51059000D01*
X45953500Y-56000000D02*
X45953500Y-51059000D01*
X45953500Y-51059000D02*
X35453500Y-51059000D01*
X45953500Y-56000000D02*
X35453500Y-56000000D01*
X52445200Y-94870000D02*
X59345200Y-94870000D01*
X52445200Y-98170000D02*
X59345200Y-98170000D01*
X52445200Y-94870000D02*
X52445200Y-98170000D01*
D16*
X57599714Y-93098904D02*
X58266380Y-93098904D01*
X57599714Y-93527476D02*
X58123523Y-93527476D01*
X58218761Y-93479857D01*
X58266380Y-93384619D01*
X58266380Y-93241761D01*
X58218761Y-93146523D01*
X58171142Y-93098904D01*
X58266380Y-92098904D02*
X58266380Y-92670333D01*
X58266380Y-92384619D02*
X57266380Y-92384619D01*
X57409238Y-92479857D01*
X57504476Y-92575095D01*
X57552095Y-92670333D01*
X45601095Y-92876714D02*
X45601095Y-93543380D01*
X45363000Y-92495761D02*
X45124904Y-93210047D01*
X45743952Y-93210047D01*
X46029666Y-92543380D02*
X46696333Y-92543380D01*
X46267761Y-93543380D01*
X47505857Y-92876714D02*
X47505857Y-93543380D01*
X47077285Y-92876714D02*
X47077285Y-93400523D01*
X47124904Y-93495761D01*
X47220142Y-93543380D01*
X47363000Y-93543380D01*
X47458238Y-93495761D01*
X47505857Y-93448142D01*
X47982047Y-93543380D02*
X47982047Y-92543380D01*
X47982047Y-93019571D02*
X48553476Y-93019571D01*
X48553476Y-93543380D02*
X48553476Y-92543380D01*
X34631761Y-99496619D02*
X34679380Y-99449000D01*
X34774619Y-99401380D01*
X35012714Y-99401380D01*
X35107952Y-99449000D01*
X35155571Y-99496619D01*
X35203190Y-99591857D01*
X35203190Y-99687095D01*
X35155571Y-99829952D01*
X34584142Y-100401380D01*
X35203190Y-100401380D01*
X36060333Y-99734714D02*
X36060333Y-100401380D01*
X35631761Y-99734714D02*
X35631761Y-100258523D01*
X35679380Y-100353761D01*
X35774619Y-100401380D01*
X35917476Y-100401380D01*
X36012714Y-100353761D01*
X36060333Y-100306142D01*
X36488904Y-99496619D02*
X36536523Y-99449000D01*
X36631761Y-99401380D01*
X36869857Y-99401380D01*
X36965095Y-99449000D01*
X37012714Y-99496619D01*
X37060333Y-99591857D01*
X37060333Y-99687095D01*
X37012714Y-99829952D01*
X36441285Y-100401380D01*
X37060333Y-100401380D01*
X38203190Y-99353761D02*
X37346047Y-100639476D01*
X39060333Y-100401380D02*
X38488904Y-100401380D01*
X38774619Y-100401380D02*
X38774619Y-99401380D01*
X38679380Y-99544238D01*
X38584142Y-99639476D01*
X38488904Y-99687095D01*
X39679380Y-99401380D02*
X39774619Y-99401380D01*
X39869857Y-99449000D01*
X39917476Y-99496619D01*
X39965095Y-99591857D01*
X40012714Y-99782333D01*
X40012714Y-100020428D01*
X39965095Y-100210904D01*
X39917476Y-100306142D01*
X39869857Y-100353761D01*
X39774619Y-100401380D01*
X39679380Y-100401380D01*
X39584142Y-100353761D01*
X39536523Y-100306142D01*
X39488904Y-100210904D01*
X39441285Y-100020428D01*
X39441285Y-99782333D01*
X39488904Y-99591857D01*
X39536523Y-99496619D01*
X39584142Y-99449000D01*
X39679380Y-99401380D01*
X40631761Y-99401380D02*
X40727000Y-99401380D01*
X40822238Y-99449000D01*
X40869857Y-99496619D01*
X40917476Y-99591857D01*
X40965095Y-99782333D01*
X40965095Y-100020428D01*
X40917476Y-100210904D01*
X40869857Y-100306142D01*
X40822238Y-100353761D01*
X40727000Y-100401380D01*
X40631761Y-100401380D01*
X40536523Y-100353761D01*
X40488904Y-100306142D01*
X40441285Y-100210904D01*
X40393666Y-100020428D01*
X40393666Y-99782333D01*
X40441285Y-99591857D01*
X40488904Y-99496619D01*
X40536523Y-99449000D01*
X40631761Y-99401380D01*
X41250809Y-99401380D02*
X41584142Y-100401380D01*
X41917476Y-99401380D01*
X66762761Y-84256619D02*
X66810380Y-84209000D01*
X66905619Y-84161380D01*
X67143714Y-84161380D01*
X67238952Y-84209000D01*
X67286571Y-84256619D01*
X67334190Y-84351857D01*
X67334190Y-84447095D01*
X67286571Y-84589952D01*
X66715142Y-85161380D01*
X67334190Y-85161380D01*
X68191333Y-84494714D02*
X68191333Y-85161380D01*
X67762761Y-84494714D02*
X67762761Y-85018523D01*
X67810380Y-85113761D01*
X67905619Y-85161380D01*
X68048476Y-85161380D01*
X68143714Y-85113761D01*
X68191333Y-85066142D01*
X68619904Y-84256619D02*
X68667523Y-84209000D01*
X68762761Y-84161380D01*
X69000857Y-84161380D01*
X69096095Y-84209000D01*
X69143714Y-84256619D01*
X69191333Y-84351857D01*
X69191333Y-84447095D01*
X69143714Y-84589952D01*
X68572285Y-85161380D01*
X69191333Y-85161380D01*
X70334190Y-84113761D02*
X69477047Y-85399476D01*
X71191333Y-85161380D02*
X70619904Y-85161380D01*
X70905619Y-85161380D02*
X70905619Y-84161380D01*
X70810380Y-84304238D01*
X70715142Y-84399476D01*
X70619904Y-84447095D01*
X71810380Y-84161380D02*
X71905619Y-84161380D01*
X72000857Y-84209000D01*
X72048476Y-84256619D01*
X72096095Y-84351857D01*
X72143714Y-84542333D01*
X72143714Y-84780428D01*
X72096095Y-84970904D01*
X72048476Y-85066142D01*
X72000857Y-85113761D01*
X71905619Y-85161380D01*
X71810380Y-85161380D01*
X71715142Y-85113761D01*
X71667523Y-85066142D01*
X71619904Y-84970904D01*
X71572285Y-84780428D01*
X71572285Y-84542333D01*
X71619904Y-84351857D01*
X71667523Y-84256619D01*
X71715142Y-84209000D01*
X71810380Y-84161380D01*
X72762761Y-84161380D02*
X72858000Y-84161380D01*
X72953238Y-84209000D01*
X73000857Y-84256619D01*
X73048476Y-84351857D01*
X73096095Y-84542333D01*
X73096095Y-84780428D01*
X73048476Y-84970904D01*
X73000857Y-85066142D01*
X72953238Y-85113761D01*
X72858000Y-85161380D01*
X72762761Y-85161380D01*
X72667523Y-85113761D01*
X72619904Y-85066142D01*
X72572285Y-84970904D01*
X72524666Y-84780428D01*
X72524666Y-84542333D01*
X72572285Y-84351857D01*
X72619904Y-84256619D01*
X72667523Y-84209000D01*
X72762761Y-84161380D01*
X73381809Y-84161380D02*
X73715142Y-85161380D01*
X74048476Y-84161380D01*
X69556761Y-90352619D02*
X69604380Y-90305000D01*
X69699619Y-90257380D01*
X69937714Y-90257380D01*
X70032952Y-90305000D01*
X70080571Y-90352619D01*
X70128190Y-90447857D01*
X70128190Y-90543095D01*
X70080571Y-90685952D01*
X69509142Y-91257380D01*
X70128190Y-91257380D01*
X70985333Y-90590714D02*
X70985333Y-91257380D01*
X70556761Y-90590714D02*
X70556761Y-91114523D01*
X70604380Y-91209761D01*
X70699619Y-91257380D01*
X70842476Y-91257380D01*
X70937714Y-91209761D01*
X70985333Y-91162142D01*
X71413904Y-90352619D02*
X71461523Y-90305000D01*
X71556761Y-90257380D01*
X71794857Y-90257380D01*
X71890095Y-90305000D01*
X71937714Y-90352619D01*
X71985333Y-90447857D01*
X71985333Y-90543095D01*
X71937714Y-90685952D01*
X71366285Y-91257380D01*
X71985333Y-91257380D01*
X73128190Y-90209761D02*
X72271047Y-91495476D01*
X73985333Y-91257380D02*
X73413904Y-91257380D01*
X73699619Y-91257380D02*
X73699619Y-90257380D01*
X73604380Y-90400238D01*
X73509142Y-90495476D01*
X73413904Y-90543095D01*
X74604380Y-90257380D02*
X74699619Y-90257380D01*
X74794857Y-90305000D01*
X74842476Y-90352619D01*
X74890095Y-90447857D01*
X74937714Y-90638333D01*
X74937714Y-90876428D01*
X74890095Y-91066904D01*
X74842476Y-91162142D01*
X74794857Y-91209761D01*
X74699619Y-91257380D01*
X74604380Y-91257380D01*
X74509142Y-91209761D01*
X74461523Y-91162142D01*
X74413904Y-91066904D01*
X74366285Y-90876428D01*
X74366285Y-90638333D01*
X74413904Y-90447857D01*
X74461523Y-90352619D01*
X74509142Y-90305000D01*
X74604380Y-90257380D01*
X75556761Y-90257380D02*
X75652000Y-90257380D01*
X75747238Y-90305000D01*
X75794857Y-90352619D01*
X75842476Y-90447857D01*
X75890095Y-90638333D01*
X75890095Y-90876428D01*
X75842476Y-91066904D01*
X75794857Y-91162142D01*
X75747238Y-91209761D01*
X75652000Y-91257380D01*
X75556761Y-91257380D01*
X75461523Y-91209761D01*
X75413904Y-91162142D01*
X75366285Y-91066904D01*
X75318666Y-90876428D01*
X75318666Y-90638333D01*
X75366285Y-90447857D01*
X75413904Y-90352619D01*
X75461523Y-90305000D01*
X75556761Y-90257380D01*
X76175809Y-90257380D02*
X76509142Y-91257380D01*
X76842476Y-90257380D01*
X70636142Y-94654714D02*
X70636142Y-95321380D01*
X70398047Y-94273761D02*
X70159952Y-94988047D01*
X70779000Y-94988047D01*
X71064714Y-94321380D02*
X71731380Y-94321380D01*
X71302809Y-95321380D01*
X72540904Y-94654714D02*
X72540904Y-95321380D01*
X72112333Y-94654714D02*
X72112333Y-95178523D01*
X72159952Y-95273761D01*
X72255190Y-95321380D01*
X72398047Y-95321380D01*
X72493285Y-95273761D01*
X72540904Y-95226142D01*
X73731380Y-94273761D02*
X72874238Y-95559476D01*
X74493285Y-94321380D02*
X74302809Y-94321380D01*
X74207571Y-94369000D01*
X74159952Y-94416619D01*
X74064714Y-94559476D01*
X74017095Y-94749952D01*
X74017095Y-95130904D01*
X74064714Y-95226142D01*
X74112333Y-95273761D01*
X74207571Y-95321380D01*
X74398047Y-95321380D01*
X74493285Y-95273761D01*
X74540904Y-95226142D01*
X74588523Y-95130904D01*
X74588523Y-94892809D01*
X74540904Y-94797571D01*
X74493285Y-94749952D01*
X74398047Y-94702333D01*
X74207571Y-94702333D01*
X74112333Y-94749952D01*
X74064714Y-94797571D01*
X74017095Y-94892809D01*
X74921857Y-94321380D02*
X75540904Y-94321380D01*
X75207571Y-94702333D01*
X75350428Y-94702333D01*
X75445666Y-94749952D01*
X75493285Y-94797571D01*
X75540904Y-94892809D01*
X75540904Y-95130904D01*
X75493285Y-95226142D01*
X75445666Y-95273761D01*
X75350428Y-95321380D01*
X75064714Y-95321380D01*
X74969476Y-95273761D01*
X74921857Y-95226142D01*
X75826619Y-94321380D02*
X76159952Y-95321380D01*
X76493285Y-94321380D01*
X78589261Y-64495880D02*
X78113071Y-64495880D01*
X78065452Y-64972071D01*
X78113071Y-64924452D01*
X78208309Y-64876833D01*
X78446404Y-64876833D01*
X78541642Y-64924452D01*
X78589261Y-64972071D01*
X78636880Y-65067309D01*
X78636880Y-65305404D01*
X78589261Y-65400642D01*
X78541642Y-65448261D01*
X78446404Y-65495880D01*
X78208309Y-65495880D01*
X78113071Y-65448261D01*
X78065452Y-65400642D01*
X78922595Y-64495880D02*
X79255928Y-65495880D01*
X79589261Y-64495880D01*
X79827357Y-65495880D02*
X80351166Y-64829214D01*
X79827357Y-64829214D02*
X80351166Y-65495880D01*
X72628238Y-63444380D02*
X72628238Y-62777714D01*
X72628238Y-62872952D02*
X72675857Y-62825333D01*
X72771095Y-62777714D01*
X72913952Y-62777714D01*
X73009190Y-62825333D01*
X73056809Y-62920571D01*
X73056809Y-63444380D01*
X73056809Y-62920571D02*
X73104428Y-62825333D01*
X73199666Y-62777714D01*
X73342523Y-62777714D01*
X73437761Y-62825333D01*
X73485380Y-62920571D01*
X73485380Y-63444380D01*
X74485380Y-63444380D02*
X73913952Y-63444380D01*
X74199666Y-63444380D02*
X74199666Y-62444380D01*
X74104428Y-62587238D01*
X74009190Y-62682476D01*
X73913952Y-62730095D01*
X72628238Y-61094880D02*
X72628238Y-60428214D01*
X72628238Y-60523452D02*
X72675857Y-60475833D01*
X72771095Y-60428214D01*
X72913952Y-60428214D01*
X73009190Y-60475833D01*
X73056809Y-60571071D01*
X73056809Y-61094880D01*
X73056809Y-60571071D02*
X73104428Y-60475833D01*
X73199666Y-60428214D01*
X73342523Y-60428214D01*
X73437761Y-60475833D01*
X73485380Y-60571071D01*
X73485380Y-61094880D01*
X74485380Y-61094880D02*
X73913952Y-61094880D01*
X74199666Y-61094880D02*
X74199666Y-60094880D01*
X74104428Y-60237738D01*
X74009190Y-60332976D01*
X73913952Y-60380595D01*
X72628238Y-58618380D02*
X72628238Y-57951714D01*
X72628238Y-58046952D02*
X72675857Y-57999333D01*
X72771095Y-57951714D01*
X72913952Y-57951714D01*
X73009190Y-57999333D01*
X73056809Y-58094571D01*
X73056809Y-58618380D01*
X73056809Y-58094571D02*
X73104428Y-57999333D01*
X73199666Y-57951714D01*
X73342523Y-57951714D01*
X73437761Y-57999333D01*
X73485380Y-58094571D01*
X73485380Y-58618380D01*
X74485380Y-58618380D02*
X73913952Y-58618380D01*
X74199666Y-58618380D02*
X74199666Y-57618380D01*
X74104428Y-57761238D01*
X74009190Y-57856476D01*
X73913952Y-57904095D01*
D11*
X77208285Y-39921571D02*
X77208285Y-38421571D01*
X77589238Y-38421571D01*
X77684476Y-38493000D01*
X77732095Y-38564428D01*
X77779714Y-38707285D01*
X77779714Y-38921571D01*
X77732095Y-39064428D01*
X77684476Y-39135857D01*
X77589238Y-39207285D01*
X77208285Y-39207285D01*
X78779714Y-39921571D02*
X78446380Y-39207285D01*
X78208285Y-39921571D02*
X78208285Y-38421571D01*
X78589238Y-38421571D01*
X78684476Y-38493000D01*
X78732095Y-38564428D01*
X78779714Y-38707285D01*
X78779714Y-38921571D01*
X78732095Y-39064428D01*
X78684476Y-39135857D01*
X78589238Y-39207285D01*
X78208285Y-39207285D01*
X79398761Y-38421571D02*
X79589238Y-38421571D01*
X79684476Y-38493000D01*
X79779714Y-38635857D01*
X79827333Y-38921571D01*
X79827333Y-39421571D01*
X79779714Y-39707285D01*
X79684476Y-39850142D01*
X79589238Y-39921571D01*
X79398761Y-39921571D01*
X79303523Y-39850142D01*
X79208285Y-39707285D01*
X79160666Y-39421571D01*
X79160666Y-38921571D01*
X79208285Y-38635857D01*
X79303523Y-38493000D01*
X79398761Y-38421571D01*
X80779714Y-38493000D02*
X80684476Y-38421571D01*
X80541619Y-38421571D01*
X80398761Y-38493000D01*
X80303523Y-38635857D01*
X80255904Y-38778714D01*
X80208285Y-39064428D01*
X80208285Y-39278714D01*
X80255904Y-39564428D01*
X80303523Y-39707285D01*
X80398761Y-39850142D01*
X80541619Y-39921571D01*
X80636857Y-39921571D01*
X80779714Y-39850142D01*
X80827333Y-39778714D01*
X80827333Y-39278714D01*
X80636857Y-39278714D01*
D16*
X106680476Y-94542380D02*
X106680476Y-93542380D01*
X106680476Y-94018571D02*
X107251904Y-94018571D01*
X107251904Y-94542380D02*
X107251904Y-93542380D01*
X108204285Y-94542380D02*
X107728095Y-94542380D01*
X107728095Y-93542380D01*
X108537619Y-94542380D02*
X108537619Y-93542380D01*
X109109047Y-94542380D02*
X108680476Y-93970952D01*
X109109047Y-93542380D02*
X108537619Y-94113809D01*
X109537619Y-94161428D02*
X110299523Y-94161428D01*
X111251904Y-93542380D02*
X110775714Y-93542380D01*
X110728095Y-94018571D01*
X110775714Y-93970952D01*
X110870952Y-93923333D01*
X111109047Y-93923333D01*
X111204285Y-93970952D01*
X111251904Y-94018571D01*
X111299523Y-94113809D01*
X111299523Y-94351904D01*
X111251904Y-94447142D01*
X111204285Y-94494761D01*
X111109047Y-94542380D01*
X110870952Y-94542380D01*
X110775714Y-94494761D01*
X110728095Y-94447142D01*
X111728095Y-94542380D02*
X111728095Y-93542380D01*
X112061428Y-94256666D01*
X112394761Y-93542380D01*
X112394761Y-94542380D01*
X113061428Y-93542380D02*
X113156666Y-93542380D01*
X113251904Y-93590000D01*
X113299523Y-93637619D01*
X113347142Y-93732857D01*
X113394761Y-93923333D01*
X113394761Y-94161428D01*
X113347142Y-94351904D01*
X113299523Y-94447142D01*
X113251904Y-94494761D01*
X113156666Y-94542380D01*
X113061428Y-94542380D01*
X112966190Y-94494761D01*
X112918571Y-94447142D01*
X112870952Y-94351904D01*
X112823333Y-94161428D01*
X112823333Y-93923333D01*
X112870952Y-93732857D01*
X112918571Y-93637619D01*
X112966190Y-93590000D01*
X113061428Y-93542380D01*
X114299523Y-93542380D02*
X113823333Y-93542380D01*
X113775714Y-94018571D01*
X113823333Y-93970952D01*
X113918571Y-93923333D01*
X114156666Y-93923333D01*
X114251904Y-93970952D01*
X114299523Y-94018571D01*
X114347142Y-94113809D01*
X114347142Y-94351904D01*
X114299523Y-94447142D01*
X114251904Y-94494761D01*
X114156666Y-94542380D01*
X113918571Y-94542380D01*
X113823333Y-94494761D01*
X113775714Y-94447142D01*
X61345238Y-63702380D02*
X61345238Y-63035714D01*
X61345238Y-63130952D02*
X61392857Y-63083333D01*
X61488095Y-63035714D01*
X61630952Y-63035714D01*
X61726190Y-63083333D01*
X61773809Y-63178571D01*
X61773809Y-63702380D01*
X61773809Y-63178571D02*
X61821428Y-63083333D01*
X61916666Y-63035714D01*
X62059523Y-63035714D01*
X62154761Y-63083333D01*
X62202380Y-63178571D01*
X62202380Y-63702380D01*
X63202380Y-63702380D02*
X62630952Y-63702380D01*
X62916666Y-63702380D02*
X62916666Y-62702380D01*
X62821428Y-62845238D01*
X62726190Y-62940476D01*
X62630952Y-62988095D01*
X63595238Y-63702380D02*
X63595238Y-63035714D01*
X63595238Y-63130952D02*
X63642857Y-63083333D01*
X63738095Y-63035714D01*
X63880952Y-63035714D01*
X63976190Y-63083333D01*
X64023809Y-63178571D01*
X64023809Y-63702380D01*
X64023809Y-63178571D02*
X64071428Y-63083333D01*
X64166666Y-63035714D01*
X64309523Y-63035714D01*
X64404761Y-63083333D01*
X64452380Y-63178571D01*
X64452380Y-63702380D01*
X65452380Y-63702380D02*
X64880952Y-63702380D01*
X65166666Y-63702380D02*
X65166666Y-62702380D01*
X65071428Y-62845238D01*
X64976190Y-62940476D01*
X64880952Y-62988095D01*
X58364380Y-78184261D02*
X57697714Y-78184261D01*
X57792952Y-78184261D02*
X57745333Y-78136642D01*
X57697714Y-78041404D01*
X57697714Y-77898547D01*
X57745333Y-77803309D01*
X57840571Y-77755690D01*
X58364380Y-77755690D01*
X57840571Y-77755690D02*
X57745333Y-77708071D01*
X57697714Y-77612833D01*
X57697714Y-77469976D01*
X57745333Y-77374738D01*
X57840571Y-77327119D01*
X58364380Y-77327119D01*
X58364380Y-76327119D02*
X58364380Y-76898547D01*
X58364380Y-76612833D02*
X57364380Y-76612833D01*
X57507238Y-76708071D01*
X57602476Y-76803309D01*
X57650095Y-76898547D01*
D11*
X66683119Y-54272571D02*
X66349785Y-53558285D01*
X66111690Y-54272571D02*
X66111690Y-52772571D01*
X66492642Y-52772571D01*
X66587880Y-52844000D01*
X66635500Y-52915428D01*
X66683119Y-53058285D01*
X66683119Y-53272571D01*
X66635500Y-53415428D01*
X66587880Y-53486857D01*
X66492642Y-53558285D01*
X66111690Y-53558285D01*
X67111690Y-53486857D02*
X67445023Y-53486857D01*
X67587880Y-54272571D02*
X67111690Y-54272571D01*
X67111690Y-52772571D01*
X67587880Y-52772571D01*
X67968833Y-54201142D02*
X68111690Y-54272571D01*
X68349785Y-54272571D01*
X68445023Y-54201142D01*
X68492642Y-54129714D01*
X68540261Y-53986857D01*
X68540261Y-53844000D01*
X68492642Y-53701142D01*
X68445023Y-53629714D01*
X68349785Y-53558285D01*
X68159309Y-53486857D01*
X68064071Y-53415428D01*
X68016452Y-53344000D01*
X67968833Y-53201142D01*
X67968833Y-53058285D01*
X68016452Y-52915428D01*
X68064071Y-52844000D01*
X68159309Y-52772571D01*
X68397404Y-52772571D01*
X68540261Y-52844000D01*
X68968833Y-53486857D02*
X69302166Y-53486857D01*
X69445023Y-54272571D02*
X68968833Y-54272571D01*
X68968833Y-52772571D01*
X69445023Y-52772571D01*
X69730738Y-52772571D02*
X70302166Y-52772571D01*
X70016452Y-54272571D02*
X70016452Y-52772571D01*
D16*
X51935190Y-58935880D02*
X51935190Y-57935880D01*
X52982809Y-58935880D02*
X52649476Y-58459690D01*
X52411380Y-58935880D02*
X52411380Y-57935880D01*
X52792333Y-57935880D01*
X52887571Y-57983500D01*
X52935190Y-58031119D01*
X52982809Y-58126357D01*
X52982809Y-58269214D01*
X52935190Y-58364452D01*
X52887571Y-58412071D01*
X52792333Y-58459690D01*
X52411380Y-58459690D01*
X54078047Y-59031119D02*
X53982809Y-58983500D01*
X53887571Y-58888261D01*
X53744714Y-58745404D01*
X53649476Y-58697785D01*
X53554238Y-58697785D01*
X53601857Y-58935880D02*
X53506619Y-58888261D01*
X53411380Y-58793023D01*
X53363761Y-58602547D01*
X53363761Y-58269214D01*
X53411380Y-58078738D01*
X53506619Y-57983500D01*
X53601857Y-57935880D01*
X53792333Y-57935880D01*
X53887571Y-57983500D01*
X53982809Y-58078738D01*
X54030428Y-58269214D01*
X54030428Y-58602547D01*
X53982809Y-58793023D01*
X53887571Y-58888261D01*
X53792333Y-58935880D01*
X53601857Y-58935880D01*
X50934880Y-55597785D02*
X50934880Y-56169214D01*
X50934880Y-55883500D02*
X49934880Y-55883500D01*
X50077738Y-55978738D01*
X50172976Y-56073976D01*
X50220595Y-56169214D01*
X49934880Y-61416833D02*
X49934880Y-60797785D01*
X50315833Y-61131119D01*
X50315833Y-60988261D01*
X50363452Y-60893023D01*
X50411071Y-60845404D01*
X50506309Y-60797785D01*
X50744404Y-60797785D01*
X50839642Y-60845404D01*
X50887261Y-60893023D01*
X50934880Y-60988261D01*
X50934880Y-61273976D01*
X50887261Y-61369214D01*
X50839642Y-61416833D01*
X77970095Y-42965714D02*
X77970095Y-43632380D01*
X77541523Y-42965714D02*
X77541523Y-43489523D01*
X77589142Y-43584761D01*
X77684380Y-43632380D01*
X77827238Y-43632380D01*
X77922476Y-43584761D01*
X77970095Y-43537142D01*
X78970095Y-43632380D02*
X78398666Y-43632380D01*
X78684380Y-43632380D02*
X78684380Y-42632380D01*
X78589142Y-42775238D01*
X78493904Y-42870476D01*
X78398666Y-42918095D01*
D11*
X69770809Y-40174571D02*
X69770809Y-38674571D01*
X70247000Y-40174571D02*
X70247000Y-38674571D01*
X70818428Y-40174571D01*
X70818428Y-38674571D01*
X71627952Y-39388857D02*
X71294619Y-39388857D01*
X71294619Y-40174571D02*
X71294619Y-38674571D01*
X71770809Y-38674571D01*
X72342238Y-38674571D02*
X72532714Y-38674571D01*
X72627952Y-38746000D01*
X72723190Y-38888857D01*
X72770809Y-39174571D01*
X72770809Y-39674571D01*
X72723190Y-39960285D01*
X72627952Y-40103142D01*
X72532714Y-40174571D01*
X72342238Y-40174571D01*
X72247000Y-40103142D01*
X72151761Y-39960285D01*
X72104142Y-39674571D01*
X72104142Y-39174571D01*
X72151761Y-38888857D01*
X72247000Y-38746000D01*
X72342238Y-38674571D01*
D16*
X42312580Y-68563571D02*
X41312580Y-68563571D01*
X42264961Y-68135000D02*
X42312580Y-67992142D01*
X42312580Y-67754047D01*
X42264961Y-67658809D01*
X42217342Y-67611190D01*
X42122104Y-67563571D01*
X42026866Y-67563571D01*
X41931628Y-67611190D01*
X41884009Y-67658809D01*
X41836390Y-67754047D01*
X41788771Y-67944523D01*
X41741152Y-68039761D01*
X41693533Y-68087380D01*
X41598295Y-68135000D01*
X41503057Y-68135000D01*
X41407819Y-68087380D01*
X41360200Y-68039761D01*
X41312580Y-67944523D01*
X41312580Y-67706428D01*
X41360200Y-67563571D01*
X41312580Y-66944523D02*
X41312580Y-66754047D01*
X41360200Y-66658809D01*
X41455438Y-66563571D01*
X41645914Y-66515952D01*
X41979247Y-66515952D01*
X42169723Y-66563571D01*
X42264961Y-66658809D01*
X42312580Y-66754047D01*
X42312580Y-66944523D01*
X42264961Y-67039761D01*
X42169723Y-67135000D01*
X41979247Y-67182619D01*
X41645914Y-67182619D01*
X41455438Y-67135000D01*
X41360200Y-67039761D01*
X41312580Y-66944523D01*
X42312580Y-65563571D02*
X42312580Y-66135000D01*
X42312580Y-65849285D02*
X41312580Y-65849285D01*
X41455438Y-65944523D01*
X41550676Y-66039761D01*
X41598295Y-66135000D01*
X41312580Y-64944523D02*
X41312580Y-64849285D01*
X41360200Y-64754047D01*
X41407819Y-64706428D01*
X41503057Y-64658809D01*
X41693533Y-64611190D01*
X41931628Y-64611190D01*
X42122104Y-64658809D01*
X42217342Y-64706428D01*
X42264961Y-64754047D01*
X42312580Y-64849285D01*
X42312580Y-64944523D01*
X42264961Y-65039761D01*
X42217342Y-65087380D01*
X42122104Y-65135000D01*
X41931628Y-65182619D01*
X41693533Y-65182619D01*
X41503057Y-65135000D01*
X41407819Y-65087380D01*
X41360200Y-65039761D01*
X41312580Y-64944523D01*
X41312580Y-63706428D02*
X41312580Y-64182619D01*
X41788771Y-64230238D01*
X41741152Y-64182619D01*
X41693533Y-64087380D01*
X41693533Y-63849285D01*
X41741152Y-63754047D01*
X41788771Y-63706428D01*
X41884009Y-63658809D01*
X42122104Y-63658809D01*
X42217342Y-63706428D01*
X42264961Y-63754047D01*
X42312580Y-63849285D01*
X42312580Y-64087380D01*
X42264961Y-64182619D01*
X42217342Y-64230238D01*
X41312580Y-63039761D02*
X41312580Y-62944523D01*
X41360200Y-62849285D01*
X41407819Y-62801666D01*
X41503057Y-62754047D01*
X41693533Y-62706428D01*
X41931628Y-62706428D01*
X42122104Y-62754047D01*
X42217342Y-62801666D01*
X42264961Y-62849285D01*
X42312580Y-62944523D01*
X42312580Y-63039761D01*
X42264961Y-63135000D01*
X42217342Y-63182619D01*
X42122104Y-63230238D01*
X41931628Y-63277857D01*
X41693533Y-63277857D01*
X41503057Y-63230238D01*
X41407819Y-63182619D01*
X41360200Y-63135000D01*
X41312580Y-63039761D01*
X42312580Y-62277857D02*
X41312580Y-62277857D01*
X41312580Y-62039761D01*
X41360200Y-61896904D01*
X41455438Y-61801666D01*
X41550676Y-61754047D01*
X41741152Y-61706428D01*
X41884009Y-61706428D01*
X42074485Y-61754047D01*
X42169723Y-61801666D01*
X42264961Y-61896904D01*
X42312580Y-62039761D01*
X42312580Y-62277857D01*
X41312580Y-61277857D02*
X42122104Y-61277857D01*
X42217342Y-61230238D01*
X42264961Y-61182619D01*
X42312580Y-61087380D01*
X42312580Y-60896904D01*
X42264961Y-60801666D01*
X42217342Y-60754047D01*
X42122104Y-60706428D01*
X41312580Y-60706428D01*
X41788771Y-59896904D02*
X41836390Y-59754047D01*
X41884009Y-59706428D01*
X41979247Y-59658809D01*
X42122104Y-59658809D01*
X42217342Y-59706428D01*
X42264961Y-59754047D01*
X42312580Y-59849285D01*
X42312580Y-60230238D01*
X41312580Y-60230238D01*
X41312580Y-59896904D01*
X41360200Y-59801666D01*
X41407819Y-59754047D01*
X41503057Y-59706428D01*
X41598295Y-59706428D01*
X41693533Y-59754047D01*
X41741152Y-59801666D01*
X41788771Y-59896904D01*
X41788771Y-60230238D01*
X41394142Y-82748380D02*
X40822714Y-82748380D01*
X41108428Y-82748380D02*
X41108428Y-81748380D01*
X41013190Y-81891238D01*
X40917952Y-81986476D01*
X40822714Y-82034095D01*
X42013190Y-81748380D02*
X42108428Y-81748380D01*
X42203666Y-81796000D01*
X42251285Y-81843619D01*
X42298904Y-81938857D01*
X42346523Y-82129333D01*
X42346523Y-82367428D01*
X42298904Y-82557904D01*
X42251285Y-82653142D01*
X42203666Y-82700761D01*
X42108428Y-82748380D01*
X42013190Y-82748380D01*
X41917952Y-82700761D01*
X41870333Y-82653142D01*
X41822714Y-82557904D01*
X41775095Y-82367428D01*
X41775095Y-82129333D01*
X41822714Y-81938857D01*
X41870333Y-81843619D01*
X41917952Y-81796000D01*
X42013190Y-81748380D01*
X43203666Y-82081714D02*
X43203666Y-82748380D01*
X42775095Y-82081714D02*
X42775095Y-82605523D01*
X42822714Y-82700761D01*
X42917952Y-82748380D01*
X43060809Y-82748380D01*
X43156047Y-82700761D01*
X43203666Y-82653142D01*
X35909476Y-33472380D02*
X35433285Y-33472380D01*
X35433285Y-32472380D01*
X36242809Y-33472380D02*
X36242809Y-32472380D01*
X36623761Y-32472380D01*
X36719000Y-32520000D01*
X36766619Y-32567619D01*
X36814238Y-32662857D01*
X36814238Y-32805714D01*
X36766619Y-32900952D01*
X36719000Y-32948571D01*
X36623761Y-32996190D01*
X36242809Y-32996190D01*
X37147571Y-32472380D02*
X37385666Y-33472380D01*
X37576142Y-32758095D01*
X37766619Y-33472380D01*
X38004714Y-32472380D01*
X38385666Y-33472380D02*
X38385666Y-32472380D01*
X38719000Y-33186666D01*
X39052333Y-32472380D01*
X39052333Y-33472380D01*
X40052333Y-33472380D02*
X39480904Y-33472380D01*
X39766619Y-33472380D02*
X39766619Y-32472380D01*
X39671380Y-32615238D01*
X39576142Y-32710476D01*
X39480904Y-32758095D01*
X34869380Y-56038523D02*
X34869380Y-56514714D01*
X33869380Y-56514714D01*
X34869380Y-55705190D02*
X33869380Y-55705190D01*
X33869380Y-55324238D01*
X33917000Y-55229000D01*
X33964619Y-55181380D01*
X34059857Y-55133761D01*
X34202714Y-55133761D01*
X34297952Y-55181380D01*
X34345571Y-55229000D01*
X34393190Y-55324238D01*
X34393190Y-55705190D01*
X33869380Y-54800428D02*
X34869380Y-54562333D01*
X34155095Y-54371857D01*
X34869380Y-54181380D01*
X33869380Y-53943285D01*
X34869380Y-53562333D02*
X33869380Y-53562333D01*
X34583666Y-53229000D01*
X33869380Y-52895666D01*
X34869380Y-52895666D01*
X33869380Y-51943285D02*
X33869380Y-52419476D01*
X34345571Y-52467095D01*
X34297952Y-52419476D01*
X34250333Y-52324238D01*
X34250333Y-52086142D01*
X34297952Y-51990904D01*
X34345571Y-51943285D01*
X34440809Y-51895666D01*
X34678904Y-51895666D01*
X34774142Y-51943285D01*
X34821761Y-51990904D01*
X34869380Y-52086142D01*
X34869380Y-52324238D01*
X34821761Y-52419476D01*
X34774142Y-52467095D01*
X42949952Y-57602380D02*
X42949952Y-56602380D01*
X43045190Y-57221428D02*
X43330904Y-57602380D01*
X43330904Y-56935714D02*
X42949952Y-57316666D01*
X43711857Y-56697619D02*
X43759476Y-56650000D01*
X43854714Y-56602380D01*
X44092809Y-56602380D01*
X44188047Y-56650000D01*
X44235666Y-56697619D01*
X44283285Y-56792857D01*
X44283285Y-56888095D01*
X44235666Y-57030952D01*
X43664238Y-57602380D01*
X44283285Y-57602380D01*
X44664238Y-56697619D02*
X44711857Y-56650000D01*
X44807095Y-56602380D01*
X45045190Y-56602380D01*
X45140428Y-56650000D01*
X45188047Y-56697619D01*
X45235666Y-56792857D01*
X45235666Y-56888095D01*
X45188047Y-57030952D01*
X44616619Y-57602380D01*
X45235666Y-57602380D01*
X101587952Y-96500380D02*
X101016523Y-96500380D01*
X101302238Y-96500380D02*
X101302238Y-95500380D01*
X101207000Y-95643238D01*
X101111761Y-95738476D01*
X101016523Y-95786095D01*
X102207000Y-95500380D02*
X102302238Y-95500380D01*
X102397476Y-95548000D01*
X102445095Y-95595619D01*
X102492714Y-95690857D01*
X102540333Y-95881333D01*
X102540333Y-96119428D01*
X102492714Y-96309904D01*
X102445095Y-96405142D01*
X102397476Y-96452761D01*
X102302238Y-96500380D01*
X102207000Y-96500380D01*
X102111761Y-96452761D01*
X102064142Y-96405142D01*
X102016523Y-96309904D01*
X101968904Y-96119428D01*
X101968904Y-95881333D01*
X102016523Y-95690857D01*
X102064142Y-95595619D01*
X102111761Y-95548000D01*
X102207000Y-95500380D01*
X102968904Y-96500380D02*
X102968904Y-95500380D01*
X103207000Y-95500380D01*
X103349857Y-95548000D01*
X103445095Y-95643238D01*
X103492714Y-95738476D01*
X103540333Y-95928952D01*
X103540333Y-96071809D01*
X103492714Y-96262285D01*
X103445095Y-96357523D01*
X103349857Y-96452761D01*
X103207000Y-96500380D01*
X102968904Y-96500380D01*
X104445095Y-95500380D02*
X103968904Y-95500380D01*
X103921285Y-95976571D01*
X103968904Y-95928952D01*
X104064142Y-95881333D01*
X104302238Y-95881333D01*
X104397476Y-95928952D01*
X104445095Y-95976571D01*
X104492714Y-96071809D01*
X104492714Y-96309904D01*
X104445095Y-96405142D01*
X104397476Y-96452761D01*
X104302238Y-96500380D01*
X104064142Y-96500380D01*
X103968904Y-96452761D01*
X103921285Y-96405142D01*
X105349857Y-95500380D02*
X105159380Y-95500380D01*
X105064142Y-95548000D01*
X105016523Y-95595619D01*
X104921285Y-95738476D01*
X104873666Y-95928952D01*
X104873666Y-96309904D01*
X104921285Y-96405142D01*
X104968904Y-96452761D01*
X105064142Y-96500380D01*
X105254619Y-96500380D01*
X105349857Y-96452761D01*
X105397476Y-96405142D01*
X105445095Y-96309904D01*
X105445095Y-96071809D01*
X105397476Y-95976571D01*
X105349857Y-95928952D01*
X105254619Y-95881333D01*
X105064142Y-95881333D01*
X104968904Y-95928952D01*
X104921285Y-95976571D01*
X104873666Y-96071809D01*
X106397476Y-96500380D02*
X105826047Y-96500380D01*
X106111761Y-96500380D02*
X106111761Y-95500380D01*
X106016523Y-95643238D01*
X105921285Y-95738476D01*
X105826047Y-95786095D01*
X106826047Y-96500380D02*
X106826047Y-95500380D01*
X107397476Y-96500380D02*
X106968904Y-95928952D01*
X107397476Y-95500380D02*
X106826047Y-96071809D01*
X46308000Y-75779380D02*
X46879428Y-75779380D01*
X46593714Y-76779380D02*
X46593714Y-75779380D01*
X47212761Y-76255571D02*
X47546095Y-76255571D01*
X47688952Y-76779380D02*
X47212761Y-76779380D01*
X47212761Y-75779380D01*
X47688952Y-75779380D01*
X48688952Y-76779380D02*
X48355619Y-76303190D01*
X48117523Y-76779380D02*
X48117523Y-75779380D01*
X48498476Y-75779380D01*
X48593714Y-75827000D01*
X48641333Y-75874619D01*
X48688952Y-75969857D01*
X48688952Y-76112714D01*
X48641333Y-76207952D01*
X48593714Y-76255571D01*
X48498476Y-76303190D01*
X48117523Y-76303190D01*
X49117523Y-76779380D02*
X49117523Y-75779380D01*
X49450857Y-76493666D01*
X49784190Y-75779380D01*
X49784190Y-76779380D01*
X51212761Y-75779380D02*
X51403238Y-75779380D01*
X51498476Y-75827000D01*
X51593714Y-75922238D01*
X51641333Y-76112714D01*
X51641333Y-76446047D01*
X51593714Y-76636523D01*
X51498476Y-76731761D01*
X51403238Y-76779380D01*
X51212761Y-76779380D01*
X51117523Y-76731761D01*
X51022285Y-76636523D01*
X50974666Y-76446047D01*
X50974666Y-76112714D01*
X51022285Y-75922238D01*
X51117523Y-75827000D01*
X51212761Y-75779380D01*
X52403238Y-76255571D02*
X52069904Y-76255571D01*
X52069904Y-76779380D02*
X52069904Y-75779380D01*
X52546095Y-75779380D01*
X53260380Y-76255571D02*
X52927047Y-76255571D01*
X52927047Y-76779380D02*
X52927047Y-75779380D01*
X53403238Y-75779380D01*
X54736571Y-75779380D02*
X54927047Y-75779380D01*
X55022285Y-75827000D01*
X55117523Y-75922238D01*
X55165142Y-76112714D01*
X55165142Y-76446047D01*
X55117523Y-76636523D01*
X55022285Y-76731761D01*
X54927047Y-76779380D01*
X54736571Y-76779380D01*
X54641333Y-76731761D01*
X54546095Y-76636523D01*
X54498476Y-76446047D01*
X54498476Y-76112714D01*
X54546095Y-75922238D01*
X54641333Y-75827000D01*
X54736571Y-75779380D01*
X55593714Y-76779380D02*
X55593714Y-75779380D01*
X56165142Y-76779380D01*
X56165142Y-75779380D01*
X87971761Y-99623619D02*
X88019380Y-99576000D01*
X88114619Y-99528380D01*
X88352714Y-99528380D01*
X88447952Y-99576000D01*
X88495571Y-99623619D01*
X88543190Y-99718857D01*
X88543190Y-99814095D01*
X88495571Y-99956952D01*
X87924142Y-100528380D01*
X88543190Y-100528380D01*
X88924142Y-99623619D02*
X88971761Y-99576000D01*
X89067000Y-99528380D01*
X89305095Y-99528380D01*
X89400333Y-99576000D01*
X89447952Y-99623619D01*
X89495571Y-99718857D01*
X89495571Y-99814095D01*
X89447952Y-99956952D01*
X88876523Y-100528380D01*
X89495571Y-100528380D01*
X89924142Y-99861714D02*
X89924142Y-100528380D01*
X89924142Y-99956952D02*
X89971761Y-99909333D01*
X90067000Y-99861714D01*
X90209857Y-99861714D01*
X90305095Y-99909333D01*
X90352714Y-100004571D01*
X90352714Y-100528380D01*
X91543190Y-99480761D02*
X90686047Y-100766476D01*
X91828904Y-99623619D02*
X91876523Y-99576000D01*
X91971761Y-99528380D01*
X92209857Y-99528380D01*
X92305095Y-99576000D01*
X92352714Y-99623619D01*
X92400333Y-99718857D01*
X92400333Y-99814095D01*
X92352714Y-99956952D01*
X91781285Y-100528380D01*
X92400333Y-100528380D01*
X93305095Y-99528380D02*
X92828904Y-99528380D01*
X92781285Y-100004571D01*
X92828904Y-99956952D01*
X92924142Y-99909333D01*
X93162238Y-99909333D01*
X93257476Y-99956952D01*
X93305095Y-100004571D01*
X93352714Y-100099809D01*
X93352714Y-100337904D01*
X93305095Y-100433142D01*
X93257476Y-100480761D01*
X93162238Y-100528380D01*
X92924142Y-100528380D01*
X92828904Y-100480761D01*
X92781285Y-100433142D01*
X93971761Y-99528380D02*
X94067000Y-99528380D01*
X94162238Y-99576000D01*
X94209857Y-99623619D01*
X94257476Y-99718857D01*
X94305095Y-99909333D01*
X94305095Y-100147428D01*
X94257476Y-100337904D01*
X94209857Y-100433142D01*
X94162238Y-100480761D01*
X94067000Y-100528380D01*
X93971761Y-100528380D01*
X93876523Y-100480761D01*
X93828904Y-100433142D01*
X93781285Y-100337904D01*
X93733666Y-100147428D01*
X93733666Y-99909333D01*
X93781285Y-99718857D01*
X93828904Y-99623619D01*
X93876523Y-99576000D01*
X93971761Y-99528380D01*
X94590809Y-99528380D02*
X94924142Y-100528380D01*
X95257476Y-99528380D01*
X112823809Y-97242380D02*
X113395238Y-97242380D01*
X113109523Y-98242380D02*
X113109523Y-97242380D01*
X113919047Y-97242380D02*
X114014285Y-97242380D01*
X114109523Y-97290000D01*
X114157142Y-97337619D01*
X114204761Y-97432857D01*
X114252380Y-97623333D01*
X114252380Y-97861428D01*
X114204761Y-98051904D01*
X114157142Y-98147142D01*
X114109523Y-98194761D01*
X114014285Y-98242380D01*
X113919047Y-98242380D01*
X113823809Y-98194761D01*
X113776190Y-98147142D01*
X113728571Y-98051904D01*
X113680952Y-97861428D01*
X113680952Y-97623333D01*
X113728571Y-97432857D01*
X113776190Y-97337619D01*
X113823809Y-97290000D01*
X113919047Y-97242380D01*
X114680952Y-98147142D02*
X114728571Y-98194761D01*
X114680952Y-98242380D01*
X114633333Y-98194761D01*
X114680952Y-98147142D01*
X114680952Y-98242380D01*
X115633333Y-97242380D02*
X115157142Y-97242380D01*
X115109523Y-97718571D01*
X115157142Y-97670952D01*
X115252380Y-97623333D01*
X115490476Y-97623333D01*
X115585714Y-97670952D01*
X115633333Y-97718571D01*
X115680952Y-97813809D01*
X115680952Y-98051904D01*
X115633333Y-98147142D01*
X115585714Y-98194761D01*
X115490476Y-98242380D01*
X115252380Y-98242380D01*
X115157142Y-98194761D01*
X115109523Y-98147142D01*
X46799761Y-52776380D02*
X46466428Y-52300190D01*
X46228333Y-52776380D02*
X46228333Y-51776380D01*
X46609285Y-51776380D01*
X46704523Y-51824000D01*
X46752142Y-51871619D01*
X46799761Y-51966857D01*
X46799761Y-52109714D01*
X46752142Y-52204952D01*
X46704523Y-52252571D01*
X46609285Y-52300190D01*
X46228333Y-52300190D01*
X47133095Y-51776380D02*
X47799761Y-52776380D01*
X47799761Y-51776380D02*
X47133095Y-52776380D01*
X48609285Y-52109714D02*
X48609285Y-52776380D01*
X48371190Y-51728761D02*
X48133095Y-52443047D01*
X48752142Y-52443047D01*
X49037857Y-51776380D02*
X49704523Y-51776380D01*
X49275952Y-52776380D01*
X50275952Y-51776380D02*
X50371190Y-51776380D01*
X50466428Y-51824000D01*
X50514047Y-51871619D01*
X50561666Y-51966857D01*
X50609285Y-52157333D01*
X50609285Y-52395428D01*
X50561666Y-52585904D01*
X50514047Y-52681142D01*
X50466428Y-52728761D01*
X50371190Y-52776380D01*
X50275952Y-52776380D01*
X50180714Y-52728761D01*
X50133095Y-52681142D01*
X50085476Y-52585904D01*
X50037857Y-52395428D01*
X50037857Y-52157333D01*
X50085476Y-51966857D01*
X50133095Y-51871619D01*
X50180714Y-51824000D01*
X50275952Y-51776380D01*
X51371190Y-52252571D02*
X51514047Y-52300190D01*
X51561666Y-52347809D01*
X51609285Y-52443047D01*
X51609285Y-52585904D01*
X51561666Y-52681142D01*
X51514047Y-52728761D01*
X51418809Y-52776380D01*
X51037857Y-52776380D01*
X51037857Y-51776380D01*
X51371190Y-51776380D01*
X51466428Y-51824000D01*
X51514047Y-51871619D01*
X51561666Y-51966857D01*
X51561666Y-52062095D01*
X51514047Y-52157333D01*
X51466428Y-52204952D01*
X51371190Y-52252571D01*
X51037857Y-52252571D01*
X60182142Y-56618142D02*
X60134523Y-56665761D01*
X59991666Y-56713380D01*
X59896428Y-56713380D01*
X59753571Y-56665761D01*
X59658333Y-56570523D01*
X59610714Y-56475285D01*
X59563095Y-56284809D01*
X59563095Y-56141952D01*
X59610714Y-55951476D01*
X59658333Y-55856238D01*
X59753571Y-55761000D01*
X59896428Y-55713380D01*
X59991666Y-55713380D01*
X60134523Y-55761000D01*
X60182142Y-55808619D01*
X60610714Y-56189571D02*
X60944047Y-56189571D01*
X61086904Y-56713380D02*
X60610714Y-56713380D01*
X60610714Y-55713380D01*
X61086904Y-55713380D01*
X63277714Y-54808380D02*
X62706285Y-54808380D01*
X62992000Y-54808380D02*
X62992000Y-53808380D01*
X62896761Y-53951238D01*
X62801523Y-54046476D01*
X62706285Y-54094095D01*
X57324666Y-53808380D02*
X57943714Y-53808380D01*
X57610380Y-54189333D01*
X57753238Y-54189333D01*
X57848476Y-54236952D01*
X57896095Y-54284571D01*
X57943714Y-54379809D01*
X57943714Y-54617904D01*
X57896095Y-54713142D01*
X57848476Y-54760761D01*
X57753238Y-54808380D01*
X57467523Y-54808380D01*
X57372285Y-54760761D01*
X57324666Y-54713142D01*
X63428619Y-74025238D02*
X64095285Y-74025238D01*
X64000047Y-74025238D02*
X64047666Y-74072857D01*
X64095285Y-74168095D01*
X64095285Y-74310952D01*
X64047666Y-74406190D01*
X63952428Y-74453809D01*
X63428619Y-74453809D01*
X63952428Y-74453809D02*
X64047666Y-74501428D01*
X64095285Y-74596666D01*
X64095285Y-74739523D01*
X64047666Y-74834761D01*
X63952428Y-74882380D01*
X63428619Y-74882380D01*
X63428619Y-75882380D02*
X63428619Y-75310952D01*
X63428619Y-75596666D02*
X64428619Y-75596666D01*
X64285761Y-75501428D01*
X64190523Y-75406190D01*
X64142904Y-75310952D01*
X63428619Y-71675738D02*
X64095285Y-71675738D01*
X64000047Y-71675738D02*
X64047666Y-71723357D01*
X64095285Y-71818595D01*
X64095285Y-71961452D01*
X64047666Y-72056690D01*
X63952428Y-72104309D01*
X63428619Y-72104309D01*
X63952428Y-72104309D02*
X64047666Y-72151928D01*
X64095285Y-72247166D01*
X64095285Y-72390023D01*
X64047666Y-72485261D01*
X63952428Y-72532880D01*
X63428619Y-72532880D01*
X63428619Y-73532880D02*
X63428619Y-72961452D01*
X63428619Y-73247166D02*
X64428619Y-73247166D01*
X64285761Y-73151928D01*
X64190523Y-73056690D01*
X64142904Y-72961452D01*
X62126904Y-82224571D02*
X62460238Y-82224571D01*
X62603095Y-82748380D02*
X62126904Y-82748380D01*
X62126904Y-81748380D01*
X62603095Y-81748380D01*
X63031666Y-82748380D02*
X63031666Y-81748380D01*
X63603095Y-82748380D01*
X63603095Y-81748380D01*
X59325142Y-88487666D02*
X59801333Y-88487666D01*
X59229904Y-88773380D02*
X59563238Y-87773380D01*
X59896571Y-88773380D01*
X60658476Y-87773380D02*
X60468000Y-87773380D01*
X60372761Y-87821000D01*
X60325142Y-87868619D01*
X60229904Y-88011476D01*
X60182285Y-88201952D01*
X60182285Y-88582904D01*
X60229904Y-88678142D01*
X60277523Y-88725761D01*
X60372761Y-88773380D01*
X60563238Y-88773380D01*
X60658476Y-88725761D01*
X60706095Y-88678142D01*
X60753714Y-88582904D01*
X60753714Y-88344809D01*
X60706095Y-88249571D01*
X60658476Y-88201952D01*
X60563238Y-88154333D01*
X60372761Y-88154333D01*
X60277523Y-88201952D01*
X60229904Y-88249571D01*
X60182285Y-88344809D01*
X61134666Y-87868619D02*
X61182285Y-87821000D01*
X61277523Y-87773380D01*
X61515619Y-87773380D01*
X61610857Y-87821000D01*
X61658476Y-87868619D01*
X61706095Y-87963857D01*
X61706095Y-88059095D01*
X61658476Y-88201952D01*
X61087047Y-88773380D01*
X61706095Y-88773380D01*
X62658476Y-88773380D02*
X62087047Y-88773380D01*
X62372761Y-88773380D02*
X62372761Y-87773380D01*
X62277523Y-87916238D01*
X62182285Y-88011476D01*
X62087047Y-88059095D01*
X63610857Y-88773380D02*
X63039428Y-88773380D01*
X63325142Y-88773380D02*
X63325142Y-87773380D01*
X63229904Y-87916238D01*
X63134666Y-88011476D01*
X63039428Y-88059095D01*
X44759619Y-35758285D02*
X44712000Y-35710666D01*
X44664380Y-35615428D01*
X44664380Y-35377333D01*
X44712000Y-35282095D01*
X44759619Y-35234476D01*
X44854857Y-35186857D01*
X44950095Y-35186857D01*
X45092952Y-35234476D01*
X45664380Y-35805904D01*
X45664380Y-35186857D01*
X44759619Y-34805904D02*
X44712000Y-34758285D01*
X44664380Y-34663047D01*
X44664380Y-34424952D01*
X44712000Y-34329714D01*
X44759619Y-34282095D01*
X44854857Y-34234476D01*
X44950095Y-34234476D01*
X45092952Y-34282095D01*
X45664380Y-34853523D01*
X45664380Y-34234476D01*
X44997714Y-33377333D02*
X45664380Y-33377333D01*
X44997714Y-33805904D02*
X45521523Y-33805904D01*
X45616761Y-33758285D01*
X45664380Y-33663047D01*
X45664380Y-33520190D01*
X45616761Y-33424952D01*
X45569142Y-33377333D01*
X45632714Y-36964904D02*
X46299380Y-36964904D01*
X45632714Y-37393476D02*
X46156523Y-37393476D01*
X46251761Y-37345857D01*
X46299380Y-37250619D01*
X46299380Y-37107761D01*
X46251761Y-37012523D01*
X46204142Y-36964904D01*
X46299380Y-35964904D02*
X46299380Y-36536333D01*
X46299380Y-36250619D02*
X45299380Y-36250619D01*
X45442238Y-36345857D01*
X45537476Y-36441095D01*
X45585095Y-36536333D01*
D11*
X92880571Y-27074523D02*
X91380571Y-27074523D01*
X91380571Y-26693571D01*
X91452000Y-26598333D01*
X91523428Y-26550714D01*
X91666285Y-26503095D01*
X91880571Y-26503095D01*
X92023428Y-26550714D01*
X92094857Y-26598333D01*
X92166285Y-26693571D01*
X92166285Y-27074523D01*
X91380571Y-25884047D02*
X91380571Y-25693571D01*
X91452000Y-25598333D01*
X91594857Y-25503095D01*
X91880571Y-25455476D01*
X92380571Y-25455476D01*
X92666285Y-25503095D01*
X92809142Y-25598333D01*
X92880571Y-25693571D01*
X92880571Y-25884047D01*
X92809142Y-25979285D01*
X92666285Y-26074523D01*
X92380571Y-26122142D01*
X91880571Y-26122142D01*
X91594857Y-26074523D01*
X91452000Y-25979285D01*
X91380571Y-25884047D01*
X91380571Y-25122142D02*
X92880571Y-24884047D01*
X91809142Y-24693571D01*
X92880571Y-24503095D01*
X91380571Y-24265000D01*
X92094857Y-23884047D02*
X92094857Y-23550714D01*
X92880571Y-23407857D02*
X92880571Y-23884047D01*
X91380571Y-23884047D01*
X91380571Y-23407857D01*
X92880571Y-22407857D02*
X92166285Y-22741190D01*
X92880571Y-22979285D02*
X91380571Y-22979285D01*
X91380571Y-22598333D01*
X91452000Y-22503095D01*
X91523428Y-22455476D01*
X91666285Y-22407857D01*
X91880571Y-22407857D01*
X92023428Y-22455476D01*
X92094857Y-22503095D01*
X92166285Y-22598333D01*
X92166285Y-22979285D01*
D16*
X51800238Y-75001380D02*
X51800238Y-74334714D01*
X51800238Y-74429952D02*
X51847857Y-74382333D01*
X51943095Y-74334714D01*
X52085952Y-74334714D01*
X52181190Y-74382333D01*
X52228809Y-74477571D01*
X52228809Y-75001380D01*
X52228809Y-74477571D02*
X52276428Y-74382333D01*
X52371666Y-74334714D01*
X52514523Y-74334714D01*
X52609761Y-74382333D01*
X52657380Y-74477571D01*
X52657380Y-75001380D01*
X53657380Y-75001380D02*
X53085952Y-75001380D01*
X53371666Y-75001380D02*
X53371666Y-74001380D01*
X53276428Y-74144238D01*
X53181190Y-74239476D01*
X53085952Y-74287095D01*
X53538380Y-72778857D02*
X53538380Y-73350285D01*
X53538380Y-73064571D02*
X52538380Y-73064571D01*
X52681238Y-73159809D01*
X52776476Y-73255047D01*
X52824095Y-73350285D01*
X52538380Y-72159809D02*
X52538380Y-72064571D01*
X52586000Y-71969333D01*
X52633619Y-71921714D01*
X52728857Y-71874095D01*
X52919333Y-71826476D01*
X53157428Y-71826476D01*
X53347904Y-71874095D01*
X53443142Y-71921714D01*
X53490761Y-71969333D01*
X53538380Y-72064571D01*
X53538380Y-72159809D01*
X53490761Y-72255047D01*
X53443142Y-72302666D01*
X53347904Y-72350285D01*
X53157428Y-72397904D01*
X52919333Y-72397904D01*
X52728857Y-72350285D01*
X52633619Y-72302666D01*
X52586000Y-72255047D01*
X52538380Y-72159809D01*
X52871714Y-70969333D02*
X53538380Y-70969333D01*
X52871714Y-71397904D02*
X53395523Y-71397904D01*
X53490761Y-71350285D01*
X53538380Y-71255047D01*
X53538380Y-71112190D01*
X53490761Y-71016952D01*
X53443142Y-70969333D01*
X52824095Y-69762714D02*
X52824095Y-70429380D01*
X52395523Y-69762714D02*
X52395523Y-70286523D01*
X52443142Y-70381761D01*
X52538380Y-70429380D01*
X52681238Y-70429380D01*
X52776476Y-70381761D01*
X52824095Y-70334142D01*
X53824095Y-70429380D02*
X53252666Y-70429380D01*
X53538380Y-70429380D02*
X53538380Y-69429380D01*
X53443142Y-69572238D01*
X53347904Y-69667476D01*
X53252666Y-69715095D01*
X63428619Y-69588142D02*
X63428619Y-69016714D01*
X63428619Y-69302428D02*
X64428619Y-69302428D01*
X64285761Y-69207190D01*
X64190523Y-69111952D01*
X64142904Y-69016714D01*
X64428619Y-70207190D02*
X64428619Y-70302428D01*
X64381000Y-70397666D01*
X64333380Y-70445285D01*
X64238142Y-70492904D01*
X64047666Y-70540523D01*
X63809571Y-70540523D01*
X63619095Y-70492904D01*
X63523857Y-70445285D01*
X63476238Y-70397666D01*
X63428619Y-70302428D01*
X63428619Y-70207190D01*
X63476238Y-70111952D01*
X63523857Y-70064333D01*
X63619095Y-70016714D01*
X63809571Y-69969095D01*
X64047666Y-69969095D01*
X64238142Y-70016714D01*
X64333380Y-70064333D01*
X64381000Y-70111952D01*
X64428619Y-70207190D01*
X64095285Y-71397666D02*
X63428619Y-71397666D01*
X64095285Y-70969095D02*
X63571476Y-70969095D01*
X63476238Y-71016714D01*
X63428619Y-71111952D01*
X63428619Y-71254809D01*
X63476238Y-71350047D01*
X63523857Y-71397666D01*
X52252595Y-89193714D02*
X52252595Y-89860380D01*
X51824023Y-89193714D02*
X51824023Y-89717523D01*
X51871642Y-89812761D01*
X51966880Y-89860380D01*
X52109738Y-89860380D01*
X52204976Y-89812761D01*
X52252595Y-89765142D01*
X53252595Y-89860380D02*
X52681166Y-89860380D01*
X52966880Y-89860380D02*
X52966880Y-88860380D01*
X52871642Y-89003238D01*
X52776404Y-89098476D01*
X52681166Y-89146095D01*
X64079523Y-95289714D02*
X64079523Y-95956380D01*
X63841428Y-94908761D02*
X63603333Y-95623047D01*
X64222380Y-95623047D01*
X64508095Y-94956380D02*
X65174761Y-94956380D01*
X64746190Y-95956380D01*
X65555714Y-95956380D02*
X65555714Y-94956380D01*
X65650952Y-95575428D02*
X65936666Y-95956380D01*
X65936666Y-95289714D02*
X65555714Y-95670666D01*
%LPC*%
G36*
G01*
X56609000Y-92387000D02*
X55659000Y-92387000D01*
G75*
G02*
X55409000Y-92137000I0J250000D01*
G01*
X55409000Y-91462000D01*
G75*
G02*
X55659000Y-91212000I250000J0D01*
G01*
X56609000Y-91212000D01*
G75*
G02*
X56859000Y-91462000I0J-250000D01*
G01*
X56859000Y-92137000D01*
G75*
G02*
X56609000Y-92387000I-250000J0D01*
G01*
G37*
G36*
G01*
X56609000Y-94462000D02*
X55659000Y-94462000D01*
G75*
G02*
X55409000Y-94212000I0J250000D01*
G01*
X55409000Y-93537000D01*
G75*
G02*
X55659000Y-93287000I250000J0D01*
G01*
X56609000Y-93287000D01*
G75*
G02*
X56859000Y-93537000I0J-250000D01*
G01*
X56859000Y-94212000D01*
G75*
G02*
X56609000Y-94462000I-250000J0D01*
G01*
G37*
D17*
X52408400Y-92964000D03*
X41808400Y-92964000D03*
G36*
G01*
X37400001Y-95350000D02*
X36099999Y-95350000D01*
G75*
G02*
X35850000Y-95100001I0J249999D01*
G01*
X35850000Y-94274999D01*
G75*
G02*
X36099999Y-94025000I249999J0D01*
G01*
X37400001Y-94025000D01*
G75*
G02*
X37650000Y-94274999I0J-249999D01*
G01*
X37650000Y-95100001D01*
G75*
G02*
X37400001Y-95350000I-249999J0D01*
G01*
G37*
G36*
G01*
X37400001Y-98475000D02*
X36099999Y-98475000D01*
G75*
G02*
X35850000Y-98225001I0J249999D01*
G01*
X35850000Y-97399999D01*
G75*
G02*
X36099999Y-97150000I249999J0D01*
G01*
X37400001Y-97150000D01*
G75*
G02*
X37650000Y-97399999I0J-249999D01*
G01*
X37650000Y-98225001D01*
G75*
G02*
X37400001Y-98475000I-249999J0D01*
G01*
G37*
G36*
G01*
X68468001Y-87111000D02*
X67167999Y-87111000D01*
G75*
G02*
X66918000Y-86861001I0J249999D01*
G01*
X66918000Y-86035999D01*
G75*
G02*
X67167999Y-85786000I249999J0D01*
G01*
X68468001Y-85786000D01*
G75*
G02*
X68718000Y-86035999I0J-249999D01*
G01*
X68718000Y-86861001D01*
G75*
G02*
X68468001Y-87111000I-249999J0D01*
G01*
G37*
G36*
G01*
X68468001Y-90236000D02*
X67167999Y-90236000D01*
G75*
G02*
X66918000Y-89986001I0J249999D01*
G01*
X66918000Y-89160999D01*
G75*
G02*
X67167999Y-88911000I249999J0D01*
G01*
X68468001Y-88911000D01*
G75*
G02*
X68718000Y-89160999I0J-249999D01*
G01*
X68718000Y-89986001D01*
G75*
G02*
X68468001Y-90236000I-249999J0D01*
G01*
G37*
G36*
G01*
X71258000Y-93360001D02*
X71258000Y-92059999D01*
G75*
G02*
X71507999Y-91810000I249999J0D01*
G01*
X72333001Y-91810000D01*
G75*
G02*
X72583000Y-92059999I0J-249999D01*
G01*
X72583000Y-93360001D01*
G75*
G02*
X72333001Y-93610000I-249999J0D01*
G01*
X71507999Y-93610000D01*
G75*
G02*
X71258000Y-93360001I0J249999D01*
G01*
G37*
G36*
G01*
X68133000Y-93360001D02*
X68133000Y-92059999D01*
G75*
G02*
X68382999Y-91810000I249999J0D01*
G01*
X69208001Y-91810000D01*
G75*
G02*
X69458000Y-92059999I0J-249999D01*
G01*
X69458000Y-93360001D01*
G75*
G02*
X69208001Y-93610000I-249999J0D01*
G01*
X68382999Y-93610000D01*
G75*
G02*
X68133000Y-93360001I0J249999D01*
G01*
G37*
D18*
X69723000Y-99893000D03*
D19*
X69723000Y-96393000D03*
D20*
X79184500Y-67373500D03*
D21*
X79184500Y-69913500D03*
G36*
G01*
X68904000Y-33423000D02*
X68904000Y-33873000D01*
G75*
G02*
X68679000Y-34098000I-225000J0D01*
G01*
X66129000Y-34098000D01*
G75*
G02*
X65904000Y-33873000I0J225000D01*
G01*
X65904000Y-33423000D01*
G75*
G02*
X66129000Y-33198000I225000J0D01*
G01*
X68679000Y-33198000D01*
G75*
G02*
X68904000Y-33423000I0J-225000D01*
G01*
G37*
G36*
G01*
X68904000Y-34693000D02*
X68904000Y-35143000D01*
G75*
G02*
X68679000Y-35368000I-225000J0D01*
G01*
X66129000Y-35368000D01*
G75*
G02*
X65904000Y-35143000I0J225000D01*
G01*
X65904000Y-34693000D01*
G75*
G02*
X66129000Y-34468000I225000J0D01*
G01*
X68679000Y-34468000D01*
G75*
G02*
X68904000Y-34693000I0J-225000D01*
G01*
G37*
G36*
G01*
X68904000Y-35963000D02*
X68904000Y-36413000D01*
G75*
G02*
X68679000Y-36638000I-225000J0D01*
G01*
X66129000Y-36638000D01*
G75*
G02*
X65904000Y-36413000I0J225000D01*
G01*
X65904000Y-35963000D01*
G75*
G02*
X66129000Y-35738000I225000J0D01*
G01*
X68679000Y-35738000D01*
G75*
G02*
X68904000Y-35963000I0J-225000D01*
G01*
G37*
G36*
G01*
X68904000Y-37233000D02*
X68904000Y-37683000D01*
G75*
G02*
X68679000Y-37908000I-225000J0D01*
G01*
X66129000Y-37908000D01*
G75*
G02*
X65904000Y-37683000I0J225000D01*
G01*
X65904000Y-37233000D01*
G75*
G02*
X66129000Y-37008000I225000J0D01*
G01*
X68679000Y-37008000D01*
G75*
G02*
X68904000Y-37233000I0J-225000D01*
G01*
G37*
G36*
G01*
X68904000Y-38503000D02*
X68904000Y-38953000D01*
G75*
G02*
X68679000Y-39178000I-225000J0D01*
G01*
X66129000Y-39178000D01*
G75*
G02*
X65904000Y-38953000I0J225000D01*
G01*
X65904000Y-38503000D01*
G75*
G02*
X66129000Y-38278000I225000J0D01*
G01*
X68679000Y-38278000D01*
G75*
G02*
X68904000Y-38503000I0J-225000D01*
G01*
G37*
G36*
G01*
X68904000Y-39773000D02*
X68904000Y-40223000D01*
G75*
G02*
X68679000Y-40448000I-225000J0D01*
G01*
X66129000Y-40448000D01*
G75*
G02*
X65904000Y-40223000I0J225000D01*
G01*
X65904000Y-39773000D01*
G75*
G02*
X66129000Y-39548000I225000J0D01*
G01*
X68679000Y-39548000D01*
G75*
G02*
X68904000Y-39773000I0J-225000D01*
G01*
G37*
G36*
G01*
X68904000Y-41043000D02*
X68904000Y-41493000D01*
G75*
G02*
X68679000Y-41718000I-225000J0D01*
G01*
X66129000Y-41718000D01*
G75*
G02*
X65904000Y-41493000I0J225000D01*
G01*
X65904000Y-41043000D01*
G75*
G02*
X66129000Y-40818000I225000J0D01*
G01*
X68679000Y-40818000D01*
G75*
G02*
X68904000Y-41043000I0J-225000D01*
G01*
G37*
G36*
G01*
X68904000Y-42313000D02*
X68904000Y-42763000D01*
G75*
G02*
X68679000Y-42988000I-225000J0D01*
G01*
X66129000Y-42988000D01*
G75*
G02*
X65904000Y-42763000I0J225000D01*
G01*
X65904000Y-42313000D01*
G75*
G02*
X66129000Y-42088000I225000J0D01*
G01*
X68679000Y-42088000D01*
G75*
G02*
X68904000Y-42313000I0J-225000D01*
G01*
G37*
G36*
G01*
X68904000Y-43583000D02*
X68904000Y-44033000D01*
G75*
G02*
X68679000Y-44258000I-225000J0D01*
G01*
X66129000Y-44258000D01*
G75*
G02*
X65904000Y-44033000I0J225000D01*
G01*
X65904000Y-43583000D01*
G75*
G02*
X66129000Y-43358000I225000J0D01*
G01*
X68679000Y-43358000D01*
G75*
G02*
X68904000Y-43583000I0J-225000D01*
G01*
G37*
G36*
G01*
X68904000Y-44853000D02*
X68904000Y-45303000D01*
G75*
G02*
X68679000Y-45528000I-225000J0D01*
G01*
X66129000Y-45528000D01*
G75*
G02*
X65904000Y-45303000I0J225000D01*
G01*
X65904000Y-44853000D01*
G75*
G02*
X66129000Y-44628000I225000J0D01*
G01*
X68679000Y-44628000D01*
G75*
G02*
X68904000Y-44853000I0J-225000D01*
G01*
G37*
G36*
G01*
X68904000Y-46123000D02*
X68904000Y-46573000D01*
G75*
G02*
X68679000Y-46798000I-225000J0D01*
G01*
X66129000Y-46798000D01*
G75*
G02*
X65904000Y-46573000I0J225000D01*
G01*
X65904000Y-46123000D01*
G75*
G02*
X66129000Y-45898000I225000J0D01*
G01*
X68679000Y-45898000D01*
G75*
G02*
X68904000Y-46123000I0J-225000D01*
G01*
G37*
G36*
G01*
X68904000Y-47393000D02*
X68904000Y-47843000D01*
G75*
G02*
X68679000Y-48068000I-225000J0D01*
G01*
X66129000Y-48068000D01*
G75*
G02*
X65904000Y-47843000I0J225000D01*
G01*
X65904000Y-47393000D01*
G75*
G02*
X66129000Y-47168000I225000J0D01*
G01*
X68679000Y-47168000D01*
G75*
G02*
X68904000Y-47393000I0J-225000D01*
G01*
G37*
G36*
G01*
X68904000Y-48663000D02*
X68904000Y-49113000D01*
G75*
G02*
X68679000Y-49338000I-225000J0D01*
G01*
X66129000Y-49338000D01*
G75*
G02*
X65904000Y-49113000I0J225000D01*
G01*
X65904000Y-48663000D01*
G75*
G02*
X66129000Y-48438000I225000J0D01*
G01*
X68679000Y-48438000D01*
G75*
G02*
X68904000Y-48663000I0J-225000D01*
G01*
G37*
G36*
G01*
X68904000Y-49933000D02*
X68904000Y-50383000D01*
G75*
G02*
X68679000Y-50608000I-225000J0D01*
G01*
X66129000Y-50608000D01*
G75*
G02*
X65904000Y-50383000I0J225000D01*
G01*
X65904000Y-49933000D01*
G75*
G02*
X66129000Y-49708000I225000J0D01*
G01*
X68679000Y-49708000D01*
G75*
G02*
X68904000Y-49933000I0J-225000D01*
G01*
G37*
G36*
G01*
X64344000Y-53158000D02*
X63894000Y-53158000D01*
G75*
G02*
X63669000Y-52933000I0J225000D01*
G01*
X63669000Y-50383000D01*
G75*
G02*
X63894000Y-50158000I225000J0D01*
G01*
X64344000Y-50158000D01*
G75*
G02*
X64569000Y-50383000I0J-225000D01*
G01*
X64569000Y-52933000D01*
G75*
G02*
X64344000Y-53158000I-225000J0D01*
G01*
G37*
G36*
G01*
X63074000Y-53158000D02*
X62624000Y-53158000D01*
G75*
G02*
X62399000Y-52933000I0J225000D01*
G01*
X62399000Y-50383000D01*
G75*
G02*
X62624000Y-50158000I225000J0D01*
G01*
X63074000Y-50158000D01*
G75*
G02*
X63299000Y-50383000I0J-225000D01*
G01*
X63299000Y-52933000D01*
G75*
G02*
X63074000Y-53158000I-225000J0D01*
G01*
G37*
G36*
G01*
X61804000Y-53158000D02*
X61354000Y-53158000D01*
G75*
G02*
X61129000Y-52933000I0J225000D01*
G01*
X61129000Y-50383000D01*
G75*
G02*
X61354000Y-50158000I225000J0D01*
G01*
X61804000Y-50158000D01*
G75*
G02*
X62029000Y-50383000I0J-225000D01*
G01*
X62029000Y-52933000D01*
G75*
G02*
X61804000Y-53158000I-225000J0D01*
G01*
G37*
G36*
G01*
X60534000Y-53158000D02*
X60084000Y-53158000D01*
G75*
G02*
X59859000Y-52933000I0J225000D01*
G01*
X59859000Y-50383000D01*
G75*
G02*
X60084000Y-50158000I225000J0D01*
G01*
X60534000Y-50158000D01*
G75*
G02*
X60759000Y-50383000I0J-225000D01*
G01*
X60759000Y-52933000D01*
G75*
G02*
X60534000Y-53158000I-225000J0D01*
G01*
G37*
G36*
G01*
X59264000Y-53158000D02*
X58814000Y-53158000D01*
G75*
G02*
X58589000Y-52933000I0J225000D01*
G01*
X58589000Y-50383000D01*
G75*
G02*
X58814000Y-50158000I225000J0D01*
G01*
X59264000Y-50158000D01*
G75*
G02*
X59489000Y-50383000I0J-225000D01*
G01*
X59489000Y-52933000D01*
G75*
G02*
X59264000Y-53158000I-225000J0D01*
G01*
G37*
G36*
G01*
X57994000Y-53158000D02*
X57544000Y-53158000D01*
G75*
G02*
X57319000Y-52933000I0J225000D01*
G01*
X57319000Y-50383000D01*
G75*
G02*
X57544000Y-50158000I225000J0D01*
G01*
X57994000Y-50158000D01*
G75*
G02*
X58219000Y-50383000I0J-225000D01*
G01*
X58219000Y-52933000D01*
G75*
G02*
X57994000Y-53158000I-225000J0D01*
G01*
G37*
G36*
G01*
X56724000Y-53158000D02*
X56274000Y-53158000D01*
G75*
G02*
X56049000Y-52933000I0J225000D01*
G01*
X56049000Y-50383000D01*
G75*
G02*
X56274000Y-50158000I225000J0D01*
G01*
X56724000Y-50158000D01*
G75*
G02*
X56949000Y-50383000I0J-225000D01*
G01*
X56949000Y-52933000D01*
G75*
G02*
X56724000Y-53158000I-225000J0D01*
G01*
G37*
G36*
G01*
X55454000Y-53158000D02*
X55004000Y-53158000D01*
G75*
G02*
X54779000Y-52933000I0J225000D01*
G01*
X54779000Y-50383000D01*
G75*
G02*
X55004000Y-50158000I225000J0D01*
G01*
X55454000Y-50158000D01*
G75*
G02*
X55679000Y-50383000I0J-225000D01*
G01*
X55679000Y-52933000D01*
G75*
G02*
X55454000Y-53158000I-225000J0D01*
G01*
G37*
G36*
G01*
X54184000Y-53158000D02*
X53734000Y-53158000D01*
G75*
G02*
X53509000Y-52933000I0J225000D01*
G01*
X53509000Y-50383000D01*
G75*
G02*
X53734000Y-50158000I225000J0D01*
G01*
X54184000Y-50158000D01*
G75*
G02*
X54409000Y-50383000I0J-225000D01*
G01*
X54409000Y-52933000D01*
G75*
G02*
X54184000Y-53158000I-225000J0D01*
G01*
G37*
G36*
G01*
X52914000Y-53158000D02*
X52464000Y-53158000D01*
G75*
G02*
X52239000Y-52933000I0J225000D01*
G01*
X52239000Y-50383000D01*
G75*
G02*
X52464000Y-50158000I225000J0D01*
G01*
X52914000Y-50158000D01*
G75*
G02*
X53139000Y-50383000I0J-225000D01*
G01*
X53139000Y-52933000D01*
G75*
G02*
X52914000Y-53158000I-225000J0D01*
G01*
G37*
G36*
G01*
X47904000Y-50383000D02*
X47904000Y-49933000D01*
G75*
G02*
X48129000Y-49708000I225000J0D01*
G01*
X50679000Y-49708000D01*
G75*
G02*
X50904000Y-49933000I0J-225000D01*
G01*
X50904000Y-50383000D01*
G75*
G02*
X50679000Y-50608000I-225000J0D01*
G01*
X48129000Y-50608000D01*
G75*
G02*
X47904000Y-50383000I0J225000D01*
G01*
G37*
G36*
G01*
X47904000Y-49113000D02*
X47904000Y-48663000D01*
G75*
G02*
X48129000Y-48438000I225000J0D01*
G01*
X50679000Y-48438000D01*
G75*
G02*
X50904000Y-48663000I0J-225000D01*
G01*
X50904000Y-49113000D01*
G75*
G02*
X50679000Y-49338000I-225000J0D01*
G01*
X48129000Y-49338000D01*
G75*
G02*
X47904000Y-49113000I0J225000D01*
G01*
G37*
G36*
G01*
X47904000Y-47843000D02*
X47904000Y-47393000D01*
G75*
G02*
X48129000Y-47168000I225000J0D01*
G01*
X50679000Y-47168000D01*
G75*
G02*
X50904000Y-47393000I0J-225000D01*
G01*
X50904000Y-47843000D01*
G75*
G02*
X50679000Y-48068000I-225000J0D01*
G01*
X48129000Y-48068000D01*
G75*
G02*
X47904000Y-47843000I0J225000D01*
G01*
G37*
G36*
G01*
X47904000Y-46573000D02*
X47904000Y-46123000D01*
G75*
G02*
X48129000Y-45898000I225000J0D01*
G01*
X50679000Y-45898000D01*
G75*
G02*
X50904000Y-46123000I0J-225000D01*
G01*
X50904000Y-46573000D01*
G75*
G02*
X50679000Y-46798000I-225000J0D01*
G01*
X48129000Y-46798000D01*
G75*
G02*
X47904000Y-46573000I0J225000D01*
G01*
G37*
G36*
G01*
X47904000Y-45303000D02*
X47904000Y-44853000D01*
G75*
G02*
X48129000Y-44628000I225000J0D01*
G01*
X50679000Y-44628000D01*
G75*
G02*
X50904000Y-44853000I0J-225000D01*
G01*
X50904000Y-45303000D01*
G75*
G02*
X50679000Y-45528000I-225000J0D01*
G01*
X48129000Y-45528000D01*
G75*
G02*
X47904000Y-45303000I0J225000D01*
G01*
G37*
G36*
G01*
X47904000Y-44033000D02*
X47904000Y-43583000D01*
G75*
G02*
X48129000Y-43358000I225000J0D01*
G01*
X50679000Y-43358000D01*
G75*
G02*
X50904000Y-43583000I0J-225000D01*
G01*
X50904000Y-44033000D01*
G75*
G02*
X50679000Y-44258000I-225000J0D01*
G01*
X48129000Y-44258000D01*
G75*
G02*
X47904000Y-44033000I0J225000D01*
G01*
G37*
G36*
G01*
X47904000Y-42763000D02*
X47904000Y-42313000D01*
G75*
G02*
X48129000Y-42088000I225000J0D01*
G01*
X50679000Y-42088000D01*
G75*
G02*
X50904000Y-42313000I0J-225000D01*
G01*
X50904000Y-42763000D01*
G75*
G02*
X50679000Y-42988000I-225000J0D01*
G01*
X48129000Y-42988000D01*
G75*
G02*
X47904000Y-42763000I0J225000D01*
G01*
G37*
G36*
G01*
X47904000Y-41493000D02*
X47904000Y-41043000D01*
G75*
G02*
X48129000Y-40818000I225000J0D01*
G01*
X50679000Y-40818000D01*
G75*
G02*
X50904000Y-41043000I0J-225000D01*
G01*
X50904000Y-41493000D01*
G75*
G02*
X50679000Y-41718000I-225000J0D01*
G01*
X48129000Y-41718000D01*
G75*
G02*
X47904000Y-41493000I0J225000D01*
G01*
G37*
G36*
G01*
X47904000Y-40223000D02*
X47904000Y-39773000D01*
G75*
G02*
X48129000Y-39548000I225000J0D01*
G01*
X50679000Y-39548000D01*
G75*
G02*
X50904000Y-39773000I0J-225000D01*
G01*
X50904000Y-40223000D01*
G75*
G02*
X50679000Y-40448000I-225000J0D01*
G01*
X48129000Y-40448000D01*
G75*
G02*
X47904000Y-40223000I0J225000D01*
G01*
G37*
G36*
G01*
X47904000Y-38953000D02*
X47904000Y-38503000D01*
G75*
G02*
X48129000Y-38278000I225000J0D01*
G01*
X50679000Y-38278000D01*
G75*
G02*
X50904000Y-38503000I0J-225000D01*
G01*
X50904000Y-38953000D01*
G75*
G02*
X50679000Y-39178000I-225000J0D01*
G01*
X48129000Y-39178000D01*
G75*
G02*
X47904000Y-38953000I0J225000D01*
G01*
G37*
G36*
G01*
X47904000Y-37683000D02*
X47904000Y-37233000D01*
G75*
G02*
X48129000Y-37008000I225000J0D01*
G01*
X50679000Y-37008000D01*
G75*
G02*
X50904000Y-37233000I0J-225000D01*
G01*
X50904000Y-37683000D01*
G75*
G02*
X50679000Y-37908000I-225000J0D01*
G01*
X48129000Y-37908000D01*
G75*
G02*
X47904000Y-37683000I0J225000D01*
G01*
G37*
G36*
G01*
X47904000Y-36413000D02*
X47904000Y-35963000D01*
G75*
G02*
X48129000Y-35738000I225000J0D01*
G01*
X50679000Y-35738000D01*
G75*
G02*
X50904000Y-35963000I0J-225000D01*
G01*
X50904000Y-36413000D01*
G75*
G02*
X50679000Y-36638000I-225000J0D01*
G01*
X48129000Y-36638000D01*
G75*
G02*
X47904000Y-36413000I0J225000D01*
G01*
G37*
G36*
G01*
X47904000Y-35143000D02*
X47904000Y-34693000D01*
G75*
G02*
X48129000Y-34468000I225000J0D01*
G01*
X50679000Y-34468000D01*
G75*
G02*
X50904000Y-34693000I0J-225000D01*
G01*
X50904000Y-35143000D01*
G75*
G02*
X50679000Y-35368000I-225000J0D01*
G01*
X48129000Y-35368000D01*
G75*
G02*
X47904000Y-35143000I0J225000D01*
G01*
G37*
G36*
G01*
X47904000Y-33873000D02*
X47904000Y-33423000D01*
G75*
G02*
X48129000Y-33198000I225000J0D01*
G01*
X50679000Y-33198000D01*
G75*
G02*
X50904000Y-33423000I0J-225000D01*
G01*
X50904000Y-33873000D01*
G75*
G02*
X50679000Y-34098000I-225000J0D01*
G01*
X48129000Y-34098000D01*
G75*
G02*
X47904000Y-33873000I0J225000D01*
G01*
G37*
D22*
X57404000Y-41148000D03*
G36*
G01*
X77989000Y-63705501D02*
X77989000Y-62405499D01*
G75*
G02*
X78238999Y-62155500I249999J0D01*
G01*
X79064001Y-62155500D01*
G75*
G02*
X79314000Y-62405499I0J-249999D01*
G01*
X79314000Y-63705501D01*
G75*
G02*
X79064001Y-63955500I-249999J0D01*
G01*
X78238999Y-63955500D01*
G75*
G02*
X77989000Y-63705501I0J249999D01*
G01*
G37*
G36*
G01*
X74864000Y-63705501D02*
X74864000Y-62405499D01*
G75*
G02*
X75113999Y-62155500I249999J0D01*
G01*
X75939001Y-62155500D01*
G75*
G02*
X76189000Y-62405499I0J-249999D01*
G01*
X76189000Y-63705501D01*
G75*
G02*
X75939001Y-63955500I-249999J0D01*
G01*
X75113999Y-63955500D01*
G75*
G02*
X74864000Y-63705501I0J249999D01*
G01*
G37*
G36*
G01*
X77989000Y-61292501D02*
X77989000Y-59992499D01*
G75*
G02*
X78238999Y-59742500I249999J0D01*
G01*
X79064001Y-59742500D01*
G75*
G02*
X79314000Y-59992499I0J-249999D01*
G01*
X79314000Y-61292501D01*
G75*
G02*
X79064001Y-61542500I-249999J0D01*
G01*
X78238999Y-61542500D01*
G75*
G02*
X77989000Y-61292501I0J249999D01*
G01*
G37*
G36*
G01*
X74864000Y-61292501D02*
X74864000Y-59992499D01*
G75*
G02*
X75113999Y-59742500I249999J0D01*
G01*
X75939001Y-59742500D01*
G75*
G02*
X76189000Y-59992499I0J-249999D01*
G01*
X76189000Y-61292501D01*
G75*
G02*
X75939001Y-61542500I-249999J0D01*
G01*
X75113999Y-61542500D01*
G75*
G02*
X74864000Y-61292501I0J249999D01*
G01*
G37*
G36*
G01*
X77989000Y-58879501D02*
X77989000Y-57579499D01*
G75*
G02*
X78238999Y-57329500I249999J0D01*
G01*
X79064001Y-57329500D01*
G75*
G02*
X79314000Y-57579499I0J-249999D01*
G01*
X79314000Y-58879501D01*
G75*
G02*
X79064001Y-59129500I-249999J0D01*
G01*
X78238999Y-59129500D01*
G75*
G02*
X77989000Y-58879501I0J249999D01*
G01*
G37*
G36*
G01*
X74864000Y-58879501D02*
X74864000Y-57579499D01*
G75*
G02*
X75113999Y-57329500I249999J0D01*
G01*
X75939001Y-57329500D01*
G75*
G02*
X76189000Y-57579499I0J-249999D01*
G01*
X76189000Y-58879501D01*
G75*
G02*
X75939001Y-59129500I-249999J0D01*
G01*
X75113999Y-59129500D01*
G75*
G02*
X74864000Y-58879501I0J249999D01*
G01*
G37*
D20*
X81407000Y-58547000D03*
X81407000Y-56007000D03*
X81407000Y-53467000D03*
X81407000Y-50927000D03*
X81407000Y-48387000D03*
X81407000Y-45847000D03*
D21*
X81407000Y-43307000D03*
D23*
X29718000Y-93472000D03*
G36*
G01*
X31268001Y-99592000D02*
X28167999Y-99592000D01*
G75*
G02*
X27918000Y-99342001I0J249999D01*
G01*
X27918000Y-97761999D01*
G75*
G02*
X28167999Y-97512000I249999J0D01*
G01*
X31268001Y-97512000D01*
G75*
G02*
X31518000Y-97761999I0J-249999D01*
G01*
X31518000Y-99342001D01*
G75*
G02*
X31268001Y-99592000I-249999J0D01*
G01*
G37*
X29718000Y-80645000D03*
G36*
G01*
X31268001Y-86765000D02*
X28167999Y-86765000D01*
G75*
G02*
X27918000Y-86515001I0J249999D01*
G01*
X27918000Y-84934999D01*
G75*
G02*
X28167999Y-84685000I249999J0D01*
G01*
X31268001Y-84685000D01*
G75*
G02*
X31518000Y-84934999I0J-249999D01*
G01*
X31518000Y-86515001D01*
G75*
G02*
X31268001Y-86765000I-249999J0D01*
G01*
G37*
X28829000Y-38735000D03*
G36*
G01*
X27278999Y-32615000D02*
X30379001Y-32615000D01*
G75*
G02*
X30629000Y-32864999I0J-249999D01*
G01*
X30629000Y-34445001D01*
G75*
G02*
X30379001Y-34695000I-249999J0D01*
G01*
X27278999Y-34695000D01*
G75*
G02*
X27029000Y-34445001I0J249999D01*
G01*
X27029000Y-32864999D01*
G75*
G02*
X27278999Y-32615000I249999J0D01*
G01*
G37*
D24*
X28448000Y-28011000D03*
G36*
G01*
X26898000Y-23611000D02*
X29998000Y-23611000D01*
G75*
G02*
X30248000Y-23861000I0J-250000D01*
G01*
X30248000Y-25161000D01*
G75*
G02*
X29998000Y-25411000I-250000J0D01*
G01*
X26898000Y-25411000D01*
G75*
G02*
X26648000Y-25161000I0J250000D01*
G01*
X26648000Y-23861000D01*
G75*
G02*
X26898000Y-23611000I250000J0D01*
G01*
G37*
D25*
X79629000Y-34798000D03*
X78359000Y-34798000D03*
X79629000Y-33528000D03*
X78359000Y-33528000D03*
X79629000Y-32258000D03*
D26*
X78359000Y-32258000D03*
D27*
X79212000Y-74566000D03*
X79212000Y-92566000D03*
X112812000Y-80566000D03*
D28*
X112812000Y-86566000D03*
G36*
G01*
X62816501Y-65648000D02*
X61516499Y-65648000D01*
G75*
G02*
X61266500Y-65398001I0J249999D01*
G01*
X61266500Y-64572999D01*
G75*
G02*
X61516499Y-64323000I249999J0D01*
G01*
X62816501Y-64323000D01*
G75*
G02*
X63066500Y-64572999I0J-249999D01*
G01*
X63066500Y-65398001D01*
G75*
G02*
X62816501Y-65648000I-249999J0D01*
G01*
G37*
G36*
G01*
X62816501Y-68773000D02*
X61516499Y-68773000D01*
G75*
G02*
X61266500Y-68523001I0J249999D01*
G01*
X61266500Y-67697999D01*
G75*
G02*
X61516499Y-67448000I249999J0D01*
G01*
X62816501Y-67448000D01*
G75*
G02*
X63066500Y-67697999I0J-249999D01*
G01*
X63066500Y-68523001D01*
G75*
G02*
X62816501Y-68773000I-249999J0D01*
G01*
G37*
G36*
G01*
X65166001Y-65648000D02*
X63865999Y-65648000D01*
G75*
G02*
X63616000Y-65398001I0J249999D01*
G01*
X63616000Y-64572999D01*
G75*
G02*
X63865999Y-64323000I249999J0D01*
G01*
X65166001Y-64323000D01*
G75*
G02*
X65416000Y-64572999I0J-249999D01*
G01*
X65416000Y-65398001D01*
G75*
G02*
X65166001Y-65648000I-249999J0D01*
G01*
G37*
G36*
G01*
X65166001Y-68773000D02*
X63865999Y-68773000D01*
G75*
G02*
X63616000Y-68523001I0J249999D01*
G01*
X63616000Y-67697999D01*
G75*
G02*
X63865999Y-67448000I249999J0D01*
G01*
X65166001Y-67448000D01*
G75*
G02*
X65416000Y-67697999I0J-249999D01*
G01*
X65416000Y-68523001D01*
G75*
G02*
X65166001Y-68773000I-249999J0D01*
G01*
G37*
G36*
G01*
X61987000Y-77929501D02*
X61987000Y-76629499D01*
G75*
G02*
X62236999Y-76379500I249999J0D01*
G01*
X63062001Y-76379500D01*
G75*
G02*
X63312000Y-76629499I0J-249999D01*
G01*
X63312000Y-77929501D01*
G75*
G02*
X63062001Y-78179500I-249999J0D01*
G01*
X62236999Y-78179500D01*
G75*
G02*
X61987000Y-77929501I0J249999D01*
G01*
G37*
G36*
G01*
X58862000Y-77929501D02*
X58862000Y-76629499D01*
G75*
G02*
X59111999Y-76379500I249999J0D01*
G01*
X59937001Y-76379500D01*
G75*
G02*
X60187000Y-76629499I0J-249999D01*
G01*
X60187000Y-77929501D01*
G75*
G02*
X59937001Y-78179500I-249999J0D01*
G01*
X59111999Y-78179500D01*
G75*
G02*
X58862000Y-77929501I0J249999D01*
G01*
G37*
D29*
X76100500Y-47235000D03*
X71600500Y-47235000D03*
X71600500Y-55635000D03*
X76100500Y-55635000D03*
D30*
X38163500Y-28702000D03*
X40703500Y-28702000D03*
D31*
X43243500Y-28702000D03*
D32*
X50482500Y-58483500D03*
D33*
G36*
X51231898Y-59783500D02*
G01*
X51231898Y-59808034D01*
X51227088Y-59856865D01*
X51217516Y-59904990D01*
X51203272Y-59951945D01*
X51184495Y-59997278D01*
X51161364Y-60040551D01*
X51134104Y-60081350D01*
X51102976Y-60119279D01*
X51068279Y-60153976D01*
X51030350Y-60185104D01*
X50989551Y-60212364D01*
X50946278Y-60235495D01*
X50900945Y-60254272D01*
X50853990Y-60268516D01*
X50805865Y-60278088D01*
X50757034Y-60282898D01*
X50732500Y-60282898D01*
X50732500Y-60283500D01*
X50232500Y-60283500D01*
X50232500Y-60282898D01*
X50207966Y-60282898D01*
X50159135Y-60278088D01*
X50111010Y-60268516D01*
X50064055Y-60254272D01*
X50018722Y-60235495D01*
X49975449Y-60212364D01*
X49934650Y-60185104D01*
X49896721Y-60153976D01*
X49862024Y-60119279D01*
X49830896Y-60081350D01*
X49803636Y-60040551D01*
X49780505Y-59997278D01*
X49761728Y-59951945D01*
X49747484Y-59904990D01*
X49737912Y-59856865D01*
X49733102Y-59808034D01*
X49733102Y-59783500D01*
X49732500Y-59783500D01*
X49732500Y-59233500D01*
X51232500Y-59233500D01*
X51232500Y-59783500D01*
X51231898Y-59783500D01*
G37*
G36*
X49732500Y-57733500D02*
G01*
X49732500Y-57183500D01*
X49733102Y-57183500D01*
X49733102Y-57158966D01*
X49737912Y-57110135D01*
X49747484Y-57062010D01*
X49761728Y-57015055D01*
X49780505Y-56969722D01*
X49803636Y-56926449D01*
X49830896Y-56885650D01*
X49862024Y-56847721D01*
X49896721Y-56813024D01*
X49934650Y-56781896D01*
X49975449Y-56754636D01*
X50018722Y-56731505D01*
X50064055Y-56712728D01*
X50111010Y-56698484D01*
X50159135Y-56688912D01*
X50207966Y-56684102D01*
X50232500Y-56684102D01*
X50232500Y-56683500D01*
X50732500Y-56683500D01*
X50732500Y-56684102D01*
X50757034Y-56684102D01*
X50805865Y-56688912D01*
X50853990Y-56698484D01*
X50900945Y-56712728D01*
X50946278Y-56731505D01*
X50989551Y-56754636D01*
X51030350Y-56781896D01*
X51068279Y-56813024D01*
X51102976Y-56847721D01*
X51134104Y-56885650D01*
X51161364Y-56926449D01*
X51184495Y-56969722D01*
X51203272Y-57015055D01*
X51217516Y-57062010D01*
X51227088Y-57110135D01*
X51231898Y-57158966D01*
X51231898Y-57183500D01*
X51232500Y-57183500D01*
X51232500Y-57733500D01*
X49732500Y-57733500D01*
G37*
G36*
G01*
X78643500Y-45397000D02*
X77693500Y-45397000D01*
G75*
G02*
X77443500Y-45147000I0J250000D01*
G01*
X77443500Y-44472000D01*
G75*
G02*
X77693500Y-44222000I250000J0D01*
G01*
X78643500Y-44222000D01*
G75*
G02*
X78893500Y-44472000I0J-250000D01*
G01*
X78893500Y-45147000D01*
G75*
G02*
X78643500Y-45397000I-250000J0D01*
G01*
G37*
G36*
G01*
X78643500Y-47472000D02*
X77693500Y-47472000D01*
G75*
G02*
X77443500Y-47222000I0J250000D01*
G01*
X77443500Y-46547000D01*
G75*
G02*
X77693500Y-46297000I250000J0D01*
G01*
X78643500Y-46297000D01*
G75*
G02*
X78893500Y-46547000I0J-250000D01*
G01*
X78893500Y-47222000D01*
G75*
G02*
X78643500Y-47472000I-250000J0D01*
G01*
G37*
D34*
X39751000Y-72517000D03*
X39751000Y-74957000D03*
X39751000Y-77697000D03*
X39751000Y-80137000D03*
D35*
X62348000Y-99760000D03*
X45348000Y-99760000D03*
X45348000Y-60260000D03*
X62348000Y-60260000D03*
D36*
X70679000Y-44829000D03*
X70679000Y-41529000D03*
X75879000Y-41529000D03*
X75879000Y-44829000D03*
D37*
X47879000Y-65532000D03*
X50419000Y-65532000D03*
X47879000Y-68072000D03*
X50419000Y-68072000D03*
X47879000Y-70612000D03*
X50419000Y-70612000D03*
X47879000Y-73152000D03*
D38*
X50419000Y-73152000D03*
D39*
X113750000Y-62739000D03*
X106750000Y-62739000D03*
X95250000Y-58039000D03*
X95250000Y-62739000D03*
D24*
X28448000Y-71333000D03*
X28448000Y-67833000D03*
X28448000Y-64333000D03*
G36*
G01*
X26898000Y-59933000D02*
X29998000Y-59933000D01*
G75*
G02*
X30248000Y-60183000I0J-250000D01*
G01*
X30248000Y-61483000D01*
G75*
G02*
X29998000Y-61733000I-250000J0D01*
G01*
X26898000Y-61733000D01*
G75*
G02*
X26648000Y-61483000I0J250000D01*
G01*
X26648000Y-60183000D01*
G75*
G02*
X26898000Y-59933000I250000J0D01*
G01*
G37*
D35*
X91015500Y-59809500D03*
X85915500Y-63309500D03*
G36*
G01*
X90415500Y-65809500D02*
X91415500Y-65809500D01*
G75*
G02*
X91915500Y-66309500I0J-500000D01*
G01*
X91915500Y-67309500D01*
G75*
G02*
X91415500Y-67809500I-500000J0D01*
G01*
X90415500Y-67809500D01*
G75*
G02*
X89915500Y-67309500I0J500000D01*
G01*
X89915500Y-66309500D01*
G75*
G02*
X90415500Y-65809500I500000J0D01*
G01*
G37*
G36*
G01*
X35868200Y-69179500D02*
X35868200Y-69504500D01*
G75*
G02*
X35705700Y-69667000I-162500J0D01*
G01*
X33280700Y-69667000D01*
G75*
G02*
X33118200Y-69504500I0J162500D01*
G01*
X33118200Y-69179500D01*
G75*
G02*
X33280700Y-69017000I162500J0D01*
G01*
X35705700Y-69017000D01*
G75*
G02*
X35868200Y-69179500I0J-162500D01*
G01*
G37*
G36*
G01*
X35868200Y-66639500D02*
X35868200Y-66964500D01*
G75*
G02*
X35705700Y-67127000I-162500J0D01*
G01*
X33280700Y-67127000D01*
G75*
G02*
X33118200Y-66964500I0J162500D01*
G01*
X33118200Y-66639500D01*
G75*
G02*
X33280700Y-66477000I162500J0D01*
G01*
X35705700Y-66477000D01*
G75*
G02*
X35868200Y-66639500I0J-162500D01*
G01*
G37*
G36*
G01*
X35868200Y-64099500D02*
X35868200Y-64424500D01*
G75*
G02*
X35705700Y-64587000I-162500J0D01*
G01*
X33280700Y-64587000D01*
G75*
G02*
X33118200Y-64424500I0J162500D01*
G01*
X33118200Y-64099500D01*
G75*
G02*
X33280700Y-63937000I162500J0D01*
G01*
X35705700Y-63937000D01*
G75*
G02*
X35868200Y-64099500I0J-162500D01*
G01*
G37*
G36*
G01*
X35868200Y-61559500D02*
X35868200Y-61884500D01*
G75*
G02*
X35705700Y-62047000I-162500J0D01*
G01*
X33280700Y-62047000D01*
G75*
G02*
X33118200Y-61884500I0J162500D01*
G01*
X33118200Y-61559500D01*
G75*
G02*
X33280700Y-61397000I162500J0D01*
G01*
X35705700Y-61397000D01*
G75*
G02*
X35868200Y-61559500I0J-162500D01*
G01*
G37*
G36*
G01*
X45293200Y-61559500D02*
X45293200Y-61884500D01*
G75*
G02*
X45130700Y-62047000I-162500J0D01*
G01*
X42705700Y-62047000D01*
G75*
G02*
X42543200Y-61884500I0J162500D01*
G01*
X42543200Y-61559500D01*
G75*
G02*
X42705700Y-61397000I162500J0D01*
G01*
X45130700Y-61397000D01*
G75*
G02*
X45293200Y-61559500I0J-162500D01*
G01*
G37*
G36*
G01*
X45318200Y-64099500D02*
X45318200Y-64424500D01*
G75*
G02*
X45155700Y-64587000I-162500J0D01*
G01*
X42730700Y-64587000D01*
G75*
G02*
X42568200Y-64424500I0J162500D01*
G01*
X42568200Y-64099500D01*
G75*
G02*
X42730700Y-63937000I162500J0D01*
G01*
X45155700Y-63937000D01*
G75*
G02*
X45318200Y-64099500I0J-162500D01*
G01*
G37*
G36*
G01*
X45268200Y-66639500D02*
X45268200Y-66964500D01*
G75*
G02*
X45105700Y-67127000I-162500J0D01*
G01*
X42680700Y-67127000D01*
G75*
G02*
X42518200Y-66964500I0J162500D01*
G01*
X42518200Y-66639500D01*
G75*
G02*
X42680700Y-66477000I162500J0D01*
G01*
X45105700Y-66477000D01*
G75*
G02*
X45268200Y-66639500I0J-162500D01*
G01*
G37*
G36*
G01*
X45268200Y-69179500D02*
X45268200Y-69504500D01*
G75*
G02*
X45105700Y-69667000I-162500J0D01*
G01*
X42680700Y-69667000D01*
G75*
G02*
X42518200Y-69504500I0J162500D01*
G01*
X42518200Y-69179500D01*
G75*
G02*
X42680700Y-69017000I162500J0D01*
G01*
X45105700Y-69017000D01*
G75*
G02*
X45268200Y-69179500I0J-162500D01*
G01*
G37*
G36*
G01*
X41386997Y-80021000D02*
X42687003Y-80021000D01*
G75*
G02*
X42937000Y-80270997I0J-249997D01*
G01*
X42937000Y-81096003D01*
G75*
G02*
X42687003Y-81346000I-249997J0D01*
G01*
X41386997Y-81346000D01*
G75*
G02*
X41137000Y-81096003I0J249997D01*
G01*
X41137000Y-80270997D01*
G75*
G02*
X41386997Y-80021000I249997J0D01*
G01*
G37*
G36*
G01*
X41386997Y-76896000D02*
X42687003Y-76896000D01*
G75*
G02*
X42937000Y-77145997I0J-249997D01*
G01*
X42937000Y-77971003D01*
G75*
G02*
X42687003Y-78221000I-249997J0D01*
G01*
X41386997Y-78221000D01*
G75*
G02*
X41137000Y-77971003I0J249997D01*
G01*
X41137000Y-77145997D01*
G75*
G02*
X41386997Y-76896000I249997J0D01*
G01*
G37*
D40*
X83566000Y-53307000D03*
X83566000Y-50807000D03*
X83566000Y-48307000D03*
X83566000Y-45807000D03*
G36*
G01*
X82841000Y-42457000D02*
X84291000Y-42457000D01*
G75*
G02*
X84541000Y-42707000I0J-250000D01*
G01*
X84541000Y-43907000D01*
G75*
G02*
X84291000Y-44157000I-250000J0D01*
G01*
X82841000Y-44157000D01*
G75*
G02*
X82591000Y-43907000I0J250000D01*
G01*
X82591000Y-42707000D01*
G75*
G02*
X82841000Y-42457000I250000J0D01*
G01*
G37*
G36*
G01*
X42537800Y-33444601D02*
X42537800Y-32544599D01*
G75*
G02*
X42787799Y-32294600I249999J0D01*
G01*
X43437801Y-32294600D01*
G75*
G02*
X43687800Y-32544599I0J-249999D01*
G01*
X43687800Y-33444601D01*
G75*
G02*
X43437801Y-33694600I-249999J0D01*
G01*
X42787799Y-33694600D01*
G75*
G02*
X42537800Y-33444601I0J249999D01*
G01*
G37*
G36*
G01*
X40487800Y-33444601D02*
X40487800Y-32544599D01*
G75*
G02*
X40737799Y-32294600I249999J0D01*
G01*
X41387801Y-32294600D01*
G75*
G02*
X41637800Y-32544599I0J-249999D01*
G01*
X41637800Y-33444601D01*
G75*
G02*
X41387801Y-33694600I-249999J0D01*
G01*
X40737799Y-33694600D01*
G75*
G02*
X40487800Y-33444601I0J249999D01*
G01*
G37*
G36*
G01*
X37534000Y-57600001D02*
X37534000Y-56699999D01*
G75*
G02*
X37783999Y-56450000I249999J0D01*
G01*
X38434001Y-56450000D01*
G75*
G02*
X38684000Y-56699999I0J-249999D01*
G01*
X38684000Y-57600001D01*
G75*
G02*
X38434001Y-57850000I-249999J0D01*
G01*
X37783999Y-57850000D01*
G75*
G02*
X37534000Y-57600001I0J249999D01*
G01*
G37*
G36*
G01*
X35484000Y-57600001D02*
X35484000Y-56699999D01*
G75*
G02*
X35733999Y-56450000I249999J0D01*
G01*
X36384001Y-56450000D01*
G75*
G02*
X36634000Y-56699999I0J-249999D01*
G01*
X36634000Y-57600001D01*
G75*
G02*
X36384001Y-57850000I-249999J0D01*
G01*
X35733999Y-57850000D01*
G75*
G02*
X35484000Y-57600001I0J249999D01*
G01*
G37*
G36*
G01*
X40494000Y-56699999D02*
X40494000Y-57600001D01*
G75*
G02*
X40244001Y-57850000I-249999J0D01*
G01*
X39543999Y-57850000D01*
G75*
G02*
X39294000Y-57600001I0J249999D01*
G01*
X39294000Y-56699999D01*
G75*
G02*
X39543999Y-56450000I249999J0D01*
G01*
X40244001Y-56450000D01*
G75*
G02*
X40494000Y-56699999I0J-249999D01*
G01*
G37*
G36*
G01*
X42494000Y-56699999D02*
X42494000Y-57600001D01*
G75*
G02*
X42244001Y-57850000I-249999J0D01*
G01*
X41543999Y-57850000D01*
G75*
G02*
X41294000Y-57600001I0J249999D01*
G01*
X41294000Y-56699999D01*
G75*
G02*
X41543999Y-56450000I249999J0D01*
G01*
X42244001Y-56450000D01*
G75*
G02*
X42494000Y-56699999I0J-249999D01*
G01*
G37*
D39*
X113750000Y-43053000D03*
X106750000Y-43053000D03*
X95250000Y-38353000D03*
X95250000Y-43053000D03*
D41*
X107957000Y-99698000D03*
X100457000Y-98298000D03*
D42*
X29337000Y-76200000D03*
X26837000Y-76200000D03*
X31837000Y-76200000D03*
D39*
X113750000Y-70358000D03*
X106750000Y-70358000D03*
X95250000Y-65658000D03*
X95250000Y-70358000D03*
D35*
X85075000Y-30400000D03*
X88575000Y-35500000D03*
G36*
G01*
X91075000Y-31000000D02*
X91075000Y-30000000D01*
G75*
G02*
X91575000Y-29500000I500000J0D01*
G01*
X92575000Y-29500000D01*
G75*
G02*
X93075000Y-30000000I0J-500000D01*
G01*
X93075000Y-31000000D01*
G75*
G02*
X92575000Y-31500000I-500000J0D01*
G01*
X91575000Y-31500000D01*
G75*
G02*
X91075000Y-31000000I0J500000D01*
G01*
G37*
X74295000Y-73518000D03*
X69195000Y-77018000D03*
G36*
G01*
X73695000Y-79518000D02*
X74695000Y-79518000D01*
G75*
G02*
X75195000Y-80018000I0J-500000D01*
G01*
X75195000Y-81018000D01*
G75*
G02*
X74695000Y-81518000I-500000J0D01*
G01*
X73695000Y-81518000D01*
G75*
G02*
X73195000Y-81018000I0J500000D01*
G01*
X73195000Y-80018000D01*
G75*
G02*
X73695000Y-79518000I500000J0D01*
G01*
G37*
D39*
X113750000Y-55118000D03*
X106750000Y-55118000D03*
X95250000Y-50418000D03*
X95250000Y-55118000D03*
X113750000Y-35433000D03*
X106750000Y-35433000D03*
X95250000Y-30733000D03*
X95250000Y-35433000D03*
X113750000Y-27813000D03*
X106750000Y-27813000D03*
X95250000Y-23113000D03*
X95250000Y-27813000D03*
D18*
X86741000Y-98298000D03*
X96741000Y-98298000D03*
D35*
X122936000Y-97790000D03*
X117856000Y-97790000D03*
D20*
X55626000Y-54356000D03*
X53086000Y-54356000D03*
X50546000Y-54356000D03*
D21*
X48006000Y-54356000D03*
D43*
X60325000Y-54356000D03*
D33*
G36*
X59025000Y-55105398D02*
G01*
X59000466Y-55105398D01*
X58951635Y-55100588D01*
X58903510Y-55091016D01*
X58856555Y-55076772D01*
X58811222Y-55057995D01*
X58767949Y-55034864D01*
X58727150Y-55007604D01*
X58689221Y-54976476D01*
X58654524Y-54941779D01*
X58623396Y-54903850D01*
X58596136Y-54863051D01*
X58573005Y-54819778D01*
X58554228Y-54774445D01*
X58539984Y-54727490D01*
X58530412Y-54679365D01*
X58525602Y-54630534D01*
X58525602Y-54606000D01*
X58525000Y-54606000D01*
X58525000Y-54106000D01*
X58525602Y-54106000D01*
X58525602Y-54081466D01*
X58530412Y-54032635D01*
X58539984Y-53984510D01*
X58554228Y-53937555D01*
X58573005Y-53892222D01*
X58596136Y-53848949D01*
X58623396Y-53808150D01*
X58654524Y-53770221D01*
X58689221Y-53735524D01*
X58727150Y-53704396D01*
X58767949Y-53677136D01*
X58811222Y-53654005D01*
X58856555Y-53635228D01*
X58903510Y-53620984D01*
X58951635Y-53611412D01*
X59000466Y-53606602D01*
X59025000Y-53606602D01*
X59025000Y-53606000D01*
X59575000Y-53606000D01*
X59575000Y-55106000D01*
X59025000Y-55106000D01*
X59025000Y-55105398D01*
G37*
G36*
X61075000Y-53606000D02*
G01*
X61625000Y-53606000D01*
X61625000Y-53606602D01*
X61649534Y-53606602D01*
X61698365Y-53611412D01*
X61746490Y-53620984D01*
X61793445Y-53635228D01*
X61838778Y-53654005D01*
X61882051Y-53677136D01*
X61922850Y-53704396D01*
X61960779Y-53735524D01*
X61995476Y-53770221D01*
X62026604Y-53808150D01*
X62053864Y-53848949D01*
X62076995Y-53892222D01*
X62095772Y-53937555D01*
X62110016Y-53984510D01*
X62119588Y-54032635D01*
X62124398Y-54081466D01*
X62124398Y-54106000D01*
X62125000Y-54106000D01*
X62125000Y-54606000D01*
X62124398Y-54606000D01*
X62124398Y-54630534D01*
X62119588Y-54679365D01*
X62110016Y-54727490D01*
X62095772Y-54774445D01*
X62076995Y-54819778D01*
X62053864Y-54863051D01*
X62026604Y-54903850D01*
X61995476Y-54941779D01*
X61960779Y-54976476D01*
X61922850Y-55007604D01*
X61882051Y-55034864D01*
X61838778Y-55057995D01*
X61793445Y-55076772D01*
X61746490Y-55091016D01*
X61698365Y-55100588D01*
X61649534Y-55105398D01*
X61625000Y-55105398D01*
X61625000Y-55106000D01*
X61075000Y-55106000D01*
X61075000Y-53606000D01*
G37*
G36*
G01*
X61987000Y-75580003D02*
X61987000Y-74279997D01*
G75*
G02*
X62236997Y-74030000I249997J0D01*
G01*
X63062003Y-74030000D01*
G75*
G02*
X63312000Y-74279997I0J-249997D01*
G01*
X63312000Y-75580003D01*
G75*
G02*
X63062003Y-75830000I-249997J0D01*
G01*
X62236997Y-75830000D01*
G75*
G02*
X61987000Y-75580003I0J249997D01*
G01*
G37*
G36*
G01*
X58862000Y-75580003D02*
X58862000Y-74279997D01*
G75*
G02*
X59111997Y-74030000I249997J0D01*
G01*
X59937003Y-74030000D01*
G75*
G02*
X60187000Y-74279997I0J-249997D01*
G01*
X60187000Y-75580003D01*
G75*
G02*
X59937003Y-75830000I-249997J0D01*
G01*
X59111997Y-75830000D01*
G75*
G02*
X58862000Y-75580003I0J249997D01*
G01*
G37*
G36*
G01*
X61987000Y-73230503D02*
X61987000Y-71930497D01*
G75*
G02*
X62236997Y-71680500I249997J0D01*
G01*
X63062003Y-71680500D01*
G75*
G02*
X63312000Y-71930497I0J-249997D01*
G01*
X63312000Y-73230503D01*
G75*
G02*
X63062003Y-73480500I-249997J0D01*
G01*
X62236997Y-73480500D01*
G75*
G02*
X61987000Y-73230503I0J249997D01*
G01*
G37*
G36*
G01*
X58862000Y-73230503D02*
X58862000Y-71930497D01*
G75*
G02*
X59111997Y-71680500I249997J0D01*
G01*
X59937003Y-71680500D01*
G75*
G02*
X60187000Y-71930497I0J-249997D01*
G01*
X60187000Y-73230503D01*
G75*
G02*
X59937003Y-73480500I-249997J0D01*
G01*
X59111997Y-73480500D01*
G75*
G02*
X58862000Y-73230503I0J249997D01*
G01*
G37*
D35*
X62865000Y-80264000D03*
D44*
X119761000Y-50038000D03*
D45*
X119634000Y-88773000D03*
G36*
G01*
X118083999Y-80103000D02*
X121184001Y-80103000D01*
G75*
G02*
X121434000Y-80352999I0J-249999D01*
G01*
X121434000Y-81953001D01*
G75*
G02*
X121184001Y-82203000I-249999J0D01*
G01*
X118083999Y-82203000D01*
G75*
G02*
X117834000Y-81953001I0J249999D01*
G01*
X117834000Y-80352999D01*
G75*
G02*
X118083999Y-80103000I249999J0D01*
G01*
G37*
X119634000Y-72390000D03*
X119634000Y-64770000D03*
G36*
G01*
X118083999Y-56100000D02*
X121184001Y-56100000D01*
G75*
G02*
X121434000Y-56349999I0J-249999D01*
G01*
X121434000Y-57950001D01*
G75*
G02*
X121184001Y-58200000I-249999J0D01*
G01*
X118083999Y-58200000D01*
G75*
G02*
X117834000Y-57950001I0J249999D01*
G01*
X117834000Y-56349999D01*
G75*
G02*
X118083999Y-56100000I249999J0D01*
G01*
G37*
X119634000Y-41240000D03*
X119634000Y-33620000D03*
G36*
G01*
X118083999Y-24950000D02*
X121184001Y-24950000D01*
G75*
G02*
X121434000Y-25199999I0J-249999D01*
G01*
X121434000Y-26800001D01*
G75*
G02*
X121184001Y-27050000I-249999J0D01*
G01*
X118083999Y-27050000D01*
G75*
G02*
X117834000Y-26800001I0J249999D01*
G01*
X117834000Y-25199999D01*
G75*
G02*
X118083999Y-24950000I249999J0D01*
G01*
G37*
D33*
G36*
X62768000Y-90171000D02*
G01*
X62768000Y-93471000D01*
X60168000Y-93471000D01*
X60168000Y-90171000D01*
X62768000Y-90171000D01*
G37*
D46*
X58468000Y-93726000D03*
X58468000Y-92456000D03*
X58468000Y-91186000D03*
X58468000Y-89916000D03*
X64468000Y-89916000D03*
X64468000Y-91186000D03*
X64468000Y-92456000D03*
X64468000Y-93726000D03*
G36*
G01*
X44312000Y-36306997D02*
X44312000Y-37607003D01*
G75*
G02*
X44062003Y-37857000I-249997J0D01*
G01*
X43236997Y-37857000D01*
G75*
G02*
X42987000Y-37607003I0J249997D01*
G01*
X42987000Y-36306997D01*
G75*
G02*
X43236997Y-36057000I249997J0D01*
G01*
X44062003Y-36057000D01*
G75*
G02*
X44312000Y-36306997I0J-249997D01*
G01*
G37*
G36*
G01*
X47437000Y-36306997D02*
X47437000Y-37607003D01*
G75*
G02*
X47187003Y-37857000I-249997J0D01*
G01*
X46361997Y-37857000D01*
G75*
G02*
X46112000Y-37607003I0J249997D01*
G01*
X46112000Y-36306997D01*
G75*
G02*
X46361997Y-36057000I249997J0D01*
G01*
X47187003Y-36057000D01*
G75*
G02*
X47437000Y-36306997I0J-249997D01*
G01*
G37*
G36*
G01*
X45397000Y-34323000D02*
X45397000Y-35273000D01*
G75*
G02*
X45147000Y-35523000I-250000J0D01*
G01*
X44472000Y-35523000D01*
G75*
G02*
X44222000Y-35273000I0J250000D01*
G01*
X44222000Y-34323000D01*
G75*
G02*
X44472000Y-34073000I250000J0D01*
G01*
X45147000Y-34073000D01*
G75*
G02*
X45397000Y-34323000I0J-250000D01*
G01*
G37*
G36*
G01*
X47472000Y-34323000D02*
X47472000Y-35273000D01*
G75*
G02*
X47222000Y-35523000I-250000J0D01*
G01*
X46547000Y-35523000D01*
G75*
G02*
X46297000Y-35273000I0J250000D01*
G01*
X46297000Y-34323000D01*
G75*
G02*
X46547000Y-34073000I250000J0D01*
G01*
X47222000Y-34073000D01*
G75*
G02*
X47472000Y-34323000I0J-250000D01*
G01*
G37*
D40*
X90424000Y-53307000D03*
X90424000Y-50807000D03*
X90424000Y-48307000D03*
X90424000Y-45807000D03*
G36*
G01*
X89699000Y-42457000D02*
X91149000Y-42457000D01*
G75*
G02*
X91399000Y-42707000I0J-250000D01*
G01*
X91399000Y-43907000D01*
G75*
G02*
X91149000Y-44157000I-250000J0D01*
G01*
X89699000Y-44157000D01*
G75*
G02*
X89449000Y-43907000I0J250000D01*
G01*
X89449000Y-42707000D01*
G75*
G02*
X89699000Y-42457000I250000J0D01*
G01*
G37*
D24*
X28448000Y-54823000D03*
X28448000Y-51323000D03*
X28448000Y-47823000D03*
G36*
G01*
X26898000Y-43423000D02*
X29998000Y-43423000D01*
G75*
G02*
X30248000Y-43673000I0J-250000D01*
G01*
X30248000Y-44973000D01*
G75*
G02*
X29998000Y-45223000I-250000J0D01*
G01*
X26898000Y-45223000D01*
G75*
G02*
X26648000Y-44973000I0J250000D01*
G01*
X26648000Y-43673000D01*
G75*
G02*
X26898000Y-43423000I250000J0D01*
G01*
G37*
D44*
X38500000Y-87000000D03*
D47*
X54977000Y-67658000D03*
X59577000Y-67658000D03*
X57277000Y-67658000D03*
D48*
X57277000Y-60358000D03*
D41*
X86995000Y-24765000D03*
D49*
X89535000Y-24765000D03*
G36*
G01*
X55107000Y-73898997D02*
X55107000Y-75199003D01*
G75*
G02*
X54857003Y-75449000I-249997J0D01*
G01*
X54031997Y-75449000D01*
G75*
G02*
X53782000Y-75199003I0J249997D01*
G01*
X53782000Y-73898997D01*
G75*
G02*
X54031997Y-73649000I249997J0D01*
G01*
X54857003Y-73649000D01*
G75*
G02*
X55107000Y-73898997I0J-249997D01*
G01*
G37*
G36*
G01*
X58232000Y-73898997D02*
X58232000Y-75199003D01*
G75*
G02*
X57982003Y-75449000I-249997J0D01*
G01*
X57156997Y-75449000D01*
G75*
G02*
X56907000Y-75199003I0J249997D01*
G01*
X56907000Y-73898997D01*
G75*
G02*
X57156997Y-73649000I249997J0D01*
G01*
X57982003Y-73649000D01*
G75*
G02*
X58232000Y-73898997I0J-249997D01*
G01*
G37*
D44*
X72500000Y-87000000D03*
G36*
G01*
X55107000Y-71485997D02*
X55107000Y-72786003D01*
G75*
G02*
X54857003Y-73036000I-249997J0D01*
G01*
X54031997Y-73036000D01*
G75*
G02*
X53782000Y-72786003I0J249997D01*
G01*
X53782000Y-71485997D01*
G75*
G02*
X54031997Y-71236000I249997J0D01*
G01*
X54857003Y-71236000D01*
G75*
G02*
X55107000Y-71485997I0J-249997D01*
G01*
G37*
G36*
G01*
X58232000Y-71485997D02*
X58232000Y-72786003D01*
G75*
G02*
X57982003Y-73036000I-249997J0D01*
G01*
X57156997Y-73036000D01*
G75*
G02*
X56907000Y-72786003I0J249997D01*
G01*
X56907000Y-71485997D01*
G75*
G02*
X57156997Y-71236000I249997J0D01*
G01*
X57982003Y-71236000D01*
G75*
G02*
X58232000Y-71485997I0J-249997D01*
G01*
G37*
G36*
G01*
X55684000Y-69502000D02*
X55684000Y-70452000D01*
G75*
G02*
X55434000Y-70702000I-250000J0D01*
G01*
X54759000Y-70702000D01*
G75*
G02*
X54509000Y-70452000I0J250000D01*
G01*
X54509000Y-69502000D01*
G75*
G02*
X54759000Y-69252000I250000J0D01*
G01*
X55434000Y-69252000D01*
G75*
G02*
X55684000Y-69502000I0J-250000D01*
G01*
G37*
G36*
G01*
X57759000Y-69502000D02*
X57759000Y-70452000D01*
G75*
G02*
X57509000Y-70702000I-250000J0D01*
G01*
X56834000Y-70702000D01*
G75*
G02*
X56584000Y-70452000I0J250000D01*
G01*
X56584000Y-69502000D01*
G75*
G02*
X56834000Y-69252000I250000J0D01*
G01*
X57509000Y-69252000D01*
G75*
G02*
X57759000Y-69502000I0J-250000D01*
G01*
G37*
G36*
G01*
X61987000Y-70881003D02*
X61987000Y-69580997D01*
G75*
G02*
X62236997Y-69331000I249997J0D01*
G01*
X63062003Y-69331000D01*
G75*
G02*
X63312000Y-69580997I0J-249997D01*
G01*
X63312000Y-70881003D01*
G75*
G02*
X63062003Y-71131000I-249997J0D01*
G01*
X62236997Y-71131000D01*
G75*
G02*
X61987000Y-70881003I0J249997D01*
G01*
G37*
G36*
G01*
X58862000Y-70881003D02*
X58862000Y-69580997D01*
G75*
G02*
X59111997Y-69331000I249997J0D01*
G01*
X59937003Y-69331000D01*
G75*
G02*
X60187000Y-69580997I0J-249997D01*
G01*
X60187000Y-70881003D01*
G75*
G02*
X59937003Y-71131000I-249997J0D01*
G01*
X59111997Y-71131000D01*
G75*
G02*
X58862000Y-70881003I0J249997D01*
G01*
G37*
D30*
X38163500Y-42367200D03*
X40703500Y-42367200D03*
D31*
X43243500Y-42367200D03*
G36*
G01*
X54795000Y-88933000D02*
X54795000Y-89883000D01*
G75*
G02*
X54545000Y-90133000I-250000J0D01*
G01*
X53870000Y-90133000D01*
G75*
G02*
X53620000Y-89883000I0J250000D01*
G01*
X53620000Y-88933000D01*
G75*
G02*
X53870000Y-88683000I250000J0D01*
G01*
X54545000Y-88683000D01*
G75*
G02*
X54795000Y-88933000I0J-250000D01*
G01*
G37*
G36*
G01*
X56870000Y-88933000D02*
X56870000Y-89883000D01*
G75*
G02*
X56620000Y-90133000I-250000J0D01*
G01*
X55945000Y-90133000D01*
G75*
G02*
X55695000Y-89883000I0J250000D01*
G01*
X55695000Y-88933000D01*
G75*
G02*
X55945000Y-88683000I250000J0D01*
G01*
X56620000Y-88683000D01*
G75*
G02*
X56870000Y-88933000I0J-250000D01*
G01*
G37*
G36*
G01*
X66351999Y-92856000D02*
X67252001Y-92856000D01*
G75*
G02*
X67502000Y-93105999I0J-249999D01*
G01*
X67502000Y-93806001D01*
G75*
G02*
X67252001Y-94056000I-249999J0D01*
G01*
X66351999Y-94056000D01*
G75*
G02*
X66102000Y-93806001I0J249999D01*
G01*
X66102000Y-93105999D01*
G75*
G02*
X66351999Y-92856000I249999J0D01*
G01*
G37*
G36*
G01*
X66351999Y-90856000D02*
X67252001Y-90856000D01*
G75*
G02*
X67502000Y-91105999I0J-249999D01*
G01*
X67502000Y-91806001D01*
G75*
G02*
X67252001Y-92056000I-249999J0D01*
G01*
X66351999Y-92056000D01*
G75*
G02*
X66102000Y-91806001I0J249999D01*
G01*
X66102000Y-91105999D01*
G75*
G02*
X66351999Y-90856000I249999J0D01*
G01*
G37*
D30*
X38163500Y-47599600D03*
X40703500Y-47599600D03*
D31*
X43243500Y-47599600D03*
D30*
X38163500Y-23368000D03*
X40703500Y-23368000D03*
D31*
X43243500Y-23368000D03*
D30*
X38163500Y-52832000D03*
X40703500Y-52832000D03*
D31*
X43243500Y-52832000D03*
D44*
X38500000Y-37000000D03*
X72500000Y-37000000D03*
D50*
X59345200Y-96520000D03*
X54345200Y-96520000D03*
M02*
