M48
; DRILL file {KiCad (5.1.8)-1} date 07/21/21 13:46:06
; FORMAT={-:-/ absolute / metric / decimal}
; #@! TF.CreationDate,2021-07-21T13:46:06+02:00
; #@! TF.GenerationSoftware,Kicad,Pcbnew,(5.1.8)-1
FMAT,2
METRIC
T1C0.400
T2C0.650
T3C0.762
T4C0.800
T5C0.900
T6C0.950
T7C1.000
T8C1.100
T9C1.200
T10C1.400
T11C2.000
T12C3.000
T13C3.200
%
G90
G05
T1
X32.385Y-61.722
X34.417Y-55.753
X41.91Y-58.42
X43.18Y-34.608
X43.815Y-56.769
X44.45Y-62.738
X45.582Y-69.987
X45.593Y-58.42
X45.593Y-62.738
X46.99Y-76.454
X47.244Y-40.513
X47.244Y-42.418
X47.244Y-43.561
X47.307Y-45.021
X47.307Y-46.672
X48.387Y-51.181
X50.863Y-61.023
X51.428Y-36.188
X53.975Y-49.53
X57.912Y-76.581
X62.849Y-54.467
X64.468Y-89.916
X64.468Y-91.186
X69.342Y-50.546
X69.596Y-47.244
X70.231Y-65.024
X70.358Y-54.927
X72.517Y-44.069
X73.66Y-47.244
X73.914Y-41.656
X74.295Y-63.119
X75.946Y-39.751
X80.841Y-29.279
X82.423Y-31.242
X82.804Y-29.591
X83.185Y-38.735
X86.106Y-42.164
X89.408Y-59.055
X89.916Y-39.37
X90.805Y-22.352
X92.011Y-55.372
X92.449Y-51.563
T2
X78.359Y-32.258
X78.359Y-33.528
X78.359Y-34.798
X79.629Y-32.258
X79.629Y-33.528
X79.629Y-34.798
T3
X47.879Y-65.532
X47.879Y-68.072
X47.879Y-70.612
X47.879Y-73.152
X50.419Y-65.532
X50.419Y-68.072
X50.419Y-70.612
X50.419Y-73.152
T4
X26.837Y-76.2
X29.337Y-76.2
X31.837Y-76.2
X86.741Y-98.298
X96.741Y-98.298
X69.723Y-96.393
X69.723Y-99.893
X100.457Y-98.298
X107.957Y-99.698
T5
X86.995Y-24.765
X89.535Y-24.765
T6
X83.566Y-43.307
X83.566Y-45.807
X83.566Y-48.307
X83.566Y-50.807
X83.566Y-53.307
X90.424Y-43.307
X90.424Y-45.807
X90.424Y-48.307
X90.424Y-50.807
X90.424Y-53.307
T7
X79.212Y-74.566
X79.212Y-92.566
X112.812Y-80.566
X112.812Y-86.566
X48.006Y-54.356
X50.546Y-54.356
X53.086Y-54.356
X55.626Y-54.356
X81.407Y-43.307
X81.407Y-45.847
X81.407Y-48.387
X81.407Y-50.927
X81.407Y-53.467
X81.407Y-56.007
X81.407Y-58.547
X39.751Y-72.517
X39.751Y-75.057
X39.751Y-77.597
X39.751Y-80.137
X62.865Y-80.264
X117.856Y-97.79
X122.936Y-97.79
X79.184Y-67.373
X79.184Y-69.913
T8
X95.25Y-38.353
X95.25Y-43.053
X106.75Y-43.053
X113.75Y-43.053
X95.25Y-65.658
X95.25Y-70.358
X106.75Y-70.358
X113.75Y-70.358
X95.25Y-30.733
X95.25Y-35.433
X106.75Y-35.433
X113.75Y-35.433
X95.25Y-58.039
X95.25Y-62.739
X106.75Y-62.739
X113.75Y-62.739
X95.25Y-23.113
X95.25Y-27.813
X106.75Y-27.813
X113.75Y-27.813
X95.25Y-50.418
X95.25Y-55.118
X106.75Y-55.118
X113.75Y-55.118
T9
X28.448Y-44.323
X28.448Y-47.823
X28.448Y-51.323
X28.448Y-54.823
X38.163Y-23.368
X40.703Y-23.368
X43.243Y-23.368
X28.448Y-60.833
X28.448Y-64.333
X28.448Y-67.833
X28.448Y-71.333
X69.195Y-77.018
X74.195Y-80.518
X74.295Y-73.518
X28.448Y-24.511
X28.448Y-28.011
X38.163Y-42.367
X40.703Y-42.367
X43.243Y-42.367
X85.915Y-63.309
X90.915Y-66.809
X91.016Y-59.809
X38.163Y-28.702
X40.703Y-28.702
X43.243Y-28.702
X85.075Y-30.4
X88.575Y-35.5
X92.075Y-30.5
X45.348Y-60.26
X45.348Y-99.76
X62.348Y-60.26
X62.348Y-99.76
X38.163Y-47.6
X40.703Y-47.6
X43.243Y-47.6
X38.163Y-52.832
X40.703Y-52.832
X43.243Y-52.832
T10
X119.634Y-81.153
X119.634Y-88.773
X119.634Y-57.15
X119.634Y-64.77
X119.634Y-72.39
X119.634Y-26.0
X119.634Y-33.62
X119.634Y-41.24
X28.829Y-33.655
X28.829Y-38.735
X29.718Y-93.472
X29.718Y-98.552
X29.718Y-80.645
X29.718Y-85.725
T11
X61.468Y-91.821
T12
X57.404Y-41.148
T13
X72.5Y-87.0
X38.5Y-87.0
X119.761Y-50.038
X72.5Y-37.0
X38.5Y-37.0
T0
M30
