M48
; DRILL file {KiCad (5.1.2)-1} date 09.11.2019 14:16:48
; FORMAT={-:-/ absolute / metric / decimal}
; #@! TF.CreationDate,2019-11-09T14:16:48+01:00
; #@! TF.GenerationSoftware,Kicad,Pcbnew,(5.1.2)-1
; #@! TF.FileFunction,Plated,1,2,PTH
FMAT,2
METRIC
T1C0.300
T2C0.600
T3C0.990
T4C1.000
T5C1.016
T6C1.200
T7C1.300
T8C2.000
%
G90
G05
T1
X66.366Y-95.713
X66.421Y-73.279
X66.421Y-89.281
X66.802Y-68.961
X67.056Y-93.345
X67.183Y-63.373
X67.877Y-98.865
X68.027Y-91.304
X68.285Y-68.875
X68.453Y-70.231
X68.455Y-92.655
X70.036Y-99.246
X70.485Y-62.738
X72.263Y-62.865
X72.517Y-76.454
X72.898Y-99.949
X73.279Y-76.454
X74.041Y-76.454
X74.295Y-84.709
X74.803Y-80.899
X75.438Y-101.346
X75.773Y-68.931
X76.044Y-91.425
X76.962Y-63.627
X76.962Y-78.232
X76.962Y-83.058
X77.216Y-100.076
X77.851Y-63.627
X78.74Y-63.627
X79.248Y-99.695
X79.756Y-63.627
X79.756Y-71.755
X80.137Y-34.925
X80.264Y-75.057
X80.645Y-75.946
X80.753Y-84.922
X80.772Y-78.712
X80.772Y-79.502
X80.772Y-81.915
X80.778Y-85.731
X81.28Y-34.925
X84.074Y-50.419
X84.111Y-48.152
X84.836Y-61.341
X84.963Y-62.992
X85.725Y-61.341
X86.614Y-61.341
X87.122Y-50.175
X87.122Y-51.054
X87.249Y-48.768
X87.503Y-61.341
X87.591Y-48.056
X87.884Y-68.58
X88.011Y-64.044
X88.26Y-55.88
X88.392Y-40.259
X89.789Y-58.166
X89.789Y-79.502
X90.17Y-47.625
X90.297Y-58.801
X90.551Y-40.894
X90.601Y-79.524
X90.678Y-53.34
X90.999Y-74.803
X90.999Y-73.914
X91.313Y-46.482
X91.329Y-41.484
X91.329Y-53.975
X91.827Y-74.809
X92.22Y-56.76
X92.71Y-38.227
X92.71Y-74.803
X92.71Y-81.407
X92.718Y-79.629
X92.736Y-80.445
X92.783Y-82.197
X92.899Y-40.894
X92.899Y-46.482
X93.427Y-41.484
X93.599Y-74.803
X94.488Y-74.803
X94.615Y-56.769
X94.615Y-57.686
X94.615Y-57.686
X94.989Y-58.673
X96.393Y-66.675
X96.585Y-68.835
X96.647Y-67.999
X96.662Y-69.621
X96.693Y-63.5
X96.774Y-59.436
X96.774Y-64.897
X96.774Y-65.687
X99.695Y-63.454
X99.836Y-65.135
X100.019Y-68.636
X100.076Y-57.948
X100.33Y-61.976
X100.52Y-63.502
X100.711Y-47.371
X100.965Y-66.929
X101.473Y-60.071
X101.854Y-66.04
X102.616Y-36.002
X102.743Y-66.04
X102.869Y-74.195
X103.659Y-74.204
X104.267Y-65.151
X104.267Y-67.945
X105.029Y-36.449
X105.133Y-67.922
X105.133Y-67.922
X105.365Y-38.1
X105.537Y-70.231
X106.097Y-68.627
X106.158Y-39.819
X106.68Y-35.179
X108.231Y-44.096
X108.276Y-74.359
X108.666Y-73.66
X109.093Y-79.375
X109.601Y-44.577
X109.943Y-73.021
X110.233Y-73.77
X110.236Y-76.2
X110.363Y-74.549
X111.76Y-40.132
X112.649Y-81.026
X112.649Y-82.804
X113.03Y-89.027
X113.284Y-36.322
X113.411Y-81.026
X113.411Y-82.804
X114.173Y-81.026
X114.173Y-82.804
X114.935Y-81.026
X114.935Y-82.804
X115.697Y-81.026
X115.697Y-82.804
X121.793Y-86.868
X128.651Y-83.439
X128.651Y-84.201
X129.413Y-83.439
X129.413Y-84.201
X131.064Y-77.851
X132.461Y-86.106
X135.636Y-79.629
T2
X57.912Y-96.647
X57.912Y-98.044
X57.912Y-99.441
X57.912Y-100.838
X57.912Y-102.235
X58.039Y-78.613
X58.039Y-82.677
X58.166Y-58.801
X58.801Y-80.645
X66.548Y-65.913
X67.818Y-65.913
X71.12Y-65.913
X71.12Y-73.787
X72.39Y-65.913
X76.327Y-59.055
X76.962Y-65.913
X77.216Y-97.753
X78.105Y-71.501
X78.994Y-67.437
X80.264Y-55.118
X82.677Y-90.932
X84.201Y-90.932
X85.471Y-78.867
X85.852Y-90.932
X86.487Y-89.408
X89.662Y-92.71
X90.297Y-84.963
X90.297Y-86.36
X90.297Y-87.884
X90.424Y-91.44
X91.313Y-83.82
X92.964Y-83.693
X93.091Y-67.818
X94.234Y-82.677
X94.996Y-78.74
X94.996Y-80.01
X94.996Y-81.28
X97.028Y-72.263
X98.171Y-78.867
X99.314Y-78.867
X100.457Y-78.867
X100.711Y-70.612
X101.6Y-78.867
X102.108Y-70.612
X102.235Y-58.801
X102.743Y-78.867
X103.505Y-70.612
X103.759Y-59.055
X104.013Y-79.375
X105.029Y-80.264
X105.918Y-81.153
X107.061Y-75.184
X107.061Y-76.835
X107.188Y-82.931
X107.696Y-71.882
X107.95Y-78.105
X108.331Y-87.884
X108.585Y-95.377
X109.474Y-88.9
X109.601Y-94.361
X110.49Y-89.916
X110.617Y-93.345
X111.506Y-90.932
X111.506Y-92.329
X114.3Y-48.26
X114.3Y-50.8
X114.3Y-53.34
X114.3Y-55.88
X114.3Y-58.42
X114.3Y-60.96
X124.46Y-60.96
X130.429Y-59.309
X131.826Y-59.309
X133.223Y-59.309
X134.62Y-59.309
X139.7Y-63.5
X139.7Y-66.04
X139.7Y-68.58
X139.7Y-71.12
X139.7Y-73.66
X139.7Y-76.2
X139.7Y-78.74
X139.7Y-81.28
X139.7Y-83.82
X139.7Y-86.36
X139.7Y-86.36
X139.7Y-88.9
X139.7Y-91.44
X139.7Y-93.98
X139.7Y-96.52
X139.7Y-99.06
X140.261Y-60.399
T3
X82.093Y-36.75
X82.093Y-41.25
T4
X78.359Y-89.154
X81.788Y-87.884
X83.82Y-87.884
X85.852Y-83.82
X85.852Y-85.852
X86.868Y-81.788
X87.376Y-42.164
X89.535Y-67.056
X89.916Y-62.992
X89.916Y-69.088
X91.44Y-37.084
X91.44Y-67.056
X91.948Y-62.992
X91.948Y-69.088
X93.98Y-62.992
X93.98Y-69.596
X96.012Y-42.672
X96.012Y-44.704
X96.012Y-47.752
X98.552Y-40.64
X98.552Y-42.672
X98.552Y-44.704
X98.552Y-46.736
X98.552Y-48.768
X98.552Y-50.8
X98.552Y-52.832
X103.124Y-48.768
X103.124Y-50.8
X103.124Y-52.832
X103.124Y-54.864
X110.744Y-50.8
X110.744Y-52.832
X110.744Y-54.864
T5
X131.318Y-63.246
X131.318Y-65.786
X131.318Y-68.326
X131.318Y-70.866
X131.318Y-73.406
X133.858Y-63.246
X133.858Y-65.786
X133.858Y-68.326
X133.858Y-70.866
X133.858Y-73.406
X123.571Y-69.977
X123.571Y-72.517
X123.571Y-75.057
X123.571Y-77.597
X123.571Y-80.137
X123.571Y-82.677
X123.571Y-85.217
X123.571Y-87.757
X123.571Y-90.297
X123.571Y-92.837
X126.111Y-69.977
X126.111Y-72.517
X126.111Y-75.057
X126.111Y-77.597
X126.111Y-80.137
X126.111Y-82.677
X126.111Y-85.217
X126.111Y-87.757
X126.111Y-90.297
X126.111Y-92.837
T6
X63.881Y-83.338
X63.881Y-85.838
X63.881Y-88.338
X63.881Y-90.838
X63.881Y-93.338
X63.881Y-95.838
X63.881Y-98.338
X63.881Y-100.838
X63.881Y-61.113
X63.881Y-63.613
X63.881Y-66.113
X63.881Y-68.613
X63.881Y-71.113
X63.881Y-73.613
X63.881Y-76.113
X63.881Y-78.613
X136.017Y-81.28
X136.017Y-83.78
X136.017Y-86.28
X136.017Y-88.78
X136.017Y-91.28
X136.017Y-93.78
X136.017Y-96.28
X136.017Y-98.78
T7
X84.583Y-35.5
X84.583Y-42.51
T8
X72.263Y-92.329
X72.009Y-69.85
T2
G00X80.911Y-44.575
M15
G01X80.311Y-44.575
M16
G05
G00X80.911Y-53.215
M15
G01X80.311Y-53.215
M16
G05
G00X85.341Y-44.575
M15
G01X84.241Y-44.575
M16
G05
G00X85.341Y-53.215
M15
G01X84.241Y-53.215
M16
G05
G00X137.02Y-58.68
M15
G01X138.12Y-58.68
M16
G05
G00X137.02Y-67.32
M15
G01X138.12Y-67.32
M16
G05
G00X141.45Y-58.68
M15
G01X142.05Y-58.68
M16
G05
G00X141.45Y-67.32
M15
G01X142.05Y-67.32
M16
G05
T0
M30
