%TF.GenerationSoftware,KiCad,Pcbnew,(5.1.2)-1*%
%TF.CreationDate,2019-11-09T14:12:44+01:00*%
%TF.ProjectId,sensactHsIO,73656e73-6163-4744-9873-494f2e6b6963,rev?*%
%TF.SameCoordinates,Original*%
%TF.FileFunction,Legend,Top*%
%TF.FilePolarity,Positive*%
%FSLAX46Y46*%
G04 Gerber Fmt 4.6, Leading zero omitted, Abs format (unit mm)*
G04 Created by KiCad (PCBNEW (5.1.2)-1) date 2019-11-09 14:12:44*
%MOMM*%
%LPD*%
G04 APERTURE LIST*
%ADD10C,0.050000*%
%ADD11C,0.120000*%
%ADD12C,0.150000*%
G04 APERTURE END LIST*
D10*
X114750000Y-44500000D02*
X114750000Y-46500000D01*
X116500000Y-44500000D02*
X114750000Y-44500000D01*
X118750000Y-42250000D02*
X116500000Y-44500000D01*
X118750000Y-38250000D02*
X118750000Y-42250000D01*
X116500000Y-36000000D02*
X118750000Y-38250000D01*
X114750000Y-36000000D02*
X116500000Y-36000000D01*
X114750000Y-34000000D02*
X114750000Y-36000000D01*
X79250000Y-34000000D02*
X79250000Y-57250000D01*
X80750000Y-104250000D02*
X80750000Y-98250000D01*
X56750000Y-57750000D02*
X56750000Y-104250000D01*
X78750000Y-57750000D02*
X56750000Y-57750000D01*
X114750000Y-34000000D02*
X79250000Y-34000000D01*
X143250000Y-101250000D02*
X143250000Y-57750000D01*
X130250000Y-98250000D02*
X130250000Y-101250000D01*
X143250000Y-57750000D02*
X121250000Y-57750000D01*
X130250000Y-101250000D02*
X143250000Y-101250000D01*
X114250000Y-98250000D02*
X85750000Y-98250000D01*
X80750000Y-104250000D02*
X56750000Y-104250000D01*
X120750000Y-57250000D02*
X120750000Y-46500000D01*
X120750000Y-57250000D02*
X119500000Y-57250000D01*
X120750000Y-46500000D02*
X114750000Y-46500000D01*
X121250000Y-59000000D02*
G75*
G02X119500000Y-57250000I-1750000J0D01*
G01*
X117750000Y-97000000D02*
X117750000Y-98250000D01*
X82250000Y-98250000D02*
X80750000Y-98250000D01*
X82250000Y-97000000D02*
X82250000Y-98250000D01*
X82250000Y-97000000D02*
G75*
G02X85750000Y-97000000I1750000J0D01*
G01*
X85750000Y-97000000D02*
X85750000Y-98250000D01*
X78750000Y-57750000D02*
X78750000Y-59000000D01*
X114250000Y-97000000D02*
G75*
G02X117750000Y-97000000I1750000J0D01*
G01*
X80500000Y-57250000D02*
X79250000Y-57250000D01*
X80500000Y-57250000D02*
G75*
G02X78750000Y-59000000I0J-1750000D01*
G01*
X117750000Y-98250000D02*
X130250000Y-98250000D01*
X121250000Y-59000000D02*
X121250000Y-57750000D01*
X114250000Y-97000000D02*
X114250000Y-98250000D01*
D11*
X64770000Y-104140000D02*
X72390000Y-104140000D01*
X96489000Y-71404000D02*
X97439000Y-71404000D01*
X97439000Y-71404000D02*
X97439000Y-70454000D01*
X88169000Y-71404000D02*
X87219000Y-71404000D01*
X87219000Y-71404000D02*
X87219000Y-70454000D01*
X96489000Y-61184000D02*
X97439000Y-61184000D01*
X97439000Y-61184000D02*
X97439000Y-62134000D01*
X88169000Y-61184000D02*
X87219000Y-61184000D01*
X87219000Y-61184000D02*
X87219000Y-62134000D01*
X87219000Y-62134000D02*
X85879000Y-62134000D01*
D12*
X112063000Y-85002000D02*
X112063000Y-86077000D01*
X121688000Y-85002000D02*
X121688000Y-80352000D01*
X111738000Y-85002000D02*
X111738000Y-80352000D01*
X121688000Y-85002000D02*
X121363000Y-85002000D01*
X121688000Y-80352000D02*
X121363000Y-80352000D01*
X111738000Y-80352000D02*
X112063000Y-80352000D01*
X111738000Y-85002000D02*
X112063000Y-85002000D01*
D11*
X111200000Y-80398252D02*
X111200000Y-79875748D01*
X109780000Y-80398252D02*
X109780000Y-79875748D01*
X117654000Y-89781748D02*
X117654000Y-90304252D01*
X119074000Y-89781748D02*
X119074000Y-90304252D01*
X115622000Y-89781748D02*
X115622000Y-90304252D01*
X117042000Y-89781748D02*
X117042000Y-90304252D01*
X113590000Y-90162748D02*
X113590000Y-90685252D01*
X115010000Y-90162748D02*
X115010000Y-90685252D01*
X129786748Y-95833000D02*
X130309252Y-95833000D01*
X129786748Y-94413000D02*
X130309252Y-94413000D01*
X100890000Y-61968748D02*
X100890000Y-62491252D01*
X102310000Y-61968748D02*
X102310000Y-62491252D01*
D12*
X69934000Y-65850000D02*
X68809000Y-65850000D01*
X69934000Y-74325000D02*
X74084000Y-74325000D01*
X69934000Y-65375000D02*
X74084000Y-65375000D01*
X69934000Y-74325000D02*
X69934000Y-73767500D01*
X74084000Y-74325000D02*
X74084000Y-73767500D01*
X74084000Y-65375000D02*
X74084000Y-65932500D01*
X69934000Y-65375000D02*
X69934000Y-65850000D01*
X93250000Y-38850000D02*
X93000000Y-38650000D01*
X93250000Y-38850000D02*
X93500000Y-38650000D01*
X93250000Y-38850000D02*
X93250000Y-38250000D01*
X96300000Y-39200000D02*
X96300000Y-34900000D01*
X93500000Y-39200000D02*
X96300000Y-39200000D01*
X86700000Y-39200000D02*
X89500000Y-39200000D01*
X86700000Y-34900000D02*
X86700000Y-39200000D01*
X96300000Y-34900000D02*
X86700000Y-34900000D01*
D11*
X84276000Y-69730252D02*
X84276000Y-69207748D01*
X82856000Y-69730252D02*
X82856000Y-69207748D01*
D12*
X74045000Y-77036000D02*
X74045000Y-79936000D01*
X74045000Y-79936000D02*
X74545000Y-79936000D01*
X74545000Y-79936000D02*
X74545000Y-77036000D01*
X74545000Y-77036000D02*
X74045000Y-77036000D01*
X73995000Y-76786000D02*
G75*
G03X73995000Y-76786000I-100000J0D01*
G01*
D11*
X78097748Y-77672000D02*
X78620252Y-77672000D01*
X78097748Y-76252000D02*
X78620252Y-76252000D01*
D12*
X132986000Y-82507000D02*
X132986000Y-81107000D01*
X127981000Y-82507000D02*
X127981000Y-86657000D01*
X133131000Y-82507000D02*
X133131000Y-86657000D01*
X127981000Y-82507000D02*
X128126000Y-82507000D01*
X127981000Y-86657000D02*
X128126000Y-86657000D01*
X133131000Y-86657000D02*
X132986000Y-86657000D01*
X133131000Y-82507000D02*
X132986000Y-82507000D01*
D11*
X133357252Y-78411000D02*
X132834748Y-78411000D01*
X133357252Y-79831000D02*
X132834748Y-79831000D01*
X129547252Y-78411000D02*
X129024748Y-78411000D01*
X129547252Y-79831000D02*
X129024748Y-79831000D01*
X129928252Y-89206000D02*
X129405748Y-89206000D01*
X129928252Y-90626000D02*
X129405748Y-90626000D01*
X130309252Y-91238000D02*
X129786748Y-91238000D01*
X130309252Y-92658000D02*
X129786748Y-92658000D01*
X132259000Y-90543748D02*
X132259000Y-91066252D01*
X133679000Y-90543748D02*
X133679000Y-91066252D01*
X85835748Y-56590000D02*
X86358252Y-56590000D01*
X85835748Y-55170000D02*
X86358252Y-55170000D01*
X66473000Y-61079748D02*
X66473000Y-61602252D01*
X67893000Y-61079748D02*
X67893000Y-61602252D01*
X71703000Y-83954252D02*
X71703000Y-83431748D01*
X70283000Y-83954252D02*
X70283000Y-83431748D01*
D12*
X72267000Y-59256000D02*
X72267000Y-62156000D01*
X72267000Y-62156000D02*
X72767000Y-62156000D01*
X72767000Y-62156000D02*
X72767000Y-59256000D01*
X72767000Y-59256000D02*
X72267000Y-59256000D01*
X72217000Y-59006000D02*
G75*
G03X72217000Y-59006000I-100000J0D01*
G01*
D11*
X60078252Y-69648000D02*
X59555748Y-69648000D01*
X60078252Y-71068000D02*
X59555748Y-71068000D01*
X60078252Y-67616000D02*
X59555748Y-67616000D01*
X60078252Y-69036000D02*
X59555748Y-69036000D01*
X82938252Y-62663000D02*
X82415748Y-62663000D01*
X82938252Y-64083000D02*
X82415748Y-64083000D01*
X69925000Y-61602252D02*
X69925000Y-61079748D01*
X68505000Y-61602252D02*
X68505000Y-61079748D01*
X59996000Y-61079748D02*
X59996000Y-61602252D01*
X61416000Y-61079748D02*
X61416000Y-61602252D01*
X59996000Y-65143748D02*
X59996000Y-65666252D01*
X61416000Y-65143748D02*
X61416000Y-65666252D01*
X60123000Y-73525748D02*
X60123000Y-74048252D01*
X61543000Y-73525748D02*
X61543000Y-74048252D01*
X57964000Y-73525748D02*
X57964000Y-74048252D01*
X59384000Y-73525748D02*
X59384000Y-74048252D01*
X78747252Y-78792000D02*
X78224748Y-78792000D01*
X78747252Y-80212000D02*
X78224748Y-80212000D01*
X71576000Y-78112252D02*
X71576000Y-77589748D01*
X70156000Y-78112252D02*
X70156000Y-77589748D01*
X68124000Y-77598748D02*
X68124000Y-78121252D01*
X69544000Y-77598748D02*
X69544000Y-78121252D01*
X61416000Y-77858252D02*
X61416000Y-77335748D01*
X59996000Y-77858252D02*
X59996000Y-77335748D01*
X67512000Y-78112252D02*
X67512000Y-77589748D01*
X66092000Y-78112252D02*
X66092000Y-77589748D01*
X68251000Y-83812748D02*
X68251000Y-84335252D01*
X69671000Y-83812748D02*
X69671000Y-84335252D01*
X61543000Y-97162252D02*
X61543000Y-96639748D01*
X60123000Y-97162252D02*
X60123000Y-96639748D01*
X59511000Y-88653252D02*
X59511000Y-88130748D01*
X58091000Y-88653252D02*
X58091000Y-88130748D01*
X66346000Y-100449748D02*
X66346000Y-100972252D01*
X67766000Y-100449748D02*
X67766000Y-100972252D01*
X69925000Y-101353252D02*
X69925000Y-100830748D01*
X68505000Y-101353252D02*
X68505000Y-100830748D01*
X66219000Y-83812748D02*
X66219000Y-84335252D01*
X67639000Y-83812748D02*
X67639000Y-84335252D01*
D12*
X74045000Y-81862000D02*
X74045000Y-84762000D01*
X74045000Y-84762000D02*
X74545000Y-84762000D01*
X74545000Y-84762000D02*
X74545000Y-81862000D01*
X74545000Y-81862000D02*
X74045000Y-81862000D01*
X73995000Y-81612000D02*
G75*
G03X73995000Y-81612000I-100000J0D01*
G01*
D11*
X61543000Y-87764252D02*
X61543000Y-87241748D01*
X60123000Y-87764252D02*
X60123000Y-87241748D01*
X78224748Y-82498000D02*
X78747252Y-82498000D01*
X78224748Y-81078000D02*
X78747252Y-81078000D01*
X78747252Y-83618000D02*
X78224748Y-83618000D01*
X78747252Y-85038000D02*
X78224748Y-85038000D01*
X60123000Y-83431748D02*
X60123000Y-83954252D01*
X61543000Y-83431748D02*
X61543000Y-83954252D01*
D12*
X72648000Y-99896000D02*
X72648000Y-102796000D01*
X72648000Y-102796000D02*
X73148000Y-102796000D01*
X73148000Y-102796000D02*
X73148000Y-99896000D01*
X73148000Y-99896000D02*
X72648000Y-99896000D01*
X72598000Y-99646000D02*
G75*
G03X72598000Y-99646000I-100000J0D01*
G01*
X70188000Y-88329000D02*
X69063000Y-88329000D01*
X70188000Y-96804000D02*
X74338000Y-96804000D01*
X70188000Y-87854000D02*
X74338000Y-87854000D01*
X70188000Y-96804000D02*
X70188000Y-96246500D01*
X74338000Y-96804000D02*
X74338000Y-96246500D01*
X74338000Y-87854000D02*
X74338000Y-88411500D01*
X70188000Y-87854000D02*
X70188000Y-88329000D01*
D11*
X60205252Y-93270000D02*
X59682748Y-93270000D01*
X60205252Y-94690000D02*
X59682748Y-94690000D01*
X60205252Y-91238000D02*
X59682748Y-91238000D01*
X60205252Y-92658000D02*
X59682748Y-92658000D01*
X76827748Y-100786000D02*
X77350252Y-100786000D01*
X76827748Y-99366000D02*
X77350252Y-99366000D01*
X77350252Y-101906000D02*
X76827748Y-101906000D01*
X77350252Y-103326000D02*
X76827748Y-103326000D01*
X61543000Y-100972252D02*
X61543000Y-100449748D01*
X60123000Y-100972252D02*
X60123000Y-100449748D01*
X66346000Y-93210748D02*
X66346000Y-93733252D01*
X67766000Y-93210748D02*
X67766000Y-93733252D01*
X66092000Y-70858748D02*
X66092000Y-71381252D01*
X67512000Y-70858748D02*
X67512000Y-71381252D01*
X99179748Y-73227000D02*
X99702252Y-73227000D01*
X99179748Y-71807000D02*
X99702252Y-71807000D01*
X89714000Y-44061748D02*
X89714000Y-44584252D01*
X91134000Y-44061748D02*
X91134000Y-44584252D01*
X99389000Y-60332252D02*
X99389000Y-59809748D01*
X97969000Y-60332252D02*
X97969000Y-59809748D01*
D12*
X115892000Y-41259000D02*
X114692000Y-41259000D01*
X115892000Y-39259000D02*
X115892000Y-41259000D01*
X114692000Y-39259000D02*
X115892000Y-39259000D01*
D11*
X112092000Y-41259000D02*
X112092000Y-39259000D01*
X114692000Y-38059000D02*
X114692000Y-42259000D01*
X86367252Y-59234000D02*
X85844748Y-59234000D01*
X86367252Y-60654000D02*
X85844748Y-60654000D01*
D12*
X111396000Y-62774000D02*
X111396000Y-61374000D01*
X106391000Y-62774000D02*
X106391000Y-66924000D01*
X111541000Y-62774000D02*
X111541000Y-66924000D01*
X106391000Y-62774000D02*
X106536000Y-62774000D01*
X106391000Y-66924000D02*
X106536000Y-66924000D01*
X111541000Y-66924000D02*
X111396000Y-66924000D01*
X111541000Y-62774000D02*
X111396000Y-62774000D01*
D11*
X113539748Y-68274000D02*
X114062252Y-68274000D01*
X113539748Y-66854000D02*
X114062252Y-66854000D01*
X108704748Y-60273000D02*
X109227252Y-60273000D01*
X108704748Y-58853000D02*
X109227252Y-58853000D01*
X77761000Y-44195000D02*
X77761000Y-53595000D01*
X83561000Y-53595000D02*
X81561000Y-53595000D01*
X79661000Y-53595000D02*
X77761000Y-53595000D01*
X83561000Y-44195000D02*
X81561000Y-44195000D01*
X79661000Y-44195000D02*
X77761000Y-44195000D01*
X108914000Y-46616252D02*
X108914000Y-46093748D01*
X107494000Y-46616252D02*
X107494000Y-46093748D01*
X109526000Y-40006748D02*
X109526000Y-40529252D01*
X110946000Y-40006748D02*
X110946000Y-40529252D01*
X107494000Y-37838748D02*
X107494000Y-38361252D01*
X108914000Y-37838748D02*
X108914000Y-38361252D01*
X86367252Y-57202000D02*
X85844748Y-57202000D01*
X86367252Y-58622000D02*
X85844748Y-58622000D01*
X102562000Y-36251000D02*
X99702000Y-36251000D01*
X102562000Y-38171000D02*
X102562000Y-36251000D01*
X99702000Y-38171000D02*
X102562000Y-38171000D01*
X105462000Y-42156748D02*
X105462000Y-42679252D01*
X106882000Y-42156748D02*
X106882000Y-42679252D01*
X108641248Y-35889000D02*
X109163752Y-35889000D01*
X108641248Y-34469000D02*
X109163752Y-34469000D01*
X83427500Y-38664248D02*
X83427500Y-39186752D01*
X84847500Y-38664248D02*
X84847500Y-39186752D01*
X102922000Y-61968748D02*
X102922000Y-62491252D01*
X104342000Y-61968748D02*
X104342000Y-62491252D01*
X106882000Y-46616252D02*
X106882000Y-46093748D01*
X105462000Y-46616252D02*
X105462000Y-46093748D01*
X104782252Y-34469000D02*
X104259748Y-34469000D01*
X104782252Y-35889000D02*
X104259748Y-35889000D01*
X108914000Y-42171252D02*
X108914000Y-41648748D01*
X107494000Y-42171252D02*
X107494000Y-41648748D01*
X127687000Y-60199748D02*
X127687000Y-60722252D01*
X129107000Y-60199748D02*
X129107000Y-60722252D01*
X128008748Y-64464000D02*
X128531252Y-64464000D01*
X128008748Y-63044000D02*
X128531252Y-63044000D01*
X100972252Y-34469000D02*
X100449748Y-34469000D01*
X100972252Y-35889000D02*
X100449748Y-35889000D01*
X144600000Y-67700000D02*
X144600000Y-58300000D01*
X138800000Y-58300000D02*
X140800000Y-58300000D01*
X142700000Y-58300000D02*
X144600000Y-58300000D01*
X138800000Y-67700000D02*
X140800000Y-67700000D01*
X142700000Y-67700000D02*
X144600000Y-67700000D01*
X106882000Y-38361252D02*
X106882000Y-37838748D01*
X105462000Y-38361252D02*
X105462000Y-37838748D01*
X112396748Y-35889000D02*
X112919252Y-35889000D01*
X112396748Y-34469000D02*
X112919252Y-34469000D01*
X88272252Y-73966000D02*
X87749748Y-73966000D01*
X88272252Y-75386000D02*
X87749748Y-75386000D01*
D12*
X88400666Y-56284761D02*
X88543523Y-56332380D01*
X88781619Y-56332380D01*
X88876857Y-56284761D01*
X88924476Y-56237142D01*
X88972095Y-56141904D01*
X88972095Y-56046666D01*
X88924476Y-55951428D01*
X88876857Y-55903809D01*
X88781619Y-55856190D01*
X88591142Y-55808571D01*
X88495904Y-55760952D01*
X88448285Y-55713333D01*
X88400666Y-55618095D01*
X88400666Y-55522857D01*
X88448285Y-55427619D01*
X88495904Y-55380000D01*
X88591142Y-55332380D01*
X88829238Y-55332380D01*
X88972095Y-55380000D01*
X89257809Y-55332380D02*
X89829238Y-55332380D01*
X89543523Y-56332380D02*
X89543523Y-55332380D01*
X90162571Y-56332380D02*
X90162571Y-55332380D01*
X90495904Y-56046666D01*
X90829238Y-55332380D01*
X90829238Y-56332380D01*
X91210190Y-55332380D02*
X91829238Y-55332380D01*
X91495904Y-55713333D01*
X91638761Y-55713333D01*
X91734000Y-55760952D01*
X91781619Y-55808571D01*
X91829238Y-55903809D01*
X91829238Y-56141904D01*
X91781619Y-56237142D01*
X91734000Y-56284761D01*
X91638761Y-56332380D01*
X91353047Y-56332380D01*
X91257809Y-56284761D01*
X91210190Y-56237142D01*
X92210190Y-55427619D02*
X92257809Y-55380000D01*
X92353047Y-55332380D01*
X92591142Y-55332380D01*
X92686380Y-55380000D01*
X92734000Y-55427619D01*
X92781619Y-55522857D01*
X92781619Y-55618095D01*
X92734000Y-55760952D01*
X92162571Y-56332380D01*
X92781619Y-56332380D01*
X93543523Y-55808571D02*
X93210190Y-55808571D01*
X93210190Y-56332380D02*
X93210190Y-55332380D01*
X93686380Y-55332380D01*
X94257809Y-55332380D02*
X94353047Y-55332380D01*
X94448285Y-55380000D01*
X94495904Y-55427619D01*
X94543523Y-55522857D01*
X94591142Y-55713333D01*
X94591142Y-55951428D01*
X94543523Y-56141904D01*
X94495904Y-56237142D01*
X94448285Y-56284761D01*
X94353047Y-56332380D01*
X94257809Y-56332380D01*
X94162571Y-56284761D01*
X94114952Y-56237142D01*
X94067333Y-56141904D01*
X94019714Y-55951428D01*
X94019714Y-55713333D01*
X94067333Y-55522857D01*
X94114952Y-55427619D01*
X94162571Y-55380000D01*
X94257809Y-55332380D01*
X94924476Y-55332380D02*
X95591142Y-55332380D01*
X95162571Y-56332380D01*
X95924476Y-55427619D02*
X95972095Y-55380000D01*
X96067333Y-55332380D01*
X96305428Y-55332380D01*
X96400666Y-55380000D01*
X96448285Y-55427619D01*
X96495904Y-55522857D01*
X96495904Y-55618095D01*
X96448285Y-55760952D01*
X95876857Y-56332380D01*
X96495904Y-56332380D01*
X97495904Y-56332380D02*
X97162571Y-55856190D01*
X96924476Y-56332380D02*
X96924476Y-55332380D01*
X97305428Y-55332380D01*
X97400666Y-55380000D01*
X97448285Y-55427619D01*
X97495904Y-55522857D01*
X97495904Y-55665714D01*
X97448285Y-55760952D01*
X97400666Y-55808571D01*
X97305428Y-55856190D01*
X96924476Y-55856190D01*
X98257809Y-55808571D02*
X98400666Y-55856190D01*
X98448285Y-55903809D01*
X98495904Y-55999047D01*
X98495904Y-56141904D01*
X98448285Y-56237142D01*
X98400666Y-56284761D01*
X98305428Y-56332380D01*
X97924476Y-56332380D01*
X97924476Y-55332380D01*
X98257809Y-55332380D01*
X98353047Y-55380000D01*
X98400666Y-55427619D01*
X98448285Y-55522857D01*
X98448285Y-55618095D01*
X98400666Y-55713333D01*
X98353047Y-55760952D01*
X98257809Y-55808571D01*
X97924476Y-55808571D01*
X98781619Y-55332380D02*
X99353047Y-55332380D01*
X99067333Y-56332380D02*
X99067333Y-55332380D01*
X99591142Y-56332380D02*
X100114952Y-55665714D01*
X99591142Y-55665714D02*
X100114952Y-56332380D01*
X108497714Y-80398904D02*
X109164380Y-80398904D01*
X108497714Y-80827476D02*
X109021523Y-80827476D01*
X109116761Y-80779857D01*
X109164380Y-80684619D01*
X109164380Y-80541761D01*
X109116761Y-80446523D01*
X109069142Y-80398904D01*
X109164380Y-79398904D02*
X109164380Y-79970333D01*
X109164380Y-79684619D02*
X108164380Y-79684619D01*
X108307238Y-79779857D01*
X108402476Y-79875095D01*
X108450095Y-79970333D01*
X117911619Y-94511666D02*
X117864000Y-94464047D01*
X117816380Y-94368809D01*
X117816380Y-94130714D01*
X117864000Y-94035476D01*
X117911619Y-93987857D01*
X118006857Y-93940238D01*
X118102095Y-93940238D01*
X118244952Y-93987857D01*
X118816380Y-94559285D01*
X118816380Y-93940238D01*
X117911619Y-93559285D02*
X117864000Y-93511666D01*
X117816380Y-93416428D01*
X117816380Y-93178333D01*
X117864000Y-93083095D01*
X117911619Y-93035476D01*
X118006857Y-92987857D01*
X118102095Y-92987857D01*
X118244952Y-93035476D01*
X118816380Y-93606904D01*
X118816380Y-92987857D01*
X118816380Y-92559285D02*
X117816380Y-92559285D01*
X118435428Y-92464047D02*
X118816380Y-92178333D01*
X118149714Y-92178333D02*
X118530666Y-92559285D01*
X116784380Y-93940238D02*
X116784380Y-94511666D01*
X116784380Y-94225952D02*
X115784380Y-94225952D01*
X115927238Y-94321190D01*
X116022476Y-94416428D01*
X116070095Y-94511666D01*
X115784380Y-93321190D02*
X115784380Y-93225952D01*
X115832000Y-93130714D01*
X115879619Y-93083095D01*
X115974857Y-93035476D01*
X116165333Y-92987857D01*
X116403428Y-92987857D01*
X116593904Y-93035476D01*
X116689142Y-93083095D01*
X116736761Y-93130714D01*
X116784380Y-93225952D01*
X116784380Y-93321190D01*
X116736761Y-93416428D01*
X116689142Y-93464047D01*
X116593904Y-93511666D01*
X116403428Y-93559285D01*
X116165333Y-93559285D01*
X115974857Y-93511666D01*
X115879619Y-93464047D01*
X115832000Y-93416428D01*
X115784380Y-93321190D01*
X116784380Y-92559285D02*
X115784380Y-92559285D01*
X116403428Y-92464047D02*
X116784380Y-92178333D01*
X116117714Y-92178333D02*
X116498666Y-92559285D01*
X114752380Y-94194238D02*
X114752380Y-94765666D01*
X114752380Y-94479952D02*
X113752380Y-94479952D01*
X113895238Y-94575190D01*
X113990476Y-94670428D01*
X114038095Y-94765666D01*
X113752380Y-93575190D02*
X113752380Y-93479952D01*
X113800000Y-93384714D01*
X113847619Y-93337095D01*
X113942857Y-93289476D01*
X114133333Y-93241857D01*
X114371428Y-93241857D01*
X114561904Y-93289476D01*
X114657142Y-93337095D01*
X114704761Y-93384714D01*
X114752380Y-93479952D01*
X114752380Y-93575190D01*
X114704761Y-93670428D01*
X114657142Y-93718047D01*
X114561904Y-93765666D01*
X114371428Y-93813285D01*
X114133333Y-93813285D01*
X113942857Y-93765666D01*
X113847619Y-93718047D01*
X113800000Y-93670428D01*
X113752380Y-93575190D01*
X114752380Y-92813285D02*
X113752380Y-92813285D01*
X114371428Y-92718047D02*
X114752380Y-92432333D01*
X114085714Y-92432333D02*
X114466666Y-92813285D01*
X125579333Y-94670619D02*
X125626952Y-94623000D01*
X125722190Y-94575380D01*
X125960285Y-94575380D01*
X126055523Y-94623000D01*
X126103142Y-94670619D01*
X126150761Y-94765857D01*
X126150761Y-94861095D01*
X126103142Y-95003952D01*
X125531714Y-95575380D01*
X126150761Y-95575380D01*
X126531714Y-94670619D02*
X126579333Y-94623000D01*
X126674571Y-94575380D01*
X126912666Y-94575380D01*
X127007904Y-94623000D01*
X127055523Y-94670619D01*
X127103142Y-94765857D01*
X127103142Y-94861095D01*
X127055523Y-95003952D01*
X126484095Y-95575380D01*
X127103142Y-95575380D01*
X127531714Y-95575380D02*
X127531714Y-94575380D01*
X127626952Y-95194428D02*
X127912666Y-95575380D01*
X127912666Y-94908714D02*
X127531714Y-95289666D01*
X101052380Y-66619285D02*
X101052380Y-66000238D01*
X101433333Y-66333571D01*
X101433333Y-66190714D01*
X101480952Y-66095476D01*
X101528571Y-66047857D01*
X101623809Y-66000238D01*
X101861904Y-66000238D01*
X101957142Y-66047857D01*
X102004761Y-66095476D01*
X102052380Y-66190714D01*
X102052380Y-66476428D01*
X102004761Y-66571666D01*
X101957142Y-66619285D01*
X102052380Y-65571666D02*
X101052380Y-65571666D01*
X101671428Y-65476428D02*
X102052380Y-65190714D01*
X101385714Y-65190714D02*
X101766666Y-65571666D01*
X101052380Y-64857380D02*
X101052380Y-64238333D01*
X101433333Y-64571666D01*
X101433333Y-64428809D01*
X101480952Y-64333571D01*
X101528571Y-64285952D01*
X101623809Y-64238333D01*
X101861904Y-64238333D01*
X101957142Y-64285952D01*
X102004761Y-64333571D01*
X102052380Y-64428809D01*
X102052380Y-64714523D01*
X102004761Y-64809761D01*
X101957142Y-64857380D01*
X68889952Y-64841380D02*
X68889952Y-63841380D01*
X69461380Y-64841380D01*
X69461380Y-63841380D01*
X70509000Y-64746142D02*
X70461380Y-64793761D01*
X70318523Y-64841380D01*
X70223285Y-64841380D01*
X70080428Y-64793761D01*
X69985190Y-64698523D01*
X69937571Y-64603285D01*
X69889952Y-64412809D01*
X69889952Y-64269952D01*
X69937571Y-64079476D01*
X69985190Y-63984238D01*
X70080428Y-63889000D01*
X70223285Y-63841380D01*
X70318523Y-63841380D01*
X70461380Y-63889000D01*
X70509000Y-63936619D01*
X70794714Y-63841380D02*
X71128047Y-64841380D01*
X71461380Y-63841380D01*
X71699476Y-63841380D02*
X72366142Y-63841380D01*
X71937571Y-64841380D01*
X72651857Y-63841380D02*
X73318523Y-63841380D01*
X72889952Y-64841380D01*
X74223285Y-64841380D02*
X73651857Y-64841380D01*
X73937571Y-64841380D02*
X73937571Y-63841380D01*
X73842333Y-63984238D01*
X73747095Y-64079476D01*
X73651857Y-64127095D01*
X74699476Y-64841380D02*
X74889952Y-64841380D01*
X74985190Y-64793761D01*
X75032809Y-64746142D01*
X75128047Y-64603285D01*
X75175666Y-64412809D01*
X75175666Y-64031857D01*
X75128047Y-63936619D01*
X75080428Y-63889000D01*
X74985190Y-63841380D01*
X74794714Y-63841380D01*
X74699476Y-63889000D01*
X74651857Y-63936619D01*
X74604238Y-64031857D01*
X74604238Y-64269952D01*
X74651857Y-64365190D01*
X74699476Y-64412809D01*
X74794714Y-64460428D01*
X74985190Y-64460428D01*
X75080428Y-64412809D01*
X75128047Y-64365190D01*
X75175666Y-64269952D01*
X81399095Y-69254714D02*
X81399095Y-69921380D01*
X80970523Y-69254714D02*
X80970523Y-69778523D01*
X81018142Y-69873761D01*
X81113380Y-69921380D01*
X81256238Y-69921380D01*
X81351476Y-69873761D01*
X81399095Y-69826142D01*
X82399095Y-69921380D02*
X81827666Y-69921380D01*
X82113380Y-69921380D02*
X82113380Y-68921380D01*
X82018142Y-69064238D01*
X81922904Y-69159476D01*
X81827666Y-69207095D01*
X81033952Y-77414380D02*
X80462523Y-77414380D01*
X80748238Y-77414380D02*
X80748238Y-76414380D01*
X80653000Y-76557238D01*
X80557761Y-76652476D01*
X80462523Y-76700095D01*
X81462523Y-77414380D02*
X81462523Y-76414380D01*
X81557761Y-77033428D02*
X81843476Y-77414380D01*
X81843476Y-76747714D02*
X81462523Y-77128666D01*
X139202380Y-86272476D02*
X139202380Y-86748666D01*
X138202380Y-86748666D01*
X139202380Y-85939142D02*
X138202380Y-85939142D01*
X138916666Y-85605809D01*
X138202380Y-85272476D01*
X139202380Y-85272476D01*
X138202380Y-84891523D02*
X138202380Y-84272476D01*
X138583333Y-84605809D01*
X138583333Y-84462952D01*
X138630952Y-84367714D01*
X138678571Y-84320095D01*
X138773809Y-84272476D01*
X139011904Y-84272476D01*
X139107142Y-84320095D01*
X139154761Y-84367714D01*
X139202380Y-84462952D01*
X139202380Y-84748666D01*
X139154761Y-84843904D01*
X139107142Y-84891523D01*
X138202380Y-83367714D02*
X138202380Y-83843904D01*
X138678571Y-83891523D01*
X138630952Y-83843904D01*
X138583333Y-83748666D01*
X138583333Y-83510571D01*
X138630952Y-83415333D01*
X138678571Y-83367714D01*
X138773809Y-83320095D01*
X139011904Y-83320095D01*
X139107142Y-83367714D01*
X139154761Y-83415333D01*
X139202380Y-83510571D01*
X139202380Y-83748666D01*
X139154761Y-83843904D01*
X139107142Y-83891523D01*
X138630952Y-82748666D02*
X138583333Y-82843904D01*
X138535714Y-82891523D01*
X138440476Y-82939142D01*
X138392857Y-82939142D01*
X138297619Y-82891523D01*
X138250000Y-82843904D01*
X138202380Y-82748666D01*
X138202380Y-82558190D01*
X138250000Y-82462952D01*
X138297619Y-82415333D01*
X138392857Y-82367714D01*
X138440476Y-82367714D01*
X138535714Y-82415333D01*
X138583333Y-82462952D01*
X138630952Y-82558190D01*
X138630952Y-82748666D01*
X138678571Y-82843904D01*
X138726190Y-82891523D01*
X138821428Y-82939142D01*
X139011904Y-82939142D01*
X139107142Y-82891523D01*
X139154761Y-82843904D01*
X139202380Y-82748666D01*
X139202380Y-82558190D01*
X139154761Y-82462952D01*
X139107142Y-82415333D01*
X139011904Y-82367714D01*
X138821428Y-82367714D01*
X138726190Y-82415333D01*
X138678571Y-82462952D01*
X138630952Y-82558190D01*
X131929333Y-77018619D02*
X131976952Y-76971000D01*
X132072190Y-76923380D01*
X132310285Y-76923380D01*
X132405523Y-76971000D01*
X132453142Y-77018619D01*
X132500761Y-77113857D01*
X132500761Y-77209095D01*
X132453142Y-77351952D01*
X131881714Y-77923380D01*
X132500761Y-77923380D01*
X132881714Y-77018619D02*
X132929333Y-76971000D01*
X133024571Y-76923380D01*
X133262666Y-76923380D01*
X133357904Y-76971000D01*
X133405523Y-77018619D01*
X133453142Y-77113857D01*
X133453142Y-77209095D01*
X133405523Y-77351952D01*
X132834095Y-77923380D01*
X133453142Y-77923380D01*
X133881714Y-77923380D02*
X133881714Y-76923380D01*
X133976952Y-77542428D02*
X134262666Y-77923380D01*
X134262666Y-77256714D02*
X133881714Y-77637666D01*
X128690761Y-77923380D02*
X128119333Y-77923380D01*
X128405047Y-77923380D02*
X128405047Y-76923380D01*
X128309809Y-77066238D01*
X128214571Y-77161476D01*
X128119333Y-77209095D01*
X129309809Y-76923380D02*
X129405047Y-76923380D01*
X129500285Y-76971000D01*
X129547904Y-77018619D01*
X129595523Y-77113857D01*
X129643142Y-77304333D01*
X129643142Y-77542428D01*
X129595523Y-77732904D01*
X129547904Y-77828142D01*
X129500285Y-77875761D01*
X129405047Y-77923380D01*
X129309809Y-77923380D01*
X129214571Y-77875761D01*
X129166952Y-77828142D01*
X129119333Y-77732904D01*
X129071714Y-77542428D01*
X129071714Y-77304333D01*
X129119333Y-77113857D01*
X129166952Y-77018619D01*
X129214571Y-76971000D01*
X129309809Y-76923380D01*
X130071714Y-77923380D02*
X130071714Y-76923380D01*
X130166952Y-77542428D02*
X130452666Y-77923380D01*
X130452666Y-77256714D02*
X130071714Y-77637666D01*
X121297619Y-91082666D02*
X121250000Y-91035047D01*
X121202380Y-90939809D01*
X121202380Y-90701714D01*
X121250000Y-90606476D01*
X121297619Y-90558857D01*
X121392857Y-90511238D01*
X121488095Y-90511238D01*
X121630952Y-90558857D01*
X122202380Y-91130285D01*
X122202380Y-90511238D01*
X121297619Y-90130285D02*
X121250000Y-90082666D01*
X121202380Y-89987428D01*
X121202380Y-89749333D01*
X121250000Y-89654095D01*
X121297619Y-89606476D01*
X121392857Y-89558857D01*
X121488095Y-89558857D01*
X121630952Y-89606476D01*
X122202380Y-90177904D01*
X122202380Y-89558857D01*
X122202380Y-89130285D02*
X121202380Y-89130285D01*
X121821428Y-89035047D02*
X122202380Y-88749333D01*
X121535714Y-88749333D02*
X121916666Y-89130285D01*
X129404761Y-93952380D02*
X128833333Y-93952380D01*
X129119047Y-93952380D02*
X129119047Y-92952380D01*
X129023809Y-93095238D01*
X128928571Y-93190476D01*
X128833333Y-93238095D01*
X130023809Y-92952380D02*
X130119047Y-92952380D01*
X130214285Y-93000000D01*
X130261904Y-93047619D01*
X130309523Y-93142857D01*
X130357142Y-93333333D01*
X130357142Y-93571428D01*
X130309523Y-93761904D01*
X130261904Y-93857142D01*
X130214285Y-93904761D01*
X130119047Y-93952380D01*
X130023809Y-93952380D01*
X129928571Y-93904761D01*
X129880952Y-93857142D01*
X129833333Y-93761904D01*
X129785714Y-93571428D01*
X129785714Y-93333333D01*
X129833333Y-93142857D01*
X129880952Y-93047619D01*
X129928571Y-93000000D01*
X130023809Y-92952380D01*
X130785714Y-93952380D02*
X130785714Y-92952380D01*
X130880952Y-93571428D02*
X131166666Y-93952380D01*
X131166666Y-93285714D02*
X130785714Y-93666666D01*
X132754714Y-93860904D02*
X133421380Y-93860904D01*
X132754714Y-94289476D02*
X133278523Y-94289476D01*
X133373761Y-94241857D01*
X133421380Y-94146619D01*
X133421380Y-94003761D01*
X133373761Y-93908523D01*
X133326142Y-93860904D01*
X133421380Y-92860904D02*
X133421380Y-93432333D01*
X133421380Y-93146619D02*
X132421380Y-93146619D01*
X132564238Y-93241857D01*
X132659476Y-93337095D01*
X132707095Y-93432333D01*
X83192952Y-56332380D02*
X82621523Y-56332380D01*
X82907238Y-56332380D02*
X82907238Y-55332380D01*
X82812000Y-55475238D01*
X82716761Y-55570476D01*
X82621523Y-55618095D01*
X83621523Y-56332380D02*
X83621523Y-55332380D01*
X83716761Y-55951428D02*
X84002476Y-56332380D01*
X84002476Y-55665714D02*
X83621523Y-56046666D01*
X67063952Y-59253380D02*
X66492523Y-59253380D01*
X66778238Y-59253380D02*
X66778238Y-58253380D01*
X66683000Y-58396238D01*
X66587761Y-58491476D01*
X66492523Y-58539095D01*
X67492523Y-59253380D02*
X67492523Y-58253380D01*
X67587761Y-58872428D02*
X67873476Y-59253380D01*
X67873476Y-58586714D02*
X67492523Y-58967666D01*
X70873952Y-81732380D02*
X70302523Y-81732380D01*
X70588238Y-81732380D02*
X70588238Y-80732380D01*
X70493000Y-80875238D01*
X70397761Y-80970476D01*
X70302523Y-81018095D01*
X71302523Y-81732380D02*
X71302523Y-80732380D01*
X71397761Y-81351428D02*
X71683476Y-81732380D01*
X71683476Y-81065714D02*
X71302523Y-81446666D01*
X57221380Y-71048476D02*
X57221380Y-71619904D01*
X57221380Y-71334190D02*
X56221380Y-71334190D01*
X56364238Y-71429428D01*
X56459476Y-71524666D01*
X56507095Y-71619904D01*
X56221380Y-70429428D02*
X56221380Y-70334190D01*
X56269000Y-70238952D01*
X56316619Y-70191333D01*
X56411857Y-70143714D01*
X56602333Y-70096095D01*
X56840428Y-70096095D01*
X57030904Y-70143714D01*
X57126142Y-70191333D01*
X57173761Y-70238952D01*
X57221380Y-70334190D01*
X57221380Y-70429428D01*
X57173761Y-70524666D01*
X57126142Y-70572285D01*
X57030904Y-70619904D01*
X56840428Y-70667523D01*
X56602333Y-70667523D01*
X56411857Y-70619904D01*
X56316619Y-70572285D01*
X56269000Y-70524666D01*
X56221380Y-70429428D01*
X57221380Y-69096095D02*
X56745190Y-69429428D01*
X57221380Y-69667523D02*
X56221380Y-69667523D01*
X56221380Y-69286571D01*
X56269000Y-69191333D01*
X56316619Y-69143714D01*
X56411857Y-69096095D01*
X56554714Y-69096095D01*
X56649952Y-69143714D01*
X56697571Y-69191333D01*
X56745190Y-69286571D01*
X56745190Y-69667523D01*
X57094380Y-68127476D02*
X57094380Y-68698904D01*
X57094380Y-68413190D02*
X56094380Y-68413190D01*
X56237238Y-68508428D01*
X56332476Y-68603666D01*
X56380095Y-68698904D01*
X56094380Y-67508428D02*
X56094380Y-67413190D01*
X56142000Y-67317952D01*
X56189619Y-67270333D01*
X56284857Y-67222714D01*
X56475333Y-67175095D01*
X56713428Y-67175095D01*
X56903904Y-67222714D01*
X56999142Y-67270333D01*
X57046761Y-67317952D01*
X57094380Y-67413190D01*
X57094380Y-67508428D01*
X57046761Y-67603666D01*
X56999142Y-67651285D01*
X56903904Y-67698904D01*
X56713428Y-67746523D01*
X56475333Y-67746523D01*
X56284857Y-67698904D01*
X56189619Y-67651285D01*
X56142000Y-67603666D01*
X56094380Y-67508428D01*
X57094380Y-66175095D02*
X56618190Y-66508428D01*
X57094380Y-66746523D02*
X56094380Y-66746523D01*
X56094380Y-66365571D01*
X56142000Y-66270333D01*
X56189619Y-66222714D01*
X56284857Y-66175095D01*
X56427714Y-66175095D01*
X56522952Y-66222714D01*
X56570571Y-66270333D01*
X56618190Y-66365571D01*
X56618190Y-66746523D01*
X82557952Y-62175380D02*
X81986523Y-62175380D01*
X82272238Y-62175380D02*
X82272238Y-61175380D01*
X82177000Y-61318238D01*
X82081761Y-61413476D01*
X81986523Y-61461095D01*
X82986523Y-62175380D02*
X82986523Y-61175380D01*
X83081761Y-61794428D02*
X83367476Y-62175380D01*
X83367476Y-61508714D02*
X82986523Y-61889666D01*
X69095952Y-59253380D02*
X68524523Y-59253380D01*
X68810238Y-59253380D02*
X68810238Y-58253380D01*
X68715000Y-58396238D01*
X68619761Y-58491476D01*
X68524523Y-58539095D01*
X69524523Y-59253380D02*
X69524523Y-58253380D01*
X69619761Y-58872428D02*
X69905476Y-59253380D01*
X69905476Y-58586714D02*
X69524523Y-58967666D01*
X59508380Y-62031476D02*
X59508380Y-62602904D01*
X59508380Y-62317190D02*
X58508380Y-62317190D01*
X58651238Y-62412428D01*
X58746476Y-62507666D01*
X58794095Y-62602904D01*
X58508380Y-61412428D02*
X58508380Y-61317190D01*
X58556000Y-61221952D01*
X58603619Y-61174333D01*
X58698857Y-61126714D01*
X58889333Y-61079095D01*
X59127428Y-61079095D01*
X59317904Y-61126714D01*
X59413142Y-61174333D01*
X59460761Y-61221952D01*
X59508380Y-61317190D01*
X59508380Y-61412428D01*
X59460761Y-61507666D01*
X59413142Y-61555285D01*
X59317904Y-61602904D01*
X59127428Y-61650523D01*
X58889333Y-61650523D01*
X58698857Y-61602904D01*
X58603619Y-61555285D01*
X58556000Y-61507666D01*
X58508380Y-61412428D01*
X59508380Y-60079095D02*
X59032190Y-60412428D01*
X59508380Y-60650523D02*
X58508380Y-60650523D01*
X58508380Y-60269571D01*
X58556000Y-60174333D01*
X58603619Y-60126714D01*
X58698857Y-60079095D01*
X58841714Y-60079095D01*
X58936952Y-60126714D01*
X58984571Y-60174333D01*
X59032190Y-60269571D01*
X59032190Y-60650523D01*
X59508380Y-66095476D02*
X59508380Y-66666904D01*
X59508380Y-66381190D02*
X58508380Y-66381190D01*
X58651238Y-66476428D01*
X58746476Y-66571666D01*
X58794095Y-66666904D01*
X58508380Y-65476428D02*
X58508380Y-65381190D01*
X58556000Y-65285952D01*
X58603619Y-65238333D01*
X58698857Y-65190714D01*
X58889333Y-65143095D01*
X59127428Y-65143095D01*
X59317904Y-65190714D01*
X59413142Y-65238333D01*
X59460761Y-65285952D01*
X59508380Y-65381190D01*
X59508380Y-65476428D01*
X59460761Y-65571666D01*
X59413142Y-65619285D01*
X59317904Y-65666904D01*
X59127428Y-65714523D01*
X58889333Y-65714523D01*
X58698857Y-65666904D01*
X58603619Y-65619285D01*
X58556000Y-65571666D01*
X58508380Y-65476428D01*
X59508380Y-64143095D02*
X59032190Y-64476428D01*
X59508380Y-64714523D02*
X58508380Y-64714523D01*
X58508380Y-64333571D01*
X58556000Y-64238333D01*
X58603619Y-64190714D01*
X58698857Y-64143095D01*
X58841714Y-64143095D01*
X58936952Y-64190714D01*
X58984571Y-64238333D01*
X59032190Y-64333571D01*
X59032190Y-64714523D01*
X59380380Y-77779476D02*
X59380380Y-78350904D01*
X59380380Y-78065190D02*
X58380380Y-78065190D01*
X58523238Y-78160428D01*
X58618476Y-78255666D01*
X58666095Y-78350904D01*
X58380380Y-77160428D02*
X58380380Y-77065190D01*
X58428000Y-76969952D01*
X58475619Y-76922333D01*
X58570857Y-76874714D01*
X58761333Y-76827095D01*
X58999428Y-76827095D01*
X59189904Y-76874714D01*
X59285142Y-76922333D01*
X59332761Y-76969952D01*
X59380380Y-77065190D01*
X59380380Y-77160428D01*
X59332761Y-77255666D01*
X59285142Y-77303285D01*
X59189904Y-77350904D01*
X58999428Y-77398523D01*
X58761333Y-77398523D01*
X58570857Y-77350904D01*
X58475619Y-77303285D01*
X58428000Y-77255666D01*
X58380380Y-77160428D01*
X59380380Y-75827095D02*
X58904190Y-76160428D01*
X59380380Y-76398523D02*
X58380380Y-76398523D01*
X58380380Y-76017571D01*
X58428000Y-75922333D01*
X58475619Y-75874714D01*
X58570857Y-75827095D01*
X58713714Y-75827095D01*
X58808952Y-75874714D01*
X58856571Y-75922333D01*
X58904190Y-76017571D01*
X58904190Y-76398523D01*
X57348380Y-74477476D02*
X57348380Y-75048904D01*
X57348380Y-74763190D02*
X56348380Y-74763190D01*
X56491238Y-74858428D01*
X56586476Y-74953666D01*
X56634095Y-75048904D01*
X56348380Y-73858428D02*
X56348380Y-73763190D01*
X56396000Y-73667952D01*
X56443619Y-73620333D01*
X56538857Y-73572714D01*
X56729333Y-73525095D01*
X56967428Y-73525095D01*
X57157904Y-73572714D01*
X57253142Y-73620333D01*
X57300761Y-73667952D01*
X57348380Y-73763190D01*
X57348380Y-73858428D01*
X57300761Y-73953666D01*
X57253142Y-74001285D01*
X57157904Y-74048904D01*
X56967428Y-74096523D01*
X56729333Y-74096523D01*
X56538857Y-74048904D01*
X56443619Y-74001285D01*
X56396000Y-73953666D01*
X56348380Y-73858428D01*
X57348380Y-72525095D02*
X56872190Y-72858428D01*
X57348380Y-73096523D02*
X56348380Y-73096523D01*
X56348380Y-72715571D01*
X56396000Y-72620333D01*
X56443619Y-72572714D01*
X56538857Y-72525095D01*
X56681714Y-72525095D01*
X56776952Y-72572714D01*
X56824571Y-72620333D01*
X56872190Y-72715571D01*
X56872190Y-73096523D01*
X81160952Y-79954380D02*
X80589523Y-79954380D01*
X80875238Y-79954380D02*
X80875238Y-78954380D01*
X80780000Y-79097238D01*
X80684761Y-79192476D01*
X80589523Y-79240095D01*
X81589523Y-79954380D02*
X81589523Y-78954380D01*
X81684761Y-79573428D02*
X81970476Y-79954380D01*
X81970476Y-79287714D02*
X81589523Y-79668666D01*
X70746952Y-75763380D02*
X70175523Y-75763380D01*
X70461238Y-75763380D02*
X70461238Y-74763380D01*
X70366000Y-74906238D01*
X70270761Y-75001476D01*
X70175523Y-75049095D01*
X71175523Y-75763380D02*
X71175523Y-74763380D01*
X71270761Y-75382428D02*
X71556476Y-75763380D01*
X71556476Y-75096714D02*
X71175523Y-75477666D01*
X68714952Y-75763380D02*
X68143523Y-75763380D01*
X68429238Y-75763380D02*
X68429238Y-74763380D01*
X68334000Y-74906238D01*
X68238761Y-75001476D01*
X68143523Y-75049095D01*
X69143523Y-75763380D02*
X69143523Y-74763380D01*
X69238761Y-75382428D02*
X69524476Y-75763380D01*
X69524476Y-75096714D02*
X69143523Y-75477666D01*
X59380380Y-80700476D02*
X59380380Y-81271904D01*
X59380380Y-80986190D02*
X58380380Y-80986190D01*
X58523238Y-81081428D01*
X58618476Y-81176666D01*
X58666095Y-81271904D01*
X58380380Y-80081428D02*
X58380380Y-79986190D01*
X58428000Y-79890952D01*
X58475619Y-79843333D01*
X58570857Y-79795714D01*
X58761333Y-79748095D01*
X58999428Y-79748095D01*
X59189904Y-79795714D01*
X59285142Y-79843333D01*
X59332761Y-79890952D01*
X59380380Y-79986190D01*
X59380380Y-80081428D01*
X59332761Y-80176666D01*
X59285142Y-80224285D01*
X59189904Y-80271904D01*
X58999428Y-80319523D01*
X58761333Y-80319523D01*
X58570857Y-80271904D01*
X58475619Y-80224285D01*
X58428000Y-80176666D01*
X58380380Y-80081428D01*
X59380380Y-78748095D02*
X58904190Y-79081428D01*
X59380380Y-79319523D02*
X58380380Y-79319523D01*
X58380380Y-78938571D01*
X58428000Y-78843333D01*
X58475619Y-78795714D01*
X58570857Y-78748095D01*
X58713714Y-78748095D01*
X58808952Y-78795714D01*
X58856571Y-78843333D01*
X58904190Y-78938571D01*
X58904190Y-79319523D01*
X65603380Y-78541476D02*
X65603380Y-79112904D01*
X65603380Y-78827190D02*
X64603380Y-78827190D01*
X64746238Y-78922428D01*
X64841476Y-79017666D01*
X64889095Y-79112904D01*
X64603380Y-77922428D02*
X64603380Y-77827190D01*
X64651000Y-77731952D01*
X64698619Y-77684333D01*
X64793857Y-77636714D01*
X64984333Y-77589095D01*
X65222428Y-77589095D01*
X65412904Y-77636714D01*
X65508142Y-77684333D01*
X65555761Y-77731952D01*
X65603380Y-77827190D01*
X65603380Y-77922428D01*
X65555761Y-78017666D01*
X65508142Y-78065285D01*
X65412904Y-78112904D01*
X65222428Y-78160523D01*
X64984333Y-78160523D01*
X64793857Y-78112904D01*
X64698619Y-78065285D01*
X64651000Y-78017666D01*
X64603380Y-77922428D01*
X65603380Y-76589095D02*
X65127190Y-76922428D01*
X65603380Y-77160523D02*
X64603380Y-77160523D01*
X64603380Y-76779571D01*
X64651000Y-76684333D01*
X64698619Y-76636714D01*
X64793857Y-76589095D01*
X64936714Y-76589095D01*
X65031952Y-76636714D01*
X65079571Y-76684333D01*
X65127190Y-76779571D01*
X65127190Y-77160523D01*
X68841952Y-82113380D02*
X68270523Y-82113380D01*
X68556238Y-82113380D02*
X68556238Y-81113380D01*
X68461000Y-81256238D01*
X68365761Y-81351476D01*
X68270523Y-81399095D01*
X69270523Y-82113380D02*
X69270523Y-81113380D01*
X69365761Y-81732428D02*
X69651476Y-82113380D01*
X69651476Y-81446714D02*
X69270523Y-81827666D01*
X59507380Y-97591476D02*
X59507380Y-98162904D01*
X59507380Y-97877190D02*
X58507380Y-97877190D01*
X58650238Y-97972428D01*
X58745476Y-98067666D01*
X58793095Y-98162904D01*
X58507380Y-96972428D02*
X58507380Y-96877190D01*
X58555000Y-96781952D01*
X58602619Y-96734333D01*
X58697857Y-96686714D01*
X58888333Y-96639095D01*
X59126428Y-96639095D01*
X59316904Y-96686714D01*
X59412142Y-96734333D01*
X59459761Y-96781952D01*
X59507380Y-96877190D01*
X59507380Y-96972428D01*
X59459761Y-97067666D01*
X59412142Y-97115285D01*
X59316904Y-97162904D01*
X59126428Y-97210523D01*
X58888333Y-97210523D01*
X58697857Y-97162904D01*
X58602619Y-97115285D01*
X58555000Y-97067666D01*
X58507380Y-96972428D01*
X59507380Y-95639095D02*
X59031190Y-95972428D01*
X59507380Y-96210523D02*
X58507380Y-96210523D01*
X58507380Y-95829571D01*
X58555000Y-95734333D01*
X58602619Y-95686714D01*
X58697857Y-95639095D01*
X58840714Y-95639095D01*
X58935952Y-95686714D01*
X58983571Y-95734333D01*
X59031190Y-95829571D01*
X59031190Y-96210523D01*
X57348380Y-89082476D02*
X57348380Y-89653904D01*
X57348380Y-89368190D02*
X56348380Y-89368190D01*
X56491238Y-89463428D01*
X56586476Y-89558666D01*
X56634095Y-89653904D01*
X56348380Y-88463428D02*
X56348380Y-88368190D01*
X56396000Y-88272952D01*
X56443619Y-88225333D01*
X56538857Y-88177714D01*
X56729333Y-88130095D01*
X56967428Y-88130095D01*
X57157904Y-88177714D01*
X57253142Y-88225333D01*
X57300761Y-88272952D01*
X57348380Y-88368190D01*
X57348380Y-88463428D01*
X57300761Y-88558666D01*
X57253142Y-88606285D01*
X57157904Y-88653904D01*
X56967428Y-88701523D01*
X56729333Y-88701523D01*
X56538857Y-88653904D01*
X56443619Y-88606285D01*
X56396000Y-88558666D01*
X56348380Y-88463428D01*
X57348380Y-87130095D02*
X56872190Y-87463428D01*
X57348380Y-87701523D02*
X56348380Y-87701523D01*
X56348380Y-87320571D01*
X56396000Y-87225333D01*
X56443619Y-87177714D01*
X56538857Y-87130095D01*
X56681714Y-87130095D01*
X56776952Y-87177714D01*
X56824571Y-87225333D01*
X56872190Y-87320571D01*
X56872190Y-87701523D01*
X66936952Y-98623380D02*
X66365523Y-98623380D01*
X66651238Y-98623380D02*
X66651238Y-97623380D01*
X66556000Y-97766238D01*
X66460761Y-97861476D01*
X66365523Y-97909095D01*
X67365523Y-98623380D02*
X67365523Y-97623380D01*
X67460761Y-98242428D02*
X67746476Y-98623380D01*
X67746476Y-97956714D02*
X67365523Y-98337666D01*
X68968952Y-99004380D02*
X68397523Y-99004380D01*
X68683238Y-99004380D02*
X68683238Y-98004380D01*
X68588000Y-98147238D01*
X68492761Y-98242476D01*
X68397523Y-98290095D01*
X69397523Y-99004380D02*
X69397523Y-98004380D01*
X69492761Y-98623428D02*
X69778476Y-99004380D01*
X69778476Y-98337714D02*
X69397523Y-98718666D01*
X65731380Y-84764476D02*
X65731380Y-85335904D01*
X65731380Y-85050190D02*
X64731380Y-85050190D01*
X64874238Y-85145428D01*
X64969476Y-85240666D01*
X65017095Y-85335904D01*
X64731380Y-84145428D02*
X64731380Y-84050190D01*
X64779000Y-83954952D01*
X64826619Y-83907333D01*
X64921857Y-83859714D01*
X65112333Y-83812095D01*
X65350428Y-83812095D01*
X65540904Y-83859714D01*
X65636142Y-83907333D01*
X65683761Y-83954952D01*
X65731380Y-84050190D01*
X65731380Y-84145428D01*
X65683761Y-84240666D01*
X65636142Y-84288285D01*
X65540904Y-84335904D01*
X65350428Y-84383523D01*
X65112333Y-84383523D01*
X64921857Y-84335904D01*
X64826619Y-84288285D01*
X64779000Y-84240666D01*
X64731380Y-84145428D01*
X65731380Y-82812095D02*
X65255190Y-83145428D01*
X65731380Y-83383523D02*
X64731380Y-83383523D01*
X64731380Y-83002571D01*
X64779000Y-82907333D01*
X64826619Y-82859714D01*
X64921857Y-82812095D01*
X65064714Y-82812095D01*
X65159952Y-82859714D01*
X65207571Y-82907333D01*
X65255190Y-83002571D01*
X65255190Y-83383523D01*
X59507380Y-85653476D02*
X59507380Y-86224904D01*
X59507380Y-85939190D02*
X58507380Y-85939190D01*
X58650238Y-86034428D01*
X58745476Y-86129666D01*
X58793095Y-86224904D01*
X58507380Y-85034428D02*
X58507380Y-84939190D01*
X58555000Y-84843952D01*
X58602619Y-84796333D01*
X58697857Y-84748714D01*
X58888333Y-84701095D01*
X59126428Y-84701095D01*
X59316904Y-84748714D01*
X59412142Y-84796333D01*
X59459761Y-84843952D01*
X59507380Y-84939190D01*
X59507380Y-85034428D01*
X59459761Y-85129666D01*
X59412142Y-85177285D01*
X59316904Y-85224904D01*
X59126428Y-85272523D01*
X58888333Y-85272523D01*
X58697857Y-85224904D01*
X58602619Y-85177285D01*
X58555000Y-85129666D01*
X58507380Y-85034428D01*
X59507380Y-83701095D02*
X59031190Y-84034428D01*
X59507380Y-84272523D02*
X58507380Y-84272523D01*
X58507380Y-83891571D01*
X58555000Y-83796333D01*
X58602619Y-83748714D01*
X58697857Y-83701095D01*
X58840714Y-83701095D01*
X58935952Y-83748714D01*
X58983571Y-83796333D01*
X59031190Y-83891571D01*
X59031190Y-84272523D01*
X81160952Y-82240380D02*
X80589523Y-82240380D01*
X80875238Y-82240380D02*
X80875238Y-81240380D01*
X80780000Y-81383238D01*
X80684761Y-81478476D01*
X80589523Y-81526095D01*
X81589523Y-82240380D02*
X81589523Y-81240380D01*
X81684761Y-81859428D02*
X81970476Y-82240380D01*
X81970476Y-81573714D02*
X81589523Y-81954666D01*
X81160952Y-84780380D02*
X80589523Y-84780380D01*
X80875238Y-84780380D02*
X80875238Y-83780380D01*
X80780000Y-83923238D01*
X80684761Y-84018476D01*
X80589523Y-84066095D01*
X81589523Y-84780380D02*
X81589523Y-83780380D01*
X81684761Y-84399428D02*
X81970476Y-84780380D01*
X81970476Y-84113714D02*
X81589523Y-84494666D01*
X63063380Y-84383476D02*
X63063380Y-84954904D01*
X63063380Y-84669190D02*
X62063380Y-84669190D01*
X62206238Y-84764428D01*
X62301476Y-84859666D01*
X62349095Y-84954904D01*
X62063380Y-83764428D02*
X62063380Y-83669190D01*
X62111000Y-83573952D01*
X62158619Y-83526333D01*
X62253857Y-83478714D01*
X62444333Y-83431095D01*
X62682428Y-83431095D01*
X62872904Y-83478714D01*
X62968142Y-83526333D01*
X63015761Y-83573952D01*
X63063380Y-83669190D01*
X63063380Y-83764428D01*
X63015761Y-83859666D01*
X62968142Y-83907285D01*
X62872904Y-83954904D01*
X62682428Y-84002523D01*
X62444333Y-84002523D01*
X62253857Y-83954904D01*
X62158619Y-83907285D01*
X62111000Y-83859666D01*
X62063380Y-83764428D01*
X63063380Y-82431095D02*
X62587190Y-82764428D01*
X63063380Y-83002523D02*
X62063380Y-83002523D01*
X62063380Y-82621571D01*
X62111000Y-82526333D01*
X62158619Y-82478714D01*
X62253857Y-82431095D01*
X62396714Y-82431095D01*
X62491952Y-82478714D01*
X62539571Y-82526333D01*
X62587190Y-82621571D01*
X62587190Y-83002523D01*
X69143952Y-87320380D02*
X69143952Y-86320380D01*
X69715380Y-87320380D01*
X69715380Y-86320380D01*
X70763000Y-87225142D02*
X70715380Y-87272761D01*
X70572523Y-87320380D01*
X70477285Y-87320380D01*
X70334428Y-87272761D01*
X70239190Y-87177523D01*
X70191571Y-87082285D01*
X70143952Y-86891809D01*
X70143952Y-86748952D01*
X70191571Y-86558476D01*
X70239190Y-86463238D01*
X70334428Y-86368000D01*
X70477285Y-86320380D01*
X70572523Y-86320380D01*
X70715380Y-86368000D01*
X70763000Y-86415619D01*
X71048714Y-86320380D02*
X71382047Y-87320380D01*
X71715380Y-86320380D01*
X71953476Y-86320380D02*
X72620142Y-86320380D01*
X72191571Y-87320380D01*
X72905857Y-86320380D02*
X73572523Y-86320380D01*
X73143952Y-87320380D01*
X74477285Y-87320380D02*
X73905857Y-87320380D01*
X74191571Y-87320380D02*
X74191571Y-86320380D01*
X74096333Y-86463238D01*
X74001095Y-86558476D01*
X73905857Y-86606095D01*
X74953476Y-87320380D02*
X75143952Y-87320380D01*
X75239190Y-87272761D01*
X75286809Y-87225142D01*
X75382047Y-87082285D01*
X75429666Y-86891809D01*
X75429666Y-86510857D01*
X75382047Y-86415619D01*
X75334428Y-86368000D01*
X75239190Y-86320380D01*
X75048714Y-86320380D01*
X74953476Y-86368000D01*
X74905857Y-86415619D01*
X74858238Y-86510857D01*
X74858238Y-86748952D01*
X74905857Y-86844190D01*
X74953476Y-86891809D01*
X75048714Y-86939428D01*
X75239190Y-86939428D01*
X75334428Y-86891809D01*
X75382047Y-86844190D01*
X75429666Y-86748952D01*
X57729380Y-95305476D02*
X57729380Y-95876904D01*
X57729380Y-95591190D02*
X56729380Y-95591190D01*
X56872238Y-95686428D01*
X56967476Y-95781666D01*
X57015095Y-95876904D01*
X56729380Y-94686428D02*
X56729380Y-94591190D01*
X56777000Y-94495952D01*
X56824619Y-94448333D01*
X56919857Y-94400714D01*
X57110333Y-94353095D01*
X57348428Y-94353095D01*
X57538904Y-94400714D01*
X57634142Y-94448333D01*
X57681761Y-94495952D01*
X57729380Y-94591190D01*
X57729380Y-94686428D01*
X57681761Y-94781666D01*
X57634142Y-94829285D01*
X57538904Y-94876904D01*
X57348428Y-94924523D01*
X57110333Y-94924523D01*
X56919857Y-94876904D01*
X56824619Y-94829285D01*
X56777000Y-94781666D01*
X56729380Y-94686428D01*
X57729380Y-93353095D02*
X57253190Y-93686428D01*
X57729380Y-93924523D02*
X56729380Y-93924523D01*
X56729380Y-93543571D01*
X56777000Y-93448333D01*
X56824619Y-93400714D01*
X56919857Y-93353095D01*
X57062714Y-93353095D01*
X57157952Y-93400714D01*
X57205571Y-93448333D01*
X57253190Y-93543571D01*
X57253190Y-93924523D01*
X57729380Y-92638476D02*
X57729380Y-93209904D01*
X57729380Y-92924190D02*
X56729380Y-92924190D01*
X56872238Y-93019428D01*
X56967476Y-93114666D01*
X57015095Y-93209904D01*
X56729380Y-92019428D02*
X56729380Y-91924190D01*
X56777000Y-91828952D01*
X56824619Y-91781333D01*
X56919857Y-91733714D01*
X57110333Y-91686095D01*
X57348428Y-91686095D01*
X57538904Y-91733714D01*
X57634142Y-91781333D01*
X57681761Y-91828952D01*
X57729380Y-91924190D01*
X57729380Y-92019428D01*
X57681761Y-92114666D01*
X57634142Y-92162285D01*
X57538904Y-92209904D01*
X57348428Y-92257523D01*
X57110333Y-92257523D01*
X56919857Y-92209904D01*
X56824619Y-92162285D01*
X56777000Y-92114666D01*
X56729380Y-92019428D01*
X57729380Y-90686095D02*
X57253190Y-91019428D01*
X57729380Y-91257523D02*
X56729380Y-91257523D01*
X56729380Y-90876571D01*
X56777000Y-90781333D01*
X56824619Y-90733714D01*
X56919857Y-90686095D01*
X57062714Y-90686095D01*
X57157952Y-90733714D01*
X57205571Y-90781333D01*
X57253190Y-90876571D01*
X57253190Y-91257523D01*
X80081380Y-100195047D02*
X80081380Y-100766476D01*
X80081380Y-100480761D02*
X79081380Y-100480761D01*
X79224238Y-100576000D01*
X79319476Y-100671238D01*
X79367095Y-100766476D01*
X80081380Y-99766476D02*
X79081380Y-99766476D01*
X79700428Y-99671238D02*
X80081380Y-99385523D01*
X79414714Y-99385523D02*
X79795666Y-99766476D01*
X80081380Y-102735047D02*
X80081380Y-103306476D01*
X80081380Y-103020761D02*
X79081380Y-103020761D01*
X79224238Y-103116000D01*
X79319476Y-103211238D01*
X79367095Y-103306476D01*
X80081380Y-102306476D02*
X79081380Y-102306476D01*
X79700428Y-102211238D02*
X80081380Y-101925523D01*
X79414714Y-101925523D02*
X79795666Y-102306476D01*
X62935380Y-101401476D02*
X62935380Y-101972904D01*
X62935380Y-101687190D02*
X61935380Y-101687190D01*
X62078238Y-101782428D01*
X62173476Y-101877666D01*
X62221095Y-101972904D01*
X61935380Y-100782428D02*
X61935380Y-100687190D01*
X61983000Y-100591952D01*
X62030619Y-100544333D01*
X62125857Y-100496714D01*
X62316333Y-100449095D01*
X62554428Y-100449095D01*
X62744904Y-100496714D01*
X62840142Y-100544333D01*
X62887761Y-100591952D01*
X62935380Y-100687190D01*
X62935380Y-100782428D01*
X62887761Y-100877666D01*
X62840142Y-100925285D01*
X62744904Y-100972904D01*
X62554428Y-101020523D01*
X62316333Y-101020523D01*
X62125857Y-100972904D01*
X62030619Y-100925285D01*
X61983000Y-100877666D01*
X61935380Y-100782428D01*
X62935380Y-99449095D02*
X62459190Y-99782428D01*
X62935380Y-100020523D02*
X61935380Y-100020523D01*
X61935380Y-99639571D01*
X61983000Y-99544333D01*
X62030619Y-99496714D01*
X62125857Y-99449095D01*
X62268714Y-99449095D01*
X62363952Y-99496714D01*
X62411571Y-99544333D01*
X62459190Y-99639571D01*
X62459190Y-100020523D01*
X66794095Y-90590714D02*
X66794095Y-91257380D01*
X66365523Y-90590714D02*
X66365523Y-91114523D01*
X66413142Y-91209761D01*
X66508380Y-91257380D01*
X66651238Y-91257380D01*
X66746476Y-91209761D01*
X66794095Y-91162142D01*
X67794095Y-91257380D02*
X67222666Y-91257380D01*
X67508380Y-91257380D02*
X67508380Y-90257380D01*
X67413142Y-90400238D01*
X67317904Y-90495476D01*
X67222666Y-90543095D01*
X64937714Y-71381904D02*
X65604380Y-71381904D01*
X64937714Y-71810476D02*
X65461523Y-71810476D01*
X65556761Y-71762857D01*
X65604380Y-71667619D01*
X65604380Y-71524761D01*
X65556761Y-71429523D01*
X65509142Y-71381904D01*
X65604380Y-70381904D02*
X65604380Y-70953333D01*
X65604380Y-70667619D02*
X64604380Y-70667619D01*
X64747238Y-70762857D01*
X64842476Y-70858095D01*
X64890095Y-70953333D01*
X99179095Y-73952714D02*
X99179095Y-74619380D01*
X98750523Y-73952714D02*
X98750523Y-74476523D01*
X98798142Y-74571761D01*
X98893380Y-74619380D01*
X99036238Y-74619380D01*
X99131476Y-74571761D01*
X99179095Y-74524142D01*
X100179095Y-74619380D02*
X99607666Y-74619380D01*
X99893380Y-74619380D02*
X99893380Y-73619380D01*
X99798142Y-73762238D01*
X99702904Y-73857476D01*
X99607666Y-73905095D01*
X89226380Y-45013476D02*
X89226380Y-45584904D01*
X89226380Y-45299190D02*
X88226380Y-45299190D01*
X88369238Y-45394428D01*
X88464476Y-45489666D01*
X88512095Y-45584904D01*
X88226380Y-44394428D02*
X88226380Y-44299190D01*
X88274000Y-44203952D01*
X88321619Y-44156333D01*
X88416857Y-44108714D01*
X88607333Y-44061095D01*
X88845428Y-44061095D01*
X89035904Y-44108714D01*
X89131142Y-44156333D01*
X89178761Y-44203952D01*
X89226380Y-44299190D01*
X89226380Y-44394428D01*
X89178761Y-44489666D01*
X89131142Y-44537285D01*
X89035904Y-44584904D01*
X88845428Y-44632523D01*
X88607333Y-44632523D01*
X88416857Y-44584904D01*
X88321619Y-44537285D01*
X88274000Y-44489666D01*
X88226380Y-44394428D01*
X89226380Y-43061095D02*
X88750190Y-43394428D01*
X89226380Y-43632523D02*
X88226380Y-43632523D01*
X88226380Y-43251571D01*
X88274000Y-43156333D01*
X88321619Y-43108714D01*
X88416857Y-43061095D01*
X88559714Y-43061095D01*
X88654952Y-43108714D01*
X88702571Y-43156333D01*
X88750190Y-43251571D01*
X88750190Y-43632523D01*
X98417095Y-57316714D02*
X98417095Y-57983380D01*
X97988523Y-57316714D02*
X97988523Y-57840523D01*
X98036142Y-57935761D01*
X98131380Y-57983380D01*
X98274238Y-57983380D01*
X98369476Y-57935761D01*
X98417095Y-57888142D01*
X99417095Y-57983380D02*
X98845666Y-57983380D01*
X99131380Y-57983380D02*
X99131380Y-56983380D01*
X99036142Y-57126238D01*
X98940904Y-57221476D01*
X98845666Y-57269095D01*
X83050095Y-59729714D02*
X83050095Y-60396380D01*
X82621523Y-59729714D02*
X82621523Y-60253523D01*
X82669142Y-60348761D01*
X82764380Y-60396380D01*
X82907238Y-60396380D01*
X83002476Y-60348761D01*
X83050095Y-60301142D01*
X84050095Y-60396380D02*
X83478666Y-60396380D01*
X83764380Y-60396380D02*
X83764380Y-59396380D01*
X83669142Y-59539238D01*
X83573904Y-59634476D01*
X83478666Y-59682095D01*
X105870761Y-69491857D02*
X105918380Y-69349000D01*
X105918380Y-69110904D01*
X105870761Y-69015666D01*
X105823142Y-68968047D01*
X105727904Y-68920428D01*
X105632666Y-68920428D01*
X105537428Y-68968047D01*
X105489809Y-69015666D01*
X105442190Y-69110904D01*
X105394571Y-69301380D01*
X105346952Y-69396619D01*
X105299333Y-69444238D01*
X105204095Y-69491857D01*
X105108857Y-69491857D01*
X105013619Y-69444238D01*
X104966000Y-69396619D01*
X104918380Y-69301380D01*
X104918380Y-69063285D01*
X104966000Y-68920428D01*
X105918380Y-68491857D02*
X104918380Y-68491857D01*
X105918380Y-67920428D01*
X104918380Y-67920428D01*
X104918380Y-67015666D02*
X104918380Y-67206142D01*
X104966000Y-67301380D01*
X105013619Y-67349000D01*
X105156476Y-67444238D01*
X105346952Y-67491857D01*
X105727904Y-67491857D01*
X105823142Y-67444238D01*
X105870761Y-67396619D01*
X105918380Y-67301380D01*
X105918380Y-67110904D01*
X105870761Y-67015666D01*
X105823142Y-66968047D01*
X105727904Y-66920428D01*
X105489809Y-66920428D01*
X105394571Y-66968047D01*
X105346952Y-67015666D01*
X105299333Y-67110904D01*
X105299333Y-67301380D01*
X105346952Y-67396619D01*
X105394571Y-67444238D01*
X105489809Y-67491857D01*
X104918380Y-66015666D02*
X104918380Y-66491857D01*
X105394571Y-66539476D01*
X105346952Y-66491857D01*
X105299333Y-66396619D01*
X105299333Y-66158523D01*
X105346952Y-66063285D01*
X105394571Y-66015666D01*
X105489809Y-65968047D01*
X105727904Y-65968047D01*
X105823142Y-66015666D01*
X105870761Y-66063285D01*
X105918380Y-66158523D01*
X105918380Y-66396619D01*
X105870761Y-66491857D01*
X105823142Y-66539476D01*
X105918380Y-65539476D02*
X104918380Y-65539476D01*
X105394571Y-65539476D02*
X105394571Y-64968047D01*
X105918380Y-64968047D02*
X104918380Y-64968047D01*
X104918380Y-64634714D02*
X105918380Y-64301380D01*
X104918380Y-63968047D01*
X105918380Y-63634714D02*
X104918380Y-63634714D01*
X104918380Y-63396619D01*
X104966000Y-63253761D01*
X105061238Y-63158523D01*
X105156476Y-63110904D01*
X105346952Y-63063285D01*
X105489809Y-63063285D01*
X105680285Y-63110904D01*
X105775523Y-63158523D01*
X105870761Y-63253761D01*
X105918380Y-63396619D01*
X105918380Y-63634714D01*
X105013619Y-62682333D02*
X104966000Y-62634714D01*
X104918380Y-62539476D01*
X104918380Y-62301380D01*
X104966000Y-62206142D01*
X105013619Y-62158523D01*
X105108857Y-62110904D01*
X105204095Y-62110904D01*
X105346952Y-62158523D01*
X105918380Y-62729952D01*
X105918380Y-62110904D01*
X104918380Y-61777571D02*
X104918380Y-61158523D01*
X105299333Y-61491857D01*
X105299333Y-61349000D01*
X105346952Y-61253761D01*
X105394571Y-61206142D01*
X105489809Y-61158523D01*
X105727904Y-61158523D01*
X105823142Y-61206142D01*
X105870761Y-61253761D01*
X105918380Y-61349000D01*
X105918380Y-61634714D01*
X105870761Y-61729952D01*
X105823142Y-61777571D01*
X104918380Y-60539476D02*
X104918380Y-60444238D01*
X104966000Y-60349000D01*
X105013619Y-60301380D01*
X105108857Y-60253761D01*
X105299333Y-60206142D01*
X105537428Y-60206142D01*
X105727904Y-60253761D01*
X105823142Y-60301380D01*
X105870761Y-60349000D01*
X105918380Y-60444238D01*
X105918380Y-60539476D01*
X105870761Y-60634714D01*
X105823142Y-60682333D01*
X105727904Y-60729952D01*
X105537428Y-60777571D01*
X105299333Y-60777571D01*
X105108857Y-60729952D01*
X105013619Y-60682333D01*
X104966000Y-60634714D01*
X104918380Y-60539476D01*
X116625761Y-68016380D02*
X116054333Y-68016380D01*
X116340047Y-68016380D02*
X116340047Y-67016380D01*
X116244809Y-67159238D01*
X116149571Y-67254476D01*
X116054333Y-67302095D01*
X117244809Y-67016380D02*
X117340047Y-67016380D01*
X117435285Y-67064000D01*
X117482904Y-67111619D01*
X117530523Y-67206857D01*
X117578142Y-67397333D01*
X117578142Y-67635428D01*
X117530523Y-67825904D01*
X117482904Y-67921142D01*
X117435285Y-67968761D01*
X117340047Y-68016380D01*
X117244809Y-68016380D01*
X117149571Y-67968761D01*
X117101952Y-67921142D01*
X117054333Y-67825904D01*
X117006714Y-67635428D01*
X117006714Y-67397333D01*
X117054333Y-67206857D01*
X117101952Y-67111619D01*
X117149571Y-67064000D01*
X117244809Y-67016380D01*
X118006714Y-68016380D02*
X118006714Y-67016380D01*
X118101952Y-67635428D02*
X118387666Y-68016380D01*
X118387666Y-67349714D02*
X118006714Y-67730666D01*
X108704095Y-57570714D02*
X108704095Y-58237380D01*
X108275523Y-57570714D02*
X108275523Y-58094523D01*
X108323142Y-58189761D01*
X108418380Y-58237380D01*
X108561238Y-58237380D01*
X108656476Y-58189761D01*
X108704095Y-58142142D01*
X109704095Y-58237380D02*
X109132666Y-58237380D01*
X109418380Y-58237380D02*
X109418380Y-57237380D01*
X109323142Y-57380238D01*
X109227904Y-57475476D01*
X109132666Y-57523095D01*
X110306380Y-46474047D02*
X110306380Y-47045476D01*
X110306380Y-46759761D02*
X109306380Y-46759761D01*
X109449238Y-46855000D01*
X109544476Y-46950238D01*
X109592095Y-47045476D01*
X110306380Y-46045476D02*
X109306380Y-46045476D01*
X109925428Y-45950238D02*
X110306380Y-45664523D01*
X109639714Y-45664523D02*
X110020666Y-46045476D01*
X109974095Y-42457714D02*
X109974095Y-43124380D01*
X109545523Y-42457714D02*
X109545523Y-42981523D01*
X109593142Y-43076761D01*
X109688380Y-43124380D01*
X109831238Y-43124380D01*
X109926476Y-43076761D01*
X109974095Y-43029142D01*
X110974095Y-43124380D02*
X110402666Y-43124380D01*
X110688380Y-43124380D02*
X110688380Y-42124380D01*
X110593142Y-42267238D01*
X110497904Y-42362476D01*
X110402666Y-42410095D01*
X109847095Y-37631714D02*
X109847095Y-38298380D01*
X109418523Y-37631714D02*
X109418523Y-38155523D01*
X109466142Y-38250761D01*
X109561380Y-38298380D01*
X109704238Y-38298380D01*
X109799476Y-38250761D01*
X109847095Y-38203142D01*
X110847095Y-38298380D02*
X110275666Y-38298380D01*
X110561380Y-38298380D02*
X110561380Y-37298380D01*
X110466142Y-37441238D01*
X110370904Y-37536476D01*
X110275666Y-37584095D01*
X83050095Y-57697714D02*
X83050095Y-58364380D01*
X82621523Y-57697714D02*
X82621523Y-58221523D01*
X82669142Y-58316761D01*
X82764380Y-58364380D01*
X82907238Y-58364380D01*
X83002476Y-58316761D01*
X83050095Y-58269142D01*
X84050095Y-58364380D02*
X83478666Y-58364380D01*
X83764380Y-58364380D02*
X83764380Y-57364380D01*
X83669142Y-57507238D01*
X83573904Y-57602476D01*
X83478666Y-57650095D01*
X104973380Y-42537047D02*
X104973380Y-43108476D01*
X104973380Y-42822761D02*
X103973380Y-42822761D01*
X104116238Y-42918000D01*
X104211476Y-43013238D01*
X104259095Y-43108476D01*
X104973380Y-42108476D02*
X103973380Y-42108476D01*
X104592428Y-42013238D02*
X104973380Y-41727523D01*
X104306714Y-41727523D02*
X104687666Y-42108476D01*
X109989952Y-37282380D02*
X109418523Y-37282380D01*
X109704238Y-37282380D02*
X109704238Y-36282380D01*
X109609000Y-36425238D01*
X109513761Y-36520476D01*
X109418523Y-36568095D01*
X110418523Y-37282380D02*
X110418523Y-36282380D01*
X110513761Y-36901428D02*
X110799476Y-37282380D01*
X110799476Y-36615714D02*
X110418523Y-36996666D01*
X82939880Y-39044547D02*
X82939880Y-39615976D01*
X82939880Y-39330261D02*
X81939880Y-39330261D01*
X82082738Y-39425500D01*
X82177976Y-39520738D01*
X82225595Y-39615976D01*
X82939880Y-38615976D02*
X81939880Y-38615976D01*
X82558928Y-38520738D02*
X82939880Y-38235023D01*
X82273214Y-38235023D02*
X82654166Y-38615976D01*
X103179619Y-66571666D02*
X103132000Y-66524047D01*
X103084380Y-66428809D01*
X103084380Y-66190714D01*
X103132000Y-66095476D01*
X103179619Y-66047857D01*
X103274857Y-66000238D01*
X103370095Y-66000238D01*
X103512952Y-66047857D01*
X104084380Y-66619285D01*
X104084380Y-66000238D01*
X104084380Y-65571666D02*
X103084380Y-65571666D01*
X103703428Y-65476428D02*
X104084380Y-65190714D01*
X103417714Y-65190714D02*
X103798666Y-65571666D01*
X103179619Y-64809761D02*
X103132000Y-64762142D01*
X103084380Y-64666904D01*
X103084380Y-64428809D01*
X103132000Y-64333571D01*
X103179619Y-64285952D01*
X103274857Y-64238333D01*
X103370095Y-64238333D01*
X103512952Y-64285952D01*
X104084380Y-64857380D01*
X104084380Y-64238333D01*
X104973380Y-46474047D02*
X104973380Y-47045476D01*
X104973380Y-46759761D02*
X103973380Y-46759761D01*
X104116238Y-46855000D01*
X104211476Y-46950238D01*
X104259095Y-47045476D01*
X104973380Y-46045476D02*
X103973380Y-46045476D01*
X104592428Y-45950238D02*
X104973380Y-45664523D01*
X104306714Y-45664523D02*
X104687666Y-46045476D01*
X103639952Y-37282380D02*
X103068523Y-37282380D01*
X103354238Y-37282380D02*
X103354238Y-36282380D01*
X103259000Y-36425238D01*
X103163761Y-36520476D01*
X103068523Y-36568095D01*
X104068523Y-37282380D02*
X104068523Y-36282380D01*
X104163761Y-36901428D02*
X104449476Y-37282380D01*
X104449476Y-36615714D02*
X104068523Y-36996666D01*
X109862952Y-44394380D02*
X109291523Y-44394380D01*
X109577238Y-44394380D02*
X109577238Y-43394380D01*
X109482000Y-43537238D01*
X109386761Y-43632476D01*
X109291523Y-43680095D01*
X110291523Y-44394380D02*
X110291523Y-43394380D01*
X110386761Y-44013428D02*
X110672476Y-44394380D01*
X110672476Y-43727714D02*
X110291523Y-44108666D01*
X126198380Y-61094857D02*
X126198380Y-61571047D01*
X126674571Y-61618666D01*
X126626952Y-61571047D01*
X126579333Y-61475809D01*
X126579333Y-61237714D01*
X126626952Y-61142476D01*
X126674571Y-61094857D01*
X126769809Y-61047238D01*
X127007904Y-61047238D01*
X127103142Y-61094857D01*
X127150761Y-61142476D01*
X127198380Y-61237714D01*
X127198380Y-61475809D01*
X127150761Y-61571047D01*
X127103142Y-61618666D01*
X127198380Y-60618666D02*
X126198380Y-60618666D01*
X126817428Y-60523428D02*
X127198380Y-60237714D01*
X126531714Y-60237714D02*
X126912666Y-60618666D01*
X127198380Y-59285333D02*
X127198380Y-59856761D01*
X127198380Y-59571047D02*
X126198380Y-59571047D01*
X126341238Y-59666285D01*
X126436476Y-59761523D01*
X126484095Y-59856761D01*
X124452142Y-63206380D02*
X123975952Y-63206380D01*
X123928333Y-63682571D01*
X123975952Y-63634952D01*
X124071190Y-63587333D01*
X124309285Y-63587333D01*
X124404523Y-63634952D01*
X124452142Y-63682571D01*
X124499761Y-63777809D01*
X124499761Y-64015904D01*
X124452142Y-64111142D01*
X124404523Y-64158761D01*
X124309285Y-64206380D01*
X124071190Y-64206380D01*
X123975952Y-64158761D01*
X123928333Y-64111142D01*
X124928333Y-64206380D02*
X124928333Y-63206380D01*
X125023571Y-63825428D02*
X125309285Y-64206380D01*
X125309285Y-63539714D02*
X124928333Y-63920666D01*
X126261666Y-64206380D02*
X125690238Y-64206380D01*
X125975952Y-64206380D02*
X125975952Y-63206380D01*
X125880714Y-63349238D01*
X125785476Y-63444476D01*
X125690238Y-63492095D01*
X97178904Y-35631380D02*
X97178904Y-34631380D01*
X97750333Y-35631380D02*
X97321761Y-35059952D01*
X97750333Y-34631380D02*
X97178904Y-35202809D01*
X98702714Y-35631380D02*
X98131285Y-35631380D01*
X98417000Y-35631380D02*
X98417000Y-34631380D01*
X98321761Y-34774238D01*
X98226523Y-34869476D01*
X98131285Y-34917095D01*
X104306714Y-38361904D02*
X104973380Y-38361904D01*
X104306714Y-38790476D02*
X104830523Y-38790476D01*
X104925761Y-38742857D01*
X104973380Y-38647619D01*
X104973380Y-38504761D01*
X104925761Y-38409523D01*
X104878142Y-38361904D01*
X104973380Y-37361904D02*
X104973380Y-37933333D01*
X104973380Y-37647619D02*
X103973380Y-37647619D01*
X104116238Y-37742857D01*
X104211476Y-37838095D01*
X104259095Y-37933333D01*
X111752095Y-36615714D02*
X111752095Y-37282380D01*
X111323523Y-36615714D02*
X111323523Y-37139523D01*
X111371142Y-37234761D01*
X111466380Y-37282380D01*
X111609238Y-37282380D01*
X111704476Y-37234761D01*
X111752095Y-37187142D01*
X112752095Y-37282380D02*
X112180666Y-37282380D01*
X112466380Y-37282380D02*
X112466380Y-36282380D01*
X112371142Y-36425238D01*
X112275904Y-36520476D01*
X112180666Y-36568095D01*
X87749095Y-76112714D02*
X87749095Y-76779380D01*
X87320523Y-76112714D02*
X87320523Y-76636523D01*
X87368142Y-76731761D01*
X87463380Y-76779380D01*
X87606238Y-76779380D01*
X87701476Y-76731761D01*
X87749095Y-76684142D01*
X88749095Y-76779380D02*
X88177666Y-76779380D01*
X88463380Y-76779380D02*
X88463380Y-75779380D01*
X88368142Y-75922238D01*
X88272904Y-76017476D01*
X88177666Y-76065095D01*
M02*
