%TF.GenerationSoftware,KiCad,Pcbnew,(5.1.2)-1*%
%TF.CreationDate,2019-11-09T14:12:44+01:00*%
%TF.ProjectId,sensactHsIO,73656e73-6163-4744-9873-494f2e6b6963,rev?*%
%TF.SameCoordinates,Original*%
%TF.FileFunction,Profile,NP*%
%FSLAX46Y46*%
G04 Gerber Fmt 4.6, Leading zero omitted, Abs format (unit mm)*
G04 Created by KiCad (PCBNEW (5.1.2)-1) date 2019-11-09 14:12:44*
%MOMM*%
%LPD*%
G04 APERTURE LIST*
%ADD10C,0.050000*%
G04 APERTURE END LIST*
D10*
X114750000Y-44500000D02*
X114750000Y-46500000D01*
X116500000Y-44500000D02*
X114750000Y-44500000D01*
X118750000Y-42250000D02*
X116500000Y-44500000D01*
X118750000Y-38250000D02*
X118750000Y-42250000D01*
X116500000Y-36000000D02*
X118750000Y-38250000D01*
X114750000Y-36000000D02*
X116500000Y-36000000D01*
X114750000Y-34000000D02*
X114750000Y-36000000D01*
X79250000Y-34000000D02*
X79250000Y-57250000D01*
X80750000Y-104250000D02*
X80750000Y-98250000D01*
X56750000Y-57750000D02*
X56750000Y-104250000D01*
X78750000Y-57750000D02*
X56750000Y-57750000D01*
X114750000Y-34000000D02*
X79250000Y-34000000D01*
X143250000Y-101250000D02*
X143250000Y-57750000D01*
X130250000Y-98250000D02*
X130250000Y-101250000D01*
X143250000Y-57750000D02*
X121250000Y-57750000D01*
X130250000Y-101250000D02*
X143250000Y-101250000D01*
X114250000Y-98250000D02*
X85750000Y-98250000D01*
X80750000Y-104250000D02*
X56750000Y-104250000D01*
X120750000Y-57250000D02*
X120750000Y-46500000D01*
X120750000Y-57250000D02*
X119500000Y-57250000D01*
X120750000Y-46500000D02*
X114750000Y-46500000D01*
X121250000Y-59000000D02*
G75*
G02X119500000Y-57250000I-1750000J0D01*
G01*
X117750000Y-97000000D02*
X117750000Y-98250000D01*
X82250000Y-98250000D02*
X80750000Y-98250000D01*
X82250000Y-97000000D02*
X82250000Y-98250000D01*
X82250000Y-97000000D02*
G75*
G02X85750000Y-97000000I1750000J0D01*
G01*
X85750000Y-97000000D02*
X85750000Y-98250000D01*
X78750000Y-57750000D02*
X78750000Y-59000000D01*
X114250000Y-97000000D02*
G75*
G02X117750000Y-97000000I1750000J0D01*
G01*
X80500000Y-57250000D02*
X79250000Y-57250000D01*
X80500000Y-57250000D02*
G75*
G02X78750000Y-59000000I0J-1750000D01*
G01*
X117750000Y-98250000D02*
X130250000Y-98250000D01*
X121250000Y-59000000D02*
X121250000Y-57750000D01*
X114250000Y-97000000D02*
X114250000Y-98250000D01*
M02*
