%TF.GenerationSoftware,KiCad,Pcbnew,(5.1.2)-1*%
%TF.CreationDate,2019-11-09T14:12:44+01:00*%
%TF.ProjectId,sensactHsIO,73656e73-6163-4744-9873-494f2e6b6963,rev?*%
%TF.SameCoordinates,Original*%
%TF.FileFunction,Soldermask,Bot*%
%TF.FilePolarity,Negative*%
%FSLAX46Y46*%
G04 Gerber Fmt 4.6, Leading zero omitted, Abs format (unit mm)*
G04 Created by KiCad (PCBNEW (5.1.2)-1) date 2019-11-09 14:12:44*
%MOMM*%
%LPD*%
G04 APERTURE LIST*
%ADD10C,0.050000*%
%ADD11C,0.150000*%
G04 APERTURE END LIST*
D10*
X114750000Y-44500000D02*
X114750000Y-46500000D01*
X116500000Y-44500000D02*
X114750000Y-44500000D01*
X118750000Y-42250000D02*
X116500000Y-44500000D01*
X118750000Y-38250000D02*
X118750000Y-42250000D01*
X116500000Y-36000000D02*
X118750000Y-38250000D01*
X114750000Y-36000000D02*
X116500000Y-36000000D01*
X114750000Y-34000000D02*
X114750000Y-36000000D01*
X79250000Y-34000000D02*
X79250000Y-57250000D01*
X80750000Y-104250000D02*
X80750000Y-98250000D01*
X56750000Y-57750000D02*
X56750000Y-104250000D01*
X78750000Y-57750000D02*
X56750000Y-57750000D01*
X114750000Y-34000000D02*
X79250000Y-34000000D01*
X143250000Y-101250000D02*
X143250000Y-57750000D01*
X130250000Y-98250000D02*
X130250000Y-101250000D01*
X143250000Y-57750000D02*
X121250000Y-57750000D01*
X130250000Y-101250000D02*
X143250000Y-101250000D01*
X114250000Y-98250000D02*
X85750000Y-98250000D01*
X80750000Y-104250000D02*
X56750000Y-104250000D01*
X120750000Y-57250000D02*
X120750000Y-46500000D01*
X120750000Y-57250000D02*
X119500000Y-57250000D01*
X120750000Y-46500000D02*
X114750000Y-46500000D01*
X121250000Y-59000000D02*
G75*
G02X119500000Y-57250000I-1750000J0D01*
G01*
X117750000Y-97000000D02*
X117750000Y-98250000D01*
X82250000Y-98250000D02*
X80750000Y-98250000D01*
X82250000Y-97000000D02*
X82250000Y-98250000D01*
X82250000Y-97000000D02*
G75*
G02X85750000Y-97000000I1750000J0D01*
G01*
X85750000Y-97000000D02*
X85750000Y-98250000D01*
X78750000Y-57750000D02*
X78750000Y-59000000D01*
X114250000Y-97000000D02*
G75*
G02X117750000Y-97000000I1750000J0D01*
G01*
X80500000Y-57250000D02*
X79250000Y-57250000D01*
X80500000Y-57250000D02*
G75*
G02X78750000Y-59000000I0J-1750000D01*
G01*
X117750000Y-98250000D02*
X130250000Y-98250000D01*
X121250000Y-59000000D02*
X121250000Y-57750000D01*
X114250000Y-97000000D02*
X114250000Y-98250000D01*
D11*
G36*
X80090674Y-102384465D02*
G01*
X80128367Y-102395899D01*
X80163103Y-102414466D01*
X80193548Y-102439452D01*
X80218534Y-102469897D01*
X80237101Y-102504633D01*
X80248535Y-102542326D01*
X80253000Y-102587661D01*
X80253000Y-103424339D01*
X80248535Y-103469674D01*
X80237101Y-103507367D01*
X80218534Y-103542103D01*
X80193548Y-103572548D01*
X80163103Y-103597534D01*
X80128367Y-103616101D01*
X80090674Y-103627535D01*
X80045339Y-103632000D01*
X78958661Y-103632000D01*
X78913326Y-103627535D01*
X78875633Y-103616101D01*
X78840897Y-103597534D01*
X78810452Y-103572548D01*
X78785466Y-103542103D01*
X78766899Y-103507367D01*
X78755465Y-103469674D01*
X78751000Y-103424339D01*
X78751000Y-102587661D01*
X78755465Y-102542326D01*
X78766899Y-102504633D01*
X78785466Y-102469897D01*
X78810452Y-102439452D01*
X78840897Y-102414466D01*
X78875633Y-102395899D01*
X78913326Y-102384465D01*
X78958661Y-102380000D01*
X80045339Y-102380000D01*
X80090674Y-102384465D01*
X80090674Y-102384465D01*
G37*
G36*
X78058674Y-102384465D02*
G01*
X78096367Y-102395899D01*
X78131103Y-102414466D01*
X78161548Y-102439452D01*
X78186534Y-102469897D01*
X78205101Y-102504633D01*
X78216535Y-102542326D01*
X78221000Y-102587661D01*
X78221000Y-103424339D01*
X78216535Y-103469674D01*
X78205101Y-103507367D01*
X78186534Y-103542103D01*
X78161548Y-103572548D01*
X78131103Y-103597534D01*
X78096367Y-103616101D01*
X78058674Y-103627535D01*
X78013339Y-103632000D01*
X76926661Y-103632000D01*
X76881326Y-103627535D01*
X76843633Y-103616101D01*
X76808897Y-103597534D01*
X76778452Y-103572548D01*
X76753466Y-103542103D01*
X76734899Y-103507367D01*
X76723465Y-103469674D01*
X76719000Y-103424339D01*
X76719000Y-102587661D01*
X76723465Y-102542326D01*
X76734899Y-102504633D01*
X76753466Y-102469897D01*
X76778452Y-102439452D01*
X76808897Y-102414466D01*
X76843633Y-102395899D01*
X76881326Y-102384465D01*
X76926661Y-102380000D01*
X78013339Y-102380000D01*
X78058674Y-102384465D01*
X78058674Y-102384465D01*
G37*
G36*
X69803674Y-101495465D02*
G01*
X69841367Y-101506899D01*
X69876103Y-101525466D01*
X69906548Y-101550452D01*
X69931534Y-101580897D01*
X69950101Y-101615633D01*
X69961535Y-101653326D01*
X69966000Y-101698661D01*
X69966000Y-102535339D01*
X69961535Y-102580674D01*
X69950101Y-102618367D01*
X69931534Y-102653103D01*
X69906548Y-102683548D01*
X69876103Y-102708534D01*
X69841367Y-102727101D01*
X69803674Y-102738535D01*
X69758339Y-102743000D01*
X68671661Y-102743000D01*
X68626326Y-102738535D01*
X68588633Y-102727101D01*
X68553897Y-102708534D01*
X68523452Y-102683548D01*
X68498466Y-102653103D01*
X68479899Y-102618367D01*
X68468465Y-102580674D01*
X68464000Y-102535339D01*
X68464000Y-101698661D01*
X68468465Y-101653326D01*
X68479899Y-101615633D01*
X68498466Y-101580897D01*
X68523452Y-101550452D01*
X68553897Y-101525466D01*
X68588633Y-101506899D01*
X68626326Y-101495465D01*
X68671661Y-101491000D01*
X69758339Y-101491000D01*
X69803674Y-101495465D01*
X69803674Y-101495465D01*
G37*
G36*
X67644674Y-101105465D02*
G01*
X67682367Y-101116899D01*
X67717103Y-101135466D01*
X67747548Y-101160452D01*
X67772534Y-101190897D01*
X67791101Y-101225633D01*
X67802535Y-101263326D01*
X67807000Y-101308661D01*
X67807000Y-102145339D01*
X67802535Y-102190674D01*
X67791101Y-102228367D01*
X67772534Y-102263103D01*
X67747548Y-102293548D01*
X67717103Y-102318534D01*
X67682367Y-102337101D01*
X67644674Y-102348535D01*
X67599339Y-102353000D01*
X66512661Y-102353000D01*
X66467326Y-102348535D01*
X66429633Y-102337101D01*
X66394897Y-102318534D01*
X66364452Y-102293548D01*
X66339466Y-102263103D01*
X66320899Y-102228367D01*
X66309465Y-102190674D01*
X66305000Y-102145339D01*
X66305000Y-101308661D01*
X66309465Y-101263326D01*
X66320899Y-101225633D01*
X66339466Y-101190897D01*
X66364452Y-101160452D01*
X66394897Y-101135466D01*
X66429633Y-101116899D01*
X66467326Y-101105465D01*
X66512661Y-101101000D01*
X67599339Y-101101000D01*
X67644674Y-101105465D01*
X67644674Y-101105465D01*
G37*
G36*
X65591915Y-99890934D02*
G01*
X65624424Y-99900795D01*
X65654382Y-99916809D01*
X65680641Y-99938359D01*
X65702191Y-99964618D01*
X65718205Y-99994576D01*
X65728066Y-100027085D01*
X65732000Y-100067029D01*
X65732000Y-101608971D01*
X65728066Y-101648915D01*
X65718205Y-101681424D01*
X65702191Y-101711382D01*
X65680641Y-101737641D01*
X65654382Y-101759191D01*
X65624424Y-101775205D01*
X65591915Y-101785066D01*
X65551971Y-101789000D01*
X62210029Y-101789000D01*
X62170085Y-101785066D01*
X62137576Y-101775205D01*
X62107618Y-101759191D01*
X62081359Y-101737641D01*
X62059809Y-101711382D01*
X62043795Y-101681424D01*
X62033934Y-101648915D01*
X62030000Y-101608971D01*
X62030000Y-100067029D01*
X62033934Y-100027085D01*
X62043795Y-99994576D01*
X62059809Y-99964618D01*
X62081359Y-99938359D01*
X62107618Y-99916809D01*
X62137576Y-99900795D01*
X62170085Y-99890934D01*
X62210029Y-99887000D01*
X65551971Y-99887000D01*
X65591915Y-99890934D01*
X65591915Y-99890934D01*
G37*
G36*
X80090674Y-100334465D02*
G01*
X80128367Y-100345899D01*
X80163103Y-100364466D01*
X80193548Y-100389452D01*
X80218534Y-100419897D01*
X80237101Y-100454633D01*
X80248535Y-100492326D01*
X80253000Y-100537661D01*
X80253000Y-101374339D01*
X80248535Y-101419674D01*
X80237101Y-101457367D01*
X80218534Y-101492103D01*
X80193548Y-101522548D01*
X80163103Y-101547534D01*
X80128367Y-101566101D01*
X80090674Y-101577535D01*
X80045339Y-101582000D01*
X78958661Y-101582000D01*
X78913326Y-101577535D01*
X78875633Y-101566101D01*
X78840897Y-101547534D01*
X78810452Y-101522548D01*
X78785466Y-101492103D01*
X78766899Y-101457367D01*
X78755465Y-101419674D01*
X78751000Y-101374339D01*
X78751000Y-100537661D01*
X78755465Y-100492326D01*
X78766899Y-100454633D01*
X78785466Y-100419897D01*
X78810452Y-100389452D01*
X78840897Y-100364466D01*
X78875633Y-100345899D01*
X78913326Y-100334465D01*
X78958661Y-100330000D01*
X80045339Y-100330000D01*
X80090674Y-100334465D01*
X80090674Y-100334465D01*
G37*
G36*
X78058674Y-100334465D02*
G01*
X78096367Y-100345899D01*
X78131103Y-100364466D01*
X78161548Y-100389452D01*
X78186534Y-100419897D01*
X78205101Y-100454633D01*
X78216535Y-100492326D01*
X78221000Y-100537661D01*
X78221000Y-101374339D01*
X78216535Y-101419674D01*
X78205101Y-101457367D01*
X78186534Y-101492103D01*
X78161548Y-101522548D01*
X78131103Y-101547534D01*
X78096367Y-101566101D01*
X78058674Y-101577535D01*
X78013339Y-101582000D01*
X76926661Y-101582000D01*
X76881326Y-101577535D01*
X76843633Y-101566101D01*
X76808897Y-101547534D01*
X76778452Y-101522548D01*
X76753466Y-101492103D01*
X76734899Y-101457367D01*
X76723465Y-101419674D01*
X76719000Y-101374339D01*
X76719000Y-100537661D01*
X76723465Y-100492326D01*
X76734899Y-100454633D01*
X76753466Y-100419897D01*
X76778452Y-100389452D01*
X76808897Y-100364466D01*
X76843633Y-100345899D01*
X76881326Y-100334465D01*
X76926661Y-100330000D01*
X78013339Y-100330000D01*
X78058674Y-100334465D01*
X78058674Y-100334465D01*
G37*
G36*
X69803674Y-99445465D02*
G01*
X69841367Y-99456899D01*
X69876103Y-99475466D01*
X69906548Y-99500452D01*
X69931534Y-99530897D01*
X69950101Y-99565633D01*
X69961535Y-99603326D01*
X69966000Y-99648661D01*
X69966000Y-100485339D01*
X69961535Y-100530674D01*
X69950101Y-100568367D01*
X69931534Y-100603103D01*
X69906548Y-100633548D01*
X69876103Y-100658534D01*
X69841367Y-100677101D01*
X69803674Y-100688535D01*
X69758339Y-100693000D01*
X68671661Y-100693000D01*
X68626326Y-100688535D01*
X68588633Y-100677101D01*
X68553897Y-100658534D01*
X68523452Y-100633548D01*
X68498466Y-100603103D01*
X68479899Y-100568367D01*
X68468465Y-100530674D01*
X68464000Y-100485339D01*
X68464000Y-99648661D01*
X68468465Y-99603326D01*
X68479899Y-99565633D01*
X68498466Y-99530897D01*
X68523452Y-99500452D01*
X68553897Y-99475466D01*
X68588633Y-99456899D01*
X68626326Y-99445465D01*
X68671661Y-99441000D01*
X69758339Y-99441000D01*
X69803674Y-99445465D01*
X69803674Y-99445465D01*
G37*
G36*
X67644674Y-99055465D02*
G01*
X67682367Y-99066899D01*
X67717103Y-99085466D01*
X67747548Y-99110452D01*
X67772534Y-99140897D01*
X67791101Y-99175633D01*
X67802535Y-99213326D01*
X67807000Y-99258661D01*
X67807000Y-100095339D01*
X67802535Y-100140674D01*
X67791101Y-100178367D01*
X67772534Y-100213103D01*
X67747548Y-100243548D01*
X67717103Y-100268534D01*
X67682367Y-100287101D01*
X67644674Y-100298535D01*
X67599339Y-100303000D01*
X66512661Y-100303000D01*
X66467326Y-100298535D01*
X66429633Y-100287101D01*
X66394897Y-100268534D01*
X66364452Y-100243548D01*
X66339466Y-100213103D01*
X66320899Y-100178367D01*
X66309465Y-100140674D01*
X66305000Y-100095339D01*
X66305000Y-99258661D01*
X66309465Y-99213326D01*
X66320899Y-99175633D01*
X66339466Y-99140897D01*
X66364452Y-99110452D01*
X66394897Y-99085466D01*
X66429633Y-99066899D01*
X66467326Y-99055465D01*
X66512661Y-99051000D01*
X67599339Y-99051000D01*
X67644674Y-99055465D01*
X67644674Y-99055465D01*
G37*
G36*
X137103425Y-97842760D02*
G01*
X137103428Y-97842761D01*
X137103429Y-97842761D01*
X137282693Y-97897140D01*
X137282696Y-97897142D01*
X137282697Y-97897142D01*
X137447903Y-97985446D01*
X137592712Y-98104288D01*
X137711554Y-98249097D01*
X137759073Y-98338000D01*
X137799860Y-98414307D01*
X137833265Y-98524429D01*
X137854240Y-98593575D01*
X137872601Y-98780000D01*
X137854240Y-98966425D01*
X137854239Y-98966428D01*
X137854239Y-98966429D01*
X137799860Y-99145693D01*
X137799858Y-99145696D01*
X137799858Y-99145697D01*
X137711554Y-99310903D01*
X137592712Y-99455712D01*
X137447903Y-99574554D01*
X137282697Y-99662858D01*
X137282693Y-99662860D01*
X137103429Y-99717239D01*
X137103428Y-99717239D01*
X137103425Y-99717240D01*
X136963718Y-99731000D01*
X135070282Y-99731000D01*
X134930575Y-99717240D01*
X134930572Y-99717239D01*
X134930571Y-99717239D01*
X134751307Y-99662860D01*
X134751303Y-99662858D01*
X134586097Y-99574554D01*
X134441288Y-99455712D01*
X134322446Y-99310903D01*
X134234142Y-99145697D01*
X134234142Y-99145696D01*
X134234140Y-99145693D01*
X134179761Y-98966429D01*
X134179761Y-98966428D01*
X134179760Y-98966425D01*
X134161399Y-98780000D01*
X134179760Y-98593575D01*
X134200735Y-98524429D01*
X134234140Y-98414307D01*
X134274927Y-98338000D01*
X134322446Y-98249097D01*
X134441288Y-98104288D01*
X134586097Y-97985446D01*
X134751303Y-97897142D01*
X134751304Y-97897142D01*
X134751307Y-97897140D01*
X134930571Y-97842761D01*
X134930572Y-97842761D01*
X134930575Y-97842760D01*
X135070282Y-97829000D01*
X136963718Y-97829000D01*
X137103425Y-97842760D01*
X137103425Y-97842760D01*
G37*
G36*
X64967425Y-97400760D02*
G01*
X64967428Y-97400761D01*
X64967429Y-97400761D01*
X65146693Y-97455140D01*
X65146696Y-97455142D01*
X65146697Y-97455142D01*
X65311903Y-97543446D01*
X65456712Y-97662288D01*
X65575554Y-97807097D01*
X65663858Y-97972303D01*
X65663860Y-97972307D01*
X65703896Y-98104288D01*
X65718240Y-98151575D01*
X65736601Y-98338000D01*
X65718240Y-98524425D01*
X65718239Y-98524428D01*
X65718239Y-98524429D01*
X65663860Y-98703693D01*
X65663858Y-98703696D01*
X65663858Y-98703697D01*
X65575554Y-98868903D01*
X65456712Y-99013712D01*
X65311903Y-99132554D01*
X65160788Y-99213326D01*
X65146693Y-99220860D01*
X64967429Y-99275239D01*
X64967428Y-99275239D01*
X64967425Y-99275240D01*
X64827718Y-99289000D01*
X62934282Y-99289000D01*
X62794575Y-99275240D01*
X62794572Y-99275239D01*
X62794571Y-99275239D01*
X62615307Y-99220860D01*
X62601212Y-99213326D01*
X62450097Y-99132554D01*
X62305288Y-99013712D01*
X62186446Y-98868903D01*
X62098142Y-98703697D01*
X62098142Y-98703696D01*
X62098140Y-98703693D01*
X62043761Y-98524429D01*
X62043761Y-98524428D01*
X62043760Y-98524425D01*
X62025399Y-98338000D01*
X62043760Y-98151575D01*
X62058104Y-98104288D01*
X62098140Y-97972307D01*
X62098142Y-97972303D01*
X62186446Y-97807097D01*
X62305288Y-97662288D01*
X62450097Y-97543446D01*
X62615303Y-97455142D01*
X62615304Y-97455142D01*
X62615307Y-97455140D01*
X62794571Y-97400761D01*
X62794572Y-97400761D01*
X62794575Y-97400760D01*
X62934282Y-97387000D01*
X64827718Y-97387000D01*
X64967425Y-97400760D01*
X64967425Y-97400760D01*
G37*
G36*
X106947562Y-96232181D02*
G01*
X106982481Y-96242774D01*
X107014663Y-96259976D01*
X107042873Y-96283127D01*
X107066024Y-96311337D01*
X107083226Y-96343519D01*
X107093819Y-96378438D01*
X107098000Y-96420895D01*
X107098000Y-97562105D01*
X107093819Y-97604562D01*
X107083226Y-97639481D01*
X107066024Y-97671663D01*
X107042873Y-97699873D01*
X107014663Y-97723024D01*
X106982481Y-97740226D01*
X106947562Y-97750819D01*
X106905105Y-97755000D01*
X105438895Y-97755000D01*
X105396438Y-97750819D01*
X105361519Y-97740226D01*
X105329337Y-97723024D01*
X105301127Y-97699873D01*
X105277976Y-97671663D01*
X105260774Y-97639481D01*
X105250181Y-97604562D01*
X105246000Y-97562105D01*
X105246000Y-96420895D01*
X105250181Y-96378438D01*
X105260774Y-96343519D01*
X105277976Y-96311337D01*
X105301127Y-96283127D01*
X105329337Y-96259976D01*
X105361519Y-96242774D01*
X105396438Y-96232181D01*
X105438895Y-96228000D01*
X106905105Y-96228000D01*
X106947562Y-96232181D01*
X106947562Y-96232181D01*
G37*
G36*
X137103425Y-95342760D02*
G01*
X137103428Y-95342761D01*
X137103429Y-95342761D01*
X137282693Y-95397140D01*
X137282696Y-95397142D01*
X137282697Y-95397142D01*
X137447903Y-95485446D01*
X137592712Y-95604288D01*
X137711554Y-95749097D01*
X137759073Y-95838000D01*
X137799860Y-95914307D01*
X137833265Y-96024429D01*
X137854240Y-96093575D01*
X137872601Y-96280000D01*
X137854240Y-96466425D01*
X137854239Y-96466428D01*
X137854239Y-96466429D01*
X137799860Y-96645693D01*
X137799858Y-96645696D01*
X137799858Y-96645697D01*
X137711554Y-96810903D01*
X137592712Y-96955712D01*
X137447903Y-97074554D01*
X137282697Y-97162858D01*
X137282693Y-97162860D01*
X137103429Y-97217239D01*
X137103428Y-97217239D01*
X137103425Y-97217240D01*
X136963718Y-97231000D01*
X135070282Y-97231000D01*
X134930575Y-97217240D01*
X134930572Y-97217239D01*
X134930571Y-97217239D01*
X134751307Y-97162860D01*
X134751303Y-97162858D01*
X134586097Y-97074554D01*
X134441288Y-96955712D01*
X134322446Y-96810903D01*
X134234142Y-96645697D01*
X134234142Y-96645696D01*
X134234140Y-96645693D01*
X134179761Y-96466429D01*
X134179761Y-96466428D01*
X134179760Y-96466425D01*
X134161399Y-96280000D01*
X134179760Y-96093575D01*
X134200735Y-96024429D01*
X134234140Y-95914307D01*
X134274927Y-95838000D01*
X134322446Y-95749097D01*
X134441288Y-95604288D01*
X134586097Y-95485446D01*
X134751303Y-95397142D01*
X134751304Y-95397142D01*
X134751307Y-95397140D01*
X134930571Y-95342761D01*
X134930572Y-95342761D01*
X134930575Y-95342760D01*
X135070282Y-95329000D01*
X136963718Y-95329000D01*
X137103425Y-95342760D01*
X137103425Y-95342760D01*
G37*
G36*
X64967425Y-94900760D02*
G01*
X64967428Y-94900761D01*
X64967429Y-94900761D01*
X65146693Y-94955140D01*
X65146696Y-94955142D01*
X65146697Y-94955142D01*
X65311903Y-95043446D01*
X65456712Y-95162288D01*
X65575554Y-95307097D01*
X65663858Y-95472303D01*
X65663860Y-95472307D01*
X65684655Y-95540860D01*
X65718240Y-95651575D01*
X65736601Y-95838000D01*
X65718240Y-96024425D01*
X65718239Y-96024428D01*
X65718239Y-96024429D01*
X65663860Y-96203693D01*
X65663858Y-96203696D01*
X65663858Y-96203697D01*
X65575554Y-96368903D01*
X65456712Y-96513712D01*
X65311903Y-96632554D01*
X65146697Y-96720858D01*
X65146693Y-96720860D01*
X64967429Y-96775239D01*
X64967428Y-96775239D01*
X64967425Y-96775240D01*
X64827718Y-96789000D01*
X62934282Y-96789000D01*
X62794575Y-96775240D01*
X62794572Y-96775239D01*
X62794571Y-96775239D01*
X62615307Y-96720860D01*
X62615303Y-96720858D01*
X62450097Y-96632554D01*
X62305288Y-96513712D01*
X62186446Y-96368903D01*
X62098142Y-96203697D01*
X62098142Y-96203696D01*
X62098140Y-96203693D01*
X62043761Y-96024429D01*
X62043761Y-96024428D01*
X62043760Y-96024425D01*
X62025399Y-95838000D01*
X62043760Y-95651575D01*
X62077345Y-95540860D01*
X62098140Y-95472307D01*
X62098142Y-95472303D01*
X62186446Y-95307097D01*
X62305288Y-95162288D01*
X62450097Y-95043446D01*
X62615303Y-94955142D01*
X62615304Y-94955142D01*
X62615307Y-94955140D01*
X62794571Y-94900761D01*
X62794572Y-94900761D01*
X62794575Y-94900760D01*
X62934282Y-94887000D01*
X64827718Y-94887000D01*
X64967425Y-94900760D01*
X64967425Y-94900760D01*
G37*
G36*
X98048752Y-92427097D02*
G01*
X98229295Y-92481864D01*
X98395677Y-92570797D01*
X98541516Y-92690484D01*
X98661203Y-92836323D01*
X98750136Y-93002705D01*
X98804903Y-93183248D01*
X98824000Y-93377140D01*
X98824000Y-95540860D01*
X98804903Y-95734752D01*
X98750136Y-95915295D01*
X98661203Y-96081677D01*
X98541516Y-96227516D01*
X98395677Y-96347203D01*
X98229295Y-96436136D01*
X98048752Y-96490903D01*
X97854860Y-96510000D01*
X92191140Y-96510000D01*
X91997248Y-96490903D01*
X91816705Y-96436136D01*
X91650323Y-96347203D01*
X91504484Y-96227516D01*
X91384797Y-96081677D01*
X91295864Y-95915295D01*
X91241097Y-95734752D01*
X91222000Y-95540860D01*
X91222000Y-93377140D01*
X91241097Y-93183248D01*
X91295864Y-93002705D01*
X91384797Y-92836323D01*
X91504484Y-92690484D01*
X91650323Y-92570797D01*
X91816705Y-92481864D01*
X91997248Y-92427097D01*
X92191140Y-92408000D01*
X97854860Y-92408000D01*
X98048752Y-92427097D01*
X98048752Y-92427097D01*
G37*
G36*
X101340000Y-96028000D02*
G01*
X100338000Y-96028000D01*
X100338000Y-94726000D01*
X101340000Y-94726000D01*
X101340000Y-96028000D01*
X101340000Y-96028000D01*
G37*
G36*
X104640000Y-96028000D02*
G01*
X103638000Y-96028000D01*
X103638000Y-94726000D01*
X104640000Y-94726000D01*
X104640000Y-96028000D01*
X104640000Y-96028000D01*
G37*
G36*
X73518838Y-89482055D02*
G01*
X73552528Y-89492275D01*
X73583576Y-89508871D01*
X73610793Y-89531207D01*
X73633129Y-89558424D01*
X73649725Y-89589472D01*
X73659945Y-89623162D01*
X73664000Y-89664339D01*
X73664000Y-94993661D01*
X73659945Y-95034838D01*
X73649725Y-95068528D01*
X73633129Y-95099576D01*
X73610793Y-95126793D01*
X73583576Y-95149129D01*
X73552528Y-95165725D01*
X73518838Y-95175945D01*
X73477661Y-95180000D01*
X71048339Y-95180000D01*
X71007162Y-95175945D01*
X70973472Y-95165725D01*
X70942424Y-95149129D01*
X70915207Y-95126793D01*
X70892871Y-95099576D01*
X70876275Y-95068528D01*
X70866055Y-95034838D01*
X70862000Y-94993661D01*
X70862000Y-89664339D01*
X70866055Y-89623162D01*
X70876275Y-89589472D01*
X70892871Y-89558424D01*
X70915207Y-89531207D01*
X70942424Y-89508871D01*
X70973472Y-89492275D01*
X71007162Y-89482055D01*
X71048339Y-89478000D01*
X73477661Y-89478000D01*
X73518838Y-89482055D01*
X73518838Y-89482055D01*
G37*
G36*
X106947562Y-93257181D02*
G01*
X106982481Y-93267774D01*
X107014663Y-93284976D01*
X107042873Y-93308127D01*
X107066024Y-93336337D01*
X107083226Y-93368519D01*
X107093819Y-93403438D01*
X107098000Y-93445895D01*
X107098000Y-94587105D01*
X107093819Y-94629562D01*
X107083226Y-94664481D01*
X107066024Y-94696663D01*
X107042873Y-94724873D01*
X107014663Y-94748024D01*
X106982481Y-94765226D01*
X106947562Y-94775819D01*
X106905105Y-94780000D01*
X105438895Y-94780000D01*
X105396438Y-94775819D01*
X105361519Y-94765226D01*
X105329337Y-94748024D01*
X105301127Y-94724873D01*
X105277976Y-94696663D01*
X105260774Y-94664481D01*
X105250181Y-94629562D01*
X105246000Y-94587105D01*
X105246000Y-93445895D01*
X105250181Y-93403438D01*
X105260774Y-93368519D01*
X105277976Y-93336337D01*
X105301127Y-93308127D01*
X105329337Y-93284976D01*
X105361519Y-93267774D01*
X105396438Y-93257181D01*
X105438895Y-93253000D01*
X106905105Y-93253000D01*
X106947562Y-93257181D01*
X106947562Y-93257181D01*
G37*
G36*
X137103425Y-92842760D02*
G01*
X137103428Y-92842761D01*
X137103429Y-92842761D01*
X137282693Y-92897140D01*
X137282696Y-92897142D01*
X137282697Y-92897142D01*
X137447903Y-92985446D01*
X137592712Y-93104288D01*
X137711554Y-93249097D01*
X137799858Y-93414303D01*
X137799860Y-93414307D01*
X137833265Y-93524429D01*
X137854240Y-93593575D01*
X137872601Y-93780000D01*
X137854240Y-93966425D01*
X137854239Y-93966428D01*
X137854239Y-93966429D01*
X137799860Y-94145693D01*
X137799858Y-94145696D01*
X137799858Y-94145697D01*
X137711554Y-94310903D01*
X137592712Y-94455712D01*
X137447903Y-94574554D01*
X137286287Y-94660939D01*
X137282693Y-94662860D01*
X137103429Y-94717239D01*
X137103428Y-94717239D01*
X137103425Y-94717240D01*
X136963718Y-94731000D01*
X135070282Y-94731000D01*
X134930575Y-94717240D01*
X134930572Y-94717239D01*
X134930571Y-94717239D01*
X134751307Y-94662860D01*
X134747713Y-94660939D01*
X134586097Y-94574554D01*
X134441288Y-94455712D01*
X134322446Y-94310903D01*
X134234142Y-94145697D01*
X134234142Y-94145696D01*
X134234140Y-94145693D01*
X134179761Y-93966429D01*
X134179761Y-93966428D01*
X134179760Y-93966425D01*
X134161399Y-93780000D01*
X134179760Y-93593575D01*
X134200735Y-93524429D01*
X134234140Y-93414307D01*
X134234142Y-93414303D01*
X134322446Y-93249097D01*
X134441288Y-93104288D01*
X134586097Y-92985446D01*
X134751303Y-92897142D01*
X134751304Y-92897142D01*
X134751307Y-92897140D01*
X134930571Y-92842761D01*
X134930572Y-92842761D01*
X134930575Y-92842760D01*
X135070282Y-92829000D01*
X136963718Y-92829000D01*
X137103425Y-92842760D01*
X137103425Y-92842760D01*
G37*
G36*
X64967425Y-92400760D02*
G01*
X64967428Y-92400761D01*
X64967429Y-92400761D01*
X65146693Y-92455140D01*
X65146696Y-92455142D01*
X65146697Y-92455142D01*
X65311903Y-92543446D01*
X65456712Y-92662288D01*
X65575554Y-92807097D01*
X65663858Y-92972303D01*
X65663860Y-92972307D01*
X65677203Y-93016294D01*
X65718240Y-93151575D01*
X65736601Y-93338000D01*
X65718240Y-93524425D01*
X65718239Y-93524428D01*
X65718239Y-93524429D01*
X65663860Y-93703693D01*
X65663858Y-93703696D01*
X65663858Y-93703697D01*
X65575554Y-93868903D01*
X65456712Y-94013712D01*
X65311903Y-94132554D01*
X65146697Y-94220858D01*
X65146693Y-94220860D01*
X64967429Y-94275239D01*
X64967428Y-94275239D01*
X64967425Y-94275240D01*
X64827718Y-94289000D01*
X62934282Y-94289000D01*
X62794575Y-94275240D01*
X62794572Y-94275239D01*
X62794571Y-94275239D01*
X62615307Y-94220860D01*
X62615303Y-94220858D01*
X62450097Y-94132554D01*
X62305288Y-94013712D01*
X62186446Y-93868903D01*
X62098142Y-93703697D01*
X62098142Y-93703696D01*
X62098140Y-93703693D01*
X62043761Y-93524429D01*
X62043761Y-93524428D01*
X62043760Y-93524425D01*
X62025399Y-93338000D01*
X62043760Y-93151575D01*
X62084797Y-93016294D01*
X62098140Y-92972307D01*
X62098142Y-92972303D01*
X62186446Y-92807097D01*
X62305288Y-92662288D01*
X62450097Y-92543446D01*
X62615303Y-92455142D01*
X62615304Y-92455142D01*
X62615307Y-92455140D01*
X62794571Y-92400761D01*
X62794572Y-92400761D01*
X62794575Y-92400760D01*
X62934282Y-92387000D01*
X64827718Y-92387000D01*
X64967425Y-92400760D01*
X64967425Y-92400760D01*
G37*
G36*
X104323000Y-93883000D02*
G01*
X101671000Y-93883000D01*
X101671000Y-92721000D01*
X104323000Y-92721000D01*
X104323000Y-93883000D01*
X104323000Y-93883000D01*
G37*
G36*
X100664674Y-92605465D02*
G01*
X100702367Y-92616899D01*
X100737103Y-92635466D01*
X100767548Y-92660452D01*
X100792534Y-92690897D01*
X100811101Y-92725633D01*
X100822535Y-92763326D01*
X100827000Y-92808661D01*
X100827000Y-93645339D01*
X100822535Y-93690674D01*
X100811101Y-93728367D01*
X100792534Y-93763103D01*
X100767548Y-93793548D01*
X100737103Y-93818534D01*
X100702367Y-93837101D01*
X100664674Y-93848535D01*
X100619339Y-93853000D01*
X99532661Y-93853000D01*
X99487326Y-93848535D01*
X99449633Y-93837101D01*
X99414897Y-93818534D01*
X99384452Y-93793548D01*
X99359466Y-93763103D01*
X99340899Y-93728367D01*
X99329465Y-93690674D01*
X99325000Y-93645339D01*
X99325000Y-92808661D01*
X99329465Y-92763326D01*
X99340899Y-92725633D01*
X99359466Y-92690897D01*
X99384452Y-92660452D01*
X99414897Y-92635466D01*
X99449633Y-92616899D01*
X99487326Y-92605465D01*
X99532661Y-92601000D01*
X100619339Y-92601000D01*
X100664674Y-92605465D01*
X100664674Y-92605465D01*
G37*
G36*
X126290294Y-91935633D02*
G01*
X126462695Y-91987931D01*
X126621583Y-92072858D01*
X126760849Y-92187151D01*
X126875142Y-92326417D01*
X126960069Y-92485305D01*
X127012367Y-92657706D01*
X127030025Y-92837000D01*
X127012367Y-93016294D01*
X126960069Y-93188695D01*
X126875142Y-93347583D01*
X126760849Y-93486849D01*
X126621583Y-93601142D01*
X126462695Y-93686069D01*
X126290294Y-93738367D01*
X126155931Y-93751600D01*
X126066069Y-93751600D01*
X125931706Y-93738367D01*
X125759305Y-93686069D01*
X125600417Y-93601142D01*
X125461151Y-93486849D01*
X125346858Y-93347583D01*
X125261931Y-93188695D01*
X125209633Y-93016294D01*
X125191975Y-92837000D01*
X125209633Y-92657706D01*
X125261931Y-92485305D01*
X125346858Y-92326417D01*
X125461151Y-92187151D01*
X125600417Y-92072858D01*
X125759305Y-91987931D01*
X125931706Y-91935633D01*
X126066069Y-91922400D01*
X126155931Y-91922400D01*
X126290294Y-91935633D01*
X126290294Y-91935633D01*
G37*
G36*
X124485600Y-93751600D02*
G01*
X122656400Y-93751600D01*
X122656400Y-91922400D01*
X124485600Y-91922400D01*
X124485600Y-93751600D01*
X124485600Y-93751600D01*
G37*
G36*
X137103425Y-90342760D02*
G01*
X137103428Y-90342761D01*
X137103429Y-90342761D01*
X137282693Y-90397140D01*
X137282696Y-90397142D01*
X137282697Y-90397142D01*
X137447903Y-90485446D01*
X137592712Y-90604288D01*
X137711554Y-90749097D01*
X137742815Y-90807583D01*
X137799860Y-90914307D01*
X137854239Y-91093571D01*
X137854240Y-91093575D01*
X137872601Y-91280000D01*
X137854240Y-91466425D01*
X137854239Y-91466428D01*
X137854239Y-91466429D01*
X137799860Y-91645693D01*
X137799858Y-91645696D01*
X137799858Y-91645697D01*
X137711554Y-91810903D01*
X137592712Y-91955712D01*
X137447903Y-92074554D01*
X137282697Y-92162858D01*
X137282693Y-92162860D01*
X137103429Y-92217239D01*
X137103428Y-92217239D01*
X137103425Y-92217240D01*
X136963718Y-92231000D01*
X135070282Y-92231000D01*
X134930575Y-92217240D01*
X134930572Y-92217239D01*
X134930571Y-92217239D01*
X134751307Y-92162860D01*
X134751303Y-92162858D01*
X134586097Y-92074554D01*
X134441288Y-91955712D01*
X134322446Y-91810903D01*
X134234142Y-91645697D01*
X134234142Y-91645696D01*
X134234140Y-91645693D01*
X134179761Y-91466429D01*
X134179761Y-91466428D01*
X134179760Y-91466425D01*
X134161399Y-91280000D01*
X134179760Y-91093575D01*
X134179761Y-91093571D01*
X134234140Y-90914307D01*
X134291185Y-90807583D01*
X134322446Y-90749097D01*
X134441288Y-90604288D01*
X134586097Y-90485446D01*
X134751303Y-90397142D01*
X134751304Y-90397142D01*
X134751307Y-90397140D01*
X134930571Y-90342761D01*
X134930572Y-90342761D01*
X134930575Y-90342760D01*
X135070282Y-90329000D01*
X136963718Y-90329000D01*
X137103425Y-90342760D01*
X137103425Y-90342760D01*
G37*
G36*
X100664674Y-90555465D02*
G01*
X100702367Y-90566899D01*
X100737103Y-90585466D01*
X100767548Y-90610452D01*
X100792534Y-90640897D01*
X100811101Y-90675633D01*
X100822535Y-90713326D01*
X100827000Y-90758661D01*
X100827000Y-91595339D01*
X100822535Y-91640674D01*
X100811101Y-91678367D01*
X100792534Y-91713103D01*
X100767548Y-91743548D01*
X100737103Y-91768534D01*
X100702367Y-91787101D01*
X100664674Y-91798535D01*
X100619339Y-91803000D01*
X99532661Y-91803000D01*
X99487326Y-91798535D01*
X99449633Y-91787101D01*
X99414897Y-91768534D01*
X99384452Y-91743548D01*
X99359466Y-91713103D01*
X99340899Y-91678367D01*
X99329465Y-91640674D01*
X99325000Y-91595339D01*
X99325000Y-90758661D01*
X99329465Y-90713326D01*
X99340899Y-90675633D01*
X99359466Y-90640897D01*
X99384452Y-90610452D01*
X99414897Y-90585466D01*
X99449633Y-90566899D01*
X99487326Y-90555465D01*
X99532661Y-90551000D01*
X100619339Y-90551000D01*
X100664674Y-90555465D01*
X100664674Y-90555465D01*
G37*
G36*
X64967425Y-89900760D02*
G01*
X64967428Y-89900761D01*
X64967429Y-89900761D01*
X65146693Y-89955140D01*
X65146696Y-89955142D01*
X65146697Y-89955142D01*
X65311903Y-90043446D01*
X65456712Y-90162288D01*
X65575554Y-90307097D01*
X65663858Y-90472303D01*
X65663860Y-90472307D01*
X65717367Y-90648696D01*
X65718240Y-90651575D01*
X65736601Y-90838000D01*
X65718240Y-91024425D01*
X65718239Y-91024428D01*
X65718239Y-91024429D01*
X65663860Y-91203693D01*
X65663858Y-91203696D01*
X65663858Y-91203697D01*
X65575554Y-91368903D01*
X65456712Y-91513712D01*
X65311903Y-91632554D01*
X65146697Y-91720858D01*
X65146693Y-91720860D01*
X64967429Y-91775239D01*
X64967428Y-91775239D01*
X64967425Y-91775240D01*
X64827718Y-91789000D01*
X62934282Y-91789000D01*
X62794575Y-91775240D01*
X62794572Y-91775239D01*
X62794571Y-91775239D01*
X62615307Y-91720860D01*
X62615303Y-91720858D01*
X62450097Y-91632554D01*
X62305288Y-91513712D01*
X62186446Y-91368903D01*
X62098142Y-91203697D01*
X62098142Y-91203696D01*
X62098140Y-91203693D01*
X62043761Y-91024429D01*
X62043761Y-91024428D01*
X62043760Y-91024425D01*
X62025399Y-90838000D01*
X62043760Y-90651575D01*
X62044633Y-90648696D01*
X62098140Y-90472307D01*
X62098142Y-90472303D01*
X62186446Y-90307097D01*
X62305288Y-90162288D01*
X62450097Y-90043446D01*
X62615303Y-89955142D01*
X62615304Y-89955142D01*
X62615307Y-89955140D01*
X62794571Y-89900761D01*
X62794572Y-89900761D01*
X62794575Y-89900760D01*
X62934282Y-89887000D01*
X64827718Y-89887000D01*
X64967425Y-89900760D01*
X64967425Y-89900760D01*
G37*
G36*
X104323000Y-91683000D02*
G01*
X101671000Y-91683000D01*
X101671000Y-90521000D01*
X104323000Y-90521000D01*
X104323000Y-91683000D01*
X104323000Y-91683000D01*
G37*
G36*
X123750294Y-89395633D02*
G01*
X123922695Y-89447931D01*
X124081583Y-89532858D01*
X124220849Y-89647151D01*
X124335142Y-89786417D01*
X124420069Y-89945305D01*
X124472367Y-90117706D01*
X124490025Y-90297000D01*
X124472367Y-90476294D01*
X124420069Y-90648695D01*
X124335142Y-90807583D01*
X124220849Y-90946849D01*
X124081583Y-91061142D01*
X123922695Y-91146069D01*
X123750294Y-91198367D01*
X123615931Y-91211600D01*
X123526069Y-91211600D01*
X123391706Y-91198367D01*
X123219305Y-91146069D01*
X123060417Y-91061142D01*
X122921151Y-90946849D01*
X122806858Y-90807583D01*
X122721931Y-90648695D01*
X122669633Y-90476294D01*
X122651975Y-90297000D01*
X122669633Y-90117706D01*
X122721931Y-89945305D01*
X122806858Y-89786417D01*
X122921151Y-89647151D01*
X123060417Y-89532858D01*
X123219305Y-89447931D01*
X123391706Y-89395633D01*
X123526069Y-89382400D01*
X123615931Y-89382400D01*
X123750294Y-89395633D01*
X123750294Y-89395633D01*
G37*
G36*
X126290294Y-89395633D02*
G01*
X126462695Y-89447931D01*
X126621583Y-89532858D01*
X126760849Y-89647151D01*
X126875142Y-89786417D01*
X126960069Y-89945305D01*
X127012367Y-90117706D01*
X127030025Y-90297000D01*
X127012367Y-90476294D01*
X126960069Y-90648695D01*
X126875142Y-90807583D01*
X126760849Y-90946849D01*
X126621583Y-91061142D01*
X126462695Y-91146069D01*
X126290294Y-91198367D01*
X126155931Y-91211600D01*
X126066069Y-91211600D01*
X125931706Y-91198367D01*
X125759305Y-91146069D01*
X125600417Y-91061142D01*
X125461151Y-90946849D01*
X125346858Y-90807583D01*
X125261931Y-90648695D01*
X125209633Y-90476294D01*
X125191975Y-90297000D01*
X125209633Y-90117706D01*
X125261931Y-89945305D01*
X125346858Y-89786417D01*
X125461151Y-89647151D01*
X125600417Y-89532858D01*
X125759305Y-89447931D01*
X125931706Y-89395633D01*
X126066069Y-89382400D01*
X126155931Y-89382400D01*
X126290294Y-89395633D01*
X126290294Y-89395633D01*
G37*
G36*
X100664674Y-88668465D02*
G01*
X100702367Y-88679899D01*
X100737103Y-88698466D01*
X100767548Y-88723452D01*
X100792534Y-88753897D01*
X100811101Y-88788633D01*
X100822535Y-88826326D01*
X100827000Y-88871661D01*
X100827000Y-89708339D01*
X100822535Y-89753674D01*
X100811101Y-89791367D01*
X100792534Y-89826103D01*
X100767548Y-89856548D01*
X100737103Y-89881534D01*
X100702367Y-89900101D01*
X100664674Y-89911535D01*
X100619339Y-89916000D01*
X99532661Y-89916000D01*
X99487326Y-89911535D01*
X99449633Y-89900101D01*
X99414897Y-89881534D01*
X99384452Y-89856548D01*
X99359466Y-89826103D01*
X99340899Y-89791367D01*
X99329465Y-89753674D01*
X99325000Y-89708339D01*
X99325000Y-88871661D01*
X99329465Y-88826326D01*
X99340899Y-88788633D01*
X99359466Y-88753897D01*
X99384452Y-88723452D01*
X99414897Y-88698466D01*
X99449633Y-88679899D01*
X99487326Y-88668465D01*
X99532661Y-88664000D01*
X100619339Y-88664000D01*
X100664674Y-88668465D01*
X100664674Y-88668465D01*
G37*
G36*
X104485674Y-88407465D02*
G01*
X104523367Y-88418899D01*
X104558103Y-88437466D01*
X104588548Y-88462452D01*
X104613534Y-88492897D01*
X104632101Y-88527633D01*
X104643535Y-88565326D01*
X104648000Y-88610661D01*
X104648000Y-89697339D01*
X104643535Y-89742674D01*
X104632101Y-89780367D01*
X104613534Y-89815103D01*
X104588548Y-89845548D01*
X104558103Y-89870534D01*
X104523367Y-89889101D01*
X104485674Y-89900535D01*
X104440339Y-89905000D01*
X103603661Y-89905000D01*
X103558326Y-89900535D01*
X103520633Y-89889101D01*
X103485897Y-89870534D01*
X103455452Y-89845548D01*
X103430466Y-89815103D01*
X103411899Y-89780367D01*
X103400465Y-89742674D01*
X103396000Y-89697339D01*
X103396000Y-88610661D01*
X103400465Y-88565326D01*
X103411899Y-88527633D01*
X103430466Y-88492897D01*
X103455452Y-88462452D01*
X103485897Y-88437466D01*
X103520633Y-88418899D01*
X103558326Y-88407465D01*
X103603661Y-88403000D01*
X104440339Y-88403000D01*
X104485674Y-88407465D01*
X104485674Y-88407465D01*
G37*
G36*
X102435674Y-88407465D02*
G01*
X102473367Y-88418899D01*
X102508103Y-88437466D01*
X102538548Y-88462452D01*
X102563534Y-88492897D01*
X102582101Y-88527633D01*
X102593535Y-88565326D01*
X102598000Y-88610661D01*
X102598000Y-89697339D01*
X102593535Y-89742674D01*
X102582101Y-89780367D01*
X102563534Y-89815103D01*
X102538548Y-89845548D01*
X102508103Y-89870534D01*
X102473367Y-89889101D01*
X102435674Y-89900535D01*
X102390339Y-89905000D01*
X101553661Y-89905000D01*
X101508326Y-89900535D01*
X101470633Y-89889101D01*
X101435897Y-89870534D01*
X101405452Y-89845548D01*
X101380466Y-89815103D01*
X101361899Y-89780367D01*
X101350465Y-89742674D01*
X101346000Y-89697339D01*
X101346000Y-88610661D01*
X101350465Y-88565326D01*
X101361899Y-88527633D01*
X101380466Y-88492897D01*
X101405452Y-88462452D01*
X101435897Y-88437466D01*
X101470633Y-88418899D01*
X101508326Y-88407465D01*
X101553661Y-88403000D01*
X102390339Y-88403000D01*
X102435674Y-88407465D01*
X102435674Y-88407465D01*
G37*
G36*
X137103425Y-87842760D02*
G01*
X137103428Y-87842761D01*
X137103429Y-87842761D01*
X137282693Y-87897140D01*
X137282696Y-87897142D01*
X137282697Y-87897142D01*
X137447903Y-87985446D01*
X137592712Y-88104288D01*
X137711554Y-88249097D01*
X137759073Y-88338000D01*
X137799860Y-88414307D01*
X137833265Y-88524429D01*
X137854240Y-88593575D01*
X137872601Y-88780000D01*
X137854240Y-88966425D01*
X137854239Y-88966428D01*
X137854239Y-88966429D01*
X137799860Y-89145693D01*
X137799858Y-89145696D01*
X137799858Y-89145697D01*
X137711554Y-89310903D01*
X137592712Y-89455712D01*
X137447903Y-89574554D01*
X137304934Y-89650972D01*
X137282693Y-89662860D01*
X137103429Y-89717239D01*
X137103428Y-89717239D01*
X137103425Y-89717240D01*
X136963718Y-89731000D01*
X135070282Y-89731000D01*
X134930575Y-89717240D01*
X134930572Y-89717239D01*
X134930571Y-89717239D01*
X134751307Y-89662860D01*
X134729066Y-89650972D01*
X134586097Y-89574554D01*
X134441288Y-89455712D01*
X134322446Y-89310903D01*
X134234142Y-89145697D01*
X134234142Y-89145696D01*
X134234140Y-89145693D01*
X134179761Y-88966429D01*
X134179761Y-88966428D01*
X134179760Y-88966425D01*
X134161399Y-88780000D01*
X134179760Y-88593575D01*
X134200735Y-88524429D01*
X134234140Y-88414307D01*
X134274927Y-88338000D01*
X134322446Y-88249097D01*
X134441288Y-88104288D01*
X134586097Y-87985446D01*
X134751303Y-87897142D01*
X134751304Y-87897142D01*
X134751307Y-87897140D01*
X134930571Y-87842761D01*
X134930572Y-87842761D01*
X134930575Y-87842760D01*
X135070282Y-87829000D01*
X136963718Y-87829000D01*
X137103425Y-87842760D01*
X137103425Y-87842760D01*
G37*
G36*
X98148752Y-85627097D02*
G01*
X98329295Y-85681864D01*
X98495677Y-85770797D01*
X98641516Y-85890484D01*
X98761203Y-86036323D01*
X98850136Y-86202705D01*
X98904903Y-86383248D01*
X98924000Y-86577140D01*
X98924000Y-88740860D01*
X98904903Y-88934752D01*
X98850136Y-89115295D01*
X98761203Y-89281677D01*
X98641516Y-89427516D01*
X98495677Y-89547203D01*
X98329295Y-89636136D01*
X98148752Y-89690903D01*
X97954860Y-89710000D01*
X92291140Y-89710000D01*
X92097248Y-89690903D01*
X91916705Y-89636136D01*
X91750323Y-89547203D01*
X91604484Y-89427516D01*
X91484797Y-89281677D01*
X91395864Y-89115295D01*
X91341097Y-88934752D01*
X91322000Y-88740860D01*
X91322000Y-86577140D01*
X91341097Y-86383248D01*
X91395864Y-86202705D01*
X91484797Y-86036323D01*
X91604484Y-85890484D01*
X91750323Y-85770797D01*
X91916705Y-85681864D01*
X92097248Y-85627097D01*
X92291140Y-85608000D01*
X97954860Y-85608000D01*
X98148752Y-85627097D01*
X98148752Y-85627097D01*
G37*
G36*
X64967425Y-87400760D02*
G01*
X64967428Y-87400761D01*
X64967429Y-87400761D01*
X65146693Y-87455140D01*
X65146696Y-87455142D01*
X65146697Y-87455142D01*
X65311903Y-87543446D01*
X65456712Y-87662288D01*
X65575554Y-87807097D01*
X65644610Y-87936293D01*
X65663860Y-87972307D01*
X65705233Y-88108696D01*
X65718240Y-88151575D01*
X65736601Y-88338000D01*
X65718240Y-88524425D01*
X65718239Y-88524428D01*
X65718239Y-88524429D01*
X65663860Y-88703693D01*
X65663858Y-88703696D01*
X65663858Y-88703697D01*
X65575554Y-88868903D01*
X65456712Y-89013712D01*
X65311903Y-89132554D01*
X65146697Y-89220858D01*
X65146693Y-89220860D01*
X64967429Y-89275239D01*
X64967428Y-89275239D01*
X64967425Y-89275240D01*
X64827718Y-89289000D01*
X62934282Y-89289000D01*
X62794575Y-89275240D01*
X62794572Y-89275239D01*
X62794571Y-89275239D01*
X62615307Y-89220860D01*
X62615303Y-89220858D01*
X62450097Y-89132554D01*
X62305288Y-89013712D01*
X62186446Y-88868903D01*
X62098142Y-88703697D01*
X62098142Y-88703696D01*
X62098140Y-88703693D01*
X62043761Y-88524429D01*
X62043761Y-88524428D01*
X62043760Y-88524425D01*
X62025399Y-88338000D01*
X62043760Y-88151575D01*
X62056767Y-88108696D01*
X62098140Y-87972307D01*
X62117390Y-87936293D01*
X62186446Y-87807097D01*
X62305288Y-87662288D01*
X62450097Y-87543446D01*
X62615303Y-87455142D01*
X62615304Y-87455142D01*
X62615307Y-87455140D01*
X62794571Y-87400761D01*
X62794572Y-87400761D01*
X62794575Y-87400760D01*
X62934282Y-87387000D01*
X64827718Y-87387000D01*
X64967425Y-87400760D01*
X64967425Y-87400760D01*
G37*
G36*
X126290294Y-86855633D02*
G01*
X126462695Y-86907931D01*
X126621583Y-86992858D01*
X126760849Y-87107151D01*
X126875142Y-87246417D01*
X126960069Y-87405305D01*
X127012367Y-87577706D01*
X127030025Y-87757000D01*
X127012367Y-87936294D01*
X126960069Y-88108695D01*
X126875142Y-88267583D01*
X126760849Y-88406849D01*
X126621583Y-88521142D01*
X126462695Y-88606069D01*
X126290294Y-88658367D01*
X126155931Y-88671600D01*
X126066069Y-88671600D01*
X125931706Y-88658367D01*
X125759305Y-88606069D01*
X125600417Y-88521142D01*
X125461151Y-88406849D01*
X125346858Y-88267583D01*
X125261931Y-88108695D01*
X125209633Y-87936294D01*
X125191975Y-87757000D01*
X125209633Y-87577706D01*
X125261931Y-87405305D01*
X125346858Y-87246417D01*
X125461151Y-87107151D01*
X125600417Y-86992858D01*
X125759305Y-86907931D01*
X125931706Y-86855633D01*
X126066069Y-86842400D01*
X126155931Y-86842400D01*
X126290294Y-86855633D01*
X126290294Y-86855633D01*
G37*
G36*
X123750294Y-86855633D02*
G01*
X123922695Y-86907931D01*
X124081583Y-86992858D01*
X124220849Y-87107151D01*
X124335142Y-87246417D01*
X124420069Y-87405305D01*
X124472367Y-87577706D01*
X124490025Y-87757000D01*
X124472367Y-87936294D01*
X124420069Y-88108695D01*
X124335142Y-88267583D01*
X124220849Y-88406849D01*
X124081583Y-88521142D01*
X123922695Y-88606069D01*
X123750294Y-88658367D01*
X123615931Y-88671600D01*
X123526069Y-88671600D01*
X123391706Y-88658367D01*
X123219305Y-88606069D01*
X123060417Y-88521142D01*
X122921151Y-88406849D01*
X122806858Y-88267583D01*
X122721931Y-88108695D01*
X122669633Y-87936294D01*
X122651975Y-87757000D01*
X122669633Y-87577706D01*
X122721931Y-87405305D01*
X122806858Y-87246417D01*
X122921151Y-87107151D01*
X123060417Y-86992858D01*
X123219305Y-86907931D01*
X123391706Y-86855633D01*
X123526069Y-86842400D01*
X123615931Y-86842400D01*
X123750294Y-86855633D01*
X123750294Y-86855633D01*
G37*
G36*
X106898674Y-86375465D02*
G01*
X106936367Y-86386899D01*
X106971103Y-86405466D01*
X107001548Y-86430452D01*
X107026534Y-86460897D01*
X107045101Y-86495633D01*
X107056535Y-86533326D01*
X107061000Y-86578661D01*
X107061000Y-87665339D01*
X107056535Y-87710674D01*
X107045101Y-87748367D01*
X107026534Y-87783103D01*
X107001548Y-87813548D01*
X106971103Y-87838534D01*
X106936367Y-87857101D01*
X106898674Y-87868535D01*
X106853339Y-87873000D01*
X106016661Y-87873000D01*
X105971326Y-87868535D01*
X105933633Y-87857101D01*
X105898897Y-87838534D01*
X105868452Y-87813548D01*
X105843466Y-87783103D01*
X105824899Y-87748367D01*
X105813465Y-87710674D01*
X105809000Y-87665339D01*
X105809000Y-86578661D01*
X105813465Y-86533326D01*
X105824899Y-86495633D01*
X105843466Y-86460897D01*
X105868452Y-86430452D01*
X105898897Y-86405466D01*
X105933633Y-86386899D01*
X105971326Y-86375465D01*
X106016661Y-86371000D01*
X106853339Y-86371000D01*
X106898674Y-86375465D01*
X106898674Y-86375465D01*
G37*
G36*
X104848674Y-86375465D02*
G01*
X104886367Y-86386899D01*
X104921103Y-86405466D01*
X104951548Y-86430452D01*
X104976534Y-86460897D01*
X104995101Y-86495633D01*
X105006535Y-86533326D01*
X105011000Y-86578661D01*
X105011000Y-87665339D01*
X105006535Y-87710674D01*
X104995101Y-87748367D01*
X104976534Y-87783103D01*
X104951548Y-87813548D01*
X104921103Y-87838534D01*
X104886367Y-87857101D01*
X104848674Y-87868535D01*
X104803339Y-87873000D01*
X103966661Y-87873000D01*
X103921326Y-87868535D01*
X103883633Y-87857101D01*
X103848897Y-87838534D01*
X103818452Y-87813548D01*
X103793466Y-87783103D01*
X103774899Y-87748367D01*
X103763465Y-87710674D01*
X103759000Y-87665339D01*
X103759000Y-86578661D01*
X103763465Y-86533326D01*
X103774899Y-86495633D01*
X103793466Y-86460897D01*
X103818452Y-86430452D01*
X103848897Y-86405466D01*
X103883633Y-86386899D01*
X103921326Y-86375465D01*
X103966661Y-86371000D01*
X104803339Y-86371000D01*
X104848674Y-86375465D01*
X104848674Y-86375465D01*
G37*
G36*
X100664674Y-86618465D02*
G01*
X100702367Y-86629899D01*
X100737103Y-86648466D01*
X100767548Y-86673452D01*
X100792534Y-86703897D01*
X100811101Y-86738633D01*
X100822535Y-86776326D01*
X100827000Y-86821661D01*
X100827000Y-87658339D01*
X100822535Y-87703674D01*
X100811101Y-87741367D01*
X100792534Y-87776103D01*
X100767548Y-87806548D01*
X100737103Y-87831534D01*
X100702367Y-87850101D01*
X100664674Y-87861535D01*
X100619339Y-87866000D01*
X99532661Y-87866000D01*
X99487326Y-87861535D01*
X99449633Y-87850101D01*
X99414897Y-87831534D01*
X99384452Y-87806548D01*
X99359466Y-87776103D01*
X99340899Y-87741367D01*
X99329465Y-87703674D01*
X99325000Y-87658339D01*
X99325000Y-86821661D01*
X99329465Y-86776326D01*
X99340899Y-86738633D01*
X99359466Y-86703897D01*
X99384452Y-86673452D01*
X99414897Y-86648466D01*
X99449633Y-86629899D01*
X99487326Y-86618465D01*
X99532661Y-86614000D01*
X100619339Y-86614000D01*
X100664674Y-86618465D01*
X100664674Y-86618465D01*
G37*
G36*
X103010562Y-86326181D02*
G01*
X103045481Y-86336774D01*
X103077663Y-86353976D01*
X103105873Y-86377127D01*
X103129024Y-86405337D01*
X103146226Y-86437519D01*
X103156819Y-86472438D01*
X103161000Y-86514895D01*
X103161000Y-87656105D01*
X103156819Y-87698562D01*
X103146226Y-87733481D01*
X103129024Y-87765663D01*
X103105873Y-87793873D01*
X103077663Y-87817024D01*
X103045481Y-87834226D01*
X103010562Y-87844819D01*
X102968105Y-87849000D01*
X101501895Y-87849000D01*
X101459438Y-87844819D01*
X101424519Y-87834226D01*
X101392337Y-87817024D01*
X101364127Y-87793873D01*
X101340976Y-87765663D01*
X101323774Y-87733481D01*
X101313181Y-87698562D01*
X101309000Y-87656105D01*
X101309000Y-86514895D01*
X101313181Y-86472438D01*
X101323774Y-86437519D01*
X101340976Y-86405337D01*
X101364127Y-86377127D01*
X101392337Y-86353976D01*
X101424519Y-86336774D01*
X101459438Y-86326181D01*
X101501895Y-86322000D01*
X102968105Y-86322000D01*
X103010562Y-86326181D01*
X103010562Y-86326181D01*
G37*
G36*
X137103425Y-85342760D02*
G01*
X137103428Y-85342761D01*
X137103429Y-85342761D01*
X137282693Y-85397140D01*
X137282696Y-85397142D01*
X137282697Y-85397142D01*
X137447903Y-85485446D01*
X137592712Y-85604288D01*
X137711554Y-85749097D01*
X137796682Y-85908362D01*
X137799860Y-85914307D01*
X137833265Y-86024429D01*
X137854240Y-86093575D01*
X137872601Y-86280000D01*
X137854240Y-86466425D01*
X137854239Y-86466428D01*
X137854239Y-86466429D01*
X137799860Y-86645693D01*
X137799858Y-86645696D01*
X137799858Y-86645697D01*
X137711554Y-86810903D01*
X137592712Y-86955712D01*
X137447903Y-87074554D01*
X137282697Y-87162858D01*
X137282693Y-87162860D01*
X137103429Y-87217239D01*
X137103428Y-87217239D01*
X137103425Y-87217240D01*
X136963718Y-87231000D01*
X135070282Y-87231000D01*
X134930575Y-87217240D01*
X134930572Y-87217239D01*
X134930571Y-87217239D01*
X134751307Y-87162860D01*
X134751303Y-87162858D01*
X134586097Y-87074554D01*
X134441288Y-86955712D01*
X134322446Y-86810903D01*
X134234142Y-86645697D01*
X134234142Y-86645696D01*
X134234140Y-86645693D01*
X134179761Y-86466429D01*
X134179761Y-86466428D01*
X134179760Y-86466425D01*
X134161399Y-86280000D01*
X134179760Y-86093575D01*
X134200735Y-86024429D01*
X134234140Y-85914307D01*
X134237318Y-85908362D01*
X134322446Y-85749097D01*
X134441288Y-85604288D01*
X134586097Y-85485446D01*
X134751303Y-85397142D01*
X134751304Y-85397142D01*
X134751307Y-85397140D01*
X134930571Y-85342761D01*
X134930572Y-85342761D01*
X134930575Y-85342760D01*
X135070282Y-85329000D01*
X136963718Y-85329000D01*
X137103425Y-85342760D01*
X137103425Y-85342760D01*
G37*
G36*
X64967425Y-84900760D02*
G01*
X64967428Y-84900761D01*
X64967429Y-84900761D01*
X65146693Y-84955140D01*
X65146696Y-84955142D01*
X65146697Y-84955142D01*
X65311903Y-85043446D01*
X65456712Y-85162288D01*
X65575554Y-85307097D01*
X65650373Y-85447075D01*
X65663860Y-85472307D01*
X65693099Y-85568696D01*
X65718240Y-85651575D01*
X65736601Y-85838000D01*
X65718240Y-86024425D01*
X65718239Y-86024428D01*
X65718239Y-86024429D01*
X65663860Y-86203693D01*
X65663858Y-86203696D01*
X65663858Y-86203697D01*
X65575554Y-86368903D01*
X65456712Y-86513712D01*
X65311903Y-86632554D01*
X65146697Y-86720858D01*
X65146693Y-86720860D01*
X64967429Y-86775239D01*
X64967428Y-86775239D01*
X64967425Y-86775240D01*
X64827718Y-86789000D01*
X62934282Y-86789000D01*
X62794575Y-86775240D01*
X62794572Y-86775239D01*
X62794571Y-86775239D01*
X62615307Y-86720860D01*
X62615303Y-86720858D01*
X62450097Y-86632554D01*
X62305288Y-86513712D01*
X62186446Y-86368903D01*
X62098142Y-86203697D01*
X62098142Y-86203696D01*
X62098140Y-86203693D01*
X62043761Y-86024429D01*
X62043761Y-86024428D01*
X62043760Y-86024425D01*
X62025399Y-85838000D01*
X62043760Y-85651575D01*
X62068901Y-85568696D01*
X62098140Y-85472307D01*
X62111627Y-85447075D01*
X62186446Y-85307097D01*
X62305288Y-85162288D01*
X62450097Y-85043446D01*
X62615303Y-84955142D01*
X62615304Y-84955142D01*
X62615307Y-84955140D01*
X62794571Y-84900761D01*
X62794572Y-84900761D01*
X62794575Y-84900760D01*
X62934282Y-84887000D01*
X64827718Y-84887000D01*
X64967425Y-84900760D01*
X64967425Y-84900760D01*
G37*
G36*
X82242674Y-85232465D02*
G01*
X82280367Y-85243899D01*
X82315103Y-85262466D01*
X82345548Y-85287452D01*
X82370534Y-85317897D01*
X82389101Y-85352633D01*
X82400535Y-85390326D01*
X82405000Y-85435661D01*
X82405000Y-86522339D01*
X82400535Y-86567674D01*
X82389101Y-86605367D01*
X82370534Y-86640103D01*
X82345548Y-86670548D01*
X82315103Y-86695534D01*
X82280367Y-86714101D01*
X82242674Y-86725535D01*
X82197339Y-86730000D01*
X81360661Y-86730000D01*
X81315326Y-86725535D01*
X81277633Y-86714101D01*
X81242897Y-86695534D01*
X81212452Y-86670548D01*
X81187466Y-86640103D01*
X81168899Y-86605367D01*
X81157465Y-86567674D01*
X81153000Y-86522339D01*
X81153000Y-85435661D01*
X81157465Y-85390326D01*
X81168899Y-85352633D01*
X81187466Y-85317897D01*
X81212452Y-85287452D01*
X81242897Y-85262466D01*
X81277633Y-85243899D01*
X81315326Y-85232465D01*
X81360661Y-85228000D01*
X82197339Y-85228000D01*
X82242674Y-85232465D01*
X82242674Y-85232465D01*
G37*
G36*
X84292674Y-85232465D02*
G01*
X84330367Y-85243899D01*
X84365103Y-85262466D01*
X84395548Y-85287452D01*
X84420534Y-85317897D01*
X84439101Y-85352633D01*
X84450535Y-85390326D01*
X84455000Y-85435661D01*
X84455000Y-86522339D01*
X84450535Y-86567674D01*
X84439101Y-86605367D01*
X84420534Y-86640103D01*
X84395548Y-86670548D01*
X84365103Y-86695534D01*
X84330367Y-86714101D01*
X84292674Y-86725535D01*
X84247339Y-86730000D01*
X83410661Y-86730000D01*
X83365326Y-86725535D01*
X83327633Y-86714101D01*
X83292897Y-86695534D01*
X83262452Y-86670548D01*
X83237466Y-86640103D01*
X83218899Y-86605367D01*
X83207465Y-86567674D01*
X83203000Y-86522339D01*
X83203000Y-85435661D01*
X83207465Y-85390326D01*
X83218899Y-85352633D01*
X83237466Y-85317897D01*
X83262452Y-85287452D01*
X83292897Y-85262466D01*
X83327633Y-85243899D01*
X83365326Y-85232465D01*
X83410661Y-85228000D01*
X84247339Y-85228000D01*
X84292674Y-85232465D01*
X84292674Y-85232465D01*
G37*
G36*
X123750294Y-84315633D02*
G01*
X123922695Y-84367931D01*
X124081583Y-84452858D01*
X124220849Y-84567151D01*
X124335142Y-84706417D01*
X124420069Y-84865305D01*
X124472367Y-85037706D01*
X124490025Y-85217000D01*
X124472367Y-85396294D01*
X124420069Y-85568695D01*
X124335142Y-85727583D01*
X124220849Y-85866849D01*
X124081583Y-85981142D01*
X123922695Y-86066069D01*
X123750294Y-86118367D01*
X123615931Y-86131600D01*
X123526069Y-86131600D01*
X123391706Y-86118367D01*
X123219305Y-86066069D01*
X123060417Y-85981142D01*
X122921151Y-85866849D01*
X122806858Y-85727583D01*
X122721931Y-85568695D01*
X122669633Y-85396294D01*
X122651975Y-85217000D01*
X122669633Y-85037706D01*
X122721931Y-84865305D01*
X122806858Y-84706417D01*
X122921151Y-84567151D01*
X123060417Y-84452858D01*
X123219305Y-84367931D01*
X123391706Y-84315633D01*
X123526069Y-84302400D01*
X123615931Y-84302400D01*
X123750294Y-84315633D01*
X123750294Y-84315633D01*
G37*
G36*
X126290294Y-84315633D02*
G01*
X126462695Y-84367931D01*
X126621583Y-84452858D01*
X126760849Y-84567151D01*
X126875142Y-84706417D01*
X126960069Y-84865305D01*
X127012367Y-85037706D01*
X127030025Y-85217000D01*
X127012367Y-85396294D01*
X126960069Y-85568695D01*
X126875142Y-85727583D01*
X126760849Y-85866849D01*
X126621583Y-85981142D01*
X126462695Y-86066069D01*
X126290294Y-86118367D01*
X126155931Y-86131600D01*
X126066069Y-86131600D01*
X125931706Y-86118367D01*
X125759305Y-86066069D01*
X125600417Y-85981142D01*
X125461151Y-85866849D01*
X125346858Y-85727583D01*
X125261931Y-85568695D01*
X125209633Y-85396294D01*
X125191975Y-85217000D01*
X125209633Y-85037706D01*
X125261931Y-84865305D01*
X125346858Y-84706417D01*
X125461151Y-84567151D01*
X125600417Y-84452858D01*
X125759305Y-84367931D01*
X125931706Y-84315633D01*
X126066069Y-84302400D01*
X126155931Y-84302400D01*
X126290294Y-84315633D01*
X126290294Y-84315633D01*
G37*
G36*
X106738000Y-85637000D02*
G01*
X104336000Y-85637000D01*
X104336000Y-84035000D01*
X106738000Y-84035000D01*
X106738000Y-85637000D01*
X106738000Y-85637000D01*
G37*
G36*
X103010562Y-83351181D02*
G01*
X103045481Y-83361774D01*
X103077663Y-83378976D01*
X103105873Y-83402127D01*
X103129024Y-83430337D01*
X103146226Y-83462519D01*
X103156819Y-83497438D01*
X103161000Y-83539895D01*
X103161000Y-84681105D01*
X103156819Y-84723562D01*
X103146226Y-84758481D01*
X103129024Y-84790663D01*
X103105873Y-84818873D01*
X103077663Y-84842024D01*
X103045481Y-84859226D01*
X103010562Y-84869819D01*
X102968105Y-84874000D01*
X101501895Y-84874000D01*
X101459438Y-84869819D01*
X101424519Y-84859226D01*
X101392337Y-84842024D01*
X101364127Y-84818873D01*
X101340976Y-84790663D01*
X101323774Y-84758481D01*
X101313181Y-84723562D01*
X101309000Y-84681105D01*
X101309000Y-83539895D01*
X101313181Y-83497438D01*
X101323774Y-83462519D01*
X101340976Y-83430337D01*
X101364127Y-83402127D01*
X101392337Y-83378976D01*
X101424519Y-83361774D01*
X101459438Y-83351181D01*
X101501895Y-83347000D01*
X102968105Y-83347000D01*
X103010562Y-83351181D01*
X103010562Y-83351181D01*
G37*
G36*
X137103425Y-82842760D02*
G01*
X137103428Y-82842761D01*
X137103429Y-82842761D01*
X137282693Y-82897140D01*
X137282696Y-82897142D01*
X137282697Y-82897142D01*
X137447903Y-82985446D01*
X137592712Y-83104288D01*
X137711554Y-83249097D01*
X137780975Y-83378976D01*
X137799860Y-83414307D01*
X137849627Y-83578367D01*
X137854240Y-83593575D01*
X137872601Y-83780000D01*
X137854240Y-83966425D01*
X137854239Y-83966428D01*
X137854239Y-83966429D01*
X137799860Y-84145693D01*
X137799858Y-84145696D01*
X137799858Y-84145697D01*
X137711554Y-84310903D01*
X137592712Y-84455712D01*
X137447903Y-84574554D01*
X137291095Y-84658369D01*
X137282693Y-84662860D01*
X137103429Y-84717239D01*
X137103428Y-84717239D01*
X137103425Y-84717240D01*
X136963718Y-84731000D01*
X135070282Y-84731000D01*
X134930575Y-84717240D01*
X134930572Y-84717239D01*
X134930571Y-84717239D01*
X134751307Y-84662860D01*
X134742905Y-84658369D01*
X134586097Y-84574554D01*
X134441288Y-84455712D01*
X134322446Y-84310903D01*
X134234142Y-84145697D01*
X134234142Y-84145696D01*
X134234140Y-84145693D01*
X134179761Y-83966429D01*
X134179761Y-83966428D01*
X134179760Y-83966425D01*
X134161399Y-83780000D01*
X134179760Y-83593575D01*
X134184373Y-83578367D01*
X134234140Y-83414307D01*
X134253025Y-83378976D01*
X134322446Y-83249097D01*
X134441288Y-83104288D01*
X134586097Y-82985446D01*
X134751303Y-82897142D01*
X134751304Y-82897142D01*
X134751307Y-82897140D01*
X134930571Y-82842761D01*
X134930572Y-82842761D01*
X134930575Y-82842760D01*
X135070282Y-82829000D01*
X136963718Y-82829000D01*
X137103425Y-82842760D01*
X137103425Y-82842760D01*
G37*
G36*
X84292674Y-83200465D02*
G01*
X84330367Y-83211899D01*
X84365103Y-83230466D01*
X84395548Y-83255452D01*
X84420534Y-83285897D01*
X84439101Y-83320633D01*
X84450535Y-83358326D01*
X84455000Y-83403661D01*
X84455000Y-84490339D01*
X84450535Y-84535674D01*
X84439101Y-84573367D01*
X84420534Y-84608103D01*
X84395548Y-84638548D01*
X84365103Y-84663534D01*
X84330367Y-84682101D01*
X84292674Y-84693535D01*
X84247339Y-84698000D01*
X83410661Y-84698000D01*
X83365326Y-84693535D01*
X83327633Y-84682101D01*
X83292897Y-84663534D01*
X83262452Y-84638548D01*
X83237466Y-84608103D01*
X83218899Y-84573367D01*
X83207465Y-84535674D01*
X83203000Y-84490339D01*
X83203000Y-83403661D01*
X83207465Y-83358326D01*
X83218899Y-83320633D01*
X83237466Y-83285897D01*
X83262452Y-83255452D01*
X83292897Y-83230466D01*
X83327633Y-83211899D01*
X83365326Y-83200465D01*
X83410661Y-83196000D01*
X84247339Y-83196000D01*
X84292674Y-83200465D01*
X84292674Y-83200465D01*
G37*
G36*
X82242674Y-83200465D02*
G01*
X82280367Y-83211899D01*
X82315103Y-83230466D01*
X82345548Y-83255452D01*
X82370534Y-83285897D01*
X82389101Y-83320633D01*
X82400535Y-83358326D01*
X82405000Y-83403661D01*
X82405000Y-84490339D01*
X82400535Y-84535674D01*
X82389101Y-84573367D01*
X82370534Y-84608103D01*
X82345548Y-84638548D01*
X82315103Y-84663534D01*
X82280367Y-84682101D01*
X82242674Y-84693535D01*
X82197339Y-84698000D01*
X81360661Y-84698000D01*
X81315326Y-84693535D01*
X81277633Y-84682101D01*
X81242897Y-84663534D01*
X81212452Y-84638548D01*
X81187466Y-84608103D01*
X81168899Y-84573367D01*
X81157465Y-84535674D01*
X81153000Y-84490339D01*
X81153000Y-83403661D01*
X81157465Y-83358326D01*
X81168899Y-83320633D01*
X81187466Y-83285897D01*
X81212452Y-83255452D01*
X81242897Y-83230466D01*
X81277633Y-83211899D01*
X81315326Y-83200465D01*
X81360661Y-83196000D01*
X82197339Y-83196000D01*
X82242674Y-83200465D01*
X82242674Y-83200465D01*
G37*
G36*
X64967425Y-82400760D02*
G01*
X64967428Y-82400761D01*
X64967429Y-82400761D01*
X65146693Y-82455140D01*
X65146696Y-82455142D01*
X65146697Y-82455142D01*
X65311903Y-82543446D01*
X65456712Y-82662288D01*
X65575554Y-82807097D01*
X65663858Y-82972303D01*
X65663860Y-82972307D01*
X65680965Y-83028696D01*
X65718240Y-83151575D01*
X65736601Y-83338000D01*
X65718240Y-83524425D01*
X65718239Y-83524428D01*
X65718239Y-83524429D01*
X65663860Y-83703693D01*
X65663858Y-83703696D01*
X65663858Y-83703697D01*
X65575554Y-83868903D01*
X65456712Y-84013712D01*
X65311903Y-84132554D01*
X65146697Y-84220858D01*
X65146693Y-84220860D01*
X64967429Y-84275239D01*
X64967428Y-84275239D01*
X64967425Y-84275240D01*
X64827718Y-84289000D01*
X62934282Y-84289000D01*
X62794575Y-84275240D01*
X62794572Y-84275239D01*
X62794571Y-84275239D01*
X62615307Y-84220860D01*
X62615303Y-84220858D01*
X62450097Y-84132554D01*
X62305288Y-84013712D01*
X62186446Y-83868903D01*
X62098142Y-83703697D01*
X62098142Y-83703696D01*
X62098140Y-83703693D01*
X62043761Y-83524429D01*
X62043761Y-83524428D01*
X62043760Y-83524425D01*
X62025399Y-83338000D01*
X62043760Y-83151575D01*
X62081035Y-83028696D01*
X62098140Y-82972307D01*
X62098142Y-82972303D01*
X62186446Y-82807097D01*
X62305288Y-82662288D01*
X62450097Y-82543446D01*
X62615303Y-82455142D01*
X62615304Y-82455142D01*
X62615307Y-82455140D01*
X62794571Y-82400761D01*
X62794572Y-82400761D01*
X62794575Y-82400760D01*
X62934282Y-82387000D01*
X64827718Y-82387000D01*
X64967425Y-82400760D01*
X64967425Y-82400760D01*
G37*
G36*
X126290294Y-81775633D02*
G01*
X126462695Y-81827931D01*
X126621583Y-81912858D01*
X126760849Y-82027151D01*
X126875142Y-82166417D01*
X126960069Y-82325305D01*
X127012367Y-82497706D01*
X127030025Y-82677000D01*
X127012367Y-82856294D01*
X126960069Y-83028695D01*
X126875142Y-83187583D01*
X126760849Y-83326849D01*
X126621583Y-83441142D01*
X126462695Y-83526069D01*
X126290294Y-83578367D01*
X126155931Y-83591600D01*
X126066069Y-83591600D01*
X125931706Y-83578367D01*
X125759305Y-83526069D01*
X125600417Y-83441142D01*
X125461151Y-83326849D01*
X125346858Y-83187583D01*
X125261931Y-83028695D01*
X125209633Y-82856294D01*
X125191975Y-82677000D01*
X125209633Y-82497706D01*
X125261931Y-82325305D01*
X125346858Y-82166417D01*
X125461151Y-82027151D01*
X125600417Y-81912858D01*
X125759305Y-81827931D01*
X125931706Y-81775633D01*
X126066069Y-81762400D01*
X126155931Y-81762400D01*
X126290294Y-81775633D01*
X126290294Y-81775633D01*
G37*
G36*
X123750294Y-81775633D02*
G01*
X123922695Y-81827931D01*
X124081583Y-81912858D01*
X124220849Y-82027151D01*
X124335142Y-82166417D01*
X124420069Y-82325305D01*
X124472367Y-82497706D01*
X124490025Y-82677000D01*
X124472367Y-82856294D01*
X124420069Y-83028695D01*
X124335142Y-83187583D01*
X124220849Y-83326849D01*
X124081583Y-83441142D01*
X123922695Y-83526069D01*
X123750294Y-83578367D01*
X123615931Y-83591600D01*
X123526069Y-83591600D01*
X123391706Y-83578367D01*
X123219305Y-83526069D01*
X123060417Y-83441142D01*
X122921151Y-83326849D01*
X122806858Y-83187583D01*
X122721931Y-83028695D01*
X122669633Y-82856294D01*
X122651975Y-82677000D01*
X122669633Y-82497706D01*
X122721931Y-82325305D01*
X122806858Y-82166417D01*
X122921151Y-82027151D01*
X123060417Y-81912858D01*
X123219305Y-81827931D01*
X123391706Y-81775633D01*
X123526069Y-81762400D01*
X123615931Y-81762400D01*
X123750294Y-81775633D01*
X123750294Y-81775633D01*
G37*
G36*
X82242674Y-81168465D02*
G01*
X82280367Y-81179899D01*
X82315103Y-81198466D01*
X82345548Y-81223452D01*
X82370534Y-81253897D01*
X82389101Y-81288633D01*
X82400535Y-81326326D01*
X82405000Y-81371661D01*
X82405000Y-82458339D01*
X82400535Y-82503674D01*
X82389101Y-82541367D01*
X82370534Y-82576103D01*
X82345548Y-82606548D01*
X82315103Y-82631534D01*
X82280367Y-82650101D01*
X82242674Y-82661535D01*
X82197339Y-82666000D01*
X81360661Y-82666000D01*
X81315326Y-82661535D01*
X81277633Y-82650101D01*
X81242897Y-82631534D01*
X81212452Y-82606548D01*
X81187466Y-82576103D01*
X81168899Y-82541367D01*
X81157465Y-82503674D01*
X81153000Y-82458339D01*
X81153000Y-81371661D01*
X81157465Y-81326326D01*
X81168899Y-81288633D01*
X81187466Y-81253897D01*
X81212452Y-81223452D01*
X81242897Y-81198466D01*
X81277633Y-81179899D01*
X81315326Y-81168465D01*
X81360661Y-81164000D01*
X82197339Y-81164000D01*
X82242674Y-81168465D01*
X82242674Y-81168465D01*
G37*
G36*
X84292674Y-81168465D02*
G01*
X84330367Y-81179899D01*
X84365103Y-81198466D01*
X84395548Y-81223452D01*
X84420534Y-81253897D01*
X84439101Y-81288633D01*
X84450535Y-81326326D01*
X84455000Y-81371661D01*
X84455000Y-82458339D01*
X84450535Y-82503674D01*
X84439101Y-82541367D01*
X84420534Y-82576103D01*
X84395548Y-82606548D01*
X84365103Y-82631534D01*
X84330367Y-82650101D01*
X84292674Y-82661535D01*
X84247339Y-82666000D01*
X83410661Y-82666000D01*
X83365326Y-82661535D01*
X83327633Y-82650101D01*
X83292897Y-82631534D01*
X83262452Y-82606548D01*
X83237466Y-82576103D01*
X83218899Y-82541367D01*
X83207465Y-82503674D01*
X83203000Y-82458339D01*
X83203000Y-81371661D01*
X83207465Y-81326326D01*
X83218899Y-81288633D01*
X83237466Y-81253897D01*
X83262452Y-81223452D01*
X83292897Y-81198466D01*
X83327633Y-81179899D01*
X83365326Y-81168465D01*
X83410661Y-81164000D01*
X84247339Y-81164000D01*
X84292674Y-81168465D01*
X84292674Y-81168465D01*
G37*
G36*
X137727915Y-80332934D02*
G01*
X137760424Y-80342795D01*
X137790382Y-80358809D01*
X137816641Y-80380359D01*
X137838191Y-80406618D01*
X137854205Y-80436576D01*
X137864066Y-80469085D01*
X137868000Y-80509029D01*
X137868000Y-82050971D01*
X137864066Y-82090915D01*
X137854205Y-82123424D01*
X137838191Y-82153382D01*
X137816641Y-82179641D01*
X137790382Y-82201191D01*
X137760424Y-82217205D01*
X137727915Y-82227066D01*
X137687971Y-82231000D01*
X134346029Y-82231000D01*
X134306085Y-82227066D01*
X134273576Y-82217205D01*
X134243618Y-82201191D01*
X134217359Y-82179641D01*
X134195809Y-82153382D01*
X134179795Y-82123424D01*
X134169934Y-82090915D01*
X134166000Y-82050971D01*
X134166000Y-80509029D01*
X134169934Y-80469085D01*
X134179795Y-80436576D01*
X134195809Y-80406618D01*
X134217359Y-80380359D01*
X134243618Y-80358809D01*
X134273576Y-80342795D01*
X134306085Y-80332934D01*
X134346029Y-80329000D01*
X137687971Y-80329000D01*
X137727915Y-80332934D01*
X137727915Y-80332934D01*
G37*
G36*
X123750294Y-79235633D02*
G01*
X123922695Y-79287931D01*
X124081583Y-79372858D01*
X124220849Y-79487151D01*
X124335142Y-79626417D01*
X124420069Y-79785305D01*
X124472367Y-79957706D01*
X124490025Y-80137000D01*
X124472367Y-80316294D01*
X124420069Y-80488695D01*
X124335142Y-80647583D01*
X124220849Y-80786849D01*
X124081583Y-80901142D01*
X123922695Y-80986069D01*
X123750294Y-81038367D01*
X123615931Y-81051600D01*
X123526069Y-81051600D01*
X123391706Y-81038367D01*
X123219305Y-80986069D01*
X123060417Y-80901142D01*
X122921151Y-80786849D01*
X122806858Y-80647583D01*
X122721931Y-80488695D01*
X122669633Y-80316294D01*
X122651975Y-80137000D01*
X122669633Y-79957706D01*
X122721931Y-79785305D01*
X122806858Y-79626417D01*
X122921151Y-79487151D01*
X123060417Y-79372858D01*
X123219305Y-79287931D01*
X123391706Y-79235633D01*
X123526069Y-79222400D01*
X123615931Y-79222400D01*
X123750294Y-79235633D01*
X123750294Y-79235633D01*
G37*
G36*
X126290294Y-79235633D02*
G01*
X126462695Y-79287931D01*
X126621583Y-79372858D01*
X126760849Y-79487151D01*
X126875142Y-79626417D01*
X126960069Y-79785305D01*
X127012367Y-79957706D01*
X127030025Y-80137000D01*
X127012367Y-80316294D01*
X126960069Y-80488695D01*
X126875142Y-80647583D01*
X126760849Y-80786849D01*
X126621583Y-80901142D01*
X126462695Y-80986069D01*
X126290294Y-81038367D01*
X126155931Y-81051600D01*
X126066069Y-81051600D01*
X125931706Y-81038367D01*
X125759305Y-80986069D01*
X125600417Y-80901142D01*
X125461151Y-80786849D01*
X125346858Y-80647583D01*
X125261931Y-80488695D01*
X125209633Y-80316294D01*
X125191975Y-80137000D01*
X125209633Y-79957706D01*
X125261931Y-79785305D01*
X125346858Y-79626417D01*
X125461151Y-79487151D01*
X125600417Y-79372858D01*
X125759305Y-79287931D01*
X125931706Y-79235633D01*
X126066069Y-79222400D01*
X126155931Y-79222400D01*
X126290294Y-79235633D01*
X126290294Y-79235633D01*
G37*
G36*
X84292674Y-79136465D02*
G01*
X84330367Y-79147899D01*
X84365103Y-79166466D01*
X84395548Y-79191452D01*
X84420534Y-79221897D01*
X84439101Y-79256633D01*
X84450535Y-79294326D01*
X84455000Y-79339661D01*
X84455000Y-80426339D01*
X84450535Y-80471674D01*
X84439101Y-80509367D01*
X84420534Y-80544103D01*
X84395548Y-80574548D01*
X84365103Y-80599534D01*
X84330367Y-80618101D01*
X84292674Y-80629535D01*
X84247339Y-80634000D01*
X83410661Y-80634000D01*
X83365326Y-80629535D01*
X83327633Y-80618101D01*
X83292897Y-80599534D01*
X83262452Y-80574548D01*
X83237466Y-80544103D01*
X83218899Y-80509367D01*
X83207465Y-80471674D01*
X83203000Y-80426339D01*
X83203000Y-79339661D01*
X83207465Y-79294326D01*
X83218899Y-79256633D01*
X83237466Y-79221897D01*
X83262452Y-79191452D01*
X83292897Y-79166466D01*
X83327633Y-79147899D01*
X83365326Y-79136465D01*
X83410661Y-79132000D01*
X84247339Y-79132000D01*
X84292674Y-79136465D01*
X84292674Y-79136465D01*
G37*
G36*
X82242674Y-79136465D02*
G01*
X82280367Y-79147899D01*
X82315103Y-79166466D01*
X82345548Y-79191452D01*
X82370534Y-79221897D01*
X82389101Y-79256633D01*
X82400535Y-79294326D01*
X82405000Y-79339661D01*
X82405000Y-80426339D01*
X82400535Y-80471674D01*
X82389101Y-80509367D01*
X82370534Y-80544103D01*
X82345548Y-80574548D01*
X82315103Y-80599534D01*
X82280367Y-80618101D01*
X82242674Y-80629535D01*
X82197339Y-80634000D01*
X81360661Y-80634000D01*
X81315326Y-80629535D01*
X81277633Y-80618101D01*
X81242897Y-80599534D01*
X81212452Y-80574548D01*
X81187466Y-80544103D01*
X81168899Y-80509367D01*
X81157465Y-80471674D01*
X81153000Y-80426339D01*
X81153000Y-79339661D01*
X81157465Y-79294326D01*
X81168899Y-79256633D01*
X81187466Y-79221897D01*
X81212452Y-79191452D01*
X81242897Y-79166466D01*
X81277633Y-79147899D01*
X81315326Y-79136465D01*
X81360661Y-79132000D01*
X82197339Y-79132000D01*
X82242674Y-79136465D01*
X82242674Y-79136465D01*
G37*
G36*
X65591915Y-77665934D02*
G01*
X65624424Y-77675795D01*
X65654382Y-77691809D01*
X65680641Y-77713359D01*
X65702191Y-77739618D01*
X65718205Y-77769576D01*
X65728066Y-77802085D01*
X65732000Y-77842029D01*
X65732000Y-79383971D01*
X65728066Y-79423915D01*
X65718205Y-79456424D01*
X65702191Y-79486382D01*
X65680641Y-79512641D01*
X65654382Y-79534191D01*
X65624424Y-79550205D01*
X65591915Y-79560066D01*
X65551971Y-79564000D01*
X62210029Y-79564000D01*
X62170085Y-79560066D01*
X62137576Y-79550205D01*
X62107618Y-79534191D01*
X62081359Y-79512641D01*
X62059809Y-79486382D01*
X62043795Y-79456424D01*
X62033934Y-79423915D01*
X62030000Y-79383971D01*
X62030000Y-77842029D01*
X62033934Y-77802085D01*
X62043795Y-77769576D01*
X62059809Y-77739618D01*
X62081359Y-77713359D01*
X62107618Y-77691809D01*
X62137576Y-77675795D01*
X62170085Y-77665934D01*
X62210029Y-77662000D01*
X65551971Y-77662000D01*
X65591915Y-77665934D01*
X65591915Y-77665934D01*
G37*
G36*
X111969674Y-77866465D02*
G01*
X112007367Y-77877899D01*
X112042103Y-77896466D01*
X112072548Y-77921452D01*
X112097534Y-77951897D01*
X112116101Y-77986633D01*
X112127535Y-78024326D01*
X112132000Y-78069661D01*
X112132000Y-79156339D01*
X112127535Y-79201674D01*
X112116101Y-79239367D01*
X112097534Y-79274103D01*
X112072548Y-79304548D01*
X112042103Y-79329534D01*
X112007367Y-79348101D01*
X111969674Y-79359535D01*
X111924339Y-79364000D01*
X111087661Y-79364000D01*
X111042326Y-79359535D01*
X111004633Y-79348101D01*
X110969897Y-79329534D01*
X110939452Y-79304548D01*
X110914466Y-79274103D01*
X110895899Y-79239367D01*
X110884465Y-79201674D01*
X110880000Y-79156339D01*
X110880000Y-78069661D01*
X110884465Y-78024326D01*
X110895899Y-77986633D01*
X110914466Y-77951897D01*
X110939452Y-77921452D01*
X110969897Y-77896466D01*
X111004633Y-77877899D01*
X111042326Y-77866465D01*
X111087661Y-77862000D01*
X111924339Y-77862000D01*
X111969674Y-77866465D01*
X111969674Y-77866465D01*
G37*
G36*
X114019674Y-77866465D02*
G01*
X114057367Y-77877899D01*
X114092103Y-77896466D01*
X114122548Y-77921452D01*
X114147534Y-77951897D01*
X114166101Y-77986633D01*
X114177535Y-78024326D01*
X114182000Y-78069661D01*
X114182000Y-79156339D01*
X114177535Y-79201674D01*
X114166101Y-79239367D01*
X114147534Y-79274103D01*
X114122548Y-79304548D01*
X114092103Y-79329534D01*
X114057367Y-79348101D01*
X114019674Y-79359535D01*
X113974339Y-79364000D01*
X113137661Y-79364000D01*
X113092326Y-79359535D01*
X113054633Y-79348101D01*
X113019897Y-79329534D01*
X112989452Y-79304548D01*
X112964466Y-79274103D01*
X112945899Y-79239367D01*
X112934465Y-79201674D01*
X112930000Y-79156339D01*
X112930000Y-78069661D01*
X112934465Y-78024326D01*
X112945899Y-77986633D01*
X112964466Y-77951897D01*
X112989452Y-77921452D01*
X113019897Y-77896466D01*
X113054633Y-77877899D01*
X113092326Y-77866465D01*
X113137661Y-77862000D01*
X113974339Y-77862000D01*
X114019674Y-77866465D01*
X114019674Y-77866465D01*
G37*
G36*
X116722000Y-78998000D02*
G01*
X114720000Y-78998000D01*
X114720000Y-78096000D01*
X116722000Y-78096000D01*
X116722000Y-78998000D01*
X116722000Y-78998000D01*
G37*
G36*
X82242674Y-77104465D02*
G01*
X82280367Y-77115899D01*
X82315103Y-77134466D01*
X82345548Y-77159452D01*
X82370534Y-77189897D01*
X82389101Y-77224633D01*
X82400535Y-77262326D01*
X82405000Y-77307661D01*
X82405000Y-78394339D01*
X82400535Y-78439674D01*
X82389101Y-78477367D01*
X82370534Y-78512103D01*
X82345548Y-78542548D01*
X82315103Y-78567534D01*
X82280367Y-78586101D01*
X82242674Y-78597535D01*
X82197339Y-78602000D01*
X81360661Y-78602000D01*
X81315326Y-78597535D01*
X81277633Y-78586101D01*
X81242897Y-78567534D01*
X81212452Y-78542548D01*
X81187466Y-78512103D01*
X81168899Y-78477367D01*
X81157465Y-78439674D01*
X81153000Y-78394339D01*
X81153000Y-77307661D01*
X81157465Y-77262326D01*
X81168899Y-77224633D01*
X81187466Y-77189897D01*
X81212452Y-77159452D01*
X81242897Y-77134466D01*
X81277633Y-77115899D01*
X81315326Y-77104465D01*
X81360661Y-77100000D01*
X82197339Y-77100000D01*
X82242674Y-77104465D01*
X82242674Y-77104465D01*
G37*
G36*
X84292674Y-77104465D02*
G01*
X84330367Y-77115899D01*
X84365103Y-77134466D01*
X84395548Y-77159452D01*
X84420534Y-77189897D01*
X84439101Y-77224633D01*
X84450535Y-77262326D01*
X84455000Y-77307661D01*
X84455000Y-78394339D01*
X84450535Y-78439674D01*
X84439101Y-78477367D01*
X84420534Y-78512103D01*
X84395548Y-78542548D01*
X84365103Y-78567534D01*
X84330367Y-78586101D01*
X84292674Y-78597535D01*
X84247339Y-78602000D01*
X83410661Y-78602000D01*
X83365326Y-78597535D01*
X83327633Y-78586101D01*
X83292897Y-78567534D01*
X83262452Y-78542548D01*
X83237466Y-78512103D01*
X83218899Y-78477367D01*
X83207465Y-78439674D01*
X83203000Y-78394339D01*
X83203000Y-77307661D01*
X83207465Y-77262326D01*
X83218899Y-77224633D01*
X83237466Y-77189897D01*
X83262452Y-77159452D01*
X83292897Y-77134466D01*
X83327633Y-77115899D01*
X83365326Y-77104465D01*
X83410661Y-77100000D01*
X84247339Y-77100000D01*
X84292674Y-77104465D01*
X84292674Y-77104465D01*
G37*
G36*
X123750294Y-76695633D02*
G01*
X123922695Y-76747931D01*
X124081583Y-76832858D01*
X124220849Y-76947151D01*
X124335142Y-77086417D01*
X124420069Y-77245305D01*
X124472367Y-77417706D01*
X124490025Y-77597000D01*
X124472367Y-77776294D01*
X124420069Y-77948695D01*
X124335142Y-78107583D01*
X124220849Y-78246849D01*
X124081583Y-78361142D01*
X123922695Y-78446069D01*
X123750294Y-78498367D01*
X123615931Y-78511600D01*
X123526069Y-78511600D01*
X123391706Y-78498367D01*
X123219305Y-78446069D01*
X123060417Y-78361142D01*
X122921151Y-78246849D01*
X122806858Y-78107583D01*
X122721931Y-77948695D01*
X122669633Y-77776294D01*
X122651975Y-77597000D01*
X122669633Y-77417706D01*
X122721931Y-77245305D01*
X122806858Y-77086417D01*
X122921151Y-76947151D01*
X123060417Y-76832858D01*
X123219305Y-76747931D01*
X123391706Y-76695633D01*
X123526069Y-76682400D01*
X123615931Y-76682400D01*
X123750294Y-76695633D01*
X123750294Y-76695633D01*
G37*
G36*
X126290294Y-76695633D02*
G01*
X126462695Y-76747931D01*
X126621583Y-76832858D01*
X126760849Y-76947151D01*
X126875142Y-77086417D01*
X126960069Y-77245305D01*
X127012367Y-77417706D01*
X127030025Y-77597000D01*
X127012367Y-77776294D01*
X126960069Y-77948695D01*
X126875142Y-78107583D01*
X126760849Y-78246849D01*
X126621583Y-78361142D01*
X126462695Y-78446069D01*
X126290294Y-78498367D01*
X126155931Y-78511600D01*
X126066069Y-78511600D01*
X125931706Y-78498367D01*
X125759305Y-78446069D01*
X125600417Y-78361142D01*
X125461151Y-78246849D01*
X125346858Y-78107583D01*
X125261931Y-77948695D01*
X125209633Y-77776294D01*
X125191975Y-77597000D01*
X125209633Y-77417706D01*
X125261931Y-77245305D01*
X125346858Y-77086417D01*
X125461151Y-76947151D01*
X125600417Y-76832858D01*
X125759305Y-76747931D01*
X125931706Y-76695633D01*
X126066069Y-76682400D01*
X126155931Y-76682400D01*
X126290294Y-76695633D01*
X126290294Y-76695633D01*
G37*
G36*
X119722000Y-78048000D02*
G01*
X117720000Y-78048000D01*
X117720000Y-77146000D01*
X119722000Y-77146000D01*
X119722000Y-78048000D01*
X119722000Y-78048000D01*
G37*
G36*
X114019674Y-75834465D02*
G01*
X114057367Y-75845899D01*
X114092103Y-75864466D01*
X114122548Y-75889452D01*
X114147534Y-75919897D01*
X114166101Y-75954633D01*
X114177535Y-75992326D01*
X114182000Y-76037661D01*
X114182000Y-77124339D01*
X114177535Y-77169674D01*
X114166101Y-77207367D01*
X114147534Y-77242103D01*
X114122548Y-77272548D01*
X114092103Y-77297534D01*
X114057367Y-77316101D01*
X114019674Y-77327535D01*
X113974339Y-77332000D01*
X113137661Y-77332000D01*
X113092326Y-77327535D01*
X113054633Y-77316101D01*
X113019897Y-77297534D01*
X112989452Y-77272548D01*
X112964466Y-77242103D01*
X112945899Y-77207367D01*
X112934465Y-77169674D01*
X112930000Y-77124339D01*
X112930000Y-76037661D01*
X112934465Y-75992326D01*
X112945899Y-75954633D01*
X112964466Y-75919897D01*
X112989452Y-75889452D01*
X113019897Y-75864466D01*
X113054633Y-75845899D01*
X113092326Y-75834465D01*
X113137661Y-75830000D01*
X113974339Y-75830000D01*
X114019674Y-75834465D01*
X114019674Y-75834465D01*
G37*
G36*
X111969674Y-75834465D02*
G01*
X112007367Y-75845899D01*
X112042103Y-75864466D01*
X112072548Y-75889452D01*
X112097534Y-75919897D01*
X112116101Y-75954633D01*
X112127535Y-75992326D01*
X112132000Y-76037661D01*
X112132000Y-77124339D01*
X112127535Y-77169674D01*
X112116101Y-77207367D01*
X112097534Y-77242103D01*
X112072548Y-77272548D01*
X112042103Y-77297534D01*
X112007367Y-77316101D01*
X111969674Y-77327535D01*
X111924339Y-77332000D01*
X111087661Y-77332000D01*
X111042326Y-77327535D01*
X111004633Y-77316101D01*
X110969897Y-77297534D01*
X110939452Y-77272548D01*
X110914466Y-77242103D01*
X110895899Y-77207367D01*
X110884465Y-77169674D01*
X110880000Y-77124339D01*
X110880000Y-76037661D01*
X110884465Y-75992326D01*
X110895899Y-75954633D01*
X110914466Y-75919897D01*
X110939452Y-75889452D01*
X110969897Y-75864466D01*
X111004633Y-75845899D01*
X111042326Y-75834465D01*
X111087661Y-75830000D01*
X111924339Y-75830000D01*
X111969674Y-75834465D01*
X111969674Y-75834465D01*
G37*
G36*
X116722000Y-77098000D02*
G01*
X114720000Y-77098000D01*
X114720000Y-76196000D01*
X116722000Y-76196000D01*
X116722000Y-77098000D01*
X116722000Y-77098000D01*
G37*
G36*
X64967425Y-75175760D02*
G01*
X64967428Y-75175761D01*
X64967429Y-75175761D01*
X65146693Y-75230140D01*
X65146696Y-75230142D01*
X65146697Y-75230142D01*
X65311903Y-75318446D01*
X65456712Y-75437288D01*
X65575554Y-75582097D01*
X65642235Y-75706849D01*
X65663860Y-75747307D01*
X65716214Y-75919897D01*
X65718240Y-75926575D01*
X65736601Y-76113000D01*
X65718240Y-76299425D01*
X65718239Y-76299428D01*
X65718239Y-76299429D01*
X65663860Y-76478693D01*
X65663858Y-76478696D01*
X65663858Y-76478697D01*
X65575554Y-76643903D01*
X65456712Y-76788712D01*
X65311903Y-76907554D01*
X65146697Y-76995858D01*
X65146693Y-76995860D01*
X64967429Y-77050239D01*
X64967428Y-77050239D01*
X64967425Y-77050240D01*
X64827718Y-77064000D01*
X62934282Y-77064000D01*
X62794575Y-77050240D01*
X62794572Y-77050239D01*
X62794571Y-77050239D01*
X62615307Y-76995860D01*
X62615303Y-76995858D01*
X62450097Y-76907554D01*
X62305288Y-76788712D01*
X62186446Y-76643903D01*
X62098142Y-76478697D01*
X62098142Y-76478696D01*
X62098140Y-76478693D01*
X62043761Y-76299429D01*
X62043761Y-76299428D01*
X62043760Y-76299425D01*
X62025399Y-76113000D01*
X62043760Y-75926575D01*
X62045786Y-75919897D01*
X62098140Y-75747307D01*
X62119765Y-75706849D01*
X62186446Y-75582097D01*
X62305288Y-75437288D01*
X62450097Y-75318446D01*
X62615303Y-75230142D01*
X62615304Y-75230142D01*
X62615307Y-75230140D01*
X62794571Y-75175761D01*
X62794572Y-75175761D01*
X62794575Y-75175760D01*
X62934282Y-75162000D01*
X64827718Y-75162000D01*
X64967425Y-75175760D01*
X64967425Y-75175760D01*
G37*
G36*
X84292674Y-75072465D02*
G01*
X84330367Y-75083899D01*
X84365103Y-75102466D01*
X84395548Y-75127452D01*
X84420534Y-75157897D01*
X84439101Y-75192633D01*
X84450535Y-75230326D01*
X84455000Y-75275661D01*
X84455000Y-76362339D01*
X84450535Y-76407674D01*
X84439101Y-76445367D01*
X84420534Y-76480103D01*
X84395548Y-76510548D01*
X84365103Y-76535534D01*
X84330367Y-76554101D01*
X84292674Y-76565535D01*
X84247339Y-76570000D01*
X83410661Y-76570000D01*
X83365326Y-76565535D01*
X83327633Y-76554101D01*
X83292897Y-76535534D01*
X83262452Y-76510548D01*
X83237466Y-76480103D01*
X83218899Y-76445367D01*
X83207465Y-76407674D01*
X83203000Y-76362339D01*
X83203000Y-75275661D01*
X83207465Y-75230326D01*
X83218899Y-75192633D01*
X83237466Y-75157897D01*
X83262452Y-75127452D01*
X83292897Y-75102466D01*
X83327633Y-75083899D01*
X83365326Y-75072465D01*
X83410661Y-75068000D01*
X84247339Y-75068000D01*
X84292674Y-75072465D01*
X84292674Y-75072465D01*
G37*
G36*
X82242674Y-75072465D02*
G01*
X82280367Y-75083899D01*
X82315103Y-75102466D01*
X82345548Y-75127452D01*
X82370534Y-75157897D01*
X82389101Y-75192633D01*
X82400535Y-75230326D01*
X82405000Y-75275661D01*
X82405000Y-76362339D01*
X82400535Y-76407674D01*
X82389101Y-76445367D01*
X82370534Y-76480103D01*
X82345548Y-76510548D01*
X82315103Y-76535534D01*
X82280367Y-76554101D01*
X82242674Y-76565535D01*
X82197339Y-76570000D01*
X81360661Y-76570000D01*
X81315326Y-76565535D01*
X81277633Y-76554101D01*
X81242897Y-76535534D01*
X81212452Y-76510548D01*
X81187466Y-76480103D01*
X81168899Y-76445367D01*
X81157465Y-76407674D01*
X81153000Y-76362339D01*
X81153000Y-75275661D01*
X81157465Y-75230326D01*
X81168899Y-75192633D01*
X81187466Y-75157897D01*
X81212452Y-75127452D01*
X81242897Y-75102466D01*
X81277633Y-75083899D01*
X81315326Y-75072465D01*
X81360661Y-75068000D01*
X82197339Y-75068000D01*
X82242674Y-75072465D01*
X82242674Y-75072465D01*
G37*
G36*
X123750294Y-74155633D02*
G01*
X123922695Y-74207931D01*
X124081583Y-74292858D01*
X124220849Y-74407151D01*
X124335142Y-74546417D01*
X124420069Y-74705305D01*
X124472367Y-74877706D01*
X124490025Y-75057000D01*
X124472367Y-75236294D01*
X124420069Y-75408695D01*
X124335142Y-75567583D01*
X124220849Y-75706849D01*
X124081583Y-75821142D01*
X123922695Y-75906069D01*
X123750294Y-75958367D01*
X123615931Y-75971600D01*
X123526069Y-75971600D01*
X123391706Y-75958367D01*
X123219305Y-75906069D01*
X123060417Y-75821142D01*
X122921151Y-75706849D01*
X122806858Y-75567583D01*
X122721931Y-75408695D01*
X122669633Y-75236294D01*
X122651975Y-75057000D01*
X122669633Y-74877706D01*
X122721931Y-74705305D01*
X122806858Y-74546417D01*
X122921151Y-74407151D01*
X123060417Y-74292858D01*
X123219305Y-74207931D01*
X123391706Y-74155633D01*
X123526069Y-74142400D01*
X123615931Y-74142400D01*
X123750294Y-74155633D01*
X123750294Y-74155633D01*
G37*
G36*
X126290294Y-74155633D02*
G01*
X126462695Y-74207931D01*
X126621583Y-74292858D01*
X126760849Y-74407151D01*
X126875142Y-74546417D01*
X126960069Y-74705305D01*
X127012367Y-74877706D01*
X127030025Y-75057000D01*
X127012367Y-75236294D01*
X126960069Y-75408695D01*
X126875142Y-75567583D01*
X126760849Y-75706849D01*
X126621583Y-75821142D01*
X126462695Y-75906069D01*
X126290294Y-75958367D01*
X126155931Y-75971600D01*
X126066069Y-75971600D01*
X125931706Y-75958367D01*
X125759305Y-75906069D01*
X125600417Y-75821142D01*
X125461151Y-75706849D01*
X125346858Y-75567583D01*
X125261931Y-75408695D01*
X125209633Y-75236294D01*
X125191975Y-75057000D01*
X125209633Y-74877706D01*
X125261931Y-74705305D01*
X125346858Y-74546417D01*
X125461151Y-74407151D01*
X125600417Y-74292858D01*
X125759305Y-74207931D01*
X125931706Y-74155633D01*
X126066069Y-74142400D01*
X126155931Y-74142400D01*
X126290294Y-74155633D01*
X126290294Y-74155633D01*
G37*
G36*
X114019674Y-73802465D02*
G01*
X114057367Y-73813899D01*
X114092103Y-73832466D01*
X114122548Y-73857452D01*
X114147534Y-73887897D01*
X114166101Y-73922633D01*
X114177535Y-73960326D01*
X114182000Y-74005661D01*
X114182000Y-75092339D01*
X114177535Y-75137674D01*
X114166101Y-75175367D01*
X114147534Y-75210103D01*
X114122548Y-75240548D01*
X114092103Y-75265534D01*
X114057367Y-75284101D01*
X114019674Y-75295535D01*
X113974339Y-75300000D01*
X113137661Y-75300000D01*
X113092326Y-75295535D01*
X113054633Y-75284101D01*
X113019897Y-75265534D01*
X112989452Y-75240548D01*
X112964466Y-75210103D01*
X112945899Y-75175367D01*
X112934465Y-75137674D01*
X112930000Y-75092339D01*
X112930000Y-74005661D01*
X112934465Y-73960326D01*
X112945899Y-73922633D01*
X112964466Y-73887897D01*
X112989452Y-73857452D01*
X113019897Y-73832466D01*
X113054633Y-73813899D01*
X113092326Y-73802465D01*
X113137661Y-73798000D01*
X113974339Y-73798000D01*
X114019674Y-73802465D01*
X114019674Y-73802465D01*
G37*
G36*
X111969674Y-73802465D02*
G01*
X112007367Y-73813899D01*
X112042103Y-73832466D01*
X112072548Y-73857452D01*
X112097534Y-73887897D01*
X112116101Y-73922633D01*
X112127535Y-73960326D01*
X112132000Y-74005661D01*
X112132000Y-75092339D01*
X112127535Y-75137674D01*
X112116101Y-75175367D01*
X112097534Y-75210103D01*
X112072548Y-75240548D01*
X112042103Y-75265534D01*
X112007367Y-75284101D01*
X111969674Y-75295535D01*
X111924339Y-75300000D01*
X111087661Y-75300000D01*
X111042326Y-75295535D01*
X111004633Y-75284101D01*
X110969897Y-75265534D01*
X110939452Y-75240548D01*
X110914466Y-75210103D01*
X110895899Y-75175367D01*
X110884465Y-75137674D01*
X110880000Y-75092339D01*
X110880000Y-74005661D01*
X110884465Y-73960326D01*
X110895899Y-73922633D01*
X110914466Y-73887897D01*
X110939452Y-73857452D01*
X110969897Y-73832466D01*
X111004633Y-73813899D01*
X111042326Y-73802465D01*
X111087661Y-73798000D01*
X111924339Y-73798000D01*
X111969674Y-73802465D01*
X111969674Y-73802465D01*
G37*
G36*
X116722000Y-74934000D02*
G01*
X114720000Y-74934000D01*
X114720000Y-74032000D01*
X116722000Y-74032000D01*
X116722000Y-74934000D01*
X116722000Y-74934000D01*
G37*
G36*
X64967425Y-72675760D02*
G01*
X64967428Y-72675761D01*
X64967429Y-72675761D01*
X65146693Y-72730140D01*
X65146696Y-72730142D01*
X65146697Y-72730142D01*
X65311903Y-72818446D01*
X65456712Y-72937288D01*
X65575554Y-73082097D01*
X65652849Y-73226707D01*
X65663860Y-73247307D01*
X65711581Y-73404624D01*
X65718240Y-73426575D01*
X65736601Y-73613000D01*
X65718240Y-73799425D01*
X65718239Y-73799428D01*
X65718239Y-73799429D01*
X65663860Y-73978693D01*
X65663858Y-73978696D01*
X65663858Y-73978697D01*
X65575554Y-74143903D01*
X65456712Y-74288712D01*
X65311903Y-74407554D01*
X65146697Y-74495858D01*
X65146693Y-74495860D01*
X64967429Y-74550239D01*
X64967428Y-74550239D01*
X64967425Y-74550240D01*
X64827718Y-74564000D01*
X62934282Y-74564000D01*
X62794575Y-74550240D01*
X62794572Y-74550239D01*
X62794571Y-74550239D01*
X62615307Y-74495860D01*
X62615303Y-74495858D01*
X62450097Y-74407554D01*
X62305288Y-74288712D01*
X62186446Y-74143903D01*
X62098142Y-73978697D01*
X62098142Y-73978696D01*
X62098140Y-73978693D01*
X62043761Y-73799429D01*
X62043761Y-73799428D01*
X62043760Y-73799425D01*
X62025399Y-73613000D01*
X62043760Y-73426575D01*
X62050419Y-73404624D01*
X62098140Y-73247307D01*
X62109151Y-73226707D01*
X62186446Y-73082097D01*
X62305288Y-72937288D01*
X62450097Y-72818446D01*
X62615303Y-72730142D01*
X62615304Y-72730142D01*
X62615307Y-72730140D01*
X62794571Y-72675761D01*
X62794572Y-72675761D01*
X62794575Y-72675760D01*
X62934282Y-72662000D01*
X64827718Y-72662000D01*
X64967425Y-72675760D01*
X64967425Y-72675760D01*
G37*
G36*
X83403674Y-73040465D02*
G01*
X83441367Y-73051899D01*
X83476103Y-73070466D01*
X83506548Y-73095452D01*
X83531534Y-73125897D01*
X83550101Y-73160633D01*
X83561535Y-73198326D01*
X83566000Y-73243661D01*
X83566000Y-74330339D01*
X83561535Y-74375674D01*
X83550101Y-74413367D01*
X83531534Y-74448103D01*
X83506548Y-74478548D01*
X83476103Y-74503534D01*
X83441367Y-74522101D01*
X83403674Y-74533535D01*
X83358339Y-74538000D01*
X82521661Y-74538000D01*
X82476326Y-74533535D01*
X82438633Y-74522101D01*
X82403897Y-74503534D01*
X82373452Y-74478548D01*
X82348466Y-74448103D01*
X82329899Y-74413367D01*
X82318465Y-74375674D01*
X82314000Y-74330339D01*
X82314000Y-73243661D01*
X82318465Y-73198326D01*
X82329899Y-73160633D01*
X82348466Y-73125897D01*
X82373452Y-73095452D01*
X82403897Y-73070466D01*
X82438633Y-73051899D01*
X82476326Y-73040465D01*
X82521661Y-73036000D01*
X83358339Y-73036000D01*
X83403674Y-73040465D01*
X83403674Y-73040465D01*
G37*
G36*
X81353674Y-73040465D02*
G01*
X81391367Y-73051899D01*
X81426103Y-73070466D01*
X81456548Y-73095452D01*
X81481534Y-73125897D01*
X81500101Y-73160633D01*
X81511535Y-73198326D01*
X81516000Y-73243661D01*
X81516000Y-74330339D01*
X81511535Y-74375674D01*
X81500101Y-74413367D01*
X81481534Y-74448103D01*
X81456548Y-74478548D01*
X81426103Y-74503534D01*
X81391367Y-74522101D01*
X81353674Y-74533535D01*
X81308339Y-74538000D01*
X80471661Y-74538000D01*
X80426326Y-74533535D01*
X80388633Y-74522101D01*
X80353897Y-74503534D01*
X80323452Y-74478548D01*
X80298466Y-74448103D01*
X80279899Y-74413367D01*
X80268465Y-74375674D01*
X80264000Y-74330339D01*
X80264000Y-73243661D01*
X80268465Y-73198326D01*
X80279899Y-73160633D01*
X80298466Y-73125897D01*
X80323452Y-73095452D01*
X80353897Y-73070466D01*
X80388633Y-73051899D01*
X80426326Y-73040465D01*
X80471661Y-73036000D01*
X81308339Y-73036000D01*
X81353674Y-73040465D01*
X81353674Y-73040465D01*
G37*
G36*
X132232600Y-74320600D02*
G01*
X130403400Y-74320600D01*
X130403400Y-72491400D01*
X132232600Y-72491400D01*
X132232600Y-74320600D01*
X132232600Y-74320600D01*
G37*
G36*
X134037294Y-72504633D02*
G01*
X134209695Y-72556931D01*
X134368583Y-72641858D01*
X134507849Y-72756151D01*
X134622142Y-72895417D01*
X134707069Y-73054305D01*
X134759367Y-73226706D01*
X134777025Y-73406000D01*
X134759367Y-73585294D01*
X134707069Y-73757695D01*
X134622142Y-73916583D01*
X134507849Y-74055849D01*
X134368583Y-74170142D01*
X134209695Y-74255069D01*
X134037294Y-74307367D01*
X133902931Y-74320600D01*
X133813069Y-74320600D01*
X133678706Y-74307367D01*
X133506305Y-74255069D01*
X133347417Y-74170142D01*
X133208151Y-74055849D01*
X133093858Y-73916583D01*
X133008931Y-73757695D01*
X132956633Y-73585294D01*
X132938975Y-73406000D01*
X132956633Y-73226706D01*
X133008931Y-73054305D01*
X133093858Y-72895417D01*
X133208151Y-72756151D01*
X133347417Y-72641858D01*
X133506305Y-72556931D01*
X133678706Y-72504633D01*
X133813069Y-72491400D01*
X133902931Y-72491400D01*
X134037294Y-72504633D01*
X134037294Y-72504633D01*
G37*
G36*
X119722000Y-73984000D02*
G01*
X117720000Y-73984000D01*
X117720000Y-73082000D01*
X119722000Y-73082000D01*
X119722000Y-73984000D01*
X119722000Y-73984000D01*
G37*
G36*
X99201562Y-71722181D02*
G01*
X99236481Y-71732774D01*
X99268663Y-71749976D01*
X99296873Y-71773127D01*
X99320024Y-71801337D01*
X99337226Y-71833519D01*
X99347819Y-71868438D01*
X99352000Y-71910895D01*
X99352000Y-73377105D01*
X99347819Y-73419562D01*
X99337226Y-73454481D01*
X99320024Y-73486663D01*
X99296873Y-73514873D01*
X99268663Y-73538024D01*
X99236481Y-73555226D01*
X99201562Y-73565819D01*
X99159105Y-73570000D01*
X98017895Y-73570000D01*
X97975438Y-73565819D01*
X97940519Y-73555226D01*
X97908337Y-73538024D01*
X97880127Y-73514873D01*
X97856976Y-73486663D01*
X97839774Y-73454481D01*
X97829181Y-73419562D01*
X97825000Y-73377105D01*
X97825000Y-71910895D01*
X97829181Y-71868438D01*
X97839774Y-71833519D01*
X97856976Y-71801337D01*
X97880127Y-71773127D01*
X97908337Y-71749976D01*
X97940519Y-71732774D01*
X97975438Y-71722181D01*
X98017895Y-71718000D01*
X99159105Y-71718000D01*
X99201562Y-71722181D01*
X99201562Y-71722181D01*
G37*
G36*
X102176562Y-71722181D02*
G01*
X102211481Y-71732774D01*
X102243663Y-71749976D01*
X102271873Y-71773127D01*
X102295024Y-71801337D01*
X102312226Y-71833519D01*
X102322819Y-71868438D01*
X102327000Y-71910895D01*
X102327000Y-73377105D01*
X102322819Y-73419562D01*
X102312226Y-73454481D01*
X102295024Y-73486663D01*
X102271873Y-73514873D01*
X102243663Y-73538024D01*
X102211481Y-73555226D01*
X102176562Y-73565819D01*
X102134105Y-73570000D01*
X100992895Y-73570000D01*
X100950438Y-73565819D01*
X100915519Y-73555226D01*
X100883337Y-73538024D01*
X100855127Y-73514873D01*
X100831976Y-73486663D01*
X100814774Y-73454481D01*
X100804181Y-73419562D01*
X100800000Y-73377105D01*
X100800000Y-71910895D01*
X100804181Y-71868438D01*
X100814774Y-71833519D01*
X100831976Y-71801337D01*
X100855127Y-71773127D01*
X100883337Y-71749976D01*
X100915519Y-71732774D01*
X100950438Y-71722181D01*
X100992895Y-71718000D01*
X102134105Y-71718000D01*
X102176562Y-71722181D01*
X102176562Y-71722181D01*
G37*
G36*
X123750294Y-71615633D02*
G01*
X123922695Y-71667931D01*
X124081583Y-71752858D01*
X124220849Y-71867151D01*
X124335142Y-72006417D01*
X124420069Y-72165305D01*
X124472367Y-72337706D01*
X124490025Y-72517000D01*
X124472367Y-72696294D01*
X124420069Y-72868695D01*
X124335142Y-73027583D01*
X124220849Y-73166849D01*
X124081583Y-73281142D01*
X123922695Y-73366069D01*
X123750294Y-73418367D01*
X123615931Y-73431600D01*
X123526069Y-73431600D01*
X123391706Y-73418367D01*
X123219305Y-73366069D01*
X123060417Y-73281142D01*
X122921151Y-73166849D01*
X122806858Y-73027583D01*
X122721931Y-72868695D01*
X122669633Y-72696294D01*
X122651975Y-72517000D01*
X122669633Y-72337706D01*
X122721931Y-72165305D01*
X122806858Y-72006417D01*
X122921151Y-71867151D01*
X123060417Y-71752858D01*
X123219305Y-71667931D01*
X123391706Y-71615633D01*
X123526069Y-71602400D01*
X123615931Y-71602400D01*
X123750294Y-71615633D01*
X123750294Y-71615633D01*
G37*
G36*
X126290294Y-71615633D02*
G01*
X126462695Y-71667931D01*
X126621583Y-71752858D01*
X126760849Y-71867151D01*
X126875142Y-72006417D01*
X126960069Y-72165305D01*
X127012367Y-72337706D01*
X127030025Y-72517000D01*
X127012367Y-72696294D01*
X126960069Y-72868695D01*
X126875142Y-73027583D01*
X126760849Y-73166849D01*
X126621583Y-73281142D01*
X126462695Y-73366069D01*
X126290294Y-73418367D01*
X126155931Y-73431600D01*
X126066069Y-73431600D01*
X125931706Y-73418367D01*
X125759305Y-73366069D01*
X125600417Y-73281142D01*
X125461151Y-73166849D01*
X125346858Y-73027583D01*
X125261931Y-72868695D01*
X125209633Y-72696294D01*
X125191975Y-72517000D01*
X125209633Y-72337706D01*
X125261931Y-72165305D01*
X125346858Y-72006417D01*
X125461151Y-71867151D01*
X125600417Y-71752858D01*
X125759305Y-71667931D01*
X125931706Y-71615633D01*
X126066069Y-71602400D01*
X126155931Y-71602400D01*
X126290294Y-71615633D01*
X126290294Y-71615633D01*
G37*
G36*
X114019674Y-71770465D02*
G01*
X114057367Y-71781899D01*
X114092103Y-71800466D01*
X114122548Y-71825452D01*
X114147534Y-71855897D01*
X114166101Y-71890633D01*
X114177535Y-71928326D01*
X114182000Y-71973661D01*
X114182000Y-73060339D01*
X114177535Y-73105674D01*
X114166101Y-73143367D01*
X114147534Y-73178103D01*
X114122548Y-73208548D01*
X114092103Y-73233534D01*
X114057367Y-73252101D01*
X114019674Y-73263535D01*
X113974339Y-73268000D01*
X113137661Y-73268000D01*
X113092326Y-73263535D01*
X113054633Y-73252101D01*
X113019897Y-73233534D01*
X112989452Y-73208548D01*
X112964466Y-73178103D01*
X112945899Y-73143367D01*
X112934465Y-73105674D01*
X112930000Y-73060339D01*
X112930000Y-71973661D01*
X112934465Y-71928326D01*
X112945899Y-71890633D01*
X112964466Y-71855897D01*
X112989452Y-71825452D01*
X113019897Y-71800466D01*
X113054633Y-71781899D01*
X113092326Y-71770465D01*
X113137661Y-71766000D01*
X113974339Y-71766000D01*
X114019674Y-71770465D01*
X114019674Y-71770465D01*
G37*
G36*
X111969674Y-71770465D02*
G01*
X112007367Y-71781899D01*
X112042103Y-71800466D01*
X112072548Y-71825452D01*
X112097534Y-71855897D01*
X112116101Y-71890633D01*
X112127535Y-71928326D01*
X112132000Y-71973661D01*
X112132000Y-73060339D01*
X112127535Y-73105674D01*
X112116101Y-73143367D01*
X112097534Y-73178103D01*
X112072548Y-73208548D01*
X112042103Y-73233534D01*
X112007367Y-73252101D01*
X111969674Y-73263535D01*
X111924339Y-73268000D01*
X111087661Y-73268000D01*
X111042326Y-73263535D01*
X111004633Y-73252101D01*
X110969897Y-73233534D01*
X110939452Y-73208548D01*
X110914466Y-73178103D01*
X110895899Y-73143367D01*
X110884465Y-73105674D01*
X110880000Y-73060339D01*
X110880000Y-71973661D01*
X110884465Y-71928326D01*
X110895899Y-71890633D01*
X110914466Y-71855897D01*
X110939452Y-71825452D01*
X110969897Y-71800466D01*
X111004633Y-71781899D01*
X111042326Y-71770465D01*
X111087661Y-71766000D01*
X111924339Y-71766000D01*
X111969674Y-71770465D01*
X111969674Y-71770465D01*
G37*
G36*
X116722000Y-73034000D02*
G01*
X114720000Y-73034000D01*
X114720000Y-72132000D01*
X116722000Y-72132000D01*
X116722000Y-73034000D01*
X116722000Y-73034000D01*
G37*
G36*
X73264838Y-67003055D02*
G01*
X73298528Y-67013275D01*
X73329576Y-67029871D01*
X73356793Y-67052207D01*
X73379129Y-67079424D01*
X73395725Y-67110472D01*
X73405945Y-67144162D01*
X73410000Y-67185339D01*
X73410000Y-72514661D01*
X73405945Y-72555838D01*
X73395725Y-72589528D01*
X73379129Y-72620576D01*
X73356793Y-72647793D01*
X73329576Y-72670129D01*
X73298528Y-72686725D01*
X73264838Y-72696945D01*
X73223661Y-72701000D01*
X70794339Y-72701000D01*
X70753162Y-72696945D01*
X70719472Y-72686725D01*
X70688424Y-72670129D01*
X70661207Y-72647793D01*
X70638871Y-72620576D01*
X70622275Y-72589528D01*
X70612055Y-72555838D01*
X70608000Y-72514661D01*
X70608000Y-67185339D01*
X70612055Y-67144162D01*
X70622275Y-67110472D01*
X70638871Y-67079424D01*
X70661207Y-67052207D01*
X70688424Y-67029871D01*
X70719472Y-67013275D01*
X70753162Y-67003055D01*
X70794339Y-66999000D01*
X73223661Y-66999000D01*
X73264838Y-67003055D01*
X73264838Y-67003055D01*
G37*
G36*
X83403674Y-71008465D02*
G01*
X83441367Y-71019899D01*
X83476103Y-71038466D01*
X83506548Y-71063452D01*
X83531534Y-71093897D01*
X83550101Y-71128633D01*
X83561535Y-71166326D01*
X83566000Y-71211661D01*
X83566000Y-72298339D01*
X83561535Y-72343674D01*
X83550101Y-72381367D01*
X83531534Y-72416103D01*
X83506548Y-72446548D01*
X83476103Y-72471534D01*
X83441367Y-72490101D01*
X83403674Y-72501535D01*
X83358339Y-72506000D01*
X82521661Y-72506000D01*
X82476326Y-72501535D01*
X82438633Y-72490101D01*
X82403897Y-72471534D01*
X82373452Y-72446548D01*
X82348466Y-72416103D01*
X82329899Y-72381367D01*
X82318465Y-72343674D01*
X82314000Y-72298339D01*
X82314000Y-71211661D01*
X82318465Y-71166326D01*
X82329899Y-71128633D01*
X82348466Y-71093897D01*
X82373452Y-71063452D01*
X82403897Y-71038466D01*
X82438633Y-71019899D01*
X82476326Y-71008465D01*
X82521661Y-71004000D01*
X83358339Y-71004000D01*
X83403674Y-71008465D01*
X83403674Y-71008465D01*
G37*
G36*
X81353674Y-71008465D02*
G01*
X81391367Y-71019899D01*
X81426103Y-71038466D01*
X81456548Y-71063452D01*
X81481534Y-71093897D01*
X81500101Y-71128633D01*
X81511535Y-71166326D01*
X81516000Y-71211661D01*
X81516000Y-72298339D01*
X81511535Y-72343674D01*
X81500101Y-72381367D01*
X81481534Y-72416103D01*
X81456548Y-72446548D01*
X81426103Y-72471534D01*
X81391367Y-72490101D01*
X81353674Y-72501535D01*
X81308339Y-72506000D01*
X80471661Y-72506000D01*
X80426326Y-72501535D01*
X80388633Y-72490101D01*
X80353897Y-72471534D01*
X80323452Y-72446548D01*
X80298466Y-72416103D01*
X80279899Y-72381367D01*
X80268465Y-72343674D01*
X80264000Y-72298339D01*
X80264000Y-71211661D01*
X80268465Y-71166326D01*
X80279899Y-71128633D01*
X80298466Y-71093897D01*
X80323452Y-71063452D01*
X80353897Y-71038466D01*
X80388633Y-71019899D01*
X80426326Y-71008465D01*
X80471661Y-71004000D01*
X81308339Y-71004000D01*
X81353674Y-71008465D01*
X81353674Y-71008465D01*
G37*
G36*
X64967425Y-70175760D02*
G01*
X64967428Y-70175761D01*
X64967429Y-70175761D01*
X65146693Y-70230140D01*
X65146696Y-70230142D01*
X65146697Y-70230142D01*
X65311903Y-70318446D01*
X65456712Y-70437288D01*
X65575554Y-70582097D01*
X65660564Y-70741141D01*
X65663860Y-70747307D01*
X65718239Y-70926571D01*
X65718240Y-70926575D01*
X65736601Y-71113000D01*
X65718240Y-71299425D01*
X65718239Y-71299428D01*
X65718239Y-71299429D01*
X65663860Y-71478693D01*
X65663858Y-71478696D01*
X65663858Y-71478697D01*
X65575554Y-71643903D01*
X65456712Y-71788712D01*
X65311903Y-71907554D01*
X65146697Y-71995858D01*
X65146693Y-71995860D01*
X64967429Y-72050239D01*
X64967428Y-72050239D01*
X64967425Y-72050240D01*
X64827718Y-72064000D01*
X62934282Y-72064000D01*
X62794575Y-72050240D01*
X62794572Y-72050239D01*
X62794571Y-72050239D01*
X62615307Y-71995860D01*
X62615303Y-71995858D01*
X62450097Y-71907554D01*
X62305288Y-71788712D01*
X62186446Y-71643903D01*
X62098142Y-71478697D01*
X62098142Y-71478696D01*
X62098140Y-71478693D01*
X62043761Y-71299429D01*
X62043761Y-71299428D01*
X62043760Y-71299425D01*
X62025399Y-71113000D01*
X62043760Y-70926575D01*
X62043761Y-70926571D01*
X62098140Y-70747307D01*
X62101436Y-70741141D01*
X62186446Y-70582097D01*
X62305288Y-70437288D01*
X62450097Y-70318446D01*
X62615303Y-70230142D01*
X62615304Y-70230142D01*
X62615307Y-70230140D01*
X62794571Y-70175761D01*
X62794572Y-70175761D01*
X62794575Y-70175760D01*
X62934282Y-70162000D01*
X64827718Y-70162000D01*
X64967425Y-70175760D01*
X64967425Y-70175760D01*
G37*
G36*
X131497294Y-69964633D02*
G01*
X131669695Y-70016931D01*
X131828583Y-70101858D01*
X131967849Y-70216151D01*
X132082142Y-70355417D01*
X132167069Y-70514305D01*
X132219367Y-70686706D01*
X132237025Y-70866000D01*
X132219367Y-71045294D01*
X132167069Y-71217695D01*
X132082142Y-71376583D01*
X131967849Y-71515849D01*
X131828583Y-71630142D01*
X131669695Y-71715069D01*
X131497294Y-71767367D01*
X131362931Y-71780600D01*
X131273069Y-71780600D01*
X131138706Y-71767367D01*
X130966305Y-71715069D01*
X130807417Y-71630142D01*
X130668151Y-71515849D01*
X130553858Y-71376583D01*
X130468931Y-71217695D01*
X130416633Y-71045294D01*
X130398975Y-70866000D01*
X130416633Y-70686706D01*
X130468931Y-70514305D01*
X130553858Y-70355417D01*
X130668151Y-70216151D01*
X130807417Y-70101858D01*
X130966305Y-70016931D01*
X131138706Y-69964633D01*
X131273069Y-69951400D01*
X131362931Y-69951400D01*
X131497294Y-69964633D01*
X131497294Y-69964633D01*
G37*
G36*
X134037294Y-69964633D02*
G01*
X134209695Y-70016931D01*
X134368583Y-70101858D01*
X134507849Y-70216151D01*
X134622142Y-70355417D01*
X134707069Y-70514305D01*
X134759367Y-70686706D01*
X134777025Y-70866000D01*
X134759367Y-71045294D01*
X134707069Y-71217695D01*
X134622142Y-71376583D01*
X134507849Y-71515849D01*
X134368583Y-71630142D01*
X134209695Y-71715069D01*
X134037294Y-71767367D01*
X133902931Y-71780600D01*
X133813069Y-71780600D01*
X133678706Y-71767367D01*
X133506305Y-71715069D01*
X133347417Y-71630142D01*
X133208151Y-71515849D01*
X133093858Y-71376583D01*
X133008931Y-71217695D01*
X132956633Y-71045294D01*
X132938975Y-70866000D01*
X132956633Y-70686706D01*
X133008931Y-70514305D01*
X133093858Y-70355417D01*
X133208151Y-70216151D01*
X133347417Y-70101858D01*
X133506305Y-70016931D01*
X133678706Y-69964633D01*
X133813069Y-69951400D01*
X133902931Y-69951400D01*
X134037294Y-69964633D01*
X134037294Y-69964633D01*
G37*
G36*
X111969674Y-69738465D02*
G01*
X112007367Y-69749899D01*
X112042103Y-69768466D01*
X112072548Y-69793452D01*
X112097534Y-69823897D01*
X112116101Y-69858633D01*
X112127535Y-69896326D01*
X112132000Y-69941661D01*
X112132000Y-71028339D01*
X112127535Y-71073674D01*
X112116101Y-71111367D01*
X112097534Y-71146103D01*
X112072548Y-71176548D01*
X112042103Y-71201534D01*
X112007367Y-71220101D01*
X111969674Y-71231535D01*
X111924339Y-71236000D01*
X111087661Y-71236000D01*
X111042326Y-71231535D01*
X111004633Y-71220101D01*
X110969897Y-71201534D01*
X110939452Y-71176548D01*
X110914466Y-71146103D01*
X110895899Y-71111367D01*
X110884465Y-71073674D01*
X110880000Y-71028339D01*
X110880000Y-69941661D01*
X110884465Y-69896326D01*
X110895899Y-69858633D01*
X110914466Y-69823897D01*
X110939452Y-69793452D01*
X110969897Y-69768466D01*
X111004633Y-69749899D01*
X111042326Y-69738465D01*
X111087661Y-69734000D01*
X111924339Y-69734000D01*
X111969674Y-69738465D01*
X111969674Y-69738465D01*
G37*
G36*
X114019674Y-69738465D02*
G01*
X114057367Y-69749899D01*
X114092103Y-69768466D01*
X114122548Y-69793452D01*
X114147534Y-69823897D01*
X114166101Y-69858633D01*
X114177535Y-69896326D01*
X114182000Y-69941661D01*
X114182000Y-71028339D01*
X114177535Y-71073674D01*
X114166101Y-71111367D01*
X114147534Y-71146103D01*
X114122548Y-71176548D01*
X114092103Y-71201534D01*
X114057367Y-71220101D01*
X114019674Y-71231535D01*
X113974339Y-71236000D01*
X113137661Y-71236000D01*
X113092326Y-71231535D01*
X113054633Y-71220101D01*
X113019897Y-71201534D01*
X112989452Y-71176548D01*
X112964466Y-71146103D01*
X112945899Y-71111367D01*
X112934465Y-71073674D01*
X112930000Y-71028339D01*
X112930000Y-69941661D01*
X112934465Y-69896326D01*
X112945899Y-69858633D01*
X112964466Y-69823897D01*
X112989452Y-69793452D01*
X113019897Y-69768466D01*
X113054633Y-69749899D01*
X113092326Y-69738465D01*
X113137661Y-69734000D01*
X113974339Y-69734000D01*
X114019674Y-69738465D01*
X114019674Y-69738465D01*
G37*
G36*
X123750294Y-69075633D02*
G01*
X123922695Y-69127931D01*
X124081583Y-69212858D01*
X124220849Y-69327151D01*
X124335142Y-69466417D01*
X124420069Y-69625305D01*
X124472367Y-69797706D01*
X124490025Y-69977000D01*
X124472367Y-70156294D01*
X124420069Y-70328695D01*
X124335142Y-70487583D01*
X124220849Y-70626849D01*
X124081583Y-70741142D01*
X123922695Y-70826069D01*
X123750294Y-70878367D01*
X123615931Y-70891600D01*
X123526069Y-70891600D01*
X123391706Y-70878367D01*
X123219305Y-70826069D01*
X123060417Y-70741142D01*
X122921151Y-70626849D01*
X122806858Y-70487583D01*
X122721931Y-70328695D01*
X122669633Y-70156294D01*
X122651975Y-69977000D01*
X122669633Y-69797706D01*
X122721931Y-69625305D01*
X122806858Y-69466417D01*
X122921151Y-69327151D01*
X123060417Y-69212858D01*
X123219305Y-69127931D01*
X123391706Y-69075633D01*
X123526069Y-69062400D01*
X123615931Y-69062400D01*
X123750294Y-69075633D01*
X123750294Y-69075633D01*
G37*
G36*
X126290294Y-69075633D02*
G01*
X126462695Y-69127931D01*
X126621583Y-69212858D01*
X126760849Y-69327151D01*
X126875142Y-69466417D01*
X126960069Y-69625305D01*
X127012367Y-69797706D01*
X127030025Y-69977000D01*
X127012367Y-70156294D01*
X126960069Y-70328695D01*
X126875142Y-70487583D01*
X126760849Y-70626849D01*
X126621583Y-70741142D01*
X126462695Y-70826069D01*
X126290294Y-70878367D01*
X126155931Y-70891600D01*
X126066069Y-70891600D01*
X125931706Y-70878367D01*
X125759305Y-70826069D01*
X125600417Y-70741142D01*
X125461151Y-70626849D01*
X125346858Y-70487583D01*
X125261931Y-70328695D01*
X125209633Y-70156294D01*
X125191975Y-69977000D01*
X125209633Y-69797706D01*
X125261931Y-69625305D01*
X125346858Y-69466417D01*
X125461151Y-69327151D01*
X125600417Y-69212858D01*
X125759305Y-69127931D01*
X125931706Y-69075633D01*
X126066069Y-69062400D01*
X126155931Y-69062400D01*
X126290294Y-69075633D01*
X126290294Y-69075633D01*
G37*
G36*
X116722000Y-70870000D02*
G01*
X114720000Y-70870000D01*
X114720000Y-69968000D01*
X116722000Y-69968000D01*
X116722000Y-70870000D01*
X116722000Y-70870000D01*
G37*
G36*
X119722000Y-69920000D02*
G01*
X117720000Y-69920000D01*
X117720000Y-69018000D01*
X119722000Y-69018000D01*
X119722000Y-69920000D01*
X119722000Y-69920000D01*
G37*
G36*
X64967425Y-67675760D02*
G01*
X64967428Y-67675761D01*
X64967429Y-67675761D01*
X65146693Y-67730140D01*
X65146696Y-67730142D01*
X65146697Y-67730142D01*
X65311903Y-67818446D01*
X65456712Y-67937288D01*
X65575554Y-68082097D01*
X65663858Y-68247303D01*
X65663860Y-68247307D01*
X65687731Y-68326000D01*
X65718240Y-68426575D01*
X65736601Y-68613000D01*
X65718240Y-68799425D01*
X65718239Y-68799428D01*
X65718239Y-68799429D01*
X65663860Y-68978693D01*
X65663858Y-68978696D01*
X65663858Y-68978697D01*
X65575554Y-69143903D01*
X65456712Y-69288712D01*
X65311903Y-69407554D01*
X65146697Y-69495858D01*
X65146693Y-69495860D01*
X64967429Y-69550239D01*
X64967428Y-69550239D01*
X64967425Y-69550240D01*
X64827718Y-69564000D01*
X62934282Y-69564000D01*
X62794575Y-69550240D01*
X62794572Y-69550239D01*
X62794571Y-69550239D01*
X62615307Y-69495860D01*
X62615303Y-69495858D01*
X62450097Y-69407554D01*
X62305288Y-69288712D01*
X62186446Y-69143903D01*
X62098142Y-68978697D01*
X62098142Y-68978696D01*
X62098140Y-68978693D01*
X62043761Y-68799429D01*
X62043761Y-68799428D01*
X62043760Y-68799425D01*
X62025399Y-68613000D01*
X62043760Y-68426575D01*
X62074269Y-68326000D01*
X62098140Y-68247307D01*
X62098142Y-68247303D01*
X62186446Y-68082097D01*
X62305288Y-67937288D01*
X62450097Y-67818446D01*
X62615303Y-67730142D01*
X62615304Y-67730142D01*
X62615307Y-67730140D01*
X62794571Y-67675761D01*
X62794572Y-67675761D01*
X62794575Y-67675760D01*
X62934282Y-67662000D01*
X64827718Y-67662000D01*
X64967425Y-67675760D01*
X64967425Y-67675760D01*
G37*
G36*
X131497294Y-67424633D02*
G01*
X131669695Y-67476931D01*
X131828583Y-67561858D01*
X131967849Y-67676151D01*
X132082142Y-67815417D01*
X132167069Y-67974305D01*
X132219367Y-68146706D01*
X132237025Y-68326000D01*
X132219367Y-68505294D01*
X132167069Y-68677695D01*
X132082142Y-68836583D01*
X131967849Y-68975849D01*
X131828583Y-69090142D01*
X131669695Y-69175069D01*
X131497294Y-69227367D01*
X131362931Y-69240600D01*
X131273069Y-69240600D01*
X131138706Y-69227367D01*
X130966305Y-69175069D01*
X130807417Y-69090142D01*
X130668151Y-68975849D01*
X130553858Y-68836583D01*
X130468931Y-68677695D01*
X130416633Y-68505294D01*
X130398975Y-68326000D01*
X130416633Y-68146706D01*
X130468931Y-67974305D01*
X130553858Y-67815417D01*
X130668151Y-67676151D01*
X130807417Y-67561858D01*
X130966305Y-67476931D01*
X131138706Y-67424633D01*
X131273069Y-67411400D01*
X131362931Y-67411400D01*
X131497294Y-67424633D01*
X131497294Y-67424633D01*
G37*
G36*
X134037294Y-67424633D02*
G01*
X134209695Y-67476931D01*
X134368583Y-67561858D01*
X134507849Y-67676151D01*
X134622142Y-67815417D01*
X134707069Y-67974305D01*
X134759367Y-68146706D01*
X134777025Y-68326000D01*
X134759367Y-68505294D01*
X134707069Y-68677695D01*
X134622142Y-68836583D01*
X134507849Y-68975849D01*
X134368583Y-69090142D01*
X134209695Y-69175069D01*
X134037294Y-69227367D01*
X133902931Y-69240600D01*
X133813069Y-69240600D01*
X133678706Y-69227367D01*
X133506305Y-69175069D01*
X133347417Y-69090142D01*
X133208151Y-68975849D01*
X133093858Y-68836583D01*
X133008931Y-68677695D01*
X132956633Y-68505294D01*
X132938975Y-68326000D01*
X132956633Y-68146706D01*
X133008931Y-67974305D01*
X133093858Y-67815417D01*
X133208151Y-67676151D01*
X133347417Y-67561858D01*
X133506305Y-67476931D01*
X133678706Y-67424633D01*
X133813069Y-67411400D01*
X133902931Y-67411400D01*
X134037294Y-67424633D01*
X134037294Y-67424633D01*
G37*
G36*
X114019674Y-67706465D02*
G01*
X114057367Y-67717899D01*
X114092103Y-67736466D01*
X114122548Y-67761452D01*
X114147534Y-67791897D01*
X114166101Y-67826633D01*
X114177535Y-67864326D01*
X114182000Y-67909661D01*
X114182000Y-68996339D01*
X114177535Y-69041674D01*
X114166101Y-69079367D01*
X114147534Y-69114103D01*
X114122548Y-69144548D01*
X114092103Y-69169534D01*
X114057367Y-69188101D01*
X114019674Y-69199535D01*
X113974339Y-69204000D01*
X113137661Y-69204000D01*
X113092326Y-69199535D01*
X113054633Y-69188101D01*
X113019897Y-69169534D01*
X112989452Y-69144548D01*
X112964466Y-69114103D01*
X112945899Y-69079367D01*
X112934465Y-69041674D01*
X112930000Y-68996339D01*
X112930000Y-67909661D01*
X112934465Y-67864326D01*
X112945899Y-67826633D01*
X112964466Y-67791897D01*
X112989452Y-67761452D01*
X113019897Y-67736466D01*
X113054633Y-67717899D01*
X113092326Y-67706465D01*
X113137661Y-67702000D01*
X113974339Y-67702000D01*
X114019674Y-67706465D01*
X114019674Y-67706465D01*
G37*
G36*
X111969674Y-67706465D02*
G01*
X112007367Y-67717899D01*
X112042103Y-67736466D01*
X112072548Y-67761452D01*
X112097534Y-67791897D01*
X112116101Y-67826633D01*
X112127535Y-67864326D01*
X112132000Y-67909661D01*
X112132000Y-68996339D01*
X112127535Y-69041674D01*
X112116101Y-69079367D01*
X112097534Y-69114103D01*
X112072548Y-69144548D01*
X112042103Y-69169534D01*
X112007367Y-69188101D01*
X111969674Y-69199535D01*
X111924339Y-69204000D01*
X111087661Y-69204000D01*
X111042326Y-69199535D01*
X111004633Y-69188101D01*
X110969897Y-69169534D01*
X110939452Y-69144548D01*
X110914466Y-69114103D01*
X110895899Y-69079367D01*
X110884465Y-69041674D01*
X110880000Y-68996339D01*
X110880000Y-67909661D01*
X110884465Y-67864326D01*
X110895899Y-67826633D01*
X110914466Y-67791897D01*
X110939452Y-67761452D01*
X110969897Y-67736466D01*
X111004633Y-67717899D01*
X111042326Y-67706465D01*
X111087661Y-67702000D01*
X111924339Y-67702000D01*
X111969674Y-67706465D01*
X111969674Y-67706465D01*
G37*
G36*
X116722000Y-68970000D02*
G01*
X114720000Y-68970000D01*
X114720000Y-68068000D01*
X116722000Y-68068000D01*
X116722000Y-68970000D01*
X116722000Y-68970000D01*
G37*
G36*
X142158015Y-66776973D02*
G01*
X142261879Y-66808479D01*
X142289055Y-66823005D01*
X142357600Y-66859643D01*
X142441501Y-66928499D01*
X142510357Y-67012400D01*
X142546182Y-67079424D01*
X142561521Y-67108121D01*
X142593027Y-67211985D01*
X142603666Y-67320000D01*
X142593027Y-67428015D01*
X142561521Y-67531879D01*
X142561519Y-67531882D01*
X142510357Y-67627600D01*
X142441501Y-67711501D01*
X142357600Y-67780357D01*
X142292007Y-67815417D01*
X142261879Y-67831521D01*
X142158015Y-67863027D01*
X142077067Y-67871000D01*
X141422933Y-67871000D01*
X141341985Y-67863027D01*
X141238121Y-67831521D01*
X141207993Y-67815417D01*
X141142400Y-67780357D01*
X141058499Y-67711501D01*
X140989643Y-67627600D01*
X140938481Y-67531882D01*
X140938479Y-67531879D01*
X140906973Y-67428015D01*
X140896334Y-67320000D01*
X140906973Y-67211985D01*
X140938479Y-67108121D01*
X140953818Y-67079424D01*
X140989643Y-67012400D01*
X141058499Y-66928499D01*
X141142400Y-66859643D01*
X141210945Y-66823005D01*
X141238121Y-66808479D01*
X141341985Y-66776973D01*
X141422933Y-66769000D01*
X142077067Y-66769000D01*
X142158015Y-66776973D01*
X142158015Y-66776973D01*
G37*
G36*
X138228015Y-66776973D02*
G01*
X138331879Y-66808479D01*
X138359055Y-66823005D01*
X138427600Y-66859643D01*
X138511501Y-66928499D01*
X138580357Y-67012400D01*
X138616182Y-67079424D01*
X138631521Y-67108121D01*
X138663027Y-67211985D01*
X138673666Y-67320000D01*
X138663027Y-67428015D01*
X138631521Y-67531879D01*
X138631519Y-67531882D01*
X138580357Y-67627600D01*
X138511501Y-67711501D01*
X138427600Y-67780357D01*
X138362007Y-67815417D01*
X138331879Y-67831521D01*
X138228015Y-67863027D01*
X138147067Y-67871000D01*
X136992933Y-67871000D01*
X136911985Y-67863027D01*
X136808121Y-67831521D01*
X136777993Y-67815417D01*
X136712400Y-67780357D01*
X136628499Y-67711501D01*
X136559643Y-67627600D01*
X136508481Y-67531882D01*
X136508479Y-67531879D01*
X136476973Y-67428015D01*
X136466334Y-67320000D01*
X136476973Y-67211985D01*
X136508479Y-67108121D01*
X136523818Y-67079424D01*
X136559643Y-67012400D01*
X136628499Y-66928499D01*
X136712400Y-66859643D01*
X136780945Y-66823005D01*
X136808121Y-66808479D01*
X136911985Y-66776973D01*
X136992933Y-66769000D01*
X138147067Y-66769000D01*
X138228015Y-66776973D01*
X138228015Y-66776973D01*
G37*
G36*
X114019674Y-65674465D02*
G01*
X114057367Y-65685899D01*
X114092103Y-65704466D01*
X114122548Y-65729452D01*
X114147534Y-65759897D01*
X114166101Y-65794633D01*
X114177535Y-65832326D01*
X114182000Y-65877661D01*
X114182000Y-66964339D01*
X114177535Y-67009674D01*
X114166101Y-67047367D01*
X114147534Y-67082103D01*
X114122548Y-67112548D01*
X114092103Y-67137534D01*
X114057367Y-67156101D01*
X114019674Y-67167535D01*
X113974339Y-67172000D01*
X113137661Y-67172000D01*
X113092326Y-67167535D01*
X113054633Y-67156101D01*
X113019897Y-67137534D01*
X112989452Y-67112548D01*
X112964466Y-67082103D01*
X112945899Y-67047367D01*
X112934465Y-67009674D01*
X112930000Y-66964339D01*
X112930000Y-65877661D01*
X112934465Y-65832326D01*
X112945899Y-65794633D01*
X112964466Y-65759897D01*
X112989452Y-65729452D01*
X113019897Y-65704466D01*
X113054633Y-65685899D01*
X113092326Y-65674465D01*
X113137661Y-65670000D01*
X113974339Y-65670000D01*
X114019674Y-65674465D01*
X114019674Y-65674465D01*
G37*
G36*
X111969674Y-65674465D02*
G01*
X112007367Y-65685899D01*
X112042103Y-65704466D01*
X112072548Y-65729452D01*
X112097534Y-65759897D01*
X112116101Y-65794633D01*
X112127535Y-65832326D01*
X112132000Y-65877661D01*
X112132000Y-66964339D01*
X112127535Y-67009674D01*
X112116101Y-67047367D01*
X112097534Y-67082103D01*
X112072548Y-67112548D01*
X112042103Y-67137534D01*
X112007367Y-67156101D01*
X111969674Y-67167535D01*
X111924339Y-67172000D01*
X111087661Y-67172000D01*
X111042326Y-67167535D01*
X111004633Y-67156101D01*
X110969897Y-67137534D01*
X110939452Y-67112548D01*
X110914466Y-67082103D01*
X110895899Y-67047367D01*
X110884465Y-67009674D01*
X110880000Y-66964339D01*
X110880000Y-65877661D01*
X110884465Y-65832326D01*
X110895899Y-65794633D01*
X110914466Y-65759897D01*
X110939452Y-65729452D01*
X110969897Y-65704466D01*
X111004633Y-65685899D01*
X111042326Y-65674465D01*
X111087661Y-65670000D01*
X111924339Y-65670000D01*
X111969674Y-65674465D01*
X111969674Y-65674465D01*
G37*
G36*
X64967425Y-65175760D02*
G01*
X64967428Y-65175761D01*
X64967429Y-65175761D01*
X65146693Y-65230140D01*
X65146696Y-65230142D01*
X65146697Y-65230142D01*
X65311903Y-65318446D01*
X65456712Y-65437288D01*
X65575554Y-65582097D01*
X65640961Y-65704466D01*
X65663860Y-65747307D01*
X65711392Y-65904000D01*
X65718240Y-65926575D01*
X65736601Y-66113000D01*
X65718240Y-66299425D01*
X65718239Y-66299428D01*
X65718239Y-66299429D01*
X65663860Y-66478693D01*
X65663858Y-66478696D01*
X65663858Y-66478697D01*
X65575554Y-66643903D01*
X65456712Y-66788712D01*
X65311903Y-66907554D01*
X65146697Y-66995858D01*
X65146693Y-66995860D01*
X64967429Y-67050239D01*
X64967428Y-67050239D01*
X64967425Y-67050240D01*
X64827718Y-67064000D01*
X62934282Y-67064000D01*
X62794575Y-67050240D01*
X62794572Y-67050239D01*
X62794571Y-67050239D01*
X62615307Y-66995860D01*
X62615303Y-66995858D01*
X62450097Y-66907554D01*
X62305288Y-66788712D01*
X62186446Y-66643903D01*
X62098142Y-66478697D01*
X62098142Y-66478696D01*
X62098140Y-66478693D01*
X62043761Y-66299429D01*
X62043761Y-66299428D01*
X62043760Y-66299425D01*
X62025399Y-66113000D01*
X62043760Y-65926575D01*
X62050608Y-65904000D01*
X62098140Y-65747307D01*
X62121039Y-65704466D01*
X62186446Y-65582097D01*
X62305288Y-65437288D01*
X62450097Y-65318446D01*
X62615303Y-65230142D01*
X62615304Y-65230142D01*
X62615307Y-65230140D01*
X62794571Y-65175761D01*
X62794572Y-65175761D01*
X62794575Y-65175760D01*
X62934282Y-65162000D01*
X64827718Y-65162000D01*
X64967425Y-65175760D01*
X64967425Y-65175760D01*
G37*
G36*
X116722000Y-66806000D02*
G01*
X114720000Y-66806000D01*
X114720000Y-65904000D01*
X116722000Y-65904000D01*
X116722000Y-66806000D01*
X116722000Y-66806000D01*
G37*
G36*
X131497294Y-64884633D02*
G01*
X131669695Y-64936931D01*
X131828583Y-65021858D01*
X131967849Y-65136151D01*
X132082142Y-65275417D01*
X132167069Y-65434305D01*
X132219367Y-65606706D01*
X132237025Y-65786000D01*
X132219367Y-65965294D01*
X132167069Y-66137695D01*
X132082142Y-66296583D01*
X131967849Y-66435849D01*
X131828583Y-66550142D01*
X131669695Y-66635069D01*
X131497294Y-66687367D01*
X131362931Y-66700600D01*
X131273069Y-66700600D01*
X131138706Y-66687367D01*
X130966305Y-66635069D01*
X130807417Y-66550142D01*
X130668151Y-66435849D01*
X130553858Y-66296583D01*
X130468931Y-66137695D01*
X130416633Y-65965294D01*
X130398975Y-65786000D01*
X130416633Y-65606706D01*
X130468931Y-65434305D01*
X130553858Y-65275417D01*
X130668151Y-65136151D01*
X130807417Y-65021858D01*
X130966305Y-64936931D01*
X131138706Y-64884633D01*
X131273069Y-64871400D01*
X131362931Y-64871400D01*
X131497294Y-64884633D01*
X131497294Y-64884633D01*
G37*
G36*
X134037294Y-64884633D02*
G01*
X134209695Y-64936931D01*
X134368583Y-65021858D01*
X134507849Y-65136151D01*
X134622142Y-65275417D01*
X134707069Y-65434305D01*
X134759367Y-65606706D01*
X134777025Y-65786000D01*
X134759367Y-65965294D01*
X134707069Y-66137695D01*
X134622142Y-66296583D01*
X134507849Y-66435849D01*
X134368583Y-66550142D01*
X134209695Y-66635069D01*
X134037294Y-66687367D01*
X133902931Y-66700600D01*
X133813069Y-66700600D01*
X133678706Y-66687367D01*
X133506305Y-66635069D01*
X133347417Y-66550142D01*
X133208151Y-66435849D01*
X133093858Y-66296583D01*
X133008931Y-66137695D01*
X132956633Y-65965294D01*
X132938975Y-65786000D01*
X132956633Y-65606706D01*
X133008931Y-65434305D01*
X133093858Y-65275417D01*
X133208151Y-65136151D01*
X133347417Y-65021858D01*
X133506305Y-64936931D01*
X133678706Y-64884633D01*
X133813069Y-64871400D01*
X133902931Y-64871400D01*
X134037294Y-64884633D01*
X134037294Y-64884633D01*
G37*
G36*
X138209672Y-65528449D02*
G01*
X138209674Y-65528450D01*
X138209675Y-65528450D01*
X138278103Y-65556793D01*
X138339686Y-65597942D01*
X138392058Y-65650314D01*
X138433207Y-65711897D01*
X138461550Y-65780325D01*
X138461551Y-65780328D01*
X138476000Y-65852966D01*
X138476000Y-65927034D01*
X138468390Y-65965293D01*
X138461550Y-65999675D01*
X138433207Y-66068103D01*
X138392058Y-66129686D01*
X138339686Y-66182058D01*
X138278103Y-66223207D01*
X138209675Y-66251550D01*
X138209674Y-66251550D01*
X138209672Y-66251551D01*
X138137034Y-66266000D01*
X138062966Y-66266000D01*
X137990328Y-66251551D01*
X137990326Y-66251550D01*
X137990325Y-66251550D01*
X137921897Y-66223207D01*
X137860314Y-66182058D01*
X137807942Y-66129686D01*
X137766793Y-66068103D01*
X137738450Y-65999675D01*
X137731611Y-65965293D01*
X137724000Y-65927034D01*
X137724000Y-65852966D01*
X137738449Y-65780328D01*
X137738450Y-65780325D01*
X137766793Y-65711897D01*
X137807942Y-65650314D01*
X137860314Y-65597942D01*
X137921897Y-65556793D01*
X137990325Y-65528450D01*
X137990326Y-65528450D01*
X137990328Y-65528449D01*
X138062966Y-65514000D01*
X138137034Y-65514000D01*
X138209672Y-65528449D01*
X138209672Y-65528449D01*
G37*
G36*
X119722000Y-65856000D02*
G01*
X117720000Y-65856000D01*
X117720000Y-64954000D01*
X119722000Y-64954000D01*
X119722000Y-65856000D01*
X119722000Y-65856000D01*
G37*
G36*
X114010674Y-63642465D02*
G01*
X114048367Y-63653899D01*
X114083103Y-63672466D01*
X114113548Y-63697452D01*
X114138534Y-63727897D01*
X114157101Y-63762633D01*
X114168535Y-63800326D01*
X114173000Y-63845661D01*
X114173000Y-64932339D01*
X114168535Y-64977674D01*
X114157101Y-65015367D01*
X114138534Y-65050103D01*
X114113548Y-65080548D01*
X114083103Y-65105534D01*
X114048367Y-65124101D01*
X114010674Y-65135535D01*
X113965339Y-65140000D01*
X113128661Y-65140000D01*
X113083326Y-65135535D01*
X113045633Y-65124101D01*
X113010897Y-65105534D01*
X112980452Y-65080548D01*
X112955466Y-65050103D01*
X112936899Y-65015367D01*
X112925465Y-64977674D01*
X112921000Y-64932339D01*
X112921000Y-63845661D01*
X112925465Y-63800326D01*
X112936899Y-63762633D01*
X112955466Y-63727897D01*
X112980452Y-63697452D01*
X113010897Y-63672466D01*
X113045633Y-63653899D01*
X113083326Y-63642465D01*
X113128661Y-63638000D01*
X113965339Y-63638000D01*
X114010674Y-63642465D01*
X114010674Y-63642465D01*
G37*
G36*
X111960674Y-63642465D02*
G01*
X111998367Y-63653899D01*
X112033103Y-63672466D01*
X112063548Y-63697452D01*
X112088534Y-63727897D01*
X112107101Y-63762633D01*
X112118535Y-63800326D01*
X112123000Y-63845661D01*
X112123000Y-64932339D01*
X112118535Y-64977674D01*
X112107101Y-65015367D01*
X112088534Y-65050103D01*
X112063548Y-65080548D01*
X112033103Y-65105534D01*
X111998367Y-65124101D01*
X111960674Y-65135535D01*
X111915339Y-65140000D01*
X111078661Y-65140000D01*
X111033326Y-65135535D01*
X110995633Y-65124101D01*
X110960897Y-65105534D01*
X110930452Y-65080548D01*
X110905466Y-65050103D01*
X110886899Y-65015367D01*
X110875465Y-64977674D01*
X110871000Y-64932339D01*
X110871000Y-63845661D01*
X110875465Y-63800326D01*
X110886899Y-63762633D01*
X110905466Y-63727897D01*
X110930452Y-63697452D01*
X110960897Y-63672466D01*
X110995633Y-63653899D01*
X111033326Y-63642465D01*
X111078661Y-63638000D01*
X111915339Y-63638000D01*
X111960674Y-63642465D01*
X111960674Y-63642465D01*
G37*
G36*
X116722000Y-64906000D02*
G01*
X114720000Y-64906000D01*
X114720000Y-64004000D01*
X116722000Y-64004000D01*
X116722000Y-64906000D01*
X116722000Y-64906000D01*
G37*
G36*
X64967425Y-62675760D02*
G01*
X64967428Y-62675761D01*
X64967429Y-62675761D01*
X65146693Y-62730140D01*
X65146696Y-62730142D01*
X65146697Y-62730142D01*
X65311903Y-62818446D01*
X65456712Y-62937288D01*
X65575554Y-63082097D01*
X65663858Y-63247303D01*
X65663860Y-63247307D01*
X65718239Y-63426571D01*
X65718240Y-63426575D01*
X65736601Y-63613000D01*
X65718240Y-63799425D01*
X65718239Y-63799428D01*
X65718239Y-63799429D01*
X65663860Y-63978693D01*
X65663858Y-63978696D01*
X65663858Y-63978697D01*
X65575554Y-64143903D01*
X65456712Y-64288712D01*
X65311903Y-64407554D01*
X65146697Y-64495858D01*
X65146693Y-64495860D01*
X64967429Y-64550239D01*
X64967428Y-64550239D01*
X64967425Y-64550240D01*
X64827718Y-64564000D01*
X62934282Y-64564000D01*
X62794575Y-64550240D01*
X62794572Y-64550239D01*
X62794571Y-64550239D01*
X62615307Y-64495860D01*
X62615303Y-64495858D01*
X62450097Y-64407554D01*
X62305288Y-64288712D01*
X62186446Y-64143903D01*
X62098142Y-63978697D01*
X62098142Y-63978696D01*
X62098140Y-63978693D01*
X62043761Y-63799429D01*
X62043761Y-63799428D01*
X62043760Y-63799425D01*
X62025399Y-63613000D01*
X62043760Y-63426575D01*
X62043761Y-63426571D01*
X62098140Y-63247307D01*
X62098142Y-63247303D01*
X62186446Y-63082097D01*
X62305288Y-62937288D01*
X62450097Y-62818446D01*
X62615303Y-62730142D01*
X62615304Y-62730142D01*
X62615307Y-62730140D01*
X62794571Y-62675761D01*
X62794572Y-62675761D01*
X62794575Y-62675760D01*
X62934282Y-62662000D01*
X64827718Y-62662000D01*
X64967425Y-62675760D01*
X64967425Y-62675760D01*
G37*
G36*
X131497294Y-62344633D02*
G01*
X131669695Y-62396931D01*
X131828583Y-62481858D01*
X131967849Y-62596151D01*
X132082142Y-62735417D01*
X132167069Y-62894305D01*
X132219367Y-63066706D01*
X132237025Y-63246000D01*
X132219367Y-63425294D01*
X132167069Y-63597695D01*
X132082142Y-63756583D01*
X131967849Y-63895849D01*
X131828583Y-64010142D01*
X131669695Y-64095069D01*
X131497294Y-64147367D01*
X131362931Y-64160600D01*
X131273069Y-64160600D01*
X131138706Y-64147367D01*
X130966305Y-64095069D01*
X130807417Y-64010142D01*
X130668151Y-63895849D01*
X130553858Y-63756583D01*
X130468931Y-63597695D01*
X130416633Y-63425294D01*
X130398975Y-63246000D01*
X130416633Y-63066706D01*
X130468931Y-62894305D01*
X130553858Y-62735417D01*
X130668151Y-62596151D01*
X130807417Y-62481858D01*
X130966305Y-62396931D01*
X131138706Y-62344633D01*
X131273069Y-62331400D01*
X131362931Y-62331400D01*
X131497294Y-62344633D01*
X131497294Y-62344633D01*
G37*
G36*
X134037294Y-62344633D02*
G01*
X134209695Y-62396931D01*
X134368583Y-62481858D01*
X134507849Y-62596151D01*
X134622142Y-62735417D01*
X134707069Y-62894305D01*
X134759367Y-63066706D01*
X134777025Y-63246000D01*
X134759367Y-63425294D01*
X134707069Y-63597695D01*
X134622142Y-63756583D01*
X134507849Y-63895849D01*
X134368583Y-64010142D01*
X134209695Y-64095069D01*
X134037294Y-64147367D01*
X133902931Y-64160600D01*
X133813069Y-64160600D01*
X133678706Y-64147367D01*
X133506305Y-64095069D01*
X133347417Y-64010142D01*
X133208151Y-63895849D01*
X133093858Y-63756583D01*
X133008931Y-63597695D01*
X132956633Y-63425294D01*
X132938975Y-63246000D01*
X132956633Y-63066706D01*
X133008931Y-62894305D01*
X133093858Y-62735417D01*
X133208151Y-62596151D01*
X133347417Y-62481858D01*
X133506305Y-62396931D01*
X133678706Y-62344633D01*
X133813069Y-62331400D01*
X133902931Y-62331400D01*
X134037294Y-62344633D01*
X134037294Y-62344633D01*
G37*
G36*
X84174674Y-62626465D02*
G01*
X84212367Y-62637899D01*
X84247103Y-62656466D01*
X84277548Y-62681452D01*
X84302534Y-62711897D01*
X84321101Y-62746633D01*
X84332535Y-62784326D01*
X84337000Y-62829661D01*
X84337000Y-63916339D01*
X84332535Y-63961674D01*
X84321101Y-63999367D01*
X84302534Y-64034103D01*
X84277548Y-64064548D01*
X84247103Y-64089534D01*
X84212367Y-64108101D01*
X84174674Y-64119535D01*
X84129339Y-64124000D01*
X83292661Y-64124000D01*
X83247326Y-64119535D01*
X83209633Y-64108101D01*
X83174897Y-64089534D01*
X83144452Y-64064548D01*
X83119466Y-64034103D01*
X83100899Y-63999367D01*
X83089465Y-63961674D01*
X83085000Y-63916339D01*
X83085000Y-62829661D01*
X83089465Y-62784326D01*
X83100899Y-62746633D01*
X83119466Y-62711897D01*
X83144452Y-62681452D01*
X83174897Y-62656466D01*
X83209633Y-62637899D01*
X83247326Y-62626465D01*
X83292661Y-62622000D01*
X84129339Y-62622000D01*
X84174674Y-62626465D01*
X84174674Y-62626465D01*
G37*
G36*
X82124674Y-62626465D02*
G01*
X82162367Y-62637899D01*
X82197103Y-62656466D01*
X82227548Y-62681452D01*
X82252534Y-62711897D01*
X82271101Y-62746633D01*
X82282535Y-62784326D01*
X82287000Y-62829661D01*
X82287000Y-63916339D01*
X82282535Y-63961674D01*
X82271101Y-63999367D01*
X82252534Y-64034103D01*
X82227548Y-64064548D01*
X82197103Y-64089534D01*
X82162367Y-64108101D01*
X82124674Y-64119535D01*
X82079339Y-64124000D01*
X81242661Y-64124000D01*
X81197326Y-64119535D01*
X81159633Y-64108101D01*
X81124897Y-64089534D01*
X81094452Y-64064548D01*
X81069466Y-64034103D01*
X81050899Y-63999367D01*
X81039465Y-63961674D01*
X81035000Y-63916339D01*
X81035000Y-62829661D01*
X81039465Y-62784326D01*
X81050899Y-62746633D01*
X81069466Y-62711897D01*
X81094452Y-62681452D01*
X81124897Y-62656466D01*
X81159633Y-62637899D01*
X81197326Y-62626465D01*
X81242661Y-62622000D01*
X82079339Y-62622000D01*
X82124674Y-62626465D01*
X82124674Y-62626465D01*
G37*
G36*
X64967425Y-60175760D02*
G01*
X64967428Y-60175761D01*
X64967429Y-60175761D01*
X65146693Y-60230140D01*
X65146696Y-60230142D01*
X65146697Y-60230142D01*
X65311903Y-60318446D01*
X65456712Y-60437288D01*
X65575554Y-60582097D01*
X65651402Y-60724000D01*
X65663860Y-60747307D01*
X65706031Y-60886326D01*
X65718240Y-60926575D01*
X65736601Y-61113000D01*
X65718240Y-61299425D01*
X65718239Y-61299428D01*
X65718239Y-61299429D01*
X65663860Y-61478693D01*
X65663858Y-61478696D01*
X65663858Y-61478697D01*
X65575554Y-61643903D01*
X65456712Y-61788712D01*
X65311903Y-61907554D01*
X65146697Y-61995858D01*
X65146693Y-61995860D01*
X64967429Y-62050239D01*
X64967428Y-62050239D01*
X64967425Y-62050240D01*
X64827718Y-62064000D01*
X62934282Y-62064000D01*
X62794575Y-62050240D01*
X62794572Y-62050239D01*
X62794571Y-62050239D01*
X62615307Y-61995860D01*
X62615303Y-61995858D01*
X62450097Y-61907554D01*
X62305288Y-61788712D01*
X62186446Y-61643903D01*
X62098142Y-61478697D01*
X62098142Y-61478696D01*
X62098140Y-61478693D01*
X62043761Y-61299429D01*
X62043761Y-61299428D01*
X62043760Y-61299425D01*
X62025399Y-61113000D01*
X62043760Y-60926575D01*
X62055969Y-60886326D01*
X62098140Y-60747307D01*
X62110598Y-60724000D01*
X62186446Y-60582097D01*
X62305288Y-60437288D01*
X62450097Y-60318446D01*
X62615303Y-60230142D01*
X62615304Y-60230142D01*
X62615307Y-60230140D01*
X62794571Y-60175761D01*
X62794572Y-60175761D01*
X62794575Y-60175760D01*
X62934282Y-60162000D01*
X64827718Y-60162000D01*
X64967425Y-60175760D01*
X64967425Y-60175760D01*
G37*
G36*
X69549674Y-60728465D02*
G01*
X69587367Y-60739899D01*
X69622103Y-60758466D01*
X69652548Y-60783452D01*
X69677534Y-60813897D01*
X69696101Y-60848633D01*
X69707535Y-60886326D01*
X69712000Y-60931661D01*
X69712000Y-61768339D01*
X69707535Y-61813674D01*
X69696101Y-61851367D01*
X69677534Y-61886103D01*
X69652548Y-61916548D01*
X69622103Y-61941534D01*
X69587367Y-61960101D01*
X69549674Y-61971535D01*
X69504339Y-61976000D01*
X68417661Y-61976000D01*
X68372326Y-61971535D01*
X68334633Y-61960101D01*
X68299897Y-61941534D01*
X68269452Y-61916548D01*
X68244466Y-61886103D01*
X68225899Y-61851367D01*
X68214465Y-61813674D01*
X68210000Y-61768339D01*
X68210000Y-60931661D01*
X68214465Y-60886326D01*
X68225899Y-60848633D01*
X68244466Y-60813897D01*
X68269452Y-60783452D01*
X68299897Y-60758466D01*
X68334633Y-60739899D01*
X68372326Y-60728465D01*
X68417661Y-60724000D01*
X69504339Y-60724000D01*
X69549674Y-60728465D01*
X69549674Y-60728465D01*
G37*
G36*
X67517674Y-60728465D02*
G01*
X67555367Y-60739899D01*
X67590103Y-60758466D01*
X67620548Y-60783452D01*
X67645534Y-60813897D01*
X67664101Y-60848633D01*
X67675535Y-60886326D01*
X67680000Y-60931661D01*
X67680000Y-61768339D01*
X67675535Y-61813674D01*
X67664101Y-61851367D01*
X67645534Y-61886103D01*
X67620548Y-61916548D01*
X67590103Y-61941534D01*
X67555367Y-61960101D01*
X67517674Y-61971535D01*
X67472339Y-61976000D01*
X66385661Y-61976000D01*
X66340326Y-61971535D01*
X66302633Y-61960101D01*
X66267897Y-61941534D01*
X66237452Y-61916548D01*
X66212466Y-61886103D01*
X66193899Y-61851367D01*
X66182465Y-61813674D01*
X66178000Y-61768339D01*
X66178000Y-60931661D01*
X66182465Y-60886326D01*
X66193899Y-60848633D01*
X66212466Y-60813897D01*
X66237452Y-60783452D01*
X66267897Y-60758466D01*
X66302633Y-60739899D01*
X66340326Y-60728465D01*
X66385661Y-60724000D01*
X67472339Y-60724000D01*
X67517674Y-60728465D01*
X67517674Y-60728465D01*
G37*
G36*
X138209672Y-59748449D02*
G01*
X138209674Y-59748450D01*
X138209675Y-59748450D01*
X138278103Y-59776793D01*
X138339686Y-59817942D01*
X138392058Y-59870314D01*
X138433207Y-59931897D01*
X138461550Y-60000325D01*
X138461551Y-60000328D01*
X138476000Y-60072966D01*
X138476000Y-60147034D01*
X138470286Y-60175761D01*
X138461550Y-60219675D01*
X138433207Y-60288103D01*
X138392058Y-60349686D01*
X138339686Y-60402058D01*
X138278103Y-60443207D01*
X138209675Y-60471550D01*
X138209674Y-60471550D01*
X138209672Y-60471551D01*
X138137034Y-60486000D01*
X138062966Y-60486000D01*
X137990328Y-60471551D01*
X137990326Y-60471550D01*
X137990325Y-60471550D01*
X137921897Y-60443207D01*
X137860314Y-60402058D01*
X137807942Y-60349686D01*
X137766793Y-60288103D01*
X137738450Y-60219675D01*
X137729715Y-60175761D01*
X137724000Y-60147034D01*
X137724000Y-60072966D01*
X137738449Y-60000328D01*
X137738450Y-60000325D01*
X137766793Y-59931897D01*
X137807942Y-59870314D01*
X137860314Y-59817942D01*
X137921897Y-59776793D01*
X137990325Y-59748450D01*
X137990326Y-59748450D01*
X137990328Y-59748449D01*
X138062966Y-59734000D01*
X138137034Y-59734000D01*
X138209672Y-59748449D01*
X138209672Y-59748449D01*
G37*
G36*
X69549674Y-58678465D02*
G01*
X69587367Y-58689899D01*
X69622103Y-58708466D01*
X69652548Y-58733452D01*
X69677534Y-58763897D01*
X69696101Y-58798633D01*
X69707535Y-58836326D01*
X69712000Y-58881661D01*
X69712000Y-59718339D01*
X69707535Y-59763674D01*
X69696101Y-59801367D01*
X69677534Y-59836103D01*
X69652548Y-59866548D01*
X69622103Y-59891534D01*
X69587367Y-59910101D01*
X69549674Y-59921535D01*
X69504339Y-59926000D01*
X68417661Y-59926000D01*
X68372326Y-59921535D01*
X68334633Y-59910101D01*
X68299897Y-59891534D01*
X68269452Y-59866548D01*
X68244466Y-59836103D01*
X68225899Y-59801367D01*
X68214465Y-59763674D01*
X68210000Y-59718339D01*
X68210000Y-58881661D01*
X68214465Y-58836326D01*
X68225899Y-58798633D01*
X68244466Y-58763897D01*
X68269452Y-58733452D01*
X68299897Y-58708466D01*
X68334633Y-58689899D01*
X68372326Y-58678465D01*
X68417661Y-58674000D01*
X69504339Y-58674000D01*
X69549674Y-58678465D01*
X69549674Y-58678465D01*
G37*
G36*
X67517674Y-58678465D02*
G01*
X67555367Y-58689899D01*
X67590103Y-58708466D01*
X67620548Y-58733452D01*
X67645534Y-58763897D01*
X67664101Y-58798633D01*
X67675535Y-58836326D01*
X67680000Y-58881661D01*
X67680000Y-59718339D01*
X67675535Y-59763674D01*
X67664101Y-59801367D01*
X67645534Y-59836103D01*
X67620548Y-59866548D01*
X67590103Y-59891534D01*
X67555367Y-59910101D01*
X67517674Y-59921535D01*
X67472339Y-59926000D01*
X66385661Y-59926000D01*
X66340326Y-59921535D01*
X66302633Y-59910101D01*
X66267897Y-59891534D01*
X66237452Y-59866548D01*
X66212466Y-59836103D01*
X66193899Y-59801367D01*
X66182465Y-59763674D01*
X66178000Y-59718339D01*
X66178000Y-58881661D01*
X66182465Y-58836326D01*
X66193899Y-58798633D01*
X66212466Y-58763897D01*
X66237452Y-58733452D01*
X66267897Y-58708466D01*
X66302633Y-58689899D01*
X66340326Y-58678465D01*
X66385661Y-58674000D01*
X67472339Y-58674000D01*
X67517674Y-58678465D01*
X67517674Y-58678465D01*
G37*
G36*
X138228015Y-58136973D02*
G01*
X138331879Y-58168479D01*
X138359055Y-58183005D01*
X138427600Y-58219643D01*
X138511501Y-58288499D01*
X138580357Y-58372400D01*
X138616995Y-58440945D01*
X138631521Y-58468121D01*
X138663027Y-58571985D01*
X138673666Y-58680000D01*
X138663027Y-58788015D01*
X138631521Y-58891879D01*
X138616995Y-58919055D01*
X138580357Y-58987600D01*
X138511501Y-59071501D01*
X138427600Y-59140357D01*
X138359055Y-59176995D01*
X138331879Y-59191521D01*
X138228015Y-59223027D01*
X138147067Y-59231000D01*
X136992933Y-59231000D01*
X136911985Y-59223027D01*
X136808121Y-59191521D01*
X136780945Y-59176995D01*
X136712400Y-59140357D01*
X136628499Y-59071501D01*
X136559643Y-58987600D01*
X136523005Y-58919055D01*
X136508479Y-58891879D01*
X136476973Y-58788015D01*
X136466334Y-58680000D01*
X136476973Y-58571985D01*
X136508479Y-58468121D01*
X136523005Y-58440945D01*
X136559643Y-58372400D01*
X136628499Y-58288499D01*
X136712400Y-58219643D01*
X136780945Y-58183005D01*
X136808121Y-58168479D01*
X136911985Y-58136973D01*
X136992933Y-58129000D01*
X138147067Y-58129000D01*
X138228015Y-58136973D01*
X138228015Y-58136973D01*
G37*
G36*
X142158015Y-58136973D02*
G01*
X142261879Y-58168479D01*
X142289055Y-58183005D01*
X142357600Y-58219643D01*
X142441501Y-58288499D01*
X142510357Y-58372400D01*
X142546995Y-58440945D01*
X142561521Y-58468121D01*
X142593027Y-58571985D01*
X142603666Y-58680000D01*
X142593027Y-58788015D01*
X142561521Y-58891879D01*
X142546995Y-58919055D01*
X142510357Y-58987600D01*
X142441501Y-59071501D01*
X142357600Y-59140357D01*
X142289055Y-59176995D01*
X142261879Y-59191521D01*
X142158015Y-59223027D01*
X142077067Y-59231000D01*
X141422933Y-59231000D01*
X141341985Y-59223027D01*
X141238121Y-59191521D01*
X141210945Y-59176995D01*
X141142400Y-59140357D01*
X141058499Y-59071501D01*
X140989643Y-58987600D01*
X140953005Y-58919055D01*
X140938479Y-58891879D01*
X140906973Y-58788015D01*
X140896334Y-58680000D01*
X140906973Y-58571985D01*
X140938479Y-58468121D01*
X140953005Y-58440945D01*
X140989643Y-58372400D01*
X141058499Y-58288499D01*
X141142400Y-58219643D01*
X141210945Y-58183005D01*
X141238121Y-58168479D01*
X141341985Y-58136973D01*
X141422933Y-58129000D01*
X142077067Y-58129000D01*
X142158015Y-58136973D01*
X142158015Y-58136973D01*
G37*
G36*
X87594674Y-55133465D02*
G01*
X87632367Y-55144899D01*
X87667103Y-55163466D01*
X87697548Y-55188452D01*
X87722534Y-55218897D01*
X87741101Y-55253633D01*
X87752535Y-55291326D01*
X87757000Y-55336661D01*
X87757000Y-56423339D01*
X87752535Y-56468674D01*
X87741101Y-56506367D01*
X87722534Y-56541103D01*
X87697548Y-56571548D01*
X87667103Y-56596534D01*
X87632367Y-56615101D01*
X87594674Y-56626535D01*
X87549339Y-56631000D01*
X86712661Y-56631000D01*
X86667326Y-56626535D01*
X86629633Y-56615101D01*
X86594897Y-56596534D01*
X86564452Y-56571548D01*
X86539466Y-56541103D01*
X86520899Y-56506367D01*
X86509465Y-56468674D01*
X86505000Y-56423339D01*
X86505000Y-55336661D01*
X86509465Y-55291326D01*
X86520899Y-55253633D01*
X86539466Y-55218897D01*
X86564452Y-55188452D01*
X86594897Y-55163466D01*
X86629633Y-55144899D01*
X86667326Y-55133465D01*
X86712661Y-55129000D01*
X87549339Y-55129000D01*
X87594674Y-55133465D01*
X87594674Y-55133465D01*
G37*
G36*
X85544674Y-55133465D02*
G01*
X85582367Y-55144899D01*
X85617103Y-55163466D01*
X85647548Y-55188452D01*
X85672534Y-55218897D01*
X85691101Y-55253633D01*
X85702535Y-55291326D01*
X85707000Y-55336661D01*
X85707000Y-56423339D01*
X85702535Y-56468674D01*
X85691101Y-56506367D01*
X85672534Y-56541103D01*
X85647548Y-56571548D01*
X85617103Y-56596534D01*
X85582367Y-56615101D01*
X85544674Y-56626535D01*
X85499339Y-56631000D01*
X84662661Y-56631000D01*
X84617326Y-56626535D01*
X84579633Y-56615101D01*
X84544897Y-56596534D01*
X84514452Y-56571548D01*
X84489466Y-56541103D01*
X84470899Y-56506367D01*
X84459465Y-56468674D01*
X84455000Y-56423339D01*
X84455000Y-55336661D01*
X84459465Y-55291326D01*
X84470899Y-55253633D01*
X84489466Y-55218897D01*
X84514452Y-55188452D01*
X84544897Y-55163466D01*
X84579633Y-55144899D01*
X84617326Y-55133465D01*
X84662661Y-55129000D01*
X85499339Y-55129000D01*
X85544674Y-55133465D01*
X85544674Y-55133465D01*
G37*
G36*
X85449015Y-52671973D02*
G01*
X85552879Y-52703479D01*
X85580055Y-52718005D01*
X85648600Y-52754643D01*
X85732501Y-52823499D01*
X85801357Y-52907400D01*
X85837995Y-52975945D01*
X85852521Y-53003121D01*
X85884027Y-53106985D01*
X85894666Y-53215000D01*
X85884027Y-53323015D01*
X85852521Y-53426879D01*
X85852519Y-53426882D01*
X85801357Y-53522600D01*
X85732501Y-53606501D01*
X85648600Y-53675357D01*
X85580055Y-53711995D01*
X85552879Y-53726521D01*
X85449015Y-53758027D01*
X85368067Y-53766000D01*
X84213933Y-53766000D01*
X84132985Y-53758027D01*
X84029121Y-53726521D01*
X84001945Y-53711995D01*
X83933400Y-53675357D01*
X83849499Y-53606501D01*
X83780643Y-53522600D01*
X83729481Y-53426882D01*
X83729479Y-53426879D01*
X83697973Y-53323015D01*
X83687334Y-53215000D01*
X83697973Y-53106985D01*
X83729479Y-53003121D01*
X83744005Y-52975945D01*
X83780643Y-52907400D01*
X83849499Y-52823499D01*
X83933400Y-52754643D01*
X84001945Y-52718005D01*
X84029121Y-52703479D01*
X84132985Y-52671973D01*
X84213933Y-52664000D01*
X85368067Y-52664000D01*
X85449015Y-52671973D01*
X85449015Y-52671973D01*
G37*
G36*
X81019015Y-52671973D02*
G01*
X81122879Y-52703479D01*
X81150055Y-52718005D01*
X81218600Y-52754643D01*
X81302501Y-52823499D01*
X81371357Y-52907400D01*
X81407995Y-52975945D01*
X81422521Y-53003121D01*
X81454027Y-53106985D01*
X81464666Y-53215000D01*
X81454027Y-53323015D01*
X81422521Y-53426879D01*
X81422519Y-53426882D01*
X81371357Y-53522600D01*
X81302501Y-53606501D01*
X81218600Y-53675357D01*
X81150055Y-53711995D01*
X81122879Y-53726521D01*
X81019015Y-53758027D01*
X80938067Y-53766000D01*
X80283933Y-53766000D01*
X80202985Y-53758027D01*
X80099121Y-53726521D01*
X80071945Y-53711995D01*
X80003400Y-53675357D01*
X79919499Y-53606501D01*
X79850643Y-53522600D01*
X79799481Y-53426882D01*
X79799479Y-53426879D01*
X79767973Y-53323015D01*
X79757334Y-53215000D01*
X79767973Y-53106985D01*
X79799479Y-53003121D01*
X79814005Y-52975945D01*
X79850643Y-52907400D01*
X79919499Y-52823499D01*
X80003400Y-52754643D01*
X80071945Y-52718005D01*
X80099121Y-52703479D01*
X80202985Y-52671973D01*
X80283933Y-52664000D01*
X80938067Y-52664000D01*
X81019015Y-52671973D01*
X81019015Y-52671973D01*
G37*
G36*
X84370672Y-51423449D02*
G01*
X84370674Y-51423450D01*
X84370675Y-51423450D01*
X84439103Y-51451793D01*
X84500686Y-51492942D01*
X84553058Y-51545314D01*
X84594207Y-51606897D01*
X84622550Y-51675325D01*
X84637000Y-51747967D01*
X84637000Y-51822033D01*
X84622550Y-51894675D01*
X84594207Y-51963103D01*
X84553058Y-52024686D01*
X84500686Y-52077058D01*
X84439103Y-52118207D01*
X84370675Y-52146550D01*
X84370674Y-52146550D01*
X84370672Y-52146551D01*
X84298034Y-52161000D01*
X84223966Y-52161000D01*
X84151328Y-52146551D01*
X84151326Y-52146550D01*
X84151325Y-52146550D01*
X84082897Y-52118207D01*
X84021314Y-52077058D01*
X83968942Y-52024686D01*
X83927793Y-51963103D01*
X83899450Y-51894675D01*
X83885000Y-51822033D01*
X83885000Y-51747967D01*
X83899450Y-51675325D01*
X83927793Y-51606897D01*
X83968942Y-51545314D01*
X84021314Y-51492942D01*
X84082897Y-51451793D01*
X84151325Y-51423450D01*
X84151326Y-51423450D01*
X84151328Y-51423449D01*
X84223966Y-51409000D01*
X84298034Y-51409000D01*
X84370672Y-51423449D01*
X84370672Y-51423449D01*
G37*
G36*
X83138674Y-49933465D02*
G01*
X83176367Y-49944899D01*
X83211103Y-49963466D01*
X83241548Y-49988452D01*
X83266534Y-50018897D01*
X83285101Y-50053633D01*
X83296535Y-50091326D01*
X83301000Y-50136661D01*
X83301000Y-50973339D01*
X83296535Y-51018674D01*
X83285101Y-51056367D01*
X83266534Y-51091103D01*
X83241548Y-51121548D01*
X83211103Y-51146534D01*
X83176367Y-51165101D01*
X83138674Y-51176535D01*
X83093339Y-51181000D01*
X82006661Y-51181000D01*
X81961326Y-51176535D01*
X81923633Y-51165101D01*
X81888897Y-51146534D01*
X81858452Y-51121548D01*
X81833466Y-51091103D01*
X81814899Y-51056367D01*
X81803465Y-51018674D01*
X81799000Y-50973339D01*
X81799000Y-50136661D01*
X81803465Y-50091326D01*
X81814899Y-50053633D01*
X81833466Y-50018897D01*
X81858452Y-49988452D01*
X81888897Y-49963466D01*
X81923633Y-49944899D01*
X81961326Y-49933465D01*
X82006661Y-49929000D01*
X83093339Y-49929000D01*
X83138674Y-49933465D01*
X83138674Y-49933465D01*
G37*
G36*
X83138674Y-47883465D02*
G01*
X83176367Y-47894899D01*
X83211103Y-47913466D01*
X83241548Y-47938452D01*
X83266534Y-47968897D01*
X83285101Y-48003633D01*
X83296535Y-48041326D01*
X83301000Y-48086661D01*
X83301000Y-48923339D01*
X83296535Y-48968674D01*
X83285101Y-49006367D01*
X83266534Y-49041103D01*
X83241548Y-49071548D01*
X83211103Y-49096534D01*
X83176367Y-49115101D01*
X83138674Y-49126535D01*
X83093339Y-49131000D01*
X82006661Y-49131000D01*
X81961326Y-49126535D01*
X81923633Y-49115101D01*
X81888897Y-49096534D01*
X81858452Y-49071548D01*
X81833466Y-49041103D01*
X81814899Y-49006367D01*
X81803465Y-48968674D01*
X81799000Y-48923339D01*
X81799000Y-48086661D01*
X81803465Y-48041326D01*
X81814899Y-48003633D01*
X81833466Y-47968897D01*
X81858452Y-47938452D01*
X81888897Y-47913466D01*
X81923633Y-47894899D01*
X81961326Y-47883465D01*
X82006661Y-47879000D01*
X83093339Y-47879000D01*
X83138674Y-47883465D01*
X83138674Y-47883465D01*
G37*
G36*
X83138674Y-46123465D02*
G01*
X83176367Y-46134899D01*
X83211103Y-46153466D01*
X83241548Y-46178452D01*
X83266534Y-46208897D01*
X83285101Y-46243633D01*
X83296535Y-46281326D01*
X83301000Y-46326661D01*
X83301000Y-47163339D01*
X83296535Y-47208674D01*
X83285101Y-47246367D01*
X83266534Y-47281103D01*
X83241548Y-47311548D01*
X83211103Y-47336534D01*
X83176367Y-47355101D01*
X83138674Y-47366535D01*
X83093339Y-47371000D01*
X82006661Y-47371000D01*
X81961326Y-47366535D01*
X81923633Y-47355101D01*
X81888897Y-47336534D01*
X81858452Y-47311548D01*
X81833466Y-47281103D01*
X81814899Y-47246367D01*
X81803465Y-47208674D01*
X81799000Y-47163339D01*
X81799000Y-46326661D01*
X81803465Y-46281326D01*
X81814899Y-46243633D01*
X81833466Y-46208897D01*
X81858452Y-46178452D01*
X81888897Y-46153466D01*
X81923633Y-46134899D01*
X81961326Y-46123465D01*
X82006661Y-46119000D01*
X83093339Y-46119000D01*
X83138674Y-46123465D01*
X83138674Y-46123465D01*
G37*
G36*
X84370672Y-45643449D02*
G01*
X84370674Y-45643450D01*
X84370675Y-45643450D01*
X84439103Y-45671793D01*
X84500686Y-45712942D01*
X84553058Y-45765314D01*
X84594207Y-45826897D01*
X84622550Y-45895325D01*
X84637000Y-45967967D01*
X84637000Y-46042033D01*
X84622550Y-46114675D01*
X84594207Y-46183103D01*
X84553058Y-46244686D01*
X84500686Y-46297058D01*
X84439103Y-46338207D01*
X84370675Y-46366550D01*
X84370674Y-46366550D01*
X84370672Y-46366551D01*
X84298034Y-46381000D01*
X84223966Y-46381000D01*
X84151328Y-46366551D01*
X84151326Y-46366550D01*
X84151325Y-46366550D01*
X84082897Y-46338207D01*
X84021314Y-46297058D01*
X83968942Y-46244686D01*
X83927793Y-46183103D01*
X83899450Y-46114675D01*
X83885000Y-46042033D01*
X83885000Y-45967967D01*
X83899450Y-45895325D01*
X83927793Y-45826897D01*
X83968942Y-45765314D01*
X84021314Y-45712942D01*
X84082897Y-45671793D01*
X84151325Y-45643450D01*
X84151326Y-45643450D01*
X84151328Y-45643449D01*
X84223966Y-45629000D01*
X84298034Y-45629000D01*
X84370672Y-45643449D01*
X84370672Y-45643449D01*
G37*
G36*
X114151000Y-46001000D02*
G01*
X112749000Y-46001000D01*
X112749000Y-44699000D01*
X114151000Y-44699000D01*
X114151000Y-46001000D01*
X114151000Y-46001000D01*
G37*
G36*
X83138674Y-44073465D02*
G01*
X83176367Y-44084899D01*
X83211103Y-44103466D01*
X83241548Y-44128452D01*
X83266534Y-44158897D01*
X83285101Y-44193633D01*
X83296535Y-44231326D01*
X83301000Y-44276661D01*
X83301000Y-45113339D01*
X83296535Y-45158674D01*
X83285101Y-45196367D01*
X83266534Y-45231103D01*
X83241548Y-45261548D01*
X83211103Y-45286534D01*
X83176367Y-45305101D01*
X83138674Y-45316535D01*
X83093339Y-45321000D01*
X82006661Y-45321000D01*
X81961326Y-45316535D01*
X81923633Y-45305101D01*
X81888897Y-45286534D01*
X81858452Y-45261548D01*
X81833466Y-45231103D01*
X81814899Y-45196367D01*
X81803465Y-45158674D01*
X81799000Y-45113339D01*
X81799000Y-44276661D01*
X81803465Y-44231326D01*
X81814899Y-44193633D01*
X81833466Y-44158897D01*
X81858452Y-44128452D01*
X81888897Y-44103466D01*
X81923633Y-44084899D01*
X81961326Y-44073465D01*
X82006661Y-44069000D01*
X83093339Y-44069000D01*
X83138674Y-44073465D01*
X83138674Y-44073465D01*
G37*
G36*
X85449015Y-44031973D02*
G01*
X85552879Y-44063479D01*
X85571561Y-44073465D01*
X85648600Y-44114643D01*
X85732501Y-44183499D01*
X85801357Y-44267400D01*
X85837995Y-44335945D01*
X85852521Y-44363121D01*
X85884027Y-44466985D01*
X85894666Y-44575000D01*
X85884027Y-44683015D01*
X85852521Y-44786879D01*
X85852519Y-44786882D01*
X85801357Y-44882600D01*
X85732501Y-44966501D01*
X85648600Y-45035357D01*
X85580055Y-45071995D01*
X85552879Y-45086521D01*
X85449015Y-45118027D01*
X85368067Y-45126000D01*
X84213933Y-45126000D01*
X84132985Y-45118027D01*
X84029121Y-45086521D01*
X84001945Y-45071995D01*
X83933400Y-45035357D01*
X83849499Y-44966501D01*
X83780643Y-44882600D01*
X83729481Y-44786882D01*
X83729479Y-44786879D01*
X83697973Y-44683015D01*
X83687334Y-44575000D01*
X83697973Y-44466985D01*
X83729479Y-44363121D01*
X83744005Y-44335945D01*
X83780643Y-44267400D01*
X83849499Y-44183499D01*
X83933400Y-44114643D01*
X84010439Y-44073465D01*
X84029121Y-44063479D01*
X84132985Y-44031973D01*
X84213933Y-44024000D01*
X85368067Y-44024000D01*
X85449015Y-44031973D01*
X85449015Y-44031973D01*
G37*
G36*
X81019015Y-44031973D02*
G01*
X81122879Y-44063479D01*
X81141561Y-44073465D01*
X81218600Y-44114643D01*
X81302501Y-44183499D01*
X81371357Y-44267400D01*
X81407995Y-44335945D01*
X81422521Y-44363121D01*
X81454027Y-44466985D01*
X81464666Y-44575000D01*
X81454027Y-44683015D01*
X81422521Y-44786879D01*
X81422519Y-44786882D01*
X81371357Y-44882600D01*
X81302501Y-44966501D01*
X81218600Y-45035357D01*
X81150055Y-45071995D01*
X81122879Y-45086521D01*
X81019015Y-45118027D01*
X80938067Y-45126000D01*
X80283933Y-45126000D01*
X80202985Y-45118027D01*
X80099121Y-45086521D01*
X80071945Y-45071995D01*
X80003400Y-45035357D01*
X79919499Y-44966501D01*
X79850643Y-44882600D01*
X79799481Y-44786882D01*
X79799479Y-44786879D01*
X79767973Y-44683015D01*
X79757334Y-44575000D01*
X79767973Y-44466985D01*
X79799479Y-44363121D01*
X79814005Y-44335945D01*
X79850643Y-44267400D01*
X79919499Y-44183499D01*
X80003400Y-44114643D01*
X80080439Y-44073465D01*
X80099121Y-44063479D01*
X80202985Y-44031973D01*
X80283933Y-44024000D01*
X80938067Y-44024000D01*
X81019015Y-44031973D01*
X81019015Y-44031973D01*
G37*
G36*
X107901000Y-44951000D02*
G01*
X106399000Y-44951000D01*
X106399000Y-43549000D01*
X107901000Y-43549000D01*
X107901000Y-44951000D01*
X107901000Y-44951000D01*
G37*
G36*
X110490935Y-42455742D02*
G01*
X110641258Y-42518008D01*
X110776545Y-42608404D01*
X110891596Y-42723455D01*
X110981992Y-42858742D01*
X111044258Y-43009065D01*
X111076000Y-43168646D01*
X111076000Y-43331354D01*
X111044258Y-43490935D01*
X110981992Y-43641258D01*
X110891596Y-43776545D01*
X110776545Y-43891596D01*
X110641258Y-43981992D01*
X110490935Y-44044258D01*
X110331354Y-44076000D01*
X110168646Y-44076000D01*
X110009065Y-44044258D01*
X109858742Y-43981992D01*
X109723455Y-43891596D01*
X109608404Y-43776545D01*
X109518008Y-43641258D01*
X109455742Y-43490935D01*
X109424000Y-43331354D01*
X109424000Y-43168646D01*
X109455742Y-43009065D01*
X109518008Y-42858742D01*
X109608404Y-42723455D01*
X109723455Y-42608404D01*
X109858742Y-42518008D01*
X110009065Y-42455742D01*
X110168646Y-42424000D01*
X110331354Y-42424000D01*
X110490935Y-42455742D01*
X110490935Y-42455742D01*
G37*
G36*
X118376909Y-43203744D02*
G01*
X117703744Y-43876909D01*
X116783091Y-42956256D01*
X117456256Y-42283091D01*
X118376909Y-43203744D01*
X118376909Y-43203744D01*
G37*
G36*
X84797594Y-41429755D02*
G01*
X84903950Y-41450911D01*
X84936423Y-41464362D01*
X85104320Y-41533907D01*
X85284644Y-41654395D01*
X85438005Y-41807756D01*
X85558493Y-41988080D01*
X85641489Y-42188451D01*
X85683800Y-42401160D01*
X85683800Y-42618040D01*
X85641489Y-42830749D01*
X85558493Y-43031120D01*
X85438005Y-43211444D01*
X85284644Y-43364805D01*
X85104320Y-43485293D01*
X84903950Y-43568289D01*
X84797595Y-43589444D01*
X84691240Y-43610600D01*
X84474360Y-43610600D01*
X84368005Y-43589444D01*
X84261650Y-43568289D01*
X84061280Y-43485293D01*
X83880956Y-43364805D01*
X83727595Y-43211444D01*
X83607107Y-43031120D01*
X83524111Y-42830749D01*
X83481800Y-42618040D01*
X83481800Y-42401160D01*
X83524111Y-42188451D01*
X83607107Y-41988080D01*
X83727595Y-41807756D01*
X83880956Y-41654395D01*
X84061280Y-41533907D01*
X84229177Y-41464362D01*
X84261650Y-41450911D01*
X84368006Y-41429755D01*
X84474360Y-41408600D01*
X84691240Y-41408600D01*
X84797594Y-41429755D01*
X84797594Y-41429755D01*
G37*
G36*
X107901000Y-42426000D02*
G01*
X106399000Y-42426000D01*
X106399000Y-41024000D01*
X107901000Y-41024000D01*
X107901000Y-42426000D01*
X107901000Y-42426000D01*
G37*
G36*
X82362904Y-40359185D02*
G01*
X82531426Y-40428989D01*
X82683091Y-40530328D01*
X82812072Y-40659309D01*
X82913411Y-40810974D01*
X82983215Y-40979496D01*
X83018800Y-41158397D01*
X83018800Y-41340803D01*
X82983215Y-41519704D01*
X82913411Y-41688226D01*
X82812072Y-41839891D01*
X82683091Y-41968872D01*
X82531426Y-42070211D01*
X82362904Y-42140015D01*
X82184003Y-42175600D01*
X82001597Y-42175600D01*
X81822696Y-42140015D01*
X81654174Y-42070211D01*
X81502509Y-41968872D01*
X81373528Y-41839891D01*
X81272189Y-41688226D01*
X81202385Y-41519704D01*
X81166800Y-41340803D01*
X81166800Y-41158397D01*
X81202385Y-40979496D01*
X81272189Y-40810974D01*
X81373528Y-40659309D01*
X81502509Y-40530328D01*
X81654174Y-40428989D01*
X81822696Y-40359185D01*
X82001597Y-40323600D01*
X82184003Y-40323600D01*
X82362904Y-40359185D01*
X82362904Y-40359185D01*
G37*
G36*
X113870231Y-40715705D02*
G01*
X113908967Y-40723410D01*
X113939195Y-40735931D01*
X113981944Y-40753638D01*
X114047622Y-40797523D01*
X114103477Y-40853378D01*
X114147362Y-40919056D01*
X114177590Y-40992034D01*
X114193000Y-41069504D01*
X114193000Y-41148496D01*
X114177590Y-41225966D01*
X114147362Y-41298944D01*
X114103477Y-41364622D01*
X114047622Y-41420477D01*
X113981944Y-41464362D01*
X113939195Y-41482069D01*
X113908967Y-41494590D01*
X113870231Y-41502295D01*
X113831496Y-41510000D01*
X113752504Y-41510000D01*
X113713769Y-41502295D01*
X113675033Y-41494590D01*
X113644805Y-41482069D01*
X113602056Y-41464362D01*
X113536378Y-41420477D01*
X113480523Y-41364622D01*
X113436638Y-41298944D01*
X113406410Y-41225966D01*
X113391000Y-41148496D01*
X113391000Y-41069504D01*
X113406410Y-40992034D01*
X113436638Y-40919056D01*
X113480523Y-40853378D01*
X113536378Y-40797523D01*
X113602056Y-40753638D01*
X113644805Y-40735931D01*
X113675033Y-40723410D01*
X113713769Y-40715705D01*
X113752504Y-40708000D01*
X113831496Y-40708000D01*
X113870231Y-40715705D01*
X113870231Y-40715705D01*
G37*
G36*
X93164674Y-38750465D02*
G01*
X93202367Y-38761899D01*
X93237103Y-38780466D01*
X93267548Y-38805452D01*
X93292534Y-38835897D01*
X93311101Y-38870633D01*
X93322535Y-38908326D01*
X93327000Y-38953661D01*
X93327000Y-40040339D01*
X93322535Y-40085674D01*
X93311101Y-40123367D01*
X93292534Y-40158103D01*
X93267548Y-40188548D01*
X93237103Y-40213534D01*
X93202367Y-40232101D01*
X93164674Y-40243535D01*
X93119339Y-40248000D01*
X92282661Y-40248000D01*
X92237326Y-40243535D01*
X92199633Y-40232101D01*
X92164897Y-40213534D01*
X92134452Y-40188548D01*
X92109466Y-40158103D01*
X92090899Y-40123367D01*
X92079465Y-40085674D01*
X92075000Y-40040339D01*
X92075000Y-38953661D01*
X92079465Y-38908326D01*
X92090899Y-38870633D01*
X92109466Y-38835897D01*
X92134452Y-38805452D01*
X92164897Y-38780466D01*
X92199633Y-38761899D01*
X92237326Y-38750465D01*
X92282661Y-38746000D01*
X93119339Y-38746000D01*
X93164674Y-38750465D01*
X93164674Y-38750465D01*
G37*
G36*
X95214674Y-38750465D02*
G01*
X95252367Y-38761899D01*
X95287103Y-38780466D01*
X95317548Y-38805452D01*
X95342534Y-38835897D01*
X95361101Y-38870633D01*
X95372535Y-38908326D01*
X95377000Y-38953661D01*
X95377000Y-40040339D01*
X95372535Y-40085674D01*
X95361101Y-40123367D01*
X95342534Y-40158103D01*
X95317548Y-40188548D01*
X95287103Y-40213534D01*
X95252367Y-40232101D01*
X95214674Y-40243535D01*
X95169339Y-40248000D01*
X94332661Y-40248000D01*
X94287326Y-40243535D01*
X94249633Y-40232101D01*
X94214897Y-40213534D01*
X94184452Y-40188548D01*
X94159466Y-40158103D01*
X94140899Y-40123367D01*
X94129465Y-40085674D01*
X94125000Y-40040339D01*
X94125000Y-38953661D01*
X94129465Y-38908326D01*
X94140899Y-38870633D01*
X94159466Y-38835897D01*
X94184452Y-38805452D01*
X94214897Y-38780466D01*
X94249633Y-38761899D01*
X94287326Y-38750465D01*
X94332661Y-38746000D01*
X95169339Y-38746000D01*
X95214674Y-38750465D01*
X95214674Y-38750465D01*
G37*
G36*
X113870231Y-39015705D02*
G01*
X113908967Y-39023410D01*
X113939195Y-39035931D01*
X113981944Y-39053638D01*
X114047622Y-39097523D01*
X114103477Y-39153378D01*
X114147362Y-39219056D01*
X114177590Y-39292034D01*
X114193000Y-39369504D01*
X114193000Y-39448496D01*
X114177590Y-39525966D01*
X114147362Y-39598944D01*
X114103477Y-39664622D01*
X114047622Y-39720477D01*
X113981944Y-39764362D01*
X113939195Y-39782069D01*
X113908967Y-39794590D01*
X113870231Y-39802295D01*
X113831496Y-39810000D01*
X113752504Y-39810000D01*
X113713769Y-39802295D01*
X113675033Y-39794590D01*
X113644805Y-39782069D01*
X113602056Y-39764362D01*
X113536378Y-39720477D01*
X113480523Y-39664622D01*
X113436638Y-39598944D01*
X113406410Y-39525966D01*
X113391000Y-39448496D01*
X113391000Y-39369504D01*
X113406410Y-39292034D01*
X113436638Y-39219056D01*
X113480523Y-39153378D01*
X113536378Y-39097523D01*
X113602056Y-39053638D01*
X113644805Y-39035931D01*
X113675033Y-39023410D01*
X113713769Y-39015705D01*
X113752504Y-39008000D01*
X113831496Y-39008000D01*
X113870231Y-39015705D01*
X113870231Y-39015705D01*
G37*
G36*
X107901000Y-39476000D02*
G01*
X106399000Y-39476000D01*
X106399000Y-38074000D01*
X107901000Y-38074000D01*
X107901000Y-39476000D01*
X107901000Y-39476000D01*
G37*
G36*
X118376909Y-37296256D02*
G01*
X117456256Y-38216909D01*
X116783091Y-37543744D01*
X117703744Y-36623091D01*
X118376909Y-37296256D01*
X118376909Y-37296256D01*
G37*
G36*
X110490935Y-36455742D02*
G01*
X110641258Y-36518008D01*
X110776545Y-36608404D01*
X110891596Y-36723455D01*
X110981992Y-36858742D01*
X111044258Y-37009065D01*
X111076000Y-37168646D01*
X111076000Y-37331354D01*
X111044258Y-37490935D01*
X110981992Y-37641258D01*
X110891596Y-37776545D01*
X110776545Y-37891596D01*
X110641258Y-37981992D01*
X110490935Y-38044258D01*
X110331354Y-38076000D01*
X110168646Y-38076000D01*
X110009065Y-38044258D01*
X109858742Y-37981992D01*
X109723455Y-37891596D01*
X109608404Y-37776545D01*
X109518008Y-37641258D01*
X109455742Y-37490935D01*
X109424000Y-37331354D01*
X109424000Y-37168646D01*
X109455742Y-37009065D01*
X109518008Y-36858742D01*
X109608404Y-36723455D01*
X109723455Y-36608404D01*
X109858742Y-36518008D01*
X110009065Y-36455742D01*
X110168646Y-36424000D01*
X110331354Y-36424000D01*
X110490935Y-36455742D01*
X110490935Y-36455742D01*
G37*
G36*
X82362904Y-35859185D02*
G01*
X82531426Y-35928989D01*
X82683091Y-36030328D01*
X82812072Y-36159309D01*
X82913411Y-36310974D01*
X82983215Y-36479496D01*
X83018800Y-36658397D01*
X83018800Y-36840803D01*
X82983215Y-37019704D01*
X82913411Y-37188226D01*
X82812072Y-37339891D01*
X82683091Y-37468872D01*
X82531426Y-37570211D01*
X82362904Y-37640015D01*
X82184003Y-37675600D01*
X82001597Y-37675600D01*
X81822696Y-37640015D01*
X81654174Y-37570211D01*
X81502509Y-37468872D01*
X81373528Y-37339891D01*
X81272189Y-37188226D01*
X81202385Y-37019704D01*
X81166800Y-36840803D01*
X81166800Y-36658397D01*
X81202385Y-36479496D01*
X81272189Y-36310974D01*
X81373528Y-36159309D01*
X81502509Y-36030328D01*
X81654174Y-35928989D01*
X81822696Y-35859185D01*
X82001597Y-35823600D01*
X82184003Y-35823600D01*
X82362904Y-35859185D01*
X82362904Y-35859185D01*
G37*
G36*
X107901000Y-36951000D02*
G01*
X106399000Y-36951000D01*
X106399000Y-35549000D01*
X107901000Y-35549000D01*
X107901000Y-36951000D01*
X107901000Y-36951000D01*
G37*
G36*
X84797595Y-34419756D02*
G01*
X84903950Y-34440911D01*
X85004134Y-34482409D01*
X85104320Y-34523907D01*
X85284644Y-34644395D01*
X85438005Y-34797756D01*
X85558493Y-34978080D01*
X85558493Y-34978081D01*
X85641489Y-35178450D01*
X85683800Y-35391161D01*
X85683800Y-35608039D01*
X85641489Y-35820750D01*
X85625568Y-35859186D01*
X85558493Y-36021120D01*
X85438005Y-36201444D01*
X85284644Y-36354805D01*
X85104320Y-36475293D01*
X84903950Y-36558289D01*
X84797594Y-36579445D01*
X84691240Y-36600600D01*
X84474360Y-36600600D01*
X84368006Y-36579445D01*
X84261650Y-36558289D01*
X84061280Y-36475293D01*
X83880956Y-36354805D01*
X83727595Y-36201444D01*
X83607107Y-36021120D01*
X83540032Y-35859186D01*
X83524111Y-35820750D01*
X83481800Y-35608039D01*
X83481800Y-35391161D01*
X83524111Y-35178450D01*
X83607107Y-34978081D01*
X83607107Y-34978080D01*
X83727595Y-34797756D01*
X83880956Y-34644395D01*
X84061280Y-34523907D01*
X84161466Y-34482409D01*
X84261650Y-34440911D01*
X84368005Y-34419756D01*
X84474360Y-34398600D01*
X84691240Y-34398600D01*
X84797595Y-34419756D01*
X84797595Y-34419756D01*
G37*
G36*
X114151000Y-35801000D02*
G01*
X112749000Y-35801000D01*
X112749000Y-34499000D01*
X114151000Y-34499000D01*
X114151000Y-35801000D01*
X114151000Y-35801000D01*
G37*
M02*
