%TF.GenerationSoftware,KiCad,Pcbnew,(5.1.2)-1*%
%TF.CreationDate,2019-11-09T14:12:44+01:00*%
%TF.ProjectId,sensactHsIO,73656e73-6163-4744-9873-494f2e6b6963,rev?*%
%TF.SameCoordinates,Original*%
%TF.FileFunction,Legend,Bot*%
%TF.FilePolarity,Positive*%
%FSLAX46Y46*%
G04 Gerber Fmt 4.6, Leading zero omitted, Abs format (unit mm)*
G04 Created by KiCad (PCBNEW (5.1.2)-1) date 2019-11-09 14:12:44*
%MOMM*%
%LPD*%
G04 APERTURE LIST*
%ADD10C,0.200000*%
%ADD11C,0.050000*%
%ADD12C,0.120000*%
%ADD13C,0.150000*%
G04 APERTURE END LIST*
D10*
X119429523Y-49157142D02*
X119286666Y-49228571D01*
X119048571Y-49228571D01*
X118953333Y-49157142D01*
X118905714Y-49085714D01*
X118858095Y-48942857D01*
X118858095Y-48800000D01*
X118905714Y-48657142D01*
X118953333Y-48585714D01*
X119048571Y-48514285D01*
X119239047Y-48442857D01*
X119334285Y-48371428D01*
X119381904Y-48300000D01*
X119429523Y-48157142D01*
X119429523Y-48014285D01*
X119381904Y-47871428D01*
X119334285Y-47800000D01*
X119239047Y-47728571D01*
X119000952Y-47728571D01*
X118858095Y-47800000D01*
X118048571Y-49157142D02*
X118143809Y-49228571D01*
X118334285Y-49228571D01*
X118429523Y-49157142D01*
X118477142Y-49014285D01*
X118477142Y-48442857D01*
X118429523Y-48300000D01*
X118334285Y-48228571D01*
X118143809Y-48228571D01*
X118048571Y-48300000D01*
X118000952Y-48442857D01*
X118000952Y-48585714D01*
X118477142Y-48728571D01*
X117572380Y-48228571D02*
X117572380Y-49228571D01*
X117572380Y-48371428D02*
X117524761Y-48300000D01*
X117429523Y-48228571D01*
X117286666Y-48228571D01*
X117191428Y-48300000D01*
X117143809Y-48442857D01*
X117143809Y-49228571D01*
X116715238Y-49157142D02*
X116620000Y-49228571D01*
X116429523Y-49228571D01*
X116334285Y-49157142D01*
X116286666Y-49014285D01*
X116286666Y-48942857D01*
X116334285Y-48800000D01*
X116429523Y-48728571D01*
X116572380Y-48728571D01*
X116667619Y-48657142D01*
X116715238Y-48514285D01*
X116715238Y-48442857D01*
X116667619Y-48300000D01*
X116572380Y-48228571D01*
X116429523Y-48228571D01*
X116334285Y-48300000D01*
X115429523Y-49228571D02*
X115429523Y-48442857D01*
X115477142Y-48300000D01*
X115572380Y-48228571D01*
X115762857Y-48228571D01*
X115858095Y-48300000D01*
X115429523Y-49157142D02*
X115524761Y-49228571D01*
X115762857Y-49228571D01*
X115858095Y-49157142D01*
X115905714Y-49014285D01*
X115905714Y-48871428D01*
X115858095Y-48728571D01*
X115762857Y-48657142D01*
X115524761Y-48657142D01*
X115429523Y-48585714D01*
X114524761Y-49157142D02*
X114620000Y-49228571D01*
X114810476Y-49228571D01*
X114905714Y-49157142D01*
X114953333Y-49085714D01*
X115000952Y-48942857D01*
X115000952Y-48514285D01*
X114953333Y-48371428D01*
X114905714Y-48300000D01*
X114810476Y-48228571D01*
X114620000Y-48228571D01*
X114524761Y-48300000D01*
X114239047Y-48228571D02*
X113858095Y-48228571D01*
X114096190Y-47728571D02*
X114096190Y-49014285D01*
X114048571Y-49157142D01*
X113953333Y-49228571D01*
X113858095Y-49228571D01*
X113524761Y-49228571D02*
X113524761Y-47728571D01*
X113524761Y-48442857D02*
X112953333Y-48442857D01*
X112953333Y-49228571D02*
X112953333Y-47728571D01*
X112524761Y-49157142D02*
X112429523Y-49228571D01*
X112239047Y-49228571D01*
X112143809Y-49157142D01*
X112096190Y-49014285D01*
X112096190Y-48942857D01*
X112143809Y-48800000D01*
X112239047Y-48728571D01*
X112381904Y-48728571D01*
X112477142Y-48657142D01*
X112524761Y-48514285D01*
X112524761Y-48442857D01*
X112477142Y-48300000D01*
X112381904Y-48228571D01*
X112239047Y-48228571D01*
X112143809Y-48300000D01*
X111667619Y-49228571D02*
X111667619Y-47728571D01*
X111000952Y-47728571D02*
X110810476Y-47728571D01*
X110715238Y-47800000D01*
X110620000Y-47942857D01*
X110572380Y-48228571D01*
X110572380Y-48728571D01*
X110620000Y-49014285D01*
X110715238Y-49157142D01*
X110810476Y-49228571D01*
X111000952Y-49228571D01*
X111096190Y-49157142D01*
X111191428Y-49014285D01*
X111239047Y-48728571D01*
X111239047Y-48228571D01*
X111191428Y-47942857D01*
X111096190Y-47800000D01*
X111000952Y-47728571D01*
X119429523Y-50321428D02*
X119381904Y-50250000D01*
X119286666Y-50178571D01*
X119048571Y-50178571D01*
X118953333Y-50250000D01*
X118905714Y-50321428D01*
X118858095Y-50464285D01*
X118858095Y-50607142D01*
X118905714Y-50821428D01*
X119477142Y-51678571D01*
X118858095Y-51678571D01*
X118239047Y-50178571D02*
X118143809Y-50178571D01*
X118048571Y-50250000D01*
X118000952Y-50321428D01*
X117953333Y-50464285D01*
X117905714Y-50750000D01*
X117905714Y-51107142D01*
X117953333Y-51392857D01*
X118000952Y-51535714D01*
X118048571Y-51607142D01*
X118143809Y-51678571D01*
X118239047Y-51678571D01*
X118334285Y-51607142D01*
X118381904Y-51535714D01*
X118429523Y-51392857D01*
X118477142Y-51107142D01*
X118477142Y-50750000D01*
X118429523Y-50464285D01*
X118381904Y-50321428D01*
X118334285Y-50250000D01*
X118239047Y-50178571D01*
X116953333Y-51678571D02*
X117524761Y-51678571D01*
X117239047Y-51678571D02*
X117239047Y-50178571D01*
X117334285Y-50392857D01*
X117429523Y-50535714D01*
X117524761Y-50607142D01*
X116477142Y-51678571D02*
X116286666Y-51678571D01*
X116191428Y-51607142D01*
X116143809Y-51535714D01*
X116048571Y-51321428D01*
X116000952Y-51035714D01*
X116000952Y-50464285D01*
X116048571Y-50321428D01*
X116096190Y-50250000D01*
X116191428Y-50178571D01*
X116381904Y-50178571D01*
X116477142Y-50250000D01*
X116524761Y-50321428D01*
X116572380Y-50464285D01*
X116572380Y-50821428D01*
X116524761Y-50964285D01*
X116477142Y-51035714D01*
X116381904Y-51107142D01*
X116191428Y-51107142D01*
X116096190Y-51035714D01*
X116048571Y-50964285D01*
X116000952Y-50821428D01*
X115572380Y-51107142D02*
X114810476Y-51107142D01*
X113810476Y-51678571D02*
X114381904Y-51678571D01*
X114096190Y-51678571D02*
X114096190Y-50178571D01*
X114191428Y-50392857D01*
X114286666Y-50535714D01*
X114381904Y-50607142D01*
X112858095Y-51678571D02*
X113429523Y-51678571D01*
X113143809Y-51678571D02*
X113143809Y-50178571D01*
X113239047Y-50392857D01*
X113334285Y-50535714D01*
X113429523Y-50607142D01*
X112429523Y-51107142D02*
X111667619Y-51107142D01*
X111000952Y-50178571D02*
X110905714Y-50178571D01*
X110810476Y-50250000D01*
X110762857Y-50321428D01*
X110715238Y-50464285D01*
X110667619Y-50750000D01*
X110667619Y-51107142D01*
X110715238Y-51392857D01*
X110762857Y-51535714D01*
X110810476Y-51607142D01*
X110905714Y-51678571D01*
X111000952Y-51678571D01*
X111096190Y-51607142D01*
X111143809Y-51535714D01*
X111191428Y-51392857D01*
X111239047Y-51107142D01*
X111239047Y-50750000D01*
X111191428Y-50464285D01*
X111143809Y-50321428D01*
X111096190Y-50250000D01*
X111000952Y-50178571D01*
X110191428Y-51678571D02*
X110000952Y-51678571D01*
X109905714Y-51607142D01*
X109858095Y-51535714D01*
X109762857Y-51321428D01*
X109715238Y-51035714D01*
X109715238Y-50464285D01*
X109762857Y-50321428D01*
X109810476Y-50250000D01*
X109905714Y-50178571D01*
X110096190Y-50178571D01*
X110191428Y-50250000D01*
X110239047Y-50321428D01*
X110286666Y-50464285D01*
X110286666Y-50821428D01*
X110239047Y-50964285D01*
X110191428Y-51035714D01*
X110096190Y-51107142D01*
X109905714Y-51107142D01*
X109810476Y-51035714D01*
X109762857Y-50964285D01*
X109715238Y-50821428D01*
X119096190Y-54700000D02*
X119143809Y-54628571D01*
X119239047Y-54414285D01*
X119286666Y-54271428D01*
X119334285Y-54057142D01*
X119381904Y-53700000D01*
X119381904Y-53414285D01*
X119334285Y-53057142D01*
X119286666Y-52842857D01*
X119239047Y-52700000D01*
X119143809Y-52485714D01*
X119096190Y-52414285D01*
X118286666Y-54057142D02*
X118381904Y-54128571D01*
X118572380Y-54128571D01*
X118667619Y-54057142D01*
X118715238Y-53985714D01*
X118762857Y-53842857D01*
X118762857Y-53414285D01*
X118715238Y-53271428D01*
X118667619Y-53200000D01*
X118572380Y-53128571D01*
X118381904Y-53128571D01*
X118286666Y-53200000D01*
X117953333Y-54700000D02*
X117905714Y-54628571D01*
X117810476Y-54414285D01*
X117762857Y-54271428D01*
X117715238Y-54057142D01*
X117667619Y-53700000D01*
X117667619Y-53414285D01*
X117715238Y-53057142D01*
X117762857Y-52842857D01*
X117810476Y-52700000D01*
X117905714Y-52485714D01*
X117953333Y-52414285D01*
X116429523Y-54128571D02*
X116429523Y-52628571D01*
X115858095Y-54128571D02*
X116286666Y-53271428D01*
X115858095Y-52628571D02*
X116429523Y-53485714D01*
X115286666Y-54128571D02*
X115381904Y-54057142D01*
X115429523Y-53914285D01*
X115429523Y-52628571D01*
X114477142Y-54128571D02*
X114477142Y-53342857D01*
X114524761Y-53200000D01*
X114620000Y-53128571D01*
X114810476Y-53128571D01*
X114905714Y-53200000D01*
X114477142Y-54057142D02*
X114572380Y-54128571D01*
X114810476Y-54128571D01*
X114905714Y-54057142D01*
X114953333Y-53914285D01*
X114953333Y-53771428D01*
X114905714Y-53628571D01*
X114810476Y-53557142D01*
X114572380Y-53557142D01*
X114477142Y-53485714D01*
X113572380Y-53128571D02*
X113572380Y-54128571D01*
X114000952Y-53128571D02*
X114000952Y-53914285D01*
X113953333Y-54057142D01*
X113858095Y-54128571D01*
X113715238Y-54128571D01*
X113620000Y-54057142D01*
X113572380Y-53985714D01*
X113143809Y-54057142D02*
X113048571Y-54128571D01*
X112858095Y-54128571D01*
X112762857Y-54057142D01*
X112715238Y-53914285D01*
X112715238Y-53842857D01*
X112762857Y-53700000D01*
X112858095Y-53628571D01*
X113000952Y-53628571D01*
X113096190Y-53557142D01*
X113143809Y-53414285D01*
X113143809Y-53342857D01*
X113096190Y-53200000D01*
X113000952Y-53128571D01*
X112858095Y-53128571D01*
X112762857Y-53200000D01*
X111048571Y-54128571D02*
X111524761Y-54128571D01*
X111524761Y-52628571D01*
X110715238Y-54128571D02*
X110715238Y-53128571D01*
X110715238Y-52628571D02*
X110762857Y-52700000D01*
X110715238Y-52771428D01*
X110667619Y-52700000D01*
X110715238Y-52628571D01*
X110715238Y-52771428D01*
X109858095Y-54057142D02*
X109953333Y-54128571D01*
X110143809Y-54128571D01*
X110239047Y-54057142D01*
X110286666Y-53914285D01*
X110286666Y-53342857D01*
X110239047Y-53200000D01*
X110143809Y-53128571D01*
X109953333Y-53128571D01*
X109858095Y-53200000D01*
X109810476Y-53342857D01*
X109810476Y-53485714D01*
X110286666Y-53628571D01*
X109381904Y-54128571D02*
X109381904Y-52628571D01*
X109381904Y-53200000D02*
X109286666Y-53128571D01*
X109096190Y-53128571D01*
X109000952Y-53200000D01*
X108953333Y-53271428D01*
X108905714Y-53414285D01*
X108905714Y-53842857D01*
X108953333Y-53985714D01*
X109000952Y-54057142D01*
X109096190Y-54128571D01*
X109286666Y-54128571D01*
X109381904Y-54057142D01*
X108334285Y-54128571D02*
X108429523Y-54057142D01*
X108477142Y-53914285D01*
X108477142Y-52628571D01*
X107572380Y-54057142D02*
X107667619Y-54128571D01*
X107858095Y-54128571D01*
X107953333Y-54057142D01*
X108000952Y-53914285D01*
X108000952Y-53342857D01*
X107953333Y-53200000D01*
X107858095Y-53128571D01*
X107667619Y-53128571D01*
X107572380Y-53200000D01*
X107524761Y-53342857D01*
X107524761Y-53485714D01*
X108000952Y-53628571D01*
X107096190Y-54128571D02*
X107096190Y-53128571D01*
X107096190Y-53414285D02*
X107048571Y-53271428D01*
X107000952Y-53200000D01*
X106905714Y-53128571D01*
X106810476Y-53128571D01*
D11*
X114750000Y-44500000D02*
X114750000Y-46500000D01*
X116500000Y-44500000D02*
X114750000Y-44500000D01*
X118750000Y-42250000D02*
X116500000Y-44500000D01*
X118750000Y-38250000D02*
X118750000Y-42250000D01*
X116500000Y-36000000D02*
X118750000Y-38250000D01*
X114750000Y-36000000D02*
X116500000Y-36000000D01*
X114750000Y-34000000D02*
X114750000Y-36000000D01*
X79250000Y-34000000D02*
X79250000Y-57250000D01*
X80750000Y-104250000D02*
X80750000Y-98250000D01*
X56750000Y-57750000D02*
X56750000Y-104250000D01*
X78750000Y-57750000D02*
X56750000Y-57750000D01*
X114750000Y-34000000D02*
X79250000Y-34000000D01*
X143250000Y-101250000D02*
X143250000Y-57750000D01*
X130250000Y-98250000D02*
X130250000Y-101250000D01*
X143250000Y-57750000D02*
X121250000Y-57750000D01*
X130250000Y-101250000D02*
X143250000Y-101250000D01*
X114250000Y-98250000D02*
X85750000Y-98250000D01*
X80750000Y-104250000D02*
X56750000Y-104250000D01*
X120750000Y-57250000D02*
X120750000Y-46500000D01*
X120750000Y-57250000D02*
X119500000Y-57250000D01*
X120750000Y-46500000D02*
X114750000Y-46500000D01*
X121250000Y-59000000D02*
G75*
G02X119500000Y-57250000I-1750000J0D01*
G01*
X117750000Y-97000000D02*
X117750000Y-98250000D01*
X82250000Y-98250000D02*
X80750000Y-98250000D01*
X82250000Y-97000000D02*
X82250000Y-98250000D01*
X82250000Y-97000000D02*
G75*
G02X85750000Y-97000000I1750000J0D01*
G01*
X85750000Y-97000000D02*
X85750000Y-98250000D01*
X78750000Y-57750000D02*
X78750000Y-59000000D01*
X114250000Y-97000000D02*
G75*
G02X117750000Y-97000000I1750000J0D01*
G01*
X80500000Y-57250000D02*
X79250000Y-57250000D01*
X80500000Y-57250000D02*
G75*
G02X78750000Y-59000000I0J-1750000D01*
G01*
X117750000Y-98250000D02*
X130250000Y-98250000D01*
X121250000Y-59000000D02*
X121250000Y-57750000D01*
X114250000Y-97000000D02*
X114250000Y-98250000D01*
D12*
X119916000Y-98437000D02*
X122456000Y-98437000D01*
X119916000Y-98437000D02*
X119916000Y-95897000D01*
X120166000Y-98187000D02*
X129516000Y-98187000D01*
X120166000Y-64627000D02*
X120166000Y-98187000D01*
X129516000Y-64627000D02*
X120166000Y-64627000D01*
X129516000Y-98187000D02*
X129516000Y-64627000D01*
X112260748Y-63679000D02*
X112783252Y-63679000D01*
X112260748Y-65099000D02*
X112783252Y-65099000D01*
X112792252Y-67131000D02*
X112269748Y-67131000D01*
X112792252Y-65711000D02*
X112269748Y-65711000D01*
X112269748Y-67743000D02*
X112792252Y-67743000D01*
X112269748Y-69163000D02*
X112792252Y-69163000D01*
X112792252Y-71195000D02*
X112269748Y-71195000D01*
X112792252Y-69775000D02*
X112269748Y-69775000D01*
X112269748Y-75871000D02*
X112792252Y-75871000D01*
X112269748Y-77291000D02*
X112792252Y-77291000D01*
X112792252Y-79323000D02*
X112269748Y-79323000D01*
X112792252Y-77903000D02*
X112269748Y-77903000D01*
X112269748Y-71807000D02*
X112792252Y-71807000D01*
X112269748Y-73227000D02*
X112792252Y-73227000D01*
X112792252Y-75259000D02*
X112269748Y-75259000D01*
X112792252Y-73839000D02*
X112269748Y-73839000D01*
X117981000Y-63825000D02*
X116521000Y-63825000D01*
X117981000Y-66985000D02*
X114821000Y-66985000D01*
X117981000Y-66985000D02*
X117981000Y-66055000D01*
X117981000Y-63825000D02*
X117981000Y-64755000D01*
X117981000Y-67889000D02*
X116521000Y-67889000D01*
X117981000Y-71049000D02*
X114821000Y-71049000D01*
X117981000Y-71049000D02*
X117981000Y-70119000D01*
X117981000Y-67889000D02*
X117981000Y-68819000D01*
X117981000Y-76017000D02*
X116521000Y-76017000D01*
X117981000Y-79177000D02*
X114821000Y-79177000D01*
X117981000Y-79177000D02*
X117981000Y-78247000D01*
X117981000Y-76017000D02*
X117981000Y-76947000D01*
X117981000Y-71953000D02*
X116521000Y-71953000D01*
X117981000Y-75113000D02*
X114821000Y-75113000D01*
X117981000Y-75113000D02*
X117981000Y-74183000D01*
X117981000Y-71953000D02*
X117981000Y-72883000D01*
X93464748Y-38787000D02*
X93987252Y-38787000D01*
X93464748Y-40207000D02*
X93987252Y-40207000D01*
D13*
X134817000Y-97280000D02*
X134817000Y-97780000D01*
X134817000Y-94780000D02*
X134817000Y-95280000D01*
X134817000Y-92280000D02*
X134817000Y-92780000D01*
X134817000Y-89780000D02*
X134817000Y-90280000D01*
X134817000Y-87280000D02*
X134817000Y-87780000D01*
X134817000Y-84780000D02*
X134817000Y-85280000D01*
X134817000Y-82280000D02*
X134817000Y-82780000D01*
X134817000Y-79080000D02*
X134817000Y-80280000D01*
X134817000Y-100980000D02*
X134817000Y-99780000D01*
X144917000Y-100980000D02*
X134817000Y-100980000D01*
X144917000Y-79080000D02*
X144917000Y-100980000D01*
X134817000Y-79080000D02*
X144917000Y-79080000D01*
D12*
X133417000Y-80980000D02*
X133417000Y-81580000D01*
X134017000Y-81280000D02*
X133417000Y-80980000D01*
X133417000Y-81580000D02*
X134017000Y-81280000D01*
X140817000Y-79080000D02*
X140817000Y-100980000D01*
X85844748Y-55170000D02*
X86367252Y-55170000D01*
X85844748Y-56590000D02*
X86367252Y-56590000D01*
X82424748Y-62663000D02*
X82947252Y-62663000D01*
X82424748Y-64083000D02*
X82947252Y-64083000D01*
X66219000Y-60586252D02*
X66219000Y-60063748D01*
X67639000Y-60586252D02*
X67639000Y-60063748D01*
X68251000Y-60586252D02*
X68251000Y-60063748D01*
X69671000Y-60586252D02*
X69671000Y-60063748D01*
X83065252Y-76529000D02*
X82542748Y-76529000D01*
X83065252Y-75109000D02*
X82542748Y-75109000D01*
X83065252Y-78561000D02*
X82542748Y-78561000D01*
X83065252Y-77141000D02*
X82542748Y-77141000D01*
X81653748Y-73077000D02*
X82176252Y-73077000D01*
X81653748Y-74497000D02*
X82176252Y-74497000D01*
X81653748Y-71045000D02*
X82176252Y-71045000D01*
X81653748Y-72465000D02*
X82176252Y-72465000D01*
D13*
X65081000Y-84838000D02*
X65081000Y-84338000D01*
X65081000Y-87338000D02*
X65081000Y-86838000D01*
X65081000Y-89838000D02*
X65081000Y-89338000D01*
X65081000Y-92338000D02*
X65081000Y-91838000D01*
X65081000Y-94838000D02*
X65081000Y-94338000D01*
X65081000Y-97338000D02*
X65081000Y-96838000D01*
X65081000Y-99838000D02*
X65081000Y-99338000D01*
X65081000Y-103038000D02*
X65081000Y-101838000D01*
X65081000Y-81138000D02*
X65081000Y-82338000D01*
X54981000Y-81138000D02*
X65081000Y-81138000D01*
X54981000Y-103038000D02*
X54981000Y-81138000D01*
X65081000Y-103038000D02*
X54981000Y-103038000D01*
D12*
X66481000Y-101138000D02*
X66481000Y-100538000D01*
X65881000Y-100838000D02*
X66481000Y-101138000D01*
X66481000Y-100538000D02*
X65881000Y-100838000D01*
X59081000Y-103038000D02*
X59081000Y-81138000D01*
X78792000Y-102242252D02*
X78792000Y-101719748D01*
X80212000Y-102242252D02*
X80212000Y-101719748D01*
X82542748Y-83237000D02*
X83065252Y-83237000D01*
X82542748Y-84657000D02*
X83065252Y-84657000D01*
X83065252Y-80593000D02*
X82542748Y-80593000D01*
X83065252Y-79173000D02*
X82542748Y-79173000D01*
X83065252Y-82625000D02*
X82542748Y-82625000D01*
X83065252Y-81205000D02*
X82542748Y-81205000D01*
X82542748Y-85269000D02*
X83065252Y-85269000D01*
X82542748Y-86689000D02*
X83065252Y-86689000D01*
D13*
X65081000Y-62613000D02*
X65081000Y-62113000D01*
X65081000Y-65113000D02*
X65081000Y-64613000D01*
X65081000Y-67613000D02*
X65081000Y-67113000D01*
X65081000Y-70113000D02*
X65081000Y-69613000D01*
X65081000Y-72613000D02*
X65081000Y-72113000D01*
X65081000Y-75113000D02*
X65081000Y-74613000D01*
X65081000Y-77613000D02*
X65081000Y-77113000D01*
X65081000Y-80813000D02*
X65081000Y-79613000D01*
X65081000Y-58913000D02*
X65081000Y-60113000D01*
X54981000Y-58913000D02*
X65081000Y-58913000D01*
X54981000Y-80813000D02*
X54981000Y-58913000D01*
X65081000Y-80813000D02*
X54981000Y-80813000D01*
D12*
X66481000Y-78913000D02*
X66481000Y-78313000D01*
X65881000Y-78613000D02*
X66481000Y-78913000D01*
X66481000Y-78313000D02*
X65881000Y-78613000D01*
X59081000Y-80813000D02*
X59081000Y-58913000D01*
X76760000Y-102242252D02*
X76760000Y-101719748D01*
X78180000Y-102242252D02*
X78180000Y-101719748D01*
X69925000Y-100830748D02*
X69925000Y-101353252D01*
X68505000Y-100830748D02*
X68505000Y-101353252D01*
X67766000Y-100440748D02*
X67766000Y-100963252D01*
X66346000Y-100440748D02*
X66346000Y-100963252D01*
X81840000Y-45981252D02*
X81840000Y-45458748D01*
X83260000Y-45981252D02*
X83260000Y-45458748D01*
D13*
X98622998Y-89259000D02*
G75*
G03X91623001Y-89259001I-3499998J-1800000D01*
G01*
X91623002Y-92859000D02*
G75*
G03X98622999Y-92858999I3499998J1800000D01*
G01*
X98623000Y-92859000D02*
X98623000Y-89259000D01*
X91623000Y-89259000D02*
X91623000Y-92859000D01*
D12*
X83062800Y-37299600D02*
X83062800Y-40699600D01*
X83062800Y-35659600D02*
X83062800Y-36199600D01*
X85892800Y-42859600D02*
X86402800Y-42859600D01*
X86402800Y-42339600D02*
X86402800Y-42859600D01*
X85892800Y-42339600D02*
X86402800Y-42339600D01*
X83062800Y-41799600D02*
X83062800Y-42339600D01*
X85892800Y-35139600D02*
X86402800Y-35139600D01*
X85892800Y-35659600D02*
X86402800Y-35659600D01*
X83062800Y-42339600D02*
X83292800Y-42339600D01*
X79392800Y-35139600D02*
X83292800Y-35139600D01*
X86402800Y-35139600D02*
X86402800Y-35659600D01*
X79392800Y-42859600D02*
X83292800Y-42859600D01*
X79392800Y-35139600D02*
X79392800Y-42859600D01*
X83062800Y-35659600D02*
X83292800Y-35659600D01*
X105262000Y-96106064D02*
X105262000Y-94901936D01*
X107082000Y-96106064D02*
X107082000Y-94901936D01*
X83260000Y-49268748D02*
X83260000Y-49791252D01*
X81840000Y-49268748D02*
X81840000Y-49791252D01*
X99473936Y-71734000D02*
X100678064Y-71734000D01*
X99473936Y-73554000D02*
X100678064Y-73554000D01*
X135448000Y-66076000D02*
X144798000Y-66076000D01*
X135448000Y-70576000D02*
X144798000Y-70576000D01*
X135448000Y-57896000D02*
X135448000Y-78756000D01*
X135448000Y-57896000D02*
X144798000Y-57896000D01*
X135448000Y-78756000D02*
X144798000Y-78756000D01*
X144798000Y-78756000D02*
X144798000Y-57896000D01*
X131318000Y-74676000D02*
X130048000Y-74676000D01*
X130048000Y-74676000D02*
X130048000Y-73406000D01*
X100239000Y-96377000D02*
X104139000Y-96377000D01*
X100239000Y-94377000D02*
X104139000Y-94377000D01*
X100239000Y-96377000D02*
X100239000Y-94377000D01*
X105148748Y-86412000D02*
X105671252Y-86412000D01*
X105148748Y-87832000D02*
X105671252Y-87832000D01*
X101387000Y-93102000D02*
X101387000Y-90652000D01*
X104607000Y-91302000D02*
X104607000Y-93102000D01*
D13*
X122000000Y-40250000D02*
G75*
G03X122000000Y-40250000I-7250000J0D01*
G01*
X116450000Y-36050000D02*
X114750000Y-36050000D01*
X118750000Y-38350000D02*
X116450000Y-36050000D01*
X116450000Y-44450000D02*
X114750000Y-44450000D01*
X118750000Y-42150000D02*
X116450000Y-44450000D01*
X118750000Y-40250000D02*
X118750000Y-42150000D01*
X118750000Y-40250000D02*
X118750000Y-38350000D01*
X114750000Y-34950000D02*
X114750000Y-36050000D01*
X114750000Y-45550000D02*
X114750000Y-44450000D01*
X107500000Y-45550000D02*
X114750000Y-45550000D01*
X107500000Y-40250000D02*
X107500000Y-45550000D01*
X107500000Y-34950000D02*
X114750000Y-34950000D01*
X107500000Y-40250000D02*
X107500000Y-34950000D01*
D12*
X103258252Y-89864000D02*
X102735748Y-89864000D01*
X103258252Y-88444000D02*
X102735748Y-88444000D01*
X106937000Y-83836000D02*
X104137000Y-83836000D01*
X104137000Y-83836000D02*
X104137000Y-85836000D01*
X104137000Y-85836000D02*
X106937000Y-85836000D01*
X106937000Y-85836000D02*
X106937000Y-83836000D01*
X100786000Y-88003748D02*
X100786000Y-88526252D01*
X99366000Y-88003748D02*
X99366000Y-88526252D01*
X103145000Y-84995936D02*
X103145000Y-86200064D01*
X101325000Y-84995936D02*
X101325000Y-86200064D01*
X99366000Y-92463252D02*
X99366000Y-91940748D01*
X100786000Y-92463252D02*
X100786000Y-91940748D01*
D13*
X125888619Y-63825380D02*
X126364809Y-63825380D01*
X126364809Y-62825380D01*
X125555285Y-63301571D02*
X125221952Y-63301571D01*
X125079095Y-63825380D02*
X125555285Y-63825380D01*
X125555285Y-62825380D01*
X125079095Y-62825380D01*
X124650523Y-63825380D02*
X124650523Y-62825380D01*
X124412428Y-62825380D01*
X124269571Y-62873000D01*
X124174333Y-62968238D01*
X124126714Y-63063476D01*
X124079095Y-63253952D01*
X124079095Y-63396809D01*
X124126714Y-63587285D01*
X124174333Y-63682523D01*
X124269571Y-63777761D01*
X124412428Y-63825380D01*
X124650523Y-63825380D01*
X123698142Y-63777761D02*
X123602904Y-63825380D01*
X123412428Y-63825380D01*
X123317190Y-63777761D01*
X123269571Y-63682523D01*
X123269571Y-63634904D01*
X123317190Y-63539666D01*
X123412428Y-63492047D01*
X123555285Y-63492047D01*
X123650523Y-63444428D01*
X123698142Y-63349190D01*
X123698142Y-63301571D01*
X123650523Y-63206333D01*
X123555285Y-63158714D01*
X123412428Y-63158714D01*
X123317190Y-63206333D01*
X109688238Y-64841380D02*
X110259666Y-64841380D01*
X109973952Y-64841380D02*
X109973952Y-63841380D01*
X110069190Y-63984238D01*
X110164428Y-64079476D01*
X110259666Y-64127095D01*
X109069190Y-63841380D02*
X108973952Y-63841380D01*
X108878714Y-63889000D01*
X108831095Y-63936619D01*
X108783476Y-64031857D01*
X108735857Y-64222333D01*
X108735857Y-64460428D01*
X108783476Y-64650904D01*
X108831095Y-64746142D01*
X108878714Y-64793761D01*
X108973952Y-64841380D01*
X109069190Y-64841380D01*
X109164428Y-64793761D01*
X109212047Y-64746142D01*
X109259666Y-64650904D01*
X109307285Y-64460428D01*
X109307285Y-64222333D01*
X109259666Y-64031857D01*
X109212047Y-63936619D01*
X109164428Y-63889000D01*
X109069190Y-63841380D01*
X108307285Y-64841380D02*
X108307285Y-63841380D01*
X108212047Y-64460428D02*
X107926333Y-64841380D01*
X107926333Y-64174714D02*
X108307285Y-64555666D01*
X109847047Y-66873380D02*
X110418476Y-66873380D01*
X110132761Y-66873380D02*
X110132761Y-65873380D01*
X110228000Y-66016238D01*
X110323238Y-66111476D01*
X110418476Y-66159095D01*
X109418476Y-66873380D02*
X109418476Y-65873380D01*
X109323238Y-66492428D02*
X109037523Y-66873380D01*
X109037523Y-66206714D02*
X109418476Y-66587666D01*
X109815238Y-68905380D02*
X110386666Y-68905380D01*
X110100952Y-68905380D02*
X110100952Y-67905380D01*
X110196190Y-68048238D01*
X110291428Y-68143476D01*
X110386666Y-68191095D01*
X109196190Y-67905380D02*
X109100952Y-67905380D01*
X109005714Y-67953000D01*
X108958095Y-68000619D01*
X108910476Y-68095857D01*
X108862857Y-68286333D01*
X108862857Y-68524428D01*
X108910476Y-68714904D01*
X108958095Y-68810142D01*
X109005714Y-68857761D01*
X109100952Y-68905380D01*
X109196190Y-68905380D01*
X109291428Y-68857761D01*
X109339047Y-68810142D01*
X109386666Y-68714904D01*
X109434285Y-68524428D01*
X109434285Y-68286333D01*
X109386666Y-68095857D01*
X109339047Y-68000619D01*
X109291428Y-67953000D01*
X109196190Y-67905380D01*
X108434285Y-68905380D02*
X108434285Y-67905380D01*
X108339047Y-68524428D02*
X108053333Y-68905380D01*
X108053333Y-68238714D02*
X108434285Y-68619666D01*
X109720047Y-70937380D02*
X110291476Y-70937380D01*
X110005761Y-70937380D02*
X110005761Y-69937380D01*
X110101000Y-70080238D01*
X110196238Y-70175476D01*
X110291476Y-70223095D01*
X109291476Y-70937380D02*
X109291476Y-69937380D01*
X109196238Y-70556428D02*
X108910523Y-70937380D01*
X108910523Y-70270714D02*
X109291476Y-70651666D01*
X109688238Y-77033380D02*
X110259666Y-77033380D01*
X109973952Y-77033380D02*
X109973952Y-76033380D01*
X110069190Y-76176238D01*
X110164428Y-76271476D01*
X110259666Y-76319095D01*
X109069190Y-76033380D02*
X108973952Y-76033380D01*
X108878714Y-76081000D01*
X108831095Y-76128619D01*
X108783476Y-76223857D01*
X108735857Y-76414333D01*
X108735857Y-76652428D01*
X108783476Y-76842904D01*
X108831095Y-76938142D01*
X108878714Y-76985761D01*
X108973952Y-77033380D01*
X109069190Y-77033380D01*
X109164428Y-76985761D01*
X109212047Y-76938142D01*
X109259666Y-76842904D01*
X109307285Y-76652428D01*
X109307285Y-76414333D01*
X109259666Y-76223857D01*
X109212047Y-76128619D01*
X109164428Y-76081000D01*
X109069190Y-76033380D01*
X108307285Y-77033380D02*
X108307285Y-76033380D01*
X108212047Y-76652428D02*
X107926333Y-77033380D01*
X107926333Y-76366714D02*
X108307285Y-76747666D01*
X109593047Y-79065380D02*
X110164476Y-79065380D01*
X109878761Y-79065380D02*
X109878761Y-78065380D01*
X109974000Y-78208238D01*
X110069238Y-78303476D01*
X110164476Y-78351095D01*
X109164476Y-79065380D02*
X109164476Y-78065380D01*
X109069238Y-78684428D02*
X108783523Y-79065380D01*
X108783523Y-78398714D02*
X109164476Y-78779666D01*
X109815238Y-72969380D02*
X110386666Y-72969380D01*
X110100952Y-72969380D02*
X110100952Y-71969380D01*
X110196190Y-72112238D01*
X110291428Y-72207476D01*
X110386666Y-72255095D01*
X109196190Y-71969380D02*
X109100952Y-71969380D01*
X109005714Y-72017000D01*
X108958095Y-72064619D01*
X108910476Y-72159857D01*
X108862857Y-72350333D01*
X108862857Y-72588428D01*
X108910476Y-72778904D01*
X108958095Y-72874142D01*
X109005714Y-72921761D01*
X109100952Y-72969380D01*
X109196190Y-72969380D01*
X109291428Y-72921761D01*
X109339047Y-72874142D01*
X109386666Y-72778904D01*
X109434285Y-72588428D01*
X109434285Y-72350333D01*
X109386666Y-72159857D01*
X109339047Y-72064619D01*
X109291428Y-72017000D01*
X109196190Y-71969380D01*
X108434285Y-72969380D02*
X108434285Y-71969380D01*
X108339047Y-72588428D02*
X108053333Y-72969380D01*
X108053333Y-72302714D02*
X108434285Y-72683666D01*
X109593047Y-75001380D02*
X110164476Y-75001380D01*
X109878761Y-75001380D02*
X109878761Y-74001380D01*
X109974000Y-74144238D01*
X110069238Y-74239476D01*
X110164476Y-74287095D01*
X109164476Y-75001380D02*
X109164476Y-74001380D01*
X109069238Y-74620428D02*
X108783523Y-75001380D01*
X108783523Y-74334714D02*
X109164476Y-74715666D01*
X93987904Y-37632714D02*
X93987904Y-38299380D01*
X94416476Y-37632714D02*
X94416476Y-38156523D01*
X94368857Y-38251761D01*
X94273619Y-38299380D01*
X94130761Y-38299380D01*
X94035523Y-38251761D01*
X93987904Y-38204142D01*
X92987904Y-38299380D02*
X93559333Y-38299380D01*
X93273619Y-38299380D02*
X93273619Y-37299380D01*
X93368857Y-37442238D01*
X93464095Y-37537476D01*
X93559333Y-37585095D01*
X133961142Y-86535095D02*
X134008761Y-86487476D01*
X134056380Y-86344619D01*
X134056380Y-86249380D01*
X134008761Y-86106523D01*
X133913523Y-86011285D01*
X133818285Y-85963666D01*
X133627809Y-85916047D01*
X133484952Y-85916047D01*
X133294476Y-85963666D01*
X133199238Y-86011285D01*
X133104000Y-86106523D01*
X133056380Y-86249380D01*
X133056380Y-86344619D01*
X133104000Y-86487476D01*
X133151619Y-86535095D01*
X133770666Y-86916047D02*
X133770666Y-87392238D01*
X134056380Y-86820809D02*
X133056380Y-87154142D01*
X134056380Y-87487476D01*
X134056380Y-87820809D02*
X133056380Y-87820809D01*
X134056380Y-88392238D01*
X133056380Y-88392238D01*
X134056380Y-89677952D02*
X134056380Y-89630333D01*
X134008761Y-89535095D01*
X133865904Y-89392238D01*
X133580190Y-89154142D01*
X133437333Y-89058904D01*
X133294476Y-89011285D01*
X133199238Y-89011285D01*
X133104000Y-89058904D01*
X133056380Y-89154142D01*
X133056380Y-89201761D01*
X133104000Y-89297000D01*
X133199238Y-89344619D01*
X133246857Y-89344619D01*
X133342095Y-89297000D01*
X133389714Y-89249380D01*
X133580190Y-88963666D01*
X133627809Y-88916047D01*
X133723047Y-88868428D01*
X133865904Y-88868428D01*
X133961142Y-88916047D01*
X134008761Y-88963666D01*
X134056380Y-89058904D01*
X134056380Y-89201761D01*
X134008761Y-89297000D01*
X133961142Y-89344619D01*
X133770666Y-89487476D01*
X133627809Y-89535095D01*
X133532571Y-89535095D01*
X133770666Y-90058904D02*
X133770666Y-90535095D01*
X134056380Y-89963666D02*
X133056380Y-90297000D01*
X134056380Y-90630333D01*
X133389714Y-90963666D02*
X134056380Y-90963666D01*
X133484952Y-90963666D02*
X133437333Y-91011285D01*
X133389714Y-91106523D01*
X133389714Y-91249380D01*
X133437333Y-91344619D01*
X133532571Y-91392238D01*
X134056380Y-91392238D01*
X134056380Y-92297000D02*
X133532571Y-92297000D01*
X133437333Y-92249380D01*
X133389714Y-92154142D01*
X133389714Y-91963666D01*
X133437333Y-91868428D01*
X134008761Y-92297000D02*
X134056380Y-92201761D01*
X134056380Y-91963666D01*
X134008761Y-91868428D01*
X133913523Y-91820809D01*
X133818285Y-91820809D01*
X133723047Y-91868428D01*
X133675428Y-91963666D01*
X133675428Y-92201761D01*
X133627809Y-92297000D01*
X134056380Y-92916047D02*
X134008761Y-92820809D01*
X133913523Y-92773190D01*
X133056380Y-92773190D01*
X134056380Y-93439857D02*
X134008761Y-93344619D01*
X133961142Y-93297000D01*
X133865904Y-93249380D01*
X133580190Y-93249380D01*
X133484952Y-93297000D01*
X133437333Y-93344619D01*
X133389714Y-93439857D01*
X133389714Y-93582714D01*
X133437333Y-93677952D01*
X133484952Y-93725571D01*
X133580190Y-93773190D01*
X133865904Y-93773190D01*
X133961142Y-93725571D01*
X134008761Y-93677952D01*
X134056380Y-93582714D01*
X134056380Y-93439857D01*
X133389714Y-94630333D02*
X134199238Y-94630333D01*
X134294476Y-94582714D01*
X134342095Y-94535095D01*
X134389714Y-94439857D01*
X134389714Y-94297000D01*
X134342095Y-94201761D01*
X134008761Y-94630333D02*
X134056380Y-94535095D01*
X134056380Y-94344619D01*
X134008761Y-94249380D01*
X133961142Y-94201761D01*
X133865904Y-94154142D01*
X133580190Y-94154142D01*
X133484952Y-94201761D01*
X133437333Y-94249380D01*
X133389714Y-94344619D01*
X133389714Y-94535095D01*
X133437333Y-94630333D01*
X86367904Y-54015714D02*
X86367904Y-54682380D01*
X86796476Y-54015714D02*
X86796476Y-54539523D01*
X86748857Y-54634761D01*
X86653619Y-54682380D01*
X86510761Y-54682380D01*
X86415523Y-54634761D01*
X86367904Y-54587142D01*
X85367904Y-54682380D02*
X85939333Y-54682380D01*
X85653619Y-54682380D02*
X85653619Y-53682380D01*
X85748857Y-53825238D01*
X85844095Y-53920476D01*
X85939333Y-53968095D01*
X82947904Y-61508714D02*
X82947904Y-62175380D01*
X83376476Y-61508714D02*
X83376476Y-62032523D01*
X83328857Y-62127761D01*
X83233619Y-62175380D01*
X83090761Y-62175380D01*
X82995523Y-62127761D01*
X82947904Y-62080142D01*
X81947904Y-62175380D02*
X82519333Y-62175380D01*
X82233619Y-62175380D02*
X82233619Y-61175380D01*
X82328857Y-61318238D01*
X82424095Y-61413476D01*
X82519333Y-61461095D01*
X67190904Y-62650714D02*
X67190904Y-63317380D01*
X67619476Y-62650714D02*
X67619476Y-63174523D01*
X67571857Y-63269761D01*
X67476619Y-63317380D01*
X67333761Y-63317380D01*
X67238523Y-63269761D01*
X67190904Y-63222142D01*
X66190904Y-63317380D02*
X66762333Y-63317380D01*
X66476619Y-63317380D02*
X66476619Y-62317380D01*
X66571857Y-62460238D01*
X66667095Y-62555476D01*
X66762333Y-62603095D01*
X69222904Y-62650714D02*
X69222904Y-63317380D01*
X69651476Y-62650714D02*
X69651476Y-63174523D01*
X69603857Y-63269761D01*
X69508619Y-63317380D01*
X69365761Y-63317380D01*
X69270523Y-63269761D01*
X69222904Y-63222142D01*
X68222904Y-63317380D02*
X68794333Y-63317380D01*
X68508619Y-63317380D02*
X68508619Y-62317380D01*
X68603857Y-62460238D01*
X68699095Y-62555476D01*
X68794333Y-62603095D01*
X85859904Y-75604714D02*
X85859904Y-76271380D01*
X86288476Y-75604714D02*
X86288476Y-76128523D01*
X86240857Y-76223761D01*
X86145619Y-76271380D01*
X86002761Y-76271380D01*
X85907523Y-76223761D01*
X85859904Y-76176142D01*
X84859904Y-76271380D02*
X85431333Y-76271380D01*
X85145619Y-76271380D02*
X85145619Y-75271380D01*
X85240857Y-75414238D01*
X85336095Y-75509476D01*
X85431333Y-75557095D01*
X85859904Y-77636714D02*
X85859904Y-78303380D01*
X86288476Y-77636714D02*
X86288476Y-78160523D01*
X86240857Y-78255761D01*
X86145619Y-78303380D01*
X86002761Y-78303380D01*
X85907523Y-78255761D01*
X85859904Y-78208142D01*
X84859904Y-78303380D02*
X85431333Y-78303380D01*
X85145619Y-78303380D02*
X85145619Y-77303380D01*
X85240857Y-77446238D01*
X85336095Y-77541476D01*
X85431333Y-77589095D01*
X84970904Y-73572714D02*
X84970904Y-74239380D01*
X85399476Y-73572714D02*
X85399476Y-74096523D01*
X85351857Y-74191761D01*
X85256619Y-74239380D01*
X85113761Y-74239380D01*
X85018523Y-74191761D01*
X84970904Y-74144142D01*
X83970904Y-74239380D02*
X84542333Y-74239380D01*
X84256619Y-74239380D02*
X84256619Y-73239380D01*
X84351857Y-73382238D01*
X84447095Y-73477476D01*
X84542333Y-73525095D01*
X84970904Y-71540714D02*
X84970904Y-72207380D01*
X85399476Y-71540714D02*
X85399476Y-72064523D01*
X85351857Y-72159761D01*
X85256619Y-72207380D01*
X85113761Y-72207380D01*
X85018523Y-72159761D01*
X84970904Y-72112142D01*
X83970904Y-72207380D02*
X84542333Y-72207380D01*
X84256619Y-72207380D02*
X84256619Y-71207380D01*
X84351857Y-71350238D01*
X84447095Y-71445476D01*
X84542333Y-71493095D01*
X65841619Y-91884333D02*
X66841619Y-91884333D01*
X66841619Y-91217666D02*
X66841619Y-91027190D01*
X66794000Y-90931952D01*
X66698761Y-90836714D01*
X66508285Y-90789095D01*
X66174952Y-90789095D01*
X65984476Y-90836714D01*
X65889238Y-90931952D01*
X65841619Y-91027190D01*
X65841619Y-91217666D01*
X65889238Y-91312904D01*
X65984476Y-91408142D01*
X66174952Y-91455761D01*
X66508285Y-91455761D01*
X66698761Y-91408142D01*
X66794000Y-91312904D01*
X66841619Y-91217666D01*
X65746380Y-90598619D02*
X65746380Y-89836714D01*
X66127333Y-89646238D02*
X66127333Y-89170047D01*
X65841619Y-89741476D02*
X66841619Y-89408142D01*
X65841619Y-89074809D01*
X79287714Y-98925095D02*
X79954380Y-98925095D01*
X79287714Y-98496523D02*
X79811523Y-98496523D01*
X79906761Y-98544142D01*
X79954380Y-98639380D01*
X79954380Y-98782238D01*
X79906761Y-98877476D01*
X79859142Y-98925095D01*
X79954380Y-99925095D02*
X79954380Y-99353666D01*
X79954380Y-99639380D02*
X78954380Y-99639380D01*
X79097238Y-99544142D01*
X79192476Y-99448904D01*
X79240095Y-99353666D01*
X85859904Y-83732714D02*
X85859904Y-84399380D01*
X86288476Y-83732714D02*
X86288476Y-84256523D01*
X86240857Y-84351761D01*
X86145619Y-84399380D01*
X86002761Y-84399380D01*
X85907523Y-84351761D01*
X85859904Y-84304142D01*
X84859904Y-84399380D02*
X85431333Y-84399380D01*
X85145619Y-84399380D02*
X85145619Y-83399380D01*
X85240857Y-83542238D01*
X85336095Y-83637476D01*
X85431333Y-83685095D01*
X85859904Y-79541714D02*
X85859904Y-80208380D01*
X86288476Y-79541714D02*
X86288476Y-80065523D01*
X86240857Y-80160761D01*
X86145619Y-80208380D01*
X86002761Y-80208380D01*
X85907523Y-80160761D01*
X85859904Y-80113142D01*
X84859904Y-80208380D02*
X85431333Y-80208380D01*
X85145619Y-80208380D02*
X85145619Y-79208380D01*
X85240857Y-79351238D01*
X85336095Y-79446476D01*
X85431333Y-79494095D01*
X85859904Y-81700714D02*
X85859904Y-82367380D01*
X86288476Y-81700714D02*
X86288476Y-82224523D01*
X86240857Y-82319761D01*
X86145619Y-82367380D01*
X86002761Y-82367380D01*
X85907523Y-82319761D01*
X85859904Y-82272142D01*
X84859904Y-82367380D02*
X85431333Y-82367380D01*
X85145619Y-82367380D02*
X85145619Y-81367380D01*
X85240857Y-81510238D01*
X85336095Y-81605476D01*
X85431333Y-81653095D01*
X85859904Y-85764714D02*
X85859904Y-86431380D01*
X86288476Y-85764714D02*
X86288476Y-86288523D01*
X86240857Y-86383761D01*
X86145619Y-86431380D01*
X86002761Y-86431380D01*
X85907523Y-86383761D01*
X85859904Y-86336142D01*
X84859904Y-86431380D02*
X85431333Y-86431380D01*
X85145619Y-86431380D02*
X85145619Y-85431380D01*
X85240857Y-85574238D01*
X85336095Y-85669476D01*
X85431333Y-85717095D01*
X65714619Y-70111761D02*
X66714619Y-70111761D01*
X66714619Y-69445095D02*
X66714619Y-69254619D01*
X66667000Y-69159380D01*
X66571761Y-69064142D01*
X66381285Y-69016523D01*
X66047952Y-69016523D01*
X65857476Y-69064142D01*
X65762238Y-69159380D01*
X65714619Y-69254619D01*
X65714619Y-69445095D01*
X65762238Y-69540333D01*
X65857476Y-69635571D01*
X66047952Y-69683190D01*
X66381285Y-69683190D01*
X66571761Y-69635571D01*
X66667000Y-69540333D01*
X66714619Y-69445095D01*
X65619380Y-68826047D02*
X65619380Y-68064142D01*
X66238428Y-67492714D02*
X66190809Y-67349857D01*
X66143190Y-67302238D01*
X66047952Y-67254619D01*
X65905095Y-67254619D01*
X65809857Y-67302238D01*
X65762238Y-67349857D01*
X65714619Y-67445095D01*
X65714619Y-67826047D01*
X66714619Y-67826047D01*
X66714619Y-67492714D01*
X66667000Y-67397476D01*
X66619380Y-67349857D01*
X66524142Y-67302238D01*
X66428904Y-67302238D01*
X66333666Y-67349857D01*
X66286047Y-67397476D01*
X66238428Y-67492714D01*
X66238428Y-67826047D01*
X77255714Y-98925095D02*
X77922380Y-98925095D01*
X77255714Y-98496523D02*
X77779523Y-98496523D01*
X77874761Y-98544142D01*
X77922380Y-98639380D01*
X77922380Y-98782238D01*
X77874761Y-98877476D01*
X77827142Y-98925095D01*
X77922380Y-99925095D02*
X77922380Y-99353666D01*
X77922380Y-99639380D02*
X76922380Y-99639380D01*
X77065238Y-99544142D01*
X77160476Y-99448904D01*
X77208095Y-99353666D01*
X69000714Y-97909095D02*
X69667380Y-97909095D01*
X69000714Y-97480523D02*
X69524523Y-97480523D01*
X69619761Y-97528142D01*
X69667380Y-97623380D01*
X69667380Y-97766238D01*
X69619761Y-97861476D01*
X69572142Y-97909095D01*
X69667380Y-98909095D02*
X69667380Y-98337666D01*
X69667380Y-98623380D02*
X68667380Y-98623380D01*
X68810238Y-98528142D01*
X68905476Y-98432904D01*
X68953095Y-98337666D01*
X66841714Y-97655095D02*
X67508380Y-97655095D01*
X66841714Y-97226523D02*
X67365523Y-97226523D01*
X67460761Y-97274142D01*
X67508380Y-97369380D01*
X67508380Y-97512238D01*
X67460761Y-97607476D01*
X67413142Y-97655095D01*
X67508380Y-98655095D02*
X67508380Y-98083666D01*
X67508380Y-98369380D02*
X66508380Y-98369380D01*
X66651238Y-98274142D01*
X66746476Y-98178904D01*
X66794095Y-98083666D01*
X84574047Y-46172380D02*
X85145476Y-46172380D01*
X84859761Y-46172380D02*
X84859761Y-45172380D01*
X84955000Y-45315238D01*
X85050238Y-45410476D01*
X85145476Y-45458095D01*
X84145476Y-46172380D02*
X84145476Y-45172380D01*
X84050238Y-45791428D02*
X83764523Y-46172380D01*
X83764523Y-45505714D02*
X84145476Y-45886666D01*
X90876380Y-89939952D02*
X90876380Y-89368523D01*
X90876380Y-89654238D02*
X89876380Y-89654238D01*
X90019238Y-89559000D01*
X90114476Y-89463761D01*
X90162095Y-89368523D01*
X89876380Y-90844714D02*
X89876380Y-90368523D01*
X90352571Y-90320904D01*
X90304952Y-90368523D01*
X90257333Y-90463761D01*
X90257333Y-90701857D01*
X90304952Y-90797095D01*
X90352571Y-90844714D01*
X90447809Y-90892333D01*
X90685904Y-90892333D01*
X90781142Y-90844714D01*
X90828761Y-90797095D01*
X90876380Y-90701857D01*
X90876380Y-90463761D01*
X90828761Y-90368523D01*
X90781142Y-90320904D01*
X89876380Y-91511380D02*
X89876380Y-91606619D01*
X89924000Y-91701857D01*
X89971619Y-91749476D01*
X90066857Y-91797095D01*
X90257333Y-91844714D01*
X90495428Y-91844714D01*
X90685904Y-91797095D01*
X90781142Y-91749476D01*
X90828761Y-91701857D01*
X90876380Y-91606619D01*
X90876380Y-91511380D01*
X90828761Y-91416142D01*
X90781142Y-91368523D01*
X90685904Y-91320904D01*
X90495428Y-91273285D01*
X90257333Y-91273285D01*
X90066857Y-91320904D01*
X89971619Y-91368523D01*
X89924000Y-91416142D01*
X89876380Y-91511380D01*
X90209714Y-92701857D02*
X90876380Y-92701857D01*
X90209714Y-92273285D02*
X90733523Y-92273285D01*
X90828761Y-92320904D01*
X90876380Y-92416142D01*
X90876380Y-92559000D01*
X90828761Y-92654238D01*
X90781142Y-92701857D01*
X107862714Y-94765904D02*
X108529380Y-94765904D01*
X107481761Y-94527809D02*
X108196047Y-94289714D01*
X108196047Y-94908761D01*
X107862714Y-95718285D02*
X108529380Y-95718285D01*
X107862714Y-95289714D02*
X108386523Y-95289714D01*
X108481761Y-95337333D01*
X108529380Y-95432571D01*
X108529380Y-95575428D01*
X108481761Y-95670666D01*
X108434142Y-95718285D01*
X107529380Y-96099238D02*
X107529380Y-96765904D01*
X108529380Y-96337333D01*
X84461904Y-49315714D02*
X84461904Y-49982380D01*
X84890476Y-49315714D02*
X84890476Y-49839523D01*
X84842857Y-49934761D01*
X84747619Y-49982380D01*
X84604761Y-49982380D01*
X84509523Y-49934761D01*
X84461904Y-49887142D01*
X83461904Y-49982380D02*
X84033333Y-49982380D01*
X83747619Y-49982380D02*
X83747619Y-48982380D01*
X83842857Y-49125238D01*
X83938095Y-49220476D01*
X84033333Y-49268095D01*
X100814095Y-70609714D02*
X100814095Y-71276380D01*
X101052190Y-70228761D02*
X101290285Y-70943047D01*
X100671238Y-70943047D01*
X99861714Y-70609714D02*
X99861714Y-71276380D01*
X100290285Y-70609714D02*
X100290285Y-71133523D01*
X100242666Y-71228761D01*
X100147428Y-71276380D01*
X100004571Y-71276380D01*
X99909333Y-71228761D01*
X99861714Y-71181142D01*
X99480761Y-70276380D02*
X98814095Y-70276380D01*
X99242666Y-71276380D01*
X134905238Y-58951761D02*
X134762380Y-58999380D01*
X134524285Y-58999380D01*
X134429047Y-58951761D01*
X134381428Y-58904142D01*
X134333809Y-58808904D01*
X134333809Y-58713666D01*
X134381428Y-58618428D01*
X134429047Y-58570809D01*
X134524285Y-58523190D01*
X134714761Y-58475571D01*
X134810000Y-58427952D01*
X134857619Y-58380333D01*
X134905238Y-58285095D01*
X134905238Y-58189857D01*
X134857619Y-58094619D01*
X134810000Y-58047000D01*
X134714761Y-57999380D01*
X134476666Y-57999380D01*
X134333809Y-58047000D01*
X133524285Y-58951761D02*
X133619523Y-58999380D01*
X133810000Y-58999380D01*
X133905238Y-58951761D01*
X133952857Y-58856523D01*
X133952857Y-58475571D01*
X133905238Y-58380333D01*
X133810000Y-58332714D01*
X133619523Y-58332714D01*
X133524285Y-58380333D01*
X133476666Y-58475571D01*
X133476666Y-58570809D01*
X133952857Y-58666047D01*
X133048095Y-58332714D02*
X133048095Y-58999380D01*
X133048095Y-58427952D02*
X133000476Y-58380333D01*
X132905238Y-58332714D01*
X132762380Y-58332714D01*
X132667142Y-58380333D01*
X132619523Y-58475571D01*
X132619523Y-58999380D01*
X132190952Y-58951761D02*
X132095714Y-58999380D01*
X131905238Y-58999380D01*
X131810000Y-58951761D01*
X131762380Y-58856523D01*
X131762380Y-58808904D01*
X131810000Y-58713666D01*
X131905238Y-58666047D01*
X132048095Y-58666047D01*
X132143333Y-58618428D01*
X132190952Y-58523190D01*
X132190952Y-58475571D01*
X132143333Y-58380333D01*
X132048095Y-58332714D01*
X131905238Y-58332714D01*
X131810000Y-58380333D01*
X130905238Y-58999380D02*
X130905238Y-58475571D01*
X130952857Y-58380333D01*
X131048095Y-58332714D01*
X131238571Y-58332714D01*
X131333809Y-58380333D01*
X130905238Y-58951761D02*
X131000476Y-58999380D01*
X131238571Y-58999380D01*
X131333809Y-58951761D01*
X131381428Y-58856523D01*
X131381428Y-58761285D01*
X131333809Y-58666047D01*
X131238571Y-58618428D01*
X131000476Y-58618428D01*
X130905238Y-58570809D01*
X130000476Y-58951761D02*
X130095714Y-58999380D01*
X130286190Y-58999380D01*
X130381428Y-58951761D01*
X130429047Y-58904142D01*
X130476666Y-58808904D01*
X130476666Y-58523190D01*
X130429047Y-58427952D01*
X130381428Y-58380333D01*
X130286190Y-58332714D01*
X130095714Y-58332714D01*
X130000476Y-58380333D01*
X129714761Y-58332714D02*
X129333809Y-58332714D01*
X129571904Y-57999380D02*
X129571904Y-58856523D01*
X129524285Y-58951761D01*
X129429047Y-58999380D01*
X129333809Y-58999380D01*
X128667142Y-58475571D02*
X128524285Y-58523190D01*
X128476666Y-58570809D01*
X128429047Y-58666047D01*
X128429047Y-58808904D01*
X128476666Y-58904142D01*
X128524285Y-58951761D01*
X128619523Y-58999380D01*
X129000476Y-58999380D01*
X129000476Y-57999380D01*
X128667142Y-57999380D01*
X128571904Y-58047000D01*
X128524285Y-58094619D01*
X128476666Y-58189857D01*
X128476666Y-58285095D01*
X128524285Y-58380333D01*
X128571904Y-58427952D01*
X128667142Y-58475571D01*
X129000476Y-58475571D01*
X127571904Y-58332714D02*
X127571904Y-58999380D01*
X128000476Y-58332714D02*
X128000476Y-58856523D01*
X127952857Y-58951761D01*
X127857619Y-58999380D01*
X127714761Y-58999380D01*
X127619523Y-58951761D01*
X127571904Y-58904142D01*
X127143333Y-58951761D02*
X127048095Y-58999380D01*
X126857619Y-58999380D01*
X126762380Y-58951761D01*
X126714761Y-58856523D01*
X126714761Y-58808904D01*
X126762380Y-58713666D01*
X126857619Y-58666047D01*
X127000476Y-58666047D01*
X127095714Y-58618428D01*
X127143333Y-58523190D01*
X127143333Y-58475571D01*
X127095714Y-58380333D01*
X127000476Y-58332714D01*
X126857619Y-58332714D01*
X126762380Y-58380333D01*
X110053285Y-86574380D02*
X109434238Y-86574380D01*
X109767571Y-86955333D01*
X109624714Y-86955333D01*
X109529476Y-87002952D01*
X109481857Y-87050571D01*
X109434238Y-87145809D01*
X109434238Y-87383904D01*
X109481857Y-87479142D01*
X109529476Y-87526761D01*
X109624714Y-87574380D01*
X109910428Y-87574380D01*
X110005666Y-87526761D01*
X110053285Y-87479142D01*
X109005666Y-87574380D02*
X109005666Y-86574380D01*
X108910428Y-87193428D02*
X108624714Y-87574380D01*
X108624714Y-86907714D02*
X109005666Y-87288666D01*
X108291380Y-86574380D02*
X107672333Y-86574380D01*
X108005666Y-86955333D01*
X107862809Y-86955333D01*
X107767571Y-87002952D01*
X107719952Y-87050571D01*
X107672333Y-87145809D01*
X107672333Y-87383904D01*
X107719952Y-87479142D01*
X107767571Y-87526761D01*
X107862809Y-87574380D01*
X108148523Y-87574380D01*
X108243761Y-87526761D01*
X108291380Y-87479142D01*
X105910047Y-89606380D02*
X106481476Y-89606380D01*
X106195761Y-89606380D02*
X106195761Y-88606380D01*
X106291000Y-88749238D01*
X106386238Y-88844476D01*
X106481476Y-88892095D01*
X105481476Y-89606380D02*
X105481476Y-88606380D01*
X105386238Y-89225428D02*
X105100523Y-89606380D01*
X105100523Y-88939714D02*
X105481476Y-89320666D01*
X99861714Y-85082095D02*
X100528380Y-85082095D01*
X99861714Y-84653523D02*
X100385523Y-84653523D01*
X100480761Y-84701142D01*
X100528380Y-84796380D01*
X100528380Y-84939238D01*
X100480761Y-85034476D01*
X100433142Y-85082095D01*
X100528380Y-86082095D02*
X100528380Y-85510666D01*
X100528380Y-85796380D02*
X99528380Y-85796380D01*
X99671238Y-85701142D01*
X99766476Y-85605904D01*
X99814095Y-85510666D01*
X102687380Y-81010238D02*
X102020714Y-81010238D01*
X102115952Y-81010238D02*
X102068333Y-81057857D01*
X102020714Y-81153095D01*
X102020714Y-81295952D01*
X102068333Y-81391190D01*
X102163571Y-81438809D01*
X102687380Y-81438809D01*
X102163571Y-81438809D02*
X102068333Y-81486428D01*
X102020714Y-81581666D01*
X102020714Y-81724523D01*
X102068333Y-81819761D01*
X102163571Y-81867380D01*
X102687380Y-81867380D01*
X102687380Y-82867380D02*
X102687380Y-82295952D01*
X102687380Y-82581666D02*
X101687380Y-82581666D01*
X101830238Y-82486428D01*
X101925476Y-82391190D01*
X101973095Y-82295952D01*
X99353714Y-94734095D02*
X100020380Y-94734095D01*
X99353714Y-94305523D02*
X99877523Y-94305523D01*
X99972761Y-94353142D01*
X100020380Y-94448380D01*
X100020380Y-94591238D01*
X99972761Y-94686476D01*
X99925142Y-94734095D01*
X100020380Y-95734095D02*
X100020380Y-95162666D01*
X100020380Y-95448380D02*
X99020380Y-95448380D01*
X99163238Y-95353142D01*
X99258476Y-95257904D01*
X99306095Y-95162666D01*
M02*
