%TF.GenerationSoftware,KiCad,Pcbnew,(6.0.1)*%
%TF.CreationDate,2022-05-30T16:50:44+02:00*%
%TF.ProjectId,din_schiene_seitenwand,64696e5f-7363-4686-9965-6e655f736569,rev?*%
%TF.SameCoordinates,Original*%
%TF.FileFunction,Profile,NP*%
%FSLAX46Y46*%
G04 Gerber Fmt 4.6, Leading zero omitted, Abs format (unit mm)*
G04 Created by KiCad (PCBNEW (6.0.1)) date 2022-05-30 16:50:44*
%MOMM*%
%LPD*%
G01*
G04 APERTURE LIST*
%TA.AperFunction,Profile*%
%ADD10C,0.100000*%
%TD*%
G04 APERTURE END LIST*
D10*
X128000000Y-90000000D02*
X127500000Y-90500000D01*
X172000000Y-90000000D02*
X172500000Y-90500000D01*
X172500000Y-92000000D02*
X172500000Y-90500000D01*
X168500000Y-92000000D02*
X172500000Y-92000000D01*
X168500000Y-93600000D02*
X168500000Y-92000000D01*
X172500000Y-93600000D02*
X168500000Y-93600000D01*
X127500000Y-92000000D02*
X127500000Y-90500000D01*
X131500000Y-93600000D02*
X127500000Y-93600000D01*
X131500000Y-92000000D02*
X131500000Y-93600000D01*
X127500000Y-92000000D02*
X131500000Y-92000000D01*
X171250000Y-103750000D02*
G75*
G03*
X171250000Y-103750000I-1000000J0D01*
G01*
X130750000Y-103750000D02*
G75*
G03*
X130750000Y-103750000I-1000000J0D01*
G01*
X133000000Y-153000000D02*
G75*
G03*
X133000000Y-153000000I-1000000J0D01*
G01*
X179250000Y-151500000D02*
G75*
G03*
X179250000Y-151500000I-1000000J0D01*
G01*
X176250000Y-150000000D02*
X150000000Y-150000000D01*
X176250000Y-153000000D02*
X176250000Y-150000000D01*
X168750000Y-153000000D02*
X176250000Y-153000000D01*
X169250000Y-156000000D02*
X168750000Y-153000000D01*
X195000000Y-156000000D02*
X169250000Y-156000000D01*
X195000000Y-150000000D02*
X195000000Y-156000000D01*
X195000000Y-106000000D02*
X195000000Y-150000000D01*
X172500000Y-106000000D02*
X195000000Y-106000000D01*
X172500000Y-93600000D02*
X172500000Y-106000000D01*
X128000000Y-90000000D02*
X172000000Y-90000000D01*
X127500000Y-106000000D02*
X127500000Y-93600000D01*
X105000000Y-106000000D02*
X127500000Y-106000000D01*
X105000000Y-150000000D02*
X105000000Y-106000000D01*
X105000000Y-156000000D02*
X105000000Y-150000000D01*
X134000000Y-156000000D02*
X105000000Y-156000000D01*
X134000000Y-151500000D02*
X134000000Y-156000000D01*
X132500000Y-151000000D02*
X134000000Y-151500000D01*
X132500000Y-150000000D02*
X132500000Y-151000000D01*
X150000000Y-150000000D02*
X132500000Y-150000000D01*
M02*
