G04 #@! TF.GenerationSoftware,KiCad,Pcbnew,(5.1.8)-1*
G04 #@! TF.CreationDate,2021-07-21T13:44:46+02:00*
G04 #@! TF.ProjectId,sensactUp2,73656e73-6163-4745-9570-322e6b696361,rev?*
G04 #@! TF.SameCoordinates,Original*
G04 #@! TF.FileFunction,Legend,Top*
G04 #@! TF.FilePolarity,Positive*
%FSLAX46Y46*%
G04 Gerber Fmt 4.6, Leading zero omitted, Abs format (unit mm)*
G04 Created by KiCad (PCBNEW (5.1.8)-1) date 2021-07-21 13:44:46*
%MOMM*%
%LPD*%
G01*
G04 APERTURE LIST*
%ADD10C,0.200000*%
%ADD11C,0.150000*%
%ADD12C,0.120000*%
%ADD13C,0.254000*%
%ADD14C,0.152400*%
G04 APERTURE END LIST*
D10*
X111394285Y-71010142D02*
X111489523Y-71081571D01*
X111680000Y-71081571D01*
X111775238Y-71010142D01*
X111822857Y-70867285D01*
X111822857Y-70795857D01*
X111775238Y-70653000D01*
X111680000Y-70581571D01*
X111537142Y-70581571D01*
X111441904Y-70510142D01*
X111394285Y-70367285D01*
X111394285Y-70295857D01*
X111441904Y-70153000D01*
X111537142Y-70081571D01*
X111680000Y-70081571D01*
X111775238Y-70153000D01*
X112632380Y-71010142D02*
X112537142Y-71081571D01*
X112346666Y-71081571D01*
X112251428Y-71010142D01*
X112203809Y-70867285D01*
X112203809Y-70295857D01*
X112251428Y-70153000D01*
X112346666Y-70081571D01*
X112537142Y-70081571D01*
X112632380Y-70153000D01*
X112680000Y-70295857D01*
X112680000Y-70438714D01*
X112203809Y-70581571D01*
X113108571Y-70081571D02*
X113108571Y-71081571D01*
X113108571Y-70224428D02*
X113156190Y-70153000D01*
X113251428Y-70081571D01*
X113394285Y-70081571D01*
X113489523Y-70153000D01*
X113537142Y-70295857D01*
X113537142Y-71081571D01*
X113965714Y-71010142D02*
X114060952Y-71081571D01*
X114251428Y-71081571D01*
X114346666Y-71010142D01*
X114394285Y-70867285D01*
X114394285Y-70795857D01*
X114346666Y-70653000D01*
X114251428Y-70581571D01*
X114108571Y-70581571D01*
X114013333Y-70510142D01*
X113965714Y-70367285D01*
X113965714Y-70295857D01*
X114013333Y-70153000D01*
X114108571Y-70081571D01*
X114251428Y-70081571D01*
X114346666Y-70153000D01*
X115251428Y-71081571D02*
X115251428Y-70295857D01*
X115203809Y-70153000D01*
X115108571Y-70081571D01*
X114918095Y-70081571D01*
X114822857Y-70153000D01*
X115251428Y-71010142D02*
X115156190Y-71081571D01*
X114918095Y-71081571D01*
X114822857Y-71010142D01*
X114775238Y-70867285D01*
X114775238Y-70724428D01*
X114822857Y-70581571D01*
X114918095Y-70510142D01*
X115156190Y-70510142D01*
X115251428Y-70438714D01*
X116156190Y-71010142D02*
X116060952Y-71081571D01*
X115870476Y-71081571D01*
X115775238Y-71010142D01*
X115727619Y-70938714D01*
X115680000Y-70795857D01*
X115680000Y-70367285D01*
X115727619Y-70224428D01*
X115775238Y-70153000D01*
X115870476Y-70081571D01*
X116060952Y-70081571D01*
X116156190Y-70153000D01*
X116441904Y-70081571D02*
X116822857Y-70081571D01*
X116584761Y-69581571D02*
X116584761Y-70867285D01*
X116632380Y-71010142D01*
X116727619Y-71081571D01*
X116822857Y-71081571D01*
X117156190Y-69581571D02*
X117156190Y-70795857D01*
X117203809Y-70938714D01*
X117251428Y-71010142D01*
X117346666Y-71081571D01*
X117537142Y-71081571D01*
X117632380Y-71010142D01*
X117680000Y-70938714D01*
X117727619Y-70795857D01*
X117727619Y-69581571D01*
X118203809Y-70081571D02*
X118203809Y-71581571D01*
X118203809Y-70153000D02*
X118299047Y-70081571D01*
X118489523Y-70081571D01*
X118584761Y-70153000D01*
X118632380Y-70224428D01*
X118680000Y-70367285D01*
X118680000Y-70795857D01*
X118632380Y-70938714D01*
X118584761Y-71010142D01*
X118489523Y-71081571D01*
X118299047Y-71081571D01*
X118203809Y-71010142D01*
X119060952Y-69724428D02*
X119108571Y-69653000D01*
X119203809Y-69581571D01*
X119441904Y-69581571D01*
X119537142Y-69653000D01*
X119584761Y-69724428D01*
X119632380Y-69867285D01*
X119632380Y-70010142D01*
X119584761Y-70224428D01*
X119013333Y-71081571D01*
X119632380Y-71081571D01*
X120775238Y-69724428D02*
X120822857Y-69653000D01*
X120918095Y-69581571D01*
X121156190Y-69581571D01*
X121251428Y-69653000D01*
X121299047Y-69724428D01*
X121346666Y-69867285D01*
X121346666Y-70010142D01*
X121299047Y-70224428D01*
X120727619Y-71081571D01*
X121346666Y-71081571D01*
X121965714Y-69581571D02*
X122060952Y-69581571D01*
X122156190Y-69653000D01*
X122203809Y-69724428D01*
X122251428Y-69867285D01*
X122299047Y-70153000D01*
X122299047Y-70510142D01*
X122251428Y-70795857D01*
X122203809Y-70938714D01*
X122156190Y-71010142D01*
X122060952Y-71081571D01*
X121965714Y-71081571D01*
X121870476Y-71010142D01*
X121822857Y-70938714D01*
X121775238Y-70795857D01*
X121727619Y-70510142D01*
X121727619Y-70153000D01*
X121775238Y-69867285D01*
X121822857Y-69724428D01*
X121870476Y-69653000D01*
X121965714Y-69581571D01*
X122680000Y-69724428D02*
X122727619Y-69653000D01*
X122822857Y-69581571D01*
X123060952Y-69581571D01*
X123156190Y-69653000D01*
X123203809Y-69724428D01*
X123251428Y-69867285D01*
X123251428Y-70010142D01*
X123203809Y-70224428D01*
X122632380Y-71081571D01*
X123251428Y-71081571D01*
X124203809Y-71081571D02*
X123632380Y-71081571D01*
X123918095Y-71081571D02*
X123918095Y-69581571D01*
X123822857Y-69795857D01*
X123727619Y-69938714D01*
X123632380Y-70010142D01*
X124632380Y-70510142D02*
X125394285Y-70510142D01*
X126060952Y-69581571D02*
X126156190Y-69581571D01*
X126251428Y-69653000D01*
X126299047Y-69724428D01*
X126346666Y-69867285D01*
X126394285Y-70153000D01*
X126394285Y-70510142D01*
X126346666Y-70795857D01*
X126299047Y-70938714D01*
X126251428Y-71010142D01*
X126156190Y-71081571D01*
X126060952Y-71081571D01*
X125965714Y-71010142D01*
X125918095Y-70938714D01*
X125870476Y-70795857D01*
X125822857Y-70510142D01*
X125822857Y-70153000D01*
X125870476Y-69867285D01*
X125918095Y-69724428D01*
X125965714Y-69653000D01*
X126060952Y-69581571D01*
X126727619Y-69581571D02*
X127394285Y-69581571D01*
X126965714Y-71081571D01*
X127775238Y-70510142D02*
X128537142Y-70510142D01*
X128965714Y-69724428D02*
X129013333Y-69653000D01*
X129108571Y-69581571D01*
X129346666Y-69581571D01*
X129441904Y-69653000D01*
X129489523Y-69724428D01*
X129537142Y-69867285D01*
X129537142Y-70010142D01*
X129489523Y-70224428D01*
X128918095Y-71081571D01*
X129537142Y-71081571D01*
X130489523Y-71081571D02*
X129918095Y-71081571D01*
X130203809Y-71081571D02*
X130203809Y-69581571D01*
X130108571Y-69795857D01*
X130013333Y-69938714D01*
X129918095Y-70010142D01*
X109346666Y-72745857D02*
X109013333Y-72745857D01*
X109013333Y-73531571D02*
X109013333Y-72031571D01*
X109489523Y-72031571D01*
X110299047Y-72531571D02*
X110299047Y-73531571D01*
X109870476Y-72531571D02*
X109870476Y-73317285D01*
X109918095Y-73460142D01*
X110013333Y-73531571D01*
X110156190Y-73531571D01*
X110251428Y-73460142D01*
X110299047Y-73388714D01*
X109918095Y-72031571D02*
X109965714Y-72103000D01*
X109918095Y-72174428D01*
X109870476Y-72103000D01*
X109918095Y-72031571D01*
X109918095Y-72174428D01*
X110299047Y-72031571D02*
X110346666Y-72103000D01*
X110299047Y-72174428D01*
X110251428Y-72103000D01*
X110299047Y-72031571D01*
X110299047Y-72174428D01*
X110775238Y-73531571D02*
X110775238Y-72531571D01*
X110775238Y-72817285D02*
X110822857Y-72674428D01*
X110870476Y-72603000D01*
X110965714Y-72531571D01*
X111060952Y-72531571D01*
X112156190Y-73531571D02*
X112156190Y-72031571D01*
X112727619Y-73531571D02*
X112299047Y-72674428D01*
X112727619Y-72031571D02*
X112156190Y-72888714D01*
X113299047Y-73531571D02*
X113203809Y-73460142D01*
X113156190Y-73317285D01*
X113156190Y-72031571D01*
X114108571Y-73531571D02*
X114108571Y-72745857D01*
X114060952Y-72603000D01*
X113965714Y-72531571D01*
X113775238Y-72531571D01*
X113680000Y-72603000D01*
X114108571Y-73460142D02*
X114013333Y-73531571D01*
X113775238Y-73531571D01*
X113680000Y-73460142D01*
X113632380Y-73317285D01*
X113632380Y-73174428D01*
X113680000Y-73031571D01*
X113775238Y-72960142D01*
X114013333Y-72960142D01*
X114108571Y-72888714D01*
X114584761Y-73531571D02*
X114584761Y-72531571D01*
X114584761Y-72817285D02*
X114632380Y-72674428D01*
X114680000Y-72603000D01*
X114775238Y-72531571D01*
X114870476Y-72531571D01*
X115632380Y-73531571D02*
X115632380Y-72745857D01*
X115584761Y-72603000D01*
X115489523Y-72531571D01*
X115299047Y-72531571D01*
X115203809Y-72603000D01*
X115632380Y-73460142D02*
X115537142Y-73531571D01*
X115299047Y-73531571D01*
X115203809Y-73460142D01*
X115156190Y-73317285D01*
X115156190Y-73174428D01*
X115203809Y-73031571D01*
X115299047Y-72960142D01*
X115537142Y-72960142D01*
X115632380Y-72888714D01*
X116156190Y-73460142D02*
X116156190Y-73531571D01*
X116108571Y-73674428D01*
X116060952Y-73745857D01*
X117632380Y-72031571D02*
X117632380Y-73103000D01*
X117584761Y-73317285D01*
X117489523Y-73460142D01*
X117346666Y-73531571D01*
X117251428Y-73531571D01*
X118251428Y-73531571D02*
X118156190Y-73460142D01*
X118108571Y-73388714D01*
X118060952Y-73245857D01*
X118060952Y-72817285D01*
X118108571Y-72674428D01*
X118156190Y-72603000D01*
X118251428Y-72531571D01*
X118394285Y-72531571D01*
X118489523Y-72603000D01*
X118537142Y-72674428D01*
X118584761Y-72817285D01*
X118584761Y-73245857D01*
X118537142Y-73388714D01*
X118489523Y-73460142D01*
X118394285Y-73531571D01*
X118251428Y-73531571D01*
X119013333Y-72531571D02*
X119013333Y-73531571D01*
X119013333Y-72674428D02*
X119060952Y-72603000D01*
X119156190Y-72531571D01*
X119299047Y-72531571D01*
X119394285Y-72603000D01*
X119441904Y-72745857D01*
X119441904Y-73531571D01*
X120346666Y-73531571D02*
X120346666Y-72745857D01*
X120299047Y-72603000D01*
X120203809Y-72531571D01*
X120013333Y-72531571D01*
X119918095Y-72603000D01*
X120346666Y-73460142D02*
X120251428Y-73531571D01*
X120013333Y-73531571D01*
X119918095Y-73460142D01*
X119870476Y-73317285D01*
X119870476Y-73174428D01*
X119918095Y-73031571D01*
X120013333Y-72960142D01*
X120251428Y-72960142D01*
X120346666Y-72888714D01*
X120775238Y-73460142D02*
X120870476Y-73531571D01*
X121060952Y-73531571D01*
X121156190Y-73460142D01*
X121203809Y-73317285D01*
X121203809Y-73245857D01*
X121156190Y-73103000D01*
X121060952Y-73031571D01*
X120918095Y-73031571D01*
X120822857Y-72960142D01*
X120775238Y-72817285D01*
X120775238Y-72745857D01*
X120822857Y-72603000D01*
X120918095Y-72531571D01*
X121060952Y-72531571D01*
X121156190Y-72603000D01*
X122822857Y-72531571D02*
X122822857Y-73531571D01*
X122394285Y-72531571D02*
X122394285Y-73317285D01*
X122441904Y-73460142D01*
X122537142Y-73531571D01*
X122680000Y-73531571D01*
X122775238Y-73460142D01*
X122822857Y-73388714D01*
X123299047Y-72531571D02*
X123299047Y-73531571D01*
X123299047Y-72674428D02*
X123346666Y-72603000D01*
X123441904Y-72531571D01*
X123584761Y-72531571D01*
X123680000Y-72603000D01*
X123727619Y-72745857D01*
X123727619Y-73531571D01*
X124632380Y-73531571D02*
X124632380Y-72031571D01*
X124632380Y-73460142D02*
X124537142Y-73531571D01*
X124346666Y-73531571D01*
X124251428Y-73460142D01*
X124203809Y-73388714D01*
X124156190Y-73245857D01*
X124156190Y-72817285D01*
X124203809Y-72674428D01*
X124251428Y-72603000D01*
X124346666Y-72531571D01*
X124537142Y-72531571D01*
X124632380Y-72603000D01*
X125822857Y-73460142D02*
X125965714Y-73531571D01*
X126203809Y-73531571D01*
X126299047Y-73460142D01*
X126346666Y-73388714D01*
X126394285Y-73245857D01*
X126394285Y-73103000D01*
X126346666Y-72960142D01*
X126299047Y-72888714D01*
X126203809Y-72817285D01*
X126013333Y-72745857D01*
X125918095Y-72674428D01*
X125870476Y-72603000D01*
X125822857Y-72460142D01*
X125822857Y-72317285D01*
X125870476Y-72174428D01*
X125918095Y-72103000D01*
X126013333Y-72031571D01*
X126251428Y-72031571D01*
X126394285Y-72103000D01*
X126822857Y-73531571D02*
X126822857Y-72531571D01*
X126822857Y-72031571D02*
X126775238Y-72103000D01*
X126822857Y-72174428D01*
X126870476Y-72103000D01*
X126822857Y-72031571D01*
X126822857Y-72174428D01*
X127299047Y-73531571D02*
X127299047Y-72531571D01*
X127299047Y-72674428D02*
X127346666Y-72603000D01*
X127441904Y-72531571D01*
X127584761Y-72531571D01*
X127680000Y-72603000D01*
X127727619Y-72745857D01*
X127727619Y-73531571D01*
X127727619Y-72745857D02*
X127775238Y-72603000D01*
X127870476Y-72531571D01*
X128013333Y-72531571D01*
X128108571Y-72603000D01*
X128156190Y-72745857D01*
X128156190Y-73531571D01*
X128775238Y-73531571D02*
X128680000Y-73460142D01*
X128632380Y-73388714D01*
X128584761Y-73245857D01*
X128584761Y-72817285D01*
X128632380Y-72674428D01*
X128680000Y-72603000D01*
X128775238Y-72531571D01*
X128918095Y-72531571D01*
X129013333Y-72603000D01*
X129060952Y-72674428D01*
X129108571Y-72817285D01*
X129108571Y-73245857D01*
X129060952Y-73388714D01*
X129013333Y-73460142D01*
X128918095Y-73531571D01*
X128775238Y-73531571D01*
X129537142Y-72531571D02*
X129537142Y-73531571D01*
X129537142Y-72674428D02*
X129584761Y-72603000D01*
X129680000Y-72531571D01*
X129822857Y-72531571D01*
X129918095Y-72603000D01*
X129965714Y-72745857D01*
X129965714Y-73531571D01*
X130441904Y-73388714D02*
X130489523Y-73460142D01*
X130441904Y-73531571D01*
X130394285Y-73460142D01*
X130441904Y-73388714D01*
X130441904Y-73531571D01*
X130441904Y-72960142D02*
X130394285Y-72103000D01*
X130441904Y-72031571D01*
X130489523Y-72103000D01*
X130441904Y-72960142D01*
X130441904Y-72031571D01*
D11*
X116223071Y-97750380D02*
X116413547Y-97750380D01*
X116508785Y-97798000D01*
X116604023Y-97893238D01*
X116651642Y-98083714D01*
X116651642Y-98417047D01*
X116604023Y-98607523D01*
X116508785Y-98702761D01*
X116413547Y-98750380D01*
X116223071Y-98750380D01*
X116127833Y-98702761D01*
X116032595Y-98607523D01*
X115984976Y-98417047D01*
X115984976Y-98083714D01*
X116032595Y-97893238D01*
X116127833Y-97798000D01*
X116223071Y-97750380D01*
X117413547Y-98226571D02*
X117080214Y-98226571D01*
X117080214Y-98750380D02*
X117080214Y-97750380D01*
X117556404Y-97750380D01*
X118270690Y-98226571D02*
X117937357Y-98226571D01*
X117937357Y-98750380D02*
X117937357Y-97750380D01*
X118413547Y-97750380D01*
X116350071Y-92797380D02*
X116540547Y-92797380D01*
X116635785Y-92845000D01*
X116731023Y-92940238D01*
X116778642Y-93130714D01*
X116778642Y-93464047D01*
X116731023Y-93654523D01*
X116635785Y-93749761D01*
X116540547Y-93797380D01*
X116350071Y-93797380D01*
X116254833Y-93749761D01*
X116159595Y-93654523D01*
X116111976Y-93464047D01*
X116111976Y-93130714D01*
X116159595Y-92940238D01*
X116254833Y-92845000D01*
X116350071Y-92797380D01*
X117207214Y-93797380D02*
X117207214Y-92797380D01*
X117778642Y-93797380D01*
X117778642Y-92797380D01*
X89574000Y-82740000D02*
X90649000Y-82740000D01*
X89574000Y-74715000D02*
X84924000Y-74715000D01*
X89574000Y-82765000D02*
X84924000Y-82765000D01*
X89574000Y-74715000D02*
X89574000Y-74740000D01*
X84924000Y-74715000D02*
X84924000Y-74740000D01*
X84924000Y-82765000D02*
X84924000Y-82740000D01*
X89574000Y-82765000D02*
X89574000Y-82740000D01*
D12*
X116045000Y-76561000D02*
X115580000Y-76561000D01*
X113420000Y-76561000D02*
X112955000Y-76561000D01*
X113419571Y-81375479D02*
G75*
G02*
X113420000Y-76866316I1080429J2254479D01*
G01*
X115580429Y-81375479D02*
G75*
G03*
X115580000Y-76866316I-1080429J2254479D01*
G01*
X113419173Y-81908815D02*
G75*
G02*
X112955170Y-76561000I1080827J2787815D01*
G01*
X115580827Y-81908815D02*
G75*
G03*
X116044830Y-76561000I-1080827J2787815D01*
G01*
X81053000Y-81287252D02*
X81053000Y-80764748D01*
X82523000Y-81287252D02*
X82523000Y-80764748D01*
X114817000Y-92181000D02*
X114027000Y-92181000D01*
X114027000Y-99081000D02*
X114817000Y-99081000D01*
X112977000Y-97231000D02*
X112977000Y-95531000D01*
X115827000Y-98481000D02*
X115827000Y-92781000D01*
X117117000Y-95731000D02*
X115827000Y-95731000D01*
X117327000Y-96831000D02*
X117327000Y-95931000D01*
X115827000Y-97031000D02*
X117117000Y-97031000D01*
X117117000Y-95731000D02*
X117327000Y-95931000D01*
X117117000Y-97031000D02*
X117327000Y-96831000D01*
X112977000Y-94231000D02*
X112977000Y-94031000D01*
X109119936Y-97763000D02*
X109574064Y-97763000D01*
X109119936Y-96293000D02*
X109574064Y-96293000D01*
X107698000Y-92654000D02*
X109158000Y-92654000D01*
X107698000Y-95814000D02*
X110858000Y-95814000D01*
X107698000Y-95814000D02*
X107698000Y-94884000D01*
X107698000Y-92654000D02*
X107698000Y-93584000D01*
X116750000Y-83750000D02*
X112250000Y-83750000D01*
X118000000Y-87750000D02*
X118000000Y-86250000D01*
X112250000Y-90250000D02*
X116750000Y-90250000D01*
X111000000Y-86250000D02*
X111000000Y-87750000D01*
X87941000Y-111000000D02*
X85741000Y-111000000D01*
X85741000Y-111000000D02*
X85741000Y-105000000D01*
X85741000Y-105000000D02*
X98341000Y-105000000D01*
X98341000Y-105000000D02*
X98341000Y-108000000D01*
X98341000Y-108000000D02*
X97641000Y-108000000D01*
X97641000Y-108000000D02*
X97641000Y-111000000D01*
X97641000Y-111000000D02*
X96241000Y-111000000D01*
X99524000Y-102736000D02*
X100304000Y-102736000D01*
X100304000Y-102736000D02*
X100304000Y-101736000D01*
X99524000Y-84496000D02*
X100304000Y-84496000D01*
X100304000Y-84496000D02*
X100304000Y-85496000D01*
X74559000Y-102736000D02*
X74559000Y-84496000D01*
X74559000Y-84496000D02*
X80979000Y-84496000D01*
X74559000Y-102736000D02*
X80979000Y-102736000D01*
X80979000Y-102736000D02*
X80979000Y-103116000D01*
D11*
X88570000Y-123275000D02*
X88570000Y-124675000D01*
X93575000Y-123275000D02*
X93575000Y-119125000D01*
X88425000Y-123275000D02*
X88425000Y-119125000D01*
X93575000Y-123275000D02*
X93430000Y-123275000D01*
X93575000Y-119125000D02*
X93430000Y-119125000D01*
X88425000Y-119125000D02*
X88570000Y-119125000D01*
X88425000Y-123275000D02*
X88570000Y-123275000D01*
D12*
X117500000Y-114500000D02*
G75*
G03*
X117500000Y-114500000I-3000000J0D01*
G01*
X120400000Y-116500000D02*
X120400000Y-120600000D01*
X108600000Y-120600000D02*
X108600000Y-116500000D01*
X108600000Y-112500000D02*
X108600000Y-108400000D01*
X120400000Y-112500000D02*
X120400000Y-108400000D01*
X120400000Y-108400000D02*
X108600000Y-108400000D01*
X118300000Y-107000000D02*
X118600000Y-106700000D01*
X118600000Y-106700000D02*
X118600000Y-107300000D01*
X118600000Y-107300000D02*
X118300000Y-107000000D01*
X120400000Y-120600000D02*
X118000000Y-120600000D01*
X115800000Y-120600000D02*
X113200000Y-120600000D01*
X111000000Y-120600000D02*
X108600000Y-120600000D01*
X115000000Y-114500000D02*
X114000000Y-114500000D01*
X114500000Y-114000000D02*
X114500000Y-115000000D01*
D13*
X102727260Y-125117860D02*
X102727260Y-121516140D01*
X108726740Y-125117860D02*
X102727260Y-125117860D01*
X108726740Y-121516140D02*
X108726740Y-125117860D01*
X102727260Y-121516140D02*
X108726740Y-121516140D01*
X104426520Y-124018040D02*
X104426520Y-122615960D01*
X107027480Y-124018040D02*
X104426520Y-124018040D01*
X107027480Y-122615960D02*
X107027480Y-124018040D01*
X104426520Y-122615960D02*
X107027480Y-122615960D01*
X103126040Y-124716540D02*
X103126040Y-121917460D01*
X108327960Y-124716540D02*
X103126040Y-124716540D01*
X108327960Y-121917460D02*
X108327960Y-124716540D01*
X103126040Y-121917460D02*
X108327960Y-121917460D01*
X103126040Y-121917460D02*
X104426520Y-122615960D01*
X104426520Y-124018040D02*
X103126040Y-124716540D01*
X107027480Y-124018040D02*
X108327960Y-124716540D01*
X107027480Y-122615960D02*
X108327960Y-121917460D01*
D12*
X102405000Y-116375000D02*
X107145000Y-116375000D01*
X102405000Y-121115000D02*
X107145000Y-121115000D01*
X107145000Y-117505000D02*
X107145000Y-116375000D01*
X107145000Y-121115000D02*
X107145000Y-119985000D01*
X102405000Y-119004000D02*
X102405000Y-118485000D01*
X102405000Y-121115000D02*
X102405000Y-120784000D01*
X102405000Y-116705000D02*
X102405000Y-116375000D01*
X94972936Y-131535000D02*
X95427064Y-131535000D01*
X94972936Y-130065000D02*
X95427064Y-130065000D01*
X91272936Y-131535000D02*
X91727064Y-131535000D01*
X91272936Y-130065000D02*
X91727064Y-130065000D01*
X87572936Y-131535000D02*
X88027064Y-131535000D01*
X87572936Y-130065000D02*
X88027064Y-130065000D01*
D11*
X76200000Y-113000000D02*
X86200000Y-113000000D01*
X76200000Y-122000000D02*
X86200000Y-122000000D01*
D12*
X124647000Y-113725000D02*
X123317000Y-113725000D01*
X124647000Y-112395000D02*
X124647000Y-113725000D01*
X124647000Y-111125000D02*
X121987000Y-111125000D01*
X121987000Y-111125000D02*
X121987000Y-108525000D01*
X124647000Y-111125000D02*
X124647000Y-108525000D01*
X124647000Y-108525000D02*
X121987000Y-108525000D01*
X112014000Y-105751000D02*
X116414000Y-105751000D01*
X116414000Y-105751000D02*
X116414000Y-100751000D01*
X116414000Y-100751000D02*
X107614000Y-100751000D01*
X107614000Y-100751000D02*
X107614000Y-105751000D01*
X107614000Y-105751000D02*
X112014000Y-105751000D01*
X113214000Y-100751000D02*
X113214000Y-101551000D01*
X113214000Y-101551000D02*
X110814000Y-101551000D01*
X110814000Y-101551000D02*
X110814000Y-100751000D01*
X86300000Y-112404000D02*
X93600000Y-112404000D01*
X86300000Y-116704000D02*
X93600000Y-116704000D01*
X86300000Y-112404000D02*
X86300000Y-116704000D01*
X103060000Y-107803000D02*
X102595000Y-107803000D01*
X105685000Y-107803000D02*
X105220000Y-107803000D01*
X103059571Y-112617479D02*
G75*
G02*
X103060000Y-108108316I1080429J2254479D01*
G01*
X105220429Y-112617479D02*
G75*
G03*
X105220000Y-108108316I-1080429J2254479D01*
G01*
X103059173Y-113150815D02*
G75*
G02*
X102595170Y-107803000I1080827J2787815D01*
G01*
X105220827Y-113150815D02*
G75*
G03*
X105684830Y-107803000I-1080827J2787815D01*
G01*
X77560000Y-111111252D02*
X77560000Y-109688748D01*
X74840000Y-111111252D02*
X74840000Y-109688748D01*
X68111252Y-113140000D02*
X66688748Y-113140000D01*
X68111252Y-115860000D02*
X66688748Y-115860000D01*
X68111252Y-109840000D02*
X66688748Y-109840000D01*
X68111252Y-112560000D02*
X66688748Y-112560000D01*
X84411252Y-122440000D02*
X82988748Y-122440000D01*
X84411252Y-125160000D02*
X82988748Y-125160000D01*
X86465000Y-120338748D02*
X86465000Y-120861252D01*
X87935000Y-120338748D02*
X87935000Y-120861252D01*
X82961252Y-104465000D02*
X82438748Y-104465000D01*
X82961252Y-105935000D02*
X82438748Y-105935000D01*
X83953252Y-106490000D02*
X82530748Y-106490000D01*
X83953252Y-108310000D02*
X82530748Y-108310000D01*
X123290000Y-98779064D02*
X123290000Y-98324936D01*
X121820000Y-98779064D02*
X121820000Y-98324936D01*
X125195000Y-98779064D02*
X125195000Y-98324936D01*
X123725000Y-98779064D02*
X123725000Y-98324936D01*
D11*
X83082333Y-74242380D02*
X83082333Y-73242380D01*
X83463285Y-73242380D01*
X83558523Y-73290000D01*
X83606142Y-73337619D01*
X83653761Y-73432857D01*
X83653761Y-73575714D01*
X83606142Y-73670952D01*
X83558523Y-73718571D01*
X83463285Y-73766190D01*
X83082333Y-73766190D01*
X84653761Y-74147142D02*
X84606142Y-74194761D01*
X84463285Y-74242380D01*
X84368047Y-74242380D01*
X84225190Y-74194761D01*
X84129952Y-74099523D01*
X84082333Y-74004285D01*
X84034714Y-73813809D01*
X84034714Y-73670952D01*
X84082333Y-73480476D01*
X84129952Y-73385238D01*
X84225190Y-73290000D01*
X84368047Y-73242380D01*
X84463285Y-73242380D01*
X84606142Y-73290000D01*
X84653761Y-73337619D01*
X85034714Y-73956666D02*
X85510904Y-73956666D01*
X84939476Y-74242380D02*
X85272809Y-73242380D01*
X85606142Y-74242380D01*
X85987095Y-74242380D02*
X86177571Y-74242380D01*
X86272809Y-74194761D01*
X86320428Y-74147142D01*
X86415666Y-74004285D01*
X86463285Y-73813809D01*
X86463285Y-73432857D01*
X86415666Y-73337619D01*
X86368047Y-73290000D01*
X86272809Y-73242380D01*
X86082333Y-73242380D01*
X85987095Y-73290000D01*
X85939476Y-73337619D01*
X85891857Y-73432857D01*
X85891857Y-73670952D01*
X85939476Y-73766190D01*
X85987095Y-73813809D01*
X86082333Y-73861428D01*
X86272809Y-73861428D01*
X86368047Y-73813809D01*
X86415666Y-73766190D01*
X86463285Y-73670952D01*
X87368047Y-73242380D02*
X86891857Y-73242380D01*
X86844238Y-73718571D01*
X86891857Y-73670952D01*
X86987095Y-73623333D01*
X87225190Y-73623333D01*
X87320428Y-73670952D01*
X87368047Y-73718571D01*
X87415666Y-73813809D01*
X87415666Y-74051904D01*
X87368047Y-74147142D01*
X87320428Y-74194761D01*
X87225190Y-74242380D01*
X86987095Y-74242380D01*
X86891857Y-74194761D01*
X86844238Y-74147142D01*
X88320428Y-73242380D02*
X87844238Y-73242380D01*
X87796619Y-73718571D01*
X87844238Y-73670952D01*
X87939476Y-73623333D01*
X88177571Y-73623333D01*
X88272809Y-73670952D01*
X88320428Y-73718571D01*
X88368047Y-73813809D01*
X88368047Y-74051904D01*
X88320428Y-74147142D01*
X88272809Y-74194761D01*
X88177571Y-74242380D01*
X87939476Y-74242380D01*
X87844238Y-74194761D01*
X87796619Y-74147142D01*
X89272809Y-73242380D02*
X88796619Y-73242380D01*
X88749000Y-73718571D01*
X88796619Y-73670952D01*
X88891857Y-73623333D01*
X89129952Y-73623333D01*
X89225190Y-73670952D01*
X89272809Y-73718571D01*
X89320428Y-73813809D01*
X89320428Y-74051904D01*
X89272809Y-74147142D01*
X89225190Y-74194761D01*
X89129952Y-74242380D01*
X88891857Y-74242380D01*
X88796619Y-74194761D01*
X88749000Y-74147142D01*
X89749000Y-74242380D02*
X89749000Y-73242380D01*
X90129952Y-73242380D01*
X90225190Y-73290000D01*
X90272809Y-73337619D01*
X90320428Y-73432857D01*
X90320428Y-73575714D01*
X90272809Y-73670952D01*
X90225190Y-73718571D01*
X90129952Y-73766190D01*
X89749000Y-73766190D01*
X90653761Y-73242380D02*
X90891857Y-74242380D01*
X91082333Y-73528095D01*
X91272809Y-74242380D01*
X91510904Y-73242380D01*
X111101619Y-74890380D02*
X111101619Y-75699904D01*
X111149238Y-75795142D01*
X111196857Y-75842761D01*
X111292095Y-75890380D01*
X111482571Y-75890380D01*
X111577809Y-75842761D01*
X111625428Y-75795142D01*
X111673047Y-75699904D01*
X111673047Y-74890380D01*
X112101619Y-75842761D02*
X112244476Y-75890380D01*
X112482571Y-75890380D01*
X112577809Y-75842761D01*
X112625428Y-75795142D01*
X112673047Y-75699904D01*
X112673047Y-75604666D01*
X112625428Y-75509428D01*
X112577809Y-75461809D01*
X112482571Y-75414190D01*
X112292095Y-75366571D01*
X112196857Y-75318952D01*
X112149238Y-75271333D01*
X112101619Y-75176095D01*
X112101619Y-75080857D01*
X112149238Y-74985619D01*
X112196857Y-74938000D01*
X112292095Y-74890380D01*
X112530190Y-74890380D01*
X112673047Y-74938000D01*
X113101619Y-75366571D02*
X113434952Y-75366571D01*
X113577809Y-75890380D02*
X113101619Y-75890380D01*
X113101619Y-74890380D01*
X113577809Y-74890380D01*
X114577809Y-75890380D02*
X114244476Y-75414190D01*
X114006380Y-75890380D02*
X114006380Y-74890380D01*
X114387333Y-74890380D01*
X114482571Y-74938000D01*
X114530190Y-74985619D01*
X114577809Y-75080857D01*
X114577809Y-75223714D01*
X114530190Y-75318952D01*
X114482571Y-75366571D01*
X114387333Y-75414190D01*
X114006380Y-75414190D01*
X114768285Y-75985619D02*
X115530190Y-75985619D01*
X116244476Y-75890380D02*
X115768285Y-75890380D01*
X115768285Y-74890380D01*
X116577809Y-75366571D02*
X116911142Y-75366571D01*
X117054000Y-75890380D02*
X116577809Y-75890380D01*
X116577809Y-74890380D01*
X117054000Y-74890380D01*
X117482571Y-75890380D02*
X117482571Y-74890380D01*
X117720666Y-74890380D01*
X117863523Y-74938000D01*
X117958761Y-75033238D01*
X118006380Y-75128476D01*
X118054000Y-75318952D01*
X118054000Y-75461809D01*
X118006380Y-75652285D01*
X117958761Y-75747523D01*
X117863523Y-75842761D01*
X117720666Y-75890380D01*
X117482571Y-75890380D01*
X79748095Y-80811714D02*
X79748095Y-81478380D01*
X79319523Y-80811714D02*
X79319523Y-81335523D01*
X79367142Y-81430761D01*
X79462380Y-81478380D01*
X79605238Y-81478380D01*
X79700476Y-81430761D01*
X79748095Y-81383142D01*
X80748095Y-81478380D02*
X80176666Y-81478380D01*
X80462380Y-81478380D02*
X80462380Y-80478380D01*
X80367142Y-80621238D01*
X80271904Y-80716476D01*
X80176666Y-80764095D01*
X116173476Y-90765380D02*
X116744904Y-90765380D01*
X116459190Y-91765380D02*
X116459190Y-90765380D01*
X117078238Y-91241571D02*
X117411571Y-91241571D01*
X117554428Y-91765380D02*
X117078238Y-91765380D01*
X117078238Y-90765380D01*
X117554428Y-90765380D01*
X118554428Y-91765380D02*
X118221095Y-91289190D01*
X117983000Y-91765380D02*
X117983000Y-90765380D01*
X118363952Y-90765380D01*
X118459190Y-90813000D01*
X118506809Y-90860619D01*
X118554428Y-90955857D01*
X118554428Y-91098714D01*
X118506809Y-91193952D01*
X118459190Y-91241571D01*
X118363952Y-91289190D01*
X117983000Y-91289190D01*
X118983000Y-91765380D02*
X118983000Y-90765380D01*
X119316333Y-91479666D01*
X119649666Y-90765380D01*
X119649666Y-91765380D01*
X108180333Y-99130380D02*
X107608904Y-99130380D01*
X107894619Y-99130380D02*
X107894619Y-98130380D01*
X107799380Y-98273238D01*
X107704142Y-98368476D01*
X107608904Y-98416095D01*
X108561285Y-98225619D02*
X108608904Y-98178000D01*
X108704142Y-98130380D01*
X108942238Y-98130380D01*
X109037476Y-98178000D01*
X109085095Y-98225619D01*
X109132714Y-98320857D01*
X109132714Y-98416095D01*
X109085095Y-98558952D01*
X108513666Y-99130380D01*
X109132714Y-99130380D01*
X109751761Y-98130380D02*
X109847000Y-98130380D01*
X109942238Y-98178000D01*
X109989857Y-98225619D01*
X110037476Y-98320857D01*
X110085095Y-98511333D01*
X110085095Y-98749428D01*
X110037476Y-98939904D01*
X109989857Y-99035142D01*
X109942238Y-99082761D01*
X109847000Y-99130380D01*
X109751761Y-99130380D01*
X109656523Y-99082761D01*
X109608904Y-99035142D01*
X109561285Y-98939904D01*
X109513666Y-98749428D01*
X109513666Y-98511333D01*
X109561285Y-98320857D01*
X109608904Y-98225619D01*
X109656523Y-98178000D01*
X109751761Y-98130380D01*
X111085095Y-99130380D02*
X110751761Y-98654190D01*
X110513666Y-99130380D02*
X110513666Y-98130380D01*
X110894619Y-98130380D01*
X110989857Y-98178000D01*
X111037476Y-98225619D01*
X111085095Y-98320857D01*
X111085095Y-98463714D01*
X111037476Y-98558952D01*
X110989857Y-98606571D01*
X110894619Y-98654190D01*
X110513666Y-98654190D01*
X104838952Y-92186380D02*
X104838952Y-91186380D01*
X105410380Y-92186380D01*
X105410380Y-91186380D01*
X105886571Y-91186380D02*
X105886571Y-91995904D01*
X105934190Y-92091142D01*
X105981809Y-92138761D01*
X106077047Y-92186380D01*
X106267523Y-92186380D01*
X106362761Y-92138761D01*
X106410380Y-92091142D01*
X106458000Y-91995904D01*
X106458000Y-91186380D01*
X106934190Y-92186380D02*
X106934190Y-91186380D01*
X107315142Y-91186380D01*
X107410380Y-91234000D01*
X107458000Y-91281619D01*
X107505619Y-91376857D01*
X107505619Y-91519714D01*
X107458000Y-91614952D01*
X107410380Y-91662571D01*
X107315142Y-91710190D01*
X106934190Y-91710190D01*
X107886571Y-91281619D02*
X107934190Y-91234000D01*
X108029428Y-91186380D01*
X108267523Y-91186380D01*
X108362761Y-91234000D01*
X108410380Y-91281619D01*
X108458000Y-91376857D01*
X108458000Y-91472095D01*
X108410380Y-91614952D01*
X107838952Y-92186380D01*
X108458000Y-92186380D01*
X109410380Y-92186380D02*
X108838952Y-92186380D01*
X109124666Y-92186380D02*
X109124666Y-91186380D01*
X109029428Y-91329238D01*
X108934190Y-91424476D01*
X108838952Y-91472095D01*
X110029428Y-91186380D02*
X110124666Y-91186380D01*
X110219904Y-91234000D01*
X110267523Y-91281619D01*
X110315142Y-91376857D01*
X110362761Y-91567333D01*
X110362761Y-91805428D01*
X110315142Y-91995904D01*
X110267523Y-92091142D01*
X110219904Y-92138761D01*
X110124666Y-92186380D01*
X110029428Y-92186380D01*
X109934190Y-92138761D01*
X109886571Y-92091142D01*
X109838952Y-91995904D01*
X109791333Y-91805428D01*
X109791333Y-91567333D01*
X109838952Y-91376857D01*
X109886571Y-91281619D01*
X109934190Y-91234000D01*
X110029428Y-91186380D01*
X111267523Y-91186380D02*
X110791333Y-91186380D01*
X110743714Y-91662571D01*
X110791333Y-91614952D01*
X110886571Y-91567333D01*
X111124666Y-91567333D01*
X111219904Y-91614952D01*
X111267523Y-91662571D01*
X111315142Y-91757809D01*
X111315142Y-91995904D01*
X111267523Y-92091142D01*
X111219904Y-92138761D01*
X111124666Y-92186380D01*
X110886571Y-92186380D01*
X110791333Y-92138761D01*
X110743714Y-92091142D01*
X112219904Y-92186380D02*
X111743714Y-92186380D01*
X111743714Y-91186380D01*
X102822857Y-86447380D02*
X102822857Y-87256904D01*
X102870476Y-87352142D01*
X102918095Y-87399761D01*
X103013333Y-87447380D01*
X103203809Y-87447380D01*
X103299047Y-87399761D01*
X103346666Y-87352142D01*
X103394285Y-87256904D01*
X103394285Y-86447380D01*
X103822857Y-87399761D02*
X103918095Y-87447380D01*
X104108571Y-87447380D01*
X104203809Y-87399761D01*
X104251428Y-87304523D01*
X104251428Y-87256904D01*
X104203809Y-87161666D01*
X104108571Y-87114047D01*
X103965714Y-87114047D01*
X103870476Y-87066428D01*
X103822857Y-86971190D01*
X103822857Y-86923571D01*
X103870476Y-86828333D01*
X103965714Y-86780714D01*
X104108571Y-86780714D01*
X104203809Y-86828333D01*
X105060952Y-87399761D02*
X104965714Y-87447380D01*
X104775238Y-87447380D01*
X104680000Y-87399761D01*
X104632380Y-87304523D01*
X104632380Y-86923571D01*
X104680000Y-86828333D01*
X104775238Y-86780714D01*
X104965714Y-86780714D01*
X105060952Y-86828333D01*
X105108571Y-86923571D01*
X105108571Y-87018809D01*
X104632380Y-87114047D01*
X105537142Y-87447380D02*
X105537142Y-86780714D01*
X105537142Y-86971190D02*
X105584761Y-86875952D01*
X105632380Y-86828333D01*
X105727619Y-86780714D01*
X105822857Y-86780714D01*
X106489523Y-86923571D02*
X106632380Y-86971190D01*
X106680000Y-87018809D01*
X106727619Y-87114047D01*
X106727619Y-87256904D01*
X106680000Y-87352142D01*
X106632380Y-87399761D01*
X106537142Y-87447380D01*
X106156190Y-87447380D01*
X106156190Y-86447380D01*
X106489523Y-86447380D01*
X106584761Y-86495000D01*
X106632380Y-86542619D01*
X106680000Y-86637857D01*
X106680000Y-86733095D01*
X106632380Y-86828333D01*
X106584761Y-86875952D01*
X106489523Y-86923571D01*
X106156190Y-86923571D01*
X107584761Y-86780714D02*
X107584761Y-87447380D01*
X107156190Y-86780714D02*
X107156190Y-87304523D01*
X107203809Y-87399761D01*
X107299047Y-87447380D01*
X107441904Y-87447380D01*
X107537142Y-87399761D01*
X107584761Y-87352142D01*
X107918095Y-86780714D02*
X108299047Y-86780714D01*
X108060952Y-86447380D02*
X108060952Y-87304523D01*
X108108571Y-87399761D01*
X108203809Y-87447380D01*
X108299047Y-87447380D01*
X108489523Y-86780714D02*
X108870476Y-86780714D01*
X108632380Y-86447380D02*
X108632380Y-87304523D01*
X108680000Y-87399761D01*
X108775238Y-87447380D01*
X108870476Y-87447380D01*
X109346666Y-87447380D02*
X109251428Y-87399761D01*
X109203809Y-87352142D01*
X109156190Y-87256904D01*
X109156190Y-86971190D01*
X109203809Y-86875952D01*
X109251428Y-86828333D01*
X109346666Y-86780714D01*
X109489523Y-86780714D01*
X109584761Y-86828333D01*
X109632380Y-86875952D01*
X109680000Y-86971190D01*
X109680000Y-87256904D01*
X109632380Y-87352142D01*
X109584761Y-87399761D01*
X109489523Y-87447380D01*
X109346666Y-87447380D01*
X110108571Y-86780714D02*
X110108571Y-87447380D01*
X110108571Y-86875952D02*
X110156190Y-86828333D01*
X110251428Y-86780714D01*
X110394285Y-86780714D01*
X110489523Y-86828333D01*
X110537142Y-86923571D01*
X110537142Y-87447380D01*
X85845095Y-105735380D02*
X85845095Y-104735380D01*
X86083190Y-104735380D01*
X86226047Y-104783000D01*
X86321285Y-104878238D01*
X86368904Y-104973476D01*
X86416523Y-105163952D01*
X86416523Y-105306809D01*
X86368904Y-105497285D01*
X86321285Y-105592523D01*
X86226047Y-105687761D01*
X86083190Y-105735380D01*
X85845095Y-105735380D01*
X86845095Y-105735380D02*
X86845095Y-105068714D01*
X86845095Y-104735380D02*
X86797476Y-104783000D01*
X86845095Y-104830619D01*
X86892714Y-104783000D01*
X86845095Y-104735380D01*
X86845095Y-104830619D01*
X87273666Y-105687761D02*
X87368904Y-105735380D01*
X87559380Y-105735380D01*
X87654619Y-105687761D01*
X87702238Y-105592523D01*
X87702238Y-105544904D01*
X87654619Y-105449666D01*
X87559380Y-105402047D01*
X87416523Y-105402047D01*
X87321285Y-105354428D01*
X87273666Y-105259190D01*
X87273666Y-105211571D01*
X87321285Y-105116333D01*
X87416523Y-105068714D01*
X87559380Y-105068714D01*
X87654619Y-105116333D01*
X88130809Y-105068714D02*
X88130809Y-106068714D01*
X88130809Y-105116333D02*
X88226047Y-105068714D01*
X88416523Y-105068714D01*
X88511761Y-105116333D01*
X88559380Y-105163952D01*
X88607000Y-105259190D01*
X88607000Y-105544904D01*
X88559380Y-105640142D01*
X88511761Y-105687761D01*
X88416523Y-105735380D01*
X88226047Y-105735380D01*
X88130809Y-105687761D01*
X89178428Y-105735380D02*
X89083190Y-105687761D01*
X89035571Y-105592523D01*
X89035571Y-104735380D01*
X89987952Y-105735380D02*
X89987952Y-105211571D01*
X89940333Y-105116333D01*
X89845095Y-105068714D01*
X89654619Y-105068714D01*
X89559380Y-105116333D01*
X89987952Y-105687761D02*
X89892714Y-105735380D01*
X89654619Y-105735380D01*
X89559380Y-105687761D01*
X89511761Y-105592523D01*
X89511761Y-105497285D01*
X89559380Y-105402047D01*
X89654619Y-105354428D01*
X89892714Y-105354428D01*
X89987952Y-105306809D01*
X90368904Y-105068714D02*
X90607000Y-105735380D01*
X90845095Y-105068714D02*
X90607000Y-105735380D01*
X90511761Y-105973476D01*
X90464142Y-106021095D01*
X90368904Y-106068714D01*
X90987952Y-105830619D02*
X91749857Y-105830619D01*
X92464142Y-105735380D02*
X91987952Y-105735380D01*
X91987952Y-104735380D01*
X92797476Y-105735380D02*
X92797476Y-104735380D01*
X92797476Y-105211571D02*
X93368904Y-105211571D01*
X93368904Y-105735380D02*
X93368904Y-104735380D01*
X94368904Y-105735380D02*
X93797476Y-105735380D01*
X94083190Y-105735380D02*
X94083190Y-104735380D01*
X93987952Y-104878238D01*
X93892714Y-104973476D01*
X93797476Y-105021095D01*
X95273666Y-104735380D02*
X94797476Y-104735380D01*
X94749857Y-105211571D01*
X94797476Y-105163952D01*
X94892714Y-105116333D01*
X95130809Y-105116333D01*
X95226047Y-105163952D01*
X95273666Y-105211571D01*
X95321285Y-105306809D01*
X95321285Y-105544904D01*
X95273666Y-105640142D01*
X95226047Y-105687761D01*
X95130809Y-105735380D01*
X94892714Y-105735380D01*
X94797476Y-105687761D01*
X94749857Y-105640142D01*
X96178428Y-105068714D02*
X96178428Y-105735380D01*
X95940333Y-104687761D02*
X95702238Y-105402047D01*
X96321285Y-105402047D01*
X96702238Y-105735380D02*
X96702238Y-104735380D01*
X97273666Y-105735380D02*
X96845095Y-105163952D01*
X97273666Y-104735380D02*
X96702238Y-105306809D01*
X97702238Y-105354428D02*
X98464142Y-105354428D01*
X98940333Y-105735380D02*
X98940333Y-104735380D01*
X99321285Y-104735380D01*
X99416523Y-104783000D01*
X99464142Y-104830619D01*
X99511761Y-104925857D01*
X99511761Y-105068714D01*
X99464142Y-105163952D01*
X99416523Y-105211571D01*
X99321285Y-105259190D01*
X98940333Y-105259190D01*
X100464142Y-104783000D02*
X100368904Y-104735380D01*
X100226047Y-104735380D01*
X100083190Y-104783000D01*
X99987952Y-104878238D01*
X99940333Y-104973476D01*
X99892714Y-105163952D01*
X99892714Y-105306809D01*
X99940333Y-105497285D01*
X99987952Y-105592523D01*
X100083190Y-105687761D01*
X100226047Y-105735380D01*
X100321285Y-105735380D01*
X100464142Y-105687761D01*
X100511761Y-105640142D01*
X100511761Y-105306809D01*
X100321285Y-105306809D01*
X101130809Y-104735380D02*
X101226047Y-104735380D01*
X101321285Y-104783000D01*
X101368904Y-104830619D01*
X101416523Y-104925857D01*
X101464142Y-105116333D01*
X101464142Y-105354428D01*
X101416523Y-105544904D01*
X101368904Y-105640142D01*
X101321285Y-105687761D01*
X101226047Y-105735380D01*
X101130809Y-105735380D01*
X101035571Y-105687761D01*
X100987952Y-105640142D01*
X100940333Y-105544904D01*
X100892714Y-105354428D01*
X100892714Y-105116333D01*
X100940333Y-104925857D01*
X100987952Y-104830619D01*
X101035571Y-104783000D01*
X101130809Y-104735380D01*
X102321285Y-105068714D02*
X102321285Y-105735380D01*
X102083190Y-104687761D02*
X101845095Y-105402047D01*
X102464142Y-105402047D01*
X94123142Y-100385571D02*
X94456476Y-100385571D01*
X94599333Y-100909380D02*
X94123142Y-100909380D01*
X94123142Y-99909380D01*
X94599333Y-99909380D01*
X94980285Y-100861761D02*
X95123142Y-100909380D01*
X95361238Y-100909380D01*
X95456476Y-100861761D01*
X95504095Y-100814142D01*
X95551714Y-100718904D01*
X95551714Y-100623666D01*
X95504095Y-100528428D01*
X95456476Y-100480809D01*
X95361238Y-100433190D01*
X95170761Y-100385571D01*
X95075523Y-100337952D01*
X95027904Y-100290333D01*
X94980285Y-100195095D01*
X94980285Y-100099857D01*
X95027904Y-100004619D01*
X95075523Y-99957000D01*
X95170761Y-99909380D01*
X95408857Y-99909380D01*
X95551714Y-99957000D01*
X95980285Y-100909380D02*
X95980285Y-99909380D01*
X96361238Y-99909380D01*
X96456476Y-99957000D01*
X96504095Y-100004619D01*
X96551714Y-100099857D01*
X96551714Y-100242714D01*
X96504095Y-100337952D01*
X96456476Y-100385571D01*
X96361238Y-100433190D01*
X95980285Y-100433190D01*
X96885047Y-99909380D02*
X97504095Y-99909380D01*
X97170761Y-100290333D01*
X97313619Y-100290333D01*
X97408857Y-100337952D01*
X97456476Y-100385571D01*
X97504095Y-100480809D01*
X97504095Y-100718904D01*
X97456476Y-100814142D01*
X97408857Y-100861761D01*
X97313619Y-100909380D01*
X97027904Y-100909380D01*
X96932666Y-100861761D01*
X96885047Y-100814142D01*
X97885047Y-100004619D02*
X97932666Y-99957000D01*
X98027904Y-99909380D01*
X98266000Y-99909380D01*
X98361238Y-99957000D01*
X98408857Y-100004619D01*
X98456476Y-100099857D01*
X98456476Y-100195095D01*
X98408857Y-100337952D01*
X97837428Y-100909380D01*
X98456476Y-100909380D01*
X93952380Y-125795238D02*
X93952380Y-125223809D01*
X94952380Y-125509523D02*
X93952380Y-125509523D01*
X94952380Y-124890476D02*
X93952380Y-124890476D01*
X93952380Y-124509523D01*
X94000000Y-124414285D01*
X94047619Y-124366666D01*
X94142857Y-124319047D01*
X94285714Y-124319047D01*
X94380952Y-124366666D01*
X94428571Y-124414285D01*
X94476190Y-124509523D01*
X94476190Y-124890476D01*
X94904761Y-123938095D02*
X94952380Y-123795238D01*
X94952380Y-123557142D01*
X94904761Y-123461904D01*
X94857142Y-123414285D01*
X94761904Y-123366666D01*
X94666666Y-123366666D01*
X94571428Y-123414285D01*
X94523809Y-123461904D01*
X94476190Y-123557142D01*
X94428571Y-123747619D01*
X94380952Y-123842857D01*
X94333333Y-123890476D01*
X94238095Y-123938095D01*
X94142857Y-123938095D01*
X94047619Y-123890476D01*
X94000000Y-123842857D01*
X93952380Y-123747619D01*
X93952380Y-123509523D01*
X94000000Y-123366666D01*
X93952380Y-122461904D02*
X93952380Y-122938095D01*
X94428571Y-122985714D01*
X94380952Y-122938095D01*
X94333333Y-122842857D01*
X94333333Y-122604761D01*
X94380952Y-122509523D01*
X94428571Y-122461904D01*
X94523809Y-122414285D01*
X94761904Y-122414285D01*
X94857142Y-122461904D01*
X94904761Y-122509523D01*
X94952380Y-122604761D01*
X94952380Y-122842857D01*
X94904761Y-122938095D01*
X94857142Y-122985714D01*
X94285714Y-121557142D02*
X94952380Y-121557142D01*
X93904761Y-121795238D02*
X94619047Y-122033333D01*
X94619047Y-121414285D01*
X93952380Y-121128571D02*
X93952380Y-120509523D01*
X94333333Y-120842857D01*
X94333333Y-120700000D01*
X94380952Y-120604761D01*
X94428571Y-120557142D01*
X94523809Y-120509523D01*
X94761904Y-120509523D01*
X94857142Y-120557142D01*
X94904761Y-120604761D01*
X94952380Y-120700000D01*
X94952380Y-120985714D01*
X94904761Y-121080952D01*
X94857142Y-121128571D01*
X93952380Y-119890476D02*
X93952380Y-119795238D01*
X94000000Y-119700000D01*
X94047619Y-119652380D01*
X94142857Y-119604761D01*
X94333333Y-119557142D01*
X94571428Y-119557142D01*
X94761904Y-119604761D01*
X94857142Y-119652380D01*
X94904761Y-119700000D01*
X94952380Y-119795238D01*
X94952380Y-119890476D01*
X94904761Y-119985714D01*
X94857142Y-120033333D01*
X94761904Y-120080952D01*
X94571428Y-120128571D01*
X94333333Y-120128571D01*
X94142857Y-120080952D01*
X94047619Y-120033333D01*
X94000000Y-119985714D01*
X93952380Y-119890476D01*
X94952380Y-119128571D02*
X93952380Y-119128571D01*
X93952380Y-118890476D01*
X94000000Y-118747619D01*
X94095238Y-118652380D01*
X94190476Y-118604761D01*
X94380952Y-118557142D01*
X94523809Y-118557142D01*
X94714285Y-118604761D01*
X94809523Y-118652380D01*
X94904761Y-118747619D01*
X94952380Y-118890476D01*
X94952380Y-119128571D01*
X94952380Y-118128571D02*
X93952380Y-118128571D01*
X93952380Y-117890476D01*
X94000000Y-117747619D01*
X94095238Y-117652380D01*
X94190476Y-117604761D01*
X94380952Y-117557142D01*
X94523809Y-117557142D01*
X94714285Y-117604761D01*
X94809523Y-117652380D01*
X94904761Y-117747619D01*
X94952380Y-117890476D01*
X94952380Y-118128571D01*
X94666666Y-117176190D02*
X94666666Y-116700000D01*
X94952380Y-117271428D02*
X93952380Y-116938095D01*
X94952380Y-116604761D01*
X109363095Y-119959380D02*
X109029761Y-119483190D01*
X108791666Y-119959380D02*
X108791666Y-118959380D01*
X109172619Y-118959380D01*
X109267857Y-119007000D01*
X109315476Y-119054619D01*
X109363095Y-119149857D01*
X109363095Y-119292714D01*
X109315476Y-119387952D01*
X109267857Y-119435571D01*
X109172619Y-119483190D01*
X108791666Y-119483190D01*
X109934523Y-119959380D02*
X109839285Y-119911761D01*
X109791666Y-119864142D01*
X109744047Y-119768904D01*
X109744047Y-119483190D01*
X109791666Y-119387952D01*
X109839285Y-119340333D01*
X109934523Y-119292714D01*
X110077380Y-119292714D01*
X110172619Y-119340333D01*
X110220238Y-119387952D01*
X110267857Y-119483190D01*
X110267857Y-119768904D01*
X110220238Y-119864142D01*
X110172619Y-119911761D01*
X110077380Y-119959380D01*
X109934523Y-119959380D01*
X110553571Y-119292714D02*
X110934523Y-119292714D01*
X110696428Y-118959380D02*
X110696428Y-119816523D01*
X110744047Y-119911761D01*
X110839285Y-119959380D01*
X110934523Y-119959380D01*
X111267857Y-119435571D02*
X111601190Y-119435571D01*
X111744047Y-119959380D02*
X111267857Y-119959380D01*
X111267857Y-118959380D01*
X111744047Y-118959380D01*
X112172619Y-119292714D02*
X112172619Y-119959380D01*
X112172619Y-119387952D02*
X112220238Y-119340333D01*
X112315476Y-119292714D01*
X112458333Y-119292714D01*
X112553571Y-119340333D01*
X112601190Y-119435571D01*
X112601190Y-119959380D01*
X113505952Y-119911761D02*
X113410714Y-119959380D01*
X113220238Y-119959380D01*
X113125000Y-119911761D01*
X113077380Y-119864142D01*
X113029761Y-119768904D01*
X113029761Y-119483190D01*
X113077380Y-119387952D01*
X113125000Y-119340333D01*
X113220238Y-119292714D01*
X113410714Y-119292714D01*
X113505952Y-119340333D01*
D14*
X104154619Y-126633151D02*
X103731285Y-126088865D01*
X103428904Y-126633151D02*
X103428904Y-125490151D01*
X103912714Y-125490151D01*
X104033666Y-125544580D01*
X104094142Y-125599008D01*
X104154619Y-125707865D01*
X104154619Y-125871151D01*
X104094142Y-125980008D01*
X104033666Y-126034437D01*
X103912714Y-126088865D01*
X103428904Y-126088865D01*
X105182714Y-126578722D02*
X105061761Y-126633151D01*
X104819857Y-126633151D01*
X104698904Y-126578722D01*
X104638428Y-126469865D01*
X104638428Y-126034437D01*
X104698904Y-125925580D01*
X104819857Y-125871151D01*
X105061761Y-125871151D01*
X105182714Y-125925580D01*
X105243190Y-126034437D01*
X105243190Y-126143294D01*
X104638428Y-126252151D01*
X105727000Y-126578722D02*
X105847952Y-126633151D01*
X106089857Y-126633151D01*
X106210809Y-126578722D01*
X106271285Y-126469865D01*
X106271285Y-126415437D01*
X106210809Y-126306580D01*
X106089857Y-126252151D01*
X105908428Y-126252151D01*
X105787476Y-126197722D01*
X105727000Y-126088865D01*
X105727000Y-126034437D01*
X105787476Y-125925580D01*
X105908428Y-125871151D01*
X106089857Y-125871151D01*
X106210809Y-125925580D01*
X107299380Y-126578722D02*
X107178428Y-126633151D01*
X106936523Y-126633151D01*
X106815571Y-126578722D01*
X106755095Y-126469865D01*
X106755095Y-126034437D01*
X106815571Y-125925580D01*
X106936523Y-125871151D01*
X107178428Y-125871151D01*
X107299380Y-125925580D01*
X107359857Y-126034437D01*
X107359857Y-126143294D01*
X106755095Y-126252151D01*
X107722714Y-125871151D02*
X108206523Y-125871151D01*
X107904142Y-125490151D02*
X107904142Y-126469865D01*
X107964619Y-126578722D01*
X108085571Y-126633151D01*
X108206523Y-126633151D01*
D11*
X100417333Y-118070380D02*
X99941142Y-118070380D01*
X99893523Y-118546571D01*
X99941142Y-118498952D01*
X100036380Y-118451333D01*
X100274476Y-118451333D01*
X100369714Y-118498952D01*
X100417333Y-118546571D01*
X100464952Y-118641809D01*
X100464952Y-118879904D01*
X100417333Y-118975142D01*
X100369714Y-119022761D01*
X100274476Y-119070380D01*
X100036380Y-119070380D01*
X99941142Y-119022761D01*
X99893523Y-118975142D01*
X100893523Y-119070380D02*
X100893523Y-118070380D01*
X100988761Y-118689428D02*
X101274476Y-119070380D01*
X101274476Y-118403714D02*
X100893523Y-118784666D01*
X94080952Y-132902380D02*
X94080952Y-131902380D01*
X94176190Y-132521428D02*
X94461904Y-132902380D01*
X94461904Y-132235714D02*
X94080952Y-132616666D01*
X95319047Y-132235714D02*
X95319047Y-132902380D01*
X95080952Y-131854761D02*
X94842857Y-132569047D01*
X95461904Y-132569047D01*
X95747619Y-131902380D02*
X96414285Y-131902380D01*
X95985714Y-132902380D01*
X90285714Y-131902380D02*
X90904761Y-131902380D01*
X90571428Y-132283333D01*
X90714285Y-132283333D01*
X90809523Y-132330952D01*
X90857142Y-132378571D01*
X90904761Y-132473809D01*
X90904761Y-132711904D01*
X90857142Y-132807142D01*
X90809523Y-132854761D01*
X90714285Y-132902380D01*
X90428571Y-132902380D01*
X90333333Y-132854761D01*
X90285714Y-132807142D01*
X91333333Y-132902380D02*
X91333333Y-131902380D01*
X91428571Y-132521428D02*
X91714285Y-132902380D01*
X91714285Y-132235714D02*
X91333333Y-132616666D01*
X92047619Y-131902380D02*
X92666666Y-131902380D01*
X92333333Y-132283333D01*
X92476190Y-132283333D01*
X92571428Y-132330952D01*
X92619047Y-132378571D01*
X92666666Y-132473809D01*
X92666666Y-132711904D01*
X92619047Y-132807142D01*
X92571428Y-132854761D01*
X92476190Y-132902380D01*
X92190476Y-132902380D01*
X92095238Y-132854761D01*
X92047619Y-132807142D01*
X87204761Y-132902380D02*
X86633333Y-132902380D01*
X86919047Y-132902380D02*
X86919047Y-131902380D01*
X86823809Y-132045238D01*
X86728571Y-132140476D01*
X86633333Y-132188095D01*
X87823809Y-131902380D02*
X87919047Y-131902380D01*
X88014285Y-131950000D01*
X88061904Y-131997619D01*
X88109523Y-132092857D01*
X88157142Y-132283333D01*
X88157142Y-132521428D01*
X88109523Y-132711904D01*
X88061904Y-132807142D01*
X88014285Y-132854761D01*
X87919047Y-132902380D01*
X87823809Y-132902380D01*
X87728571Y-132854761D01*
X87680952Y-132807142D01*
X87633333Y-132711904D01*
X87585714Y-132521428D01*
X87585714Y-132283333D01*
X87633333Y-132092857D01*
X87680952Y-131997619D01*
X87728571Y-131950000D01*
X87823809Y-131902380D01*
X88585714Y-132902380D02*
X88585714Y-131902380D01*
X88680952Y-132521428D02*
X88966666Y-132902380D01*
X88966666Y-132235714D02*
X88585714Y-132616666D01*
X80485714Y-118238095D02*
X81152380Y-118238095D01*
X80104761Y-118476190D02*
X80819047Y-118714285D01*
X80819047Y-118095238D01*
X80152380Y-117809523D02*
X80152380Y-117142857D01*
X81152380Y-117571428D01*
X80485714Y-116333333D02*
X81152380Y-116333333D01*
X80485714Y-116761904D02*
X81009523Y-116761904D01*
X81104761Y-116714285D01*
X81152380Y-116619047D01*
X81152380Y-116476190D01*
X81104761Y-116380952D01*
X81057142Y-116333333D01*
X122031285Y-107929761D02*
X122174142Y-107977380D01*
X122412238Y-107977380D01*
X122507476Y-107929761D01*
X122555095Y-107882142D01*
X122602714Y-107786904D01*
X122602714Y-107691666D01*
X122555095Y-107596428D01*
X122507476Y-107548809D01*
X122412238Y-107501190D01*
X122221761Y-107453571D01*
X122126523Y-107405952D01*
X122078904Y-107358333D01*
X122031285Y-107263095D01*
X122031285Y-107167857D01*
X122078904Y-107072619D01*
X122126523Y-107025000D01*
X122221761Y-106977380D01*
X122459857Y-106977380D01*
X122602714Y-107025000D01*
X123031285Y-107977380D02*
X123031285Y-106977380D01*
X123412238Y-106977380D01*
X123507476Y-107025000D01*
X123555095Y-107072619D01*
X123602714Y-107167857D01*
X123602714Y-107310714D01*
X123555095Y-107405952D01*
X123507476Y-107453571D01*
X123412238Y-107501190D01*
X123031285Y-107501190D01*
X124031285Y-107977380D02*
X124031285Y-106977380D01*
X124602714Y-107977380D02*
X124174142Y-107405952D01*
X124602714Y-106977380D02*
X124031285Y-107548809D01*
X107688285Y-100528380D02*
X107688285Y-99528380D01*
X108069238Y-99528380D01*
X108164476Y-99576000D01*
X108212095Y-99623619D01*
X108259714Y-99718857D01*
X108259714Y-99861714D01*
X108212095Y-99956952D01*
X108164476Y-100004571D01*
X108069238Y-100052190D01*
X107688285Y-100052190D01*
X109259714Y-100528380D02*
X108926380Y-100052190D01*
X108688285Y-100528380D02*
X108688285Y-99528380D01*
X109069238Y-99528380D01*
X109164476Y-99576000D01*
X109212095Y-99623619D01*
X109259714Y-99718857D01*
X109259714Y-99861714D01*
X109212095Y-99956952D01*
X109164476Y-100004571D01*
X109069238Y-100052190D01*
X108688285Y-100052190D01*
X109878761Y-99528380D02*
X110069238Y-99528380D01*
X110164476Y-99576000D01*
X110259714Y-99671238D01*
X110307333Y-99861714D01*
X110307333Y-100195047D01*
X110259714Y-100385523D01*
X110164476Y-100480761D01*
X110069238Y-100528380D01*
X109878761Y-100528380D01*
X109783523Y-100480761D01*
X109688285Y-100385523D01*
X109640666Y-100195047D01*
X109640666Y-99861714D01*
X109688285Y-99671238D01*
X109783523Y-99576000D01*
X109878761Y-99528380D01*
X111259714Y-99576000D02*
X111164476Y-99528380D01*
X111021619Y-99528380D01*
X110878761Y-99576000D01*
X110783523Y-99671238D01*
X110735904Y-99766476D01*
X110688285Y-99956952D01*
X110688285Y-100099809D01*
X110735904Y-100290285D01*
X110783523Y-100385523D01*
X110878761Y-100480761D01*
X111021619Y-100528380D01*
X111116857Y-100528380D01*
X111259714Y-100480761D01*
X111307333Y-100433142D01*
X111307333Y-100099809D01*
X111116857Y-100099809D01*
X84375714Y-114101619D02*
X84423333Y-114054000D01*
X84518571Y-114006380D01*
X84756666Y-114006380D01*
X84851904Y-114054000D01*
X84899523Y-114101619D01*
X84947142Y-114196857D01*
X84947142Y-114292095D01*
X84899523Y-114434952D01*
X84328095Y-115006380D01*
X84947142Y-115006380D01*
X85328095Y-114720666D02*
X85804285Y-114720666D01*
X85232857Y-115006380D02*
X85566190Y-114006380D01*
X85899523Y-115006380D01*
X101806666Y-107513380D02*
X101473333Y-107037190D01*
X101235238Y-107513380D02*
X101235238Y-106513380D01*
X101616190Y-106513380D01*
X101711428Y-106561000D01*
X101759047Y-106608619D01*
X101806666Y-106703857D01*
X101806666Y-106846714D01*
X101759047Y-106941952D01*
X101711428Y-106989571D01*
X101616190Y-107037190D01*
X101235238Y-107037190D01*
X102425714Y-106513380D02*
X102616190Y-106513380D01*
X102711428Y-106561000D01*
X102806666Y-106656238D01*
X102854285Y-106846714D01*
X102854285Y-107180047D01*
X102806666Y-107370523D01*
X102711428Y-107465761D01*
X102616190Y-107513380D01*
X102425714Y-107513380D01*
X102330476Y-107465761D01*
X102235238Y-107370523D01*
X102187619Y-107180047D01*
X102187619Y-106846714D01*
X102235238Y-106656238D01*
X102330476Y-106561000D01*
X102425714Y-106513380D01*
X103140000Y-106513380D02*
X103711428Y-106513380D01*
X103425714Y-107513380D02*
X103425714Y-106513380D01*
X103806666Y-107608619D02*
X104568571Y-107608619D01*
X105282857Y-107513380D02*
X104806666Y-107513380D01*
X104806666Y-106513380D01*
X105616190Y-106989571D02*
X105949523Y-106989571D01*
X106092380Y-107513380D02*
X105616190Y-107513380D01*
X105616190Y-106513380D01*
X106092380Y-106513380D01*
X106520952Y-107513380D02*
X106520952Y-106513380D01*
X106759047Y-106513380D01*
X106901904Y-106561000D01*
X106997142Y-106656238D01*
X107044761Y-106751476D01*
X107092380Y-106941952D01*
X107092380Y-107084809D01*
X107044761Y-107275285D01*
X106997142Y-107370523D01*
X106901904Y-107465761D01*
X106759047Y-107513380D01*
X106520952Y-107513380D01*
X77835238Y-110942380D02*
X77835238Y-110275714D01*
X77835238Y-110370952D02*
X77882857Y-110323333D01*
X77978095Y-110275714D01*
X78120952Y-110275714D01*
X78216190Y-110323333D01*
X78263809Y-110418571D01*
X78263809Y-110942380D01*
X78263809Y-110418571D02*
X78311428Y-110323333D01*
X78406666Y-110275714D01*
X78549523Y-110275714D01*
X78644761Y-110323333D01*
X78692380Y-110418571D01*
X78692380Y-110942380D01*
X79692380Y-110942380D02*
X79120952Y-110942380D01*
X79406666Y-110942380D02*
X79406666Y-109942380D01*
X79311428Y-110085238D01*
X79216190Y-110180476D01*
X79120952Y-110228095D01*
X70088238Y-114879380D02*
X70088238Y-114212714D01*
X70088238Y-114307952D02*
X70135857Y-114260333D01*
X70231095Y-114212714D01*
X70373952Y-114212714D01*
X70469190Y-114260333D01*
X70516809Y-114355571D01*
X70516809Y-114879380D01*
X70516809Y-114355571D02*
X70564428Y-114260333D01*
X70659666Y-114212714D01*
X70802523Y-114212714D01*
X70897761Y-114260333D01*
X70945380Y-114355571D01*
X70945380Y-114879380D01*
X71945380Y-114879380D02*
X71373952Y-114879380D01*
X71659666Y-114879380D02*
X71659666Y-113879380D01*
X71564428Y-114022238D01*
X71469190Y-114117476D01*
X71373952Y-114165095D01*
X70088238Y-111704380D02*
X70088238Y-111037714D01*
X70088238Y-111132952D02*
X70135857Y-111085333D01*
X70231095Y-111037714D01*
X70373952Y-111037714D01*
X70469190Y-111085333D01*
X70516809Y-111180571D01*
X70516809Y-111704380D01*
X70516809Y-111180571D02*
X70564428Y-111085333D01*
X70659666Y-111037714D01*
X70802523Y-111037714D01*
X70897761Y-111085333D01*
X70945380Y-111180571D01*
X70945380Y-111704380D01*
X71945380Y-111704380D02*
X71373952Y-111704380D01*
X71659666Y-111704380D02*
X71659666Y-110704380D01*
X71564428Y-110847238D01*
X71469190Y-110942476D01*
X71373952Y-110990095D01*
X82795238Y-126690380D02*
X82795238Y-126023714D01*
X82795238Y-126118952D02*
X82842857Y-126071333D01*
X82938095Y-126023714D01*
X83080952Y-126023714D01*
X83176190Y-126071333D01*
X83223809Y-126166571D01*
X83223809Y-126690380D01*
X83223809Y-126166571D02*
X83271428Y-126071333D01*
X83366666Y-126023714D01*
X83509523Y-126023714D01*
X83604761Y-126071333D01*
X83652380Y-126166571D01*
X83652380Y-126690380D01*
X84652380Y-126690380D02*
X84080952Y-126690380D01*
X84366666Y-126690380D02*
X84366666Y-125690380D01*
X84271428Y-125833238D01*
X84176190Y-125928476D01*
X84080952Y-125976095D01*
X87574380Y-124467857D02*
X87574380Y-125039285D01*
X87574380Y-124753571D02*
X86574380Y-124753571D01*
X86717238Y-124848809D01*
X86812476Y-124944047D01*
X86860095Y-125039285D01*
X86574380Y-123848809D02*
X86574380Y-123753571D01*
X86622000Y-123658333D01*
X86669619Y-123610714D01*
X86764857Y-123563095D01*
X86955333Y-123515476D01*
X87193428Y-123515476D01*
X87383904Y-123563095D01*
X87479142Y-123610714D01*
X87526761Y-123658333D01*
X87574380Y-123753571D01*
X87574380Y-123848809D01*
X87526761Y-123944047D01*
X87479142Y-123991666D01*
X87383904Y-124039285D01*
X87193428Y-124086904D01*
X86955333Y-124086904D01*
X86764857Y-124039285D01*
X86669619Y-123991666D01*
X86622000Y-123944047D01*
X86574380Y-123848809D01*
X86907714Y-123086904D02*
X87574380Y-123086904D01*
X87002952Y-123086904D02*
X86955333Y-123039285D01*
X86907714Y-122944047D01*
X86907714Y-122801190D01*
X86955333Y-122705952D01*
X87050571Y-122658333D01*
X87574380Y-122658333D01*
X79748095Y-104941714D02*
X79748095Y-105608380D01*
X79319523Y-104941714D02*
X79319523Y-105465523D01*
X79367142Y-105560761D01*
X79462380Y-105608380D01*
X79605238Y-105608380D01*
X79700476Y-105560761D01*
X79748095Y-105513142D01*
X80748095Y-105608380D02*
X80176666Y-105608380D01*
X80462380Y-105608380D02*
X80462380Y-104608380D01*
X80367142Y-104751238D01*
X80271904Y-104846476D01*
X80176666Y-104894095D01*
X78287714Y-106862619D02*
X78335333Y-106815000D01*
X78430571Y-106767380D01*
X78668666Y-106767380D01*
X78763904Y-106815000D01*
X78811523Y-106862619D01*
X78859142Y-106957857D01*
X78859142Y-107053095D01*
X78811523Y-107195952D01*
X78240095Y-107767380D01*
X78859142Y-107767380D01*
X79240095Y-106862619D02*
X79287714Y-106815000D01*
X79382952Y-106767380D01*
X79621047Y-106767380D01*
X79716285Y-106815000D01*
X79763904Y-106862619D01*
X79811523Y-106957857D01*
X79811523Y-107053095D01*
X79763904Y-107195952D01*
X79192476Y-107767380D01*
X79811523Y-107767380D01*
X80668666Y-107100714D02*
X80668666Y-107767380D01*
X80240095Y-107100714D02*
X80240095Y-107624523D01*
X80287714Y-107719761D01*
X80382952Y-107767380D01*
X80525809Y-107767380D01*
X80621047Y-107719761D01*
X80668666Y-107672142D01*
X122435952Y-96718380D02*
X121864523Y-96718380D01*
X122150238Y-96718380D02*
X122150238Y-95718380D01*
X122055000Y-95861238D01*
X121959761Y-95956476D01*
X121864523Y-96004095D01*
X122864523Y-96718380D02*
X122864523Y-95718380D01*
X122959761Y-96337428D02*
X123245476Y-96718380D01*
X123245476Y-96051714D02*
X122864523Y-96432666D01*
X124340952Y-96718380D02*
X123769523Y-96718380D01*
X124055238Y-96718380D02*
X124055238Y-95718380D01*
X123960000Y-95861238D01*
X123864761Y-95956476D01*
X123769523Y-96004095D01*
X124769523Y-96718380D02*
X124769523Y-95718380D01*
X124864761Y-96337428D02*
X125150476Y-96718380D01*
X125150476Y-96051714D02*
X124769523Y-96432666D01*
M02*
