G04 #@! TF.GenerationSoftware,KiCad,Pcbnew,(5.1.8)-1*
G04 #@! TF.CreationDate,2021-07-21T13:44:46+02:00*
G04 #@! TF.ProjectId,sensactUp2,73656e73-6163-4745-9570-322e6b696361,rev?*
G04 #@! TF.SameCoordinates,Original*
G04 #@! TF.FileFunction,Paste,Top*
G04 #@! TF.FilePolarity,Positive*
%FSLAX46Y46*%
G04 Gerber Fmt 4.6, Leading zero omitted, Abs format (unit mm)*
G04 Created by KiCad (PCBNEW (5.1.8)-1) date 2021-07-21 13:44:46*
%MOMM*%
%LPD*%
G01*
G04 APERTURE LIST*
%ADD10R,2.000000X0.400000*%
%ADD11R,0.800000X2.000000*%
%ADD12R,2.000000X0.700000*%
%ADD13R,1.900000X0.800000*%
%ADD14R,0.600000X2.200000*%
%ADD15R,2.000000X1.500000*%
%ADD16R,1.300000X1.300000*%
%ADD17R,1.300000X2.000000*%
%ADD18R,3.500000X2.300000*%
G04 APERTURE END LIST*
D10*
X83949000Y-82315000D03*
X83949000Y-81665000D03*
X83949000Y-81015000D03*
X83949000Y-80365000D03*
X83949000Y-79715000D03*
X83949000Y-79065000D03*
X83949000Y-78415000D03*
X83949000Y-77765000D03*
X83949000Y-77115000D03*
X83949000Y-76465000D03*
X83949000Y-75815000D03*
X90549000Y-75165000D03*
X90549000Y-75815000D03*
X90549000Y-76465000D03*
X90549000Y-77115000D03*
X90549000Y-77765000D03*
X90549000Y-78415000D03*
X90549000Y-79065000D03*
X90549000Y-79715000D03*
X90549000Y-80365000D03*
X90549000Y-81015000D03*
X90549000Y-81665000D03*
X83949000Y-75165000D03*
X90549000Y-82315000D03*
G36*
G01*
X82263000Y-80576000D02*
X81313000Y-80576000D01*
G75*
G02*
X81063000Y-80326000I0J250000D01*
G01*
X81063000Y-79651000D01*
G75*
G02*
X81313000Y-79401000I250000J0D01*
G01*
X82263000Y-79401000D01*
G75*
G02*
X82513000Y-79651000I0J-250000D01*
G01*
X82513000Y-80326000D01*
G75*
G02*
X82263000Y-80576000I-250000J0D01*
G01*
G37*
G36*
G01*
X82263000Y-82651000D02*
X81313000Y-82651000D01*
G75*
G02*
X81063000Y-82401000I0J250000D01*
G01*
X81063000Y-81726000D01*
G75*
G02*
X81313000Y-81476000I250000J0D01*
G01*
X82263000Y-81476000D01*
G75*
G02*
X82513000Y-81726000I0J-250000D01*
G01*
X82513000Y-82401000D01*
G75*
G02*
X82263000Y-82651000I-250000J0D01*
G01*
G37*
D11*
X113317000Y-99781000D03*
X113317000Y-91481000D03*
X115527000Y-91481000D03*
X115527000Y-99781000D03*
D12*
X112417000Y-93381000D03*
X112417000Y-94881000D03*
X112417000Y-97881000D03*
G36*
G01*
X109747000Y-97478001D02*
X109747000Y-96577999D01*
G75*
G02*
X109996999Y-96328000I249999J0D01*
G01*
X110697001Y-96328000D01*
G75*
G02*
X110947000Y-96577999I0J-249999D01*
G01*
X110947000Y-97478001D01*
G75*
G02*
X110697001Y-97728000I-249999J0D01*
G01*
X109996999Y-97728000D01*
G75*
G02*
X109747000Y-97478001I0J249999D01*
G01*
G37*
G36*
G01*
X107747000Y-97478001D02*
X107747000Y-96577999D01*
G75*
G02*
X107996999Y-96328000I249999J0D01*
G01*
X108697001Y-96328000D01*
G75*
G02*
X108947000Y-96577999I0J-249999D01*
G01*
X108947000Y-97478001D01*
G75*
G02*
X108697001Y-97728000I-249999J0D01*
G01*
X107996999Y-97728000D01*
G75*
G02*
X107747000Y-97478001I0J249999D01*
G01*
G37*
D13*
X106958000Y-94234000D03*
X109958000Y-93284000D03*
X109958000Y-95184000D03*
G36*
G01*
X96091000Y-110200000D02*
X96091000Y-111800000D01*
G75*
G02*
X95991000Y-111900000I-100000J0D01*
G01*
X95791000Y-111900000D01*
G75*
G02*
X95691000Y-111800000I0J100000D01*
G01*
X95691000Y-110200000D01*
G75*
G02*
X95791000Y-110100000I100000J0D01*
G01*
X95991000Y-110100000D01*
G75*
G02*
X96091000Y-110200000I0J-100000D01*
G01*
G37*
G36*
G01*
X95391000Y-110200000D02*
X95391000Y-111800000D01*
G75*
G02*
X95291000Y-111900000I-100000J0D01*
G01*
X95091000Y-111900000D01*
G75*
G02*
X94991000Y-111800000I0J100000D01*
G01*
X94991000Y-110200000D01*
G75*
G02*
X95091000Y-110100000I100000J0D01*
G01*
X95291000Y-110100000D01*
G75*
G02*
X95391000Y-110200000I0J-100000D01*
G01*
G37*
G36*
G01*
X94691000Y-110200000D02*
X94691000Y-111800000D01*
G75*
G02*
X94591000Y-111900000I-100000J0D01*
G01*
X94391000Y-111900000D01*
G75*
G02*
X94291000Y-111800000I0J100000D01*
G01*
X94291000Y-110200000D01*
G75*
G02*
X94391000Y-110100000I100000J0D01*
G01*
X94591000Y-110100000D01*
G75*
G02*
X94691000Y-110200000I0J-100000D01*
G01*
G37*
G36*
G01*
X93991000Y-110200000D02*
X93991000Y-111800000D01*
G75*
G02*
X93891000Y-111900000I-100000J0D01*
G01*
X93691000Y-111900000D01*
G75*
G02*
X93591000Y-111800000I0J100000D01*
G01*
X93591000Y-110200000D01*
G75*
G02*
X93691000Y-110100000I100000J0D01*
G01*
X93891000Y-110100000D01*
G75*
G02*
X93991000Y-110200000I0J-100000D01*
G01*
G37*
G36*
G01*
X93291000Y-110200000D02*
X93291000Y-111800000D01*
G75*
G02*
X93191000Y-111900000I-100000J0D01*
G01*
X92991000Y-111900000D01*
G75*
G02*
X92891000Y-111800000I0J100000D01*
G01*
X92891000Y-110200000D01*
G75*
G02*
X92991000Y-110100000I100000J0D01*
G01*
X93191000Y-110100000D01*
G75*
G02*
X93291000Y-110200000I0J-100000D01*
G01*
G37*
G36*
G01*
X92591000Y-110200000D02*
X92591000Y-111800000D01*
G75*
G02*
X92491000Y-111900000I-100000J0D01*
G01*
X92291000Y-111900000D01*
G75*
G02*
X92191000Y-111800000I0J100000D01*
G01*
X92191000Y-110200000D01*
G75*
G02*
X92291000Y-110100000I100000J0D01*
G01*
X92491000Y-110100000D01*
G75*
G02*
X92591000Y-110200000I0J-100000D01*
G01*
G37*
G36*
G01*
X91891000Y-110200000D02*
X91891000Y-111800000D01*
G75*
G02*
X91791000Y-111900000I-100000J0D01*
G01*
X91591000Y-111900000D01*
G75*
G02*
X91491000Y-111800000I0J100000D01*
G01*
X91491000Y-110200000D01*
G75*
G02*
X91591000Y-110100000I100000J0D01*
G01*
X91791000Y-110100000D01*
G75*
G02*
X91891000Y-110200000I0J-100000D01*
G01*
G37*
G36*
G01*
X91191000Y-110200000D02*
X91191000Y-111800000D01*
G75*
G02*
X91091000Y-111900000I-100000J0D01*
G01*
X90891000Y-111900000D01*
G75*
G02*
X90791000Y-111800000I0J100000D01*
G01*
X90791000Y-110200000D01*
G75*
G02*
X90891000Y-110100000I100000J0D01*
G01*
X91091000Y-110100000D01*
G75*
G02*
X91191000Y-110200000I0J-100000D01*
G01*
G37*
G36*
G01*
X90491000Y-110200000D02*
X90491000Y-111800000D01*
G75*
G02*
X90391000Y-111900000I-100000J0D01*
G01*
X90191000Y-111900000D01*
G75*
G02*
X90091000Y-111800000I0J100000D01*
G01*
X90091000Y-110200000D01*
G75*
G02*
X90191000Y-110100000I100000J0D01*
G01*
X90391000Y-110100000D01*
G75*
G02*
X90491000Y-110200000I0J-100000D01*
G01*
G37*
G36*
G01*
X89791000Y-110200000D02*
X89791000Y-111800000D01*
G75*
G02*
X89691000Y-111900000I-100000J0D01*
G01*
X89491000Y-111900000D01*
G75*
G02*
X89391000Y-111800000I0J100000D01*
G01*
X89391000Y-110200000D01*
G75*
G02*
X89491000Y-110100000I100000J0D01*
G01*
X89691000Y-110100000D01*
G75*
G02*
X89791000Y-110200000I0J-100000D01*
G01*
G37*
G36*
G01*
X89091000Y-110200000D02*
X89091000Y-111800000D01*
G75*
G02*
X88991000Y-111900000I-100000J0D01*
G01*
X88791000Y-111900000D01*
G75*
G02*
X88691000Y-111800000I0J100000D01*
G01*
X88691000Y-110200000D01*
G75*
G02*
X88791000Y-110100000I100000J0D01*
G01*
X88991000Y-110100000D01*
G75*
G02*
X89091000Y-110200000I0J-100000D01*
G01*
G37*
G36*
G01*
X88391000Y-110200000D02*
X88391000Y-111800000D01*
G75*
G02*
X88291000Y-111900000I-100000J0D01*
G01*
X88091000Y-111900000D01*
G75*
G02*
X87991000Y-111800000I0J100000D01*
G01*
X87991000Y-110200000D01*
G75*
G02*
X88091000Y-110100000I100000J0D01*
G01*
X88291000Y-110100000D01*
G75*
G02*
X88391000Y-110200000I0J-100000D01*
G01*
G37*
G36*
G01*
X81944000Y-83116000D02*
X82394000Y-83116000D01*
G75*
G02*
X82619000Y-83341000I0J-225000D01*
G01*
X82619000Y-85891000D01*
G75*
G02*
X82394000Y-86116000I-225000J0D01*
G01*
X81944000Y-86116000D01*
G75*
G02*
X81719000Y-85891000I0J225000D01*
G01*
X81719000Y-83341000D01*
G75*
G02*
X81944000Y-83116000I225000J0D01*
G01*
G37*
G36*
G01*
X83214000Y-83116000D02*
X83664000Y-83116000D01*
G75*
G02*
X83889000Y-83341000I0J-225000D01*
G01*
X83889000Y-85891000D01*
G75*
G02*
X83664000Y-86116000I-225000J0D01*
G01*
X83214000Y-86116000D01*
G75*
G02*
X82989000Y-85891000I0J225000D01*
G01*
X82989000Y-83341000D01*
G75*
G02*
X83214000Y-83116000I225000J0D01*
G01*
G37*
G36*
G01*
X84484000Y-83116000D02*
X84934000Y-83116000D01*
G75*
G02*
X85159000Y-83341000I0J-225000D01*
G01*
X85159000Y-85891000D01*
G75*
G02*
X84934000Y-86116000I-225000J0D01*
G01*
X84484000Y-86116000D01*
G75*
G02*
X84259000Y-85891000I0J225000D01*
G01*
X84259000Y-83341000D01*
G75*
G02*
X84484000Y-83116000I225000J0D01*
G01*
G37*
G36*
G01*
X85754000Y-83116000D02*
X86204000Y-83116000D01*
G75*
G02*
X86429000Y-83341000I0J-225000D01*
G01*
X86429000Y-85891000D01*
G75*
G02*
X86204000Y-86116000I-225000J0D01*
G01*
X85754000Y-86116000D01*
G75*
G02*
X85529000Y-85891000I0J225000D01*
G01*
X85529000Y-83341000D01*
G75*
G02*
X85754000Y-83116000I225000J0D01*
G01*
G37*
G36*
G01*
X87024000Y-83116000D02*
X87474000Y-83116000D01*
G75*
G02*
X87699000Y-83341000I0J-225000D01*
G01*
X87699000Y-85891000D01*
G75*
G02*
X87474000Y-86116000I-225000J0D01*
G01*
X87024000Y-86116000D01*
G75*
G02*
X86799000Y-85891000I0J225000D01*
G01*
X86799000Y-83341000D01*
G75*
G02*
X87024000Y-83116000I225000J0D01*
G01*
G37*
G36*
G01*
X88294000Y-83116000D02*
X88744000Y-83116000D01*
G75*
G02*
X88969000Y-83341000I0J-225000D01*
G01*
X88969000Y-85891000D01*
G75*
G02*
X88744000Y-86116000I-225000J0D01*
G01*
X88294000Y-86116000D01*
G75*
G02*
X88069000Y-85891000I0J225000D01*
G01*
X88069000Y-83341000D01*
G75*
G02*
X88294000Y-83116000I225000J0D01*
G01*
G37*
G36*
G01*
X89564000Y-83116000D02*
X90014000Y-83116000D01*
G75*
G02*
X90239000Y-83341000I0J-225000D01*
G01*
X90239000Y-85891000D01*
G75*
G02*
X90014000Y-86116000I-225000J0D01*
G01*
X89564000Y-86116000D01*
G75*
G02*
X89339000Y-85891000I0J225000D01*
G01*
X89339000Y-83341000D01*
G75*
G02*
X89564000Y-83116000I225000J0D01*
G01*
G37*
G36*
G01*
X90834000Y-83116000D02*
X91284000Y-83116000D01*
G75*
G02*
X91509000Y-83341000I0J-225000D01*
G01*
X91509000Y-85891000D01*
G75*
G02*
X91284000Y-86116000I-225000J0D01*
G01*
X90834000Y-86116000D01*
G75*
G02*
X90609000Y-85891000I0J225000D01*
G01*
X90609000Y-83341000D01*
G75*
G02*
X90834000Y-83116000I225000J0D01*
G01*
G37*
G36*
G01*
X92104000Y-83116000D02*
X92554000Y-83116000D01*
G75*
G02*
X92779000Y-83341000I0J-225000D01*
G01*
X92779000Y-85891000D01*
G75*
G02*
X92554000Y-86116000I-225000J0D01*
G01*
X92104000Y-86116000D01*
G75*
G02*
X91879000Y-85891000I0J225000D01*
G01*
X91879000Y-83341000D01*
G75*
G02*
X92104000Y-83116000I225000J0D01*
G01*
G37*
G36*
G01*
X93374000Y-83116000D02*
X93824000Y-83116000D01*
G75*
G02*
X94049000Y-83341000I0J-225000D01*
G01*
X94049000Y-85891000D01*
G75*
G02*
X93824000Y-86116000I-225000J0D01*
G01*
X93374000Y-86116000D01*
G75*
G02*
X93149000Y-85891000I0J225000D01*
G01*
X93149000Y-83341000D01*
G75*
G02*
X93374000Y-83116000I225000J0D01*
G01*
G37*
G36*
G01*
X94644000Y-83116000D02*
X95094000Y-83116000D01*
G75*
G02*
X95319000Y-83341000I0J-225000D01*
G01*
X95319000Y-85891000D01*
G75*
G02*
X95094000Y-86116000I-225000J0D01*
G01*
X94644000Y-86116000D01*
G75*
G02*
X94419000Y-85891000I0J225000D01*
G01*
X94419000Y-83341000D01*
G75*
G02*
X94644000Y-83116000I225000J0D01*
G01*
G37*
G36*
G01*
X95914000Y-83116000D02*
X96364000Y-83116000D01*
G75*
G02*
X96589000Y-83341000I0J-225000D01*
G01*
X96589000Y-85891000D01*
G75*
G02*
X96364000Y-86116000I-225000J0D01*
G01*
X95914000Y-86116000D01*
G75*
G02*
X95689000Y-85891000I0J225000D01*
G01*
X95689000Y-83341000D01*
G75*
G02*
X95914000Y-83116000I225000J0D01*
G01*
G37*
G36*
G01*
X97184000Y-83116000D02*
X97634000Y-83116000D01*
G75*
G02*
X97859000Y-83341000I0J-225000D01*
G01*
X97859000Y-85891000D01*
G75*
G02*
X97634000Y-86116000I-225000J0D01*
G01*
X97184000Y-86116000D01*
G75*
G02*
X96959000Y-85891000I0J225000D01*
G01*
X96959000Y-83341000D01*
G75*
G02*
X97184000Y-83116000I225000J0D01*
G01*
G37*
G36*
G01*
X98454000Y-83116000D02*
X98904000Y-83116000D01*
G75*
G02*
X99129000Y-83341000I0J-225000D01*
G01*
X99129000Y-85891000D01*
G75*
G02*
X98904000Y-86116000I-225000J0D01*
G01*
X98454000Y-86116000D01*
G75*
G02*
X98229000Y-85891000I0J225000D01*
G01*
X98229000Y-83341000D01*
G75*
G02*
X98454000Y-83116000I225000J0D01*
G01*
G37*
G36*
G01*
X101679000Y-87676000D02*
X101679000Y-88126000D01*
G75*
G02*
X101454000Y-88351000I-225000J0D01*
G01*
X98904000Y-88351000D01*
G75*
G02*
X98679000Y-88126000I0J225000D01*
G01*
X98679000Y-87676000D01*
G75*
G02*
X98904000Y-87451000I225000J0D01*
G01*
X101454000Y-87451000D01*
G75*
G02*
X101679000Y-87676000I0J-225000D01*
G01*
G37*
G36*
G01*
X101679000Y-88946000D02*
X101679000Y-89396000D01*
G75*
G02*
X101454000Y-89621000I-225000J0D01*
G01*
X98904000Y-89621000D01*
G75*
G02*
X98679000Y-89396000I0J225000D01*
G01*
X98679000Y-88946000D01*
G75*
G02*
X98904000Y-88721000I225000J0D01*
G01*
X101454000Y-88721000D01*
G75*
G02*
X101679000Y-88946000I0J-225000D01*
G01*
G37*
G36*
G01*
X101679000Y-90216000D02*
X101679000Y-90666000D01*
G75*
G02*
X101454000Y-90891000I-225000J0D01*
G01*
X98904000Y-90891000D01*
G75*
G02*
X98679000Y-90666000I0J225000D01*
G01*
X98679000Y-90216000D01*
G75*
G02*
X98904000Y-89991000I225000J0D01*
G01*
X101454000Y-89991000D01*
G75*
G02*
X101679000Y-90216000I0J-225000D01*
G01*
G37*
G36*
G01*
X101679000Y-91486000D02*
X101679000Y-91936000D01*
G75*
G02*
X101454000Y-92161000I-225000J0D01*
G01*
X98904000Y-92161000D01*
G75*
G02*
X98679000Y-91936000I0J225000D01*
G01*
X98679000Y-91486000D01*
G75*
G02*
X98904000Y-91261000I225000J0D01*
G01*
X101454000Y-91261000D01*
G75*
G02*
X101679000Y-91486000I0J-225000D01*
G01*
G37*
G36*
G01*
X101679000Y-92756000D02*
X101679000Y-93206000D01*
G75*
G02*
X101454000Y-93431000I-225000J0D01*
G01*
X98904000Y-93431000D01*
G75*
G02*
X98679000Y-93206000I0J225000D01*
G01*
X98679000Y-92756000D01*
G75*
G02*
X98904000Y-92531000I225000J0D01*
G01*
X101454000Y-92531000D01*
G75*
G02*
X101679000Y-92756000I0J-225000D01*
G01*
G37*
G36*
G01*
X101679000Y-94026000D02*
X101679000Y-94476000D01*
G75*
G02*
X101454000Y-94701000I-225000J0D01*
G01*
X98904000Y-94701000D01*
G75*
G02*
X98679000Y-94476000I0J225000D01*
G01*
X98679000Y-94026000D01*
G75*
G02*
X98904000Y-93801000I225000J0D01*
G01*
X101454000Y-93801000D01*
G75*
G02*
X101679000Y-94026000I0J-225000D01*
G01*
G37*
G36*
G01*
X101679000Y-95296000D02*
X101679000Y-95746000D01*
G75*
G02*
X101454000Y-95971000I-225000J0D01*
G01*
X98904000Y-95971000D01*
G75*
G02*
X98679000Y-95746000I0J225000D01*
G01*
X98679000Y-95296000D01*
G75*
G02*
X98904000Y-95071000I225000J0D01*
G01*
X101454000Y-95071000D01*
G75*
G02*
X101679000Y-95296000I0J-225000D01*
G01*
G37*
G36*
G01*
X101679000Y-96566000D02*
X101679000Y-97016000D01*
G75*
G02*
X101454000Y-97241000I-225000J0D01*
G01*
X98904000Y-97241000D01*
G75*
G02*
X98679000Y-97016000I0J225000D01*
G01*
X98679000Y-96566000D01*
G75*
G02*
X98904000Y-96341000I225000J0D01*
G01*
X101454000Y-96341000D01*
G75*
G02*
X101679000Y-96566000I0J-225000D01*
G01*
G37*
G36*
G01*
X101679000Y-97836000D02*
X101679000Y-98286000D01*
G75*
G02*
X101454000Y-98511000I-225000J0D01*
G01*
X98904000Y-98511000D01*
G75*
G02*
X98679000Y-98286000I0J225000D01*
G01*
X98679000Y-97836000D01*
G75*
G02*
X98904000Y-97611000I225000J0D01*
G01*
X101454000Y-97611000D01*
G75*
G02*
X101679000Y-97836000I0J-225000D01*
G01*
G37*
G36*
G01*
X101679000Y-99106000D02*
X101679000Y-99556000D01*
G75*
G02*
X101454000Y-99781000I-225000J0D01*
G01*
X98904000Y-99781000D01*
G75*
G02*
X98679000Y-99556000I0J225000D01*
G01*
X98679000Y-99106000D01*
G75*
G02*
X98904000Y-98881000I225000J0D01*
G01*
X101454000Y-98881000D01*
G75*
G02*
X101679000Y-99106000I0J-225000D01*
G01*
G37*
G36*
G01*
X98904000Y-104116000D02*
X98454000Y-104116000D01*
G75*
G02*
X98229000Y-103891000I0J225000D01*
G01*
X98229000Y-101341000D01*
G75*
G02*
X98454000Y-101116000I225000J0D01*
G01*
X98904000Y-101116000D01*
G75*
G02*
X99129000Y-101341000I0J-225000D01*
G01*
X99129000Y-103891000D01*
G75*
G02*
X98904000Y-104116000I-225000J0D01*
G01*
G37*
G36*
G01*
X97634000Y-104116000D02*
X97184000Y-104116000D01*
G75*
G02*
X96959000Y-103891000I0J225000D01*
G01*
X96959000Y-101341000D01*
G75*
G02*
X97184000Y-101116000I225000J0D01*
G01*
X97634000Y-101116000D01*
G75*
G02*
X97859000Y-101341000I0J-225000D01*
G01*
X97859000Y-103891000D01*
G75*
G02*
X97634000Y-104116000I-225000J0D01*
G01*
G37*
G36*
G01*
X96364000Y-104116000D02*
X95914000Y-104116000D01*
G75*
G02*
X95689000Y-103891000I0J225000D01*
G01*
X95689000Y-101341000D01*
G75*
G02*
X95914000Y-101116000I225000J0D01*
G01*
X96364000Y-101116000D01*
G75*
G02*
X96589000Y-101341000I0J-225000D01*
G01*
X96589000Y-103891000D01*
G75*
G02*
X96364000Y-104116000I-225000J0D01*
G01*
G37*
G36*
G01*
X95094000Y-104116000D02*
X94644000Y-104116000D01*
G75*
G02*
X94419000Y-103891000I0J225000D01*
G01*
X94419000Y-101341000D01*
G75*
G02*
X94644000Y-101116000I225000J0D01*
G01*
X95094000Y-101116000D01*
G75*
G02*
X95319000Y-101341000I0J-225000D01*
G01*
X95319000Y-103891000D01*
G75*
G02*
X95094000Y-104116000I-225000J0D01*
G01*
G37*
G36*
G01*
X93824000Y-104116000D02*
X93374000Y-104116000D01*
G75*
G02*
X93149000Y-103891000I0J225000D01*
G01*
X93149000Y-101341000D01*
G75*
G02*
X93374000Y-101116000I225000J0D01*
G01*
X93824000Y-101116000D01*
G75*
G02*
X94049000Y-101341000I0J-225000D01*
G01*
X94049000Y-103891000D01*
G75*
G02*
X93824000Y-104116000I-225000J0D01*
G01*
G37*
G36*
G01*
X92554000Y-104116000D02*
X92104000Y-104116000D01*
G75*
G02*
X91879000Y-103891000I0J225000D01*
G01*
X91879000Y-101341000D01*
G75*
G02*
X92104000Y-101116000I225000J0D01*
G01*
X92554000Y-101116000D01*
G75*
G02*
X92779000Y-101341000I0J-225000D01*
G01*
X92779000Y-103891000D01*
G75*
G02*
X92554000Y-104116000I-225000J0D01*
G01*
G37*
G36*
G01*
X91284000Y-104116000D02*
X90834000Y-104116000D01*
G75*
G02*
X90609000Y-103891000I0J225000D01*
G01*
X90609000Y-101341000D01*
G75*
G02*
X90834000Y-101116000I225000J0D01*
G01*
X91284000Y-101116000D01*
G75*
G02*
X91509000Y-101341000I0J-225000D01*
G01*
X91509000Y-103891000D01*
G75*
G02*
X91284000Y-104116000I-225000J0D01*
G01*
G37*
G36*
G01*
X90014000Y-104116000D02*
X89564000Y-104116000D01*
G75*
G02*
X89339000Y-103891000I0J225000D01*
G01*
X89339000Y-101341000D01*
G75*
G02*
X89564000Y-101116000I225000J0D01*
G01*
X90014000Y-101116000D01*
G75*
G02*
X90239000Y-101341000I0J-225000D01*
G01*
X90239000Y-103891000D01*
G75*
G02*
X90014000Y-104116000I-225000J0D01*
G01*
G37*
G36*
G01*
X88744000Y-104116000D02*
X88294000Y-104116000D01*
G75*
G02*
X88069000Y-103891000I0J225000D01*
G01*
X88069000Y-101341000D01*
G75*
G02*
X88294000Y-101116000I225000J0D01*
G01*
X88744000Y-101116000D01*
G75*
G02*
X88969000Y-101341000I0J-225000D01*
G01*
X88969000Y-103891000D01*
G75*
G02*
X88744000Y-104116000I-225000J0D01*
G01*
G37*
G36*
G01*
X87474000Y-104116000D02*
X87024000Y-104116000D01*
G75*
G02*
X86799000Y-103891000I0J225000D01*
G01*
X86799000Y-101341000D01*
G75*
G02*
X87024000Y-101116000I225000J0D01*
G01*
X87474000Y-101116000D01*
G75*
G02*
X87699000Y-101341000I0J-225000D01*
G01*
X87699000Y-103891000D01*
G75*
G02*
X87474000Y-104116000I-225000J0D01*
G01*
G37*
G36*
G01*
X86204000Y-104116000D02*
X85754000Y-104116000D01*
G75*
G02*
X85529000Y-103891000I0J225000D01*
G01*
X85529000Y-101341000D01*
G75*
G02*
X85754000Y-101116000I225000J0D01*
G01*
X86204000Y-101116000D01*
G75*
G02*
X86429000Y-101341000I0J-225000D01*
G01*
X86429000Y-103891000D01*
G75*
G02*
X86204000Y-104116000I-225000J0D01*
G01*
G37*
G36*
G01*
X84934000Y-104116000D02*
X84484000Y-104116000D01*
G75*
G02*
X84259000Y-103891000I0J225000D01*
G01*
X84259000Y-101341000D01*
G75*
G02*
X84484000Y-101116000I225000J0D01*
G01*
X84934000Y-101116000D01*
G75*
G02*
X85159000Y-101341000I0J-225000D01*
G01*
X85159000Y-103891000D01*
G75*
G02*
X84934000Y-104116000I-225000J0D01*
G01*
G37*
G36*
G01*
X83664000Y-104116000D02*
X83214000Y-104116000D01*
G75*
G02*
X82989000Y-103891000I0J225000D01*
G01*
X82989000Y-101341000D01*
G75*
G02*
X83214000Y-101116000I225000J0D01*
G01*
X83664000Y-101116000D01*
G75*
G02*
X83889000Y-101341000I0J-225000D01*
G01*
X83889000Y-103891000D01*
G75*
G02*
X83664000Y-104116000I-225000J0D01*
G01*
G37*
G36*
G01*
X82394000Y-104116000D02*
X81944000Y-104116000D01*
G75*
G02*
X81719000Y-103891000I0J225000D01*
G01*
X81719000Y-101341000D01*
G75*
G02*
X81944000Y-101116000I225000J0D01*
G01*
X82394000Y-101116000D01*
G75*
G02*
X82619000Y-101341000I0J-225000D01*
G01*
X82619000Y-103891000D01*
G75*
G02*
X82394000Y-104116000I-225000J0D01*
G01*
G37*
D14*
X89095000Y-118200000D03*
X90365000Y-118200000D03*
X91635000Y-118200000D03*
X92905000Y-118200000D03*
X92905000Y-124200000D03*
X91635000Y-124200000D03*
X90365000Y-124200000D03*
X89095000Y-124200000D03*
D15*
X109727000Y-123317000D03*
X101727000Y-123317000D03*
D16*
X102025000Y-119895000D03*
D17*
X107525000Y-118745000D03*
D16*
X102025000Y-117595000D03*
G36*
G01*
X95600000Y-131250001D02*
X95600000Y-130349999D01*
G75*
G02*
X95849999Y-130100000I249999J0D01*
G01*
X96550001Y-130100000D01*
G75*
G02*
X96800000Y-130349999I0J-249999D01*
G01*
X96800000Y-131250001D01*
G75*
G02*
X96550001Y-131500000I-249999J0D01*
G01*
X95849999Y-131500000D01*
G75*
G02*
X95600000Y-131250001I0J249999D01*
G01*
G37*
G36*
G01*
X93600000Y-131250001D02*
X93600000Y-130349999D01*
G75*
G02*
X93849999Y-130100000I249999J0D01*
G01*
X94550001Y-130100000D01*
G75*
G02*
X94800000Y-130349999I0J-249999D01*
G01*
X94800000Y-131250001D01*
G75*
G02*
X94550001Y-131500000I-249999J0D01*
G01*
X93849999Y-131500000D01*
G75*
G02*
X93600000Y-131250001I0J249999D01*
G01*
G37*
G36*
G01*
X91900000Y-131250001D02*
X91900000Y-130349999D01*
G75*
G02*
X92149999Y-130100000I249999J0D01*
G01*
X92850001Y-130100000D01*
G75*
G02*
X93100000Y-130349999I0J-249999D01*
G01*
X93100000Y-131250001D01*
G75*
G02*
X92850001Y-131500000I-249999J0D01*
G01*
X92149999Y-131500000D01*
G75*
G02*
X91900000Y-131250001I0J249999D01*
G01*
G37*
G36*
G01*
X89900000Y-131250001D02*
X89900000Y-130349999D01*
G75*
G02*
X90149999Y-130100000I249999J0D01*
G01*
X90850001Y-130100000D01*
G75*
G02*
X91100000Y-130349999I0J-249999D01*
G01*
X91100000Y-131250001D01*
G75*
G02*
X90850001Y-131500000I-249999J0D01*
G01*
X90149999Y-131500000D01*
G75*
G02*
X89900000Y-131250001I0J249999D01*
G01*
G37*
G36*
G01*
X88200000Y-131250001D02*
X88200000Y-130349999D01*
G75*
G02*
X88449999Y-130100000I249999J0D01*
G01*
X89150001Y-130100000D01*
G75*
G02*
X89400000Y-130349999I0J-249999D01*
G01*
X89400000Y-131250001D01*
G75*
G02*
X89150001Y-131500000I-249999J0D01*
G01*
X88449999Y-131500000D01*
G75*
G02*
X88200000Y-131250001I0J249999D01*
G01*
G37*
G36*
G01*
X86200000Y-131250001D02*
X86200000Y-130349999D01*
G75*
G02*
X86449999Y-130100000I249999J0D01*
G01*
X87150001Y-130100000D01*
G75*
G02*
X87400000Y-130349999I0J-249999D01*
G01*
X87400000Y-131250001D01*
G75*
G02*
X87150001Y-131500000I-249999J0D01*
G01*
X86449999Y-131500000D01*
G75*
G02*
X86200000Y-131250001I0J249999D01*
G01*
G37*
G36*
G01*
X86900000Y-118700000D02*
X84500000Y-118700000D01*
G75*
G02*
X83900000Y-118100000I0J600000D01*
G01*
X83900000Y-116900000D01*
G75*
G02*
X84500000Y-116300000I600000J0D01*
G01*
X86900000Y-116300000D01*
G75*
G02*
X87500000Y-116900000I0J-600000D01*
G01*
X87500000Y-118100000D01*
G75*
G02*
X86900000Y-118700000I-600000J0D01*
G01*
G37*
G36*
G01*
X77900000Y-118700000D02*
X75500000Y-118700000D01*
G75*
G02*
X74900000Y-118100000I0J600000D01*
G01*
X74900000Y-116900000D01*
G75*
G02*
X75500000Y-116300000I600000J0D01*
G01*
X77900000Y-116300000D01*
G75*
G02*
X78500000Y-116900000I0J-600000D01*
G01*
X78500000Y-118100000D01*
G75*
G02*
X77900000Y-118700000I-600000J0D01*
G01*
G37*
D18*
X93600000Y-114554000D03*
X88200000Y-114554000D03*
G36*
G01*
X77300001Y-109500000D02*
X75099999Y-109500000D01*
G75*
G02*
X74850000Y-109250001I0J249999D01*
G01*
X74850000Y-108424999D01*
G75*
G02*
X75099999Y-108175000I249999J0D01*
G01*
X77300001Y-108175000D01*
G75*
G02*
X77550000Y-108424999I0J-249999D01*
G01*
X77550000Y-109250001D01*
G75*
G02*
X77300001Y-109500000I-249999J0D01*
G01*
G37*
G36*
G01*
X77300001Y-112625000D02*
X75099999Y-112625000D01*
G75*
G02*
X74850000Y-112375001I0J249999D01*
G01*
X74850000Y-111549999D01*
G75*
G02*
X75099999Y-111300000I249999J0D01*
G01*
X77300001Y-111300000D01*
G75*
G02*
X77550000Y-111549999I0J-249999D01*
G01*
X77550000Y-112375001D01*
G75*
G02*
X77300001Y-112625000I-249999J0D01*
G01*
G37*
G36*
G01*
X66500000Y-113399999D02*
X66500000Y-115600001D01*
G75*
G02*
X66250001Y-115850000I-249999J0D01*
G01*
X65424999Y-115850000D01*
G75*
G02*
X65175000Y-115600001I0J249999D01*
G01*
X65175000Y-113399999D01*
G75*
G02*
X65424999Y-113150000I249999J0D01*
G01*
X66250001Y-113150000D01*
G75*
G02*
X66500000Y-113399999I0J-249999D01*
G01*
G37*
G36*
G01*
X69625000Y-113399999D02*
X69625000Y-115600001D01*
G75*
G02*
X69375001Y-115850000I-249999J0D01*
G01*
X68549999Y-115850000D01*
G75*
G02*
X68300000Y-115600001I0J249999D01*
G01*
X68300000Y-113399999D01*
G75*
G02*
X68549999Y-113150000I249999J0D01*
G01*
X69375001Y-113150000D01*
G75*
G02*
X69625000Y-113399999I0J-249999D01*
G01*
G37*
G36*
G01*
X66500000Y-110099999D02*
X66500000Y-112300001D01*
G75*
G02*
X66250001Y-112550000I-249999J0D01*
G01*
X65424999Y-112550000D01*
G75*
G02*
X65175000Y-112300001I0J249999D01*
G01*
X65175000Y-110099999D01*
G75*
G02*
X65424999Y-109850000I249999J0D01*
G01*
X66250001Y-109850000D01*
G75*
G02*
X66500000Y-110099999I0J-249999D01*
G01*
G37*
G36*
G01*
X69625000Y-110099999D02*
X69625000Y-112300001D01*
G75*
G02*
X69375001Y-112550000I-249999J0D01*
G01*
X68549999Y-112550000D01*
G75*
G02*
X68300000Y-112300001I0J249999D01*
G01*
X68300000Y-110099999D01*
G75*
G02*
X68549999Y-109850000I249999J0D01*
G01*
X69375001Y-109850000D01*
G75*
G02*
X69625000Y-110099999I0J-249999D01*
G01*
G37*
G36*
G01*
X82800000Y-122699999D02*
X82800000Y-124900001D01*
G75*
G02*
X82550001Y-125150000I-249999J0D01*
G01*
X81724999Y-125150000D01*
G75*
G02*
X81475000Y-124900001I0J249999D01*
G01*
X81475000Y-122699999D01*
G75*
G02*
X81724999Y-122450000I249999J0D01*
G01*
X82550001Y-122450000D01*
G75*
G02*
X82800000Y-122699999I0J-249999D01*
G01*
G37*
G36*
G01*
X85925000Y-122699999D02*
X85925000Y-124900001D01*
G75*
G02*
X85675001Y-125150000I-249999J0D01*
G01*
X84849999Y-125150000D01*
G75*
G02*
X84600000Y-124900001I0J249999D01*
G01*
X84600000Y-122699999D01*
G75*
G02*
X84849999Y-122450000I249999J0D01*
G01*
X85675001Y-122450000D01*
G75*
G02*
X85925000Y-122699999I0J-249999D01*
G01*
G37*
G36*
G01*
X86725000Y-121050000D02*
X87675000Y-121050000D01*
G75*
G02*
X87925000Y-121300000I0J-250000D01*
G01*
X87925000Y-121975000D01*
G75*
G02*
X87675000Y-122225000I-250000J0D01*
G01*
X86725000Y-122225000D01*
G75*
G02*
X86475000Y-121975000I0J250000D01*
G01*
X86475000Y-121300000D01*
G75*
G02*
X86725000Y-121050000I250000J0D01*
G01*
G37*
G36*
G01*
X86725000Y-118975000D02*
X87675000Y-118975000D01*
G75*
G02*
X87925000Y-119225000I0J-250000D01*
G01*
X87925000Y-119900000D01*
G75*
G02*
X87675000Y-120150000I-250000J0D01*
G01*
X86725000Y-120150000D01*
G75*
G02*
X86475000Y-119900000I0J250000D01*
G01*
X86475000Y-119225000D01*
G75*
G02*
X86725000Y-118975000I250000J0D01*
G01*
G37*
G36*
G01*
X82250000Y-104725000D02*
X82250000Y-105675000D01*
G75*
G02*
X82000000Y-105925000I-250000J0D01*
G01*
X81325000Y-105925000D01*
G75*
G02*
X81075000Y-105675000I0J250000D01*
G01*
X81075000Y-104725000D01*
G75*
G02*
X81325000Y-104475000I250000J0D01*
G01*
X82000000Y-104475000D01*
G75*
G02*
X82250000Y-104725000I0J-250000D01*
G01*
G37*
G36*
G01*
X84325000Y-104725000D02*
X84325000Y-105675000D01*
G75*
G02*
X84075000Y-105925000I-250000J0D01*
G01*
X83400000Y-105925000D01*
G75*
G02*
X83150000Y-105675000I0J250000D01*
G01*
X83150000Y-104725000D01*
G75*
G02*
X83400000Y-104475000I250000J0D01*
G01*
X84075000Y-104475000D01*
G75*
G02*
X84325000Y-104725000I0J-250000D01*
G01*
G37*
G36*
G01*
X82342000Y-106749999D02*
X82342000Y-108050001D01*
G75*
G02*
X82092001Y-108300000I-249999J0D01*
G01*
X81266999Y-108300000D01*
G75*
G02*
X81017000Y-108050001I0J249999D01*
G01*
X81017000Y-106749999D01*
G75*
G02*
X81266999Y-106500000I249999J0D01*
G01*
X82092001Y-106500000D01*
G75*
G02*
X82342000Y-106749999I0J-249999D01*
G01*
G37*
G36*
G01*
X85467000Y-106749999D02*
X85467000Y-108050001D01*
G75*
G02*
X85217001Y-108300000I-249999J0D01*
G01*
X84391999Y-108300000D01*
G75*
G02*
X84142000Y-108050001I0J249999D01*
G01*
X84142000Y-106749999D01*
G75*
G02*
X84391999Y-106500000I249999J0D01*
G01*
X85217001Y-106500000D01*
G75*
G02*
X85467000Y-106749999I0J-249999D01*
G01*
G37*
G36*
G01*
X123005001Y-98152000D02*
X122104999Y-98152000D01*
G75*
G02*
X121855000Y-97902001I0J249999D01*
G01*
X121855000Y-97201999D01*
G75*
G02*
X122104999Y-96952000I249999J0D01*
G01*
X123005001Y-96952000D01*
G75*
G02*
X123255000Y-97201999I0J-249999D01*
G01*
X123255000Y-97902001D01*
G75*
G02*
X123005001Y-98152000I-249999J0D01*
G01*
G37*
G36*
G01*
X123005001Y-100152000D02*
X122104999Y-100152000D01*
G75*
G02*
X121855000Y-99902001I0J249999D01*
G01*
X121855000Y-99201999D01*
G75*
G02*
X122104999Y-98952000I249999J0D01*
G01*
X123005001Y-98952000D01*
G75*
G02*
X123255000Y-99201999I0J-249999D01*
G01*
X123255000Y-99902001D01*
G75*
G02*
X123005001Y-100152000I-249999J0D01*
G01*
G37*
G36*
G01*
X124910001Y-98152000D02*
X124009999Y-98152000D01*
G75*
G02*
X123760000Y-97902001I0J249999D01*
G01*
X123760000Y-97201999D01*
G75*
G02*
X124009999Y-96952000I249999J0D01*
G01*
X124910001Y-96952000D01*
G75*
G02*
X125160000Y-97201999I0J-249999D01*
G01*
X125160000Y-97902001D01*
G75*
G02*
X124910001Y-98152000I-249999J0D01*
G01*
G37*
G36*
G01*
X124910001Y-100152000D02*
X124009999Y-100152000D01*
G75*
G02*
X123760000Y-99902001I0J249999D01*
G01*
X123760000Y-99201999D01*
G75*
G02*
X124009999Y-98952000I249999J0D01*
G01*
X124910001Y-98952000D01*
G75*
G02*
X125160000Y-99201999I0J-249999D01*
G01*
X125160000Y-99902001D01*
G75*
G02*
X124910001Y-100152000I-249999J0D01*
G01*
G37*
M02*
