G04 #@! TF.GenerationSoftware,KiCad,Pcbnew,(5.1.8)-1*
G04 #@! TF.CreationDate,2021-07-21T13:44:46+02:00*
G04 #@! TF.ProjectId,sensactUp2,73656e73-6163-4745-9570-322e6b696361,rev?*
G04 #@! TF.SameCoordinates,Original*
G04 #@! TF.FileFunction,Legend,Bot*
G04 #@! TF.FilePolarity,Positive*
%FSLAX46Y46*%
G04 Gerber Fmt 4.6, Leading zero omitted, Abs format (unit mm)*
G04 Created by KiCad (PCBNEW (5.1.8)-1) date 2021-07-21 13:44:46*
%MOMM*%
%LPD*%
G01*
G04 APERTURE LIST*
%ADD10C,0.120000*%
%ADD11C,0.150000*%
G04 APERTURE END LIST*
D10*
X125371469Y-87194943D02*
X123333791Y-88904758D01*
X118802179Y-79365969D02*
X125371469Y-87194943D01*
X116764501Y-81075784D02*
X123333791Y-88904758D01*
X118802179Y-79365969D02*
X116764501Y-81075784D01*
X117985839Y-78393092D02*
X117130932Y-77374253D01*
X117130932Y-77374253D02*
X116112092Y-78229161D01*
X112114000Y-77664000D02*
X111514000Y-77664000D01*
X111814000Y-78264000D02*
X112114000Y-77664000D01*
X111514000Y-77664000D02*
X111814000Y-78264000D01*
X114014000Y-84164000D02*
X92114000Y-84164000D01*
X92114000Y-84164000D02*
X92114000Y-76064000D01*
X92114000Y-76064000D02*
X114014000Y-76064000D01*
X114014000Y-76064000D02*
X114014000Y-84164000D01*
X111514000Y-84164000D02*
X111514000Y-83464000D01*
X111514000Y-83464000D02*
X110314000Y-83464000D01*
X110314000Y-83464000D02*
X110314000Y-84164000D01*
X92114000Y-83464000D02*
X93914000Y-83464000D01*
X93914000Y-83464000D02*
X93914000Y-84064000D01*
X104414000Y-76864000D02*
X101914000Y-76864000D01*
X101914000Y-76864000D02*
X101914000Y-77364000D01*
X101914000Y-77364000D02*
X102514000Y-77364000D01*
X102514000Y-77364000D02*
X102514000Y-77864000D01*
X102514000Y-77864000D02*
X103714000Y-77864000D01*
X103714000Y-77864000D02*
X103714000Y-77364000D01*
X103714000Y-77364000D02*
X104414000Y-77364000D01*
X104414000Y-77364000D02*
X104414000Y-76864000D01*
X91794000Y-86005936D02*
X91794000Y-86460064D01*
X90324000Y-86005936D02*
X90324000Y-86460064D01*
X99722000Y-87476064D02*
X99722000Y-87021936D01*
X101192000Y-87476064D02*
X101192000Y-87021936D01*
X114835000Y-88365064D02*
X114835000Y-87910936D01*
X116305000Y-88365064D02*
X116305000Y-87910936D01*
X118229748Y-86387000D02*
X118752252Y-86387000D01*
X118229748Y-87857000D02*
X118752252Y-87857000D01*
X89054000Y-104367064D02*
X89054000Y-103912936D01*
X90524000Y-104367064D02*
X90524000Y-103912936D01*
X104488748Y-115210000D02*
X105911252Y-115210000D01*
X104488748Y-113390000D02*
X105911252Y-113390000D01*
X102988748Y-128110000D02*
X104411252Y-128110000D01*
X102988748Y-126290000D02*
X104411252Y-126290000D01*
X108210000Y-124900000D02*
X108210000Y-118890000D01*
X101390000Y-122650000D02*
X101390000Y-118890000D01*
X108210000Y-118890000D02*
X106950000Y-118890000D01*
X101390000Y-118890000D02*
X102650000Y-118890000D01*
X84809000Y-104367064D02*
X84809000Y-103912936D01*
X83339000Y-104367064D02*
X83339000Y-103912936D01*
X81434000Y-103912936D02*
X81434000Y-104367064D01*
X82904000Y-103912936D02*
X82904000Y-104367064D01*
X81434000Y-107688748D02*
X81434000Y-108211252D01*
X82904000Y-107688748D02*
X82904000Y-108211252D01*
X83304748Y-90959000D02*
X83827252Y-90959000D01*
X83304748Y-92429000D02*
X83827252Y-92429000D01*
X116486000Y-111259252D02*
X116486000Y-110736748D01*
X117956000Y-111259252D02*
X117956000Y-110736748D01*
X116486000Y-118845064D02*
X116486000Y-118390936D01*
X117956000Y-118845064D02*
X117956000Y-118390936D01*
X116486000Y-115035064D02*
X116486000Y-114580936D01*
X117956000Y-115035064D02*
X117956000Y-114580936D01*
X114454000Y-110243252D02*
X114454000Y-109720748D01*
X115924000Y-110243252D02*
X115924000Y-109720748D01*
X115543000Y-122039748D02*
X115543000Y-122562252D01*
X114073000Y-122039748D02*
X114073000Y-122562252D01*
X92950000Y-110350000D02*
X92950000Y-112350000D01*
X94200000Y-110350000D02*
X92950000Y-110350000D01*
X99950000Y-125300000D02*
X99950000Y-124550000D01*
X95650000Y-125300000D02*
X99950000Y-125300000D01*
X95650000Y-124550000D02*
X95650000Y-125300000D01*
X95300000Y-124550000D02*
X95650000Y-124550000D01*
X95300000Y-125050000D02*
X95300000Y-124550000D01*
X94300000Y-125300000D02*
X95300000Y-125050000D01*
X94300000Y-122300000D02*
X94300000Y-125300000D01*
X95300000Y-122550000D02*
X94300000Y-122300000D01*
X95300000Y-123050000D02*
X95300000Y-122550000D01*
X95650000Y-123050000D02*
X95300000Y-123050000D01*
X95650000Y-122300000D02*
X95650000Y-123050000D01*
X99950000Y-122300000D02*
X95650000Y-122300000D01*
X99950000Y-123050000D02*
X99950000Y-122300000D01*
X99950000Y-121800000D02*
X99950000Y-121050000D01*
X95650000Y-121800000D02*
X99950000Y-121800000D01*
X95650000Y-121050000D02*
X95650000Y-121800000D01*
X95300000Y-121050000D02*
X95650000Y-121050000D01*
X95300000Y-121550000D02*
X95300000Y-121050000D01*
X94300000Y-121800000D02*
X95300000Y-121550000D01*
X94300000Y-118800000D02*
X94300000Y-121800000D01*
X95300000Y-119050000D02*
X94300000Y-118800000D01*
X95300000Y-119550000D02*
X95300000Y-119050000D01*
X95650000Y-119550000D02*
X95300000Y-119550000D01*
X95650000Y-118800000D02*
X95650000Y-119550000D01*
X99950000Y-118800000D02*
X95650000Y-118800000D01*
X99950000Y-119550000D02*
X99950000Y-118800000D01*
X99950000Y-118300000D02*
X99950000Y-117550000D01*
X95650000Y-118300000D02*
X99950000Y-118300000D01*
X95650000Y-117550000D02*
X95650000Y-118300000D01*
X95300000Y-117550000D02*
X95650000Y-117550000D01*
X95300000Y-118050000D02*
X95300000Y-117550000D01*
X94300000Y-118300000D02*
X95300000Y-118050000D01*
X94300000Y-115300000D02*
X94300000Y-118300000D01*
X95300000Y-115550000D02*
X94300000Y-115300000D01*
X95300000Y-116050000D02*
X95300000Y-115550000D01*
X95650000Y-116050000D02*
X95300000Y-116050000D01*
X95650000Y-115300000D02*
X95650000Y-116050000D01*
X99950000Y-115300000D02*
X95650000Y-115300000D01*
X99950000Y-116050000D02*
X99950000Y-115300000D01*
X99950000Y-114800000D02*
X99950000Y-114050000D01*
X95650000Y-114800000D02*
X99950000Y-114800000D01*
X95650000Y-114050000D02*
X95650000Y-114800000D01*
X95300000Y-114050000D02*
X95650000Y-114050000D01*
X95300000Y-114550000D02*
X95300000Y-114050000D01*
X94300000Y-114800000D02*
X95300000Y-114550000D01*
X94300000Y-111800000D02*
X94300000Y-114800000D01*
X95300000Y-112050000D02*
X94300000Y-111800000D01*
X95300000Y-112550000D02*
X95300000Y-112050000D01*
X95650000Y-112550000D02*
X95300000Y-112550000D01*
X95650000Y-111800000D02*
X95650000Y-112550000D01*
X99950000Y-111800000D02*
X95650000Y-111800000D01*
X99950000Y-112550000D02*
X99950000Y-111800000D01*
X93340000Y-126360000D02*
X93340000Y-110740000D01*
X100810000Y-126360000D02*
X93340000Y-126360000D01*
X100810000Y-110740000D02*
X100810000Y-126360000D01*
X93340000Y-110740000D02*
X100810000Y-110740000D01*
X99949845Y-124549647D02*
G75*
G02*
X99950000Y-123050000I1700155J749647D01*
G01*
X99949845Y-121049647D02*
G75*
G02*
X99950000Y-119550000I1700155J749647D01*
G01*
X99949845Y-117549647D02*
G75*
G02*
X99950000Y-116050000I1700155J749647D01*
G01*
X99949845Y-114049647D02*
G75*
G02*
X99950000Y-112550000I1700155J749647D01*
G01*
X124384000Y-106455000D02*
X124384000Y-104455000D01*
X123134000Y-106455000D02*
X124384000Y-106455000D01*
X117384000Y-91505000D02*
X117384000Y-92255000D01*
X121684000Y-91505000D02*
X117384000Y-91505000D01*
X121684000Y-92255000D02*
X121684000Y-91505000D01*
X122034000Y-92255000D02*
X121684000Y-92255000D01*
X122034000Y-91755000D02*
X122034000Y-92255000D01*
X123034000Y-91505000D02*
X122034000Y-91755000D01*
X123034000Y-94505000D02*
X123034000Y-91505000D01*
X122034000Y-94255000D02*
X123034000Y-94505000D01*
X122034000Y-93755000D02*
X122034000Y-94255000D01*
X121684000Y-93755000D02*
X122034000Y-93755000D01*
X121684000Y-94505000D02*
X121684000Y-93755000D01*
X117384000Y-94505000D02*
X121684000Y-94505000D01*
X117384000Y-93755000D02*
X117384000Y-94505000D01*
X117384000Y-95005000D02*
X117384000Y-95755000D01*
X121684000Y-95005000D02*
X117384000Y-95005000D01*
X121684000Y-95755000D02*
X121684000Y-95005000D01*
X122034000Y-95755000D02*
X121684000Y-95755000D01*
X122034000Y-95255000D02*
X122034000Y-95755000D01*
X123034000Y-95005000D02*
X122034000Y-95255000D01*
X123034000Y-98005000D02*
X123034000Y-95005000D01*
X122034000Y-97755000D02*
X123034000Y-98005000D01*
X122034000Y-97255000D02*
X122034000Y-97755000D01*
X121684000Y-97255000D02*
X122034000Y-97255000D01*
X121684000Y-98005000D02*
X121684000Y-97255000D01*
X117384000Y-98005000D02*
X121684000Y-98005000D01*
X117384000Y-97255000D02*
X117384000Y-98005000D01*
X117384000Y-98505000D02*
X117384000Y-99255000D01*
X121684000Y-98505000D02*
X117384000Y-98505000D01*
X121684000Y-99255000D02*
X121684000Y-98505000D01*
X122034000Y-99255000D02*
X121684000Y-99255000D01*
X122034000Y-98755000D02*
X122034000Y-99255000D01*
X123034000Y-98505000D02*
X122034000Y-98755000D01*
X123034000Y-101505000D02*
X123034000Y-98505000D01*
X122034000Y-101255000D02*
X123034000Y-101505000D01*
X122034000Y-100755000D02*
X122034000Y-101255000D01*
X121684000Y-100755000D02*
X122034000Y-100755000D01*
X121684000Y-101505000D02*
X121684000Y-100755000D01*
X117384000Y-101505000D02*
X121684000Y-101505000D01*
X117384000Y-100755000D02*
X117384000Y-101505000D01*
X117384000Y-102005000D02*
X117384000Y-102755000D01*
X121684000Y-102005000D02*
X117384000Y-102005000D01*
X121684000Y-102755000D02*
X121684000Y-102005000D01*
X122034000Y-102755000D02*
X121684000Y-102755000D01*
X122034000Y-102255000D02*
X122034000Y-102755000D01*
X123034000Y-102005000D02*
X122034000Y-102255000D01*
X123034000Y-105005000D02*
X123034000Y-102005000D01*
X122034000Y-104755000D02*
X123034000Y-105005000D01*
X122034000Y-104255000D02*
X122034000Y-104755000D01*
X121684000Y-104255000D02*
X122034000Y-104255000D01*
X121684000Y-105005000D02*
X121684000Y-104255000D01*
X117384000Y-105005000D02*
X121684000Y-105005000D01*
X117384000Y-104255000D02*
X117384000Y-105005000D01*
X123994000Y-90445000D02*
X123994000Y-106065000D01*
X116524000Y-90445000D02*
X123994000Y-90445000D01*
X116524000Y-106065000D02*
X116524000Y-90445000D01*
X123994000Y-106065000D02*
X116524000Y-106065000D01*
X117384155Y-92255353D02*
G75*
G02*
X117384000Y-93755000I-1700155J-749647D01*
G01*
X117384155Y-95755353D02*
G75*
G02*
X117384000Y-97255000I-1700155J-749647D01*
G01*
X117384155Y-99255353D02*
G75*
G02*
X117384000Y-100755000I-1700155J-749647D01*
G01*
X117384155Y-102755353D02*
G75*
G02*
X117384000Y-104255000I-1700155J-749647D01*
G01*
D11*
X110981000Y-114130000D02*
X110981000Y-112730000D01*
X115986000Y-114130000D02*
X115986000Y-118280000D01*
X110836000Y-114130000D02*
X110836000Y-118280000D01*
X115986000Y-114130000D02*
X115841000Y-114130000D01*
X115986000Y-118280000D02*
X115841000Y-118280000D01*
X110836000Y-118280000D02*
X110981000Y-118280000D01*
X110836000Y-114130000D02*
X110981000Y-114130000D01*
D10*
X89826000Y-116789252D02*
X89826000Y-115366748D01*
X92546000Y-116789252D02*
X92546000Y-115366748D01*
X111709252Y-124735000D02*
X110286748Y-124735000D01*
X111709252Y-122915000D02*
X110286748Y-122915000D01*
D11*
X95070000Y-91325000D02*
X95070000Y-89925000D01*
X100075000Y-91325000D02*
X100075000Y-95475000D01*
X94925000Y-91325000D02*
X94925000Y-95475000D01*
X100075000Y-91325000D02*
X99930000Y-91325000D01*
X100075000Y-95475000D02*
X99930000Y-95475000D01*
X94925000Y-95475000D02*
X95070000Y-95475000D01*
X94925000Y-91325000D02*
X95070000Y-91325000D01*
X83777000Y-90187000D02*
X82377000Y-90187000D01*
X83777000Y-85182000D02*
X87927000Y-85182000D01*
X83777000Y-90332000D02*
X87927000Y-90332000D01*
X83777000Y-85182000D02*
X83777000Y-85327000D01*
X87927000Y-85182000D02*
X87927000Y-85327000D01*
X87927000Y-90332000D02*
X87927000Y-90187000D01*
X83777000Y-90332000D02*
X83777000Y-90187000D01*
D10*
X98070936Y-108612000D02*
X98525064Y-108612000D01*
X98070936Y-110082000D02*
X98525064Y-110082000D01*
X83158064Y-84555000D02*
X82703936Y-84555000D01*
X83158064Y-83085000D02*
X82703936Y-83085000D01*
X94715064Y-110082000D02*
X94260936Y-110082000D01*
X94715064Y-108612000D02*
X94260936Y-108612000D01*
X94260936Y-106707000D02*
X94715064Y-106707000D01*
X94260936Y-108177000D02*
X94715064Y-108177000D01*
X92865000Y-95927064D02*
X92865000Y-95472936D01*
X94335000Y-95927064D02*
X94335000Y-95472936D01*
X119988000Y-118390936D02*
X119988000Y-118845064D01*
X118518000Y-118390936D02*
X118518000Y-118845064D01*
X111860000Y-109754936D02*
X111860000Y-110209064D01*
X110390000Y-109754936D02*
X110390000Y-110209064D01*
X119914936Y-107342000D02*
X120369064Y-107342000D01*
X119914936Y-108812000D02*
X120369064Y-108812000D01*
X86714000Y-103912936D02*
X86714000Y-104367064D01*
X85244000Y-103912936D02*
X85244000Y-104367064D01*
X88619000Y-103912936D02*
X88619000Y-104367064D01*
X87149000Y-103912936D02*
X87149000Y-104367064D01*
X89156000Y-110165000D02*
X90616000Y-110165000D01*
X89156000Y-107005000D02*
X92316000Y-107005000D01*
X89156000Y-107005000D02*
X89156000Y-107935000D01*
X89156000Y-110165000D02*
X89156000Y-109235000D01*
X97761252Y-88935000D02*
X97238748Y-88935000D01*
X97761252Y-87465000D02*
X97238748Y-87465000D01*
X123036000Y-115181748D02*
X123036000Y-115704252D01*
X121566000Y-115181748D02*
X121566000Y-115704252D01*
X112422000Y-110243252D02*
X112422000Y-109720748D01*
X113892000Y-110243252D02*
X113892000Y-109720748D01*
X118518000Y-111259252D02*
X118518000Y-110736748D01*
X119988000Y-111259252D02*
X119988000Y-110736748D01*
X108636000Y-106724000D02*
X108636000Y-104724000D01*
X107386000Y-106724000D02*
X108636000Y-106724000D01*
X101636000Y-91774000D02*
X101636000Y-92524000D01*
X105936000Y-91774000D02*
X101636000Y-91774000D01*
X105936000Y-92524000D02*
X105936000Y-91774000D01*
X106286000Y-92524000D02*
X105936000Y-92524000D01*
X106286000Y-92024000D02*
X106286000Y-92524000D01*
X107286000Y-91774000D02*
X106286000Y-92024000D01*
X107286000Y-94774000D02*
X107286000Y-91774000D01*
X106286000Y-94524000D02*
X107286000Y-94774000D01*
X106286000Y-94024000D02*
X106286000Y-94524000D01*
X105936000Y-94024000D02*
X106286000Y-94024000D01*
X105936000Y-94774000D02*
X105936000Y-94024000D01*
X101636000Y-94774000D02*
X105936000Y-94774000D01*
X101636000Y-94024000D02*
X101636000Y-94774000D01*
X101636000Y-95274000D02*
X101636000Y-96024000D01*
X105936000Y-95274000D02*
X101636000Y-95274000D01*
X105936000Y-96024000D02*
X105936000Y-95274000D01*
X106286000Y-96024000D02*
X105936000Y-96024000D01*
X106286000Y-95524000D02*
X106286000Y-96024000D01*
X107286000Y-95274000D02*
X106286000Y-95524000D01*
X107286000Y-98274000D02*
X107286000Y-95274000D01*
X106286000Y-98024000D02*
X107286000Y-98274000D01*
X106286000Y-97524000D02*
X106286000Y-98024000D01*
X105936000Y-97524000D02*
X106286000Y-97524000D01*
X105936000Y-98274000D02*
X105936000Y-97524000D01*
X101636000Y-98274000D02*
X105936000Y-98274000D01*
X101636000Y-97524000D02*
X101636000Y-98274000D01*
X101636000Y-98774000D02*
X101636000Y-99524000D01*
X105936000Y-98774000D02*
X101636000Y-98774000D01*
X105936000Y-99524000D02*
X105936000Y-98774000D01*
X106286000Y-99524000D02*
X105936000Y-99524000D01*
X106286000Y-99024000D02*
X106286000Y-99524000D01*
X107286000Y-98774000D02*
X106286000Y-99024000D01*
X107286000Y-101774000D02*
X107286000Y-98774000D01*
X106286000Y-101524000D02*
X107286000Y-101774000D01*
X106286000Y-101024000D02*
X106286000Y-101524000D01*
X105936000Y-101024000D02*
X106286000Y-101024000D01*
X105936000Y-101774000D02*
X105936000Y-101024000D01*
X101636000Y-101774000D02*
X105936000Y-101774000D01*
X101636000Y-101024000D02*
X101636000Y-101774000D01*
X101636000Y-102274000D02*
X101636000Y-103024000D01*
X105936000Y-102274000D02*
X101636000Y-102274000D01*
X105936000Y-103024000D02*
X105936000Y-102274000D01*
X106286000Y-103024000D02*
X105936000Y-103024000D01*
X106286000Y-102524000D02*
X106286000Y-103024000D01*
X107286000Y-102274000D02*
X106286000Y-102524000D01*
X107286000Y-105274000D02*
X107286000Y-102274000D01*
X106286000Y-105024000D02*
X107286000Y-105274000D01*
X106286000Y-104524000D02*
X106286000Y-105024000D01*
X105936000Y-104524000D02*
X106286000Y-104524000D01*
X105936000Y-105274000D02*
X105936000Y-104524000D01*
X101636000Y-105274000D02*
X105936000Y-105274000D01*
X101636000Y-104524000D02*
X101636000Y-105274000D01*
X108246000Y-90714000D02*
X108246000Y-106334000D01*
X100776000Y-90714000D02*
X108246000Y-90714000D01*
X100776000Y-106334000D02*
X100776000Y-90714000D01*
X108246000Y-106334000D02*
X100776000Y-106334000D01*
X101636155Y-103024353D02*
G75*
G02*
X101636000Y-104524000I-1700155J-749647D01*
G01*
X101636155Y-99524353D02*
G75*
G02*
X101636000Y-101024000I-1700155J-749647D01*
G01*
X101636155Y-96024353D02*
G75*
G02*
X101636000Y-97524000I-1700155J-749647D01*
G01*
X101636155Y-92524353D02*
G75*
G02*
X101636000Y-94024000I-1700155J-749647D01*
G01*
D11*
X124666691Y-85004199D02*
X124452429Y-84748851D01*
X123959341Y-84976114D02*
X124265430Y-85340898D01*
X125031475Y-84698110D01*
X124725385Y-84333327D01*
X124511123Y-84077979D02*
X123316553Y-84210070D01*
X124082598Y-83567282D02*
X123745078Y-84720766D01*
X123929553Y-83384891D02*
X123562246Y-82947151D01*
X122979855Y-83808809D02*
X123745899Y-83166021D01*
X121755498Y-82349676D02*
X122122805Y-82787416D01*
X121939151Y-82568546D02*
X122705196Y-81925759D01*
X122656979Y-82090542D01*
X122645240Y-82224717D01*
X122669979Y-82328282D01*
X121143319Y-81620110D02*
X121510626Y-82057850D01*
X121326972Y-81838980D02*
X122093017Y-81196192D01*
X122044800Y-81360976D01*
X122033061Y-81495150D01*
X122057801Y-81598716D01*
X120940795Y-81230588D02*
X120873708Y-81224718D01*
X120867838Y-81291805D01*
X120934926Y-81297675D01*
X120940795Y-81230588D01*
X120867838Y-81291805D01*
X120634706Y-80865805D02*
X120567618Y-80859935D01*
X120561749Y-80927022D01*
X120628836Y-80932892D01*
X120634706Y-80865805D01*
X120561749Y-80927022D01*
X120328616Y-80501021D02*
X120261529Y-80495152D01*
X120255660Y-80562239D01*
X120322747Y-80568109D01*
X120328616Y-80501021D01*
X120255660Y-80562239D01*
X120776833Y-79627625D02*
X120348308Y-79116929D01*
X119857744Y-80088021D01*
X110330333Y-74684000D02*
X110425571Y-74636380D01*
X110568428Y-74636380D01*
X110711285Y-74684000D01*
X110806523Y-74779238D01*
X110854142Y-74874476D01*
X110901761Y-75064952D01*
X110901761Y-75207809D01*
X110854142Y-75398285D01*
X110806523Y-75493523D01*
X110711285Y-75588761D01*
X110568428Y-75636380D01*
X110473190Y-75636380D01*
X110330333Y-75588761D01*
X110282714Y-75541142D01*
X110282714Y-75207809D01*
X110473190Y-75207809D01*
X109854142Y-75636380D02*
X109854142Y-74636380D01*
X109282714Y-75636380D01*
X109282714Y-74636380D01*
X108806523Y-75636380D02*
X108806523Y-74636380D01*
X108568428Y-74636380D01*
X108425571Y-74684000D01*
X108330333Y-74779238D01*
X108282714Y-74874476D01*
X108235095Y-75064952D01*
X108235095Y-75207809D01*
X108282714Y-75398285D01*
X108330333Y-75493523D01*
X108425571Y-75588761D01*
X108568428Y-75636380D01*
X108806523Y-75636380D01*
X107044619Y-75112571D02*
X106711285Y-75112571D01*
X106568428Y-75636380D02*
X107044619Y-75636380D01*
X107044619Y-74636380D01*
X106568428Y-74636380D01*
X106235095Y-74636380D02*
X105568428Y-75636380D01*
X105568428Y-74636380D02*
X106235095Y-75636380D01*
X105330333Y-74636380D02*
X104758904Y-74636380D01*
X105044619Y-75636380D02*
X105044619Y-74636380D01*
X103901761Y-75636380D02*
X104473190Y-75636380D01*
X104187476Y-75636380D02*
X104187476Y-74636380D01*
X104282714Y-74779238D01*
X104377952Y-74874476D01*
X104473190Y-74922095D01*
X103473190Y-75541142D02*
X103425571Y-75588761D01*
X103473190Y-75636380D01*
X103520809Y-75588761D01*
X103473190Y-75541142D01*
X103473190Y-75636380D01*
X102997000Y-75541142D02*
X102949380Y-75588761D01*
X102997000Y-75636380D01*
X103044619Y-75588761D01*
X102997000Y-75541142D01*
X102997000Y-75636380D01*
X102520809Y-75541142D02*
X102473190Y-75588761D01*
X102520809Y-75636380D01*
X102568428Y-75588761D01*
X102520809Y-75541142D01*
X102520809Y-75636380D01*
X102044619Y-75112571D02*
X101711285Y-75112571D01*
X101568428Y-75636380D02*
X102044619Y-75636380D01*
X102044619Y-74636380D01*
X101568428Y-74636380D01*
X101235095Y-74636380D02*
X100568428Y-75636380D01*
X100568428Y-74636380D02*
X101235095Y-75636380D01*
X100330333Y-74636380D02*
X99758904Y-74636380D01*
X100044619Y-75636380D02*
X100044619Y-74636380D01*
X98901761Y-75636380D02*
X99473190Y-75636380D01*
X99187476Y-75636380D02*
X99187476Y-74636380D01*
X99282714Y-74779238D01*
X99377952Y-74874476D01*
X99473190Y-74922095D01*
X98044619Y-74636380D02*
X98235095Y-74636380D01*
X98330333Y-74684000D01*
X98377952Y-74731619D01*
X98473190Y-74874476D01*
X98520809Y-75064952D01*
X98520809Y-75445904D01*
X98473190Y-75541142D01*
X98425571Y-75588761D01*
X98330333Y-75636380D01*
X98139857Y-75636380D01*
X98044619Y-75588761D01*
X97997000Y-75541142D01*
X97949380Y-75445904D01*
X97949380Y-75207809D01*
X97997000Y-75112571D01*
X98044619Y-75064952D01*
X98139857Y-75017333D01*
X98330333Y-75017333D01*
X98425571Y-75064952D01*
X98473190Y-75112571D01*
X98520809Y-75207809D01*
X96235095Y-75636380D02*
X96806523Y-75636380D01*
X96520809Y-75636380D02*
X96520809Y-74636380D01*
X96616047Y-74779238D01*
X96711285Y-74874476D01*
X96806523Y-74922095D01*
X95901761Y-74636380D02*
X95663666Y-75636380D01*
X95473190Y-74922095D01*
X95282714Y-75636380D01*
X95044619Y-74636380D01*
X92828047Y-86685380D02*
X93399476Y-86685380D01*
X93113761Y-86685380D02*
X93113761Y-85685380D01*
X93209000Y-85828238D01*
X93304238Y-85923476D01*
X93399476Y-85971095D01*
X92399476Y-86685380D02*
X92399476Y-85685380D01*
X92304238Y-86304428D02*
X92018523Y-86685380D01*
X92018523Y-86018714D02*
X92399476Y-86399666D01*
X103465238Y-87701380D02*
X104036666Y-87701380D01*
X103750952Y-87701380D02*
X103750952Y-86701380D01*
X103846190Y-86844238D01*
X103941428Y-86939476D01*
X104036666Y-86987095D01*
X102846190Y-86701380D02*
X102750952Y-86701380D01*
X102655714Y-86749000D01*
X102608095Y-86796619D01*
X102560476Y-86891857D01*
X102512857Y-87082333D01*
X102512857Y-87320428D01*
X102560476Y-87510904D01*
X102608095Y-87606142D01*
X102655714Y-87653761D01*
X102750952Y-87701380D01*
X102846190Y-87701380D01*
X102941428Y-87653761D01*
X102989047Y-87606142D01*
X103036666Y-87510904D01*
X103084285Y-87320428D01*
X103084285Y-87082333D01*
X103036666Y-86891857D01*
X102989047Y-86796619D01*
X102941428Y-86749000D01*
X102846190Y-86701380D01*
X102084285Y-87701380D02*
X102084285Y-86701380D01*
X101989047Y-87320428D02*
X101703333Y-87701380D01*
X101703333Y-87034714D02*
X102084285Y-87415666D01*
X114562857Y-88590380D02*
X114562857Y-87590380D01*
X114467619Y-88209428D02*
X114181904Y-88590380D01*
X114181904Y-87923714D02*
X114562857Y-88304666D01*
X113229523Y-88590380D02*
X113800952Y-88590380D01*
X113515238Y-88590380D02*
X113515238Y-87590380D01*
X113610476Y-87733238D01*
X113705714Y-87828476D01*
X113800952Y-87876095D01*
X120022904Y-88431714D02*
X120022904Y-89098380D01*
X120451476Y-88431714D02*
X120451476Y-88955523D01*
X120403857Y-89050761D01*
X120308619Y-89098380D01*
X120165761Y-89098380D01*
X120070523Y-89050761D01*
X120022904Y-89003142D01*
X119022904Y-89098380D02*
X119594333Y-89098380D01*
X119308619Y-89098380D02*
X119308619Y-88098380D01*
X119403857Y-88241238D01*
X119499095Y-88336476D01*
X119594333Y-88384095D01*
X90384238Y-100782380D02*
X90955666Y-100782380D01*
X90669952Y-100782380D02*
X90669952Y-99782380D01*
X90765190Y-99925238D01*
X90860428Y-100020476D01*
X90955666Y-100068095D01*
X89765190Y-99782380D02*
X89669952Y-99782380D01*
X89574714Y-99830000D01*
X89527095Y-99877619D01*
X89479476Y-99972857D01*
X89431857Y-100163333D01*
X89431857Y-100401428D01*
X89479476Y-100591904D01*
X89527095Y-100687142D01*
X89574714Y-100734761D01*
X89669952Y-100782380D01*
X89765190Y-100782380D01*
X89860428Y-100734761D01*
X89908047Y-100687142D01*
X89955666Y-100591904D01*
X90003285Y-100401428D01*
X90003285Y-100163333D01*
X89955666Y-99972857D01*
X89908047Y-99877619D01*
X89860428Y-99830000D01*
X89765190Y-99782380D01*
X89003285Y-100782380D02*
X89003285Y-99782380D01*
X88908047Y-100401428D02*
X88622333Y-100782380D01*
X88622333Y-100115714D02*
X89003285Y-100496666D01*
X107068857Y-113101380D02*
X107640285Y-113101380D01*
X107354571Y-113101380D02*
X107354571Y-112101380D01*
X107449809Y-112244238D01*
X107545047Y-112339476D01*
X107640285Y-112387095D01*
X106449809Y-112101380D02*
X106354571Y-112101380D01*
X106259333Y-112149000D01*
X106211714Y-112196619D01*
X106164095Y-112291857D01*
X106116476Y-112482333D01*
X106116476Y-112720428D01*
X106164095Y-112910904D01*
X106211714Y-113006142D01*
X106259333Y-113053761D01*
X106354571Y-113101380D01*
X106449809Y-113101380D01*
X106545047Y-113053761D01*
X106592666Y-113006142D01*
X106640285Y-112910904D01*
X106687904Y-112720428D01*
X106687904Y-112482333D01*
X106640285Y-112291857D01*
X106592666Y-112196619D01*
X106545047Y-112149000D01*
X106449809Y-112101380D01*
X105259333Y-112434714D02*
X105259333Y-113101380D01*
X105687904Y-112434714D02*
X105687904Y-112958523D01*
X105640285Y-113053761D01*
X105545047Y-113101380D01*
X105402190Y-113101380D01*
X105306952Y-113053761D01*
X105259333Y-113006142D01*
X104342857Y-129484380D02*
X104914285Y-129484380D01*
X104628571Y-129484380D02*
X104628571Y-128484380D01*
X104723809Y-128627238D01*
X104819047Y-128722476D01*
X104914285Y-128770095D01*
X103723809Y-128484380D02*
X103628571Y-128484380D01*
X103533333Y-128532000D01*
X103485714Y-128579619D01*
X103438095Y-128674857D01*
X103390476Y-128865333D01*
X103390476Y-129103428D01*
X103438095Y-129293904D01*
X103485714Y-129389142D01*
X103533333Y-129436761D01*
X103628571Y-129484380D01*
X103723809Y-129484380D01*
X103819047Y-129436761D01*
X103866666Y-129389142D01*
X103914285Y-129293904D01*
X103961904Y-129103428D01*
X103961904Y-128865333D01*
X103914285Y-128674857D01*
X103866666Y-128579619D01*
X103819047Y-128532000D01*
X103723809Y-128484380D01*
X102533333Y-128817714D02*
X102533333Y-129484380D01*
X102961904Y-128817714D02*
X102961904Y-129341523D01*
X102914285Y-129436761D01*
X102819047Y-129484380D01*
X102676190Y-129484380D01*
X102580952Y-129436761D01*
X102533333Y-129389142D01*
X114958285Y-127420666D02*
X114482095Y-127420666D01*
X115053523Y-127706380D02*
X114720190Y-126706380D01*
X114386857Y-127706380D01*
X114053523Y-127706380D02*
X114053523Y-126706380D01*
X113672571Y-126706380D01*
X113577333Y-126754000D01*
X113529714Y-126801619D01*
X113482095Y-126896857D01*
X113482095Y-127039714D01*
X113529714Y-127134952D01*
X113577333Y-127182571D01*
X113672571Y-127230190D01*
X114053523Y-127230190D01*
X112529714Y-127706380D02*
X113101142Y-127706380D01*
X112815428Y-127706380D02*
X112815428Y-126706380D01*
X112910666Y-126849238D01*
X113005904Y-126944476D01*
X113101142Y-126992095D01*
X111577333Y-127706380D02*
X112148761Y-127706380D01*
X111863047Y-127706380D02*
X111863047Y-126706380D01*
X111958285Y-126849238D01*
X112053523Y-126944476D01*
X112148761Y-126992095D01*
X110624952Y-127706380D02*
X111196380Y-127706380D01*
X110910666Y-127706380D02*
X110910666Y-126706380D01*
X111005904Y-126849238D01*
X111101142Y-126944476D01*
X111196380Y-126992095D01*
X110291619Y-126706380D02*
X109624952Y-126706380D01*
X110053523Y-127706380D01*
X109244000Y-127325428D02*
X108482095Y-127325428D01*
X108101142Y-126706380D02*
X107482095Y-126706380D01*
X107815428Y-127087333D01*
X107672571Y-127087333D01*
X107577333Y-127134952D01*
X107529714Y-127182571D01*
X107482095Y-127277809D01*
X107482095Y-127515904D01*
X107529714Y-127611142D01*
X107577333Y-127658761D01*
X107672571Y-127706380D01*
X107958285Y-127706380D01*
X108053523Y-127658761D01*
X108101142Y-127611142D01*
X107148761Y-126706380D02*
X106529714Y-126706380D01*
X106863047Y-127087333D01*
X106720190Y-127087333D01*
X106624952Y-127134952D01*
X106577333Y-127182571D01*
X106529714Y-127277809D01*
X106529714Y-127515904D01*
X106577333Y-127611142D01*
X106624952Y-127658761D01*
X106720190Y-127706380D01*
X107005904Y-127706380D01*
X107101142Y-127658761D01*
X107148761Y-127611142D01*
X84669238Y-102179380D02*
X85240666Y-102179380D01*
X84954952Y-102179380D02*
X84954952Y-101179380D01*
X85050190Y-101322238D01*
X85145428Y-101417476D01*
X85240666Y-101465095D01*
X84050190Y-101179380D02*
X83954952Y-101179380D01*
X83859714Y-101227000D01*
X83812095Y-101274619D01*
X83764476Y-101369857D01*
X83716857Y-101560333D01*
X83716857Y-101798428D01*
X83764476Y-101988904D01*
X83812095Y-102084142D01*
X83859714Y-102131761D01*
X83954952Y-102179380D01*
X84050190Y-102179380D01*
X84145428Y-102131761D01*
X84193047Y-102084142D01*
X84240666Y-101988904D01*
X84288285Y-101798428D01*
X84288285Y-101560333D01*
X84240666Y-101369857D01*
X84193047Y-101274619D01*
X84145428Y-101227000D01*
X84050190Y-101179380D01*
X83288285Y-102179380D02*
X83288285Y-101179380D01*
X83193047Y-101798428D02*
X82907333Y-102179380D01*
X82907333Y-101512714D02*
X83288285Y-101893666D01*
X82938857Y-100782380D02*
X82938857Y-99782380D01*
X82843619Y-100401428D02*
X82557904Y-100782380D01*
X82557904Y-100115714D02*
X82938857Y-100496666D01*
X81605523Y-100782380D02*
X82176952Y-100782380D01*
X81891238Y-100782380D02*
X81891238Y-99782380D01*
X81986476Y-99925238D01*
X82081714Y-100020476D01*
X82176952Y-100068095D01*
X84110904Y-107735714D02*
X84110904Y-108402380D01*
X84539476Y-107735714D02*
X84539476Y-108259523D01*
X84491857Y-108354761D01*
X84396619Y-108402380D01*
X84253761Y-108402380D01*
X84158523Y-108354761D01*
X84110904Y-108307142D01*
X83110904Y-108402380D02*
X83682333Y-108402380D01*
X83396619Y-108402380D02*
X83396619Y-107402380D01*
X83491857Y-107545238D01*
X83587095Y-107640476D01*
X83682333Y-107688095D01*
X81160904Y-91479714D02*
X81160904Y-92146380D01*
X81589476Y-91479714D02*
X81589476Y-92003523D01*
X81541857Y-92098761D01*
X81446619Y-92146380D01*
X81303761Y-92146380D01*
X81208523Y-92098761D01*
X81160904Y-92051142D01*
X80160904Y-92146380D02*
X80732333Y-92146380D01*
X80446619Y-92146380D02*
X80446619Y-91146380D01*
X80541857Y-91289238D01*
X80637095Y-91384476D01*
X80732333Y-91432095D01*
X117482904Y-108497714D02*
X117482904Y-109164380D01*
X117911476Y-108497714D02*
X117911476Y-109021523D01*
X117863857Y-109116761D01*
X117768619Y-109164380D01*
X117625761Y-109164380D01*
X117530523Y-109116761D01*
X117482904Y-109069142D01*
X116482904Y-109164380D02*
X117054333Y-109164380D01*
X116768619Y-109164380D02*
X116768619Y-108164380D01*
X116863857Y-108307238D01*
X116959095Y-108402476D01*
X117054333Y-108450095D01*
X120800666Y-120959619D02*
X120753047Y-120912000D01*
X120657809Y-120864380D01*
X120419714Y-120864380D01*
X120324476Y-120912000D01*
X120276857Y-120959619D01*
X120229238Y-121054857D01*
X120229238Y-121150095D01*
X120276857Y-121292952D01*
X120848285Y-121864380D01*
X120229238Y-121864380D01*
X119848285Y-120959619D02*
X119800666Y-120912000D01*
X119705428Y-120864380D01*
X119467333Y-120864380D01*
X119372095Y-120912000D01*
X119324476Y-120959619D01*
X119276857Y-121054857D01*
X119276857Y-121150095D01*
X119324476Y-121292952D01*
X119895904Y-121864380D01*
X119276857Y-121864380D01*
X118848285Y-121864380D02*
X118848285Y-120864380D01*
X118753047Y-121483428D02*
X118467333Y-121864380D01*
X118467333Y-121197714D02*
X118848285Y-121578666D01*
X125182238Y-115260380D02*
X125753666Y-115260380D01*
X125467952Y-115260380D02*
X125467952Y-114260380D01*
X125563190Y-114403238D01*
X125658428Y-114498476D01*
X125753666Y-114546095D01*
X124563190Y-114260380D02*
X124467952Y-114260380D01*
X124372714Y-114308000D01*
X124325095Y-114355619D01*
X124277476Y-114450857D01*
X124229857Y-114641333D01*
X124229857Y-114879428D01*
X124277476Y-115069904D01*
X124325095Y-115165142D01*
X124372714Y-115212761D01*
X124467952Y-115260380D01*
X124563190Y-115260380D01*
X124658428Y-115212761D01*
X124706047Y-115165142D01*
X124753666Y-115069904D01*
X124801285Y-114879428D01*
X124801285Y-114641333D01*
X124753666Y-114450857D01*
X124706047Y-114355619D01*
X124658428Y-114308000D01*
X124563190Y-114260380D01*
X123801285Y-115260380D02*
X123801285Y-114260380D01*
X123706047Y-114879428D02*
X123420333Y-115260380D01*
X123420333Y-114593714D02*
X123801285Y-114974666D01*
X115355666Y-105608380D02*
X115927095Y-105608380D01*
X115641380Y-105608380D02*
X115641380Y-104608380D01*
X115736619Y-104751238D01*
X115831857Y-104846476D01*
X115927095Y-104894095D01*
X114498523Y-104941714D02*
X114498523Y-105608380D01*
X114927095Y-104941714D02*
X114927095Y-105465523D01*
X114879476Y-105560761D01*
X114784238Y-105608380D01*
X114641380Y-105608380D01*
X114546142Y-105560761D01*
X114498523Y-105513142D01*
X115069904Y-124499714D02*
X115069904Y-125166380D01*
X115498476Y-124499714D02*
X115498476Y-125023523D01*
X115450857Y-125118761D01*
X115355619Y-125166380D01*
X115212761Y-125166380D01*
X115117523Y-125118761D01*
X115069904Y-125071142D01*
X114069904Y-125166380D02*
X114641333Y-125166380D01*
X114355619Y-125166380D02*
X114355619Y-124166380D01*
X114450857Y-124309238D01*
X114546095Y-124404476D01*
X114641333Y-124452095D01*
X86415619Y-112705285D02*
X86368000Y-112752904D01*
X86320380Y-112848142D01*
X86320380Y-113086238D01*
X86368000Y-113181476D01*
X86415619Y-113229095D01*
X86510857Y-113276714D01*
X86606095Y-113276714D01*
X86748952Y-113229095D01*
X87320380Y-112657666D01*
X87320380Y-113276714D01*
X86653714Y-114133857D02*
X87320380Y-114133857D01*
X86272761Y-113895761D02*
X86987047Y-113657666D01*
X86987047Y-114276714D01*
X86320380Y-114514809D02*
X87320380Y-114848142D01*
X86320380Y-115181476D01*
X87225142Y-116848142D02*
X87272761Y-116800523D01*
X87320380Y-116657666D01*
X87320380Y-116562428D01*
X87272761Y-116419571D01*
X87177523Y-116324333D01*
X87082285Y-116276714D01*
X86891809Y-116229095D01*
X86748952Y-116229095D01*
X86558476Y-116276714D01*
X86463238Y-116324333D01*
X86368000Y-116419571D01*
X86320380Y-116562428D01*
X86320380Y-116657666D01*
X86368000Y-116800523D01*
X86415619Y-116848142D01*
X87320380Y-117276714D02*
X86320380Y-117276714D01*
X86796571Y-117276714D02*
X86796571Y-117848142D01*
X87320380Y-117848142D02*
X86320380Y-117848142D01*
X87225142Y-119657666D02*
X87272761Y-119610047D01*
X87320380Y-119467190D01*
X87320380Y-119371952D01*
X87272761Y-119229095D01*
X87177523Y-119133857D01*
X87082285Y-119086238D01*
X86891809Y-119038619D01*
X86748952Y-119038619D01*
X86558476Y-119086238D01*
X86463238Y-119133857D01*
X86368000Y-119229095D01*
X86320380Y-119371952D01*
X86320380Y-119467190D01*
X86368000Y-119610047D01*
X86415619Y-119657666D01*
X87320380Y-120562428D02*
X87320380Y-120086238D01*
X86320380Y-120086238D01*
X86368000Y-122181476D02*
X86320380Y-122086238D01*
X86320380Y-121943380D01*
X86368000Y-121800523D01*
X86463238Y-121705285D01*
X86558476Y-121657666D01*
X86748952Y-121610047D01*
X86891809Y-121610047D01*
X87082285Y-121657666D01*
X87177523Y-121705285D01*
X87272761Y-121800523D01*
X87320380Y-121943380D01*
X87320380Y-122038619D01*
X87272761Y-122181476D01*
X87225142Y-122229095D01*
X86891809Y-122229095D01*
X86891809Y-122038619D01*
X87320380Y-122657666D02*
X86320380Y-122657666D01*
X87320380Y-123229095D01*
X86320380Y-123229095D01*
X87320380Y-123705285D02*
X86320380Y-123705285D01*
X86320380Y-123943380D01*
X86368000Y-124086238D01*
X86463238Y-124181476D01*
X86558476Y-124229095D01*
X86748952Y-124276714D01*
X86891809Y-124276714D01*
X87082285Y-124229095D01*
X87177523Y-124181476D01*
X87272761Y-124086238D01*
X87320380Y-123943380D01*
X87320380Y-123705285D01*
X124722000Y-92226571D02*
X124674380Y-92131333D01*
X124674380Y-91988476D01*
X124722000Y-91845619D01*
X124817238Y-91750380D01*
X124912476Y-91702761D01*
X125102952Y-91655142D01*
X125245809Y-91655142D01*
X125436285Y-91702761D01*
X125531523Y-91750380D01*
X125626761Y-91845619D01*
X125674380Y-91988476D01*
X125674380Y-92083714D01*
X125626761Y-92226571D01*
X125579142Y-92274190D01*
X125245809Y-92274190D01*
X125245809Y-92083714D01*
X125674380Y-92702761D02*
X124674380Y-92702761D01*
X125674380Y-93274190D01*
X124674380Y-93274190D01*
X125674380Y-93750380D02*
X124674380Y-93750380D01*
X124674380Y-93988476D01*
X124722000Y-94131333D01*
X124817238Y-94226571D01*
X124912476Y-94274190D01*
X125102952Y-94321809D01*
X125245809Y-94321809D01*
X125436285Y-94274190D01*
X125531523Y-94226571D01*
X125626761Y-94131333D01*
X125674380Y-93988476D01*
X125674380Y-93750380D01*
X125626761Y-95464666D02*
X125674380Y-95607523D01*
X125674380Y-95845619D01*
X125626761Y-95940857D01*
X125579142Y-95988476D01*
X125483904Y-96036095D01*
X125388666Y-96036095D01*
X125293428Y-95988476D01*
X125245809Y-95940857D01*
X125198190Y-95845619D01*
X125150571Y-95655142D01*
X125102952Y-95559904D01*
X125055333Y-95512285D01*
X124960095Y-95464666D01*
X124864857Y-95464666D01*
X124769619Y-95512285D01*
X124722000Y-95559904D01*
X124674380Y-95655142D01*
X124674380Y-95893238D01*
X124722000Y-96036095D01*
X125579142Y-97036095D02*
X125626761Y-96988476D01*
X125674380Y-96845619D01*
X125674380Y-96750380D01*
X125626761Y-96607523D01*
X125531523Y-96512285D01*
X125436285Y-96464666D01*
X125245809Y-96417047D01*
X125102952Y-96417047D01*
X124912476Y-96464666D01*
X124817238Y-96512285D01*
X124722000Y-96607523D01*
X124674380Y-96750380D01*
X124674380Y-96845619D01*
X124722000Y-96988476D01*
X124769619Y-97036095D01*
X125674380Y-97940857D02*
X125674380Y-97464666D01*
X124674380Y-97464666D01*
X125626761Y-98988476D02*
X125674380Y-99131333D01*
X125674380Y-99369428D01*
X125626761Y-99464666D01*
X125579142Y-99512285D01*
X125483904Y-99559904D01*
X125388666Y-99559904D01*
X125293428Y-99512285D01*
X125245809Y-99464666D01*
X125198190Y-99369428D01*
X125150571Y-99178952D01*
X125102952Y-99083714D01*
X125055333Y-99036095D01*
X124960095Y-98988476D01*
X124864857Y-98988476D01*
X124769619Y-99036095D01*
X124722000Y-99083714D01*
X124674380Y-99178952D01*
X124674380Y-99417047D01*
X124722000Y-99559904D01*
X125674380Y-99988476D02*
X124674380Y-99988476D01*
X124674380Y-100226571D01*
X124722000Y-100369428D01*
X124817238Y-100464666D01*
X124912476Y-100512285D01*
X125102952Y-100559904D01*
X125245809Y-100559904D01*
X125436285Y-100512285D01*
X125531523Y-100464666D01*
X125626761Y-100369428D01*
X125674380Y-100226571D01*
X125674380Y-99988476D01*
X125388666Y-100940857D02*
X125388666Y-101417047D01*
X125674380Y-100845619D02*
X124674380Y-101178952D01*
X125674380Y-101512285D01*
X124674380Y-102512285D02*
X124674380Y-103131333D01*
X125055333Y-102797999D01*
X125055333Y-102940857D01*
X125102952Y-103036095D01*
X125150571Y-103083714D01*
X125245809Y-103131333D01*
X125483904Y-103131333D01*
X125579142Y-103083714D01*
X125626761Y-103036095D01*
X125674380Y-102940857D01*
X125674380Y-102655142D01*
X125626761Y-102559904D01*
X125579142Y-102512285D01*
X124674380Y-103417047D02*
X125674380Y-103750380D01*
X124674380Y-104083714D01*
X124674380Y-104321809D02*
X124674380Y-104940857D01*
X125055333Y-104607523D01*
X125055333Y-104750380D01*
X125102952Y-104845619D01*
X125150571Y-104893238D01*
X125245809Y-104940857D01*
X125483904Y-104940857D01*
X125579142Y-104893238D01*
X125626761Y-104845619D01*
X125674380Y-104750380D01*
X125674380Y-104464666D01*
X125626761Y-104369428D01*
X125579142Y-104321809D01*
X109926380Y-105926333D02*
X108926380Y-105926333D01*
X109640666Y-106259666D01*
X108926380Y-106593000D01*
X109926380Y-106593000D01*
X109926380Y-107069190D02*
X108926380Y-107069190D01*
X108926380Y-107307285D01*
X108974000Y-107450142D01*
X109069238Y-107545380D01*
X109164476Y-107593000D01*
X109354952Y-107640619D01*
X109497809Y-107640619D01*
X109688285Y-107593000D01*
X109783523Y-107545380D01*
X109878761Y-107450142D01*
X109926380Y-107307285D01*
X109926380Y-107069190D01*
X109354952Y-108212047D02*
X109307333Y-108116809D01*
X109259714Y-108069190D01*
X109164476Y-108021571D01*
X109116857Y-108021571D01*
X109021619Y-108069190D01*
X108974000Y-108116809D01*
X108926380Y-108212047D01*
X108926380Y-108402523D01*
X108974000Y-108497761D01*
X109021619Y-108545380D01*
X109116857Y-108593000D01*
X109164476Y-108593000D01*
X109259714Y-108545380D01*
X109307333Y-108497761D01*
X109354952Y-108402523D01*
X109354952Y-108212047D01*
X109402571Y-108116809D01*
X109450190Y-108069190D01*
X109545428Y-108021571D01*
X109735904Y-108021571D01*
X109831142Y-108069190D01*
X109878761Y-108116809D01*
X109926380Y-108212047D01*
X109926380Y-108402523D01*
X109878761Y-108497761D01*
X109831142Y-108545380D01*
X109735904Y-108593000D01*
X109545428Y-108593000D01*
X109450190Y-108545380D01*
X109402571Y-108497761D01*
X109354952Y-108402523D01*
X108926380Y-109212047D02*
X108926380Y-109307285D01*
X108974000Y-109402523D01*
X109021619Y-109450142D01*
X109116857Y-109497761D01*
X109307333Y-109545380D01*
X109545428Y-109545380D01*
X109735904Y-109497761D01*
X109831142Y-109450142D01*
X109878761Y-109402523D01*
X109926380Y-109307285D01*
X109926380Y-109212047D01*
X109878761Y-109116809D01*
X109831142Y-109069190D01*
X109735904Y-109021571D01*
X109545428Y-108973952D01*
X109307333Y-108973952D01*
X109116857Y-109021571D01*
X109021619Y-109069190D01*
X108974000Y-109116809D01*
X108926380Y-109212047D01*
X108926380Y-110164428D02*
X108926380Y-110259666D01*
X108974000Y-110354904D01*
X109021619Y-110402523D01*
X109116857Y-110450142D01*
X109307333Y-110497761D01*
X109545428Y-110497761D01*
X109735904Y-110450142D01*
X109831142Y-110402523D01*
X109878761Y-110354904D01*
X109926380Y-110259666D01*
X109926380Y-110164428D01*
X109878761Y-110069190D01*
X109831142Y-110021571D01*
X109735904Y-109973952D01*
X109545428Y-109926333D01*
X109307333Y-109926333D01*
X109116857Y-109973952D01*
X109021619Y-110021571D01*
X108974000Y-110069190D01*
X108926380Y-110164428D01*
X109021619Y-110878714D02*
X108974000Y-110926333D01*
X108926380Y-111021571D01*
X108926380Y-111259666D01*
X108974000Y-111354904D01*
X109021619Y-111402523D01*
X109116857Y-111450142D01*
X109212095Y-111450142D01*
X109354952Y-111402523D01*
X109926380Y-110831095D01*
X109926380Y-111450142D01*
X109640666Y-111831095D02*
X109640666Y-112307285D01*
X109926380Y-111735857D02*
X108926380Y-112069190D01*
X109926380Y-112402523D01*
X89338380Y-115435142D02*
X89338380Y-114863714D01*
X89338380Y-115149428D02*
X88338380Y-115149428D01*
X88481238Y-115054190D01*
X88576476Y-114958952D01*
X88624095Y-114863714D01*
X88338380Y-116054190D02*
X88338380Y-116149428D01*
X88386000Y-116244666D01*
X88433619Y-116292285D01*
X88528857Y-116339904D01*
X88719333Y-116387523D01*
X88957428Y-116387523D01*
X89147904Y-116339904D01*
X89243142Y-116292285D01*
X89290761Y-116244666D01*
X89338380Y-116149428D01*
X89338380Y-116054190D01*
X89290761Y-115958952D01*
X89243142Y-115911333D01*
X89147904Y-115863714D01*
X88957428Y-115816095D01*
X88719333Y-115816095D01*
X88528857Y-115863714D01*
X88433619Y-115911333D01*
X88386000Y-115958952D01*
X88338380Y-116054190D01*
X88671714Y-117244666D02*
X89338380Y-117244666D01*
X88671714Y-116816095D02*
X89195523Y-116816095D01*
X89290761Y-116863714D01*
X89338380Y-116958952D01*
X89338380Y-117101809D01*
X89290761Y-117197047D01*
X89243142Y-117244666D01*
X111640857Y-126127380D02*
X112212285Y-126127380D01*
X111926571Y-126127380D02*
X111926571Y-125127380D01*
X112021809Y-125270238D01*
X112117047Y-125365476D01*
X112212285Y-125413095D01*
X111021809Y-125127380D02*
X110926571Y-125127380D01*
X110831333Y-125175000D01*
X110783714Y-125222619D01*
X110736095Y-125317857D01*
X110688476Y-125508333D01*
X110688476Y-125746428D01*
X110736095Y-125936904D01*
X110783714Y-126032142D01*
X110831333Y-126079761D01*
X110926571Y-126127380D01*
X111021809Y-126127380D01*
X111117047Y-126079761D01*
X111164666Y-126032142D01*
X111212285Y-125936904D01*
X111259904Y-125746428D01*
X111259904Y-125508333D01*
X111212285Y-125317857D01*
X111164666Y-125222619D01*
X111117047Y-125175000D01*
X111021809Y-125127380D01*
X109831333Y-125460714D02*
X109831333Y-126127380D01*
X110259904Y-125460714D02*
X110259904Y-125984523D01*
X110212285Y-126079761D01*
X110117047Y-126127380D01*
X109974190Y-126127380D01*
X109878952Y-126079761D01*
X109831333Y-126032142D01*
X97860857Y-98829761D02*
X97718000Y-98877380D01*
X97479904Y-98877380D01*
X97384666Y-98829761D01*
X97337047Y-98782142D01*
X97289428Y-98686904D01*
X97289428Y-98591666D01*
X97337047Y-98496428D01*
X97384666Y-98448809D01*
X97479904Y-98401190D01*
X97670380Y-98353571D01*
X97765619Y-98305952D01*
X97813238Y-98258333D01*
X97860857Y-98163095D01*
X97860857Y-98067857D01*
X97813238Y-97972619D01*
X97765619Y-97925000D01*
X97670380Y-97877380D01*
X97432285Y-97877380D01*
X97289428Y-97925000D01*
X96860857Y-98877380D02*
X96860857Y-97877380D01*
X96289428Y-98877380D01*
X96289428Y-97877380D01*
X95384666Y-97877380D02*
X95575142Y-97877380D01*
X95670380Y-97925000D01*
X95718000Y-97972619D01*
X95813238Y-98115476D01*
X95860857Y-98305952D01*
X95860857Y-98686904D01*
X95813238Y-98782142D01*
X95765619Y-98829761D01*
X95670380Y-98877380D01*
X95479904Y-98877380D01*
X95384666Y-98829761D01*
X95337047Y-98782142D01*
X95289428Y-98686904D01*
X95289428Y-98448809D01*
X95337047Y-98353571D01*
X95384666Y-98305952D01*
X95479904Y-98258333D01*
X95670380Y-98258333D01*
X95765619Y-98305952D01*
X95813238Y-98353571D01*
X95860857Y-98448809D01*
X94384666Y-97877380D02*
X94860857Y-97877380D01*
X94908476Y-98353571D01*
X94860857Y-98305952D01*
X94765619Y-98258333D01*
X94527523Y-98258333D01*
X94432285Y-98305952D01*
X94384666Y-98353571D01*
X94337047Y-98448809D01*
X94337047Y-98686904D01*
X94384666Y-98782142D01*
X94432285Y-98829761D01*
X94527523Y-98877380D01*
X94765619Y-98877380D01*
X94860857Y-98829761D01*
X94908476Y-98782142D01*
X93908476Y-98877380D02*
X93908476Y-97877380D01*
X93908476Y-98353571D02*
X93337047Y-98353571D01*
X93337047Y-98877380D02*
X93337047Y-97877380D01*
X93003714Y-97877380D02*
X92670380Y-98877380D01*
X92337047Y-97877380D01*
X92003714Y-98877380D02*
X92003714Y-97877380D01*
X91765619Y-97877380D01*
X91622761Y-97925000D01*
X91527523Y-98020238D01*
X91479904Y-98115476D01*
X91432285Y-98305952D01*
X91432285Y-98448809D01*
X91479904Y-98639285D01*
X91527523Y-98734523D01*
X91622761Y-98829761D01*
X91765619Y-98877380D01*
X92003714Y-98877380D01*
X91051333Y-97972619D02*
X91003714Y-97925000D01*
X90908476Y-97877380D01*
X90670380Y-97877380D01*
X90575142Y-97925000D01*
X90527523Y-97972619D01*
X90479904Y-98067857D01*
X90479904Y-98163095D01*
X90527523Y-98305952D01*
X91098952Y-98877380D01*
X90479904Y-98877380D01*
X90146571Y-97877380D02*
X89527523Y-97877380D01*
X89860857Y-98258333D01*
X89718000Y-98258333D01*
X89622761Y-98305952D01*
X89575142Y-98353571D01*
X89527523Y-98448809D01*
X89527523Y-98686904D01*
X89575142Y-98782142D01*
X89622761Y-98829761D01*
X89718000Y-98877380D01*
X90003714Y-98877380D01*
X90098952Y-98829761D01*
X90146571Y-98782142D01*
X88908476Y-97877380D02*
X88813238Y-97877380D01*
X88718000Y-97925000D01*
X88670380Y-97972619D01*
X88622761Y-98067857D01*
X88575142Y-98258333D01*
X88575142Y-98496428D01*
X88622761Y-98686904D01*
X88670380Y-98782142D01*
X88718000Y-98829761D01*
X88813238Y-98877380D01*
X88908476Y-98877380D01*
X89003714Y-98829761D01*
X89051333Y-98782142D01*
X89098952Y-98686904D01*
X89146571Y-98496428D01*
X89146571Y-98258333D01*
X89098952Y-98067857D01*
X89051333Y-97972619D01*
X89003714Y-97925000D01*
X88908476Y-97877380D01*
X90145857Y-84526380D02*
X90145857Y-83526380D01*
X89907761Y-83526380D01*
X89764904Y-83574000D01*
X89669666Y-83669238D01*
X89622047Y-83764476D01*
X89574428Y-83954952D01*
X89574428Y-84097809D01*
X89622047Y-84288285D01*
X89669666Y-84383523D01*
X89764904Y-84478761D01*
X89907761Y-84526380D01*
X90145857Y-84526380D01*
X89193476Y-84478761D02*
X89050619Y-84526380D01*
X88812523Y-84526380D01*
X88717285Y-84478761D01*
X88669666Y-84431142D01*
X88622047Y-84335904D01*
X88622047Y-84240666D01*
X88669666Y-84145428D01*
X88717285Y-84097809D01*
X88812523Y-84050190D01*
X89003000Y-84002571D01*
X89098238Y-83954952D01*
X89145857Y-83907333D01*
X89193476Y-83812095D01*
X89193476Y-83716857D01*
X89145857Y-83621619D01*
X89098238Y-83574000D01*
X89003000Y-83526380D01*
X88764904Y-83526380D01*
X88622047Y-83574000D01*
X88241095Y-83621619D02*
X88193476Y-83574000D01*
X88098238Y-83526380D01*
X87860142Y-83526380D01*
X87764904Y-83574000D01*
X87717285Y-83621619D01*
X87669666Y-83716857D01*
X87669666Y-83812095D01*
X87717285Y-83954952D01*
X88288714Y-84526380D01*
X87669666Y-84526380D01*
X86812523Y-83859714D02*
X86812523Y-84526380D01*
X87050619Y-83478761D02*
X87288714Y-84193047D01*
X86669666Y-84193047D01*
X86145857Y-83954952D02*
X86241095Y-83907333D01*
X86288714Y-83859714D01*
X86336333Y-83764476D01*
X86336333Y-83716857D01*
X86288714Y-83621619D01*
X86241095Y-83574000D01*
X86145857Y-83526380D01*
X85955380Y-83526380D01*
X85860142Y-83574000D01*
X85812523Y-83621619D01*
X85764904Y-83716857D01*
X85764904Y-83764476D01*
X85812523Y-83859714D01*
X85860142Y-83907333D01*
X85955380Y-83954952D01*
X86145857Y-83954952D01*
X86241095Y-84002571D01*
X86288714Y-84050190D01*
X86336333Y-84145428D01*
X86336333Y-84335904D01*
X86288714Y-84431142D01*
X86241095Y-84478761D01*
X86145857Y-84526380D01*
X85955380Y-84526380D01*
X85860142Y-84478761D01*
X85812523Y-84431142D01*
X85764904Y-84335904D01*
X85764904Y-84145428D01*
X85812523Y-84050190D01*
X85860142Y-84002571D01*
X85955380Y-83954952D01*
X85383952Y-83621619D02*
X85336333Y-83574000D01*
X85241095Y-83526380D01*
X85003000Y-83526380D01*
X84907761Y-83574000D01*
X84860142Y-83621619D01*
X84812523Y-83716857D01*
X84812523Y-83812095D01*
X84860142Y-83954952D01*
X85431571Y-84526380D01*
X84812523Y-84526380D01*
X98417047Y-108149380D02*
X98988476Y-108149380D01*
X98702761Y-108149380D02*
X98702761Y-107149380D01*
X98798000Y-107292238D01*
X98893238Y-107387476D01*
X98988476Y-107435095D01*
X97988476Y-108149380D02*
X97988476Y-107149380D01*
X97893238Y-107768428D02*
X97607523Y-108149380D01*
X97607523Y-107482714D02*
X97988476Y-107863666D01*
X80383047Y-84272380D02*
X80954476Y-84272380D01*
X80668761Y-84272380D02*
X80668761Y-83272380D01*
X80764000Y-83415238D01*
X80859238Y-83510476D01*
X80954476Y-83558095D01*
X79954476Y-84272380D02*
X79954476Y-83272380D01*
X79859238Y-83891428D02*
X79573523Y-84272380D01*
X79573523Y-83605714D02*
X79954476Y-83986666D01*
X95178476Y-106370380D02*
X95749904Y-106370380D01*
X95464190Y-106370380D02*
X95464190Y-105370380D01*
X95559428Y-105513238D01*
X95654666Y-105608476D01*
X95749904Y-105656095D01*
X94559428Y-105370380D02*
X94464190Y-105370380D01*
X94368952Y-105418000D01*
X94321333Y-105465619D01*
X94273714Y-105560857D01*
X94226095Y-105751333D01*
X94226095Y-105989428D01*
X94273714Y-106179904D01*
X94321333Y-106275142D01*
X94368952Y-106322761D01*
X94464190Y-106370380D01*
X94559428Y-106370380D01*
X94654666Y-106322761D01*
X94702285Y-106275142D01*
X94749904Y-106179904D01*
X94797523Y-105989428D01*
X94797523Y-105751333D01*
X94749904Y-105560857D01*
X94702285Y-105465619D01*
X94654666Y-105418000D01*
X94559428Y-105370380D01*
X93226095Y-106370380D02*
X93559428Y-105894190D01*
X93797523Y-106370380D02*
X93797523Y-105370380D01*
X93416571Y-105370380D01*
X93321333Y-105418000D01*
X93273714Y-105465619D01*
X93226095Y-105560857D01*
X93226095Y-105703714D01*
X93273714Y-105798952D01*
X93321333Y-105846571D01*
X93416571Y-105894190D01*
X93797523Y-105894190D01*
X94607047Y-104973380D02*
X95178476Y-104973380D01*
X94892761Y-104973380D02*
X94892761Y-103973380D01*
X94988000Y-104116238D01*
X95083238Y-104211476D01*
X95178476Y-104259095D01*
X94178476Y-104973380D02*
X94178476Y-103973380D01*
X94083238Y-104592428D02*
X93797523Y-104973380D01*
X93797523Y-104306714D02*
X94178476Y-104687666D01*
X92402380Y-95104761D02*
X92402380Y-94533333D01*
X92402380Y-94819047D02*
X91402380Y-94819047D01*
X91545238Y-94723809D01*
X91640476Y-94628571D01*
X91688095Y-94533333D01*
X91402380Y-95723809D02*
X91402380Y-95819047D01*
X91450000Y-95914285D01*
X91497619Y-95961904D01*
X91592857Y-96009523D01*
X91783333Y-96057142D01*
X92021428Y-96057142D01*
X92211904Y-96009523D01*
X92307142Y-95961904D01*
X92354761Y-95914285D01*
X92402380Y-95819047D01*
X92402380Y-95723809D01*
X92354761Y-95628571D01*
X92307142Y-95580952D01*
X92211904Y-95533333D01*
X92021428Y-95485714D01*
X91783333Y-95485714D01*
X91592857Y-95533333D01*
X91497619Y-95580952D01*
X91450000Y-95628571D01*
X91402380Y-95723809D01*
X92402380Y-96485714D02*
X91402380Y-96485714D01*
X92021428Y-96580952D02*
X92402380Y-96866666D01*
X91735714Y-96866666D02*
X92116666Y-96485714D01*
X121022047Y-119070380D02*
X121593476Y-119070380D01*
X121307761Y-119070380D02*
X121307761Y-118070380D01*
X121403000Y-118213238D01*
X121498238Y-118308476D01*
X121593476Y-118356095D01*
X120593476Y-119070380D02*
X120593476Y-118070380D01*
X120498238Y-118689428D02*
X120212523Y-119070380D01*
X120212523Y-118403714D02*
X120593476Y-118784666D01*
X111767857Y-105735380D02*
X111767857Y-104735380D01*
X111672619Y-105354428D02*
X111386904Y-105735380D01*
X111386904Y-105068714D02*
X111767857Y-105449666D01*
X110434523Y-105735380D02*
X111005952Y-105735380D01*
X110720238Y-105735380D02*
X110720238Y-104735380D01*
X110815476Y-104878238D01*
X110910714Y-104973476D01*
X111005952Y-105021095D01*
X120784857Y-106879380D02*
X120784857Y-105879380D01*
X120689619Y-106498428D02*
X120403904Y-106879380D01*
X120403904Y-106212714D02*
X120784857Y-106593666D01*
X119451523Y-106879380D02*
X120022952Y-106879380D01*
X119737238Y-106879380D02*
X119737238Y-105879380D01*
X119832476Y-106022238D01*
X119927714Y-106117476D01*
X120022952Y-106165095D01*
X86574238Y-100782380D02*
X87145666Y-100782380D01*
X86859952Y-100782380D02*
X86859952Y-99782380D01*
X86955190Y-99925238D01*
X87050428Y-100020476D01*
X87145666Y-100068095D01*
X85955190Y-99782380D02*
X85859952Y-99782380D01*
X85764714Y-99830000D01*
X85717095Y-99877619D01*
X85669476Y-99972857D01*
X85621857Y-100163333D01*
X85621857Y-100401428D01*
X85669476Y-100591904D01*
X85717095Y-100687142D01*
X85764714Y-100734761D01*
X85859952Y-100782380D01*
X85955190Y-100782380D01*
X86050428Y-100734761D01*
X86098047Y-100687142D01*
X86145666Y-100591904D01*
X86193285Y-100401428D01*
X86193285Y-100163333D01*
X86145666Y-99972857D01*
X86098047Y-99877619D01*
X86050428Y-99830000D01*
X85955190Y-99782380D01*
X85193285Y-100782380D02*
X85193285Y-99782380D01*
X85098047Y-100401428D02*
X84812333Y-100782380D01*
X84812333Y-100115714D02*
X85193285Y-100496666D01*
X88479238Y-102179380D02*
X89050666Y-102179380D01*
X88764952Y-102179380D02*
X88764952Y-101179380D01*
X88860190Y-101322238D01*
X88955428Y-101417476D01*
X89050666Y-101465095D01*
X87860190Y-101179380D02*
X87764952Y-101179380D01*
X87669714Y-101227000D01*
X87622095Y-101274619D01*
X87574476Y-101369857D01*
X87526857Y-101560333D01*
X87526857Y-101798428D01*
X87574476Y-101988904D01*
X87622095Y-102084142D01*
X87669714Y-102131761D01*
X87764952Y-102179380D01*
X87860190Y-102179380D01*
X87955428Y-102131761D01*
X88003047Y-102084142D01*
X88050666Y-101988904D01*
X88098285Y-101798428D01*
X88098285Y-101560333D01*
X88050666Y-101369857D01*
X88003047Y-101274619D01*
X87955428Y-101227000D01*
X87860190Y-101179380D01*
X87098285Y-102179380D02*
X87098285Y-101179380D01*
X87003047Y-101798428D02*
X86717333Y-102179380D01*
X86717333Y-101512714D02*
X87098285Y-101893666D01*
X88089952Y-111291619D02*
X88185190Y-111244000D01*
X88280428Y-111148761D01*
X88423285Y-111005904D01*
X88518523Y-110958285D01*
X88613761Y-110958285D01*
X88566142Y-111196380D02*
X88661380Y-111148761D01*
X88756619Y-111053523D01*
X88804238Y-110863047D01*
X88804238Y-110529714D01*
X88756619Y-110339238D01*
X88661380Y-110244000D01*
X88566142Y-110196380D01*
X88375666Y-110196380D01*
X88280428Y-110244000D01*
X88185190Y-110339238D01*
X88137571Y-110529714D01*
X88137571Y-110863047D01*
X88185190Y-111053523D01*
X88280428Y-111148761D01*
X88375666Y-111196380D01*
X88566142Y-111196380D01*
X87947095Y-111291619D02*
X87185190Y-111291619D01*
X86947095Y-111196380D02*
X86947095Y-110196380D01*
X86375666Y-111196380D01*
X86375666Y-110196380D01*
X85899476Y-111196380D02*
X85899476Y-110196380D01*
X85518523Y-110196380D01*
X85423285Y-110244000D01*
X85375666Y-110291619D01*
X85328047Y-110386857D01*
X85328047Y-110529714D01*
X85375666Y-110624952D01*
X85423285Y-110672571D01*
X85518523Y-110720190D01*
X85899476Y-110720190D01*
X84899476Y-111196380D02*
X84899476Y-110196380D01*
X84328047Y-111196380D01*
X84328047Y-110196380D01*
X84089952Y-111291619D02*
X83328047Y-111291619D01*
X82756619Y-110672571D02*
X82613761Y-110720190D01*
X82566142Y-110767809D01*
X82518523Y-110863047D01*
X82518523Y-111005904D01*
X82566142Y-111101142D01*
X82613761Y-111148761D01*
X82709000Y-111196380D01*
X83089952Y-111196380D01*
X83089952Y-110196380D01*
X82756619Y-110196380D01*
X82661380Y-110244000D01*
X82613761Y-110291619D01*
X82566142Y-110386857D01*
X82566142Y-110482095D01*
X82613761Y-110577333D01*
X82661380Y-110624952D01*
X82756619Y-110672571D01*
X83089952Y-110672571D01*
X82089952Y-110672571D02*
X81756619Y-110672571D01*
X81613761Y-111196380D02*
X82089952Y-111196380D01*
X82089952Y-110196380D01*
X81613761Y-110196380D01*
X80613761Y-111101142D02*
X80661380Y-111148761D01*
X80804238Y-111196380D01*
X80899476Y-111196380D01*
X81042333Y-111148761D01*
X81137571Y-111053523D01*
X81185190Y-110958285D01*
X81232809Y-110767809D01*
X81232809Y-110624952D01*
X81185190Y-110434476D01*
X81137571Y-110339238D01*
X81042333Y-110244000D01*
X80899476Y-110196380D01*
X80804238Y-110196380D01*
X80661380Y-110244000D01*
X80613761Y-110291619D01*
X97797904Y-86399714D02*
X97797904Y-87066380D01*
X98226476Y-86399714D02*
X98226476Y-86923523D01*
X98178857Y-87018761D01*
X98083619Y-87066380D01*
X97940761Y-87066380D01*
X97845523Y-87018761D01*
X97797904Y-86971142D01*
X96797904Y-87066380D02*
X97369333Y-87066380D01*
X97083619Y-87066380D02*
X97083619Y-86066380D01*
X97178857Y-86209238D01*
X97274095Y-86304476D01*
X97369333Y-86352095D01*
X127515904Y-115228714D02*
X127515904Y-115895380D01*
X127944476Y-115228714D02*
X127944476Y-115752523D01*
X127896857Y-115847761D01*
X127801619Y-115895380D01*
X127658761Y-115895380D01*
X127563523Y-115847761D01*
X127515904Y-115800142D01*
X126515904Y-115895380D02*
X127087333Y-115895380D01*
X126801619Y-115895380D02*
X126801619Y-114895380D01*
X126896857Y-115038238D01*
X126992095Y-115133476D01*
X127087333Y-115181095D01*
X113418904Y-104941714D02*
X113418904Y-105608380D01*
X113847476Y-104941714D02*
X113847476Y-105465523D01*
X113799857Y-105560761D01*
X113704619Y-105608380D01*
X113561761Y-105608380D01*
X113466523Y-105560761D01*
X113418904Y-105513142D01*
X112418904Y-105608380D02*
X112990333Y-105608380D01*
X112704619Y-105608380D02*
X112704619Y-104608380D01*
X112799857Y-104751238D01*
X112895095Y-104846476D01*
X112990333Y-104894095D01*
X121165904Y-110783714D02*
X121165904Y-111450380D01*
X121594476Y-110783714D02*
X121594476Y-111307523D01*
X121546857Y-111402761D01*
X121451619Y-111450380D01*
X121308761Y-111450380D01*
X121213523Y-111402761D01*
X121165904Y-111355142D01*
X120165904Y-111450380D02*
X120737333Y-111450380D01*
X120451619Y-111450380D02*
X120451619Y-110450380D01*
X120546857Y-110593238D01*
X120642095Y-110688476D01*
X120737333Y-110736095D01*
X108720000Y-93309714D02*
X108672380Y-93214476D01*
X108672380Y-93071619D01*
X108720000Y-92928761D01*
X108815238Y-92833523D01*
X108910476Y-92785904D01*
X109100952Y-92738285D01*
X109243809Y-92738285D01*
X109434285Y-92785904D01*
X109529523Y-92833523D01*
X109624761Y-92928761D01*
X109672380Y-93071619D01*
X109672380Y-93166857D01*
X109624761Y-93309714D01*
X109577142Y-93357333D01*
X109243809Y-93357333D01*
X109243809Y-93166857D01*
X109672380Y-93785904D02*
X108672380Y-93785904D01*
X109672380Y-94357333D01*
X108672380Y-94357333D01*
X109672380Y-94833523D02*
X108672380Y-94833523D01*
X108672380Y-95071619D01*
X108720000Y-95214476D01*
X108815238Y-95309714D01*
X108910476Y-95357333D01*
X109100952Y-95404952D01*
X109243809Y-95404952D01*
X109434285Y-95357333D01*
X109529523Y-95309714D01*
X109624761Y-95214476D01*
X109672380Y-95071619D01*
X109672380Y-94833523D01*
X109577142Y-97166857D02*
X109624761Y-97119238D01*
X109672380Y-96976380D01*
X109672380Y-96881142D01*
X109624761Y-96738285D01*
X109529523Y-96643047D01*
X109434285Y-96595428D01*
X109243809Y-96547809D01*
X109100952Y-96547809D01*
X108910476Y-96595428D01*
X108815238Y-96643047D01*
X108720000Y-96738285D01*
X108672380Y-96881142D01*
X108672380Y-96976380D01*
X108720000Y-97119238D01*
X108767619Y-97166857D01*
X109672380Y-98071619D02*
X109672380Y-97595428D01*
X108672380Y-97595428D01*
X109577142Y-99738285D02*
X109624761Y-99690666D01*
X109672380Y-99547809D01*
X109672380Y-99452571D01*
X109624761Y-99309714D01*
X109529523Y-99214476D01*
X109434285Y-99166857D01*
X109243809Y-99119238D01*
X109100952Y-99119238D01*
X108910476Y-99166857D01*
X108815238Y-99214476D01*
X108720000Y-99309714D01*
X108672380Y-99452571D01*
X108672380Y-99547809D01*
X108720000Y-99690666D01*
X108767619Y-99738285D01*
X109672380Y-100166857D02*
X108672380Y-100166857D01*
X109148571Y-100166857D02*
X109148571Y-100738285D01*
X109672380Y-100738285D02*
X108672380Y-100738285D01*
X108767619Y-101928761D02*
X108720000Y-101976380D01*
X108672380Y-102071619D01*
X108672380Y-102309714D01*
X108720000Y-102404952D01*
X108767619Y-102452571D01*
X108862857Y-102500190D01*
X108958095Y-102500190D01*
X109100952Y-102452571D01*
X109672380Y-101881142D01*
X109672380Y-102500190D01*
X109005714Y-103357333D02*
X109672380Y-103357333D01*
X108624761Y-103119238D02*
X109339047Y-102881142D01*
X109339047Y-103500190D01*
X108672380Y-103738285D02*
X109672380Y-104071619D01*
X108672380Y-104404952D01*
M02*
