M48
; DRILL file {KiCad (5.1.8)-1} date 07/21/21 13:44:48
; FORMAT={-:-/ absolute / metric / decimal}
; #@! TF.CreationDate,2021-07-21T13:44:48+02:00
; #@! TF.GenerationSoftware,Kicad,Pcbnew,(5.1.8)-1
FMAT,2
METRIC
T1C0.300
T2C0.650
T3C0.900
T4C1.000
T5C1.100
T6C1.200
T7C1.500
T8C2.000
T9C3.000
T10C0.900
T11C1.000
%
G90
G05
T1
X82.852Y-87.122
X83.439Y-85.852
X83.82Y-105.283
X83.947Y-82.55
X84.7Y-102.607
X85.598Y-80.772
X85.979Y-102.505
X86.0Y-83.7
X87.249Y-83.9
X87.249Y-102.616
X88.519Y-85.852
X88.754Y-102.07
X89.802Y-109.388
X90.424Y-117.094
X90.424Y-117.983
X91.0Y-109.5
X91.186Y-114.515
X92.329Y-109.474
X92.708Y-111.0
X92.925Y-117.64
X95.2Y-109.3
X95.504Y-107.442
X95.631Y-92.202
X95.885Y-105.283
X96.139Y-83.693
X96.393Y-110.998
X97.3Y-83.7
X98.044Y-91.999
X98.679Y-85.852
X98.806Y-106.68
X101.727Y-112.649
X102.137Y-127.2
X102.616Y-87.249
X106.172Y-97.663
X108.204Y-98.679
X108.204Y-99.695
X108.204Y-100.838
X108.204Y-101.981
X108.412Y-104.567
X108.712Y-91.821
X109.093Y-105.055
X109.173Y-106.289
X109.901Y-105.362
X110.617Y-110.998
X111.506Y-119.205
X117.087Y-109.989
X117.221Y-119.618
X118.872Y-110.617
X119.253Y-117.618
T2
X110.744Y-102.616
X110.744Y-103.886
X112.014Y-102.616
X112.014Y-103.886
X113.284Y-102.616
X113.284Y-103.886
T3
X114.5Y-77.216
X114.5Y-78.486
X114.5Y-79.756
X114.5Y-81.026
X104.14Y-108.458
X104.14Y-109.728
X104.14Y-110.998
X104.14Y-112.268
T4
X85.263Y-126.425
X123.317Y-109.855
X123.317Y-112.395
X112.0Y-107.0
X112.0Y-121.5
X114.5Y-107.0
X117.0Y-107.0
X117.0Y-121.5
X116.967Y-79.248
X118.6Y-81.194
X120.232Y-83.14
X121.865Y-85.085
X123.498Y-87.031
T5
X111.25Y-84.75
X111.25Y-89.25
X117.75Y-84.75
X117.75Y-89.25
T6
X103.886Y-93.274
X103.886Y-96.774
X103.886Y-100.274
X103.886Y-103.774
X119.634Y-93.005
X119.634Y-96.505
X119.634Y-100.005
X119.634Y-103.505
X94.314Y-80.264
X96.814Y-80.264
X99.314Y-80.264
X101.814Y-80.264
X104.314Y-80.264
X106.814Y-80.264
X109.314Y-80.264
X111.814Y-80.264
X97.7Y-113.3
X97.7Y-116.8
X97.7Y-120.3
X97.7Y-123.8
T8
X91.0Y-121.2
T9
X89.669Y-94.616
T10
X114.427Y-94.131
X114.427Y-97.131
T11
X87.041Y-106.7
X97.041Y-106.7
T7
X108.9Y-113.85G85X108.9Y-115.15
G05
X120.1Y-113.85G85X120.1Y-115.15
G05
T0
M30
