G04 #@! TF.GenerationSoftware,KiCad,Pcbnew,(5.1.8)-1*
G04 #@! TF.CreationDate,2021-07-21T13:44:46+02:00*
G04 #@! TF.ProjectId,sensactUp2,73656e73-6163-4745-9570-322e6b696361,rev?*
G04 #@! TF.SameCoordinates,Original*
G04 #@! TF.FileFunction,Paste,Bot*
G04 #@! TF.FilePolarity,Positive*
%FSLAX46Y46*%
G04 Gerber Fmt 4.6, Leading zero omitted, Abs format (unit mm)*
G04 Created by KiCad (PCBNEW (5.1.8)-1) date 2021-07-21 13:44:46*
%MOMM*%
%LPD*%
G01*
G04 APERTURE LIST*
%ADD10R,1.500000X3.000000*%
%ADD11R,3.800000X3.000000*%
%ADD12R,0.600000X2.200000*%
%ADD13R,2.200000X0.600000*%
%ADD14R,1.900000X0.800000*%
G04 APERTURE END LIST*
G36*
G01*
X90608999Y-86633000D02*
X91509001Y-86633000D01*
G75*
G02*
X91759000Y-86882999I0J-249999D01*
G01*
X91759000Y-87583001D01*
G75*
G02*
X91509001Y-87833000I-249999J0D01*
G01*
X90608999Y-87833000D01*
G75*
G02*
X90359000Y-87583001I0J249999D01*
G01*
X90359000Y-86882999D01*
G75*
G02*
X90608999Y-86633000I249999J0D01*
G01*
G37*
G36*
G01*
X90608999Y-84633000D02*
X91509001Y-84633000D01*
G75*
G02*
X91759000Y-84882999I0J-249999D01*
G01*
X91759000Y-85583001D01*
G75*
G02*
X91509001Y-85833000I-249999J0D01*
G01*
X90608999Y-85833000D01*
G75*
G02*
X90359000Y-85583001I0J249999D01*
G01*
X90359000Y-84882999D01*
G75*
G02*
X90608999Y-84633000I249999J0D01*
G01*
G37*
G36*
G01*
X100907001Y-86849000D02*
X100006999Y-86849000D01*
G75*
G02*
X99757000Y-86599001I0J249999D01*
G01*
X99757000Y-85898999D01*
G75*
G02*
X100006999Y-85649000I249999J0D01*
G01*
X100907001Y-85649000D01*
G75*
G02*
X101157000Y-85898999I0J-249999D01*
G01*
X101157000Y-86599001D01*
G75*
G02*
X100907001Y-86849000I-249999J0D01*
G01*
G37*
G36*
G01*
X100907001Y-88849000D02*
X100006999Y-88849000D01*
G75*
G02*
X99757000Y-88599001I0J249999D01*
G01*
X99757000Y-87898999D01*
G75*
G02*
X100006999Y-87649000I249999J0D01*
G01*
X100907001Y-87649000D01*
G75*
G02*
X101157000Y-87898999I0J-249999D01*
G01*
X101157000Y-88599001D01*
G75*
G02*
X100907001Y-88849000I-249999J0D01*
G01*
G37*
G36*
G01*
X116020001Y-87738000D02*
X115119999Y-87738000D01*
G75*
G02*
X114870000Y-87488001I0J249999D01*
G01*
X114870000Y-86787999D01*
G75*
G02*
X115119999Y-86538000I249999J0D01*
G01*
X116020001Y-86538000D01*
G75*
G02*
X116270000Y-86787999I0J-249999D01*
G01*
X116270000Y-87488001D01*
G75*
G02*
X116020001Y-87738000I-249999J0D01*
G01*
G37*
G36*
G01*
X116020001Y-89738000D02*
X115119999Y-89738000D01*
G75*
G02*
X114870000Y-89488001I0J249999D01*
G01*
X114870000Y-88787999D01*
G75*
G02*
X115119999Y-88538000I249999J0D01*
G01*
X116020001Y-88538000D01*
G75*
G02*
X116270000Y-88787999I0J-249999D01*
G01*
X116270000Y-89488001D01*
G75*
G02*
X116020001Y-89738000I-249999J0D01*
G01*
G37*
G36*
G01*
X118941000Y-87597000D02*
X118941000Y-86647000D01*
G75*
G02*
X119191000Y-86397000I250000J0D01*
G01*
X119866000Y-86397000D01*
G75*
G02*
X120116000Y-86647000I0J-250000D01*
G01*
X120116000Y-87597000D01*
G75*
G02*
X119866000Y-87847000I-250000J0D01*
G01*
X119191000Y-87847000D01*
G75*
G02*
X118941000Y-87597000I0J250000D01*
G01*
G37*
G36*
G01*
X116866000Y-87597000D02*
X116866000Y-86647000D01*
G75*
G02*
X117116000Y-86397000I250000J0D01*
G01*
X117791000Y-86397000D01*
G75*
G02*
X118041000Y-86647000I0J-250000D01*
G01*
X118041000Y-87597000D01*
G75*
G02*
X117791000Y-87847000I-250000J0D01*
G01*
X117116000Y-87847000D01*
G75*
G02*
X116866000Y-87597000I0J250000D01*
G01*
G37*
G36*
G01*
X90239001Y-103740000D02*
X89338999Y-103740000D01*
G75*
G02*
X89089000Y-103490001I0J249999D01*
G01*
X89089000Y-102789999D01*
G75*
G02*
X89338999Y-102540000I249999J0D01*
G01*
X90239001Y-102540000D01*
G75*
G02*
X90489000Y-102789999I0J-249999D01*
G01*
X90489000Y-103490001D01*
G75*
G02*
X90239001Y-103740000I-249999J0D01*
G01*
G37*
G36*
G01*
X90239001Y-105740000D02*
X89338999Y-105740000D01*
G75*
G02*
X89089000Y-105490001I0J249999D01*
G01*
X89089000Y-104789999D01*
G75*
G02*
X89338999Y-104540000I249999J0D01*
G01*
X90239001Y-104540000D01*
G75*
G02*
X90489000Y-104789999I0J-249999D01*
G01*
X90489000Y-105490001D01*
G75*
G02*
X90239001Y-105740000I-249999J0D01*
G01*
G37*
G36*
G01*
X106100000Y-114950001D02*
X106100000Y-113649999D01*
G75*
G02*
X106349999Y-113400000I249999J0D01*
G01*
X107175001Y-113400000D01*
G75*
G02*
X107425000Y-113649999I0J-249999D01*
G01*
X107425000Y-114950001D01*
G75*
G02*
X107175001Y-115200000I-249999J0D01*
G01*
X106349999Y-115200000D01*
G75*
G02*
X106100000Y-114950001I0J249999D01*
G01*
G37*
G36*
G01*
X102975000Y-114950001D02*
X102975000Y-113649999D01*
G75*
G02*
X103224999Y-113400000I249999J0D01*
G01*
X104050001Y-113400000D01*
G75*
G02*
X104300000Y-113649999I0J-249999D01*
G01*
X104300000Y-114950001D01*
G75*
G02*
X104050001Y-115200000I-249999J0D01*
G01*
X103224999Y-115200000D01*
G75*
G02*
X102975000Y-114950001I0J249999D01*
G01*
G37*
G36*
G01*
X104600000Y-127850001D02*
X104600000Y-126549999D01*
G75*
G02*
X104849999Y-126300000I249999J0D01*
G01*
X105675001Y-126300000D01*
G75*
G02*
X105925000Y-126549999I0J-249999D01*
G01*
X105925000Y-127850001D01*
G75*
G02*
X105675001Y-128100000I-249999J0D01*
G01*
X104849999Y-128100000D01*
G75*
G02*
X104600000Y-127850001I0J249999D01*
G01*
G37*
G36*
G01*
X101475000Y-127850001D02*
X101475000Y-126549999D01*
G75*
G02*
X101724999Y-126300000I249999J0D01*
G01*
X102550001Y-126300000D01*
G75*
G02*
X102800000Y-126549999I0J-249999D01*
G01*
X102800000Y-127850001D01*
G75*
G02*
X102550001Y-128100000I-249999J0D01*
G01*
X101724999Y-128100000D01*
G75*
G02*
X101475000Y-127850001I0J249999D01*
G01*
G37*
D10*
X107100000Y-124450000D03*
X102500000Y-124450000D03*
X104800000Y-124450000D03*
D11*
X104800000Y-117150000D03*
G36*
G01*
X84524001Y-103740000D02*
X83623999Y-103740000D01*
G75*
G02*
X83374000Y-103490001I0J249999D01*
G01*
X83374000Y-102789999D01*
G75*
G02*
X83623999Y-102540000I249999J0D01*
G01*
X84524001Y-102540000D01*
G75*
G02*
X84774000Y-102789999I0J-249999D01*
G01*
X84774000Y-103490001D01*
G75*
G02*
X84524001Y-103740000I-249999J0D01*
G01*
G37*
G36*
G01*
X84524001Y-105740000D02*
X83623999Y-105740000D01*
G75*
G02*
X83374000Y-105490001I0J249999D01*
G01*
X83374000Y-104789999D01*
G75*
G02*
X83623999Y-104540000I249999J0D01*
G01*
X84524001Y-104540000D01*
G75*
G02*
X84774000Y-104789999I0J-249999D01*
G01*
X84774000Y-105490001D01*
G75*
G02*
X84524001Y-105740000I-249999J0D01*
G01*
G37*
G36*
G01*
X81718999Y-104540000D02*
X82619001Y-104540000D01*
G75*
G02*
X82869000Y-104789999I0J-249999D01*
G01*
X82869000Y-105490001D01*
G75*
G02*
X82619001Y-105740000I-249999J0D01*
G01*
X81718999Y-105740000D01*
G75*
G02*
X81469000Y-105490001I0J249999D01*
G01*
X81469000Y-104789999D01*
G75*
G02*
X81718999Y-104540000I249999J0D01*
G01*
G37*
G36*
G01*
X81718999Y-102540000D02*
X82619001Y-102540000D01*
G75*
G02*
X82869000Y-102789999I0J-249999D01*
G01*
X82869000Y-103490001D01*
G75*
G02*
X82619001Y-103740000I-249999J0D01*
G01*
X81718999Y-103740000D01*
G75*
G02*
X81469000Y-103490001I0J249999D01*
G01*
X81469000Y-102789999D01*
G75*
G02*
X81718999Y-102540000I249999J0D01*
G01*
G37*
G36*
G01*
X81694000Y-108400000D02*
X82644000Y-108400000D01*
G75*
G02*
X82894000Y-108650000I0J-250000D01*
G01*
X82894000Y-109325000D01*
G75*
G02*
X82644000Y-109575000I-250000J0D01*
G01*
X81694000Y-109575000D01*
G75*
G02*
X81444000Y-109325000I0J250000D01*
G01*
X81444000Y-108650000D01*
G75*
G02*
X81694000Y-108400000I250000J0D01*
G01*
G37*
G36*
G01*
X81694000Y-106325000D02*
X82644000Y-106325000D01*
G75*
G02*
X82894000Y-106575000I0J-250000D01*
G01*
X82894000Y-107250000D01*
G75*
G02*
X82644000Y-107500000I-250000J0D01*
G01*
X81694000Y-107500000D01*
G75*
G02*
X81444000Y-107250000I0J250000D01*
G01*
X81444000Y-106575000D01*
G75*
G02*
X81694000Y-106325000I250000J0D01*
G01*
G37*
G36*
G01*
X84016000Y-92169000D02*
X84016000Y-91219000D01*
G75*
G02*
X84266000Y-90969000I250000J0D01*
G01*
X84941000Y-90969000D01*
G75*
G02*
X85191000Y-91219000I0J-250000D01*
G01*
X85191000Y-92169000D01*
G75*
G02*
X84941000Y-92419000I-250000J0D01*
G01*
X84266000Y-92419000D01*
G75*
G02*
X84016000Y-92169000I0J250000D01*
G01*
G37*
G36*
G01*
X81941000Y-92169000D02*
X81941000Y-91219000D01*
G75*
G02*
X82191000Y-90969000I250000J0D01*
G01*
X82866000Y-90969000D01*
G75*
G02*
X83116000Y-91219000I0J-250000D01*
G01*
X83116000Y-92169000D01*
G75*
G02*
X82866000Y-92419000I-250000J0D01*
G01*
X82191000Y-92419000D01*
G75*
G02*
X81941000Y-92169000I0J250000D01*
G01*
G37*
G36*
G01*
X117696000Y-110548000D02*
X116746000Y-110548000D01*
G75*
G02*
X116496000Y-110298000I0J250000D01*
G01*
X116496000Y-109623000D01*
G75*
G02*
X116746000Y-109373000I250000J0D01*
G01*
X117696000Y-109373000D01*
G75*
G02*
X117946000Y-109623000I0J-250000D01*
G01*
X117946000Y-110298000D01*
G75*
G02*
X117696000Y-110548000I-250000J0D01*
G01*
G37*
G36*
G01*
X117696000Y-112623000D02*
X116746000Y-112623000D01*
G75*
G02*
X116496000Y-112373000I0J250000D01*
G01*
X116496000Y-111698000D01*
G75*
G02*
X116746000Y-111448000I250000J0D01*
G01*
X117696000Y-111448000D01*
G75*
G02*
X117946000Y-111698000I0J-250000D01*
G01*
X117946000Y-112373000D01*
G75*
G02*
X117696000Y-112623000I-250000J0D01*
G01*
G37*
G36*
G01*
X117671001Y-118218000D02*
X116770999Y-118218000D01*
G75*
G02*
X116521000Y-117968001I0J249999D01*
G01*
X116521000Y-117267999D01*
G75*
G02*
X116770999Y-117018000I249999J0D01*
G01*
X117671001Y-117018000D01*
G75*
G02*
X117921000Y-117267999I0J-249999D01*
G01*
X117921000Y-117968001D01*
G75*
G02*
X117671001Y-118218000I-249999J0D01*
G01*
G37*
G36*
G01*
X117671001Y-120218000D02*
X116770999Y-120218000D01*
G75*
G02*
X116521000Y-119968001I0J249999D01*
G01*
X116521000Y-119267999D01*
G75*
G02*
X116770999Y-119018000I249999J0D01*
G01*
X117671001Y-119018000D01*
G75*
G02*
X117921000Y-119267999I0J-249999D01*
G01*
X117921000Y-119968001D01*
G75*
G02*
X117671001Y-120218000I-249999J0D01*
G01*
G37*
G36*
G01*
X117671001Y-114408000D02*
X116770999Y-114408000D01*
G75*
G02*
X116521000Y-114158001I0J249999D01*
G01*
X116521000Y-113457999D01*
G75*
G02*
X116770999Y-113208000I249999J0D01*
G01*
X117671001Y-113208000D01*
G75*
G02*
X117921000Y-113457999I0J-249999D01*
G01*
X117921000Y-114158001D01*
G75*
G02*
X117671001Y-114408000I-249999J0D01*
G01*
G37*
G36*
G01*
X117671001Y-116408000D02*
X116770999Y-116408000D01*
G75*
G02*
X116521000Y-116158001I0J249999D01*
G01*
X116521000Y-115457999D01*
G75*
G02*
X116770999Y-115208000I249999J0D01*
G01*
X117671001Y-115208000D01*
G75*
G02*
X117921000Y-115457999I0J-249999D01*
G01*
X117921000Y-116158001D01*
G75*
G02*
X117671001Y-116408000I-249999J0D01*
G01*
G37*
G36*
G01*
X115664000Y-109532000D02*
X114714000Y-109532000D01*
G75*
G02*
X114464000Y-109282000I0J250000D01*
G01*
X114464000Y-108607000D01*
G75*
G02*
X114714000Y-108357000I250000J0D01*
G01*
X115664000Y-108357000D01*
G75*
G02*
X115914000Y-108607000I0J-250000D01*
G01*
X115914000Y-109282000D01*
G75*
G02*
X115664000Y-109532000I-250000J0D01*
G01*
G37*
G36*
G01*
X115664000Y-111607000D02*
X114714000Y-111607000D01*
G75*
G02*
X114464000Y-111357000I0J250000D01*
G01*
X114464000Y-110682000D01*
G75*
G02*
X114714000Y-110432000I250000J0D01*
G01*
X115664000Y-110432000D01*
G75*
G02*
X115914000Y-110682000I0J-250000D01*
G01*
X115914000Y-111357000D01*
G75*
G02*
X115664000Y-111607000I-250000J0D01*
G01*
G37*
G36*
G01*
X114333000Y-122751000D02*
X115283000Y-122751000D01*
G75*
G02*
X115533000Y-123001000I0J-250000D01*
G01*
X115533000Y-123676000D01*
G75*
G02*
X115283000Y-123926000I-250000J0D01*
G01*
X114333000Y-123926000D01*
G75*
G02*
X114083000Y-123676000I0J250000D01*
G01*
X114083000Y-123001000D01*
G75*
G02*
X114333000Y-122751000I250000J0D01*
G01*
G37*
G36*
G01*
X114333000Y-120676000D02*
X115283000Y-120676000D01*
G75*
G02*
X115533000Y-120926000I0J-250000D01*
G01*
X115533000Y-121601000D01*
G75*
G02*
X115283000Y-121851000I-250000J0D01*
G01*
X114333000Y-121851000D01*
G75*
G02*
X114083000Y-121601000I0J250000D01*
G01*
X114083000Y-120926000D01*
G75*
G02*
X114333000Y-120676000I250000J0D01*
G01*
G37*
D12*
X111506000Y-119205000D03*
X112776000Y-119205000D03*
X114046000Y-119205000D03*
X115316000Y-119205000D03*
X115316000Y-113205000D03*
X114046000Y-113205000D03*
X112776000Y-113205000D03*
X111506000Y-113205000D03*
G36*
G01*
X92286001Y-115178000D02*
X90085999Y-115178000D01*
G75*
G02*
X89836000Y-114928001I0J249999D01*
G01*
X89836000Y-114102999D01*
G75*
G02*
X90085999Y-113853000I249999J0D01*
G01*
X92286001Y-113853000D01*
G75*
G02*
X92536000Y-114102999I0J-249999D01*
G01*
X92536000Y-114928001D01*
G75*
G02*
X92286001Y-115178000I-249999J0D01*
G01*
G37*
G36*
G01*
X92286001Y-118303000D02*
X90085999Y-118303000D01*
G75*
G02*
X89836000Y-118053001I0J249999D01*
G01*
X89836000Y-117227999D01*
G75*
G02*
X90085999Y-116978000I249999J0D01*
G01*
X92286001Y-116978000D01*
G75*
G02*
X92536000Y-117227999I0J-249999D01*
G01*
X92536000Y-118053001D01*
G75*
G02*
X92286001Y-118303000I-249999J0D01*
G01*
G37*
G36*
G01*
X110098000Y-123174999D02*
X110098000Y-124475001D01*
G75*
G02*
X109848001Y-124725000I-249999J0D01*
G01*
X109022999Y-124725000D01*
G75*
G02*
X108773000Y-124475001I0J249999D01*
G01*
X108773000Y-123174999D01*
G75*
G02*
X109022999Y-122925000I249999J0D01*
G01*
X109848001Y-122925000D01*
G75*
G02*
X110098000Y-123174999I0J-249999D01*
G01*
G37*
G36*
G01*
X113223000Y-123174999D02*
X113223000Y-124475001D01*
G75*
G02*
X112973001Y-124725000I-249999J0D01*
G01*
X112147999Y-124725000D01*
G75*
G02*
X111898000Y-124475001I0J249999D01*
G01*
X111898000Y-123174999D01*
G75*
G02*
X112147999Y-122925000I249999J0D01*
G01*
X112973001Y-122925000D01*
G75*
G02*
X113223000Y-123174999I0J-249999D01*
G01*
G37*
X95595000Y-96400000D03*
X96865000Y-96400000D03*
X98135000Y-96400000D03*
X99405000Y-96400000D03*
X99405000Y-90400000D03*
X98135000Y-90400000D03*
X96865000Y-90400000D03*
X95595000Y-90400000D03*
D13*
X88852000Y-89662000D03*
X88852000Y-88392000D03*
X88852000Y-87122000D03*
X88852000Y-85852000D03*
X82852000Y-85852000D03*
X82852000Y-87122000D03*
X82852000Y-88392000D03*
X82852000Y-89662000D03*
G36*
G01*
X98698000Y-109797001D02*
X98698000Y-108896999D01*
G75*
G02*
X98947999Y-108647000I249999J0D01*
G01*
X99648001Y-108647000D01*
G75*
G02*
X99898000Y-108896999I0J-249999D01*
G01*
X99898000Y-109797001D01*
G75*
G02*
X99648001Y-110047000I-249999J0D01*
G01*
X98947999Y-110047000D01*
G75*
G02*
X98698000Y-109797001I0J249999D01*
G01*
G37*
G36*
G01*
X96698000Y-109797001D02*
X96698000Y-108896999D01*
G75*
G02*
X96947999Y-108647000I249999J0D01*
G01*
X97648001Y-108647000D01*
G75*
G02*
X97898000Y-108896999I0J-249999D01*
G01*
X97898000Y-109797001D01*
G75*
G02*
X97648001Y-110047000I-249999J0D01*
G01*
X96947999Y-110047000D01*
G75*
G02*
X96698000Y-109797001I0J249999D01*
G01*
G37*
G36*
G01*
X82531000Y-83369999D02*
X82531000Y-84270001D01*
G75*
G02*
X82281001Y-84520000I-249999J0D01*
G01*
X81580999Y-84520000D01*
G75*
G02*
X81331000Y-84270001I0J249999D01*
G01*
X81331000Y-83369999D01*
G75*
G02*
X81580999Y-83120000I249999J0D01*
G01*
X82281001Y-83120000D01*
G75*
G02*
X82531000Y-83369999I0J-249999D01*
G01*
G37*
G36*
G01*
X84531000Y-83369999D02*
X84531000Y-84270001D01*
G75*
G02*
X84281001Y-84520000I-249999J0D01*
G01*
X83580999Y-84520000D01*
G75*
G02*
X83331000Y-84270001I0J249999D01*
G01*
X83331000Y-83369999D01*
G75*
G02*
X83580999Y-83120000I249999J0D01*
G01*
X84281001Y-83120000D01*
G75*
G02*
X84531000Y-83369999I0J-249999D01*
G01*
G37*
G36*
G01*
X94088000Y-108896999D02*
X94088000Y-109797001D01*
G75*
G02*
X93838001Y-110047000I-249999J0D01*
G01*
X93137999Y-110047000D01*
G75*
G02*
X92888000Y-109797001I0J249999D01*
G01*
X92888000Y-108896999D01*
G75*
G02*
X93137999Y-108647000I249999J0D01*
G01*
X93838001Y-108647000D01*
G75*
G02*
X94088000Y-108896999I0J-249999D01*
G01*
G37*
G36*
G01*
X96088000Y-108896999D02*
X96088000Y-109797001D01*
G75*
G02*
X95838001Y-110047000I-249999J0D01*
G01*
X95137999Y-110047000D01*
G75*
G02*
X94888000Y-109797001I0J249999D01*
G01*
X94888000Y-108896999D01*
G75*
G02*
X95137999Y-108647000I249999J0D01*
G01*
X95838001Y-108647000D01*
G75*
G02*
X96088000Y-108896999I0J-249999D01*
G01*
G37*
G36*
G01*
X94888000Y-107892001D02*
X94888000Y-106991999D01*
G75*
G02*
X95137999Y-106742000I249999J0D01*
G01*
X95838001Y-106742000D01*
G75*
G02*
X96088000Y-106991999I0J-249999D01*
G01*
X96088000Y-107892001D01*
G75*
G02*
X95838001Y-108142000I-249999J0D01*
G01*
X95137999Y-108142000D01*
G75*
G02*
X94888000Y-107892001I0J249999D01*
G01*
G37*
G36*
G01*
X92888000Y-107892001D02*
X92888000Y-106991999D01*
G75*
G02*
X93137999Y-106742000I249999J0D01*
G01*
X93838001Y-106742000D01*
G75*
G02*
X94088000Y-106991999I0J-249999D01*
G01*
X94088000Y-107892001D01*
G75*
G02*
X93838001Y-108142000I-249999J0D01*
G01*
X93137999Y-108142000D01*
G75*
G02*
X92888000Y-107892001I0J249999D01*
G01*
G37*
G36*
G01*
X94050001Y-95300000D02*
X93149999Y-95300000D01*
G75*
G02*
X92900000Y-95050001I0J249999D01*
G01*
X92900000Y-94349999D01*
G75*
G02*
X93149999Y-94100000I249999J0D01*
G01*
X94050001Y-94100000D01*
G75*
G02*
X94300000Y-94349999I0J-249999D01*
G01*
X94300000Y-95050001D01*
G75*
G02*
X94050001Y-95300000I-249999J0D01*
G01*
G37*
G36*
G01*
X94050001Y-97300000D02*
X93149999Y-97300000D01*
G75*
G02*
X92900000Y-97050001I0J249999D01*
G01*
X92900000Y-96349999D01*
G75*
G02*
X93149999Y-96100000I249999J0D01*
G01*
X94050001Y-96100000D01*
G75*
G02*
X94300000Y-96349999I0J-249999D01*
G01*
X94300000Y-97050001D01*
G75*
G02*
X94050001Y-97300000I-249999J0D01*
G01*
G37*
G36*
G01*
X118802999Y-119018000D02*
X119703001Y-119018000D01*
G75*
G02*
X119953000Y-119267999I0J-249999D01*
G01*
X119953000Y-119968001D01*
G75*
G02*
X119703001Y-120218000I-249999J0D01*
G01*
X118802999Y-120218000D01*
G75*
G02*
X118553000Y-119968001I0J249999D01*
G01*
X118553000Y-119267999D01*
G75*
G02*
X118802999Y-119018000I249999J0D01*
G01*
G37*
G36*
G01*
X118802999Y-117018000D02*
X119703001Y-117018000D01*
G75*
G02*
X119953000Y-117267999I0J-249999D01*
G01*
X119953000Y-117968001D01*
G75*
G02*
X119703001Y-118218000I-249999J0D01*
G01*
X118802999Y-118218000D01*
G75*
G02*
X118553000Y-117968001I0J249999D01*
G01*
X118553000Y-117267999D01*
G75*
G02*
X118802999Y-117018000I249999J0D01*
G01*
G37*
G36*
G01*
X110674999Y-110382000D02*
X111575001Y-110382000D01*
G75*
G02*
X111825000Y-110631999I0J-249999D01*
G01*
X111825000Y-111332001D01*
G75*
G02*
X111575001Y-111582000I-249999J0D01*
G01*
X110674999Y-111582000D01*
G75*
G02*
X110425000Y-111332001I0J249999D01*
G01*
X110425000Y-110631999D01*
G75*
G02*
X110674999Y-110382000I249999J0D01*
G01*
G37*
G36*
G01*
X110674999Y-108382000D02*
X111575001Y-108382000D01*
G75*
G02*
X111825000Y-108631999I0J-249999D01*
G01*
X111825000Y-109332001D01*
G75*
G02*
X111575001Y-109582000I-249999J0D01*
G01*
X110674999Y-109582000D01*
G75*
G02*
X110425000Y-109332001I0J249999D01*
G01*
X110425000Y-108631999D01*
G75*
G02*
X110674999Y-108382000I249999J0D01*
G01*
G37*
G36*
G01*
X120542000Y-108527001D02*
X120542000Y-107626999D01*
G75*
G02*
X120791999Y-107377000I249999J0D01*
G01*
X121492001Y-107377000D01*
G75*
G02*
X121742000Y-107626999I0J-249999D01*
G01*
X121742000Y-108527001D01*
G75*
G02*
X121492001Y-108777000I-249999J0D01*
G01*
X120791999Y-108777000D01*
G75*
G02*
X120542000Y-108527001I0J249999D01*
G01*
G37*
G36*
G01*
X118542000Y-108527001D02*
X118542000Y-107626999D01*
G75*
G02*
X118791999Y-107377000I249999J0D01*
G01*
X119492001Y-107377000D01*
G75*
G02*
X119742000Y-107626999I0J-249999D01*
G01*
X119742000Y-108527001D01*
G75*
G02*
X119492001Y-108777000I-249999J0D01*
G01*
X118791999Y-108777000D01*
G75*
G02*
X118542000Y-108527001I0J249999D01*
G01*
G37*
G36*
G01*
X85528999Y-104540000D02*
X86429001Y-104540000D01*
G75*
G02*
X86679000Y-104789999I0J-249999D01*
G01*
X86679000Y-105490001D01*
G75*
G02*
X86429001Y-105740000I-249999J0D01*
G01*
X85528999Y-105740000D01*
G75*
G02*
X85279000Y-105490001I0J249999D01*
G01*
X85279000Y-104789999D01*
G75*
G02*
X85528999Y-104540000I249999J0D01*
G01*
G37*
G36*
G01*
X85528999Y-102540000D02*
X86429001Y-102540000D01*
G75*
G02*
X86679000Y-102789999I0J-249999D01*
G01*
X86679000Y-103490001D01*
G75*
G02*
X86429001Y-103740000I-249999J0D01*
G01*
X85528999Y-103740000D01*
G75*
G02*
X85279000Y-103490001I0J249999D01*
G01*
X85279000Y-102789999D01*
G75*
G02*
X85528999Y-102540000I249999J0D01*
G01*
G37*
G36*
G01*
X87433999Y-104540000D02*
X88334001Y-104540000D01*
G75*
G02*
X88584000Y-104789999I0J-249999D01*
G01*
X88584000Y-105490001D01*
G75*
G02*
X88334001Y-105740000I-249999J0D01*
G01*
X87433999Y-105740000D01*
G75*
G02*
X87184000Y-105490001I0J249999D01*
G01*
X87184000Y-104789999D01*
G75*
G02*
X87433999Y-104540000I249999J0D01*
G01*
G37*
G36*
G01*
X87433999Y-102540000D02*
X88334001Y-102540000D01*
G75*
G02*
X88584000Y-102789999I0J-249999D01*
G01*
X88584000Y-103490001D01*
G75*
G02*
X88334001Y-103740000I-249999J0D01*
G01*
X87433999Y-103740000D01*
G75*
G02*
X87184000Y-103490001I0J249999D01*
G01*
X87184000Y-102789999D01*
G75*
G02*
X87433999Y-102540000I249999J0D01*
G01*
G37*
D14*
X88416000Y-108585000D03*
X91416000Y-109535000D03*
X91416000Y-107635000D03*
G36*
G01*
X97050000Y-87725000D02*
X97050000Y-88675000D01*
G75*
G02*
X96800000Y-88925000I-250000J0D01*
G01*
X96125000Y-88925000D01*
G75*
G02*
X95875000Y-88675000I0J250000D01*
G01*
X95875000Y-87725000D01*
G75*
G02*
X96125000Y-87475000I250000J0D01*
G01*
X96800000Y-87475000D01*
G75*
G02*
X97050000Y-87725000I0J-250000D01*
G01*
G37*
G36*
G01*
X99125000Y-87725000D02*
X99125000Y-88675000D01*
G75*
G02*
X98875000Y-88925000I-250000J0D01*
G01*
X98200000Y-88925000D01*
G75*
G02*
X97950000Y-88675000I0J250000D01*
G01*
X97950000Y-87725000D01*
G75*
G02*
X98200000Y-87475000I250000J0D01*
G01*
X98875000Y-87475000D01*
G75*
G02*
X99125000Y-87725000I0J-250000D01*
G01*
G37*
G36*
G01*
X121826000Y-115893000D02*
X122776000Y-115893000D01*
G75*
G02*
X123026000Y-116143000I0J-250000D01*
G01*
X123026000Y-116818000D01*
G75*
G02*
X122776000Y-117068000I-250000J0D01*
G01*
X121826000Y-117068000D01*
G75*
G02*
X121576000Y-116818000I0J250000D01*
G01*
X121576000Y-116143000D01*
G75*
G02*
X121826000Y-115893000I250000J0D01*
G01*
G37*
G36*
G01*
X121826000Y-113818000D02*
X122776000Y-113818000D01*
G75*
G02*
X123026000Y-114068000I0J-250000D01*
G01*
X123026000Y-114743000D01*
G75*
G02*
X122776000Y-114993000I-250000J0D01*
G01*
X121826000Y-114993000D01*
G75*
G02*
X121576000Y-114743000I0J250000D01*
G01*
X121576000Y-114068000D01*
G75*
G02*
X121826000Y-113818000I250000J0D01*
G01*
G37*
G36*
G01*
X113632000Y-109532000D02*
X112682000Y-109532000D01*
G75*
G02*
X112432000Y-109282000I0J250000D01*
G01*
X112432000Y-108607000D01*
G75*
G02*
X112682000Y-108357000I250000J0D01*
G01*
X113632000Y-108357000D01*
G75*
G02*
X113882000Y-108607000I0J-250000D01*
G01*
X113882000Y-109282000D01*
G75*
G02*
X113632000Y-109532000I-250000J0D01*
G01*
G37*
G36*
G01*
X113632000Y-111607000D02*
X112682000Y-111607000D01*
G75*
G02*
X112432000Y-111357000I0J250000D01*
G01*
X112432000Y-110682000D01*
G75*
G02*
X112682000Y-110432000I250000J0D01*
G01*
X113632000Y-110432000D01*
G75*
G02*
X113882000Y-110682000I0J-250000D01*
G01*
X113882000Y-111357000D01*
G75*
G02*
X113632000Y-111607000I-250000J0D01*
G01*
G37*
G36*
G01*
X119728000Y-110548000D02*
X118778000Y-110548000D01*
G75*
G02*
X118528000Y-110298000I0J250000D01*
G01*
X118528000Y-109623000D01*
G75*
G02*
X118778000Y-109373000I250000J0D01*
G01*
X119728000Y-109373000D01*
G75*
G02*
X119978000Y-109623000I0J-250000D01*
G01*
X119978000Y-110298000D01*
G75*
G02*
X119728000Y-110548000I-250000J0D01*
G01*
G37*
G36*
G01*
X119728000Y-112623000D02*
X118778000Y-112623000D01*
G75*
G02*
X118528000Y-112373000I0J250000D01*
G01*
X118528000Y-111698000D01*
G75*
G02*
X118778000Y-111448000I250000J0D01*
G01*
X119728000Y-111448000D01*
G75*
G02*
X119978000Y-111698000I0J-250000D01*
G01*
X119978000Y-112373000D01*
G75*
G02*
X119728000Y-112623000I-250000J0D01*
G01*
G37*
M02*
