G04 #@! TF.GenerationSoftware,KiCad,Pcbnew,(5.1.8)-1*
G04 #@! TF.CreationDate,2021-07-21T13:44:46+02:00*
G04 #@! TF.ProjectId,sensactUp2,73656e73-6163-4745-9570-322e6b696361,rev?*
G04 #@! TF.SameCoordinates,Original*
G04 #@! TF.FileFunction,Soldermask,Top*
G04 #@! TF.FilePolarity,Negative*
%FSLAX46Y46*%
G04 Gerber Fmt 4.6, Leading zero omitted, Abs format (unit mm)*
G04 Created by KiCad (PCBNEW (5.1.8)-1) date 2021-07-21 13:44:46*
%MOMM*%
%LPD*%
G01*
G04 APERTURE LIST*
%ADD10O,1.902000X1.172000*%
%ADD11O,1.902000X3.702000*%
%ADD12C,1.002000*%
%ADD13C,2.102000*%
%ADD14C,1.102000*%
%ADD15C,0.100000*%
%ADD16O,1.802000X1.802000*%
%ADD17O,3.702000X1.902000*%
%ADD18O,1.102000X1.102000*%
G04 APERTURE END LIST*
G36*
G01*
X85000000Y-82115000D02*
X85000000Y-82515000D01*
G75*
G02*
X84949000Y-82566000I-51000J0D01*
G01*
X82949000Y-82566000D01*
G75*
G02*
X82898000Y-82515000I0J51000D01*
G01*
X82898000Y-82115000D01*
G75*
G02*
X82949000Y-82064000I51000J0D01*
G01*
X84949000Y-82064000D01*
G75*
G02*
X85000000Y-82115000I0J-51000D01*
G01*
G37*
G36*
G01*
X85000000Y-81465000D02*
X85000000Y-81865000D01*
G75*
G02*
X84949000Y-81916000I-51000J0D01*
G01*
X82949000Y-81916000D01*
G75*
G02*
X82898000Y-81865000I0J51000D01*
G01*
X82898000Y-81465000D01*
G75*
G02*
X82949000Y-81414000I51000J0D01*
G01*
X84949000Y-81414000D01*
G75*
G02*
X85000000Y-81465000I0J-51000D01*
G01*
G37*
G36*
G01*
X85000000Y-80815000D02*
X85000000Y-81215000D01*
G75*
G02*
X84949000Y-81266000I-51000J0D01*
G01*
X82949000Y-81266000D01*
G75*
G02*
X82898000Y-81215000I0J51000D01*
G01*
X82898000Y-80815000D01*
G75*
G02*
X82949000Y-80764000I51000J0D01*
G01*
X84949000Y-80764000D01*
G75*
G02*
X85000000Y-80815000I0J-51000D01*
G01*
G37*
G36*
G01*
X85000000Y-80165000D02*
X85000000Y-80565000D01*
G75*
G02*
X84949000Y-80616000I-51000J0D01*
G01*
X82949000Y-80616000D01*
G75*
G02*
X82898000Y-80565000I0J51000D01*
G01*
X82898000Y-80165000D01*
G75*
G02*
X82949000Y-80114000I51000J0D01*
G01*
X84949000Y-80114000D01*
G75*
G02*
X85000000Y-80165000I0J-51000D01*
G01*
G37*
G36*
G01*
X85000000Y-79515000D02*
X85000000Y-79915000D01*
G75*
G02*
X84949000Y-79966000I-51000J0D01*
G01*
X82949000Y-79966000D01*
G75*
G02*
X82898000Y-79915000I0J51000D01*
G01*
X82898000Y-79515000D01*
G75*
G02*
X82949000Y-79464000I51000J0D01*
G01*
X84949000Y-79464000D01*
G75*
G02*
X85000000Y-79515000I0J-51000D01*
G01*
G37*
G36*
G01*
X85000000Y-78865000D02*
X85000000Y-79265000D01*
G75*
G02*
X84949000Y-79316000I-51000J0D01*
G01*
X82949000Y-79316000D01*
G75*
G02*
X82898000Y-79265000I0J51000D01*
G01*
X82898000Y-78865000D01*
G75*
G02*
X82949000Y-78814000I51000J0D01*
G01*
X84949000Y-78814000D01*
G75*
G02*
X85000000Y-78865000I0J-51000D01*
G01*
G37*
G36*
G01*
X85000000Y-78215000D02*
X85000000Y-78615000D01*
G75*
G02*
X84949000Y-78666000I-51000J0D01*
G01*
X82949000Y-78666000D01*
G75*
G02*
X82898000Y-78615000I0J51000D01*
G01*
X82898000Y-78215000D01*
G75*
G02*
X82949000Y-78164000I51000J0D01*
G01*
X84949000Y-78164000D01*
G75*
G02*
X85000000Y-78215000I0J-51000D01*
G01*
G37*
G36*
G01*
X85000000Y-77565000D02*
X85000000Y-77965000D01*
G75*
G02*
X84949000Y-78016000I-51000J0D01*
G01*
X82949000Y-78016000D01*
G75*
G02*
X82898000Y-77965000I0J51000D01*
G01*
X82898000Y-77565000D01*
G75*
G02*
X82949000Y-77514000I51000J0D01*
G01*
X84949000Y-77514000D01*
G75*
G02*
X85000000Y-77565000I0J-51000D01*
G01*
G37*
G36*
G01*
X85000000Y-76915000D02*
X85000000Y-77315000D01*
G75*
G02*
X84949000Y-77366000I-51000J0D01*
G01*
X82949000Y-77366000D01*
G75*
G02*
X82898000Y-77315000I0J51000D01*
G01*
X82898000Y-76915000D01*
G75*
G02*
X82949000Y-76864000I51000J0D01*
G01*
X84949000Y-76864000D01*
G75*
G02*
X85000000Y-76915000I0J-51000D01*
G01*
G37*
G36*
G01*
X85000000Y-76265000D02*
X85000000Y-76665000D01*
G75*
G02*
X84949000Y-76716000I-51000J0D01*
G01*
X82949000Y-76716000D01*
G75*
G02*
X82898000Y-76665000I0J51000D01*
G01*
X82898000Y-76265000D01*
G75*
G02*
X82949000Y-76214000I51000J0D01*
G01*
X84949000Y-76214000D01*
G75*
G02*
X85000000Y-76265000I0J-51000D01*
G01*
G37*
G36*
G01*
X85000000Y-75615000D02*
X85000000Y-76015000D01*
G75*
G02*
X84949000Y-76066000I-51000J0D01*
G01*
X82949000Y-76066000D01*
G75*
G02*
X82898000Y-76015000I0J51000D01*
G01*
X82898000Y-75615000D01*
G75*
G02*
X82949000Y-75564000I51000J0D01*
G01*
X84949000Y-75564000D01*
G75*
G02*
X85000000Y-75615000I0J-51000D01*
G01*
G37*
G36*
G01*
X91600000Y-74965000D02*
X91600000Y-75365000D01*
G75*
G02*
X91549000Y-75416000I-51000J0D01*
G01*
X89549000Y-75416000D01*
G75*
G02*
X89498000Y-75365000I0J51000D01*
G01*
X89498000Y-74965000D01*
G75*
G02*
X89549000Y-74914000I51000J0D01*
G01*
X91549000Y-74914000D01*
G75*
G02*
X91600000Y-74965000I0J-51000D01*
G01*
G37*
G36*
G01*
X91600000Y-75615000D02*
X91600000Y-76015000D01*
G75*
G02*
X91549000Y-76066000I-51000J0D01*
G01*
X89549000Y-76066000D01*
G75*
G02*
X89498000Y-76015000I0J51000D01*
G01*
X89498000Y-75615000D01*
G75*
G02*
X89549000Y-75564000I51000J0D01*
G01*
X91549000Y-75564000D01*
G75*
G02*
X91600000Y-75615000I0J-51000D01*
G01*
G37*
G36*
G01*
X91600000Y-76265000D02*
X91600000Y-76665000D01*
G75*
G02*
X91549000Y-76716000I-51000J0D01*
G01*
X89549000Y-76716000D01*
G75*
G02*
X89498000Y-76665000I0J51000D01*
G01*
X89498000Y-76265000D01*
G75*
G02*
X89549000Y-76214000I51000J0D01*
G01*
X91549000Y-76214000D01*
G75*
G02*
X91600000Y-76265000I0J-51000D01*
G01*
G37*
G36*
G01*
X91600000Y-76915000D02*
X91600000Y-77315000D01*
G75*
G02*
X91549000Y-77366000I-51000J0D01*
G01*
X89549000Y-77366000D01*
G75*
G02*
X89498000Y-77315000I0J51000D01*
G01*
X89498000Y-76915000D01*
G75*
G02*
X89549000Y-76864000I51000J0D01*
G01*
X91549000Y-76864000D01*
G75*
G02*
X91600000Y-76915000I0J-51000D01*
G01*
G37*
G36*
G01*
X91600000Y-77565000D02*
X91600000Y-77965000D01*
G75*
G02*
X91549000Y-78016000I-51000J0D01*
G01*
X89549000Y-78016000D01*
G75*
G02*
X89498000Y-77965000I0J51000D01*
G01*
X89498000Y-77565000D01*
G75*
G02*
X89549000Y-77514000I51000J0D01*
G01*
X91549000Y-77514000D01*
G75*
G02*
X91600000Y-77565000I0J-51000D01*
G01*
G37*
G36*
G01*
X91600000Y-78215000D02*
X91600000Y-78615000D01*
G75*
G02*
X91549000Y-78666000I-51000J0D01*
G01*
X89549000Y-78666000D01*
G75*
G02*
X89498000Y-78615000I0J51000D01*
G01*
X89498000Y-78215000D01*
G75*
G02*
X89549000Y-78164000I51000J0D01*
G01*
X91549000Y-78164000D01*
G75*
G02*
X91600000Y-78215000I0J-51000D01*
G01*
G37*
G36*
G01*
X91600000Y-78865000D02*
X91600000Y-79265000D01*
G75*
G02*
X91549000Y-79316000I-51000J0D01*
G01*
X89549000Y-79316000D01*
G75*
G02*
X89498000Y-79265000I0J51000D01*
G01*
X89498000Y-78865000D01*
G75*
G02*
X89549000Y-78814000I51000J0D01*
G01*
X91549000Y-78814000D01*
G75*
G02*
X91600000Y-78865000I0J-51000D01*
G01*
G37*
G36*
G01*
X91600000Y-79515000D02*
X91600000Y-79915000D01*
G75*
G02*
X91549000Y-79966000I-51000J0D01*
G01*
X89549000Y-79966000D01*
G75*
G02*
X89498000Y-79915000I0J51000D01*
G01*
X89498000Y-79515000D01*
G75*
G02*
X89549000Y-79464000I51000J0D01*
G01*
X91549000Y-79464000D01*
G75*
G02*
X91600000Y-79515000I0J-51000D01*
G01*
G37*
G36*
G01*
X91600000Y-80165000D02*
X91600000Y-80565000D01*
G75*
G02*
X91549000Y-80616000I-51000J0D01*
G01*
X89549000Y-80616000D01*
G75*
G02*
X89498000Y-80565000I0J51000D01*
G01*
X89498000Y-80165000D01*
G75*
G02*
X89549000Y-80114000I51000J0D01*
G01*
X91549000Y-80114000D01*
G75*
G02*
X91600000Y-80165000I0J-51000D01*
G01*
G37*
G36*
G01*
X91600000Y-80815000D02*
X91600000Y-81215000D01*
G75*
G02*
X91549000Y-81266000I-51000J0D01*
G01*
X89549000Y-81266000D01*
G75*
G02*
X89498000Y-81215000I0J51000D01*
G01*
X89498000Y-80815000D01*
G75*
G02*
X89549000Y-80764000I51000J0D01*
G01*
X91549000Y-80764000D01*
G75*
G02*
X91600000Y-80815000I0J-51000D01*
G01*
G37*
G36*
G01*
X91600000Y-81465000D02*
X91600000Y-81865000D01*
G75*
G02*
X91549000Y-81916000I-51000J0D01*
G01*
X89549000Y-81916000D01*
G75*
G02*
X89498000Y-81865000I0J51000D01*
G01*
X89498000Y-81465000D01*
G75*
G02*
X89549000Y-81414000I51000J0D01*
G01*
X91549000Y-81414000D01*
G75*
G02*
X91600000Y-81465000I0J-51000D01*
G01*
G37*
G36*
G01*
X85000000Y-74965000D02*
X85000000Y-75365000D01*
G75*
G02*
X84949000Y-75416000I-51000J0D01*
G01*
X82949000Y-75416000D01*
G75*
G02*
X82898000Y-75365000I0J51000D01*
G01*
X82898000Y-74965000D01*
G75*
G02*
X82949000Y-74914000I51000J0D01*
G01*
X84949000Y-74914000D01*
G75*
G02*
X85000000Y-74965000I0J-51000D01*
G01*
G37*
G36*
G01*
X91600000Y-82115000D02*
X91600000Y-82515000D01*
G75*
G02*
X91549000Y-82566000I-51000J0D01*
G01*
X89549000Y-82566000D01*
G75*
G02*
X89498000Y-82515000I0J51000D01*
G01*
X89498000Y-82115000D01*
G75*
G02*
X89549000Y-82064000I51000J0D01*
G01*
X91549000Y-82064000D01*
G75*
G02*
X91600000Y-82115000I0J-51000D01*
G01*
G37*
G36*
G01*
X124187928Y-86451860D02*
X124187928Y-86451860D01*
G75*
G02*
X124076874Y-87721218I-690206J-579152D01*
G01*
X124076874Y-87721218D01*
G75*
G02*
X122807516Y-87610164I-579152J690206D01*
G01*
X122807516Y-87610164D01*
G75*
G02*
X122918570Y-86340806I690206J579152D01*
G01*
X122918570Y-86340806D01*
G75*
G02*
X124187928Y-86451860I579152J-690206D01*
G01*
G37*
G36*
G01*
X122555248Y-84506107D02*
X122555248Y-84506107D01*
G75*
G02*
X122444194Y-85775465I-690206J-579152D01*
G01*
X122444194Y-85775465D01*
G75*
G02*
X121174836Y-85664411I-579152J690206D01*
G01*
X121174836Y-85664411D01*
G75*
G02*
X121285890Y-84395053I690206J579152D01*
G01*
X121285890Y-84395053D01*
G75*
G02*
X122555248Y-84506107I579152J-690206D01*
G01*
G37*
G36*
G01*
X120922567Y-82560354D02*
X120922567Y-82560354D01*
G75*
G02*
X120811513Y-83829712I-690206J-579152D01*
G01*
X120811513Y-83829712D01*
G75*
G02*
X119542155Y-83718658I-579152J690206D01*
G01*
X119542155Y-83718658D01*
G75*
G02*
X119653209Y-82449300I690206J579152D01*
G01*
X119653209Y-82449300D01*
G75*
G02*
X120922567Y-82560354I579152J-690206D01*
G01*
G37*
G36*
G01*
X119289887Y-80614601D02*
X119289887Y-80614601D01*
G75*
G02*
X119178833Y-81883959I-690206J-579152D01*
G01*
X119178833Y-81883959D01*
G75*
G02*
X117909475Y-81772905I-579152J690206D01*
G01*
X117909475Y-81772905D01*
G75*
G02*
X118020529Y-80503547I690206J579152D01*
G01*
X118020529Y-80503547D01*
G75*
G02*
X119289887Y-80614601I579152J-690206D01*
G01*
G37*
G36*
G01*
X117110836Y-78017711D02*
X118203575Y-79319986D01*
G75*
G02*
X118197289Y-79391836I-39068J-32782D01*
G01*
X116895014Y-80484575D01*
G75*
G02*
X116823164Y-80478289I-32782J39068D01*
G01*
X115730425Y-79176014D01*
G75*
G02*
X115736711Y-79104164I39068J32782D01*
G01*
X117038986Y-78011425D01*
G75*
G02*
X117110836Y-78017711I32782J-39068D01*
G01*
G37*
D10*
X114500000Y-81026000D03*
X114500000Y-79756000D03*
X114500000Y-78486000D03*
G36*
G01*
X113600000Y-76630000D02*
X115400000Y-76630000D01*
G75*
G02*
X115451000Y-76681000I0J-51000D01*
G01*
X115451000Y-77751000D01*
G75*
G02*
X115400000Y-77802000I-51000J0D01*
G01*
X113600000Y-77802000D01*
G75*
G02*
X113549000Y-77751000I0J51000D01*
G01*
X113549000Y-76681000D01*
G75*
G02*
X113600000Y-76630000I51000J0D01*
G01*
G37*
D11*
X94314000Y-80264000D03*
X96814000Y-80264000D03*
X99314000Y-80264000D03*
X101814000Y-80264000D03*
X104314000Y-80264000D03*
X106814000Y-80264000D03*
X109314000Y-80264000D03*
G36*
G01*
X112765000Y-78677166D02*
X112765000Y-81850834D01*
G75*
G02*
X112500834Y-82115000I-264166J0D01*
G01*
X111127166Y-82115000D01*
G75*
G02*
X110863000Y-81850834I0J264166D01*
G01*
X110863000Y-78677166D01*
G75*
G02*
X111127166Y-78413000I264166J0D01*
G01*
X112500834Y-78413000D01*
G75*
G02*
X112765000Y-78677166I0J-264166D01*
G01*
G37*
G36*
G01*
X82292298Y-80627000D02*
X81283702Y-80627000D01*
G75*
G02*
X81012000Y-80355298I0J271702D01*
G01*
X81012000Y-79621702D01*
G75*
G02*
X81283702Y-79350000I271702J0D01*
G01*
X82292298Y-79350000D01*
G75*
G02*
X82564000Y-79621702I0J-271702D01*
G01*
X82564000Y-80355298D01*
G75*
G02*
X82292298Y-80627000I-271702J0D01*
G01*
G37*
G36*
G01*
X82292298Y-82702000D02*
X81283702Y-82702000D01*
G75*
G02*
X81012000Y-82430298I0J271702D01*
G01*
X81012000Y-81696702D01*
G75*
G02*
X81283702Y-81425000I271702J0D01*
G01*
X82292298Y-81425000D01*
G75*
G02*
X82564000Y-81696702I0J-271702D01*
G01*
X82564000Y-82430298D01*
G75*
G02*
X82292298Y-82702000I-271702J0D01*
G01*
G37*
G36*
G01*
X113717000Y-100832000D02*
X112917000Y-100832000D01*
G75*
G02*
X112866000Y-100781000I0J51000D01*
G01*
X112866000Y-98781000D01*
G75*
G02*
X112917000Y-98730000I51000J0D01*
G01*
X113717000Y-98730000D01*
G75*
G02*
X113768000Y-98781000I0J-51000D01*
G01*
X113768000Y-100781000D01*
G75*
G02*
X113717000Y-100832000I-51000J0D01*
G01*
G37*
G36*
G01*
X113717000Y-92532000D02*
X112917000Y-92532000D01*
G75*
G02*
X112866000Y-92481000I0J51000D01*
G01*
X112866000Y-90481000D01*
G75*
G02*
X112917000Y-90430000I51000J0D01*
G01*
X113717000Y-90430000D01*
G75*
G02*
X113768000Y-90481000I0J-51000D01*
G01*
X113768000Y-92481000D01*
G75*
G02*
X113717000Y-92532000I-51000J0D01*
G01*
G37*
G36*
G01*
X115927000Y-92532000D02*
X115127000Y-92532000D01*
G75*
G02*
X115076000Y-92481000I0J51000D01*
G01*
X115076000Y-90481000D01*
G75*
G02*
X115127000Y-90430000I51000J0D01*
G01*
X115927000Y-90430000D01*
G75*
G02*
X115978000Y-90481000I0J-51000D01*
G01*
X115978000Y-92481000D01*
G75*
G02*
X115927000Y-92532000I-51000J0D01*
G01*
G37*
G36*
G01*
X115927000Y-100832000D02*
X115127000Y-100832000D01*
G75*
G02*
X115076000Y-100781000I0J51000D01*
G01*
X115076000Y-98781000D01*
G75*
G02*
X115127000Y-98730000I51000J0D01*
G01*
X115927000Y-98730000D01*
G75*
G02*
X115978000Y-98781000I0J-51000D01*
G01*
X115978000Y-100781000D01*
G75*
G02*
X115927000Y-100832000I-51000J0D01*
G01*
G37*
G36*
G01*
X113417001Y-93782000D02*
X111416999Y-93782000D01*
G75*
G02*
X111366000Y-93731001I0J50999D01*
G01*
X111366000Y-93030999D01*
G75*
G02*
X111416999Y-92980000I50999J0D01*
G01*
X113417001Y-92980000D01*
G75*
G02*
X113468000Y-93030999I0J-50999D01*
G01*
X113468000Y-93731001D01*
G75*
G02*
X113417001Y-93782000I-50999J0D01*
G01*
G37*
G36*
G01*
X113417001Y-95282000D02*
X111416999Y-95282000D01*
G75*
G02*
X111366000Y-95231001I0J50999D01*
G01*
X111366000Y-94530999D01*
G75*
G02*
X111416999Y-94480000I50999J0D01*
G01*
X113417001Y-94480000D01*
G75*
G02*
X113468000Y-94530999I0J-50999D01*
G01*
X113468000Y-95231001D01*
G75*
G02*
X113417001Y-95282000I-50999J0D01*
G01*
G37*
G36*
G01*
X113417001Y-98282000D02*
X111416999Y-98282000D01*
G75*
G02*
X111366000Y-98231001I0J50999D01*
G01*
X111366000Y-97530999D01*
G75*
G02*
X111416999Y-97480000I50999J0D01*
G01*
X113417001Y-97480000D01*
G75*
G02*
X113468000Y-97530999I0J-50999D01*
G01*
X113468000Y-98231001D01*
G75*
G02*
X113417001Y-98282000I-50999J0D01*
G01*
G37*
D12*
X114427000Y-94131000D03*
X114427000Y-97131000D03*
G36*
G01*
X109696000Y-97507752D02*
X109696000Y-96548248D01*
G75*
G02*
X109967248Y-96277000I271248J0D01*
G01*
X110726752Y-96277000D01*
G75*
G02*
X110998000Y-96548248I0J-271248D01*
G01*
X110998000Y-97507752D01*
G75*
G02*
X110726752Y-97779000I-271248J0D01*
G01*
X109967248Y-97779000D01*
G75*
G02*
X109696000Y-97507752I0J271248D01*
G01*
G37*
G36*
G01*
X107696000Y-97507752D02*
X107696000Y-96548248D01*
G75*
G02*
X107967248Y-96277000I271248J0D01*
G01*
X108726752Y-96277000D01*
G75*
G02*
X108998000Y-96548248I0J-271248D01*
G01*
X108998000Y-97507752D01*
G75*
G02*
X108726752Y-97779000I-271248J0D01*
G01*
X107967248Y-97779000D01*
G75*
G02*
X107696000Y-97507752I0J271248D01*
G01*
G37*
G36*
G01*
X107959000Y-93834000D02*
X107959000Y-94634000D01*
G75*
G02*
X107908000Y-94685000I-51000J0D01*
G01*
X106008000Y-94685000D01*
G75*
G02*
X105957000Y-94634000I0J51000D01*
G01*
X105957000Y-93834000D01*
G75*
G02*
X106008000Y-93783000I51000J0D01*
G01*
X107908000Y-93783000D01*
G75*
G02*
X107959000Y-93834000I0J-51000D01*
G01*
G37*
G36*
G01*
X110959000Y-92884000D02*
X110959000Y-93684000D01*
G75*
G02*
X110908000Y-93735000I-51000J0D01*
G01*
X109008000Y-93735000D01*
G75*
G02*
X108957000Y-93684000I0J51000D01*
G01*
X108957000Y-92884000D01*
G75*
G02*
X109008000Y-92833000I51000J0D01*
G01*
X110908000Y-92833000D01*
G75*
G02*
X110959000Y-92884000I0J-51000D01*
G01*
G37*
G36*
G01*
X110959000Y-94784000D02*
X110959000Y-95584000D01*
G75*
G02*
X110908000Y-95635000I-51000J0D01*
G01*
X109008000Y-95635000D01*
G75*
G02*
X108957000Y-95584000I0J51000D01*
G01*
X108957000Y-94784000D01*
G75*
G02*
X109008000Y-94733000I51000J0D01*
G01*
X110908000Y-94733000D01*
G75*
G02*
X110959000Y-94784000I0J-51000D01*
G01*
G37*
D13*
X111250000Y-89250000D03*
X111250000Y-84750000D03*
X117750000Y-89250000D03*
X117750000Y-84750000D03*
G36*
G01*
X96142000Y-110174500D02*
X96142000Y-111825500D01*
G75*
G02*
X96016500Y-111951000I-125500J0D01*
G01*
X95765500Y-111951000D01*
G75*
G02*
X95640000Y-111825500I0J125500D01*
G01*
X95640000Y-110174500D01*
G75*
G02*
X95765500Y-110049000I125500J0D01*
G01*
X96016500Y-110049000D01*
G75*
G02*
X96142000Y-110174500I0J-125500D01*
G01*
G37*
G36*
G01*
X95442000Y-110174500D02*
X95442000Y-111825500D01*
G75*
G02*
X95316500Y-111951000I-125500J0D01*
G01*
X95065500Y-111951000D01*
G75*
G02*
X94940000Y-111825500I0J125500D01*
G01*
X94940000Y-110174500D01*
G75*
G02*
X95065500Y-110049000I125500J0D01*
G01*
X95316500Y-110049000D01*
G75*
G02*
X95442000Y-110174500I0J-125500D01*
G01*
G37*
G36*
G01*
X94742000Y-110174500D02*
X94742000Y-111825500D01*
G75*
G02*
X94616500Y-111951000I-125500J0D01*
G01*
X94365500Y-111951000D01*
G75*
G02*
X94240000Y-111825500I0J125500D01*
G01*
X94240000Y-110174500D01*
G75*
G02*
X94365500Y-110049000I125500J0D01*
G01*
X94616500Y-110049000D01*
G75*
G02*
X94742000Y-110174500I0J-125500D01*
G01*
G37*
G36*
G01*
X94042000Y-110174500D02*
X94042000Y-111825500D01*
G75*
G02*
X93916500Y-111951000I-125500J0D01*
G01*
X93665500Y-111951000D01*
G75*
G02*
X93540000Y-111825500I0J125500D01*
G01*
X93540000Y-110174500D01*
G75*
G02*
X93665500Y-110049000I125500J0D01*
G01*
X93916500Y-110049000D01*
G75*
G02*
X94042000Y-110174500I0J-125500D01*
G01*
G37*
G36*
G01*
X93342000Y-110174500D02*
X93342000Y-111825500D01*
G75*
G02*
X93216500Y-111951000I-125500J0D01*
G01*
X92965500Y-111951000D01*
G75*
G02*
X92840000Y-111825500I0J125500D01*
G01*
X92840000Y-110174500D01*
G75*
G02*
X92965500Y-110049000I125500J0D01*
G01*
X93216500Y-110049000D01*
G75*
G02*
X93342000Y-110174500I0J-125500D01*
G01*
G37*
G36*
G01*
X92642000Y-110174500D02*
X92642000Y-111825500D01*
G75*
G02*
X92516500Y-111951000I-125500J0D01*
G01*
X92265500Y-111951000D01*
G75*
G02*
X92140000Y-111825500I0J125500D01*
G01*
X92140000Y-110174500D01*
G75*
G02*
X92265500Y-110049000I125500J0D01*
G01*
X92516500Y-110049000D01*
G75*
G02*
X92642000Y-110174500I0J-125500D01*
G01*
G37*
G36*
G01*
X91942000Y-110174500D02*
X91942000Y-111825500D01*
G75*
G02*
X91816500Y-111951000I-125500J0D01*
G01*
X91565500Y-111951000D01*
G75*
G02*
X91440000Y-111825500I0J125500D01*
G01*
X91440000Y-110174500D01*
G75*
G02*
X91565500Y-110049000I125500J0D01*
G01*
X91816500Y-110049000D01*
G75*
G02*
X91942000Y-110174500I0J-125500D01*
G01*
G37*
G36*
G01*
X91242000Y-110174500D02*
X91242000Y-111825500D01*
G75*
G02*
X91116500Y-111951000I-125500J0D01*
G01*
X90865500Y-111951000D01*
G75*
G02*
X90740000Y-111825500I0J125500D01*
G01*
X90740000Y-110174500D01*
G75*
G02*
X90865500Y-110049000I125500J0D01*
G01*
X91116500Y-110049000D01*
G75*
G02*
X91242000Y-110174500I0J-125500D01*
G01*
G37*
G36*
G01*
X90542000Y-110174500D02*
X90542000Y-111825500D01*
G75*
G02*
X90416500Y-111951000I-125500J0D01*
G01*
X90165500Y-111951000D01*
G75*
G02*
X90040000Y-111825500I0J125500D01*
G01*
X90040000Y-110174500D01*
G75*
G02*
X90165500Y-110049000I125500J0D01*
G01*
X90416500Y-110049000D01*
G75*
G02*
X90542000Y-110174500I0J-125500D01*
G01*
G37*
G36*
G01*
X89842000Y-110174500D02*
X89842000Y-111825500D01*
G75*
G02*
X89716500Y-111951000I-125500J0D01*
G01*
X89465500Y-111951000D01*
G75*
G02*
X89340000Y-111825500I0J125500D01*
G01*
X89340000Y-110174500D01*
G75*
G02*
X89465500Y-110049000I125500J0D01*
G01*
X89716500Y-110049000D01*
G75*
G02*
X89842000Y-110174500I0J-125500D01*
G01*
G37*
G36*
G01*
X89142000Y-110174500D02*
X89142000Y-111825500D01*
G75*
G02*
X89016500Y-111951000I-125500J0D01*
G01*
X88765500Y-111951000D01*
G75*
G02*
X88640000Y-111825500I0J125500D01*
G01*
X88640000Y-110174500D01*
G75*
G02*
X88765500Y-110049000I125500J0D01*
G01*
X89016500Y-110049000D01*
G75*
G02*
X89142000Y-110174500I0J-125500D01*
G01*
G37*
G36*
G01*
X88442000Y-110174500D02*
X88442000Y-111825500D01*
G75*
G02*
X88316500Y-111951000I-125500J0D01*
G01*
X88065500Y-111951000D01*
G75*
G02*
X87940000Y-111825500I0J125500D01*
G01*
X87940000Y-110174500D01*
G75*
G02*
X88065500Y-110049000I125500J0D01*
G01*
X88316500Y-110049000D01*
G75*
G02*
X88442000Y-110174500I0J-125500D01*
G01*
G37*
D14*
X97041000Y-106700000D03*
X87041000Y-106700000D03*
G36*
G01*
X81918500Y-83065000D02*
X82419500Y-83065000D01*
G75*
G02*
X82670000Y-83315500I0J-250500D01*
G01*
X82670000Y-85916500D01*
G75*
G02*
X82419500Y-86167000I-250500J0D01*
G01*
X81918500Y-86167000D01*
G75*
G02*
X81668000Y-85916500I0J250500D01*
G01*
X81668000Y-83315500D01*
G75*
G02*
X81918500Y-83065000I250500J0D01*
G01*
G37*
G36*
G01*
X83188500Y-83065000D02*
X83689500Y-83065000D01*
G75*
G02*
X83940000Y-83315500I0J-250500D01*
G01*
X83940000Y-85916500D01*
G75*
G02*
X83689500Y-86167000I-250500J0D01*
G01*
X83188500Y-86167000D01*
G75*
G02*
X82938000Y-85916500I0J250500D01*
G01*
X82938000Y-83315500D01*
G75*
G02*
X83188500Y-83065000I250500J0D01*
G01*
G37*
G36*
G01*
X84458500Y-83065000D02*
X84959500Y-83065000D01*
G75*
G02*
X85210000Y-83315500I0J-250500D01*
G01*
X85210000Y-85916500D01*
G75*
G02*
X84959500Y-86167000I-250500J0D01*
G01*
X84458500Y-86167000D01*
G75*
G02*
X84208000Y-85916500I0J250500D01*
G01*
X84208000Y-83315500D01*
G75*
G02*
X84458500Y-83065000I250500J0D01*
G01*
G37*
G36*
G01*
X85728500Y-83065000D02*
X86229500Y-83065000D01*
G75*
G02*
X86480000Y-83315500I0J-250500D01*
G01*
X86480000Y-85916500D01*
G75*
G02*
X86229500Y-86167000I-250500J0D01*
G01*
X85728500Y-86167000D01*
G75*
G02*
X85478000Y-85916500I0J250500D01*
G01*
X85478000Y-83315500D01*
G75*
G02*
X85728500Y-83065000I250500J0D01*
G01*
G37*
G36*
G01*
X86998500Y-83065000D02*
X87499500Y-83065000D01*
G75*
G02*
X87750000Y-83315500I0J-250500D01*
G01*
X87750000Y-85916500D01*
G75*
G02*
X87499500Y-86167000I-250500J0D01*
G01*
X86998500Y-86167000D01*
G75*
G02*
X86748000Y-85916500I0J250500D01*
G01*
X86748000Y-83315500D01*
G75*
G02*
X86998500Y-83065000I250500J0D01*
G01*
G37*
G36*
G01*
X88268500Y-83065000D02*
X88769500Y-83065000D01*
G75*
G02*
X89020000Y-83315500I0J-250500D01*
G01*
X89020000Y-85916500D01*
G75*
G02*
X88769500Y-86167000I-250500J0D01*
G01*
X88268500Y-86167000D01*
G75*
G02*
X88018000Y-85916500I0J250500D01*
G01*
X88018000Y-83315500D01*
G75*
G02*
X88268500Y-83065000I250500J0D01*
G01*
G37*
G36*
G01*
X89538500Y-83065000D02*
X90039500Y-83065000D01*
G75*
G02*
X90290000Y-83315500I0J-250500D01*
G01*
X90290000Y-85916500D01*
G75*
G02*
X90039500Y-86167000I-250500J0D01*
G01*
X89538500Y-86167000D01*
G75*
G02*
X89288000Y-85916500I0J250500D01*
G01*
X89288000Y-83315500D01*
G75*
G02*
X89538500Y-83065000I250500J0D01*
G01*
G37*
G36*
G01*
X90808500Y-83065000D02*
X91309500Y-83065000D01*
G75*
G02*
X91560000Y-83315500I0J-250500D01*
G01*
X91560000Y-85916500D01*
G75*
G02*
X91309500Y-86167000I-250500J0D01*
G01*
X90808500Y-86167000D01*
G75*
G02*
X90558000Y-85916500I0J250500D01*
G01*
X90558000Y-83315500D01*
G75*
G02*
X90808500Y-83065000I250500J0D01*
G01*
G37*
G36*
G01*
X92078500Y-83065000D02*
X92579500Y-83065000D01*
G75*
G02*
X92830000Y-83315500I0J-250500D01*
G01*
X92830000Y-85916500D01*
G75*
G02*
X92579500Y-86167000I-250500J0D01*
G01*
X92078500Y-86167000D01*
G75*
G02*
X91828000Y-85916500I0J250500D01*
G01*
X91828000Y-83315500D01*
G75*
G02*
X92078500Y-83065000I250500J0D01*
G01*
G37*
G36*
G01*
X93348500Y-83065000D02*
X93849500Y-83065000D01*
G75*
G02*
X94100000Y-83315500I0J-250500D01*
G01*
X94100000Y-85916500D01*
G75*
G02*
X93849500Y-86167000I-250500J0D01*
G01*
X93348500Y-86167000D01*
G75*
G02*
X93098000Y-85916500I0J250500D01*
G01*
X93098000Y-83315500D01*
G75*
G02*
X93348500Y-83065000I250500J0D01*
G01*
G37*
G36*
G01*
X94618500Y-83065000D02*
X95119500Y-83065000D01*
G75*
G02*
X95370000Y-83315500I0J-250500D01*
G01*
X95370000Y-85916500D01*
G75*
G02*
X95119500Y-86167000I-250500J0D01*
G01*
X94618500Y-86167000D01*
G75*
G02*
X94368000Y-85916500I0J250500D01*
G01*
X94368000Y-83315500D01*
G75*
G02*
X94618500Y-83065000I250500J0D01*
G01*
G37*
G36*
G01*
X95888500Y-83065000D02*
X96389500Y-83065000D01*
G75*
G02*
X96640000Y-83315500I0J-250500D01*
G01*
X96640000Y-85916500D01*
G75*
G02*
X96389500Y-86167000I-250500J0D01*
G01*
X95888500Y-86167000D01*
G75*
G02*
X95638000Y-85916500I0J250500D01*
G01*
X95638000Y-83315500D01*
G75*
G02*
X95888500Y-83065000I250500J0D01*
G01*
G37*
G36*
G01*
X97158500Y-83065000D02*
X97659500Y-83065000D01*
G75*
G02*
X97910000Y-83315500I0J-250500D01*
G01*
X97910000Y-85916500D01*
G75*
G02*
X97659500Y-86167000I-250500J0D01*
G01*
X97158500Y-86167000D01*
G75*
G02*
X96908000Y-85916500I0J250500D01*
G01*
X96908000Y-83315500D01*
G75*
G02*
X97158500Y-83065000I250500J0D01*
G01*
G37*
G36*
G01*
X98428500Y-83065000D02*
X98929500Y-83065000D01*
G75*
G02*
X99180000Y-83315500I0J-250500D01*
G01*
X99180000Y-85916500D01*
G75*
G02*
X98929500Y-86167000I-250500J0D01*
G01*
X98428500Y-86167000D01*
G75*
G02*
X98178000Y-85916500I0J250500D01*
G01*
X98178000Y-83315500D01*
G75*
G02*
X98428500Y-83065000I250500J0D01*
G01*
G37*
G36*
G01*
X101730000Y-87650500D02*
X101730000Y-88151500D01*
G75*
G02*
X101479500Y-88402000I-250500J0D01*
G01*
X98878500Y-88402000D01*
G75*
G02*
X98628000Y-88151500I0J250500D01*
G01*
X98628000Y-87650500D01*
G75*
G02*
X98878500Y-87400000I250500J0D01*
G01*
X101479500Y-87400000D01*
G75*
G02*
X101730000Y-87650500I0J-250500D01*
G01*
G37*
G36*
G01*
X101730000Y-88920500D02*
X101730000Y-89421500D01*
G75*
G02*
X101479500Y-89672000I-250500J0D01*
G01*
X98878500Y-89672000D01*
G75*
G02*
X98628000Y-89421500I0J250500D01*
G01*
X98628000Y-88920500D01*
G75*
G02*
X98878500Y-88670000I250500J0D01*
G01*
X101479500Y-88670000D01*
G75*
G02*
X101730000Y-88920500I0J-250500D01*
G01*
G37*
G36*
G01*
X101730000Y-90190500D02*
X101730000Y-90691500D01*
G75*
G02*
X101479500Y-90942000I-250500J0D01*
G01*
X98878500Y-90942000D01*
G75*
G02*
X98628000Y-90691500I0J250500D01*
G01*
X98628000Y-90190500D01*
G75*
G02*
X98878500Y-89940000I250500J0D01*
G01*
X101479500Y-89940000D01*
G75*
G02*
X101730000Y-90190500I0J-250500D01*
G01*
G37*
G36*
G01*
X101730000Y-91460500D02*
X101730000Y-91961500D01*
G75*
G02*
X101479500Y-92212000I-250500J0D01*
G01*
X98878500Y-92212000D01*
G75*
G02*
X98628000Y-91961500I0J250500D01*
G01*
X98628000Y-91460500D01*
G75*
G02*
X98878500Y-91210000I250500J0D01*
G01*
X101479500Y-91210000D01*
G75*
G02*
X101730000Y-91460500I0J-250500D01*
G01*
G37*
G36*
G01*
X101730000Y-92730500D02*
X101730000Y-93231500D01*
G75*
G02*
X101479500Y-93482000I-250500J0D01*
G01*
X98878500Y-93482000D01*
G75*
G02*
X98628000Y-93231500I0J250500D01*
G01*
X98628000Y-92730500D01*
G75*
G02*
X98878500Y-92480000I250500J0D01*
G01*
X101479500Y-92480000D01*
G75*
G02*
X101730000Y-92730500I0J-250500D01*
G01*
G37*
G36*
G01*
X101730000Y-94000500D02*
X101730000Y-94501500D01*
G75*
G02*
X101479500Y-94752000I-250500J0D01*
G01*
X98878500Y-94752000D01*
G75*
G02*
X98628000Y-94501500I0J250500D01*
G01*
X98628000Y-94000500D01*
G75*
G02*
X98878500Y-93750000I250500J0D01*
G01*
X101479500Y-93750000D01*
G75*
G02*
X101730000Y-94000500I0J-250500D01*
G01*
G37*
G36*
G01*
X101730000Y-95270500D02*
X101730000Y-95771500D01*
G75*
G02*
X101479500Y-96022000I-250500J0D01*
G01*
X98878500Y-96022000D01*
G75*
G02*
X98628000Y-95771500I0J250500D01*
G01*
X98628000Y-95270500D01*
G75*
G02*
X98878500Y-95020000I250500J0D01*
G01*
X101479500Y-95020000D01*
G75*
G02*
X101730000Y-95270500I0J-250500D01*
G01*
G37*
G36*
G01*
X101730000Y-96540500D02*
X101730000Y-97041500D01*
G75*
G02*
X101479500Y-97292000I-250500J0D01*
G01*
X98878500Y-97292000D01*
G75*
G02*
X98628000Y-97041500I0J250500D01*
G01*
X98628000Y-96540500D01*
G75*
G02*
X98878500Y-96290000I250500J0D01*
G01*
X101479500Y-96290000D01*
G75*
G02*
X101730000Y-96540500I0J-250500D01*
G01*
G37*
G36*
G01*
X101730000Y-97810500D02*
X101730000Y-98311500D01*
G75*
G02*
X101479500Y-98562000I-250500J0D01*
G01*
X98878500Y-98562000D01*
G75*
G02*
X98628000Y-98311500I0J250500D01*
G01*
X98628000Y-97810500D01*
G75*
G02*
X98878500Y-97560000I250500J0D01*
G01*
X101479500Y-97560000D01*
G75*
G02*
X101730000Y-97810500I0J-250500D01*
G01*
G37*
G36*
G01*
X101730000Y-99080500D02*
X101730000Y-99581500D01*
G75*
G02*
X101479500Y-99832000I-250500J0D01*
G01*
X98878500Y-99832000D01*
G75*
G02*
X98628000Y-99581500I0J250500D01*
G01*
X98628000Y-99080500D01*
G75*
G02*
X98878500Y-98830000I250500J0D01*
G01*
X101479500Y-98830000D01*
G75*
G02*
X101730000Y-99080500I0J-250500D01*
G01*
G37*
G36*
G01*
X98929500Y-104167000D02*
X98428500Y-104167000D01*
G75*
G02*
X98178000Y-103916500I0J250500D01*
G01*
X98178000Y-101315500D01*
G75*
G02*
X98428500Y-101065000I250500J0D01*
G01*
X98929500Y-101065000D01*
G75*
G02*
X99180000Y-101315500I0J-250500D01*
G01*
X99180000Y-103916500D01*
G75*
G02*
X98929500Y-104167000I-250500J0D01*
G01*
G37*
G36*
G01*
X97659500Y-104167000D02*
X97158500Y-104167000D01*
G75*
G02*
X96908000Y-103916500I0J250500D01*
G01*
X96908000Y-101315500D01*
G75*
G02*
X97158500Y-101065000I250500J0D01*
G01*
X97659500Y-101065000D01*
G75*
G02*
X97910000Y-101315500I0J-250500D01*
G01*
X97910000Y-103916500D01*
G75*
G02*
X97659500Y-104167000I-250500J0D01*
G01*
G37*
G36*
G01*
X96389500Y-104167000D02*
X95888500Y-104167000D01*
G75*
G02*
X95638000Y-103916500I0J250500D01*
G01*
X95638000Y-101315500D01*
G75*
G02*
X95888500Y-101065000I250500J0D01*
G01*
X96389500Y-101065000D01*
G75*
G02*
X96640000Y-101315500I0J-250500D01*
G01*
X96640000Y-103916500D01*
G75*
G02*
X96389500Y-104167000I-250500J0D01*
G01*
G37*
G36*
G01*
X95119500Y-104167000D02*
X94618500Y-104167000D01*
G75*
G02*
X94368000Y-103916500I0J250500D01*
G01*
X94368000Y-101315500D01*
G75*
G02*
X94618500Y-101065000I250500J0D01*
G01*
X95119500Y-101065000D01*
G75*
G02*
X95370000Y-101315500I0J-250500D01*
G01*
X95370000Y-103916500D01*
G75*
G02*
X95119500Y-104167000I-250500J0D01*
G01*
G37*
G36*
G01*
X93849500Y-104167000D02*
X93348500Y-104167000D01*
G75*
G02*
X93098000Y-103916500I0J250500D01*
G01*
X93098000Y-101315500D01*
G75*
G02*
X93348500Y-101065000I250500J0D01*
G01*
X93849500Y-101065000D01*
G75*
G02*
X94100000Y-101315500I0J-250500D01*
G01*
X94100000Y-103916500D01*
G75*
G02*
X93849500Y-104167000I-250500J0D01*
G01*
G37*
G36*
G01*
X92579500Y-104167000D02*
X92078500Y-104167000D01*
G75*
G02*
X91828000Y-103916500I0J250500D01*
G01*
X91828000Y-101315500D01*
G75*
G02*
X92078500Y-101065000I250500J0D01*
G01*
X92579500Y-101065000D01*
G75*
G02*
X92830000Y-101315500I0J-250500D01*
G01*
X92830000Y-103916500D01*
G75*
G02*
X92579500Y-104167000I-250500J0D01*
G01*
G37*
G36*
G01*
X91309500Y-104167000D02*
X90808500Y-104167000D01*
G75*
G02*
X90558000Y-103916500I0J250500D01*
G01*
X90558000Y-101315500D01*
G75*
G02*
X90808500Y-101065000I250500J0D01*
G01*
X91309500Y-101065000D01*
G75*
G02*
X91560000Y-101315500I0J-250500D01*
G01*
X91560000Y-103916500D01*
G75*
G02*
X91309500Y-104167000I-250500J0D01*
G01*
G37*
G36*
G01*
X90039500Y-104167000D02*
X89538500Y-104167000D01*
G75*
G02*
X89288000Y-103916500I0J250500D01*
G01*
X89288000Y-101315500D01*
G75*
G02*
X89538500Y-101065000I250500J0D01*
G01*
X90039500Y-101065000D01*
G75*
G02*
X90290000Y-101315500I0J-250500D01*
G01*
X90290000Y-103916500D01*
G75*
G02*
X90039500Y-104167000I-250500J0D01*
G01*
G37*
G36*
G01*
X88769500Y-104167000D02*
X88268500Y-104167000D01*
G75*
G02*
X88018000Y-103916500I0J250500D01*
G01*
X88018000Y-101315500D01*
G75*
G02*
X88268500Y-101065000I250500J0D01*
G01*
X88769500Y-101065000D01*
G75*
G02*
X89020000Y-101315500I0J-250500D01*
G01*
X89020000Y-103916500D01*
G75*
G02*
X88769500Y-104167000I-250500J0D01*
G01*
G37*
G36*
G01*
X87499500Y-104167000D02*
X86998500Y-104167000D01*
G75*
G02*
X86748000Y-103916500I0J250500D01*
G01*
X86748000Y-101315500D01*
G75*
G02*
X86998500Y-101065000I250500J0D01*
G01*
X87499500Y-101065000D01*
G75*
G02*
X87750000Y-101315500I0J-250500D01*
G01*
X87750000Y-103916500D01*
G75*
G02*
X87499500Y-104167000I-250500J0D01*
G01*
G37*
G36*
G01*
X86229500Y-104167000D02*
X85728500Y-104167000D01*
G75*
G02*
X85478000Y-103916500I0J250500D01*
G01*
X85478000Y-101315500D01*
G75*
G02*
X85728500Y-101065000I250500J0D01*
G01*
X86229500Y-101065000D01*
G75*
G02*
X86480000Y-101315500I0J-250500D01*
G01*
X86480000Y-103916500D01*
G75*
G02*
X86229500Y-104167000I-250500J0D01*
G01*
G37*
G36*
G01*
X84959500Y-104167000D02*
X84458500Y-104167000D01*
G75*
G02*
X84208000Y-103916500I0J250500D01*
G01*
X84208000Y-101315500D01*
G75*
G02*
X84458500Y-101065000I250500J0D01*
G01*
X84959500Y-101065000D01*
G75*
G02*
X85210000Y-101315500I0J-250500D01*
G01*
X85210000Y-103916500D01*
G75*
G02*
X84959500Y-104167000I-250500J0D01*
G01*
G37*
G36*
G01*
X83689500Y-104167000D02*
X83188500Y-104167000D01*
G75*
G02*
X82938000Y-103916500I0J250500D01*
G01*
X82938000Y-101315500D01*
G75*
G02*
X83188500Y-101065000I250500J0D01*
G01*
X83689500Y-101065000D01*
G75*
G02*
X83940000Y-101315500I0J-250500D01*
G01*
X83940000Y-103916500D01*
G75*
G02*
X83689500Y-104167000I-250500J0D01*
G01*
G37*
G36*
G01*
X82419500Y-104167000D02*
X81918500Y-104167000D01*
G75*
G02*
X81668000Y-103916500I0J250500D01*
G01*
X81668000Y-101315500D01*
G75*
G02*
X81918500Y-101065000I250500J0D01*
G01*
X82419500Y-101065000D01*
G75*
G02*
X82670000Y-101315500I0J-250500D01*
G01*
X82670000Y-103916500D01*
G75*
G02*
X82419500Y-104167000I-250500J0D01*
G01*
G37*
G36*
G01*
X92169000Y-97167000D02*
X87169000Y-97167000D01*
G75*
G02*
X87118000Y-97116000I0J51000D01*
G01*
X87118000Y-92116000D01*
G75*
G02*
X87169000Y-92065000I51000J0D01*
G01*
X92169000Y-92065000D01*
G75*
G02*
X92220000Y-92116000I0J-51000D01*
G01*
X92220000Y-97116000D01*
G75*
G02*
X92169000Y-97167000I-51000J0D01*
G01*
G37*
D15*
G36*
X92701000Y-122551000D02*
G01*
X89299000Y-122551000D01*
X89299000Y-119849000D01*
X92701000Y-119849000D01*
X92701000Y-122551000D01*
G37*
G36*
G01*
X89395000Y-119351000D02*
X88795000Y-119351000D01*
G75*
G02*
X88744000Y-119300000I0J51000D01*
G01*
X88744000Y-117100000D01*
G75*
G02*
X88795000Y-117049000I51000J0D01*
G01*
X89395000Y-117049000D01*
G75*
G02*
X89446000Y-117100000I0J-51000D01*
G01*
X89446000Y-119300000D01*
G75*
G02*
X89395000Y-119351000I-51000J0D01*
G01*
G37*
G36*
G01*
X90665000Y-119351000D02*
X90065000Y-119351000D01*
G75*
G02*
X90014000Y-119300000I0J51000D01*
G01*
X90014000Y-117100000D01*
G75*
G02*
X90065000Y-117049000I51000J0D01*
G01*
X90665000Y-117049000D01*
G75*
G02*
X90716000Y-117100000I0J-51000D01*
G01*
X90716000Y-119300000D01*
G75*
G02*
X90665000Y-119351000I-51000J0D01*
G01*
G37*
G36*
G01*
X91935000Y-119351000D02*
X91335000Y-119351000D01*
G75*
G02*
X91284000Y-119300000I0J51000D01*
G01*
X91284000Y-117100000D01*
G75*
G02*
X91335000Y-117049000I51000J0D01*
G01*
X91935000Y-117049000D01*
G75*
G02*
X91986000Y-117100000I0J-51000D01*
G01*
X91986000Y-119300000D01*
G75*
G02*
X91935000Y-119351000I-51000J0D01*
G01*
G37*
G36*
G01*
X93205000Y-119351000D02*
X92605000Y-119351000D01*
G75*
G02*
X92554000Y-119300000I0J51000D01*
G01*
X92554000Y-117100000D01*
G75*
G02*
X92605000Y-117049000I51000J0D01*
G01*
X93205000Y-117049000D01*
G75*
G02*
X93256000Y-117100000I0J-51000D01*
G01*
X93256000Y-119300000D01*
G75*
G02*
X93205000Y-119351000I-51000J0D01*
G01*
G37*
G36*
G01*
X93205000Y-125351000D02*
X92605000Y-125351000D01*
G75*
G02*
X92554000Y-125300000I0J51000D01*
G01*
X92554000Y-123100000D01*
G75*
G02*
X92605000Y-123049000I51000J0D01*
G01*
X93205000Y-123049000D01*
G75*
G02*
X93256000Y-123100000I0J-51000D01*
G01*
X93256000Y-125300000D01*
G75*
G02*
X93205000Y-125351000I-51000J0D01*
G01*
G37*
G36*
G01*
X91935000Y-125351000D02*
X91335000Y-125351000D01*
G75*
G02*
X91284000Y-125300000I0J51000D01*
G01*
X91284000Y-123100000D01*
G75*
G02*
X91335000Y-123049000I51000J0D01*
G01*
X91935000Y-123049000D01*
G75*
G02*
X91986000Y-123100000I0J-51000D01*
G01*
X91986000Y-125300000D01*
G75*
G02*
X91935000Y-125351000I-51000J0D01*
G01*
G37*
G36*
G01*
X90665000Y-125351000D02*
X90065000Y-125351000D01*
G75*
G02*
X90014000Y-125300000I0J51000D01*
G01*
X90014000Y-123100000D01*
G75*
G02*
X90065000Y-123049000I51000J0D01*
G01*
X90665000Y-123049000D01*
G75*
G02*
X90716000Y-123100000I0J-51000D01*
G01*
X90716000Y-125300000D01*
G75*
G02*
X90665000Y-125351000I-51000J0D01*
G01*
G37*
G36*
G01*
X89395000Y-125351000D02*
X88795000Y-125351000D01*
G75*
G02*
X88744000Y-125300000I0J51000D01*
G01*
X88744000Y-123100000D01*
G75*
G02*
X88795000Y-123049000I51000J0D01*
G01*
X89395000Y-123049000D01*
G75*
G02*
X89446000Y-123100000I0J-51000D01*
G01*
X89446000Y-125300000D01*
G75*
G02*
X89395000Y-125351000I-51000J0D01*
G01*
G37*
G36*
G01*
X116000000Y-105949000D02*
X118000000Y-105949000D01*
G75*
G02*
X118051000Y-106000000I0J-51000D01*
G01*
X118051000Y-108000000D01*
G75*
G02*
X118000000Y-108051000I-51000J0D01*
G01*
X116000000Y-108051000D01*
G75*
G02*
X115949000Y-108000000I0J51000D01*
G01*
X115949000Y-106000000D01*
G75*
G02*
X116000000Y-105949000I51000J0D01*
G01*
G37*
D13*
X114500000Y-107000000D03*
X112000000Y-107000000D03*
G36*
G01*
X119100000Y-112849000D02*
X121100000Y-112849000D01*
G75*
G02*
X121151000Y-112900000I0J-51000D01*
G01*
X121151000Y-116100000D01*
G75*
G02*
X121100000Y-116151000I-51000J0D01*
G01*
X119100000Y-116151000D01*
G75*
G02*
X119049000Y-116100000I0J51000D01*
G01*
X119049000Y-112900000D01*
G75*
G02*
X119100000Y-112849000I51000J0D01*
G01*
G37*
G36*
G01*
X107900000Y-112849000D02*
X109900000Y-112849000D01*
G75*
G02*
X109951000Y-112900000I0J-51000D01*
G01*
X109951000Y-116100000D01*
G75*
G02*
X109900000Y-116151000I-51000J0D01*
G01*
X107900000Y-116151000D01*
G75*
G02*
X107849000Y-116100000I0J51000D01*
G01*
X107849000Y-112900000D01*
G75*
G02*
X107900000Y-112849000I51000J0D01*
G01*
G37*
X117000000Y-121500000D03*
X112000000Y-121500000D03*
G36*
G01*
X108676000Y-124067000D02*
X108676000Y-122567000D01*
G75*
G02*
X108727000Y-122516000I51000J0D01*
G01*
X110727000Y-122516000D01*
G75*
G02*
X110778000Y-122567000I0J-51000D01*
G01*
X110778000Y-124067000D01*
G75*
G02*
X110727000Y-124118000I-51000J0D01*
G01*
X108727000Y-124118000D01*
G75*
G02*
X108676000Y-124067000I0J51000D01*
G01*
G37*
G36*
G01*
X100676000Y-124067000D02*
X100676000Y-122567000D01*
G75*
G02*
X100727000Y-122516000I51000J0D01*
G01*
X102727000Y-122516000D01*
G75*
G02*
X102778000Y-122567000I0J-51000D01*
G01*
X102778000Y-124067000D01*
G75*
G02*
X102727000Y-124118000I-51000J0D01*
G01*
X100727000Y-124118000D01*
G75*
G02*
X100676000Y-124067000I0J51000D01*
G01*
G37*
G36*
G01*
X102675000Y-120596000D02*
X101375000Y-120596000D01*
G75*
G02*
X101324000Y-120545000I0J51000D01*
G01*
X101324000Y-119245000D01*
G75*
G02*
X101375000Y-119194000I51000J0D01*
G01*
X102675000Y-119194000D01*
G75*
G02*
X102726000Y-119245000I0J-51000D01*
G01*
X102726000Y-120545000D01*
G75*
G02*
X102675000Y-120596000I-51000J0D01*
G01*
G37*
G36*
G01*
X108175000Y-119796000D02*
X106875000Y-119796000D01*
G75*
G02*
X106824000Y-119745000I0J51000D01*
G01*
X106824000Y-117745000D01*
G75*
G02*
X106875000Y-117694000I51000J0D01*
G01*
X108175000Y-117694000D01*
G75*
G02*
X108226000Y-117745000I0J-51000D01*
G01*
X108226000Y-119745000D01*
G75*
G02*
X108175000Y-119796000I-51000J0D01*
G01*
G37*
G36*
G01*
X102675000Y-118296000D02*
X101375000Y-118296000D01*
G75*
G02*
X101324000Y-118245000I0J51000D01*
G01*
X101324000Y-116945000D01*
G75*
G02*
X101375000Y-116894000I51000J0D01*
G01*
X102675000Y-116894000D01*
G75*
G02*
X102726000Y-116945000I0J-51000D01*
G01*
X102726000Y-118245000D01*
G75*
G02*
X102675000Y-118296000I-51000J0D01*
G01*
G37*
G36*
G01*
X95549000Y-131279752D02*
X95549000Y-130320248D01*
G75*
G02*
X95820248Y-130049000I271248J0D01*
G01*
X96579752Y-130049000D01*
G75*
G02*
X96851000Y-130320248I0J-271248D01*
G01*
X96851000Y-131279752D01*
G75*
G02*
X96579752Y-131551000I-271248J0D01*
G01*
X95820248Y-131551000D01*
G75*
G02*
X95549000Y-131279752I0J271248D01*
G01*
G37*
G36*
G01*
X93549000Y-131279752D02*
X93549000Y-130320248D01*
G75*
G02*
X93820248Y-130049000I271248J0D01*
G01*
X94579752Y-130049000D01*
G75*
G02*
X94851000Y-130320248I0J-271248D01*
G01*
X94851000Y-131279752D01*
G75*
G02*
X94579752Y-131551000I-271248J0D01*
G01*
X93820248Y-131551000D01*
G75*
G02*
X93549000Y-131279752I0J271248D01*
G01*
G37*
G36*
G01*
X91849000Y-131279752D02*
X91849000Y-130320248D01*
G75*
G02*
X92120248Y-130049000I271248J0D01*
G01*
X92879752Y-130049000D01*
G75*
G02*
X93151000Y-130320248I0J-271248D01*
G01*
X93151000Y-131279752D01*
G75*
G02*
X92879752Y-131551000I-271248J0D01*
G01*
X92120248Y-131551000D01*
G75*
G02*
X91849000Y-131279752I0J271248D01*
G01*
G37*
G36*
G01*
X89849000Y-131279752D02*
X89849000Y-130320248D01*
G75*
G02*
X90120248Y-130049000I271248J0D01*
G01*
X90879752Y-130049000D01*
G75*
G02*
X91151000Y-130320248I0J-271248D01*
G01*
X91151000Y-131279752D01*
G75*
G02*
X90879752Y-131551000I-271248J0D01*
G01*
X90120248Y-131551000D01*
G75*
G02*
X89849000Y-131279752I0J271248D01*
G01*
G37*
G36*
G01*
X88149000Y-131279752D02*
X88149000Y-130320248D01*
G75*
G02*
X88420248Y-130049000I271248J0D01*
G01*
X89179752Y-130049000D01*
G75*
G02*
X89451000Y-130320248I0J-271248D01*
G01*
X89451000Y-131279752D01*
G75*
G02*
X89179752Y-131551000I-271248J0D01*
G01*
X88420248Y-131551000D01*
G75*
G02*
X88149000Y-131279752I0J271248D01*
G01*
G37*
G36*
G01*
X86149000Y-131279752D02*
X86149000Y-130320248D01*
G75*
G02*
X86420248Y-130049000I271248J0D01*
G01*
X87179752Y-130049000D01*
G75*
G02*
X87451000Y-130320248I0J-271248D01*
G01*
X87451000Y-131279752D01*
G75*
G02*
X87179752Y-131551000I-271248J0D01*
G01*
X86420248Y-131551000D01*
G75*
G02*
X86149000Y-131279752I0J271248D01*
G01*
G37*
G36*
G01*
X86925500Y-118751000D02*
X84474500Y-118751000D01*
G75*
G02*
X83849000Y-118125500I0J625500D01*
G01*
X83849000Y-116874500D01*
G75*
G02*
X84474500Y-116249000I625500J0D01*
G01*
X86925500Y-116249000D01*
G75*
G02*
X87551000Y-116874500I0J-625500D01*
G01*
X87551000Y-118125500D01*
G75*
G02*
X86925500Y-118751000I-625500J0D01*
G01*
G37*
G36*
G01*
X77925500Y-118751000D02*
X75474500Y-118751000D01*
G75*
G02*
X74849000Y-118125500I0J625500D01*
G01*
X74849000Y-116874500D01*
G75*
G02*
X75474500Y-116249000I625500J0D01*
G01*
X77925500Y-116249000D01*
G75*
G02*
X78551000Y-116874500I0J-625500D01*
G01*
X78551000Y-118125500D01*
G75*
G02*
X77925500Y-118751000I-625500J0D01*
G01*
G37*
D16*
X123317000Y-109855000D03*
G36*
G01*
X124218000Y-111545000D02*
X124218000Y-113245000D01*
G75*
G02*
X124167000Y-113296000I-51000J0D01*
G01*
X122467000Y-113296000D01*
G75*
G02*
X122416000Y-113245000I0J51000D01*
G01*
X122416000Y-111545000D01*
G75*
G02*
X122467000Y-111494000I51000J0D01*
G01*
X124167000Y-111494000D01*
G75*
G02*
X124218000Y-111545000I0J-51000D01*
G01*
G37*
D17*
X97700000Y-123800000D03*
X97700000Y-120300000D03*
X97700000Y-116800000D03*
G36*
G01*
X96113166Y-112349000D02*
X99286834Y-112349000D01*
G75*
G02*
X99551000Y-112613166I0J-264166D01*
G01*
X99551000Y-113986834D01*
G75*
G02*
X99286834Y-114251000I-264166J0D01*
G01*
X96113166Y-114251000D01*
G75*
G02*
X95849000Y-113986834I0J264166D01*
G01*
X95849000Y-112613166D01*
G75*
G02*
X96113166Y-112349000I264166J0D01*
G01*
G37*
X119634000Y-93005000D03*
X119634000Y-96505000D03*
X119634000Y-100005000D03*
G36*
G01*
X121220834Y-104456000D02*
X118047166Y-104456000D01*
G75*
G02*
X117783000Y-104191834I0J264166D01*
G01*
X117783000Y-102818166D01*
G75*
G02*
X118047166Y-102554000I264166J0D01*
G01*
X121220834Y-102554000D01*
G75*
G02*
X121485000Y-102818166I0J-264166D01*
G01*
X121485000Y-104191834D01*
G75*
G02*
X121220834Y-104456000I-264166J0D01*
G01*
G37*
D18*
X110744000Y-103886000D03*
X110744000Y-102616000D03*
X112014000Y-103886000D03*
X112014000Y-102616000D03*
X113284000Y-103886000D03*
G36*
G01*
X112784000Y-102065000D02*
X113784000Y-102065000D01*
G75*
G02*
X113835000Y-102116000I0J-51000D01*
G01*
X113835000Y-103116000D01*
G75*
G02*
X113784000Y-103167000I-51000J0D01*
G01*
X112784000Y-103167000D01*
G75*
G02*
X112733000Y-103116000I0J51000D01*
G01*
X112733000Y-102116000D01*
G75*
G02*
X112784000Y-102065000I51000J0D01*
G01*
G37*
G36*
G01*
X91799000Y-115704000D02*
X91799000Y-113404000D01*
G75*
G02*
X91850000Y-113353000I51000J0D01*
G01*
X95350000Y-113353000D01*
G75*
G02*
X95401000Y-113404000I0J-51000D01*
G01*
X95401000Y-115704000D01*
G75*
G02*
X95350000Y-115755000I-51000J0D01*
G01*
X91850000Y-115755000D01*
G75*
G02*
X91799000Y-115704000I0J51000D01*
G01*
G37*
G36*
G01*
X86399000Y-115704000D02*
X86399000Y-113404000D01*
G75*
G02*
X86450000Y-113353000I51000J0D01*
G01*
X89950000Y-113353000D01*
G75*
G02*
X90001000Y-113404000I0J-51000D01*
G01*
X90001000Y-115704000D01*
G75*
G02*
X89950000Y-115755000I-51000J0D01*
G01*
X86450000Y-115755000D01*
G75*
G02*
X86399000Y-115704000I0J51000D01*
G01*
G37*
D10*
X104140000Y-112268000D03*
X104140000Y-110998000D03*
X104140000Y-109728000D03*
G36*
G01*
X103240000Y-107872000D02*
X105040000Y-107872000D01*
G75*
G02*
X105091000Y-107923000I0J-51000D01*
G01*
X105091000Y-108993000D01*
G75*
G02*
X105040000Y-109044000I-51000J0D01*
G01*
X103240000Y-109044000D01*
G75*
G02*
X103189000Y-108993000I0J51000D01*
G01*
X103189000Y-107923000D01*
G75*
G02*
X103240000Y-107872000I51000J0D01*
G01*
G37*
G36*
G01*
X77331756Y-109551000D02*
X75068244Y-109551000D01*
G75*
G02*
X74799000Y-109281756I0J269244D01*
G01*
X74799000Y-108393244D01*
G75*
G02*
X75068244Y-108124000I269244J0D01*
G01*
X77331756Y-108124000D01*
G75*
G02*
X77601000Y-108393244I0J-269244D01*
G01*
X77601000Y-109281756D01*
G75*
G02*
X77331756Y-109551000I-269244J0D01*
G01*
G37*
G36*
G01*
X77331756Y-112676000D02*
X75068244Y-112676000D01*
G75*
G02*
X74799000Y-112406756I0J269244D01*
G01*
X74799000Y-111518244D01*
G75*
G02*
X75068244Y-111249000I269244J0D01*
G01*
X77331756Y-111249000D01*
G75*
G02*
X77601000Y-111518244I0J-269244D01*
G01*
X77601000Y-112406756D01*
G75*
G02*
X77331756Y-112676000I-269244J0D01*
G01*
G37*
G36*
G01*
X66551000Y-113368244D02*
X66551000Y-115631756D01*
G75*
G02*
X66281756Y-115901000I-269244J0D01*
G01*
X65393244Y-115901000D01*
G75*
G02*
X65124000Y-115631756I0J269244D01*
G01*
X65124000Y-113368244D01*
G75*
G02*
X65393244Y-113099000I269244J0D01*
G01*
X66281756Y-113099000D01*
G75*
G02*
X66551000Y-113368244I0J-269244D01*
G01*
G37*
G36*
G01*
X69676000Y-113368244D02*
X69676000Y-115631756D01*
G75*
G02*
X69406756Y-115901000I-269244J0D01*
G01*
X68518244Y-115901000D01*
G75*
G02*
X68249000Y-115631756I0J269244D01*
G01*
X68249000Y-113368244D01*
G75*
G02*
X68518244Y-113099000I269244J0D01*
G01*
X69406756Y-113099000D01*
G75*
G02*
X69676000Y-113368244I0J-269244D01*
G01*
G37*
G36*
G01*
X66551000Y-110068244D02*
X66551000Y-112331756D01*
G75*
G02*
X66281756Y-112601000I-269244J0D01*
G01*
X65393244Y-112601000D01*
G75*
G02*
X65124000Y-112331756I0J269244D01*
G01*
X65124000Y-110068244D01*
G75*
G02*
X65393244Y-109799000I269244J0D01*
G01*
X66281756Y-109799000D01*
G75*
G02*
X66551000Y-110068244I0J-269244D01*
G01*
G37*
G36*
G01*
X69676000Y-110068244D02*
X69676000Y-112331756D01*
G75*
G02*
X69406756Y-112601000I-269244J0D01*
G01*
X68518244Y-112601000D01*
G75*
G02*
X68249000Y-112331756I0J269244D01*
G01*
X68249000Y-110068244D01*
G75*
G02*
X68518244Y-109799000I269244J0D01*
G01*
X69406756Y-109799000D01*
G75*
G02*
X69676000Y-110068244I0J-269244D01*
G01*
G37*
G36*
G01*
X82851000Y-122668244D02*
X82851000Y-124931756D01*
G75*
G02*
X82581756Y-125201000I-269244J0D01*
G01*
X81693244Y-125201000D01*
G75*
G02*
X81424000Y-124931756I0J269244D01*
G01*
X81424000Y-122668244D01*
G75*
G02*
X81693244Y-122399000I269244J0D01*
G01*
X82581756Y-122399000D01*
G75*
G02*
X82851000Y-122668244I0J-269244D01*
G01*
G37*
G36*
G01*
X85976000Y-122668244D02*
X85976000Y-124931756D01*
G75*
G02*
X85706756Y-125201000I-269244J0D01*
G01*
X84818244Y-125201000D01*
G75*
G02*
X84549000Y-124931756I0J269244D01*
G01*
X84549000Y-122668244D01*
G75*
G02*
X84818244Y-122399000I269244J0D01*
G01*
X85706756Y-122399000D01*
G75*
G02*
X85976000Y-122668244I0J-269244D01*
G01*
G37*
G36*
G01*
X86695702Y-120999000D02*
X87704298Y-120999000D01*
G75*
G02*
X87976000Y-121270702I0J-271702D01*
G01*
X87976000Y-122004298D01*
G75*
G02*
X87704298Y-122276000I-271702J0D01*
G01*
X86695702Y-122276000D01*
G75*
G02*
X86424000Y-122004298I0J271702D01*
G01*
X86424000Y-121270702D01*
G75*
G02*
X86695702Y-120999000I271702J0D01*
G01*
G37*
G36*
G01*
X86695702Y-118924000D02*
X87704298Y-118924000D01*
G75*
G02*
X87976000Y-119195702I0J-271702D01*
G01*
X87976000Y-119929298D01*
G75*
G02*
X87704298Y-120201000I-271702J0D01*
G01*
X86695702Y-120201000D01*
G75*
G02*
X86424000Y-119929298I0J271702D01*
G01*
X86424000Y-119195702D01*
G75*
G02*
X86695702Y-118924000I271702J0D01*
G01*
G37*
G36*
G01*
X82301000Y-104695702D02*
X82301000Y-105704298D01*
G75*
G02*
X82029298Y-105976000I-271702J0D01*
G01*
X81295702Y-105976000D01*
G75*
G02*
X81024000Y-105704298I0J271702D01*
G01*
X81024000Y-104695702D01*
G75*
G02*
X81295702Y-104424000I271702J0D01*
G01*
X82029298Y-104424000D01*
G75*
G02*
X82301000Y-104695702I0J-271702D01*
G01*
G37*
G36*
G01*
X84376000Y-104695702D02*
X84376000Y-105704298D01*
G75*
G02*
X84104298Y-105976000I-271702J0D01*
G01*
X83370702Y-105976000D01*
G75*
G02*
X83099000Y-105704298I0J271702D01*
G01*
X83099000Y-104695702D01*
G75*
G02*
X83370702Y-104424000I271702J0D01*
G01*
X84104298Y-104424000D01*
G75*
G02*
X84376000Y-104695702I0J-271702D01*
G01*
G37*
G36*
G01*
X82393000Y-106718244D02*
X82393000Y-108081756D01*
G75*
G02*
X82123756Y-108351000I-269244J0D01*
G01*
X81235244Y-108351000D01*
G75*
G02*
X80966000Y-108081756I0J269244D01*
G01*
X80966000Y-106718244D01*
G75*
G02*
X81235244Y-106449000I269244J0D01*
G01*
X82123756Y-106449000D01*
G75*
G02*
X82393000Y-106718244I0J-269244D01*
G01*
G37*
G36*
G01*
X85518000Y-106718244D02*
X85518000Y-108081756D01*
G75*
G02*
X85248756Y-108351000I-269244J0D01*
G01*
X84360244Y-108351000D01*
G75*
G02*
X84091000Y-108081756I0J269244D01*
G01*
X84091000Y-106718244D01*
G75*
G02*
X84360244Y-106449000I269244J0D01*
G01*
X85248756Y-106449000D01*
G75*
G02*
X85518000Y-106718244I0J-269244D01*
G01*
G37*
G36*
G01*
X123034752Y-98203000D02*
X122075248Y-98203000D01*
G75*
G02*
X121804000Y-97931752I0J271248D01*
G01*
X121804000Y-97172248D01*
G75*
G02*
X122075248Y-96901000I271248J0D01*
G01*
X123034752Y-96901000D01*
G75*
G02*
X123306000Y-97172248I0J-271248D01*
G01*
X123306000Y-97931752D01*
G75*
G02*
X123034752Y-98203000I-271248J0D01*
G01*
G37*
G36*
G01*
X123034752Y-100203000D02*
X122075248Y-100203000D01*
G75*
G02*
X121804000Y-99931752I0J271248D01*
G01*
X121804000Y-99172248D01*
G75*
G02*
X122075248Y-98901000I271248J0D01*
G01*
X123034752Y-98901000D01*
G75*
G02*
X123306000Y-99172248I0J-271248D01*
G01*
X123306000Y-99931752D01*
G75*
G02*
X123034752Y-100203000I-271248J0D01*
G01*
G37*
G36*
G01*
X124939752Y-98203000D02*
X123980248Y-98203000D01*
G75*
G02*
X123709000Y-97931752I0J271248D01*
G01*
X123709000Y-97172248D01*
G75*
G02*
X123980248Y-96901000I271248J0D01*
G01*
X124939752Y-96901000D01*
G75*
G02*
X125211000Y-97172248I0J-271248D01*
G01*
X125211000Y-97931752D01*
G75*
G02*
X124939752Y-98203000I-271248J0D01*
G01*
G37*
G36*
G01*
X124939752Y-100203000D02*
X123980248Y-100203000D01*
G75*
G02*
X123709000Y-99931752I0J271248D01*
G01*
X123709000Y-99172248D01*
G75*
G02*
X123980248Y-98901000I271248J0D01*
G01*
X124939752Y-98901000D01*
G75*
G02*
X125211000Y-99172248I0J-271248D01*
G01*
X125211000Y-99931752D01*
G75*
G02*
X124939752Y-100203000I-271248J0D01*
G01*
G37*
G36*
G01*
X105472834Y-104725000D02*
X102299166Y-104725000D01*
G75*
G02*
X102035000Y-104460834I0J264166D01*
G01*
X102035000Y-103087166D01*
G75*
G02*
X102299166Y-102823000I264166J0D01*
G01*
X105472834Y-102823000D01*
G75*
G02*
X105737000Y-103087166I0J-264166D01*
G01*
X105737000Y-104460834D01*
G75*
G02*
X105472834Y-104725000I-264166J0D01*
G01*
G37*
D17*
X103886000Y-100274000D03*
X103886000Y-96774000D03*
X103886000Y-93274000D03*
D15*
G36*
X87552165Y-118123874D02*
G01*
X87553000Y-118125500D01*
X87553000Y-118181860D01*
X87552990Y-118182056D01*
X87541579Y-118297912D01*
X87541503Y-118298297D01*
X87509498Y-118403803D01*
X87509348Y-118404165D01*
X87457379Y-118501392D01*
X87457161Y-118501718D01*
X87387220Y-118586943D01*
X87386943Y-118587220D01*
X87301718Y-118657161D01*
X87301392Y-118657379D01*
X87239463Y-118690481D01*
X87219335Y-118703930D01*
X87202288Y-118720977D01*
X87188894Y-118741024D01*
X87179667Y-118763298D01*
X87174963Y-118786948D01*
X87174963Y-118811054D01*
X87179667Y-118834704D01*
X87188894Y-118856978D01*
X87202289Y-118877026D01*
X87219336Y-118894073D01*
X87239383Y-118907467D01*
X87261614Y-118916677D01*
X87297653Y-118922022D01*
X87299220Y-118923265D01*
X87298927Y-118925243D01*
X87297360Y-118926000D01*
X86695796Y-118926000D01*
X86643091Y-118931191D01*
X86592495Y-118946539D01*
X86545868Y-118971461D01*
X86505001Y-119005001D01*
X86471461Y-119045868D01*
X86446539Y-119092495D01*
X86431191Y-119143091D01*
X86425990Y-119195898D01*
X86424825Y-119197524D01*
X86422835Y-119197328D01*
X86422000Y-119195702D01*
X86422000Y-119130035D01*
X86422010Y-119129839D01*
X86426444Y-119084821D01*
X86426520Y-119084436D01*
X86437862Y-119047047D01*
X86438012Y-119046685D01*
X86456427Y-119012231D01*
X86456645Y-119011905D01*
X86481429Y-118981706D01*
X86481706Y-118981429D01*
X86494247Y-118971137D01*
X86511361Y-118954023D01*
X86524756Y-118933976D01*
X86533982Y-118911702D01*
X86538686Y-118888051D01*
X86538686Y-118863945D01*
X86533981Y-118840295D01*
X86524755Y-118818021D01*
X86511360Y-118797974D01*
X86494313Y-118780927D01*
X86474266Y-118767532D01*
X86452035Y-118758323D01*
X86415996Y-118752978D01*
X86414429Y-118751735D01*
X86414722Y-118749757D01*
X86416289Y-118749000D01*
X86925406Y-118749000D01*
X87047134Y-118737011D01*
X87164099Y-118701530D01*
X87271893Y-118643913D01*
X87366374Y-118566374D01*
X87443913Y-118471893D01*
X87501530Y-118364099D01*
X87537011Y-118247134D01*
X87549010Y-118125304D01*
X87550175Y-118123678D01*
X87552165Y-118123874D01*
G37*
G36*
X78552165Y-118123874D02*
G01*
X78553000Y-118125500D01*
X78553000Y-118181860D01*
X78552990Y-118182056D01*
X78541579Y-118297912D01*
X78541503Y-118298297D01*
X78509498Y-118403803D01*
X78509348Y-118404165D01*
X78457379Y-118501392D01*
X78457161Y-118501718D01*
X78387220Y-118586943D01*
X78386943Y-118587220D01*
X78301718Y-118657161D01*
X78301392Y-118657379D01*
X78204165Y-118709348D01*
X78203803Y-118709498D01*
X78098297Y-118741503D01*
X78097912Y-118741579D01*
X77982056Y-118752990D01*
X77981860Y-118753000D01*
X77925500Y-118753000D01*
X77923768Y-118752000D01*
X77923768Y-118750000D01*
X77925304Y-118749010D01*
X78047134Y-118737011D01*
X78164099Y-118701530D01*
X78271893Y-118643913D01*
X78366374Y-118566374D01*
X78443913Y-118471893D01*
X78501530Y-118364099D01*
X78537011Y-118247134D01*
X78549010Y-118125304D01*
X78550175Y-118123678D01*
X78552165Y-118123874D01*
G37*
G36*
X74850990Y-118125304D02*
G01*
X74862989Y-118247134D01*
X74898470Y-118364099D01*
X74956087Y-118471893D01*
X75033626Y-118566374D01*
X75128107Y-118643913D01*
X75235901Y-118701530D01*
X75352866Y-118737011D01*
X75474696Y-118749010D01*
X75476322Y-118750175D01*
X75476126Y-118752165D01*
X75474500Y-118753000D01*
X75418140Y-118753000D01*
X75417944Y-118752990D01*
X75302088Y-118741579D01*
X75301703Y-118741503D01*
X75196197Y-118709498D01*
X75195835Y-118709348D01*
X75098608Y-118657379D01*
X75098282Y-118657161D01*
X75013057Y-118587220D01*
X75012780Y-118586943D01*
X74942839Y-118501718D01*
X74942621Y-118501392D01*
X74890652Y-118404165D01*
X74890502Y-118403803D01*
X74858497Y-118298297D01*
X74858421Y-118297912D01*
X74847010Y-118182056D01*
X74847000Y-118181860D01*
X74847000Y-118125500D01*
X74848000Y-118123768D01*
X74850000Y-118123768D01*
X74850990Y-118125304D01*
G37*
G36*
X83850990Y-118125304D02*
G01*
X83862989Y-118247134D01*
X83898470Y-118364099D01*
X83956087Y-118471893D01*
X84033626Y-118566374D01*
X84128107Y-118643913D01*
X84235901Y-118701530D01*
X84352866Y-118737011D01*
X84474696Y-118749010D01*
X84476322Y-118750175D01*
X84476126Y-118752165D01*
X84474500Y-118753000D01*
X84418140Y-118753000D01*
X84417944Y-118752990D01*
X84302088Y-118741579D01*
X84301703Y-118741503D01*
X84196197Y-118709498D01*
X84195835Y-118709348D01*
X84098608Y-118657379D01*
X84098282Y-118657161D01*
X84013057Y-118587220D01*
X84012780Y-118586943D01*
X83942839Y-118501718D01*
X83942621Y-118501392D01*
X83890652Y-118404165D01*
X83890502Y-118403803D01*
X83858497Y-118298297D01*
X83858421Y-118297912D01*
X83847010Y-118182056D01*
X83847000Y-118181860D01*
X83847000Y-118125500D01*
X83848000Y-118123768D01*
X83850000Y-118123768D01*
X83850990Y-118125304D01*
G37*
G36*
X75476232Y-116248000D02*
G01*
X75476232Y-116250000D01*
X75474696Y-116250990D01*
X75352866Y-116262989D01*
X75235901Y-116298470D01*
X75128107Y-116356087D01*
X75033626Y-116433626D01*
X74956087Y-116528107D01*
X74898470Y-116635901D01*
X74862989Y-116752866D01*
X74850990Y-116874696D01*
X74849825Y-116876322D01*
X74847835Y-116876126D01*
X74847000Y-116874500D01*
X74847000Y-116818140D01*
X74847010Y-116817944D01*
X74858421Y-116702088D01*
X74858497Y-116701703D01*
X74890502Y-116596197D01*
X74890652Y-116595835D01*
X74942621Y-116498608D01*
X74942839Y-116498282D01*
X75012780Y-116413057D01*
X75013057Y-116412780D01*
X75098282Y-116342839D01*
X75098608Y-116342621D01*
X75195835Y-116290652D01*
X75196197Y-116290502D01*
X75301703Y-116258497D01*
X75302088Y-116258421D01*
X75417944Y-116247010D01*
X75418140Y-116247000D01*
X75474500Y-116247000D01*
X75476232Y-116248000D01*
G37*
G36*
X84476232Y-116248000D02*
G01*
X84476232Y-116250000D01*
X84474696Y-116250990D01*
X84352866Y-116262989D01*
X84235901Y-116298470D01*
X84128107Y-116356087D01*
X84033626Y-116433626D01*
X83956087Y-116528107D01*
X83898470Y-116635901D01*
X83862989Y-116752866D01*
X83850990Y-116874696D01*
X83849825Y-116876322D01*
X83847835Y-116876126D01*
X83847000Y-116874500D01*
X83847000Y-116818140D01*
X83847010Y-116817944D01*
X83858421Y-116702088D01*
X83858497Y-116701703D01*
X83890502Y-116596197D01*
X83890652Y-116595835D01*
X83942621Y-116498608D01*
X83942839Y-116498282D01*
X84012780Y-116413057D01*
X84013057Y-116412780D01*
X84098282Y-116342839D01*
X84098608Y-116342621D01*
X84195835Y-116290652D01*
X84196197Y-116290502D01*
X84301703Y-116258497D01*
X84302088Y-116258421D01*
X84417944Y-116247010D01*
X84418140Y-116247000D01*
X84474500Y-116247000D01*
X84476232Y-116248000D01*
G37*
G36*
X77982056Y-116247010D02*
G01*
X78097912Y-116258421D01*
X78098297Y-116258497D01*
X78203803Y-116290502D01*
X78204165Y-116290652D01*
X78301392Y-116342621D01*
X78301718Y-116342839D01*
X78386943Y-116412780D01*
X78387220Y-116413057D01*
X78457161Y-116498282D01*
X78457379Y-116498608D01*
X78509348Y-116595835D01*
X78509498Y-116596197D01*
X78541503Y-116701703D01*
X78541579Y-116702088D01*
X78552990Y-116817944D01*
X78553000Y-116818140D01*
X78553000Y-116874500D01*
X78552000Y-116876232D01*
X78550000Y-116876232D01*
X78549010Y-116874696D01*
X78537011Y-116752866D01*
X78501530Y-116635901D01*
X78443913Y-116528107D01*
X78366374Y-116433626D01*
X78271893Y-116356087D01*
X78164099Y-116298470D01*
X78047134Y-116262989D01*
X77925304Y-116250990D01*
X77923678Y-116249825D01*
X77923874Y-116247835D01*
X77925500Y-116247000D01*
X77981860Y-116247000D01*
X77982056Y-116247010D01*
G37*
G36*
X86982056Y-116247010D02*
G01*
X87097912Y-116258421D01*
X87098297Y-116258497D01*
X87203803Y-116290502D01*
X87204165Y-116290652D01*
X87301392Y-116342621D01*
X87301718Y-116342839D01*
X87386943Y-116412780D01*
X87387220Y-116413057D01*
X87457161Y-116498282D01*
X87457379Y-116498608D01*
X87509348Y-116595835D01*
X87509498Y-116596197D01*
X87541503Y-116701703D01*
X87541579Y-116702088D01*
X87552990Y-116817944D01*
X87553000Y-116818140D01*
X87553000Y-116874500D01*
X87552000Y-116876232D01*
X87550000Y-116876232D01*
X87549010Y-116874696D01*
X87537011Y-116752866D01*
X87501530Y-116635901D01*
X87443913Y-116528107D01*
X87366374Y-116433626D01*
X87271893Y-116356087D01*
X87164099Y-116298470D01*
X87047134Y-116262989D01*
X86925304Y-116250990D01*
X86923678Y-116249825D01*
X86923874Y-116247835D01*
X86925500Y-116247000D01*
X86981860Y-116247000D01*
X86982056Y-116247010D01*
G37*
G36*
X95850990Y-113986638D02*
G01*
X95856046Y-114037975D01*
X95870965Y-114087157D01*
X95895191Y-114132481D01*
X95927793Y-114172207D01*
X95967519Y-114204809D01*
X96012843Y-114229035D01*
X96062025Y-114243954D01*
X96113362Y-114249010D01*
X96114988Y-114250175D01*
X96114792Y-114252165D01*
X96113166Y-114253000D01*
X96029029Y-114253000D01*
X96028833Y-114252990D01*
X95988889Y-114249056D01*
X95988504Y-114248980D01*
X95955995Y-114239119D01*
X95955633Y-114238969D01*
X95925675Y-114222955D01*
X95925349Y-114222737D01*
X95899090Y-114201187D01*
X95898813Y-114200910D01*
X95877263Y-114174651D01*
X95877045Y-114174325D01*
X95861031Y-114144367D01*
X95860881Y-114144005D01*
X95851020Y-114111496D01*
X95850944Y-114111111D01*
X95847010Y-114071167D01*
X95847000Y-114070971D01*
X95847000Y-113986834D01*
X95848000Y-113985102D01*
X95850000Y-113985102D01*
X95850990Y-113986638D01*
G37*
G36*
X99552165Y-113985208D02*
G01*
X99553000Y-113986834D01*
X99553000Y-114070971D01*
X99552990Y-114071167D01*
X99549056Y-114111111D01*
X99548980Y-114111496D01*
X99539119Y-114144005D01*
X99538969Y-114144367D01*
X99522955Y-114174325D01*
X99522737Y-114174651D01*
X99501187Y-114200910D01*
X99500910Y-114201187D01*
X99474651Y-114222737D01*
X99474325Y-114222955D01*
X99444367Y-114238969D01*
X99444005Y-114239119D01*
X99411496Y-114248980D01*
X99411111Y-114249056D01*
X99371167Y-114252990D01*
X99370971Y-114253000D01*
X99286834Y-114253000D01*
X99285102Y-114252000D01*
X99285102Y-114250000D01*
X99286638Y-114249010D01*
X99337975Y-114243954D01*
X99387157Y-114229035D01*
X99432481Y-114204809D01*
X99472207Y-114172207D01*
X99504809Y-114132481D01*
X99529035Y-114087157D01*
X99543954Y-114037975D01*
X99549010Y-113986638D01*
X99550175Y-113985012D01*
X99552165Y-113985208D01*
G37*
G36*
X96114898Y-112348000D02*
G01*
X96114898Y-112350000D01*
X96113362Y-112350990D01*
X96062025Y-112356046D01*
X96012843Y-112370965D01*
X95967519Y-112395191D01*
X95927793Y-112427793D01*
X95895191Y-112467519D01*
X95870965Y-112512843D01*
X95856046Y-112562025D01*
X95850990Y-112613362D01*
X95849825Y-112614988D01*
X95847835Y-112614792D01*
X95847000Y-112613166D01*
X95847000Y-112529029D01*
X95847010Y-112528833D01*
X95850944Y-112488889D01*
X95851020Y-112488504D01*
X95860881Y-112455995D01*
X95861031Y-112455633D01*
X95877045Y-112425675D01*
X95877263Y-112425349D01*
X95898813Y-112399090D01*
X95899090Y-112398813D01*
X95925349Y-112377263D01*
X95925675Y-112377045D01*
X95955633Y-112361031D01*
X95955995Y-112360881D01*
X95988504Y-112351020D01*
X95988889Y-112350944D01*
X96028833Y-112347010D01*
X96029029Y-112347000D01*
X96113166Y-112347000D01*
X96114898Y-112348000D01*
G37*
G36*
X99371167Y-112347010D02*
G01*
X99411111Y-112350944D01*
X99411496Y-112351020D01*
X99444005Y-112360881D01*
X99444367Y-112361031D01*
X99474325Y-112377045D01*
X99474651Y-112377263D01*
X99500910Y-112398813D01*
X99501187Y-112399090D01*
X99522737Y-112425349D01*
X99522955Y-112425675D01*
X99538969Y-112455633D01*
X99539119Y-112455995D01*
X99548980Y-112488504D01*
X99549056Y-112488889D01*
X99552990Y-112528833D01*
X99553000Y-112529029D01*
X99553000Y-112613166D01*
X99552000Y-112614898D01*
X99550000Y-112614898D01*
X99549010Y-112613362D01*
X99543954Y-112562025D01*
X99529035Y-112512843D01*
X99504809Y-112467519D01*
X99472207Y-112427793D01*
X99432481Y-112395191D01*
X99387157Y-112370965D01*
X99337975Y-112356046D01*
X99286638Y-112350990D01*
X99285012Y-112349825D01*
X99285208Y-112347835D01*
X99286834Y-112347000D01*
X99370971Y-112347000D01*
X99371167Y-112347010D01*
G37*
G36*
X91873058Y-110047010D02*
G01*
X91891366Y-110048813D01*
X91891751Y-110048889D01*
X91903456Y-110052440D01*
X91903818Y-110052590D01*
X91914608Y-110058357D01*
X91914934Y-110058575D01*
X91924388Y-110066335D01*
X91924665Y-110066612D01*
X91932585Y-110076261D01*
X91932702Y-110076419D01*
X91945928Y-110096213D01*
X91962975Y-110113260D01*
X91983022Y-110126655D01*
X92005296Y-110135881D01*
X92028946Y-110140586D01*
X92053052Y-110140586D01*
X92076703Y-110135882D01*
X92098977Y-110126656D01*
X92119024Y-110113261D01*
X92136071Y-110096214D01*
X92149298Y-110076419D01*
X92149415Y-110076261D01*
X92157335Y-110066612D01*
X92157612Y-110066335D01*
X92167066Y-110058575D01*
X92167392Y-110058357D01*
X92178182Y-110052590D01*
X92178544Y-110052440D01*
X92190249Y-110048889D01*
X92190634Y-110048813D01*
X92208942Y-110047010D01*
X92209138Y-110047000D01*
X92265500Y-110047000D01*
X92267232Y-110048000D01*
X92267232Y-110050000D01*
X92265696Y-110050990D01*
X92241411Y-110053381D01*
X92218242Y-110060410D01*
X92196892Y-110071822D01*
X92178179Y-110087179D01*
X92162822Y-110105892D01*
X92151410Y-110127242D01*
X92144381Y-110150411D01*
X92142000Y-110174594D01*
X92142000Y-111825406D01*
X92144381Y-111849589D01*
X92151410Y-111872758D01*
X92162822Y-111894108D01*
X92178179Y-111912821D01*
X92196892Y-111928178D01*
X92218242Y-111939590D01*
X92241411Y-111946619D01*
X92265696Y-111949010D01*
X92267322Y-111950175D01*
X92267126Y-111952165D01*
X92265500Y-111953000D01*
X92209138Y-111953000D01*
X92208942Y-111952990D01*
X92190634Y-111951187D01*
X92190249Y-111951111D01*
X92178544Y-111947560D01*
X92178182Y-111947410D01*
X92167392Y-111941643D01*
X92167066Y-111941425D01*
X92157612Y-111933665D01*
X92157335Y-111933388D01*
X92149415Y-111923739D01*
X92149298Y-111923581D01*
X92136072Y-111903787D01*
X92119025Y-111886740D01*
X92098978Y-111873345D01*
X92076704Y-111864119D01*
X92053054Y-111859414D01*
X92028948Y-111859414D01*
X92005297Y-111864118D01*
X91983023Y-111873344D01*
X91962976Y-111886739D01*
X91945929Y-111903786D01*
X91932702Y-111923581D01*
X91932585Y-111923739D01*
X91924665Y-111933388D01*
X91924388Y-111933665D01*
X91914934Y-111941425D01*
X91914608Y-111941643D01*
X91903818Y-111947410D01*
X91903456Y-111947560D01*
X91891751Y-111951111D01*
X91891366Y-111951187D01*
X91873058Y-111952990D01*
X91872862Y-111953000D01*
X91816500Y-111953000D01*
X91814768Y-111952000D01*
X91814768Y-111950000D01*
X91816304Y-111949010D01*
X91840589Y-111946619D01*
X91863758Y-111939590D01*
X91885108Y-111928178D01*
X91903821Y-111912821D01*
X91919178Y-111894108D01*
X91930590Y-111872758D01*
X91937619Y-111849589D01*
X91940000Y-111825406D01*
X91940000Y-110174594D01*
X91937619Y-110150411D01*
X91930590Y-110127242D01*
X91919178Y-110105892D01*
X91903821Y-110087179D01*
X91885108Y-110071822D01*
X91863758Y-110060410D01*
X91840589Y-110053381D01*
X91816304Y-110050990D01*
X91814678Y-110049825D01*
X91814874Y-110047835D01*
X91816500Y-110047000D01*
X91872862Y-110047000D01*
X91873058Y-110047010D01*
G37*
G36*
X92573058Y-110047010D02*
G01*
X92591366Y-110048813D01*
X92591751Y-110048889D01*
X92603456Y-110052440D01*
X92603818Y-110052590D01*
X92614608Y-110058357D01*
X92614934Y-110058575D01*
X92624388Y-110066335D01*
X92624665Y-110066612D01*
X92632585Y-110076261D01*
X92632702Y-110076419D01*
X92645928Y-110096213D01*
X92662975Y-110113260D01*
X92683022Y-110126655D01*
X92705296Y-110135881D01*
X92728946Y-110140586D01*
X92753052Y-110140586D01*
X92776703Y-110135882D01*
X92798977Y-110126656D01*
X92819024Y-110113261D01*
X92836071Y-110096214D01*
X92849298Y-110076419D01*
X92849415Y-110076261D01*
X92857335Y-110066612D01*
X92857612Y-110066335D01*
X92867066Y-110058575D01*
X92867392Y-110058357D01*
X92878182Y-110052590D01*
X92878544Y-110052440D01*
X92890249Y-110048889D01*
X92890634Y-110048813D01*
X92908942Y-110047010D01*
X92909138Y-110047000D01*
X92965500Y-110047000D01*
X92967232Y-110048000D01*
X92967232Y-110050000D01*
X92965696Y-110050990D01*
X92941411Y-110053381D01*
X92918242Y-110060410D01*
X92896892Y-110071822D01*
X92878179Y-110087179D01*
X92862822Y-110105892D01*
X92851410Y-110127242D01*
X92844381Y-110150411D01*
X92842000Y-110174594D01*
X92842000Y-111825406D01*
X92844381Y-111849589D01*
X92851410Y-111872758D01*
X92862822Y-111894108D01*
X92878179Y-111912821D01*
X92896892Y-111928178D01*
X92918242Y-111939590D01*
X92941411Y-111946619D01*
X92965696Y-111949010D01*
X92967322Y-111950175D01*
X92967126Y-111952165D01*
X92965500Y-111953000D01*
X92909138Y-111953000D01*
X92908942Y-111952990D01*
X92890634Y-111951187D01*
X92890249Y-111951111D01*
X92878544Y-111947560D01*
X92878182Y-111947410D01*
X92867392Y-111941643D01*
X92867066Y-111941425D01*
X92857612Y-111933665D01*
X92857335Y-111933388D01*
X92849415Y-111923739D01*
X92849298Y-111923581D01*
X92836072Y-111903787D01*
X92819025Y-111886740D01*
X92798978Y-111873345D01*
X92776704Y-111864119D01*
X92753054Y-111859414D01*
X92728948Y-111859414D01*
X92705297Y-111864118D01*
X92683023Y-111873344D01*
X92662976Y-111886739D01*
X92645929Y-111903786D01*
X92632702Y-111923581D01*
X92632585Y-111923739D01*
X92624665Y-111933388D01*
X92624388Y-111933665D01*
X92614934Y-111941425D01*
X92614608Y-111941643D01*
X92603818Y-111947410D01*
X92603456Y-111947560D01*
X92591751Y-111951111D01*
X92591366Y-111951187D01*
X92573058Y-111952990D01*
X92572862Y-111953000D01*
X92516500Y-111953000D01*
X92514768Y-111952000D01*
X92514768Y-111950000D01*
X92516304Y-111949010D01*
X92540589Y-111946619D01*
X92563758Y-111939590D01*
X92585108Y-111928178D01*
X92603821Y-111912821D01*
X92619178Y-111894108D01*
X92630590Y-111872758D01*
X92637619Y-111849589D01*
X92640000Y-111825406D01*
X92640000Y-110174594D01*
X92637619Y-110150411D01*
X92630590Y-110127242D01*
X92619178Y-110105892D01*
X92603821Y-110087179D01*
X92585108Y-110071822D01*
X92563758Y-110060410D01*
X92540589Y-110053381D01*
X92516304Y-110050990D01*
X92514678Y-110049825D01*
X92514874Y-110047835D01*
X92516500Y-110047000D01*
X92572862Y-110047000D01*
X92573058Y-110047010D01*
G37*
G36*
X90473058Y-110047010D02*
G01*
X90491366Y-110048813D01*
X90491751Y-110048889D01*
X90503456Y-110052440D01*
X90503818Y-110052590D01*
X90514608Y-110058357D01*
X90514934Y-110058575D01*
X90524388Y-110066335D01*
X90524665Y-110066612D01*
X90532585Y-110076261D01*
X90532702Y-110076419D01*
X90545928Y-110096213D01*
X90562975Y-110113260D01*
X90583022Y-110126655D01*
X90605296Y-110135881D01*
X90628946Y-110140586D01*
X90653052Y-110140586D01*
X90676703Y-110135882D01*
X90698977Y-110126656D01*
X90719024Y-110113261D01*
X90736071Y-110096214D01*
X90749298Y-110076419D01*
X90749415Y-110076261D01*
X90757335Y-110066612D01*
X90757612Y-110066335D01*
X90767066Y-110058575D01*
X90767392Y-110058357D01*
X90778182Y-110052590D01*
X90778544Y-110052440D01*
X90790249Y-110048889D01*
X90790634Y-110048813D01*
X90808942Y-110047010D01*
X90809138Y-110047000D01*
X90865500Y-110047000D01*
X90867232Y-110048000D01*
X90867232Y-110050000D01*
X90865696Y-110050990D01*
X90841411Y-110053381D01*
X90818242Y-110060410D01*
X90796892Y-110071822D01*
X90778179Y-110087179D01*
X90762822Y-110105892D01*
X90751410Y-110127242D01*
X90744381Y-110150411D01*
X90742000Y-110174594D01*
X90742000Y-111825406D01*
X90744381Y-111849589D01*
X90751410Y-111872758D01*
X90762822Y-111894108D01*
X90778179Y-111912821D01*
X90796892Y-111928178D01*
X90818242Y-111939590D01*
X90841411Y-111946619D01*
X90865696Y-111949010D01*
X90867322Y-111950175D01*
X90867126Y-111952165D01*
X90865500Y-111953000D01*
X90809138Y-111953000D01*
X90808942Y-111952990D01*
X90790634Y-111951187D01*
X90790249Y-111951111D01*
X90778544Y-111947560D01*
X90778182Y-111947410D01*
X90767392Y-111941643D01*
X90767066Y-111941425D01*
X90757612Y-111933665D01*
X90757335Y-111933388D01*
X90749415Y-111923739D01*
X90749298Y-111923581D01*
X90736072Y-111903787D01*
X90719025Y-111886740D01*
X90698978Y-111873345D01*
X90676704Y-111864119D01*
X90653054Y-111859414D01*
X90628948Y-111859414D01*
X90605297Y-111864118D01*
X90583023Y-111873344D01*
X90562976Y-111886739D01*
X90545929Y-111903786D01*
X90532702Y-111923581D01*
X90532585Y-111923739D01*
X90524665Y-111933388D01*
X90524388Y-111933665D01*
X90514934Y-111941425D01*
X90514608Y-111941643D01*
X90503818Y-111947410D01*
X90503456Y-111947560D01*
X90491751Y-111951111D01*
X90491366Y-111951187D01*
X90473058Y-111952990D01*
X90472862Y-111953000D01*
X90416500Y-111953000D01*
X90414768Y-111952000D01*
X90414768Y-111950000D01*
X90416304Y-111949010D01*
X90440589Y-111946619D01*
X90463758Y-111939590D01*
X90485108Y-111928178D01*
X90503821Y-111912821D01*
X90519178Y-111894108D01*
X90530590Y-111872758D01*
X90537619Y-111849589D01*
X90540000Y-111825406D01*
X90540000Y-110174594D01*
X90537619Y-110150411D01*
X90530590Y-110127242D01*
X90519178Y-110105892D01*
X90503821Y-110087179D01*
X90485108Y-110071822D01*
X90463758Y-110060410D01*
X90440589Y-110053381D01*
X90416304Y-110050990D01*
X90414678Y-110049825D01*
X90414874Y-110047835D01*
X90416500Y-110047000D01*
X90472862Y-110047000D01*
X90473058Y-110047010D01*
G37*
G36*
X93273058Y-110047010D02*
G01*
X93291366Y-110048813D01*
X93291751Y-110048889D01*
X93303456Y-110052440D01*
X93303818Y-110052590D01*
X93314608Y-110058357D01*
X93314934Y-110058575D01*
X93324388Y-110066335D01*
X93324665Y-110066612D01*
X93332585Y-110076261D01*
X93332702Y-110076419D01*
X93345928Y-110096213D01*
X93362975Y-110113260D01*
X93383022Y-110126655D01*
X93405296Y-110135881D01*
X93428946Y-110140586D01*
X93453052Y-110140586D01*
X93476703Y-110135882D01*
X93498977Y-110126656D01*
X93519024Y-110113261D01*
X93536071Y-110096214D01*
X93549298Y-110076419D01*
X93549415Y-110076261D01*
X93557335Y-110066612D01*
X93557612Y-110066335D01*
X93567066Y-110058575D01*
X93567392Y-110058357D01*
X93578182Y-110052590D01*
X93578544Y-110052440D01*
X93590249Y-110048889D01*
X93590634Y-110048813D01*
X93608942Y-110047010D01*
X93609138Y-110047000D01*
X93665500Y-110047000D01*
X93667232Y-110048000D01*
X93667232Y-110050000D01*
X93665696Y-110050990D01*
X93641411Y-110053381D01*
X93618242Y-110060410D01*
X93596892Y-110071822D01*
X93578179Y-110087179D01*
X93562822Y-110105892D01*
X93551410Y-110127242D01*
X93544381Y-110150411D01*
X93542000Y-110174594D01*
X93542000Y-111825406D01*
X93544381Y-111849589D01*
X93551410Y-111872758D01*
X93562822Y-111894108D01*
X93578179Y-111912821D01*
X93596892Y-111928178D01*
X93618242Y-111939590D01*
X93641411Y-111946619D01*
X93665696Y-111949010D01*
X93667322Y-111950175D01*
X93667126Y-111952165D01*
X93665500Y-111953000D01*
X93609138Y-111953000D01*
X93608942Y-111952990D01*
X93590634Y-111951187D01*
X93590249Y-111951111D01*
X93578544Y-111947560D01*
X93578182Y-111947410D01*
X93567392Y-111941643D01*
X93567066Y-111941425D01*
X93557612Y-111933665D01*
X93557335Y-111933388D01*
X93549415Y-111923739D01*
X93549298Y-111923581D01*
X93536072Y-111903787D01*
X93519025Y-111886740D01*
X93498978Y-111873345D01*
X93476704Y-111864119D01*
X93453054Y-111859414D01*
X93428948Y-111859414D01*
X93405297Y-111864118D01*
X93383023Y-111873344D01*
X93362976Y-111886739D01*
X93345929Y-111903786D01*
X93332702Y-111923581D01*
X93332585Y-111923739D01*
X93324665Y-111933388D01*
X93324388Y-111933665D01*
X93314934Y-111941425D01*
X93314608Y-111941643D01*
X93303818Y-111947410D01*
X93303456Y-111947560D01*
X93291751Y-111951111D01*
X93291366Y-111951187D01*
X93273058Y-111952990D01*
X93272862Y-111953000D01*
X93216500Y-111953000D01*
X93214768Y-111952000D01*
X93214768Y-111950000D01*
X93216304Y-111949010D01*
X93240589Y-111946619D01*
X93263758Y-111939590D01*
X93285108Y-111928178D01*
X93303821Y-111912821D01*
X93319178Y-111894108D01*
X93330590Y-111872758D01*
X93337619Y-111849589D01*
X93340000Y-111825406D01*
X93340000Y-110174594D01*
X93337619Y-110150411D01*
X93330590Y-110127242D01*
X93319178Y-110105892D01*
X93303821Y-110087179D01*
X93285108Y-110071822D01*
X93263758Y-110060410D01*
X93240589Y-110053381D01*
X93216304Y-110050990D01*
X93214678Y-110049825D01*
X93214874Y-110047835D01*
X93216500Y-110047000D01*
X93272862Y-110047000D01*
X93273058Y-110047010D01*
G37*
G36*
X89773058Y-110047010D02*
G01*
X89791366Y-110048813D01*
X89791751Y-110048889D01*
X89803456Y-110052440D01*
X89803818Y-110052590D01*
X89814608Y-110058357D01*
X89814934Y-110058575D01*
X89824388Y-110066335D01*
X89824665Y-110066612D01*
X89832585Y-110076261D01*
X89832702Y-110076419D01*
X89845928Y-110096213D01*
X89862975Y-110113260D01*
X89883022Y-110126655D01*
X89905296Y-110135881D01*
X89928946Y-110140586D01*
X89953052Y-110140586D01*
X89976703Y-110135882D01*
X89998977Y-110126656D01*
X90019024Y-110113261D01*
X90036071Y-110096214D01*
X90049298Y-110076419D01*
X90049415Y-110076261D01*
X90057335Y-110066612D01*
X90057612Y-110066335D01*
X90067066Y-110058575D01*
X90067392Y-110058357D01*
X90078182Y-110052590D01*
X90078544Y-110052440D01*
X90090249Y-110048889D01*
X90090634Y-110048813D01*
X90108942Y-110047010D01*
X90109138Y-110047000D01*
X90165500Y-110047000D01*
X90167232Y-110048000D01*
X90167232Y-110050000D01*
X90165696Y-110050990D01*
X90141411Y-110053381D01*
X90118242Y-110060410D01*
X90096892Y-110071822D01*
X90078179Y-110087179D01*
X90062822Y-110105892D01*
X90051410Y-110127242D01*
X90044381Y-110150411D01*
X90042000Y-110174594D01*
X90042000Y-111825406D01*
X90044381Y-111849589D01*
X90051410Y-111872758D01*
X90062822Y-111894108D01*
X90078179Y-111912821D01*
X90096892Y-111928178D01*
X90118242Y-111939590D01*
X90141411Y-111946619D01*
X90165696Y-111949010D01*
X90167322Y-111950175D01*
X90167126Y-111952165D01*
X90165500Y-111953000D01*
X90109138Y-111953000D01*
X90108942Y-111952990D01*
X90090634Y-111951187D01*
X90090249Y-111951111D01*
X90078544Y-111947560D01*
X90078182Y-111947410D01*
X90067392Y-111941643D01*
X90067066Y-111941425D01*
X90057612Y-111933665D01*
X90057335Y-111933388D01*
X90049415Y-111923739D01*
X90049298Y-111923581D01*
X90036072Y-111903787D01*
X90019025Y-111886740D01*
X89998978Y-111873345D01*
X89976704Y-111864119D01*
X89953054Y-111859414D01*
X89928948Y-111859414D01*
X89905297Y-111864118D01*
X89883023Y-111873344D01*
X89862976Y-111886739D01*
X89845929Y-111903786D01*
X89832702Y-111923581D01*
X89832585Y-111923739D01*
X89824665Y-111933388D01*
X89824388Y-111933665D01*
X89814934Y-111941425D01*
X89814608Y-111941643D01*
X89803818Y-111947410D01*
X89803456Y-111947560D01*
X89791751Y-111951111D01*
X89791366Y-111951187D01*
X89773058Y-111952990D01*
X89772862Y-111953000D01*
X89716500Y-111953000D01*
X89714768Y-111952000D01*
X89714768Y-111950000D01*
X89716304Y-111949010D01*
X89740589Y-111946619D01*
X89763758Y-111939590D01*
X89785108Y-111928178D01*
X89803821Y-111912821D01*
X89819178Y-111894108D01*
X89830590Y-111872758D01*
X89837619Y-111849589D01*
X89840000Y-111825406D01*
X89840000Y-110174594D01*
X89837619Y-110150411D01*
X89830590Y-110127242D01*
X89819178Y-110105892D01*
X89803821Y-110087179D01*
X89785108Y-110071822D01*
X89763758Y-110060410D01*
X89740589Y-110053381D01*
X89716304Y-110050990D01*
X89714678Y-110049825D01*
X89714874Y-110047835D01*
X89716500Y-110047000D01*
X89772862Y-110047000D01*
X89773058Y-110047010D01*
G37*
G36*
X89073058Y-110047010D02*
G01*
X89091366Y-110048813D01*
X89091751Y-110048889D01*
X89103456Y-110052440D01*
X89103818Y-110052590D01*
X89114608Y-110058357D01*
X89114934Y-110058575D01*
X89124388Y-110066335D01*
X89124665Y-110066612D01*
X89132585Y-110076261D01*
X89132702Y-110076419D01*
X89145928Y-110096213D01*
X89162975Y-110113260D01*
X89183022Y-110126655D01*
X89205296Y-110135881D01*
X89228946Y-110140586D01*
X89253052Y-110140586D01*
X89276703Y-110135882D01*
X89298977Y-110126656D01*
X89319024Y-110113261D01*
X89336071Y-110096214D01*
X89349298Y-110076419D01*
X89349415Y-110076261D01*
X89357335Y-110066612D01*
X89357612Y-110066335D01*
X89367066Y-110058575D01*
X89367392Y-110058357D01*
X89378182Y-110052590D01*
X89378544Y-110052440D01*
X89390249Y-110048889D01*
X89390634Y-110048813D01*
X89408942Y-110047010D01*
X89409138Y-110047000D01*
X89465500Y-110047000D01*
X89467232Y-110048000D01*
X89467232Y-110050000D01*
X89465696Y-110050990D01*
X89441411Y-110053381D01*
X89418242Y-110060410D01*
X89396892Y-110071822D01*
X89378179Y-110087179D01*
X89362822Y-110105892D01*
X89351410Y-110127242D01*
X89344381Y-110150411D01*
X89342000Y-110174594D01*
X89342000Y-111825406D01*
X89344381Y-111849589D01*
X89351410Y-111872758D01*
X89362822Y-111894108D01*
X89378179Y-111912821D01*
X89396892Y-111928178D01*
X89418242Y-111939590D01*
X89441411Y-111946619D01*
X89465696Y-111949010D01*
X89467322Y-111950175D01*
X89467126Y-111952165D01*
X89465500Y-111953000D01*
X89409138Y-111953000D01*
X89408942Y-111952990D01*
X89390634Y-111951187D01*
X89390249Y-111951111D01*
X89378544Y-111947560D01*
X89378182Y-111947410D01*
X89367392Y-111941643D01*
X89367066Y-111941425D01*
X89357612Y-111933665D01*
X89357335Y-111933388D01*
X89349415Y-111923739D01*
X89349298Y-111923581D01*
X89336072Y-111903787D01*
X89319025Y-111886740D01*
X89298978Y-111873345D01*
X89276704Y-111864119D01*
X89253054Y-111859414D01*
X89228948Y-111859414D01*
X89205297Y-111864118D01*
X89183023Y-111873344D01*
X89162976Y-111886739D01*
X89145929Y-111903786D01*
X89132702Y-111923581D01*
X89132585Y-111923739D01*
X89124665Y-111933388D01*
X89124388Y-111933665D01*
X89114934Y-111941425D01*
X89114608Y-111941643D01*
X89103818Y-111947410D01*
X89103456Y-111947560D01*
X89091751Y-111951111D01*
X89091366Y-111951187D01*
X89073058Y-111952990D01*
X89072862Y-111953000D01*
X89016500Y-111953000D01*
X89014768Y-111952000D01*
X89014768Y-111950000D01*
X89016304Y-111949010D01*
X89040589Y-111946619D01*
X89063758Y-111939590D01*
X89085108Y-111928178D01*
X89103821Y-111912821D01*
X89119178Y-111894108D01*
X89130590Y-111872758D01*
X89137619Y-111849589D01*
X89140000Y-111825406D01*
X89140000Y-110174594D01*
X89137619Y-110150411D01*
X89130590Y-110127242D01*
X89119178Y-110105892D01*
X89103821Y-110087179D01*
X89085108Y-110071822D01*
X89063758Y-110060410D01*
X89040589Y-110053381D01*
X89016304Y-110050990D01*
X89014678Y-110049825D01*
X89014874Y-110047835D01*
X89016500Y-110047000D01*
X89072862Y-110047000D01*
X89073058Y-110047010D01*
G37*
G36*
X93973058Y-110047010D02*
G01*
X93991366Y-110048813D01*
X93991751Y-110048889D01*
X94003456Y-110052440D01*
X94003818Y-110052590D01*
X94014608Y-110058357D01*
X94014934Y-110058575D01*
X94024388Y-110066335D01*
X94024665Y-110066612D01*
X94032585Y-110076261D01*
X94032702Y-110076419D01*
X94045928Y-110096213D01*
X94062975Y-110113260D01*
X94083022Y-110126655D01*
X94105296Y-110135881D01*
X94128946Y-110140586D01*
X94153052Y-110140586D01*
X94176703Y-110135882D01*
X94198977Y-110126656D01*
X94219024Y-110113261D01*
X94236071Y-110096214D01*
X94249298Y-110076419D01*
X94249415Y-110076261D01*
X94257335Y-110066612D01*
X94257612Y-110066335D01*
X94267066Y-110058575D01*
X94267392Y-110058357D01*
X94278182Y-110052590D01*
X94278544Y-110052440D01*
X94290249Y-110048889D01*
X94290634Y-110048813D01*
X94308942Y-110047010D01*
X94309138Y-110047000D01*
X94365500Y-110047000D01*
X94367232Y-110048000D01*
X94367232Y-110050000D01*
X94365696Y-110050990D01*
X94341411Y-110053381D01*
X94318242Y-110060410D01*
X94296892Y-110071822D01*
X94278179Y-110087179D01*
X94262822Y-110105892D01*
X94251410Y-110127242D01*
X94244381Y-110150411D01*
X94242000Y-110174594D01*
X94242000Y-111825406D01*
X94244381Y-111849589D01*
X94251410Y-111872758D01*
X94262822Y-111894108D01*
X94278179Y-111912821D01*
X94296892Y-111928178D01*
X94318242Y-111939590D01*
X94341411Y-111946619D01*
X94365696Y-111949010D01*
X94367322Y-111950175D01*
X94367126Y-111952165D01*
X94365500Y-111953000D01*
X94309138Y-111953000D01*
X94308942Y-111952990D01*
X94290634Y-111951187D01*
X94290249Y-111951111D01*
X94278544Y-111947560D01*
X94278182Y-111947410D01*
X94267392Y-111941643D01*
X94267066Y-111941425D01*
X94257612Y-111933665D01*
X94257335Y-111933388D01*
X94249415Y-111923739D01*
X94249298Y-111923581D01*
X94236072Y-111903787D01*
X94219025Y-111886740D01*
X94198978Y-111873345D01*
X94176704Y-111864119D01*
X94153054Y-111859414D01*
X94128948Y-111859414D01*
X94105297Y-111864118D01*
X94083023Y-111873344D01*
X94062976Y-111886739D01*
X94045929Y-111903786D01*
X94032702Y-111923581D01*
X94032585Y-111923739D01*
X94024665Y-111933388D01*
X94024388Y-111933665D01*
X94014934Y-111941425D01*
X94014608Y-111941643D01*
X94003818Y-111947410D01*
X94003456Y-111947560D01*
X93991751Y-111951111D01*
X93991366Y-111951187D01*
X93973058Y-111952990D01*
X93972862Y-111953000D01*
X93916500Y-111953000D01*
X93914768Y-111952000D01*
X93914768Y-111950000D01*
X93916304Y-111949010D01*
X93940589Y-111946619D01*
X93963758Y-111939590D01*
X93985108Y-111928178D01*
X94003821Y-111912821D01*
X94019178Y-111894108D01*
X94030590Y-111872758D01*
X94037619Y-111849589D01*
X94040000Y-111825406D01*
X94040000Y-110174594D01*
X94037619Y-110150411D01*
X94030590Y-110127242D01*
X94019178Y-110105892D01*
X94003821Y-110087179D01*
X93985108Y-110071822D01*
X93963758Y-110060410D01*
X93940589Y-110053381D01*
X93916304Y-110050990D01*
X93914678Y-110049825D01*
X93914874Y-110047835D01*
X93916500Y-110047000D01*
X93972862Y-110047000D01*
X93973058Y-110047010D01*
G37*
G36*
X88373058Y-110047010D02*
G01*
X88391366Y-110048813D01*
X88391751Y-110048889D01*
X88403456Y-110052440D01*
X88403818Y-110052590D01*
X88414608Y-110058357D01*
X88414934Y-110058575D01*
X88424388Y-110066335D01*
X88424665Y-110066612D01*
X88432585Y-110076261D01*
X88432702Y-110076419D01*
X88445928Y-110096213D01*
X88462975Y-110113260D01*
X88483022Y-110126655D01*
X88505296Y-110135881D01*
X88528946Y-110140586D01*
X88553052Y-110140586D01*
X88576703Y-110135882D01*
X88598977Y-110126656D01*
X88619024Y-110113261D01*
X88636071Y-110096214D01*
X88649298Y-110076419D01*
X88649415Y-110076261D01*
X88657335Y-110066612D01*
X88657612Y-110066335D01*
X88667066Y-110058575D01*
X88667392Y-110058357D01*
X88678182Y-110052590D01*
X88678544Y-110052440D01*
X88690249Y-110048889D01*
X88690634Y-110048813D01*
X88708942Y-110047010D01*
X88709138Y-110047000D01*
X88765500Y-110047000D01*
X88767232Y-110048000D01*
X88767232Y-110050000D01*
X88765696Y-110050990D01*
X88741411Y-110053381D01*
X88718242Y-110060410D01*
X88696892Y-110071822D01*
X88678179Y-110087179D01*
X88662822Y-110105892D01*
X88651410Y-110127242D01*
X88644381Y-110150411D01*
X88642000Y-110174594D01*
X88642000Y-111825406D01*
X88644381Y-111849589D01*
X88651410Y-111872758D01*
X88662822Y-111894108D01*
X88678179Y-111912821D01*
X88696892Y-111928178D01*
X88718242Y-111939590D01*
X88741411Y-111946619D01*
X88765696Y-111949010D01*
X88767322Y-111950175D01*
X88767126Y-111952165D01*
X88765500Y-111953000D01*
X88709138Y-111953000D01*
X88708942Y-111952990D01*
X88690634Y-111951187D01*
X88690249Y-111951111D01*
X88678544Y-111947560D01*
X88678182Y-111947410D01*
X88667392Y-111941643D01*
X88667066Y-111941425D01*
X88657612Y-111933665D01*
X88657335Y-111933388D01*
X88649415Y-111923739D01*
X88649298Y-111923581D01*
X88636072Y-111903787D01*
X88619025Y-111886740D01*
X88598978Y-111873345D01*
X88576704Y-111864119D01*
X88553054Y-111859414D01*
X88528948Y-111859414D01*
X88505297Y-111864118D01*
X88483023Y-111873344D01*
X88462976Y-111886739D01*
X88445929Y-111903786D01*
X88432702Y-111923581D01*
X88432585Y-111923739D01*
X88424665Y-111933388D01*
X88424388Y-111933665D01*
X88414934Y-111941425D01*
X88414608Y-111941643D01*
X88403818Y-111947410D01*
X88403456Y-111947560D01*
X88391751Y-111951111D01*
X88391366Y-111951187D01*
X88373058Y-111952990D01*
X88372862Y-111953000D01*
X88316500Y-111953000D01*
X88314768Y-111952000D01*
X88314768Y-111950000D01*
X88316304Y-111949010D01*
X88340589Y-111946619D01*
X88363758Y-111939590D01*
X88385108Y-111928178D01*
X88403821Y-111912821D01*
X88419178Y-111894108D01*
X88430590Y-111872758D01*
X88437619Y-111849589D01*
X88440000Y-111825406D01*
X88440000Y-110174594D01*
X88437619Y-110150411D01*
X88430590Y-110127242D01*
X88419178Y-110105892D01*
X88403821Y-110087179D01*
X88385108Y-110071822D01*
X88363758Y-110060410D01*
X88340589Y-110053381D01*
X88316304Y-110050990D01*
X88314678Y-110049825D01*
X88314874Y-110047835D01*
X88316500Y-110047000D01*
X88372862Y-110047000D01*
X88373058Y-110047010D01*
G37*
G36*
X94673058Y-110047010D02*
G01*
X94691366Y-110048813D01*
X94691751Y-110048889D01*
X94703456Y-110052440D01*
X94703818Y-110052590D01*
X94714608Y-110058357D01*
X94714934Y-110058575D01*
X94724388Y-110066335D01*
X94724665Y-110066612D01*
X94732585Y-110076261D01*
X94732702Y-110076419D01*
X94745928Y-110096213D01*
X94762975Y-110113260D01*
X94783022Y-110126655D01*
X94805296Y-110135881D01*
X94828946Y-110140586D01*
X94853052Y-110140586D01*
X94876703Y-110135882D01*
X94898977Y-110126656D01*
X94919024Y-110113261D01*
X94936071Y-110096214D01*
X94949298Y-110076419D01*
X94949415Y-110076261D01*
X94957335Y-110066612D01*
X94957612Y-110066335D01*
X94967066Y-110058575D01*
X94967392Y-110058357D01*
X94978182Y-110052590D01*
X94978544Y-110052440D01*
X94990249Y-110048889D01*
X94990634Y-110048813D01*
X95008942Y-110047010D01*
X95009138Y-110047000D01*
X95065500Y-110047000D01*
X95067232Y-110048000D01*
X95067232Y-110050000D01*
X95065696Y-110050990D01*
X95041411Y-110053381D01*
X95018242Y-110060410D01*
X94996892Y-110071822D01*
X94978179Y-110087179D01*
X94962822Y-110105892D01*
X94951410Y-110127242D01*
X94944381Y-110150411D01*
X94942000Y-110174594D01*
X94942000Y-111825406D01*
X94944381Y-111849589D01*
X94951410Y-111872758D01*
X94962822Y-111894108D01*
X94978179Y-111912821D01*
X94996892Y-111928178D01*
X95018242Y-111939590D01*
X95041411Y-111946619D01*
X95065696Y-111949010D01*
X95067322Y-111950175D01*
X95067126Y-111952165D01*
X95065500Y-111953000D01*
X95009138Y-111953000D01*
X95008942Y-111952990D01*
X94990634Y-111951187D01*
X94990249Y-111951111D01*
X94978544Y-111947560D01*
X94978182Y-111947410D01*
X94967392Y-111941643D01*
X94967066Y-111941425D01*
X94957612Y-111933665D01*
X94957335Y-111933388D01*
X94949415Y-111923739D01*
X94949298Y-111923581D01*
X94936072Y-111903787D01*
X94919025Y-111886740D01*
X94898978Y-111873345D01*
X94876704Y-111864119D01*
X94853054Y-111859414D01*
X94828948Y-111859414D01*
X94805297Y-111864118D01*
X94783023Y-111873344D01*
X94762976Y-111886739D01*
X94745929Y-111903786D01*
X94732702Y-111923581D01*
X94732585Y-111923739D01*
X94724665Y-111933388D01*
X94724388Y-111933665D01*
X94714934Y-111941425D01*
X94714608Y-111941643D01*
X94703818Y-111947410D01*
X94703456Y-111947560D01*
X94691751Y-111951111D01*
X94691366Y-111951187D01*
X94673058Y-111952990D01*
X94672862Y-111953000D01*
X94616500Y-111953000D01*
X94614768Y-111952000D01*
X94614768Y-111950000D01*
X94616304Y-111949010D01*
X94640589Y-111946619D01*
X94663758Y-111939590D01*
X94685108Y-111928178D01*
X94703821Y-111912821D01*
X94719178Y-111894108D01*
X94730590Y-111872758D01*
X94737619Y-111849589D01*
X94740000Y-111825406D01*
X94740000Y-110174594D01*
X94737619Y-110150411D01*
X94730590Y-110127242D01*
X94719178Y-110105892D01*
X94703821Y-110087179D01*
X94685108Y-110071822D01*
X94663758Y-110060410D01*
X94640589Y-110053381D01*
X94616304Y-110050990D01*
X94614678Y-110049825D01*
X94614874Y-110047835D01*
X94616500Y-110047000D01*
X94672862Y-110047000D01*
X94673058Y-110047010D01*
G37*
G36*
X91173058Y-110047010D02*
G01*
X91191366Y-110048813D01*
X91191751Y-110048889D01*
X91203456Y-110052440D01*
X91203818Y-110052590D01*
X91214608Y-110058357D01*
X91214934Y-110058575D01*
X91224388Y-110066335D01*
X91224665Y-110066612D01*
X91232585Y-110076261D01*
X91232702Y-110076419D01*
X91245928Y-110096213D01*
X91262975Y-110113260D01*
X91283022Y-110126655D01*
X91305296Y-110135881D01*
X91328946Y-110140586D01*
X91353052Y-110140586D01*
X91376703Y-110135882D01*
X91398977Y-110126656D01*
X91419024Y-110113261D01*
X91436071Y-110096214D01*
X91449298Y-110076419D01*
X91449415Y-110076261D01*
X91457335Y-110066612D01*
X91457612Y-110066335D01*
X91467066Y-110058575D01*
X91467392Y-110058357D01*
X91478182Y-110052590D01*
X91478544Y-110052440D01*
X91490249Y-110048889D01*
X91490634Y-110048813D01*
X91508942Y-110047010D01*
X91509138Y-110047000D01*
X91565500Y-110047000D01*
X91567232Y-110048000D01*
X91567232Y-110050000D01*
X91565696Y-110050990D01*
X91541411Y-110053381D01*
X91518242Y-110060410D01*
X91496892Y-110071822D01*
X91478179Y-110087179D01*
X91462822Y-110105892D01*
X91451410Y-110127242D01*
X91444381Y-110150411D01*
X91442000Y-110174594D01*
X91442000Y-111825406D01*
X91444381Y-111849589D01*
X91451410Y-111872758D01*
X91462822Y-111894108D01*
X91478179Y-111912821D01*
X91496892Y-111928178D01*
X91518242Y-111939590D01*
X91541411Y-111946619D01*
X91565696Y-111949010D01*
X91567322Y-111950175D01*
X91567126Y-111952165D01*
X91565500Y-111953000D01*
X91509138Y-111953000D01*
X91508942Y-111952990D01*
X91490634Y-111951187D01*
X91490249Y-111951111D01*
X91478544Y-111947560D01*
X91478182Y-111947410D01*
X91467392Y-111941643D01*
X91467066Y-111941425D01*
X91457612Y-111933665D01*
X91457335Y-111933388D01*
X91449415Y-111923739D01*
X91449298Y-111923581D01*
X91436072Y-111903787D01*
X91419025Y-111886740D01*
X91398978Y-111873345D01*
X91376704Y-111864119D01*
X91353054Y-111859414D01*
X91328948Y-111859414D01*
X91305297Y-111864118D01*
X91283023Y-111873344D01*
X91262976Y-111886739D01*
X91245929Y-111903786D01*
X91232702Y-111923581D01*
X91232585Y-111923739D01*
X91224665Y-111933388D01*
X91224388Y-111933665D01*
X91214934Y-111941425D01*
X91214608Y-111941643D01*
X91203818Y-111947410D01*
X91203456Y-111947560D01*
X91191751Y-111951111D01*
X91191366Y-111951187D01*
X91173058Y-111952990D01*
X91172862Y-111953000D01*
X91116500Y-111953000D01*
X91114768Y-111952000D01*
X91114768Y-111950000D01*
X91116304Y-111949010D01*
X91140589Y-111946619D01*
X91163758Y-111939590D01*
X91185108Y-111928178D01*
X91203821Y-111912821D01*
X91219178Y-111894108D01*
X91230590Y-111872758D01*
X91237619Y-111849589D01*
X91240000Y-111825406D01*
X91240000Y-110174594D01*
X91237619Y-110150411D01*
X91230590Y-110127242D01*
X91219178Y-110105892D01*
X91203821Y-110087179D01*
X91185108Y-110071822D01*
X91163758Y-110060410D01*
X91140589Y-110053381D01*
X91116304Y-110050990D01*
X91114678Y-110049825D01*
X91114874Y-110047835D01*
X91116500Y-110047000D01*
X91172862Y-110047000D01*
X91173058Y-110047010D01*
G37*
G36*
X95373058Y-110047010D02*
G01*
X95391366Y-110048813D01*
X95391751Y-110048889D01*
X95403456Y-110052440D01*
X95403818Y-110052590D01*
X95414608Y-110058357D01*
X95414934Y-110058575D01*
X95424388Y-110066335D01*
X95424665Y-110066612D01*
X95432585Y-110076261D01*
X95432702Y-110076419D01*
X95445928Y-110096213D01*
X95462975Y-110113260D01*
X95483022Y-110126655D01*
X95505296Y-110135881D01*
X95528946Y-110140586D01*
X95553052Y-110140586D01*
X95576703Y-110135882D01*
X95598977Y-110126656D01*
X95619024Y-110113261D01*
X95636071Y-110096214D01*
X95649298Y-110076419D01*
X95649415Y-110076261D01*
X95657335Y-110066612D01*
X95657612Y-110066335D01*
X95667066Y-110058575D01*
X95667392Y-110058357D01*
X95678182Y-110052590D01*
X95678544Y-110052440D01*
X95690249Y-110048889D01*
X95690634Y-110048813D01*
X95708942Y-110047010D01*
X95709138Y-110047000D01*
X95765500Y-110047000D01*
X95767232Y-110048000D01*
X95767232Y-110050000D01*
X95765696Y-110050990D01*
X95741411Y-110053381D01*
X95718242Y-110060410D01*
X95696892Y-110071822D01*
X95678179Y-110087179D01*
X95662822Y-110105892D01*
X95651410Y-110127242D01*
X95644381Y-110150411D01*
X95642000Y-110174594D01*
X95642000Y-111825406D01*
X95644381Y-111849589D01*
X95651410Y-111872758D01*
X95662822Y-111894108D01*
X95678179Y-111912821D01*
X95696892Y-111928178D01*
X95718242Y-111939590D01*
X95741411Y-111946619D01*
X95765696Y-111949010D01*
X95767322Y-111950175D01*
X95767126Y-111952165D01*
X95765500Y-111953000D01*
X95709138Y-111953000D01*
X95708942Y-111952990D01*
X95690634Y-111951187D01*
X95690249Y-111951111D01*
X95678544Y-111947560D01*
X95678182Y-111947410D01*
X95667392Y-111941643D01*
X95667066Y-111941425D01*
X95657612Y-111933665D01*
X95657335Y-111933388D01*
X95649415Y-111923739D01*
X95649298Y-111923581D01*
X95636072Y-111903787D01*
X95619025Y-111886740D01*
X95598978Y-111873345D01*
X95576704Y-111864119D01*
X95553054Y-111859414D01*
X95528948Y-111859414D01*
X95505297Y-111864118D01*
X95483023Y-111873344D01*
X95462976Y-111886739D01*
X95445929Y-111903786D01*
X95432702Y-111923581D01*
X95432585Y-111923739D01*
X95424665Y-111933388D01*
X95424388Y-111933665D01*
X95414934Y-111941425D01*
X95414608Y-111941643D01*
X95403818Y-111947410D01*
X95403456Y-111947560D01*
X95391751Y-111951111D01*
X95391366Y-111951187D01*
X95373058Y-111952990D01*
X95372862Y-111953000D01*
X95316500Y-111953000D01*
X95314768Y-111952000D01*
X95314768Y-111950000D01*
X95316304Y-111949010D01*
X95340589Y-111946619D01*
X95363758Y-111939590D01*
X95385108Y-111928178D01*
X95403821Y-111912821D01*
X95419178Y-111894108D01*
X95430590Y-111872758D01*
X95437619Y-111849589D01*
X95440000Y-111825406D01*
X95440000Y-110174594D01*
X95437619Y-110150411D01*
X95430590Y-110127242D01*
X95419178Y-110105892D01*
X95403821Y-110087179D01*
X95385108Y-110071822D01*
X95363758Y-110060410D01*
X95340589Y-110053381D01*
X95316304Y-110050990D01*
X95314678Y-110049825D01*
X95314874Y-110047835D01*
X95316500Y-110047000D01*
X95372862Y-110047000D01*
X95373058Y-110047010D01*
G37*
G36*
X103526951Y-111524405D02*
G01*
X103551517Y-111537536D01*
X103661072Y-111570770D01*
X103775094Y-111582000D01*
X104504906Y-111582000D01*
X104618928Y-111570770D01*
X104728483Y-111537536D01*
X104753049Y-111524405D01*
X104755048Y-111524471D01*
X104755991Y-111526234D01*
X104755103Y-111527832D01*
X104739993Y-111537928D01*
X104722946Y-111554975D01*
X104709551Y-111575023D01*
X104700324Y-111597297D01*
X104695620Y-111620947D01*
X104695620Y-111645053D01*
X104700324Y-111668703D01*
X104709551Y-111690977D01*
X104722945Y-111711024D01*
X104739992Y-111728071D01*
X104755103Y-111738168D01*
X104755988Y-111739962D01*
X104754877Y-111741625D01*
X104753049Y-111741595D01*
X104728483Y-111728464D01*
X104618928Y-111695230D01*
X104504906Y-111684000D01*
X103775094Y-111684000D01*
X103661072Y-111695230D01*
X103551517Y-111728464D01*
X103526951Y-111741595D01*
X103524952Y-111741529D01*
X103524009Y-111739766D01*
X103524897Y-111738168D01*
X103540007Y-111728072D01*
X103557054Y-111711025D01*
X103570449Y-111690977D01*
X103579676Y-111668703D01*
X103584380Y-111645053D01*
X103584380Y-111620947D01*
X103579676Y-111597297D01*
X103570449Y-111575023D01*
X103557055Y-111554976D01*
X103540008Y-111537929D01*
X103524897Y-111527832D01*
X103524012Y-111526038D01*
X103525123Y-111524375D01*
X103526951Y-111524405D01*
G37*
G36*
X103526951Y-110254405D02*
G01*
X103551517Y-110267536D01*
X103661072Y-110300770D01*
X103775094Y-110312000D01*
X104504906Y-110312000D01*
X104618928Y-110300770D01*
X104728483Y-110267536D01*
X104753049Y-110254405D01*
X104755048Y-110254471D01*
X104755991Y-110256234D01*
X104755103Y-110257832D01*
X104739993Y-110267928D01*
X104722946Y-110284975D01*
X104709551Y-110305023D01*
X104700324Y-110327297D01*
X104695620Y-110350947D01*
X104695620Y-110375053D01*
X104700324Y-110398703D01*
X104709551Y-110420977D01*
X104722945Y-110441024D01*
X104739992Y-110458071D01*
X104755103Y-110468168D01*
X104755988Y-110469962D01*
X104754877Y-110471625D01*
X104753049Y-110471595D01*
X104728483Y-110458464D01*
X104618928Y-110425230D01*
X104504906Y-110414000D01*
X103775094Y-110414000D01*
X103661072Y-110425230D01*
X103551517Y-110458464D01*
X103526951Y-110471595D01*
X103524952Y-110471529D01*
X103524009Y-110469766D01*
X103524897Y-110468168D01*
X103540007Y-110458072D01*
X103557054Y-110441025D01*
X103570449Y-110420977D01*
X103579676Y-110398703D01*
X103584380Y-110375053D01*
X103584380Y-110350947D01*
X103579676Y-110327297D01*
X103570449Y-110305023D01*
X103557055Y-110284976D01*
X103540008Y-110267929D01*
X103524897Y-110257832D01*
X103524012Y-110256038D01*
X103525123Y-110254375D01*
X103526951Y-110254405D01*
G37*
G36*
X104940945Y-109043000D02*
G01*
X104940945Y-109045000D01*
X104939409Y-109045990D01*
X104915222Y-109048372D01*
X104892147Y-109055372D01*
X104870883Y-109066737D01*
X104852246Y-109082032D01*
X104836951Y-109100669D01*
X104825586Y-109121933D01*
X104818586Y-109145008D01*
X104816223Y-109168999D01*
X104818586Y-109192990D01*
X104825586Y-109216065D01*
X104836928Y-109237285D01*
X104858642Y-109261242D01*
X104859064Y-109263197D01*
X104857582Y-109264540D01*
X104855891Y-109264131D01*
X104829448Y-109242430D01*
X104728483Y-109188464D01*
X104618928Y-109155230D01*
X104504906Y-109144000D01*
X103775094Y-109144000D01*
X103661072Y-109155230D01*
X103551517Y-109188464D01*
X103450552Y-109242430D01*
X103425696Y-109262829D01*
X103423722Y-109263155D01*
X103422454Y-109261609D01*
X103423013Y-109259869D01*
X103435859Y-109247023D01*
X103449254Y-109226976D01*
X103458480Y-109204702D01*
X103463184Y-109181052D01*
X103463184Y-109156945D01*
X103458479Y-109133295D01*
X103449253Y-109111021D01*
X103435858Y-109090974D01*
X103418811Y-109073927D01*
X103398764Y-109060532D01*
X103376533Y-109051323D01*
X103340494Y-109045978D01*
X103338927Y-109044735D01*
X103339220Y-109042757D01*
X103340787Y-109042000D01*
X104939213Y-109042000D01*
X104940945Y-109043000D01*
G37*
G36*
X105738165Y-104459208D02*
G01*
X105739000Y-104460834D01*
X105739000Y-104544971D01*
X105738990Y-104545167D01*
X105735056Y-104585111D01*
X105734980Y-104585496D01*
X105725119Y-104618005D01*
X105724969Y-104618367D01*
X105708955Y-104648325D01*
X105708737Y-104648651D01*
X105687187Y-104674910D01*
X105686910Y-104675187D01*
X105660651Y-104696737D01*
X105660325Y-104696955D01*
X105630367Y-104712969D01*
X105630005Y-104713119D01*
X105597496Y-104722980D01*
X105597111Y-104723056D01*
X105557167Y-104726990D01*
X105556971Y-104727000D01*
X105472834Y-104727000D01*
X105471102Y-104726000D01*
X105471102Y-104724000D01*
X105472638Y-104723010D01*
X105523975Y-104717954D01*
X105573157Y-104703035D01*
X105618481Y-104678809D01*
X105658207Y-104646207D01*
X105690809Y-104606481D01*
X105715035Y-104561157D01*
X105729954Y-104511975D01*
X105735010Y-104460638D01*
X105736175Y-104459012D01*
X105738165Y-104459208D01*
G37*
G36*
X102036990Y-104460638D02*
G01*
X102042046Y-104511975D01*
X102056965Y-104561157D01*
X102081191Y-104606481D01*
X102113793Y-104646207D01*
X102153519Y-104678809D01*
X102198843Y-104703035D01*
X102248025Y-104717954D01*
X102299362Y-104723010D01*
X102300988Y-104724175D01*
X102300792Y-104726165D01*
X102299166Y-104727000D01*
X102215029Y-104727000D01*
X102214833Y-104726990D01*
X102174889Y-104723056D01*
X102174504Y-104722980D01*
X102141995Y-104713119D01*
X102141633Y-104712969D01*
X102111675Y-104696955D01*
X102111349Y-104696737D01*
X102085090Y-104675187D01*
X102084813Y-104674910D01*
X102063263Y-104648651D01*
X102063045Y-104648325D01*
X102047031Y-104618367D01*
X102046881Y-104618005D01*
X102037020Y-104585496D01*
X102036944Y-104585111D01*
X102033010Y-104545167D01*
X102033000Y-104544971D01*
X102033000Y-104460834D01*
X102034000Y-104459102D01*
X102036000Y-104459102D01*
X102036990Y-104460638D01*
G37*
G36*
X121486165Y-104190208D02*
G01*
X121487000Y-104191834D01*
X121487000Y-104275971D01*
X121486990Y-104276167D01*
X121483056Y-104316111D01*
X121482980Y-104316496D01*
X121473119Y-104349005D01*
X121472969Y-104349367D01*
X121456955Y-104379325D01*
X121456737Y-104379651D01*
X121435187Y-104405910D01*
X121434910Y-104406187D01*
X121408651Y-104427737D01*
X121408325Y-104427955D01*
X121378367Y-104443969D01*
X121378005Y-104444119D01*
X121345496Y-104453980D01*
X121345111Y-104454056D01*
X121305167Y-104457990D01*
X121304971Y-104458000D01*
X121220834Y-104458000D01*
X121219102Y-104457000D01*
X121219102Y-104455000D01*
X121220638Y-104454010D01*
X121271975Y-104448954D01*
X121321157Y-104434035D01*
X121366481Y-104409809D01*
X121406207Y-104377207D01*
X121438809Y-104337481D01*
X121463035Y-104292157D01*
X121477954Y-104242975D01*
X121483010Y-104191638D01*
X121484175Y-104190012D01*
X121486165Y-104190208D01*
G37*
G36*
X117784990Y-104191638D02*
G01*
X117790046Y-104242975D01*
X117804965Y-104292157D01*
X117829191Y-104337481D01*
X117861793Y-104377207D01*
X117901519Y-104409809D01*
X117946843Y-104434035D01*
X117996025Y-104448954D01*
X118047362Y-104454010D01*
X118048988Y-104455175D01*
X118048792Y-104457165D01*
X118047166Y-104458000D01*
X117963029Y-104458000D01*
X117962833Y-104457990D01*
X117922889Y-104454056D01*
X117922504Y-104453980D01*
X117889995Y-104444119D01*
X117889633Y-104443969D01*
X117859675Y-104427955D01*
X117859349Y-104427737D01*
X117833090Y-104406187D01*
X117832813Y-104405910D01*
X117811263Y-104379651D01*
X117811045Y-104379325D01*
X117795031Y-104349367D01*
X117794881Y-104349005D01*
X117785020Y-104316496D01*
X117784944Y-104316111D01*
X117781010Y-104276167D01*
X117781000Y-104275971D01*
X117781000Y-104191834D01*
X117782000Y-104190102D01*
X117784000Y-104190102D01*
X117784990Y-104191638D01*
G37*
G36*
X112763287Y-103713256D02*
G01*
X112763437Y-103715077D01*
X112758650Y-103726635D01*
X112737653Y-103832192D01*
X112737653Y-103939808D01*
X112758650Y-104045365D01*
X112763437Y-104056923D01*
X112763176Y-104058906D01*
X112761328Y-104059671D01*
X112759825Y-104058631D01*
X112751262Y-104042609D01*
X112735967Y-104023972D01*
X112717330Y-104008677D01*
X112696066Y-103997312D01*
X112672991Y-103990312D01*
X112649000Y-103987949D01*
X112625009Y-103990312D01*
X112601934Y-103997312D01*
X112580670Y-104008677D01*
X112562033Y-104023972D01*
X112546738Y-104042609D01*
X112538175Y-104058631D01*
X112536476Y-104059687D01*
X112534713Y-104058744D01*
X112534563Y-104056923D01*
X112539350Y-104045365D01*
X112560347Y-103939808D01*
X112560347Y-103832192D01*
X112539350Y-103726635D01*
X112534563Y-103715077D01*
X112534824Y-103713094D01*
X112536672Y-103712329D01*
X112538175Y-103713369D01*
X112546738Y-103729391D01*
X112562033Y-103748028D01*
X112580670Y-103763323D01*
X112601934Y-103774688D01*
X112625009Y-103781688D01*
X112649000Y-103784051D01*
X112672991Y-103781688D01*
X112696066Y-103774688D01*
X112717330Y-103763323D01*
X112735967Y-103748028D01*
X112751262Y-103729391D01*
X112759825Y-103713369D01*
X112761524Y-103712313D01*
X112763287Y-103713256D01*
G37*
G36*
X111493287Y-103713256D02*
G01*
X111493437Y-103715077D01*
X111488650Y-103726635D01*
X111467653Y-103832192D01*
X111467653Y-103939808D01*
X111488650Y-104045365D01*
X111493437Y-104056923D01*
X111493176Y-104058906D01*
X111491328Y-104059671D01*
X111489825Y-104058631D01*
X111481262Y-104042609D01*
X111465967Y-104023972D01*
X111447330Y-104008677D01*
X111426066Y-103997312D01*
X111402991Y-103990312D01*
X111379000Y-103987949D01*
X111355009Y-103990312D01*
X111331934Y-103997312D01*
X111310670Y-104008677D01*
X111292033Y-104023972D01*
X111276738Y-104042609D01*
X111268175Y-104058631D01*
X111266476Y-104059687D01*
X111264713Y-104058744D01*
X111264563Y-104056923D01*
X111269350Y-104045365D01*
X111290347Y-103939808D01*
X111290347Y-103832192D01*
X111269350Y-103726635D01*
X111264563Y-103715077D01*
X111264824Y-103713094D01*
X111266672Y-103712329D01*
X111268175Y-103713369D01*
X111276738Y-103729391D01*
X111292033Y-103748028D01*
X111310670Y-103763323D01*
X111331934Y-103774688D01*
X111355009Y-103781688D01*
X111379000Y-103784051D01*
X111402991Y-103781688D01*
X111426066Y-103774688D01*
X111447330Y-103763323D01*
X111465967Y-103748028D01*
X111481262Y-103729391D01*
X111489825Y-103713369D01*
X111491524Y-103712313D01*
X111493287Y-103713256D01*
G37*
G36*
X113607654Y-103166000D02*
G01*
X113607654Y-103168000D01*
X113606118Y-103168990D01*
X113581931Y-103171372D01*
X113558856Y-103178372D01*
X113537592Y-103189737D01*
X113518955Y-103205032D01*
X113503660Y-103223669D01*
X113492295Y-103244933D01*
X113485295Y-103268008D01*
X113482932Y-103291998D01*
X113485295Y-103315990D01*
X113492295Y-103339065D01*
X113503660Y-103360329D01*
X113518955Y-103378966D01*
X113537670Y-103394324D01*
X113541998Y-103397216D01*
X113542883Y-103399010D01*
X113541772Y-103400673D01*
X113540122Y-103400727D01*
X113443365Y-103360650D01*
X113337808Y-103339653D01*
X113230192Y-103339653D01*
X113124635Y-103360650D01*
X113027878Y-103400727D01*
X113025895Y-103400466D01*
X113025130Y-103398618D01*
X113026002Y-103397216D01*
X113030330Y-103394324D01*
X113049045Y-103378965D01*
X113064340Y-103360328D01*
X113075705Y-103339065D01*
X113082705Y-103315990D01*
X113085068Y-103291998D01*
X113082705Y-103268007D01*
X113075705Y-103244932D01*
X113064340Y-103223669D01*
X113049044Y-103205032D01*
X113030407Y-103189737D01*
X113009144Y-103178372D01*
X112986069Y-103171372D01*
X112961882Y-103168990D01*
X112960256Y-103167825D01*
X112960452Y-103165835D01*
X112962078Y-103165000D01*
X113605922Y-103165000D01*
X113607654Y-103166000D01*
G37*
G36*
X110916906Y-103136824D02*
G01*
X110917671Y-103138672D01*
X110916631Y-103140175D01*
X110900609Y-103148738D01*
X110881972Y-103164033D01*
X110866677Y-103182670D01*
X110855312Y-103203934D01*
X110848312Y-103227009D01*
X110845949Y-103251000D01*
X110848312Y-103274991D01*
X110855312Y-103298066D01*
X110866677Y-103319330D01*
X110881972Y-103337967D01*
X110900609Y-103353262D01*
X110916631Y-103361825D01*
X110917687Y-103363524D01*
X110916744Y-103365287D01*
X110914923Y-103365437D01*
X110903365Y-103360650D01*
X110797808Y-103339653D01*
X110690192Y-103339653D01*
X110584635Y-103360650D01*
X110573077Y-103365437D01*
X110571094Y-103365176D01*
X110570329Y-103363328D01*
X110571369Y-103361825D01*
X110587391Y-103353262D01*
X110606028Y-103337967D01*
X110621323Y-103319330D01*
X110632688Y-103298066D01*
X110639688Y-103274991D01*
X110642051Y-103251000D01*
X110639688Y-103227009D01*
X110632688Y-103203934D01*
X110621323Y-103182670D01*
X110606028Y-103164033D01*
X110587391Y-103148738D01*
X110571369Y-103140175D01*
X110570313Y-103138476D01*
X110571256Y-103136713D01*
X110573077Y-103136563D01*
X110584635Y-103141350D01*
X110690192Y-103162347D01*
X110797808Y-103162347D01*
X110903365Y-103141350D01*
X110914923Y-103136563D01*
X110916906Y-103136824D01*
G37*
G36*
X112186906Y-103136824D02*
G01*
X112187671Y-103138672D01*
X112186631Y-103140175D01*
X112170609Y-103148738D01*
X112151972Y-103164033D01*
X112136677Y-103182670D01*
X112125312Y-103203934D01*
X112118312Y-103227009D01*
X112115949Y-103251000D01*
X112118312Y-103274991D01*
X112125312Y-103298066D01*
X112136677Y-103319330D01*
X112151972Y-103337967D01*
X112170609Y-103353262D01*
X112186631Y-103361825D01*
X112187687Y-103363524D01*
X112186744Y-103365287D01*
X112184923Y-103365437D01*
X112173365Y-103360650D01*
X112067808Y-103339653D01*
X111960192Y-103339653D01*
X111854635Y-103360650D01*
X111843077Y-103365437D01*
X111841094Y-103365176D01*
X111840329Y-103363328D01*
X111841369Y-103361825D01*
X111857391Y-103353262D01*
X111876028Y-103337967D01*
X111891323Y-103319330D01*
X111902688Y-103298066D01*
X111909688Y-103274991D01*
X111912051Y-103251000D01*
X111909688Y-103227009D01*
X111902688Y-103203934D01*
X111891323Y-103182670D01*
X111876028Y-103164033D01*
X111857391Y-103148738D01*
X111841369Y-103140175D01*
X111840313Y-103138476D01*
X111841256Y-103136713D01*
X111843077Y-103136563D01*
X111854635Y-103141350D01*
X111960192Y-103162347D01*
X112067808Y-103162347D01*
X112173365Y-103141350D01*
X112184923Y-103136563D01*
X112186906Y-103136824D01*
G37*
G36*
X102300898Y-102822000D02*
G01*
X102300898Y-102824000D01*
X102299362Y-102824990D01*
X102248025Y-102830046D01*
X102198843Y-102844965D01*
X102153519Y-102869191D01*
X102113793Y-102901793D01*
X102081191Y-102941519D01*
X102056965Y-102986843D01*
X102042046Y-103036025D01*
X102036990Y-103087362D01*
X102035825Y-103088988D01*
X102033835Y-103088792D01*
X102033000Y-103087166D01*
X102033000Y-103003029D01*
X102033010Y-103002833D01*
X102036944Y-102962889D01*
X102037020Y-102962504D01*
X102046881Y-102929995D01*
X102047031Y-102929633D01*
X102063045Y-102899675D01*
X102063263Y-102899349D01*
X102084813Y-102873090D01*
X102085090Y-102872813D01*
X102111349Y-102851263D01*
X102111675Y-102851045D01*
X102141633Y-102835031D01*
X102141995Y-102834881D01*
X102174504Y-102825020D01*
X102174889Y-102824944D01*
X102214833Y-102821010D01*
X102215029Y-102821000D01*
X102299166Y-102821000D01*
X102300898Y-102822000D01*
G37*
G36*
X105557167Y-102821010D02*
G01*
X105597111Y-102824944D01*
X105597496Y-102825020D01*
X105630005Y-102834881D01*
X105630367Y-102835031D01*
X105660325Y-102851045D01*
X105660651Y-102851263D01*
X105686910Y-102872813D01*
X105687187Y-102873090D01*
X105708737Y-102899349D01*
X105708955Y-102899675D01*
X105724969Y-102929633D01*
X105725119Y-102929995D01*
X105734980Y-102962504D01*
X105735056Y-102962889D01*
X105738990Y-103002833D01*
X105739000Y-103003029D01*
X105739000Y-103087166D01*
X105738000Y-103088898D01*
X105736000Y-103088898D01*
X105735010Y-103087362D01*
X105729954Y-103036025D01*
X105715035Y-102986843D01*
X105690809Y-102941519D01*
X105658207Y-102901793D01*
X105618481Y-102869191D01*
X105573157Y-102844965D01*
X105523975Y-102830046D01*
X105472638Y-102824990D01*
X105471012Y-102823825D01*
X105471208Y-102821835D01*
X105472834Y-102821000D01*
X105556971Y-102821000D01*
X105557167Y-102821010D01*
G37*
G36*
X112734165Y-102292452D02*
G01*
X112735000Y-102294078D01*
X112735000Y-102937922D01*
X112734000Y-102939654D01*
X112732000Y-102939654D01*
X112731010Y-102938118D01*
X112728628Y-102913931D01*
X112721628Y-102890856D01*
X112710263Y-102869592D01*
X112694968Y-102850955D01*
X112676331Y-102835660D01*
X112655067Y-102824295D01*
X112631992Y-102817295D01*
X112608001Y-102814932D01*
X112584010Y-102817295D01*
X112560935Y-102824295D01*
X112539671Y-102835660D01*
X112521034Y-102850955D01*
X112505676Y-102869670D01*
X112502784Y-102873998D01*
X112500990Y-102874883D01*
X112499327Y-102873772D01*
X112499273Y-102872122D01*
X112539350Y-102775365D01*
X112560347Y-102669808D01*
X112560347Y-102562192D01*
X112539350Y-102456635D01*
X112499273Y-102359878D01*
X112499534Y-102357895D01*
X112501382Y-102357130D01*
X112502784Y-102358002D01*
X112505676Y-102362330D01*
X112521035Y-102381045D01*
X112539672Y-102396340D01*
X112560935Y-102407705D01*
X112584010Y-102414705D01*
X112608002Y-102417068D01*
X112631993Y-102414705D01*
X112655068Y-102407705D01*
X112676331Y-102396340D01*
X112694968Y-102381044D01*
X112710263Y-102362407D01*
X112721628Y-102341144D01*
X112728628Y-102318069D01*
X112731010Y-102293882D01*
X112732175Y-102292256D01*
X112734165Y-102292452D01*
G37*
G36*
X118048898Y-102553000D02*
G01*
X118048898Y-102555000D01*
X118047362Y-102555990D01*
X117996025Y-102561046D01*
X117946843Y-102575965D01*
X117901519Y-102600191D01*
X117861793Y-102632793D01*
X117829191Y-102672519D01*
X117804965Y-102717843D01*
X117790046Y-102767025D01*
X117784990Y-102818362D01*
X117783825Y-102819988D01*
X117781835Y-102819792D01*
X117781000Y-102818166D01*
X117781000Y-102734029D01*
X117781010Y-102733833D01*
X117784944Y-102693889D01*
X117785020Y-102693504D01*
X117794881Y-102660995D01*
X117795031Y-102660633D01*
X117811045Y-102630675D01*
X117811263Y-102630349D01*
X117832813Y-102604090D01*
X117833090Y-102603813D01*
X117859349Y-102582263D01*
X117859675Y-102582045D01*
X117889633Y-102566031D01*
X117889995Y-102565881D01*
X117922504Y-102556020D01*
X117922889Y-102555944D01*
X117962833Y-102552010D01*
X117963029Y-102552000D01*
X118047166Y-102552000D01*
X118048898Y-102553000D01*
G37*
G36*
X121305167Y-102552010D02*
G01*
X121345111Y-102555944D01*
X121345496Y-102556020D01*
X121378005Y-102565881D01*
X121378367Y-102566031D01*
X121408325Y-102582045D01*
X121408651Y-102582263D01*
X121434910Y-102603813D01*
X121435187Y-102604090D01*
X121456737Y-102630349D01*
X121456955Y-102630675D01*
X121472969Y-102660633D01*
X121473119Y-102660995D01*
X121482980Y-102693504D01*
X121483056Y-102693889D01*
X121486990Y-102733833D01*
X121487000Y-102734029D01*
X121487000Y-102818166D01*
X121486000Y-102819898D01*
X121484000Y-102819898D01*
X121483010Y-102818362D01*
X121477954Y-102767025D01*
X121463035Y-102717843D01*
X121438809Y-102672519D01*
X121406207Y-102632793D01*
X121366481Y-102600191D01*
X121321157Y-102575965D01*
X121271975Y-102561046D01*
X121220638Y-102555990D01*
X121219012Y-102554825D01*
X121219208Y-102552835D01*
X121220834Y-102552000D01*
X121304971Y-102552000D01*
X121305167Y-102552010D01*
G37*
G36*
X111493287Y-102443256D02*
G01*
X111493437Y-102445077D01*
X111488650Y-102456635D01*
X111467653Y-102562192D01*
X111467653Y-102669808D01*
X111488650Y-102775365D01*
X111493437Y-102786923D01*
X111493176Y-102788906D01*
X111491328Y-102789671D01*
X111489825Y-102788631D01*
X111481262Y-102772609D01*
X111465967Y-102753972D01*
X111447330Y-102738677D01*
X111426066Y-102727312D01*
X111402991Y-102720312D01*
X111379000Y-102717949D01*
X111355009Y-102720312D01*
X111331934Y-102727312D01*
X111310670Y-102738677D01*
X111292033Y-102753972D01*
X111276738Y-102772609D01*
X111268175Y-102788631D01*
X111266476Y-102789687D01*
X111264713Y-102788744D01*
X111264563Y-102786923D01*
X111269350Y-102775365D01*
X111290347Y-102669808D01*
X111290347Y-102562192D01*
X111269350Y-102456635D01*
X111264563Y-102445077D01*
X111264824Y-102443094D01*
X111266672Y-102442329D01*
X111268175Y-102443369D01*
X111276738Y-102459391D01*
X111292033Y-102478028D01*
X111310670Y-102493323D01*
X111331934Y-102504688D01*
X111355009Y-102511688D01*
X111379000Y-102514051D01*
X111402991Y-102511688D01*
X111426066Y-102504688D01*
X111447330Y-102493323D01*
X111465967Y-102478028D01*
X111481262Y-102459391D01*
X111489825Y-102443369D01*
X111491524Y-102442313D01*
X111493287Y-102443256D01*
G37*
G36*
X112766165Y-81849208D02*
G01*
X112767000Y-81850834D01*
X112767000Y-81934971D01*
X112766990Y-81935167D01*
X112763056Y-81975111D01*
X112762980Y-81975496D01*
X112753119Y-82008005D01*
X112752969Y-82008367D01*
X112736955Y-82038325D01*
X112736737Y-82038651D01*
X112715187Y-82064910D01*
X112714910Y-82065187D01*
X112688651Y-82086737D01*
X112688325Y-82086955D01*
X112658367Y-82102969D01*
X112658005Y-82103119D01*
X112625496Y-82112980D01*
X112625111Y-82113056D01*
X112585167Y-82116990D01*
X112584971Y-82117000D01*
X112500834Y-82117000D01*
X112499102Y-82116000D01*
X112499102Y-82114000D01*
X112500638Y-82113010D01*
X112551975Y-82107954D01*
X112601157Y-82093035D01*
X112646481Y-82068809D01*
X112686207Y-82036207D01*
X112718809Y-81996481D01*
X112743035Y-81951157D01*
X112757954Y-81901975D01*
X112763010Y-81850638D01*
X112764175Y-81849012D01*
X112766165Y-81849208D01*
G37*
G36*
X110864990Y-81850638D02*
G01*
X110870046Y-81901975D01*
X110884965Y-81951157D01*
X110909191Y-81996481D01*
X110941793Y-82036207D01*
X110981519Y-82068809D01*
X111026843Y-82093035D01*
X111076025Y-82107954D01*
X111127362Y-82113010D01*
X111128988Y-82114175D01*
X111128792Y-82116165D01*
X111127166Y-82117000D01*
X111043029Y-82117000D01*
X111042833Y-82116990D01*
X111002889Y-82113056D01*
X111002504Y-82112980D01*
X110969995Y-82103119D01*
X110969633Y-82102969D01*
X110939675Y-82086955D01*
X110939349Y-82086737D01*
X110913090Y-82065187D01*
X110912813Y-82064910D01*
X110891263Y-82038651D01*
X110891045Y-82038325D01*
X110875031Y-82008367D01*
X110874881Y-82008005D01*
X110865020Y-81975496D01*
X110864944Y-81975111D01*
X110861010Y-81935167D01*
X110861000Y-81934971D01*
X110861000Y-81850834D01*
X110862000Y-81849102D01*
X110864000Y-81849102D01*
X110864990Y-81850638D01*
G37*
G36*
X85001732Y-81915000D02*
G01*
X85002000Y-81916000D01*
X85002000Y-82064000D01*
X85001000Y-82065732D01*
X85000000Y-82066000D01*
X82898000Y-82066000D01*
X82896268Y-82065000D01*
X82896000Y-82064000D01*
X82896000Y-81916000D01*
X82897000Y-81914268D01*
X82898000Y-81914000D01*
X85000000Y-81914000D01*
X85001732Y-81915000D01*
G37*
G36*
X91601732Y-81915000D02*
G01*
X91602000Y-81916000D01*
X91602000Y-82064000D01*
X91601000Y-82065732D01*
X91600000Y-82066000D01*
X89498000Y-82066000D01*
X89496268Y-82065000D01*
X89496000Y-82064000D01*
X89496000Y-81916000D01*
X89497000Y-81914268D01*
X89498000Y-81914000D01*
X91600000Y-81914000D01*
X91601732Y-81915000D01*
G37*
G36*
X85001732Y-81265000D02*
G01*
X85002000Y-81266000D01*
X85002000Y-81414000D01*
X85001000Y-81415732D01*
X85000000Y-81416000D01*
X82898000Y-81416000D01*
X82896268Y-81415000D01*
X82896000Y-81414000D01*
X82896000Y-81266000D01*
X82897000Y-81264268D01*
X82898000Y-81264000D01*
X85000000Y-81264000D01*
X85001732Y-81265000D01*
G37*
G36*
X91601732Y-81265000D02*
G01*
X91602000Y-81266000D01*
X91602000Y-81414000D01*
X91601000Y-81415732D01*
X91600000Y-81416000D01*
X89498000Y-81416000D01*
X89496268Y-81415000D01*
X89496000Y-81414000D01*
X89496000Y-81266000D01*
X89497000Y-81264268D01*
X89498000Y-81264000D01*
X91600000Y-81264000D01*
X91601732Y-81265000D01*
G37*
G36*
X85001732Y-80615000D02*
G01*
X85002000Y-80616000D01*
X85002000Y-80764000D01*
X85001000Y-80765732D01*
X85000000Y-80766000D01*
X82898000Y-80766000D01*
X82896268Y-80765000D01*
X82896000Y-80764000D01*
X82896000Y-80616000D01*
X82897000Y-80614268D01*
X82898000Y-80614000D01*
X85000000Y-80614000D01*
X85001732Y-80615000D01*
G37*
G36*
X91601732Y-80615000D02*
G01*
X91602000Y-80616000D01*
X91602000Y-80764000D01*
X91601000Y-80765732D01*
X91600000Y-80766000D01*
X89498000Y-80766000D01*
X89496268Y-80765000D01*
X89496000Y-80764000D01*
X89496000Y-80616000D01*
X89497000Y-80614268D01*
X89498000Y-80614000D01*
X91600000Y-80614000D01*
X91601732Y-80615000D01*
G37*
G36*
X113886951Y-80282405D02*
G01*
X113911517Y-80295536D01*
X114021072Y-80328770D01*
X114135094Y-80340000D01*
X114864906Y-80340000D01*
X114978928Y-80328770D01*
X115088483Y-80295536D01*
X115113049Y-80282405D01*
X115115048Y-80282471D01*
X115115991Y-80284234D01*
X115115103Y-80285832D01*
X115099993Y-80295928D01*
X115082946Y-80312975D01*
X115069551Y-80333023D01*
X115060324Y-80355297D01*
X115055620Y-80378947D01*
X115055620Y-80403053D01*
X115060324Y-80426703D01*
X115069551Y-80448977D01*
X115082945Y-80469024D01*
X115099992Y-80486071D01*
X115115103Y-80496168D01*
X115115988Y-80497962D01*
X115114877Y-80499625D01*
X115113049Y-80499595D01*
X115088483Y-80486464D01*
X114978928Y-80453230D01*
X114864906Y-80442000D01*
X114135094Y-80442000D01*
X114021072Y-80453230D01*
X113911517Y-80486464D01*
X113886951Y-80499595D01*
X113884952Y-80499529D01*
X113884009Y-80497766D01*
X113884897Y-80496168D01*
X113900007Y-80486072D01*
X113917054Y-80469025D01*
X113930449Y-80448977D01*
X113939676Y-80426703D01*
X113944380Y-80403053D01*
X113944380Y-80378947D01*
X113939676Y-80355297D01*
X113930449Y-80333023D01*
X113917055Y-80312976D01*
X113900008Y-80295929D01*
X113884897Y-80285832D01*
X113884012Y-80284038D01*
X113885123Y-80282375D01*
X113886951Y-80282405D01*
G37*
G36*
X85001732Y-79965000D02*
G01*
X85002000Y-79966000D01*
X85002000Y-80114000D01*
X85001000Y-80115732D01*
X85000000Y-80116000D01*
X82898000Y-80116000D01*
X82896268Y-80115000D01*
X82896000Y-80114000D01*
X82896000Y-79966000D01*
X82897000Y-79964268D01*
X82898000Y-79964000D01*
X85000000Y-79964000D01*
X85001732Y-79965000D01*
G37*
G36*
X91601732Y-79965000D02*
G01*
X91602000Y-79966000D01*
X91602000Y-80114000D01*
X91601000Y-80115732D01*
X91600000Y-80116000D01*
X89498000Y-80116000D01*
X89496268Y-80115000D01*
X89496000Y-80114000D01*
X89496000Y-79966000D01*
X89497000Y-79964268D01*
X89498000Y-79964000D01*
X91600000Y-79964000D01*
X91601732Y-79965000D01*
G37*
G36*
X91601732Y-79315000D02*
G01*
X91602000Y-79316000D01*
X91602000Y-79464000D01*
X91601000Y-79465732D01*
X91600000Y-79466000D01*
X89498000Y-79466000D01*
X89496268Y-79465000D01*
X89496000Y-79464000D01*
X89496000Y-79316000D01*
X89497000Y-79314268D01*
X89498000Y-79314000D01*
X91600000Y-79314000D01*
X91601732Y-79315000D01*
G37*
G36*
X85001732Y-79315000D02*
G01*
X85002000Y-79316000D01*
X85002000Y-79464000D01*
X85001000Y-79465732D01*
X85000000Y-79466000D01*
X82898000Y-79466000D01*
X82896268Y-79465000D01*
X82896000Y-79464000D01*
X82896000Y-79316000D01*
X82897000Y-79314268D01*
X82898000Y-79314000D01*
X85000000Y-79314000D01*
X85001732Y-79315000D01*
G37*
G36*
X113886951Y-79012405D02*
G01*
X113911517Y-79025536D01*
X114021072Y-79058770D01*
X114135094Y-79070000D01*
X114864906Y-79070000D01*
X114978928Y-79058770D01*
X115088483Y-79025536D01*
X115113049Y-79012405D01*
X115115048Y-79012471D01*
X115115991Y-79014234D01*
X115115103Y-79015832D01*
X115099993Y-79025928D01*
X115082946Y-79042975D01*
X115069551Y-79063023D01*
X115060324Y-79085297D01*
X115055620Y-79108947D01*
X115055620Y-79133053D01*
X115060324Y-79156703D01*
X115069551Y-79178977D01*
X115082945Y-79199024D01*
X115099992Y-79216071D01*
X115115103Y-79226168D01*
X115115988Y-79227962D01*
X115114877Y-79229625D01*
X115113049Y-79229595D01*
X115088483Y-79216464D01*
X114978928Y-79183230D01*
X114864906Y-79172000D01*
X114135094Y-79172000D01*
X114021072Y-79183230D01*
X113911517Y-79216464D01*
X113886951Y-79229595D01*
X113884952Y-79229529D01*
X113884009Y-79227766D01*
X113884897Y-79226168D01*
X113900007Y-79216072D01*
X113917054Y-79199025D01*
X113930449Y-79178977D01*
X113939676Y-79156703D01*
X113944380Y-79133053D01*
X113944380Y-79108947D01*
X113939676Y-79085297D01*
X113930449Y-79063023D01*
X113917055Y-79042976D01*
X113900008Y-79025929D01*
X113884897Y-79015832D01*
X113884012Y-79014038D01*
X113885123Y-79012375D01*
X113886951Y-79012405D01*
G37*
G36*
X85001732Y-78665000D02*
G01*
X85002000Y-78666000D01*
X85002000Y-78814000D01*
X85001000Y-78815732D01*
X85000000Y-78816000D01*
X82898000Y-78816000D01*
X82896268Y-78815000D01*
X82896000Y-78814000D01*
X82896000Y-78666000D01*
X82897000Y-78664268D01*
X82898000Y-78664000D01*
X85000000Y-78664000D01*
X85001732Y-78665000D01*
G37*
G36*
X91601732Y-78665000D02*
G01*
X91602000Y-78666000D01*
X91602000Y-78814000D01*
X91601000Y-78815732D01*
X91600000Y-78816000D01*
X89498000Y-78816000D01*
X89496268Y-78815000D01*
X89496000Y-78814000D01*
X89496000Y-78666000D01*
X89497000Y-78664268D01*
X89498000Y-78664000D01*
X91600000Y-78664000D01*
X91601732Y-78665000D01*
G37*
G36*
X111128898Y-78412000D02*
G01*
X111128898Y-78414000D01*
X111127362Y-78414990D01*
X111076025Y-78420046D01*
X111026843Y-78434965D01*
X110981519Y-78459191D01*
X110941793Y-78491793D01*
X110909191Y-78531519D01*
X110884965Y-78576843D01*
X110870046Y-78626025D01*
X110864990Y-78677362D01*
X110863825Y-78678988D01*
X110861835Y-78678792D01*
X110861000Y-78677166D01*
X110861000Y-78593029D01*
X110861010Y-78592833D01*
X110864944Y-78552889D01*
X110865020Y-78552504D01*
X110874881Y-78519995D01*
X110875031Y-78519633D01*
X110891045Y-78489675D01*
X110891263Y-78489349D01*
X110912813Y-78463090D01*
X110913090Y-78462813D01*
X110939349Y-78441263D01*
X110939675Y-78441045D01*
X110969633Y-78425031D01*
X110969995Y-78424881D01*
X111002504Y-78415020D01*
X111002889Y-78414944D01*
X111042833Y-78411010D01*
X111043029Y-78411000D01*
X111127166Y-78411000D01*
X111128898Y-78412000D01*
G37*
G36*
X112585167Y-78411010D02*
G01*
X112625111Y-78414944D01*
X112625496Y-78415020D01*
X112658005Y-78424881D01*
X112658367Y-78425031D01*
X112688325Y-78441045D01*
X112688651Y-78441263D01*
X112714910Y-78462813D01*
X112715187Y-78463090D01*
X112736737Y-78489349D01*
X112736955Y-78489675D01*
X112752969Y-78519633D01*
X112753119Y-78519995D01*
X112762980Y-78552504D01*
X112763056Y-78552889D01*
X112766990Y-78592833D01*
X112767000Y-78593029D01*
X112767000Y-78677166D01*
X112766000Y-78678898D01*
X112764000Y-78678898D01*
X112763010Y-78677362D01*
X112757954Y-78626025D01*
X112743035Y-78576843D01*
X112718809Y-78531519D01*
X112686207Y-78491793D01*
X112646481Y-78459191D01*
X112601157Y-78434965D01*
X112551975Y-78420046D01*
X112500638Y-78414990D01*
X112499012Y-78413825D01*
X112499208Y-78411835D01*
X112500834Y-78411000D01*
X112584971Y-78411000D01*
X112585167Y-78411010D01*
G37*
G36*
X91601732Y-78015000D02*
G01*
X91602000Y-78016000D01*
X91602000Y-78164000D01*
X91601000Y-78165732D01*
X91600000Y-78166000D01*
X89498000Y-78166000D01*
X89496268Y-78165000D01*
X89496000Y-78164000D01*
X89496000Y-78016000D01*
X89497000Y-78014268D01*
X89498000Y-78014000D01*
X91600000Y-78014000D01*
X91601732Y-78015000D01*
G37*
G36*
X85001732Y-78015000D02*
G01*
X85002000Y-78016000D01*
X85002000Y-78164000D01*
X85001000Y-78165732D01*
X85000000Y-78166000D01*
X82898000Y-78166000D01*
X82896268Y-78165000D01*
X82896000Y-78164000D01*
X82896000Y-78016000D01*
X82897000Y-78014268D01*
X82898000Y-78014000D01*
X85000000Y-78014000D01*
X85001732Y-78015000D01*
G37*
G36*
X115300945Y-77801000D02*
G01*
X115300945Y-77803000D01*
X115299409Y-77803990D01*
X115275222Y-77806372D01*
X115252147Y-77813372D01*
X115230883Y-77824737D01*
X115212246Y-77840032D01*
X115196951Y-77858669D01*
X115185586Y-77879933D01*
X115178586Y-77903008D01*
X115176223Y-77926999D01*
X115178586Y-77950990D01*
X115185586Y-77974065D01*
X115196928Y-77995285D01*
X115218642Y-78019242D01*
X115219064Y-78021197D01*
X115217582Y-78022540D01*
X115215891Y-78022131D01*
X115189448Y-78000430D01*
X115088483Y-77946464D01*
X114978928Y-77913230D01*
X114864906Y-77902000D01*
X114135094Y-77902000D01*
X114021072Y-77913230D01*
X113911517Y-77946464D01*
X113810552Y-78000430D01*
X113785696Y-78020829D01*
X113783722Y-78021155D01*
X113782454Y-78019609D01*
X113783013Y-78017869D01*
X113795859Y-78005023D01*
X113809254Y-77984976D01*
X113818480Y-77962702D01*
X113823184Y-77939052D01*
X113823184Y-77914945D01*
X113818479Y-77891295D01*
X113809253Y-77869021D01*
X113795858Y-77848974D01*
X113778811Y-77831927D01*
X113758764Y-77818532D01*
X113736533Y-77809323D01*
X113700494Y-77803978D01*
X113698927Y-77802735D01*
X113699220Y-77800757D01*
X113700787Y-77800000D01*
X115299213Y-77800000D01*
X115300945Y-77801000D01*
G37*
G36*
X85001732Y-77365000D02*
G01*
X85002000Y-77366000D01*
X85002000Y-77514000D01*
X85001000Y-77515732D01*
X85000000Y-77516000D01*
X82898000Y-77516000D01*
X82896268Y-77515000D01*
X82896000Y-77514000D01*
X82896000Y-77366000D01*
X82897000Y-77364268D01*
X82898000Y-77364000D01*
X85000000Y-77364000D01*
X85001732Y-77365000D01*
G37*
G36*
X91601732Y-77365000D02*
G01*
X91602000Y-77366000D01*
X91602000Y-77514000D01*
X91601000Y-77515732D01*
X91600000Y-77516000D01*
X89498000Y-77516000D01*
X89496268Y-77515000D01*
X89496000Y-77514000D01*
X89496000Y-77366000D01*
X89497000Y-77364268D01*
X89498000Y-77364000D01*
X91600000Y-77364000D01*
X91601732Y-77365000D01*
G37*
G36*
X85001732Y-76715000D02*
G01*
X85002000Y-76716000D01*
X85002000Y-76864000D01*
X85001000Y-76865732D01*
X85000000Y-76866000D01*
X82898000Y-76866000D01*
X82896268Y-76865000D01*
X82896000Y-76864000D01*
X82896000Y-76716000D01*
X82897000Y-76714268D01*
X82898000Y-76714000D01*
X85000000Y-76714000D01*
X85001732Y-76715000D01*
G37*
G36*
X91601732Y-76715000D02*
G01*
X91602000Y-76716000D01*
X91602000Y-76864000D01*
X91601000Y-76865732D01*
X91600000Y-76866000D01*
X89498000Y-76866000D01*
X89496268Y-76865000D01*
X89496000Y-76864000D01*
X89496000Y-76716000D01*
X89497000Y-76714268D01*
X89498000Y-76714000D01*
X91600000Y-76714000D01*
X91601732Y-76715000D01*
G37*
G36*
X85001732Y-76065000D02*
G01*
X85002000Y-76066000D01*
X85002000Y-76214000D01*
X85001000Y-76215732D01*
X85000000Y-76216000D01*
X82898000Y-76216000D01*
X82896268Y-76215000D01*
X82896000Y-76214000D01*
X82896000Y-76066000D01*
X82897000Y-76064268D01*
X82898000Y-76064000D01*
X85000000Y-76064000D01*
X85001732Y-76065000D01*
G37*
G36*
X91601732Y-76065000D02*
G01*
X91602000Y-76066000D01*
X91602000Y-76214000D01*
X91601000Y-76215732D01*
X91600000Y-76216000D01*
X89498000Y-76216000D01*
X89496268Y-76215000D01*
X89496000Y-76214000D01*
X89496000Y-76066000D01*
X89497000Y-76064268D01*
X89498000Y-76064000D01*
X91600000Y-76064000D01*
X91601732Y-76065000D01*
G37*
G36*
X85001732Y-75415000D02*
G01*
X85002000Y-75416000D01*
X85002000Y-75564000D01*
X85001000Y-75565732D01*
X85000000Y-75566000D01*
X82898000Y-75566000D01*
X82896268Y-75565000D01*
X82896000Y-75564000D01*
X82896000Y-75416000D01*
X82897000Y-75414268D01*
X82898000Y-75414000D01*
X85000000Y-75414000D01*
X85001732Y-75415000D01*
G37*
G36*
X91601732Y-75415000D02*
G01*
X91602000Y-75416000D01*
X91602000Y-75564000D01*
X91601000Y-75565732D01*
X91600000Y-75566000D01*
X89498000Y-75566000D01*
X89496268Y-75565000D01*
X89496000Y-75564000D01*
X89496000Y-75416000D01*
X89497000Y-75414268D01*
X89498000Y-75414000D01*
X91600000Y-75414000D01*
X91601732Y-75415000D01*
G37*
M02*
