G04 #@! TF.FileFunction,Copper,L1,Top,Signal*
%FSLAX46Y46*%
G04 Gerber Fmt 4.6, Leading zero omitted, Abs format (unit mm)*
G04 Created by KiCad (PCBNEW 4.0.0-stable) date 06.09.2016 12:35:27*
%MOMM*%
G01*
G04 APERTURE LIST*
%ADD10C,0.100000*%
%ADD11C,1.600000*%
%ADD12R,2.540000X2.540000*%
%ADD13C,2.540000*%
%ADD14C,2.000000*%
%ADD15C,0.600000*%
%ADD16C,0.250000*%
G04 APERTURE END LIST*
D10*
D11*
X41910000Y-42672000D03*
X36830000Y-42672000D03*
X41910000Y-45212000D03*
X36830000Y-45212000D03*
X36830000Y-40132000D03*
X41910000Y-40132000D03*
X36830000Y-47752000D03*
X41910000Y-47752000D03*
X36830000Y-50292000D03*
X36830000Y-52832000D03*
X36830000Y-55372000D03*
X36830000Y-57912000D03*
X41910000Y-50292000D03*
X41910000Y-52832000D03*
X41910000Y-55372000D03*
X41910000Y-57912000D03*
D12*
X41148000Y-65786000D03*
D13*
X41148000Y-70866000D03*
D12*
X119634000Y-34290000D03*
D13*
X114554000Y-34290000D03*
D12*
X114554000Y-89408000D03*
D13*
X119634000Y-89408000D03*
D12*
X109220000Y-34290000D03*
D13*
X104140000Y-34290000D03*
D12*
X104140000Y-89408000D03*
D13*
X109220000Y-89408000D03*
D12*
X98806000Y-34290000D03*
D13*
X93726000Y-34290000D03*
D12*
X93726000Y-89408000D03*
D13*
X98806000Y-89408000D03*
D12*
X88392000Y-34290000D03*
D13*
X83312000Y-34290000D03*
D12*
X83312000Y-89408000D03*
D13*
X88392000Y-89408000D03*
D14*
X120650000Y-59182000D03*
X125730000Y-59182000D03*
X128270000Y-59182000D03*
X120650000Y-41402000D03*
X128270000Y-41402000D03*
X128270000Y-64516000D03*
X123190000Y-64516000D03*
X120650000Y-64516000D03*
X128270000Y-82296000D03*
X120650000Y-82296000D03*
X110236000Y-59182000D03*
X115316000Y-59182000D03*
X117856000Y-59182000D03*
X110236000Y-41402000D03*
X117856000Y-41402000D03*
X117856000Y-64516000D03*
X112776000Y-64516000D03*
X110236000Y-64516000D03*
X117856000Y-82296000D03*
X110236000Y-82296000D03*
X99822000Y-59182000D03*
X104902000Y-59182000D03*
X107442000Y-59182000D03*
X99822000Y-41402000D03*
X107442000Y-41402000D03*
X107442000Y-64516000D03*
X102362000Y-64516000D03*
X99822000Y-64516000D03*
X107442000Y-82296000D03*
X99822000Y-82296000D03*
X89408000Y-59182000D03*
X94488000Y-59182000D03*
X97028000Y-59182000D03*
X89408000Y-41402000D03*
X97028000Y-41402000D03*
X97028000Y-64516000D03*
X91948000Y-64516000D03*
X89408000Y-64516000D03*
X97028000Y-82296000D03*
X89408000Y-82296000D03*
D12*
X77978000Y-34290000D03*
D13*
X72898000Y-34290000D03*
D12*
X72898000Y-89408000D03*
D13*
X77978000Y-89408000D03*
D12*
X67564000Y-34290000D03*
D13*
X62484000Y-34290000D03*
D12*
X62484000Y-89408000D03*
D13*
X67564000Y-89408000D03*
D12*
X57150000Y-34290000D03*
D13*
X52070000Y-34290000D03*
D12*
X52070000Y-89408000D03*
D13*
X57150000Y-89408000D03*
D12*
X46736000Y-34290000D03*
D13*
X41656000Y-34290000D03*
D12*
X41656000Y-89408000D03*
D13*
X46736000Y-89408000D03*
D14*
X78994000Y-59182000D03*
X84074000Y-59182000D03*
X86614000Y-59182000D03*
X78994000Y-41402000D03*
X86614000Y-41402000D03*
X86614000Y-64516000D03*
X81534000Y-64516000D03*
X78994000Y-64516000D03*
X86614000Y-82296000D03*
X78994000Y-82296000D03*
X68580000Y-59182000D03*
X73660000Y-59182000D03*
X76200000Y-59182000D03*
X68580000Y-41402000D03*
X76200000Y-41402000D03*
X76200000Y-64516000D03*
X71120000Y-64516000D03*
X68580000Y-64516000D03*
X76200000Y-82296000D03*
X68580000Y-82296000D03*
X58166000Y-59182000D03*
X63246000Y-59182000D03*
X65786000Y-59182000D03*
X58166000Y-41402000D03*
X65786000Y-41402000D03*
X65786000Y-64516000D03*
X60706000Y-64516000D03*
X58166000Y-64516000D03*
X65786000Y-82296000D03*
X58166000Y-82296000D03*
X47752000Y-59182000D03*
X52832000Y-59182000D03*
X55372000Y-59182000D03*
X47752000Y-41402000D03*
X55372000Y-41402000D03*
X55372000Y-64516000D03*
X50292000Y-64516000D03*
X47752000Y-64516000D03*
X55372000Y-82296000D03*
X47752000Y-82296000D03*
D15*
X123190000Y-73660000D03*
X110236000Y-52832000D03*
X110236000Y-50546000D03*
X112776000Y-73660000D03*
X99822000Y-50546000D03*
X99822000Y-54356000D03*
X102362000Y-73660000D03*
X92710000Y-42926000D03*
X88138000Y-54356000D03*
X91948000Y-73660000D03*
X86360000Y-54356000D03*
X77724000Y-44704000D03*
X81534000Y-73660000D03*
X69850000Y-44704000D03*
X85344000Y-54356000D03*
X71120000Y-73660000D03*
X67056000Y-54356000D03*
X59436000Y-44704000D03*
X60706000Y-73660000D03*
X56642000Y-54356000D03*
X49022000Y-44704000D03*
X50292000Y-73660000D03*
D16*
X123190000Y-73660000D02*
X123190000Y-64516000D01*
X110236000Y-50546000D02*
X110236000Y-52832000D01*
X112776000Y-73660000D02*
X112776000Y-64516000D01*
X99822000Y-50546000D02*
X99822000Y-54356000D01*
X102362000Y-73660000D02*
X102362000Y-64516000D01*
X92710000Y-49784000D02*
X92710000Y-42926000D01*
X88138000Y-54356000D02*
X92710000Y-49784000D01*
X91948000Y-73660000D02*
X91948000Y-64516000D01*
X80518000Y-53340000D02*
X77724000Y-50546000D01*
X86360000Y-54356000D02*
X86360000Y-53848000D01*
X86360000Y-53848000D02*
X85852000Y-53340000D01*
X85852000Y-53340000D02*
X80518000Y-53340000D01*
X77724000Y-50546000D02*
X77724000Y-44704000D01*
X81534000Y-73660000D02*
X81534000Y-64516000D01*
X69850000Y-44704000D02*
X79502000Y-54356000D01*
X85344000Y-54356000D02*
X79502000Y-54356000D01*
X71120000Y-73660000D02*
X71120000Y-64516000D01*
X67056000Y-54356000D02*
X59436000Y-46736000D01*
X59436000Y-46736000D02*
X59436000Y-44704000D01*
X60706000Y-73660000D02*
X60706000Y-64516000D01*
X54864000Y-52578000D02*
X49022000Y-46736000D01*
X56642000Y-54356000D02*
X54864000Y-52578000D01*
X49022000Y-46736000D02*
X49022000Y-44704000D01*
X50292000Y-73660000D02*
X50292000Y-64516000D01*
G36*
X35655204Y-57677253D02*
X35654796Y-58144697D01*
X35833302Y-58576715D01*
X36163547Y-58907536D01*
X36595253Y-59086796D01*
X37062697Y-59087204D01*
X37494715Y-58908698D01*
X37825536Y-58578453D01*
X38004796Y-58146747D01*
X38005204Y-57679303D01*
X37838150Y-57275000D01*
X40902234Y-57275000D01*
X40735204Y-57677253D01*
X40734796Y-58144697D01*
X40913302Y-58576715D01*
X41243547Y-58907536D01*
X41675253Y-59086796D01*
X42142697Y-59087204D01*
X42408022Y-58977574D01*
X46365047Y-58977574D01*
X46392392Y-59523899D01*
X46548853Y-59901629D01*
X46742816Y-60014408D01*
X47575223Y-59182000D01*
X47928777Y-59182000D01*
X48761184Y-60014408D01*
X48955147Y-59901629D01*
X49114736Y-59454305D01*
X51456762Y-59454305D01*
X51665652Y-59959857D01*
X52052108Y-60346989D01*
X52557296Y-60556761D01*
X53104305Y-60557238D01*
X53609857Y-60348348D01*
X53996989Y-59961892D01*
X54101999Y-59708999D01*
X54205652Y-59959857D01*
X54592108Y-60346989D01*
X55097296Y-60556761D01*
X55644305Y-60557238D01*
X56149857Y-60348348D01*
X56307295Y-60191184D01*
X57333592Y-60191184D01*
X57446371Y-60385147D01*
X57961574Y-60568953D01*
X58507899Y-60541608D01*
X58885629Y-60385147D01*
X58998408Y-60191184D01*
X58166000Y-59358777D01*
X57333592Y-60191184D01*
X56307295Y-60191184D01*
X56536989Y-59961892D01*
X56746761Y-59456704D01*
X56747178Y-58977574D01*
X56779047Y-58977574D01*
X56806392Y-59523899D01*
X56962853Y-59901629D01*
X57156816Y-60014408D01*
X57989223Y-59182000D01*
X58342777Y-59182000D01*
X59175184Y-60014408D01*
X59369147Y-59901629D01*
X59528736Y-59454305D01*
X61870762Y-59454305D01*
X62079652Y-59959857D01*
X62466108Y-60346989D01*
X62971296Y-60556761D01*
X63518305Y-60557238D01*
X64023857Y-60348348D01*
X64410989Y-59961892D01*
X64515999Y-59708999D01*
X64619652Y-59959857D01*
X65006108Y-60346989D01*
X65511296Y-60556761D01*
X66058305Y-60557238D01*
X66563857Y-60348348D01*
X66721295Y-60191184D01*
X67747592Y-60191184D01*
X67860371Y-60385147D01*
X68375574Y-60568953D01*
X68921899Y-60541608D01*
X69299629Y-60385147D01*
X69412408Y-60191184D01*
X68580000Y-59358777D01*
X67747592Y-60191184D01*
X66721295Y-60191184D01*
X66950989Y-59961892D01*
X67160761Y-59456704D01*
X67161178Y-58977574D01*
X67193047Y-58977574D01*
X67220392Y-59523899D01*
X67376853Y-59901629D01*
X67570816Y-60014408D01*
X68403223Y-59182000D01*
X68756777Y-59182000D01*
X69589184Y-60014408D01*
X69783147Y-59901629D01*
X69942736Y-59454305D01*
X72284762Y-59454305D01*
X72493652Y-59959857D01*
X72880108Y-60346989D01*
X73385296Y-60556761D01*
X73932305Y-60557238D01*
X74437857Y-60348348D01*
X74824989Y-59961892D01*
X74929999Y-59708999D01*
X75033652Y-59959857D01*
X75420108Y-60346989D01*
X75925296Y-60556761D01*
X76472305Y-60557238D01*
X76977857Y-60348348D01*
X77135295Y-60191184D01*
X78161592Y-60191184D01*
X78274371Y-60385147D01*
X78789574Y-60568953D01*
X79335899Y-60541608D01*
X79713629Y-60385147D01*
X79826408Y-60191184D01*
X78994000Y-59358777D01*
X78161592Y-60191184D01*
X77135295Y-60191184D01*
X77364989Y-59961892D01*
X77574761Y-59456704D01*
X77575178Y-58977574D01*
X77607047Y-58977574D01*
X77634392Y-59523899D01*
X77790853Y-59901629D01*
X77984816Y-60014408D01*
X78817223Y-59182000D01*
X79170777Y-59182000D01*
X80003184Y-60014408D01*
X80197147Y-59901629D01*
X80356736Y-59454305D01*
X82698762Y-59454305D01*
X82907652Y-59959857D01*
X83294108Y-60346989D01*
X83799296Y-60556761D01*
X84346305Y-60557238D01*
X84851857Y-60348348D01*
X85238989Y-59961892D01*
X85343999Y-59708999D01*
X85447652Y-59959857D01*
X85834108Y-60346989D01*
X86339296Y-60556761D01*
X86886305Y-60557238D01*
X87391857Y-60348348D01*
X87549295Y-60191184D01*
X88575592Y-60191184D01*
X88688371Y-60385147D01*
X89203574Y-60568953D01*
X89749899Y-60541608D01*
X90127629Y-60385147D01*
X90240408Y-60191184D01*
X89408000Y-59358777D01*
X88575592Y-60191184D01*
X87549295Y-60191184D01*
X87778989Y-59961892D01*
X87988761Y-59456704D01*
X87989178Y-58977574D01*
X88021047Y-58977574D01*
X88048392Y-59523899D01*
X88204853Y-59901629D01*
X88398816Y-60014408D01*
X89231223Y-59182000D01*
X89584777Y-59182000D01*
X90417184Y-60014408D01*
X90611147Y-59901629D01*
X90770736Y-59454305D01*
X93112762Y-59454305D01*
X93321652Y-59959857D01*
X93708108Y-60346989D01*
X94213296Y-60556761D01*
X94760305Y-60557238D01*
X95265857Y-60348348D01*
X95652989Y-59961892D01*
X95757999Y-59708999D01*
X95861652Y-59959857D01*
X96248108Y-60346989D01*
X96753296Y-60556761D01*
X97300305Y-60557238D01*
X97805857Y-60348348D01*
X97963295Y-60191184D01*
X98989592Y-60191184D01*
X99102371Y-60385147D01*
X99617574Y-60568953D01*
X100163899Y-60541608D01*
X100541629Y-60385147D01*
X100654408Y-60191184D01*
X99822000Y-59358777D01*
X98989592Y-60191184D01*
X97963295Y-60191184D01*
X98192989Y-59961892D01*
X98402761Y-59456704D01*
X98403178Y-58977574D01*
X98435047Y-58977574D01*
X98462392Y-59523899D01*
X98618853Y-59901629D01*
X98812816Y-60014408D01*
X99645223Y-59182000D01*
X99998777Y-59182000D01*
X100831184Y-60014408D01*
X101025147Y-59901629D01*
X101184736Y-59454305D01*
X103526762Y-59454305D01*
X103735652Y-59959857D01*
X104122108Y-60346989D01*
X104627296Y-60556761D01*
X105174305Y-60557238D01*
X105679857Y-60348348D01*
X106066989Y-59961892D01*
X106171999Y-59708999D01*
X106275652Y-59959857D01*
X106662108Y-60346989D01*
X107167296Y-60556761D01*
X107714305Y-60557238D01*
X108219857Y-60348348D01*
X108377295Y-60191184D01*
X109403592Y-60191184D01*
X109516371Y-60385147D01*
X110031574Y-60568953D01*
X110577899Y-60541608D01*
X110955629Y-60385147D01*
X111068408Y-60191184D01*
X110236000Y-59358777D01*
X109403592Y-60191184D01*
X108377295Y-60191184D01*
X108606989Y-59961892D01*
X108816761Y-59456704D01*
X108817178Y-58977574D01*
X108849047Y-58977574D01*
X108876392Y-59523899D01*
X109032853Y-59901629D01*
X109226816Y-60014408D01*
X110059223Y-59182000D01*
X110412777Y-59182000D01*
X111245184Y-60014408D01*
X111439147Y-59901629D01*
X111598736Y-59454305D01*
X113940762Y-59454305D01*
X114149652Y-59959857D01*
X114536108Y-60346989D01*
X115041296Y-60556761D01*
X115588305Y-60557238D01*
X116093857Y-60348348D01*
X116480989Y-59961892D01*
X116585999Y-59708999D01*
X116689652Y-59959857D01*
X117076108Y-60346989D01*
X117581296Y-60556761D01*
X118128305Y-60557238D01*
X118633857Y-60348348D01*
X118791295Y-60191184D01*
X119817592Y-60191184D01*
X119930371Y-60385147D01*
X120445574Y-60568953D01*
X120991899Y-60541608D01*
X121369629Y-60385147D01*
X121482408Y-60191184D01*
X120650000Y-59358777D01*
X119817592Y-60191184D01*
X118791295Y-60191184D01*
X119020989Y-59961892D01*
X119230761Y-59456704D01*
X119231178Y-58977574D01*
X119263047Y-58977574D01*
X119290392Y-59523899D01*
X119446853Y-59901629D01*
X119640816Y-60014408D01*
X120473223Y-59182000D01*
X120826777Y-59182000D01*
X121659184Y-60014408D01*
X121853147Y-59901629D01*
X122012736Y-59454305D01*
X124354762Y-59454305D01*
X124563652Y-59959857D01*
X124950108Y-60346989D01*
X125455296Y-60556761D01*
X126002305Y-60557238D01*
X126507857Y-60348348D01*
X126894989Y-59961892D01*
X126999999Y-59708999D01*
X127103652Y-59959857D01*
X127490108Y-60346989D01*
X127995296Y-60556761D01*
X128542305Y-60557238D01*
X129047857Y-60348348D01*
X129434989Y-59961892D01*
X129644761Y-59456704D01*
X129645238Y-58909695D01*
X129436348Y-58404143D01*
X129049892Y-58017011D01*
X128544704Y-57807239D01*
X127997695Y-57806762D01*
X127492143Y-58015652D01*
X127105011Y-58402108D01*
X127000001Y-58655001D01*
X126896348Y-58404143D01*
X126509892Y-58017011D01*
X126004704Y-57807239D01*
X125457695Y-57806762D01*
X124952143Y-58015652D01*
X124565011Y-58402108D01*
X124355239Y-58907296D01*
X124354762Y-59454305D01*
X122012736Y-59454305D01*
X122036953Y-59386426D01*
X122009608Y-58840101D01*
X121853147Y-58462371D01*
X121659184Y-58349592D01*
X120826777Y-59182000D01*
X120473223Y-59182000D01*
X119640816Y-58349592D01*
X119446853Y-58462371D01*
X119263047Y-58977574D01*
X119231178Y-58977574D01*
X119231238Y-58909695D01*
X119022348Y-58404143D01*
X118791425Y-58172816D01*
X119817592Y-58172816D01*
X120650000Y-59005223D01*
X121482408Y-58172816D01*
X121369629Y-57978853D01*
X120854426Y-57795047D01*
X120308101Y-57822392D01*
X119930371Y-57978853D01*
X119817592Y-58172816D01*
X118791425Y-58172816D01*
X118635892Y-58017011D01*
X118130704Y-57807239D01*
X117583695Y-57806762D01*
X117078143Y-58015652D01*
X116691011Y-58402108D01*
X116586001Y-58655001D01*
X116482348Y-58404143D01*
X116095892Y-58017011D01*
X115590704Y-57807239D01*
X115043695Y-57806762D01*
X114538143Y-58015652D01*
X114151011Y-58402108D01*
X113941239Y-58907296D01*
X113940762Y-59454305D01*
X111598736Y-59454305D01*
X111622953Y-59386426D01*
X111595608Y-58840101D01*
X111439147Y-58462371D01*
X111245184Y-58349592D01*
X110412777Y-59182000D01*
X110059223Y-59182000D01*
X109226816Y-58349592D01*
X109032853Y-58462371D01*
X108849047Y-58977574D01*
X108817178Y-58977574D01*
X108817238Y-58909695D01*
X108608348Y-58404143D01*
X108377425Y-58172816D01*
X109403592Y-58172816D01*
X110236000Y-59005223D01*
X111068408Y-58172816D01*
X110955629Y-57978853D01*
X110440426Y-57795047D01*
X109894101Y-57822392D01*
X109516371Y-57978853D01*
X109403592Y-58172816D01*
X108377425Y-58172816D01*
X108221892Y-58017011D01*
X107716704Y-57807239D01*
X107169695Y-57806762D01*
X106664143Y-58015652D01*
X106277011Y-58402108D01*
X106172001Y-58655001D01*
X106068348Y-58404143D01*
X105681892Y-58017011D01*
X105176704Y-57807239D01*
X104629695Y-57806762D01*
X104124143Y-58015652D01*
X103737011Y-58402108D01*
X103527239Y-58907296D01*
X103526762Y-59454305D01*
X101184736Y-59454305D01*
X101208953Y-59386426D01*
X101181608Y-58840101D01*
X101025147Y-58462371D01*
X100831184Y-58349592D01*
X99998777Y-59182000D01*
X99645223Y-59182000D01*
X98812816Y-58349592D01*
X98618853Y-58462371D01*
X98435047Y-58977574D01*
X98403178Y-58977574D01*
X98403238Y-58909695D01*
X98194348Y-58404143D01*
X97963425Y-58172816D01*
X98989592Y-58172816D01*
X99822000Y-59005223D01*
X100654408Y-58172816D01*
X100541629Y-57978853D01*
X100026426Y-57795047D01*
X99480101Y-57822392D01*
X99102371Y-57978853D01*
X98989592Y-58172816D01*
X97963425Y-58172816D01*
X97807892Y-58017011D01*
X97302704Y-57807239D01*
X96755695Y-57806762D01*
X96250143Y-58015652D01*
X95863011Y-58402108D01*
X95758001Y-58655001D01*
X95654348Y-58404143D01*
X95267892Y-58017011D01*
X94762704Y-57807239D01*
X94215695Y-57806762D01*
X93710143Y-58015652D01*
X93323011Y-58402108D01*
X93113239Y-58907296D01*
X93112762Y-59454305D01*
X90770736Y-59454305D01*
X90794953Y-59386426D01*
X90767608Y-58840101D01*
X90611147Y-58462371D01*
X90417184Y-58349592D01*
X89584777Y-59182000D01*
X89231223Y-59182000D01*
X88398816Y-58349592D01*
X88204853Y-58462371D01*
X88021047Y-58977574D01*
X87989178Y-58977574D01*
X87989238Y-58909695D01*
X87780348Y-58404143D01*
X87549425Y-58172816D01*
X88575592Y-58172816D01*
X89408000Y-59005223D01*
X90240408Y-58172816D01*
X90127629Y-57978853D01*
X89612426Y-57795047D01*
X89066101Y-57822392D01*
X88688371Y-57978853D01*
X88575592Y-58172816D01*
X87549425Y-58172816D01*
X87393892Y-58017011D01*
X86888704Y-57807239D01*
X86341695Y-57806762D01*
X85836143Y-58015652D01*
X85449011Y-58402108D01*
X85344001Y-58655001D01*
X85240348Y-58404143D01*
X84853892Y-58017011D01*
X84348704Y-57807239D01*
X83801695Y-57806762D01*
X83296143Y-58015652D01*
X82909011Y-58402108D01*
X82699239Y-58907296D01*
X82698762Y-59454305D01*
X80356736Y-59454305D01*
X80380953Y-59386426D01*
X80353608Y-58840101D01*
X80197147Y-58462371D01*
X80003184Y-58349592D01*
X79170777Y-59182000D01*
X78817223Y-59182000D01*
X77984816Y-58349592D01*
X77790853Y-58462371D01*
X77607047Y-58977574D01*
X77575178Y-58977574D01*
X77575238Y-58909695D01*
X77366348Y-58404143D01*
X77135425Y-58172816D01*
X78161592Y-58172816D01*
X78994000Y-59005223D01*
X79826408Y-58172816D01*
X79713629Y-57978853D01*
X79198426Y-57795047D01*
X78652101Y-57822392D01*
X78274371Y-57978853D01*
X78161592Y-58172816D01*
X77135425Y-58172816D01*
X76979892Y-58017011D01*
X76474704Y-57807239D01*
X75927695Y-57806762D01*
X75422143Y-58015652D01*
X75035011Y-58402108D01*
X74930001Y-58655001D01*
X74826348Y-58404143D01*
X74439892Y-58017011D01*
X73934704Y-57807239D01*
X73387695Y-57806762D01*
X72882143Y-58015652D01*
X72495011Y-58402108D01*
X72285239Y-58907296D01*
X72284762Y-59454305D01*
X69942736Y-59454305D01*
X69966953Y-59386426D01*
X69939608Y-58840101D01*
X69783147Y-58462371D01*
X69589184Y-58349592D01*
X68756777Y-59182000D01*
X68403223Y-59182000D01*
X67570816Y-58349592D01*
X67376853Y-58462371D01*
X67193047Y-58977574D01*
X67161178Y-58977574D01*
X67161238Y-58909695D01*
X66952348Y-58404143D01*
X66721425Y-58172816D01*
X67747592Y-58172816D01*
X68580000Y-59005223D01*
X69412408Y-58172816D01*
X69299629Y-57978853D01*
X68784426Y-57795047D01*
X68238101Y-57822392D01*
X67860371Y-57978853D01*
X67747592Y-58172816D01*
X66721425Y-58172816D01*
X66565892Y-58017011D01*
X66060704Y-57807239D01*
X65513695Y-57806762D01*
X65008143Y-58015652D01*
X64621011Y-58402108D01*
X64516001Y-58655001D01*
X64412348Y-58404143D01*
X64025892Y-58017011D01*
X63520704Y-57807239D01*
X62973695Y-57806762D01*
X62468143Y-58015652D01*
X62081011Y-58402108D01*
X61871239Y-58907296D01*
X61870762Y-59454305D01*
X59528736Y-59454305D01*
X59552953Y-59386426D01*
X59525608Y-58840101D01*
X59369147Y-58462371D01*
X59175184Y-58349592D01*
X58342777Y-59182000D01*
X57989223Y-59182000D01*
X57156816Y-58349592D01*
X56962853Y-58462371D01*
X56779047Y-58977574D01*
X56747178Y-58977574D01*
X56747238Y-58909695D01*
X56538348Y-58404143D01*
X56307425Y-58172816D01*
X57333592Y-58172816D01*
X58166000Y-59005223D01*
X58998408Y-58172816D01*
X58885629Y-57978853D01*
X58370426Y-57795047D01*
X57824101Y-57822392D01*
X57446371Y-57978853D01*
X57333592Y-58172816D01*
X56307425Y-58172816D01*
X56151892Y-58017011D01*
X55646704Y-57807239D01*
X55099695Y-57806762D01*
X54594143Y-58015652D01*
X54207011Y-58402108D01*
X54102001Y-58655001D01*
X53998348Y-58404143D01*
X53611892Y-58017011D01*
X53106704Y-57807239D01*
X52559695Y-57806762D01*
X52054143Y-58015652D01*
X51667011Y-58402108D01*
X51457239Y-58907296D01*
X51456762Y-59454305D01*
X49114736Y-59454305D01*
X49138953Y-59386426D01*
X49111608Y-58840101D01*
X48955147Y-58462371D01*
X48761184Y-58349592D01*
X47928777Y-59182000D01*
X47575223Y-59182000D01*
X46742816Y-58349592D01*
X46548853Y-58462371D01*
X46365047Y-58977574D01*
X42408022Y-58977574D01*
X42574715Y-58908698D01*
X42905536Y-58578453D01*
X43073971Y-58172816D01*
X46919592Y-58172816D01*
X47752000Y-59005223D01*
X48584408Y-58172816D01*
X48471629Y-57978853D01*
X47956426Y-57795047D01*
X47410101Y-57822392D01*
X47032371Y-57978853D01*
X46919592Y-58172816D01*
X43073971Y-58172816D01*
X43084796Y-58146747D01*
X43085204Y-57679303D01*
X42918150Y-57275000D01*
X129669000Y-57275000D01*
X129669000Y-71757000D01*
X123690000Y-71757000D01*
X123690000Y-65797156D01*
X123967857Y-65682348D01*
X124125295Y-65525184D01*
X127437592Y-65525184D01*
X127550371Y-65719147D01*
X128065574Y-65902953D01*
X128611899Y-65875608D01*
X128989629Y-65719147D01*
X129102408Y-65525184D01*
X128270000Y-64692777D01*
X127437592Y-65525184D01*
X124125295Y-65525184D01*
X124354989Y-65295892D01*
X124564761Y-64790704D01*
X124565178Y-64311574D01*
X126883047Y-64311574D01*
X126910392Y-64857899D01*
X127066853Y-65235629D01*
X127260816Y-65348408D01*
X128093223Y-64516000D01*
X128446777Y-64516000D01*
X129279184Y-65348408D01*
X129473147Y-65235629D01*
X129656953Y-64720426D01*
X129629608Y-64174101D01*
X129473147Y-63796371D01*
X129279184Y-63683592D01*
X128446777Y-64516000D01*
X128093223Y-64516000D01*
X127260816Y-63683592D01*
X127066853Y-63796371D01*
X126883047Y-64311574D01*
X124565178Y-64311574D01*
X124565238Y-64243695D01*
X124356348Y-63738143D01*
X124125425Y-63506816D01*
X127437592Y-63506816D01*
X128270000Y-64339223D01*
X129102408Y-63506816D01*
X128989629Y-63312853D01*
X128474426Y-63129047D01*
X127928101Y-63156392D01*
X127550371Y-63312853D01*
X127437592Y-63506816D01*
X124125425Y-63506816D01*
X123969892Y-63351011D01*
X123464704Y-63141239D01*
X122917695Y-63140762D01*
X122412143Y-63349652D01*
X122025011Y-63736108D01*
X121920001Y-63989001D01*
X121816348Y-63738143D01*
X121429892Y-63351011D01*
X120924704Y-63141239D01*
X120377695Y-63140762D01*
X119872143Y-63349652D01*
X119485011Y-63736108D01*
X119275239Y-64241296D01*
X119274762Y-64788305D01*
X119483652Y-65293857D01*
X119870108Y-65680989D01*
X120375296Y-65890761D01*
X120922305Y-65891238D01*
X121427857Y-65682348D01*
X121814989Y-65295892D01*
X121919999Y-65042999D01*
X122023652Y-65293857D01*
X122410108Y-65680989D01*
X122690000Y-65797210D01*
X122690000Y-71757000D01*
X113276000Y-71757000D01*
X113276000Y-65797156D01*
X113553857Y-65682348D01*
X113711295Y-65525184D01*
X117023592Y-65525184D01*
X117136371Y-65719147D01*
X117651574Y-65902953D01*
X118197899Y-65875608D01*
X118575629Y-65719147D01*
X118688408Y-65525184D01*
X117856000Y-64692777D01*
X117023592Y-65525184D01*
X113711295Y-65525184D01*
X113940989Y-65295892D01*
X114150761Y-64790704D01*
X114151178Y-64311574D01*
X116469047Y-64311574D01*
X116496392Y-64857899D01*
X116652853Y-65235629D01*
X116846816Y-65348408D01*
X117679223Y-64516000D01*
X118032777Y-64516000D01*
X118865184Y-65348408D01*
X119059147Y-65235629D01*
X119242953Y-64720426D01*
X119215608Y-64174101D01*
X119059147Y-63796371D01*
X118865184Y-63683592D01*
X118032777Y-64516000D01*
X117679223Y-64516000D01*
X116846816Y-63683592D01*
X116652853Y-63796371D01*
X116469047Y-64311574D01*
X114151178Y-64311574D01*
X114151238Y-64243695D01*
X113942348Y-63738143D01*
X113711425Y-63506816D01*
X117023592Y-63506816D01*
X117856000Y-64339223D01*
X118688408Y-63506816D01*
X118575629Y-63312853D01*
X118060426Y-63129047D01*
X117514101Y-63156392D01*
X117136371Y-63312853D01*
X117023592Y-63506816D01*
X113711425Y-63506816D01*
X113555892Y-63351011D01*
X113050704Y-63141239D01*
X112503695Y-63140762D01*
X111998143Y-63349652D01*
X111611011Y-63736108D01*
X111506001Y-63989001D01*
X111402348Y-63738143D01*
X111015892Y-63351011D01*
X110510704Y-63141239D01*
X109963695Y-63140762D01*
X109458143Y-63349652D01*
X109071011Y-63736108D01*
X108861239Y-64241296D01*
X108860762Y-64788305D01*
X109069652Y-65293857D01*
X109456108Y-65680989D01*
X109961296Y-65890761D01*
X110508305Y-65891238D01*
X111013857Y-65682348D01*
X111400989Y-65295892D01*
X111505999Y-65042999D01*
X111609652Y-65293857D01*
X111996108Y-65680989D01*
X112276000Y-65797210D01*
X112276000Y-71757000D01*
X102862000Y-71757000D01*
X102862000Y-65797156D01*
X103139857Y-65682348D01*
X103297295Y-65525184D01*
X106609592Y-65525184D01*
X106722371Y-65719147D01*
X107237574Y-65902953D01*
X107783899Y-65875608D01*
X108161629Y-65719147D01*
X108274408Y-65525184D01*
X107442000Y-64692777D01*
X106609592Y-65525184D01*
X103297295Y-65525184D01*
X103526989Y-65295892D01*
X103736761Y-64790704D01*
X103737178Y-64311574D01*
X106055047Y-64311574D01*
X106082392Y-64857899D01*
X106238853Y-65235629D01*
X106432816Y-65348408D01*
X107265223Y-64516000D01*
X107618777Y-64516000D01*
X108451184Y-65348408D01*
X108645147Y-65235629D01*
X108828953Y-64720426D01*
X108801608Y-64174101D01*
X108645147Y-63796371D01*
X108451184Y-63683592D01*
X107618777Y-64516000D01*
X107265223Y-64516000D01*
X106432816Y-63683592D01*
X106238853Y-63796371D01*
X106055047Y-64311574D01*
X103737178Y-64311574D01*
X103737238Y-64243695D01*
X103528348Y-63738143D01*
X103297425Y-63506816D01*
X106609592Y-63506816D01*
X107442000Y-64339223D01*
X108274408Y-63506816D01*
X108161629Y-63312853D01*
X107646426Y-63129047D01*
X107100101Y-63156392D01*
X106722371Y-63312853D01*
X106609592Y-63506816D01*
X103297425Y-63506816D01*
X103141892Y-63351011D01*
X102636704Y-63141239D01*
X102089695Y-63140762D01*
X101584143Y-63349652D01*
X101197011Y-63736108D01*
X101092001Y-63989001D01*
X100988348Y-63738143D01*
X100601892Y-63351011D01*
X100096704Y-63141239D01*
X99549695Y-63140762D01*
X99044143Y-63349652D01*
X98657011Y-63736108D01*
X98447239Y-64241296D01*
X98446762Y-64788305D01*
X98655652Y-65293857D01*
X99042108Y-65680989D01*
X99547296Y-65890761D01*
X100094305Y-65891238D01*
X100599857Y-65682348D01*
X100986989Y-65295892D01*
X101091999Y-65042999D01*
X101195652Y-65293857D01*
X101582108Y-65680989D01*
X101862000Y-65797210D01*
X101862000Y-71757000D01*
X92448000Y-71757000D01*
X92448000Y-65797156D01*
X92725857Y-65682348D01*
X92883295Y-65525184D01*
X96195592Y-65525184D01*
X96308371Y-65719147D01*
X96823574Y-65902953D01*
X97369899Y-65875608D01*
X97747629Y-65719147D01*
X97860408Y-65525184D01*
X97028000Y-64692777D01*
X96195592Y-65525184D01*
X92883295Y-65525184D01*
X93112989Y-65295892D01*
X93322761Y-64790704D01*
X93323178Y-64311574D01*
X95641047Y-64311574D01*
X95668392Y-64857899D01*
X95824853Y-65235629D01*
X96018816Y-65348408D01*
X96851223Y-64516000D01*
X97204777Y-64516000D01*
X98037184Y-65348408D01*
X98231147Y-65235629D01*
X98414953Y-64720426D01*
X98387608Y-64174101D01*
X98231147Y-63796371D01*
X98037184Y-63683592D01*
X97204777Y-64516000D01*
X96851223Y-64516000D01*
X96018816Y-63683592D01*
X95824853Y-63796371D01*
X95641047Y-64311574D01*
X93323178Y-64311574D01*
X93323238Y-64243695D01*
X93114348Y-63738143D01*
X92883425Y-63506816D01*
X96195592Y-63506816D01*
X97028000Y-64339223D01*
X97860408Y-63506816D01*
X97747629Y-63312853D01*
X97232426Y-63129047D01*
X96686101Y-63156392D01*
X96308371Y-63312853D01*
X96195592Y-63506816D01*
X92883425Y-63506816D01*
X92727892Y-63351011D01*
X92222704Y-63141239D01*
X91675695Y-63140762D01*
X91170143Y-63349652D01*
X90783011Y-63736108D01*
X90678001Y-63989001D01*
X90574348Y-63738143D01*
X90187892Y-63351011D01*
X89682704Y-63141239D01*
X89135695Y-63140762D01*
X88630143Y-63349652D01*
X88243011Y-63736108D01*
X88033239Y-64241296D01*
X88032762Y-64788305D01*
X88241652Y-65293857D01*
X88628108Y-65680989D01*
X89133296Y-65890761D01*
X89680305Y-65891238D01*
X90185857Y-65682348D01*
X90572989Y-65295892D01*
X90677999Y-65042999D01*
X90781652Y-65293857D01*
X91168108Y-65680989D01*
X91448000Y-65797210D01*
X91448000Y-71757000D01*
X82034000Y-71757000D01*
X82034000Y-65797156D01*
X82311857Y-65682348D01*
X82469295Y-65525184D01*
X85781592Y-65525184D01*
X85894371Y-65719147D01*
X86409574Y-65902953D01*
X86955899Y-65875608D01*
X87333629Y-65719147D01*
X87446408Y-65525184D01*
X86614000Y-64692777D01*
X85781592Y-65525184D01*
X82469295Y-65525184D01*
X82698989Y-65295892D01*
X82908761Y-64790704D01*
X82909178Y-64311574D01*
X85227047Y-64311574D01*
X85254392Y-64857899D01*
X85410853Y-65235629D01*
X85604816Y-65348408D01*
X86437223Y-64516000D01*
X86790777Y-64516000D01*
X87623184Y-65348408D01*
X87817147Y-65235629D01*
X88000953Y-64720426D01*
X87973608Y-64174101D01*
X87817147Y-63796371D01*
X87623184Y-63683592D01*
X86790777Y-64516000D01*
X86437223Y-64516000D01*
X85604816Y-63683592D01*
X85410853Y-63796371D01*
X85227047Y-64311574D01*
X82909178Y-64311574D01*
X82909238Y-64243695D01*
X82700348Y-63738143D01*
X82469425Y-63506816D01*
X85781592Y-63506816D01*
X86614000Y-64339223D01*
X87446408Y-63506816D01*
X87333629Y-63312853D01*
X86818426Y-63129047D01*
X86272101Y-63156392D01*
X85894371Y-63312853D01*
X85781592Y-63506816D01*
X82469425Y-63506816D01*
X82313892Y-63351011D01*
X81808704Y-63141239D01*
X81261695Y-63140762D01*
X80756143Y-63349652D01*
X80369011Y-63736108D01*
X80264001Y-63989001D01*
X80160348Y-63738143D01*
X79773892Y-63351011D01*
X79268704Y-63141239D01*
X78721695Y-63140762D01*
X78216143Y-63349652D01*
X77829011Y-63736108D01*
X77619239Y-64241296D01*
X77618762Y-64788305D01*
X77827652Y-65293857D01*
X78214108Y-65680989D01*
X78719296Y-65890761D01*
X79266305Y-65891238D01*
X79771857Y-65682348D01*
X80158989Y-65295892D01*
X80263999Y-65042999D01*
X80367652Y-65293857D01*
X80754108Y-65680989D01*
X81034000Y-65797210D01*
X81034000Y-71757000D01*
X71620000Y-71757000D01*
X71620000Y-65797156D01*
X71897857Y-65682348D01*
X72055295Y-65525184D01*
X75367592Y-65525184D01*
X75480371Y-65719147D01*
X75995574Y-65902953D01*
X76541899Y-65875608D01*
X76919629Y-65719147D01*
X77032408Y-65525184D01*
X76200000Y-64692777D01*
X75367592Y-65525184D01*
X72055295Y-65525184D01*
X72284989Y-65295892D01*
X72494761Y-64790704D01*
X72495178Y-64311574D01*
X74813047Y-64311574D01*
X74840392Y-64857899D01*
X74996853Y-65235629D01*
X75190816Y-65348408D01*
X76023223Y-64516000D01*
X76376777Y-64516000D01*
X77209184Y-65348408D01*
X77403147Y-65235629D01*
X77586953Y-64720426D01*
X77559608Y-64174101D01*
X77403147Y-63796371D01*
X77209184Y-63683592D01*
X76376777Y-64516000D01*
X76023223Y-64516000D01*
X75190816Y-63683592D01*
X74996853Y-63796371D01*
X74813047Y-64311574D01*
X72495178Y-64311574D01*
X72495238Y-64243695D01*
X72286348Y-63738143D01*
X72055425Y-63506816D01*
X75367592Y-63506816D01*
X76200000Y-64339223D01*
X77032408Y-63506816D01*
X76919629Y-63312853D01*
X76404426Y-63129047D01*
X75858101Y-63156392D01*
X75480371Y-63312853D01*
X75367592Y-63506816D01*
X72055425Y-63506816D01*
X71899892Y-63351011D01*
X71394704Y-63141239D01*
X70847695Y-63140762D01*
X70342143Y-63349652D01*
X69955011Y-63736108D01*
X69850001Y-63989001D01*
X69746348Y-63738143D01*
X69359892Y-63351011D01*
X68854704Y-63141239D01*
X68307695Y-63140762D01*
X67802143Y-63349652D01*
X67415011Y-63736108D01*
X67205239Y-64241296D01*
X67204762Y-64788305D01*
X67413652Y-65293857D01*
X67800108Y-65680989D01*
X68305296Y-65890761D01*
X68852305Y-65891238D01*
X69357857Y-65682348D01*
X69744989Y-65295892D01*
X69849999Y-65042999D01*
X69953652Y-65293857D01*
X70340108Y-65680989D01*
X70620000Y-65797210D01*
X70620000Y-71757000D01*
X61206000Y-71757000D01*
X61206000Y-65797156D01*
X61483857Y-65682348D01*
X61641295Y-65525184D01*
X64953592Y-65525184D01*
X65066371Y-65719147D01*
X65581574Y-65902953D01*
X66127899Y-65875608D01*
X66505629Y-65719147D01*
X66618408Y-65525184D01*
X65786000Y-64692777D01*
X64953592Y-65525184D01*
X61641295Y-65525184D01*
X61870989Y-65295892D01*
X62080761Y-64790704D01*
X62081178Y-64311574D01*
X64399047Y-64311574D01*
X64426392Y-64857899D01*
X64582853Y-65235629D01*
X64776816Y-65348408D01*
X65609223Y-64516000D01*
X65962777Y-64516000D01*
X66795184Y-65348408D01*
X66989147Y-65235629D01*
X67172953Y-64720426D01*
X67145608Y-64174101D01*
X66989147Y-63796371D01*
X66795184Y-63683592D01*
X65962777Y-64516000D01*
X65609223Y-64516000D01*
X64776816Y-63683592D01*
X64582853Y-63796371D01*
X64399047Y-64311574D01*
X62081178Y-64311574D01*
X62081238Y-64243695D01*
X61872348Y-63738143D01*
X61641425Y-63506816D01*
X64953592Y-63506816D01*
X65786000Y-64339223D01*
X66618408Y-63506816D01*
X66505629Y-63312853D01*
X65990426Y-63129047D01*
X65444101Y-63156392D01*
X65066371Y-63312853D01*
X64953592Y-63506816D01*
X61641425Y-63506816D01*
X61485892Y-63351011D01*
X60980704Y-63141239D01*
X60433695Y-63140762D01*
X59928143Y-63349652D01*
X59541011Y-63736108D01*
X59436001Y-63989001D01*
X59332348Y-63738143D01*
X58945892Y-63351011D01*
X58440704Y-63141239D01*
X57893695Y-63140762D01*
X57388143Y-63349652D01*
X57001011Y-63736108D01*
X56791239Y-64241296D01*
X56790762Y-64788305D01*
X56999652Y-65293857D01*
X57386108Y-65680989D01*
X57891296Y-65890761D01*
X58438305Y-65891238D01*
X58943857Y-65682348D01*
X59330989Y-65295892D01*
X59435999Y-65042999D01*
X59539652Y-65293857D01*
X59926108Y-65680989D01*
X60206000Y-65797210D01*
X60206000Y-71757000D01*
X50792000Y-71757000D01*
X50792000Y-65797156D01*
X51069857Y-65682348D01*
X51227295Y-65525184D01*
X54539592Y-65525184D01*
X54652371Y-65719147D01*
X55167574Y-65902953D01*
X55713899Y-65875608D01*
X56091629Y-65719147D01*
X56204408Y-65525184D01*
X55372000Y-64692777D01*
X54539592Y-65525184D01*
X51227295Y-65525184D01*
X51456989Y-65295892D01*
X51666761Y-64790704D01*
X51667178Y-64311574D01*
X53985047Y-64311574D01*
X54012392Y-64857899D01*
X54168853Y-65235629D01*
X54362816Y-65348408D01*
X55195223Y-64516000D01*
X55548777Y-64516000D01*
X56381184Y-65348408D01*
X56575147Y-65235629D01*
X56758953Y-64720426D01*
X56731608Y-64174101D01*
X56575147Y-63796371D01*
X56381184Y-63683592D01*
X55548777Y-64516000D01*
X55195223Y-64516000D01*
X54362816Y-63683592D01*
X54168853Y-63796371D01*
X53985047Y-64311574D01*
X51667178Y-64311574D01*
X51667238Y-64243695D01*
X51458348Y-63738143D01*
X51227425Y-63506816D01*
X54539592Y-63506816D01*
X55372000Y-64339223D01*
X56204408Y-63506816D01*
X56091629Y-63312853D01*
X55576426Y-63129047D01*
X55030101Y-63156392D01*
X54652371Y-63312853D01*
X54539592Y-63506816D01*
X51227425Y-63506816D01*
X51071892Y-63351011D01*
X50566704Y-63141239D01*
X50019695Y-63140762D01*
X49514143Y-63349652D01*
X49127011Y-63736108D01*
X49022001Y-63989001D01*
X48918348Y-63738143D01*
X48531892Y-63351011D01*
X48026704Y-63141239D01*
X47479695Y-63140762D01*
X46974143Y-63349652D01*
X46587011Y-63736108D01*
X46377239Y-64241296D01*
X46376762Y-64788305D01*
X46585652Y-65293857D01*
X46972108Y-65680989D01*
X47477296Y-65890761D01*
X48024305Y-65891238D01*
X48529857Y-65682348D01*
X48916989Y-65295892D01*
X49021999Y-65042999D01*
X49125652Y-65293857D01*
X49512108Y-65680989D01*
X49792000Y-65797210D01*
X49792000Y-71757000D01*
X42559204Y-71757000D01*
X42792713Y-71194646D01*
X42793284Y-70540225D01*
X42543376Y-69935400D01*
X42081034Y-69472250D01*
X41476646Y-69221287D01*
X40822225Y-69220716D01*
X40217400Y-69470624D01*
X39754250Y-69932966D01*
X39503287Y-70537354D01*
X39502716Y-71191775D01*
X39736262Y-71757000D01*
X30930000Y-71757000D01*
X30930000Y-66004750D01*
X39503000Y-66004750D01*
X39503000Y-67130592D01*
X39560090Y-67268420D01*
X39665579Y-67373910D01*
X39803408Y-67431000D01*
X40929250Y-67431000D01*
X41023000Y-67337250D01*
X41023000Y-65911000D01*
X41273000Y-65911000D01*
X41273000Y-67337250D01*
X41366750Y-67431000D01*
X42492592Y-67431000D01*
X42630421Y-67373910D01*
X42735910Y-67268420D01*
X42793000Y-67130592D01*
X42793000Y-66004750D01*
X42699250Y-65911000D01*
X41273000Y-65911000D01*
X41023000Y-65911000D01*
X39596750Y-65911000D01*
X39503000Y-66004750D01*
X30930000Y-66004750D01*
X30930000Y-64441408D01*
X39503000Y-64441408D01*
X39503000Y-65567250D01*
X39596750Y-65661000D01*
X41023000Y-65661000D01*
X41023000Y-64234750D01*
X41273000Y-64234750D01*
X41273000Y-65661000D01*
X42699250Y-65661000D01*
X42793000Y-65567250D01*
X42793000Y-64441408D01*
X42735910Y-64303580D01*
X42630421Y-64198090D01*
X42492592Y-64141000D01*
X41366750Y-64141000D01*
X41273000Y-64234750D01*
X41023000Y-64234750D01*
X40929250Y-64141000D01*
X39803408Y-64141000D01*
X39665579Y-64198090D01*
X39560090Y-64303580D01*
X39503000Y-64441408D01*
X30930000Y-64441408D01*
X30930000Y-60191184D01*
X46919592Y-60191184D01*
X47032371Y-60385147D01*
X47547574Y-60568953D01*
X48093899Y-60541608D01*
X48471629Y-60385147D01*
X48584408Y-60191184D01*
X47752000Y-59358777D01*
X46919592Y-60191184D01*
X30930000Y-60191184D01*
X30930000Y-57275000D01*
X35822234Y-57275000D01*
X35655204Y-57677253D01*
X35655204Y-57677253D01*
G37*
X35655204Y-57677253D02*
X35654796Y-58144697D01*
X35833302Y-58576715D01*
X36163547Y-58907536D01*
X36595253Y-59086796D01*
X37062697Y-59087204D01*
X37494715Y-58908698D01*
X37825536Y-58578453D01*
X38004796Y-58146747D01*
X38005204Y-57679303D01*
X37838150Y-57275000D01*
X40902234Y-57275000D01*
X40735204Y-57677253D01*
X40734796Y-58144697D01*
X40913302Y-58576715D01*
X41243547Y-58907536D01*
X41675253Y-59086796D01*
X42142697Y-59087204D01*
X42408022Y-58977574D01*
X46365047Y-58977574D01*
X46392392Y-59523899D01*
X46548853Y-59901629D01*
X46742816Y-60014408D01*
X47575223Y-59182000D01*
X47928777Y-59182000D01*
X48761184Y-60014408D01*
X48955147Y-59901629D01*
X49114736Y-59454305D01*
X51456762Y-59454305D01*
X51665652Y-59959857D01*
X52052108Y-60346989D01*
X52557296Y-60556761D01*
X53104305Y-60557238D01*
X53609857Y-60348348D01*
X53996989Y-59961892D01*
X54101999Y-59708999D01*
X54205652Y-59959857D01*
X54592108Y-60346989D01*
X55097296Y-60556761D01*
X55644305Y-60557238D01*
X56149857Y-60348348D01*
X56307295Y-60191184D01*
X57333592Y-60191184D01*
X57446371Y-60385147D01*
X57961574Y-60568953D01*
X58507899Y-60541608D01*
X58885629Y-60385147D01*
X58998408Y-60191184D01*
X58166000Y-59358777D01*
X57333592Y-60191184D01*
X56307295Y-60191184D01*
X56536989Y-59961892D01*
X56746761Y-59456704D01*
X56747178Y-58977574D01*
X56779047Y-58977574D01*
X56806392Y-59523899D01*
X56962853Y-59901629D01*
X57156816Y-60014408D01*
X57989223Y-59182000D01*
X58342777Y-59182000D01*
X59175184Y-60014408D01*
X59369147Y-59901629D01*
X59528736Y-59454305D01*
X61870762Y-59454305D01*
X62079652Y-59959857D01*
X62466108Y-60346989D01*
X62971296Y-60556761D01*
X63518305Y-60557238D01*
X64023857Y-60348348D01*
X64410989Y-59961892D01*
X64515999Y-59708999D01*
X64619652Y-59959857D01*
X65006108Y-60346989D01*
X65511296Y-60556761D01*
X66058305Y-60557238D01*
X66563857Y-60348348D01*
X66721295Y-60191184D01*
X67747592Y-60191184D01*
X67860371Y-60385147D01*
X68375574Y-60568953D01*
X68921899Y-60541608D01*
X69299629Y-60385147D01*
X69412408Y-60191184D01*
X68580000Y-59358777D01*
X67747592Y-60191184D01*
X66721295Y-60191184D01*
X66950989Y-59961892D01*
X67160761Y-59456704D01*
X67161178Y-58977574D01*
X67193047Y-58977574D01*
X67220392Y-59523899D01*
X67376853Y-59901629D01*
X67570816Y-60014408D01*
X68403223Y-59182000D01*
X68756777Y-59182000D01*
X69589184Y-60014408D01*
X69783147Y-59901629D01*
X69942736Y-59454305D01*
X72284762Y-59454305D01*
X72493652Y-59959857D01*
X72880108Y-60346989D01*
X73385296Y-60556761D01*
X73932305Y-60557238D01*
X74437857Y-60348348D01*
X74824989Y-59961892D01*
X74929999Y-59708999D01*
X75033652Y-59959857D01*
X75420108Y-60346989D01*
X75925296Y-60556761D01*
X76472305Y-60557238D01*
X76977857Y-60348348D01*
X77135295Y-60191184D01*
X78161592Y-60191184D01*
X78274371Y-60385147D01*
X78789574Y-60568953D01*
X79335899Y-60541608D01*
X79713629Y-60385147D01*
X79826408Y-60191184D01*
X78994000Y-59358777D01*
X78161592Y-60191184D01*
X77135295Y-60191184D01*
X77364989Y-59961892D01*
X77574761Y-59456704D01*
X77575178Y-58977574D01*
X77607047Y-58977574D01*
X77634392Y-59523899D01*
X77790853Y-59901629D01*
X77984816Y-60014408D01*
X78817223Y-59182000D01*
X79170777Y-59182000D01*
X80003184Y-60014408D01*
X80197147Y-59901629D01*
X80356736Y-59454305D01*
X82698762Y-59454305D01*
X82907652Y-59959857D01*
X83294108Y-60346989D01*
X83799296Y-60556761D01*
X84346305Y-60557238D01*
X84851857Y-60348348D01*
X85238989Y-59961892D01*
X85343999Y-59708999D01*
X85447652Y-59959857D01*
X85834108Y-60346989D01*
X86339296Y-60556761D01*
X86886305Y-60557238D01*
X87391857Y-60348348D01*
X87549295Y-60191184D01*
X88575592Y-60191184D01*
X88688371Y-60385147D01*
X89203574Y-60568953D01*
X89749899Y-60541608D01*
X90127629Y-60385147D01*
X90240408Y-60191184D01*
X89408000Y-59358777D01*
X88575592Y-60191184D01*
X87549295Y-60191184D01*
X87778989Y-59961892D01*
X87988761Y-59456704D01*
X87989178Y-58977574D01*
X88021047Y-58977574D01*
X88048392Y-59523899D01*
X88204853Y-59901629D01*
X88398816Y-60014408D01*
X89231223Y-59182000D01*
X89584777Y-59182000D01*
X90417184Y-60014408D01*
X90611147Y-59901629D01*
X90770736Y-59454305D01*
X93112762Y-59454305D01*
X93321652Y-59959857D01*
X93708108Y-60346989D01*
X94213296Y-60556761D01*
X94760305Y-60557238D01*
X95265857Y-60348348D01*
X95652989Y-59961892D01*
X95757999Y-59708999D01*
X95861652Y-59959857D01*
X96248108Y-60346989D01*
X96753296Y-60556761D01*
X97300305Y-60557238D01*
X97805857Y-60348348D01*
X97963295Y-60191184D01*
X98989592Y-60191184D01*
X99102371Y-60385147D01*
X99617574Y-60568953D01*
X100163899Y-60541608D01*
X100541629Y-60385147D01*
X100654408Y-60191184D01*
X99822000Y-59358777D01*
X98989592Y-60191184D01*
X97963295Y-60191184D01*
X98192989Y-59961892D01*
X98402761Y-59456704D01*
X98403178Y-58977574D01*
X98435047Y-58977574D01*
X98462392Y-59523899D01*
X98618853Y-59901629D01*
X98812816Y-60014408D01*
X99645223Y-59182000D01*
X99998777Y-59182000D01*
X100831184Y-60014408D01*
X101025147Y-59901629D01*
X101184736Y-59454305D01*
X103526762Y-59454305D01*
X103735652Y-59959857D01*
X104122108Y-60346989D01*
X104627296Y-60556761D01*
X105174305Y-60557238D01*
X105679857Y-60348348D01*
X106066989Y-59961892D01*
X106171999Y-59708999D01*
X106275652Y-59959857D01*
X106662108Y-60346989D01*
X107167296Y-60556761D01*
X107714305Y-60557238D01*
X108219857Y-60348348D01*
X108377295Y-60191184D01*
X109403592Y-60191184D01*
X109516371Y-60385147D01*
X110031574Y-60568953D01*
X110577899Y-60541608D01*
X110955629Y-60385147D01*
X111068408Y-60191184D01*
X110236000Y-59358777D01*
X109403592Y-60191184D01*
X108377295Y-60191184D01*
X108606989Y-59961892D01*
X108816761Y-59456704D01*
X108817178Y-58977574D01*
X108849047Y-58977574D01*
X108876392Y-59523899D01*
X109032853Y-59901629D01*
X109226816Y-60014408D01*
X110059223Y-59182000D01*
X110412777Y-59182000D01*
X111245184Y-60014408D01*
X111439147Y-59901629D01*
X111598736Y-59454305D01*
X113940762Y-59454305D01*
X114149652Y-59959857D01*
X114536108Y-60346989D01*
X115041296Y-60556761D01*
X115588305Y-60557238D01*
X116093857Y-60348348D01*
X116480989Y-59961892D01*
X116585999Y-59708999D01*
X116689652Y-59959857D01*
X117076108Y-60346989D01*
X117581296Y-60556761D01*
X118128305Y-60557238D01*
X118633857Y-60348348D01*
X118791295Y-60191184D01*
X119817592Y-60191184D01*
X119930371Y-60385147D01*
X120445574Y-60568953D01*
X120991899Y-60541608D01*
X121369629Y-60385147D01*
X121482408Y-60191184D01*
X120650000Y-59358777D01*
X119817592Y-60191184D01*
X118791295Y-60191184D01*
X119020989Y-59961892D01*
X119230761Y-59456704D01*
X119231178Y-58977574D01*
X119263047Y-58977574D01*
X119290392Y-59523899D01*
X119446853Y-59901629D01*
X119640816Y-60014408D01*
X120473223Y-59182000D01*
X120826777Y-59182000D01*
X121659184Y-60014408D01*
X121853147Y-59901629D01*
X122012736Y-59454305D01*
X124354762Y-59454305D01*
X124563652Y-59959857D01*
X124950108Y-60346989D01*
X125455296Y-60556761D01*
X126002305Y-60557238D01*
X126507857Y-60348348D01*
X126894989Y-59961892D01*
X126999999Y-59708999D01*
X127103652Y-59959857D01*
X127490108Y-60346989D01*
X127995296Y-60556761D01*
X128542305Y-60557238D01*
X129047857Y-60348348D01*
X129434989Y-59961892D01*
X129644761Y-59456704D01*
X129645238Y-58909695D01*
X129436348Y-58404143D01*
X129049892Y-58017011D01*
X128544704Y-57807239D01*
X127997695Y-57806762D01*
X127492143Y-58015652D01*
X127105011Y-58402108D01*
X127000001Y-58655001D01*
X126896348Y-58404143D01*
X126509892Y-58017011D01*
X126004704Y-57807239D01*
X125457695Y-57806762D01*
X124952143Y-58015652D01*
X124565011Y-58402108D01*
X124355239Y-58907296D01*
X124354762Y-59454305D01*
X122012736Y-59454305D01*
X122036953Y-59386426D01*
X122009608Y-58840101D01*
X121853147Y-58462371D01*
X121659184Y-58349592D01*
X120826777Y-59182000D01*
X120473223Y-59182000D01*
X119640816Y-58349592D01*
X119446853Y-58462371D01*
X119263047Y-58977574D01*
X119231178Y-58977574D01*
X119231238Y-58909695D01*
X119022348Y-58404143D01*
X118791425Y-58172816D01*
X119817592Y-58172816D01*
X120650000Y-59005223D01*
X121482408Y-58172816D01*
X121369629Y-57978853D01*
X120854426Y-57795047D01*
X120308101Y-57822392D01*
X119930371Y-57978853D01*
X119817592Y-58172816D01*
X118791425Y-58172816D01*
X118635892Y-58017011D01*
X118130704Y-57807239D01*
X117583695Y-57806762D01*
X117078143Y-58015652D01*
X116691011Y-58402108D01*
X116586001Y-58655001D01*
X116482348Y-58404143D01*
X116095892Y-58017011D01*
X115590704Y-57807239D01*
X115043695Y-57806762D01*
X114538143Y-58015652D01*
X114151011Y-58402108D01*
X113941239Y-58907296D01*
X113940762Y-59454305D01*
X111598736Y-59454305D01*
X111622953Y-59386426D01*
X111595608Y-58840101D01*
X111439147Y-58462371D01*
X111245184Y-58349592D01*
X110412777Y-59182000D01*
X110059223Y-59182000D01*
X109226816Y-58349592D01*
X109032853Y-58462371D01*
X108849047Y-58977574D01*
X108817178Y-58977574D01*
X108817238Y-58909695D01*
X108608348Y-58404143D01*
X108377425Y-58172816D01*
X109403592Y-58172816D01*
X110236000Y-59005223D01*
X111068408Y-58172816D01*
X110955629Y-57978853D01*
X110440426Y-57795047D01*
X109894101Y-57822392D01*
X109516371Y-57978853D01*
X109403592Y-58172816D01*
X108377425Y-58172816D01*
X108221892Y-58017011D01*
X107716704Y-57807239D01*
X107169695Y-57806762D01*
X106664143Y-58015652D01*
X106277011Y-58402108D01*
X106172001Y-58655001D01*
X106068348Y-58404143D01*
X105681892Y-58017011D01*
X105176704Y-57807239D01*
X104629695Y-57806762D01*
X104124143Y-58015652D01*
X103737011Y-58402108D01*
X103527239Y-58907296D01*
X103526762Y-59454305D01*
X101184736Y-59454305D01*
X101208953Y-59386426D01*
X101181608Y-58840101D01*
X101025147Y-58462371D01*
X100831184Y-58349592D01*
X99998777Y-59182000D01*
X99645223Y-59182000D01*
X98812816Y-58349592D01*
X98618853Y-58462371D01*
X98435047Y-58977574D01*
X98403178Y-58977574D01*
X98403238Y-58909695D01*
X98194348Y-58404143D01*
X97963425Y-58172816D01*
X98989592Y-58172816D01*
X99822000Y-59005223D01*
X100654408Y-58172816D01*
X100541629Y-57978853D01*
X100026426Y-57795047D01*
X99480101Y-57822392D01*
X99102371Y-57978853D01*
X98989592Y-58172816D01*
X97963425Y-58172816D01*
X97807892Y-58017011D01*
X97302704Y-57807239D01*
X96755695Y-57806762D01*
X96250143Y-58015652D01*
X95863011Y-58402108D01*
X95758001Y-58655001D01*
X95654348Y-58404143D01*
X95267892Y-58017011D01*
X94762704Y-57807239D01*
X94215695Y-57806762D01*
X93710143Y-58015652D01*
X93323011Y-58402108D01*
X93113239Y-58907296D01*
X93112762Y-59454305D01*
X90770736Y-59454305D01*
X90794953Y-59386426D01*
X90767608Y-58840101D01*
X90611147Y-58462371D01*
X90417184Y-58349592D01*
X89584777Y-59182000D01*
X89231223Y-59182000D01*
X88398816Y-58349592D01*
X88204853Y-58462371D01*
X88021047Y-58977574D01*
X87989178Y-58977574D01*
X87989238Y-58909695D01*
X87780348Y-58404143D01*
X87549425Y-58172816D01*
X88575592Y-58172816D01*
X89408000Y-59005223D01*
X90240408Y-58172816D01*
X90127629Y-57978853D01*
X89612426Y-57795047D01*
X89066101Y-57822392D01*
X88688371Y-57978853D01*
X88575592Y-58172816D01*
X87549425Y-58172816D01*
X87393892Y-58017011D01*
X86888704Y-57807239D01*
X86341695Y-57806762D01*
X85836143Y-58015652D01*
X85449011Y-58402108D01*
X85344001Y-58655001D01*
X85240348Y-58404143D01*
X84853892Y-58017011D01*
X84348704Y-57807239D01*
X83801695Y-57806762D01*
X83296143Y-58015652D01*
X82909011Y-58402108D01*
X82699239Y-58907296D01*
X82698762Y-59454305D01*
X80356736Y-59454305D01*
X80380953Y-59386426D01*
X80353608Y-58840101D01*
X80197147Y-58462371D01*
X80003184Y-58349592D01*
X79170777Y-59182000D01*
X78817223Y-59182000D01*
X77984816Y-58349592D01*
X77790853Y-58462371D01*
X77607047Y-58977574D01*
X77575178Y-58977574D01*
X77575238Y-58909695D01*
X77366348Y-58404143D01*
X77135425Y-58172816D01*
X78161592Y-58172816D01*
X78994000Y-59005223D01*
X79826408Y-58172816D01*
X79713629Y-57978853D01*
X79198426Y-57795047D01*
X78652101Y-57822392D01*
X78274371Y-57978853D01*
X78161592Y-58172816D01*
X77135425Y-58172816D01*
X76979892Y-58017011D01*
X76474704Y-57807239D01*
X75927695Y-57806762D01*
X75422143Y-58015652D01*
X75035011Y-58402108D01*
X74930001Y-58655001D01*
X74826348Y-58404143D01*
X74439892Y-58017011D01*
X73934704Y-57807239D01*
X73387695Y-57806762D01*
X72882143Y-58015652D01*
X72495011Y-58402108D01*
X72285239Y-58907296D01*
X72284762Y-59454305D01*
X69942736Y-59454305D01*
X69966953Y-59386426D01*
X69939608Y-58840101D01*
X69783147Y-58462371D01*
X69589184Y-58349592D01*
X68756777Y-59182000D01*
X68403223Y-59182000D01*
X67570816Y-58349592D01*
X67376853Y-58462371D01*
X67193047Y-58977574D01*
X67161178Y-58977574D01*
X67161238Y-58909695D01*
X66952348Y-58404143D01*
X66721425Y-58172816D01*
X67747592Y-58172816D01*
X68580000Y-59005223D01*
X69412408Y-58172816D01*
X69299629Y-57978853D01*
X68784426Y-57795047D01*
X68238101Y-57822392D01*
X67860371Y-57978853D01*
X67747592Y-58172816D01*
X66721425Y-58172816D01*
X66565892Y-58017011D01*
X66060704Y-57807239D01*
X65513695Y-57806762D01*
X65008143Y-58015652D01*
X64621011Y-58402108D01*
X64516001Y-58655001D01*
X64412348Y-58404143D01*
X64025892Y-58017011D01*
X63520704Y-57807239D01*
X62973695Y-57806762D01*
X62468143Y-58015652D01*
X62081011Y-58402108D01*
X61871239Y-58907296D01*
X61870762Y-59454305D01*
X59528736Y-59454305D01*
X59552953Y-59386426D01*
X59525608Y-58840101D01*
X59369147Y-58462371D01*
X59175184Y-58349592D01*
X58342777Y-59182000D01*
X57989223Y-59182000D01*
X57156816Y-58349592D01*
X56962853Y-58462371D01*
X56779047Y-58977574D01*
X56747178Y-58977574D01*
X56747238Y-58909695D01*
X56538348Y-58404143D01*
X56307425Y-58172816D01*
X57333592Y-58172816D01*
X58166000Y-59005223D01*
X58998408Y-58172816D01*
X58885629Y-57978853D01*
X58370426Y-57795047D01*
X57824101Y-57822392D01*
X57446371Y-57978853D01*
X57333592Y-58172816D01*
X56307425Y-58172816D01*
X56151892Y-58017011D01*
X55646704Y-57807239D01*
X55099695Y-57806762D01*
X54594143Y-58015652D01*
X54207011Y-58402108D01*
X54102001Y-58655001D01*
X53998348Y-58404143D01*
X53611892Y-58017011D01*
X53106704Y-57807239D01*
X52559695Y-57806762D01*
X52054143Y-58015652D01*
X51667011Y-58402108D01*
X51457239Y-58907296D01*
X51456762Y-59454305D01*
X49114736Y-59454305D01*
X49138953Y-59386426D01*
X49111608Y-58840101D01*
X48955147Y-58462371D01*
X48761184Y-58349592D01*
X47928777Y-59182000D01*
X47575223Y-59182000D01*
X46742816Y-58349592D01*
X46548853Y-58462371D01*
X46365047Y-58977574D01*
X42408022Y-58977574D01*
X42574715Y-58908698D01*
X42905536Y-58578453D01*
X43073971Y-58172816D01*
X46919592Y-58172816D01*
X47752000Y-59005223D01*
X48584408Y-58172816D01*
X48471629Y-57978853D01*
X47956426Y-57795047D01*
X47410101Y-57822392D01*
X47032371Y-57978853D01*
X46919592Y-58172816D01*
X43073971Y-58172816D01*
X43084796Y-58146747D01*
X43085204Y-57679303D01*
X42918150Y-57275000D01*
X129669000Y-57275000D01*
X129669000Y-71757000D01*
X123690000Y-71757000D01*
X123690000Y-65797156D01*
X123967857Y-65682348D01*
X124125295Y-65525184D01*
X127437592Y-65525184D01*
X127550371Y-65719147D01*
X128065574Y-65902953D01*
X128611899Y-65875608D01*
X128989629Y-65719147D01*
X129102408Y-65525184D01*
X128270000Y-64692777D01*
X127437592Y-65525184D01*
X124125295Y-65525184D01*
X124354989Y-65295892D01*
X124564761Y-64790704D01*
X124565178Y-64311574D01*
X126883047Y-64311574D01*
X126910392Y-64857899D01*
X127066853Y-65235629D01*
X127260816Y-65348408D01*
X128093223Y-64516000D01*
X128446777Y-64516000D01*
X129279184Y-65348408D01*
X129473147Y-65235629D01*
X129656953Y-64720426D01*
X129629608Y-64174101D01*
X129473147Y-63796371D01*
X129279184Y-63683592D01*
X128446777Y-64516000D01*
X128093223Y-64516000D01*
X127260816Y-63683592D01*
X127066853Y-63796371D01*
X126883047Y-64311574D01*
X124565178Y-64311574D01*
X124565238Y-64243695D01*
X124356348Y-63738143D01*
X124125425Y-63506816D01*
X127437592Y-63506816D01*
X128270000Y-64339223D01*
X129102408Y-63506816D01*
X128989629Y-63312853D01*
X128474426Y-63129047D01*
X127928101Y-63156392D01*
X127550371Y-63312853D01*
X127437592Y-63506816D01*
X124125425Y-63506816D01*
X123969892Y-63351011D01*
X123464704Y-63141239D01*
X122917695Y-63140762D01*
X122412143Y-63349652D01*
X122025011Y-63736108D01*
X121920001Y-63989001D01*
X121816348Y-63738143D01*
X121429892Y-63351011D01*
X120924704Y-63141239D01*
X120377695Y-63140762D01*
X119872143Y-63349652D01*
X119485011Y-63736108D01*
X119275239Y-64241296D01*
X119274762Y-64788305D01*
X119483652Y-65293857D01*
X119870108Y-65680989D01*
X120375296Y-65890761D01*
X120922305Y-65891238D01*
X121427857Y-65682348D01*
X121814989Y-65295892D01*
X121919999Y-65042999D01*
X122023652Y-65293857D01*
X122410108Y-65680989D01*
X122690000Y-65797210D01*
X122690000Y-71757000D01*
X113276000Y-71757000D01*
X113276000Y-65797156D01*
X113553857Y-65682348D01*
X113711295Y-65525184D01*
X117023592Y-65525184D01*
X117136371Y-65719147D01*
X117651574Y-65902953D01*
X118197899Y-65875608D01*
X118575629Y-65719147D01*
X118688408Y-65525184D01*
X117856000Y-64692777D01*
X117023592Y-65525184D01*
X113711295Y-65525184D01*
X113940989Y-65295892D01*
X114150761Y-64790704D01*
X114151178Y-64311574D01*
X116469047Y-64311574D01*
X116496392Y-64857899D01*
X116652853Y-65235629D01*
X116846816Y-65348408D01*
X117679223Y-64516000D01*
X118032777Y-64516000D01*
X118865184Y-65348408D01*
X119059147Y-65235629D01*
X119242953Y-64720426D01*
X119215608Y-64174101D01*
X119059147Y-63796371D01*
X118865184Y-63683592D01*
X118032777Y-64516000D01*
X117679223Y-64516000D01*
X116846816Y-63683592D01*
X116652853Y-63796371D01*
X116469047Y-64311574D01*
X114151178Y-64311574D01*
X114151238Y-64243695D01*
X113942348Y-63738143D01*
X113711425Y-63506816D01*
X117023592Y-63506816D01*
X117856000Y-64339223D01*
X118688408Y-63506816D01*
X118575629Y-63312853D01*
X118060426Y-63129047D01*
X117514101Y-63156392D01*
X117136371Y-63312853D01*
X117023592Y-63506816D01*
X113711425Y-63506816D01*
X113555892Y-63351011D01*
X113050704Y-63141239D01*
X112503695Y-63140762D01*
X111998143Y-63349652D01*
X111611011Y-63736108D01*
X111506001Y-63989001D01*
X111402348Y-63738143D01*
X111015892Y-63351011D01*
X110510704Y-63141239D01*
X109963695Y-63140762D01*
X109458143Y-63349652D01*
X109071011Y-63736108D01*
X108861239Y-64241296D01*
X108860762Y-64788305D01*
X109069652Y-65293857D01*
X109456108Y-65680989D01*
X109961296Y-65890761D01*
X110508305Y-65891238D01*
X111013857Y-65682348D01*
X111400989Y-65295892D01*
X111505999Y-65042999D01*
X111609652Y-65293857D01*
X111996108Y-65680989D01*
X112276000Y-65797210D01*
X112276000Y-71757000D01*
X102862000Y-71757000D01*
X102862000Y-65797156D01*
X103139857Y-65682348D01*
X103297295Y-65525184D01*
X106609592Y-65525184D01*
X106722371Y-65719147D01*
X107237574Y-65902953D01*
X107783899Y-65875608D01*
X108161629Y-65719147D01*
X108274408Y-65525184D01*
X107442000Y-64692777D01*
X106609592Y-65525184D01*
X103297295Y-65525184D01*
X103526989Y-65295892D01*
X103736761Y-64790704D01*
X103737178Y-64311574D01*
X106055047Y-64311574D01*
X106082392Y-64857899D01*
X106238853Y-65235629D01*
X106432816Y-65348408D01*
X107265223Y-64516000D01*
X107618777Y-64516000D01*
X108451184Y-65348408D01*
X108645147Y-65235629D01*
X108828953Y-64720426D01*
X108801608Y-64174101D01*
X108645147Y-63796371D01*
X108451184Y-63683592D01*
X107618777Y-64516000D01*
X107265223Y-64516000D01*
X106432816Y-63683592D01*
X106238853Y-63796371D01*
X106055047Y-64311574D01*
X103737178Y-64311574D01*
X103737238Y-64243695D01*
X103528348Y-63738143D01*
X103297425Y-63506816D01*
X106609592Y-63506816D01*
X107442000Y-64339223D01*
X108274408Y-63506816D01*
X108161629Y-63312853D01*
X107646426Y-63129047D01*
X107100101Y-63156392D01*
X106722371Y-63312853D01*
X106609592Y-63506816D01*
X103297425Y-63506816D01*
X103141892Y-63351011D01*
X102636704Y-63141239D01*
X102089695Y-63140762D01*
X101584143Y-63349652D01*
X101197011Y-63736108D01*
X101092001Y-63989001D01*
X100988348Y-63738143D01*
X100601892Y-63351011D01*
X100096704Y-63141239D01*
X99549695Y-63140762D01*
X99044143Y-63349652D01*
X98657011Y-63736108D01*
X98447239Y-64241296D01*
X98446762Y-64788305D01*
X98655652Y-65293857D01*
X99042108Y-65680989D01*
X99547296Y-65890761D01*
X100094305Y-65891238D01*
X100599857Y-65682348D01*
X100986989Y-65295892D01*
X101091999Y-65042999D01*
X101195652Y-65293857D01*
X101582108Y-65680989D01*
X101862000Y-65797210D01*
X101862000Y-71757000D01*
X92448000Y-71757000D01*
X92448000Y-65797156D01*
X92725857Y-65682348D01*
X92883295Y-65525184D01*
X96195592Y-65525184D01*
X96308371Y-65719147D01*
X96823574Y-65902953D01*
X97369899Y-65875608D01*
X97747629Y-65719147D01*
X97860408Y-65525184D01*
X97028000Y-64692777D01*
X96195592Y-65525184D01*
X92883295Y-65525184D01*
X93112989Y-65295892D01*
X93322761Y-64790704D01*
X93323178Y-64311574D01*
X95641047Y-64311574D01*
X95668392Y-64857899D01*
X95824853Y-65235629D01*
X96018816Y-65348408D01*
X96851223Y-64516000D01*
X97204777Y-64516000D01*
X98037184Y-65348408D01*
X98231147Y-65235629D01*
X98414953Y-64720426D01*
X98387608Y-64174101D01*
X98231147Y-63796371D01*
X98037184Y-63683592D01*
X97204777Y-64516000D01*
X96851223Y-64516000D01*
X96018816Y-63683592D01*
X95824853Y-63796371D01*
X95641047Y-64311574D01*
X93323178Y-64311574D01*
X93323238Y-64243695D01*
X93114348Y-63738143D01*
X92883425Y-63506816D01*
X96195592Y-63506816D01*
X97028000Y-64339223D01*
X97860408Y-63506816D01*
X97747629Y-63312853D01*
X97232426Y-63129047D01*
X96686101Y-63156392D01*
X96308371Y-63312853D01*
X96195592Y-63506816D01*
X92883425Y-63506816D01*
X92727892Y-63351011D01*
X92222704Y-63141239D01*
X91675695Y-63140762D01*
X91170143Y-63349652D01*
X90783011Y-63736108D01*
X90678001Y-63989001D01*
X90574348Y-63738143D01*
X90187892Y-63351011D01*
X89682704Y-63141239D01*
X89135695Y-63140762D01*
X88630143Y-63349652D01*
X88243011Y-63736108D01*
X88033239Y-64241296D01*
X88032762Y-64788305D01*
X88241652Y-65293857D01*
X88628108Y-65680989D01*
X89133296Y-65890761D01*
X89680305Y-65891238D01*
X90185857Y-65682348D01*
X90572989Y-65295892D01*
X90677999Y-65042999D01*
X90781652Y-65293857D01*
X91168108Y-65680989D01*
X91448000Y-65797210D01*
X91448000Y-71757000D01*
X82034000Y-71757000D01*
X82034000Y-65797156D01*
X82311857Y-65682348D01*
X82469295Y-65525184D01*
X85781592Y-65525184D01*
X85894371Y-65719147D01*
X86409574Y-65902953D01*
X86955899Y-65875608D01*
X87333629Y-65719147D01*
X87446408Y-65525184D01*
X86614000Y-64692777D01*
X85781592Y-65525184D01*
X82469295Y-65525184D01*
X82698989Y-65295892D01*
X82908761Y-64790704D01*
X82909178Y-64311574D01*
X85227047Y-64311574D01*
X85254392Y-64857899D01*
X85410853Y-65235629D01*
X85604816Y-65348408D01*
X86437223Y-64516000D01*
X86790777Y-64516000D01*
X87623184Y-65348408D01*
X87817147Y-65235629D01*
X88000953Y-64720426D01*
X87973608Y-64174101D01*
X87817147Y-63796371D01*
X87623184Y-63683592D01*
X86790777Y-64516000D01*
X86437223Y-64516000D01*
X85604816Y-63683592D01*
X85410853Y-63796371D01*
X85227047Y-64311574D01*
X82909178Y-64311574D01*
X82909238Y-64243695D01*
X82700348Y-63738143D01*
X82469425Y-63506816D01*
X85781592Y-63506816D01*
X86614000Y-64339223D01*
X87446408Y-63506816D01*
X87333629Y-63312853D01*
X86818426Y-63129047D01*
X86272101Y-63156392D01*
X85894371Y-63312853D01*
X85781592Y-63506816D01*
X82469425Y-63506816D01*
X82313892Y-63351011D01*
X81808704Y-63141239D01*
X81261695Y-63140762D01*
X80756143Y-63349652D01*
X80369011Y-63736108D01*
X80264001Y-63989001D01*
X80160348Y-63738143D01*
X79773892Y-63351011D01*
X79268704Y-63141239D01*
X78721695Y-63140762D01*
X78216143Y-63349652D01*
X77829011Y-63736108D01*
X77619239Y-64241296D01*
X77618762Y-64788305D01*
X77827652Y-65293857D01*
X78214108Y-65680989D01*
X78719296Y-65890761D01*
X79266305Y-65891238D01*
X79771857Y-65682348D01*
X80158989Y-65295892D01*
X80263999Y-65042999D01*
X80367652Y-65293857D01*
X80754108Y-65680989D01*
X81034000Y-65797210D01*
X81034000Y-71757000D01*
X71620000Y-71757000D01*
X71620000Y-65797156D01*
X71897857Y-65682348D01*
X72055295Y-65525184D01*
X75367592Y-65525184D01*
X75480371Y-65719147D01*
X75995574Y-65902953D01*
X76541899Y-65875608D01*
X76919629Y-65719147D01*
X77032408Y-65525184D01*
X76200000Y-64692777D01*
X75367592Y-65525184D01*
X72055295Y-65525184D01*
X72284989Y-65295892D01*
X72494761Y-64790704D01*
X72495178Y-64311574D01*
X74813047Y-64311574D01*
X74840392Y-64857899D01*
X74996853Y-65235629D01*
X75190816Y-65348408D01*
X76023223Y-64516000D01*
X76376777Y-64516000D01*
X77209184Y-65348408D01*
X77403147Y-65235629D01*
X77586953Y-64720426D01*
X77559608Y-64174101D01*
X77403147Y-63796371D01*
X77209184Y-63683592D01*
X76376777Y-64516000D01*
X76023223Y-64516000D01*
X75190816Y-63683592D01*
X74996853Y-63796371D01*
X74813047Y-64311574D01*
X72495178Y-64311574D01*
X72495238Y-64243695D01*
X72286348Y-63738143D01*
X72055425Y-63506816D01*
X75367592Y-63506816D01*
X76200000Y-64339223D01*
X77032408Y-63506816D01*
X76919629Y-63312853D01*
X76404426Y-63129047D01*
X75858101Y-63156392D01*
X75480371Y-63312853D01*
X75367592Y-63506816D01*
X72055425Y-63506816D01*
X71899892Y-63351011D01*
X71394704Y-63141239D01*
X70847695Y-63140762D01*
X70342143Y-63349652D01*
X69955011Y-63736108D01*
X69850001Y-63989001D01*
X69746348Y-63738143D01*
X69359892Y-63351011D01*
X68854704Y-63141239D01*
X68307695Y-63140762D01*
X67802143Y-63349652D01*
X67415011Y-63736108D01*
X67205239Y-64241296D01*
X67204762Y-64788305D01*
X67413652Y-65293857D01*
X67800108Y-65680989D01*
X68305296Y-65890761D01*
X68852305Y-65891238D01*
X69357857Y-65682348D01*
X69744989Y-65295892D01*
X69849999Y-65042999D01*
X69953652Y-65293857D01*
X70340108Y-65680989D01*
X70620000Y-65797210D01*
X70620000Y-71757000D01*
X61206000Y-71757000D01*
X61206000Y-65797156D01*
X61483857Y-65682348D01*
X61641295Y-65525184D01*
X64953592Y-65525184D01*
X65066371Y-65719147D01*
X65581574Y-65902953D01*
X66127899Y-65875608D01*
X66505629Y-65719147D01*
X66618408Y-65525184D01*
X65786000Y-64692777D01*
X64953592Y-65525184D01*
X61641295Y-65525184D01*
X61870989Y-65295892D01*
X62080761Y-64790704D01*
X62081178Y-64311574D01*
X64399047Y-64311574D01*
X64426392Y-64857899D01*
X64582853Y-65235629D01*
X64776816Y-65348408D01*
X65609223Y-64516000D01*
X65962777Y-64516000D01*
X66795184Y-65348408D01*
X66989147Y-65235629D01*
X67172953Y-64720426D01*
X67145608Y-64174101D01*
X66989147Y-63796371D01*
X66795184Y-63683592D01*
X65962777Y-64516000D01*
X65609223Y-64516000D01*
X64776816Y-63683592D01*
X64582853Y-63796371D01*
X64399047Y-64311574D01*
X62081178Y-64311574D01*
X62081238Y-64243695D01*
X61872348Y-63738143D01*
X61641425Y-63506816D01*
X64953592Y-63506816D01*
X65786000Y-64339223D01*
X66618408Y-63506816D01*
X66505629Y-63312853D01*
X65990426Y-63129047D01*
X65444101Y-63156392D01*
X65066371Y-63312853D01*
X64953592Y-63506816D01*
X61641425Y-63506816D01*
X61485892Y-63351011D01*
X60980704Y-63141239D01*
X60433695Y-63140762D01*
X59928143Y-63349652D01*
X59541011Y-63736108D01*
X59436001Y-63989001D01*
X59332348Y-63738143D01*
X58945892Y-63351011D01*
X58440704Y-63141239D01*
X57893695Y-63140762D01*
X57388143Y-63349652D01*
X57001011Y-63736108D01*
X56791239Y-64241296D01*
X56790762Y-64788305D01*
X56999652Y-65293857D01*
X57386108Y-65680989D01*
X57891296Y-65890761D01*
X58438305Y-65891238D01*
X58943857Y-65682348D01*
X59330989Y-65295892D01*
X59435999Y-65042999D01*
X59539652Y-65293857D01*
X59926108Y-65680989D01*
X60206000Y-65797210D01*
X60206000Y-71757000D01*
X50792000Y-71757000D01*
X50792000Y-65797156D01*
X51069857Y-65682348D01*
X51227295Y-65525184D01*
X54539592Y-65525184D01*
X54652371Y-65719147D01*
X55167574Y-65902953D01*
X55713899Y-65875608D01*
X56091629Y-65719147D01*
X56204408Y-65525184D01*
X55372000Y-64692777D01*
X54539592Y-65525184D01*
X51227295Y-65525184D01*
X51456989Y-65295892D01*
X51666761Y-64790704D01*
X51667178Y-64311574D01*
X53985047Y-64311574D01*
X54012392Y-64857899D01*
X54168853Y-65235629D01*
X54362816Y-65348408D01*
X55195223Y-64516000D01*
X55548777Y-64516000D01*
X56381184Y-65348408D01*
X56575147Y-65235629D01*
X56758953Y-64720426D01*
X56731608Y-64174101D01*
X56575147Y-63796371D01*
X56381184Y-63683592D01*
X55548777Y-64516000D01*
X55195223Y-64516000D01*
X54362816Y-63683592D01*
X54168853Y-63796371D01*
X53985047Y-64311574D01*
X51667178Y-64311574D01*
X51667238Y-64243695D01*
X51458348Y-63738143D01*
X51227425Y-63506816D01*
X54539592Y-63506816D01*
X55372000Y-64339223D01*
X56204408Y-63506816D01*
X56091629Y-63312853D01*
X55576426Y-63129047D01*
X55030101Y-63156392D01*
X54652371Y-63312853D01*
X54539592Y-63506816D01*
X51227425Y-63506816D01*
X51071892Y-63351011D01*
X50566704Y-63141239D01*
X50019695Y-63140762D01*
X49514143Y-63349652D01*
X49127011Y-63736108D01*
X49022001Y-63989001D01*
X48918348Y-63738143D01*
X48531892Y-63351011D01*
X48026704Y-63141239D01*
X47479695Y-63140762D01*
X46974143Y-63349652D01*
X46587011Y-63736108D01*
X46377239Y-64241296D01*
X46376762Y-64788305D01*
X46585652Y-65293857D01*
X46972108Y-65680989D01*
X47477296Y-65890761D01*
X48024305Y-65891238D01*
X48529857Y-65682348D01*
X48916989Y-65295892D01*
X49021999Y-65042999D01*
X49125652Y-65293857D01*
X49512108Y-65680989D01*
X49792000Y-65797210D01*
X49792000Y-71757000D01*
X42559204Y-71757000D01*
X42792713Y-71194646D01*
X42793284Y-70540225D01*
X42543376Y-69935400D01*
X42081034Y-69472250D01*
X41476646Y-69221287D01*
X40822225Y-69220716D01*
X40217400Y-69470624D01*
X39754250Y-69932966D01*
X39503287Y-70537354D01*
X39502716Y-71191775D01*
X39736262Y-71757000D01*
X30930000Y-71757000D01*
X30930000Y-66004750D01*
X39503000Y-66004750D01*
X39503000Y-67130592D01*
X39560090Y-67268420D01*
X39665579Y-67373910D01*
X39803408Y-67431000D01*
X40929250Y-67431000D01*
X41023000Y-67337250D01*
X41023000Y-65911000D01*
X41273000Y-65911000D01*
X41273000Y-67337250D01*
X41366750Y-67431000D01*
X42492592Y-67431000D01*
X42630421Y-67373910D01*
X42735910Y-67268420D01*
X42793000Y-67130592D01*
X42793000Y-66004750D01*
X42699250Y-65911000D01*
X41273000Y-65911000D01*
X41023000Y-65911000D01*
X39596750Y-65911000D01*
X39503000Y-66004750D01*
X30930000Y-66004750D01*
X30930000Y-64441408D01*
X39503000Y-64441408D01*
X39503000Y-65567250D01*
X39596750Y-65661000D01*
X41023000Y-65661000D01*
X41023000Y-64234750D01*
X41273000Y-64234750D01*
X41273000Y-65661000D01*
X42699250Y-65661000D01*
X42793000Y-65567250D01*
X42793000Y-64441408D01*
X42735910Y-64303580D01*
X42630421Y-64198090D01*
X42492592Y-64141000D01*
X41366750Y-64141000D01*
X41273000Y-64234750D01*
X41023000Y-64234750D01*
X40929250Y-64141000D01*
X39803408Y-64141000D01*
X39665579Y-64198090D01*
X39560090Y-64303580D01*
X39503000Y-64441408D01*
X30930000Y-64441408D01*
X30930000Y-60191184D01*
X46919592Y-60191184D01*
X47032371Y-60385147D01*
X47547574Y-60568953D01*
X48093899Y-60541608D01*
X48471629Y-60385147D01*
X48584408Y-60191184D01*
X47752000Y-59358777D01*
X46919592Y-60191184D01*
X30930000Y-60191184D01*
X30930000Y-57275000D01*
X35822234Y-57275000D01*
X35655204Y-57677253D01*
M02*
