G04 #@! TF.FileFunction,Legend,Bot*
%FSLAX46Y46*%
G04 Gerber Fmt 4.6, Leading zero omitted, Abs format (unit mm)*
G04 Created by KiCad (PCBNEW 4.0.4-stable) date 12/22/16 08:10:22*
%MOMM*%
%LPD*%
G01*
G04 APERTURE LIST*
%ADD10C,0.100000*%
%ADD11C,0.150000*%
%ADD12C,0.120000*%
%ADD13O,2.400000X1.900000*%
%ADD14R,2.400000X1.900000*%
%ADD15O,1.900000X2.400000*%
%ADD16R,1.900000X2.400000*%
%ADD17R,1.650000X1.900000*%
%ADD18R,2.400000X2.000000*%
%ADD19R,0.800000X2.400000*%
%ADD20R,2.300000X1.200000*%
%ADD21R,1.700000X1.900000*%
%ADD22C,4.700000*%
G04 APERTURE END LIST*
D10*
D11*
X120484000Y-125611000D02*
X120484000Y-126611000D01*
X118784000Y-126611000D02*
X118784000Y-125611000D01*
X115840000Y-128769000D02*
X117840000Y-128769000D01*
X117840000Y-130819000D02*
X115840000Y-130819000D01*
X120755000Y-122135000D02*
X121080000Y-122135000D01*
X120755000Y-126785000D02*
X121080000Y-126785000D01*
X130705000Y-126785000D02*
X130380000Y-126785000D01*
X130705000Y-122135000D02*
X130380000Y-122135000D01*
X120755000Y-122135000D02*
X120755000Y-126785000D01*
X130705000Y-122135000D02*
X130705000Y-126785000D01*
X121080000Y-122135000D02*
X121080000Y-121060000D01*
D12*
X140714000Y-106116000D02*
X140714000Y-107046000D01*
X140714000Y-109276000D02*
X140714000Y-108346000D01*
X140714000Y-109276000D02*
X137554000Y-109276000D01*
X140714000Y-106116000D02*
X139254000Y-106116000D01*
X140714000Y-111196000D02*
X140714000Y-112126000D01*
X140714000Y-114356000D02*
X140714000Y-113426000D01*
X140714000Y-114356000D02*
X137554000Y-114356000D01*
X140714000Y-111196000D02*
X139254000Y-111196000D01*
X140714000Y-116276000D02*
X140714000Y-117206000D01*
X140714000Y-119436000D02*
X140714000Y-118506000D01*
X140714000Y-119436000D02*
X137554000Y-119436000D01*
X140714000Y-116276000D02*
X139254000Y-116276000D01*
X140714000Y-121356000D02*
X140714000Y-122286000D01*
X140714000Y-124516000D02*
X140714000Y-123586000D01*
X140714000Y-124516000D02*
X137554000Y-124516000D01*
X140714000Y-121356000D02*
X139254000Y-121356000D01*
X140714000Y-126436000D02*
X140714000Y-127366000D01*
X140714000Y-129596000D02*
X140714000Y-128666000D01*
X140714000Y-129596000D02*
X137554000Y-129596000D01*
X140714000Y-126436000D02*
X139254000Y-126436000D01*
X140714000Y-131516000D02*
X140714000Y-132446000D01*
X140714000Y-134676000D02*
X140714000Y-133746000D01*
X140714000Y-134676000D02*
X137554000Y-134676000D01*
X140714000Y-131516000D02*
X139254000Y-131516000D01*
X140714000Y-136596000D02*
X140714000Y-137526000D01*
X140714000Y-139756000D02*
X140714000Y-138826000D01*
X140714000Y-139756000D02*
X137554000Y-139756000D01*
X140714000Y-136596000D02*
X139254000Y-136596000D01*
X140714000Y-141676000D02*
X140714000Y-142606000D01*
X140714000Y-144836000D02*
X140714000Y-143906000D01*
X140714000Y-144836000D02*
X137554000Y-144836000D01*
X140714000Y-141676000D02*
X139254000Y-141676000D01*
D11*
X133237000Y-107096000D02*
X133237000Y-108296000D01*
X134987000Y-108296000D02*
X134987000Y-107096000D01*
X135269000Y-107096000D02*
X135269000Y-108296000D01*
X137019000Y-108296000D02*
X137019000Y-107096000D01*
X133237000Y-112176000D02*
X133237000Y-113376000D01*
X134987000Y-113376000D02*
X134987000Y-112176000D01*
X135269000Y-112176000D02*
X135269000Y-113376000D01*
X137019000Y-113376000D02*
X137019000Y-112176000D01*
X133237000Y-117256000D02*
X133237000Y-118456000D01*
X134987000Y-118456000D02*
X134987000Y-117256000D01*
X135269000Y-117256000D02*
X135269000Y-118456000D01*
X137019000Y-118456000D02*
X137019000Y-117256000D01*
X133237000Y-122336000D02*
X133237000Y-123536000D01*
X134987000Y-123536000D02*
X134987000Y-122336000D01*
X135269000Y-122336000D02*
X135269000Y-123536000D01*
X137019000Y-123536000D02*
X137019000Y-122336000D01*
X133237000Y-127416000D02*
X133237000Y-128616000D01*
X134987000Y-128616000D02*
X134987000Y-127416000D01*
X135269000Y-127416000D02*
X135269000Y-128616000D01*
X137019000Y-128616000D02*
X137019000Y-127416000D01*
X133237000Y-132496000D02*
X133237000Y-133696000D01*
X134987000Y-133696000D02*
X134987000Y-132496000D01*
X135269000Y-132496000D02*
X135269000Y-133696000D01*
X137019000Y-133696000D02*
X137019000Y-132496000D01*
X133237000Y-137576000D02*
X133237000Y-138776000D01*
X134987000Y-138776000D02*
X134987000Y-137576000D01*
X135269000Y-137576000D02*
X135269000Y-138776000D01*
X137019000Y-138776000D02*
X137019000Y-137576000D01*
X133237000Y-142656000D02*
X133237000Y-143856000D01*
X134987000Y-143856000D02*
X134987000Y-142656000D01*
X135269000Y-142656000D02*
X135269000Y-143856000D01*
X137019000Y-143856000D02*
X137019000Y-142656000D01*
X117641714Y-125722096D02*
X118308381Y-125722096D01*
X117641714Y-125293524D02*
X118165524Y-125293524D01*
X118260762Y-125341143D01*
X118308381Y-125436381D01*
X118308381Y-125579239D01*
X118260762Y-125674477D01*
X118213143Y-125722096D01*
X118308381Y-126722096D02*
X118308381Y-126150667D01*
X118308381Y-126436381D02*
X117308381Y-126436381D01*
X117451238Y-126341143D01*
X117546476Y-126245905D01*
X117594095Y-126150667D01*
X112783857Y-130246381D02*
X113355286Y-130246381D01*
X113069572Y-130246381D02*
X113069572Y-129246381D01*
X113164810Y-129389238D01*
X113260048Y-129484476D01*
X113355286Y-129532095D01*
X112164810Y-129246381D02*
X112069571Y-129246381D01*
X111974333Y-129294000D01*
X111926714Y-129341619D01*
X111879095Y-129436857D01*
X111831476Y-129627333D01*
X111831476Y-129865429D01*
X111879095Y-130055905D01*
X111926714Y-130151143D01*
X111974333Y-130198762D01*
X112069571Y-130246381D01*
X112164810Y-130246381D01*
X112260048Y-130198762D01*
X112307667Y-130151143D01*
X112355286Y-130055905D01*
X112402905Y-129865429D01*
X112402905Y-129627333D01*
X112355286Y-129436857D01*
X112307667Y-129341619D01*
X112260048Y-129294000D01*
X112164810Y-129246381D01*
X110974333Y-129579714D02*
X110974333Y-130246381D01*
X111402905Y-129579714D02*
X111402905Y-130103524D01*
X111355286Y-130198762D01*
X111260048Y-130246381D01*
X111117190Y-130246381D01*
X111021952Y-130198762D01*
X110974333Y-130151143D01*
%LPC*%
D13*
X143768000Y-143256000D03*
X146808000Y-143256000D03*
X143768000Y-138176000D03*
X146808000Y-138176000D03*
X146808000Y-140716000D03*
X143768000Y-140716000D03*
X143768000Y-135636000D03*
X146808000Y-135636000D03*
X146808000Y-133096000D03*
X143768000Y-133096000D03*
X143768000Y-130556000D03*
X146808000Y-130556000D03*
X146808000Y-128016000D03*
X143768000Y-128016000D03*
X143768000Y-125476000D03*
X146808000Y-125476000D03*
X146808000Y-122936000D03*
X143768000Y-122936000D03*
X143768000Y-120396000D03*
X146808000Y-120396000D03*
X146808000Y-117856000D03*
X143768000Y-117856000D03*
X143768000Y-115316000D03*
X146808000Y-115316000D03*
X146808000Y-112776000D03*
X143768000Y-112776000D03*
D14*
X143768000Y-105156000D03*
D13*
X146808000Y-105156000D03*
X143768000Y-107696000D03*
X146808000Y-107696000D03*
X143768000Y-110236000D03*
X146808000Y-110236000D03*
D15*
X125222000Y-137156000D03*
X125222000Y-134116000D03*
X122682000Y-134116000D03*
X122682000Y-137156000D03*
D16*
X115062000Y-137156000D03*
D15*
X115062000Y-134116000D03*
X117602000Y-137156000D03*
X117602000Y-134116000D03*
X120142000Y-137156000D03*
X120142000Y-134116000D03*
D17*
X119634000Y-127361000D03*
X119634000Y-124861000D03*
D18*
X118840000Y-129794000D03*
X114840000Y-129794000D03*
D19*
X121505000Y-121160000D03*
X129955000Y-127760000D03*
X122155000Y-121160000D03*
X122805000Y-121160000D03*
X123455000Y-121160000D03*
X124105000Y-121160000D03*
X124755000Y-121160000D03*
X125405000Y-121160000D03*
X126055000Y-121160000D03*
X126705000Y-121160000D03*
X127355000Y-121160000D03*
X128005000Y-121160000D03*
X128655000Y-121160000D03*
X129305000Y-121160000D03*
X129955000Y-121160000D03*
X129305000Y-127760000D03*
X128655000Y-127760000D03*
X128005000Y-127760000D03*
X127355000Y-127760000D03*
X126705000Y-127760000D03*
X126055000Y-127760000D03*
X125405000Y-127760000D03*
X124755000Y-127760000D03*
X124105000Y-127760000D03*
X123455000Y-127760000D03*
X122805000Y-127760000D03*
X122155000Y-127760000D03*
X121505000Y-127760000D03*
D20*
X138454000Y-108646000D03*
X138454000Y-106746000D03*
X141454000Y-107696000D03*
X138454000Y-113726000D03*
X138454000Y-111826000D03*
X141454000Y-112776000D03*
X138454000Y-118806000D03*
X138454000Y-116906000D03*
X141454000Y-117856000D03*
X138454000Y-123886000D03*
X138454000Y-121986000D03*
X141454000Y-122936000D03*
X138454000Y-128966000D03*
X138454000Y-127066000D03*
X141454000Y-128016000D03*
X138454000Y-134046000D03*
X138454000Y-132146000D03*
X141454000Y-133096000D03*
X138454000Y-139126000D03*
X138454000Y-137226000D03*
X141454000Y-138176000D03*
X138454000Y-144206000D03*
X138454000Y-142306000D03*
X141454000Y-143256000D03*
D21*
X134112000Y-109046000D03*
X134112000Y-106346000D03*
X136144000Y-109046000D03*
X136144000Y-106346000D03*
X134112000Y-114126000D03*
X134112000Y-111426000D03*
X136144000Y-114126000D03*
X136144000Y-111426000D03*
X134112000Y-119206000D03*
X134112000Y-116506000D03*
X136144000Y-119206000D03*
X136144000Y-116506000D03*
X134112000Y-124286000D03*
X134112000Y-121586000D03*
X136144000Y-124286000D03*
X136144000Y-121586000D03*
X134112000Y-129366000D03*
X134112000Y-126666000D03*
X136144000Y-129366000D03*
X136144000Y-126666000D03*
X134112000Y-134446000D03*
X134112000Y-131746000D03*
X136144000Y-134446000D03*
X136144000Y-131746000D03*
X134112000Y-139526000D03*
X134112000Y-136826000D03*
X136144000Y-139526000D03*
X136144000Y-136826000D03*
X134112000Y-144606000D03*
X134112000Y-141906000D03*
X136144000Y-144606000D03*
X136144000Y-141906000D03*
D22*
X114046000Y-144526000D03*
X114046000Y-103632000D03*
M02*
