G04 #@! TF.FileFunction,Copper,L2,Bot,Signal*
%FSLAX46Y46*%
G04 Gerber Fmt 4.6, Leading zero omitted, Abs format (unit mm)*
G04 Created by KiCad (PCBNEW 4.0.4-stable) date 12/22/16 08:10:22*
%MOMM*%
%LPD*%
G01*
G04 APERTURE LIST*
%ADD10C,0.100000*%
%ADD11O,2.000000X1.500000*%
%ADD12R,2.000000X1.500000*%
%ADD13O,1.500000X2.000000*%
%ADD14R,1.500000X2.000000*%
%ADD15R,1.250000X1.500000*%
%ADD16R,2.000000X1.600000*%
%ADD17R,0.400000X2.000000*%
%ADD18R,1.900000X0.800000*%
%ADD19R,1.300000X1.500000*%
%ADD20C,0.600000*%
%ADD21C,1.500000*%
%ADD22C,1.500000*%
%ADD23C,0.400000*%
%ADD24C,0.250000*%
G04 APERTURE END LIST*
D10*
D11*
X143768000Y-143256000D03*
X146808000Y-143256000D03*
X143768000Y-138176000D03*
X146808000Y-138176000D03*
X146808000Y-140716000D03*
X143768000Y-140716000D03*
X143768000Y-135636000D03*
X146808000Y-135636000D03*
X146808000Y-133096000D03*
X143768000Y-133096000D03*
X143768000Y-130556000D03*
X146808000Y-130556000D03*
X146808000Y-128016000D03*
X143768000Y-128016000D03*
X143768000Y-125476000D03*
X146808000Y-125476000D03*
X146808000Y-122936000D03*
X143768000Y-122936000D03*
X143768000Y-120396000D03*
X146808000Y-120396000D03*
X146808000Y-117856000D03*
X143768000Y-117856000D03*
X143768000Y-115316000D03*
X146808000Y-115316000D03*
X146808000Y-112776000D03*
X143768000Y-112776000D03*
D12*
X143768000Y-105156000D03*
D11*
X146808000Y-105156000D03*
X143768000Y-107696000D03*
X146808000Y-107696000D03*
X143768000Y-110236000D03*
X146808000Y-110236000D03*
D13*
X125222000Y-137156000D03*
X125222000Y-134116000D03*
X122682000Y-134116000D03*
X122682000Y-137156000D03*
D14*
X115062000Y-137156000D03*
D13*
X115062000Y-134116000D03*
X117602000Y-137156000D03*
X117602000Y-134116000D03*
X120142000Y-137156000D03*
X120142000Y-134116000D03*
D15*
X119634000Y-127361000D03*
X119634000Y-124861000D03*
D16*
X118840000Y-129794000D03*
X114840000Y-129794000D03*
D17*
X121505000Y-121160000D03*
X129955000Y-127760000D03*
X122155000Y-121160000D03*
X122805000Y-121160000D03*
X123455000Y-121160000D03*
X124105000Y-121160000D03*
X124755000Y-121160000D03*
X125405000Y-121160000D03*
X126055000Y-121160000D03*
X126705000Y-121160000D03*
X127355000Y-121160000D03*
X128005000Y-121160000D03*
X128655000Y-121160000D03*
X129305000Y-121160000D03*
X129955000Y-121160000D03*
X129305000Y-127760000D03*
X128655000Y-127760000D03*
X128005000Y-127760000D03*
X127355000Y-127760000D03*
X126705000Y-127760000D03*
X126055000Y-127760000D03*
X125405000Y-127760000D03*
X124755000Y-127760000D03*
X124105000Y-127760000D03*
X123455000Y-127760000D03*
X122805000Y-127760000D03*
X122155000Y-127760000D03*
X121505000Y-127760000D03*
D18*
X138454000Y-108646000D03*
X138454000Y-106746000D03*
X141454000Y-107696000D03*
X138454000Y-113726000D03*
X138454000Y-111826000D03*
X141454000Y-112776000D03*
X138454000Y-118806000D03*
X138454000Y-116906000D03*
X141454000Y-117856000D03*
X138454000Y-123886000D03*
X138454000Y-121986000D03*
X141454000Y-122936000D03*
X138454000Y-128966000D03*
X138454000Y-127066000D03*
X141454000Y-128016000D03*
X138454000Y-134046000D03*
X138454000Y-132146000D03*
X141454000Y-133096000D03*
X138454000Y-139126000D03*
X138454000Y-137226000D03*
X141454000Y-138176000D03*
X138454000Y-144206000D03*
X138454000Y-142306000D03*
X141454000Y-143256000D03*
D19*
X134112000Y-109046000D03*
X134112000Y-106346000D03*
X136144000Y-109046000D03*
X136144000Y-106346000D03*
X134112000Y-114126000D03*
X134112000Y-111426000D03*
X136144000Y-114126000D03*
X136144000Y-111426000D03*
X134112000Y-119206000D03*
X134112000Y-116506000D03*
X136144000Y-119206000D03*
X136144000Y-116506000D03*
X134112000Y-124286000D03*
X134112000Y-121586000D03*
X136144000Y-124286000D03*
X136144000Y-121586000D03*
X134112000Y-129366000D03*
X134112000Y-126666000D03*
X136144000Y-129366000D03*
X136144000Y-126666000D03*
X134112000Y-134446000D03*
X134112000Y-131746000D03*
X136144000Y-134446000D03*
X136144000Y-131746000D03*
X134112000Y-139526000D03*
X134112000Y-136826000D03*
X136144000Y-139526000D03*
X136144000Y-136826000D03*
X134112000Y-144606000D03*
X134112000Y-141906000D03*
X136144000Y-144606000D03*
X136144000Y-141906000D03*
D20*
X124841000Y-122809000D03*
D21*
X129540000Y-124587000D03*
X127508000Y-124587000D03*
X125603000Y-124587000D03*
X116078000Y-108458000D03*
X116078000Y-110363000D03*
X113030000Y-112268000D03*
X113030000Y-116078000D03*
D20*
X121539000Y-126111000D03*
X119380000Y-128651000D03*
X117475000Y-117348000D03*
X120523000Y-117348000D03*
X123571000Y-117348000D03*
X120777000Y-121285000D03*
X117475000Y-121285000D03*
X126492000Y-106680000D03*
X126492000Y-112014000D03*
X127508000Y-116840000D03*
X128778000Y-122936000D03*
X130048000Y-126238000D03*
X130048000Y-130683000D03*
X130048000Y-132588000D03*
X130048000Y-138557000D03*
X124079000Y-126111000D03*
D22*
X122682000Y-134366000D02*
X122682000Y-136906000D01*
X122682000Y-136906000D02*
X122682000Y-138684000D01*
X122682000Y-140462000D02*
X122682000Y-141732000D01*
X146558000Y-144907000D02*
X146558000Y-143256000D01*
X144018000Y-147447000D02*
X146558000Y-144907000D01*
X131191000Y-147447000D02*
X144018000Y-147447000D01*
X127381000Y-143637000D02*
X131191000Y-147447000D01*
X124587000Y-143637000D02*
X127381000Y-143637000D01*
X122682000Y-141732000D02*
X124587000Y-143637000D01*
X122682000Y-137922000D02*
X122682000Y-138684000D01*
X122682000Y-138684000D02*
X122682000Y-140462000D01*
X146558000Y-133096000D02*
X146558000Y-130556000D01*
X146558000Y-130556000D02*
X146558000Y-128016000D01*
X146558000Y-128016000D02*
X146558000Y-125476000D01*
X146558000Y-125476000D02*
X146558000Y-122936000D01*
X146558000Y-122936000D02*
X146558000Y-120396000D01*
X146558000Y-120396000D02*
X146558000Y-117856000D01*
X146558000Y-117856000D02*
X146558000Y-115316000D01*
X146558000Y-115316000D02*
X146558000Y-112776000D01*
X146558000Y-112776000D02*
X146558000Y-110236000D01*
X146558000Y-110236000D02*
X146558000Y-107696000D01*
X146558000Y-107696000D02*
X146558000Y-105156000D01*
X146558000Y-133096000D02*
X146558000Y-135636000D01*
X146558000Y-135636000D02*
X146558000Y-138176000D01*
X146558000Y-138176000D02*
X146558000Y-140716000D01*
X146558000Y-140716000D02*
X146558000Y-143256000D01*
D23*
X124755000Y-127760000D02*
X124755000Y-126578000D01*
X127508000Y-124587000D02*
X129540000Y-124587000D01*
X125603000Y-125730000D02*
X125603000Y-124587000D01*
X124755000Y-126578000D02*
X125603000Y-125730000D01*
X116078000Y-110363000D02*
X116078000Y-108458000D01*
X113030000Y-116078000D02*
X113030000Y-112268000D01*
X114055768Y-132343768D02*
X113266998Y-133132538D01*
X117275004Y-131358996D02*
X115040540Y-131358996D01*
X115040540Y-131358996D02*
X114055768Y-132343768D01*
X118840000Y-129794000D02*
X117275004Y-131358996D01*
X113266998Y-135618998D02*
X114554000Y-136906000D01*
X113266998Y-135345462D02*
X113266998Y-135618998D01*
X113266998Y-133132538D02*
X113266998Y-135345462D01*
X114554000Y-136906000D02*
X115062000Y-136906000D01*
X119380000Y-128651000D02*
X119380000Y-129254000D01*
X119380000Y-129254000D02*
X118840000Y-129794000D01*
D24*
X121505000Y-127760000D02*
X121505000Y-126145000D01*
X121505000Y-126145000D02*
X121539000Y-126111000D01*
D23*
X119380000Y-128651000D02*
X119380000Y-127615000D01*
X121505000Y-127760000D02*
X121106000Y-127361000D01*
X121106000Y-127361000D02*
X119634000Y-127361000D01*
X119380000Y-127615000D02*
X119634000Y-127361000D01*
D24*
X122805000Y-127760000D02*
X122805000Y-129925000D01*
X117094000Y-132334000D02*
X115062000Y-134366000D01*
X120396000Y-132334000D02*
X117094000Y-132334000D01*
X122805000Y-129925000D02*
X120396000Y-132334000D01*
D23*
X144018000Y-112776000D02*
X141454000Y-112776000D01*
X144018000Y-107696000D02*
X141454000Y-107696000D01*
D24*
X121505000Y-119473000D02*
X121505000Y-121160000D01*
X120777000Y-118745000D02*
X121505000Y-119473000D01*
X117983000Y-118745000D02*
X120777000Y-118745000D01*
X117475000Y-118237000D02*
X117983000Y-118745000D01*
X117475000Y-117348000D02*
X117475000Y-118237000D01*
X122155000Y-118980000D02*
X122155000Y-121160000D01*
X120523000Y-117348000D02*
X122155000Y-118980000D01*
X122805000Y-118114000D02*
X122805000Y-121160000D01*
X123571000Y-117348000D02*
X122805000Y-118114000D01*
X123455000Y-122671000D02*
X123455000Y-121160000D01*
X123063000Y-123063000D02*
X123455000Y-122671000D01*
X121158000Y-123063000D02*
X123063000Y-123063000D01*
X120777000Y-122682000D02*
X121158000Y-123063000D01*
X120777000Y-121285000D02*
X120777000Y-122682000D01*
X124105000Y-122783000D02*
X124105000Y-121160000D01*
X123374998Y-123513002D02*
X124105000Y-122783000D01*
X119703002Y-123513002D02*
X123374998Y-123513002D01*
X117475000Y-121285000D02*
X119703002Y-123513002D01*
X122155000Y-127760000D02*
X122155000Y-129938602D01*
X116332000Y-135636000D02*
X117602000Y-136906000D01*
X114300000Y-135636000D02*
X116332000Y-135636000D01*
X113792000Y-135128000D02*
X114300000Y-135636000D01*
X113792000Y-133350000D02*
X113792000Y-135128000D01*
X115258002Y-131883998D02*
X113792000Y-133350000D01*
X120209604Y-131883998D02*
X115258002Y-131883998D01*
X122155000Y-129938602D02*
X120209604Y-131883998D01*
D23*
X144018000Y-143256000D02*
X141454000Y-143256000D01*
X144018000Y-138176000D02*
X141454000Y-138176000D01*
X144018000Y-133096000D02*
X141454000Y-133096000D01*
X144018000Y-128016000D02*
X141454000Y-128016000D01*
X144018000Y-122936000D02*
X141454000Y-122936000D01*
X144018000Y-117856000D02*
X141454000Y-117856000D01*
D24*
X124755000Y-108417000D02*
X124755000Y-121160000D01*
X126492000Y-106680000D02*
X124755000Y-108417000D01*
X134112000Y-106346000D02*
X128096000Y-106346000D01*
X125405000Y-109037000D02*
X125405000Y-121160000D01*
X128096000Y-106346000D02*
X125405000Y-109037000D01*
X126055000Y-112451000D02*
X126055000Y-121160000D01*
X126492000Y-112014000D02*
X126055000Y-112451000D01*
X134112000Y-111426000D02*
X128096000Y-111426000D01*
X126705000Y-112817000D02*
X126705000Y-121160000D01*
X128096000Y-111426000D02*
X126705000Y-112817000D01*
X127355000Y-116993000D02*
X127355000Y-121160000D01*
X127508000Y-116840000D02*
X127355000Y-116993000D01*
X134112000Y-116506000D02*
X128858000Y-116506000D01*
X128005000Y-117359000D02*
X128005000Y-121160000D01*
X128858000Y-116506000D02*
X128005000Y-117359000D01*
X128655000Y-122813000D02*
X128655000Y-121160000D01*
X128778000Y-122936000D02*
X128655000Y-122813000D01*
X129305000Y-121160000D02*
X129305000Y-119615000D01*
X131906000Y-119380000D02*
X134112000Y-121586000D01*
X129540000Y-119380000D02*
X131906000Y-119380000D01*
X129305000Y-119615000D02*
X129540000Y-119380000D01*
X130048000Y-126238000D02*
X129955000Y-126331000D01*
X129955000Y-126331000D02*
X129955000Y-127760000D01*
X134112000Y-126666000D02*
X133684000Y-126666000D01*
X133684000Y-126666000D02*
X130556000Y-129794000D01*
X130556000Y-129794000D02*
X129921000Y-129794000D01*
X129921000Y-129794000D02*
X129305000Y-129178000D01*
X129305000Y-129178000D02*
X129305000Y-127760000D01*
X128655000Y-127760000D02*
X128655000Y-129290000D01*
X128655000Y-129290000D02*
X130048000Y-130683000D01*
X128005000Y-127760000D02*
X128005000Y-129783000D01*
X129540000Y-131318000D02*
X133684000Y-131318000D01*
X128005000Y-129783000D02*
X129540000Y-131318000D01*
X133684000Y-131318000D02*
X134112000Y-131746000D01*
X127355000Y-129895000D02*
X127355000Y-127760000D01*
X130048000Y-132588000D02*
X127355000Y-129895000D01*
X126705000Y-127760000D02*
X126705000Y-130261000D01*
X133270000Y-136826000D02*
X134112000Y-136826000D01*
X126705000Y-130261000D02*
X133270000Y-136826000D01*
X126055000Y-127760000D02*
X126055000Y-130627000D01*
X130048000Y-134620000D02*
X130048000Y-138557000D01*
X126055000Y-130627000D02*
X130048000Y-134620000D01*
X125405000Y-127760000D02*
X125405000Y-130739000D01*
X133430000Y-141224000D02*
X134112000Y-141906000D01*
X131572000Y-141224000D02*
X133430000Y-141224000D01*
X129286000Y-138938000D02*
X131572000Y-141224000D01*
X129286000Y-134620000D02*
X129286000Y-138938000D01*
X125405000Y-130739000D02*
X129286000Y-134620000D01*
X124105000Y-127760000D02*
X124105000Y-126137000D01*
X124105000Y-126137000D02*
X124079000Y-126111000D01*
X136144000Y-109046000D02*
X134112000Y-109046000D01*
X138454000Y-108646000D02*
X136544000Y-108646000D01*
X136544000Y-108646000D02*
X136144000Y-109046000D01*
X136144000Y-114126000D02*
X134112000Y-114126000D01*
X138454000Y-113726000D02*
X136544000Y-113726000D01*
X136544000Y-113726000D02*
X136144000Y-114126000D01*
X136144000Y-119206000D02*
X134112000Y-119206000D01*
X138454000Y-118806000D02*
X136544000Y-118806000D01*
X136544000Y-118806000D02*
X136144000Y-119206000D01*
X136144000Y-124286000D02*
X134112000Y-124286000D01*
X138454000Y-123886000D02*
X136544000Y-123886000D01*
X136544000Y-123886000D02*
X136144000Y-124286000D01*
X136144000Y-129366000D02*
X134112000Y-129366000D01*
X138454000Y-128966000D02*
X136544000Y-128966000D01*
X136544000Y-128966000D02*
X136144000Y-129366000D01*
X136144000Y-134446000D02*
X134112000Y-134446000D01*
X138454000Y-134046000D02*
X136544000Y-134046000D01*
X136544000Y-134046000D02*
X136144000Y-134446000D01*
X136144000Y-139526000D02*
X134112000Y-139526000D01*
X138454000Y-139126000D02*
X136544000Y-139126000D01*
X136544000Y-139126000D02*
X136144000Y-139526000D01*
X134112000Y-144606000D02*
X136144000Y-144606000D01*
X138454000Y-144206000D02*
X136544000Y-144206000D01*
X136544000Y-144206000D02*
X136144000Y-144606000D01*
G36*
X150550000Y-148550000D02*
X144379967Y-148550000D01*
X144467653Y-148532558D01*
X144848850Y-148277850D01*
X147388850Y-145737851D01*
X147643558Y-145356653D01*
X147651207Y-145318198D01*
X147733000Y-144907000D01*
X147733000Y-144209639D01*
X147916767Y-144086850D01*
X148171475Y-143705653D01*
X148260917Y-143256000D01*
X148171475Y-142806347D01*
X147916767Y-142425150D01*
X147733000Y-142302361D01*
X147733000Y-141669639D01*
X147916767Y-141546850D01*
X148171475Y-141165653D01*
X148260917Y-140716000D01*
X148171475Y-140266347D01*
X147916767Y-139885150D01*
X147733000Y-139762361D01*
X147733000Y-139129639D01*
X147916767Y-139006850D01*
X148171475Y-138625653D01*
X148260917Y-138176000D01*
X148171475Y-137726347D01*
X147916767Y-137345150D01*
X147733000Y-137222361D01*
X147733000Y-136589639D01*
X147916767Y-136466850D01*
X148171475Y-136085653D01*
X148260917Y-135636000D01*
X148171475Y-135186347D01*
X147916767Y-134805150D01*
X147733000Y-134682361D01*
X147733000Y-134049639D01*
X147916767Y-133926850D01*
X148171475Y-133545653D01*
X148260917Y-133096000D01*
X148171475Y-132646347D01*
X147916767Y-132265150D01*
X147733000Y-132142361D01*
X147733000Y-131509639D01*
X147916767Y-131386850D01*
X148171475Y-131005653D01*
X148260917Y-130556000D01*
X148171475Y-130106347D01*
X147916767Y-129725150D01*
X147733000Y-129602361D01*
X147733000Y-128969639D01*
X147916767Y-128846850D01*
X148171475Y-128465653D01*
X148260917Y-128016000D01*
X148171475Y-127566347D01*
X147916767Y-127185150D01*
X147733000Y-127062361D01*
X147733000Y-126429639D01*
X147916767Y-126306850D01*
X148171475Y-125925653D01*
X148260917Y-125476000D01*
X148171475Y-125026347D01*
X147916767Y-124645150D01*
X147733000Y-124522361D01*
X147733000Y-123889639D01*
X147916767Y-123766850D01*
X148171475Y-123385653D01*
X148260917Y-122936000D01*
X148171475Y-122486347D01*
X147916767Y-122105150D01*
X147733000Y-121982361D01*
X147733000Y-121349639D01*
X147916767Y-121226850D01*
X148171475Y-120845653D01*
X148260917Y-120396000D01*
X148171475Y-119946347D01*
X147916767Y-119565150D01*
X147733000Y-119442361D01*
X147733000Y-118809639D01*
X147916767Y-118686850D01*
X148171475Y-118305653D01*
X148260917Y-117856000D01*
X148171475Y-117406347D01*
X147916767Y-117025150D01*
X147733000Y-116902361D01*
X147733000Y-116269639D01*
X147916767Y-116146850D01*
X148171475Y-115765653D01*
X148260917Y-115316000D01*
X148171475Y-114866347D01*
X147916767Y-114485150D01*
X147733000Y-114362361D01*
X147733000Y-113729639D01*
X147916767Y-113606850D01*
X148171475Y-113225653D01*
X148260917Y-112776000D01*
X148171475Y-112326347D01*
X147916767Y-111945150D01*
X147733000Y-111822361D01*
X147733000Y-111189639D01*
X147916767Y-111066850D01*
X148171475Y-110685653D01*
X148260917Y-110236000D01*
X148171475Y-109786347D01*
X147916767Y-109405150D01*
X147733000Y-109282361D01*
X147733000Y-108649639D01*
X147916767Y-108526850D01*
X148171475Y-108145653D01*
X148260917Y-107696000D01*
X148171475Y-107246347D01*
X147916767Y-106865150D01*
X147733000Y-106742361D01*
X147733000Y-106109639D01*
X147916767Y-105986850D01*
X148171475Y-105605653D01*
X148260917Y-105156000D01*
X148171475Y-104706347D01*
X147916767Y-104325150D01*
X147535570Y-104070442D01*
X147085917Y-103981000D01*
X146530083Y-103981000D01*
X146080430Y-104070442D01*
X145699233Y-104325150D01*
X145444525Y-104706347D01*
X145355083Y-105156000D01*
X145383000Y-105296348D01*
X145383000Y-107555652D01*
X145355083Y-107696000D01*
X145383000Y-107836348D01*
X145383000Y-110095652D01*
X145355083Y-110236000D01*
X145383000Y-110376348D01*
X145383000Y-112635652D01*
X145355083Y-112776000D01*
X145383000Y-112916348D01*
X145383000Y-115175652D01*
X145355083Y-115316000D01*
X145383000Y-115456348D01*
X145383000Y-117715652D01*
X145355083Y-117856000D01*
X145383000Y-117996348D01*
X145383000Y-120255652D01*
X145355083Y-120396000D01*
X145383000Y-120536348D01*
X145383000Y-122795652D01*
X145355083Y-122936000D01*
X145383000Y-123076348D01*
X145383000Y-125335652D01*
X145355083Y-125476000D01*
X145383000Y-125616348D01*
X145383000Y-127875652D01*
X145355083Y-128016000D01*
X145383000Y-128156348D01*
X145383000Y-130415652D01*
X145355083Y-130556000D01*
X145383000Y-130696348D01*
X145383000Y-132955652D01*
X145355083Y-133096000D01*
X145383000Y-133236348D01*
X145383000Y-135495652D01*
X145355083Y-135636000D01*
X145383000Y-135776348D01*
X145383000Y-138035652D01*
X145355083Y-138176000D01*
X145383000Y-138316348D01*
X145383000Y-140575652D01*
X145355083Y-140716000D01*
X145383000Y-140856348D01*
X145383000Y-143115652D01*
X145355083Y-143256000D01*
X145383000Y-143396348D01*
X145383000Y-144420299D01*
X143531300Y-146272000D01*
X131677701Y-146272000D01*
X129261701Y-143856000D01*
X133079654Y-143856000D01*
X133079654Y-145356000D01*
X133105802Y-145494966D01*
X133187931Y-145622599D01*
X133313246Y-145708223D01*
X133462000Y-145738346D01*
X134762000Y-145738346D01*
X134900966Y-145712198D01*
X135028599Y-145630069D01*
X135114223Y-145504754D01*
X135127400Y-145439683D01*
X135137802Y-145494966D01*
X135219931Y-145622599D01*
X135345246Y-145708223D01*
X135494000Y-145738346D01*
X136794000Y-145738346D01*
X136932966Y-145712198D01*
X137060599Y-145630069D01*
X137146223Y-145504754D01*
X137176346Y-145356000D01*
X137176346Y-144789325D01*
X137229931Y-144872599D01*
X137355246Y-144958223D01*
X137504000Y-144988346D01*
X139404000Y-144988346D01*
X139542966Y-144962198D01*
X139670599Y-144880069D01*
X139756223Y-144754754D01*
X139786346Y-144606000D01*
X139786346Y-143806000D01*
X139760198Y-143667034D01*
X139678069Y-143539401D01*
X139552754Y-143453777D01*
X139404000Y-143423654D01*
X137504000Y-143423654D01*
X137365034Y-143449802D01*
X137237401Y-143531931D01*
X137151777Y-143657246D01*
X137142190Y-143704589D01*
X137068069Y-143589401D01*
X136942754Y-143503777D01*
X136794000Y-143473654D01*
X135494000Y-143473654D01*
X135355034Y-143499802D01*
X135227401Y-143581931D01*
X135141777Y-143707246D01*
X135128600Y-143772317D01*
X135118198Y-143717034D01*
X135036069Y-143589401D01*
X134910754Y-143503777D01*
X134762000Y-143473654D01*
X133462000Y-143473654D01*
X133323034Y-143499802D01*
X133195401Y-143581931D01*
X133109777Y-143707246D01*
X133079654Y-143856000D01*
X129261701Y-143856000D01*
X128211850Y-142806150D01*
X127830653Y-142551442D01*
X127381000Y-142462000D01*
X125073701Y-142462000D01*
X123857000Y-141245300D01*
X123857000Y-137161000D01*
X124097000Y-137161000D01*
X124097000Y-137411000D01*
X124184549Y-137841138D01*
X124430040Y-138205030D01*
X124796100Y-138447277D01*
X125041075Y-138516356D01*
X125217000Y-138437238D01*
X125217000Y-137161000D01*
X125227000Y-137161000D01*
X125227000Y-138437238D01*
X125402925Y-138516356D01*
X125647900Y-138447277D01*
X126013960Y-138205030D01*
X126259451Y-137841138D01*
X126347000Y-137411000D01*
X126347000Y-137161000D01*
X125227000Y-137161000D01*
X125217000Y-137161000D01*
X124097000Y-137161000D01*
X123857000Y-137161000D01*
X123857000Y-136901000D01*
X124097000Y-136901000D01*
X124097000Y-137151000D01*
X125217000Y-137151000D01*
X125217000Y-135874762D01*
X125227000Y-135874762D01*
X125227000Y-137151000D01*
X126347000Y-137151000D01*
X126347000Y-136901000D01*
X126259451Y-136470862D01*
X126013960Y-136106970D01*
X125647900Y-135864723D01*
X125402925Y-135795644D01*
X125227000Y-135874762D01*
X125217000Y-135874762D01*
X125041075Y-135795644D01*
X124796100Y-135864723D01*
X124430040Y-136106970D01*
X124184549Y-136470862D01*
X124097000Y-136901000D01*
X123857000Y-136901000D01*
X123857000Y-134121000D01*
X124097000Y-134121000D01*
X124097000Y-134371000D01*
X124184549Y-134801138D01*
X124430040Y-135165030D01*
X124796100Y-135407277D01*
X125041075Y-135476356D01*
X125217000Y-135397238D01*
X125217000Y-134121000D01*
X125227000Y-134121000D01*
X125227000Y-135397238D01*
X125402925Y-135476356D01*
X125647900Y-135407277D01*
X126013960Y-135165030D01*
X126259451Y-134801138D01*
X126347000Y-134371000D01*
X126347000Y-134121000D01*
X125227000Y-134121000D01*
X125217000Y-134121000D01*
X124097000Y-134121000D01*
X123857000Y-134121000D01*
X123857000Y-133861000D01*
X124097000Y-133861000D01*
X124097000Y-134111000D01*
X125217000Y-134111000D01*
X125217000Y-132834762D01*
X125227000Y-132834762D01*
X125227000Y-134111000D01*
X126347000Y-134111000D01*
X126347000Y-133861000D01*
X126259451Y-133430862D01*
X126013960Y-133066970D01*
X125647900Y-132824723D01*
X125402925Y-132755644D01*
X125227000Y-132834762D01*
X125217000Y-132834762D01*
X125041075Y-132755644D01*
X124796100Y-132824723D01*
X124430040Y-133066970D01*
X124184549Y-133430862D01*
X124097000Y-133861000D01*
X123857000Y-133861000D01*
X123857000Y-133838083D01*
X123767558Y-133388430D01*
X123512850Y-133007233D01*
X123131653Y-132752525D01*
X122682000Y-132663083D01*
X122232347Y-132752525D01*
X121851150Y-133007233D01*
X121596442Y-133388430D01*
X121507000Y-133838083D01*
X121507000Y-141732000D01*
X121594212Y-142170442D01*
X121596442Y-142181653D01*
X121851150Y-142562850D01*
X123756150Y-144467851D01*
X123879095Y-144550000D01*
X121000000Y-144550000D01*
X120827792Y-144584254D01*
X120681802Y-144681802D01*
X120584254Y-144827792D01*
X120550000Y-145000000D01*
X120550000Y-147000000D01*
X120584254Y-147172208D01*
X120681802Y-147318198D01*
X120827792Y-147415746D01*
X121000000Y-147450000D01*
X127000000Y-147450000D01*
X127172208Y-147415746D01*
X127318198Y-147318198D01*
X127415746Y-147172208D01*
X127450000Y-147000000D01*
X127450000Y-145367700D01*
X130360150Y-148277851D01*
X130741347Y-148532558D01*
X130829033Y-148550000D01*
X109950000Y-148550000D01*
X109950000Y-145026050D01*
X111520562Y-145026050D01*
X111904161Y-145954429D01*
X112613835Y-146665343D01*
X113541543Y-147050561D01*
X114546050Y-147051438D01*
X115474429Y-146667839D01*
X116185343Y-145958165D01*
X116570561Y-145030457D01*
X116571438Y-144025950D01*
X116187839Y-143097571D01*
X115478165Y-142386657D01*
X114550457Y-142001439D01*
X113545950Y-142000562D01*
X112617571Y-142384161D01*
X111906657Y-143093835D01*
X111521439Y-144021543D01*
X111520562Y-145026050D01*
X109950000Y-145026050D01*
X109950000Y-133132538D01*
X112691998Y-133132538D01*
X112691998Y-135618998D01*
X112733440Y-135827341D01*
X112735767Y-135839041D01*
X112860412Y-136025584D01*
X113929654Y-137094827D01*
X113929654Y-138156000D01*
X113955802Y-138294966D01*
X114037931Y-138422599D01*
X114163246Y-138508223D01*
X114312000Y-138538346D01*
X115812000Y-138538346D01*
X115950966Y-138512198D01*
X116078599Y-138430069D01*
X116164223Y-138304754D01*
X116194346Y-138156000D01*
X116194346Y-136205452D01*
X116541864Y-136552970D01*
X116477000Y-136879062D01*
X116477000Y-137432938D01*
X116562636Y-137863457D01*
X116806505Y-138228433D01*
X117171481Y-138472302D01*
X117602000Y-138557938D01*
X118032519Y-138472302D01*
X118397495Y-138228433D01*
X118641364Y-137863457D01*
X118727000Y-137432938D01*
X118727000Y-136879062D01*
X119017000Y-136879062D01*
X119017000Y-137432938D01*
X119102636Y-137863457D01*
X119346505Y-138228433D01*
X119711481Y-138472302D01*
X120142000Y-138557938D01*
X120572519Y-138472302D01*
X120937495Y-138228433D01*
X121181364Y-137863457D01*
X121267000Y-137432938D01*
X121267000Y-136879062D01*
X121181364Y-136448543D01*
X120937495Y-136083567D01*
X120572519Y-135839698D01*
X120142000Y-135754062D01*
X119711481Y-135839698D01*
X119346505Y-136083567D01*
X119102636Y-136448543D01*
X119017000Y-136879062D01*
X118727000Y-136879062D01*
X118641364Y-136448543D01*
X118397495Y-136083567D01*
X118032519Y-135839698D01*
X117602000Y-135754062D01*
X117230971Y-135827865D01*
X116685553Y-135282447D01*
X116523342Y-135174060D01*
X116332000Y-135136000D01*
X115892530Y-135136000D01*
X116101364Y-134823457D01*
X116187000Y-134392938D01*
X116187000Y-133948106D01*
X116521932Y-133613174D01*
X116477000Y-133839062D01*
X116477000Y-134392938D01*
X116562636Y-134823457D01*
X116806505Y-135188433D01*
X117171481Y-135432302D01*
X117602000Y-135517938D01*
X118032519Y-135432302D01*
X118397495Y-135188433D01*
X118641364Y-134823457D01*
X118727000Y-134392938D01*
X118727000Y-133839062D01*
X118641364Y-133408543D01*
X118397495Y-133043567D01*
X118083856Y-132834000D01*
X119660144Y-132834000D01*
X119346505Y-133043567D01*
X119102636Y-133408543D01*
X119017000Y-133839062D01*
X119017000Y-134392938D01*
X119102636Y-134823457D01*
X119346505Y-135188433D01*
X119711481Y-135432302D01*
X120142000Y-135517938D01*
X120572519Y-135432302D01*
X120937495Y-135188433D01*
X121181364Y-134823457D01*
X121267000Y-134392938D01*
X121267000Y-133839062D01*
X121181364Y-133408543D01*
X120937495Y-133043567D01*
X120572519Y-132799698D01*
X120570484Y-132799293D01*
X120587342Y-132795940D01*
X120749553Y-132687553D01*
X123158553Y-130278554D01*
X123266940Y-130116342D01*
X123288467Y-130008117D01*
X123305000Y-129925000D01*
X123305000Y-129135000D01*
X123356250Y-129135000D01*
X123450000Y-129041250D01*
X123450000Y-127765000D01*
X123430000Y-127765000D01*
X123430000Y-127755000D01*
X123450000Y-127755000D01*
X123450000Y-126478750D01*
X123356250Y-126385000D01*
X123180408Y-126385000D01*
X123134723Y-126403923D01*
X123005000Y-126377654D01*
X122605000Y-126377654D01*
X122475411Y-126402038D01*
X122355000Y-126377654D01*
X122159155Y-126377654D01*
X122213883Y-126245855D01*
X122213884Y-126244677D01*
X123403883Y-126244677D01*
X123488729Y-126450021D01*
X123460000Y-126478750D01*
X123460000Y-127755000D01*
X123480000Y-127755000D01*
X123480000Y-127765000D01*
X123460000Y-127765000D01*
X123460000Y-129041250D01*
X123553750Y-129135000D01*
X123729592Y-129135000D01*
X123775277Y-129116077D01*
X123905000Y-129142346D01*
X124305000Y-129142346D01*
X124437811Y-129117356D01*
X124480408Y-129135000D01*
X124656250Y-129135000D01*
X124750000Y-129041250D01*
X124750000Y-127765000D01*
X124730000Y-127765000D01*
X124730000Y-127755000D01*
X124750000Y-127755000D01*
X124750000Y-126478750D01*
X124760000Y-126478750D01*
X124760000Y-127755000D01*
X124780000Y-127755000D01*
X124780000Y-127765000D01*
X124760000Y-127765000D01*
X124760000Y-129041250D01*
X124853750Y-129135000D01*
X124905000Y-129135000D01*
X124905000Y-130739000D01*
X124931921Y-130874341D01*
X124943060Y-130930342D01*
X125051447Y-131092553D01*
X128786000Y-134827107D01*
X128786000Y-138938000D01*
X128811075Y-139064060D01*
X128824060Y-139129342D01*
X128932447Y-139291553D01*
X131218446Y-141577553D01*
X131380658Y-141685940D01*
X131572000Y-141724000D01*
X133079654Y-141724000D01*
X133079654Y-142656000D01*
X133105802Y-142794966D01*
X133187931Y-142922599D01*
X133313246Y-143008223D01*
X133462000Y-143038346D01*
X134762000Y-143038346D01*
X134900966Y-143012198D01*
X135028599Y-142930069D01*
X135114223Y-142804754D01*
X135125878Y-142747198D01*
X135176090Y-142868420D01*
X135281579Y-142973910D01*
X135419408Y-143031000D01*
X136045250Y-143031000D01*
X136139000Y-142937250D01*
X136139000Y-141911000D01*
X136119000Y-141911000D01*
X136119000Y-141901000D01*
X136139000Y-141901000D01*
X136139000Y-140874750D01*
X136149000Y-140874750D01*
X136149000Y-141901000D01*
X136169000Y-141901000D01*
X136169000Y-141911000D01*
X136149000Y-141911000D01*
X136149000Y-142937250D01*
X136242750Y-143031000D01*
X136868592Y-143031000D01*
X137006421Y-142973910D01*
X137111910Y-142868420D01*
X137138645Y-142803877D01*
X137186090Y-142918421D01*
X137291580Y-143023910D01*
X137429408Y-143081000D01*
X138355250Y-143081000D01*
X138449000Y-142987250D01*
X138449000Y-142311000D01*
X138459000Y-142311000D01*
X138459000Y-142987250D01*
X138552750Y-143081000D01*
X139478592Y-143081000D01*
X139616420Y-143023910D01*
X139721910Y-142918421D01*
X139747765Y-142856000D01*
X140070674Y-142856000D01*
X140070674Y-143656000D01*
X140100309Y-143813496D01*
X140193389Y-143958146D01*
X140335412Y-144055186D01*
X140504000Y-144089326D01*
X142404000Y-144089326D01*
X142561496Y-144059691D01*
X142617155Y-144023875D01*
X142659233Y-144086850D01*
X143040430Y-144341558D01*
X143490083Y-144431000D01*
X144045917Y-144431000D01*
X144495570Y-144341558D01*
X144876767Y-144086850D01*
X145131475Y-143705653D01*
X145220917Y-143256000D01*
X145131475Y-142806347D01*
X144876767Y-142425150D01*
X144495570Y-142170442D01*
X144045917Y-142081000D01*
X143490083Y-142081000D01*
X143040430Y-142170442D01*
X142659233Y-142425150D01*
X142617549Y-142487534D01*
X142572588Y-142456814D01*
X142404000Y-142422674D01*
X140504000Y-142422674D01*
X140346504Y-142452309D01*
X140201854Y-142545389D01*
X140104814Y-142687412D01*
X140070674Y-142856000D01*
X139747765Y-142856000D01*
X139779000Y-142780592D01*
X139779000Y-142404750D01*
X139685250Y-142311000D01*
X138459000Y-142311000D01*
X138449000Y-142311000D01*
X138429000Y-142311000D01*
X138429000Y-142301000D01*
X138449000Y-142301000D01*
X138449000Y-141624750D01*
X138459000Y-141624750D01*
X138459000Y-142301000D01*
X139685250Y-142301000D01*
X139779000Y-142207250D01*
X139779000Y-141831408D01*
X139721910Y-141693579D01*
X139616420Y-141588090D01*
X139478592Y-141531000D01*
X138552750Y-141531000D01*
X138459000Y-141624750D01*
X138449000Y-141624750D01*
X138355250Y-141531000D01*
X137429408Y-141531000D01*
X137291580Y-141588090D01*
X137186090Y-141693579D01*
X137169000Y-141734838D01*
X137169000Y-141081408D01*
X137111910Y-140943580D01*
X137006421Y-140838090D01*
X136868592Y-140781000D01*
X136242750Y-140781000D01*
X136149000Y-140874750D01*
X136139000Y-140874750D01*
X136045250Y-140781000D01*
X135419408Y-140781000D01*
X135281579Y-140838090D01*
X135176090Y-140943580D01*
X135126778Y-141062631D01*
X135118198Y-141017034D01*
X135036069Y-140889401D01*
X134910754Y-140803777D01*
X134762000Y-140773654D01*
X133638693Y-140773654D01*
X133621342Y-140762060D01*
X133430000Y-140724000D01*
X131779107Y-140724000D01*
X131771107Y-140716000D01*
X142315083Y-140716000D01*
X142404525Y-141165653D01*
X142659233Y-141546850D01*
X143040430Y-141801558D01*
X143490083Y-141891000D01*
X144045917Y-141891000D01*
X144495570Y-141801558D01*
X144876767Y-141546850D01*
X145131475Y-141165653D01*
X145220917Y-140716000D01*
X145131475Y-140266347D01*
X144876767Y-139885150D01*
X144495570Y-139630442D01*
X144045917Y-139541000D01*
X143490083Y-139541000D01*
X143040430Y-139630442D01*
X142659233Y-139885150D01*
X142404525Y-140266347D01*
X142315083Y-140716000D01*
X131771107Y-140716000D01*
X130256363Y-139201257D01*
X130429857Y-139129571D01*
X130619903Y-138939856D01*
X130687942Y-138776000D01*
X133079654Y-138776000D01*
X133079654Y-140276000D01*
X133105802Y-140414966D01*
X133187931Y-140542599D01*
X133313246Y-140628223D01*
X133462000Y-140658346D01*
X134762000Y-140658346D01*
X134900966Y-140632198D01*
X135028599Y-140550069D01*
X135114223Y-140424754D01*
X135127400Y-140359683D01*
X135137802Y-140414966D01*
X135219931Y-140542599D01*
X135345246Y-140628223D01*
X135494000Y-140658346D01*
X136794000Y-140658346D01*
X136932966Y-140632198D01*
X137060599Y-140550069D01*
X137146223Y-140424754D01*
X137176346Y-140276000D01*
X137176346Y-139709325D01*
X137229931Y-139792599D01*
X137355246Y-139878223D01*
X137504000Y-139908346D01*
X139404000Y-139908346D01*
X139542966Y-139882198D01*
X139670599Y-139800069D01*
X139756223Y-139674754D01*
X139786346Y-139526000D01*
X139786346Y-138726000D01*
X139760198Y-138587034D01*
X139678069Y-138459401D01*
X139552754Y-138373777D01*
X139404000Y-138343654D01*
X137504000Y-138343654D01*
X137365034Y-138369802D01*
X137237401Y-138451931D01*
X137151777Y-138577246D01*
X137142190Y-138624589D01*
X137068069Y-138509401D01*
X136942754Y-138423777D01*
X136794000Y-138393654D01*
X135494000Y-138393654D01*
X135355034Y-138419802D01*
X135227401Y-138501931D01*
X135141777Y-138627246D01*
X135128600Y-138692317D01*
X135118198Y-138637034D01*
X135036069Y-138509401D01*
X134910754Y-138423777D01*
X134762000Y-138393654D01*
X133462000Y-138393654D01*
X133323034Y-138419802D01*
X133195401Y-138501931D01*
X133109777Y-138627246D01*
X133079654Y-138776000D01*
X130687942Y-138776000D01*
X130722883Y-138691855D01*
X130723117Y-138423323D01*
X130620571Y-138175143D01*
X130548000Y-138102445D01*
X130548000Y-134811106D01*
X132916447Y-137179553D01*
X133078658Y-137287940D01*
X133079654Y-137288138D01*
X133079654Y-137576000D01*
X133105802Y-137714966D01*
X133187931Y-137842599D01*
X133313246Y-137928223D01*
X133462000Y-137958346D01*
X134762000Y-137958346D01*
X134900966Y-137932198D01*
X135028599Y-137850069D01*
X135114223Y-137724754D01*
X135125878Y-137667198D01*
X135176090Y-137788420D01*
X135281579Y-137893910D01*
X135419408Y-137951000D01*
X136045250Y-137951000D01*
X136139000Y-137857250D01*
X136139000Y-136831000D01*
X136119000Y-136831000D01*
X136119000Y-136821000D01*
X136139000Y-136821000D01*
X136139000Y-135794750D01*
X136149000Y-135794750D01*
X136149000Y-136821000D01*
X136169000Y-136821000D01*
X136169000Y-136831000D01*
X136149000Y-136831000D01*
X136149000Y-137857250D01*
X136242750Y-137951000D01*
X136868592Y-137951000D01*
X137006421Y-137893910D01*
X137111910Y-137788420D01*
X137138645Y-137723877D01*
X137186090Y-137838421D01*
X137291580Y-137943910D01*
X137429408Y-138001000D01*
X138355250Y-138001000D01*
X138449000Y-137907250D01*
X138449000Y-137231000D01*
X138459000Y-137231000D01*
X138459000Y-137907250D01*
X138552750Y-138001000D01*
X139478592Y-138001000D01*
X139616420Y-137943910D01*
X139721910Y-137838421D01*
X139747765Y-137776000D01*
X140070674Y-137776000D01*
X140070674Y-138576000D01*
X140100309Y-138733496D01*
X140193389Y-138878146D01*
X140335412Y-138975186D01*
X140504000Y-139009326D01*
X142404000Y-139009326D01*
X142561496Y-138979691D01*
X142617155Y-138943875D01*
X142659233Y-139006850D01*
X143040430Y-139261558D01*
X143490083Y-139351000D01*
X144045917Y-139351000D01*
X144495570Y-139261558D01*
X144876767Y-139006850D01*
X145131475Y-138625653D01*
X145220917Y-138176000D01*
X145131475Y-137726347D01*
X144876767Y-137345150D01*
X144495570Y-137090442D01*
X144045917Y-137001000D01*
X143490083Y-137001000D01*
X143040430Y-137090442D01*
X142659233Y-137345150D01*
X142617549Y-137407534D01*
X142572588Y-137376814D01*
X142404000Y-137342674D01*
X140504000Y-137342674D01*
X140346504Y-137372309D01*
X140201854Y-137465389D01*
X140104814Y-137607412D01*
X140070674Y-137776000D01*
X139747765Y-137776000D01*
X139779000Y-137700592D01*
X139779000Y-137324750D01*
X139685250Y-137231000D01*
X138459000Y-137231000D01*
X138449000Y-137231000D01*
X138429000Y-137231000D01*
X138429000Y-137221000D01*
X138449000Y-137221000D01*
X138449000Y-136544750D01*
X138459000Y-136544750D01*
X138459000Y-137221000D01*
X139685250Y-137221000D01*
X139779000Y-137127250D01*
X139779000Y-136751408D01*
X139721910Y-136613579D01*
X139616420Y-136508090D01*
X139478592Y-136451000D01*
X138552750Y-136451000D01*
X138459000Y-136544750D01*
X138449000Y-136544750D01*
X138355250Y-136451000D01*
X137429408Y-136451000D01*
X137291580Y-136508090D01*
X137186090Y-136613579D01*
X137169000Y-136654838D01*
X137169000Y-136001408D01*
X137111910Y-135863580D01*
X137006421Y-135758090D01*
X136868592Y-135701000D01*
X136242750Y-135701000D01*
X136149000Y-135794750D01*
X136139000Y-135794750D01*
X136045250Y-135701000D01*
X135419408Y-135701000D01*
X135281579Y-135758090D01*
X135176090Y-135863580D01*
X135126778Y-135982631D01*
X135118198Y-135937034D01*
X135036069Y-135809401D01*
X134910754Y-135723777D01*
X134762000Y-135693654D01*
X133462000Y-135693654D01*
X133323034Y-135719802D01*
X133195401Y-135801931D01*
X133109777Y-135927246D01*
X133104485Y-135953379D01*
X132787106Y-135636000D01*
X142315083Y-135636000D01*
X142404525Y-136085653D01*
X142659233Y-136466850D01*
X143040430Y-136721558D01*
X143490083Y-136811000D01*
X144045917Y-136811000D01*
X144495570Y-136721558D01*
X144876767Y-136466850D01*
X145131475Y-136085653D01*
X145220917Y-135636000D01*
X145131475Y-135186347D01*
X144876767Y-134805150D01*
X144495570Y-134550442D01*
X144045917Y-134461000D01*
X143490083Y-134461000D01*
X143040430Y-134550442D01*
X142659233Y-134805150D01*
X142404525Y-135186347D01*
X142315083Y-135636000D01*
X132787106Y-135636000D01*
X130847106Y-133696000D01*
X133079654Y-133696000D01*
X133079654Y-135196000D01*
X133105802Y-135334966D01*
X133187931Y-135462599D01*
X133313246Y-135548223D01*
X133462000Y-135578346D01*
X134762000Y-135578346D01*
X134900966Y-135552198D01*
X135028599Y-135470069D01*
X135114223Y-135344754D01*
X135127400Y-135279683D01*
X135137802Y-135334966D01*
X135219931Y-135462599D01*
X135345246Y-135548223D01*
X135494000Y-135578346D01*
X136794000Y-135578346D01*
X136932966Y-135552198D01*
X137060599Y-135470069D01*
X137146223Y-135344754D01*
X137176346Y-135196000D01*
X137176346Y-134629325D01*
X137229931Y-134712599D01*
X137355246Y-134798223D01*
X137504000Y-134828346D01*
X139404000Y-134828346D01*
X139542966Y-134802198D01*
X139670599Y-134720069D01*
X139756223Y-134594754D01*
X139786346Y-134446000D01*
X139786346Y-133646000D01*
X139760198Y-133507034D01*
X139678069Y-133379401D01*
X139552754Y-133293777D01*
X139404000Y-133263654D01*
X137504000Y-133263654D01*
X137365034Y-133289802D01*
X137237401Y-133371931D01*
X137151777Y-133497246D01*
X137142190Y-133544589D01*
X137068069Y-133429401D01*
X136942754Y-133343777D01*
X136794000Y-133313654D01*
X135494000Y-133313654D01*
X135355034Y-133339802D01*
X135227401Y-133421931D01*
X135141777Y-133547246D01*
X135128600Y-133612317D01*
X135118198Y-133557034D01*
X135036069Y-133429401D01*
X134910754Y-133343777D01*
X134762000Y-133313654D01*
X133462000Y-133313654D01*
X133323034Y-133339802D01*
X133195401Y-133421931D01*
X133109777Y-133547246D01*
X133079654Y-133696000D01*
X130847106Y-133696000D01*
X130346231Y-133195125D01*
X130429857Y-133160571D01*
X130619903Y-132970856D01*
X130722883Y-132722855D01*
X130723117Y-132454323D01*
X130620571Y-132206143D01*
X130430856Y-132016097D01*
X130182855Y-131913117D01*
X130080133Y-131913027D01*
X129985106Y-131818000D01*
X133079654Y-131818000D01*
X133079654Y-132496000D01*
X133105802Y-132634966D01*
X133187931Y-132762599D01*
X133313246Y-132848223D01*
X133462000Y-132878346D01*
X134762000Y-132878346D01*
X134900966Y-132852198D01*
X135028599Y-132770069D01*
X135114223Y-132644754D01*
X135125878Y-132587198D01*
X135176090Y-132708420D01*
X135281579Y-132813910D01*
X135419408Y-132871000D01*
X136045250Y-132871000D01*
X136139000Y-132777250D01*
X136139000Y-131751000D01*
X136119000Y-131751000D01*
X136119000Y-131741000D01*
X136139000Y-131741000D01*
X136139000Y-130714750D01*
X136149000Y-130714750D01*
X136149000Y-131741000D01*
X136169000Y-131741000D01*
X136169000Y-131751000D01*
X136149000Y-131751000D01*
X136149000Y-132777250D01*
X136242750Y-132871000D01*
X136868592Y-132871000D01*
X137006421Y-132813910D01*
X137111910Y-132708420D01*
X137138645Y-132643877D01*
X137186090Y-132758421D01*
X137291580Y-132863910D01*
X137429408Y-132921000D01*
X138355250Y-132921000D01*
X138449000Y-132827250D01*
X138449000Y-132151000D01*
X138459000Y-132151000D01*
X138459000Y-132827250D01*
X138552750Y-132921000D01*
X139478592Y-132921000D01*
X139616420Y-132863910D01*
X139721910Y-132758421D01*
X139747765Y-132696000D01*
X140070674Y-132696000D01*
X140070674Y-133496000D01*
X140100309Y-133653496D01*
X140193389Y-133798146D01*
X140335412Y-133895186D01*
X140504000Y-133929326D01*
X142404000Y-133929326D01*
X142561496Y-133899691D01*
X142617155Y-133863875D01*
X142659233Y-133926850D01*
X143040430Y-134181558D01*
X143490083Y-134271000D01*
X144045917Y-134271000D01*
X144495570Y-134181558D01*
X144876767Y-133926850D01*
X145131475Y-133545653D01*
X145220917Y-133096000D01*
X145131475Y-132646347D01*
X144876767Y-132265150D01*
X144495570Y-132010442D01*
X144045917Y-131921000D01*
X143490083Y-131921000D01*
X143040430Y-132010442D01*
X142659233Y-132265150D01*
X142617549Y-132327534D01*
X142572588Y-132296814D01*
X142404000Y-132262674D01*
X140504000Y-132262674D01*
X140346504Y-132292309D01*
X140201854Y-132385389D01*
X140104814Y-132527412D01*
X140070674Y-132696000D01*
X139747765Y-132696000D01*
X139779000Y-132620592D01*
X139779000Y-132244750D01*
X139685250Y-132151000D01*
X138459000Y-132151000D01*
X138449000Y-132151000D01*
X138429000Y-132151000D01*
X138429000Y-132141000D01*
X138449000Y-132141000D01*
X138449000Y-131464750D01*
X138459000Y-131464750D01*
X138459000Y-132141000D01*
X139685250Y-132141000D01*
X139779000Y-132047250D01*
X139779000Y-131671408D01*
X139721910Y-131533579D01*
X139616420Y-131428090D01*
X139478592Y-131371000D01*
X138552750Y-131371000D01*
X138459000Y-131464750D01*
X138449000Y-131464750D01*
X138355250Y-131371000D01*
X137429408Y-131371000D01*
X137291580Y-131428090D01*
X137186090Y-131533579D01*
X137169000Y-131574838D01*
X137169000Y-130921408D01*
X137111910Y-130783580D01*
X137006421Y-130678090D01*
X136868592Y-130621000D01*
X136242750Y-130621000D01*
X136149000Y-130714750D01*
X136139000Y-130714750D01*
X136045250Y-130621000D01*
X135419408Y-130621000D01*
X135281579Y-130678090D01*
X135176090Y-130783580D01*
X135126778Y-130902631D01*
X135118198Y-130857034D01*
X135036069Y-130729401D01*
X134910754Y-130643777D01*
X134762000Y-130613654D01*
X133462000Y-130613654D01*
X133323034Y-130639802D01*
X133195401Y-130721931D01*
X133129760Y-130818000D01*
X130722823Y-130818000D01*
X130722883Y-130817855D01*
X130723111Y-130556000D01*
X142315083Y-130556000D01*
X142404525Y-131005653D01*
X142659233Y-131386850D01*
X143040430Y-131641558D01*
X143490083Y-131731000D01*
X144045917Y-131731000D01*
X144495570Y-131641558D01*
X144876767Y-131386850D01*
X145131475Y-131005653D01*
X145220917Y-130556000D01*
X145131475Y-130106347D01*
X144876767Y-129725150D01*
X144495570Y-129470442D01*
X144045917Y-129381000D01*
X143490083Y-129381000D01*
X143040430Y-129470442D01*
X142659233Y-129725150D01*
X142404525Y-130106347D01*
X142315083Y-130556000D01*
X130723111Y-130556000D01*
X130723117Y-130549323D01*
X130620571Y-130301143D01*
X130603924Y-130284467D01*
X130747342Y-130255940D01*
X130909553Y-130147553D01*
X132441106Y-128616000D01*
X133079654Y-128616000D01*
X133079654Y-130116000D01*
X133105802Y-130254966D01*
X133187931Y-130382599D01*
X133313246Y-130468223D01*
X133462000Y-130498346D01*
X134762000Y-130498346D01*
X134900966Y-130472198D01*
X135028599Y-130390069D01*
X135114223Y-130264754D01*
X135127400Y-130199683D01*
X135137802Y-130254966D01*
X135219931Y-130382599D01*
X135345246Y-130468223D01*
X135494000Y-130498346D01*
X136794000Y-130498346D01*
X136932966Y-130472198D01*
X137060599Y-130390069D01*
X137146223Y-130264754D01*
X137176346Y-130116000D01*
X137176346Y-129549325D01*
X137229931Y-129632599D01*
X137355246Y-129718223D01*
X137504000Y-129748346D01*
X139404000Y-129748346D01*
X139542966Y-129722198D01*
X139670599Y-129640069D01*
X139756223Y-129514754D01*
X139786346Y-129366000D01*
X139786346Y-128566000D01*
X139760198Y-128427034D01*
X139678069Y-128299401D01*
X139552754Y-128213777D01*
X139404000Y-128183654D01*
X137504000Y-128183654D01*
X137365034Y-128209802D01*
X137237401Y-128291931D01*
X137151777Y-128417246D01*
X137142190Y-128464589D01*
X137068069Y-128349401D01*
X136942754Y-128263777D01*
X136794000Y-128233654D01*
X135494000Y-128233654D01*
X135355034Y-128259802D01*
X135227401Y-128341931D01*
X135141777Y-128467246D01*
X135128600Y-128532317D01*
X135118198Y-128477034D01*
X135036069Y-128349401D01*
X134910754Y-128263777D01*
X134762000Y-128233654D01*
X133462000Y-128233654D01*
X133323034Y-128259802D01*
X133195401Y-128341931D01*
X133109777Y-128467246D01*
X133079654Y-128616000D01*
X132441106Y-128616000D01*
X133298772Y-127758334D01*
X133313246Y-127768223D01*
X133462000Y-127798346D01*
X134762000Y-127798346D01*
X134900966Y-127772198D01*
X135028599Y-127690069D01*
X135114223Y-127564754D01*
X135125878Y-127507198D01*
X135176090Y-127628420D01*
X135281579Y-127733910D01*
X135419408Y-127791000D01*
X136045250Y-127791000D01*
X136139000Y-127697250D01*
X136139000Y-126671000D01*
X136119000Y-126671000D01*
X136119000Y-126661000D01*
X136139000Y-126661000D01*
X136139000Y-125634750D01*
X136149000Y-125634750D01*
X136149000Y-126661000D01*
X136169000Y-126661000D01*
X136169000Y-126671000D01*
X136149000Y-126671000D01*
X136149000Y-127697250D01*
X136242750Y-127791000D01*
X136868592Y-127791000D01*
X137006421Y-127733910D01*
X137111910Y-127628420D01*
X137138645Y-127563877D01*
X137186090Y-127678421D01*
X137291580Y-127783910D01*
X137429408Y-127841000D01*
X138355250Y-127841000D01*
X138449000Y-127747250D01*
X138449000Y-127071000D01*
X138459000Y-127071000D01*
X138459000Y-127747250D01*
X138552750Y-127841000D01*
X139478592Y-127841000D01*
X139616420Y-127783910D01*
X139721910Y-127678421D01*
X139747765Y-127616000D01*
X140070674Y-127616000D01*
X140070674Y-128416000D01*
X140100309Y-128573496D01*
X140193389Y-128718146D01*
X140335412Y-128815186D01*
X140504000Y-128849326D01*
X142404000Y-128849326D01*
X142561496Y-128819691D01*
X142617155Y-128783875D01*
X142659233Y-128846850D01*
X143040430Y-129101558D01*
X143490083Y-129191000D01*
X144045917Y-129191000D01*
X144495570Y-129101558D01*
X144876767Y-128846850D01*
X145131475Y-128465653D01*
X145220917Y-128016000D01*
X145131475Y-127566347D01*
X144876767Y-127185150D01*
X144495570Y-126930442D01*
X144045917Y-126841000D01*
X143490083Y-126841000D01*
X143040430Y-126930442D01*
X142659233Y-127185150D01*
X142617549Y-127247534D01*
X142572588Y-127216814D01*
X142404000Y-127182674D01*
X140504000Y-127182674D01*
X140346504Y-127212309D01*
X140201854Y-127305389D01*
X140104814Y-127447412D01*
X140070674Y-127616000D01*
X139747765Y-127616000D01*
X139779000Y-127540592D01*
X139779000Y-127164750D01*
X139685250Y-127071000D01*
X138459000Y-127071000D01*
X138449000Y-127071000D01*
X138429000Y-127071000D01*
X138429000Y-127061000D01*
X138449000Y-127061000D01*
X138449000Y-126384750D01*
X138459000Y-126384750D01*
X138459000Y-127061000D01*
X139685250Y-127061000D01*
X139779000Y-126967250D01*
X139779000Y-126591408D01*
X139721910Y-126453579D01*
X139616420Y-126348090D01*
X139478592Y-126291000D01*
X138552750Y-126291000D01*
X138459000Y-126384750D01*
X138449000Y-126384750D01*
X138355250Y-126291000D01*
X137429408Y-126291000D01*
X137291580Y-126348090D01*
X137186090Y-126453579D01*
X137169000Y-126494838D01*
X137169000Y-125841408D01*
X137111910Y-125703580D01*
X137006421Y-125598090D01*
X136868592Y-125541000D01*
X136242750Y-125541000D01*
X136149000Y-125634750D01*
X136139000Y-125634750D01*
X136045250Y-125541000D01*
X135419408Y-125541000D01*
X135281579Y-125598090D01*
X135176090Y-125703580D01*
X135126778Y-125822631D01*
X135118198Y-125777034D01*
X135036069Y-125649401D01*
X134910754Y-125563777D01*
X134762000Y-125533654D01*
X133462000Y-125533654D01*
X133323034Y-125559802D01*
X133195401Y-125641931D01*
X133109777Y-125767246D01*
X133079654Y-125916000D01*
X133079654Y-126563240D01*
X130348894Y-129294000D01*
X130128107Y-129294000D01*
X129976453Y-129142346D01*
X130155000Y-129142346D01*
X130293966Y-129116198D01*
X130421599Y-129034069D01*
X130507223Y-128908754D01*
X130537346Y-128760000D01*
X130537346Y-126760000D01*
X130528359Y-126712240D01*
X130619903Y-126620856D01*
X130722883Y-126372855D01*
X130723117Y-126104323D01*
X130620571Y-125856143D01*
X130430856Y-125666097D01*
X130182855Y-125563117D01*
X129914323Y-125562883D01*
X129666143Y-125665429D01*
X129476097Y-125855144D01*
X129373117Y-126103145D01*
X129372883Y-126371677D01*
X129375353Y-126377654D01*
X129105000Y-126377654D01*
X128975411Y-126402038D01*
X128855000Y-126377654D01*
X128455000Y-126377654D01*
X128325411Y-126402038D01*
X128205000Y-126377654D01*
X127805000Y-126377654D01*
X127675411Y-126402038D01*
X127555000Y-126377654D01*
X127155000Y-126377654D01*
X127025411Y-126402038D01*
X126905000Y-126377654D01*
X126505000Y-126377654D01*
X126375411Y-126402038D01*
X126255000Y-126377654D01*
X125855000Y-126377654D01*
X125725411Y-126402038D01*
X125605000Y-126377654D01*
X125205000Y-126377654D01*
X125072189Y-126402644D01*
X125029592Y-126385000D01*
X124853750Y-126385000D01*
X124760000Y-126478750D01*
X124750000Y-126478750D01*
X124684411Y-126413161D01*
X124753883Y-126245855D01*
X124754117Y-125977323D01*
X124651571Y-125729143D01*
X124461856Y-125539097D01*
X124309904Y-125476000D01*
X142315083Y-125476000D01*
X142404525Y-125925653D01*
X142659233Y-126306850D01*
X143040430Y-126561558D01*
X143490083Y-126651000D01*
X144045917Y-126651000D01*
X144495570Y-126561558D01*
X144876767Y-126306850D01*
X145131475Y-125925653D01*
X145220917Y-125476000D01*
X145131475Y-125026347D01*
X144876767Y-124645150D01*
X144495570Y-124390442D01*
X144045917Y-124301000D01*
X143490083Y-124301000D01*
X143040430Y-124390442D01*
X142659233Y-124645150D01*
X142404525Y-125026347D01*
X142315083Y-125476000D01*
X124309904Y-125476000D01*
X124213855Y-125436117D01*
X123945323Y-125435883D01*
X123697143Y-125538429D01*
X123507097Y-125728144D01*
X123404117Y-125976145D01*
X123403883Y-126244677D01*
X122213884Y-126244677D01*
X122214117Y-125977323D01*
X122111571Y-125729143D01*
X121921856Y-125539097D01*
X121673855Y-125436117D01*
X121405323Y-125435883D01*
X121157143Y-125538429D01*
X120967097Y-125728144D01*
X120864117Y-125976145D01*
X120863883Y-126244677D01*
X120966429Y-126492857D01*
X121005000Y-126531495D01*
X121005000Y-126534815D01*
X120952777Y-126611246D01*
X120922654Y-126760000D01*
X120922654Y-126786000D01*
X120641346Y-126786000D01*
X120641346Y-126611000D01*
X120615198Y-126472034D01*
X120533069Y-126344401D01*
X120407754Y-126258777D01*
X120259000Y-126228654D01*
X119009000Y-126228654D01*
X118870034Y-126254802D01*
X118742401Y-126336931D01*
X118656777Y-126462246D01*
X118626654Y-126611000D01*
X118626654Y-128111000D01*
X118652802Y-128249966D01*
X118734931Y-128377599D01*
X118756521Y-128392351D01*
X118705117Y-128516145D01*
X118705034Y-128611654D01*
X117840000Y-128611654D01*
X117701034Y-128637802D01*
X117573401Y-128719931D01*
X117487777Y-128845246D01*
X117457654Y-128994000D01*
X117457654Y-130363174D01*
X117036832Y-130783996D01*
X116167199Y-130783996D01*
X116215000Y-130668592D01*
X116215000Y-129892750D01*
X116121250Y-129799000D01*
X114845000Y-129799000D01*
X114845000Y-129819000D01*
X114835000Y-129819000D01*
X114835000Y-129799000D01*
X113558750Y-129799000D01*
X113465000Y-129892750D01*
X113465000Y-130668592D01*
X113522090Y-130806421D01*
X113627580Y-130911910D01*
X113765408Y-130969000D01*
X114617364Y-130969000D01*
X113649184Y-131937180D01*
X113649181Y-131937182D01*
X112860412Y-132725952D01*
X112735767Y-132912495D01*
X112691998Y-133132538D01*
X109950000Y-133132538D01*
X109950000Y-128919408D01*
X113465000Y-128919408D01*
X113465000Y-129695250D01*
X113558750Y-129789000D01*
X114835000Y-129789000D01*
X114835000Y-128712750D01*
X114845000Y-128712750D01*
X114845000Y-129789000D01*
X116121250Y-129789000D01*
X116215000Y-129695250D01*
X116215000Y-128919408D01*
X116157910Y-128781579D01*
X116052420Y-128676090D01*
X115914592Y-128619000D01*
X114938750Y-128619000D01*
X114845000Y-128712750D01*
X114835000Y-128712750D01*
X114741250Y-128619000D01*
X113765408Y-128619000D01*
X113627580Y-128676090D01*
X113522090Y-128781579D01*
X113465000Y-128919408D01*
X109950000Y-128919408D01*
X109950000Y-124959750D01*
X118634000Y-124959750D01*
X118634000Y-125685592D01*
X118691090Y-125823420D01*
X118796579Y-125928910D01*
X118934408Y-125986000D01*
X119535250Y-125986000D01*
X119629000Y-125892250D01*
X119629000Y-124866000D01*
X119639000Y-124866000D01*
X119639000Y-125892250D01*
X119732750Y-125986000D01*
X120333592Y-125986000D01*
X120471421Y-125928910D01*
X120576910Y-125823420D01*
X120634000Y-125685592D01*
X120634000Y-124959750D01*
X120540250Y-124866000D01*
X119639000Y-124866000D01*
X119629000Y-124866000D01*
X118727750Y-124866000D01*
X118634000Y-124959750D01*
X109950000Y-124959750D01*
X109950000Y-117481677D01*
X116799883Y-117481677D01*
X116902429Y-117729857D01*
X116975000Y-117802555D01*
X116975000Y-118237000D01*
X117005721Y-118391446D01*
X117013060Y-118428342D01*
X117121447Y-118590553D01*
X117629446Y-119098553D01*
X117738382Y-119171342D01*
X117791658Y-119206940D01*
X117983000Y-119245000D01*
X120569894Y-119245000D01*
X121005000Y-119680107D01*
X121005000Y-119934815D01*
X120952777Y-120011246D01*
X120922654Y-120160000D01*
X120922654Y-120614601D01*
X120911855Y-120610117D01*
X120643323Y-120609883D01*
X120395143Y-120712429D01*
X120205097Y-120902144D01*
X120102117Y-121150145D01*
X120101883Y-121418677D01*
X120204429Y-121666857D01*
X120277000Y-121739555D01*
X120277000Y-122682000D01*
X120312872Y-122862341D01*
X120315060Y-122873342D01*
X120408379Y-123013002D01*
X119910109Y-123013002D01*
X118150028Y-121252922D01*
X118150117Y-121151323D01*
X118047571Y-120903143D01*
X117857856Y-120713097D01*
X117609855Y-120610117D01*
X117341323Y-120609883D01*
X117093143Y-120712429D01*
X116903097Y-120902144D01*
X116800117Y-121150145D01*
X116799883Y-121418677D01*
X116902429Y-121666857D01*
X117092144Y-121856903D01*
X117340145Y-121959883D01*
X117442866Y-121959973D01*
X119218893Y-123736000D01*
X118934408Y-123736000D01*
X118796579Y-123793090D01*
X118691090Y-123898580D01*
X118634000Y-124036408D01*
X118634000Y-124762250D01*
X118727750Y-124856000D01*
X119629000Y-124856000D01*
X119629000Y-124836000D01*
X119639000Y-124836000D01*
X119639000Y-124856000D01*
X120540250Y-124856000D01*
X120634000Y-124762250D01*
X120634000Y-124036408D01*
X120624305Y-124013002D01*
X123374998Y-124013002D01*
X123566340Y-123974942D01*
X123728551Y-123866555D01*
X124336280Y-123258827D01*
X124458144Y-123380903D01*
X124706145Y-123483883D01*
X124974677Y-123484117D01*
X125222857Y-123381571D01*
X125412903Y-123191856D01*
X125515883Y-122943855D01*
X125516117Y-122675323D01*
X125461172Y-122542346D01*
X125605000Y-122542346D01*
X125734589Y-122517962D01*
X125855000Y-122542346D01*
X126255000Y-122542346D01*
X126384589Y-122517962D01*
X126505000Y-122542346D01*
X126905000Y-122542346D01*
X127034589Y-122517962D01*
X127155000Y-122542346D01*
X127555000Y-122542346D01*
X127684589Y-122517962D01*
X127805000Y-122542346D01*
X128155000Y-122542346D01*
X128155000Y-122676198D01*
X128103117Y-122801145D01*
X128102883Y-123069677D01*
X128205429Y-123317857D01*
X128395144Y-123507903D01*
X128643145Y-123610883D01*
X128911677Y-123611117D01*
X129093473Y-123536000D01*
X133079654Y-123536000D01*
X133079654Y-125036000D01*
X133105802Y-125174966D01*
X133187931Y-125302599D01*
X133313246Y-125388223D01*
X133462000Y-125418346D01*
X134762000Y-125418346D01*
X134900966Y-125392198D01*
X135028599Y-125310069D01*
X135114223Y-125184754D01*
X135127400Y-125119683D01*
X135137802Y-125174966D01*
X135219931Y-125302599D01*
X135345246Y-125388223D01*
X135494000Y-125418346D01*
X136794000Y-125418346D01*
X136932966Y-125392198D01*
X137060599Y-125310069D01*
X137146223Y-125184754D01*
X137176346Y-125036000D01*
X137176346Y-124469325D01*
X137229931Y-124552599D01*
X137355246Y-124638223D01*
X137504000Y-124668346D01*
X139404000Y-124668346D01*
X139542966Y-124642198D01*
X139670599Y-124560069D01*
X139756223Y-124434754D01*
X139786346Y-124286000D01*
X139786346Y-123486000D01*
X139760198Y-123347034D01*
X139678069Y-123219401D01*
X139552754Y-123133777D01*
X139404000Y-123103654D01*
X137504000Y-123103654D01*
X137365034Y-123129802D01*
X137237401Y-123211931D01*
X137151777Y-123337246D01*
X137142190Y-123384589D01*
X137068069Y-123269401D01*
X136942754Y-123183777D01*
X136794000Y-123153654D01*
X135494000Y-123153654D01*
X135355034Y-123179802D01*
X135227401Y-123261931D01*
X135141777Y-123387246D01*
X135128600Y-123452317D01*
X135118198Y-123397034D01*
X135036069Y-123269401D01*
X134910754Y-123183777D01*
X134762000Y-123153654D01*
X133462000Y-123153654D01*
X133323034Y-123179802D01*
X133195401Y-123261931D01*
X133109777Y-123387246D01*
X133079654Y-123536000D01*
X129093473Y-123536000D01*
X129159857Y-123508571D01*
X129349903Y-123318856D01*
X129452883Y-123070855D01*
X129453117Y-122802323D01*
X129350571Y-122554143D01*
X129338795Y-122542346D01*
X129505000Y-122542346D01*
X129637811Y-122517356D01*
X129680408Y-122535000D01*
X129856250Y-122535000D01*
X129950000Y-122441250D01*
X129950000Y-121165000D01*
X129960000Y-121165000D01*
X129960000Y-122441250D01*
X130053750Y-122535000D01*
X130229592Y-122535000D01*
X130367421Y-122477910D01*
X130472910Y-122372420D01*
X130530000Y-122234592D01*
X130530000Y-121258750D01*
X130436250Y-121165000D01*
X129960000Y-121165000D01*
X129950000Y-121165000D01*
X129930000Y-121165000D01*
X129930000Y-121155000D01*
X129950000Y-121155000D01*
X129950000Y-121135000D01*
X129960000Y-121135000D01*
X129960000Y-121155000D01*
X130436250Y-121155000D01*
X130530000Y-121061250D01*
X130530000Y-120085408D01*
X130472910Y-119947580D01*
X130405331Y-119880000D01*
X131698894Y-119880000D01*
X133079654Y-121260760D01*
X133079654Y-122336000D01*
X133105802Y-122474966D01*
X133187931Y-122602599D01*
X133313246Y-122688223D01*
X133462000Y-122718346D01*
X134762000Y-122718346D01*
X134900966Y-122692198D01*
X135028599Y-122610069D01*
X135114223Y-122484754D01*
X135125878Y-122427198D01*
X135176090Y-122548420D01*
X135281579Y-122653910D01*
X135419408Y-122711000D01*
X136045250Y-122711000D01*
X136139000Y-122617250D01*
X136139000Y-121591000D01*
X136119000Y-121591000D01*
X136119000Y-121581000D01*
X136139000Y-121581000D01*
X136139000Y-120554750D01*
X136149000Y-120554750D01*
X136149000Y-121581000D01*
X136169000Y-121581000D01*
X136169000Y-121591000D01*
X136149000Y-121591000D01*
X136149000Y-122617250D01*
X136242750Y-122711000D01*
X136868592Y-122711000D01*
X137006421Y-122653910D01*
X137111910Y-122548420D01*
X137138645Y-122483877D01*
X137186090Y-122598421D01*
X137291580Y-122703910D01*
X137429408Y-122761000D01*
X138355250Y-122761000D01*
X138449000Y-122667250D01*
X138449000Y-121991000D01*
X138459000Y-121991000D01*
X138459000Y-122667250D01*
X138552750Y-122761000D01*
X139478592Y-122761000D01*
X139616420Y-122703910D01*
X139721910Y-122598421D01*
X139747765Y-122536000D01*
X140070674Y-122536000D01*
X140070674Y-123336000D01*
X140100309Y-123493496D01*
X140193389Y-123638146D01*
X140335412Y-123735186D01*
X140504000Y-123769326D01*
X142404000Y-123769326D01*
X142561496Y-123739691D01*
X142617155Y-123703875D01*
X142659233Y-123766850D01*
X143040430Y-124021558D01*
X143490083Y-124111000D01*
X144045917Y-124111000D01*
X144495570Y-124021558D01*
X144876767Y-123766850D01*
X145131475Y-123385653D01*
X145220917Y-122936000D01*
X145131475Y-122486347D01*
X144876767Y-122105150D01*
X144495570Y-121850442D01*
X144045917Y-121761000D01*
X143490083Y-121761000D01*
X143040430Y-121850442D01*
X142659233Y-122105150D01*
X142617549Y-122167534D01*
X142572588Y-122136814D01*
X142404000Y-122102674D01*
X140504000Y-122102674D01*
X140346504Y-122132309D01*
X140201854Y-122225389D01*
X140104814Y-122367412D01*
X140070674Y-122536000D01*
X139747765Y-122536000D01*
X139779000Y-122460592D01*
X139779000Y-122084750D01*
X139685250Y-121991000D01*
X138459000Y-121991000D01*
X138449000Y-121991000D01*
X138429000Y-121991000D01*
X138429000Y-121981000D01*
X138449000Y-121981000D01*
X138449000Y-121304750D01*
X138459000Y-121304750D01*
X138459000Y-121981000D01*
X139685250Y-121981000D01*
X139779000Y-121887250D01*
X139779000Y-121511408D01*
X139721910Y-121373579D01*
X139616420Y-121268090D01*
X139478592Y-121211000D01*
X138552750Y-121211000D01*
X138459000Y-121304750D01*
X138449000Y-121304750D01*
X138355250Y-121211000D01*
X137429408Y-121211000D01*
X137291580Y-121268090D01*
X137186090Y-121373579D01*
X137169000Y-121414838D01*
X137169000Y-120761408D01*
X137111910Y-120623580D01*
X137006421Y-120518090D01*
X136868592Y-120461000D01*
X136242750Y-120461000D01*
X136149000Y-120554750D01*
X136139000Y-120554750D01*
X136045250Y-120461000D01*
X135419408Y-120461000D01*
X135281579Y-120518090D01*
X135176090Y-120623580D01*
X135126778Y-120742631D01*
X135118198Y-120697034D01*
X135036069Y-120569401D01*
X134910754Y-120483777D01*
X134762000Y-120453654D01*
X133686760Y-120453654D01*
X133629106Y-120396000D01*
X142315083Y-120396000D01*
X142404525Y-120845653D01*
X142659233Y-121226850D01*
X143040430Y-121481558D01*
X143490083Y-121571000D01*
X144045917Y-121571000D01*
X144495570Y-121481558D01*
X144876767Y-121226850D01*
X145131475Y-120845653D01*
X145220917Y-120396000D01*
X145131475Y-119946347D01*
X144876767Y-119565150D01*
X144495570Y-119310442D01*
X144045917Y-119221000D01*
X143490083Y-119221000D01*
X143040430Y-119310442D01*
X142659233Y-119565150D01*
X142404525Y-119946347D01*
X142315083Y-120396000D01*
X133629106Y-120396000D01*
X133571452Y-120338346D01*
X134762000Y-120338346D01*
X134900966Y-120312198D01*
X135028599Y-120230069D01*
X135114223Y-120104754D01*
X135127400Y-120039683D01*
X135137802Y-120094966D01*
X135219931Y-120222599D01*
X135345246Y-120308223D01*
X135494000Y-120338346D01*
X136794000Y-120338346D01*
X136932966Y-120312198D01*
X137060599Y-120230069D01*
X137146223Y-120104754D01*
X137176346Y-119956000D01*
X137176346Y-119389325D01*
X137229931Y-119472599D01*
X137355246Y-119558223D01*
X137504000Y-119588346D01*
X139404000Y-119588346D01*
X139542966Y-119562198D01*
X139670599Y-119480069D01*
X139756223Y-119354754D01*
X139786346Y-119206000D01*
X139786346Y-118406000D01*
X139760198Y-118267034D01*
X139678069Y-118139401D01*
X139552754Y-118053777D01*
X139404000Y-118023654D01*
X137504000Y-118023654D01*
X137365034Y-118049802D01*
X137237401Y-118131931D01*
X137151777Y-118257246D01*
X137142190Y-118304589D01*
X137068069Y-118189401D01*
X136942754Y-118103777D01*
X136794000Y-118073654D01*
X135494000Y-118073654D01*
X135355034Y-118099802D01*
X135227401Y-118181931D01*
X135141777Y-118307246D01*
X135128600Y-118372317D01*
X135118198Y-118317034D01*
X135036069Y-118189401D01*
X134910754Y-118103777D01*
X134762000Y-118073654D01*
X133462000Y-118073654D01*
X133323034Y-118099802D01*
X133195401Y-118181931D01*
X133109777Y-118307246D01*
X133079654Y-118456000D01*
X133079654Y-119846548D01*
X132259553Y-119026447D01*
X132097342Y-118918060D01*
X131906000Y-118880000D01*
X129540000Y-118880000D01*
X129348658Y-118918060D01*
X129186446Y-119026447D01*
X128951447Y-119261447D01*
X128843060Y-119423658D01*
X128805000Y-119615000D01*
X128805000Y-119777654D01*
X128505000Y-119777654D01*
X128505000Y-117566106D01*
X129065107Y-117006000D01*
X133079654Y-117006000D01*
X133079654Y-117256000D01*
X133105802Y-117394966D01*
X133187931Y-117522599D01*
X133313246Y-117608223D01*
X133462000Y-117638346D01*
X134762000Y-117638346D01*
X134900966Y-117612198D01*
X135028599Y-117530069D01*
X135114223Y-117404754D01*
X135125878Y-117347198D01*
X135176090Y-117468420D01*
X135281579Y-117573910D01*
X135419408Y-117631000D01*
X136045250Y-117631000D01*
X136139000Y-117537250D01*
X136139000Y-116511000D01*
X136119000Y-116511000D01*
X136119000Y-116501000D01*
X136139000Y-116501000D01*
X136139000Y-115474750D01*
X136149000Y-115474750D01*
X136149000Y-116501000D01*
X136169000Y-116501000D01*
X136169000Y-116511000D01*
X136149000Y-116511000D01*
X136149000Y-117537250D01*
X136242750Y-117631000D01*
X136868592Y-117631000D01*
X137006421Y-117573910D01*
X137111910Y-117468420D01*
X137138645Y-117403877D01*
X137186090Y-117518421D01*
X137291580Y-117623910D01*
X137429408Y-117681000D01*
X138355250Y-117681000D01*
X138449000Y-117587250D01*
X138449000Y-116911000D01*
X138459000Y-116911000D01*
X138459000Y-117587250D01*
X138552750Y-117681000D01*
X139478592Y-117681000D01*
X139616420Y-117623910D01*
X139721910Y-117518421D01*
X139747765Y-117456000D01*
X140070674Y-117456000D01*
X140070674Y-118256000D01*
X140100309Y-118413496D01*
X140193389Y-118558146D01*
X140335412Y-118655186D01*
X140504000Y-118689326D01*
X142404000Y-118689326D01*
X142561496Y-118659691D01*
X142617155Y-118623875D01*
X142659233Y-118686850D01*
X143040430Y-118941558D01*
X143490083Y-119031000D01*
X144045917Y-119031000D01*
X144495570Y-118941558D01*
X144876767Y-118686850D01*
X145131475Y-118305653D01*
X145220917Y-117856000D01*
X145131475Y-117406347D01*
X144876767Y-117025150D01*
X144495570Y-116770442D01*
X144045917Y-116681000D01*
X143490083Y-116681000D01*
X143040430Y-116770442D01*
X142659233Y-117025150D01*
X142617549Y-117087534D01*
X142572588Y-117056814D01*
X142404000Y-117022674D01*
X140504000Y-117022674D01*
X140346504Y-117052309D01*
X140201854Y-117145389D01*
X140104814Y-117287412D01*
X140070674Y-117456000D01*
X139747765Y-117456000D01*
X139779000Y-117380592D01*
X139779000Y-117004750D01*
X139685250Y-116911000D01*
X138459000Y-116911000D01*
X138449000Y-116911000D01*
X138429000Y-116911000D01*
X138429000Y-116901000D01*
X138449000Y-116901000D01*
X138449000Y-116224750D01*
X138459000Y-116224750D01*
X138459000Y-116901000D01*
X139685250Y-116901000D01*
X139779000Y-116807250D01*
X139779000Y-116431408D01*
X139721910Y-116293579D01*
X139616420Y-116188090D01*
X139478592Y-116131000D01*
X138552750Y-116131000D01*
X138459000Y-116224750D01*
X138449000Y-116224750D01*
X138355250Y-116131000D01*
X137429408Y-116131000D01*
X137291580Y-116188090D01*
X137186090Y-116293579D01*
X137169000Y-116334838D01*
X137169000Y-115681408D01*
X137111910Y-115543580D01*
X137006421Y-115438090D01*
X136868592Y-115381000D01*
X136242750Y-115381000D01*
X136149000Y-115474750D01*
X136139000Y-115474750D01*
X136045250Y-115381000D01*
X135419408Y-115381000D01*
X135281579Y-115438090D01*
X135176090Y-115543580D01*
X135126778Y-115662631D01*
X135118198Y-115617034D01*
X135036069Y-115489401D01*
X134910754Y-115403777D01*
X134762000Y-115373654D01*
X133462000Y-115373654D01*
X133323034Y-115399802D01*
X133195401Y-115481931D01*
X133109777Y-115607246D01*
X133079654Y-115756000D01*
X133079654Y-116006000D01*
X128858000Y-116006000D01*
X128666658Y-116044060D01*
X128504446Y-116152447D01*
X128115125Y-116541769D01*
X128080571Y-116458143D01*
X127890856Y-116268097D01*
X127642855Y-116165117D01*
X127374323Y-116164883D01*
X127205000Y-116234846D01*
X127205000Y-115316000D01*
X142315083Y-115316000D01*
X142404525Y-115765653D01*
X142659233Y-116146850D01*
X143040430Y-116401558D01*
X143490083Y-116491000D01*
X144045917Y-116491000D01*
X144495570Y-116401558D01*
X144876767Y-116146850D01*
X145131475Y-115765653D01*
X145220917Y-115316000D01*
X145131475Y-114866347D01*
X144876767Y-114485150D01*
X144495570Y-114230442D01*
X144045917Y-114141000D01*
X143490083Y-114141000D01*
X143040430Y-114230442D01*
X142659233Y-114485150D01*
X142404525Y-114866347D01*
X142315083Y-115316000D01*
X127205000Y-115316000D01*
X127205000Y-113376000D01*
X133079654Y-113376000D01*
X133079654Y-114876000D01*
X133105802Y-115014966D01*
X133187931Y-115142599D01*
X133313246Y-115228223D01*
X133462000Y-115258346D01*
X134762000Y-115258346D01*
X134900966Y-115232198D01*
X135028599Y-115150069D01*
X135114223Y-115024754D01*
X135127400Y-114959683D01*
X135137802Y-115014966D01*
X135219931Y-115142599D01*
X135345246Y-115228223D01*
X135494000Y-115258346D01*
X136794000Y-115258346D01*
X136932966Y-115232198D01*
X137060599Y-115150069D01*
X137146223Y-115024754D01*
X137176346Y-114876000D01*
X137176346Y-114309325D01*
X137229931Y-114392599D01*
X137355246Y-114478223D01*
X137504000Y-114508346D01*
X139404000Y-114508346D01*
X139542966Y-114482198D01*
X139670599Y-114400069D01*
X139756223Y-114274754D01*
X139786346Y-114126000D01*
X139786346Y-113326000D01*
X139760198Y-113187034D01*
X139678069Y-113059401D01*
X139552754Y-112973777D01*
X139404000Y-112943654D01*
X137504000Y-112943654D01*
X137365034Y-112969802D01*
X137237401Y-113051931D01*
X137151777Y-113177246D01*
X137142190Y-113224589D01*
X137068069Y-113109401D01*
X136942754Y-113023777D01*
X136794000Y-112993654D01*
X135494000Y-112993654D01*
X135355034Y-113019802D01*
X135227401Y-113101931D01*
X135141777Y-113227246D01*
X135128600Y-113292317D01*
X135118198Y-113237034D01*
X135036069Y-113109401D01*
X134910754Y-113023777D01*
X134762000Y-112993654D01*
X133462000Y-112993654D01*
X133323034Y-113019802D01*
X133195401Y-113101931D01*
X133109777Y-113227246D01*
X133079654Y-113376000D01*
X127205000Y-113376000D01*
X127205000Y-113024106D01*
X128303106Y-111926000D01*
X133079654Y-111926000D01*
X133079654Y-112176000D01*
X133105802Y-112314966D01*
X133187931Y-112442599D01*
X133313246Y-112528223D01*
X133462000Y-112558346D01*
X134762000Y-112558346D01*
X134900966Y-112532198D01*
X135028599Y-112450069D01*
X135114223Y-112324754D01*
X135125878Y-112267198D01*
X135176090Y-112388420D01*
X135281579Y-112493910D01*
X135419408Y-112551000D01*
X136045250Y-112551000D01*
X136139000Y-112457250D01*
X136139000Y-111431000D01*
X136119000Y-111431000D01*
X136119000Y-111421000D01*
X136139000Y-111421000D01*
X136139000Y-110394750D01*
X136149000Y-110394750D01*
X136149000Y-111421000D01*
X136169000Y-111421000D01*
X136169000Y-111431000D01*
X136149000Y-111431000D01*
X136149000Y-112457250D01*
X136242750Y-112551000D01*
X136868592Y-112551000D01*
X137006421Y-112493910D01*
X137111910Y-112388420D01*
X137138645Y-112323877D01*
X137186090Y-112438421D01*
X137291580Y-112543910D01*
X137429408Y-112601000D01*
X138355250Y-112601000D01*
X138449000Y-112507250D01*
X138449000Y-111831000D01*
X138459000Y-111831000D01*
X138459000Y-112507250D01*
X138552750Y-112601000D01*
X139478592Y-112601000D01*
X139616420Y-112543910D01*
X139721910Y-112438421D01*
X139747765Y-112376000D01*
X140070674Y-112376000D01*
X140070674Y-113176000D01*
X140100309Y-113333496D01*
X140193389Y-113478146D01*
X140335412Y-113575186D01*
X140504000Y-113609326D01*
X142404000Y-113609326D01*
X142561496Y-113579691D01*
X142617155Y-113543875D01*
X142659233Y-113606850D01*
X143040430Y-113861558D01*
X143490083Y-113951000D01*
X144045917Y-113951000D01*
X144495570Y-113861558D01*
X144876767Y-113606850D01*
X145131475Y-113225653D01*
X145220917Y-112776000D01*
X145131475Y-112326347D01*
X144876767Y-111945150D01*
X144495570Y-111690442D01*
X144045917Y-111601000D01*
X143490083Y-111601000D01*
X143040430Y-111690442D01*
X142659233Y-111945150D01*
X142617549Y-112007534D01*
X142572588Y-111976814D01*
X142404000Y-111942674D01*
X140504000Y-111942674D01*
X140346504Y-111972309D01*
X140201854Y-112065389D01*
X140104814Y-112207412D01*
X140070674Y-112376000D01*
X139747765Y-112376000D01*
X139779000Y-112300592D01*
X139779000Y-111924750D01*
X139685250Y-111831000D01*
X138459000Y-111831000D01*
X138449000Y-111831000D01*
X138429000Y-111831000D01*
X138429000Y-111821000D01*
X138449000Y-111821000D01*
X138449000Y-111144750D01*
X138459000Y-111144750D01*
X138459000Y-111821000D01*
X139685250Y-111821000D01*
X139779000Y-111727250D01*
X139779000Y-111351408D01*
X139721910Y-111213579D01*
X139616420Y-111108090D01*
X139478592Y-111051000D01*
X138552750Y-111051000D01*
X138459000Y-111144750D01*
X138449000Y-111144750D01*
X138355250Y-111051000D01*
X137429408Y-111051000D01*
X137291580Y-111108090D01*
X137186090Y-111213579D01*
X137169000Y-111254838D01*
X137169000Y-110601408D01*
X137111910Y-110463580D01*
X137006421Y-110358090D01*
X136868592Y-110301000D01*
X136242750Y-110301000D01*
X136149000Y-110394750D01*
X136139000Y-110394750D01*
X136045250Y-110301000D01*
X135419408Y-110301000D01*
X135281579Y-110358090D01*
X135176090Y-110463580D01*
X135126778Y-110582631D01*
X135118198Y-110537034D01*
X135036069Y-110409401D01*
X134910754Y-110323777D01*
X134762000Y-110293654D01*
X133462000Y-110293654D01*
X133323034Y-110319802D01*
X133195401Y-110401931D01*
X133109777Y-110527246D01*
X133079654Y-110676000D01*
X133079654Y-110926000D01*
X128096000Y-110926000D01*
X127904658Y-110964060D01*
X127742447Y-111072447D01*
X127099125Y-111715769D01*
X127064571Y-111632143D01*
X126874856Y-111442097D01*
X126626855Y-111339117D01*
X126358323Y-111338883D01*
X126110143Y-111441429D01*
X125920097Y-111631144D01*
X125905000Y-111667501D01*
X125905000Y-110236000D01*
X142315083Y-110236000D01*
X142404525Y-110685653D01*
X142659233Y-111066850D01*
X143040430Y-111321558D01*
X143490083Y-111411000D01*
X144045917Y-111411000D01*
X144495570Y-111321558D01*
X144876767Y-111066850D01*
X145131475Y-110685653D01*
X145220917Y-110236000D01*
X145131475Y-109786347D01*
X144876767Y-109405150D01*
X144495570Y-109150442D01*
X144045917Y-109061000D01*
X143490083Y-109061000D01*
X143040430Y-109150442D01*
X142659233Y-109405150D01*
X142404525Y-109786347D01*
X142315083Y-110236000D01*
X125905000Y-110236000D01*
X125905000Y-109244106D01*
X126853106Y-108296000D01*
X133079654Y-108296000D01*
X133079654Y-109796000D01*
X133105802Y-109934966D01*
X133187931Y-110062599D01*
X133313246Y-110148223D01*
X133462000Y-110178346D01*
X134762000Y-110178346D01*
X134900966Y-110152198D01*
X135028599Y-110070069D01*
X135114223Y-109944754D01*
X135127400Y-109879683D01*
X135137802Y-109934966D01*
X135219931Y-110062599D01*
X135345246Y-110148223D01*
X135494000Y-110178346D01*
X136794000Y-110178346D01*
X136932966Y-110152198D01*
X137060599Y-110070069D01*
X137146223Y-109944754D01*
X137176346Y-109796000D01*
X137176346Y-109229325D01*
X137229931Y-109312599D01*
X137355246Y-109398223D01*
X137504000Y-109428346D01*
X139404000Y-109428346D01*
X139542966Y-109402198D01*
X139670599Y-109320069D01*
X139756223Y-109194754D01*
X139786346Y-109046000D01*
X139786346Y-108246000D01*
X139760198Y-108107034D01*
X139678069Y-107979401D01*
X139552754Y-107893777D01*
X139404000Y-107863654D01*
X137504000Y-107863654D01*
X137365034Y-107889802D01*
X137237401Y-107971931D01*
X137151777Y-108097246D01*
X137142190Y-108144589D01*
X137068069Y-108029401D01*
X136942754Y-107943777D01*
X136794000Y-107913654D01*
X135494000Y-107913654D01*
X135355034Y-107939802D01*
X135227401Y-108021931D01*
X135141777Y-108147246D01*
X135128600Y-108212317D01*
X135118198Y-108157034D01*
X135036069Y-108029401D01*
X134910754Y-107943777D01*
X134762000Y-107913654D01*
X133462000Y-107913654D01*
X133323034Y-107939802D01*
X133195401Y-108021931D01*
X133109777Y-108147246D01*
X133079654Y-108296000D01*
X126853106Y-108296000D01*
X128303107Y-106846000D01*
X133079654Y-106846000D01*
X133079654Y-107096000D01*
X133105802Y-107234966D01*
X133187931Y-107362599D01*
X133313246Y-107448223D01*
X133462000Y-107478346D01*
X134762000Y-107478346D01*
X134900966Y-107452198D01*
X135028599Y-107370069D01*
X135114223Y-107244754D01*
X135125878Y-107187198D01*
X135176090Y-107308420D01*
X135281579Y-107413910D01*
X135419408Y-107471000D01*
X136045250Y-107471000D01*
X136139000Y-107377250D01*
X136139000Y-106351000D01*
X136119000Y-106351000D01*
X136119000Y-106341000D01*
X136139000Y-106341000D01*
X136139000Y-105314750D01*
X136149000Y-105314750D01*
X136149000Y-106341000D01*
X136169000Y-106341000D01*
X136169000Y-106351000D01*
X136149000Y-106351000D01*
X136149000Y-107377250D01*
X136242750Y-107471000D01*
X136868592Y-107471000D01*
X137006421Y-107413910D01*
X137111910Y-107308420D01*
X137138645Y-107243877D01*
X137186090Y-107358421D01*
X137291580Y-107463910D01*
X137429408Y-107521000D01*
X138355250Y-107521000D01*
X138449000Y-107427250D01*
X138449000Y-106751000D01*
X138459000Y-106751000D01*
X138459000Y-107427250D01*
X138552750Y-107521000D01*
X139478592Y-107521000D01*
X139616420Y-107463910D01*
X139721910Y-107358421D01*
X139747765Y-107296000D01*
X140070674Y-107296000D01*
X140070674Y-108096000D01*
X140100309Y-108253496D01*
X140193389Y-108398146D01*
X140335412Y-108495186D01*
X140504000Y-108529326D01*
X142404000Y-108529326D01*
X142561496Y-108499691D01*
X142617155Y-108463875D01*
X142659233Y-108526850D01*
X143040430Y-108781558D01*
X143490083Y-108871000D01*
X144045917Y-108871000D01*
X144495570Y-108781558D01*
X144876767Y-108526850D01*
X145131475Y-108145653D01*
X145220917Y-107696000D01*
X145131475Y-107246347D01*
X144876767Y-106865150D01*
X144495570Y-106610442D01*
X144045917Y-106521000D01*
X143490083Y-106521000D01*
X143040430Y-106610442D01*
X142659233Y-106865150D01*
X142617549Y-106927534D01*
X142572588Y-106896814D01*
X142404000Y-106862674D01*
X140504000Y-106862674D01*
X140346504Y-106892309D01*
X140201854Y-106985389D01*
X140104814Y-107127412D01*
X140070674Y-107296000D01*
X139747765Y-107296000D01*
X139779000Y-107220592D01*
X139779000Y-106844750D01*
X139685250Y-106751000D01*
X138459000Y-106751000D01*
X138449000Y-106751000D01*
X138429000Y-106751000D01*
X138429000Y-106741000D01*
X138449000Y-106741000D01*
X138449000Y-106064750D01*
X138459000Y-106064750D01*
X138459000Y-106741000D01*
X139685250Y-106741000D01*
X139779000Y-106647250D01*
X139779000Y-106271408D01*
X139721910Y-106133579D01*
X139616420Y-106028090D01*
X139478592Y-105971000D01*
X138552750Y-105971000D01*
X138459000Y-106064750D01*
X138449000Y-106064750D01*
X138355250Y-105971000D01*
X137429408Y-105971000D01*
X137291580Y-106028090D01*
X137186090Y-106133579D01*
X137169000Y-106174838D01*
X137169000Y-105521408D01*
X137111910Y-105383580D01*
X137006421Y-105278090D01*
X136868592Y-105221000D01*
X136242750Y-105221000D01*
X136149000Y-105314750D01*
X136139000Y-105314750D01*
X136045250Y-105221000D01*
X135419408Y-105221000D01*
X135281579Y-105278090D01*
X135176090Y-105383580D01*
X135126778Y-105502631D01*
X135118198Y-105457034D01*
X135036069Y-105329401D01*
X134910754Y-105243777D01*
X134762000Y-105213654D01*
X133462000Y-105213654D01*
X133323034Y-105239802D01*
X133195401Y-105321931D01*
X133109777Y-105447246D01*
X133079654Y-105596000D01*
X133079654Y-105846000D01*
X128096000Y-105846000D01*
X127904658Y-105884060D01*
X127871823Y-105906000D01*
X127742447Y-105992446D01*
X127167098Y-106567795D01*
X127167117Y-106546323D01*
X127064571Y-106298143D01*
X126874856Y-106108097D01*
X126626855Y-106005117D01*
X126358323Y-106004883D01*
X126110143Y-106107429D01*
X125920097Y-106297144D01*
X125817117Y-106545145D01*
X125817027Y-106647867D01*
X124401447Y-108063447D01*
X124293060Y-108225658D01*
X124255000Y-108417000D01*
X124255000Y-119777654D01*
X123905000Y-119777654D01*
X123775411Y-119802038D01*
X123655000Y-119777654D01*
X123305000Y-119777654D01*
X123305000Y-118321106D01*
X123603078Y-118023028D01*
X123704677Y-118023117D01*
X123952857Y-117920571D01*
X124142903Y-117730856D01*
X124245883Y-117482855D01*
X124246117Y-117214323D01*
X124143571Y-116966143D01*
X123953856Y-116776097D01*
X123705855Y-116673117D01*
X123437323Y-116672883D01*
X123189143Y-116775429D01*
X122999097Y-116965144D01*
X122896117Y-117213145D01*
X122896027Y-117315866D01*
X122451447Y-117760447D01*
X122343060Y-117922658D01*
X122305000Y-118114000D01*
X122305000Y-118422893D01*
X121198028Y-117315922D01*
X121198117Y-117214323D01*
X121095571Y-116966143D01*
X120905856Y-116776097D01*
X120657855Y-116673117D01*
X120389323Y-116672883D01*
X120141143Y-116775429D01*
X119951097Y-116965144D01*
X119848117Y-117213145D01*
X119847883Y-117481677D01*
X119950429Y-117729857D01*
X120140144Y-117919903D01*
X120388145Y-118022883D01*
X120490866Y-118022973D01*
X120712894Y-118245000D01*
X118190107Y-118245000D01*
X117975000Y-118029894D01*
X117975000Y-117802634D01*
X118046903Y-117730856D01*
X118149883Y-117482855D01*
X118150117Y-117214323D01*
X118047571Y-116966143D01*
X117857856Y-116776097D01*
X117609855Y-116673117D01*
X117341323Y-116672883D01*
X117093143Y-116775429D01*
X116903097Y-116965144D01*
X116800117Y-117213145D01*
X116799883Y-117481677D01*
X109950000Y-117481677D01*
X109950000Y-104132050D01*
X111520562Y-104132050D01*
X111904161Y-105060429D01*
X112613835Y-105771343D01*
X113541543Y-106156561D01*
X114546050Y-106157438D01*
X115474429Y-105773839D01*
X116185343Y-105064165D01*
X116458636Y-104406000D01*
X142334674Y-104406000D01*
X142334674Y-105906000D01*
X142364309Y-106063496D01*
X142457389Y-106208146D01*
X142599412Y-106305186D01*
X142768000Y-106339326D01*
X144768000Y-106339326D01*
X144925496Y-106309691D01*
X145070146Y-106216611D01*
X145167186Y-106074588D01*
X145201326Y-105906000D01*
X145201326Y-104406000D01*
X145171691Y-104248504D01*
X145078611Y-104103854D01*
X144936588Y-104006814D01*
X144768000Y-103972674D01*
X142768000Y-103972674D01*
X142610504Y-104002309D01*
X142465854Y-104095389D01*
X142368814Y-104237412D01*
X142334674Y-104406000D01*
X116458636Y-104406000D01*
X116570561Y-104136457D01*
X116571438Y-103131950D01*
X116187839Y-102203571D01*
X115478165Y-101492657D01*
X114550457Y-101107439D01*
X113545950Y-101106562D01*
X112617571Y-101490161D01*
X111906657Y-102199835D01*
X111521439Y-103127543D01*
X111520562Y-104132050D01*
X109950000Y-104132050D01*
X109950000Y-101000000D01*
X120550000Y-101000000D01*
X120550000Y-103000000D01*
X120584254Y-103172208D01*
X120681802Y-103318198D01*
X120827792Y-103415746D01*
X121000000Y-103450000D01*
X127000000Y-103450000D01*
X127172208Y-103415746D01*
X127318198Y-103318198D01*
X127415746Y-103172208D01*
X127450000Y-103000000D01*
X127450000Y-101000000D01*
X127415746Y-100827792D01*
X127318198Y-100681802D01*
X127172208Y-100584254D01*
X127000000Y-100550000D01*
X121000000Y-100550000D01*
X120827792Y-100584254D01*
X120681802Y-100681802D01*
X120584254Y-100827792D01*
X120550000Y-101000000D01*
X109950000Y-101000000D01*
X109950000Y-99450000D01*
X150550000Y-99450000D01*
X150550000Y-148550000D01*
X150550000Y-148550000D01*
G37*
X150550000Y-148550000D02*
X144379967Y-148550000D01*
X144467653Y-148532558D01*
X144848850Y-148277850D01*
X147388850Y-145737851D01*
X147643558Y-145356653D01*
X147651207Y-145318198D01*
X147733000Y-144907000D01*
X147733000Y-144209639D01*
X147916767Y-144086850D01*
X148171475Y-143705653D01*
X148260917Y-143256000D01*
X148171475Y-142806347D01*
X147916767Y-142425150D01*
X147733000Y-142302361D01*
X147733000Y-141669639D01*
X147916767Y-141546850D01*
X148171475Y-141165653D01*
X148260917Y-140716000D01*
X148171475Y-140266347D01*
X147916767Y-139885150D01*
X147733000Y-139762361D01*
X147733000Y-139129639D01*
X147916767Y-139006850D01*
X148171475Y-138625653D01*
X148260917Y-138176000D01*
X148171475Y-137726347D01*
X147916767Y-137345150D01*
X147733000Y-137222361D01*
X147733000Y-136589639D01*
X147916767Y-136466850D01*
X148171475Y-136085653D01*
X148260917Y-135636000D01*
X148171475Y-135186347D01*
X147916767Y-134805150D01*
X147733000Y-134682361D01*
X147733000Y-134049639D01*
X147916767Y-133926850D01*
X148171475Y-133545653D01*
X148260917Y-133096000D01*
X148171475Y-132646347D01*
X147916767Y-132265150D01*
X147733000Y-132142361D01*
X147733000Y-131509639D01*
X147916767Y-131386850D01*
X148171475Y-131005653D01*
X148260917Y-130556000D01*
X148171475Y-130106347D01*
X147916767Y-129725150D01*
X147733000Y-129602361D01*
X147733000Y-128969639D01*
X147916767Y-128846850D01*
X148171475Y-128465653D01*
X148260917Y-128016000D01*
X148171475Y-127566347D01*
X147916767Y-127185150D01*
X147733000Y-127062361D01*
X147733000Y-126429639D01*
X147916767Y-126306850D01*
X148171475Y-125925653D01*
X148260917Y-125476000D01*
X148171475Y-125026347D01*
X147916767Y-124645150D01*
X147733000Y-124522361D01*
X147733000Y-123889639D01*
X147916767Y-123766850D01*
X148171475Y-123385653D01*
X148260917Y-122936000D01*
X148171475Y-122486347D01*
X147916767Y-122105150D01*
X147733000Y-121982361D01*
X147733000Y-121349639D01*
X147916767Y-121226850D01*
X148171475Y-120845653D01*
X148260917Y-120396000D01*
X148171475Y-119946347D01*
X147916767Y-119565150D01*
X147733000Y-119442361D01*
X147733000Y-118809639D01*
X147916767Y-118686850D01*
X148171475Y-118305653D01*
X148260917Y-117856000D01*
X148171475Y-117406347D01*
X147916767Y-117025150D01*
X147733000Y-116902361D01*
X147733000Y-116269639D01*
X147916767Y-116146850D01*
X148171475Y-115765653D01*
X148260917Y-115316000D01*
X148171475Y-114866347D01*
X147916767Y-114485150D01*
X147733000Y-114362361D01*
X147733000Y-113729639D01*
X147916767Y-113606850D01*
X148171475Y-113225653D01*
X148260917Y-112776000D01*
X148171475Y-112326347D01*
X147916767Y-111945150D01*
X147733000Y-111822361D01*
X147733000Y-111189639D01*
X147916767Y-111066850D01*
X148171475Y-110685653D01*
X148260917Y-110236000D01*
X148171475Y-109786347D01*
X147916767Y-109405150D01*
X147733000Y-109282361D01*
X147733000Y-108649639D01*
X147916767Y-108526850D01*
X148171475Y-108145653D01*
X148260917Y-107696000D01*
X148171475Y-107246347D01*
X147916767Y-106865150D01*
X147733000Y-106742361D01*
X147733000Y-106109639D01*
X147916767Y-105986850D01*
X148171475Y-105605653D01*
X148260917Y-105156000D01*
X148171475Y-104706347D01*
X147916767Y-104325150D01*
X147535570Y-104070442D01*
X147085917Y-103981000D01*
X146530083Y-103981000D01*
X146080430Y-104070442D01*
X145699233Y-104325150D01*
X145444525Y-104706347D01*
X145355083Y-105156000D01*
X145383000Y-105296348D01*
X145383000Y-107555652D01*
X145355083Y-107696000D01*
X145383000Y-107836348D01*
X145383000Y-110095652D01*
X145355083Y-110236000D01*
X145383000Y-110376348D01*
X145383000Y-112635652D01*
X145355083Y-112776000D01*
X145383000Y-112916348D01*
X145383000Y-115175652D01*
X145355083Y-115316000D01*
X145383000Y-115456348D01*
X145383000Y-117715652D01*
X145355083Y-117856000D01*
X145383000Y-117996348D01*
X145383000Y-120255652D01*
X145355083Y-120396000D01*
X145383000Y-120536348D01*
X145383000Y-122795652D01*
X145355083Y-122936000D01*
X145383000Y-123076348D01*
X145383000Y-125335652D01*
X145355083Y-125476000D01*
X145383000Y-125616348D01*
X145383000Y-127875652D01*
X145355083Y-128016000D01*
X145383000Y-128156348D01*
X145383000Y-130415652D01*
X145355083Y-130556000D01*
X145383000Y-130696348D01*
X145383000Y-132955652D01*
X145355083Y-133096000D01*
X145383000Y-133236348D01*
X145383000Y-135495652D01*
X145355083Y-135636000D01*
X145383000Y-135776348D01*
X145383000Y-138035652D01*
X145355083Y-138176000D01*
X145383000Y-138316348D01*
X145383000Y-140575652D01*
X145355083Y-140716000D01*
X145383000Y-140856348D01*
X145383000Y-143115652D01*
X145355083Y-143256000D01*
X145383000Y-143396348D01*
X145383000Y-144420299D01*
X143531300Y-146272000D01*
X131677701Y-146272000D01*
X129261701Y-143856000D01*
X133079654Y-143856000D01*
X133079654Y-145356000D01*
X133105802Y-145494966D01*
X133187931Y-145622599D01*
X133313246Y-145708223D01*
X133462000Y-145738346D01*
X134762000Y-145738346D01*
X134900966Y-145712198D01*
X135028599Y-145630069D01*
X135114223Y-145504754D01*
X135127400Y-145439683D01*
X135137802Y-145494966D01*
X135219931Y-145622599D01*
X135345246Y-145708223D01*
X135494000Y-145738346D01*
X136794000Y-145738346D01*
X136932966Y-145712198D01*
X137060599Y-145630069D01*
X137146223Y-145504754D01*
X137176346Y-145356000D01*
X137176346Y-144789325D01*
X137229931Y-144872599D01*
X137355246Y-144958223D01*
X137504000Y-144988346D01*
X139404000Y-144988346D01*
X139542966Y-144962198D01*
X139670599Y-144880069D01*
X139756223Y-144754754D01*
X139786346Y-144606000D01*
X139786346Y-143806000D01*
X139760198Y-143667034D01*
X139678069Y-143539401D01*
X139552754Y-143453777D01*
X139404000Y-143423654D01*
X137504000Y-143423654D01*
X137365034Y-143449802D01*
X137237401Y-143531931D01*
X137151777Y-143657246D01*
X137142190Y-143704589D01*
X137068069Y-143589401D01*
X136942754Y-143503777D01*
X136794000Y-143473654D01*
X135494000Y-143473654D01*
X135355034Y-143499802D01*
X135227401Y-143581931D01*
X135141777Y-143707246D01*
X135128600Y-143772317D01*
X135118198Y-143717034D01*
X135036069Y-143589401D01*
X134910754Y-143503777D01*
X134762000Y-143473654D01*
X133462000Y-143473654D01*
X133323034Y-143499802D01*
X133195401Y-143581931D01*
X133109777Y-143707246D01*
X133079654Y-143856000D01*
X129261701Y-143856000D01*
X128211850Y-142806150D01*
X127830653Y-142551442D01*
X127381000Y-142462000D01*
X125073701Y-142462000D01*
X123857000Y-141245300D01*
X123857000Y-137161000D01*
X124097000Y-137161000D01*
X124097000Y-137411000D01*
X124184549Y-137841138D01*
X124430040Y-138205030D01*
X124796100Y-138447277D01*
X125041075Y-138516356D01*
X125217000Y-138437238D01*
X125217000Y-137161000D01*
X125227000Y-137161000D01*
X125227000Y-138437238D01*
X125402925Y-138516356D01*
X125647900Y-138447277D01*
X126013960Y-138205030D01*
X126259451Y-137841138D01*
X126347000Y-137411000D01*
X126347000Y-137161000D01*
X125227000Y-137161000D01*
X125217000Y-137161000D01*
X124097000Y-137161000D01*
X123857000Y-137161000D01*
X123857000Y-136901000D01*
X124097000Y-136901000D01*
X124097000Y-137151000D01*
X125217000Y-137151000D01*
X125217000Y-135874762D01*
X125227000Y-135874762D01*
X125227000Y-137151000D01*
X126347000Y-137151000D01*
X126347000Y-136901000D01*
X126259451Y-136470862D01*
X126013960Y-136106970D01*
X125647900Y-135864723D01*
X125402925Y-135795644D01*
X125227000Y-135874762D01*
X125217000Y-135874762D01*
X125041075Y-135795644D01*
X124796100Y-135864723D01*
X124430040Y-136106970D01*
X124184549Y-136470862D01*
X124097000Y-136901000D01*
X123857000Y-136901000D01*
X123857000Y-134121000D01*
X124097000Y-134121000D01*
X124097000Y-134371000D01*
X124184549Y-134801138D01*
X124430040Y-135165030D01*
X124796100Y-135407277D01*
X125041075Y-135476356D01*
X125217000Y-135397238D01*
X125217000Y-134121000D01*
X125227000Y-134121000D01*
X125227000Y-135397238D01*
X125402925Y-135476356D01*
X125647900Y-135407277D01*
X126013960Y-135165030D01*
X126259451Y-134801138D01*
X126347000Y-134371000D01*
X126347000Y-134121000D01*
X125227000Y-134121000D01*
X125217000Y-134121000D01*
X124097000Y-134121000D01*
X123857000Y-134121000D01*
X123857000Y-133861000D01*
X124097000Y-133861000D01*
X124097000Y-134111000D01*
X125217000Y-134111000D01*
X125217000Y-132834762D01*
X125227000Y-132834762D01*
X125227000Y-134111000D01*
X126347000Y-134111000D01*
X126347000Y-133861000D01*
X126259451Y-133430862D01*
X126013960Y-133066970D01*
X125647900Y-132824723D01*
X125402925Y-132755644D01*
X125227000Y-132834762D01*
X125217000Y-132834762D01*
X125041075Y-132755644D01*
X124796100Y-132824723D01*
X124430040Y-133066970D01*
X124184549Y-133430862D01*
X124097000Y-133861000D01*
X123857000Y-133861000D01*
X123857000Y-133838083D01*
X123767558Y-133388430D01*
X123512850Y-133007233D01*
X123131653Y-132752525D01*
X122682000Y-132663083D01*
X122232347Y-132752525D01*
X121851150Y-133007233D01*
X121596442Y-133388430D01*
X121507000Y-133838083D01*
X121507000Y-141732000D01*
X121594212Y-142170442D01*
X121596442Y-142181653D01*
X121851150Y-142562850D01*
X123756150Y-144467851D01*
X123879095Y-144550000D01*
X121000000Y-144550000D01*
X120827792Y-144584254D01*
X120681802Y-144681802D01*
X120584254Y-144827792D01*
X120550000Y-145000000D01*
X120550000Y-147000000D01*
X120584254Y-147172208D01*
X120681802Y-147318198D01*
X120827792Y-147415746D01*
X121000000Y-147450000D01*
X127000000Y-147450000D01*
X127172208Y-147415746D01*
X127318198Y-147318198D01*
X127415746Y-147172208D01*
X127450000Y-147000000D01*
X127450000Y-145367700D01*
X130360150Y-148277851D01*
X130741347Y-148532558D01*
X130829033Y-148550000D01*
X109950000Y-148550000D01*
X109950000Y-145026050D01*
X111520562Y-145026050D01*
X111904161Y-145954429D01*
X112613835Y-146665343D01*
X113541543Y-147050561D01*
X114546050Y-147051438D01*
X115474429Y-146667839D01*
X116185343Y-145958165D01*
X116570561Y-145030457D01*
X116571438Y-144025950D01*
X116187839Y-143097571D01*
X115478165Y-142386657D01*
X114550457Y-142001439D01*
X113545950Y-142000562D01*
X112617571Y-142384161D01*
X111906657Y-143093835D01*
X111521439Y-144021543D01*
X111520562Y-145026050D01*
X109950000Y-145026050D01*
X109950000Y-133132538D01*
X112691998Y-133132538D01*
X112691998Y-135618998D01*
X112733440Y-135827341D01*
X112735767Y-135839041D01*
X112860412Y-136025584D01*
X113929654Y-137094827D01*
X113929654Y-138156000D01*
X113955802Y-138294966D01*
X114037931Y-138422599D01*
X114163246Y-138508223D01*
X114312000Y-138538346D01*
X115812000Y-138538346D01*
X115950966Y-138512198D01*
X116078599Y-138430069D01*
X116164223Y-138304754D01*
X116194346Y-138156000D01*
X116194346Y-136205452D01*
X116541864Y-136552970D01*
X116477000Y-136879062D01*
X116477000Y-137432938D01*
X116562636Y-137863457D01*
X116806505Y-138228433D01*
X117171481Y-138472302D01*
X117602000Y-138557938D01*
X118032519Y-138472302D01*
X118397495Y-138228433D01*
X118641364Y-137863457D01*
X118727000Y-137432938D01*
X118727000Y-136879062D01*
X119017000Y-136879062D01*
X119017000Y-137432938D01*
X119102636Y-137863457D01*
X119346505Y-138228433D01*
X119711481Y-138472302D01*
X120142000Y-138557938D01*
X120572519Y-138472302D01*
X120937495Y-138228433D01*
X121181364Y-137863457D01*
X121267000Y-137432938D01*
X121267000Y-136879062D01*
X121181364Y-136448543D01*
X120937495Y-136083567D01*
X120572519Y-135839698D01*
X120142000Y-135754062D01*
X119711481Y-135839698D01*
X119346505Y-136083567D01*
X119102636Y-136448543D01*
X119017000Y-136879062D01*
X118727000Y-136879062D01*
X118641364Y-136448543D01*
X118397495Y-136083567D01*
X118032519Y-135839698D01*
X117602000Y-135754062D01*
X117230971Y-135827865D01*
X116685553Y-135282447D01*
X116523342Y-135174060D01*
X116332000Y-135136000D01*
X115892530Y-135136000D01*
X116101364Y-134823457D01*
X116187000Y-134392938D01*
X116187000Y-133948106D01*
X116521932Y-133613174D01*
X116477000Y-133839062D01*
X116477000Y-134392938D01*
X116562636Y-134823457D01*
X116806505Y-135188433D01*
X117171481Y-135432302D01*
X117602000Y-135517938D01*
X118032519Y-135432302D01*
X118397495Y-135188433D01*
X118641364Y-134823457D01*
X118727000Y-134392938D01*
X118727000Y-133839062D01*
X118641364Y-133408543D01*
X118397495Y-133043567D01*
X118083856Y-132834000D01*
X119660144Y-132834000D01*
X119346505Y-133043567D01*
X119102636Y-133408543D01*
X119017000Y-133839062D01*
X119017000Y-134392938D01*
X119102636Y-134823457D01*
X119346505Y-135188433D01*
X119711481Y-135432302D01*
X120142000Y-135517938D01*
X120572519Y-135432302D01*
X120937495Y-135188433D01*
X121181364Y-134823457D01*
X121267000Y-134392938D01*
X121267000Y-133839062D01*
X121181364Y-133408543D01*
X120937495Y-133043567D01*
X120572519Y-132799698D01*
X120570484Y-132799293D01*
X120587342Y-132795940D01*
X120749553Y-132687553D01*
X123158553Y-130278554D01*
X123266940Y-130116342D01*
X123288467Y-130008117D01*
X123305000Y-129925000D01*
X123305000Y-129135000D01*
X123356250Y-129135000D01*
X123450000Y-129041250D01*
X123450000Y-127765000D01*
X123430000Y-127765000D01*
X123430000Y-127755000D01*
X123450000Y-127755000D01*
X123450000Y-126478750D01*
X123356250Y-126385000D01*
X123180408Y-126385000D01*
X123134723Y-126403923D01*
X123005000Y-126377654D01*
X122605000Y-126377654D01*
X122475411Y-126402038D01*
X122355000Y-126377654D01*
X122159155Y-126377654D01*
X122213883Y-126245855D01*
X122213884Y-126244677D01*
X123403883Y-126244677D01*
X123488729Y-126450021D01*
X123460000Y-126478750D01*
X123460000Y-127755000D01*
X123480000Y-127755000D01*
X123480000Y-127765000D01*
X123460000Y-127765000D01*
X123460000Y-129041250D01*
X123553750Y-129135000D01*
X123729592Y-129135000D01*
X123775277Y-129116077D01*
X123905000Y-129142346D01*
X124305000Y-129142346D01*
X124437811Y-129117356D01*
X124480408Y-129135000D01*
X124656250Y-129135000D01*
X124750000Y-129041250D01*
X124750000Y-127765000D01*
X124730000Y-127765000D01*
X124730000Y-127755000D01*
X124750000Y-127755000D01*
X124750000Y-126478750D01*
X124760000Y-126478750D01*
X124760000Y-127755000D01*
X124780000Y-127755000D01*
X124780000Y-127765000D01*
X124760000Y-127765000D01*
X124760000Y-129041250D01*
X124853750Y-129135000D01*
X124905000Y-129135000D01*
X124905000Y-130739000D01*
X124931921Y-130874341D01*
X124943060Y-130930342D01*
X125051447Y-131092553D01*
X128786000Y-134827107D01*
X128786000Y-138938000D01*
X128811075Y-139064060D01*
X128824060Y-139129342D01*
X128932447Y-139291553D01*
X131218446Y-141577553D01*
X131380658Y-141685940D01*
X131572000Y-141724000D01*
X133079654Y-141724000D01*
X133079654Y-142656000D01*
X133105802Y-142794966D01*
X133187931Y-142922599D01*
X133313246Y-143008223D01*
X133462000Y-143038346D01*
X134762000Y-143038346D01*
X134900966Y-143012198D01*
X135028599Y-142930069D01*
X135114223Y-142804754D01*
X135125878Y-142747198D01*
X135176090Y-142868420D01*
X135281579Y-142973910D01*
X135419408Y-143031000D01*
X136045250Y-143031000D01*
X136139000Y-142937250D01*
X136139000Y-141911000D01*
X136119000Y-141911000D01*
X136119000Y-141901000D01*
X136139000Y-141901000D01*
X136139000Y-140874750D01*
X136149000Y-140874750D01*
X136149000Y-141901000D01*
X136169000Y-141901000D01*
X136169000Y-141911000D01*
X136149000Y-141911000D01*
X136149000Y-142937250D01*
X136242750Y-143031000D01*
X136868592Y-143031000D01*
X137006421Y-142973910D01*
X137111910Y-142868420D01*
X137138645Y-142803877D01*
X137186090Y-142918421D01*
X137291580Y-143023910D01*
X137429408Y-143081000D01*
X138355250Y-143081000D01*
X138449000Y-142987250D01*
X138449000Y-142311000D01*
X138459000Y-142311000D01*
X138459000Y-142987250D01*
X138552750Y-143081000D01*
X139478592Y-143081000D01*
X139616420Y-143023910D01*
X139721910Y-142918421D01*
X139747765Y-142856000D01*
X140070674Y-142856000D01*
X140070674Y-143656000D01*
X140100309Y-143813496D01*
X140193389Y-143958146D01*
X140335412Y-144055186D01*
X140504000Y-144089326D01*
X142404000Y-144089326D01*
X142561496Y-144059691D01*
X142617155Y-144023875D01*
X142659233Y-144086850D01*
X143040430Y-144341558D01*
X143490083Y-144431000D01*
X144045917Y-144431000D01*
X144495570Y-144341558D01*
X144876767Y-144086850D01*
X145131475Y-143705653D01*
X145220917Y-143256000D01*
X145131475Y-142806347D01*
X144876767Y-142425150D01*
X144495570Y-142170442D01*
X144045917Y-142081000D01*
X143490083Y-142081000D01*
X143040430Y-142170442D01*
X142659233Y-142425150D01*
X142617549Y-142487534D01*
X142572588Y-142456814D01*
X142404000Y-142422674D01*
X140504000Y-142422674D01*
X140346504Y-142452309D01*
X140201854Y-142545389D01*
X140104814Y-142687412D01*
X140070674Y-142856000D01*
X139747765Y-142856000D01*
X139779000Y-142780592D01*
X139779000Y-142404750D01*
X139685250Y-142311000D01*
X138459000Y-142311000D01*
X138449000Y-142311000D01*
X138429000Y-142311000D01*
X138429000Y-142301000D01*
X138449000Y-142301000D01*
X138449000Y-141624750D01*
X138459000Y-141624750D01*
X138459000Y-142301000D01*
X139685250Y-142301000D01*
X139779000Y-142207250D01*
X139779000Y-141831408D01*
X139721910Y-141693579D01*
X139616420Y-141588090D01*
X139478592Y-141531000D01*
X138552750Y-141531000D01*
X138459000Y-141624750D01*
X138449000Y-141624750D01*
X138355250Y-141531000D01*
X137429408Y-141531000D01*
X137291580Y-141588090D01*
X137186090Y-141693579D01*
X137169000Y-141734838D01*
X137169000Y-141081408D01*
X137111910Y-140943580D01*
X137006421Y-140838090D01*
X136868592Y-140781000D01*
X136242750Y-140781000D01*
X136149000Y-140874750D01*
X136139000Y-140874750D01*
X136045250Y-140781000D01*
X135419408Y-140781000D01*
X135281579Y-140838090D01*
X135176090Y-140943580D01*
X135126778Y-141062631D01*
X135118198Y-141017034D01*
X135036069Y-140889401D01*
X134910754Y-140803777D01*
X134762000Y-140773654D01*
X133638693Y-140773654D01*
X133621342Y-140762060D01*
X133430000Y-140724000D01*
X131779107Y-140724000D01*
X131771107Y-140716000D01*
X142315083Y-140716000D01*
X142404525Y-141165653D01*
X142659233Y-141546850D01*
X143040430Y-141801558D01*
X143490083Y-141891000D01*
X144045917Y-141891000D01*
X144495570Y-141801558D01*
X144876767Y-141546850D01*
X145131475Y-141165653D01*
X145220917Y-140716000D01*
X145131475Y-140266347D01*
X144876767Y-139885150D01*
X144495570Y-139630442D01*
X144045917Y-139541000D01*
X143490083Y-139541000D01*
X143040430Y-139630442D01*
X142659233Y-139885150D01*
X142404525Y-140266347D01*
X142315083Y-140716000D01*
X131771107Y-140716000D01*
X130256363Y-139201257D01*
X130429857Y-139129571D01*
X130619903Y-138939856D01*
X130687942Y-138776000D01*
X133079654Y-138776000D01*
X133079654Y-140276000D01*
X133105802Y-140414966D01*
X133187931Y-140542599D01*
X133313246Y-140628223D01*
X133462000Y-140658346D01*
X134762000Y-140658346D01*
X134900966Y-140632198D01*
X135028599Y-140550069D01*
X135114223Y-140424754D01*
X135127400Y-140359683D01*
X135137802Y-140414966D01*
X135219931Y-140542599D01*
X135345246Y-140628223D01*
X135494000Y-140658346D01*
X136794000Y-140658346D01*
X136932966Y-140632198D01*
X137060599Y-140550069D01*
X137146223Y-140424754D01*
X137176346Y-140276000D01*
X137176346Y-139709325D01*
X137229931Y-139792599D01*
X137355246Y-139878223D01*
X137504000Y-139908346D01*
X139404000Y-139908346D01*
X139542966Y-139882198D01*
X139670599Y-139800069D01*
X139756223Y-139674754D01*
X139786346Y-139526000D01*
X139786346Y-138726000D01*
X139760198Y-138587034D01*
X139678069Y-138459401D01*
X139552754Y-138373777D01*
X139404000Y-138343654D01*
X137504000Y-138343654D01*
X137365034Y-138369802D01*
X137237401Y-138451931D01*
X137151777Y-138577246D01*
X137142190Y-138624589D01*
X137068069Y-138509401D01*
X136942754Y-138423777D01*
X136794000Y-138393654D01*
X135494000Y-138393654D01*
X135355034Y-138419802D01*
X135227401Y-138501931D01*
X135141777Y-138627246D01*
X135128600Y-138692317D01*
X135118198Y-138637034D01*
X135036069Y-138509401D01*
X134910754Y-138423777D01*
X134762000Y-138393654D01*
X133462000Y-138393654D01*
X133323034Y-138419802D01*
X133195401Y-138501931D01*
X133109777Y-138627246D01*
X133079654Y-138776000D01*
X130687942Y-138776000D01*
X130722883Y-138691855D01*
X130723117Y-138423323D01*
X130620571Y-138175143D01*
X130548000Y-138102445D01*
X130548000Y-134811106D01*
X132916447Y-137179553D01*
X133078658Y-137287940D01*
X133079654Y-137288138D01*
X133079654Y-137576000D01*
X133105802Y-137714966D01*
X133187931Y-137842599D01*
X133313246Y-137928223D01*
X133462000Y-137958346D01*
X134762000Y-137958346D01*
X134900966Y-137932198D01*
X135028599Y-137850069D01*
X135114223Y-137724754D01*
X135125878Y-137667198D01*
X135176090Y-137788420D01*
X135281579Y-137893910D01*
X135419408Y-137951000D01*
X136045250Y-137951000D01*
X136139000Y-137857250D01*
X136139000Y-136831000D01*
X136119000Y-136831000D01*
X136119000Y-136821000D01*
X136139000Y-136821000D01*
X136139000Y-135794750D01*
X136149000Y-135794750D01*
X136149000Y-136821000D01*
X136169000Y-136821000D01*
X136169000Y-136831000D01*
X136149000Y-136831000D01*
X136149000Y-137857250D01*
X136242750Y-137951000D01*
X136868592Y-137951000D01*
X137006421Y-137893910D01*
X137111910Y-137788420D01*
X137138645Y-137723877D01*
X137186090Y-137838421D01*
X137291580Y-137943910D01*
X137429408Y-138001000D01*
X138355250Y-138001000D01*
X138449000Y-137907250D01*
X138449000Y-137231000D01*
X138459000Y-137231000D01*
X138459000Y-137907250D01*
X138552750Y-138001000D01*
X139478592Y-138001000D01*
X139616420Y-137943910D01*
X139721910Y-137838421D01*
X139747765Y-137776000D01*
X140070674Y-137776000D01*
X140070674Y-138576000D01*
X140100309Y-138733496D01*
X140193389Y-138878146D01*
X140335412Y-138975186D01*
X140504000Y-139009326D01*
X142404000Y-139009326D01*
X142561496Y-138979691D01*
X142617155Y-138943875D01*
X142659233Y-139006850D01*
X143040430Y-139261558D01*
X143490083Y-139351000D01*
X144045917Y-139351000D01*
X144495570Y-139261558D01*
X144876767Y-139006850D01*
X145131475Y-138625653D01*
X145220917Y-138176000D01*
X145131475Y-137726347D01*
X144876767Y-137345150D01*
X144495570Y-137090442D01*
X144045917Y-137001000D01*
X143490083Y-137001000D01*
X143040430Y-137090442D01*
X142659233Y-137345150D01*
X142617549Y-137407534D01*
X142572588Y-137376814D01*
X142404000Y-137342674D01*
X140504000Y-137342674D01*
X140346504Y-137372309D01*
X140201854Y-137465389D01*
X140104814Y-137607412D01*
X140070674Y-137776000D01*
X139747765Y-137776000D01*
X139779000Y-137700592D01*
X139779000Y-137324750D01*
X139685250Y-137231000D01*
X138459000Y-137231000D01*
X138449000Y-137231000D01*
X138429000Y-137231000D01*
X138429000Y-137221000D01*
X138449000Y-137221000D01*
X138449000Y-136544750D01*
X138459000Y-136544750D01*
X138459000Y-137221000D01*
X139685250Y-137221000D01*
X139779000Y-137127250D01*
X139779000Y-136751408D01*
X139721910Y-136613579D01*
X139616420Y-136508090D01*
X139478592Y-136451000D01*
X138552750Y-136451000D01*
X138459000Y-136544750D01*
X138449000Y-136544750D01*
X138355250Y-136451000D01*
X137429408Y-136451000D01*
X137291580Y-136508090D01*
X137186090Y-136613579D01*
X137169000Y-136654838D01*
X137169000Y-136001408D01*
X137111910Y-135863580D01*
X137006421Y-135758090D01*
X136868592Y-135701000D01*
X136242750Y-135701000D01*
X136149000Y-135794750D01*
X136139000Y-135794750D01*
X136045250Y-135701000D01*
X135419408Y-135701000D01*
X135281579Y-135758090D01*
X135176090Y-135863580D01*
X135126778Y-135982631D01*
X135118198Y-135937034D01*
X135036069Y-135809401D01*
X134910754Y-135723777D01*
X134762000Y-135693654D01*
X133462000Y-135693654D01*
X133323034Y-135719802D01*
X133195401Y-135801931D01*
X133109777Y-135927246D01*
X133104485Y-135953379D01*
X132787106Y-135636000D01*
X142315083Y-135636000D01*
X142404525Y-136085653D01*
X142659233Y-136466850D01*
X143040430Y-136721558D01*
X143490083Y-136811000D01*
X144045917Y-136811000D01*
X144495570Y-136721558D01*
X144876767Y-136466850D01*
X145131475Y-136085653D01*
X145220917Y-135636000D01*
X145131475Y-135186347D01*
X144876767Y-134805150D01*
X144495570Y-134550442D01*
X144045917Y-134461000D01*
X143490083Y-134461000D01*
X143040430Y-134550442D01*
X142659233Y-134805150D01*
X142404525Y-135186347D01*
X142315083Y-135636000D01*
X132787106Y-135636000D01*
X130847106Y-133696000D01*
X133079654Y-133696000D01*
X133079654Y-135196000D01*
X133105802Y-135334966D01*
X133187931Y-135462599D01*
X133313246Y-135548223D01*
X133462000Y-135578346D01*
X134762000Y-135578346D01*
X134900966Y-135552198D01*
X135028599Y-135470069D01*
X135114223Y-135344754D01*
X135127400Y-135279683D01*
X135137802Y-135334966D01*
X135219931Y-135462599D01*
X135345246Y-135548223D01*
X135494000Y-135578346D01*
X136794000Y-135578346D01*
X136932966Y-135552198D01*
X137060599Y-135470069D01*
X137146223Y-135344754D01*
X137176346Y-135196000D01*
X137176346Y-134629325D01*
X137229931Y-134712599D01*
X137355246Y-134798223D01*
X137504000Y-134828346D01*
X139404000Y-134828346D01*
X139542966Y-134802198D01*
X139670599Y-134720069D01*
X139756223Y-134594754D01*
X139786346Y-134446000D01*
X139786346Y-133646000D01*
X139760198Y-133507034D01*
X139678069Y-133379401D01*
X139552754Y-133293777D01*
X139404000Y-133263654D01*
X137504000Y-133263654D01*
X137365034Y-133289802D01*
X137237401Y-133371931D01*
X137151777Y-133497246D01*
X137142190Y-133544589D01*
X137068069Y-133429401D01*
X136942754Y-133343777D01*
X136794000Y-133313654D01*
X135494000Y-133313654D01*
X135355034Y-133339802D01*
X135227401Y-133421931D01*
X135141777Y-133547246D01*
X135128600Y-133612317D01*
X135118198Y-133557034D01*
X135036069Y-133429401D01*
X134910754Y-133343777D01*
X134762000Y-133313654D01*
X133462000Y-133313654D01*
X133323034Y-133339802D01*
X133195401Y-133421931D01*
X133109777Y-133547246D01*
X133079654Y-133696000D01*
X130847106Y-133696000D01*
X130346231Y-133195125D01*
X130429857Y-133160571D01*
X130619903Y-132970856D01*
X130722883Y-132722855D01*
X130723117Y-132454323D01*
X130620571Y-132206143D01*
X130430856Y-132016097D01*
X130182855Y-131913117D01*
X130080133Y-131913027D01*
X129985106Y-131818000D01*
X133079654Y-131818000D01*
X133079654Y-132496000D01*
X133105802Y-132634966D01*
X133187931Y-132762599D01*
X133313246Y-132848223D01*
X133462000Y-132878346D01*
X134762000Y-132878346D01*
X134900966Y-132852198D01*
X135028599Y-132770069D01*
X135114223Y-132644754D01*
X135125878Y-132587198D01*
X135176090Y-132708420D01*
X135281579Y-132813910D01*
X135419408Y-132871000D01*
X136045250Y-132871000D01*
X136139000Y-132777250D01*
X136139000Y-131751000D01*
X136119000Y-131751000D01*
X136119000Y-131741000D01*
X136139000Y-131741000D01*
X136139000Y-130714750D01*
X136149000Y-130714750D01*
X136149000Y-131741000D01*
X136169000Y-131741000D01*
X136169000Y-131751000D01*
X136149000Y-131751000D01*
X136149000Y-132777250D01*
X136242750Y-132871000D01*
X136868592Y-132871000D01*
X137006421Y-132813910D01*
X137111910Y-132708420D01*
X137138645Y-132643877D01*
X137186090Y-132758421D01*
X137291580Y-132863910D01*
X137429408Y-132921000D01*
X138355250Y-132921000D01*
X138449000Y-132827250D01*
X138449000Y-132151000D01*
X138459000Y-132151000D01*
X138459000Y-132827250D01*
X138552750Y-132921000D01*
X139478592Y-132921000D01*
X139616420Y-132863910D01*
X139721910Y-132758421D01*
X139747765Y-132696000D01*
X140070674Y-132696000D01*
X140070674Y-133496000D01*
X140100309Y-133653496D01*
X140193389Y-133798146D01*
X140335412Y-133895186D01*
X140504000Y-133929326D01*
X142404000Y-133929326D01*
X142561496Y-133899691D01*
X142617155Y-133863875D01*
X142659233Y-133926850D01*
X143040430Y-134181558D01*
X143490083Y-134271000D01*
X144045917Y-134271000D01*
X144495570Y-134181558D01*
X144876767Y-133926850D01*
X145131475Y-133545653D01*
X145220917Y-133096000D01*
X145131475Y-132646347D01*
X144876767Y-132265150D01*
X144495570Y-132010442D01*
X144045917Y-131921000D01*
X143490083Y-131921000D01*
X143040430Y-132010442D01*
X142659233Y-132265150D01*
X142617549Y-132327534D01*
X142572588Y-132296814D01*
X142404000Y-132262674D01*
X140504000Y-132262674D01*
X140346504Y-132292309D01*
X140201854Y-132385389D01*
X140104814Y-132527412D01*
X140070674Y-132696000D01*
X139747765Y-132696000D01*
X139779000Y-132620592D01*
X139779000Y-132244750D01*
X139685250Y-132151000D01*
X138459000Y-132151000D01*
X138449000Y-132151000D01*
X138429000Y-132151000D01*
X138429000Y-132141000D01*
X138449000Y-132141000D01*
X138449000Y-131464750D01*
X138459000Y-131464750D01*
X138459000Y-132141000D01*
X139685250Y-132141000D01*
X139779000Y-132047250D01*
X139779000Y-131671408D01*
X139721910Y-131533579D01*
X139616420Y-131428090D01*
X139478592Y-131371000D01*
X138552750Y-131371000D01*
X138459000Y-131464750D01*
X138449000Y-131464750D01*
X138355250Y-131371000D01*
X137429408Y-131371000D01*
X137291580Y-131428090D01*
X137186090Y-131533579D01*
X137169000Y-131574838D01*
X137169000Y-130921408D01*
X137111910Y-130783580D01*
X137006421Y-130678090D01*
X136868592Y-130621000D01*
X136242750Y-130621000D01*
X136149000Y-130714750D01*
X136139000Y-130714750D01*
X136045250Y-130621000D01*
X135419408Y-130621000D01*
X135281579Y-130678090D01*
X135176090Y-130783580D01*
X135126778Y-130902631D01*
X135118198Y-130857034D01*
X135036069Y-130729401D01*
X134910754Y-130643777D01*
X134762000Y-130613654D01*
X133462000Y-130613654D01*
X133323034Y-130639802D01*
X133195401Y-130721931D01*
X133129760Y-130818000D01*
X130722823Y-130818000D01*
X130722883Y-130817855D01*
X130723111Y-130556000D01*
X142315083Y-130556000D01*
X142404525Y-131005653D01*
X142659233Y-131386850D01*
X143040430Y-131641558D01*
X143490083Y-131731000D01*
X144045917Y-131731000D01*
X144495570Y-131641558D01*
X144876767Y-131386850D01*
X145131475Y-131005653D01*
X145220917Y-130556000D01*
X145131475Y-130106347D01*
X144876767Y-129725150D01*
X144495570Y-129470442D01*
X144045917Y-129381000D01*
X143490083Y-129381000D01*
X143040430Y-129470442D01*
X142659233Y-129725150D01*
X142404525Y-130106347D01*
X142315083Y-130556000D01*
X130723111Y-130556000D01*
X130723117Y-130549323D01*
X130620571Y-130301143D01*
X130603924Y-130284467D01*
X130747342Y-130255940D01*
X130909553Y-130147553D01*
X132441106Y-128616000D01*
X133079654Y-128616000D01*
X133079654Y-130116000D01*
X133105802Y-130254966D01*
X133187931Y-130382599D01*
X133313246Y-130468223D01*
X133462000Y-130498346D01*
X134762000Y-130498346D01*
X134900966Y-130472198D01*
X135028599Y-130390069D01*
X135114223Y-130264754D01*
X135127400Y-130199683D01*
X135137802Y-130254966D01*
X135219931Y-130382599D01*
X135345246Y-130468223D01*
X135494000Y-130498346D01*
X136794000Y-130498346D01*
X136932966Y-130472198D01*
X137060599Y-130390069D01*
X137146223Y-130264754D01*
X137176346Y-130116000D01*
X137176346Y-129549325D01*
X137229931Y-129632599D01*
X137355246Y-129718223D01*
X137504000Y-129748346D01*
X139404000Y-129748346D01*
X139542966Y-129722198D01*
X139670599Y-129640069D01*
X139756223Y-129514754D01*
X139786346Y-129366000D01*
X139786346Y-128566000D01*
X139760198Y-128427034D01*
X139678069Y-128299401D01*
X139552754Y-128213777D01*
X139404000Y-128183654D01*
X137504000Y-128183654D01*
X137365034Y-128209802D01*
X137237401Y-128291931D01*
X137151777Y-128417246D01*
X137142190Y-128464589D01*
X137068069Y-128349401D01*
X136942754Y-128263777D01*
X136794000Y-128233654D01*
X135494000Y-128233654D01*
X135355034Y-128259802D01*
X135227401Y-128341931D01*
X135141777Y-128467246D01*
X135128600Y-128532317D01*
X135118198Y-128477034D01*
X135036069Y-128349401D01*
X134910754Y-128263777D01*
X134762000Y-128233654D01*
X133462000Y-128233654D01*
X133323034Y-128259802D01*
X133195401Y-128341931D01*
X133109777Y-128467246D01*
X133079654Y-128616000D01*
X132441106Y-128616000D01*
X133298772Y-127758334D01*
X133313246Y-127768223D01*
X133462000Y-127798346D01*
X134762000Y-127798346D01*
X134900966Y-127772198D01*
X135028599Y-127690069D01*
X135114223Y-127564754D01*
X135125878Y-127507198D01*
X135176090Y-127628420D01*
X135281579Y-127733910D01*
X135419408Y-127791000D01*
X136045250Y-127791000D01*
X136139000Y-127697250D01*
X136139000Y-126671000D01*
X136119000Y-126671000D01*
X136119000Y-126661000D01*
X136139000Y-126661000D01*
X136139000Y-125634750D01*
X136149000Y-125634750D01*
X136149000Y-126661000D01*
X136169000Y-126661000D01*
X136169000Y-126671000D01*
X136149000Y-126671000D01*
X136149000Y-127697250D01*
X136242750Y-127791000D01*
X136868592Y-127791000D01*
X137006421Y-127733910D01*
X137111910Y-127628420D01*
X137138645Y-127563877D01*
X137186090Y-127678421D01*
X137291580Y-127783910D01*
X137429408Y-127841000D01*
X138355250Y-127841000D01*
X138449000Y-127747250D01*
X138449000Y-127071000D01*
X138459000Y-127071000D01*
X138459000Y-127747250D01*
X138552750Y-127841000D01*
X139478592Y-127841000D01*
X139616420Y-127783910D01*
X139721910Y-127678421D01*
X139747765Y-127616000D01*
X140070674Y-127616000D01*
X140070674Y-128416000D01*
X140100309Y-128573496D01*
X140193389Y-128718146D01*
X140335412Y-128815186D01*
X140504000Y-128849326D01*
X142404000Y-128849326D01*
X142561496Y-128819691D01*
X142617155Y-128783875D01*
X142659233Y-128846850D01*
X143040430Y-129101558D01*
X143490083Y-129191000D01*
X144045917Y-129191000D01*
X144495570Y-129101558D01*
X144876767Y-128846850D01*
X145131475Y-128465653D01*
X145220917Y-128016000D01*
X145131475Y-127566347D01*
X144876767Y-127185150D01*
X144495570Y-126930442D01*
X144045917Y-126841000D01*
X143490083Y-126841000D01*
X143040430Y-126930442D01*
X142659233Y-127185150D01*
X142617549Y-127247534D01*
X142572588Y-127216814D01*
X142404000Y-127182674D01*
X140504000Y-127182674D01*
X140346504Y-127212309D01*
X140201854Y-127305389D01*
X140104814Y-127447412D01*
X140070674Y-127616000D01*
X139747765Y-127616000D01*
X139779000Y-127540592D01*
X139779000Y-127164750D01*
X139685250Y-127071000D01*
X138459000Y-127071000D01*
X138449000Y-127071000D01*
X138429000Y-127071000D01*
X138429000Y-127061000D01*
X138449000Y-127061000D01*
X138449000Y-126384750D01*
X138459000Y-126384750D01*
X138459000Y-127061000D01*
X139685250Y-127061000D01*
X139779000Y-126967250D01*
X139779000Y-126591408D01*
X139721910Y-126453579D01*
X139616420Y-126348090D01*
X139478592Y-126291000D01*
X138552750Y-126291000D01*
X138459000Y-126384750D01*
X138449000Y-126384750D01*
X138355250Y-126291000D01*
X137429408Y-126291000D01*
X137291580Y-126348090D01*
X137186090Y-126453579D01*
X137169000Y-126494838D01*
X137169000Y-125841408D01*
X137111910Y-125703580D01*
X137006421Y-125598090D01*
X136868592Y-125541000D01*
X136242750Y-125541000D01*
X136149000Y-125634750D01*
X136139000Y-125634750D01*
X136045250Y-125541000D01*
X135419408Y-125541000D01*
X135281579Y-125598090D01*
X135176090Y-125703580D01*
X135126778Y-125822631D01*
X135118198Y-125777034D01*
X135036069Y-125649401D01*
X134910754Y-125563777D01*
X134762000Y-125533654D01*
X133462000Y-125533654D01*
X133323034Y-125559802D01*
X133195401Y-125641931D01*
X133109777Y-125767246D01*
X133079654Y-125916000D01*
X133079654Y-126563240D01*
X130348894Y-129294000D01*
X130128107Y-129294000D01*
X129976453Y-129142346D01*
X130155000Y-129142346D01*
X130293966Y-129116198D01*
X130421599Y-129034069D01*
X130507223Y-128908754D01*
X130537346Y-128760000D01*
X130537346Y-126760000D01*
X130528359Y-126712240D01*
X130619903Y-126620856D01*
X130722883Y-126372855D01*
X130723117Y-126104323D01*
X130620571Y-125856143D01*
X130430856Y-125666097D01*
X130182855Y-125563117D01*
X129914323Y-125562883D01*
X129666143Y-125665429D01*
X129476097Y-125855144D01*
X129373117Y-126103145D01*
X129372883Y-126371677D01*
X129375353Y-126377654D01*
X129105000Y-126377654D01*
X128975411Y-126402038D01*
X128855000Y-126377654D01*
X128455000Y-126377654D01*
X128325411Y-126402038D01*
X128205000Y-126377654D01*
X127805000Y-126377654D01*
X127675411Y-126402038D01*
X127555000Y-126377654D01*
X127155000Y-126377654D01*
X127025411Y-126402038D01*
X126905000Y-126377654D01*
X126505000Y-126377654D01*
X126375411Y-126402038D01*
X126255000Y-126377654D01*
X125855000Y-126377654D01*
X125725411Y-126402038D01*
X125605000Y-126377654D01*
X125205000Y-126377654D01*
X125072189Y-126402644D01*
X125029592Y-126385000D01*
X124853750Y-126385000D01*
X124760000Y-126478750D01*
X124750000Y-126478750D01*
X124684411Y-126413161D01*
X124753883Y-126245855D01*
X124754117Y-125977323D01*
X124651571Y-125729143D01*
X124461856Y-125539097D01*
X124309904Y-125476000D01*
X142315083Y-125476000D01*
X142404525Y-125925653D01*
X142659233Y-126306850D01*
X143040430Y-126561558D01*
X143490083Y-126651000D01*
X144045917Y-126651000D01*
X144495570Y-126561558D01*
X144876767Y-126306850D01*
X145131475Y-125925653D01*
X145220917Y-125476000D01*
X145131475Y-125026347D01*
X144876767Y-124645150D01*
X144495570Y-124390442D01*
X144045917Y-124301000D01*
X143490083Y-124301000D01*
X143040430Y-124390442D01*
X142659233Y-124645150D01*
X142404525Y-125026347D01*
X142315083Y-125476000D01*
X124309904Y-125476000D01*
X124213855Y-125436117D01*
X123945323Y-125435883D01*
X123697143Y-125538429D01*
X123507097Y-125728144D01*
X123404117Y-125976145D01*
X123403883Y-126244677D01*
X122213884Y-126244677D01*
X122214117Y-125977323D01*
X122111571Y-125729143D01*
X121921856Y-125539097D01*
X121673855Y-125436117D01*
X121405323Y-125435883D01*
X121157143Y-125538429D01*
X120967097Y-125728144D01*
X120864117Y-125976145D01*
X120863883Y-126244677D01*
X120966429Y-126492857D01*
X121005000Y-126531495D01*
X121005000Y-126534815D01*
X120952777Y-126611246D01*
X120922654Y-126760000D01*
X120922654Y-126786000D01*
X120641346Y-126786000D01*
X120641346Y-126611000D01*
X120615198Y-126472034D01*
X120533069Y-126344401D01*
X120407754Y-126258777D01*
X120259000Y-126228654D01*
X119009000Y-126228654D01*
X118870034Y-126254802D01*
X118742401Y-126336931D01*
X118656777Y-126462246D01*
X118626654Y-126611000D01*
X118626654Y-128111000D01*
X118652802Y-128249966D01*
X118734931Y-128377599D01*
X118756521Y-128392351D01*
X118705117Y-128516145D01*
X118705034Y-128611654D01*
X117840000Y-128611654D01*
X117701034Y-128637802D01*
X117573401Y-128719931D01*
X117487777Y-128845246D01*
X117457654Y-128994000D01*
X117457654Y-130363174D01*
X117036832Y-130783996D01*
X116167199Y-130783996D01*
X116215000Y-130668592D01*
X116215000Y-129892750D01*
X116121250Y-129799000D01*
X114845000Y-129799000D01*
X114845000Y-129819000D01*
X114835000Y-129819000D01*
X114835000Y-129799000D01*
X113558750Y-129799000D01*
X113465000Y-129892750D01*
X113465000Y-130668592D01*
X113522090Y-130806421D01*
X113627580Y-130911910D01*
X113765408Y-130969000D01*
X114617364Y-130969000D01*
X113649184Y-131937180D01*
X113649181Y-131937182D01*
X112860412Y-132725952D01*
X112735767Y-132912495D01*
X112691998Y-133132538D01*
X109950000Y-133132538D01*
X109950000Y-128919408D01*
X113465000Y-128919408D01*
X113465000Y-129695250D01*
X113558750Y-129789000D01*
X114835000Y-129789000D01*
X114835000Y-128712750D01*
X114845000Y-128712750D01*
X114845000Y-129789000D01*
X116121250Y-129789000D01*
X116215000Y-129695250D01*
X116215000Y-128919408D01*
X116157910Y-128781579D01*
X116052420Y-128676090D01*
X115914592Y-128619000D01*
X114938750Y-128619000D01*
X114845000Y-128712750D01*
X114835000Y-128712750D01*
X114741250Y-128619000D01*
X113765408Y-128619000D01*
X113627580Y-128676090D01*
X113522090Y-128781579D01*
X113465000Y-128919408D01*
X109950000Y-128919408D01*
X109950000Y-124959750D01*
X118634000Y-124959750D01*
X118634000Y-125685592D01*
X118691090Y-125823420D01*
X118796579Y-125928910D01*
X118934408Y-125986000D01*
X119535250Y-125986000D01*
X119629000Y-125892250D01*
X119629000Y-124866000D01*
X119639000Y-124866000D01*
X119639000Y-125892250D01*
X119732750Y-125986000D01*
X120333592Y-125986000D01*
X120471421Y-125928910D01*
X120576910Y-125823420D01*
X120634000Y-125685592D01*
X120634000Y-124959750D01*
X120540250Y-124866000D01*
X119639000Y-124866000D01*
X119629000Y-124866000D01*
X118727750Y-124866000D01*
X118634000Y-124959750D01*
X109950000Y-124959750D01*
X109950000Y-117481677D01*
X116799883Y-117481677D01*
X116902429Y-117729857D01*
X116975000Y-117802555D01*
X116975000Y-118237000D01*
X117005721Y-118391446D01*
X117013060Y-118428342D01*
X117121447Y-118590553D01*
X117629446Y-119098553D01*
X117738382Y-119171342D01*
X117791658Y-119206940D01*
X117983000Y-119245000D01*
X120569894Y-119245000D01*
X121005000Y-119680107D01*
X121005000Y-119934815D01*
X120952777Y-120011246D01*
X120922654Y-120160000D01*
X120922654Y-120614601D01*
X120911855Y-120610117D01*
X120643323Y-120609883D01*
X120395143Y-120712429D01*
X120205097Y-120902144D01*
X120102117Y-121150145D01*
X120101883Y-121418677D01*
X120204429Y-121666857D01*
X120277000Y-121739555D01*
X120277000Y-122682000D01*
X120312872Y-122862341D01*
X120315060Y-122873342D01*
X120408379Y-123013002D01*
X119910109Y-123013002D01*
X118150028Y-121252922D01*
X118150117Y-121151323D01*
X118047571Y-120903143D01*
X117857856Y-120713097D01*
X117609855Y-120610117D01*
X117341323Y-120609883D01*
X117093143Y-120712429D01*
X116903097Y-120902144D01*
X116800117Y-121150145D01*
X116799883Y-121418677D01*
X116902429Y-121666857D01*
X117092144Y-121856903D01*
X117340145Y-121959883D01*
X117442866Y-121959973D01*
X119218893Y-123736000D01*
X118934408Y-123736000D01*
X118796579Y-123793090D01*
X118691090Y-123898580D01*
X118634000Y-124036408D01*
X118634000Y-124762250D01*
X118727750Y-124856000D01*
X119629000Y-124856000D01*
X119629000Y-124836000D01*
X119639000Y-124836000D01*
X119639000Y-124856000D01*
X120540250Y-124856000D01*
X120634000Y-124762250D01*
X120634000Y-124036408D01*
X120624305Y-124013002D01*
X123374998Y-124013002D01*
X123566340Y-123974942D01*
X123728551Y-123866555D01*
X124336280Y-123258827D01*
X124458144Y-123380903D01*
X124706145Y-123483883D01*
X124974677Y-123484117D01*
X125222857Y-123381571D01*
X125412903Y-123191856D01*
X125515883Y-122943855D01*
X125516117Y-122675323D01*
X125461172Y-122542346D01*
X125605000Y-122542346D01*
X125734589Y-122517962D01*
X125855000Y-122542346D01*
X126255000Y-122542346D01*
X126384589Y-122517962D01*
X126505000Y-122542346D01*
X126905000Y-122542346D01*
X127034589Y-122517962D01*
X127155000Y-122542346D01*
X127555000Y-122542346D01*
X127684589Y-122517962D01*
X127805000Y-122542346D01*
X128155000Y-122542346D01*
X128155000Y-122676198D01*
X128103117Y-122801145D01*
X128102883Y-123069677D01*
X128205429Y-123317857D01*
X128395144Y-123507903D01*
X128643145Y-123610883D01*
X128911677Y-123611117D01*
X129093473Y-123536000D01*
X133079654Y-123536000D01*
X133079654Y-125036000D01*
X133105802Y-125174966D01*
X133187931Y-125302599D01*
X133313246Y-125388223D01*
X133462000Y-125418346D01*
X134762000Y-125418346D01*
X134900966Y-125392198D01*
X135028599Y-125310069D01*
X135114223Y-125184754D01*
X135127400Y-125119683D01*
X135137802Y-125174966D01*
X135219931Y-125302599D01*
X135345246Y-125388223D01*
X135494000Y-125418346D01*
X136794000Y-125418346D01*
X136932966Y-125392198D01*
X137060599Y-125310069D01*
X137146223Y-125184754D01*
X137176346Y-125036000D01*
X137176346Y-124469325D01*
X137229931Y-124552599D01*
X137355246Y-124638223D01*
X137504000Y-124668346D01*
X139404000Y-124668346D01*
X139542966Y-124642198D01*
X139670599Y-124560069D01*
X139756223Y-124434754D01*
X139786346Y-124286000D01*
X139786346Y-123486000D01*
X139760198Y-123347034D01*
X139678069Y-123219401D01*
X139552754Y-123133777D01*
X139404000Y-123103654D01*
X137504000Y-123103654D01*
X137365034Y-123129802D01*
X137237401Y-123211931D01*
X137151777Y-123337246D01*
X137142190Y-123384589D01*
X137068069Y-123269401D01*
X136942754Y-123183777D01*
X136794000Y-123153654D01*
X135494000Y-123153654D01*
X135355034Y-123179802D01*
X135227401Y-123261931D01*
X135141777Y-123387246D01*
X135128600Y-123452317D01*
X135118198Y-123397034D01*
X135036069Y-123269401D01*
X134910754Y-123183777D01*
X134762000Y-123153654D01*
X133462000Y-123153654D01*
X133323034Y-123179802D01*
X133195401Y-123261931D01*
X133109777Y-123387246D01*
X133079654Y-123536000D01*
X129093473Y-123536000D01*
X129159857Y-123508571D01*
X129349903Y-123318856D01*
X129452883Y-123070855D01*
X129453117Y-122802323D01*
X129350571Y-122554143D01*
X129338795Y-122542346D01*
X129505000Y-122542346D01*
X129637811Y-122517356D01*
X129680408Y-122535000D01*
X129856250Y-122535000D01*
X129950000Y-122441250D01*
X129950000Y-121165000D01*
X129960000Y-121165000D01*
X129960000Y-122441250D01*
X130053750Y-122535000D01*
X130229592Y-122535000D01*
X130367421Y-122477910D01*
X130472910Y-122372420D01*
X130530000Y-122234592D01*
X130530000Y-121258750D01*
X130436250Y-121165000D01*
X129960000Y-121165000D01*
X129950000Y-121165000D01*
X129930000Y-121165000D01*
X129930000Y-121155000D01*
X129950000Y-121155000D01*
X129950000Y-121135000D01*
X129960000Y-121135000D01*
X129960000Y-121155000D01*
X130436250Y-121155000D01*
X130530000Y-121061250D01*
X130530000Y-120085408D01*
X130472910Y-119947580D01*
X130405331Y-119880000D01*
X131698894Y-119880000D01*
X133079654Y-121260760D01*
X133079654Y-122336000D01*
X133105802Y-122474966D01*
X133187931Y-122602599D01*
X133313246Y-122688223D01*
X133462000Y-122718346D01*
X134762000Y-122718346D01*
X134900966Y-122692198D01*
X135028599Y-122610069D01*
X135114223Y-122484754D01*
X135125878Y-122427198D01*
X135176090Y-122548420D01*
X135281579Y-122653910D01*
X135419408Y-122711000D01*
X136045250Y-122711000D01*
X136139000Y-122617250D01*
X136139000Y-121591000D01*
X136119000Y-121591000D01*
X136119000Y-121581000D01*
X136139000Y-121581000D01*
X136139000Y-120554750D01*
X136149000Y-120554750D01*
X136149000Y-121581000D01*
X136169000Y-121581000D01*
X136169000Y-121591000D01*
X136149000Y-121591000D01*
X136149000Y-122617250D01*
X136242750Y-122711000D01*
X136868592Y-122711000D01*
X137006421Y-122653910D01*
X137111910Y-122548420D01*
X137138645Y-122483877D01*
X137186090Y-122598421D01*
X137291580Y-122703910D01*
X137429408Y-122761000D01*
X138355250Y-122761000D01*
X138449000Y-122667250D01*
X138449000Y-121991000D01*
X138459000Y-121991000D01*
X138459000Y-122667250D01*
X138552750Y-122761000D01*
X139478592Y-122761000D01*
X139616420Y-122703910D01*
X139721910Y-122598421D01*
X139747765Y-122536000D01*
X140070674Y-122536000D01*
X140070674Y-123336000D01*
X140100309Y-123493496D01*
X140193389Y-123638146D01*
X140335412Y-123735186D01*
X140504000Y-123769326D01*
X142404000Y-123769326D01*
X142561496Y-123739691D01*
X142617155Y-123703875D01*
X142659233Y-123766850D01*
X143040430Y-124021558D01*
X143490083Y-124111000D01*
X144045917Y-124111000D01*
X144495570Y-124021558D01*
X144876767Y-123766850D01*
X145131475Y-123385653D01*
X145220917Y-122936000D01*
X145131475Y-122486347D01*
X144876767Y-122105150D01*
X144495570Y-121850442D01*
X144045917Y-121761000D01*
X143490083Y-121761000D01*
X143040430Y-121850442D01*
X142659233Y-122105150D01*
X142617549Y-122167534D01*
X142572588Y-122136814D01*
X142404000Y-122102674D01*
X140504000Y-122102674D01*
X140346504Y-122132309D01*
X140201854Y-122225389D01*
X140104814Y-122367412D01*
X140070674Y-122536000D01*
X139747765Y-122536000D01*
X139779000Y-122460592D01*
X139779000Y-122084750D01*
X139685250Y-121991000D01*
X138459000Y-121991000D01*
X138449000Y-121991000D01*
X138429000Y-121991000D01*
X138429000Y-121981000D01*
X138449000Y-121981000D01*
X138449000Y-121304750D01*
X138459000Y-121304750D01*
X138459000Y-121981000D01*
X139685250Y-121981000D01*
X139779000Y-121887250D01*
X139779000Y-121511408D01*
X139721910Y-121373579D01*
X139616420Y-121268090D01*
X139478592Y-121211000D01*
X138552750Y-121211000D01*
X138459000Y-121304750D01*
X138449000Y-121304750D01*
X138355250Y-121211000D01*
X137429408Y-121211000D01*
X137291580Y-121268090D01*
X137186090Y-121373579D01*
X137169000Y-121414838D01*
X137169000Y-120761408D01*
X137111910Y-120623580D01*
X137006421Y-120518090D01*
X136868592Y-120461000D01*
X136242750Y-120461000D01*
X136149000Y-120554750D01*
X136139000Y-120554750D01*
X136045250Y-120461000D01*
X135419408Y-120461000D01*
X135281579Y-120518090D01*
X135176090Y-120623580D01*
X135126778Y-120742631D01*
X135118198Y-120697034D01*
X135036069Y-120569401D01*
X134910754Y-120483777D01*
X134762000Y-120453654D01*
X133686760Y-120453654D01*
X133629106Y-120396000D01*
X142315083Y-120396000D01*
X142404525Y-120845653D01*
X142659233Y-121226850D01*
X143040430Y-121481558D01*
X143490083Y-121571000D01*
X144045917Y-121571000D01*
X144495570Y-121481558D01*
X144876767Y-121226850D01*
X145131475Y-120845653D01*
X145220917Y-120396000D01*
X145131475Y-119946347D01*
X144876767Y-119565150D01*
X144495570Y-119310442D01*
X144045917Y-119221000D01*
X143490083Y-119221000D01*
X143040430Y-119310442D01*
X142659233Y-119565150D01*
X142404525Y-119946347D01*
X142315083Y-120396000D01*
X133629106Y-120396000D01*
X133571452Y-120338346D01*
X134762000Y-120338346D01*
X134900966Y-120312198D01*
X135028599Y-120230069D01*
X135114223Y-120104754D01*
X135127400Y-120039683D01*
X135137802Y-120094966D01*
X135219931Y-120222599D01*
X135345246Y-120308223D01*
X135494000Y-120338346D01*
X136794000Y-120338346D01*
X136932966Y-120312198D01*
X137060599Y-120230069D01*
X137146223Y-120104754D01*
X137176346Y-119956000D01*
X137176346Y-119389325D01*
X137229931Y-119472599D01*
X137355246Y-119558223D01*
X137504000Y-119588346D01*
X139404000Y-119588346D01*
X139542966Y-119562198D01*
X139670599Y-119480069D01*
X139756223Y-119354754D01*
X139786346Y-119206000D01*
X139786346Y-118406000D01*
X139760198Y-118267034D01*
X139678069Y-118139401D01*
X139552754Y-118053777D01*
X139404000Y-118023654D01*
X137504000Y-118023654D01*
X137365034Y-118049802D01*
X137237401Y-118131931D01*
X137151777Y-118257246D01*
X137142190Y-118304589D01*
X137068069Y-118189401D01*
X136942754Y-118103777D01*
X136794000Y-118073654D01*
X135494000Y-118073654D01*
X135355034Y-118099802D01*
X135227401Y-118181931D01*
X135141777Y-118307246D01*
X135128600Y-118372317D01*
X135118198Y-118317034D01*
X135036069Y-118189401D01*
X134910754Y-118103777D01*
X134762000Y-118073654D01*
X133462000Y-118073654D01*
X133323034Y-118099802D01*
X133195401Y-118181931D01*
X133109777Y-118307246D01*
X133079654Y-118456000D01*
X133079654Y-119846548D01*
X132259553Y-119026447D01*
X132097342Y-118918060D01*
X131906000Y-118880000D01*
X129540000Y-118880000D01*
X129348658Y-118918060D01*
X129186446Y-119026447D01*
X128951447Y-119261447D01*
X128843060Y-119423658D01*
X128805000Y-119615000D01*
X128805000Y-119777654D01*
X128505000Y-119777654D01*
X128505000Y-117566106D01*
X129065107Y-117006000D01*
X133079654Y-117006000D01*
X133079654Y-117256000D01*
X133105802Y-117394966D01*
X133187931Y-117522599D01*
X133313246Y-117608223D01*
X133462000Y-117638346D01*
X134762000Y-117638346D01*
X134900966Y-117612198D01*
X135028599Y-117530069D01*
X135114223Y-117404754D01*
X135125878Y-117347198D01*
X135176090Y-117468420D01*
X135281579Y-117573910D01*
X135419408Y-117631000D01*
X136045250Y-117631000D01*
X136139000Y-117537250D01*
X136139000Y-116511000D01*
X136119000Y-116511000D01*
X136119000Y-116501000D01*
X136139000Y-116501000D01*
X136139000Y-115474750D01*
X136149000Y-115474750D01*
X136149000Y-116501000D01*
X136169000Y-116501000D01*
X136169000Y-116511000D01*
X136149000Y-116511000D01*
X136149000Y-117537250D01*
X136242750Y-117631000D01*
X136868592Y-117631000D01*
X137006421Y-117573910D01*
X137111910Y-117468420D01*
X137138645Y-117403877D01*
X137186090Y-117518421D01*
X137291580Y-117623910D01*
X137429408Y-117681000D01*
X138355250Y-117681000D01*
X138449000Y-117587250D01*
X138449000Y-116911000D01*
X138459000Y-116911000D01*
X138459000Y-117587250D01*
X138552750Y-117681000D01*
X139478592Y-117681000D01*
X139616420Y-117623910D01*
X139721910Y-117518421D01*
X139747765Y-117456000D01*
X140070674Y-117456000D01*
X140070674Y-118256000D01*
X140100309Y-118413496D01*
X140193389Y-118558146D01*
X140335412Y-118655186D01*
X140504000Y-118689326D01*
X142404000Y-118689326D01*
X142561496Y-118659691D01*
X142617155Y-118623875D01*
X142659233Y-118686850D01*
X143040430Y-118941558D01*
X143490083Y-119031000D01*
X144045917Y-119031000D01*
X144495570Y-118941558D01*
X144876767Y-118686850D01*
X145131475Y-118305653D01*
X145220917Y-117856000D01*
X145131475Y-117406347D01*
X144876767Y-117025150D01*
X144495570Y-116770442D01*
X144045917Y-116681000D01*
X143490083Y-116681000D01*
X143040430Y-116770442D01*
X142659233Y-117025150D01*
X142617549Y-117087534D01*
X142572588Y-117056814D01*
X142404000Y-117022674D01*
X140504000Y-117022674D01*
X140346504Y-117052309D01*
X140201854Y-117145389D01*
X140104814Y-117287412D01*
X140070674Y-117456000D01*
X139747765Y-117456000D01*
X139779000Y-117380592D01*
X139779000Y-117004750D01*
X139685250Y-116911000D01*
X138459000Y-116911000D01*
X138449000Y-116911000D01*
X138429000Y-116911000D01*
X138429000Y-116901000D01*
X138449000Y-116901000D01*
X138449000Y-116224750D01*
X138459000Y-116224750D01*
X138459000Y-116901000D01*
X139685250Y-116901000D01*
X139779000Y-116807250D01*
X139779000Y-116431408D01*
X139721910Y-116293579D01*
X139616420Y-116188090D01*
X139478592Y-116131000D01*
X138552750Y-116131000D01*
X138459000Y-116224750D01*
X138449000Y-116224750D01*
X138355250Y-116131000D01*
X137429408Y-116131000D01*
X137291580Y-116188090D01*
X137186090Y-116293579D01*
X137169000Y-116334838D01*
X137169000Y-115681408D01*
X137111910Y-115543580D01*
X137006421Y-115438090D01*
X136868592Y-115381000D01*
X136242750Y-115381000D01*
X136149000Y-115474750D01*
X136139000Y-115474750D01*
X136045250Y-115381000D01*
X135419408Y-115381000D01*
X135281579Y-115438090D01*
X135176090Y-115543580D01*
X135126778Y-115662631D01*
X135118198Y-115617034D01*
X135036069Y-115489401D01*
X134910754Y-115403777D01*
X134762000Y-115373654D01*
X133462000Y-115373654D01*
X133323034Y-115399802D01*
X133195401Y-115481931D01*
X133109777Y-115607246D01*
X133079654Y-115756000D01*
X133079654Y-116006000D01*
X128858000Y-116006000D01*
X128666658Y-116044060D01*
X128504446Y-116152447D01*
X128115125Y-116541769D01*
X128080571Y-116458143D01*
X127890856Y-116268097D01*
X127642855Y-116165117D01*
X127374323Y-116164883D01*
X127205000Y-116234846D01*
X127205000Y-115316000D01*
X142315083Y-115316000D01*
X142404525Y-115765653D01*
X142659233Y-116146850D01*
X143040430Y-116401558D01*
X143490083Y-116491000D01*
X144045917Y-116491000D01*
X144495570Y-116401558D01*
X144876767Y-116146850D01*
X145131475Y-115765653D01*
X145220917Y-115316000D01*
X145131475Y-114866347D01*
X144876767Y-114485150D01*
X144495570Y-114230442D01*
X144045917Y-114141000D01*
X143490083Y-114141000D01*
X143040430Y-114230442D01*
X142659233Y-114485150D01*
X142404525Y-114866347D01*
X142315083Y-115316000D01*
X127205000Y-115316000D01*
X127205000Y-113376000D01*
X133079654Y-113376000D01*
X133079654Y-114876000D01*
X133105802Y-115014966D01*
X133187931Y-115142599D01*
X133313246Y-115228223D01*
X133462000Y-115258346D01*
X134762000Y-115258346D01*
X134900966Y-115232198D01*
X135028599Y-115150069D01*
X135114223Y-115024754D01*
X135127400Y-114959683D01*
X135137802Y-115014966D01*
X135219931Y-115142599D01*
X135345246Y-115228223D01*
X135494000Y-115258346D01*
X136794000Y-115258346D01*
X136932966Y-115232198D01*
X137060599Y-115150069D01*
X137146223Y-115024754D01*
X137176346Y-114876000D01*
X137176346Y-114309325D01*
X137229931Y-114392599D01*
X137355246Y-114478223D01*
X137504000Y-114508346D01*
X139404000Y-114508346D01*
X139542966Y-114482198D01*
X139670599Y-114400069D01*
X139756223Y-114274754D01*
X139786346Y-114126000D01*
X139786346Y-113326000D01*
X139760198Y-113187034D01*
X139678069Y-113059401D01*
X139552754Y-112973777D01*
X139404000Y-112943654D01*
X137504000Y-112943654D01*
X137365034Y-112969802D01*
X137237401Y-113051931D01*
X137151777Y-113177246D01*
X137142190Y-113224589D01*
X137068069Y-113109401D01*
X136942754Y-113023777D01*
X136794000Y-112993654D01*
X135494000Y-112993654D01*
X135355034Y-113019802D01*
X135227401Y-113101931D01*
X135141777Y-113227246D01*
X135128600Y-113292317D01*
X135118198Y-113237034D01*
X135036069Y-113109401D01*
X134910754Y-113023777D01*
X134762000Y-112993654D01*
X133462000Y-112993654D01*
X133323034Y-113019802D01*
X133195401Y-113101931D01*
X133109777Y-113227246D01*
X133079654Y-113376000D01*
X127205000Y-113376000D01*
X127205000Y-113024106D01*
X128303106Y-111926000D01*
X133079654Y-111926000D01*
X133079654Y-112176000D01*
X133105802Y-112314966D01*
X133187931Y-112442599D01*
X133313246Y-112528223D01*
X133462000Y-112558346D01*
X134762000Y-112558346D01*
X134900966Y-112532198D01*
X135028599Y-112450069D01*
X135114223Y-112324754D01*
X135125878Y-112267198D01*
X135176090Y-112388420D01*
X135281579Y-112493910D01*
X135419408Y-112551000D01*
X136045250Y-112551000D01*
X136139000Y-112457250D01*
X136139000Y-111431000D01*
X136119000Y-111431000D01*
X136119000Y-111421000D01*
X136139000Y-111421000D01*
X136139000Y-110394750D01*
X136149000Y-110394750D01*
X136149000Y-111421000D01*
X136169000Y-111421000D01*
X136169000Y-111431000D01*
X136149000Y-111431000D01*
X136149000Y-112457250D01*
X136242750Y-112551000D01*
X136868592Y-112551000D01*
X137006421Y-112493910D01*
X137111910Y-112388420D01*
X137138645Y-112323877D01*
X137186090Y-112438421D01*
X137291580Y-112543910D01*
X137429408Y-112601000D01*
X138355250Y-112601000D01*
X138449000Y-112507250D01*
X138449000Y-111831000D01*
X138459000Y-111831000D01*
X138459000Y-112507250D01*
X138552750Y-112601000D01*
X139478592Y-112601000D01*
X139616420Y-112543910D01*
X139721910Y-112438421D01*
X139747765Y-112376000D01*
X140070674Y-112376000D01*
X140070674Y-113176000D01*
X140100309Y-113333496D01*
X140193389Y-113478146D01*
X140335412Y-113575186D01*
X140504000Y-113609326D01*
X142404000Y-113609326D01*
X142561496Y-113579691D01*
X142617155Y-113543875D01*
X142659233Y-113606850D01*
X143040430Y-113861558D01*
X143490083Y-113951000D01*
X144045917Y-113951000D01*
X144495570Y-113861558D01*
X144876767Y-113606850D01*
X145131475Y-113225653D01*
X145220917Y-112776000D01*
X145131475Y-112326347D01*
X144876767Y-111945150D01*
X144495570Y-111690442D01*
X144045917Y-111601000D01*
X143490083Y-111601000D01*
X143040430Y-111690442D01*
X142659233Y-111945150D01*
X142617549Y-112007534D01*
X142572588Y-111976814D01*
X142404000Y-111942674D01*
X140504000Y-111942674D01*
X140346504Y-111972309D01*
X140201854Y-112065389D01*
X140104814Y-112207412D01*
X140070674Y-112376000D01*
X139747765Y-112376000D01*
X139779000Y-112300592D01*
X139779000Y-111924750D01*
X139685250Y-111831000D01*
X138459000Y-111831000D01*
X138449000Y-111831000D01*
X138429000Y-111831000D01*
X138429000Y-111821000D01*
X138449000Y-111821000D01*
X138449000Y-111144750D01*
X138459000Y-111144750D01*
X138459000Y-111821000D01*
X139685250Y-111821000D01*
X139779000Y-111727250D01*
X139779000Y-111351408D01*
X139721910Y-111213579D01*
X139616420Y-111108090D01*
X139478592Y-111051000D01*
X138552750Y-111051000D01*
X138459000Y-111144750D01*
X138449000Y-111144750D01*
X138355250Y-111051000D01*
X137429408Y-111051000D01*
X137291580Y-111108090D01*
X137186090Y-111213579D01*
X137169000Y-111254838D01*
X137169000Y-110601408D01*
X137111910Y-110463580D01*
X137006421Y-110358090D01*
X136868592Y-110301000D01*
X136242750Y-110301000D01*
X136149000Y-110394750D01*
X136139000Y-110394750D01*
X136045250Y-110301000D01*
X135419408Y-110301000D01*
X135281579Y-110358090D01*
X135176090Y-110463580D01*
X135126778Y-110582631D01*
X135118198Y-110537034D01*
X135036069Y-110409401D01*
X134910754Y-110323777D01*
X134762000Y-110293654D01*
X133462000Y-110293654D01*
X133323034Y-110319802D01*
X133195401Y-110401931D01*
X133109777Y-110527246D01*
X133079654Y-110676000D01*
X133079654Y-110926000D01*
X128096000Y-110926000D01*
X127904658Y-110964060D01*
X127742447Y-111072447D01*
X127099125Y-111715769D01*
X127064571Y-111632143D01*
X126874856Y-111442097D01*
X126626855Y-111339117D01*
X126358323Y-111338883D01*
X126110143Y-111441429D01*
X125920097Y-111631144D01*
X125905000Y-111667501D01*
X125905000Y-110236000D01*
X142315083Y-110236000D01*
X142404525Y-110685653D01*
X142659233Y-111066850D01*
X143040430Y-111321558D01*
X143490083Y-111411000D01*
X144045917Y-111411000D01*
X144495570Y-111321558D01*
X144876767Y-111066850D01*
X145131475Y-110685653D01*
X145220917Y-110236000D01*
X145131475Y-109786347D01*
X144876767Y-109405150D01*
X144495570Y-109150442D01*
X144045917Y-109061000D01*
X143490083Y-109061000D01*
X143040430Y-109150442D01*
X142659233Y-109405150D01*
X142404525Y-109786347D01*
X142315083Y-110236000D01*
X125905000Y-110236000D01*
X125905000Y-109244106D01*
X126853106Y-108296000D01*
X133079654Y-108296000D01*
X133079654Y-109796000D01*
X133105802Y-109934966D01*
X133187931Y-110062599D01*
X133313246Y-110148223D01*
X133462000Y-110178346D01*
X134762000Y-110178346D01*
X134900966Y-110152198D01*
X135028599Y-110070069D01*
X135114223Y-109944754D01*
X135127400Y-109879683D01*
X135137802Y-109934966D01*
X135219931Y-110062599D01*
X135345246Y-110148223D01*
X135494000Y-110178346D01*
X136794000Y-110178346D01*
X136932966Y-110152198D01*
X137060599Y-110070069D01*
X137146223Y-109944754D01*
X137176346Y-109796000D01*
X137176346Y-109229325D01*
X137229931Y-109312599D01*
X137355246Y-109398223D01*
X137504000Y-109428346D01*
X139404000Y-109428346D01*
X139542966Y-109402198D01*
X139670599Y-109320069D01*
X139756223Y-109194754D01*
X139786346Y-109046000D01*
X139786346Y-108246000D01*
X139760198Y-108107034D01*
X139678069Y-107979401D01*
X139552754Y-107893777D01*
X139404000Y-107863654D01*
X137504000Y-107863654D01*
X137365034Y-107889802D01*
X137237401Y-107971931D01*
X137151777Y-108097246D01*
X137142190Y-108144589D01*
X137068069Y-108029401D01*
X136942754Y-107943777D01*
X136794000Y-107913654D01*
X135494000Y-107913654D01*
X135355034Y-107939802D01*
X135227401Y-108021931D01*
X135141777Y-108147246D01*
X135128600Y-108212317D01*
X135118198Y-108157034D01*
X135036069Y-108029401D01*
X134910754Y-107943777D01*
X134762000Y-107913654D01*
X133462000Y-107913654D01*
X133323034Y-107939802D01*
X133195401Y-108021931D01*
X133109777Y-108147246D01*
X133079654Y-108296000D01*
X126853106Y-108296000D01*
X128303107Y-106846000D01*
X133079654Y-106846000D01*
X133079654Y-107096000D01*
X133105802Y-107234966D01*
X133187931Y-107362599D01*
X133313246Y-107448223D01*
X133462000Y-107478346D01*
X134762000Y-107478346D01*
X134900966Y-107452198D01*
X135028599Y-107370069D01*
X135114223Y-107244754D01*
X135125878Y-107187198D01*
X135176090Y-107308420D01*
X135281579Y-107413910D01*
X135419408Y-107471000D01*
X136045250Y-107471000D01*
X136139000Y-107377250D01*
X136139000Y-106351000D01*
X136119000Y-106351000D01*
X136119000Y-106341000D01*
X136139000Y-106341000D01*
X136139000Y-105314750D01*
X136149000Y-105314750D01*
X136149000Y-106341000D01*
X136169000Y-106341000D01*
X136169000Y-106351000D01*
X136149000Y-106351000D01*
X136149000Y-107377250D01*
X136242750Y-107471000D01*
X136868592Y-107471000D01*
X137006421Y-107413910D01*
X137111910Y-107308420D01*
X137138645Y-107243877D01*
X137186090Y-107358421D01*
X137291580Y-107463910D01*
X137429408Y-107521000D01*
X138355250Y-107521000D01*
X138449000Y-107427250D01*
X138449000Y-106751000D01*
X138459000Y-106751000D01*
X138459000Y-107427250D01*
X138552750Y-107521000D01*
X139478592Y-107521000D01*
X139616420Y-107463910D01*
X139721910Y-107358421D01*
X139747765Y-107296000D01*
X140070674Y-107296000D01*
X140070674Y-108096000D01*
X140100309Y-108253496D01*
X140193389Y-108398146D01*
X140335412Y-108495186D01*
X140504000Y-108529326D01*
X142404000Y-108529326D01*
X142561496Y-108499691D01*
X142617155Y-108463875D01*
X142659233Y-108526850D01*
X143040430Y-108781558D01*
X143490083Y-108871000D01*
X144045917Y-108871000D01*
X144495570Y-108781558D01*
X144876767Y-108526850D01*
X145131475Y-108145653D01*
X145220917Y-107696000D01*
X145131475Y-107246347D01*
X144876767Y-106865150D01*
X144495570Y-106610442D01*
X144045917Y-106521000D01*
X143490083Y-106521000D01*
X143040430Y-106610442D01*
X142659233Y-106865150D01*
X142617549Y-106927534D01*
X142572588Y-106896814D01*
X142404000Y-106862674D01*
X140504000Y-106862674D01*
X140346504Y-106892309D01*
X140201854Y-106985389D01*
X140104814Y-107127412D01*
X140070674Y-107296000D01*
X139747765Y-107296000D01*
X139779000Y-107220592D01*
X139779000Y-106844750D01*
X139685250Y-106751000D01*
X138459000Y-106751000D01*
X138449000Y-106751000D01*
X138429000Y-106751000D01*
X138429000Y-106741000D01*
X138449000Y-106741000D01*
X138449000Y-106064750D01*
X138459000Y-106064750D01*
X138459000Y-106741000D01*
X139685250Y-106741000D01*
X139779000Y-106647250D01*
X139779000Y-106271408D01*
X139721910Y-106133579D01*
X139616420Y-106028090D01*
X139478592Y-105971000D01*
X138552750Y-105971000D01*
X138459000Y-106064750D01*
X138449000Y-106064750D01*
X138355250Y-105971000D01*
X137429408Y-105971000D01*
X137291580Y-106028090D01*
X137186090Y-106133579D01*
X137169000Y-106174838D01*
X137169000Y-105521408D01*
X137111910Y-105383580D01*
X137006421Y-105278090D01*
X136868592Y-105221000D01*
X136242750Y-105221000D01*
X136149000Y-105314750D01*
X136139000Y-105314750D01*
X136045250Y-105221000D01*
X135419408Y-105221000D01*
X135281579Y-105278090D01*
X135176090Y-105383580D01*
X135126778Y-105502631D01*
X135118198Y-105457034D01*
X135036069Y-105329401D01*
X134910754Y-105243777D01*
X134762000Y-105213654D01*
X133462000Y-105213654D01*
X133323034Y-105239802D01*
X133195401Y-105321931D01*
X133109777Y-105447246D01*
X133079654Y-105596000D01*
X133079654Y-105846000D01*
X128096000Y-105846000D01*
X127904658Y-105884060D01*
X127871823Y-105906000D01*
X127742447Y-105992446D01*
X127167098Y-106567795D01*
X127167117Y-106546323D01*
X127064571Y-106298143D01*
X126874856Y-106108097D01*
X126626855Y-106005117D01*
X126358323Y-106004883D01*
X126110143Y-106107429D01*
X125920097Y-106297144D01*
X125817117Y-106545145D01*
X125817027Y-106647867D01*
X124401447Y-108063447D01*
X124293060Y-108225658D01*
X124255000Y-108417000D01*
X124255000Y-119777654D01*
X123905000Y-119777654D01*
X123775411Y-119802038D01*
X123655000Y-119777654D01*
X123305000Y-119777654D01*
X123305000Y-118321106D01*
X123603078Y-118023028D01*
X123704677Y-118023117D01*
X123952857Y-117920571D01*
X124142903Y-117730856D01*
X124245883Y-117482855D01*
X124246117Y-117214323D01*
X124143571Y-116966143D01*
X123953856Y-116776097D01*
X123705855Y-116673117D01*
X123437323Y-116672883D01*
X123189143Y-116775429D01*
X122999097Y-116965144D01*
X122896117Y-117213145D01*
X122896027Y-117315866D01*
X122451447Y-117760447D01*
X122343060Y-117922658D01*
X122305000Y-118114000D01*
X122305000Y-118422893D01*
X121198028Y-117315922D01*
X121198117Y-117214323D01*
X121095571Y-116966143D01*
X120905856Y-116776097D01*
X120657855Y-116673117D01*
X120389323Y-116672883D01*
X120141143Y-116775429D01*
X119951097Y-116965144D01*
X119848117Y-117213145D01*
X119847883Y-117481677D01*
X119950429Y-117729857D01*
X120140144Y-117919903D01*
X120388145Y-118022883D01*
X120490866Y-118022973D01*
X120712894Y-118245000D01*
X118190107Y-118245000D01*
X117975000Y-118029894D01*
X117975000Y-117802634D01*
X118046903Y-117730856D01*
X118149883Y-117482855D01*
X118150117Y-117214323D01*
X118047571Y-116966143D01*
X117857856Y-116776097D01*
X117609855Y-116673117D01*
X117341323Y-116672883D01*
X117093143Y-116775429D01*
X116903097Y-116965144D01*
X116800117Y-117213145D01*
X116799883Y-117481677D01*
X109950000Y-117481677D01*
X109950000Y-104132050D01*
X111520562Y-104132050D01*
X111904161Y-105060429D01*
X112613835Y-105771343D01*
X113541543Y-106156561D01*
X114546050Y-106157438D01*
X115474429Y-105773839D01*
X116185343Y-105064165D01*
X116458636Y-104406000D01*
X142334674Y-104406000D01*
X142334674Y-105906000D01*
X142364309Y-106063496D01*
X142457389Y-106208146D01*
X142599412Y-106305186D01*
X142768000Y-106339326D01*
X144768000Y-106339326D01*
X144925496Y-106309691D01*
X145070146Y-106216611D01*
X145167186Y-106074588D01*
X145201326Y-105906000D01*
X145201326Y-104406000D01*
X145171691Y-104248504D01*
X145078611Y-104103854D01*
X144936588Y-104006814D01*
X144768000Y-103972674D01*
X142768000Y-103972674D01*
X142610504Y-104002309D01*
X142465854Y-104095389D01*
X142368814Y-104237412D01*
X142334674Y-104406000D01*
X116458636Y-104406000D01*
X116570561Y-104136457D01*
X116571438Y-103131950D01*
X116187839Y-102203571D01*
X115478165Y-101492657D01*
X114550457Y-101107439D01*
X113545950Y-101106562D01*
X112617571Y-101490161D01*
X111906657Y-102199835D01*
X111521439Y-103127543D01*
X111520562Y-104132050D01*
X109950000Y-104132050D01*
X109950000Y-101000000D01*
X120550000Y-101000000D01*
X120550000Y-103000000D01*
X120584254Y-103172208D01*
X120681802Y-103318198D01*
X120827792Y-103415746D01*
X121000000Y-103450000D01*
X127000000Y-103450000D01*
X127172208Y-103415746D01*
X127318198Y-103318198D01*
X127415746Y-103172208D01*
X127450000Y-103000000D01*
X127450000Y-101000000D01*
X127415746Y-100827792D01*
X127318198Y-100681802D01*
X127172208Y-100584254D01*
X127000000Y-100550000D01*
X121000000Y-100550000D01*
X120827792Y-100584254D01*
X120681802Y-100681802D01*
X120584254Y-100827792D01*
X120550000Y-101000000D01*
X109950000Y-101000000D01*
X109950000Y-99450000D01*
X150550000Y-99450000D01*
X150550000Y-148550000D01*
M02*
