G04 #@! TF.FileFunction,Paste,Bot*
%FSLAX46Y46*%
G04 Gerber Fmt 4.6, Leading zero omitted, Abs format (unit mm)*
G04 Created by KiCad (PCBNEW 4.0.4-stable) date 12/22/16 08:10:22*
%MOMM*%
%LPD*%
G01*
G04 APERTURE LIST*
%ADD10C,0.100000*%
%ADD11R,1.250000X1.500000*%
%ADD12R,2.000000X1.600000*%
%ADD13R,0.400000X2.000000*%
%ADD14R,1.900000X0.800000*%
%ADD15R,1.300000X1.500000*%
G04 APERTURE END LIST*
D10*
D11*
X119634000Y-127361000D03*
X119634000Y-124861000D03*
D12*
X118840000Y-129794000D03*
X114840000Y-129794000D03*
D13*
X121505000Y-121160000D03*
X129955000Y-127760000D03*
X122155000Y-121160000D03*
X122805000Y-121160000D03*
X123455000Y-121160000D03*
X124105000Y-121160000D03*
X124755000Y-121160000D03*
X125405000Y-121160000D03*
X126055000Y-121160000D03*
X126705000Y-121160000D03*
X127355000Y-121160000D03*
X128005000Y-121160000D03*
X128655000Y-121160000D03*
X129305000Y-121160000D03*
X129955000Y-121160000D03*
X129305000Y-127760000D03*
X128655000Y-127760000D03*
X128005000Y-127760000D03*
X127355000Y-127760000D03*
X126705000Y-127760000D03*
X126055000Y-127760000D03*
X125405000Y-127760000D03*
X124755000Y-127760000D03*
X124105000Y-127760000D03*
X123455000Y-127760000D03*
X122805000Y-127760000D03*
X122155000Y-127760000D03*
X121505000Y-127760000D03*
D14*
X138454000Y-108646000D03*
X138454000Y-106746000D03*
X141454000Y-107696000D03*
X138454000Y-113726000D03*
X138454000Y-111826000D03*
X141454000Y-112776000D03*
X138454000Y-118806000D03*
X138454000Y-116906000D03*
X141454000Y-117856000D03*
X138454000Y-123886000D03*
X138454000Y-121986000D03*
X141454000Y-122936000D03*
X138454000Y-128966000D03*
X138454000Y-127066000D03*
X141454000Y-128016000D03*
X138454000Y-134046000D03*
X138454000Y-132146000D03*
X141454000Y-133096000D03*
X138454000Y-139126000D03*
X138454000Y-137226000D03*
X141454000Y-138176000D03*
X138454000Y-144206000D03*
X138454000Y-142306000D03*
X141454000Y-143256000D03*
D15*
X134112000Y-109046000D03*
X134112000Y-106346000D03*
X136144000Y-109046000D03*
X136144000Y-106346000D03*
X134112000Y-114126000D03*
X134112000Y-111426000D03*
X136144000Y-114126000D03*
X136144000Y-111426000D03*
X134112000Y-119206000D03*
X134112000Y-116506000D03*
X136144000Y-119206000D03*
X136144000Y-116506000D03*
X134112000Y-124286000D03*
X134112000Y-121586000D03*
X136144000Y-124286000D03*
X136144000Y-121586000D03*
X134112000Y-129366000D03*
X134112000Y-126666000D03*
X136144000Y-129366000D03*
X136144000Y-126666000D03*
X134112000Y-134446000D03*
X134112000Y-131746000D03*
X136144000Y-134446000D03*
X136144000Y-131746000D03*
X134112000Y-139526000D03*
X134112000Y-136826000D03*
X136144000Y-139526000D03*
X136144000Y-136826000D03*
X134112000Y-144606000D03*
X134112000Y-141906000D03*
X136144000Y-144606000D03*
X136144000Y-141906000D03*
M02*
