G04 #@! TF.FileFunction,Legend,Top*
%FSLAX46Y46*%
G04 Gerber Fmt 4.6, Leading zero omitted, Abs format (unit mm)*
G04 Created by KiCad (PCBNEW 4.0.4-stable) date 12/22/16 08:10:22*
%MOMM*%
%LPD*%
G01*
G04 APERTURE LIST*
%ADD10C,0.100000*%
%ADD11C,0.300000*%
%ADD12C,0.304800*%
%ADD13C,0.299720*%
%ADD14C,0.200000*%
%ADD15C,0.120000*%
%ADD16C,0.150000*%
%ADD17O,2.400000X1.900000*%
%ADD18R,2.400000X1.900000*%
%ADD19O,1.900000X2.400000*%
%ADD20R,1.900000X2.400000*%
%ADD21R,2.400000X1.400000*%
%ADD22R,2.600000X1.600000*%
%ADD23R,1.400000X2.400000*%
%ADD24R,1.600000X2.600000*%
%ADD25R,2.300000X1.200000*%
%ADD26R,1.700000X1.900000*%
%ADD27C,4.700000*%
G04 APERTURE END LIST*
D10*
D11*
X120650430Y-105086571D02*
X120793287Y-105086571D01*
X120936144Y-105158000D01*
X121007573Y-105229429D01*
X121079002Y-105372286D01*
X121150430Y-105658000D01*
X121150430Y-106015143D01*
X121079002Y-106300857D01*
X121007573Y-106443714D01*
X120936144Y-106515143D01*
X120793287Y-106586571D01*
X120650430Y-106586571D01*
X120507573Y-106515143D01*
X120436144Y-106443714D01*
X120364716Y-106300857D01*
X120293287Y-106015143D01*
X120293287Y-105658000D01*
X120364716Y-105372286D01*
X120436144Y-105229429D01*
X120507573Y-105158000D01*
X120650430Y-105086571D01*
X122579001Y-106586571D02*
X121721858Y-106586571D01*
X122150430Y-106586571D02*
X122150430Y-105086571D01*
X122007573Y-105300857D01*
X121864715Y-105443714D01*
X121721858Y-105515143D01*
X124293286Y-105229429D02*
X124364715Y-105158000D01*
X124507572Y-105086571D01*
X124864715Y-105086571D01*
X125007572Y-105158000D01*
X125079001Y-105229429D01*
X125150429Y-105372286D01*
X125150429Y-105515143D01*
X125079001Y-105729429D01*
X124221858Y-106586571D01*
X125150429Y-106586571D01*
X126436143Y-105586571D02*
X126436143Y-106586571D01*
X126079000Y-105015143D02*
X125721857Y-106086571D01*
X126650429Y-106086571D01*
X127007571Y-105086571D02*
X127507571Y-106586571D01*
X128007571Y-105086571D01*
X123364714Y-108993714D02*
X123436142Y-109065143D01*
X123364714Y-109136571D01*
X123293285Y-109065143D01*
X123364714Y-108993714D01*
X123364714Y-109136571D01*
X124079000Y-108993714D02*
X124150428Y-109065143D01*
X124079000Y-109136571D01*
X124007571Y-109065143D01*
X124079000Y-108993714D01*
X124079000Y-109136571D01*
X124793286Y-108993714D02*
X124864714Y-109065143D01*
X124793286Y-109136571D01*
X124721857Y-109065143D01*
X124793286Y-108993714D01*
X124793286Y-109136571D01*
X121150430Y-111686571D02*
X120293287Y-111686571D01*
X120721859Y-111686571D02*
X120721859Y-110186571D01*
X120579002Y-110400857D01*
X120436144Y-110543714D01*
X120293287Y-110615143D01*
X122436144Y-110186571D02*
X122150430Y-110186571D01*
X122007573Y-110258000D01*
X121936144Y-110329429D01*
X121793287Y-110543714D01*
X121721858Y-110829429D01*
X121721858Y-111400857D01*
X121793287Y-111543714D01*
X121864715Y-111615143D01*
X122007573Y-111686571D01*
X122293287Y-111686571D01*
X122436144Y-111615143D01*
X122507573Y-111543714D01*
X122579001Y-111400857D01*
X122579001Y-111043714D01*
X122507573Y-110900857D01*
X122436144Y-110829429D01*
X122293287Y-110758000D01*
X122007573Y-110758000D01*
X121864715Y-110829429D01*
X121793287Y-110900857D01*
X121721858Y-111043714D01*
X124293286Y-110329429D02*
X124364715Y-110258000D01*
X124507572Y-110186571D01*
X124864715Y-110186571D01*
X125007572Y-110258000D01*
X125079001Y-110329429D01*
X125150429Y-110472286D01*
X125150429Y-110615143D01*
X125079001Y-110829429D01*
X124221858Y-111686571D01*
X125150429Y-111686571D01*
X126436143Y-110686571D02*
X126436143Y-111686571D01*
X126079000Y-110115143D02*
X125721857Y-111186571D01*
X126650429Y-111186571D01*
X127007571Y-110186571D02*
X127507571Y-111686571D01*
X128007571Y-110186571D01*
D12*
X140588000Y-99906000D02*
X140588000Y-148506000D01*
X149988000Y-148506000D02*
X149988000Y-99906000D01*
X149988000Y-99906000D02*
X140588000Y-99906000D01*
X149988000Y-148506000D02*
X140588000Y-148506000D01*
D13*
X140588000Y-126506000D02*
X141988000Y-126506000D01*
X141988000Y-126506000D02*
X141988000Y-121906000D01*
X141988000Y-121906000D02*
X140588000Y-121906000D01*
D12*
X109742000Y-140336000D02*
X130542000Y-140336000D01*
X130542000Y-130936000D02*
X109742000Y-130936000D01*
X109742000Y-130936000D02*
X109742000Y-140336000D01*
X130542000Y-130936000D02*
X130542000Y-140336000D01*
D13*
X122442000Y-140336000D02*
X122442000Y-138936000D01*
X122442000Y-138936000D02*
X117842000Y-138936000D01*
X117842000Y-138936000D02*
X117842000Y-140336000D01*
D14*
X114878000Y-119248000D02*
X114878000Y-115448000D01*
X114878000Y-115448000D02*
X117278000Y-115448000D01*
X117278000Y-115448000D02*
X117278000Y-119248000D01*
X117278000Y-119248000D02*
X114878000Y-119248000D01*
X117926000Y-119248000D02*
X117926000Y-115448000D01*
X117926000Y-115448000D02*
X120326000Y-115448000D01*
X120326000Y-115448000D02*
X120326000Y-119248000D01*
X120326000Y-119248000D02*
X117926000Y-119248000D01*
X120974000Y-119248000D02*
X120974000Y-115448000D01*
X120974000Y-115448000D02*
X123374000Y-115448000D01*
X123374000Y-115448000D02*
X123374000Y-119248000D01*
X123374000Y-119248000D02*
X120974000Y-119248000D01*
X123374000Y-119385000D02*
X123374000Y-123185000D01*
X123374000Y-123185000D02*
X120974000Y-123185000D01*
X120974000Y-123185000D02*
X120974000Y-119385000D01*
X120974000Y-119385000D02*
X123374000Y-119385000D01*
X120326000Y-119385000D02*
X120326000Y-123185000D01*
X120326000Y-123185000D02*
X117926000Y-123185000D01*
X117926000Y-123185000D02*
X117926000Y-119385000D01*
X117926000Y-119385000D02*
X120326000Y-119385000D01*
X121036000Y-123387000D02*
X124836000Y-123387000D01*
X124836000Y-123387000D02*
X124836000Y-125787000D01*
X124836000Y-125787000D02*
X121036000Y-125787000D01*
X121036000Y-125787000D02*
X121036000Y-123387000D01*
D15*
X138174000Y-106736000D02*
X138174000Y-105806000D01*
X138174000Y-103576000D02*
X138174000Y-104506000D01*
X138174000Y-103576000D02*
X135014000Y-103576000D01*
X138174000Y-106736000D02*
X136714000Y-106736000D01*
X138174000Y-111816000D02*
X138174000Y-110886000D01*
X138174000Y-108656000D02*
X138174000Y-109586000D01*
X138174000Y-108656000D02*
X135014000Y-108656000D01*
X138174000Y-111816000D02*
X136714000Y-111816000D01*
X138174000Y-116896000D02*
X138174000Y-115966000D01*
X138174000Y-113736000D02*
X138174000Y-114666000D01*
X138174000Y-113736000D02*
X135014000Y-113736000D01*
X138174000Y-116896000D02*
X136714000Y-116896000D01*
X138174000Y-121976000D02*
X138174000Y-121046000D01*
X138174000Y-118816000D02*
X138174000Y-119746000D01*
X138174000Y-118816000D02*
X135014000Y-118816000D01*
X138174000Y-121976000D02*
X136714000Y-121976000D01*
X138174000Y-127056000D02*
X138174000Y-126126000D01*
X138174000Y-123896000D02*
X138174000Y-124826000D01*
X138174000Y-123896000D02*
X135014000Y-123896000D01*
X138174000Y-127056000D02*
X136714000Y-127056000D01*
X138174000Y-132136000D02*
X138174000Y-131206000D01*
X138174000Y-128976000D02*
X138174000Y-129906000D01*
X138174000Y-128976000D02*
X135014000Y-128976000D01*
X138174000Y-132136000D02*
X136714000Y-132136000D01*
X138174000Y-137216000D02*
X138174000Y-136286000D01*
X138174000Y-134056000D02*
X138174000Y-134986000D01*
X138174000Y-134056000D02*
X135014000Y-134056000D01*
X138174000Y-137216000D02*
X136714000Y-137216000D01*
X138174000Y-142296000D02*
X138174000Y-141366000D01*
X138174000Y-139136000D02*
X138174000Y-140066000D01*
X138174000Y-139136000D02*
X135014000Y-139136000D01*
X138174000Y-142296000D02*
X136714000Y-142296000D01*
D16*
X130697000Y-105756000D02*
X130697000Y-104556000D01*
X132447000Y-104556000D02*
X132447000Y-105756000D01*
X132729000Y-105756000D02*
X132729000Y-104556000D01*
X134479000Y-104556000D02*
X134479000Y-105756000D01*
X130697000Y-110836000D02*
X130697000Y-109636000D01*
X132447000Y-109636000D02*
X132447000Y-110836000D01*
X132729000Y-110836000D02*
X132729000Y-109636000D01*
X134479000Y-109636000D02*
X134479000Y-110836000D01*
X130697000Y-115916000D02*
X130697000Y-114716000D01*
X132447000Y-114716000D02*
X132447000Y-115916000D01*
X132729000Y-115916000D02*
X132729000Y-114716000D01*
X134479000Y-114716000D02*
X134479000Y-115916000D01*
X130697000Y-120996000D02*
X130697000Y-119796000D01*
X132447000Y-119796000D02*
X132447000Y-120996000D01*
X132729000Y-120996000D02*
X132729000Y-119796000D01*
X134479000Y-119796000D02*
X134479000Y-120996000D01*
X130697000Y-126076000D02*
X130697000Y-124876000D01*
X132447000Y-124876000D02*
X132447000Y-126076000D01*
X132729000Y-126076000D02*
X132729000Y-124876000D01*
X134479000Y-124876000D02*
X134479000Y-126076000D01*
X130697000Y-131156000D02*
X130697000Y-129956000D01*
X132447000Y-129956000D02*
X132447000Y-131156000D01*
X132729000Y-131156000D02*
X132729000Y-129956000D01*
X134479000Y-129956000D02*
X134479000Y-131156000D01*
X130697000Y-136236000D02*
X130697000Y-135036000D01*
X132447000Y-135036000D02*
X132447000Y-136236000D01*
X132729000Y-136236000D02*
X132729000Y-135036000D01*
X134479000Y-135036000D02*
X134479000Y-136236000D01*
X130697000Y-141316000D02*
X130697000Y-140116000D01*
X132447000Y-140116000D02*
X132447000Y-141316000D01*
X132729000Y-141316000D02*
X132729000Y-140116000D01*
X134479000Y-140116000D02*
X134479000Y-141316000D01*
D14*
X116244667Y-115014286D02*
X116244667Y-114538095D01*
X116530381Y-115109524D02*
X115530381Y-114776191D01*
X116530381Y-114442857D01*
X115530381Y-113919048D02*
X115530381Y-113823809D01*
X115578000Y-113728571D01*
X115625619Y-113680952D01*
X115720857Y-113633333D01*
X115911333Y-113585714D01*
X116149429Y-113585714D01*
X116339905Y-113633333D01*
X116435143Y-113680952D01*
X116482762Y-113728571D01*
X116530381Y-113823809D01*
X116530381Y-113919048D01*
X116482762Y-114014286D01*
X116435143Y-114061905D01*
X116339905Y-114109524D01*
X116149429Y-114157143D01*
X115911333Y-114157143D01*
X115720857Y-114109524D01*
X115625619Y-114061905D01*
X115578000Y-114014286D01*
X115530381Y-113919048D01*
X119292667Y-115014286D02*
X119292667Y-114538095D01*
X119578381Y-115109524D02*
X118578381Y-114776191D01*
X119578381Y-114442857D01*
X119578381Y-113585714D02*
X119578381Y-114157143D01*
X119578381Y-113871429D02*
X118578381Y-113871429D01*
X118721238Y-113966667D01*
X118816476Y-114061905D01*
X118864095Y-114157143D01*
X122340667Y-115014286D02*
X122340667Y-114538095D01*
X122626381Y-115109524D02*
X121626381Y-114776191D01*
X122626381Y-114442857D01*
X121721619Y-114157143D02*
X121674000Y-114109524D01*
X121626381Y-114014286D01*
X121626381Y-113776190D01*
X121674000Y-113680952D01*
X121721619Y-113633333D01*
X121816857Y-113585714D01*
X121912095Y-113585714D01*
X122054952Y-113633333D01*
X122626381Y-114204762D01*
X122626381Y-113585714D01*
X124626667Y-121999286D02*
X124626667Y-121523095D01*
X124912381Y-122094524D02*
X123912381Y-121761191D01*
X124912381Y-121427857D01*
X123912381Y-121189762D02*
X123912381Y-120570714D01*
X124293333Y-120904048D01*
X124293333Y-120761190D01*
X124340952Y-120665952D01*
X124388571Y-120618333D01*
X124483810Y-120570714D01*
X124721905Y-120570714D01*
X124817143Y-120618333D01*
X124864762Y-120665952D01*
X124912381Y-120761190D01*
X124912381Y-121046905D01*
X124864762Y-121142143D01*
X124817143Y-121189762D01*
X117133667Y-121999286D02*
X117133667Y-121523095D01*
X117419381Y-122094524D02*
X116419381Y-121761191D01*
X117419381Y-121427857D01*
X116752714Y-120665952D02*
X117419381Y-120665952D01*
X116371762Y-120904048D02*
X117086048Y-121142143D01*
X117086048Y-120523095D01*
X125896667Y-125301286D02*
X125896667Y-124825095D01*
X126182381Y-125396524D02*
X125182381Y-125063191D01*
X126182381Y-124729857D01*
X125182381Y-123920333D02*
X125182381Y-124396524D01*
X125658571Y-124444143D01*
X125610952Y-124396524D01*
X125563333Y-124301286D01*
X125563333Y-124063190D01*
X125610952Y-123967952D01*
X125658571Y-123920333D01*
X125753810Y-123872714D01*
X125991905Y-123872714D01*
X126087143Y-123920333D01*
X126134762Y-123967952D01*
X126182381Y-124063190D01*
X126182381Y-124301286D01*
X126134762Y-124396524D01*
X126087143Y-124444143D01*
%LPC*%
D17*
X143768000Y-143256000D03*
X146808000Y-143256000D03*
X143768000Y-138176000D03*
X146808000Y-138176000D03*
X146808000Y-140716000D03*
X143768000Y-140716000D03*
X143768000Y-135636000D03*
X146808000Y-135636000D03*
X146808000Y-133096000D03*
X143768000Y-133096000D03*
X143768000Y-130556000D03*
X146808000Y-130556000D03*
X146808000Y-128016000D03*
X143768000Y-128016000D03*
X143768000Y-125476000D03*
X146808000Y-125476000D03*
X146808000Y-122936000D03*
X143768000Y-122936000D03*
X143768000Y-120396000D03*
X146808000Y-120396000D03*
X146808000Y-117856000D03*
X143768000Y-117856000D03*
X143768000Y-115316000D03*
X146808000Y-115316000D03*
X146808000Y-112776000D03*
X143768000Y-112776000D03*
D18*
X143768000Y-105156000D03*
D17*
X146808000Y-105156000D03*
X143768000Y-107696000D03*
X146808000Y-107696000D03*
X143768000Y-110236000D03*
X146808000Y-110236000D03*
D19*
X125222000Y-137156000D03*
X125222000Y-134116000D03*
X122682000Y-134116000D03*
X122682000Y-137156000D03*
D20*
X115062000Y-137156000D03*
D19*
X115062000Y-134116000D03*
X117602000Y-137156000D03*
X117602000Y-134116000D03*
X120142000Y-137156000D03*
X120142000Y-134116000D03*
D21*
X116078000Y-118548000D03*
D22*
X116078000Y-117348000D03*
D21*
X116078000Y-116148000D03*
X119126000Y-118548000D03*
D22*
X119126000Y-117348000D03*
D21*
X119126000Y-116148000D03*
X122174000Y-118548000D03*
D22*
X122174000Y-117348000D03*
D21*
X122174000Y-116148000D03*
X122174000Y-120085000D03*
D22*
X122174000Y-121285000D03*
D21*
X122174000Y-122485000D03*
X119126000Y-120085000D03*
D22*
X119126000Y-121285000D03*
D21*
X119126000Y-122485000D03*
D23*
X121736000Y-124587000D03*
D24*
X122936000Y-124587000D03*
D23*
X124136000Y-124587000D03*
D25*
X135914000Y-104206000D03*
X135914000Y-106106000D03*
X138914000Y-105156000D03*
X135914000Y-109286000D03*
X135914000Y-111186000D03*
X138914000Y-110236000D03*
X135914000Y-114366000D03*
X135914000Y-116266000D03*
X138914000Y-115316000D03*
X135914000Y-119446000D03*
X135914000Y-121346000D03*
X138914000Y-120396000D03*
X135914000Y-124526000D03*
X135914000Y-126426000D03*
X138914000Y-125476000D03*
X135914000Y-129606000D03*
X135914000Y-131506000D03*
X138914000Y-130556000D03*
X135914000Y-134686000D03*
X135914000Y-136586000D03*
X138914000Y-135636000D03*
X135914000Y-139766000D03*
X135914000Y-141666000D03*
X138914000Y-140716000D03*
D26*
X131572000Y-103806000D03*
X131572000Y-106506000D03*
X133604000Y-103806000D03*
X133604000Y-106506000D03*
X131572000Y-108886000D03*
X131572000Y-111586000D03*
X133604000Y-108886000D03*
X133604000Y-111586000D03*
X131572000Y-113966000D03*
X131572000Y-116666000D03*
X133604000Y-113966000D03*
X133604000Y-116666000D03*
X131572000Y-119046000D03*
X131572000Y-121746000D03*
X133604000Y-119046000D03*
X133604000Y-121746000D03*
X131572000Y-124126000D03*
X131572000Y-126826000D03*
X133604000Y-124126000D03*
X133604000Y-126826000D03*
X131572000Y-129206000D03*
X131572000Y-131906000D03*
X133604000Y-129206000D03*
X133604000Y-131906000D03*
X131572000Y-134286000D03*
X131572000Y-136986000D03*
X133604000Y-134286000D03*
X133604000Y-136986000D03*
X131572000Y-139366000D03*
X131572000Y-142066000D03*
X133604000Y-139366000D03*
X133604000Y-142066000D03*
D27*
X114046000Y-144526000D03*
X114046000Y-103632000D03*
M02*
