M48
;DRILL file {KiCad 4.0.4-stable} date 12/22/16 08:10:27
;FORMAT={-:-/ absolute / metric / decimal}
FMAT,2
METRIC,TZ
T1C0.400
T2C1.000
T3C4.300
%
G90
G05
M71
T1
X117.475Y-117.348
X117.475Y-121.285
X119.38Y-128.651
X120.523Y-117.348
X120.777Y-121.285
X121.539Y-126.111
X123.571Y-117.348
X124.079Y-126.111
X124.841Y-122.809
X126.492Y-106.68
X126.492Y-112.014
X127.508Y-116.84
X128.778Y-122.936
X130.048Y-126.238
X130.048Y-130.683
X130.048Y-132.588
X130.048Y-138.557
T2
X113.03Y-112.268
X113.03Y-116.078
X115.062Y-134.366
X115.062Y-136.906
X116.078Y-108.458
X116.078Y-110.363
X117.602Y-134.366
X117.602Y-136.906
X120.142Y-134.366
X120.142Y-136.906
X122.682Y-134.366
X122.682Y-136.906
X125.222Y-134.366
X125.222Y-136.906
X125.603Y-124.587
X127.508Y-124.587
X129.54Y-124.587
X144.018Y-105.156
X144.018Y-107.696
X144.018Y-110.236
X144.018Y-112.776
X144.018Y-115.316
X144.018Y-117.856
X144.018Y-120.396
X144.018Y-122.936
X144.018Y-125.476
X144.018Y-128.016
X144.018Y-130.556
X144.018Y-133.096
X144.018Y-135.636
X144.018Y-138.176
X144.018Y-140.716
X144.018Y-143.256
X146.558Y-105.156
X146.558Y-107.696
X146.558Y-110.236
X146.558Y-112.776
X146.558Y-115.316
X146.558Y-117.856
X146.558Y-120.396
X146.558Y-122.936
X146.558Y-125.476
X146.558Y-128.016
X146.558Y-130.556
X146.558Y-133.096
X146.558Y-135.636
X146.558Y-138.176
X146.558Y-140.716
X146.558Y-143.256
T3
X114.046Y-103.632
X114.046Y-144.526
T0
M30
