G04 #@! TF.FileFunction,Legend,Bot*
%FSLAX46Y46*%
G04 Gerber Fmt 4.6, Leading zero omitted, Abs format (unit mm)*
G04 Created by KiCad (PCBNEW 4.0.5) date 07/26/17 23:20:59*
%MOMM*%
%LPD*%
G01*
G04 APERTURE LIST*
%ADD10C,0.100000*%
%ADD11C,0.150000*%
%ADD12C,0.200000*%
%ADD13O,1.900000X2.400000*%
%ADD14R,1.900000X2.400000*%
%ADD15R,2.900000X2.400000*%
%ADD16R,1.650000X1.900000*%
%ADD17R,0.800000X2.400000*%
%ADD18R,1.900000X1.700000*%
%ADD19R,1.050000X1.900000*%
%ADD20C,2.000000*%
%ADD21R,1.000000X2.600000*%
%ADD22R,1.416000X1.416000*%
%ADD23O,2.400000X1.900000*%
%ADD24R,2.400000X1.900000*%
%ADD25C,4.700000*%
G04 APERTURE END LIST*
D10*
D11*
X167435000Y-130540000D02*
X167435000Y-128540000D01*
X170385000Y-128540000D02*
X170385000Y-130540000D01*
X165520000Y-129024000D02*
X165520000Y-128024000D01*
X167220000Y-128024000D02*
X167220000Y-129024000D01*
X167552000Y-119595000D02*
X167577000Y-119595000D01*
X167552000Y-124245000D02*
X167577000Y-124245000D01*
X175602000Y-124245000D02*
X175577000Y-124245000D01*
X175602000Y-119595000D02*
X175577000Y-119595000D01*
X167552000Y-119595000D02*
X167552000Y-124245000D01*
X175602000Y-119595000D02*
X175602000Y-124245000D01*
X167577000Y-119595000D02*
X167577000Y-118520000D01*
X186020000Y-101995000D02*
X184820000Y-101995000D01*
X184820000Y-103745000D02*
X186020000Y-103745000D01*
X186020000Y-112155000D02*
X184820000Y-112155000D01*
X184820000Y-113905000D02*
X186020000Y-113905000D01*
X180305000Y-104154000D02*
X179105000Y-104154000D01*
X179105000Y-105904000D02*
X180305000Y-105904000D01*
X179105000Y-103745000D02*
X180305000Y-103745000D01*
X180305000Y-101995000D02*
X179105000Y-101995000D01*
X180305000Y-114314000D02*
X179105000Y-114314000D01*
X179105000Y-116064000D02*
X180305000Y-116064000D01*
X179105000Y-113905000D02*
X180305000Y-113905000D01*
X180305000Y-112155000D02*
X179105000Y-112155000D01*
X180305000Y-107456000D02*
X179105000Y-107456000D01*
X179105000Y-109206000D02*
X180305000Y-109206000D01*
X179105000Y-111365000D02*
X180305000Y-111365000D01*
X180305000Y-109615000D02*
X179105000Y-109615000D01*
X180305000Y-117616000D02*
X179105000Y-117616000D01*
X179105000Y-119366000D02*
X180305000Y-119366000D01*
X179105000Y-121525000D02*
X180305000Y-121525000D01*
X180305000Y-119775000D02*
X179105000Y-119775000D01*
X184820000Y-111365000D02*
X186020000Y-111365000D01*
X186020000Y-109615000D02*
X184820000Y-109615000D01*
X184820000Y-121525000D02*
X186020000Y-121525000D01*
X186020000Y-119775000D02*
X184820000Y-119775000D01*
X186020000Y-122315000D02*
X184820000Y-122315000D01*
X184820000Y-124065000D02*
X186020000Y-124065000D01*
X186020000Y-132475000D02*
X184820000Y-132475000D01*
X184820000Y-134225000D02*
X186020000Y-134225000D01*
X180305000Y-124474000D02*
X179105000Y-124474000D01*
X179105000Y-126224000D02*
X180305000Y-126224000D01*
X179105000Y-124065000D02*
X180305000Y-124065000D01*
X180305000Y-122315000D02*
X179105000Y-122315000D01*
X180305000Y-134634000D02*
X179105000Y-134634000D01*
X179105000Y-136384000D02*
X180305000Y-136384000D01*
X179105000Y-134225000D02*
X180305000Y-134225000D01*
X180305000Y-132475000D02*
X179105000Y-132475000D01*
X180305000Y-127776000D02*
X179105000Y-127776000D01*
X179105000Y-129526000D02*
X180305000Y-129526000D01*
X179105000Y-131685000D02*
X180305000Y-131685000D01*
X180305000Y-129935000D02*
X179105000Y-129935000D01*
X180432000Y-137936000D02*
X179232000Y-137936000D01*
X179232000Y-139686000D02*
X180432000Y-139686000D01*
X179232000Y-141845000D02*
X180432000Y-141845000D01*
X180432000Y-140095000D02*
X179232000Y-140095000D01*
X184820000Y-131685000D02*
X186020000Y-131685000D01*
X186020000Y-129935000D02*
X184820000Y-129935000D01*
X184820000Y-141845000D02*
X186020000Y-141845000D01*
X186020000Y-140095000D02*
X184820000Y-140095000D01*
X182423000Y-106280000D02*
G75*
G03X182423000Y-106280000I-100000J0D01*
G01*
X182573000Y-106930000D02*
X182573000Y-106430000D01*
X185473000Y-106930000D02*
X182573000Y-106930000D01*
X185473000Y-106430000D02*
X185473000Y-106930000D01*
X182573000Y-106430000D02*
X185473000Y-106430000D01*
X182296000Y-116440000D02*
G75*
G03X182296000Y-116440000I-100000J0D01*
G01*
X182446000Y-117090000D02*
X182446000Y-116590000D01*
X185346000Y-117090000D02*
X182446000Y-117090000D01*
X185346000Y-116590000D02*
X185346000Y-117090000D01*
X182446000Y-116590000D02*
X185346000Y-116590000D01*
X182296000Y-126600000D02*
G75*
G03X182296000Y-126600000I-100000J0D01*
G01*
X182446000Y-127250000D02*
X182446000Y-126750000D01*
X185346000Y-127250000D02*
X182446000Y-127250000D01*
X185346000Y-126750000D02*
X185346000Y-127250000D01*
X182446000Y-126750000D02*
X185346000Y-126750000D01*
X182296000Y-136760000D02*
G75*
G03X182296000Y-136760000I-100000J0D01*
G01*
X182446000Y-137410000D02*
X182446000Y-136910000D01*
X185346000Y-137410000D02*
X182446000Y-137410000D01*
X185346000Y-136910000D02*
X185346000Y-137410000D01*
X182446000Y-136910000D02*
X185346000Y-136910000D01*
X160436000Y-124122000D02*
X160291000Y-124122000D01*
X160436000Y-119972000D02*
X160291000Y-119972000D01*
X155286000Y-119972000D02*
X155431000Y-119972000D01*
X155286000Y-124122000D02*
X155431000Y-124122000D01*
X160436000Y-124122000D02*
X160436000Y-119972000D01*
X155286000Y-124122000D02*
X155286000Y-119972000D01*
X160291000Y-124122000D02*
X160291000Y-125522000D01*
X159678000Y-129024000D02*
X159678000Y-128024000D01*
X161378000Y-128024000D02*
X161378000Y-129024000D01*
D12*
X162814000Y-106426000D02*
X162814000Y-109855000D01*
X162814000Y-109855000D02*
X162814000Y-109982000D01*
X162814000Y-109982000D02*
X160782000Y-109982000D01*
X160782000Y-109982000D02*
X160782000Y-106426000D01*
X160782000Y-106426000D02*
X162814000Y-106426000D01*
X164592000Y-106426000D02*
X164592000Y-109855000D01*
X164592000Y-109855000D02*
X164592000Y-109982000D01*
X164592000Y-109982000D02*
X162560000Y-109982000D01*
X162560000Y-109982000D02*
X162560000Y-106426000D01*
X162560000Y-106426000D02*
X164592000Y-106426000D01*
X166370000Y-106426000D02*
X166370000Y-109855000D01*
X166370000Y-109855000D02*
X166370000Y-109982000D01*
X166370000Y-109982000D02*
X164338000Y-109982000D01*
X164338000Y-109982000D02*
X164338000Y-106426000D01*
X164338000Y-106426000D02*
X166370000Y-106426000D01*
D11*
X171902381Y-128897143D02*
X171902381Y-128325714D01*
X171902381Y-128611428D02*
X170902381Y-128611428D01*
X171045238Y-128516190D01*
X171140476Y-128420952D01*
X171188095Y-128325714D01*
X170902381Y-129516190D02*
X170902381Y-129611429D01*
X170950000Y-129706667D01*
X170997619Y-129754286D01*
X171092857Y-129801905D01*
X171283333Y-129849524D01*
X171521429Y-129849524D01*
X171711905Y-129801905D01*
X171807143Y-129754286D01*
X171854762Y-129706667D01*
X171902381Y-129611429D01*
X171902381Y-129516190D01*
X171854762Y-129420952D01*
X171807143Y-129373333D01*
X171711905Y-129325714D01*
X171521429Y-129278095D01*
X171283333Y-129278095D01*
X171092857Y-129325714D01*
X170997619Y-129373333D01*
X170950000Y-129420952D01*
X170902381Y-129516190D01*
X171235714Y-130706667D02*
X171902381Y-130706667D01*
X171235714Y-130278095D02*
X171759524Y-130278095D01*
X171854762Y-130325714D01*
X171902381Y-130420952D01*
X171902381Y-130563810D01*
X171854762Y-130659048D01*
X171807143Y-130706667D01*
X164377714Y-128262096D02*
X165044381Y-128262096D01*
X164377714Y-127833524D02*
X164901524Y-127833524D01*
X164996762Y-127881143D01*
X165044381Y-127976381D01*
X165044381Y-128119239D01*
X164996762Y-128214477D01*
X164949143Y-128262096D01*
X165044381Y-129262096D02*
X165044381Y-128690667D01*
X165044381Y-128976381D02*
X164044381Y-128976381D01*
X164187238Y-128881143D01*
X164282476Y-128785905D01*
X164330095Y-128690667D01*
X162413714Y-128262096D02*
X163080381Y-128262096D01*
X162413714Y-127833524D02*
X162937524Y-127833524D01*
X163032762Y-127881143D01*
X163080381Y-127976381D01*
X163080381Y-128119239D01*
X163032762Y-128214477D01*
X162985143Y-128262096D01*
X163080381Y-129262096D02*
X163080381Y-128690667D01*
X163080381Y-128976381D02*
X162080381Y-128976381D01*
X162223238Y-128881143D01*
X162318476Y-128785905D01*
X162366095Y-128690667D01*
D12*
X164028381Y-103267048D02*
X163028381Y-103267048D01*
X164028381Y-103743238D02*
X163028381Y-103743238D01*
X164028381Y-104314667D01*
X163028381Y-104314667D01*
X163028381Y-104648000D02*
X163028381Y-105219429D01*
X164028381Y-104933714D02*
X163028381Y-104933714D01*
X164028381Y-106076572D02*
X164028381Y-105505143D01*
X164028381Y-105790857D02*
X163028381Y-105790857D01*
X163171238Y-105695619D01*
X163266476Y-105600381D01*
X163314095Y-105505143D01*
X165552381Y-103267048D02*
X164552381Y-103267048D01*
X165552381Y-103743238D02*
X164552381Y-103743238D01*
X165552381Y-104314667D01*
X164552381Y-104314667D01*
X164552381Y-104648000D02*
X164552381Y-105219429D01*
X165552381Y-104933714D02*
X164552381Y-104933714D01*
X164647619Y-105505143D02*
X164600000Y-105552762D01*
X164552381Y-105648000D01*
X164552381Y-105886096D01*
X164600000Y-105981334D01*
X164647619Y-106028953D01*
X164742857Y-106076572D01*
X164838095Y-106076572D01*
X164980952Y-106028953D01*
X165552381Y-105457524D01*
X165552381Y-106076572D01*
X167076381Y-103267048D02*
X166076381Y-103267048D01*
X167076381Y-103743238D02*
X166076381Y-103743238D01*
X167076381Y-104314667D01*
X166076381Y-104314667D01*
X166076381Y-104648000D02*
X166076381Y-105219429D01*
X167076381Y-104933714D02*
X166076381Y-104933714D01*
X166076381Y-105457524D02*
X166076381Y-106076572D01*
X166457333Y-105743238D01*
X166457333Y-105886096D01*
X166504952Y-105981334D01*
X166552571Y-106028953D01*
X166647810Y-106076572D01*
X166885905Y-106076572D01*
X166981143Y-106028953D01*
X167028762Y-105981334D01*
X167076381Y-105886096D01*
X167076381Y-105600381D01*
X167028762Y-105505143D01*
X166981143Y-105457524D01*
%LPC*%
D13*
X169926000Y-114042000D03*
X169926000Y-111002000D03*
X167386000Y-111002000D03*
X167386000Y-114042000D03*
D14*
X159766000Y-114042000D03*
D13*
X159766000Y-111002000D03*
X162306000Y-114042000D03*
X162306000Y-111002000D03*
X164846000Y-114042000D03*
X164846000Y-111002000D03*
D15*
X168910000Y-127540000D03*
X168910000Y-131540000D03*
D16*
X166370000Y-127274000D03*
X166370000Y-129774000D03*
D17*
X168002000Y-118620000D03*
X175152000Y-125220000D03*
X168652000Y-118620000D03*
X169302000Y-118620000D03*
X169952000Y-118620000D03*
X170602000Y-118620000D03*
X171252000Y-118620000D03*
X171902000Y-118620000D03*
X172552000Y-118620000D03*
X173202000Y-118620000D03*
X173852000Y-118620000D03*
X174502000Y-118620000D03*
X175152000Y-118620000D03*
X174502000Y-125220000D03*
X173852000Y-125220000D03*
X173202000Y-125220000D03*
X172552000Y-125220000D03*
X171902000Y-125220000D03*
X171252000Y-125220000D03*
X170602000Y-125220000D03*
X169952000Y-125220000D03*
X169302000Y-125220000D03*
X168652000Y-125220000D03*
X168002000Y-125220000D03*
D18*
X184070000Y-102870000D03*
X186770000Y-102870000D03*
X184070000Y-113030000D03*
X186770000Y-113030000D03*
X178355000Y-105029000D03*
X181055000Y-105029000D03*
X181055000Y-102870000D03*
X178355000Y-102870000D03*
X178355000Y-115189000D03*
X181055000Y-115189000D03*
X181055000Y-113030000D03*
X178355000Y-113030000D03*
X178355000Y-108331000D03*
X181055000Y-108331000D03*
X181055000Y-110490000D03*
X178355000Y-110490000D03*
X178355000Y-118491000D03*
X181055000Y-118491000D03*
X181055000Y-120650000D03*
X178355000Y-120650000D03*
X186770000Y-110490000D03*
X184070000Y-110490000D03*
X186770000Y-120650000D03*
X184070000Y-120650000D03*
X184070000Y-123190000D03*
X186770000Y-123190000D03*
X184070000Y-133350000D03*
X186770000Y-133350000D03*
X178355000Y-125349000D03*
X181055000Y-125349000D03*
X181055000Y-123190000D03*
X178355000Y-123190000D03*
X178355000Y-135509000D03*
X181055000Y-135509000D03*
X181055000Y-133350000D03*
X178355000Y-133350000D03*
X178355000Y-128651000D03*
X181055000Y-128651000D03*
X181055000Y-130810000D03*
X178355000Y-130810000D03*
X178482000Y-138811000D03*
X181182000Y-138811000D03*
X181182000Y-140970000D03*
X178482000Y-140970000D03*
X186770000Y-130810000D03*
X184070000Y-130810000D03*
X186770000Y-140970000D03*
X184070000Y-140970000D03*
D19*
X183073000Y-105330000D03*
X184023000Y-105330000D03*
X184973000Y-105330000D03*
X184973000Y-108030000D03*
X183073000Y-108030000D03*
X184023000Y-108030000D03*
X182946000Y-115490000D03*
X183896000Y-115490000D03*
X184846000Y-115490000D03*
X184846000Y-118190000D03*
X182946000Y-118190000D03*
X183896000Y-118190000D03*
X182946000Y-125650000D03*
X183896000Y-125650000D03*
X184846000Y-125650000D03*
X184846000Y-128350000D03*
X182946000Y-128350000D03*
X183896000Y-128350000D03*
X182946000Y-135810000D03*
X183896000Y-135810000D03*
X184846000Y-135810000D03*
X184846000Y-138510000D03*
X182946000Y-138510000D03*
X183896000Y-138510000D03*
D20*
X155956000Y-127508000D03*
X155956000Y-132588000D03*
X158496000Y-127508000D03*
X158496000Y-132588000D03*
D21*
X159766000Y-125047000D03*
X158496000Y-125047000D03*
X157226000Y-125047000D03*
X155956000Y-125047000D03*
X155956000Y-119047000D03*
X157226000Y-119047000D03*
X158496000Y-119047000D03*
X159766000Y-119047000D03*
D16*
X160528000Y-127274000D03*
X160528000Y-129774000D03*
D22*
X161798000Y-108902500D03*
X161798000Y-107505500D03*
X163576000Y-108902500D03*
X163576000Y-107505500D03*
X165354000Y-108902500D03*
X165354000Y-107505500D03*
D23*
X191139000Y-140970000D03*
X194179000Y-140970000D03*
X191139000Y-135890000D03*
X194179000Y-135890000D03*
X194179000Y-138430000D03*
X191139000Y-138430000D03*
X191139000Y-133350000D03*
X194179000Y-133350000D03*
X194179000Y-130810000D03*
X191139000Y-130810000D03*
X191139000Y-128270000D03*
X194179000Y-128270000D03*
X194179000Y-125730000D03*
X191139000Y-125730000D03*
X191139000Y-123190000D03*
X194179000Y-123190000D03*
X194179000Y-120650000D03*
X191139000Y-120650000D03*
X191139000Y-118110000D03*
X194179000Y-118110000D03*
X194179000Y-115570000D03*
X191139000Y-115570000D03*
X191139000Y-113030000D03*
X194179000Y-113030000D03*
X194179000Y-110490000D03*
X191139000Y-110490000D03*
D24*
X191139000Y-102870000D03*
D23*
X194179000Y-102870000D03*
X191139000Y-105410000D03*
X194179000Y-105410000D03*
X191139000Y-107950000D03*
X194179000Y-107950000D03*
D25*
X170180000Y-137160000D03*
X159000000Y-102000000D03*
M02*
