M48
METRIC,TZ
T1C0.400
T2C0.900
T3C1.000
T4C4.300
%
G90
G05
T1
X158.496Y-120.777
X159.766Y-123.444
X162.052Y-120.65
X166.878Y-123.444
X168.529Y-120.269
X169.418Y-120.269
X170.053Y-123.571
X176.657Y-107.061
X176.657Y-116.332
X176.657Y-127.
X176.657Y-136.398
X176.911Y-137.922
X177.165Y-140.462
X177.292Y-102.87
X177.292Y-105.029
X177.292Y-108.331
X177.292Y-110.49
X177.292Y-113.03
X177.292Y-115.189
X177.292Y-118.491
X177.292Y-120.65
X177.292Y-123.19
X177.292Y-125.349
X177.292Y-128.651
X177.292Y-130.81
X177.292Y-133.35
X177.292Y-135.509
X182.753Y-114.427
X182.753Y-119.38
X182.753Y-124.46
X182.753Y-129.54
X182.753Y-134.62
X182.753Y-139.7
X182.88Y-104.14
X182.88Y-109.22
T2
X155.956Y-127.508
X155.956Y-132.588
X158.496Y-127.508
X158.496Y-132.588
T3
X159.766Y-111.252
X159.766Y-113.792
X162.306Y-111.252
X162.306Y-113.792
X164.846Y-111.252
X164.846Y-113.792
X167.386Y-111.252
X167.386Y-113.792
X169.926Y-111.252
X169.926Y-113.792
X191.389Y-102.87
X191.389Y-105.41
X191.389Y-107.95
X191.389Y-110.49
X191.389Y-113.03
X191.389Y-115.57
X191.389Y-118.11
X191.389Y-120.65
X191.389Y-123.19
X191.389Y-125.73
X191.389Y-128.27
X191.389Y-130.81
X191.389Y-133.35
X191.389Y-135.89
X191.389Y-138.43
X191.389Y-140.97
X193.929Y-102.87
X193.929Y-105.41
X193.929Y-107.95
X193.929Y-110.49
X193.929Y-113.03
X193.929Y-115.57
X193.929Y-118.11
X193.929Y-120.65
X193.929Y-123.19
X193.929Y-125.73
X193.929Y-128.27
X193.929Y-130.81
X193.929Y-133.35
X193.929Y-135.89
X193.929Y-138.43
X193.929Y-140.97
T4
X159.Y-102.
X170.18Y-137.16
T0
M30
