G04 #@! TF.FileFunction,Copper,L1,Top,Signal*
%FSLAX46Y46*%
G04 Gerber Fmt 4.6, Leading zero omitted, Abs format (unit mm)*
G04 Created by KiCad (PCBNEW 4.0.4-stable) date 12/22/16 08:09:43*
%MOMM*%
%LPD*%
G01*
G04 APERTURE LIST*
%ADD10C,0.100000*%
%ADD11O,1.500000X2.000000*%
%ADD12R,1.500000X2.000000*%
%ADD13R,1.500000X1.250000*%
%ADD14R,2.000000X1.000000*%
%ADD15R,1.500000X1.300000*%
%ADD16R,1.000000X2.000000*%
%ADD17C,1.600000*%
%ADD18O,2.000000X1.500000*%
%ADD19R,2.000000X1.500000*%
%ADD20C,0.600000*%
%ADD21C,0.250000*%
%ADD22C,0.400000*%
G04 APERTURE END LIST*
D10*
D11*
X169926000Y-114042000D03*
X169926000Y-111002000D03*
X167386000Y-111002000D03*
X167386000Y-114042000D03*
D12*
X159766000Y-114042000D03*
D11*
X159766000Y-111002000D03*
X162306000Y-114042000D03*
X162306000Y-111002000D03*
X164846000Y-114042000D03*
X164846000Y-111002000D03*
D13*
X178455000Y-105029000D03*
X180955000Y-105029000D03*
X178455000Y-102870000D03*
X180955000Y-102870000D03*
X178455000Y-115189000D03*
X180955000Y-115189000D03*
X178455000Y-113030000D03*
X180955000Y-113030000D03*
X180955000Y-108331000D03*
X178455000Y-108331000D03*
X180955000Y-110490000D03*
X178455000Y-110490000D03*
X180955000Y-118491000D03*
X178455000Y-118491000D03*
X180955000Y-120650000D03*
X178455000Y-120650000D03*
X178455000Y-125349000D03*
X180955000Y-125349000D03*
X178455000Y-123190000D03*
X180955000Y-123190000D03*
X178455000Y-135509000D03*
X180955000Y-135509000D03*
X178455000Y-133350000D03*
X180955000Y-133350000D03*
X180955000Y-128651000D03*
X178455000Y-128651000D03*
X180955000Y-130810000D03*
X178455000Y-130810000D03*
X181082000Y-138811000D03*
X178582000Y-138811000D03*
X181082000Y-140970000D03*
X178582000Y-140970000D03*
D14*
X170942000Y-118688000D03*
X170942000Y-119888000D03*
X170942000Y-121088000D03*
X166878000Y-118688000D03*
X166878000Y-119888000D03*
X166878000Y-121088000D03*
X171704000Y-125152000D03*
X171704000Y-123952000D03*
X171704000Y-122752000D03*
D15*
X184070000Y-102870000D03*
X186770000Y-102870000D03*
X184070000Y-113030000D03*
X186770000Y-113030000D03*
X186770000Y-110490000D03*
X184070000Y-110490000D03*
X186770000Y-120650000D03*
X184070000Y-120650000D03*
X184070000Y-123190000D03*
X186770000Y-123190000D03*
X184070000Y-133350000D03*
X186770000Y-133350000D03*
X186770000Y-130810000D03*
X184070000Y-130810000D03*
X186770000Y-140970000D03*
X184070000Y-140970000D03*
D16*
X163506000Y-118872000D03*
X162306000Y-118872000D03*
X161106000Y-118872000D03*
X157296000Y-118872000D03*
X158496000Y-118872000D03*
X159696000Y-118872000D03*
D17*
X155956000Y-127508000D03*
X155956000Y-132588000D03*
X158496000Y-127508000D03*
X158496000Y-132588000D03*
D18*
X191139000Y-140970000D03*
X194179000Y-140970000D03*
X191139000Y-135890000D03*
X194179000Y-135890000D03*
X194179000Y-138430000D03*
X191139000Y-138430000D03*
X191139000Y-133350000D03*
X194179000Y-133350000D03*
X194179000Y-130810000D03*
X191139000Y-130810000D03*
X191139000Y-128270000D03*
X194179000Y-128270000D03*
X194179000Y-125730000D03*
X191139000Y-125730000D03*
X191139000Y-123190000D03*
X194179000Y-123190000D03*
X194179000Y-120650000D03*
X191139000Y-120650000D03*
X191139000Y-118110000D03*
X194179000Y-118110000D03*
X194179000Y-115570000D03*
X191139000Y-115570000D03*
X191139000Y-113030000D03*
X194179000Y-113030000D03*
X194179000Y-110490000D03*
X191139000Y-110490000D03*
D19*
X191139000Y-102870000D03*
D18*
X194179000Y-102870000D03*
X191139000Y-105410000D03*
X194179000Y-105410000D03*
X191139000Y-107950000D03*
X194179000Y-107950000D03*
D20*
X166878000Y-123444000D03*
X159766000Y-123444000D03*
X176657000Y-136398000D03*
X176657000Y-107061000D03*
X176657000Y-116332000D03*
X176657000Y-127000000D03*
X177292000Y-102870000D03*
X177292000Y-105029000D03*
X177292000Y-113030000D03*
X177292000Y-115189000D03*
X177292000Y-110490000D03*
X177292000Y-108331000D03*
X177292000Y-120650000D03*
X177292000Y-118491000D03*
X177292000Y-123190000D03*
X177292000Y-125349000D03*
X177292000Y-133350000D03*
X177292000Y-135509000D03*
X177292000Y-130810000D03*
X177292000Y-128651000D03*
X177165000Y-140462000D03*
X176911000Y-137922000D03*
X168529000Y-120269000D03*
X169418000Y-120269000D03*
X170053000Y-123571000D03*
X182880000Y-104140000D03*
X182753000Y-114427000D03*
X182880000Y-109220000D03*
X182753000Y-119380000D03*
X182753000Y-124460000D03*
X182753000Y-134620000D03*
X182753000Y-129540000D03*
X182753000Y-139700000D03*
X162052000Y-120650000D03*
X158496000Y-120777000D03*
D21*
X161106000Y-118872000D02*
X159696000Y-118872000D01*
D22*
X159709000Y-116713000D02*
X159709000Y-113849000D01*
X159709000Y-113849000D02*
X159766000Y-113792000D01*
X166878000Y-121088000D02*
X166878000Y-123444000D01*
X171704000Y-122752000D02*
X170942000Y-121990000D01*
X170942000Y-121990000D02*
X170942000Y-121088000D01*
D21*
X171704000Y-122752000D02*
X171704000Y-122428000D01*
D22*
X166878000Y-123444000D02*
X167570000Y-122752000D01*
X176657000Y-122752000D02*
X171704000Y-122752000D01*
X167570000Y-122752000D02*
X171704000Y-122752000D01*
X159766000Y-118942000D02*
X159766000Y-123444000D01*
X159696000Y-118872000D02*
X159766000Y-118942000D01*
X159696000Y-118872000D02*
X159709000Y-118859000D01*
X159709000Y-118859000D02*
X159709000Y-116713000D01*
D21*
X176657000Y-133985000D02*
X176657000Y-136398000D01*
X176657000Y-122752000D02*
X176657000Y-122682000D01*
X176657000Y-116332000D02*
X176657000Y-107061000D01*
X176657000Y-127000000D02*
X176657000Y-122682000D01*
X176657000Y-122682000D02*
X176657000Y-116332000D01*
X176657000Y-133985000D02*
X176657000Y-127000000D01*
X178455000Y-102870000D02*
X177292000Y-102870000D01*
X177292000Y-105029000D02*
X178455000Y-105029000D01*
X178455000Y-113030000D02*
X177292000Y-113030000D01*
X177292000Y-115189000D02*
X178455000Y-115189000D01*
X177292000Y-110490000D02*
X178455000Y-110490000D01*
X178455000Y-108331000D02*
X177292000Y-108331000D01*
X177292000Y-120650000D02*
X178455000Y-120650000D01*
X178455000Y-118491000D02*
X177292000Y-118491000D01*
X178455000Y-123190000D02*
X177292000Y-123190000D01*
X177292000Y-125349000D02*
X178455000Y-125349000D01*
X177292000Y-133350000D02*
X178455000Y-133350000D01*
X178455000Y-135509000D02*
X177292000Y-135509000D01*
X178455000Y-130810000D02*
X177292000Y-130810000D01*
X178455000Y-128651000D02*
X177292000Y-128651000D01*
X177165000Y-140462000D02*
X178074000Y-140462000D01*
X178074000Y-140462000D02*
X178582000Y-140970000D01*
X177693000Y-137922000D02*
X178582000Y-138811000D01*
X176911000Y-137922000D02*
X177693000Y-137922000D01*
X168529000Y-120269000D02*
X168402000Y-120142000D01*
X168402000Y-120142000D02*
X167132000Y-120142000D01*
X167132000Y-120142000D02*
X166878000Y-119888000D01*
X169418000Y-120269000D02*
X169545000Y-120142000D01*
X169545000Y-120142000D02*
X170688000Y-120142000D01*
X170688000Y-120142000D02*
X170942000Y-119888000D01*
X170053000Y-123571000D02*
X170180000Y-123698000D01*
X170180000Y-123698000D02*
X171450000Y-123698000D01*
X171450000Y-123698000D02*
X171704000Y-123952000D01*
X186770000Y-102870000D02*
X189310000Y-105410000D01*
X189310000Y-105410000D02*
X191389000Y-105410000D01*
X186770000Y-110490000D02*
X189310000Y-107950000D01*
X189310000Y-107950000D02*
X191389000Y-107950000D01*
X186770000Y-113030000D02*
X189310000Y-115570000D01*
X189310000Y-115570000D02*
X191389000Y-115570000D01*
X186770000Y-120650000D02*
X189310000Y-118110000D01*
X189310000Y-118110000D02*
X191389000Y-118110000D01*
X186770000Y-123190000D02*
X189310000Y-125730000D01*
X189310000Y-125730000D02*
X191389000Y-125730000D01*
X186770000Y-130810000D02*
X189310000Y-128270000D01*
X189310000Y-128270000D02*
X191389000Y-128270000D01*
X186770000Y-133350000D02*
X189310000Y-135890000D01*
X189310000Y-135890000D02*
X191389000Y-135890000D01*
X186770000Y-140970000D02*
X189310000Y-138430000D01*
X189310000Y-138430000D02*
X191389000Y-138430000D01*
X184070000Y-102870000D02*
X182880000Y-104060000D01*
X182880000Y-104060000D02*
X182880000Y-104140000D01*
X184070000Y-113030000D02*
X182753000Y-114347000D01*
X182753000Y-114347000D02*
X182753000Y-114427000D01*
X184070000Y-110490000D02*
X182880000Y-109300000D01*
X182880000Y-109300000D02*
X182880000Y-109220000D01*
X184070000Y-120650000D02*
X182800000Y-119380000D01*
X182800000Y-119380000D02*
X182753000Y-119380000D01*
X184070000Y-123190000D02*
X182800000Y-124460000D01*
X182800000Y-124460000D02*
X182753000Y-124460000D01*
X184070000Y-133350000D02*
X182800000Y-134620000D01*
X182800000Y-134620000D02*
X182753000Y-134620000D01*
X184070000Y-130810000D02*
X182800000Y-129540000D01*
X182800000Y-129540000D02*
X182753000Y-129540000D01*
X184070000Y-140970000D02*
X182800000Y-139700000D01*
X182800000Y-139700000D02*
X182753000Y-139700000D01*
X162306000Y-118872000D02*
X162306000Y-120396000D01*
X162306000Y-120396000D02*
X162052000Y-120650000D01*
X158496000Y-120777000D02*
X158496000Y-118872000D01*
G36*
X197050000Y-146050000D02*
X154950000Y-146050000D01*
X154950000Y-142500000D01*
X166550000Y-142500000D01*
X166550000Y-144500000D01*
X166584254Y-144672208D01*
X166681802Y-144818198D01*
X166827792Y-144915746D01*
X167000000Y-144950000D01*
X173000000Y-144950000D01*
X173172208Y-144915746D01*
X173318198Y-144818198D01*
X173415746Y-144672208D01*
X173450000Y-144500000D01*
X173450000Y-142500000D01*
X173415746Y-142327792D01*
X173318198Y-142181802D01*
X173172208Y-142084254D01*
X173000000Y-142050000D01*
X167000000Y-142050000D01*
X166827792Y-142084254D01*
X166681802Y-142181802D01*
X166584254Y-142327792D01*
X166550000Y-142500000D01*
X154950000Y-142500000D01*
X154950000Y-140595677D01*
X176489883Y-140595677D01*
X176592429Y-140843857D01*
X176782144Y-141033903D01*
X177030145Y-141136883D01*
X177298677Y-141137117D01*
X177449654Y-141074735D01*
X177449654Y-141595000D01*
X177475802Y-141733966D01*
X177557931Y-141861599D01*
X177683246Y-141947223D01*
X177832000Y-141977346D01*
X179332000Y-141977346D01*
X179470966Y-141951198D01*
X179598599Y-141869069D01*
X179684223Y-141743754D01*
X179714346Y-141595000D01*
X179714346Y-141068750D01*
X179957000Y-141068750D01*
X179957000Y-141669592D01*
X180014090Y-141807421D01*
X180119580Y-141912910D01*
X180257408Y-141970000D01*
X180983250Y-141970000D01*
X181077000Y-141876250D01*
X181077000Y-140975000D01*
X181087000Y-140975000D01*
X181087000Y-141876250D01*
X181180750Y-141970000D01*
X181906592Y-141970000D01*
X182044420Y-141912910D01*
X182149910Y-141807421D01*
X182207000Y-141669592D01*
X182207000Y-141068750D01*
X182113250Y-140975000D01*
X181087000Y-140975000D01*
X181077000Y-140975000D01*
X180050750Y-140975000D01*
X179957000Y-141068750D01*
X179714346Y-141068750D01*
X179714346Y-140345000D01*
X179700311Y-140270408D01*
X179957000Y-140270408D01*
X179957000Y-140871250D01*
X180050750Y-140965000D01*
X181077000Y-140965000D01*
X181077000Y-140063750D01*
X181087000Y-140063750D01*
X181087000Y-140965000D01*
X182113250Y-140965000D01*
X182207000Y-140871250D01*
X182207000Y-140270408D01*
X182149910Y-140132579D01*
X182044420Y-140027090D01*
X181906592Y-139970000D01*
X181180750Y-139970000D01*
X181087000Y-140063750D01*
X181077000Y-140063750D01*
X180983250Y-139970000D01*
X180257408Y-139970000D01*
X180119580Y-140027090D01*
X180014090Y-140132579D01*
X179957000Y-140270408D01*
X179700311Y-140270408D01*
X179688198Y-140206034D01*
X179606069Y-140078401D01*
X179480754Y-139992777D01*
X179332000Y-139962654D01*
X178077288Y-139962654D01*
X178074000Y-139962000D01*
X177619634Y-139962000D01*
X177547856Y-139890097D01*
X177299855Y-139787117D01*
X177031323Y-139786883D01*
X176783143Y-139889429D01*
X176593097Y-140079144D01*
X176490117Y-140327145D01*
X176489883Y-140595677D01*
X154950000Y-140595677D01*
X154950000Y-137660050D01*
X167654562Y-137660050D01*
X168038161Y-138588429D01*
X168747835Y-139299343D01*
X169675543Y-139684561D01*
X170680050Y-139685438D01*
X171608429Y-139301839D01*
X172319343Y-138592165D01*
X172542112Y-138055677D01*
X176235883Y-138055677D01*
X176338429Y-138303857D01*
X176528144Y-138493903D01*
X176776145Y-138596883D01*
X177044677Y-138597117D01*
X177292857Y-138494571D01*
X177365555Y-138422000D01*
X177449654Y-138422000D01*
X177449654Y-139436000D01*
X177475802Y-139574966D01*
X177557931Y-139702599D01*
X177683246Y-139788223D01*
X177832000Y-139818346D01*
X179332000Y-139818346D01*
X179470966Y-139792198D01*
X179598599Y-139710069D01*
X179684223Y-139584754D01*
X179714346Y-139436000D01*
X179714346Y-138909750D01*
X179957000Y-138909750D01*
X179957000Y-139510592D01*
X180014090Y-139648421D01*
X180119580Y-139753910D01*
X180257408Y-139811000D01*
X180983250Y-139811000D01*
X181077000Y-139717250D01*
X181077000Y-138816000D01*
X181087000Y-138816000D01*
X181087000Y-139717250D01*
X181180750Y-139811000D01*
X181906592Y-139811000D01*
X182044420Y-139753910D01*
X182077982Y-139720349D01*
X182077883Y-139833677D01*
X182180429Y-140081857D01*
X182370144Y-140271903D01*
X182618145Y-140374883D01*
X182767907Y-140375014D01*
X182937654Y-140544760D01*
X182937654Y-141620000D01*
X182963802Y-141758966D01*
X183045931Y-141886599D01*
X183171246Y-141972223D01*
X183320000Y-142002346D01*
X184820000Y-142002346D01*
X184958966Y-141976198D01*
X185086599Y-141894069D01*
X185172223Y-141768754D01*
X185202346Y-141620000D01*
X185202346Y-140320000D01*
X185637654Y-140320000D01*
X185637654Y-141620000D01*
X185663802Y-141758966D01*
X185745931Y-141886599D01*
X185871246Y-141972223D01*
X186020000Y-142002346D01*
X187520000Y-142002346D01*
X187658966Y-141976198D01*
X187786599Y-141894069D01*
X187872223Y-141768754D01*
X187902346Y-141620000D01*
X187902346Y-140970000D01*
X189737062Y-140970000D01*
X189822698Y-141400519D01*
X190066567Y-141765495D01*
X190431543Y-142009364D01*
X190862062Y-142095000D01*
X191415938Y-142095000D01*
X191846457Y-142009364D01*
X192211433Y-141765495D01*
X192455302Y-141400519D01*
X192504949Y-141150925D01*
X192818644Y-141150925D01*
X192887723Y-141395900D01*
X193129970Y-141761960D01*
X193493862Y-142007451D01*
X193924000Y-142095000D01*
X194174000Y-142095000D01*
X194174000Y-140975000D01*
X194184000Y-140975000D01*
X194184000Y-142095000D01*
X194434000Y-142095000D01*
X194864138Y-142007451D01*
X195228030Y-141761960D01*
X195470277Y-141395900D01*
X195539356Y-141150925D01*
X195460238Y-140975000D01*
X194184000Y-140975000D01*
X194174000Y-140975000D01*
X192897762Y-140975000D01*
X192818644Y-141150925D01*
X192504949Y-141150925D01*
X192540938Y-140970000D01*
X192504950Y-140789075D01*
X192818644Y-140789075D01*
X192897762Y-140965000D01*
X194174000Y-140965000D01*
X194174000Y-139845000D01*
X194184000Y-139845000D01*
X194184000Y-140965000D01*
X195460238Y-140965000D01*
X195539356Y-140789075D01*
X195470277Y-140544100D01*
X195228030Y-140178040D01*
X194864138Y-139932549D01*
X194434000Y-139845000D01*
X194184000Y-139845000D01*
X194174000Y-139845000D01*
X193924000Y-139845000D01*
X193493862Y-139932549D01*
X193129970Y-140178040D01*
X192887723Y-140544100D01*
X192818644Y-140789075D01*
X192504950Y-140789075D01*
X192455302Y-140539481D01*
X192211433Y-140174505D01*
X191846457Y-139930636D01*
X191415938Y-139845000D01*
X190862062Y-139845000D01*
X190431543Y-139930636D01*
X190066567Y-140174505D01*
X189822698Y-140539481D01*
X189737062Y-140970000D01*
X187902346Y-140970000D01*
X187902346Y-140544760D01*
X189517107Y-138930000D01*
X189869124Y-138930000D01*
X190066567Y-139225495D01*
X190431543Y-139469364D01*
X190862062Y-139555000D01*
X191415938Y-139555000D01*
X191846457Y-139469364D01*
X192211433Y-139225495D01*
X192455302Y-138860519D01*
X192504949Y-138610925D01*
X192818644Y-138610925D01*
X192887723Y-138855900D01*
X193129970Y-139221960D01*
X193493862Y-139467451D01*
X193924000Y-139555000D01*
X194174000Y-139555000D01*
X194174000Y-138435000D01*
X194184000Y-138435000D01*
X194184000Y-139555000D01*
X194434000Y-139555000D01*
X194864138Y-139467451D01*
X195228030Y-139221960D01*
X195470277Y-138855900D01*
X195539356Y-138610925D01*
X195460238Y-138435000D01*
X194184000Y-138435000D01*
X194174000Y-138435000D01*
X192897762Y-138435000D01*
X192818644Y-138610925D01*
X192504949Y-138610925D01*
X192540938Y-138430000D01*
X192504950Y-138249075D01*
X192818644Y-138249075D01*
X192897762Y-138425000D01*
X194174000Y-138425000D01*
X194174000Y-137305000D01*
X194184000Y-137305000D01*
X194184000Y-138425000D01*
X195460238Y-138425000D01*
X195539356Y-138249075D01*
X195470277Y-138004100D01*
X195228030Y-137638040D01*
X194864138Y-137392549D01*
X194434000Y-137305000D01*
X194184000Y-137305000D01*
X194174000Y-137305000D01*
X193924000Y-137305000D01*
X193493862Y-137392549D01*
X193129970Y-137638040D01*
X192887723Y-138004100D01*
X192818644Y-138249075D01*
X192504950Y-138249075D01*
X192455302Y-137999481D01*
X192211433Y-137634505D01*
X191846457Y-137390636D01*
X191415938Y-137305000D01*
X190862062Y-137305000D01*
X190431543Y-137390636D01*
X190066567Y-137634505D01*
X189869124Y-137930000D01*
X189310000Y-137930000D01*
X189118658Y-137968060D01*
X188956446Y-138076447D01*
X187095240Y-139937654D01*
X186020000Y-139937654D01*
X185881034Y-139963802D01*
X185753401Y-140045931D01*
X185667777Y-140171246D01*
X185637654Y-140320000D01*
X185202346Y-140320000D01*
X185176198Y-140181034D01*
X185094069Y-140053401D01*
X184968754Y-139967777D01*
X184820000Y-139937654D01*
X183744760Y-139937654D01*
X183428069Y-139620963D01*
X183428117Y-139566323D01*
X183325571Y-139318143D01*
X183135856Y-139128097D01*
X182887855Y-139025117D01*
X182619323Y-139024883D01*
X182371143Y-139127429D01*
X182207000Y-139291286D01*
X182207000Y-138909750D01*
X182113250Y-138816000D01*
X181087000Y-138816000D01*
X181077000Y-138816000D01*
X180050750Y-138816000D01*
X179957000Y-138909750D01*
X179714346Y-138909750D01*
X179714346Y-138186000D01*
X179700311Y-138111408D01*
X179957000Y-138111408D01*
X179957000Y-138712250D01*
X180050750Y-138806000D01*
X181077000Y-138806000D01*
X181077000Y-137904750D01*
X181087000Y-137904750D01*
X181087000Y-138806000D01*
X182113250Y-138806000D01*
X182207000Y-138712250D01*
X182207000Y-138111408D01*
X182149910Y-137973579D01*
X182044420Y-137868090D01*
X181906592Y-137811000D01*
X181180750Y-137811000D01*
X181087000Y-137904750D01*
X181077000Y-137904750D01*
X180983250Y-137811000D01*
X180257408Y-137811000D01*
X180119580Y-137868090D01*
X180014090Y-137973579D01*
X179957000Y-138111408D01*
X179700311Y-138111408D01*
X179688198Y-138047034D01*
X179606069Y-137919401D01*
X179480754Y-137833777D01*
X179332000Y-137803654D01*
X178281760Y-137803654D01*
X178046553Y-137568447D01*
X177884342Y-137460060D01*
X177693000Y-137422000D01*
X177365634Y-137422000D01*
X177293856Y-137350097D01*
X177045855Y-137247117D01*
X176777323Y-137246883D01*
X176529143Y-137349429D01*
X176339097Y-137539144D01*
X176236117Y-137787145D01*
X176235883Y-138055677D01*
X172542112Y-138055677D01*
X172704561Y-137664457D01*
X172705438Y-136659950D01*
X172321839Y-135731571D01*
X171612165Y-135020657D01*
X170684457Y-134635439D01*
X169679950Y-134634562D01*
X168751571Y-135018161D01*
X168040657Y-135727835D01*
X167655439Y-136655543D01*
X167654562Y-137660050D01*
X154950000Y-137660050D01*
X154950000Y-133372365D01*
X155178707Y-133372365D01*
X155255872Y-133560149D01*
X155681191Y-133754076D01*
X156148348Y-133770478D01*
X156586221Y-133606860D01*
X156656128Y-133560149D01*
X156733293Y-133372365D01*
X155956000Y-132595071D01*
X155178707Y-133372365D01*
X154950000Y-133372365D01*
X154950000Y-133237467D01*
X154983851Y-133288128D01*
X155171635Y-133365293D01*
X155948929Y-132588000D01*
X155963071Y-132588000D01*
X156740365Y-133365293D01*
X156928149Y-133288128D01*
X157122076Y-132862809D01*
X157123554Y-132820697D01*
X157320796Y-132820697D01*
X157499302Y-133252715D01*
X157829547Y-133583536D01*
X158261253Y-133762796D01*
X158728697Y-133763204D01*
X159160715Y-133584698D01*
X159491536Y-133254453D01*
X159670796Y-132822747D01*
X159671204Y-132355303D01*
X159492698Y-131923285D01*
X159162453Y-131592464D01*
X158730747Y-131413204D01*
X158263303Y-131412796D01*
X157831285Y-131591302D01*
X157500464Y-131921547D01*
X157321204Y-132353253D01*
X157320796Y-132820697D01*
X157123554Y-132820697D01*
X157138478Y-132395652D01*
X156974860Y-131957779D01*
X156928149Y-131887872D01*
X156740365Y-131810707D01*
X155963071Y-132588000D01*
X155948929Y-132588000D01*
X155171635Y-131810707D01*
X154983851Y-131887872D01*
X154950000Y-131962114D01*
X154950000Y-131803635D01*
X155178707Y-131803635D01*
X155956000Y-132580929D01*
X156733293Y-131803635D01*
X156656128Y-131615851D01*
X156230809Y-131421924D01*
X155763652Y-131405522D01*
X155325779Y-131569140D01*
X155255872Y-131615851D01*
X155178707Y-131803635D01*
X154950000Y-131803635D01*
X154950000Y-128292365D01*
X155178707Y-128292365D01*
X155255872Y-128480149D01*
X155681191Y-128674076D01*
X156148348Y-128690478D01*
X156586221Y-128526860D01*
X156656128Y-128480149D01*
X156733293Y-128292365D01*
X155956000Y-127515071D01*
X155178707Y-128292365D01*
X154950000Y-128292365D01*
X154950000Y-128157467D01*
X154983851Y-128208128D01*
X155171635Y-128285293D01*
X155948929Y-127508000D01*
X155963071Y-127508000D01*
X156740365Y-128285293D01*
X156928149Y-128208128D01*
X157122076Y-127782809D01*
X157123554Y-127740697D01*
X157320796Y-127740697D01*
X157499302Y-128172715D01*
X157829547Y-128503536D01*
X158261253Y-128682796D01*
X158728697Y-128683204D01*
X159160715Y-128504698D01*
X159491536Y-128174453D01*
X159670796Y-127742747D01*
X159671204Y-127275303D01*
X159492698Y-126843285D01*
X159162453Y-126512464D01*
X158730747Y-126333204D01*
X158263303Y-126332796D01*
X157831285Y-126511302D01*
X157500464Y-126841547D01*
X157321204Y-127273253D01*
X157320796Y-127740697D01*
X157123554Y-127740697D01*
X157138478Y-127315652D01*
X156974860Y-126877779D01*
X156928149Y-126807872D01*
X156740365Y-126730707D01*
X155963071Y-127508000D01*
X155948929Y-127508000D01*
X155171635Y-126730707D01*
X154983851Y-126807872D01*
X154950000Y-126882114D01*
X154950000Y-126723635D01*
X155178707Y-126723635D01*
X155956000Y-127500929D01*
X156733293Y-126723635D01*
X156656128Y-126535851D01*
X156230809Y-126341924D01*
X155763652Y-126325522D01*
X155325779Y-126489140D01*
X155255872Y-126535851D01*
X155178707Y-126723635D01*
X154950000Y-126723635D01*
X154950000Y-125250750D01*
X170329000Y-125250750D01*
X170329000Y-125726592D01*
X170386090Y-125864420D01*
X170491579Y-125969910D01*
X170629408Y-126027000D01*
X171605250Y-126027000D01*
X171699000Y-125933250D01*
X171699000Y-125157000D01*
X171709000Y-125157000D01*
X171709000Y-125933250D01*
X171802750Y-126027000D01*
X172778592Y-126027000D01*
X172916421Y-125969910D01*
X173021910Y-125864420D01*
X173079000Y-125726592D01*
X173079000Y-125250750D01*
X172985250Y-125157000D01*
X171709000Y-125157000D01*
X171699000Y-125157000D01*
X170422750Y-125157000D01*
X170329000Y-125250750D01*
X154950000Y-125250750D01*
X154950000Y-118970750D01*
X156421000Y-118970750D01*
X156421000Y-119946592D01*
X156478090Y-120084421D01*
X156583580Y-120189910D01*
X156721408Y-120247000D01*
X157197250Y-120247000D01*
X157291000Y-120153250D01*
X157291000Y-118877000D01*
X156514750Y-118877000D01*
X156421000Y-118970750D01*
X154950000Y-118970750D01*
X154950000Y-117797408D01*
X156421000Y-117797408D01*
X156421000Y-118773250D01*
X156514750Y-118867000D01*
X157291000Y-118867000D01*
X157291000Y-117590750D01*
X157301000Y-117590750D01*
X157301000Y-118867000D01*
X157321000Y-118867000D01*
X157321000Y-118877000D01*
X157301000Y-118877000D01*
X157301000Y-120153250D01*
X157394750Y-120247000D01*
X157870592Y-120247000D01*
X157899859Y-120234877D01*
X157996000Y-120254346D01*
X157996000Y-120322366D01*
X157924097Y-120394144D01*
X157821117Y-120642145D01*
X157820883Y-120910677D01*
X157923429Y-121158857D01*
X158113144Y-121348903D01*
X158361145Y-121451883D01*
X158629677Y-121452117D01*
X158877857Y-121349571D01*
X159067903Y-121159856D01*
X159170883Y-120911855D01*
X159171117Y-120643323D01*
X159068571Y-120395143D01*
X158996000Y-120322445D01*
X158996000Y-120254346D01*
X159099671Y-120234839D01*
X159191000Y-120253333D01*
X159191000Y-123068602D01*
X159091117Y-123309145D01*
X159090883Y-123577677D01*
X159193429Y-123825857D01*
X159383144Y-124015903D01*
X159631145Y-124118883D01*
X159899677Y-124119117D01*
X160147857Y-124016571D01*
X160337903Y-123826856D01*
X160440883Y-123578855D01*
X160441117Y-123310323D01*
X160341000Y-123068022D01*
X160341000Y-120224315D01*
X160400936Y-120185748D01*
X160457246Y-120224223D01*
X160606000Y-120254346D01*
X161492917Y-120254346D01*
X161480097Y-120267144D01*
X161377117Y-120515145D01*
X161376883Y-120783677D01*
X161479429Y-121031857D01*
X161669144Y-121221903D01*
X161917145Y-121324883D01*
X162185677Y-121325117D01*
X162433857Y-121222571D01*
X162623903Y-121032856D01*
X162726883Y-120784855D01*
X162727002Y-120648610D01*
X162767940Y-120587342D01*
X162775119Y-120551250D01*
X162806000Y-120396000D01*
X162806000Y-120254346D01*
X162904430Y-120235825D01*
X162931408Y-120247000D01*
X163407250Y-120247000D01*
X163501000Y-120153250D01*
X163501000Y-118877000D01*
X163511000Y-118877000D01*
X163511000Y-120153250D01*
X163604750Y-120247000D01*
X164080592Y-120247000D01*
X164218420Y-120189910D01*
X164323910Y-120084421D01*
X164381000Y-119946592D01*
X164381000Y-119388000D01*
X165495654Y-119388000D01*
X165495654Y-120388000D01*
X165515161Y-120491671D01*
X165495654Y-120588000D01*
X165495654Y-121588000D01*
X165521802Y-121726966D01*
X165603931Y-121854599D01*
X165729246Y-121940223D01*
X165878000Y-121970346D01*
X166303000Y-121970346D01*
X166303000Y-123068602D01*
X166203117Y-123309145D01*
X166202883Y-123577677D01*
X166305429Y-123825857D01*
X166495144Y-124015903D01*
X166743145Y-124118883D01*
X167011677Y-124119117D01*
X167259857Y-124016571D01*
X167449903Y-123826856D01*
X167550444Y-123584728D01*
X167808173Y-123327000D01*
X169423438Y-123327000D01*
X169378117Y-123436145D01*
X169377883Y-123704677D01*
X169480429Y-123952857D01*
X169670144Y-124142903D01*
X169918145Y-124245883D01*
X170186677Y-124246117D01*
X170303129Y-124198000D01*
X170321654Y-124198000D01*
X170321654Y-124452000D01*
X170340175Y-124550430D01*
X170329000Y-124577408D01*
X170329000Y-125053250D01*
X170422750Y-125147000D01*
X171699000Y-125147000D01*
X171699000Y-125127000D01*
X171709000Y-125127000D01*
X171709000Y-125147000D01*
X172985250Y-125147000D01*
X173079000Y-125053250D01*
X173079000Y-124577408D01*
X173066877Y-124548141D01*
X173086346Y-124452000D01*
X173086346Y-123452000D01*
X173066839Y-123348329D01*
X173071158Y-123327000D01*
X176157000Y-123327000D01*
X176157000Y-126545366D01*
X176085097Y-126617144D01*
X175982117Y-126865145D01*
X175981883Y-127133677D01*
X176084429Y-127381857D01*
X176157000Y-127454555D01*
X176157000Y-135943366D01*
X176085097Y-136015144D01*
X175982117Y-136263145D01*
X175981883Y-136531677D01*
X176084429Y-136779857D01*
X176274144Y-136969903D01*
X176522145Y-137072883D01*
X176790677Y-137073117D01*
X177038857Y-136970571D01*
X177228903Y-136780856D01*
X177331883Y-136532855D01*
X177332117Y-136264323D01*
X177298931Y-136184007D01*
X177332069Y-136184035D01*
X177348802Y-136272966D01*
X177430931Y-136400599D01*
X177556246Y-136486223D01*
X177705000Y-136516346D01*
X179205000Y-136516346D01*
X179343966Y-136490198D01*
X179471599Y-136408069D01*
X179557223Y-136282754D01*
X179587346Y-136134000D01*
X179587346Y-135607750D01*
X179830000Y-135607750D01*
X179830000Y-136208592D01*
X179887090Y-136346421D01*
X179992580Y-136451910D01*
X180130408Y-136509000D01*
X180856250Y-136509000D01*
X180950000Y-136415250D01*
X180950000Y-135514000D01*
X180960000Y-135514000D01*
X180960000Y-136415250D01*
X181053750Y-136509000D01*
X181779592Y-136509000D01*
X181917420Y-136451910D01*
X182022910Y-136346421D01*
X182080000Y-136208592D01*
X182080000Y-135607750D01*
X181986250Y-135514000D01*
X180960000Y-135514000D01*
X180950000Y-135514000D01*
X179923750Y-135514000D01*
X179830000Y-135607750D01*
X179587346Y-135607750D01*
X179587346Y-134884000D01*
X179573311Y-134809408D01*
X179830000Y-134809408D01*
X179830000Y-135410250D01*
X179923750Y-135504000D01*
X180950000Y-135504000D01*
X180950000Y-134602750D01*
X180960000Y-134602750D01*
X180960000Y-135504000D01*
X181986250Y-135504000D01*
X182080000Y-135410250D01*
X182080000Y-134809408D01*
X182056916Y-134753677D01*
X182077883Y-134753677D01*
X182180429Y-135001857D01*
X182370144Y-135191903D01*
X182618145Y-135294883D01*
X182886677Y-135295117D01*
X183134857Y-135192571D01*
X183324903Y-135002856D01*
X183427883Y-134754855D01*
X183427932Y-134699175D01*
X183744760Y-134382346D01*
X184820000Y-134382346D01*
X184958966Y-134356198D01*
X185086599Y-134274069D01*
X185172223Y-134148754D01*
X185202346Y-134000000D01*
X185202346Y-132700000D01*
X185637654Y-132700000D01*
X185637654Y-134000000D01*
X185663802Y-134138966D01*
X185745931Y-134266599D01*
X185871246Y-134352223D01*
X186020000Y-134382346D01*
X187095240Y-134382346D01*
X188956446Y-136243553D01*
X189110398Y-136346421D01*
X189118658Y-136351940D01*
X189310000Y-136390000D01*
X189869124Y-136390000D01*
X190066567Y-136685495D01*
X190431543Y-136929364D01*
X190862062Y-137015000D01*
X191415938Y-137015000D01*
X191846457Y-136929364D01*
X192211433Y-136685495D01*
X192455302Y-136320519D01*
X192504949Y-136070925D01*
X192818644Y-136070925D01*
X192887723Y-136315900D01*
X193129970Y-136681960D01*
X193493862Y-136927451D01*
X193924000Y-137015000D01*
X194174000Y-137015000D01*
X194174000Y-135895000D01*
X194184000Y-135895000D01*
X194184000Y-137015000D01*
X194434000Y-137015000D01*
X194864138Y-136927451D01*
X195228030Y-136681960D01*
X195470277Y-136315900D01*
X195539356Y-136070925D01*
X195460238Y-135895000D01*
X194184000Y-135895000D01*
X194174000Y-135895000D01*
X192897762Y-135895000D01*
X192818644Y-136070925D01*
X192504949Y-136070925D01*
X192540938Y-135890000D01*
X192504950Y-135709075D01*
X192818644Y-135709075D01*
X192897762Y-135885000D01*
X194174000Y-135885000D01*
X194174000Y-134765000D01*
X194184000Y-134765000D01*
X194184000Y-135885000D01*
X195460238Y-135885000D01*
X195539356Y-135709075D01*
X195470277Y-135464100D01*
X195228030Y-135098040D01*
X194864138Y-134852549D01*
X194434000Y-134765000D01*
X194184000Y-134765000D01*
X194174000Y-134765000D01*
X193924000Y-134765000D01*
X193493862Y-134852549D01*
X193129970Y-135098040D01*
X192887723Y-135464100D01*
X192818644Y-135709075D01*
X192504950Y-135709075D01*
X192455302Y-135459481D01*
X192211433Y-135094505D01*
X191846457Y-134850636D01*
X191415938Y-134765000D01*
X190862062Y-134765000D01*
X190431543Y-134850636D01*
X190066567Y-135094505D01*
X189869124Y-135390000D01*
X189517107Y-135390000D01*
X187902346Y-133775240D01*
X187902346Y-133350000D01*
X189737062Y-133350000D01*
X189822698Y-133780519D01*
X190066567Y-134145495D01*
X190431543Y-134389364D01*
X190862062Y-134475000D01*
X191415938Y-134475000D01*
X191846457Y-134389364D01*
X192211433Y-134145495D01*
X192455302Y-133780519D01*
X192504949Y-133530925D01*
X192818644Y-133530925D01*
X192887723Y-133775900D01*
X193129970Y-134141960D01*
X193493862Y-134387451D01*
X193924000Y-134475000D01*
X194174000Y-134475000D01*
X194174000Y-133355000D01*
X194184000Y-133355000D01*
X194184000Y-134475000D01*
X194434000Y-134475000D01*
X194864138Y-134387451D01*
X195228030Y-134141960D01*
X195470277Y-133775900D01*
X195539356Y-133530925D01*
X195460238Y-133355000D01*
X194184000Y-133355000D01*
X194174000Y-133355000D01*
X192897762Y-133355000D01*
X192818644Y-133530925D01*
X192504949Y-133530925D01*
X192540938Y-133350000D01*
X192504950Y-133169075D01*
X192818644Y-133169075D01*
X192897762Y-133345000D01*
X194174000Y-133345000D01*
X194174000Y-132225000D01*
X194184000Y-132225000D01*
X194184000Y-133345000D01*
X195460238Y-133345000D01*
X195539356Y-133169075D01*
X195470277Y-132924100D01*
X195228030Y-132558040D01*
X194864138Y-132312549D01*
X194434000Y-132225000D01*
X194184000Y-132225000D01*
X194174000Y-132225000D01*
X193924000Y-132225000D01*
X193493862Y-132312549D01*
X193129970Y-132558040D01*
X192887723Y-132924100D01*
X192818644Y-133169075D01*
X192504950Y-133169075D01*
X192455302Y-132919481D01*
X192211433Y-132554505D01*
X191846457Y-132310636D01*
X191415938Y-132225000D01*
X190862062Y-132225000D01*
X190431543Y-132310636D01*
X190066567Y-132554505D01*
X189822698Y-132919481D01*
X189737062Y-133350000D01*
X187902346Y-133350000D01*
X187902346Y-132700000D01*
X187876198Y-132561034D01*
X187794069Y-132433401D01*
X187668754Y-132347777D01*
X187520000Y-132317654D01*
X186020000Y-132317654D01*
X185881034Y-132343802D01*
X185753401Y-132425931D01*
X185667777Y-132551246D01*
X185637654Y-132700000D01*
X185202346Y-132700000D01*
X185176198Y-132561034D01*
X185094069Y-132433401D01*
X184968754Y-132347777D01*
X184820000Y-132317654D01*
X183320000Y-132317654D01*
X183181034Y-132343802D01*
X183053401Y-132425931D01*
X182967777Y-132551246D01*
X182937654Y-132700000D01*
X182937654Y-133775240D01*
X182767881Y-133945012D01*
X182619323Y-133944883D01*
X182371143Y-134047429D01*
X182181097Y-134237144D01*
X182078117Y-134485145D01*
X182077883Y-134753677D01*
X182056916Y-134753677D01*
X182022910Y-134671579D01*
X181917420Y-134566090D01*
X181779592Y-134509000D01*
X181053750Y-134509000D01*
X180960000Y-134602750D01*
X180950000Y-134602750D01*
X180856250Y-134509000D01*
X180130408Y-134509000D01*
X179992580Y-134566090D01*
X179887090Y-134671579D01*
X179830000Y-134809408D01*
X179573311Y-134809408D01*
X179561198Y-134745034D01*
X179479069Y-134617401D01*
X179353754Y-134531777D01*
X179205000Y-134501654D01*
X177705000Y-134501654D01*
X177566034Y-134527802D01*
X177438401Y-134609931D01*
X177352777Y-134735246D01*
X177332772Y-134834035D01*
X177158323Y-134833883D01*
X177157000Y-134834430D01*
X177157000Y-134024823D01*
X177157145Y-134024883D01*
X177332069Y-134025035D01*
X177348802Y-134113966D01*
X177430931Y-134241599D01*
X177556246Y-134327223D01*
X177705000Y-134357346D01*
X179205000Y-134357346D01*
X179343966Y-134331198D01*
X179471599Y-134249069D01*
X179557223Y-134123754D01*
X179587346Y-133975000D01*
X179587346Y-133448750D01*
X179830000Y-133448750D01*
X179830000Y-134049592D01*
X179887090Y-134187421D01*
X179992580Y-134292910D01*
X180130408Y-134350000D01*
X180856250Y-134350000D01*
X180950000Y-134256250D01*
X180950000Y-133355000D01*
X180960000Y-133355000D01*
X180960000Y-134256250D01*
X181053750Y-134350000D01*
X181779592Y-134350000D01*
X181917420Y-134292910D01*
X182022910Y-134187421D01*
X182080000Y-134049592D01*
X182080000Y-133448750D01*
X181986250Y-133355000D01*
X180960000Y-133355000D01*
X180950000Y-133355000D01*
X179923750Y-133355000D01*
X179830000Y-133448750D01*
X179587346Y-133448750D01*
X179587346Y-132725000D01*
X179573311Y-132650408D01*
X179830000Y-132650408D01*
X179830000Y-133251250D01*
X179923750Y-133345000D01*
X180950000Y-133345000D01*
X180950000Y-132443750D01*
X180960000Y-132443750D01*
X180960000Y-133345000D01*
X181986250Y-133345000D01*
X182080000Y-133251250D01*
X182080000Y-132650408D01*
X182022910Y-132512579D01*
X181917420Y-132407090D01*
X181779592Y-132350000D01*
X181053750Y-132350000D01*
X180960000Y-132443750D01*
X180950000Y-132443750D01*
X180856250Y-132350000D01*
X180130408Y-132350000D01*
X179992580Y-132407090D01*
X179887090Y-132512579D01*
X179830000Y-132650408D01*
X179573311Y-132650408D01*
X179561198Y-132586034D01*
X179479069Y-132458401D01*
X179353754Y-132372777D01*
X179205000Y-132342654D01*
X177705000Y-132342654D01*
X177566034Y-132368802D01*
X177438401Y-132450931D01*
X177352777Y-132576246D01*
X177332772Y-132675035D01*
X177158323Y-132674883D01*
X177157000Y-132675430D01*
X177157000Y-131484823D01*
X177157145Y-131484883D01*
X177332069Y-131485035D01*
X177348802Y-131573966D01*
X177430931Y-131701599D01*
X177556246Y-131787223D01*
X177705000Y-131817346D01*
X179205000Y-131817346D01*
X179343966Y-131791198D01*
X179471599Y-131709069D01*
X179557223Y-131583754D01*
X179587346Y-131435000D01*
X179587346Y-130908750D01*
X179830000Y-130908750D01*
X179830000Y-131509592D01*
X179887090Y-131647421D01*
X179992580Y-131752910D01*
X180130408Y-131810000D01*
X180856250Y-131810000D01*
X180950000Y-131716250D01*
X180950000Y-130815000D01*
X180960000Y-130815000D01*
X180960000Y-131716250D01*
X181053750Y-131810000D01*
X181779592Y-131810000D01*
X181917420Y-131752910D01*
X182022910Y-131647421D01*
X182080000Y-131509592D01*
X182080000Y-130908750D01*
X181986250Y-130815000D01*
X180960000Y-130815000D01*
X180950000Y-130815000D01*
X179923750Y-130815000D01*
X179830000Y-130908750D01*
X179587346Y-130908750D01*
X179587346Y-130185000D01*
X179573311Y-130110408D01*
X179830000Y-130110408D01*
X179830000Y-130711250D01*
X179923750Y-130805000D01*
X180950000Y-130805000D01*
X180950000Y-129903750D01*
X180960000Y-129903750D01*
X180960000Y-130805000D01*
X181986250Y-130805000D01*
X182080000Y-130711250D01*
X182080000Y-130110408D01*
X182022910Y-129972579D01*
X181917420Y-129867090D01*
X181779592Y-129810000D01*
X181053750Y-129810000D01*
X180960000Y-129903750D01*
X180950000Y-129903750D01*
X180856250Y-129810000D01*
X180130408Y-129810000D01*
X179992580Y-129867090D01*
X179887090Y-129972579D01*
X179830000Y-130110408D01*
X179573311Y-130110408D01*
X179561198Y-130046034D01*
X179479069Y-129918401D01*
X179353754Y-129832777D01*
X179205000Y-129802654D01*
X177705000Y-129802654D01*
X177566034Y-129828802D01*
X177438401Y-129910931D01*
X177352777Y-130036246D01*
X177332772Y-130135035D01*
X177158323Y-130134883D01*
X177157000Y-130135430D01*
X177157000Y-129673677D01*
X182077883Y-129673677D01*
X182180429Y-129921857D01*
X182370144Y-130111903D01*
X182618145Y-130214883D01*
X182767907Y-130215014D01*
X182937654Y-130384760D01*
X182937654Y-131460000D01*
X182963802Y-131598966D01*
X183045931Y-131726599D01*
X183171246Y-131812223D01*
X183320000Y-131842346D01*
X184820000Y-131842346D01*
X184958966Y-131816198D01*
X185086599Y-131734069D01*
X185172223Y-131608754D01*
X185202346Y-131460000D01*
X185202346Y-130160000D01*
X185637654Y-130160000D01*
X185637654Y-131460000D01*
X185663802Y-131598966D01*
X185745931Y-131726599D01*
X185871246Y-131812223D01*
X186020000Y-131842346D01*
X187520000Y-131842346D01*
X187658966Y-131816198D01*
X187786599Y-131734069D01*
X187872223Y-131608754D01*
X187902346Y-131460000D01*
X187902346Y-130810000D01*
X189737062Y-130810000D01*
X189822698Y-131240519D01*
X190066567Y-131605495D01*
X190431543Y-131849364D01*
X190862062Y-131935000D01*
X191415938Y-131935000D01*
X191846457Y-131849364D01*
X192211433Y-131605495D01*
X192455302Y-131240519D01*
X192504949Y-130990925D01*
X192818644Y-130990925D01*
X192887723Y-131235900D01*
X193129970Y-131601960D01*
X193493862Y-131847451D01*
X193924000Y-131935000D01*
X194174000Y-131935000D01*
X194174000Y-130815000D01*
X194184000Y-130815000D01*
X194184000Y-131935000D01*
X194434000Y-131935000D01*
X194864138Y-131847451D01*
X195228030Y-131601960D01*
X195470277Y-131235900D01*
X195539356Y-130990925D01*
X195460238Y-130815000D01*
X194184000Y-130815000D01*
X194174000Y-130815000D01*
X192897762Y-130815000D01*
X192818644Y-130990925D01*
X192504949Y-130990925D01*
X192540938Y-130810000D01*
X192504950Y-130629075D01*
X192818644Y-130629075D01*
X192897762Y-130805000D01*
X194174000Y-130805000D01*
X194174000Y-129685000D01*
X194184000Y-129685000D01*
X194184000Y-130805000D01*
X195460238Y-130805000D01*
X195539356Y-130629075D01*
X195470277Y-130384100D01*
X195228030Y-130018040D01*
X194864138Y-129772549D01*
X194434000Y-129685000D01*
X194184000Y-129685000D01*
X194174000Y-129685000D01*
X193924000Y-129685000D01*
X193493862Y-129772549D01*
X193129970Y-130018040D01*
X192887723Y-130384100D01*
X192818644Y-130629075D01*
X192504950Y-130629075D01*
X192455302Y-130379481D01*
X192211433Y-130014505D01*
X191846457Y-129770636D01*
X191415938Y-129685000D01*
X190862062Y-129685000D01*
X190431543Y-129770636D01*
X190066567Y-130014505D01*
X189822698Y-130379481D01*
X189737062Y-130810000D01*
X187902346Y-130810000D01*
X187902346Y-130384760D01*
X189517107Y-128770000D01*
X189869124Y-128770000D01*
X190066567Y-129065495D01*
X190431543Y-129309364D01*
X190862062Y-129395000D01*
X191415938Y-129395000D01*
X191846457Y-129309364D01*
X192211433Y-129065495D01*
X192455302Y-128700519D01*
X192504949Y-128450925D01*
X192818644Y-128450925D01*
X192887723Y-128695900D01*
X193129970Y-129061960D01*
X193493862Y-129307451D01*
X193924000Y-129395000D01*
X194174000Y-129395000D01*
X194174000Y-128275000D01*
X194184000Y-128275000D01*
X194184000Y-129395000D01*
X194434000Y-129395000D01*
X194864138Y-129307451D01*
X195228030Y-129061960D01*
X195470277Y-128695900D01*
X195539356Y-128450925D01*
X195460238Y-128275000D01*
X194184000Y-128275000D01*
X194174000Y-128275000D01*
X192897762Y-128275000D01*
X192818644Y-128450925D01*
X192504949Y-128450925D01*
X192540938Y-128270000D01*
X192504950Y-128089075D01*
X192818644Y-128089075D01*
X192897762Y-128265000D01*
X194174000Y-128265000D01*
X194174000Y-127145000D01*
X194184000Y-127145000D01*
X194184000Y-128265000D01*
X195460238Y-128265000D01*
X195539356Y-128089075D01*
X195470277Y-127844100D01*
X195228030Y-127478040D01*
X194864138Y-127232549D01*
X194434000Y-127145000D01*
X194184000Y-127145000D01*
X194174000Y-127145000D01*
X193924000Y-127145000D01*
X193493862Y-127232549D01*
X193129970Y-127478040D01*
X192887723Y-127844100D01*
X192818644Y-128089075D01*
X192504950Y-128089075D01*
X192455302Y-127839481D01*
X192211433Y-127474505D01*
X191846457Y-127230636D01*
X191415938Y-127145000D01*
X190862062Y-127145000D01*
X190431543Y-127230636D01*
X190066567Y-127474505D01*
X189869124Y-127770000D01*
X189310000Y-127770000D01*
X189118658Y-127808060D01*
X188956446Y-127916447D01*
X187095240Y-129777654D01*
X186020000Y-129777654D01*
X185881034Y-129803802D01*
X185753401Y-129885931D01*
X185667777Y-130011246D01*
X185637654Y-130160000D01*
X185202346Y-130160000D01*
X185176198Y-130021034D01*
X185094069Y-129893401D01*
X184968754Y-129807777D01*
X184820000Y-129777654D01*
X183744760Y-129777654D01*
X183428069Y-129460963D01*
X183428117Y-129406323D01*
X183325571Y-129158143D01*
X183135856Y-128968097D01*
X182887855Y-128865117D01*
X182619323Y-128864883D01*
X182371143Y-128967429D01*
X182181097Y-129157144D01*
X182078117Y-129405145D01*
X182077883Y-129673677D01*
X177157000Y-129673677D01*
X177157000Y-129325823D01*
X177157145Y-129325883D01*
X177332069Y-129326035D01*
X177348802Y-129414966D01*
X177430931Y-129542599D01*
X177556246Y-129628223D01*
X177705000Y-129658346D01*
X179205000Y-129658346D01*
X179343966Y-129632198D01*
X179471599Y-129550069D01*
X179557223Y-129424754D01*
X179587346Y-129276000D01*
X179587346Y-128749750D01*
X179830000Y-128749750D01*
X179830000Y-129350592D01*
X179887090Y-129488421D01*
X179992580Y-129593910D01*
X180130408Y-129651000D01*
X180856250Y-129651000D01*
X180950000Y-129557250D01*
X180950000Y-128656000D01*
X180960000Y-128656000D01*
X180960000Y-129557250D01*
X181053750Y-129651000D01*
X181779592Y-129651000D01*
X181917420Y-129593910D01*
X182022910Y-129488421D01*
X182080000Y-129350592D01*
X182080000Y-128749750D01*
X181986250Y-128656000D01*
X180960000Y-128656000D01*
X180950000Y-128656000D01*
X179923750Y-128656000D01*
X179830000Y-128749750D01*
X179587346Y-128749750D01*
X179587346Y-128026000D01*
X179573311Y-127951408D01*
X179830000Y-127951408D01*
X179830000Y-128552250D01*
X179923750Y-128646000D01*
X180950000Y-128646000D01*
X180950000Y-127744750D01*
X180960000Y-127744750D01*
X180960000Y-128646000D01*
X181986250Y-128646000D01*
X182080000Y-128552250D01*
X182080000Y-127951408D01*
X182022910Y-127813579D01*
X181917420Y-127708090D01*
X181779592Y-127651000D01*
X181053750Y-127651000D01*
X180960000Y-127744750D01*
X180950000Y-127744750D01*
X180856250Y-127651000D01*
X180130408Y-127651000D01*
X179992580Y-127708090D01*
X179887090Y-127813579D01*
X179830000Y-127951408D01*
X179573311Y-127951408D01*
X179561198Y-127887034D01*
X179479069Y-127759401D01*
X179353754Y-127673777D01*
X179205000Y-127643654D01*
X177705000Y-127643654D01*
X177566034Y-127669802D01*
X177438401Y-127751931D01*
X177352777Y-127877246D01*
X177332772Y-127976035D01*
X177158323Y-127975883D01*
X177157000Y-127976430D01*
X177157000Y-127454634D01*
X177228903Y-127382856D01*
X177331883Y-127134855D01*
X177332117Y-126866323D01*
X177229571Y-126618143D01*
X177157000Y-126545445D01*
X177157000Y-126023823D01*
X177157145Y-126023883D01*
X177332069Y-126024035D01*
X177348802Y-126112966D01*
X177430931Y-126240599D01*
X177556246Y-126326223D01*
X177705000Y-126356346D01*
X179205000Y-126356346D01*
X179343966Y-126330198D01*
X179471599Y-126248069D01*
X179557223Y-126122754D01*
X179587346Y-125974000D01*
X179587346Y-125447750D01*
X179830000Y-125447750D01*
X179830000Y-126048592D01*
X179887090Y-126186421D01*
X179992580Y-126291910D01*
X180130408Y-126349000D01*
X180856250Y-126349000D01*
X180950000Y-126255250D01*
X180950000Y-125354000D01*
X180960000Y-125354000D01*
X180960000Y-126255250D01*
X181053750Y-126349000D01*
X181779592Y-126349000D01*
X181917420Y-126291910D01*
X182022910Y-126186421D01*
X182080000Y-126048592D01*
X182080000Y-125447750D01*
X181986250Y-125354000D01*
X180960000Y-125354000D01*
X180950000Y-125354000D01*
X179923750Y-125354000D01*
X179830000Y-125447750D01*
X179587346Y-125447750D01*
X179587346Y-124724000D01*
X179573311Y-124649408D01*
X179830000Y-124649408D01*
X179830000Y-125250250D01*
X179923750Y-125344000D01*
X180950000Y-125344000D01*
X180950000Y-124442750D01*
X180960000Y-124442750D01*
X180960000Y-125344000D01*
X181986250Y-125344000D01*
X182080000Y-125250250D01*
X182080000Y-124649408D01*
X182056916Y-124593677D01*
X182077883Y-124593677D01*
X182180429Y-124841857D01*
X182370144Y-125031903D01*
X182618145Y-125134883D01*
X182886677Y-125135117D01*
X183134857Y-125032571D01*
X183324903Y-124842856D01*
X183427883Y-124594855D01*
X183427932Y-124539175D01*
X183744760Y-124222346D01*
X184820000Y-124222346D01*
X184958966Y-124196198D01*
X185086599Y-124114069D01*
X185172223Y-123988754D01*
X185202346Y-123840000D01*
X185202346Y-122540000D01*
X185637654Y-122540000D01*
X185637654Y-123840000D01*
X185663802Y-123978966D01*
X185745931Y-124106599D01*
X185871246Y-124192223D01*
X186020000Y-124222346D01*
X187095240Y-124222346D01*
X188956446Y-126083553D01*
X189110398Y-126186421D01*
X189118658Y-126191940D01*
X189310000Y-126230000D01*
X189869124Y-126230000D01*
X190066567Y-126525495D01*
X190431543Y-126769364D01*
X190862062Y-126855000D01*
X191415938Y-126855000D01*
X191846457Y-126769364D01*
X192211433Y-126525495D01*
X192455302Y-126160519D01*
X192504949Y-125910925D01*
X192818644Y-125910925D01*
X192887723Y-126155900D01*
X193129970Y-126521960D01*
X193493862Y-126767451D01*
X193924000Y-126855000D01*
X194174000Y-126855000D01*
X194174000Y-125735000D01*
X194184000Y-125735000D01*
X194184000Y-126855000D01*
X194434000Y-126855000D01*
X194864138Y-126767451D01*
X195228030Y-126521960D01*
X195470277Y-126155900D01*
X195539356Y-125910925D01*
X195460238Y-125735000D01*
X194184000Y-125735000D01*
X194174000Y-125735000D01*
X192897762Y-125735000D01*
X192818644Y-125910925D01*
X192504949Y-125910925D01*
X192540938Y-125730000D01*
X192504950Y-125549075D01*
X192818644Y-125549075D01*
X192897762Y-125725000D01*
X194174000Y-125725000D01*
X194174000Y-124605000D01*
X194184000Y-124605000D01*
X194184000Y-125725000D01*
X195460238Y-125725000D01*
X195539356Y-125549075D01*
X195470277Y-125304100D01*
X195228030Y-124938040D01*
X194864138Y-124692549D01*
X194434000Y-124605000D01*
X194184000Y-124605000D01*
X194174000Y-124605000D01*
X193924000Y-124605000D01*
X193493862Y-124692549D01*
X193129970Y-124938040D01*
X192887723Y-125304100D01*
X192818644Y-125549075D01*
X192504950Y-125549075D01*
X192455302Y-125299481D01*
X192211433Y-124934505D01*
X191846457Y-124690636D01*
X191415938Y-124605000D01*
X190862062Y-124605000D01*
X190431543Y-124690636D01*
X190066567Y-124934505D01*
X189869124Y-125230000D01*
X189517107Y-125230000D01*
X187902346Y-123615240D01*
X187902346Y-123190000D01*
X189737062Y-123190000D01*
X189822698Y-123620519D01*
X190066567Y-123985495D01*
X190431543Y-124229364D01*
X190862062Y-124315000D01*
X191415938Y-124315000D01*
X191846457Y-124229364D01*
X192211433Y-123985495D01*
X192455302Y-123620519D01*
X192504949Y-123370925D01*
X192818644Y-123370925D01*
X192887723Y-123615900D01*
X193129970Y-123981960D01*
X193493862Y-124227451D01*
X193924000Y-124315000D01*
X194174000Y-124315000D01*
X194174000Y-123195000D01*
X194184000Y-123195000D01*
X194184000Y-124315000D01*
X194434000Y-124315000D01*
X194864138Y-124227451D01*
X195228030Y-123981960D01*
X195470277Y-123615900D01*
X195539356Y-123370925D01*
X195460238Y-123195000D01*
X194184000Y-123195000D01*
X194174000Y-123195000D01*
X192897762Y-123195000D01*
X192818644Y-123370925D01*
X192504949Y-123370925D01*
X192540938Y-123190000D01*
X192504950Y-123009075D01*
X192818644Y-123009075D01*
X192897762Y-123185000D01*
X194174000Y-123185000D01*
X194174000Y-122065000D01*
X194184000Y-122065000D01*
X194184000Y-123185000D01*
X195460238Y-123185000D01*
X195539356Y-123009075D01*
X195470277Y-122764100D01*
X195228030Y-122398040D01*
X194864138Y-122152549D01*
X194434000Y-122065000D01*
X194184000Y-122065000D01*
X194174000Y-122065000D01*
X193924000Y-122065000D01*
X193493862Y-122152549D01*
X193129970Y-122398040D01*
X192887723Y-122764100D01*
X192818644Y-123009075D01*
X192504950Y-123009075D01*
X192455302Y-122759481D01*
X192211433Y-122394505D01*
X191846457Y-122150636D01*
X191415938Y-122065000D01*
X190862062Y-122065000D01*
X190431543Y-122150636D01*
X190066567Y-122394505D01*
X189822698Y-122759481D01*
X189737062Y-123190000D01*
X187902346Y-123190000D01*
X187902346Y-122540000D01*
X187876198Y-122401034D01*
X187794069Y-122273401D01*
X187668754Y-122187777D01*
X187520000Y-122157654D01*
X186020000Y-122157654D01*
X185881034Y-122183802D01*
X185753401Y-122265931D01*
X185667777Y-122391246D01*
X185637654Y-122540000D01*
X185202346Y-122540000D01*
X185176198Y-122401034D01*
X185094069Y-122273401D01*
X184968754Y-122187777D01*
X184820000Y-122157654D01*
X183320000Y-122157654D01*
X183181034Y-122183802D01*
X183053401Y-122265931D01*
X182967777Y-122391246D01*
X182937654Y-122540000D01*
X182937654Y-123615240D01*
X182767881Y-123785012D01*
X182619323Y-123784883D01*
X182371143Y-123887429D01*
X182181097Y-124077144D01*
X182078117Y-124325145D01*
X182077883Y-124593677D01*
X182056916Y-124593677D01*
X182022910Y-124511579D01*
X181917420Y-124406090D01*
X181779592Y-124349000D01*
X181053750Y-124349000D01*
X180960000Y-124442750D01*
X180950000Y-124442750D01*
X180856250Y-124349000D01*
X180130408Y-124349000D01*
X179992580Y-124406090D01*
X179887090Y-124511579D01*
X179830000Y-124649408D01*
X179573311Y-124649408D01*
X179561198Y-124585034D01*
X179479069Y-124457401D01*
X179353754Y-124371777D01*
X179205000Y-124341654D01*
X177705000Y-124341654D01*
X177566034Y-124367802D01*
X177438401Y-124449931D01*
X177352777Y-124575246D01*
X177332772Y-124674035D01*
X177158323Y-124673883D01*
X177157000Y-124674430D01*
X177157000Y-123864823D01*
X177157145Y-123864883D01*
X177332069Y-123865035D01*
X177348802Y-123953966D01*
X177430931Y-124081599D01*
X177556246Y-124167223D01*
X177705000Y-124197346D01*
X179205000Y-124197346D01*
X179343966Y-124171198D01*
X179471599Y-124089069D01*
X179557223Y-123963754D01*
X179587346Y-123815000D01*
X179587346Y-123288750D01*
X179830000Y-123288750D01*
X179830000Y-123889592D01*
X179887090Y-124027421D01*
X179992580Y-124132910D01*
X180130408Y-124190000D01*
X180856250Y-124190000D01*
X180950000Y-124096250D01*
X180950000Y-123195000D01*
X180960000Y-123195000D01*
X180960000Y-124096250D01*
X181053750Y-124190000D01*
X181779592Y-124190000D01*
X181917420Y-124132910D01*
X182022910Y-124027421D01*
X182080000Y-123889592D01*
X182080000Y-123288750D01*
X181986250Y-123195000D01*
X180960000Y-123195000D01*
X180950000Y-123195000D01*
X179923750Y-123195000D01*
X179830000Y-123288750D01*
X179587346Y-123288750D01*
X179587346Y-122565000D01*
X179573311Y-122490408D01*
X179830000Y-122490408D01*
X179830000Y-123091250D01*
X179923750Y-123185000D01*
X180950000Y-123185000D01*
X180950000Y-122283750D01*
X180960000Y-122283750D01*
X180960000Y-123185000D01*
X181986250Y-123185000D01*
X182080000Y-123091250D01*
X182080000Y-122490408D01*
X182022910Y-122352579D01*
X181917420Y-122247090D01*
X181779592Y-122190000D01*
X181053750Y-122190000D01*
X180960000Y-122283750D01*
X180950000Y-122283750D01*
X180856250Y-122190000D01*
X180130408Y-122190000D01*
X179992580Y-122247090D01*
X179887090Y-122352579D01*
X179830000Y-122490408D01*
X179573311Y-122490408D01*
X179561198Y-122426034D01*
X179479069Y-122298401D01*
X179353754Y-122212777D01*
X179205000Y-122182654D01*
X177705000Y-122182654D01*
X177566034Y-122208802D01*
X177438401Y-122290931D01*
X177352777Y-122416246D01*
X177332772Y-122515035D01*
X177176833Y-122514899D01*
X177157000Y-122485217D01*
X177157000Y-121324823D01*
X177157145Y-121324883D01*
X177332069Y-121325035D01*
X177348802Y-121413966D01*
X177430931Y-121541599D01*
X177556246Y-121627223D01*
X177705000Y-121657346D01*
X179205000Y-121657346D01*
X179343966Y-121631198D01*
X179471599Y-121549069D01*
X179557223Y-121423754D01*
X179587346Y-121275000D01*
X179587346Y-120748750D01*
X179830000Y-120748750D01*
X179830000Y-121349592D01*
X179887090Y-121487421D01*
X179992580Y-121592910D01*
X180130408Y-121650000D01*
X180856250Y-121650000D01*
X180950000Y-121556250D01*
X180950000Y-120655000D01*
X180960000Y-120655000D01*
X180960000Y-121556250D01*
X181053750Y-121650000D01*
X181779592Y-121650000D01*
X181917420Y-121592910D01*
X182022910Y-121487421D01*
X182080000Y-121349592D01*
X182080000Y-120748750D01*
X181986250Y-120655000D01*
X180960000Y-120655000D01*
X180950000Y-120655000D01*
X179923750Y-120655000D01*
X179830000Y-120748750D01*
X179587346Y-120748750D01*
X179587346Y-120025000D01*
X179573311Y-119950408D01*
X179830000Y-119950408D01*
X179830000Y-120551250D01*
X179923750Y-120645000D01*
X180950000Y-120645000D01*
X180950000Y-119743750D01*
X180960000Y-119743750D01*
X180960000Y-120645000D01*
X181986250Y-120645000D01*
X182080000Y-120551250D01*
X182080000Y-119950408D01*
X182022910Y-119812579D01*
X181917420Y-119707090D01*
X181779592Y-119650000D01*
X181053750Y-119650000D01*
X180960000Y-119743750D01*
X180950000Y-119743750D01*
X180856250Y-119650000D01*
X180130408Y-119650000D01*
X179992580Y-119707090D01*
X179887090Y-119812579D01*
X179830000Y-119950408D01*
X179573311Y-119950408D01*
X179561198Y-119886034D01*
X179479069Y-119758401D01*
X179353754Y-119672777D01*
X179205000Y-119642654D01*
X177705000Y-119642654D01*
X177566034Y-119668802D01*
X177438401Y-119750931D01*
X177352777Y-119876246D01*
X177332772Y-119975035D01*
X177158323Y-119974883D01*
X177157000Y-119975430D01*
X177157000Y-119513677D01*
X182077883Y-119513677D01*
X182180429Y-119761857D01*
X182370144Y-119951903D01*
X182618145Y-120054883D01*
X182767907Y-120055014D01*
X182937654Y-120224760D01*
X182937654Y-121300000D01*
X182963802Y-121438966D01*
X183045931Y-121566599D01*
X183171246Y-121652223D01*
X183320000Y-121682346D01*
X184820000Y-121682346D01*
X184958966Y-121656198D01*
X185086599Y-121574069D01*
X185172223Y-121448754D01*
X185202346Y-121300000D01*
X185202346Y-120000000D01*
X185637654Y-120000000D01*
X185637654Y-121300000D01*
X185663802Y-121438966D01*
X185745931Y-121566599D01*
X185871246Y-121652223D01*
X186020000Y-121682346D01*
X187520000Y-121682346D01*
X187658966Y-121656198D01*
X187786599Y-121574069D01*
X187872223Y-121448754D01*
X187902346Y-121300000D01*
X187902346Y-120650000D01*
X189737062Y-120650000D01*
X189822698Y-121080519D01*
X190066567Y-121445495D01*
X190431543Y-121689364D01*
X190862062Y-121775000D01*
X191415938Y-121775000D01*
X191846457Y-121689364D01*
X192211433Y-121445495D01*
X192455302Y-121080519D01*
X192504949Y-120830925D01*
X192818644Y-120830925D01*
X192887723Y-121075900D01*
X193129970Y-121441960D01*
X193493862Y-121687451D01*
X193924000Y-121775000D01*
X194174000Y-121775000D01*
X194174000Y-120655000D01*
X194184000Y-120655000D01*
X194184000Y-121775000D01*
X194434000Y-121775000D01*
X194864138Y-121687451D01*
X195228030Y-121441960D01*
X195470277Y-121075900D01*
X195539356Y-120830925D01*
X195460238Y-120655000D01*
X194184000Y-120655000D01*
X194174000Y-120655000D01*
X192897762Y-120655000D01*
X192818644Y-120830925D01*
X192504949Y-120830925D01*
X192540938Y-120650000D01*
X192504950Y-120469075D01*
X192818644Y-120469075D01*
X192897762Y-120645000D01*
X194174000Y-120645000D01*
X194174000Y-119525000D01*
X194184000Y-119525000D01*
X194184000Y-120645000D01*
X195460238Y-120645000D01*
X195539356Y-120469075D01*
X195470277Y-120224100D01*
X195228030Y-119858040D01*
X194864138Y-119612549D01*
X194434000Y-119525000D01*
X194184000Y-119525000D01*
X194174000Y-119525000D01*
X193924000Y-119525000D01*
X193493862Y-119612549D01*
X193129970Y-119858040D01*
X192887723Y-120224100D01*
X192818644Y-120469075D01*
X192504950Y-120469075D01*
X192455302Y-120219481D01*
X192211433Y-119854505D01*
X191846457Y-119610636D01*
X191415938Y-119525000D01*
X190862062Y-119525000D01*
X190431543Y-119610636D01*
X190066567Y-119854505D01*
X189822698Y-120219481D01*
X189737062Y-120650000D01*
X187902346Y-120650000D01*
X187902346Y-120224760D01*
X189517107Y-118610000D01*
X189869124Y-118610000D01*
X190066567Y-118905495D01*
X190431543Y-119149364D01*
X190862062Y-119235000D01*
X191415938Y-119235000D01*
X191846457Y-119149364D01*
X192211433Y-118905495D01*
X192455302Y-118540519D01*
X192504949Y-118290925D01*
X192818644Y-118290925D01*
X192887723Y-118535900D01*
X193129970Y-118901960D01*
X193493862Y-119147451D01*
X193924000Y-119235000D01*
X194174000Y-119235000D01*
X194174000Y-118115000D01*
X194184000Y-118115000D01*
X194184000Y-119235000D01*
X194434000Y-119235000D01*
X194864138Y-119147451D01*
X195228030Y-118901960D01*
X195470277Y-118535900D01*
X195539356Y-118290925D01*
X195460238Y-118115000D01*
X194184000Y-118115000D01*
X194174000Y-118115000D01*
X192897762Y-118115000D01*
X192818644Y-118290925D01*
X192504949Y-118290925D01*
X192540938Y-118110000D01*
X192504950Y-117929075D01*
X192818644Y-117929075D01*
X192897762Y-118105000D01*
X194174000Y-118105000D01*
X194174000Y-116985000D01*
X194184000Y-116985000D01*
X194184000Y-118105000D01*
X195460238Y-118105000D01*
X195539356Y-117929075D01*
X195470277Y-117684100D01*
X195228030Y-117318040D01*
X194864138Y-117072549D01*
X194434000Y-116985000D01*
X194184000Y-116985000D01*
X194174000Y-116985000D01*
X193924000Y-116985000D01*
X193493862Y-117072549D01*
X193129970Y-117318040D01*
X192887723Y-117684100D01*
X192818644Y-117929075D01*
X192504950Y-117929075D01*
X192455302Y-117679481D01*
X192211433Y-117314505D01*
X191846457Y-117070636D01*
X191415938Y-116985000D01*
X190862062Y-116985000D01*
X190431543Y-117070636D01*
X190066567Y-117314505D01*
X189869124Y-117610000D01*
X189310000Y-117610000D01*
X189118658Y-117648060D01*
X188956446Y-117756447D01*
X187095240Y-119617654D01*
X186020000Y-119617654D01*
X185881034Y-119643802D01*
X185753401Y-119725931D01*
X185667777Y-119851246D01*
X185637654Y-120000000D01*
X185202346Y-120000000D01*
X185176198Y-119861034D01*
X185094069Y-119733401D01*
X184968754Y-119647777D01*
X184820000Y-119617654D01*
X183744760Y-119617654D01*
X183428069Y-119300963D01*
X183428117Y-119246323D01*
X183325571Y-118998143D01*
X183135856Y-118808097D01*
X182887855Y-118705117D01*
X182619323Y-118704883D01*
X182371143Y-118807429D01*
X182181097Y-118997144D01*
X182078117Y-119245145D01*
X182077883Y-119513677D01*
X177157000Y-119513677D01*
X177157000Y-119165823D01*
X177157145Y-119165883D01*
X177332069Y-119166035D01*
X177348802Y-119254966D01*
X177430931Y-119382599D01*
X177556246Y-119468223D01*
X177705000Y-119498346D01*
X179205000Y-119498346D01*
X179343966Y-119472198D01*
X179471599Y-119390069D01*
X179557223Y-119264754D01*
X179587346Y-119116000D01*
X179587346Y-118589750D01*
X179830000Y-118589750D01*
X179830000Y-119190592D01*
X179887090Y-119328421D01*
X179992580Y-119433910D01*
X180130408Y-119491000D01*
X180856250Y-119491000D01*
X180950000Y-119397250D01*
X180950000Y-118496000D01*
X180960000Y-118496000D01*
X180960000Y-119397250D01*
X181053750Y-119491000D01*
X181779592Y-119491000D01*
X181917420Y-119433910D01*
X182022910Y-119328421D01*
X182080000Y-119190592D01*
X182080000Y-118589750D01*
X181986250Y-118496000D01*
X180960000Y-118496000D01*
X180950000Y-118496000D01*
X179923750Y-118496000D01*
X179830000Y-118589750D01*
X179587346Y-118589750D01*
X179587346Y-117866000D01*
X179573311Y-117791408D01*
X179830000Y-117791408D01*
X179830000Y-118392250D01*
X179923750Y-118486000D01*
X180950000Y-118486000D01*
X180950000Y-117584750D01*
X180960000Y-117584750D01*
X180960000Y-118486000D01*
X181986250Y-118486000D01*
X182080000Y-118392250D01*
X182080000Y-117791408D01*
X182022910Y-117653579D01*
X181917420Y-117548090D01*
X181779592Y-117491000D01*
X181053750Y-117491000D01*
X180960000Y-117584750D01*
X180950000Y-117584750D01*
X180856250Y-117491000D01*
X180130408Y-117491000D01*
X179992580Y-117548090D01*
X179887090Y-117653579D01*
X179830000Y-117791408D01*
X179573311Y-117791408D01*
X179561198Y-117727034D01*
X179479069Y-117599401D01*
X179353754Y-117513777D01*
X179205000Y-117483654D01*
X177705000Y-117483654D01*
X177566034Y-117509802D01*
X177438401Y-117591931D01*
X177352777Y-117717246D01*
X177332772Y-117816035D01*
X177158323Y-117815883D01*
X177157000Y-117816430D01*
X177157000Y-116786634D01*
X177228903Y-116714856D01*
X177331883Y-116466855D01*
X177332117Y-116198323D01*
X177229571Y-115950143D01*
X177157000Y-115877445D01*
X177157000Y-115863823D01*
X177157145Y-115863883D01*
X177332069Y-115864035D01*
X177348802Y-115952966D01*
X177430931Y-116080599D01*
X177556246Y-116166223D01*
X177705000Y-116196346D01*
X179205000Y-116196346D01*
X179343966Y-116170198D01*
X179471599Y-116088069D01*
X179557223Y-115962754D01*
X179587346Y-115814000D01*
X179587346Y-115287750D01*
X179830000Y-115287750D01*
X179830000Y-115888592D01*
X179887090Y-116026421D01*
X179992580Y-116131910D01*
X180130408Y-116189000D01*
X180856250Y-116189000D01*
X180950000Y-116095250D01*
X180950000Y-115194000D01*
X180960000Y-115194000D01*
X180960000Y-116095250D01*
X181053750Y-116189000D01*
X181779592Y-116189000D01*
X181917420Y-116131910D01*
X182022910Y-116026421D01*
X182080000Y-115888592D01*
X182080000Y-115287750D01*
X181986250Y-115194000D01*
X180960000Y-115194000D01*
X180950000Y-115194000D01*
X179923750Y-115194000D01*
X179830000Y-115287750D01*
X179587346Y-115287750D01*
X179587346Y-114564000D01*
X179573311Y-114489408D01*
X179830000Y-114489408D01*
X179830000Y-115090250D01*
X179923750Y-115184000D01*
X180950000Y-115184000D01*
X180950000Y-114282750D01*
X180960000Y-114282750D01*
X180960000Y-115184000D01*
X181986250Y-115184000D01*
X182080000Y-115090250D01*
X182080000Y-114565801D01*
X182180429Y-114808857D01*
X182370144Y-114998903D01*
X182618145Y-115101883D01*
X182886677Y-115102117D01*
X183134857Y-114999571D01*
X183324903Y-114809856D01*
X183427883Y-114561855D01*
X183428042Y-114379064D01*
X183744760Y-114062346D01*
X184820000Y-114062346D01*
X184958966Y-114036198D01*
X185086599Y-113954069D01*
X185172223Y-113828754D01*
X185202346Y-113680000D01*
X185202346Y-112380000D01*
X185637654Y-112380000D01*
X185637654Y-113680000D01*
X185663802Y-113818966D01*
X185745931Y-113946599D01*
X185871246Y-114032223D01*
X186020000Y-114062346D01*
X187095240Y-114062346D01*
X188956446Y-115923553D01*
X189110398Y-116026421D01*
X189118658Y-116031940D01*
X189310000Y-116070000D01*
X189869124Y-116070000D01*
X190066567Y-116365495D01*
X190431543Y-116609364D01*
X190862062Y-116695000D01*
X191415938Y-116695000D01*
X191846457Y-116609364D01*
X192211433Y-116365495D01*
X192455302Y-116000519D01*
X192504949Y-115750925D01*
X192818644Y-115750925D01*
X192887723Y-115995900D01*
X193129970Y-116361960D01*
X193493862Y-116607451D01*
X193924000Y-116695000D01*
X194174000Y-116695000D01*
X194174000Y-115575000D01*
X194184000Y-115575000D01*
X194184000Y-116695000D01*
X194434000Y-116695000D01*
X194864138Y-116607451D01*
X195228030Y-116361960D01*
X195470277Y-115995900D01*
X195539356Y-115750925D01*
X195460238Y-115575000D01*
X194184000Y-115575000D01*
X194174000Y-115575000D01*
X192897762Y-115575000D01*
X192818644Y-115750925D01*
X192504949Y-115750925D01*
X192540938Y-115570000D01*
X192504950Y-115389075D01*
X192818644Y-115389075D01*
X192897762Y-115565000D01*
X194174000Y-115565000D01*
X194174000Y-114445000D01*
X194184000Y-114445000D01*
X194184000Y-115565000D01*
X195460238Y-115565000D01*
X195539356Y-115389075D01*
X195470277Y-115144100D01*
X195228030Y-114778040D01*
X194864138Y-114532549D01*
X194434000Y-114445000D01*
X194184000Y-114445000D01*
X194174000Y-114445000D01*
X193924000Y-114445000D01*
X193493862Y-114532549D01*
X193129970Y-114778040D01*
X192887723Y-115144100D01*
X192818644Y-115389075D01*
X192504950Y-115389075D01*
X192455302Y-115139481D01*
X192211433Y-114774505D01*
X191846457Y-114530636D01*
X191415938Y-114445000D01*
X190862062Y-114445000D01*
X190431543Y-114530636D01*
X190066567Y-114774505D01*
X189869124Y-115070000D01*
X189517107Y-115070000D01*
X187902346Y-113455240D01*
X187902346Y-113030000D01*
X189737062Y-113030000D01*
X189822698Y-113460519D01*
X190066567Y-113825495D01*
X190431543Y-114069364D01*
X190862062Y-114155000D01*
X191415938Y-114155000D01*
X191846457Y-114069364D01*
X192211433Y-113825495D01*
X192455302Y-113460519D01*
X192504949Y-113210925D01*
X192818644Y-113210925D01*
X192887723Y-113455900D01*
X193129970Y-113821960D01*
X193493862Y-114067451D01*
X193924000Y-114155000D01*
X194174000Y-114155000D01*
X194174000Y-113035000D01*
X194184000Y-113035000D01*
X194184000Y-114155000D01*
X194434000Y-114155000D01*
X194864138Y-114067451D01*
X195228030Y-113821960D01*
X195470277Y-113455900D01*
X195539356Y-113210925D01*
X195460238Y-113035000D01*
X194184000Y-113035000D01*
X194174000Y-113035000D01*
X192897762Y-113035000D01*
X192818644Y-113210925D01*
X192504949Y-113210925D01*
X192540938Y-113030000D01*
X192504950Y-112849075D01*
X192818644Y-112849075D01*
X192897762Y-113025000D01*
X194174000Y-113025000D01*
X194174000Y-111905000D01*
X194184000Y-111905000D01*
X194184000Y-113025000D01*
X195460238Y-113025000D01*
X195539356Y-112849075D01*
X195470277Y-112604100D01*
X195228030Y-112238040D01*
X194864138Y-111992549D01*
X194434000Y-111905000D01*
X194184000Y-111905000D01*
X194174000Y-111905000D01*
X193924000Y-111905000D01*
X193493862Y-111992549D01*
X193129970Y-112238040D01*
X192887723Y-112604100D01*
X192818644Y-112849075D01*
X192504950Y-112849075D01*
X192455302Y-112599481D01*
X192211433Y-112234505D01*
X191846457Y-111990636D01*
X191415938Y-111905000D01*
X190862062Y-111905000D01*
X190431543Y-111990636D01*
X190066567Y-112234505D01*
X189822698Y-112599481D01*
X189737062Y-113030000D01*
X187902346Y-113030000D01*
X187902346Y-112380000D01*
X187876198Y-112241034D01*
X187794069Y-112113401D01*
X187668754Y-112027777D01*
X187520000Y-111997654D01*
X186020000Y-111997654D01*
X185881034Y-112023802D01*
X185753401Y-112105931D01*
X185667777Y-112231246D01*
X185637654Y-112380000D01*
X185202346Y-112380000D01*
X185176198Y-112241034D01*
X185094069Y-112113401D01*
X184968754Y-112027777D01*
X184820000Y-111997654D01*
X183320000Y-111997654D01*
X183181034Y-112023802D01*
X183053401Y-112105931D01*
X182967777Y-112231246D01*
X182937654Y-112380000D01*
X182937654Y-113455240D01*
X182640992Y-113751902D01*
X182619323Y-113751883D01*
X182371143Y-113854429D01*
X182181097Y-114044144D01*
X182078117Y-114292145D01*
X182077949Y-114484457D01*
X182022910Y-114351579D01*
X181917420Y-114246090D01*
X181779592Y-114189000D01*
X181053750Y-114189000D01*
X180960000Y-114282750D01*
X180950000Y-114282750D01*
X180856250Y-114189000D01*
X180130408Y-114189000D01*
X179992580Y-114246090D01*
X179887090Y-114351579D01*
X179830000Y-114489408D01*
X179573311Y-114489408D01*
X179561198Y-114425034D01*
X179479069Y-114297401D01*
X179353754Y-114211777D01*
X179205000Y-114181654D01*
X177705000Y-114181654D01*
X177566034Y-114207802D01*
X177438401Y-114289931D01*
X177352777Y-114415246D01*
X177332772Y-114514035D01*
X177158323Y-114513883D01*
X177157000Y-114514430D01*
X177157000Y-113704823D01*
X177157145Y-113704883D01*
X177332069Y-113705035D01*
X177348802Y-113793966D01*
X177430931Y-113921599D01*
X177556246Y-114007223D01*
X177705000Y-114037346D01*
X179205000Y-114037346D01*
X179343966Y-114011198D01*
X179471599Y-113929069D01*
X179557223Y-113803754D01*
X179587346Y-113655000D01*
X179587346Y-113128750D01*
X179830000Y-113128750D01*
X179830000Y-113729592D01*
X179887090Y-113867421D01*
X179992580Y-113972910D01*
X180130408Y-114030000D01*
X180856250Y-114030000D01*
X180950000Y-113936250D01*
X180950000Y-113035000D01*
X180960000Y-113035000D01*
X180960000Y-113936250D01*
X181053750Y-114030000D01*
X181779592Y-114030000D01*
X181917420Y-113972910D01*
X182022910Y-113867421D01*
X182080000Y-113729592D01*
X182080000Y-113128750D01*
X181986250Y-113035000D01*
X180960000Y-113035000D01*
X180950000Y-113035000D01*
X179923750Y-113035000D01*
X179830000Y-113128750D01*
X179587346Y-113128750D01*
X179587346Y-112405000D01*
X179573311Y-112330408D01*
X179830000Y-112330408D01*
X179830000Y-112931250D01*
X179923750Y-113025000D01*
X180950000Y-113025000D01*
X180950000Y-112123750D01*
X180960000Y-112123750D01*
X180960000Y-113025000D01*
X181986250Y-113025000D01*
X182080000Y-112931250D01*
X182080000Y-112330408D01*
X182022910Y-112192579D01*
X181917420Y-112087090D01*
X181779592Y-112030000D01*
X181053750Y-112030000D01*
X180960000Y-112123750D01*
X180950000Y-112123750D01*
X180856250Y-112030000D01*
X180130408Y-112030000D01*
X179992580Y-112087090D01*
X179887090Y-112192579D01*
X179830000Y-112330408D01*
X179573311Y-112330408D01*
X179561198Y-112266034D01*
X179479069Y-112138401D01*
X179353754Y-112052777D01*
X179205000Y-112022654D01*
X177705000Y-112022654D01*
X177566034Y-112048802D01*
X177438401Y-112130931D01*
X177352777Y-112256246D01*
X177332772Y-112355035D01*
X177158323Y-112354883D01*
X177157000Y-112355430D01*
X177157000Y-111164823D01*
X177157145Y-111164883D01*
X177332069Y-111165035D01*
X177348802Y-111253966D01*
X177430931Y-111381599D01*
X177556246Y-111467223D01*
X177705000Y-111497346D01*
X179205000Y-111497346D01*
X179343966Y-111471198D01*
X179471599Y-111389069D01*
X179557223Y-111263754D01*
X179587346Y-111115000D01*
X179587346Y-110588750D01*
X179830000Y-110588750D01*
X179830000Y-111189592D01*
X179887090Y-111327421D01*
X179992580Y-111432910D01*
X180130408Y-111490000D01*
X180856250Y-111490000D01*
X180950000Y-111396250D01*
X180950000Y-110495000D01*
X180960000Y-110495000D01*
X180960000Y-111396250D01*
X181053750Y-111490000D01*
X181779592Y-111490000D01*
X181917420Y-111432910D01*
X182022910Y-111327421D01*
X182080000Y-111189592D01*
X182080000Y-110588750D01*
X181986250Y-110495000D01*
X180960000Y-110495000D01*
X180950000Y-110495000D01*
X179923750Y-110495000D01*
X179830000Y-110588750D01*
X179587346Y-110588750D01*
X179587346Y-109865000D01*
X179573311Y-109790408D01*
X179830000Y-109790408D01*
X179830000Y-110391250D01*
X179923750Y-110485000D01*
X180950000Y-110485000D01*
X180950000Y-109583750D01*
X180960000Y-109583750D01*
X180960000Y-110485000D01*
X181986250Y-110485000D01*
X182080000Y-110391250D01*
X182080000Y-109790408D01*
X182022910Y-109652579D01*
X181917420Y-109547090D01*
X181779592Y-109490000D01*
X181053750Y-109490000D01*
X180960000Y-109583750D01*
X180950000Y-109583750D01*
X180856250Y-109490000D01*
X180130408Y-109490000D01*
X179992580Y-109547090D01*
X179887090Y-109652579D01*
X179830000Y-109790408D01*
X179573311Y-109790408D01*
X179561198Y-109726034D01*
X179479069Y-109598401D01*
X179353754Y-109512777D01*
X179205000Y-109482654D01*
X177705000Y-109482654D01*
X177566034Y-109508802D01*
X177438401Y-109590931D01*
X177352777Y-109716246D01*
X177332772Y-109815035D01*
X177158323Y-109814883D01*
X177157000Y-109815430D01*
X177157000Y-109353677D01*
X182204883Y-109353677D01*
X182307429Y-109601857D01*
X182497144Y-109791903D01*
X182745145Y-109894883D01*
X182767797Y-109894903D01*
X182937654Y-110064760D01*
X182937654Y-111140000D01*
X182963802Y-111278966D01*
X183045931Y-111406599D01*
X183171246Y-111492223D01*
X183320000Y-111522346D01*
X184820000Y-111522346D01*
X184958966Y-111496198D01*
X185086599Y-111414069D01*
X185172223Y-111288754D01*
X185202346Y-111140000D01*
X185202346Y-109840000D01*
X185637654Y-109840000D01*
X185637654Y-111140000D01*
X185663802Y-111278966D01*
X185745931Y-111406599D01*
X185871246Y-111492223D01*
X186020000Y-111522346D01*
X187520000Y-111522346D01*
X187658966Y-111496198D01*
X187786599Y-111414069D01*
X187872223Y-111288754D01*
X187902346Y-111140000D01*
X187902346Y-110490000D01*
X189737062Y-110490000D01*
X189822698Y-110920519D01*
X190066567Y-111285495D01*
X190431543Y-111529364D01*
X190862062Y-111615000D01*
X191415938Y-111615000D01*
X191846457Y-111529364D01*
X192211433Y-111285495D01*
X192455302Y-110920519D01*
X192504949Y-110670925D01*
X192818644Y-110670925D01*
X192887723Y-110915900D01*
X193129970Y-111281960D01*
X193493862Y-111527451D01*
X193924000Y-111615000D01*
X194174000Y-111615000D01*
X194174000Y-110495000D01*
X194184000Y-110495000D01*
X194184000Y-111615000D01*
X194434000Y-111615000D01*
X194864138Y-111527451D01*
X195228030Y-111281960D01*
X195470277Y-110915900D01*
X195539356Y-110670925D01*
X195460238Y-110495000D01*
X194184000Y-110495000D01*
X194174000Y-110495000D01*
X192897762Y-110495000D01*
X192818644Y-110670925D01*
X192504949Y-110670925D01*
X192540938Y-110490000D01*
X192504950Y-110309075D01*
X192818644Y-110309075D01*
X192897762Y-110485000D01*
X194174000Y-110485000D01*
X194174000Y-109365000D01*
X194184000Y-109365000D01*
X194184000Y-110485000D01*
X195460238Y-110485000D01*
X195539356Y-110309075D01*
X195470277Y-110064100D01*
X195228030Y-109698040D01*
X194864138Y-109452549D01*
X194434000Y-109365000D01*
X194184000Y-109365000D01*
X194174000Y-109365000D01*
X193924000Y-109365000D01*
X193493862Y-109452549D01*
X193129970Y-109698040D01*
X192887723Y-110064100D01*
X192818644Y-110309075D01*
X192504950Y-110309075D01*
X192455302Y-110059481D01*
X192211433Y-109694505D01*
X191846457Y-109450636D01*
X191415938Y-109365000D01*
X190862062Y-109365000D01*
X190431543Y-109450636D01*
X190066567Y-109694505D01*
X189822698Y-110059481D01*
X189737062Y-110490000D01*
X187902346Y-110490000D01*
X187902346Y-110064760D01*
X189517107Y-108450000D01*
X189869124Y-108450000D01*
X190066567Y-108745495D01*
X190431543Y-108989364D01*
X190862062Y-109075000D01*
X191415938Y-109075000D01*
X191846457Y-108989364D01*
X192211433Y-108745495D01*
X192455302Y-108380519D01*
X192504949Y-108130925D01*
X192818644Y-108130925D01*
X192887723Y-108375900D01*
X193129970Y-108741960D01*
X193493862Y-108987451D01*
X193924000Y-109075000D01*
X194174000Y-109075000D01*
X194174000Y-107955000D01*
X194184000Y-107955000D01*
X194184000Y-109075000D01*
X194434000Y-109075000D01*
X194864138Y-108987451D01*
X195228030Y-108741960D01*
X195470277Y-108375900D01*
X195539356Y-108130925D01*
X195460238Y-107955000D01*
X194184000Y-107955000D01*
X194174000Y-107955000D01*
X192897762Y-107955000D01*
X192818644Y-108130925D01*
X192504949Y-108130925D01*
X192540938Y-107950000D01*
X192504950Y-107769075D01*
X192818644Y-107769075D01*
X192897762Y-107945000D01*
X194174000Y-107945000D01*
X194174000Y-106825000D01*
X194184000Y-106825000D01*
X194184000Y-107945000D01*
X195460238Y-107945000D01*
X195539356Y-107769075D01*
X195470277Y-107524100D01*
X195228030Y-107158040D01*
X194864138Y-106912549D01*
X194434000Y-106825000D01*
X194184000Y-106825000D01*
X194174000Y-106825000D01*
X193924000Y-106825000D01*
X193493862Y-106912549D01*
X193129970Y-107158040D01*
X192887723Y-107524100D01*
X192818644Y-107769075D01*
X192504950Y-107769075D01*
X192455302Y-107519481D01*
X192211433Y-107154505D01*
X191846457Y-106910636D01*
X191415938Y-106825000D01*
X190862062Y-106825000D01*
X190431543Y-106910636D01*
X190066567Y-107154505D01*
X189869124Y-107450000D01*
X189310000Y-107450000D01*
X189118658Y-107488060D01*
X188956446Y-107596447D01*
X187095240Y-109457654D01*
X186020000Y-109457654D01*
X185881034Y-109483802D01*
X185753401Y-109565931D01*
X185667777Y-109691246D01*
X185637654Y-109840000D01*
X185202346Y-109840000D01*
X185176198Y-109701034D01*
X185094069Y-109573401D01*
X184968754Y-109487777D01*
X184820000Y-109457654D01*
X183744760Y-109457654D01*
X183554959Y-109267853D01*
X183555117Y-109086323D01*
X183452571Y-108838143D01*
X183262856Y-108648097D01*
X183014855Y-108545117D01*
X182746323Y-108544883D01*
X182498143Y-108647429D01*
X182308097Y-108837144D01*
X182205117Y-109085145D01*
X182204883Y-109353677D01*
X177157000Y-109353677D01*
X177157000Y-109005823D01*
X177157145Y-109005883D01*
X177332069Y-109006035D01*
X177348802Y-109094966D01*
X177430931Y-109222599D01*
X177556246Y-109308223D01*
X177705000Y-109338346D01*
X179205000Y-109338346D01*
X179343966Y-109312198D01*
X179471599Y-109230069D01*
X179557223Y-109104754D01*
X179587346Y-108956000D01*
X179587346Y-108429750D01*
X179830000Y-108429750D01*
X179830000Y-109030592D01*
X179887090Y-109168421D01*
X179992580Y-109273910D01*
X180130408Y-109331000D01*
X180856250Y-109331000D01*
X180950000Y-109237250D01*
X180950000Y-108336000D01*
X180960000Y-108336000D01*
X180960000Y-109237250D01*
X181053750Y-109331000D01*
X181779592Y-109331000D01*
X181917420Y-109273910D01*
X182022910Y-109168421D01*
X182080000Y-109030592D01*
X182080000Y-108429750D01*
X181986250Y-108336000D01*
X180960000Y-108336000D01*
X180950000Y-108336000D01*
X179923750Y-108336000D01*
X179830000Y-108429750D01*
X179587346Y-108429750D01*
X179587346Y-107706000D01*
X179573311Y-107631408D01*
X179830000Y-107631408D01*
X179830000Y-108232250D01*
X179923750Y-108326000D01*
X180950000Y-108326000D01*
X180950000Y-107424750D01*
X180960000Y-107424750D01*
X180960000Y-108326000D01*
X181986250Y-108326000D01*
X182080000Y-108232250D01*
X182080000Y-107631408D01*
X182022910Y-107493579D01*
X181917420Y-107388090D01*
X181779592Y-107331000D01*
X181053750Y-107331000D01*
X180960000Y-107424750D01*
X180950000Y-107424750D01*
X180856250Y-107331000D01*
X180130408Y-107331000D01*
X179992580Y-107388090D01*
X179887090Y-107493579D01*
X179830000Y-107631408D01*
X179573311Y-107631408D01*
X179561198Y-107567034D01*
X179479069Y-107439401D01*
X179353754Y-107353777D01*
X179205000Y-107323654D01*
X177705000Y-107323654D01*
X177566034Y-107349802D01*
X177438401Y-107431931D01*
X177352777Y-107557246D01*
X177332772Y-107656035D01*
X177158323Y-107655883D01*
X177157000Y-107656430D01*
X177157000Y-107515634D01*
X177228903Y-107443856D01*
X177331883Y-107195855D01*
X177332117Y-106927323D01*
X177229571Y-106679143D01*
X177039856Y-106489097D01*
X176791855Y-106386117D01*
X176523323Y-106385883D01*
X176275143Y-106488429D01*
X176085097Y-106678144D01*
X175982117Y-106926145D01*
X175981883Y-107194677D01*
X176084429Y-107442857D01*
X176157000Y-107515555D01*
X176157000Y-115877366D01*
X176085097Y-115949144D01*
X175982117Y-116197145D01*
X175981883Y-116465677D01*
X176084429Y-116713857D01*
X176157000Y-116786555D01*
X176157000Y-122177000D01*
X173072234Y-122177000D01*
X173060198Y-122113034D01*
X172978069Y-121985401D01*
X172852754Y-121899777D01*
X172704000Y-121869654D01*
X172196811Y-121869654D01*
X172208599Y-121862069D01*
X172294223Y-121736754D01*
X172324346Y-121588000D01*
X172324346Y-120588000D01*
X172304839Y-120484329D01*
X172324346Y-120388000D01*
X172324346Y-119388000D01*
X172305825Y-119289570D01*
X172317000Y-119262592D01*
X172317000Y-118786750D01*
X172223250Y-118693000D01*
X170947000Y-118693000D01*
X170947000Y-118713000D01*
X170937000Y-118713000D01*
X170937000Y-118693000D01*
X169660750Y-118693000D01*
X169567000Y-118786750D01*
X169567000Y-119262592D01*
X169579123Y-119291859D01*
X169559654Y-119388000D01*
X169559654Y-119596940D01*
X169552855Y-119594117D01*
X169284323Y-119593883D01*
X169036143Y-119696429D01*
X168973557Y-119758906D01*
X168911856Y-119697097D01*
X168663855Y-119594117D01*
X168395323Y-119593883D01*
X168278871Y-119642000D01*
X168260346Y-119642000D01*
X168260346Y-119388000D01*
X168241825Y-119289570D01*
X168253000Y-119262592D01*
X168253000Y-118786750D01*
X168159250Y-118693000D01*
X166883000Y-118693000D01*
X166883000Y-118713000D01*
X166873000Y-118713000D01*
X166873000Y-118693000D01*
X165596750Y-118693000D01*
X165503000Y-118786750D01*
X165503000Y-119262592D01*
X165515123Y-119291859D01*
X165495654Y-119388000D01*
X164381000Y-119388000D01*
X164381000Y-118970750D01*
X164287250Y-118877000D01*
X163511000Y-118877000D01*
X163501000Y-118877000D01*
X163481000Y-118877000D01*
X163481000Y-118867000D01*
X163501000Y-118867000D01*
X163501000Y-117590750D01*
X163511000Y-117590750D01*
X163511000Y-118867000D01*
X164287250Y-118867000D01*
X164381000Y-118773250D01*
X164381000Y-118113408D01*
X165503000Y-118113408D01*
X165503000Y-118589250D01*
X165596750Y-118683000D01*
X166873000Y-118683000D01*
X166873000Y-117906750D01*
X166883000Y-117906750D01*
X166883000Y-118683000D01*
X168159250Y-118683000D01*
X168253000Y-118589250D01*
X168253000Y-118113408D01*
X169567000Y-118113408D01*
X169567000Y-118589250D01*
X169660750Y-118683000D01*
X170937000Y-118683000D01*
X170937000Y-117906750D01*
X170947000Y-117906750D01*
X170947000Y-118683000D01*
X172223250Y-118683000D01*
X172317000Y-118589250D01*
X172317000Y-118113408D01*
X172259910Y-117975580D01*
X172154421Y-117870090D01*
X172016592Y-117813000D01*
X171040750Y-117813000D01*
X170947000Y-117906750D01*
X170937000Y-117906750D01*
X170843250Y-117813000D01*
X169867408Y-117813000D01*
X169729579Y-117870090D01*
X169624090Y-117975580D01*
X169567000Y-118113408D01*
X168253000Y-118113408D01*
X168195910Y-117975580D01*
X168090421Y-117870090D01*
X167952592Y-117813000D01*
X166976750Y-117813000D01*
X166883000Y-117906750D01*
X166873000Y-117906750D01*
X166779250Y-117813000D01*
X165803408Y-117813000D01*
X165665579Y-117870090D01*
X165560090Y-117975580D01*
X165503000Y-118113408D01*
X164381000Y-118113408D01*
X164381000Y-117797408D01*
X164323910Y-117659579D01*
X164218420Y-117554090D01*
X164080592Y-117497000D01*
X163604750Y-117497000D01*
X163511000Y-117590750D01*
X163501000Y-117590750D01*
X163407250Y-117497000D01*
X162931408Y-117497000D01*
X162902141Y-117509123D01*
X162806000Y-117489654D01*
X161806000Y-117489654D01*
X161702329Y-117509161D01*
X161606000Y-117489654D01*
X160606000Y-117489654D01*
X160467034Y-117515802D01*
X160401064Y-117558252D01*
X160344754Y-117519777D01*
X160284000Y-117507474D01*
X160284000Y-115424346D01*
X160516000Y-115424346D01*
X160654966Y-115398198D01*
X160782599Y-115316069D01*
X160868223Y-115190754D01*
X160898346Y-115042000D01*
X160898346Y-113765062D01*
X161181000Y-113765062D01*
X161181000Y-114318938D01*
X161266636Y-114749457D01*
X161510505Y-115114433D01*
X161875481Y-115358302D01*
X162306000Y-115443938D01*
X162736519Y-115358302D01*
X163101495Y-115114433D01*
X163345364Y-114749457D01*
X163431000Y-114318938D01*
X163431000Y-113765062D01*
X163721000Y-113765062D01*
X163721000Y-114318938D01*
X163806636Y-114749457D01*
X164050505Y-115114433D01*
X164415481Y-115358302D01*
X164846000Y-115443938D01*
X165276519Y-115358302D01*
X165641495Y-115114433D01*
X165885364Y-114749457D01*
X165971000Y-114318938D01*
X165971000Y-113765062D01*
X166261000Y-113765062D01*
X166261000Y-114318938D01*
X166346636Y-114749457D01*
X166590505Y-115114433D01*
X166955481Y-115358302D01*
X167386000Y-115443938D01*
X167816519Y-115358302D01*
X168181495Y-115114433D01*
X168425364Y-114749457D01*
X168511000Y-114318938D01*
X168511000Y-114047000D01*
X168801000Y-114047000D01*
X168801000Y-114297000D01*
X168888549Y-114727138D01*
X169134040Y-115091030D01*
X169500100Y-115333277D01*
X169745075Y-115402356D01*
X169921000Y-115323238D01*
X169921000Y-114047000D01*
X169931000Y-114047000D01*
X169931000Y-115323238D01*
X170106925Y-115402356D01*
X170351900Y-115333277D01*
X170717960Y-115091030D01*
X170963451Y-114727138D01*
X171051000Y-114297000D01*
X171051000Y-114047000D01*
X169931000Y-114047000D01*
X169921000Y-114047000D01*
X168801000Y-114047000D01*
X168511000Y-114047000D01*
X168511000Y-113787000D01*
X168801000Y-113787000D01*
X168801000Y-114037000D01*
X169921000Y-114037000D01*
X169921000Y-112760762D01*
X169931000Y-112760762D01*
X169931000Y-114037000D01*
X171051000Y-114037000D01*
X171051000Y-113787000D01*
X170963451Y-113356862D01*
X170717960Y-112992970D01*
X170351900Y-112750723D01*
X170106925Y-112681644D01*
X169931000Y-112760762D01*
X169921000Y-112760762D01*
X169745075Y-112681644D01*
X169500100Y-112750723D01*
X169134040Y-112992970D01*
X168888549Y-113356862D01*
X168801000Y-113787000D01*
X168511000Y-113787000D01*
X168511000Y-113765062D01*
X168425364Y-113334543D01*
X168181495Y-112969567D01*
X167816519Y-112725698D01*
X167386000Y-112640062D01*
X166955481Y-112725698D01*
X166590505Y-112969567D01*
X166346636Y-113334543D01*
X166261000Y-113765062D01*
X165971000Y-113765062D01*
X165885364Y-113334543D01*
X165641495Y-112969567D01*
X165276519Y-112725698D01*
X164846000Y-112640062D01*
X164415481Y-112725698D01*
X164050505Y-112969567D01*
X163806636Y-113334543D01*
X163721000Y-113765062D01*
X163431000Y-113765062D01*
X163345364Y-113334543D01*
X163101495Y-112969567D01*
X162736519Y-112725698D01*
X162306000Y-112640062D01*
X161875481Y-112725698D01*
X161510505Y-112969567D01*
X161266636Y-113334543D01*
X161181000Y-113765062D01*
X160898346Y-113765062D01*
X160898346Y-113042000D01*
X160872198Y-112903034D01*
X160790069Y-112775401D01*
X160664754Y-112689777D01*
X160516000Y-112659654D01*
X159016000Y-112659654D01*
X158877034Y-112685802D01*
X158749401Y-112767931D01*
X158663777Y-112893246D01*
X158633654Y-113042000D01*
X158633654Y-115042000D01*
X158659802Y-115180966D01*
X158741931Y-115308599D01*
X158867246Y-115394223D01*
X159016000Y-115424346D01*
X159134000Y-115424346D01*
X159134000Y-117501320D01*
X159092329Y-117509161D01*
X158996000Y-117489654D01*
X157996000Y-117489654D01*
X157897570Y-117508175D01*
X157870592Y-117497000D01*
X157394750Y-117497000D01*
X157301000Y-117590750D01*
X157291000Y-117590750D01*
X157197250Y-117497000D01*
X156721408Y-117497000D01*
X156583580Y-117554090D01*
X156478090Y-117659579D01*
X156421000Y-117797408D01*
X154950000Y-117797408D01*
X154950000Y-110725062D01*
X158641000Y-110725062D01*
X158641000Y-111278938D01*
X158726636Y-111709457D01*
X158970505Y-112074433D01*
X159335481Y-112318302D01*
X159766000Y-112403938D01*
X160196519Y-112318302D01*
X160561495Y-112074433D01*
X160805364Y-111709457D01*
X160891000Y-111278938D01*
X160891000Y-110725062D01*
X161181000Y-110725062D01*
X161181000Y-111278938D01*
X161266636Y-111709457D01*
X161510505Y-112074433D01*
X161875481Y-112318302D01*
X162306000Y-112403938D01*
X162736519Y-112318302D01*
X163101495Y-112074433D01*
X163345364Y-111709457D01*
X163431000Y-111278938D01*
X163431000Y-110725062D01*
X163721000Y-110725062D01*
X163721000Y-111278938D01*
X163806636Y-111709457D01*
X164050505Y-112074433D01*
X164415481Y-112318302D01*
X164846000Y-112403938D01*
X165276519Y-112318302D01*
X165641495Y-112074433D01*
X165885364Y-111709457D01*
X165971000Y-111278938D01*
X165971000Y-110725062D01*
X166261000Y-110725062D01*
X166261000Y-111278938D01*
X166346636Y-111709457D01*
X166590505Y-112074433D01*
X166955481Y-112318302D01*
X167386000Y-112403938D01*
X167816519Y-112318302D01*
X168181495Y-112074433D01*
X168425364Y-111709457D01*
X168511000Y-111278938D01*
X168511000Y-111007000D01*
X168801000Y-111007000D01*
X168801000Y-111257000D01*
X168888549Y-111687138D01*
X169134040Y-112051030D01*
X169500100Y-112293277D01*
X169745075Y-112362356D01*
X169921000Y-112283238D01*
X169921000Y-111007000D01*
X169931000Y-111007000D01*
X169931000Y-112283238D01*
X170106925Y-112362356D01*
X170351900Y-112293277D01*
X170717960Y-112051030D01*
X170963451Y-111687138D01*
X171051000Y-111257000D01*
X171051000Y-111007000D01*
X169931000Y-111007000D01*
X169921000Y-111007000D01*
X168801000Y-111007000D01*
X168511000Y-111007000D01*
X168511000Y-110747000D01*
X168801000Y-110747000D01*
X168801000Y-110997000D01*
X169921000Y-110997000D01*
X169921000Y-109720762D01*
X169931000Y-109720762D01*
X169931000Y-110997000D01*
X171051000Y-110997000D01*
X171051000Y-110747000D01*
X170963451Y-110316862D01*
X170717960Y-109952970D01*
X170351900Y-109710723D01*
X170106925Y-109641644D01*
X169931000Y-109720762D01*
X169921000Y-109720762D01*
X169745075Y-109641644D01*
X169500100Y-109710723D01*
X169134040Y-109952970D01*
X168888549Y-110316862D01*
X168801000Y-110747000D01*
X168511000Y-110747000D01*
X168511000Y-110725062D01*
X168425364Y-110294543D01*
X168181495Y-109929567D01*
X167816519Y-109685698D01*
X167386000Y-109600062D01*
X166955481Y-109685698D01*
X166590505Y-109929567D01*
X166346636Y-110294543D01*
X166261000Y-110725062D01*
X165971000Y-110725062D01*
X165885364Y-110294543D01*
X165641495Y-109929567D01*
X165276519Y-109685698D01*
X164846000Y-109600062D01*
X164415481Y-109685698D01*
X164050505Y-109929567D01*
X163806636Y-110294543D01*
X163721000Y-110725062D01*
X163431000Y-110725062D01*
X163345364Y-110294543D01*
X163101495Y-109929567D01*
X162736519Y-109685698D01*
X162306000Y-109600062D01*
X161875481Y-109685698D01*
X161510505Y-109929567D01*
X161266636Y-110294543D01*
X161181000Y-110725062D01*
X160891000Y-110725062D01*
X160805364Y-110294543D01*
X160561495Y-109929567D01*
X160196519Y-109685698D01*
X159766000Y-109600062D01*
X159335481Y-109685698D01*
X158970505Y-109929567D01*
X158726636Y-110294543D01*
X158641000Y-110725062D01*
X154950000Y-110725062D01*
X154950000Y-105162677D01*
X176616883Y-105162677D01*
X176719429Y-105410857D01*
X176909144Y-105600903D01*
X177157145Y-105703883D01*
X177332069Y-105704035D01*
X177348802Y-105792966D01*
X177430931Y-105920599D01*
X177556246Y-106006223D01*
X177705000Y-106036346D01*
X179205000Y-106036346D01*
X179343966Y-106010198D01*
X179471599Y-105928069D01*
X179557223Y-105802754D01*
X179587346Y-105654000D01*
X179587346Y-105127750D01*
X179830000Y-105127750D01*
X179830000Y-105728592D01*
X179887090Y-105866421D01*
X179992580Y-105971910D01*
X180130408Y-106029000D01*
X180856250Y-106029000D01*
X180950000Y-105935250D01*
X180950000Y-105034000D01*
X180960000Y-105034000D01*
X180960000Y-105935250D01*
X181053750Y-106029000D01*
X181779592Y-106029000D01*
X181917420Y-105971910D01*
X182022910Y-105866421D01*
X182080000Y-105728592D01*
X182080000Y-105127750D01*
X181986250Y-105034000D01*
X180960000Y-105034000D01*
X180950000Y-105034000D01*
X179923750Y-105034000D01*
X179830000Y-105127750D01*
X179587346Y-105127750D01*
X179587346Y-104404000D01*
X179573311Y-104329408D01*
X179830000Y-104329408D01*
X179830000Y-104930250D01*
X179923750Y-105024000D01*
X180950000Y-105024000D01*
X180950000Y-104122750D01*
X180960000Y-104122750D01*
X180960000Y-105024000D01*
X181986250Y-105024000D01*
X182080000Y-104930250D01*
X182080000Y-104329408D01*
X182056916Y-104273677D01*
X182204883Y-104273677D01*
X182307429Y-104521857D01*
X182497144Y-104711903D01*
X182745145Y-104814883D01*
X183013677Y-104815117D01*
X183261857Y-104712571D01*
X183451903Y-104522856D01*
X183554883Y-104274855D01*
X183555042Y-104092064D01*
X183744760Y-103902346D01*
X184820000Y-103902346D01*
X184958966Y-103876198D01*
X185086599Y-103794069D01*
X185172223Y-103668754D01*
X185202346Y-103520000D01*
X185202346Y-102220000D01*
X185637654Y-102220000D01*
X185637654Y-103520000D01*
X185663802Y-103658966D01*
X185745931Y-103786599D01*
X185871246Y-103872223D01*
X186020000Y-103902346D01*
X187095240Y-103902346D01*
X188956446Y-105763553D01*
X189110398Y-105866421D01*
X189118658Y-105871940D01*
X189310000Y-105910000D01*
X189869124Y-105910000D01*
X190066567Y-106205495D01*
X190431543Y-106449364D01*
X190862062Y-106535000D01*
X191415938Y-106535000D01*
X191846457Y-106449364D01*
X192211433Y-106205495D01*
X192455302Y-105840519D01*
X192504949Y-105590925D01*
X192818644Y-105590925D01*
X192887723Y-105835900D01*
X193129970Y-106201960D01*
X193493862Y-106447451D01*
X193924000Y-106535000D01*
X194174000Y-106535000D01*
X194174000Y-105415000D01*
X194184000Y-105415000D01*
X194184000Y-106535000D01*
X194434000Y-106535000D01*
X194864138Y-106447451D01*
X195228030Y-106201960D01*
X195470277Y-105835900D01*
X195539356Y-105590925D01*
X195460238Y-105415000D01*
X194184000Y-105415000D01*
X194174000Y-105415000D01*
X192897762Y-105415000D01*
X192818644Y-105590925D01*
X192504949Y-105590925D01*
X192540938Y-105410000D01*
X192504950Y-105229075D01*
X192818644Y-105229075D01*
X192897762Y-105405000D01*
X194174000Y-105405000D01*
X194174000Y-104285000D01*
X194184000Y-104285000D01*
X194184000Y-105405000D01*
X195460238Y-105405000D01*
X195539356Y-105229075D01*
X195470277Y-104984100D01*
X195228030Y-104618040D01*
X194864138Y-104372549D01*
X194434000Y-104285000D01*
X194184000Y-104285000D01*
X194174000Y-104285000D01*
X193924000Y-104285000D01*
X193493862Y-104372549D01*
X193129970Y-104618040D01*
X192887723Y-104984100D01*
X192818644Y-105229075D01*
X192504950Y-105229075D01*
X192455302Y-104979481D01*
X192211433Y-104614505D01*
X191846457Y-104370636D01*
X191415938Y-104285000D01*
X190862062Y-104285000D01*
X190431543Y-104370636D01*
X190066567Y-104614505D01*
X189869124Y-104910000D01*
X189517107Y-104910000D01*
X187902346Y-103295240D01*
X187902346Y-102220000D01*
X187883530Y-102120000D01*
X189756654Y-102120000D01*
X189756654Y-103620000D01*
X189782802Y-103758966D01*
X189864931Y-103886599D01*
X189990246Y-103972223D01*
X190139000Y-104002346D01*
X192139000Y-104002346D01*
X192277966Y-103976198D01*
X192405599Y-103894069D01*
X192491223Y-103768754D01*
X192521346Y-103620000D01*
X192521346Y-103050925D01*
X192818644Y-103050925D01*
X192887723Y-103295900D01*
X193129970Y-103661960D01*
X193493862Y-103907451D01*
X193924000Y-103995000D01*
X194174000Y-103995000D01*
X194174000Y-102875000D01*
X194184000Y-102875000D01*
X194184000Y-103995000D01*
X194434000Y-103995000D01*
X194864138Y-103907451D01*
X195228030Y-103661960D01*
X195470277Y-103295900D01*
X195539356Y-103050925D01*
X195460238Y-102875000D01*
X194184000Y-102875000D01*
X194174000Y-102875000D01*
X192897762Y-102875000D01*
X192818644Y-103050925D01*
X192521346Y-103050925D01*
X192521346Y-102689075D01*
X192818644Y-102689075D01*
X192897762Y-102865000D01*
X194174000Y-102865000D01*
X194174000Y-101745000D01*
X194184000Y-101745000D01*
X194184000Y-102865000D01*
X195460238Y-102865000D01*
X195539356Y-102689075D01*
X195470277Y-102444100D01*
X195228030Y-102078040D01*
X194864138Y-101832549D01*
X194434000Y-101745000D01*
X194184000Y-101745000D01*
X194174000Y-101745000D01*
X193924000Y-101745000D01*
X193493862Y-101832549D01*
X193129970Y-102078040D01*
X192887723Y-102444100D01*
X192818644Y-102689075D01*
X192521346Y-102689075D01*
X192521346Y-102120000D01*
X192495198Y-101981034D01*
X192413069Y-101853401D01*
X192287754Y-101767777D01*
X192139000Y-101737654D01*
X190139000Y-101737654D01*
X190000034Y-101763802D01*
X189872401Y-101845931D01*
X189786777Y-101971246D01*
X189756654Y-102120000D01*
X187883530Y-102120000D01*
X187876198Y-102081034D01*
X187794069Y-101953401D01*
X187668754Y-101867777D01*
X187520000Y-101837654D01*
X186020000Y-101837654D01*
X185881034Y-101863802D01*
X185753401Y-101945931D01*
X185667777Y-102071246D01*
X185637654Y-102220000D01*
X185202346Y-102220000D01*
X185176198Y-102081034D01*
X185094069Y-101953401D01*
X184968754Y-101867777D01*
X184820000Y-101837654D01*
X183320000Y-101837654D01*
X183181034Y-101863802D01*
X183053401Y-101945931D01*
X182967777Y-102071246D01*
X182937654Y-102220000D01*
X182937654Y-103295240D01*
X182767992Y-103464902D01*
X182746323Y-103464883D01*
X182498143Y-103567429D01*
X182308097Y-103757144D01*
X182205117Y-104005145D01*
X182204883Y-104273677D01*
X182056916Y-104273677D01*
X182022910Y-104191579D01*
X181917420Y-104086090D01*
X181779592Y-104029000D01*
X181053750Y-104029000D01*
X180960000Y-104122750D01*
X180950000Y-104122750D01*
X180856250Y-104029000D01*
X180130408Y-104029000D01*
X179992580Y-104086090D01*
X179887090Y-104191579D01*
X179830000Y-104329408D01*
X179573311Y-104329408D01*
X179561198Y-104265034D01*
X179479069Y-104137401D01*
X179353754Y-104051777D01*
X179205000Y-104021654D01*
X177705000Y-104021654D01*
X177566034Y-104047802D01*
X177438401Y-104129931D01*
X177352777Y-104255246D01*
X177332772Y-104354035D01*
X177158323Y-104353883D01*
X176910143Y-104456429D01*
X176720097Y-104646144D01*
X176617117Y-104894145D01*
X176616883Y-105162677D01*
X154950000Y-105162677D01*
X154950000Y-102500050D01*
X156474562Y-102500050D01*
X156858161Y-103428429D01*
X157567835Y-104139343D01*
X158495543Y-104524561D01*
X159500050Y-104525438D01*
X160428429Y-104141839D01*
X161139343Y-103432165D01*
X161317266Y-103003677D01*
X176616883Y-103003677D01*
X176719429Y-103251857D01*
X176909144Y-103441903D01*
X177157145Y-103544883D01*
X177332069Y-103545035D01*
X177348802Y-103633966D01*
X177430931Y-103761599D01*
X177556246Y-103847223D01*
X177705000Y-103877346D01*
X179205000Y-103877346D01*
X179343966Y-103851198D01*
X179471599Y-103769069D01*
X179557223Y-103643754D01*
X179587346Y-103495000D01*
X179587346Y-102968750D01*
X179830000Y-102968750D01*
X179830000Y-103569592D01*
X179887090Y-103707421D01*
X179992580Y-103812910D01*
X180130408Y-103870000D01*
X180856250Y-103870000D01*
X180950000Y-103776250D01*
X180950000Y-102875000D01*
X180960000Y-102875000D01*
X180960000Y-103776250D01*
X181053750Y-103870000D01*
X181779592Y-103870000D01*
X181917420Y-103812910D01*
X182022910Y-103707421D01*
X182080000Y-103569592D01*
X182080000Y-102968750D01*
X181986250Y-102875000D01*
X180960000Y-102875000D01*
X180950000Y-102875000D01*
X179923750Y-102875000D01*
X179830000Y-102968750D01*
X179587346Y-102968750D01*
X179587346Y-102245000D01*
X179573311Y-102170408D01*
X179830000Y-102170408D01*
X179830000Y-102771250D01*
X179923750Y-102865000D01*
X180950000Y-102865000D01*
X180950000Y-101963750D01*
X180960000Y-101963750D01*
X180960000Y-102865000D01*
X181986250Y-102865000D01*
X182080000Y-102771250D01*
X182080000Y-102170408D01*
X182022910Y-102032579D01*
X181917420Y-101927090D01*
X181779592Y-101870000D01*
X181053750Y-101870000D01*
X180960000Y-101963750D01*
X180950000Y-101963750D01*
X180856250Y-101870000D01*
X180130408Y-101870000D01*
X179992580Y-101927090D01*
X179887090Y-102032579D01*
X179830000Y-102170408D01*
X179573311Y-102170408D01*
X179561198Y-102106034D01*
X179479069Y-101978401D01*
X179353754Y-101892777D01*
X179205000Y-101862654D01*
X177705000Y-101862654D01*
X177566034Y-101888802D01*
X177438401Y-101970931D01*
X177352777Y-102096246D01*
X177332772Y-102195035D01*
X177158323Y-102194883D01*
X176910143Y-102297429D01*
X176720097Y-102487144D01*
X176617117Y-102735145D01*
X176616883Y-103003677D01*
X161317266Y-103003677D01*
X161524561Y-102504457D01*
X161525438Y-101499950D01*
X161141839Y-100571571D01*
X160432165Y-99860657D01*
X159563607Y-99500000D01*
X166550000Y-99500000D01*
X166550000Y-101500000D01*
X166584254Y-101672208D01*
X166681802Y-101818198D01*
X166827792Y-101915746D01*
X167000000Y-101950000D01*
X173000000Y-101950000D01*
X173172208Y-101915746D01*
X173318198Y-101818198D01*
X173415746Y-101672208D01*
X173450000Y-101500000D01*
X173450000Y-99500000D01*
X173415746Y-99327792D01*
X173318198Y-99181802D01*
X173172208Y-99084254D01*
X173000000Y-99050000D01*
X167000000Y-99050000D01*
X166827792Y-99084254D01*
X166681802Y-99181802D01*
X166584254Y-99327792D01*
X166550000Y-99500000D01*
X159563607Y-99500000D01*
X159504457Y-99475439D01*
X158499950Y-99474562D01*
X157571571Y-99858161D01*
X156860657Y-100567835D01*
X156475439Y-101495543D01*
X156474562Y-102500050D01*
X154950000Y-102500050D01*
X154950000Y-97950000D01*
X197050000Y-97950000D01*
X197050000Y-146050000D01*
X197050000Y-146050000D01*
G37*
X197050000Y-146050000D02*
X154950000Y-146050000D01*
X154950000Y-142500000D01*
X166550000Y-142500000D01*
X166550000Y-144500000D01*
X166584254Y-144672208D01*
X166681802Y-144818198D01*
X166827792Y-144915746D01*
X167000000Y-144950000D01*
X173000000Y-144950000D01*
X173172208Y-144915746D01*
X173318198Y-144818198D01*
X173415746Y-144672208D01*
X173450000Y-144500000D01*
X173450000Y-142500000D01*
X173415746Y-142327792D01*
X173318198Y-142181802D01*
X173172208Y-142084254D01*
X173000000Y-142050000D01*
X167000000Y-142050000D01*
X166827792Y-142084254D01*
X166681802Y-142181802D01*
X166584254Y-142327792D01*
X166550000Y-142500000D01*
X154950000Y-142500000D01*
X154950000Y-140595677D01*
X176489883Y-140595677D01*
X176592429Y-140843857D01*
X176782144Y-141033903D01*
X177030145Y-141136883D01*
X177298677Y-141137117D01*
X177449654Y-141074735D01*
X177449654Y-141595000D01*
X177475802Y-141733966D01*
X177557931Y-141861599D01*
X177683246Y-141947223D01*
X177832000Y-141977346D01*
X179332000Y-141977346D01*
X179470966Y-141951198D01*
X179598599Y-141869069D01*
X179684223Y-141743754D01*
X179714346Y-141595000D01*
X179714346Y-141068750D01*
X179957000Y-141068750D01*
X179957000Y-141669592D01*
X180014090Y-141807421D01*
X180119580Y-141912910D01*
X180257408Y-141970000D01*
X180983250Y-141970000D01*
X181077000Y-141876250D01*
X181077000Y-140975000D01*
X181087000Y-140975000D01*
X181087000Y-141876250D01*
X181180750Y-141970000D01*
X181906592Y-141970000D01*
X182044420Y-141912910D01*
X182149910Y-141807421D01*
X182207000Y-141669592D01*
X182207000Y-141068750D01*
X182113250Y-140975000D01*
X181087000Y-140975000D01*
X181077000Y-140975000D01*
X180050750Y-140975000D01*
X179957000Y-141068750D01*
X179714346Y-141068750D01*
X179714346Y-140345000D01*
X179700311Y-140270408D01*
X179957000Y-140270408D01*
X179957000Y-140871250D01*
X180050750Y-140965000D01*
X181077000Y-140965000D01*
X181077000Y-140063750D01*
X181087000Y-140063750D01*
X181087000Y-140965000D01*
X182113250Y-140965000D01*
X182207000Y-140871250D01*
X182207000Y-140270408D01*
X182149910Y-140132579D01*
X182044420Y-140027090D01*
X181906592Y-139970000D01*
X181180750Y-139970000D01*
X181087000Y-140063750D01*
X181077000Y-140063750D01*
X180983250Y-139970000D01*
X180257408Y-139970000D01*
X180119580Y-140027090D01*
X180014090Y-140132579D01*
X179957000Y-140270408D01*
X179700311Y-140270408D01*
X179688198Y-140206034D01*
X179606069Y-140078401D01*
X179480754Y-139992777D01*
X179332000Y-139962654D01*
X178077288Y-139962654D01*
X178074000Y-139962000D01*
X177619634Y-139962000D01*
X177547856Y-139890097D01*
X177299855Y-139787117D01*
X177031323Y-139786883D01*
X176783143Y-139889429D01*
X176593097Y-140079144D01*
X176490117Y-140327145D01*
X176489883Y-140595677D01*
X154950000Y-140595677D01*
X154950000Y-137660050D01*
X167654562Y-137660050D01*
X168038161Y-138588429D01*
X168747835Y-139299343D01*
X169675543Y-139684561D01*
X170680050Y-139685438D01*
X171608429Y-139301839D01*
X172319343Y-138592165D01*
X172542112Y-138055677D01*
X176235883Y-138055677D01*
X176338429Y-138303857D01*
X176528144Y-138493903D01*
X176776145Y-138596883D01*
X177044677Y-138597117D01*
X177292857Y-138494571D01*
X177365555Y-138422000D01*
X177449654Y-138422000D01*
X177449654Y-139436000D01*
X177475802Y-139574966D01*
X177557931Y-139702599D01*
X177683246Y-139788223D01*
X177832000Y-139818346D01*
X179332000Y-139818346D01*
X179470966Y-139792198D01*
X179598599Y-139710069D01*
X179684223Y-139584754D01*
X179714346Y-139436000D01*
X179714346Y-138909750D01*
X179957000Y-138909750D01*
X179957000Y-139510592D01*
X180014090Y-139648421D01*
X180119580Y-139753910D01*
X180257408Y-139811000D01*
X180983250Y-139811000D01*
X181077000Y-139717250D01*
X181077000Y-138816000D01*
X181087000Y-138816000D01*
X181087000Y-139717250D01*
X181180750Y-139811000D01*
X181906592Y-139811000D01*
X182044420Y-139753910D01*
X182077982Y-139720349D01*
X182077883Y-139833677D01*
X182180429Y-140081857D01*
X182370144Y-140271903D01*
X182618145Y-140374883D01*
X182767907Y-140375014D01*
X182937654Y-140544760D01*
X182937654Y-141620000D01*
X182963802Y-141758966D01*
X183045931Y-141886599D01*
X183171246Y-141972223D01*
X183320000Y-142002346D01*
X184820000Y-142002346D01*
X184958966Y-141976198D01*
X185086599Y-141894069D01*
X185172223Y-141768754D01*
X185202346Y-141620000D01*
X185202346Y-140320000D01*
X185637654Y-140320000D01*
X185637654Y-141620000D01*
X185663802Y-141758966D01*
X185745931Y-141886599D01*
X185871246Y-141972223D01*
X186020000Y-142002346D01*
X187520000Y-142002346D01*
X187658966Y-141976198D01*
X187786599Y-141894069D01*
X187872223Y-141768754D01*
X187902346Y-141620000D01*
X187902346Y-140970000D01*
X189737062Y-140970000D01*
X189822698Y-141400519D01*
X190066567Y-141765495D01*
X190431543Y-142009364D01*
X190862062Y-142095000D01*
X191415938Y-142095000D01*
X191846457Y-142009364D01*
X192211433Y-141765495D01*
X192455302Y-141400519D01*
X192504949Y-141150925D01*
X192818644Y-141150925D01*
X192887723Y-141395900D01*
X193129970Y-141761960D01*
X193493862Y-142007451D01*
X193924000Y-142095000D01*
X194174000Y-142095000D01*
X194174000Y-140975000D01*
X194184000Y-140975000D01*
X194184000Y-142095000D01*
X194434000Y-142095000D01*
X194864138Y-142007451D01*
X195228030Y-141761960D01*
X195470277Y-141395900D01*
X195539356Y-141150925D01*
X195460238Y-140975000D01*
X194184000Y-140975000D01*
X194174000Y-140975000D01*
X192897762Y-140975000D01*
X192818644Y-141150925D01*
X192504949Y-141150925D01*
X192540938Y-140970000D01*
X192504950Y-140789075D01*
X192818644Y-140789075D01*
X192897762Y-140965000D01*
X194174000Y-140965000D01*
X194174000Y-139845000D01*
X194184000Y-139845000D01*
X194184000Y-140965000D01*
X195460238Y-140965000D01*
X195539356Y-140789075D01*
X195470277Y-140544100D01*
X195228030Y-140178040D01*
X194864138Y-139932549D01*
X194434000Y-139845000D01*
X194184000Y-139845000D01*
X194174000Y-139845000D01*
X193924000Y-139845000D01*
X193493862Y-139932549D01*
X193129970Y-140178040D01*
X192887723Y-140544100D01*
X192818644Y-140789075D01*
X192504950Y-140789075D01*
X192455302Y-140539481D01*
X192211433Y-140174505D01*
X191846457Y-139930636D01*
X191415938Y-139845000D01*
X190862062Y-139845000D01*
X190431543Y-139930636D01*
X190066567Y-140174505D01*
X189822698Y-140539481D01*
X189737062Y-140970000D01*
X187902346Y-140970000D01*
X187902346Y-140544760D01*
X189517107Y-138930000D01*
X189869124Y-138930000D01*
X190066567Y-139225495D01*
X190431543Y-139469364D01*
X190862062Y-139555000D01*
X191415938Y-139555000D01*
X191846457Y-139469364D01*
X192211433Y-139225495D01*
X192455302Y-138860519D01*
X192504949Y-138610925D01*
X192818644Y-138610925D01*
X192887723Y-138855900D01*
X193129970Y-139221960D01*
X193493862Y-139467451D01*
X193924000Y-139555000D01*
X194174000Y-139555000D01*
X194174000Y-138435000D01*
X194184000Y-138435000D01*
X194184000Y-139555000D01*
X194434000Y-139555000D01*
X194864138Y-139467451D01*
X195228030Y-139221960D01*
X195470277Y-138855900D01*
X195539356Y-138610925D01*
X195460238Y-138435000D01*
X194184000Y-138435000D01*
X194174000Y-138435000D01*
X192897762Y-138435000D01*
X192818644Y-138610925D01*
X192504949Y-138610925D01*
X192540938Y-138430000D01*
X192504950Y-138249075D01*
X192818644Y-138249075D01*
X192897762Y-138425000D01*
X194174000Y-138425000D01*
X194174000Y-137305000D01*
X194184000Y-137305000D01*
X194184000Y-138425000D01*
X195460238Y-138425000D01*
X195539356Y-138249075D01*
X195470277Y-138004100D01*
X195228030Y-137638040D01*
X194864138Y-137392549D01*
X194434000Y-137305000D01*
X194184000Y-137305000D01*
X194174000Y-137305000D01*
X193924000Y-137305000D01*
X193493862Y-137392549D01*
X193129970Y-137638040D01*
X192887723Y-138004100D01*
X192818644Y-138249075D01*
X192504950Y-138249075D01*
X192455302Y-137999481D01*
X192211433Y-137634505D01*
X191846457Y-137390636D01*
X191415938Y-137305000D01*
X190862062Y-137305000D01*
X190431543Y-137390636D01*
X190066567Y-137634505D01*
X189869124Y-137930000D01*
X189310000Y-137930000D01*
X189118658Y-137968060D01*
X188956446Y-138076447D01*
X187095240Y-139937654D01*
X186020000Y-139937654D01*
X185881034Y-139963802D01*
X185753401Y-140045931D01*
X185667777Y-140171246D01*
X185637654Y-140320000D01*
X185202346Y-140320000D01*
X185176198Y-140181034D01*
X185094069Y-140053401D01*
X184968754Y-139967777D01*
X184820000Y-139937654D01*
X183744760Y-139937654D01*
X183428069Y-139620963D01*
X183428117Y-139566323D01*
X183325571Y-139318143D01*
X183135856Y-139128097D01*
X182887855Y-139025117D01*
X182619323Y-139024883D01*
X182371143Y-139127429D01*
X182207000Y-139291286D01*
X182207000Y-138909750D01*
X182113250Y-138816000D01*
X181087000Y-138816000D01*
X181077000Y-138816000D01*
X180050750Y-138816000D01*
X179957000Y-138909750D01*
X179714346Y-138909750D01*
X179714346Y-138186000D01*
X179700311Y-138111408D01*
X179957000Y-138111408D01*
X179957000Y-138712250D01*
X180050750Y-138806000D01*
X181077000Y-138806000D01*
X181077000Y-137904750D01*
X181087000Y-137904750D01*
X181087000Y-138806000D01*
X182113250Y-138806000D01*
X182207000Y-138712250D01*
X182207000Y-138111408D01*
X182149910Y-137973579D01*
X182044420Y-137868090D01*
X181906592Y-137811000D01*
X181180750Y-137811000D01*
X181087000Y-137904750D01*
X181077000Y-137904750D01*
X180983250Y-137811000D01*
X180257408Y-137811000D01*
X180119580Y-137868090D01*
X180014090Y-137973579D01*
X179957000Y-138111408D01*
X179700311Y-138111408D01*
X179688198Y-138047034D01*
X179606069Y-137919401D01*
X179480754Y-137833777D01*
X179332000Y-137803654D01*
X178281760Y-137803654D01*
X178046553Y-137568447D01*
X177884342Y-137460060D01*
X177693000Y-137422000D01*
X177365634Y-137422000D01*
X177293856Y-137350097D01*
X177045855Y-137247117D01*
X176777323Y-137246883D01*
X176529143Y-137349429D01*
X176339097Y-137539144D01*
X176236117Y-137787145D01*
X176235883Y-138055677D01*
X172542112Y-138055677D01*
X172704561Y-137664457D01*
X172705438Y-136659950D01*
X172321839Y-135731571D01*
X171612165Y-135020657D01*
X170684457Y-134635439D01*
X169679950Y-134634562D01*
X168751571Y-135018161D01*
X168040657Y-135727835D01*
X167655439Y-136655543D01*
X167654562Y-137660050D01*
X154950000Y-137660050D01*
X154950000Y-133372365D01*
X155178707Y-133372365D01*
X155255872Y-133560149D01*
X155681191Y-133754076D01*
X156148348Y-133770478D01*
X156586221Y-133606860D01*
X156656128Y-133560149D01*
X156733293Y-133372365D01*
X155956000Y-132595071D01*
X155178707Y-133372365D01*
X154950000Y-133372365D01*
X154950000Y-133237467D01*
X154983851Y-133288128D01*
X155171635Y-133365293D01*
X155948929Y-132588000D01*
X155963071Y-132588000D01*
X156740365Y-133365293D01*
X156928149Y-133288128D01*
X157122076Y-132862809D01*
X157123554Y-132820697D01*
X157320796Y-132820697D01*
X157499302Y-133252715D01*
X157829547Y-133583536D01*
X158261253Y-133762796D01*
X158728697Y-133763204D01*
X159160715Y-133584698D01*
X159491536Y-133254453D01*
X159670796Y-132822747D01*
X159671204Y-132355303D01*
X159492698Y-131923285D01*
X159162453Y-131592464D01*
X158730747Y-131413204D01*
X158263303Y-131412796D01*
X157831285Y-131591302D01*
X157500464Y-131921547D01*
X157321204Y-132353253D01*
X157320796Y-132820697D01*
X157123554Y-132820697D01*
X157138478Y-132395652D01*
X156974860Y-131957779D01*
X156928149Y-131887872D01*
X156740365Y-131810707D01*
X155963071Y-132588000D01*
X155948929Y-132588000D01*
X155171635Y-131810707D01*
X154983851Y-131887872D01*
X154950000Y-131962114D01*
X154950000Y-131803635D01*
X155178707Y-131803635D01*
X155956000Y-132580929D01*
X156733293Y-131803635D01*
X156656128Y-131615851D01*
X156230809Y-131421924D01*
X155763652Y-131405522D01*
X155325779Y-131569140D01*
X155255872Y-131615851D01*
X155178707Y-131803635D01*
X154950000Y-131803635D01*
X154950000Y-128292365D01*
X155178707Y-128292365D01*
X155255872Y-128480149D01*
X155681191Y-128674076D01*
X156148348Y-128690478D01*
X156586221Y-128526860D01*
X156656128Y-128480149D01*
X156733293Y-128292365D01*
X155956000Y-127515071D01*
X155178707Y-128292365D01*
X154950000Y-128292365D01*
X154950000Y-128157467D01*
X154983851Y-128208128D01*
X155171635Y-128285293D01*
X155948929Y-127508000D01*
X155963071Y-127508000D01*
X156740365Y-128285293D01*
X156928149Y-128208128D01*
X157122076Y-127782809D01*
X157123554Y-127740697D01*
X157320796Y-127740697D01*
X157499302Y-128172715D01*
X157829547Y-128503536D01*
X158261253Y-128682796D01*
X158728697Y-128683204D01*
X159160715Y-128504698D01*
X159491536Y-128174453D01*
X159670796Y-127742747D01*
X159671204Y-127275303D01*
X159492698Y-126843285D01*
X159162453Y-126512464D01*
X158730747Y-126333204D01*
X158263303Y-126332796D01*
X157831285Y-126511302D01*
X157500464Y-126841547D01*
X157321204Y-127273253D01*
X157320796Y-127740697D01*
X157123554Y-127740697D01*
X157138478Y-127315652D01*
X156974860Y-126877779D01*
X156928149Y-126807872D01*
X156740365Y-126730707D01*
X155963071Y-127508000D01*
X155948929Y-127508000D01*
X155171635Y-126730707D01*
X154983851Y-126807872D01*
X154950000Y-126882114D01*
X154950000Y-126723635D01*
X155178707Y-126723635D01*
X155956000Y-127500929D01*
X156733293Y-126723635D01*
X156656128Y-126535851D01*
X156230809Y-126341924D01*
X155763652Y-126325522D01*
X155325779Y-126489140D01*
X155255872Y-126535851D01*
X155178707Y-126723635D01*
X154950000Y-126723635D01*
X154950000Y-125250750D01*
X170329000Y-125250750D01*
X170329000Y-125726592D01*
X170386090Y-125864420D01*
X170491579Y-125969910D01*
X170629408Y-126027000D01*
X171605250Y-126027000D01*
X171699000Y-125933250D01*
X171699000Y-125157000D01*
X171709000Y-125157000D01*
X171709000Y-125933250D01*
X171802750Y-126027000D01*
X172778592Y-126027000D01*
X172916421Y-125969910D01*
X173021910Y-125864420D01*
X173079000Y-125726592D01*
X173079000Y-125250750D01*
X172985250Y-125157000D01*
X171709000Y-125157000D01*
X171699000Y-125157000D01*
X170422750Y-125157000D01*
X170329000Y-125250750D01*
X154950000Y-125250750D01*
X154950000Y-118970750D01*
X156421000Y-118970750D01*
X156421000Y-119946592D01*
X156478090Y-120084421D01*
X156583580Y-120189910D01*
X156721408Y-120247000D01*
X157197250Y-120247000D01*
X157291000Y-120153250D01*
X157291000Y-118877000D01*
X156514750Y-118877000D01*
X156421000Y-118970750D01*
X154950000Y-118970750D01*
X154950000Y-117797408D01*
X156421000Y-117797408D01*
X156421000Y-118773250D01*
X156514750Y-118867000D01*
X157291000Y-118867000D01*
X157291000Y-117590750D01*
X157301000Y-117590750D01*
X157301000Y-118867000D01*
X157321000Y-118867000D01*
X157321000Y-118877000D01*
X157301000Y-118877000D01*
X157301000Y-120153250D01*
X157394750Y-120247000D01*
X157870592Y-120247000D01*
X157899859Y-120234877D01*
X157996000Y-120254346D01*
X157996000Y-120322366D01*
X157924097Y-120394144D01*
X157821117Y-120642145D01*
X157820883Y-120910677D01*
X157923429Y-121158857D01*
X158113144Y-121348903D01*
X158361145Y-121451883D01*
X158629677Y-121452117D01*
X158877857Y-121349571D01*
X159067903Y-121159856D01*
X159170883Y-120911855D01*
X159171117Y-120643323D01*
X159068571Y-120395143D01*
X158996000Y-120322445D01*
X158996000Y-120254346D01*
X159099671Y-120234839D01*
X159191000Y-120253333D01*
X159191000Y-123068602D01*
X159091117Y-123309145D01*
X159090883Y-123577677D01*
X159193429Y-123825857D01*
X159383144Y-124015903D01*
X159631145Y-124118883D01*
X159899677Y-124119117D01*
X160147857Y-124016571D01*
X160337903Y-123826856D01*
X160440883Y-123578855D01*
X160441117Y-123310323D01*
X160341000Y-123068022D01*
X160341000Y-120224315D01*
X160400936Y-120185748D01*
X160457246Y-120224223D01*
X160606000Y-120254346D01*
X161492917Y-120254346D01*
X161480097Y-120267144D01*
X161377117Y-120515145D01*
X161376883Y-120783677D01*
X161479429Y-121031857D01*
X161669144Y-121221903D01*
X161917145Y-121324883D01*
X162185677Y-121325117D01*
X162433857Y-121222571D01*
X162623903Y-121032856D01*
X162726883Y-120784855D01*
X162727002Y-120648610D01*
X162767940Y-120587342D01*
X162775119Y-120551250D01*
X162806000Y-120396000D01*
X162806000Y-120254346D01*
X162904430Y-120235825D01*
X162931408Y-120247000D01*
X163407250Y-120247000D01*
X163501000Y-120153250D01*
X163501000Y-118877000D01*
X163511000Y-118877000D01*
X163511000Y-120153250D01*
X163604750Y-120247000D01*
X164080592Y-120247000D01*
X164218420Y-120189910D01*
X164323910Y-120084421D01*
X164381000Y-119946592D01*
X164381000Y-119388000D01*
X165495654Y-119388000D01*
X165495654Y-120388000D01*
X165515161Y-120491671D01*
X165495654Y-120588000D01*
X165495654Y-121588000D01*
X165521802Y-121726966D01*
X165603931Y-121854599D01*
X165729246Y-121940223D01*
X165878000Y-121970346D01*
X166303000Y-121970346D01*
X166303000Y-123068602D01*
X166203117Y-123309145D01*
X166202883Y-123577677D01*
X166305429Y-123825857D01*
X166495144Y-124015903D01*
X166743145Y-124118883D01*
X167011677Y-124119117D01*
X167259857Y-124016571D01*
X167449903Y-123826856D01*
X167550444Y-123584728D01*
X167808173Y-123327000D01*
X169423438Y-123327000D01*
X169378117Y-123436145D01*
X169377883Y-123704677D01*
X169480429Y-123952857D01*
X169670144Y-124142903D01*
X169918145Y-124245883D01*
X170186677Y-124246117D01*
X170303129Y-124198000D01*
X170321654Y-124198000D01*
X170321654Y-124452000D01*
X170340175Y-124550430D01*
X170329000Y-124577408D01*
X170329000Y-125053250D01*
X170422750Y-125147000D01*
X171699000Y-125147000D01*
X171699000Y-125127000D01*
X171709000Y-125127000D01*
X171709000Y-125147000D01*
X172985250Y-125147000D01*
X173079000Y-125053250D01*
X173079000Y-124577408D01*
X173066877Y-124548141D01*
X173086346Y-124452000D01*
X173086346Y-123452000D01*
X173066839Y-123348329D01*
X173071158Y-123327000D01*
X176157000Y-123327000D01*
X176157000Y-126545366D01*
X176085097Y-126617144D01*
X175982117Y-126865145D01*
X175981883Y-127133677D01*
X176084429Y-127381857D01*
X176157000Y-127454555D01*
X176157000Y-135943366D01*
X176085097Y-136015144D01*
X175982117Y-136263145D01*
X175981883Y-136531677D01*
X176084429Y-136779857D01*
X176274144Y-136969903D01*
X176522145Y-137072883D01*
X176790677Y-137073117D01*
X177038857Y-136970571D01*
X177228903Y-136780856D01*
X177331883Y-136532855D01*
X177332117Y-136264323D01*
X177298931Y-136184007D01*
X177332069Y-136184035D01*
X177348802Y-136272966D01*
X177430931Y-136400599D01*
X177556246Y-136486223D01*
X177705000Y-136516346D01*
X179205000Y-136516346D01*
X179343966Y-136490198D01*
X179471599Y-136408069D01*
X179557223Y-136282754D01*
X179587346Y-136134000D01*
X179587346Y-135607750D01*
X179830000Y-135607750D01*
X179830000Y-136208592D01*
X179887090Y-136346421D01*
X179992580Y-136451910D01*
X180130408Y-136509000D01*
X180856250Y-136509000D01*
X180950000Y-136415250D01*
X180950000Y-135514000D01*
X180960000Y-135514000D01*
X180960000Y-136415250D01*
X181053750Y-136509000D01*
X181779592Y-136509000D01*
X181917420Y-136451910D01*
X182022910Y-136346421D01*
X182080000Y-136208592D01*
X182080000Y-135607750D01*
X181986250Y-135514000D01*
X180960000Y-135514000D01*
X180950000Y-135514000D01*
X179923750Y-135514000D01*
X179830000Y-135607750D01*
X179587346Y-135607750D01*
X179587346Y-134884000D01*
X179573311Y-134809408D01*
X179830000Y-134809408D01*
X179830000Y-135410250D01*
X179923750Y-135504000D01*
X180950000Y-135504000D01*
X180950000Y-134602750D01*
X180960000Y-134602750D01*
X180960000Y-135504000D01*
X181986250Y-135504000D01*
X182080000Y-135410250D01*
X182080000Y-134809408D01*
X182056916Y-134753677D01*
X182077883Y-134753677D01*
X182180429Y-135001857D01*
X182370144Y-135191903D01*
X182618145Y-135294883D01*
X182886677Y-135295117D01*
X183134857Y-135192571D01*
X183324903Y-135002856D01*
X183427883Y-134754855D01*
X183427932Y-134699175D01*
X183744760Y-134382346D01*
X184820000Y-134382346D01*
X184958966Y-134356198D01*
X185086599Y-134274069D01*
X185172223Y-134148754D01*
X185202346Y-134000000D01*
X185202346Y-132700000D01*
X185637654Y-132700000D01*
X185637654Y-134000000D01*
X185663802Y-134138966D01*
X185745931Y-134266599D01*
X185871246Y-134352223D01*
X186020000Y-134382346D01*
X187095240Y-134382346D01*
X188956446Y-136243553D01*
X189110398Y-136346421D01*
X189118658Y-136351940D01*
X189310000Y-136390000D01*
X189869124Y-136390000D01*
X190066567Y-136685495D01*
X190431543Y-136929364D01*
X190862062Y-137015000D01*
X191415938Y-137015000D01*
X191846457Y-136929364D01*
X192211433Y-136685495D01*
X192455302Y-136320519D01*
X192504949Y-136070925D01*
X192818644Y-136070925D01*
X192887723Y-136315900D01*
X193129970Y-136681960D01*
X193493862Y-136927451D01*
X193924000Y-137015000D01*
X194174000Y-137015000D01*
X194174000Y-135895000D01*
X194184000Y-135895000D01*
X194184000Y-137015000D01*
X194434000Y-137015000D01*
X194864138Y-136927451D01*
X195228030Y-136681960D01*
X195470277Y-136315900D01*
X195539356Y-136070925D01*
X195460238Y-135895000D01*
X194184000Y-135895000D01*
X194174000Y-135895000D01*
X192897762Y-135895000D01*
X192818644Y-136070925D01*
X192504949Y-136070925D01*
X192540938Y-135890000D01*
X192504950Y-135709075D01*
X192818644Y-135709075D01*
X192897762Y-135885000D01*
X194174000Y-135885000D01*
X194174000Y-134765000D01*
X194184000Y-134765000D01*
X194184000Y-135885000D01*
X195460238Y-135885000D01*
X195539356Y-135709075D01*
X195470277Y-135464100D01*
X195228030Y-135098040D01*
X194864138Y-134852549D01*
X194434000Y-134765000D01*
X194184000Y-134765000D01*
X194174000Y-134765000D01*
X193924000Y-134765000D01*
X193493862Y-134852549D01*
X193129970Y-135098040D01*
X192887723Y-135464100D01*
X192818644Y-135709075D01*
X192504950Y-135709075D01*
X192455302Y-135459481D01*
X192211433Y-135094505D01*
X191846457Y-134850636D01*
X191415938Y-134765000D01*
X190862062Y-134765000D01*
X190431543Y-134850636D01*
X190066567Y-135094505D01*
X189869124Y-135390000D01*
X189517107Y-135390000D01*
X187902346Y-133775240D01*
X187902346Y-133350000D01*
X189737062Y-133350000D01*
X189822698Y-133780519D01*
X190066567Y-134145495D01*
X190431543Y-134389364D01*
X190862062Y-134475000D01*
X191415938Y-134475000D01*
X191846457Y-134389364D01*
X192211433Y-134145495D01*
X192455302Y-133780519D01*
X192504949Y-133530925D01*
X192818644Y-133530925D01*
X192887723Y-133775900D01*
X193129970Y-134141960D01*
X193493862Y-134387451D01*
X193924000Y-134475000D01*
X194174000Y-134475000D01*
X194174000Y-133355000D01*
X194184000Y-133355000D01*
X194184000Y-134475000D01*
X194434000Y-134475000D01*
X194864138Y-134387451D01*
X195228030Y-134141960D01*
X195470277Y-133775900D01*
X195539356Y-133530925D01*
X195460238Y-133355000D01*
X194184000Y-133355000D01*
X194174000Y-133355000D01*
X192897762Y-133355000D01*
X192818644Y-133530925D01*
X192504949Y-133530925D01*
X192540938Y-133350000D01*
X192504950Y-133169075D01*
X192818644Y-133169075D01*
X192897762Y-133345000D01*
X194174000Y-133345000D01*
X194174000Y-132225000D01*
X194184000Y-132225000D01*
X194184000Y-133345000D01*
X195460238Y-133345000D01*
X195539356Y-133169075D01*
X195470277Y-132924100D01*
X195228030Y-132558040D01*
X194864138Y-132312549D01*
X194434000Y-132225000D01*
X194184000Y-132225000D01*
X194174000Y-132225000D01*
X193924000Y-132225000D01*
X193493862Y-132312549D01*
X193129970Y-132558040D01*
X192887723Y-132924100D01*
X192818644Y-133169075D01*
X192504950Y-133169075D01*
X192455302Y-132919481D01*
X192211433Y-132554505D01*
X191846457Y-132310636D01*
X191415938Y-132225000D01*
X190862062Y-132225000D01*
X190431543Y-132310636D01*
X190066567Y-132554505D01*
X189822698Y-132919481D01*
X189737062Y-133350000D01*
X187902346Y-133350000D01*
X187902346Y-132700000D01*
X187876198Y-132561034D01*
X187794069Y-132433401D01*
X187668754Y-132347777D01*
X187520000Y-132317654D01*
X186020000Y-132317654D01*
X185881034Y-132343802D01*
X185753401Y-132425931D01*
X185667777Y-132551246D01*
X185637654Y-132700000D01*
X185202346Y-132700000D01*
X185176198Y-132561034D01*
X185094069Y-132433401D01*
X184968754Y-132347777D01*
X184820000Y-132317654D01*
X183320000Y-132317654D01*
X183181034Y-132343802D01*
X183053401Y-132425931D01*
X182967777Y-132551246D01*
X182937654Y-132700000D01*
X182937654Y-133775240D01*
X182767881Y-133945012D01*
X182619323Y-133944883D01*
X182371143Y-134047429D01*
X182181097Y-134237144D01*
X182078117Y-134485145D01*
X182077883Y-134753677D01*
X182056916Y-134753677D01*
X182022910Y-134671579D01*
X181917420Y-134566090D01*
X181779592Y-134509000D01*
X181053750Y-134509000D01*
X180960000Y-134602750D01*
X180950000Y-134602750D01*
X180856250Y-134509000D01*
X180130408Y-134509000D01*
X179992580Y-134566090D01*
X179887090Y-134671579D01*
X179830000Y-134809408D01*
X179573311Y-134809408D01*
X179561198Y-134745034D01*
X179479069Y-134617401D01*
X179353754Y-134531777D01*
X179205000Y-134501654D01*
X177705000Y-134501654D01*
X177566034Y-134527802D01*
X177438401Y-134609931D01*
X177352777Y-134735246D01*
X177332772Y-134834035D01*
X177158323Y-134833883D01*
X177157000Y-134834430D01*
X177157000Y-134024823D01*
X177157145Y-134024883D01*
X177332069Y-134025035D01*
X177348802Y-134113966D01*
X177430931Y-134241599D01*
X177556246Y-134327223D01*
X177705000Y-134357346D01*
X179205000Y-134357346D01*
X179343966Y-134331198D01*
X179471599Y-134249069D01*
X179557223Y-134123754D01*
X179587346Y-133975000D01*
X179587346Y-133448750D01*
X179830000Y-133448750D01*
X179830000Y-134049592D01*
X179887090Y-134187421D01*
X179992580Y-134292910D01*
X180130408Y-134350000D01*
X180856250Y-134350000D01*
X180950000Y-134256250D01*
X180950000Y-133355000D01*
X180960000Y-133355000D01*
X180960000Y-134256250D01*
X181053750Y-134350000D01*
X181779592Y-134350000D01*
X181917420Y-134292910D01*
X182022910Y-134187421D01*
X182080000Y-134049592D01*
X182080000Y-133448750D01*
X181986250Y-133355000D01*
X180960000Y-133355000D01*
X180950000Y-133355000D01*
X179923750Y-133355000D01*
X179830000Y-133448750D01*
X179587346Y-133448750D01*
X179587346Y-132725000D01*
X179573311Y-132650408D01*
X179830000Y-132650408D01*
X179830000Y-133251250D01*
X179923750Y-133345000D01*
X180950000Y-133345000D01*
X180950000Y-132443750D01*
X180960000Y-132443750D01*
X180960000Y-133345000D01*
X181986250Y-133345000D01*
X182080000Y-133251250D01*
X182080000Y-132650408D01*
X182022910Y-132512579D01*
X181917420Y-132407090D01*
X181779592Y-132350000D01*
X181053750Y-132350000D01*
X180960000Y-132443750D01*
X180950000Y-132443750D01*
X180856250Y-132350000D01*
X180130408Y-132350000D01*
X179992580Y-132407090D01*
X179887090Y-132512579D01*
X179830000Y-132650408D01*
X179573311Y-132650408D01*
X179561198Y-132586034D01*
X179479069Y-132458401D01*
X179353754Y-132372777D01*
X179205000Y-132342654D01*
X177705000Y-132342654D01*
X177566034Y-132368802D01*
X177438401Y-132450931D01*
X177352777Y-132576246D01*
X177332772Y-132675035D01*
X177158323Y-132674883D01*
X177157000Y-132675430D01*
X177157000Y-131484823D01*
X177157145Y-131484883D01*
X177332069Y-131485035D01*
X177348802Y-131573966D01*
X177430931Y-131701599D01*
X177556246Y-131787223D01*
X177705000Y-131817346D01*
X179205000Y-131817346D01*
X179343966Y-131791198D01*
X179471599Y-131709069D01*
X179557223Y-131583754D01*
X179587346Y-131435000D01*
X179587346Y-130908750D01*
X179830000Y-130908750D01*
X179830000Y-131509592D01*
X179887090Y-131647421D01*
X179992580Y-131752910D01*
X180130408Y-131810000D01*
X180856250Y-131810000D01*
X180950000Y-131716250D01*
X180950000Y-130815000D01*
X180960000Y-130815000D01*
X180960000Y-131716250D01*
X181053750Y-131810000D01*
X181779592Y-131810000D01*
X181917420Y-131752910D01*
X182022910Y-131647421D01*
X182080000Y-131509592D01*
X182080000Y-130908750D01*
X181986250Y-130815000D01*
X180960000Y-130815000D01*
X180950000Y-130815000D01*
X179923750Y-130815000D01*
X179830000Y-130908750D01*
X179587346Y-130908750D01*
X179587346Y-130185000D01*
X179573311Y-130110408D01*
X179830000Y-130110408D01*
X179830000Y-130711250D01*
X179923750Y-130805000D01*
X180950000Y-130805000D01*
X180950000Y-129903750D01*
X180960000Y-129903750D01*
X180960000Y-130805000D01*
X181986250Y-130805000D01*
X182080000Y-130711250D01*
X182080000Y-130110408D01*
X182022910Y-129972579D01*
X181917420Y-129867090D01*
X181779592Y-129810000D01*
X181053750Y-129810000D01*
X180960000Y-129903750D01*
X180950000Y-129903750D01*
X180856250Y-129810000D01*
X180130408Y-129810000D01*
X179992580Y-129867090D01*
X179887090Y-129972579D01*
X179830000Y-130110408D01*
X179573311Y-130110408D01*
X179561198Y-130046034D01*
X179479069Y-129918401D01*
X179353754Y-129832777D01*
X179205000Y-129802654D01*
X177705000Y-129802654D01*
X177566034Y-129828802D01*
X177438401Y-129910931D01*
X177352777Y-130036246D01*
X177332772Y-130135035D01*
X177158323Y-130134883D01*
X177157000Y-130135430D01*
X177157000Y-129673677D01*
X182077883Y-129673677D01*
X182180429Y-129921857D01*
X182370144Y-130111903D01*
X182618145Y-130214883D01*
X182767907Y-130215014D01*
X182937654Y-130384760D01*
X182937654Y-131460000D01*
X182963802Y-131598966D01*
X183045931Y-131726599D01*
X183171246Y-131812223D01*
X183320000Y-131842346D01*
X184820000Y-131842346D01*
X184958966Y-131816198D01*
X185086599Y-131734069D01*
X185172223Y-131608754D01*
X185202346Y-131460000D01*
X185202346Y-130160000D01*
X185637654Y-130160000D01*
X185637654Y-131460000D01*
X185663802Y-131598966D01*
X185745931Y-131726599D01*
X185871246Y-131812223D01*
X186020000Y-131842346D01*
X187520000Y-131842346D01*
X187658966Y-131816198D01*
X187786599Y-131734069D01*
X187872223Y-131608754D01*
X187902346Y-131460000D01*
X187902346Y-130810000D01*
X189737062Y-130810000D01*
X189822698Y-131240519D01*
X190066567Y-131605495D01*
X190431543Y-131849364D01*
X190862062Y-131935000D01*
X191415938Y-131935000D01*
X191846457Y-131849364D01*
X192211433Y-131605495D01*
X192455302Y-131240519D01*
X192504949Y-130990925D01*
X192818644Y-130990925D01*
X192887723Y-131235900D01*
X193129970Y-131601960D01*
X193493862Y-131847451D01*
X193924000Y-131935000D01*
X194174000Y-131935000D01*
X194174000Y-130815000D01*
X194184000Y-130815000D01*
X194184000Y-131935000D01*
X194434000Y-131935000D01*
X194864138Y-131847451D01*
X195228030Y-131601960D01*
X195470277Y-131235900D01*
X195539356Y-130990925D01*
X195460238Y-130815000D01*
X194184000Y-130815000D01*
X194174000Y-130815000D01*
X192897762Y-130815000D01*
X192818644Y-130990925D01*
X192504949Y-130990925D01*
X192540938Y-130810000D01*
X192504950Y-130629075D01*
X192818644Y-130629075D01*
X192897762Y-130805000D01*
X194174000Y-130805000D01*
X194174000Y-129685000D01*
X194184000Y-129685000D01*
X194184000Y-130805000D01*
X195460238Y-130805000D01*
X195539356Y-130629075D01*
X195470277Y-130384100D01*
X195228030Y-130018040D01*
X194864138Y-129772549D01*
X194434000Y-129685000D01*
X194184000Y-129685000D01*
X194174000Y-129685000D01*
X193924000Y-129685000D01*
X193493862Y-129772549D01*
X193129970Y-130018040D01*
X192887723Y-130384100D01*
X192818644Y-130629075D01*
X192504950Y-130629075D01*
X192455302Y-130379481D01*
X192211433Y-130014505D01*
X191846457Y-129770636D01*
X191415938Y-129685000D01*
X190862062Y-129685000D01*
X190431543Y-129770636D01*
X190066567Y-130014505D01*
X189822698Y-130379481D01*
X189737062Y-130810000D01*
X187902346Y-130810000D01*
X187902346Y-130384760D01*
X189517107Y-128770000D01*
X189869124Y-128770000D01*
X190066567Y-129065495D01*
X190431543Y-129309364D01*
X190862062Y-129395000D01*
X191415938Y-129395000D01*
X191846457Y-129309364D01*
X192211433Y-129065495D01*
X192455302Y-128700519D01*
X192504949Y-128450925D01*
X192818644Y-128450925D01*
X192887723Y-128695900D01*
X193129970Y-129061960D01*
X193493862Y-129307451D01*
X193924000Y-129395000D01*
X194174000Y-129395000D01*
X194174000Y-128275000D01*
X194184000Y-128275000D01*
X194184000Y-129395000D01*
X194434000Y-129395000D01*
X194864138Y-129307451D01*
X195228030Y-129061960D01*
X195470277Y-128695900D01*
X195539356Y-128450925D01*
X195460238Y-128275000D01*
X194184000Y-128275000D01*
X194174000Y-128275000D01*
X192897762Y-128275000D01*
X192818644Y-128450925D01*
X192504949Y-128450925D01*
X192540938Y-128270000D01*
X192504950Y-128089075D01*
X192818644Y-128089075D01*
X192897762Y-128265000D01*
X194174000Y-128265000D01*
X194174000Y-127145000D01*
X194184000Y-127145000D01*
X194184000Y-128265000D01*
X195460238Y-128265000D01*
X195539356Y-128089075D01*
X195470277Y-127844100D01*
X195228030Y-127478040D01*
X194864138Y-127232549D01*
X194434000Y-127145000D01*
X194184000Y-127145000D01*
X194174000Y-127145000D01*
X193924000Y-127145000D01*
X193493862Y-127232549D01*
X193129970Y-127478040D01*
X192887723Y-127844100D01*
X192818644Y-128089075D01*
X192504950Y-128089075D01*
X192455302Y-127839481D01*
X192211433Y-127474505D01*
X191846457Y-127230636D01*
X191415938Y-127145000D01*
X190862062Y-127145000D01*
X190431543Y-127230636D01*
X190066567Y-127474505D01*
X189869124Y-127770000D01*
X189310000Y-127770000D01*
X189118658Y-127808060D01*
X188956446Y-127916447D01*
X187095240Y-129777654D01*
X186020000Y-129777654D01*
X185881034Y-129803802D01*
X185753401Y-129885931D01*
X185667777Y-130011246D01*
X185637654Y-130160000D01*
X185202346Y-130160000D01*
X185176198Y-130021034D01*
X185094069Y-129893401D01*
X184968754Y-129807777D01*
X184820000Y-129777654D01*
X183744760Y-129777654D01*
X183428069Y-129460963D01*
X183428117Y-129406323D01*
X183325571Y-129158143D01*
X183135856Y-128968097D01*
X182887855Y-128865117D01*
X182619323Y-128864883D01*
X182371143Y-128967429D01*
X182181097Y-129157144D01*
X182078117Y-129405145D01*
X182077883Y-129673677D01*
X177157000Y-129673677D01*
X177157000Y-129325823D01*
X177157145Y-129325883D01*
X177332069Y-129326035D01*
X177348802Y-129414966D01*
X177430931Y-129542599D01*
X177556246Y-129628223D01*
X177705000Y-129658346D01*
X179205000Y-129658346D01*
X179343966Y-129632198D01*
X179471599Y-129550069D01*
X179557223Y-129424754D01*
X179587346Y-129276000D01*
X179587346Y-128749750D01*
X179830000Y-128749750D01*
X179830000Y-129350592D01*
X179887090Y-129488421D01*
X179992580Y-129593910D01*
X180130408Y-129651000D01*
X180856250Y-129651000D01*
X180950000Y-129557250D01*
X180950000Y-128656000D01*
X180960000Y-128656000D01*
X180960000Y-129557250D01*
X181053750Y-129651000D01*
X181779592Y-129651000D01*
X181917420Y-129593910D01*
X182022910Y-129488421D01*
X182080000Y-129350592D01*
X182080000Y-128749750D01*
X181986250Y-128656000D01*
X180960000Y-128656000D01*
X180950000Y-128656000D01*
X179923750Y-128656000D01*
X179830000Y-128749750D01*
X179587346Y-128749750D01*
X179587346Y-128026000D01*
X179573311Y-127951408D01*
X179830000Y-127951408D01*
X179830000Y-128552250D01*
X179923750Y-128646000D01*
X180950000Y-128646000D01*
X180950000Y-127744750D01*
X180960000Y-127744750D01*
X180960000Y-128646000D01*
X181986250Y-128646000D01*
X182080000Y-128552250D01*
X182080000Y-127951408D01*
X182022910Y-127813579D01*
X181917420Y-127708090D01*
X181779592Y-127651000D01*
X181053750Y-127651000D01*
X180960000Y-127744750D01*
X180950000Y-127744750D01*
X180856250Y-127651000D01*
X180130408Y-127651000D01*
X179992580Y-127708090D01*
X179887090Y-127813579D01*
X179830000Y-127951408D01*
X179573311Y-127951408D01*
X179561198Y-127887034D01*
X179479069Y-127759401D01*
X179353754Y-127673777D01*
X179205000Y-127643654D01*
X177705000Y-127643654D01*
X177566034Y-127669802D01*
X177438401Y-127751931D01*
X177352777Y-127877246D01*
X177332772Y-127976035D01*
X177158323Y-127975883D01*
X177157000Y-127976430D01*
X177157000Y-127454634D01*
X177228903Y-127382856D01*
X177331883Y-127134855D01*
X177332117Y-126866323D01*
X177229571Y-126618143D01*
X177157000Y-126545445D01*
X177157000Y-126023823D01*
X177157145Y-126023883D01*
X177332069Y-126024035D01*
X177348802Y-126112966D01*
X177430931Y-126240599D01*
X177556246Y-126326223D01*
X177705000Y-126356346D01*
X179205000Y-126356346D01*
X179343966Y-126330198D01*
X179471599Y-126248069D01*
X179557223Y-126122754D01*
X179587346Y-125974000D01*
X179587346Y-125447750D01*
X179830000Y-125447750D01*
X179830000Y-126048592D01*
X179887090Y-126186421D01*
X179992580Y-126291910D01*
X180130408Y-126349000D01*
X180856250Y-126349000D01*
X180950000Y-126255250D01*
X180950000Y-125354000D01*
X180960000Y-125354000D01*
X180960000Y-126255250D01*
X181053750Y-126349000D01*
X181779592Y-126349000D01*
X181917420Y-126291910D01*
X182022910Y-126186421D01*
X182080000Y-126048592D01*
X182080000Y-125447750D01*
X181986250Y-125354000D01*
X180960000Y-125354000D01*
X180950000Y-125354000D01*
X179923750Y-125354000D01*
X179830000Y-125447750D01*
X179587346Y-125447750D01*
X179587346Y-124724000D01*
X179573311Y-124649408D01*
X179830000Y-124649408D01*
X179830000Y-125250250D01*
X179923750Y-125344000D01*
X180950000Y-125344000D01*
X180950000Y-124442750D01*
X180960000Y-124442750D01*
X180960000Y-125344000D01*
X181986250Y-125344000D01*
X182080000Y-125250250D01*
X182080000Y-124649408D01*
X182056916Y-124593677D01*
X182077883Y-124593677D01*
X182180429Y-124841857D01*
X182370144Y-125031903D01*
X182618145Y-125134883D01*
X182886677Y-125135117D01*
X183134857Y-125032571D01*
X183324903Y-124842856D01*
X183427883Y-124594855D01*
X183427932Y-124539175D01*
X183744760Y-124222346D01*
X184820000Y-124222346D01*
X184958966Y-124196198D01*
X185086599Y-124114069D01*
X185172223Y-123988754D01*
X185202346Y-123840000D01*
X185202346Y-122540000D01*
X185637654Y-122540000D01*
X185637654Y-123840000D01*
X185663802Y-123978966D01*
X185745931Y-124106599D01*
X185871246Y-124192223D01*
X186020000Y-124222346D01*
X187095240Y-124222346D01*
X188956446Y-126083553D01*
X189110398Y-126186421D01*
X189118658Y-126191940D01*
X189310000Y-126230000D01*
X189869124Y-126230000D01*
X190066567Y-126525495D01*
X190431543Y-126769364D01*
X190862062Y-126855000D01*
X191415938Y-126855000D01*
X191846457Y-126769364D01*
X192211433Y-126525495D01*
X192455302Y-126160519D01*
X192504949Y-125910925D01*
X192818644Y-125910925D01*
X192887723Y-126155900D01*
X193129970Y-126521960D01*
X193493862Y-126767451D01*
X193924000Y-126855000D01*
X194174000Y-126855000D01*
X194174000Y-125735000D01*
X194184000Y-125735000D01*
X194184000Y-126855000D01*
X194434000Y-126855000D01*
X194864138Y-126767451D01*
X195228030Y-126521960D01*
X195470277Y-126155900D01*
X195539356Y-125910925D01*
X195460238Y-125735000D01*
X194184000Y-125735000D01*
X194174000Y-125735000D01*
X192897762Y-125735000D01*
X192818644Y-125910925D01*
X192504949Y-125910925D01*
X192540938Y-125730000D01*
X192504950Y-125549075D01*
X192818644Y-125549075D01*
X192897762Y-125725000D01*
X194174000Y-125725000D01*
X194174000Y-124605000D01*
X194184000Y-124605000D01*
X194184000Y-125725000D01*
X195460238Y-125725000D01*
X195539356Y-125549075D01*
X195470277Y-125304100D01*
X195228030Y-124938040D01*
X194864138Y-124692549D01*
X194434000Y-124605000D01*
X194184000Y-124605000D01*
X194174000Y-124605000D01*
X193924000Y-124605000D01*
X193493862Y-124692549D01*
X193129970Y-124938040D01*
X192887723Y-125304100D01*
X192818644Y-125549075D01*
X192504950Y-125549075D01*
X192455302Y-125299481D01*
X192211433Y-124934505D01*
X191846457Y-124690636D01*
X191415938Y-124605000D01*
X190862062Y-124605000D01*
X190431543Y-124690636D01*
X190066567Y-124934505D01*
X189869124Y-125230000D01*
X189517107Y-125230000D01*
X187902346Y-123615240D01*
X187902346Y-123190000D01*
X189737062Y-123190000D01*
X189822698Y-123620519D01*
X190066567Y-123985495D01*
X190431543Y-124229364D01*
X190862062Y-124315000D01*
X191415938Y-124315000D01*
X191846457Y-124229364D01*
X192211433Y-123985495D01*
X192455302Y-123620519D01*
X192504949Y-123370925D01*
X192818644Y-123370925D01*
X192887723Y-123615900D01*
X193129970Y-123981960D01*
X193493862Y-124227451D01*
X193924000Y-124315000D01*
X194174000Y-124315000D01*
X194174000Y-123195000D01*
X194184000Y-123195000D01*
X194184000Y-124315000D01*
X194434000Y-124315000D01*
X194864138Y-124227451D01*
X195228030Y-123981960D01*
X195470277Y-123615900D01*
X195539356Y-123370925D01*
X195460238Y-123195000D01*
X194184000Y-123195000D01*
X194174000Y-123195000D01*
X192897762Y-123195000D01*
X192818644Y-123370925D01*
X192504949Y-123370925D01*
X192540938Y-123190000D01*
X192504950Y-123009075D01*
X192818644Y-123009075D01*
X192897762Y-123185000D01*
X194174000Y-123185000D01*
X194174000Y-122065000D01*
X194184000Y-122065000D01*
X194184000Y-123185000D01*
X195460238Y-123185000D01*
X195539356Y-123009075D01*
X195470277Y-122764100D01*
X195228030Y-122398040D01*
X194864138Y-122152549D01*
X194434000Y-122065000D01*
X194184000Y-122065000D01*
X194174000Y-122065000D01*
X193924000Y-122065000D01*
X193493862Y-122152549D01*
X193129970Y-122398040D01*
X192887723Y-122764100D01*
X192818644Y-123009075D01*
X192504950Y-123009075D01*
X192455302Y-122759481D01*
X192211433Y-122394505D01*
X191846457Y-122150636D01*
X191415938Y-122065000D01*
X190862062Y-122065000D01*
X190431543Y-122150636D01*
X190066567Y-122394505D01*
X189822698Y-122759481D01*
X189737062Y-123190000D01*
X187902346Y-123190000D01*
X187902346Y-122540000D01*
X187876198Y-122401034D01*
X187794069Y-122273401D01*
X187668754Y-122187777D01*
X187520000Y-122157654D01*
X186020000Y-122157654D01*
X185881034Y-122183802D01*
X185753401Y-122265931D01*
X185667777Y-122391246D01*
X185637654Y-122540000D01*
X185202346Y-122540000D01*
X185176198Y-122401034D01*
X185094069Y-122273401D01*
X184968754Y-122187777D01*
X184820000Y-122157654D01*
X183320000Y-122157654D01*
X183181034Y-122183802D01*
X183053401Y-122265931D01*
X182967777Y-122391246D01*
X182937654Y-122540000D01*
X182937654Y-123615240D01*
X182767881Y-123785012D01*
X182619323Y-123784883D01*
X182371143Y-123887429D01*
X182181097Y-124077144D01*
X182078117Y-124325145D01*
X182077883Y-124593677D01*
X182056916Y-124593677D01*
X182022910Y-124511579D01*
X181917420Y-124406090D01*
X181779592Y-124349000D01*
X181053750Y-124349000D01*
X180960000Y-124442750D01*
X180950000Y-124442750D01*
X180856250Y-124349000D01*
X180130408Y-124349000D01*
X179992580Y-124406090D01*
X179887090Y-124511579D01*
X179830000Y-124649408D01*
X179573311Y-124649408D01*
X179561198Y-124585034D01*
X179479069Y-124457401D01*
X179353754Y-124371777D01*
X179205000Y-124341654D01*
X177705000Y-124341654D01*
X177566034Y-124367802D01*
X177438401Y-124449931D01*
X177352777Y-124575246D01*
X177332772Y-124674035D01*
X177158323Y-124673883D01*
X177157000Y-124674430D01*
X177157000Y-123864823D01*
X177157145Y-123864883D01*
X177332069Y-123865035D01*
X177348802Y-123953966D01*
X177430931Y-124081599D01*
X177556246Y-124167223D01*
X177705000Y-124197346D01*
X179205000Y-124197346D01*
X179343966Y-124171198D01*
X179471599Y-124089069D01*
X179557223Y-123963754D01*
X179587346Y-123815000D01*
X179587346Y-123288750D01*
X179830000Y-123288750D01*
X179830000Y-123889592D01*
X179887090Y-124027421D01*
X179992580Y-124132910D01*
X180130408Y-124190000D01*
X180856250Y-124190000D01*
X180950000Y-124096250D01*
X180950000Y-123195000D01*
X180960000Y-123195000D01*
X180960000Y-124096250D01*
X181053750Y-124190000D01*
X181779592Y-124190000D01*
X181917420Y-124132910D01*
X182022910Y-124027421D01*
X182080000Y-123889592D01*
X182080000Y-123288750D01*
X181986250Y-123195000D01*
X180960000Y-123195000D01*
X180950000Y-123195000D01*
X179923750Y-123195000D01*
X179830000Y-123288750D01*
X179587346Y-123288750D01*
X179587346Y-122565000D01*
X179573311Y-122490408D01*
X179830000Y-122490408D01*
X179830000Y-123091250D01*
X179923750Y-123185000D01*
X180950000Y-123185000D01*
X180950000Y-122283750D01*
X180960000Y-122283750D01*
X180960000Y-123185000D01*
X181986250Y-123185000D01*
X182080000Y-123091250D01*
X182080000Y-122490408D01*
X182022910Y-122352579D01*
X181917420Y-122247090D01*
X181779592Y-122190000D01*
X181053750Y-122190000D01*
X180960000Y-122283750D01*
X180950000Y-122283750D01*
X180856250Y-122190000D01*
X180130408Y-122190000D01*
X179992580Y-122247090D01*
X179887090Y-122352579D01*
X179830000Y-122490408D01*
X179573311Y-122490408D01*
X179561198Y-122426034D01*
X179479069Y-122298401D01*
X179353754Y-122212777D01*
X179205000Y-122182654D01*
X177705000Y-122182654D01*
X177566034Y-122208802D01*
X177438401Y-122290931D01*
X177352777Y-122416246D01*
X177332772Y-122515035D01*
X177176833Y-122514899D01*
X177157000Y-122485217D01*
X177157000Y-121324823D01*
X177157145Y-121324883D01*
X177332069Y-121325035D01*
X177348802Y-121413966D01*
X177430931Y-121541599D01*
X177556246Y-121627223D01*
X177705000Y-121657346D01*
X179205000Y-121657346D01*
X179343966Y-121631198D01*
X179471599Y-121549069D01*
X179557223Y-121423754D01*
X179587346Y-121275000D01*
X179587346Y-120748750D01*
X179830000Y-120748750D01*
X179830000Y-121349592D01*
X179887090Y-121487421D01*
X179992580Y-121592910D01*
X180130408Y-121650000D01*
X180856250Y-121650000D01*
X180950000Y-121556250D01*
X180950000Y-120655000D01*
X180960000Y-120655000D01*
X180960000Y-121556250D01*
X181053750Y-121650000D01*
X181779592Y-121650000D01*
X181917420Y-121592910D01*
X182022910Y-121487421D01*
X182080000Y-121349592D01*
X182080000Y-120748750D01*
X181986250Y-120655000D01*
X180960000Y-120655000D01*
X180950000Y-120655000D01*
X179923750Y-120655000D01*
X179830000Y-120748750D01*
X179587346Y-120748750D01*
X179587346Y-120025000D01*
X179573311Y-119950408D01*
X179830000Y-119950408D01*
X179830000Y-120551250D01*
X179923750Y-120645000D01*
X180950000Y-120645000D01*
X180950000Y-119743750D01*
X180960000Y-119743750D01*
X180960000Y-120645000D01*
X181986250Y-120645000D01*
X182080000Y-120551250D01*
X182080000Y-119950408D01*
X182022910Y-119812579D01*
X181917420Y-119707090D01*
X181779592Y-119650000D01*
X181053750Y-119650000D01*
X180960000Y-119743750D01*
X180950000Y-119743750D01*
X180856250Y-119650000D01*
X180130408Y-119650000D01*
X179992580Y-119707090D01*
X179887090Y-119812579D01*
X179830000Y-119950408D01*
X179573311Y-119950408D01*
X179561198Y-119886034D01*
X179479069Y-119758401D01*
X179353754Y-119672777D01*
X179205000Y-119642654D01*
X177705000Y-119642654D01*
X177566034Y-119668802D01*
X177438401Y-119750931D01*
X177352777Y-119876246D01*
X177332772Y-119975035D01*
X177158323Y-119974883D01*
X177157000Y-119975430D01*
X177157000Y-119513677D01*
X182077883Y-119513677D01*
X182180429Y-119761857D01*
X182370144Y-119951903D01*
X182618145Y-120054883D01*
X182767907Y-120055014D01*
X182937654Y-120224760D01*
X182937654Y-121300000D01*
X182963802Y-121438966D01*
X183045931Y-121566599D01*
X183171246Y-121652223D01*
X183320000Y-121682346D01*
X184820000Y-121682346D01*
X184958966Y-121656198D01*
X185086599Y-121574069D01*
X185172223Y-121448754D01*
X185202346Y-121300000D01*
X185202346Y-120000000D01*
X185637654Y-120000000D01*
X185637654Y-121300000D01*
X185663802Y-121438966D01*
X185745931Y-121566599D01*
X185871246Y-121652223D01*
X186020000Y-121682346D01*
X187520000Y-121682346D01*
X187658966Y-121656198D01*
X187786599Y-121574069D01*
X187872223Y-121448754D01*
X187902346Y-121300000D01*
X187902346Y-120650000D01*
X189737062Y-120650000D01*
X189822698Y-121080519D01*
X190066567Y-121445495D01*
X190431543Y-121689364D01*
X190862062Y-121775000D01*
X191415938Y-121775000D01*
X191846457Y-121689364D01*
X192211433Y-121445495D01*
X192455302Y-121080519D01*
X192504949Y-120830925D01*
X192818644Y-120830925D01*
X192887723Y-121075900D01*
X193129970Y-121441960D01*
X193493862Y-121687451D01*
X193924000Y-121775000D01*
X194174000Y-121775000D01*
X194174000Y-120655000D01*
X194184000Y-120655000D01*
X194184000Y-121775000D01*
X194434000Y-121775000D01*
X194864138Y-121687451D01*
X195228030Y-121441960D01*
X195470277Y-121075900D01*
X195539356Y-120830925D01*
X195460238Y-120655000D01*
X194184000Y-120655000D01*
X194174000Y-120655000D01*
X192897762Y-120655000D01*
X192818644Y-120830925D01*
X192504949Y-120830925D01*
X192540938Y-120650000D01*
X192504950Y-120469075D01*
X192818644Y-120469075D01*
X192897762Y-120645000D01*
X194174000Y-120645000D01*
X194174000Y-119525000D01*
X194184000Y-119525000D01*
X194184000Y-120645000D01*
X195460238Y-120645000D01*
X195539356Y-120469075D01*
X195470277Y-120224100D01*
X195228030Y-119858040D01*
X194864138Y-119612549D01*
X194434000Y-119525000D01*
X194184000Y-119525000D01*
X194174000Y-119525000D01*
X193924000Y-119525000D01*
X193493862Y-119612549D01*
X193129970Y-119858040D01*
X192887723Y-120224100D01*
X192818644Y-120469075D01*
X192504950Y-120469075D01*
X192455302Y-120219481D01*
X192211433Y-119854505D01*
X191846457Y-119610636D01*
X191415938Y-119525000D01*
X190862062Y-119525000D01*
X190431543Y-119610636D01*
X190066567Y-119854505D01*
X189822698Y-120219481D01*
X189737062Y-120650000D01*
X187902346Y-120650000D01*
X187902346Y-120224760D01*
X189517107Y-118610000D01*
X189869124Y-118610000D01*
X190066567Y-118905495D01*
X190431543Y-119149364D01*
X190862062Y-119235000D01*
X191415938Y-119235000D01*
X191846457Y-119149364D01*
X192211433Y-118905495D01*
X192455302Y-118540519D01*
X192504949Y-118290925D01*
X192818644Y-118290925D01*
X192887723Y-118535900D01*
X193129970Y-118901960D01*
X193493862Y-119147451D01*
X193924000Y-119235000D01*
X194174000Y-119235000D01*
X194174000Y-118115000D01*
X194184000Y-118115000D01*
X194184000Y-119235000D01*
X194434000Y-119235000D01*
X194864138Y-119147451D01*
X195228030Y-118901960D01*
X195470277Y-118535900D01*
X195539356Y-118290925D01*
X195460238Y-118115000D01*
X194184000Y-118115000D01*
X194174000Y-118115000D01*
X192897762Y-118115000D01*
X192818644Y-118290925D01*
X192504949Y-118290925D01*
X192540938Y-118110000D01*
X192504950Y-117929075D01*
X192818644Y-117929075D01*
X192897762Y-118105000D01*
X194174000Y-118105000D01*
X194174000Y-116985000D01*
X194184000Y-116985000D01*
X194184000Y-118105000D01*
X195460238Y-118105000D01*
X195539356Y-117929075D01*
X195470277Y-117684100D01*
X195228030Y-117318040D01*
X194864138Y-117072549D01*
X194434000Y-116985000D01*
X194184000Y-116985000D01*
X194174000Y-116985000D01*
X193924000Y-116985000D01*
X193493862Y-117072549D01*
X193129970Y-117318040D01*
X192887723Y-117684100D01*
X192818644Y-117929075D01*
X192504950Y-117929075D01*
X192455302Y-117679481D01*
X192211433Y-117314505D01*
X191846457Y-117070636D01*
X191415938Y-116985000D01*
X190862062Y-116985000D01*
X190431543Y-117070636D01*
X190066567Y-117314505D01*
X189869124Y-117610000D01*
X189310000Y-117610000D01*
X189118658Y-117648060D01*
X188956446Y-117756447D01*
X187095240Y-119617654D01*
X186020000Y-119617654D01*
X185881034Y-119643802D01*
X185753401Y-119725931D01*
X185667777Y-119851246D01*
X185637654Y-120000000D01*
X185202346Y-120000000D01*
X185176198Y-119861034D01*
X185094069Y-119733401D01*
X184968754Y-119647777D01*
X184820000Y-119617654D01*
X183744760Y-119617654D01*
X183428069Y-119300963D01*
X183428117Y-119246323D01*
X183325571Y-118998143D01*
X183135856Y-118808097D01*
X182887855Y-118705117D01*
X182619323Y-118704883D01*
X182371143Y-118807429D01*
X182181097Y-118997144D01*
X182078117Y-119245145D01*
X182077883Y-119513677D01*
X177157000Y-119513677D01*
X177157000Y-119165823D01*
X177157145Y-119165883D01*
X177332069Y-119166035D01*
X177348802Y-119254966D01*
X177430931Y-119382599D01*
X177556246Y-119468223D01*
X177705000Y-119498346D01*
X179205000Y-119498346D01*
X179343966Y-119472198D01*
X179471599Y-119390069D01*
X179557223Y-119264754D01*
X179587346Y-119116000D01*
X179587346Y-118589750D01*
X179830000Y-118589750D01*
X179830000Y-119190592D01*
X179887090Y-119328421D01*
X179992580Y-119433910D01*
X180130408Y-119491000D01*
X180856250Y-119491000D01*
X180950000Y-119397250D01*
X180950000Y-118496000D01*
X180960000Y-118496000D01*
X180960000Y-119397250D01*
X181053750Y-119491000D01*
X181779592Y-119491000D01*
X181917420Y-119433910D01*
X182022910Y-119328421D01*
X182080000Y-119190592D01*
X182080000Y-118589750D01*
X181986250Y-118496000D01*
X180960000Y-118496000D01*
X180950000Y-118496000D01*
X179923750Y-118496000D01*
X179830000Y-118589750D01*
X179587346Y-118589750D01*
X179587346Y-117866000D01*
X179573311Y-117791408D01*
X179830000Y-117791408D01*
X179830000Y-118392250D01*
X179923750Y-118486000D01*
X180950000Y-118486000D01*
X180950000Y-117584750D01*
X180960000Y-117584750D01*
X180960000Y-118486000D01*
X181986250Y-118486000D01*
X182080000Y-118392250D01*
X182080000Y-117791408D01*
X182022910Y-117653579D01*
X181917420Y-117548090D01*
X181779592Y-117491000D01*
X181053750Y-117491000D01*
X180960000Y-117584750D01*
X180950000Y-117584750D01*
X180856250Y-117491000D01*
X180130408Y-117491000D01*
X179992580Y-117548090D01*
X179887090Y-117653579D01*
X179830000Y-117791408D01*
X179573311Y-117791408D01*
X179561198Y-117727034D01*
X179479069Y-117599401D01*
X179353754Y-117513777D01*
X179205000Y-117483654D01*
X177705000Y-117483654D01*
X177566034Y-117509802D01*
X177438401Y-117591931D01*
X177352777Y-117717246D01*
X177332772Y-117816035D01*
X177158323Y-117815883D01*
X177157000Y-117816430D01*
X177157000Y-116786634D01*
X177228903Y-116714856D01*
X177331883Y-116466855D01*
X177332117Y-116198323D01*
X177229571Y-115950143D01*
X177157000Y-115877445D01*
X177157000Y-115863823D01*
X177157145Y-115863883D01*
X177332069Y-115864035D01*
X177348802Y-115952966D01*
X177430931Y-116080599D01*
X177556246Y-116166223D01*
X177705000Y-116196346D01*
X179205000Y-116196346D01*
X179343966Y-116170198D01*
X179471599Y-116088069D01*
X179557223Y-115962754D01*
X179587346Y-115814000D01*
X179587346Y-115287750D01*
X179830000Y-115287750D01*
X179830000Y-115888592D01*
X179887090Y-116026421D01*
X179992580Y-116131910D01*
X180130408Y-116189000D01*
X180856250Y-116189000D01*
X180950000Y-116095250D01*
X180950000Y-115194000D01*
X180960000Y-115194000D01*
X180960000Y-116095250D01*
X181053750Y-116189000D01*
X181779592Y-116189000D01*
X181917420Y-116131910D01*
X182022910Y-116026421D01*
X182080000Y-115888592D01*
X182080000Y-115287750D01*
X181986250Y-115194000D01*
X180960000Y-115194000D01*
X180950000Y-115194000D01*
X179923750Y-115194000D01*
X179830000Y-115287750D01*
X179587346Y-115287750D01*
X179587346Y-114564000D01*
X179573311Y-114489408D01*
X179830000Y-114489408D01*
X179830000Y-115090250D01*
X179923750Y-115184000D01*
X180950000Y-115184000D01*
X180950000Y-114282750D01*
X180960000Y-114282750D01*
X180960000Y-115184000D01*
X181986250Y-115184000D01*
X182080000Y-115090250D01*
X182080000Y-114565801D01*
X182180429Y-114808857D01*
X182370144Y-114998903D01*
X182618145Y-115101883D01*
X182886677Y-115102117D01*
X183134857Y-114999571D01*
X183324903Y-114809856D01*
X183427883Y-114561855D01*
X183428042Y-114379064D01*
X183744760Y-114062346D01*
X184820000Y-114062346D01*
X184958966Y-114036198D01*
X185086599Y-113954069D01*
X185172223Y-113828754D01*
X185202346Y-113680000D01*
X185202346Y-112380000D01*
X185637654Y-112380000D01*
X185637654Y-113680000D01*
X185663802Y-113818966D01*
X185745931Y-113946599D01*
X185871246Y-114032223D01*
X186020000Y-114062346D01*
X187095240Y-114062346D01*
X188956446Y-115923553D01*
X189110398Y-116026421D01*
X189118658Y-116031940D01*
X189310000Y-116070000D01*
X189869124Y-116070000D01*
X190066567Y-116365495D01*
X190431543Y-116609364D01*
X190862062Y-116695000D01*
X191415938Y-116695000D01*
X191846457Y-116609364D01*
X192211433Y-116365495D01*
X192455302Y-116000519D01*
X192504949Y-115750925D01*
X192818644Y-115750925D01*
X192887723Y-115995900D01*
X193129970Y-116361960D01*
X193493862Y-116607451D01*
X193924000Y-116695000D01*
X194174000Y-116695000D01*
X194174000Y-115575000D01*
X194184000Y-115575000D01*
X194184000Y-116695000D01*
X194434000Y-116695000D01*
X194864138Y-116607451D01*
X195228030Y-116361960D01*
X195470277Y-115995900D01*
X195539356Y-115750925D01*
X195460238Y-115575000D01*
X194184000Y-115575000D01*
X194174000Y-115575000D01*
X192897762Y-115575000D01*
X192818644Y-115750925D01*
X192504949Y-115750925D01*
X192540938Y-115570000D01*
X192504950Y-115389075D01*
X192818644Y-115389075D01*
X192897762Y-115565000D01*
X194174000Y-115565000D01*
X194174000Y-114445000D01*
X194184000Y-114445000D01*
X194184000Y-115565000D01*
X195460238Y-115565000D01*
X195539356Y-115389075D01*
X195470277Y-115144100D01*
X195228030Y-114778040D01*
X194864138Y-114532549D01*
X194434000Y-114445000D01*
X194184000Y-114445000D01*
X194174000Y-114445000D01*
X193924000Y-114445000D01*
X193493862Y-114532549D01*
X193129970Y-114778040D01*
X192887723Y-115144100D01*
X192818644Y-115389075D01*
X192504950Y-115389075D01*
X192455302Y-115139481D01*
X192211433Y-114774505D01*
X191846457Y-114530636D01*
X191415938Y-114445000D01*
X190862062Y-114445000D01*
X190431543Y-114530636D01*
X190066567Y-114774505D01*
X189869124Y-115070000D01*
X189517107Y-115070000D01*
X187902346Y-113455240D01*
X187902346Y-113030000D01*
X189737062Y-113030000D01*
X189822698Y-113460519D01*
X190066567Y-113825495D01*
X190431543Y-114069364D01*
X190862062Y-114155000D01*
X191415938Y-114155000D01*
X191846457Y-114069364D01*
X192211433Y-113825495D01*
X192455302Y-113460519D01*
X192504949Y-113210925D01*
X192818644Y-113210925D01*
X192887723Y-113455900D01*
X193129970Y-113821960D01*
X193493862Y-114067451D01*
X193924000Y-114155000D01*
X194174000Y-114155000D01*
X194174000Y-113035000D01*
X194184000Y-113035000D01*
X194184000Y-114155000D01*
X194434000Y-114155000D01*
X194864138Y-114067451D01*
X195228030Y-113821960D01*
X195470277Y-113455900D01*
X195539356Y-113210925D01*
X195460238Y-113035000D01*
X194184000Y-113035000D01*
X194174000Y-113035000D01*
X192897762Y-113035000D01*
X192818644Y-113210925D01*
X192504949Y-113210925D01*
X192540938Y-113030000D01*
X192504950Y-112849075D01*
X192818644Y-112849075D01*
X192897762Y-113025000D01*
X194174000Y-113025000D01*
X194174000Y-111905000D01*
X194184000Y-111905000D01*
X194184000Y-113025000D01*
X195460238Y-113025000D01*
X195539356Y-112849075D01*
X195470277Y-112604100D01*
X195228030Y-112238040D01*
X194864138Y-111992549D01*
X194434000Y-111905000D01*
X194184000Y-111905000D01*
X194174000Y-111905000D01*
X193924000Y-111905000D01*
X193493862Y-111992549D01*
X193129970Y-112238040D01*
X192887723Y-112604100D01*
X192818644Y-112849075D01*
X192504950Y-112849075D01*
X192455302Y-112599481D01*
X192211433Y-112234505D01*
X191846457Y-111990636D01*
X191415938Y-111905000D01*
X190862062Y-111905000D01*
X190431543Y-111990636D01*
X190066567Y-112234505D01*
X189822698Y-112599481D01*
X189737062Y-113030000D01*
X187902346Y-113030000D01*
X187902346Y-112380000D01*
X187876198Y-112241034D01*
X187794069Y-112113401D01*
X187668754Y-112027777D01*
X187520000Y-111997654D01*
X186020000Y-111997654D01*
X185881034Y-112023802D01*
X185753401Y-112105931D01*
X185667777Y-112231246D01*
X185637654Y-112380000D01*
X185202346Y-112380000D01*
X185176198Y-112241034D01*
X185094069Y-112113401D01*
X184968754Y-112027777D01*
X184820000Y-111997654D01*
X183320000Y-111997654D01*
X183181034Y-112023802D01*
X183053401Y-112105931D01*
X182967777Y-112231246D01*
X182937654Y-112380000D01*
X182937654Y-113455240D01*
X182640992Y-113751902D01*
X182619323Y-113751883D01*
X182371143Y-113854429D01*
X182181097Y-114044144D01*
X182078117Y-114292145D01*
X182077949Y-114484457D01*
X182022910Y-114351579D01*
X181917420Y-114246090D01*
X181779592Y-114189000D01*
X181053750Y-114189000D01*
X180960000Y-114282750D01*
X180950000Y-114282750D01*
X180856250Y-114189000D01*
X180130408Y-114189000D01*
X179992580Y-114246090D01*
X179887090Y-114351579D01*
X179830000Y-114489408D01*
X179573311Y-114489408D01*
X179561198Y-114425034D01*
X179479069Y-114297401D01*
X179353754Y-114211777D01*
X179205000Y-114181654D01*
X177705000Y-114181654D01*
X177566034Y-114207802D01*
X177438401Y-114289931D01*
X177352777Y-114415246D01*
X177332772Y-114514035D01*
X177158323Y-114513883D01*
X177157000Y-114514430D01*
X177157000Y-113704823D01*
X177157145Y-113704883D01*
X177332069Y-113705035D01*
X177348802Y-113793966D01*
X177430931Y-113921599D01*
X177556246Y-114007223D01*
X177705000Y-114037346D01*
X179205000Y-114037346D01*
X179343966Y-114011198D01*
X179471599Y-113929069D01*
X179557223Y-113803754D01*
X179587346Y-113655000D01*
X179587346Y-113128750D01*
X179830000Y-113128750D01*
X179830000Y-113729592D01*
X179887090Y-113867421D01*
X179992580Y-113972910D01*
X180130408Y-114030000D01*
X180856250Y-114030000D01*
X180950000Y-113936250D01*
X180950000Y-113035000D01*
X180960000Y-113035000D01*
X180960000Y-113936250D01*
X181053750Y-114030000D01*
X181779592Y-114030000D01*
X181917420Y-113972910D01*
X182022910Y-113867421D01*
X182080000Y-113729592D01*
X182080000Y-113128750D01*
X181986250Y-113035000D01*
X180960000Y-113035000D01*
X180950000Y-113035000D01*
X179923750Y-113035000D01*
X179830000Y-113128750D01*
X179587346Y-113128750D01*
X179587346Y-112405000D01*
X179573311Y-112330408D01*
X179830000Y-112330408D01*
X179830000Y-112931250D01*
X179923750Y-113025000D01*
X180950000Y-113025000D01*
X180950000Y-112123750D01*
X180960000Y-112123750D01*
X180960000Y-113025000D01*
X181986250Y-113025000D01*
X182080000Y-112931250D01*
X182080000Y-112330408D01*
X182022910Y-112192579D01*
X181917420Y-112087090D01*
X181779592Y-112030000D01*
X181053750Y-112030000D01*
X180960000Y-112123750D01*
X180950000Y-112123750D01*
X180856250Y-112030000D01*
X180130408Y-112030000D01*
X179992580Y-112087090D01*
X179887090Y-112192579D01*
X179830000Y-112330408D01*
X179573311Y-112330408D01*
X179561198Y-112266034D01*
X179479069Y-112138401D01*
X179353754Y-112052777D01*
X179205000Y-112022654D01*
X177705000Y-112022654D01*
X177566034Y-112048802D01*
X177438401Y-112130931D01*
X177352777Y-112256246D01*
X177332772Y-112355035D01*
X177158323Y-112354883D01*
X177157000Y-112355430D01*
X177157000Y-111164823D01*
X177157145Y-111164883D01*
X177332069Y-111165035D01*
X177348802Y-111253966D01*
X177430931Y-111381599D01*
X177556246Y-111467223D01*
X177705000Y-111497346D01*
X179205000Y-111497346D01*
X179343966Y-111471198D01*
X179471599Y-111389069D01*
X179557223Y-111263754D01*
X179587346Y-111115000D01*
X179587346Y-110588750D01*
X179830000Y-110588750D01*
X179830000Y-111189592D01*
X179887090Y-111327421D01*
X179992580Y-111432910D01*
X180130408Y-111490000D01*
X180856250Y-111490000D01*
X180950000Y-111396250D01*
X180950000Y-110495000D01*
X180960000Y-110495000D01*
X180960000Y-111396250D01*
X181053750Y-111490000D01*
X181779592Y-111490000D01*
X181917420Y-111432910D01*
X182022910Y-111327421D01*
X182080000Y-111189592D01*
X182080000Y-110588750D01*
X181986250Y-110495000D01*
X180960000Y-110495000D01*
X180950000Y-110495000D01*
X179923750Y-110495000D01*
X179830000Y-110588750D01*
X179587346Y-110588750D01*
X179587346Y-109865000D01*
X179573311Y-109790408D01*
X179830000Y-109790408D01*
X179830000Y-110391250D01*
X179923750Y-110485000D01*
X180950000Y-110485000D01*
X180950000Y-109583750D01*
X180960000Y-109583750D01*
X180960000Y-110485000D01*
X181986250Y-110485000D01*
X182080000Y-110391250D01*
X182080000Y-109790408D01*
X182022910Y-109652579D01*
X181917420Y-109547090D01*
X181779592Y-109490000D01*
X181053750Y-109490000D01*
X180960000Y-109583750D01*
X180950000Y-109583750D01*
X180856250Y-109490000D01*
X180130408Y-109490000D01*
X179992580Y-109547090D01*
X179887090Y-109652579D01*
X179830000Y-109790408D01*
X179573311Y-109790408D01*
X179561198Y-109726034D01*
X179479069Y-109598401D01*
X179353754Y-109512777D01*
X179205000Y-109482654D01*
X177705000Y-109482654D01*
X177566034Y-109508802D01*
X177438401Y-109590931D01*
X177352777Y-109716246D01*
X177332772Y-109815035D01*
X177158323Y-109814883D01*
X177157000Y-109815430D01*
X177157000Y-109353677D01*
X182204883Y-109353677D01*
X182307429Y-109601857D01*
X182497144Y-109791903D01*
X182745145Y-109894883D01*
X182767797Y-109894903D01*
X182937654Y-110064760D01*
X182937654Y-111140000D01*
X182963802Y-111278966D01*
X183045931Y-111406599D01*
X183171246Y-111492223D01*
X183320000Y-111522346D01*
X184820000Y-111522346D01*
X184958966Y-111496198D01*
X185086599Y-111414069D01*
X185172223Y-111288754D01*
X185202346Y-111140000D01*
X185202346Y-109840000D01*
X185637654Y-109840000D01*
X185637654Y-111140000D01*
X185663802Y-111278966D01*
X185745931Y-111406599D01*
X185871246Y-111492223D01*
X186020000Y-111522346D01*
X187520000Y-111522346D01*
X187658966Y-111496198D01*
X187786599Y-111414069D01*
X187872223Y-111288754D01*
X187902346Y-111140000D01*
X187902346Y-110490000D01*
X189737062Y-110490000D01*
X189822698Y-110920519D01*
X190066567Y-111285495D01*
X190431543Y-111529364D01*
X190862062Y-111615000D01*
X191415938Y-111615000D01*
X191846457Y-111529364D01*
X192211433Y-111285495D01*
X192455302Y-110920519D01*
X192504949Y-110670925D01*
X192818644Y-110670925D01*
X192887723Y-110915900D01*
X193129970Y-111281960D01*
X193493862Y-111527451D01*
X193924000Y-111615000D01*
X194174000Y-111615000D01*
X194174000Y-110495000D01*
X194184000Y-110495000D01*
X194184000Y-111615000D01*
X194434000Y-111615000D01*
X194864138Y-111527451D01*
X195228030Y-111281960D01*
X195470277Y-110915900D01*
X195539356Y-110670925D01*
X195460238Y-110495000D01*
X194184000Y-110495000D01*
X194174000Y-110495000D01*
X192897762Y-110495000D01*
X192818644Y-110670925D01*
X192504949Y-110670925D01*
X192540938Y-110490000D01*
X192504950Y-110309075D01*
X192818644Y-110309075D01*
X192897762Y-110485000D01*
X194174000Y-110485000D01*
X194174000Y-109365000D01*
X194184000Y-109365000D01*
X194184000Y-110485000D01*
X195460238Y-110485000D01*
X195539356Y-110309075D01*
X195470277Y-110064100D01*
X195228030Y-109698040D01*
X194864138Y-109452549D01*
X194434000Y-109365000D01*
X194184000Y-109365000D01*
X194174000Y-109365000D01*
X193924000Y-109365000D01*
X193493862Y-109452549D01*
X193129970Y-109698040D01*
X192887723Y-110064100D01*
X192818644Y-110309075D01*
X192504950Y-110309075D01*
X192455302Y-110059481D01*
X192211433Y-109694505D01*
X191846457Y-109450636D01*
X191415938Y-109365000D01*
X190862062Y-109365000D01*
X190431543Y-109450636D01*
X190066567Y-109694505D01*
X189822698Y-110059481D01*
X189737062Y-110490000D01*
X187902346Y-110490000D01*
X187902346Y-110064760D01*
X189517107Y-108450000D01*
X189869124Y-108450000D01*
X190066567Y-108745495D01*
X190431543Y-108989364D01*
X190862062Y-109075000D01*
X191415938Y-109075000D01*
X191846457Y-108989364D01*
X192211433Y-108745495D01*
X192455302Y-108380519D01*
X192504949Y-108130925D01*
X192818644Y-108130925D01*
X192887723Y-108375900D01*
X193129970Y-108741960D01*
X193493862Y-108987451D01*
X193924000Y-109075000D01*
X194174000Y-109075000D01*
X194174000Y-107955000D01*
X194184000Y-107955000D01*
X194184000Y-109075000D01*
X194434000Y-109075000D01*
X194864138Y-108987451D01*
X195228030Y-108741960D01*
X195470277Y-108375900D01*
X195539356Y-108130925D01*
X195460238Y-107955000D01*
X194184000Y-107955000D01*
X194174000Y-107955000D01*
X192897762Y-107955000D01*
X192818644Y-108130925D01*
X192504949Y-108130925D01*
X192540938Y-107950000D01*
X192504950Y-107769075D01*
X192818644Y-107769075D01*
X192897762Y-107945000D01*
X194174000Y-107945000D01*
X194174000Y-106825000D01*
X194184000Y-106825000D01*
X194184000Y-107945000D01*
X195460238Y-107945000D01*
X195539356Y-107769075D01*
X195470277Y-107524100D01*
X195228030Y-107158040D01*
X194864138Y-106912549D01*
X194434000Y-106825000D01*
X194184000Y-106825000D01*
X194174000Y-106825000D01*
X193924000Y-106825000D01*
X193493862Y-106912549D01*
X193129970Y-107158040D01*
X192887723Y-107524100D01*
X192818644Y-107769075D01*
X192504950Y-107769075D01*
X192455302Y-107519481D01*
X192211433Y-107154505D01*
X191846457Y-106910636D01*
X191415938Y-106825000D01*
X190862062Y-106825000D01*
X190431543Y-106910636D01*
X190066567Y-107154505D01*
X189869124Y-107450000D01*
X189310000Y-107450000D01*
X189118658Y-107488060D01*
X188956446Y-107596447D01*
X187095240Y-109457654D01*
X186020000Y-109457654D01*
X185881034Y-109483802D01*
X185753401Y-109565931D01*
X185667777Y-109691246D01*
X185637654Y-109840000D01*
X185202346Y-109840000D01*
X185176198Y-109701034D01*
X185094069Y-109573401D01*
X184968754Y-109487777D01*
X184820000Y-109457654D01*
X183744760Y-109457654D01*
X183554959Y-109267853D01*
X183555117Y-109086323D01*
X183452571Y-108838143D01*
X183262856Y-108648097D01*
X183014855Y-108545117D01*
X182746323Y-108544883D01*
X182498143Y-108647429D01*
X182308097Y-108837144D01*
X182205117Y-109085145D01*
X182204883Y-109353677D01*
X177157000Y-109353677D01*
X177157000Y-109005823D01*
X177157145Y-109005883D01*
X177332069Y-109006035D01*
X177348802Y-109094966D01*
X177430931Y-109222599D01*
X177556246Y-109308223D01*
X177705000Y-109338346D01*
X179205000Y-109338346D01*
X179343966Y-109312198D01*
X179471599Y-109230069D01*
X179557223Y-109104754D01*
X179587346Y-108956000D01*
X179587346Y-108429750D01*
X179830000Y-108429750D01*
X179830000Y-109030592D01*
X179887090Y-109168421D01*
X179992580Y-109273910D01*
X180130408Y-109331000D01*
X180856250Y-109331000D01*
X180950000Y-109237250D01*
X180950000Y-108336000D01*
X180960000Y-108336000D01*
X180960000Y-109237250D01*
X181053750Y-109331000D01*
X181779592Y-109331000D01*
X181917420Y-109273910D01*
X182022910Y-109168421D01*
X182080000Y-109030592D01*
X182080000Y-108429750D01*
X181986250Y-108336000D01*
X180960000Y-108336000D01*
X180950000Y-108336000D01*
X179923750Y-108336000D01*
X179830000Y-108429750D01*
X179587346Y-108429750D01*
X179587346Y-107706000D01*
X179573311Y-107631408D01*
X179830000Y-107631408D01*
X179830000Y-108232250D01*
X179923750Y-108326000D01*
X180950000Y-108326000D01*
X180950000Y-107424750D01*
X180960000Y-107424750D01*
X180960000Y-108326000D01*
X181986250Y-108326000D01*
X182080000Y-108232250D01*
X182080000Y-107631408D01*
X182022910Y-107493579D01*
X181917420Y-107388090D01*
X181779592Y-107331000D01*
X181053750Y-107331000D01*
X180960000Y-107424750D01*
X180950000Y-107424750D01*
X180856250Y-107331000D01*
X180130408Y-107331000D01*
X179992580Y-107388090D01*
X179887090Y-107493579D01*
X179830000Y-107631408D01*
X179573311Y-107631408D01*
X179561198Y-107567034D01*
X179479069Y-107439401D01*
X179353754Y-107353777D01*
X179205000Y-107323654D01*
X177705000Y-107323654D01*
X177566034Y-107349802D01*
X177438401Y-107431931D01*
X177352777Y-107557246D01*
X177332772Y-107656035D01*
X177158323Y-107655883D01*
X177157000Y-107656430D01*
X177157000Y-107515634D01*
X177228903Y-107443856D01*
X177331883Y-107195855D01*
X177332117Y-106927323D01*
X177229571Y-106679143D01*
X177039856Y-106489097D01*
X176791855Y-106386117D01*
X176523323Y-106385883D01*
X176275143Y-106488429D01*
X176085097Y-106678144D01*
X175982117Y-106926145D01*
X175981883Y-107194677D01*
X176084429Y-107442857D01*
X176157000Y-107515555D01*
X176157000Y-115877366D01*
X176085097Y-115949144D01*
X175982117Y-116197145D01*
X175981883Y-116465677D01*
X176084429Y-116713857D01*
X176157000Y-116786555D01*
X176157000Y-122177000D01*
X173072234Y-122177000D01*
X173060198Y-122113034D01*
X172978069Y-121985401D01*
X172852754Y-121899777D01*
X172704000Y-121869654D01*
X172196811Y-121869654D01*
X172208599Y-121862069D01*
X172294223Y-121736754D01*
X172324346Y-121588000D01*
X172324346Y-120588000D01*
X172304839Y-120484329D01*
X172324346Y-120388000D01*
X172324346Y-119388000D01*
X172305825Y-119289570D01*
X172317000Y-119262592D01*
X172317000Y-118786750D01*
X172223250Y-118693000D01*
X170947000Y-118693000D01*
X170947000Y-118713000D01*
X170937000Y-118713000D01*
X170937000Y-118693000D01*
X169660750Y-118693000D01*
X169567000Y-118786750D01*
X169567000Y-119262592D01*
X169579123Y-119291859D01*
X169559654Y-119388000D01*
X169559654Y-119596940D01*
X169552855Y-119594117D01*
X169284323Y-119593883D01*
X169036143Y-119696429D01*
X168973557Y-119758906D01*
X168911856Y-119697097D01*
X168663855Y-119594117D01*
X168395323Y-119593883D01*
X168278871Y-119642000D01*
X168260346Y-119642000D01*
X168260346Y-119388000D01*
X168241825Y-119289570D01*
X168253000Y-119262592D01*
X168253000Y-118786750D01*
X168159250Y-118693000D01*
X166883000Y-118693000D01*
X166883000Y-118713000D01*
X166873000Y-118713000D01*
X166873000Y-118693000D01*
X165596750Y-118693000D01*
X165503000Y-118786750D01*
X165503000Y-119262592D01*
X165515123Y-119291859D01*
X165495654Y-119388000D01*
X164381000Y-119388000D01*
X164381000Y-118970750D01*
X164287250Y-118877000D01*
X163511000Y-118877000D01*
X163501000Y-118877000D01*
X163481000Y-118877000D01*
X163481000Y-118867000D01*
X163501000Y-118867000D01*
X163501000Y-117590750D01*
X163511000Y-117590750D01*
X163511000Y-118867000D01*
X164287250Y-118867000D01*
X164381000Y-118773250D01*
X164381000Y-118113408D01*
X165503000Y-118113408D01*
X165503000Y-118589250D01*
X165596750Y-118683000D01*
X166873000Y-118683000D01*
X166873000Y-117906750D01*
X166883000Y-117906750D01*
X166883000Y-118683000D01*
X168159250Y-118683000D01*
X168253000Y-118589250D01*
X168253000Y-118113408D01*
X169567000Y-118113408D01*
X169567000Y-118589250D01*
X169660750Y-118683000D01*
X170937000Y-118683000D01*
X170937000Y-117906750D01*
X170947000Y-117906750D01*
X170947000Y-118683000D01*
X172223250Y-118683000D01*
X172317000Y-118589250D01*
X172317000Y-118113408D01*
X172259910Y-117975580D01*
X172154421Y-117870090D01*
X172016592Y-117813000D01*
X171040750Y-117813000D01*
X170947000Y-117906750D01*
X170937000Y-117906750D01*
X170843250Y-117813000D01*
X169867408Y-117813000D01*
X169729579Y-117870090D01*
X169624090Y-117975580D01*
X169567000Y-118113408D01*
X168253000Y-118113408D01*
X168195910Y-117975580D01*
X168090421Y-117870090D01*
X167952592Y-117813000D01*
X166976750Y-117813000D01*
X166883000Y-117906750D01*
X166873000Y-117906750D01*
X166779250Y-117813000D01*
X165803408Y-117813000D01*
X165665579Y-117870090D01*
X165560090Y-117975580D01*
X165503000Y-118113408D01*
X164381000Y-118113408D01*
X164381000Y-117797408D01*
X164323910Y-117659579D01*
X164218420Y-117554090D01*
X164080592Y-117497000D01*
X163604750Y-117497000D01*
X163511000Y-117590750D01*
X163501000Y-117590750D01*
X163407250Y-117497000D01*
X162931408Y-117497000D01*
X162902141Y-117509123D01*
X162806000Y-117489654D01*
X161806000Y-117489654D01*
X161702329Y-117509161D01*
X161606000Y-117489654D01*
X160606000Y-117489654D01*
X160467034Y-117515802D01*
X160401064Y-117558252D01*
X160344754Y-117519777D01*
X160284000Y-117507474D01*
X160284000Y-115424346D01*
X160516000Y-115424346D01*
X160654966Y-115398198D01*
X160782599Y-115316069D01*
X160868223Y-115190754D01*
X160898346Y-115042000D01*
X160898346Y-113765062D01*
X161181000Y-113765062D01*
X161181000Y-114318938D01*
X161266636Y-114749457D01*
X161510505Y-115114433D01*
X161875481Y-115358302D01*
X162306000Y-115443938D01*
X162736519Y-115358302D01*
X163101495Y-115114433D01*
X163345364Y-114749457D01*
X163431000Y-114318938D01*
X163431000Y-113765062D01*
X163721000Y-113765062D01*
X163721000Y-114318938D01*
X163806636Y-114749457D01*
X164050505Y-115114433D01*
X164415481Y-115358302D01*
X164846000Y-115443938D01*
X165276519Y-115358302D01*
X165641495Y-115114433D01*
X165885364Y-114749457D01*
X165971000Y-114318938D01*
X165971000Y-113765062D01*
X166261000Y-113765062D01*
X166261000Y-114318938D01*
X166346636Y-114749457D01*
X166590505Y-115114433D01*
X166955481Y-115358302D01*
X167386000Y-115443938D01*
X167816519Y-115358302D01*
X168181495Y-115114433D01*
X168425364Y-114749457D01*
X168511000Y-114318938D01*
X168511000Y-114047000D01*
X168801000Y-114047000D01*
X168801000Y-114297000D01*
X168888549Y-114727138D01*
X169134040Y-115091030D01*
X169500100Y-115333277D01*
X169745075Y-115402356D01*
X169921000Y-115323238D01*
X169921000Y-114047000D01*
X169931000Y-114047000D01*
X169931000Y-115323238D01*
X170106925Y-115402356D01*
X170351900Y-115333277D01*
X170717960Y-115091030D01*
X170963451Y-114727138D01*
X171051000Y-114297000D01*
X171051000Y-114047000D01*
X169931000Y-114047000D01*
X169921000Y-114047000D01*
X168801000Y-114047000D01*
X168511000Y-114047000D01*
X168511000Y-113787000D01*
X168801000Y-113787000D01*
X168801000Y-114037000D01*
X169921000Y-114037000D01*
X169921000Y-112760762D01*
X169931000Y-112760762D01*
X169931000Y-114037000D01*
X171051000Y-114037000D01*
X171051000Y-113787000D01*
X170963451Y-113356862D01*
X170717960Y-112992970D01*
X170351900Y-112750723D01*
X170106925Y-112681644D01*
X169931000Y-112760762D01*
X169921000Y-112760762D01*
X169745075Y-112681644D01*
X169500100Y-112750723D01*
X169134040Y-112992970D01*
X168888549Y-113356862D01*
X168801000Y-113787000D01*
X168511000Y-113787000D01*
X168511000Y-113765062D01*
X168425364Y-113334543D01*
X168181495Y-112969567D01*
X167816519Y-112725698D01*
X167386000Y-112640062D01*
X166955481Y-112725698D01*
X166590505Y-112969567D01*
X166346636Y-113334543D01*
X166261000Y-113765062D01*
X165971000Y-113765062D01*
X165885364Y-113334543D01*
X165641495Y-112969567D01*
X165276519Y-112725698D01*
X164846000Y-112640062D01*
X164415481Y-112725698D01*
X164050505Y-112969567D01*
X163806636Y-113334543D01*
X163721000Y-113765062D01*
X163431000Y-113765062D01*
X163345364Y-113334543D01*
X163101495Y-112969567D01*
X162736519Y-112725698D01*
X162306000Y-112640062D01*
X161875481Y-112725698D01*
X161510505Y-112969567D01*
X161266636Y-113334543D01*
X161181000Y-113765062D01*
X160898346Y-113765062D01*
X160898346Y-113042000D01*
X160872198Y-112903034D01*
X160790069Y-112775401D01*
X160664754Y-112689777D01*
X160516000Y-112659654D01*
X159016000Y-112659654D01*
X158877034Y-112685802D01*
X158749401Y-112767931D01*
X158663777Y-112893246D01*
X158633654Y-113042000D01*
X158633654Y-115042000D01*
X158659802Y-115180966D01*
X158741931Y-115308599D01*
X158867246Y-115394223D01*
X159016000Y-115424346D01*
X159134000Y-115424346D01*
X159134000Y-117501320D01*
X159092329Y-117509161D01*
X158996000Y-117489654D01*
X157996000Y-117489654D01*
X157897570Y-117508175D01*
X157870592Y-117497000D01*
X157394750Y-117497000D01*
X157301000Y-117590750D01*
X157291000Y-117590750D01*
X157197250Y-117497000D01*
X156721408Y-117497000D01*
X156583580Y-117554090D01*
X156478090Y-117659579D01*
X156421000Y-117797408D01*
X154950000Y-117797408D01*
X154950000Y-110725062D01*
X158641000Y-110725062D01*
X158641000Y-111278938D01*
X158726636Y-111709457D01*
X158970505Y-112074433D01*
X159335481Y-112318302D01*
X159766000Y-112403938D01*
X160196519Y-112318302D01*
X160561495Y-112074433D01*
X160805364Y-111709457D01*
X160891000Y-111278938D01*
X160891000Y-110725062D01*
X161181000Y-110725062D01*
X161181000Y-111278938D01*
X161266636Y-111709457D01*
X161510505Y-112074433D01*
X161875481Y-112318302D01*
X162306000Y-112403938D01*
X162736519Y-112318302D01*
X163101495Y-112074433D01*
X163345364Y-111709457D01*
X163431000Y-111278938D01*
X163431000Y-110725062D01*
X163721000Y-110725062D01*
X163721000Y-111278938D01*
X163806636Y-111709457D01*
X164050505Y-112074433D01*
X164415481Y-112318302D01*
X164846000Y-112403938D01*
X165276519Y-112318302D01*
X165641495Y-112074433D01*
X165885364Y-111709457D01*
X165971000Y-111278938D01*
X165971000Y-110725062D01*
X166261000Y-110725062D01*
X166261000Y-111278938D01*
X166346636Y-111709457D01*
X166590505Y-112074433D01*
X166955481Y-112318302D01*
X167386000Y-112403938D01*
X167816519Y-112318302D01*
X168181495Y-112074433D01*
X168425364Y-111709457D01*
X168511000Y-111278938D01*
X168511000Y-111007000D01*
X168801000Y-111007000D01*
X168801000Y-111257000D01*
X168888549Y-111687138D01*
X169134040Y-112051030D01*
X169500100Y-112293277D01*
X169745075Y-112362356D01*
X169921000Y-112283238D01*
X169921000Y-111007000D01*
X169931000Y-111007000D01*
X169931000Y-112283238D01*
X170106925Y-112362356D01*
X170351900Y-112293277D01*
X170717960Y-112051030D01*
X170963451Y-111687138D01*
X171051000Y-111257000D01*
X171051000Y-111007000D01*
X169931000Y-111007000D01*
X169921000Y-111007000D01*
X168801000Y-111007000D01*
X168511000Y-111007000D01*
X168511000Y-110747000D01*
X168801000Y-110747000D01*
X168801000Y-110997000D01*
X169921000Y-110997000D01*
X169921000Y-109720762D01*
X169931000Y-109720762D01*
X169931000Y-110997000D01*
X171051000Y-110997000D01*
X171051000Y-110747000D01*
X170963451Y-110316862D01*
X170717960Y-109952970D01*
X170351900Y-109710723D01*
X170106925Y-109641644D01*
X169931000Y-109720762D01*
X169921000Y-109720762D01*
X169745075Y-109641644D01*
X169500100Y-109710723D01*
X169134040Y-109952970D01*
X168888549Y-110316862D01*
X168801000Y-110747000D01*
X168511000Y-110747000D01*
X168511000Y-110725062D01*
X168425364Y-110294543D01*
X168181495Y-109929567D01*
X167816519Y-109685698D01*
X167386000Y-109600062D01*
X166955481Y-109685698D01*
X166590505Y-109929567D01*
X166346636Y-110294543D01*
X166261000Y-110725062D01*
X165971000Y-110725062D01*
X165885364Y-110294543D01*
X165641495Y-109929567D01*
X165276519Y-109685698D01*
X164846000Y-109600062D01*
X164415481Y-109685698D01*
X164050505Y-109929567D01*
X163806636Y-110294543D01*
X163721000Y-110725062D01*
X163431000Y-110725062D01*
X163345364Y-110294543D01*
X163101495Y-109929567D01*
X162736519Y-109685698D01*
X162306000Y-109600062D01*
X161875481Y-109685698D01*
X161510505Y-109929567D01*
X161266636Y-110294543D01*
X161181000Y-110725062D01*
X160891000Y-110725062D01*
X160805364Y-110294543D01*
X160561495Y-109929567D01*
X160196519Y-109685698D01*
X159766000Y-109600062D01*
X159335481Y-109685698D01*
X158970505Y-109929567D01*
X158726636Y-110294543D01*
X158641000Y-110725062D01*
X154950000Y-110725062D01*
X154950000Y-105162677D01*
X176616883Y-105162677D01*
X176719429Y-105410857D01*
X176909144Y-105600903D01*
X177157145Y-105703883D01*
X177332069Y-105704035D01*
X177348802Y-105792966D01*
X177430931Y-105920599D01*
X177556246Y-106006223D01*
X177705000Y-106036346D01*
X179205000Y-106036346D01*
X179343966Y-106010198D01*
X179471599Y-105928069D01*
X179557223Y-105802754D01*
X179587346Y-105654000D01*
X179587346Y-105127750D01*
X179830000Y-105127750D01*
X179830000Y-105728592D01*
X179887090Y-105866421D01*
X179992580Y-105971910D01*
X180130408Y-106029000D01*
X180856250Y-106029000D01*
X180950000Y-105935250D01*
X180950000Y-105034000D01*
X180960000Y-105034000D01*
X180960000Y-105935250D01*
X181053750Y-106029000D01*
X181779592Y-106029000D01*
X181917420Y-105971910D01*
X182022910Y-105866421D01*
X182080000Y-105728592D01*
X182080000Y-105127750D01*
X181986250Y-105034000D01*
X180960000Y-105034000D01*
X180950000Y-105034000D01*
X179923750Y-105034000D01*
X179830000Y-105127750D01*
X179587346Y-105127750D01*
X179587346Y-104404000D01*
X179573311Y-104329408D01*
X179830000Y-104329408D01*
X179830000Y-104930250D01*
X179923750Y-105024000D01*
X180950000Y-105024000D01*
X180950000Y-104122750D01*
X180960000Y-104122750D01*
X180960000Y-105024000D01*
X181986250Y-105024000D01*
X182080000Y-104930250D01*
X182080000Y-104329408D01*
X182056916Y-104273677D01*
X182204883Y-104273677D01*
X182307429Y-104521857D01*
X182497144Y-104711903D01*
X182745145Y-104814883D01*
X183013677Y-104815117D01*
X183261857Y-104712571D01*
X183451903Y-104522856D01*
X183554883Y-104274855D01*
X183555042Y-104092064D01*
X183744760Y-103902346D01*
X184820000Y-103902346D01*
X184958966Y-103876198D01*
X185086599Y-103794069D01*
X185172223Y-103668754D01*
X185202346Y-103520000D01*
X185202346Y-102220000D01*
X185637654Y-102220000D01*
X185637654Y-103520000D01*
X185663802Y-103658966D01*
X185745931Y-103786599D01*
X185871246Y-103872223D01*
X186020000Y-103902346D01*
X187095240Y-103902346D01*
X188956446Y-105763553D01*
X189110398Y-105866421D01*
X189118658Y-105871940D01*
X189310000Y-105910000D01*
X189869124Y-105910000D01*
X190066567Y-106205495D01*
X190431543Y-106449364D01*
X190862062Y-106535000D01*
X191415938Y-106535000D01*
X191846457Y-106449364D01*
X192211433Y-106205495D01*
X192455302Y-105840519D01*
X192504949Y-105590925D01*
X192818644Y-105590925D01*
X192887723Y-105835900D01*
X193129970Y-106201960D01*
X193493862Y-106447451D01*
X193924000Y-106535000D01*
X194174000Y-106535000D01*
X194174000Y-105415000D01*
X194184000Y-105415000D01*
X194184000Y-106535000D01*
X194434000Y-106535000D01*
X194864138Y-106447451D01*
X195228030Y-106201960D01*
X195470277Y-105835900D01*
X195539356Y-105590925D01*
X195460238Y-105415000D01*
X194184000Y-105415000D01*
X194174000Y-105415000D01*
X192897762Y-105415000D01*
X192818644Y-105590925D01*
X192504949Y-105590925D01*
X192540938Y-105410000D01*
X192504950Y-105229075D01*
X192818644Y-105229075D01*
X192897762Y-105405000D01*
X194174000Y-105405000D01*
X194174000Y-104285000D01*
X194184000Y-104285000D01*
X194184000Y-105405000D01*
X195460238Y-105405000D01*
X195539356Y-105229075D01*
X195470277Y-104984100D01*
X195228030Y-104618040D01*
X194864138Y-104372549D01*
X194434000Y-104285000D01*
X194184000Y-104285000D01*
X194174000Y-104285000D01*
X193924000Y-104285000D01*
X193493862Y-104372549D01*
X193129970Y-104618040D01*
X192887723Y-104984100D01*
X192818644Y-105229075D01*
X192504950Y-105229075D01*
X192455302Y-104979481D01*
X192211433Y-104614505D01*
X191846457Y-104370636D01*
X191415938Y-104285000D01*
X190862062Y-104285000D01*
X190431543Y-104370636D01*
X190066567Y-104614505D01*
X189869124Y-104910000D01*
X189517107Y-104910000D01*
X187902346Y-103295240D01*
X187902346Y-102220000D01*
X187883530Y-102120000D01*
X189756654Y-102120000D01*
X189756654Y-103620000D01*
X189782802Y-103758966D01*
X189864931Y-103886599D01*
X189990246Y-103972223D01*
X190139000Y-104002346D01*
X192139000Y-104002346D01*
X192277966Y-103976198D01*
X192405599Y-103894069D01*
X192491223Y-103768754D01*
X192521346Y-103620000D01*
X192521346Y-103050925D01*
X192818644Y-103050925D01*
X192887723Y-103295900D01*
X193129970Y-103661960D01*
X193493862Y-103907451D01*
X193924000Y-103995000D01*
X194174000Y-103995000D01*
X194174000Y-102875000D01*
X194184000Y-102875000D01*
X194184000Y-103995000D01*
X194434000Y-103995000D01*
X194864138Y-103907451D01*
X195228030Y-103661960D01*
X195470277Y-103295900D01*
X195539356Y-103050925D01*
X195460238Y-102875000D01*
X194184000Y-102875000D01*
X194174000Y-102875000D01*
X192897762Y-102875000D01*
X192818644Y-103050925D01*
X192521346Y-103050925D01*
X192521346Y-102689075D01*
X192818644Y-102689075D01*
X192897762Y-102865000D01*
X194174000Y-102865000D01*
X194174000Y-101745000D01*
X194184000Y-101745000D01*
X194184000Y-102865000D01*
X195460238Y-102865000D01*
X195539356Y-102689075D01*
X195470277Y-102444100D01*
X195228030Y-102078040D01*
X194864138Y-101832549D01*
X194434000Y-101745000D01*
X194184000Y-101745000D01*
X194174000Y-101745000D01*
X193924000Y-101745000D01*
X193493862Y-101832549D01*
X193129970Y-102078040D01*
X192887723Y-102444100D01*
X192818644Y-102689075D01*
X192521346Y-102689075D01*
X192521346Y-102120000D01*
X192495198Y-101981034D01*
X192413069Y-101853401D01*
X192287754Y-101767777D01*
X192139000Y-101737654D01*
X190139000Y-101737654D01*
X190000034Y-101763802D01*
X189872401Y-101845931D01*
X189786777Y-101971246D01*
X189756654Y-102120000D01*
X187883530Y-102120000D01*
X187876198Y-102081034D01*
X187794069Y-101953401D01*
X187668754Y-101867777D01*
X187520000Y-101837654D01*
X186020000Y-101837654D01*
X185881034Y-101863802D01*
X185753401Y-101945931D01*
X185667777Y-102071246D01*
X185637654Y-102220000D01*
X185202346Y-102220000D01*
X185176198Y-102081034D01*
X185094069Y-101953401D01*
X184968754Y-101867777D01*
X184820000Y-101837654D01*
X183320000Y-101837654D01*
X183181034Y-101863802D01*
X183053401Y-101945931D01*
X182967777Y-102071246D01*
X182937654Y-102220000D01*
X182937654Y-103295240D01*
X182767992Y-103464902D01*
X182746323Y-103464883D01*
X182498143Y-103567429D01*
X182308097Y-103757144D01*
X182205117Y-104005145D01*
X182204883Y-104273677D01*
X182056916Y-104273677D01*
X182022910Y-104191579D01*
X181917420Y-104086090D01*
X181779592Y-104029000D01*
X181053750Y-104029000D01*
X180960000Y-104122750D01*
X180950000Y-104122750D01*
X180856250Y-104029000D01*
X180130408Y-104029000D01*
X179992580Y-104086090D01*
X179887090Y-104191579D01*
X179830000Y-104329408D01*
X179573311Y-104329408D01*
X179561198Y-104265034D01*
X179479069Y-104137401D01*
X179353754Y-104051777D01*
X179205000Y-104021654D01*
X177705000Y-104021654D01*
X177566034Y-104047802D01*
X177438401Y-104129931D01*
X177352777Y-104255246D01*
X177332772Y-104354035D01*
X177158323Y-104353883D01*
X176910143Y-104456429D01*
X176720097Y-104646144D01*
X176617117Y-104894145D01*
X176616883Y-105162677D01*
X154950000Y-105162677D01*
X154950000Y-102500050D01*
X156474562Y-102500050D01*
X156858161Y-103428429D01*
X157567835Y-104139343D01*
X158495543Y-104524561D01*
X159500050Y-104525438D01*
X160428429Y-104141839D01*
X161139343Y-103432165D01*
X161317266Y-103003677D01*
X176616883Y-103003677D01*
X176719429Y-103251857D01*
X176909144Y-103441903D01*
X177157145Y-103544883D01*
X177332069Y-103545035D01*
X177348802Y-103633966D01*
X177430931Y-103761599D01*
X177556246Y-103847223D01*
X177705000Y-103877346D01*
X179205000Y-103877346D01*
X179343966Y-103851198D01*
X179471599Y-103769069D01*
X179557223Y-103643754D01*
X179587346Y-103495000D01*
X179587346Y-102968750D01*
X179830000Y-102968750D01*
X179830000Y-103569592D01*
X179887090Y-103707421D01*
X179992580Y-103812910D01*
X180130408Y-103870000D01*
X180856250Y-103870000D01*
X180950000Y-103776250D01*
X180950000Y-102875000D01*
X180960000Y-102875000D01*
X180960000Y-103776250D01*
X181053750Y-103870000D01*
X181779592Y-103870000D01*
X181917420Y-103812910D01*
X182022910Y-103707421D01*
X182080000Y-103569592D01*
X182080000Y-102968750D01*
X181986250Y-102875000D01*
X180960000Y-102875000D01*
X180950000Y-102875000D01*
X179923750Y-102875000D01*
X179830000Y-102968750D01*
X179587346Y-102968750D01*
X179587346Y-102245000D01*
X179573311Y-102170408D01*
X179830000Y-102170408D01*
X179830000Y-102771250D01*
X179923750Y-102865000D01*
X180950000Y-102865000D01*
X180950000Y-101963750D01*
X180960000Y-101963750D01*
X180960000Y-102865000D01*
X181986250Y-102865000D01*
X182080000Y-102771250D01*
X182080000Y-102170408D01*
X182022910Y-102032579D01*
X181917420Y-101927090D01*
X181779592Y-101870000D01*
X181053750Y-101870000D01*
X180960000Y-101963750D01*
X180950000Y-101963750D01*
X180856250Y-101870000D01*
X180130408Y-101870000D01*
X179992580Y-101927090D01*
X179887090Y-102032579D01*
X179830000Y-102170408D01*
X179573311Y-102170408D01*
X179561198Y-102106034D01*
X179479069Y-101978401D01*
X179353754Y-101892777D01*
X179205000Y-101862654D01*
X177705000Y-101862654D01*
X177566034Y-101888802D01*
X177438401Y-101970931D01*
X177352777Y-102096246D01*
X177332772Y-102195035D01*
X177158323Y-102194883D01*
X176910143Y-102297429D01*
X176720097Y-102487144D01*
X176617117Y-102735145D01*
X176616883Y-103003677D01*
X161317266Y-103003677D01*
X161524561Y-102504457D01*
X161525438Y-101499950D01*
X161141839Y-100571571D01*
X160432165Y-99860657D01*
X159563607Y-99500000D01*
X166550000Y-99500000D01*
X166550000Y-101500000D01*
X166584254Y-101672208D01*
X166681802Y-101818198D01*
X166827792Y-101915746D01*
X167000000Y-101950000D01*
X173000000Y-101950000D01*
X173172208Y-101915746D01*
X173318198Y-101818198D01*
X173415746Y-101672208D01*
X173450000Y-101500000D01*
X173450000Y-99500000D01*
X173415746Y-99327792D01*
X173318198Y-99181802D01*
X173172208Y-99084254D01*
X173000000Y-99050000D01*
X167000000Y-99050000D01*
X166827792Y-99084254D01*
X166681802Y-99181802D01*
X166584254Y-99327792D01*
X166550000Y-99500000D01*
X159563607Y-99500000D01*
X159504457Y-99475439D01*
X158499950Y-99474562D01*
X157571571Y-99858161D01*
X156860657Y-100567835D01*
X156475439Y-101495543D01*
X156474562Y-102500050D01*
X154950000Y-102500050D01*
X154950000Y-97950000D01*
X197050000Y-97950000D01*
X197050000Y-146050000D01*
M02*
