G04 #@! TF.FileFunction,Soldermask,Top*
%FSLAX46Y46*%
G04 Gerber Fmt 4.6, Leading zero omitted, Abs format (unit mm)*
G04 Created by KiCad (PCBNEW 4.0.4-stable) date 12/22/16 08:09:43*
%MOMM*%
%LPD*%
G01*
G04 APERTURE LIST*
%ADD10C,0.100000*%
%ADD11O,1.900000X2.400000*%
%ADD12R,1.900000X2.400000*%
%ADD13R,1.900000X1.650000*%
%ADD14R,2.400000X1.400000*%
%ADD15R,2.600000X1.600000*%
%ADD16R,1.900000X1.700000*%
%ADD17R,1.400000X2.400000*%
%ADD18R,1.600000X2.600000*%
%ADD19C,2.000000*%
%ADD20O,2.400000X1.900000*%
%ADD21R,2.400000X1.900000*%
%ADD22C,4.700000*%
G04 APERTURE END LIST*
D10*
D11*
X169926000Y-114042000D03*
X169926000Y-111002000D03*
X167386000Y-111002000D03*
X167386000Y-114042000D03*
D12*
X159766000Y-114042000D03*
D11*
X159766000Y-111002000D03*
X162306000Y-114042000D03*
X162306000Y-111002000D03*
X164846000Y-114042000D03*
X164846000Y-111002000D03*
D13*
X178455000Y-105029000D03*
X180955000Y-105029000D03*
X178455000Y-102870000D03*
X180955000Y-102870000D03*
X178455000Y-115189000D03*
X180955000Y-115189000D03*
X178455000Y-113030000D03*
X180955000Y-113030000D03*
X180955000Y-108331000D03*
X178455000Y-108331000D03*
X180955000Y-110490000D03*
X178455000Y-110490000D03*
X180955000Y-118491000D03*
X178455000Y-118491000D03*
X180955000Y-120650000D03*
X178455000Y-120650000D03*
X178455000Y-125349000D03*
X180955000Y-125349000D03*
X178455000Y-123190000D03*
X180955000Y-123190000D03*
X178455000Y-135509000D03*
X180955000Y-135509000D03*
X178455000Y-133350000D03*
X180955000Y-133350000D03*
X180955000Y-128651000D03*
X178455000Y-128651000D03*
X180955000Y-130810000D03*
X178455000Y-130810000D03*
X181082000Y-138811000D03*
X178582000Y-138811000D03*
X181082000Y-140970000D03*
X178582000Y-140970000D03*
D14*
X170942000Y-118688000D03*
D15*
X170942000Y-119888000D03*
D14*
X170942000Y-121088000D03*
X166878000Y-118688000D03*
D15*
X166878000Y-119888000D03*
D14*
X166878000Y-121088000D03*
X171704000Y-125152000D03*
D15*
X171704000Y-123952000D03*
D14*
X171704000Y-122752000D03*
D16*
X184070000Y-102870000D03*
X186770000Y-102870000D03*
X184070000Y-113030000D03*
X186770000Y-113030000D03*
X186770000Y-110490000D03*
X184070000Y-110490000D03*
X186770000Y-120650000D03*
X184070000Y-120650000D03*
X184070000Y-123190000D03*
X186770000Y-123190000D03*
X184070000Y-133350000D03*
X186770000Y-133350000D03*
X186770000Y-130810000D03*
X184070000Y-130810000D03*
X186770000Y-140970000D03*
X184070000Y-140970000D03*
D17*
X163506000Y-118872000D03*
D18*
X162306000Y-118872000D03*
D17*
X161106000Y-118872000D03*
X157296000Y-118872000D03*
D18*
X158496000Y-118872000D03*
D17*
X159696000Y-118872000D03*
D19*
X155956000Y-127508000D03*
X155956000Y-132588000D03*
X158496000Y-127508000D03*
X158496000Y-132588000D03*
D20*
X191139000Y-140970000D03*
X194179000Y-140970000D03*
X191139000Y-135890000D03*
X194179000Y-135890000D03*
X194179000Y-138430000D03*
X191139000Y-138430000D03*
X191139000Y-133350000D03*
X194179000Y-133350000D03*
X194179000Y-130810000D03*
X191139000Y-130810000D03*
X191139000Y-128270000D03*
X194179000Y-128270000D03*
X194179000Y-125730000D03*
X191139000Y-125730000D03*
X191139000Y-123190000D03*
X194179000Y-123190000D03*
X194179000Y-120650000D03*
X191139000Y-120650000D03*
X191139000Y-118110000D03*
X194179000Y-118110000D03*
X194179000Y-115570000D03*
X191139000Y-115570000D03*
X191139000Y-113030000D03*
X194179000Y-113030000D03*
X194179000Y-110490000D03*
X191139000Y-110490000D03*
D21*
X191139000Y-102870000D03*
D20*
X194179000Y-102870000D03*
X191139000Y-105410000D03*
X194179000Y-105410000D03*
X191139000Y-107950000D03*
X194179000Y-107950000D03*
D22*
X170180000Y-137160000D03*
X159000000Y-102000000D03*
M02*
