M48
;DRILL file {KiCad 4.0.0-stable} date 06.09.2016 12:36:17
;FORMAT={-:-/ absolute / metric / decimal}
FMAT,2
METRIC,TZ
T1C0.400
T2C0.900
T3C1.500
T4C3.500
%
G90
G05
M71
T1
X49.022Y-44.704
X50.292Y-73.66
X56.642Y-54.356
X59.436Y-44.704
X60.706Y-73.66
X67.056Y-54.356
X69.85Y-44.704
X71.12Y-73.66
X77.724Y-44.704
X81.534Y-73.66
X85.344Y-54.356
X86.36Y-54.356
X88.138Y-54.356
X91.948Y-73.66
X92.71Y-42.926
X99.822Y-50.546
X99.822Y-54.356
X102.362Y-73.66
X110.236Y-50.546
X110.236Y-52.832
X112.776Y-73.66
X123.19Y-73.66
T2
X36.83Y-40.132
X36.83Y-42.672
X36.83Y-45.212
X36.83Y-47.752
X36.83Y-50.292
X36.83Y-52.832
X36.83Y-55.372
X36.83Y-57.912
X41.91Y-40.132
X41.91Y-42.672
X41.91Y-45.212
X41.91Y-47.752
X41.91Y-50.292
X41.91Y-52.832
X41.91Y-55.372
X41.91Y-57.912
X47.752Y-41.402
X47.752Y-59.182
X47.752Y-64.516
X47.752Y-82.296
X50.292Y-64.516
X52.832Y-59.182
X55.372Y-41.402
X55.372Y-59.182
X55.372Y-64.516
X55.372Y-82.296
X58.166Y-41.402
X58.166Y-59.182
X58.166Y-64.516
X58.166Y-82.296
X60.706Y-64.516
X63.246Y-59.182
X65.786Y-41.402
X65.786Y-59.182
X65.786Y-64.516
X65.786Y-82.296
X68.58Y-41.402
X68.58Y-59.182
X68.58Y-64.516
X68.58Y-82.296
X71.12Y-64.516
X73.66Y-59.182
X76.2Y-41.402
X76.2Y-59.182
X76.2Y-64.516
X76.2Y-82.296
X78.994Y-41.402
X78.994Y-59.182
X78.994Y-64.516
X78.994Y-82.296
X81.534Y-64.516
X84.074Y-59.182
X86.614Y-41.402
X86.614Y-59.182
X86.614Y-64.516
X86.614Y-82.296
X89.408Y-41.402
X89.408Y-59.182
X89.408Y-64.516
X89.408Y-82.296
X91.948Y-64.516
X94.488Y-59.182
X97.028Y-41.402
X97.028Y-59.182
X97.028Y-64.516
X97.028Y-82.296
X99.822Y-41.402
X99.822Y-59.182
X99.822Y-64.516
X99.822Y-82.296
X102.362Y-64.516
X104.902Y-59.182
X107.442Y-41.402
X107.442Y-59.182
X107.442Y-64.516
X107.442Y-82.296
X110.236Y-41.402
X110.236Y-59.182
X110.236Y-64.516
X110.236Y-82.296
X112.776Y-64.516
X115.316Y-59.182
X117.856Y-41.402
X117.856Y-59.182
X117.856Y-64.516
X117.856Y-82.296
X120.65Y-41.402
X120.65Y-59.182
X120.65Y-64.516
X120.65Y-82.296
X123.19Y-64.516
X125.73Y-59.182
X128.27Y-41.402
X128.27Y-59.182
X128.27Y-64.516
X128.27Y-82.296
T3
X41.148Y-65.786
X41.148Y-70.866
X41.656Y-34.29
X41.656Y-89.408
X46.736Y-34.29
X46.736Y-89.408
X52.07Y-34.29
X52.07Y-89.408
X57.15Y-34.29
X57.15Y-89.408
X62.484Y-34.29
X62.484Y-89.408
X67.564Y-34.29
X67.564Y-89.408
X72.898Y-34.29
X72.898Y-89.408
X77.978Y-34.29
X77.978Y-89.408
X83.312Y-34.29
X83.312Y-89.408
X88.392Y-34.29
X88.392Y-89.408
X93.726Y-34.29
X93.726Y-89.408
X98.806Y-34.29
X98.806Y-89.408
X104.14Y-34.29
X104.14Y-89.408
X109.22Y-34.29
X109.22Y-89.408
X114.554Y-34.29
X114.554Y-89.408
X119.634Y-34.29
X119.634Y-89.408
T4
X35.306Y-34.29
X35.306Y-89.408
X125.984Y-34.29
X125.984Y-89.408
T0
M30
