G04 #@! TF.FileFunction,Legend,Top*
%FSLAX46Y46*%
G04 Gerber Fmt 4.6, Leading zero omitted, Abs format (unit mm)*
G04 Created by KiCad (PCBNEW 4.0.0-stable) date 06.09.2016 12:35:27*
%MOMM*%
G01*
G04 APERTURE LIST*
%ADD10C,0.100000*%
%ADD11C,0.150000*%
G04 APERTURE END LIST*
D10*
D11*
X30861000Y-54102000D02*
X30861000Y-61722000D01*
X30861000Y-61722000D02*
X31750000Y-61722000D01*
X45085000Y-54102000D02*
X45085000Y-61722000D01*
X45085000Y-61722000D02*
X44450000Y-61722000D01*
X44450000Y-61722000D02*
X31750000Y-61722000D01*
X30861000Y-43942000D02*
X30861000Y-38862000D01*
X30861000Y-38862000D02*
X45085000Y-38862000D01*
X45085000Y-38862000D02*
X45085000Y-43942000D01*
X45085000Y-54102000D02*
X45085000Y-43942000D01*
X30861000Y-54102000D02*
X30861000Y-43942000D01*
X37248000Y-73326000D02*
X37248000Y-63326000D01*
X36848000Y-73406000D02*
X45048000Y-73406000D01*
X45048000Y-73326000D02*
X45048000Y-63326000D01*
X45048000Y-63246000D02*
X36848000Y-63246000D01*
X36848000Y-63326000D02*
X36848000Y-73326000D01*
X112094000Y-30390000D02*
X122094000Y-30390000D01*
X112014000Y-29990000D02*
X112014000Y-38190000D01*
X112094000Y-38190000D02*
X122094000Y-38190000D01*
X122174000Y-38190000D02*
X122174000Y-29990000D01*
X122094000Y-29990000D02*
X112094000Y-29990000D01*
X122094000Y-93308000D02*
X112094000Y-93308000D01*
X122174000Y-93708000D02*
X122174000Y-85508000D01*
X122094000Y-85508000D02*
X112094000Y-85508000D01*
X112014000Y-85508000D02*
X112014000Y-93708000D01*
X112094000Y-93708000D02*
X122094000Y-93708000D01*
X101680000Y-30390000D02*
X111680000Y-30390000D01*
X101600000Y-29990000D02*
X101600000Y-38190000D01*
X101680000Y-38190000D02*
X111680000Y-38190000D01*
X111760000Y-38190000D02*
X111760000Y-29990000D01*
X111680000Y-29990000D02*
X101680000Y-29990000D01*
X111680000Y-93308000D02*
X101680000Y-93308000D01*
X111760000Y-93708000D02*
X111760000Y-85508000D01*
X111680000Y-85508000D02*
X101680000Y-85508000D01*
X101600000Y-85508000D02*
X101600000Y-93708000D01*
X101680000Y-93708000D02*
X111680000Y-93708000D01*
X91266000Y-30390000D02*
X101266000Y-30390000D01*
X91186000Y-29990000D02*
X91186000Y-38190000D01*
X91266000Y-38190000D02*
X101266000Y-38190000D01*
X101346000Y-38190000D02*
X101346000Y-29990000D01*
X101266000Y-29990000D02*
X91266000Y-29990000D01*
X101266000Y-93308000D02*
X91266000Y-93308000D01*
X101346000Y-93708000D02*
X101346000Y-85508000D01*
X101266000Y-85508000D02*
X91266000Y-85508000D01*
X91186000Y-85508000D02*
X91186000Y-93708000D01*
X91266000Y-93708000D02*
X101266000Y-93708000D01*
X80852000Y-30390000D02*
X90852000Y-30390000D01*
X80772000Y-29990000D02*
X80772000Y-38190000D01*
X80852000Y-38190000D02*
X90852000Y-38190000D01*
X90932000Y-38190000D02*
X90932000Y-29990000D01*
X90852000Y-29990000D02*
X80852000Y-29990000D01*
X90852000Y-93308000D02*
X80852000Y-93308000D01*
X90932000Y-93708000D02*
X90932000Y-85508000D01*
X90852000Y-85508000D02*
X80852000Y-85508000D01*
X80772000Y-85508000D02*
X80772000Y-93708000D01*
X80852000Y-93708000D02*
X90852000Y-93708000D01*
X124460000Y-61722000D02*
X119380000Y-61722000D01*
X119380000Y-61722000D02*
X119380000Y-38862000D01*
X119380000Y-38862000D02*
X129540000Y-38862000D01*
X129540000Y-38862000D02*
X129540000Y-61722000D01*
X129540000Y-61722000D02*
X124460000Y-61722000D01*
X124460000Y-61976000D02*
X129540000Y-61976000D01*
X129540000Y-61976000D02*
X129540000Y-84836000D01*
X129540000Y-84836000D02*
X119380000Y-84836000D01*
X119380000Y-84836000D02*
X119380000Y-61976000D01*
X119380000Y-61976000D02*
X124460000Y-61976000D01*
X114046000Y-61722000D02*
X108966000Y-61722000D01*
X108966000Y-61722000D02*
X108966000Y-38862000D01*
X108966000Y-38862000D02*
X119126000Y-38862000D01*
X119126000Y-38862000D02*
X119126000Y-61722000D01*
X119126000Y-61722000D02*
X114046000Y-61722000D01*
X114046000Y-61976000D02*
X119126000Y-61976000D01*
X119126000Y-61976000D02*
X119126000Y-84836000D01*
X119126000Y-84836000D02*
X108966000Y-84836000D01*
X108966000Y-84836000D02*
X108966000Y-61976000D01*
X108966000Y-61976000D02*
X114046000Y-61976000D01*
X103632000Y-61722000D02*
X98552000Y-61722000D01*
X98552000Y-61722000D02*
X98552000Y-38862000D01*
X98552000Y-38862000D02*
X108712000Y-38862000D01*
X108712000Y-38862000D02*
X108712000Y-61722000D01*
X108712000Y-61722000D02*
X103632000Y-61722000D01*
X103632000Y-61976000D02*
X108712000Y-61976000D01*
X108712000Y-61976000D02*
X108712000Y-84836000D01*
X108712000Y-84836000D02*
X98552000Y-84836000D01*
X98552000Y-84836000D02*
X98552000Y-61976000D01*
X98552000Y-61976000D02*
X103632000Y-61976000D01*
X93218000Y-61722000D02*
X88138000Y-61722000D01*
X88138000Y-61722000D02*
X88138000Y-38862000D01*
X88138000Y-38862000D02*
X98298000Y-38862000D01*
X98298000Y-38862000D02*
X98298000Y-61722000D01*
X98298000Y-61722000D02*
X93218000Y-61722000D01*
X93218000Y-61976000D02*
X98298000Y-61976000D01*
X98298000Y-61976000D02*
X98298000Y-84836000D01*
X98298000Y-84836000D02*
X88138000Y-84836000D01*
X88138000Y-84836000D02*
X88138000Y-61976000D01*
X88138000Y-61976000D02*
X93218000Y-61976000D01*
X70438000Y-30390000D02*
X80438000Y-30390000D01*
X70358000Y-29990000D02*
X70358000Y-38190000D01*
X70438000Y-38190000D02*
X80438000Y-38190000D01*
X80518000Y-38190000D02*
X80518000Y-29990000D01*
X80438000Y-29990000D02*
X70438000Y-29990000D01*
X80438000Y-93308000D02*
X70438000Y-93308000D01*
X80518000Y-93708000D02*
X80518000Y-85508000D01*
X80438000Y-85508000D02*
X70438000Y-85508000D01*
X70358000Y-85508000D02*
X70358000Y-93708000D01*
X70438000Y-93708000D02*
X80438000Y-93708000D01*
X60024000Y-30390000D02*
X70024000Y-30390000D01*
X59944000Y-29990000D02*
X59944000Y-38190000D01*
X60024000Y-38190000D02*
X70024000Y-38190000D01*
X70104000Y-38190000D02*
X70104000Y-29990000D01*
X70024000Y-29990000D02*
X60024000Y-29990000D01*
X70024000Y-93308000D02*
X60024000Y-93308000D01*
X70104000Y-93708000D02*
X70104000Y-85508000D01*
X70024000Y-85508000D02*
X60024000Y-85508000D01*
X59944000Y-85508000D02*
X59944000Y-93708000D01*
X60024000Y-93708000D02*
X70024000Y-93708000D01*
X49610000Y-30390000D02*
X59610000Y-30390000D01*
X49530000Y-29990000D02*
X49530000Y-38190000D01*
X49610000Y-38190000D02*
X59610000Y-38190000D01*
X59690000Y-38190000D02*
X59690000Y-29990000D01*
X59610000Y-29990000D02*
X49610000Y-29990000D01*
X59610000Y-93308000D02*
X49610000Y-93308000D01*
X59690000Y-93708000D02*
X59690000Y-85508000D01*
X59610000Y-85508000D02*
X49610000Y-85508000D01*
X49530000Y-85508000D02*
X49530000Y-93708000D01*
X49610000Y-93708000D02*
X59610000Y-93708000D01*
X39196000Y-30390000D02*
X49196000Y-30390000D01*
X39116000Y-29990000D02*
X39116000Y-38190000D01*
X39196000Y-38190000D02*
X49196000Y-38190000D01*
X49276000Y-38190000D02*
X49276000Y-29990000D01*
X49196000Y-29990000D02*
X39196000Y-29990000D01*
X49196000Y-93308000D02*
X39196000Y-93308000D01*
X49276000Y-93708000D02*
X49276000Y-85508000D01*
X49196000Y-85508000D02*
X39196000Y-85508000D01*
X39116000Y-85508000D02*
X39116000Y-93708000D01*
X39196000Y-93708000D02*
X49196000Y-93708000D01*
X82804000Y-61722000D02*
X77724000Y-61722000D01*
X77724000Y-61722000D02*
X77724000Y-38862000D01*
X77724000Y-38862000D02*
X87884000Y-38862000D01*
X87884000Y-38862000D02*
X87884000Y-61722000D01*
X87884000Y-61722000D02*
X82804000Y-61722000D01*
X82804000Y-61976000D02*
X87884000Y-61976000D01*
X87884000Y-61976000D02*
X87884000Y-84836000D01*
X87884000Y-84836000D02*
X77724000Y-84836000D01*
X77724000Y-84836000D02*
X77724000Y-61976000D01*
X77724000Y-61976000D02*
X82804000Y-61976000D01*
X72390000Y-61722000D02*
X67310000Y-61722000D01*
X67310000Y-61722000D02*
X67310000Y-38862000D01*
X67310000Y-38862000D02*
X77470000Y-38862000D01*
X77470000Y-38862000D02*
X77470000Y-61722000D01*
X77470000Y-61722000D02*
X72390000Y-61722000D01*
X72390000Y-61976000D02*
X77470000Y-61976000D01*
X77470000Y-61976000D02*
X77470000Y-84836000D01*
X77470000Y-84836000D02*
X67310000Y-84836000D01*
X67310000Y-84836000D02*
X67310000Y-61976000D01*
X67310000Y-61976000D02*
X72390000Y-61976000D01*
X61976000Y-61722000D02*
X56896000Y-61722000D01*
X56896000Y-61722000D02*
X56896000Y-38862000D01*
X56896000Y-38862000D02*
X67056000Y-38862000D01*
X67056000Y-38862000D02*
X67056000Y-61722000D01*
X67056000Y-61722000D02*
X61976000Y-61722000D01*
X61976000Y-61976000D02*
X67056000Y-61976000D01*
X67056000Y-61976000D02*
X67056000Y-84836000D01*
X67056000Y-84836000D02*
X56896000Y-84836000D01*
X56896000Y-84836000D02*
X56896000Y-61976000D01*
X56896000Y-61976000D02*
X61976000Y-61976000D01*
X51562000Y-61722000D02*
X46482000Y-61722000D01*
X46482000Y-61722000D02*
X46482000Y-38862000D01*
X46482000Y-38862000D02*
X56642000Y-38862000D01*
X56642000Y-38862000D02*
X56642000Y-61722000D01*
X56642000Y-61722000D02*
X51562000Y-61722000D01*
X51562000Y-61976000D02*
X56642000Y-61976000D01*
X56642000Y-61976000D02*
X56642000Y-84836000D01*
X56642000Y-84836000D02*
X46482000Y-84836000D01*
X46482000Y-84836000D02*
X46482000Y-61976000D01*
X46482000Y-61976000D02*
X51562000Y-61976000D01*
M02*
