G04 #@! TF.FileFunction,Copper,L2,Bot,Signal*
%FSLAX46Y46*%
G04 Gerber Fmt 4.6, Leading zero omitted, Abs format (unit mm)*
G04 Created by KiCad (PCBNEW 4.0.0-stable) date 06.09.2016 12:35:27*
%MOMM*%
G01*
G04 APERTURE LIST*
%ADD10C,0.100000*%
%ADD11R,2.000000X2.500000*%
%ADD12R,1.500000X1.250000*%
%ADD13R,2.500000X2.000000*%
%ADD14R,0.900000X0.500000*%
%ADD15R,1.000000X2.000000*%
%ADD16C,1.600000*%
%ADD17R,2.540000X2.540000*%
%ADD18C,2.540000*%
%ADD19R,2.000000X0.400000*%
%ADD20C,2.000000*%
%ADD21R,2.000000X1.000000*%
%ADD22R,1.300000X1.500000*%
%ADD23C,0.600000*%
%ADD24C,2.500000*%
%ADD25C,2.000000*%
%ADD26C,0.250000*%
%ADD27C,0.500000*%
G04 APERTURE END LIST*
D10*
D11*
X64548000Y-67564000D03*
X68548000Y-67564000D03*
X74962000Y-67564000D03*
X78962000Y-67564000D03*
X85376000Y-67564000D03*
X89376000Y-67564000D03*
X95790000Y-67564000D03*
X99790000Y-67564000D03*
X54134000Y-67564000D03*
X58134000Y-67564000D03*
D12*
X83586000Y-46228000D03*
X86086000Y-46228000D03*
D13*
X96012000Y-45498000D03*
X96012000Y-49498000D03*
D14*
X34544000Y-56273000D03*
X34544000Y-57773000D03*
D15*
X90608000Y-46482000D03*
X89408000Y-46482000D03*
X88208000Y-46482000D03*
D14*
X119634000Y-30746000D03*
X119634000Y-32246000D03*
X120650000Y-44692000D03*
X120650000Y-43192000D03*
X114554000Y-92952000D03*
X114554000Y-91452000D03*
X128270000Y-79006000D03*
X128270000Y-80506000D03*
X109220000Y-30746000D03*
X109220000Y-32246000D03*
X110236000Y-44692000D03*
X110236000Y-43192000D03*
X104140000Y-92952000D03*
X104140000Y-91452000D03*
X117856000Y-79006000D03*
X117856000Y-80506000D03*
X98806000Y-30746000D03*
X98806000Y-32246000D03*
X99822000Y-44692000D03*
X99822000Y-43192000D03*
X93726000Y-92952000D03*
X93726000Y-91452000D03*
X107442000Y-79006000D03*
X107442000Y-80506000D03*
X88392000Y-30746000D03*
X88392000Y-32246000D03*
X91440000Y-42914000D03*
X91440000Y-41414000D03*
X83312000Y-92952000D03*
X83312000Y-91452000D03*
D16*
X41910000Y-42672000D03*
X36830000Y-42672000D03*
X41910000Y-45212000D03*
X36830000Y-45212000D03*
X36830000Y-40132000D03*
X41910000Y-40132000D03*
X36830000Y-47752000D03*
X41910000Y-47752000D03*
X36830000Y-50292000D03*
X36830000Y-52832000D03*
X36830000Y-55372000D03*
X36830000Y-57912000D03*
X41910000Y-50292000D03*
X41910000Y-52832000D03*
X41910000Y-55372000D03*
X41910000Y-57912000D03*
D17*
X41148000Y-65786000D03*
D18*
X41148000Y-70866000D03*
D17*
X119634000Y-34290000D03*
D18*
X114554000Y-34290000D03*
D17*
X114554000Y-89408000D03*
D18*
X119634000Y-89408000D03*
D17*
X109220000Y-34290000D03*
D18*
X104140000Y-34290000D03*
D17*
X104140000Y-89408000D03*
D18*
X109220000Y-89408000D03*
D17*
X98806000Y-34290000D03*
D18*
X93726000Y-34290000D03*
D17*
X93726000Y-89408000D03*
D18*
X98806000Y-89408000D03*
D17*
X88392000Y-34290000D03*
D18*
X83312000Y-34290000D03*
D17*
X83312000Y-89408000D03*
D18*
X88392000Y-89408000D03*
D19*
X90168000Y-48099000D03*
X83568000Y-56549000D03*
X90168000Y-48749000D03*
X90168000Y-49399000D03*
X90168000Y-50049000D03*
X90168000Y-50699000D03*
X90168000Y-51349000D03*
X90168000Y-51999000D03*
X90168000Y-52649000D03*
X90168000Y-53299000D03*
X90168000Y-53949000D03*
X90168000Y-54599000D03*
X90168000Y-55249000D03*
X90168000Y-55899000D03*
X90168000Y-56549000D03*
X83568000Y-55899000D03*
X83568000Y-55249000D03*
X83568000Y-54599000D03*
X83568000Y-53949000D03*
X83568000Y-53299000D03*
X83568000Y-52649000D03*
X83568000Y-51999000D03*
X83568000Y-51349000D03*
X83568000Y-50699000D03*
X83568000Y-50049000D03*
X83568000Y-49399000D03*
X83568000Y-48749000D03*
X83568000Y-48099000D03*
D20*
X120650000Y-59182000D03*
X125730000Y-59182000D03*
X128270000Y-59182000D03*
X120650000Y-41402000D03*
X128270000Y-41402000D03*
X128270000Y-64516000D03*
X123190000Y-64516000D03*
X120650000Y-64516000D03*
X128270000Y-82296000D03*
X120650000Y-82296000D03*
X110236000Y-59182000D03*
X115316000Y-59182000D03*
X117856000Y-59182000D03*
X110236000Y-41402000D03*
X117856000Y-41402000D03*
X117856000Y-64516000D03*
X112776000Y-64516000D03*
X110236000Y-64516000D03*
X117856000Y-82296000D03*
X110236000Y-82296000D03*
X99822000Y-59182000D03*
X104902000Y-59182000D03*
X107442000Y-59182000D03*
X99822000Y-41402000D03*
X107442000Y-41402000D03*
X107442000Y-64516000D03*
X102362000Y-64516000D03*
X99822000Y-64516000D03*
X107442000Y-82296000D03*
X99822000Y-82296000D03*
X89408000Y-59182000D03*
X94488000Y-59182000D03*
X97028000Y-59182000D03*
X89408000Y-41402000D03*
X97028000Y-41402000D03*
X97028000Y-64516000D03*
X91948000Y-64516000D03*
X89408000Y-64516000D03*
X97028000Y-82296000D03*
X89408000Y-82296000D03*
D14*
X80518000Y-51296000D03*
X80518000Y-49796000D03*
D21*
X92710000Y-47822000D03*
X92710000Y-49022000D03*
X92710000Y-50222000D03*
D14*
X97028000Y-79006000D03*
X97028000Y-80506000D03*
X77978000Y-30746000D03*
X77978000Y-32246000D03*
X78994000Y-44692000D03*
X78994000Y-43192000D03*
X72898000Y-92952000D03*
X72898000Y-91452000D03*
X86614000Y-79006000D03*
X86614000Y-80506000D03*
X67564000Y-30746000D03*
X67564000Y-32246000D03*
X68580000Y-44692000D03*
X68580000Y-43192000D03*
X62484000Y-92952000D03*
X62484000Y-91452000D03*
X76200000Y-79006000D03*
X76200000Y-80506000D03*
X57150000Y-30746000D03*
X57150000Y-32246000D03*
X58166000Y-44692000D03*
X58166000Y-43192000D03*
X52070000Y-92952000D03*
X52070000Y-91452000D03*
X65786000Y-79006000D03*
X65786000Y-80506000D03*
X46736000Y-30746000D03*
X46736000Y-32246000D03*
X47752000Y-44692000D03*
X47752000Y-43192000D03*
X41656000Y-92952000D03*
X41656000Y-91452000D03*
X55372000Y-79006000D03*
X55372000Y-80506000D03*
D17*
X77978000Y-34290000D03*
D18*
X72898000Y-34290000D03*
D17*
X72898000Y-89408000D03*
D18*
X77978000Y-89408000D03*
D17*
X67564000Y-34290000D03*
D18*
X62484000Y-34290000D03*
D17*
X62484000Y-89408000D03*
D18*
X67564000Y-89408000D03*
D17*
X57150000Y-34290000D03*
D18*
X52070000Y-34290000D03*
D17*
X52070000Y-89408000D03*
D18*
X57150000Y-89408000D03*
D17*
X46736000Y-34290000D03*
D18*
X41656000Y-34290000D03*
D17*
X41656000Y-89408000D03*
D18*
X46736000Y-89408000D03*
D20*
X78994000Y-59182000D03*
X84074000Y-59182000D03*
X86614000Y-59182000D03*
X78994000Y-41402000D03*
X86614000Y-41402000D03*
X86614000Y-64516000D03*
X81534000Y-64516000D03*
X78994000Y-64516000D03*
X86614000Y-82296000D03*
X78994000Y-82296000D03*
X68580000Y-59182000D03*
X73660000Y-59182000D03*
X76200000Y-59182000D03*
X68580000Y-41402000D03*
X76200000Y-41402000D03*
X76200000Y-64516000D03*
X71120000Y-64516000D03*
X68580000Y-64516000D03*
X76200000Y-82296000D03*
X68580000Y-82296000D03*
X58166000Y-59182000D03*
X63246000Y-59182000D03*
X65786000Y-59182000D03*
X58166000Y-41402000D03*
X65786000Y-41402000D03*
X65786000Y-64516000D03*
X60706000Y-64516000D03*
X58166000Y-64516000D03*
X65786000Y-82296000D03*
X58166000Y-82296000D03*
X47752000Y-59182000D03*
X52832000Y-59182000D03*
X55372000Y-59182000D03*
X47752000Y-41402000D03*
X55372000Y-41402000D03*
X55372000Y-64516000D03*
X50292000Y-64516000D03*
X47752000Y-64516000D03*
X55372000Y-82296000D03*
X47752000Y-82296000D03*
D11*
X106204000Y-67564000D03*
X110204000Y-67564000D03*
X116618000Y-67564000D03*
X120618000Y-67564000D03*
D22*
X44450000Y-45132000D03*
X44450000Y-47832000D03*
X34290000Y-45132000D03*
X34290000Y-47832000D03*
D23*
X123190000Y-73660000D03*
X110236000Y-52832000D03*
X110236000Y-50546000D03*
X112776000Y-73660000D03*
X99822000Y-50546000D03*
X99822000Y-54356000D03*
X102362000Y-73660000D03*
X92710000Y-42926000D03*
X88138000Y-54356000D03*
X91948000Y-73660000D03*
X86360000Y-54356000D03*
X77724000Y-44704000D03*
X81534000Y-73660000D03*
X69850000Y-44704000D03*
X85344000Y-54356000D03*
X71120000Y-73660000D03*
X67056000Y-54356000D03*
X59436000Y-44704000D03*
X60706000Y-73660000D03*
X56642000Y-54356000D03*
X49022000Y-44704000D03*
X50292000Y-73660000D03*
D24*
X97028000Y-64516000D02*
X95790000Y-65754000D01*
X95790000Y-65754000D02*
X95790000Y-67564000D01*
X86614000Y-64516000D02*
X85376000Y-65754000D01*
X85376000Y-65754000D02*
X85376000Y-67564000D01*
X117856000Y-64516000D02*
X116618000Y-65754000D01*
X116618000Y-65754000D02*
X116618000Y-67564000D01*
X107442000Y-64516000D02*
X106204000Y-65754000D01*
X106204000Y-65754000D02*
X106204000Y-67564000D01*
X76200000Y-64516000D02*
X74962000Y-65754000D01*
X74962000Y-65754000D02*
X74962000Y-67564000D01*
X65786000Y-64516000D02*
X64548000Y-65754000D01*
X64548000Y-65754000D02*
X64548000Y-67564000D01*
X55372000Y-64516000D02*
X54134000Y-65754000D01*
X54134000Y-65754000D02*
X54134000Y-67564000D01*
D25*
X58166000Y-67532000D02*
X58134000Y-67564000D01*
X68580000Y-67532000D02*
X68548000Y-67564000D01*
X78994000Y-67532000D02*
X78962000Y-67564000D01*
X89408000Y-64516000D02*
X89408000Y-67532000D01*
X89408000Y-67532000D02*
X89376000Y-67564000D01*
X99822000Y-67532000D02*
X99790000Y-67564000D01*
X110204000Y-64548000D02*
X110236000Y-64516000D01*
X120618000Y-64548000D02*
X120650000Y-64516000D01*
X120650000Y-67596000D02*
X120618000Y-67564000D01*
D26*
X41656000Y-92952000D02*
X40882000Y-92952000D01*
X39624000Y-74156000D02*
X34544000Y-69076000D01*
X39624000Y-91694000D02*
X39624000Y-74156000D01*
X40882000Y-92952000D02*
X39624000Y-91694000D01*
X46736000Y-30746000D02*
X40628000Y-30746000D01*
X40628000Y-30746000D02*
X39624000Y-31750000D01*
X39624000Y-31750000D02*
X39624000Y-37084000D01*
X39624000Y-37084000D02*
X38100000Y-38608000D01*
X38100000Y-38608000D02*
X33528000Y-38608000D01*
X33528000Y-38608000D02*
X31496000Y-40640000D01*
X31496000Y-40640000D02*
X31496000Y-67310000D01*
X31496000Y-67310000D02*
X33262000Y-69076000D01*
X33262000Y-69076000D02*
X34544000Y-69076000D01*
X119634000Y-30746000D02*
X109220000Y-30746000D01*
X109220000Y-30746000D02*
X98806000Y-30746000D01*
X98806000Y-30746000D02*
X88392000Y-30746000D01*
X77978000Y-30746000D02*
X88392000Y-30746000D01*
X67564000Y-30746000D02*
X77978000Y-30746000D01*
X57150000Y-30746000D02*
X67564000Y-30746000D01*
X46736000Y-30746000D02*
X57150000Y-30746000D01*
X52070000Y-92952000D02*
X41656000Y-92952000D01*
X62484000Y-92952000D02*
X52070000Y-92952000D01*
X72898000Y-92952000D02*
X62484000Y-92952000D01*
X83312000Y-92952000D02*
X72898000Y-92952000D01*
X93726000Y-92952000D02*
X83312000Y-92952000D01*
X104140000Y-92952000D02*
X93726000Y-92952000D01*
X114554000Y-92952000D02*
X104140000Y-92952000D01*
X41148000Y-70866000D02*
X36334000Y-70866000D01*
X36334000Y-70866000D02*
X34544000Y-69076000D01*
X36830000Y-55372000D02*
X41910000Y-55372000D01*
X80518000Y-51296000D02*
X49034000Y-51296000D01*
X44958000Y-55372000D02*
X41910000Y-55372000D01*
X49034000Y-51296000D02*
X44958000Y-55372000D01*
X83568000Y-51349000D02*
X80571000Y-51349000D01*
X80571000Y-51349000D02*
X80518000Y-51296000D01*
X36830000Y-45212000D02*
X34370000Y-45212000D01*
X34370000Y-45212000D02*
X34290000Y-45132000D01*
D27*
X44450000Y-45132000D02*
X45546000Y-46228000D01*
X45546000Y-46228000D02*
X83586000Y-46228000D01*
X41910000Y-45212000D02*
X44370000Y-45212000D01*
X44370000Y-45212000D02*
X44450000Y-45132000D01*
X92710000Y-46990000D02*
X93218000Y-46482000D01*
X93218000Y-46482000D02*
X95028000Y-46482000D01*
X95028000Y-46482000D02*
X96012000Y-45498000D01*
X41910000Y-45212000D02*
X41942000Y-45244000D01*
X90608000Y-46482000D02*
X92202000Y-46482000D01*
X92710000Y-46990000D02*
X92710000Y-47822000D01*
X92202000Y-46482000D02*
X92710000Y-46990000D01*
X90608000Y-46482000D02*
X90608000Y-45142000D01*
X83586000Y-45446000D02*
X83586000Y-46228000D01*
X84328000Y-44704000D02*
X83586000Y-45446000D01*
X90170000Y-44704000D02*
X84328000Y-44704000D01*
X90608000Y-45142000D02*
X90170000Y-44704000D01*
X36830000Y-45212000D02*
X41910000Y-45212000D01*
D26*
X83568000Y-48099000D02*
X83568000Y-46246000D01*
X83568000Y-46246000D02*
X83586000Y-46228000D01*
X89408000Y-46482000D02*
X89408000Y-47498000D01*
X89408000Y-47498000D02*
X90009000Y-48099000D01*
X90009000Y-48099000D02*
X90168000Y-48099000D01*
X90168000Y-48749000D02*
X92437000Y-48749000D01*
X92437000Y-48749000D02*
X92710000Y-49022000D01*
X118872000Y-51308000D02*
X120650000Y-49530000D01*
X120650000Y-49530000D02*
X120650000Y-44692000D01*
X125730000Y-59182000D02*
X125730000Y-58166000D01*
X118913000Y-51349000D02*
X118872000Y-51308000D01*
X118872000Y-51308000D02*
X125222000Y-57658000D01*
X118913000Y-51349000D02*
X90168000Y-51349000D01*
X125730000Y-58166000D02*
X125222000Y-57658000D01*
X128270000Y-79006000D02*
X123190000Y-73926000D01*
X123190000Y-73926000D02*
X123190000Y-73660000D01*
X123190000Y-64516000D02*
X123190000Y-62738000D01*
X116769000Y-51999000D02*
X123190000Y-58420000D01*
X123190000Y-58420000D02*
X123190000Y-62738000D01*
X116769000Y-51999000D02*
X90168000Y-51999000D01*
X110236000Y-44692000D02*
X110236000Y-50546000D01*
X115316000Y-59182000D02*
X115316000Y-57912000D01*
X110053000Y-52649000D02*
X110236000Y-52832000D01*
X110236000Y-52832000D02*
X114808000Y-57404000D01*
X110053000Y-52649000D02*
X90168000Y-52649000D01*
X115316000Y-57912000D02*
X114808000Y-57404000D01*
X117856000Y-79006000D02*
X112776000Y-73926000D01*
X112776000Y-73926000D02*
X112776000Y-73660000D01*
X112776000Y-64516000D02*
X112776000Y-62484000D01*
X107147000Y-53299000D02*
X112776000Y-58928000D01*
X112776000Y-58928000D02*
X112776000Y-62484000D01*
X107147000Y-53299000D02*
X90168000Y-53299000D01*
X99822000Y-54356000D02*
X104648000Y-59182000D01*
X104648000Y-59182000D02*
X104902000Y-59182000D01*
X90168000Y-53949000D02*
X99415000Y-53949000D01*
X99822000Y-50546000D02*
X99822000Y-44692000D01*
X99415000Y-53949000D02*
X99822000Y-54356000D01*
X107442000Y-79006000D02*
X102362000Y-73926000D01*
X102362000Y-73926000D02*
X102362000Y-73660000D01*
X102362000Y-64516000D02*
X102362000Y-62992000D01*
X98287000Y-54599000D02*
X102362000Y-58674000D01*
X102362000Y-58674000D02*
X102362000Y-62992000D01*
X98287000Y-54599000D02*
X90168000Y-54599000D01*
X90168000Y-55249000D02*
X88777000Y-55249000D01*
X92698000Y-42914000D02*
X91440000Y-42914000D01*
X92710000Y-42926000D02*
X92698000Y-42914000D01*
X88138000Y-54610000D02*
X88138000Y-54356000D01*
X88777000Y-55249000D02*
X88138000Y-54610000D01*
X94488000Y-59182000D02*
X94488000Y-57658000D01*
X94488000Y-57658000D02*
X94234000Y-57404000D01*
X90168000Y-55249000D02*
X92079000Y-55249000D01*
X92079000Y-55249000D02*
X94234000Y-57404000D01*
X97028000Y-79006000D02*
X91948000Y-73926000D01*
X91948000Y-73926000D02*
X91948000Y-73660000D01*
X91948000Y-64516000D02*
X91948000Y-62738000D01*
X91713000Y-55899000D02*
X91948000Y-56134000D01*
X91948000Y-56134000D02*
X91948000Y-62738000D01*
X91713000Y-55899000D02*
X90168000Y-55899000D01*
X44784000Y-47498000D02*
X51054000Y-47498000D01*
X82277000Y-48749000D02*
X83568000Y-48749000D01*
X81026000Y-47498000D02*
X51054000Y-47498000D01*
X82277000Y-48749000D02*
X81026000Y-47498000D01*
X44784000Y-47498000D02*
X44450000Y-47832000D01*
X41910000Y-47752000D02*
X44370000Y-47752000D01*
X44370000Y-47752000D02*
X44450000Y-47832000D01*
X41910000Y-47752000D02*
X36830000Y-47752000D01*
X34290000Y-47832000D02*
X34370000Y-47832000D01*
X34370000Y-47832000D02*
X36830000Y-50292000D01*
X51308000Y-48006000D02*
X47498000Y-48006000D01*
X45212000Y-50292000D02*
X41910000Y-50292000D01*
X47498000Y-48006000D02*
X45212000Y-50292000D01*
X51182398Y-48006000D02*
X51308000Y-48006000D01*
X51308000Y-48006000D02*
X80772000Y-48006000D01*
X80772000Y-48006000D02*
X82165000Y-49399000D01*
X83568000Y-49399000D02*
X82165000Y-49399000D01*
X41910000Y-50292000D02*
X36830000Y-50292000D01*
X41910000Y-57912000D02*
X36830000Y-57912000D01*
D27*
X92710000Y-50222000D02*
X95288000Y-50222000D01*
X95288000Y-50222000D02*
X96012000Y-49498000D01*
X41910000Y-52832000D02*
X36830000Y-52832000D01*
X53098000Y-49796000D02*
X48248000Y-49796000D01*
X45212000Y-52832000D02*
X41910000Y-52832000D01*
X48248000Y-49796000D02*
X45212000Y-52832000D01*
X80518000Y-49796000D02*
X53098000Y-49796000D01*
X53098000Y-49796000D02*
X53086000Y-49784000D01*
D26*
X88208000Y-56204000D02*
X87122000Y-55118000D01*
X88553000Y-56549000D02*
X88208000Y-56204000D01*
X90168000Y-56549000D02*
X88553000Y-56549000D01*
X87122000Y-50966000D02*
X86855000Y-50699000D01*
X87122000Y-55118000D02*
X87122000Y-50966000D01*
X86086000Y-46228000D02*
X86086000Y-47224000D01*
X86086000Y-47224000D02*
X88208000Y-49346000D01*
X83568000Y-50699000D02*
X86855000Y-50699000D01*
X86855000Y-50699000D02*
X88208000Y-49346000D01*
X88208000Y-46482000D02*
X88208000Y-49346000D01*
X88911000Y-50049000D02*
X90168000Y-50049000D01*
X88208000Y-49346000D02*
X88911000Y-50049000D01*
X90168000Y-50049000D02*
X92537000Y-50049000D01*
X92537000Y-50049000D02*
X92710000Y-50222000D01*
X90168000Y-50699000D02*
X90168000Y-50049000D01*
X90168000Y-49399000D02*
X90168000Y-50049000D01*
X83568000Y-50699000D02*
X81941000Y-50699000D01*
X81038000Y-49796000D02*
X80518000Y-49796000D01*
X81941000Y-50699000D02*
X81038000Y-49796000D01*
X84929000Y-56549000D02*
X86360000Y-55118000D01*
X86360000Y-55118000D02*
X86360000Y-54356000D01*
X83568000Y-56549000D02*
X84929000Y-56549000D01*
X77724000Y-44704000D02*
X78982000Y-44704000D01*
X78982000Y-44704000D02*
X78994000Y-44692000D01*
X83568000Y-57910000D02*
X83568000Y-58676000D01*
X83568000Y-58676000D02*
X84074000Y-59182000D01*
X83568000Y-56549000D02*
X83568000Y-57910000D01*
X83568000Y-57910000D02*
X83566000Y-57912000D01*
X86614000Y-79006000D02*
X81534000Y-73926000D01*
X81534000Y-73926000D02*
X81534000Y-73660000D01*
X81534000Y-64516000D02*
X81534000Y-62738000D01*
X81769000Y-55899000D02*
X81534000Y-56134000D01*
X81534000Y-56134000D02*
X81534000Y-62738000D01*
X81769000Y-55899000D02*
X83568000Y-55899000D01*
X68580000Y-44692000D02*
X68592000Y-44704000D01*
X68592000Y-44704000D02*
X69850000Y-44704000D01*
X84959000Y-55249000D02*
X85344000Y-54864000D01*
X85344000Y-54864000D02*
X85344000Y-54356000D01*
X83568000Y-55249000D02*
X84959000Y-55249000D01*
X73660000Y-59182000D02*
X73660000Y-58420000D01*
X73660000Y-58420000D02*
X74676000Y-57404000D01*
X83568000Y-55249000D02*
X76831000Y-55249000D01*
X76831000Y-55249000D02*
X74676000Y-57404000D01*
X76200000Y-79006000D02*
X71120000Y-73926000D01*
X71120000Y-73926000D02*
X71120000Y-73660000D01*
X71120000Y-64516000D02*
X71120000Y-62738000D01*
X74687000Y-54599000D02*
X71120000Y-58166000D01*
X71120000Y-58166000D02*
X71120000Y-62738000D01*
X74687000Y-54599000D02*
X83568000Y-54599000D01*
X59436000Y-44704000D02*
X58178000Y-44704000D01*
X58178000Y-44704000D02*
X58166000Y-44692000D01*
X63246000Y-59182000D02*
X63246000Y-58166000D01*
X67463000Y-53949000D02*
X67056000Y-54356000D01*
X67056000Y-54356000D02*
X63754000Y-57658000D01*
X67463000Y-53949000D02*
X83568000Y-53949000D01*
X63246000Y-58166000D02*
X63754000Y-57658000D01*
X65786000Y-79006000D02*
X60706000Y-73926000D01*
X60706000Y-73926000D02*
X60706000Y-73660000D01*
X60706000Y-64516000D02*
X60706000Y-62484000D01*
X66081000Y-53299000D02*
X60706000Y-58674000D01*
X60706000Y-58674000D02*
X60706000Y-62484000D01*
X66081000Y-53299000D02*
X83568000Y-53299000D01*
X49022000Y-44704000D02*
X47764000Y-44704000D01*
X47764000Y-44704000D02*
X47752000Y-44692000D01*
X52832000Y-59182000D02*
X52832000Y-58166000D01*
X58349000Y-52649000D02*
X56642000Y-54356000D01*
X56642000Y-54356000D02*
X53340000Y-57658000D01*
X58349000Y-52649000D02*
X83568000Y-52649000D01*
X52832000Y-58166000D02*
X53340000Y-57658000D01*
X55372000Y-79006000D02*
X50292000Y-73926000D01*
X50292000Y-73926000D02*
X50292000Y-73660000D01*
X83568000Y-51999000D02*
X56967000Y-51999000D01*
X50292000Y-58674000D02*
X50292000Y-64516000D01*
X56967000Y-51999000D02*
X50292000Y-58674000D01*
X41910000Y-42672000D02*
X36830000Y-42672000D01*
X41910000Y-40132000D02*
X36830000Y-40132000D01*
X119634000Y-32246000D02*
X119634000Y-34290000D01*
D25*
X119634000Y-34290000D02*
X119634000Y-35814000D01*
X125222000Y-41402000D02*
X128270000Y-41402000D01*
X119634000Y-35814000D02*
X125222000Y-41402000D01*
D27*
X120650000Y-43192000D02*
X120650000Y-41402000D01*
D25*
X120650000Y-41402000D02*
X120650000Y-40386000D01*
X120650000Y-40386000D02*
X114554000Y-34290000D01*
D26*
X114554000Y-91452000D02*
X114554000Y-89408000D01*
D25*
X120650000Y-82296000D02*
X120650000Y-83312000D01*
X120650000Y-83312000D02*
X114554000Y-89408000D01*
X128270000Y-82296000D02*
X125476000Y-82296000D01*
X125476000Y-82296000D02*
X119634000Y-88138000D01*
X119634000Y-88138000D02*
X119634000Y-89408000D01*
D26*
X128270000Y-82296000D02*
X128270000Y-80506000D01*
X109220000Y-32246000D02*
X109220000Y-34290000D01*
D25*
X117856000Y-41402000D02*
X116332000Y-41402000D01*
X116332000Y-41402000D02*
X109220000Y-34290000D01*
D27*
X110236000Y-43192000D02*
X110236000Y-41402000D01*
D25*
X110236000Y-41402000D02*
X110236000Y-40386000D01*
X110236000Y-40386000D02*
X104140000Y-34290000D01*
D26*
X104140000Y-91452000D02*
X104140000Y-89408000D01*
D25*
X110236000Y-82296000D02*
X110236000Y-83312000D01*
X110236000Y-83312000D02*
X104140000Y-89408000D01*
D26*
X117856000Y-80506000D02*
X117856000Y-82296000D01*
D25*
X117856000Y-82296000D02*
X116332000Y-82296000D01*
X116332000Y-82296000D02*
X109220000Y-89408000D01*
D26*
X98806000Y-32246000D02*
X98806000Y-34290000D01*
D25*
X107442000Y-41402000D02*
X105918000Y-41402000D01*
X105918000Y-41402000D02*
X98806000Y-34290000D01*
D27*
X99822000Y-43192000D02*
X99822000Y-41402000D01*
D25*
X99822000Y-41402000D02*
X99822000Y-40386000D01*
X99822000Y-40386000D02*
X93726000Y-34290000D01*
D26*
X93726000Y-91452000D02*
X93726000Y-89408000D01*
D25*
X99822000Y-82296000D02*
X99822000Y-83312000D01*
X99822000Y-83312000D02*
X93726000Y-89408000D01*
D26*
X107442000Y-80506000D02*
X107442000Y-82296000D01*
D25*
X107442000Y-82296000D02*
X105918000Y-82296000D01*
X105918000Y-82296000D02*
X98806000Y-89408000D01*
D26*
X88392000Y-32246000D02*
X88392000Y-34290000D01*
D25*
X97028000Y-41402000D02*
X95504000Y-41402000D01*
X95504000Y-41402000D02*
X88392000Y-34290000D01*
D26*
X91440000Y-41414000D02*
X91428000Y-41402000D01*
X91428000Y-41402000D02*
X89408000Y-41402000D01*
D25*
X89408000Y-41402000D02*
X89408000Y-40386000D01*
X89408000Y-40386000D02*
X83312000Y-34290000D01*
D26*
X83312000Y-91452000D02*
X83312000Y-89408000D01*
D25*
X89408000Y-82296000D02*
X89408000Y-83312000D01*
X89408000Y-83312000D02*
X83312000Y-89408000D01*
D26*
X97028000Y-80506000D02*
X97028000Y-82296000D01*
D25*
X97028000Y-82296000D02*
X95504000Y-82296000D01*
X95504000Y-82296000D02*
X88392000Y-89408000D01*
D26*
X77978000Y-32246000D02*
X77978000Y-34290000D01*
D25*
X86614000Y-41402000D02*
X85090000Y-41402000D01*
X85090000Y-41402000D02*
X77978000Y-34290000D01*
D27*
X78994000Y-43192000D02*
X78994000Y-41402000D01*
D25*
X78994000Y-41402000D02*
X78994000Y-40386000D01*
X78994000Y-40386000D02*
X72898000Y-34290000D01*
D27*
X72898000Y-89408000D02*
X72898000Y-91452000D01*
D25*
X78994000Y-82296000D02*
X78994000Y-83312000D01*
X78994000Y-83312000D02*
X72898000Y-89408000D01*
X86614000Y-82296000D02*
X85090000Y-82296000D01*
X85090000Y-82296000D02*
X77978000Y-89408000D01*
D26*
X86614000Y-80506000D02*
X86614000Y-82296000D01*
X67564000Y-32246000D02*
X67564000Y-34290000D01*
D25*
X76200000Y-41402000D02*
X74676000Y-41402000D01*
X74676000Y-41402000D02*
X67564000Y-34290000D01*
D26*
X68580000Y-43192000D02*
X68580000Y-41402000D01*
D25*
X68580000Y-41402000D02*
X68580000Y-40386000D01*
X68580000Y-40386000D02*
X62484000Y-34290000D01*
D27*
X62484000Y-89408000D02*
X62484000Y-91452000D01*
D25*
X68580000Y-82296000D02*
X68580000Y-83312000D01*
X68580000Y-83312000D02*
X62484000Y-89408000D01*
D26*
X76200000Y-80506000D02*
X76200000Y-82296000D01*
D25*
X76200000Y-82296000D02*
X74676000Y-82296000D01*
X74676000Y-82296000D02*
X67564000Y-89408000D01*
D26*
X57150000Y-32246000D02*
X57150000Y-34290000D01*
D25*
X65786000Y-41402000D02*
X64262000Y-41402000D01*
X64262000Y-41402000D02*
X57150000Y-34290000D01*
D26*
X58166000Y-43192000D02*
X58166000Y-41402000D01*
D25*
X58166000Y-41402000D02*
X58166000Y-40386000D01*
X58166000Y-40386000D02*
X52070000Y-34290000D01*
D27*
X52070000Y-89408000D02*
X52070000Y-91452000D01*
D25*
X58166000Y-82296000D02*
X58166000Y-83312000D01*
X58166000Y-83312000D02*
X52070000Y-89408000D01*
D26*
X65786000Y-82296000D02*
X65786000Y-80506000D01*
D25*
X65786000Y-82296000D02*
X64262000Y-82296000D01*
X64262000Y-82296000D02*
X57150000Y-89408000D01*
D26*
X46736000Y-32246000D02*
X46736000Y-34290000D01*
D25*
X55372000Y-41402000D02*
X53848000Y-41402000D01*
X53848000Y-41402000D02*
X46736000Y-34290000D01*
D26*
X47752000Y-43192000D02*
X47752000Y-41402000D01*
D25*
X47752000Y-41402000D02*
X41656000Y-35306000D01*
X41656000Y-35306000D02*
X41656000Y-34290000D01*
D27*
X41656000Y-89408000D02*
X41656000Y-91452000D01*
D25*
X47752000Y-82296000D02*
X41656000Y-88392000D01*
X41656000Y-88392000D02*
X41656000Y-89408000D01*
D26*
X55372000Y-82296000D02*
X55372000Y-80506000D01*
D25*
X55372000Y-82296000D02*
X53848000Y-82296000D01*
X53848000Y-82296000D02*
X46736000Y-89408000D01*
D26*
G36*
X46673008Y-42479684D02*
X46856729Y-42663726D01*
X46808888Y-42733744D01*
X46766715Y-42942000D01*
X46766715Y-43442000D01*
X46803323Y-43636553D01*
X46918304Y-43815239D01*
X47093744Y-43935112D01*
X47302000Y-43977285D01*
X48202000Y-43977285D01*
X48396553Y-43940677D01*
X48575239Y-43825696D01*
X48695112Y-43650256D01*
X48737285Y-43442000D01*
X48737285Y-42942000D01*
X48700677Y-42747447D01*
X48646736Y-42663621D01*
X49044079Y-42266971D01*
X49276735Y-41706672D01*
X49277265Y-41099989D01*
X49045586Y-40539285D01*
X48616971Y-40109921D01*
X48616331Y-40109655D01*
X47493676Y-38987000D01*
X49276324Y-38987000D01*
X52769662Y-42480338D01*
X53264408Y-42810916D01*
X53848000Y-42927000D01*
X55370669Y-42927000D01*
X55674011Y-42927265D01*
X56234715Y-42695586D01*
X56664079Y-42266971D01*
X56768971Y-42014364D01*
X56872414Y-42264715D01*
X57270729Y-42663726D01*
X57222888Y-42733744D01*
X57180715Y-42942000D01*
X57180715Y-43442000D01*
X57217323Y-43636553D01*
X57332304Y-43815239D01*
X57507744Y-43935112D01*
X57716000Y-43977285D01*
X58616000Y-43977285D01*
X58810553Y-43940677D01*
X58989239Y-43825696D01*
X59109112Y-43650256D01*
X59151285Y-43442000D01*
X59151285Y-42942000D01*
X59114677Y-42747447D01*
X59060736Y-42663621D01*
X59458079Y-42266971D01*
X59690735Y-41706672D01*
X59691265Y-41099989D01*
X59691000Y-41099348D01*
X59691000Y-40386000D01*
X59574916Y-39802408D01*
X59244338Y-39307662D01*
X58923676Y-38987000D01*
X59690324Y-38987000D01*
X63183662Y-42480338D01*
X63678408Y-42810916D01*
X64262000Y-42927000D01*
X65784669Y-42927000D01*
X66088011Y-42927265D01*
X66648715Y-42695586D01*
X67078079Y-42266971D01*
X67182971Y-42014364D01*
X67286414Y-42264715D01*
X67684729Y-42663726D01*
X67636888Y-42733744D01*
X67594715Y-42942000D01*
X67594715Y-43442000D01*
X67631323Y-43636553D01*
X67746304Y-43815239D01*
X67921744Y-43935112D01*
X68130000Y-43977285D01*
X69030000Y-43977285D01*
X69224553Y-43940677D01*
X69403239Y-43825696D01*
X69523112Y-43650256D01*
X69565285Y-43442000D01*
X69565285Y-42942000D01*
X69528677Y-42747447D01*
X69474736Y-42663621D01*
X69872079Y-42266971D01*
X70104735Y-41706672D01*
X70105265Y-41099989D01*
X70105000Y-41099348D01*
X70105000Y-40386000D01*
X69988916Y-39802408D01*
X69658338Y-39307662D01*
X69337676Y-38987000D01*
X70104324Y-38987000D01*
X73597662Y-42480338D01*
X74092408Y-42810916D01*
X74676000Y-42927000D01*
X76198669Y-42927000D01*
X76502011Y-42927265D01*
X77062715Y-42695586D01*
X77492079Y-42266971D01*
X77596971Y-42014364D01*
X77700414Y-42264715D01*
X78098729Y-42663726D01*
X78050888Y-42733744D01*
X78008715Y-42942000D01*
X78008715Y-43442000D01*
X78045323Y-43636553D01*
X78160304Y-43815239D01*
X78335744Y-43935112D01*
X78544000Y-43977285D01*
X79444000Y-43977285D01*
X79638553Y-43940677D01*
X79817239Y-43825696D01*
X79937112Y-43650256D01*
X79979285Y-43442000D01*
X79979285Y-42942000D01*
X79942677Y-42747447D01*
X79888736Y-42663621D01*
X80286079Y-42266971D01*
X80518735Y-41706672D01*
X80519265Y-41099989D01*
X80519000Y-41099348D01*
X80519000Y-40386000D01*
X80402916Y-39802408D01*
X80072338Y-39307662D01*
X79751676Y-38987000D01*
X80518324Y-38987000D01*
X84011662Y-42480338D01*
X84506408Y-42810916D01*
X85090000Y-42927000D01*
X86612669Y-42927000D01*
X86916011Y-42927265D01*
X87476715Y-42695586D01*
X87906079Y-42266971D01*
X88010971Y-42014364D01*
X88114414Y-42264715D01*
X88543029Y-42694079D01*
X89103328Y-42926735D01*
X89710011Y-42927265D01*
X90270715Y-42695586D01*
X90302356Y-42664000D01*
X90607654Y-42664000D01*
X90607654Y-43164000D01*
X90633802Y-43302966D01*
X90715931Y-43430599D01*
X90841246Y-43516223D01*
X90990000Y-43546346D01*
X91890000Y-43546346D01*
X92028966Y-43520198D01*
X92156599Y-43438069D01*
X92173045Y-43414000D01*
X92243387Y-43414000D01*
X92327144Y-43497903D01*
X92575145Y-43600883D01*
X92843677Y-43601117D01*
X93091857Y-43498571D01*
X93281903Y-43308856D01*
X93384883Y-43060855D01*
X93385117Y-42792323D01*
X93282571Y-42544143D01*
X93092856Y-42354097D01*
X92844855Y-42251117D01*
X92576323Y-42250883D01*
X92328143Y-42353429D01*
X92267466Y-42414000D01*
X92174750Y-42414000D01*
X92164069Y-42397401D01*
X92038754Y-42311777D01*
X91890000Y-42281654D01*
X90990000Y-42281654D01*
X90851034Y-42307802D01*
X90723401Y-42389931D01*
X90637777Y-42515246D01*
X90607654Y-42664000D01*
X90302356Y-42664000D01*
X90700079Y-42266971D01*
X90753663Y-42137925D01*
X90781744Y-42157112D01*
X90990000Y-42199285D01*
X91890000Y-42199285D01*
X92084553Y-42162677D01*
X92263239Y-42047696D01*
X92383112Y-41872256D01*
X92425285Y-41664000D01*
X92425285Y-41164000D01*
X92388677Y-40969447D01*
X92273696Y-40790761D01*
X92098256Y-40670888D01*
X91890000Y-40628715D01*
X90990000Y-40628715D01*
X90933000Y-40639440D01*
X90933000Y-40386000D01*
X90816916Y-39802408D01*
X90486338Y-39307662D01*
X90165676Y-38987000D01*
X90932324Y-38987000D01*
X94425662Y-42480338D01*
X94920408Y-42810916D01*
X95504000Y-42927000D01*
X97026669Y-42927000D01*
X97330011Y-42927265D01*
X97890715Y-42695586D01*
X98320079Y-42266971D01*
X98424971Y-42014364D01*
X98528414Y-42264715D01*
X98926729Y-42663726D01*
X98878888Y-42733744D01*
X98836715Y-42942000D01*
X98836715Y-43442000D01*
X98873323Y-43636553D01*
X98988304Y-43815239D01*
X99163744Y-43935112D01*
X99372000Y-43977285D01*
X99697000Y-43977285D01*
X99697000Y-44059654D01*
X99372000Y-44059654D01*
X99233034Y-44085802D01*
X99105401Y-44167931D01*
X99019777Y-44293246D01*
X98989654Y-44442000D01*
X98989654Y-44942000D01*
X99015802Y-45080966D01*
X99097931Y-45208599D01*
X99223246Y-45294223D01*
X99322000Y-45314221D01*
X99322000Y-50091366D01*
X99250097Y-50163144D01*
X99147117Y-50411145D01*
X99146883Y-50679677D01*
X99216846Y-50849000D01*
X97512041Y-50849000D01*
X97622298Y-50738743D01*
X97687000Y-50582538D01*
X97687000Y-49609250D01*
X97580750Y-49503000D01*
X96017000Y-49503000D01*
X96017000Y-49523000D01*
X96007000Y-49523000D01*
X96007000Y-49503000D01*
X94443250Y-49503000D01*
X94337000Y-49609250D01*
X94337000Y-50582538D01*
X94401702Y-50738743D01*
X94511959Y-50849000D01*
X94117412Y-50849000D01*
X94135000Y-50806538D01*
X94135000Y-50333250D01*
X94028750Y-50227000D01*
X92715000Y-50227000D01*
X92715000Y-50247000D01*
X92705000Y-50247000D01*
X92705000Y-50227000D01*
X92685000Y-50227000D01*
X92685000Y-50217000D01*
X92705000Y-50217000D01*
X92705000Y-50197000D01*
X92715000Y-50197000D01*
X92715000Y-50217000D01*
X94028750Y-50217000D01*
X94135000Y-50110750D01*
X94135000Y-49637462D01*
X94090648Y-49530386D01*
X94092346Y-49522000D01*
X94092346Y-48522000D01*
X94072839Y-48418329D01*
X94073824Y-48413462D01*
X94337000Y-48413462D01*
X94337000Y-49386750D01*
X94443250Y-49493000D01*
X96007000Y-49493000D01*
X96007000Y-48179250D01*
X96017000Y-48179250D01*
X96017000Y-49493000D01*
X97580750Y-49493000D01*
X97687000Y-49386750D01*
X97687000Y-48413462D01*
X97622298Y-48257257D01*
X97502743Y-48137702D01*
X97346538Y-48073000D01*
X96123250Y-48073000D01*
X96017000Y-48179250D01*
X96007000Y-48179250D01*
X95900750Y-48073000D01*
X94677462Y-48073000D01*
X94521257Y-48137702D01*
X94401702Y-48257257D01*
X94337000Y-48413462D01*
X94073824Y-48413462D01*
X94092346Y-48322000D01*
X94092346Y-47322000D01*
X94066198Y-47183034D01*
X94017272Y-47107000D01*
X95028000Y-47107000D01*
X95267177Y-47059425D01*
X95469942Y-46923942D01*
X95513538Y-46880346D01*
X97262000Y-46880346D01*
X97400966Y-46854198D01*
X97528599Y-46772069D01*
X97614223Y-46646754D01*
X97644346Y-46498000D01*
X97644346Y-44498000D01*
X97618198Y-44359034D01*
X97536069Y-44231401D01*
X97410754Y-44145777D01*
X97262000Y-44115654D01*
X94762000Y-44115654D01*
X94623034Y-44141802D01*
X94495401Y-44223931D01*
X94409777Y-44349246D01*
X94379654Y-44498000D01*
X94379654Y-45857000D01*
X93218000Y-45857000D01*
X92978823Y-45904575D01*
X92776058Y-46040058D01*
X92776056Y-46040061D01*
X92710000Y-46106117D01*
X92643942Y-46040058D01*
X92441177Y-45904575D01*
X92202000Y-45857000D01*
X91490346Y-45857000D01*
X91490346Y-45482000D01*
X91464198Y-45343034D01*
X91382069Y-45215401D01*
X91256754Y-45129777D01*
X91229471Y-45124252D01*
X91185425Y-44902823D01*
X91141896Y-44837677D01*
X91049942Y-44700058D01*
X91049939Y-44700056D01*
X90611942Y-44262058D01*
X90409177Y-44126575D01*
X90170000Y-44079000D01*
X84328000Y-44079000D01*
X84088823Y-44126575D01*
X83886058Y-44262058D01*
X83886056Y-44262061D01*
X83144058Y-45004058D01*
X83008575Y-45206823D01*
X83005824Y-45220654D01*
X82836000Y-45220654D01*
X82697034Y-45246802D01*
X82569401Y-45328931D01*
X82483777Y-45454246D01*
X82453654Y-45603000D01*
X45804884Y-45603000D01*
X45482346Y-45280462D01*
X45482346Y-44442000D01*
X46919654Y-44442000D01*
X46919654Y-44942000D01*
X46945802Y-45080966D01*
X47027931Y-45208599D01*
X47153246Y-45294223D01*
X47302000Y-45324346D01*
X48202000Y-45324346D01*
X48340966Y-45298198D01*
X48468599Y-45216069D01*
X48476845Y-45204000D01*
X48567366Y-45204000D01*
X48639144Y-45275903D01*
X48887145Y-45378883D01*
X49155677Y-45379117D01*
X49403857Y-45276571D01*
X49593903Y-45086856D01*
X49696883Y-44838855D01*
X49697117Y-44570323D01*
X49644095Y-44442000D01*
X57333654Y-44442000D01*
X57333654Y-44942000D01*
X57359802Y-45080966D01*
X57441931Y-45208599D01*
X57567246Y-45294223D01*
X57716000Y-45324346D01*
X58616000Y-45324346D01*
X58754966Y-45298198D01*
X58882599Y-45216069D01*
X58890845Y-45204000D01*
X58981366Y-45204000D01*
X59053144Y-45275903D01*
X59301145Y-45378883D01*
X59569677Y-45379117D01*
X59817857Y-45276571D01*
X60007903Y-45086856D01*
X60110883Y-44838855D01*
X60111117Y-44570323D01*
X60058095Y-44442000D01*
X67747654Y-44442000D01*
X67747654Y-44942000D01*
X67773802Y-45080966D01*
X67855931Y-45208599D01*
X67981246Y-45294223D01*
X68130000Y-45324346D01*
X69030000Y-45324346D01*
X69168966Y-45298198D01*
X69296599Y-45216069D01*
X69304845Y-45204000D01*
X69395366Y-45204000D01*
X69467144Y-45275903D01*
X69715145Y-45378883D01*
X69983677Y-45379117D01*
X70231857Y-45276571D01*
X70421903Y-45086856D01*
X70524883Y-44838855D01*
X70524884Y-44837677D01*
X77048883Y-44837677D01*
X77151429Y-45085857D01*
X77341144Y-45275903D01*
X77589145Y-45378883D01*
X77857677Y-45379117D01*
X78105857Y-45276571D01*
X78178555Y-45204000D01*
X78266972Y-45204000D01*
X78269931Y-45208599D01*
X78395246Y-45294223D01*
X78544000Y-45324346D01*
X79444000Y-45324346D01*
X79582966Y-45298198D01*
X79710599Y-45216069D01*
X79796223Y-45090754D01*
X79826346Y-44942000D01*
X79826346Y-44442000D01*
X79800198Y-44303034D01*
X79718069Y-44175401D01*
X79592754Y-44089777D01*
X79444000Y-44059654D01*
X78544000Y-44059654D01*
X78405034Y-44085802D01*
X78277401Y-44167931D01*
X78252756Y-44204000D01*
X78178634Y-44204000D01*
X78106856Y-44132097D01*
X77858855Y-44029117D01*
X77590323Y-44028883D01*
X77342143Y-44131429D01*
X77152097Y-44321144D01*
X77049117Y-44569145D01*
X77048883Y-44837677D01*
X70524884Y-44837677D01*
X70525117Y-44570323D01*
X70422571Y-44322143D01*
X70232856Y-44132097D01*
X69984855Y-44029117D01*
X69716323Y-44028883D01*
X69468143Y-44131429D01*
X69395445Y-44204000D01*
X69322472Y-44204000D01*
X69304069Y-44175401D01*
X69178754Y-44089777D01*
X69030000Y-44059654D01*
X68130000Y-44059654D01*
X67991034Y-44085802D01*
X67863401Y-44167931D01*
X67777777Y-44293246D01*
X67747654Y-44442000D01*
X60058095Y-44442000D01*
X60008571Y-44322143D01*
X59818856Y-44132097D01*
X59570855Y-44029117D01*
X59302323Y-44028883D01*
X59054143Y-44131429D01*
X58981445Y-44204000D01*
X58908472Y-44204000D01*
X58890069Y-44175401D01*
X58764754Y-44089777D01*
X58616000Y-44059654D01*
X57716000Y-44059654D01*
X57577034Y-44085802D01*
X57449401Y-44167931D01*
X57363777Y-44293246D01*
X57333654Y-44442000D01*
X49644095Y-44442000D01*
X49594571Y-44322143D01*
X49404856Y-44132097D01*
X49156855Y-44029117D01*
X48888323Y-44028883D01*
X48640143Y-44131429D01*
X48567445Y-44204000D01*
X48494472Y-44204000D01*
X48476069Y-44175401D01*
X48350754Y-44089777D01*
X48202000Y-44059654D01*
X47302000Y-44059654D01*
X47163034Y-44085802D01*
X47035401Y-44167931D01*
X46949777Y-44293246D01*
X46919654Y-44442000D01*
X45482346Y-44442000D01*
X45482346Y-44382000D01*
X45456198Y-44243034D01*
X45374069Y-44115401D01*
X45248754Y-44029777D01*
X45100000Y-43999654D01*
X43800000Y-43999654D01*
X43661034Y-44025802D01*
X43533401Y-44107931D01*
X43447777Y-44233246D01*
X43417654Y-44382000D01*
X43417654Y-44587000D01*
X42923108Y-44587000D01*
X42906698Y-44547285D01*
X42576453Y-44216464D01*
X42144747Y-44037204D01*
X41677303Y-44036796D01*
X41245285Y-44215302D01*
X40914464Y-44545547D01*
X40897251Y-44587000D01*
X37843108Y-44587000D01*
X37826698Y-44547285D01*
X37496453Y-44216464D01*
X37064747Y-44037204D01*
X36597303Y-44036796D01*
X36165285Y-44215302D01*
X35834464Y-44545547D01*
X35765347Y-44712000D01*
X35322346Y-44712000D01*
X35322346Y-44382000D01*
X35296198Y-44243034D01*
X35214069Y-44115401D01*
X35088754Y-44029777D01*
X34940000Y-43999654D01*
X33640000Y-43999654D01*
X33501034Y-44025802D01*
X33373401Y-44107931D01*
X33287777Y-44233246D01*
X33257654Y-44382000D01*
X33257654Y-45882000D01*
X33283802Y-46020966D01*
X33365931Y-46148599D01*
X33491246Y-46234223D01*
X33640000Y-46264346D01*
X34940000Y-46264346D01*
X35078966Y-46238198D01*
X35206599Y-46156069D01*
X35292223Y-46030754D01*
X35322346Y-45882000D01*
X35322346Y-45712000D01*
X35765243Y-45712000D01*
X35833302Y-45876715D01*
X36163547Y-46207536D01*
X36595253Y-46386796D01*
X37062697Y-46387204D01*
X37494715Y-46208698D01*
X37825536Y-45878453D01*
X37842749Y-45837000D01*
X40896892Y-45837000D01*
X40913302Y-45876715D01*
X41243547Y-46207536D01*
X41675253Y-46386796D01*
X42142697Y-46387204D01*
X42574715Y-46208698D01*
X42905536Y-45878453D01*
X42922749Y-45837000D01*
X43417654Y-45837000D01*
X43417654Y-45882000D01*
X43443802Y-46020966D01*
X43525931Y-46148599D01*
X43651246Y-46234223D01*
X43800000Y-46264346D01*
X44698462Y-46264346D01*
X45104058Y-46669942D01*
X45169626Y-46713753D01*
X45100000Y-46699654D01*
X43800000Y-46699654D01*
X43661034Y-46725802D01*
X43533401Y-46807931D01*
X43447777Y-46933246D01*
X43417654Y-47082000D01*
X43417654Y-47252000D01*
X42974757Y-47252000D01*
X42906698Y-47087285D01*
X42576453Y-46756464D01*
X42144747Y-46577204D01*
X41677303Y-46576796D01*
X41245285Y-46755302D01*
X40914464Y-47085547D01*
X40845347Y-47252000D01*
X37894757Y-47252000D01*
X37826698Y-47087285D01*
X37496453Y-46756464D01*
X37064747Y-46577204D01*
X36597303Y-46576796D01*
X36165285Y-46755302D01*
X35834464Y-47085547D01*
X35655204Y-47517253D01*
X35654796Y-47984697D01*
X35833302Y-48416715D01*
X36163547Y-48747536D01*
X36595253Y-48926796D01*
X37062697Y-48927204D01*
X37494715Y-48748698D01*
X37825536Y-48418453D01*
X37894653Y-48252000D01*
X40845243Y-48252000D01*
X40913302Y-48416715D01*
X41243547Y-48747536D01*
X41675253Y-48926796D01*
X42142697Y-48927204D01*
X42574715Y-48748698D01*
X42905536Y-48418453D01*
X42974653Y-48252000D01*
X43417654Y-48252000D01*
X43417654Y-48582000D01*
X43443802Y-48720966D01*
X43525931Y-48848599D01*
X43651246Y-48934223D01*
X43800000Y-48964346D01*
X45100000Y-48964346D01*
X45238966Y-48938198D01*
X45366599Y-48856069D01*
X45452223Y-48730754D01*
X45482346Y-48582000D01*
X45482346Y-47998000D01*
X46798893Y-47998000D01*
X45004894Y-49792000D01*
X42974757Y-49792000D01*
X42906698Y-49627285D01*
X42576453Y-49296464D01*
X42144747Y-49117204D01*
X41677303Y-49116796D01*
X41245285Y-49295302D01*
X40914464Y-49625547D01*
X40845347Y-49792000D01*
X37894757Y-49792000D01*
X37826698Y-49627285D01*
X37496453Y-49296464D01*
X37064747Y-49117204D01*
X36597303Y-49116796D01*
X36430729Y-49185623D01*
X35322346Y-48077240D01*
X35322346Y-47082000D01*
X35296198Y-46943034D01*
X35214069Y-46815401D01*
X35088754Y-46729777D01*
X34940000Y-46699654D01*
X33640000Y-46699654D01*
X33501034Y-46725802D01*
X33373401Y-46807931D01*
X33287777Y-46933246D01*
X33257654Y-47082000D01*
X33257654Y-48582000D01*
X33283802Y-48720966D01*
X33365931Y-48848599D01*
X33491246Y-48934223D01*
X33640000Y-48964346D01*
X34795240Y-48964346D01*
X35723550Y-49892657D01*
X35655204Y-50057253D01*
X35654796Y-50524697D01*
X35833302Y-50956715D01*
X36163547Y-51287536D01*
X36595253Y-51466796D01*
X37062697Y-51467204D01*
X37494715Y-51288698D01*
X37825536Y-50958453D01*
X37894653Y-50792000D01*
X40845243Y-50792000D01*
X40913302Y-50956715D01*
X41243547Y-51287536D01*
X41675253Y-51466796D01*
X42142697Y-51467204D01*
X42574715Y-51288698D01*
X42905536Y-50958453D01*
X42974653Y-50792000D01*
X45212000Y-50792000D01*
X45403342Y-50753940D01*
X45565553Y-50645553D01*
X46303856Y-49907250D01*
X79643000Y-49907250D01*
X79643000Y-50130538D01*
X79707702Y-50286743D01*
X79827257Y-50406298D01*
X79983462Y-50471000D01*
X80406750Y-50471000D01*
X80513000Y-50364750D01*
X80513000Y-49801000D01*
X80523000Y-49801000D01*
X80523000Y-50364750D01*
X80629250Y-50471000D01*
X81052538Y-50471000D01*
X81208743Y-50406298D01*
X81328298Y-50286743D01*
X81393000Y-50130538D01*
X81393000Y-49907250D01*
X81286750Y-49801000D01*
X80523000Y-49801000D01*
X80513000Y-49801000D01*
X79749250Y-49801000D01*
X79643000Y-49907250D01*
X46303856Y-49907250D01*
X46749644Y-49461462D01*
X79643000Y-49461462D01*
X79643000Y-49684750D01*
X79749250Y-49791000D01*
X80513000Y-49791000D01*
X80513000Y-49227250D01*
X80523000Y-49227250D01*
X80523000Y-49791000D01*
X81286750Y-49791000D01*
X81393000Y-49684750D01*
X81393000Y-49461462D01*
X81328298Y-49305257D01*
X81208743Y-49185702D01*
X81052538Y-49121000D01*
X80629250Y-49121000D01*
X80523000Y-49227250D01*
X80513000Y-49227250D01*
X80406750Y-49121000D01*
X79983462Y-49121000D01*
X79827257Y-49185702D01*
X79707702Y-49305257D01*
X79643000Y-49461462D01*
X46749644Y-49461462D01*
X47705107Y-48506000D01*
X80564894Y-48506000D01*
X81811446Y-49752553D01*
X81883952Y-49801000D01*
X81973658Y-49860940D01*
X82165000Y-49899000D01*
X82185654Y-49899000D01*
X82185654Y-50249000D01*
X82193739Y-50291967D01*
X82143000Y-50414462D01*
X82143000Y-50587750D01*
X82249250Y-50694000D01*
X83563000Y-50694000D01*
X83563000Y-50674000D01*
X83573000Y-50674000D01*
X83573000Y-50694000D01*
X84886750Y-50694000D01*
X84993000Y-50587750D01*
X84993000Y-50414462D01*
X84941847Y-50290968D01*
X84950346Y-50249000D01*
X84950346Y-50160250D01*
X88743000Y-50160250D01*
X88743000Y-50333538D01*
X88759760Y-50374000D01*
X88743000Y-50414462D01*
X88743000Y-50587750D01*
X88849250Y-50694000D01*
X90163000Y-50694000D01*
X90163000Y-50054000D01*
X88849250Y-50054000D01*
X88743000Y-50160250D01*
X84950346Y-50160250D01*
X84950346Y-49849000D01*
X84925962Y-49719411D01*
X84950346Y-49599000D01*
X84950346Y-49510250D01*
X88743000Y-49510250D01*
X88743000Y-49683538D01*
X88759760Y-49724000D01*
X88743000Y-49764462D01*
X88743000Y-49937750D01*
X88849250Y-50044000D01*
X90163000Y-50044000D01*
X90163000Y-49404000D01*
X88849250Y-49404000D01*
X88743000Y-49510250D01*
X84950346Y-49510250D01*
X84950346Y-49199000D01*
X84925962Y-49069411D01*
X84950346Y-48949000D01*
X84950346Y-48549000D01*
X84925962Y-48419411D01*
X84950346Y-48299000D01*
X84950346Y-47899000D01*
X84924198Y-47760034D01*
X84842069Y-47632401D01*
X84716754Y-47546777D01*
X84568000Y-47516654D01*
X84068000Y-47516654D01*
X84068000Y-47235346D01*
X84336000Y-47235346D01*
X84474966Y-47209198D01*
X84602599Y-47127069D01*
X84688223Y-47001754D01*
X84718346Y-46853000D01*
X84718346Y-46339250D01*
X84911000Y-46339250D01*
X84911000Y-46937538D01*
X84975702Y-47093743D01*
X85095257Y-47213298D01*
X85251462Y-47278000D01*
X85974750Y-47278000D01*
X86081000Y-47171750D01*
X86081000Y-46233000D01*
X86091000Y-46233000D01*
X86091000Y-47171750D01*
X86197250Y-47278000D01*
X86920538Y-47278000D01*
X87076743Y-47213298D01*
X87196298Y-47093743D01*
X87261000Y-46937538D01*
X87261000Y-46593250D01*
X87283000Y-46593250D01*
X87283000Y-47566538D01*
X87347702Y-47722743D01*
X87467257Y-47842298D01*
X87623462Y-47907000D01*
X88096750Y-47907000D01*
X88203000Y-47800750D01*
X88203000Y-46487000D01*
X87389250Y-46487000D01*
X87283000Y-46593250D01*
X87261000Y-46593250D01*
X87261000Y-46339250D01*
X87154750Y-46233000D01*
X86091000Y-46233000D01*
X86081000Y-46233000D01*
X85017250Y-46233000D01*
X84911000Y-46339250D01*
X84718346Y-46339250D01*
X84718346Y-45603000D01*
X84692198Y-45464034D01*
X84610069Y-45336401D01*
X84599237Y-45329000D01*
X85008959Y-45329000D01*
X84975702Y-45362257D01*
X84911000Y-45518462D01*
X84911000Y-46116750D01*
X85017250Y-46223000D01*
X86081000Y-46223000D01*
X86081000Y-46203000D01*
X86091000Y-46203000D01*
X86091000Y-46223000D01*
X87154750Y-46223000D01*
X87261000Y-46116750D01*
X87261000Y-45518462D01*
X87196298Y-45362257D01*
X87163041Y-45329000D01*
X87311358Y-45329000D01*
X87283000Y-45397462D01*
X87283000Y-46370750D01*
X87389250Y-46477000D01*
X88203000Y-46477000D01*
X88203000Y-46457000D01*
X88213000Y-46457000D01*
X88213000Y-46477000D01*
X88233000Y-46477000D01*
X88233000Y-46487000D01*
X88213000Y-46487000D01*
X88213000Y-47800750D01*
X88319250Y-47907000D01*
X88785654Y-47907000D01*
X88785654Y-48299000D01*
X88810038Y-48428589D01*
X88785654Y-48549000D01*
X88785654Y-48949000D01*
X88793739Y-48991967D01*
X88743000Y-49114462D01*
X88743000Y-49287750D01*
X88849250Y-49394000D01*
X90163000Y-49394000D01*
X90163000Y-49374000D01*
X90173000Y-49374000D01*
X90173000Y-49394000D01*
X90193000Y-49394000D01*
X90193000Y-49404000D01*
X90173000Y-49404000D01*
X90173000Y-50044000D01*
X90193000Y-50044000D01*
X90193000Y-50054000D01*
X90173000Y-50054000D01*
X90173000Y-50694000D01*
X90193000Y-50694000D01*
X90193000Y-50704000D01*
X90173000Y-50704000D01*
X90173000Y-50724000D01*
X90163000Y-50724000D01*
X90163000Y-50704000D01*
X88849250Y-50704000D01*
X88743000Y-50810250D01*
X88743000Y-50983538D01*
X88794153Y-51107032D01*
X88785654Y-51149000D01*
X88785654Y-51549000D01*
X88810038Y-51678589D01*
X88785654Y-51799000D01*
X88785654Y-52199000D01*
X88810038Y-52328589D01*
X88785654Y-52449000D01*
X88785654Y-52849000D01*
X88810038Y-52978589D01*
X88785654Y-53099000D01*
X88785654Y-53499000D01*
X88810038Y-53628589D01*
X88785654Y-53749000D01*
X88785654Y-54149000D01*
X88788023Y-54161592D01*
X88710571Y-53974143D01*
X88520856Y-53784097D01*
X88272855Y-53681117D01*
X88004323Y-53680883D01*
X87756143Y-53783429D01*
X87566097Y-53973144D01*
X87463117Y-54221145D01*
X87462883Y-54489677D01*
X87565429Y-54737857D01*
X87755144Y-54927903D01*
X87762731Y-54931054D01*
X87784447Y-54963553D01*
X88423446Y-55602553D01*
X88567789Y-55699000D01*
X88585658Y-55710940D01*
X88777000Y-55749000D01*
X88785654Y-55749000D01*
X88785654Y-56099000D01*
X88793739Y-56141967D01*
X88743000Y-56264462D01*
X88743000Y-56437750D01*
X88849250Y-56544000D01*
X90163000Y-56544000D01*
X90163000Y-56524000D01*
X90173000Y-56524000D01*
X90173000Y-56544000D01*
X90193000Y-56544000D01*
X90193000Y-56554000D01*
X90173000Y-56554000D01*
X90173000Y-56574000D01*
X90163000Y-56574000D01*
X90163000Y-56554000D01*
X88849250Y-56554000D01*
X88743000Y-56660250D01*
X88743000Y-56775000D01*
X85410106Y-56775000D01*
X86713554Y-55471553D01*
X86796926Y-55346777D01*
X86821940Y-55309342D01*
X86860000Y-55118000D01*
X86860000Y-54810634D01*
X86931903Y-54738856D01*
X87034883Y-54490855D01*
X87035117Y-54222323D01*
X86932571Y-53974143D01*
X86742856Y-53784097D01*
X86494855Y-53681117D01*
X86226323Y-53680883D01*
X85978143Y-53783429D01*
X85851946Y-53909406D01*
X85726856Y-53784097D01*
X85478855Y-53681117D01*
X85210323Y-53680883D01*
X84962143Y-53783429D01*
X84950346Y-53795205D01*
X84950346Y-53749000D01*
X84925962Y-53619411D01*
X84950346Y-53499000D01*
X84950346Y-53099000D01*
X84925962Y-52969411D01*
X84950346Y-52849000D01*
X84950346Y-52449000D01*
X84925962Y-52319411D01*
X84950346Y-52199000D01*
X84950346Y-51799000D01*
X84925962Y-51669411D01*
X84950346Y-51549000D01*
X84950346Y-51149000D01*
X84942261Y-51106033D01*
X84993000Y-50983538D01*
X84993000Y-50810250D01*
X84886750Y-50704000D01*
X83573000Y-50704000D01*
X83573000Y-50724000D01*
X83563000Y-50724000D01*
X83563000Y-50704000D01*
X82249250Y-50704000D01*
X82143000Y-50810250D01*
X82143000Y-50849000D01*
X81286854Y-50849000D01*
X81242069Y-50779401D01*
X81116754Y-50693777D01*
X80968000Y-50663654D01*
X80068000Y-50663654D01*
X79929034Y-50689802D01*
X79801401Y-50771931D01*
X79784955Y-50796000D01*
X49034000Y-50796000D01*
X48842658Y-50834060D01*
X48680446Y-50942447D01*
X44750894Y-54872000D01*
X42974757Y-54872000D01*
X42906698Y-54707285D01*
X42576453Y-54376464D01*
X42144747Y-54197204D01*
X41677303Y-54196796D01*
X41245285Y-54375302D01*
X40914464Y-54705547D01*
X40845347Y-54872000D01*
X37894757Y-54872000D01*
X37826698Y-54707285D01*
X37496453Y-54376464D01*
X37064747Y-54197204D01*
X36597303Y-54196796D01*
X36165285Y-54375302D01*
X35834464Y-54705547D01*
X35655204Y-55137253D01*
X35654796Y-55604697D01*
X35833302Y-56036715D01*
X36163547Y-56367536D01*
X36595253Y-56546796D01*
X37062697Y-56547204D01*
X37494715Y-56368698D01*
X37825536Y-56038453D01*
X37894653Y-55872000D01*
X40845243Y-55872000D01*
X40913302Y-56036715D01*
X41243547Y-56367536D01*
X41675253Y-56546796D01*
X42142697Y-56547204D01*
X42574715Y-56368698D01*
X42905536Y-56038453D01*
X42974653Y-55872000D01*
X44958000Y-55872000D01*
X45149342Y-55833940D01*
X45311553Y-55725553D01*
X49241107Y-51796000D01*
X56462893Y-51796000D01*
X51483894Y-56775000D01*
X42235770Y-56775000D01*
X42144747Y-56737204D01*
X41677303Y-56736796D01*
X41584842Y-56775000D01*
X37155770Y-56775000D01*
X37064747Y-56737204D01*
X36597303Y-56736796D01*
X36504842Y-56775000D01*
X35343041Y-56775000D01*
X35354298Y-56763743D01*
X35419000Y-56607538D01*
X35419000Y-56384250D01*
X35312750Y-56278000D01*
X34549000Y-56278000D01*
X34549000Y-56298000D01*
X34539000Y-56298000D01*
X34539000Y-56278000D01*
X33775250Y-56278000D01*
X33669000Y-56384250D01*
X33669000Y-56607538D01*
X33733702Y-56763743D01*
X33744959Y-56775000D01*
X31996000Y-56775000D01*
X31996000Y-55938462D01*
X33669000Y-55938462D01*
X33669000Y-56161750D01*
X33775250Y-56268000D01*
X34539000Y-56268000D01*
X34539000Y-55704250D01*
X34549000Y-55704250D01*
X34549000Y-56268000D01*
X35312750Y-56268000D01*
X35419000Y-56161750D01*
X35419000Y-55938462D01*
X35354298Y-55782257D01*
X35234743Y-55662702D01*
X35078538Y-55598000D01*
X34655250Y-55598000D01*
X34549000Y-55704250D01*
X34539000Y-55704250D01*
X34432750Y-55598000D01*
X34009462Y-55598000D01*
X33853257Y-55662702D01*
X33733702Y-55782257D01*
X33669000Y-55938462D01*
X31996000Y-55938462D01*
X31996000Y-53643573D01*
X36025498Y-53643573D01*
X36099907Y-53845392D01*
X36543291Y-54047647D01*
X37030323Y-54064830D01*
X37486858Y-53894327D01*
X37560093Y-53845392D01*
X37634502Y-53643573D01*
X41105498Y-53643573D01*
X41179907Y-53845392D01*
X41623291Y-54047647D01*
X42110323Y-54064830D01*
X42566858Y-53894327D01*
X42640093Y-53845392D01*
X42714502Y-53643573D01*
X41910000Y-52839071D01*
X41105498Y-53643573D01*
X37634502Y-53643573D01*
X36830000Y-52839071D01*
X36025498Y-53643573D01*
X31996000Y-53643573D01*
X31996000Y-53032323D01*
X35597170Y-53032323D01*
X35767673Y-53488858D01*
X35816608Y-53562093D01*
X36018427Y-53636502D01*
X36822929Y-52832000D01*
X36837071Y-52832000D01*
X37641573Y-53636502D01*
X37843392Y-53562093D01*
X38045647Y-53118709D01*
X38048694Y-53032323D01*
X40677170Y-53032323D01*
X40847673Y-53488858D01*
X40896608Y-53562093D01*
X41098427Y-53636502D01*
X41902929Y-52832000D01*
X41917071Y-52832000D01*
X42721573Y-53636502D01*
X42923392Y-53562093D01*
X43125647Y-53118709D01*
X43142830Y-52631677D01*
X42972327Y-52175142D01*
X42923392Y-52101907D01*
X42721573Y-52027498D01*
X41917071Y-52832000D01*
X41902929Y-52832000D01*
X41098427Y-52027498D01*
X40896608Y-52101907D01*
X40694353Y-52545291D01*
X40677170Y-53032323D01*
X38048694Y-53032323D01*
X38062830Y-52631677D01*
X37892327Y-52175142D01*
X37843392Y-52101907D01*
X37641573Y-52027498D01*
X36837071Y-52832000D01*
X36822929Y-52832000D01*
X36018427Y-52027498D01*
X35816608Y-52101907D01*
X35614353Y-52545291D01*
X35597170Y-53032323D01*
X31996000Y-53032323D01*
X31996000Y-52020427D01*
X36025498Y-52020427D01*
X36830000Y-52824929D01*
X37634502Y-52020427D01*
X41105498Y-52020427D01*
X41910000Y-52824929D01*
X42714502Y-52020427D01*
X42640093Y-51818608D01*
X42196709Y-51616353D01*
X41709677Y-51599170D01*
X41253142Y-51769673D01*
X41179907Y-51818608D01*
X41105498Y-52020427D01*
X37634502Y-52020427D01*
X37560093Y-51818608D01*
X37116709Y-51616353D01*
X36629677Y-51599170D01*
X36173142Y-51769673D01*
X36099907Y-51818608D01*
X36025498Y-52020427D01*
X31996000Y-52020427D01*
X31996000Y-42904697D01*
X35654796Y-42904697D01*
X35833302Y-43336715D01*
X36163547Y-43667536D01*
X36595253Y-43846796D01*
X37062697Y-43847204D01*
X37494715Y-43668698D01*
X37825536Y-43338453D01*
X37894653Y-43172000D01*
X40845243Y-43172000D01*
X40913302Y-43336715D01*
X41243547Y-43667536D01*
X41675253Y-43846796D01*
X42142697Y-43847204D01*
X42574715Y-43668698D01*
X42905536Y-43338453D01*
X43084796Y-42906747D01*
X43085204Y-42439303D01*
X42906698Y-42007285D01*
X42576453Y-41676464D01*
X42144747Y-41497204D01*
X41677303Y-41496796D01*
X41245285Y-41675302D01*
X40914464Y-42005547D01*
X40845347Y-42172000D01*
X37894757Y-42172000D01*
X37826698Y-42007285D01*
X37496453Y-41676464D01*
X37064747Y-41497204D01*
X36597303Y-41496796D01*
X36165285Y-41675302D01*
X35834464Y-42005547D01*
X35655204Y-42437253D01*
X35654796Y-42904697D01*
X31996000Y-42904697D01*
X31996000Y-40847106D01*
X33735106Y-39108000D01*
X36231361Y-39108000D01*
X36165285Y-39135302D01*
X35834464Y-39465547D01*
X35655204Y-39897253D01*
X35654796Y-40364697D01*
X35833302Y-40796715D01*
X36163547Y-41127536D01*
X36595253Y-41306796D01*
X37062697Y-41307204D01*
X37494715Y-41128698D01*
X37825536Y-40798453D01*
X37894653Y-40632000D01*
X40845243Y-40632000D01*
X40913302Y-40796715D01*
X41243547Y-41127536D01*
X41675253Y-41306796D01*
X42142697Y-41307204D01*
X42574715Y-41128698D01*
X42905536Y-40798453D01*
X43084796Y-40366747D01*
X43085204Y-39899303D01*
X42906698Y-39467285D01*
X42576453Y-39136464D01*
X42216504Y-38987000D01*
X43180324Y-38987000D01*
X46673008Y-42479684D01*
X46673008Y-42479684D01*
G37*
X46673008Y-42479684D02*
X46856729Y-42663726D01*
X46808888Y-42733744D01*
X46766715Y-42942000D01*
X46766715Y-43442000D01*
X46803323Y-43636553D01*
X46918304Y-43815239D01*
X47093744Y-43935112D01*
X47302000Y-43977285D01*
X48202000Y-43977285D01*
X48396553Y-43940677D01*
X48575239Y-43825696D01*
X48695112Y-43650256D01*
X48737285Y-43442000D01*
X48737285Y-42942000D01*
X48700677Y-42747447D01*
X48646736Y-42663621D01*
X49044079Y-42266971D01*
X49276735Y-41706672D01*
X49277265Y-41099989D01*
X49045586Y-40539285D01*
X48616971Y-40109921D01*
X48616331Y-40109655D01*
X47493676Y-38987000D01*
X49276324Y-38987000D01*
X52769662Y-42480338D01*
X53264408Y-42810916D01*
X53848000Y-42927000D01*
X55370669Y-42927000D01*
X55674011Y-42927265D01*
X56234715Y-42695586D01*
X56664079Y-42266971D01*
X56768971Y-42014364D01*
X56872414Y-42264715D01*
X57270729Y-42663726D01*
X57222888Y-42733744D01*
X57180715Y-42942000D01*
X57180715Y-43442000D01*
X57217323Y-43636553D01*
X57332304Y-43815239D01*
X57507744Y-43935112D01*
X57716000Y-43977285D01*
X58616000Y-43977285D01*
X58810553Y-43940677D01*
X58989239Y-43825696D01*
X59109112Y-43650256D01*
X59151285Y-43442000D01*
X59151285Y-42942000D01*
X59114677Y-42747447D01*
X59060736Y-42663621D01*
X59458079Y-42266971D01*
X59690735Y-41706672D01*
X59691265Y-41099989D01*
X59691000Y-41099348D01*
X59691000Y-40386000D01*
X59574916Y-39802408D01*
X59244338Y-39307662D01*
X58923676Y-38987000D01*
X59690324Y-38987000D01*
X63183662Y-42480338D01*
X63678408Y-42810916D01*
X64262000Y-42927000D01*
X65784669Y-42927000D01*
X66088011Y-42927265D01*
X66648715Y-42695586D01*
X67078079Y-42266971D01*
X67182971Y-42014364D01*
X67286414Y-42264715D01*
X67684729Y-42663726D01*
X67636888Y-42733744D01*
X67594715Y-42942000D01*
X67594715Y-43442000D01*
X67631323Y-43636553D01*
X67746304Y-43815239D01*
X67921744Y-43935112D01*
X68130000Y-43977285D01*
X69030000Y-43977285D01*
X69224553Y-43940677D01*
X69403239Y-43825696D01*
X69523112Y-43650256D01*
X69565285Y-43442000D01*
X69565285Y-42942000D01*
X69528677Y-42747447D01*
X69474736Y-42663621D01*
X69872079Y-42266971D01*
X70104735Y-41706672D01*
X70105265Y-41099989D01*
X70105000Y-41099348D01*
X70105000Y-40386000D01*
X69988916Y-39802408D01*
X69658338Y-39307662D01*
X69337676Y-38987000D01*
X70104324Y-38987000D01*
X73597662Y-42480338D01*
X74092408Y-42810916D01*
X74676000Y-42927000D01*
X76198669Y-42927000D01*
X76502011Y-42927265D01*
X77062715Y-42695586D01*
X77492079Y-42266971D01*
X77596971Y-42014364D01*
X77700414Y-42264715D01*
X78098729Y-42663726D01*
X78050888Y-42733744D01*
X78008715Y-42942000D01*
X78008715Y-43442000D01*
X78045323Y-43636553D01*
X78160304Y-43815239D01*
X78335744Y-43935112D01*
X78544000Y-43977285D01*
X79444000Y-43977285D01*
X79638553Y-43940677D01*
X79817239Y-43825696D01*
X79937112Y-43650256D01*
X79979285Y-43442000D01*
X79979285Y-42942000D01*
X79942677Y-42747447D01*
X79888736Y-42663621D01*
X80286079Y-42266971D01*
X80518735Y-41706672D01*
X80519265Y-41099989D01*
X80519000Y-41099348D01*
X80519000Y-40386000D01*
X80402916Y-39802408D01*
X80072338Y-39307662D01*
X79751676Y-38987000D01*
X80518324Y-38987000D01*
X84011662Y-42480338D01*
X84506408Y-42810916D01*
X85090000Y-42927000D01*
X86612669Y-42927000D01*
X86916011Y-42927265D01*
X87476715Y-42695586D01*
X87906079Y-42266971D01*
X88010971Y-42014364D01*
X88114414Y-42264715D01*
X88543029Y-42694079D01*
X89103328Y-42926735D01*
X89710011Y-42927265D01*
X90270715Y-42695586D01*
X90302356Y-42664000D01*
X90607654Y-42664000D01*
X90607654Y-43164000D01*
X90633802Y-43302966D01*
X90715931Y-43430599D01*
X90841246Y-43516223D01*
X90990000Y-43546346D01*
X91890000Y-43546346D01*
X92028966Y-43520198D01*
X92156599Y-43438069D01*
X92173045Y-43414000D01*
X92243387Y-43414000D01*
X92327144Y-43497903D01*
X92575145Y-43600883D01*
X92843677Y-43601117D01*
X93091857Y-43498571D01*
X93281903Y-43308856D01*
X93384883Y-43060855D01*
X93385117Y-42792323D01*
X93282571Y-42544143D01*
X93092856Y-42354097D01*
X92844855Y-42251117D01*
X92576323Y-42250883D01*
X92328143Y-42353429D01*
X92267466Y-42414000D01*
X92174750Y-42414000D01*
X92164069Y-42397401D01*
X92038754Y-42311777D01*
X91890000Y-42281654D01*
X90990000Y-42281654D01*
X90851034Y-42307802D01*
X90723401Y-42389931D01*
X90637777Y-42515246D01*
X90607654Y-42664000D01*
X90302356Y-42664000D01*
X90700079Y-42266971D01*
X90753663Y-42137925D01*
X90781744Y-42157112D01*
X90990000Y-42199285D01*
X91890000Y-42199285D01*
X92084553Y-42162677D01*
X92263239Y-42047696D01*
X92383112Y-41872256D01*
X92425285Y-41664000D01*
X92425285Y-41164000D01*
X92388677Y-40969447D01*
X92273696Y-40790761D01*
X92098256Y-40670888D01*
X91890000Y-40628715D01*
X90990000Y-40628715D01*
X90933000Y-40639440D01*
X90933000Y-40386000D01*
X90816916Y-39802408D01*
X90486338Y-39307662D01*
X90165676Y-38987000D01*
X90932324Y-38987000D01*
X94425662Y-42480338D01*
X94920408Y-42810916D01*
X95504000Y-42927000D01*
X97026669Y-42927000D01*
X97330011Y-42927265D01*
X97890715Y-42695586D01*
X98320079Y-42266971D01*
X98424971Y-42014364D01*
X98528414Y-42264715D01*
X98926729Y-42663726D01*
X98878888Y-42733744D01*
X98836715Y-42942000D01*
X98836715Y-43442000D01*
X98873323Y-43636553D01*
X98988304Y-43815239D01*
X99163744Y-43935112D01*
X99372000Y-43977285D01*
X99697000Y-43977285D01*
X99697000Y-44059654D01*
X99372000Y-44059654D01*
X99233034Y-44085802D01*
X99105401Y-44167931D01*
X99019777Y-44293246D01*
X98989654Y-44442000D01*
X98989654Y-44942000D01*
X99015802Y-45080966D01*
X99097931Y-45208599D01*
X99223246Y-45294223D01*
X99322000Y-45314221D01*
X99322000Y-50091366D01*
X99250097Y-50163144D01*
X99147117Y-50411145D01*
X99146883Y-50679677D01*
X99216846Y-50849000D01*
X97512041Y-50849000D01*
X97622298Y-50738743D01*
X97687000Y-50582538D01*
X97687000Y-49609250D01*
X97580750Y-49503000D01*
X96017000Y-49503000D01*
X96017000Y-49523000D01*
X96007000Y-49523000D01*
X96007000Y-49503000D01*
X94443250Y-49503000D01*
X94337000Y-49609250D01*
X94337000Y-50582538D01*
X94401702Y-50738743D01*
X94511959Y-50849000D01*
X94117412Y-50849000D01*
X94135000Y-50806538D01*
X94135000Y-50333250D01*
X94028750Y-50227000D01*
X92715000Y-50227000D01*
X92715000Y-50247000D01*
X92705000Y-50247000D01*
X92705000Y-50227000D01*
X92685000Y-50227000D01*
X92685000Y-50217000D01*
X92705000Y-50217000D01*
X92705000Y-50197000D01*
X92715000Y-50197000D01*
X92715000Y-50217000D01*
X94028750Y-50217000D01*
X94135000Y-50110750D01*
X94135000Y-49637462D01*
X94090648Y-49530386D01*
X94092346Y-49522000D01*
X94092346Y-48522000D01*
X94072839Y-48418329D01*
X94073824Y-48413462D01*
X94337000Y-48413462D01*
X94337000Y-49386750D01*
X94443250Y-49493000D01*
X96007000Y-49493000D01*
X96007000Y-48179250D01*
X96017000Y-48179250D01*
X96017000Y-49493000D01*
X97580750Y-49493000D01*
X97687000Y-49386750D01*
X97687000Y-48413462D01*
X97622298Y-48257257D01*
X97502743Y-48137702D01*
X97346538Y-48073000D01*
X96123250Y-48073000D01*
X96017000Y-48179250D01*
X96007000Y-48179250D01*
X95900750Y-48073000D01*
X94677462Y-48073000D01*
X94521257Y-48137702D01*
X94401702Y-48257257D01*
X94337000Y-48413462D01*
X94073824Y-48413462D01*
X94092346Y-48322000D01*
X94092346Y-47322000D01*
X94066198Y-47183034D01*
X94017272Y-47107000D01*
X95028000Y-47107000D01*
X95267177Y-47059425D01*
X95469942Y-46923942D01*
X95513538Y-46880346D01*
X97262000Y-46880346D01*
X97400966Y-46854198D01*
X97528599Y-46772069D01*
X97614223Y-46646754D01*
X97644346Y-46498000D01*
X97644346Y-44498000D01*
X97618198Y-44359034D01*
X97536069Y-44231401D01*
X97410754Y-44145777D01*
X97262000Y-44115654D01*
X94762000Y-44115654D01*
X94623034Y-44141802D01*
X94495401Y-44223931D01*
X94409777Y-44349246D01*
X94379654Y-44498000D01*
X94379654Y-45857000D01*
X93218000Y-45857000D01*
X92978823Y-45904575D01*
X92776058Y-46040058D01*
X92776056Y-46040061D01*
X92710000Y-46106117D01*
X92643942Y-46040058D01*
X92441177Y-45904575D01*
X92202000Y-45857000D01*
X91490346Y-45857000D01*
X91490346Y-45482000D01*
X91464198Y-45343034D01*
X91382069Y-45215401D01*
X91256754Y-45129777D01*
X91229471Y-45124252D01*
X91185425Y-44902823D01*
X91141896Y-44837677D01*
X91049942Y-44700058D01*
X91049939Y-44700056D01*
X90611942Y-44262058D01*
X90409177Y-44126575D01*
X90170000Y-44079000D01*
X84328000Y-44079000D01*
X84088823Y-44126575D01*
X83886058Y-44262058D01*
X83886056Y-44262061D01*
X83144058Y-45004058D01*
X83008575Y-45206823D01*
X83005824Y-45220654D01*
X82836000Y-45220654D01*
X82697034Y-45246802D01*
X82569401Y-45328931D01*
X82483777Y-45454246D01*
X82453654Y-45603000D01*
X45804884Y-45603000D01*
X45482346Y-45280462D01*
X45482346Y-44442000D01*
X46919654Y-44442000D01*
X46919654Y-44942000D01*
X46945802Y-45080966D01*
X47027931Y-45208599D01*
X47153246Y-45294223D01*
X47302000Y-45324346D01*
X48202000Y-45324346D01*
X48340966Y-45298198D01*
X48468599Y-45216069D01*
X48476845Y-45204000D01*
X48567366Y-45204000D01*
X48639144Y-45275903D01*
X48887145Y-45378883D01*
X49155677Y-45379117D01*
X49403857Y-45276571D01*
X49593903Y-45086856D01*
X49696883Y-44838855D01*
X49697117Y-44570323D01*
X49644095Y-44442000D01*
X57333654Y-44442000D01*
X57333654Y-44942000D01*
X57359802Y-45080966D01*
X57441931Y-45208599D01*
X57567246Y-45294223D01*
X57716000Y-45324346D01*
X58616000Y-45324346D01*
X58754966Y-45298198D01*
X58882599Y-45216069D01*
X58890845Y-45204000D01*
X58981366Y-45204000D01*
X59053144Y-45275903D01*
X59301145Y-45378883D01*
X59569677Y-45379117D01*
X59817857Y-45276571D01*
X60007903Y-45086856D01*
X60110883Y-44838855D01*
X60111117Y-44570323D01*
X60058095Y-44442000D01*
X67747654Y-44442000D01*
X67747654Y-44942000D01*
X67773802Y-45080966D01*
X67855931Y-45208599D01*
X67981246Y-45294223D01*
X68130000Y-45324346D01*
X69030000Y-45324346D01*
X69168966Y-45298198D01*
X69296599Y-45216069D01*
X69304845Y-45204000D01*
X69395366Y-45204000D01*
X69467144Y-45275903D01*
X69715145Y-45378883D01*
X69983677Y-45379117D01*
X70231857Y-45276571D01*
X70421903Y-45086856D01*
X70524883Y-44838855D01*
X70524884Y-44837677D01*
X77048883Y-44837677D01*
X77151429Y-45085857D01*
X77341144Y-45275903D01*
X77589145Y-45378883D01*
X77857677Y-45379117D01*
X78105857Y-45276571D01*
X78178555Y-45204000D01*
X78266972Y-45204000D01*
X78269931Y-45208599D01*
X78395246Y-45294223D01*
X78544000Y-45324346D01*
X79444000Y-45324346D01*
X79582966Y-45298198D01*
X79710599Y-45216069D01*
X79796223Y-45090754D01*
X79826346Y-44942000D01*
X79826346Y-44442000D01*
X79800198Y-44303034D01*
X79718069Y-44175401D01*
X79592754Y-44089777D01*
X79444000Y-44059654D01*
X78544000Y-44059654D01*
X78405034Y-44085802D01*
X78277401Y-44167931D01*
X78252756Y-44204000D01*
X78178634Y-44204000D01*
X78106856Y-44132097D01*
X77858855Y-44029117D01*
X77590323Y-44028883D01*
X77342143Y-44131429D01*
X77152097Y-44321144D01*
X77049117Y-44569145D01*
X77048883Y-44837677D01*
X70524884Y-44837677D01*
X70525117Y-44570323D01*
X70422571Y-44322143D01*
X70232856Y-44132097D01*
X69984855Y-44029117D01*
X69716323Y-44028883D01*
X69468143Y-44131429D01*
X69395445Y-44204000D01*
X69322472Y-44204000D01*
X69304069Y-44175401D01*
X69178754Y-44089777D01*
X69030000Y-44059654D01*
X68130000Y-44059654D01*
X67991034Y-44085802D01*
X67863401Y-44167931D01*
X67777777Y-44293246D01*
X67747654Y-44442000D01*
X60058095Y-44442000D01*
X60008571Y-44322143D01*
X59818856Y-44132097D01*
X59570855Y-44029117D01*
X59302323Y-44028883D01*
X59054143Y-44131429D01*
X58981445Y-44204000D01*
X58908472Y-44204000D01*
X58890069Y-44175401D01*
X58764754Y-44089777D01*
X58616000Y-44059654D01*
X57716000Y-44059654D01*
X57577034Y-44085802D01*
X57449401Y-44167931D01*
X57363777Y-44293246D01*
X57333654Y-44442000D01*
X49644095Y-44442000D01*
X49594571Y-44322143D01*
X49404856Y-44132097D01*
X49156855Y-44029117D01*
X48888323Y-44028883D01*
X48640143Y-44131429D01*
X48567445Y-44204000D01*
X48494472Y-44204000D01*
X48476069Y-44175401D01*
X48350754Y-44089777D01*
X48202000Y-44059654D01*
X47302000Y-44059654D01*
X47163034Y-44085802D01*
X47035401Y-44167931D01*
X46949777Y-44293246D01*
X46919654Y-44442000D01*
X45482346Y-44442000D01*
X45482346Y-44382000D01*
X45456198Y-44243034D01*
X45374069Y-44115401D01*
X45248754Y-44029777D01*
X45100000Y-43999654D01*
X43800000Y-43999654D01*
X43661034Y-44025802D01*
X43533401Y-44107931D01*
X43447777Y-44233246D01*
X43417654Y-44382000D01*
X43417654Y-44587000D01*
X42923108Y-44587000D01*
X42906698Y-44547285D01*
X42576453Y-44216464D01*
X42144747Y-44037204D01*
X41677303Y-44036796D01*
X41245285Y-44215302D01*
X40914464Y-44545547D01*
X40897251Y-44587000D01*
X37843108Y-44587000D01*
X37826698Y-44547285D01*
X37496453Y-44216464D01*
X37064747Y-44037204D01*
X36597303Y-44036796D01*
X36165285Y-44215302D01*
X35834464Y-44545547D01*
X35765347Y-44712000D01*
X35322346Y-44712000D01*
X35322346Y-44382000D01*
X35296198Y-44243034D01*
X35214069Y-44115401D01*
X35088754Y-44029777D01*
X34940000Y-43999654D01*
X33640000Y-43999654D01*
X33501034Y-44025802D01*
X33373401Y-44107931D01*
X33287777Y-44233246D01*
X33257654Y-44382000D01*
X33257654Y-45882000D01*
X33283802Y-46020966D01*
X33365931Y-46148599D01*
X33491246Y-46234223D01*
X33640000Y-46264346D01*
X34940000Y-46264346D01*
X35078966Y-46238198D01*
X35206599Y-46156069D01*
X35292223Y-46030754D01*
X35322346Y-45882000D01*
X35322346Y-45712000D01*
X35765243Y-45712000D01*
X35833302Y-45876715D01*
X36163547Y-46207536D01*
X36595253Y-46386796D01*
X37062697Y-46387204D01*
X37494715Y-46208698D01*
X37825536Y-45878453D01*
X37842749Y-45837000D01*
X40896892Y-45837000D01*
X40913302Y-45876715D01*
X41243547Y-46207536D01*
X41675253Y-46386796D01*
X42142697Y-46387204D01*
X42574715Y-46208698D01*
X42905536Y-45878453D01*
X42922749Y-45837000D01*
X43417654Y-45837000D01*
X43417654Y-45882000D01*
X43443802Y-46020966D01*
X43525931Y-46148599D01*
X43651246Y-46234223D01*
X43800000Y-46264346D01*
X44698462Y-46264346D01*
X45104058Y-46669942D01*
X45169626Y-46713753D01*
X45100000Y-46699654D01*
X43800000Y-46699654D01*
X43661034Y-46725802D01*
X43533401Y-46807931D01*
X43447777Y-46933246D01*
X43417654Y-47082000D01*
X43417654Y-47252000D01*
X42974757Y-47252000D01*
X42906698Y-47087285D01*
X42576453Y-46756464D01*
X42144747Y-46577204D01*
X41677303Y-46576796D01*
X41245285Y-46755302D01*
X40914464Y-47085547D01*
X40845347Y-47252000D01*
X37894757Y-47252000D01*
X37826698Y-47087285D01*
X37496453Y-46756464D01*
X37064747Y-46577204D01*
X36597303Y-46576796D01*
X36165285Y-46755302D01*
X35834464Y-47085547D01*
X35655204Y-47517253D01*
X35654796Y-47984697D01*
X35833302Y-48416715D01*
X36163547Y-48747536D01*
X36595253Y-48926796D01*
X37062697Y-48927204D01*
X37494715Y-48748698D01*
X37825536Y-48418453D01*
X37894653Y-48252000D01*
X40845243Y-48252000D01*
X40913302Y-48416715D01*
X41243547Y-48747536D01*
X41675253Y-48926796D01*
X42142697Y-48927204D01*
X42574715Y-48748698D01*
X42905536Y-48418453D01*
X42974653Y-48252000D01*
X43417654Y-48252000D01*
X43417654Y-48582000D01*
X43443802Y-48720966D01*
X43525931Y-48848599D01*
X43651246Y-48934223D01*
X43800000Y-48964346D01*
X45100000Y-48964346D01*
X45238966Y-48938198D01*
X45366599Y-48856069D01*
X45452223Y-48730754D01*
X45482346Y-48582000D01*
X45482346Y-47998000D01*
X46798893Y-47998000D01*
X45004894Y-49792000D01*
X42974757Y-49792000D01*
X42906698Y-49627285D01*
X42576453Y-49296464D01*
X42144747Y-49117204D01*
X41677303Y-49116796D01*
X41245285Y-49295302D01*
X40914464Y-49625547D01*
X40845347Y-49792000D01*
X37894757Y-49792000D01*
X37826698Y-49627285D01*
X37496453Y-49296464D01*
X37064747Y-49117204D01*
X36597303Y-49116796D01*
X36430729Y-49185623D01*
X35322346Y-48077240D01*
X35322346Y-47082000D01*
X35296198Y-46943034D01*
X35214069Y-46815401D01*
X35088754Y-46729777D01*
X34940000Y-46699654D01*
X33640000Y-46699654D01*
X33501034Y-46725802D01*
X33373401Y-46807931D01*
X33287777Y-46933246D01*
X33257654Y-47082000D01*
X33257654Y-48582000D01*
X33283802Y-48720966D01*
X33365931Y-48848599D01*
X33491246Y-48934223D01*
X33640000Y-48964346D01*
X34795240Y-48964346D01*
X35723550Y-49892657D01*
X35655204Y-50057253D01*
X35654796Y-50524697D01*
X35833302Y-50956715D01*
X36163547Y-51287536D01*
X36595253Y-51466796D01*
X37062697Y-51467204D01*
X37494715Y-51288698D01*
X37825536Y-50958453D01*
X37894653Y-50792000D01*
X40845243Y-50792000D01*
X40913302Y-50956715D01*
X41243547Y-51287536D01*
X41675253Y-51466796D01*
X42142697Y-51467204D01*
X42574715Y-51288698D01*
X42905536Y-50958453D01*
X42974653Y-50792000D01*
X45212000Y-50792000D01*
X45403342Y-50753940D01*
X45565553Y-50645553D01*
X46303856Y-49907250D01*
X79643000Y-49907250D01*
X79643000Y-50130538D01*
X79707702Y-50286743D01*
X79827257Y-50406298D01*
X79983462Y-50471000D01*
X80406750Y-50471000D01*
X80513000Y-50364750D01*
X80513000Y-49801000D01*
X80523000Y-49801000D01*
X80523000Y-50364750D01*
X80629250Y-50471000D01*
X81052538Y-50471000D01*
X81208743Y-50406298D01*
X81328298Y-50286743D01*
X81393000Y-50130538D01*
X81393000Y-49907250D01*
X81286750Y-49801000D01*
X80523000Y-49801000D01*
X80513000Y-49801000D01*
X79749250Y-49801000D01*
X79643000Y-49907250D01*
X46303856Y-49907250D01*
X46749644Y-49461462D01*
X79643000Y-49461462D01*
X79643000Y-49684750D01*
X79749250Y-49791000D01*
X80513000Y-49791000D01*
X80513000Y-49227250D01*
X80523000Y-49227250D01*
X80523000Y-49791000D01*
X81286750Y-49791000D01*
X81393000Y-49684750D01*
X81393000Y-49461462D01*
X81328298Y-49305257D01*
X81208743Y-49185702D01*
X81052538Y-49121000D01*
X80629250Y-49121000D01*
X80523000Y-49227250D01*
X80513000Y-49227250D01*
X80406750Y-49121000D01*
X79983462Y-49121000D01*
X79827257Y-49185702D01*
X79707702Y-49305257D01*
X79643000Y-49461462D01*
X46749644Y-49461462D01*
X47705107Y-48506000D01*
X80564894Y-48506000D01*
X81811446Y-49752553D01*
X81883952Y-49801000D01*
X81973658Y-49860940D01*
X82165000Y-49899000D01*
X82185654Y-49899000D01*
X82185654Y-50249000D01*
X82193739Y-50291967D01*
X82143000Y-50414462D01*
X82143000Y-50587750D01*
X82249250Y-50694000D01*
X83563000Y-50694000D01*
X83563000Y-50674000D01*
X83573000Y-50674000D01*
X83573000Y-50694000D01*
X84886750Y-50694000D01*
X84993000Y-50587750D01*
X84993000Y-50414462D01*
X84941847Y-50290968D01*
X84950346Y-50249000D01*
X84950346Y-50160250D01*
X88743000Y-50160250D01*
X88743000Y-50333538D01*
X88759760Y-50374000D01*
X88743000Y-50414462D01*
X88743000Y-50587750D01*
X88849250Y-50694000D01*
X90163000Y-50694000D01*
X90163000Y-50054000D01*
X88849250Y-50054000D01*
X88743000Y-50160250D01*
X84950346Y-50160250D01*
X84950346Y-49849000D01*
X84925962Y-49719411D01*
X84950346Y-49599000D01*
X84950346Y-49510250D01*
X88743000Y-49510250D01*
X88743000Y-49683538D01*
X88759760Y-49724000D01*
X88743000Y-49764462D01*
X88743000Y-49937750D01*
X88849250Y-50044000D01*
X90163000Y-50044000D01*
X90163000Y-49404000D01*
X88849250Y-49404000D01*
X88743000Y-49510250D01*
X84950346Y-49510250D01*
X84950346Y-49199000D01*
X84925962Y-49069411D01*
X84950346Y-48949000D01*
X84950346Y-48549000D01*
X84925962Y-48419411D01*
X84950346Y-48299000D01*
X84950346Y-47899000D01*
X84924198Y-47760034D01*
X84842069Y-47632401D01*
X84716754Y-47546777D01*
X84568000Y-47516654D01*
X84068000Y-47516654D01*
X84068000Y-47235346D01*
X84336000Y-47235346D01*
X84474966Y-47209198D01*
X84602599Y-47127069D01*
X84688223Y-47001754D01*
X84718346Y-46853000D01*
X84718346Y-46339250D01*
X84911000Y-46339250D01*
X84911000Y-46937538D01*
X84975702Y-47093743D01*
X85095257Y-47213298D01*
X85251462Y-47278000D01*
X85974750Y-47278000D01*
X86081000Y-47171750D01*
X86081000Y-46233000D01*
X86091000Y-46233000D01*
X86091000Y-47171750D01*
X86197250Y-47278000D01*
X86920538Y-47278000D01*
X87076743Y-47213298D01*
X87196298Y-47093743D01*
X87261000Y-46937538D01*
X87261000Y-46593250D01*
X87283000Y-46593250D01*
X87283000Y-47566538D01*
X87347702Y-47722743D01*
X87467257Y-47842298D01*
X87623462Y-47907000D01*
X88096750Y-47907000D01*
X88203000Y-47800750D01*
X88203000Y-46487000D01*
X87389250Y-46487000D01*
X87283000Y-46593250D01*
X87261000Y-46593250D01*
X87261000Y-46339250D01*
X87154750Y-46233000D01*
X86091000Y-46233000D01*
X86081000Y-46233000D01*
X85017250Y-46233000D01*
X84911000Y-46339250D01*
X84718346Y-46339250D01*
X84718346Y-45603000D01*
X84692198Y-45464034D01*
X84610069Y-45336401D01*
X84599237Y-45329000D01*
X85008959Y-45329000D01*
X84975702Y-45362257D01*
X84911000Y-45518462D01*
X84911000Y-46116750D01*
X85017250Y-46223000D01*
X86081000Y-46223000D01*
X86081000Y-46203000D01*
X86091000Y-46203000D01*
X86091000Y-46223000D01*
X87154750Y-46223000D01*
X87261000Y-46116750D01*
X87261000Y-45518462D01*
X87196298Y-45362257D01*
X87163041Y-45329000D01*
X87311358Y-45329000D01*
X87283000Y-45397462D01*
X87283000Y-46370750D01*
X87389250Y-46477000D01*
X88203000Y-46477000D01*
X88203000Y-46457000D01*
X88213000Y-46457000D01*
X88213000Y-46477000D01*
X88233000Y-46477000D01*
X88233000Y-46487000D01*
X88213000Y-46487000D01*
X88213000Y-47800750D01*
X88319250Y-47907000D01*
X88785654Y-47907000D01*
X88785654Y-48299000D01*
X88810038Y-48428589D01*
X88785654Y-48549000D01*
X88785654Y-48949000D01*
X88793739Y-48991967D01*
X88743000Y-49114462D01*
X88743000Y-49287750D01*
X88849250Y-49394000D01*
X90163000Y-49394000D01*
X90163000Y-49374000D01*
X90173000Y-49374000D01*
X90173000Y-49394000D01*
X90193000Y-49394000D01*
X90193000Y-49404000D01*
X90173000Y-49404000D01*
X90173000Y-50044000D01*
X90193000Y-50044000D01*
X90193000Y-50054000D01*
X90173000Y-50054000D01*
X90173000Y-50694000D01*
X90193000Y-50694000D01*
X90193000Y-50704000D01*
X90173000Y-50704000D01*
X90173000Y-50724000D01*
X90163000Y-50724000D01*
X90163000Y-50704000D01*
X88849250Y-50704000D01*
X88743000Y-50810250D01*
X88743000Y-50983538D01*
X88794153Y-51107032D01*
X88785654Y-51149000D01*
X88785654Y-51549000D01*
X88810038Y-51678589D01*
X88785654Y-51799000D01*
X88785654Y-52199000D01*
X88810038Y-52328589D01*
X88785654Y-52449000D01*
X88785654Y-52849000D01*
X88810038Y-52978589D01*
X88785654Y-53099000D01*
X88785654Y-53499000D01*
X88810038Y-53628589D01*
X88785654Y-53749000D01*
X88785654Y-54149000D01*
X88788023Y-54161592D01*
X88710571Y-53974143D01*
X88520856Y-53784097D01*
X88272855Y-53681117D01*
X88004323Y-53680883D01*
X87756143Y-53783429D01*
X87566097Y-53973144D01*
X87463117Y-54221145D01*
X87462883Y-54489677D01*
X87565429Y-54737857D01*
X87755144Y-54927903D01*
X87762731Y-54931054D01*
X87784447Y-54963553D01*
X88423446Y-55602553D01*
X88567789Y-55699000D01*
X88585658Y-55710940D01*
X88777000Y-55749000D01*
X88785654Y-55749000D01*
X88785654Y-56099000D01*
X88793739Y-56141967D01*
X88743000Y-56264462D01*
X88743000Y-56437750D01*
X88849250Y-56544000D01*
X90163000Y-56544000D01*
X90163000Y-56524000D01*
X90173000Y-56524000D01*
X90173000Y-56544000D01*
X90193000Y-56544000D01*
X90193000Y-56554000D01*
X90173000Y-56554000D01*
X90173000Y-56574000D01*
X90163000Y-56574000D01*
X90163000Y-56554000D01*
X88849250Y-56554000D01*
X88743000Y-56660250D01*
X88743000Y-56775000D01*
X85410106Y-56775000D01*
X86713554Y-55471553D01*
X86796926Y-55346777D01*
X86821940Y-55309342D01*
X86860000Y-55118000D01*
X86860000Y-54810634D01*
X86931903Y-54738856D01*
X87034883Y-54490855D01*
X87035117Y-54222323D01*
X86932571Y-53974143D01*
X86742856Y-53784097D01*
X86494855Y-53681117D01*
X86226323Y-53680883D01*
X85978143Y-53783429D01*
X85851946Y-53909406D01*
X85726856Y-53784097D01*
X85478855Y-53681117D01*
X85210323Y-53680883D01*
X84962143Y-53783429D01*
X84950346Y-53795205D01*
X84950346Y-53749000D01*
X84925962Y-53619411D01*
X84950346Y-53499000D01*
X84950346Y-53099000D01*
X84925962Y-52969411D01*
X84950346Y-52849000D01*
X84950346Y-52449000D01*
X84925962Y-52319411D01*
X84950346Y-52199000D01*
X84950346Y-51799000D01*
X84925962Y-51669411D01*
X84950346Y-51549000D01*
X84950346Y-51149000D01*
X84942261Y-51106033D01*
X84993000Y-50983538D01*
X84993000Y-50810250D01*
X84886750Y-50704000D01*
X83573000Y-50704000D01*
X83573000Y-50724000D01*
X83563000Y-50724000D01*
X83563000Y-50704000D01*
X82249250Y-50704000D01*
X82143000Y-50810250D01*
X82143000Y-50849000D01*
X81286854Y-50849000D01*
X81242069Y-50779401D01*
X81116754Y-50693777D01*
X80968000Y-50663654D01*
X80068000Y-50663654D01*
X79929034Y-50689802D01*
X79801401Y-50771931D01*
X79784955Y-50796000D01*
X49034000Y-50796000D01*
X48842658Y-50834060D01*
X48680446Y-50942447D01*
X44750894Y-54872000D01*
X42974757Y-54872000D01*
X42906698Y-54707285D01*
X42576453Y-54376464D01*
X42144747Y-54197204D01*
X41677303Y-54196796D01*
X41245285Y-54375302D01*
X40914464Y-54705547D01*
X40845347Y-54872000D01*
X37894757Y-54872000D01*
X37826698Y-54707285D01*
X37496453Y-54376464D01*
X37064747Y-54197204D01*
X36597303Y-54196796D01*
X36165285Y-54375302D01*
X35834464Y-54705547D01*
X35655204Y-55137253D01*
X35654796Y-55604697D01*
X35833302Y-56036715D01*
X36163547Y-56367536D01*
X36595253Y-56546796D01*
X37062697Y-56547204D01*
X37494715Y-56368698D01*
X37825536Y-56038453D01*
X37894653Y-55872000D01*
X40845243Y-55872000D01*
X40913302Y-56036715D01*
X41243547Y-56367536D01*
X41675253Y-56546796D01*
X42142697Y-56547204D01*
X42574715Y-56368698D01*
X42905536Y-56038453D01*
X42974653Y-55872000D01*
X44958000Y-55872000D01*
X45149342Y-55833940D01*
X45311553Y-55725553D01*
X49241107Y-51796000D01*
X56462893Y-51796000D01*
X51483894Y-56775000D01*
X42235770Y-56775000D01*
X42144747Y-56737204D01*
X41677303Y-56736796D01*
X41584842Y-56775000D01*
X37155770Y-56775000D01*
X37064747Y-56737204D01*
X36597303Y-56736796D01*
X36504842Y-56775000D01*
X35343041Y-56775000D01*
X35354298Y-56763743D01*
X35419000Y-56607538D01*
X35419000Y-56384250D01*
X35312750Y-56278000D01*
X34549000Y-56278000D01*
X34549000Y-56298000D01*
X34539000Y-56298000D01*
X34539000Y-56278000D01*
X33775250Y-56278000D01*
X33669000Y-56384250D01*
X33669000Y-56607538D01*
X33733702Y-56763743D01*
X33744959Y-56775000D01*
X31996000Y-56775000D01*
X31996000Y-55938462D01*
X33669000Y-55938462D01*
X33669000Y-56161750D01*
X33775250Y-56268000D01*
X34539000Y-56268000D01*
X34539000Y-55704250D01*
X34549000Y-55704250D01*
X34549000Y-56268000D01*
X35312750Y-56268000D01*
X35419000Y-56161750D01*
X35419000Y-55938462D01*
X35354298Y-55782257D01*
X35234743Y-55662702D01*
X35078538Y-55598000D01*
X34655250Y-55598000D01*
X34549000Y-55704250D01*
X34539000Y-55704250D01*
X34432750Y-55598000D01*
X34009462Y-55598000D01*
X33853257Y-55662702D01*
X33733702Y-55782257D01*
X33669000Y-55938462D01*
X31996000Y-55938462D01*
X31996000Y-53643573D01*
X36025498Y-53643573D01*
X36099907Y-53845392D01*
X36543291Y-54047647D01*
X37030323Y-54064830D01*
X37486858Y-53894327D01*
X37560093Y-53845392D01*
X37634502Y-53643573D01*
X41105498Y-53643573D01*
X41179907Y-53845392D01*
X41623291Y-54047647D01*
X42110323Y-54064830D01*
X42566858Y-53894327D01*
X42640093Y-53845392D01*
X42714502Y-53643573D01*
X41910000Y-52839071D01*
X41105498Y-53643573D01*
X37634502Y-53643573D01*
X36830000Y-52839071D01*
X36025498Y-53643573D01*
X31996000Y-53643573D01*
X31996000Y-53032323D01*
X35597170Y-53032323D01*
X35767673Y-53488858D01*
X35816608Y-53562093D01*
X36018427Y-53636502D01*
X36822929Y-52832000D01*
X36837071Y-52832000D01*
X37641573Y-53636502D01*
X37843392Y-53562093D01*
X38045647Y-53118709D01*
X38048694Y-53032323D01*
X40677170Y-53032323D01*
X40847673Y-53488858D01*
X40896608Y-53562093D01*
X41098427Y-53636502D01*
X41902929Y-52832000D01*
X41917071Y-52832000D01*
X42721573Y-53636502D01*
X42923392Y-53562093D01*
X43125647Y-53118709D01*
X43142830Y-52631677D01*
X42972327Y-52175142D01*
X42923392Y-52101907D01*
X42721573Y-52027498D01*
X41917071Y-52832000D01*
X41902929Y-52832000D01*
X41098427Y-52027498D01*
X40896608Y-52101907D01*
X40694353Y-52545291D01*
X40677170Y-53032323D01*
X38048694Y-53032323D01*
X38062830Y-52631677D01*
X37892327Y-52175142D01*
X37843392Y-52101907D01*
X37641573Y-52027498D01*
X36837071Y-52832000D01*
X36822929Y-52832000D01*
X36018427Y-52027498D01*
X35816608Y-52101907D01*
X35614353Y-52545291D01*
X35597170Y-53032323D01*
X31996000Y-53032323D01*
X31996000Y-52020427D01*
X36025498Y-52020427D01*
X36830000Y-52824929D01*
X37634502Y-52020427D01*
X41105498Y-52020427D01*
X41910000Y-52824929D01*
X42714502Y-52020427D01*
X42640093Y-51818608D01*
X42196709Y-51616353D01*
X41709677Y-51599170D01*
X41253142Y-51769673D01*
X41179907Y-51818608D01*
X41105498Y-52020427D01*
X37634502Y-52020427D01*
X37560093Y-51818608D01*
X37116709Y-51616353D01*
X36629677Y-51599170D01*
X36173142Y-51769673D01*
X36099907Y-51818608D01*
X36025498Y-52020427D01*
X31996000Y-52020427D01*
X31996000Y-42904697D01*
X35654796Y-42904697D01*
X35833302Y-43336715D01*
X36163547Y-43667536D01*
X36595253Y-43846796D01*
X37062697Y-43847204D01*
X37494715Y-43668698D01*
X37825536Y-43338453D01*
X37894653Y-43172000D01*
X40845243Y-43172000D01*
X40913302Y-43336715D01*
X41243547Y-43667536D01*
X41675253Y-43846796D01*
X42142697Y-43847204D01*
X42574715Y-43668698D01*
X42905536Y-43338453D01*
X43084796Y-42906747D01*
X43085204Y-42439303D01*
X42906698Y-42007285D01*
X42576453Y-41676464D01*
X42144747Y-41497204D01*
X41677303Y-41496796D01*
X41245285Y-41675302D01*
X40914464Y-42005547D01*
X40845347Y-42172000D01*
X37894757Y-42172000D01*
X37826698Y-42007285D01*
X37496453Y-41676464D01*
X37064747Y-41497204D01*
X36597303Y-41496796D01*
X36165285Y-41675302D01*
X35834464Y-42005547D01*
X35655204Y-42437253D01*
X35654796Y-42904697D01*
X31996000Y-42904697D01*
X31996000Y-40847106D01*
X33735106Y-39108000D01*
X36231361Y-39108000D01*
X36165285Y-39135302D01*
X35834464Y-39465547D01*
X35655204Y-39897253D01*
X35654796Y-40364697D01*
X35833302Y-40796715D01*
X36163547Y-41127536D01*
X36595253Y-41306796D01*
X37062697Y-41307204D01*
X37494715Y-41128698D01*
X37825536Y-40798453D01*
X37894653Y-40632000D01*
X40845243Y-40632000D01*
X40913302Y-40796715D01*
X41243547Y-41127536D01*
X41675253Y-41306796D01*
X42142697Y-41307204D01*
X42574715Y-41128698D01*
X42905536Y-40798453D01*
X43084796Y-40366747D01*
X43085204Y-39899303D01*
X42906698Y-39467285D01*
X42576453Y-39136464D01*
X42216504Y-38987000D01*
X43180324Y-38987000D01*
X46673008Y-42479684D01*
G36*
X33733702Y-57282257D02*
X33669000Y-57438462D01*
X33669000Y-57541750D01*
X33775250Y-57648000D01*
X34419000Y-57648000D01*
X34419000Y-57628000D01*
X34669000Y-57628000D01*
X34669000Y-57648000D01*
X35312750Y-57648000D01*
X35419000Y-57541750D01*
X35419000Y-57438462D01*
X35354298Y-57282257D01*
X35347041Y-57275000D01*
X35822234Y-57275000D01*
X35655204Y-57677253D01*
X35654796Y-58144697D01*
X35833302Y-58576715D01*
X36163547Y-58907536D01*
X36595253Y-59086796D01*
X37062697Y-59087204D01*
X37494715Y-58908698D01*
X37825536Y-58578453D01*
X37894653Y-58412000D01*
X40845243Y-58412000D01*
X40913302Y-58576715D01*
X41243547Y-58907536D01*
X41675253Y-59086796D01*
X42142697Y-59087204D01*
X42574715Y-58908698D01*
X42905536Y-58578453D01*
X43084796Y-58146747D01*
X43085204Y-57679303D01*
X42918150Y-57275000D01*
X50983894Y-57275000D01*
X49938447Y-58320447D01*
X49830060Y-58482658D01*
X49792000Y-58674000D01*
X49792000Y-63234844D01*
X49514143Y-63349652D01*
X49127011Y-63736108D01*
X49055441Y-63908467D01*
X48996550Y-63766291D01*
X48788515Y-63656262D01*
X47928777Y-64516000D01*
X48788515Y-65375738D01*
X48996550Y-65265709D01*
X49051270Y-65113839D01*
X49125652Y-65293857D01*
X49512108Y-65680989D01*
X50017296Y-65890761D01*
X50564305Y-65891238D01*
X50896446Y-65754000D01*
X52358999Y-65754000D01*
X52359000Y-65754005D01*
X52359000Y-67564000D01*
X52494114Y-68243263D01*
X52598715Y-68399810D01*
X52598715Y-68814000D01*
X52635323Y-69008553D01*
X52750304Y-69187239D01*
X52925744Y-69307112D01*
X53134000Y-69349285D01*
X55134000Y-69349285D01*
X55328553Y-69312677D01*
X55507239Y-69197696D01*
X55627112Y-69022256D01*
X55669285Y-68814000D01*
X55669285Y-68399810D01*
X55773886Y-68243263D01*
X55863001Y-67795250D01*
X56709000Y-67795250D01*
X56709000Y-68898538D01*
X56773702Y-69054743D01*
X56893257Y-69174298D01*
X57049462Y-69239000D01*
X57902750Y-69239000D01*
X58009000Y-69132750D01*
X58009000Y-67689000D01*
X58259000Y-67689000D01*
X58259000Y-69132750D01*
X58365250Y-69239000D01*
X59218538Y-69239000D01*
X59374743Y-69174298D01*
X59494298Y-69054743D01*
X59559000Y-68898538D01*
X59559000Y-67795250D01*
X59452750Y-67689000D01*
X58259000Y-67689000D01*
X58009000Y-67689000D01*
X56815250Y-67689000D01*
X56709000Y-67795250D01*
X55863001Y-67795250D01*
X55909000Y-67564000D01*
X55909000Y-66489230D01*
X56168767Y-66229462D01*
X56709000Y-66229462D01*
X56709000Y-67332750D01*
X56815250Y-67439000D01*
X58009000Y-67439000D01*
X58009000Y-67419000D01*
X58259000Y-67419000D01*
X58259000Y-67439000D01*
X59452750Y-67439000D01*
X59559000Y-67332750D01*
X59559000Y-66229462D01*
X59494298Y-66073257D01*
X59374743Y-65953702D01*
X59218538Y-65889000D01*
X58605605Y-65889000D01*
X58915709Y-65760550D01*
X59025738Y-65552515D01*
X58166000Y-64692777D01*
X57306262Y-65552515D01*
X57416291Y-65760550D01*
X57772790Y-65889000D01*
X57049462Y-65889000D01*
X56893257Y-65953702D01*
X56773702Y-66073257D01*
X56709000Y-66229462D01*
X56168767Y-66229462D01*
X56627114Y-65771115D01*
X56953492Y-65282656D01*
X57129485Y-65375738D01*
X57989223Y-64516000D01*
X57129485Y-63656262D01*
X56953492Y-63749344D01*
X56773178Y-63479485D01*
X57306262Y-63479485D01*
X58166000Y-64339223D01*
X59025738Y-63479485D01*
X58915709Y-63271450D01*
X58382373Y-63079284D01*
X57816095Y-63105845D01*
X57416291Y-63271450D01*
X57306262Y-63479485D01*
X56773178Y-63479485D01*
X56627114Y-63260886D01*
X56051263Y-62876114D01*
X55372000Y-62741000D01*
X54692737Y-62876114D01*
X54116885Y-63260886D01*
X52878885Y-64498885D01*
X52494114Y-65074737D01*
X52358999Y-65754000D01*
X50896446Y-65754000D01*
X51069857Y-65682348D01*
X51456989Y-65295892D01*
X51666761Y-64790704D01*
X51667238Y-64243695D01*
X51458348Y-63738143D01*
X51071892Y-63351011D01*
X50792000Y-63234790D01*
X50792000Y-58881106D01*
X52398106Y-57275000D01*
X53015894Y-57275000D01*
X52986449Y-57304445D01*
X52986446Y-57304447D01*
X52478448Y-57812446D01*
X52478447Y-57812447D01*
X52452708Y-57850968D01*
X52054143Y-58015652D01*
X51667011Y-58402108D01*
X51457239Y-58907296D01*
X51456762Y-59454305D01*
X51665652Y-59959857D01*
X52052108Y-60346989D01*
X52557296Y-60556761D01*
X53104305Y-60557238D01*
X53609857Y-60348348D01*
X53739917Y-60218515D01*
X54512262Y-60218515D01*
X54622291Y-60426550D01*
X55155627Y-60618716D01*
X55721905Y-60592155D01*
X56121709Y-60426550D01*
X56231738Y-60218515D01*
X55372000Y-59358777D01*
X54512262Y-60218515D01*
X53739917Y-60218515D01*
X53996989Y-59961892D01*
X54068559Y-59789533D01*
X54127450Y-59931709D01*
X54335485Y-60041738D01*
X55195223Y-59182000D01*
X55548777Y-59182000D01*
X56408515Y-60041738D01*
X56616550Y-59931709D01*
X56713985Y-59661289D01*
X56872414Y-60044715D01*
X57301029Y-60474079D01*
X57861328Y-60706735D01*
X58468011Y-60707265D01*
X59028715Y-60475586D01*
X59458079Y-60046971D01*
X59690735Y-59486672D01*
X59691265Y-58879989D01*
X59459586Y-58319285D01*
X59030971Y-57889921D01*
X58470672Y-57657265D01*
X57863989Y-57656735D01*
X57303285Y-57888414D01*
X56873921Y-58317029D01*
X56721176Y-58684880D01*
X56616550Y-58432291D01*
X56408515Y-58322262D01*
X55548777Y-59182000D01*
X55195223Y-59182000D01*
X54335485Y-58322262D01*
X54127450Y-58432291D01*
X54072730Y-58584161D01*
X53998348Y-58404143D01*
X53740143Y-58145485D01*
X54512262Y-58145485D01*
X55372000Y-59005223D01*
X56231738Y-58145485D01*
X56121709Y-57937450D01*
X55588373Y-57745284D01*
X55022095Y-57771845D01*
X54622291Y-57937450D01*
X54512262Y-58145485D01*
X53740143Y-58145485D01*
X53649961Y-58055146D01*
X53693553Y-58011554D01*
X53693555Y-58011551D01*
X54430106Y-57275000D01*
X61397894Y-57275000D01*
X60352447Y-58320447D01*
X60244060Y-58482658D01*
X60206000Y-58674000D01*
X60206000Y-63234844D01*
X59928143Y-63349652D01*
X59541011Y-63736108D01*
X59469441Y-63908467D01*
X59410550Y-63766291D01*
X59202515Y-63656262D01*
X58342777Y-64516000D01*
X59202515Y-65375738D01*
X59410550Y-65265709D01*
X59465270Y-65113839D01*
X59539652Y-65293857D01*
X59926108Y-65680989D01*
X60431296Y-65890761D01*
X60978305Y-65891238D01*
X61310446Y-65754000D01*
X62772999Y-65754000D01*
X62773000Y-65754005D01*
X62773000Y-67564000D01*
X62908114Y-68243263D01*
X63012715Y-68399810D01*
X63012715Y-68814000D01*
X63049323Y-69008553D01*
X63164304Y-69187239D01*
X63339744Y-69307112D01*
X63548000Y-69349285D01*
X65548000Y-69349285D01*
X65742553Y-69312677D01*
X65921239Y-69197696D01*
X66041112Y-69022256D01*
X66083285Y-68814000D01*
X66083285Y-68399810D01*
X66187886Y-68243263D01*
X66277001Y-67795250D01*
X67123000Y-67795250D01*
X67123000Y-68898538D01*
X67187702Y-69054743D01*
X67307257Y-69174298D01*
X67463462Y-69239000D01*
X68316750Y-69239000D01*
X68423000Y-69132750D01*
X68423000Y-67689000D01*
X68673000Y-67689000D01*
X68673000Y-69132750D01*
X68779250Y-69239000D01*
X69632538Y-69239000D01*
X69788743Y-69174298D01*
X69908298Y-69054743D01*
X69973000Y-68898538D01*
X69973000Y-67795250D01*
X69866750Y-67689000D01*
X68673000Y-67689000D01*
X68423000Y-67689000D01*
X67229250Y-67689000D01*
X67123000Y-67795250D01*
X66277001Y-67795250D01*
X66323000Y-67564000D01*
X66323000Y-66489230D01*
X66582767Y-66229462D01*
X67123000Y-66229462D01*
X67123000Y-67332750D01*
X67229250Y-67439000D01*
X68423000Y-67439000D01*
X68423000Y-67419000D01*
X68673000Y-67419000D01*
X68673000Y-67439000D01*
X69866750Y-67439000D01*
X69973000Y-67332750D01*
X69973000Y-66229462D01*
X69908298Y-66073257D01*
X69788743Y-65953702D01*
X69632538Y-65889000D01*
X69019605Y-65889000D01*
X69329709Y-65760550D01*
X69439738Y-65552515D01*
X68580000Y-64692777D01*
X67720262Y-65552515D01*
X67830291Y-65760550D01*
X68186790Y-65889000D01*
X67463462Y-65889000D01*
X67307257Y-65953702D01*
X67187702Y-66073257D01*
X67123000Y-66229462D01*
X66582767Y-66229462D01*
X67041114Y-65771115D01*
X67367492Y-65282656D01*
X67543485Y-65375738D01*
X68403223Y-64516000D01*
X67543485Y-63656262D01*
X67367492Y-63749344D01*
X67187178Y-63479485D01*
X67720262Y-63479485D01*
X68580000Y-64339223D01*
X69439738Y-63479485D01*
X69329709Y-63271450D01*
X68796373Y-63079284D01*
X68230095Y-63105845D01*
X67830291Y-63271450D01*
X67720262Y-63479485D01*
X67187178Y-63479485D01*
X67041114Y-63260886D01*
X66465263Y-62876114D01*
X65786000Y-62741000D01*
X65106737Y-62876114D01*
X64530885Y-63260886D01*
X63292885Y-64498885D01*
X62908114Y-65074737D01*
X62772999Y-65754000D01*
X61310446Y-65754000D01*
X61483857Y-65682348D01*
X61870989Y-65295892D01*
X62080761Y-64790704D01*
X62081238Y-64243695D01*
X61872348Y-63738143D01*
X61485892Y-63351011D01*
X61206000Y-63234790D01*
X61206000Y-58881106D01*
X62812106Y-57275000D01*
X63429894Y-57275000D01*
X63400449Y-57304445D01*
X63400446Y-57304447D01*
X62892448Y-57812446D01*
X62892447Y-57812447D01*
X62866708Y-57850968D01*
X62468143Y-58015652D01*
X62081011Y-58402108D01*
X61871239Y-58907296D01*
X61870762Y-59454305D01*
X62079652Y-59959857D01*
X62466108Y-60346989D01*
X62971296Y-60556761D01*
X63518305Y-60557238D01*
X64023857Y-60348348D01*
X64153917Y-60218515D01*
X64926262Y-60218515D01*
X65036291Y-60426550D01*
X65569627Y-60618716D01*
X66135905Y-60592155D01*
X66535709Y-60426550D01*
X66645738Y-60218515D01*
X65786000Y-59358777D01*
X64926262Y-60218515D01*
X64153917Y-60218515D01*
X64410989Y-59961892D01*
X64482559Y-59789533D01*
X64541450Y-59931709D01*
X64749485Y-60041738D01*
X65609223Y-59182000D01*
X65962777Y-59182000D01*
X66822515Y-60041738D01*
X67030550Y-59931709D01*
X67127985Y-59661289D01*
X67286414Y-60044715D01*
X67715029Y-60474079D01*
X68275328Y-60706735D01*
X68882011Y-60707265D01*
X69442715Y-60475586D01*
X69872079Y-60046971D01*
X70104735Y-59486672D01*
X70105265Y-58879989D01*
X69873586Y-58319285D01*
X69444971Y-57889921D01*
X68884672Y-57657265D01*
X68277989Y-57656735D01*
X67717285Y-57888414D01*
X67287921Y-58317029D01*
X67135176Y-58684880D01*
X67030550Y-58432291D01*
X66822515Y-58322262D01*
X65962777Y-59182000D01*
X65609223Y-59182000D01*
X64749485Y-58322262D01*
X64541450Y-58432291D01*
X64486730Y-58584161D01*
X64412348Y-58404143D01*
X64154143Y-58145485D01*
X64926262Y-58145485D01*
X65786000Y-59005223D01*
X66645738Y-58145485D01*
X66535709Y-57937450D01*
X66002373Y-57745284D01*
X65436095Y-57771845D01*
X65036291Y-57937450D01*
X64926262Y-58145485D01*
X64154143Y-58145485D01*
X64063961Y-58055146D01*
X64107553Y-58011554D01*
X64107555Y-58011551D01*
X64844106Y-57275000D01*
X71303894Y-57275000D01*
X70766447Y-57812447D01*
X70658060Y-57974658D01*
X70620000Y-58166000D01*
X70620000Y-63234844D01*
X70342143Y-63349652D01*
X69955011Y-63736108D01*
X69883441Y-63908467D01*
X69824550Y-63766291D01*
X69616515Y-63656262D01*
X68756777Y-64516000D01*
X69616515Y-65375738D01*
X69824550Y-65265709D01*
X69879270Y-65113839D01*
X69953652Y-65293857D01*
X70340108Y-65680989D01*
X70845296Y-65890761D01*
X71392305Y-65891238D01*
X71724446Y-65754000D01*
X73186999Y-65754000D01*
X73187000Y-65754005D01*
X73187000Y-67564000D01*
X73322114Y-68243263D01*
X73426715Y-68399810D01*
X73426715Y-68814000D01*
X73463323Y-69008553D01*
X73578304Y-69187239D01*
X73753744Y-69307112D01*
X73962000Y-69349285D01*
X75962000Y-69349285D01*
X76156553Y-69312677D01*
X76335239Y-69197696D01*
X76455112Y-69022256D01*
X76497285Y-68814000D01*
X76497285Y-68399810D01*
X76601886Y-68243263D01*
X76691001Y-67795250D01*
X77537000Y-67795250D01*
X77537000Y-68898538D01*
X77601702Y-69054743D01*
X77721257Y-69174298D01*
X77877462Y-69239000D01*
X78730750Y-69239000D01*
X78837000Y-69132750D01*
X78837000Y-67689000D01*
X79087000Y-67689000D01*
X79087000Y-69132750D01*
X79193250Y-69239000D01*
X80046538Y-69239000D01*
X80202743Y-69174298D01*
X80322298Y-69054743D01*
X80387000Y-68898538D01*
X80387000Y-67795250D01*
X80280750Y-67689000D01*
X79087000Y-67689000D01*
X78837000Y-67689000D01*
X77643250Y-67689000D01*
X77537000Y-67795250D01*
X76691001Y-67795250D01*
X76737000Y-67564000D01*
X76737000Y-66489230D01*
X76996767Y-66229462D01*
X77537000Y-66229462D01*
X77537000Y-67332750D01*
X77643250Y-67439000D01*
X78837000Y-67439000D01*
X78837000Y-67419000D01*
X79087000Y-67419000D01*
X79087000Y-67439000D01*
X80280750Y-67439000D01*
X80387000Y-67332750D01*
X80387000Y-66229462D01*
X80322298Y-66073257D01*
X80202743Y-65953702D01*
X80046538Y-65889000D01*
X79433605Y-65889000D01*
X79743709Y-65760550D01*
X79853738Y-65552515D01*
X78994000Y-64692777D01*
X78134262Y-65552515D01*
X78244291Y-65760550D01*
X78600790Y-65889000D01*
X77877462Y-65889000D01*
X77721257Y-65953702D01*
X77601702Y-66073257D01*
X77537000Y-66229462D01*
X76996767Y-66229462D01*
X77455114Y-65771115D01*
X77781492Y-65282656D01*
X77957485Y-65375738D01*
X78817223Y-64516000D01*
X77957485Y-63656262D01*
X77781492Y-63749344D01*
X77601178Y-63479485D01*
X78134262Y-63479485D01*
X78994000Y-64339223D01*
X79853738Y-63479485D01*
X79743709Y-63271450D01*
X79210373Y-63079284D01*
X78644095Y-63105845D01*
X78244291Y-63271450D01*
X78134262Y-63479485D01*
X77601178Y-63479485D01*
X77455114Y-63260886D01*
X76879263Y-62876114D01*
X76200000Y-62741000D01*
X75520737Y-62876114D01*
X74944885Y-63260886D01*
X73706885Y-64498885D01*
X73322114Y-65074737D01*
X73186999Y-65754000D01*
X71724446Y-65754000D01*
X71897857Y-65682348D01*
X72284989Y-65295892D01*
X72494761Y-64790704D01*
X72495238Y-64243695D01*
X72286348Y-63738143D01*
X71899892Y-63351011D01*
X71620000Y-63234790D01*
X71620000Y-58373106D01*
X72718106Y-57275000D01*
X74097894Y-57275000D01*
X73565977Y-57806917D01*
X73387695Y-57806762D01*
X72882143Y-58015652D01*
X72495011Y-58402108D01*
X72285239Y-58907296D01*
X72284762Y-59454305D01*
X72493652Y-59959857D01*
X72880108Y-60346989D01*
X73385296Y-60556761D01*
X73932305Y-60557238D01*
X74437857Y-60348348D01*
X74567917Y-60218515D01*
X75340262Y-60218515D01*
X75450291Y-60426550D01*
X75983627Y-60618716D01*
X76549905Y-60592155D01*
X76949709Y-60426550D01*
X77059738Y-60218515D01*
X76200000Y-59358777D01*
X75340262Y-60218515D01*
X74567917Y-60218515D01*
X74824989Y-59961892D01*
X74896559Y-59789533D01*
X74955450Y-59931709D01*
X75163485Y-60041738D01*
X76023223Y-59182000D01*
X76376777Y-59182000D01*
X77236515Y-60041738D01*
X77444550Y-59931709D01*
X77541985Y-59661289D01*
X77700414Y-60044715D01*
X78129029Y-60474079D01*
X78689328Y-60706735D01*
X79296011Y-60707265D01*
X79856715Y-60475586D01*
X80286079Y-60046971D01*
X80518735Y-59486672D01*
X80519265Y-58879989D01*
X80287586Y-58319285D01*
X79858971Y-57889921D01*
X79298672Y-57657265D01*
X78691989Y-57656735D01*
X78131285Y-57888414D01*
X77701921Y-58317029D01*
X77549176Y-58684880D01*
X77444550Y-58432291D01*
X77236515Y-58322262D01*
X76376777Y-59182000D01*
X76023223Y-59182000D01*
X75163485Y-58322262D01*
X74955450Y-58432291D01*
X74900730Y-58584161D01*
X74826348Y-58404143D01*
X74604849Y-58182257D01*
X74641621Y-58145485D01*
X75340262Y-58145485D01*
X76200000Y-59005223D01*
X77059738Y-58145485D01*
X76949709Y-57937450D01*
X76416373Y-57745284D01*
X75850095Y-57771845D01*
X75450291Y-57937450D01*
X75340262Y-58145485D01*
X74641621Y-58145485D01*
X75512106Y-57275000D01*
X81034000Y-57275000D01*
X81034000Y-63234844D01*
X80756143Y-63349652D01*
X80369011Y-63736108D01*
X80297441Y-63908467D01*
X80238550Y-63766291D01*
X80030515Y-63656262D01*
X79170777Y-64516000D01*
X80030515Y-65375738D01*
X80238550Y-65265709D01*
X80293270Y-65113839D01*
X80367652Y-65293857D01*
X80754108Y-65680989D01*
X81259296Y-65890761D01*
X81806305Y-65891238D01*
X82138446Y-65754000D01*
X83600999Y-65754000D01*
X83601000Y-65754005D01*
X83601000Y-67564000D01*
X83736114Y-68243263D01*
X83840715Y-68399810D01*
X83840715Y-68814000D01*
X83877323Y-69008553D01*
X83992304Y-69187239D01*
X84167744Y-69307112D01*
X84376000Y-69349285D01*
X86376000Y-69349285D01*
X86570553Y-69312677D01*
X86749239Y-69197696D01*
X86869112Y-69022256D01*
X86911285Y-68814000D01*
X86911285Y-68399810D01*
X87015886Y-68243263D01*
X87105001Y-67795250D01*
X87951000Y-67795250D01*
X87951000Y-68898538D01*
X88015702Y-69054743D01*
X88135257Y-69174298D01*
X88291462Y-69239000D01*
X89144750Y-69239000D01*
X89251000Y-69132750D01*
X89251000Y-67689000D01*
X89501000Y-67689000D01*
X89501000Y-69132750D01*
X89607250Y-69239000D01*
X90460538Y-69239000D01*
X90616743Y-69174298D01*
X90736298Y-69054743D01*
X90801000Y-68898538D01*
X90801000Y-67795250D01*
X90694750Y-67689000D01*
X89501000Y-67689000D01*
X89251000Y-67689000D01*
X88057250Y-67689000D01*
X87951000Y-67795250D01*
X87105001Y-67795250D01*
X87151000Y-67564000D01*
X87151000Y-66489230D01*
X87410767Y-66229462D01*
X87951000Y-66229462D01*
X87951000Y-67332750D01*
X88057250Y-67439000D01*
X89251000Y-67439000D01*
X89251000Y-67419000D01*
X89501000Y-67419000D01*
X89501000Y-67439000D01*
X90694750Y-67439000D01*
X90801000Y-67332750D01*
X90801000Y-66229462D01*
X90736298Y-66073257D01*
X90616743Y-65953702D01*
X90460538Y-65889000D01*
X89847605Y-65889000D01*
X90157709Y-65760550D01*
X90267738Y-65552515D01*
X89408000Y-64692777D01*
X88548262Y-65552515D01*
X88658291Y-65760550D01*
X89014790Y-65889000D01*
X88291462Y-65889000D01*
X88135257Y-65953702D01*
X88015702Y-66073257D01*
X87951000Y-66229462D01*
X87410767Y-66229462D01*
X87869114Y-65771115D01*
X88195492Y-65282656D01*
X88371485Y-65375738D01*
X89231223Y-64516000D01*
X88371485Y-63656262D01*
X88195492Y-63749344D01*
X88015178Y-63479485D01*
X88548262Y-63479485D01*
X89408000Y-64339223D01*
X90267738Y-63479485D01*
X90157709Y-63271450D01*
X89624373Y-63079284D01*
X89058095Y-63105845D01*
X88658291Y-63271450D01*
X88548262Y-63479485D01*
X88015178Y-63479485D01*
X87869114Y-63260886D01*
X87293263Y-62876114D01*
X86614000Y-62741000D01*
X85934737Y-62876114D01*
X85358885Y-63260886D01*
X84120885Y-64498885D01*
X83736114Y-65074737D01*
X83600999Y-65754000D01*
X82138446Y-65754000D01*
X82311857Y-65682348D01*
X82698989Y-65295892D01*
X82908761Y-64790704D01*
X82909238Y-64243695D01*
X82700348Y-63738143D01*
X82313892Y-63351011D01*
X82034000Y-63234790D01*
X82034000Y-57275000D01*
X83068000Y-57275000D01*
X83068000Y-57901950D01*
X83066001Y-57912000D01*
X83068000Y-57922050D01*
X83068000Y-58243397D01*
X82909011Y-58402108D01*
X82699239Y-58907296D01*
X82698762Y-59454305D01*
X82907652Y-59959857D01*
X83294108Y-60346989D01*
X83799296Y-60556761D01*
X84346305Y-60557238D01*
X84851857Y-60348348D01*
X84981917Y-60218515D01*
X85754262Y-60218515D01*
X85864291Y-60426550D01*
X86397627Y-60618716D01*
X86963905Y-60592155D01*
X87363709Y-60426550D01*
X87473738Y-60218515D01*
X86614000Y-59358777D01*
X85754262Y-60218515D01*
X84981917Y-60218515D01*
X85238989Y-59961892D01*
X85310559Y-59789533D01*
X85369450Y-59931709D01*
X85577485Y-60041738D01*
X86437223Y-59182000D01*
X86790777Y-59182000D01*
X87650515Y-60041738D01*
X87858550Y-59931709D01*
X87955985Y-59661289D01*
X88114414Y-60044715D01*
X88543029Y-60474079D01*
X89103328Y-60706735D01*
X89710011Y-60707265D01*
X90270715Y-60475586D01*
X90700079Y-60046971D01*
X90932735Y-59486672D01*
X90933265Y-58879989D01*
X90701586Y-58319285D01*
X90272971Y-57889921D01*
X89712672Y-57657265D01*
X89105989Y-57656735D01*
X88545285Y-57888414D01*
X88115921Y-58317029D01*
X87963176Y-58684880D01*
X87858550Y-58432291D01*
X87650515Y-58322262D01*
X86790777Y-59182000D01*
X86437223Y-59182000D01*
X85577485Y-58322262D01*
X85369450Y-58432291D01*
X85314730Y-58584161D01*
X85240348Y-58404143D01*
X84982142Y-58145485D01*
X85754262Y-58145485D01*
X86614000Y-59005223D01*
X87473738Y-58145485D01*
X87363709Y-57937450D01*
X86830373Y-57745284D01*
X86264095Y-57771845D01*
X85864291Y-57937450D01*
X85754262Y-58145485D01*
X84982142Y-58145485D01*
X84853892Y-58017011D01*
X84348704Y-57807239D01*
X84068000Y-57806994D01*
X84068000Y-57275000D01*
X91448000Y-57275000D01*
X91448000Y-63234844D01*
X91170143Y-63349652D01*
X90783011Y-63736108D01*
X90711441Y-63908467D01*
X90652550Y-63766291D01*
X90444515Y-63656262D01*
X89584777Y-64516000D01*
X90444515Y-65375738D01*
X90652550Y-65265709D01*
X90707270Y-65113839D01*
X90781652Y-65293857D01*
X91168108Y-65680989D01*
X91673296Y-65890761D01*
X92220305Y-65891238D01*
X92552446Y-65754000D01*
X94014999Y-65754000D01*
X94015000Y-65754005D01*
X94015000Y-67564000D01*
X94150114Y-68243263D01*
X94254715Y-68399810D01*
X94254715Y-68814000D01*
X94291323Y-69008553D01*
X94406304Y-69187239D01*
X94581744Y-69307112D01*
X94790000Y-69349285D01*
X96790000Y-69349285D01*
X96984553Y-69312677D01*
X97163239Y-69197696D01*
X97283112Y-69022256D01*
X97325285Y-68814000D01*
X97325285Y-68399810D01*
X97429886Y-68243263D01*
X97519001Y-67795250D01*
X98365000Y-67795250D01*
X98365000Y-68898538D01*
X98429702Y-69054743D01*
X98549257Y-69174298D01*
X98705462Y-69239000D01*
X99558750Y-69239000D01*
X99665000Y-69132750D01*
X99665000Y-67689000D01*
X99915000Y-67689000D01*
X99915000Y-69132750D01*
X100021250Y-69239000D01*
X100874538Y-69239000D01*
X101030743Y-69174298D01*
X101150298Y-69054743D01*
X101215000Y-68898538D01*
X101215000Y-67795250D01*
X101108750Y-67689000D01*
X99915000Y-67689000D01*
X99665000Y-67689000D01*
X98471250Y-67689000D01*
X98365000Y-67795250D01*
X97519001Y-67795250D01*
X97565000Y-67564000D01*
X97565000Y-66489230D01*
X97824767Y-66229462D01*
X98365000Y-66229462D01*
X98365000Y-67332750D01*
X98471250Y-67439000D01*
X99665000Y-67439000D01*
X99665000Y-67419000D01*
X99915000Y-67419000D01*
X99915000Y-67439000D01*
X101108750Y-67439000D01*
X101215000Y-67332750D01*
X101215000Y-66229462D01*
X101150298Y-66073257D01*
X101030743Y-65953702D01*
X100874538Y-65889000D01*
X100261605Y-65889000D01*
X100571709Y-65760550D01*
X100681738Y-65552515D01*
X99822000Y-64692777D01*
X98962262Y-65552515D01*
X99072291Y-65760550D01*
X99428790Y-65889000D01*
X98705462Y-65889000D01*
X98549257Y-65953702D01*
X98429702Y-66073257D01*
X98365000Y-66229462D01*
X97824767Y-66229462D01*
X98283114Y-65771115D01*
X98609492Y-65282656D01*
X98785485Y-65375738D01*
X99645223Y-64516000D01*
X98785485Y-63656262D01*
X98609492Y-63749344D01*
X98429178Y-63479485D01*
X98962262Y-63479485D01*
X99822000Y-64339223D01*
X100681738Y-63479485D01*
X100571709Y-63271450D01*
X100038373Y-63079284D01*
X99472095Y-63105845D01*
X99072291Y-63271450D01*
X98962262Y-63479485D01*
X98429178Y-63479485D01*
X98283114Y-63260886D01*
X97707263Y-62876114D01*
X97028000Y-62741000D01*
X96348737Y-62876114D01*
X95772885Y-63260886D01*
X94534885Y-64498885D01*
X94150114Y-65074737D01*
X94014999Y-65754000D01*
X92552446Y-65754000D01*
X92725857Y-65682348D01*
X93112989Y-65295892D01*
X93322761Y-64790704D01*
X93323238Y-64243695D01*
X93114348Y-63738143D01*
X92727892Y-63351011D01*
X92448000Y-63234790D01*
X92448000Y-57275000D01*
X93397893Y-57275000D01*
X93880446Y-57757553D01*
X93880449Y-57757555D01*
X93988000Y-57865106D01*
X93988000Y-57900844D01*
X93710143Y-58015652D01*
X93323011Y-58402108D01*
X93113239Y-58907296D01*
X93112762Y-59454305D01*
X93321652Y-59959857D01*
X93708108Y-60346989D01*
X94213296Y-60556761D01*
X94760305Y-60557238D01*
X95265857Y-60348348D01*
X95395917Y-60218515D01*
X96168262Y-60218515D01*
X96278291Y-60426550D01*
X96811627Y-60618716D01*
X97377905Y-60592155D01*
X97777709Y-60426550D01*
X97887738Y-60218515D01*
X97028000Y-59358777D01*
X96168262Y-60218515D01*
X95395917Y-60218515D01*
X95652989Y-59961892D01*
X95724559Y-59789533D01*
X95783450Y-59931709D01*
X95991485Y-60041738D01*
X96851223Y-59182000D01*
X97204777Y-59182000D01*
X98064515Y-60041738D01*
X98272550Y-59931709D01*
X98369985Y-59661289D01*
X98528414Y-60044715D01*
X98957029Y-60474079D01*
X99517328Y-60706735D01*
X100124011Y-60707265D01*
X100684715Y-60475586D01*
X101114079Y-60046971D01*
X101346735Y-59486672D01*
X101347265Y-58879989D01*
X101115586Y-58319285D01*
X100686971Y-57889921D01*
X100126672Y-57657265D01*
X99519989Y-57656735D01*
X98959285Y-57888414D01*
X98529921Y-58317029D01*
X98377176Y-58684880D01*
X98272550Y-58432291D01*
X98064515Y-58322262D01*
X97204777Y-59182000D01*
X96851223Y-59182000D01*
X95991485Y-58322262D01*
X95783450Y-58432291D01*
X95728730Y-58584161D01*
X95654348Y-58404143D01*
X95396142Y-58145485D01*
X96168262Y-58145485D01*
X97028000Y-59005223D01*
X97887738Y-58145485D01*
X97777709Y-57937450D01*
X97244373Y-57745284D01*
X96678095Y-57771845D01*
X96278291Y-57937450D01*
X96168262Y-58145485D01*
X95396142Y-58145485D01*
X95267892Y-58017011D01*
X94988000Y-57900790D01*
X94988000Y-57658000D01*
X94949940Y-57466658D01*
X94841553Y-57304446D01*
X94812107Y-57275000D01*
X100255893Y-57275000D01*
X101862000Y-58881107D01*
X101862000Y-63234844D01*
X101584143Y-63349652D01*
X101197011Y-63736108D01*
X101125441Y-63908467D01*
X101066550Y-63766291D01*
X100858515Y-63656262D01*
X99998777Y-64516000D01*
X100858515Y-65375738D01*
X101066550Y-65265709D01*
X101121270Y-65113839D01*
X101195652Y-65293857D01*
X101582108Y-65680989D01*
X102087296Y-65890761D01*
X102634305Y-65891238D01*
X102966446Y-65754000D01*
X104428999Y-65754000D01*
X104429000Y-65754005D01*
X104429000Y-67564000D01*
X104564114Y-68243263D01*
X104668715Y-68399810D01*
X104668715Y-68814000D01*
X104705323Y-69008553D01*
X104820304Y-69187239D01*
X104995744Y-69307112D01*
X105204000Y-69349285D01*
X107204000Y-69349285D01*
X107398553Y-69312677D01*
X107577239Y-69197696D01*
X107697112Y-69022256D01*
X107739285Y-68814000D01*
X107739285Y-68399810D01*
X107843886Y-68243263D01*
X107933001Y-67795250D01*
X108779000Y-67795250D01*
X108779000Y-68898538D01*
X108843702Y-69054743D01*
X108963257Y-69174298D01*
X109119462Y-69239000D01*
X109972750Y-69239000D01*
X110079000Y-69132750D01*
X110079000Y-67689000D01*
X110329000Y-67689000D01*
X110329000Y-69132750D01*
X110435250Y-69239000D01*
X111288538Y-69239000D01*
X111444743Y-69174298D01*
X111564298Y-69054743D01*
X111629000Y-68898538D01*
X111629000Y-67795250D01*
X111522750Y-67689000D01*
X110329000Y-67689000D01*
X110079000Y-67689000D01*
X108885250Y-67689000D01*
X108779000Y-67795250D01*
X107933001Y-67795250D01*
X107979000Y-67564000D01*
X107979000Y-66489230D01*
X108238767Y-66229462D01*
X108779000Y-66229462D01*
X108779000Y-67332750D01*
X108885250Y-67439000D01*
X110079000Y-67439000D01*
X110079000Y-67419000D01*
X110329000Y-67419000D01*
X110329000Y-67439000D01*
X111522750Y-67439000D01*
X111629000Y-67332750D01*
X111629000Y-66229462D01*
X111564298Y-66073257D01*
X111444743Y-65953702D01*
X111288538Y-65889000D01*
X110675605Y-65889000D01*
X110985709Y-65760550D01*
X111095738Y-65552515D01*
X110236000Y-64692777D01*
X109376262Y-65552515D01*
X109486291Y-65760550D01*
X109842790Y-65889000D01*
X109119462Y-65889000D01*
X108963257Y-65953702D01*
X108843702Y-66073257D01*
X108779000Y-66229462D01*
X108238767Y-66229462D01*
X108697114Y-65771115D01*
X109023492Y-65282656D01*
X109199485Y-65375738D01*
X110059223Y-64516000D01*
X109199485Y-63656262D01*
X109023492Y-63749344D01*
X108843178Y-63479485D01*
X109376262Y-63479485D01*
X110236000Y-64339223D01*
X111095738Y-63479485D01*
X110985709Y-63271450D01*
X110452373Y-63079284D01*
X109886095Y-63105845D01*
X109486291Y-63271450D01*
X109376262Y-63479485D01*
X108843178Y-63479485D01*
X108697114Y-63260886D01*
X108121263Y-62876114D01*
X107442000Y-62741000D01*
X106762737Y-62876114D01*
X106186885Y-63260886D01*
X104948885Y-64498885D01*
X104564114Y-65074737D01*
X104428999Y-65754000D01*
X102966446Y-65754000D01*
X103139857Y-65682348D01*
X103526989Y-65295892D01*
X103736761Y-64790704D01*
X103737238Y-64243695D01*
X103528348Y-63738143D01*
X103141892Y-63351011D01*
X102862000Y-63234790D01*
X102862000Y-58674000D01*
X102823940Y-58482658D01*
X102715553Y-58320446D01*
X101670107Y-57275000D01*
X102033894Y-57275000D01*
X103568008Y-58809114D01*
X103527239Y-58907296D01*
X103526762Y-59454305D01*
X103735652Y-59959857D01*
X104122108Y-60346989D01*
X104627296Y-60556761D01*
X105174305Y-60557238D01*
X105679857Y-60348348D01*
X105809917Y-60218515D01*
X106582262Y-60218515D01*
X106692291Y-60426550D01*
X107225627Y-60618716D01*
X107791905Y-60592155D01*
X108191709Y-60426550D01*
X108301738Y-60218515D01*
X107442000Y-59358777D01*
X106582262Y-60218515D01*
X105809917Y-60218515D01*
X106066989Y-59961892D01*
X106138559Y-59789533D01*
X106197450Y-59931709D01*
X106405485Y-60041738D01*
X107265223Y-59182000D01*
X106405485Y-58322262D01*
X106197450Y-58432291D01*
X106142730Y-58584161D01*
X106068348Y-58404143D01*
X105810142Y-58145485D01*
X106582262Y-58145485D01*
X107442000Y-59005223D01*
X108301738Y-58145485D01*
X108191709Y-57937450D01*
X107658373Y-57745284D01*
X107092095Y-57771845D01*
X106692291Y-57937450D01*
X106582262Y-58145485D01*
X105810142Y-58145485D01*
X105681892Y-58017011D01*
X105176704Y-57807239D01*
X104629695Y-57806762D01*
X104169866Y-57996759D01*
X103448107Y-57275000D01*
X110415894Y-57275000D01*
X110980998Y-57840104D01*
X110540672Y-57657265D01*
X109933989Y-57656735D01*
X109373285Y-57888414D01*
X108943921Y-58317029D01*
X108791176Y-58684880D01*
X108686550Y-58432291D01*
X108478515Y-58322262D01*
X107618777Y-59182000D01*
X108478515Y-60041738D01*
X108686550Y-59931709D01*
X108783985Y-59661289D01*
X108942414Y-60044715D01*
X109371029Y-60474079D01*
X109931328Y-60706735D01*
X110538011Y-60707265D01*
X111098715Y-60475586D01*
X111528079Y-60046971D01*
X111760735Y-59486672D01*
X111761265Y-58879989D01*
X111578458Y-58437564D01*
X112276000Y-59135106D01*
X112276000Y-63234844D01*
X111998143Y-63349652D01*
X111611011Y-63736108D01*
X111539441Y-63908467D01*
X111480550Y-63766291D01*
X111272515Y-63656262D01*
X110412777Y-64516000D01*
X111272515Y-65375738D01*
X111480550Y-65265709D01*
X111535270Y-65113839D01*
X111609652Y-65293857D01*
X111996108Y-65680989D01*
X112501296Y-65890761D01*
X113048305Y-65891238D01*
X113380446Y-65754000D01*
X114842999Y-65754000D01*
X114843000Y-65754005D01*
X114843000Y-67564000D01*
X114978114Y-68243263D01*
X115082715Y-68399810D01*
X115082715Y-68814000D01*
X115119323Y-69008553D01*
X115234304Y-69187239D01*
X115409744Y-69307112D01*
X115618000Y-69349285D01*
X117618000Y-69349285D01*
X117812553Y-69312677D01*
X117991239Y-69197696D01*
X118111112Y-69022256D01*
X118153285Y-68814000D01*
X118153285Y-68399810D01*
X118257886Y-68243263D01*
X118347001Y-67795250D01*
X119193000Y-67795250D01*
X119193000Y-68898538D01*
X119257702Y-69054743D01*
X119377257Y-69174298D01*
X119533462Y-69239000D01*
X120386750Y-69239000D01*
X120493000Y-69132750D01*
X120493000Y-67689000D01*
X120743000Y-67689000D01*
X120743000Y-69132750D01*
X120849250Y-69239000D01*
X121702538Y-69239000D01*
X121858743Y-69174298D01*
X121978298Y-69054743D01*
X122043000Y-68898538D01*
X122043000Y-67795250D01*
X121936750Y-67689000D01*
X120743000Y-67689000D01*
X120493000Y-67689000D01*
X119299250Y-67689000D01*
X119193000Y-67795250D01*
X118347001Y-67795250D01*
X118393000Y-67564000D01*
X118393000Y-66489230D01*
X118652767Y-66229462D01*
X119193000Y-66229462D01*
X119193000Y-67332750D01*
X119299250Y-67439000D01*
X120493000Y-67439000D01*
X120493000Y-67419000D01*
X120743000Y-67419000D01*
X120743000Y-67439000D01*
X121936750Y-67439000D01*
X122043000Y-67332750D01*
X122043000Y-66229462D01*
X121978298Y-66073257D01*
X121858743Y-65953702D01*
X121702538Y-65889000D01*
X121089605Y-65889000D01*
X121399709Y-65760550D01*
X121509738Y-65552515D01*
X120650000Y-64692777D01*
X119790262Y-65552515D01*
X119900291Y-65760550D01*
X120256790Y-65889000D01*
X119533462Y-65889000D01*
X119377257Y-65953702D01*
X119257702Y-66073257D01*
X119193000Y-66229462D01*
X118652767Y-66229462D01*
X119111114Y-65771115D01*
X119437492Y-65282656D01*
X119613485Y-65375738D01*
X120473223Y-64516000D01*
X119613485Y-63656262D01*
X119437492Y-63749344D01*
X119257178Y-63479485D01*
X119790262Y-63479485D01*
X120650000Y-64339223D01*
X121509738Y-63479485D01*
X121399709Y-63271450D01*
X120866373Y-63079284D01*
X120300095Y-63105845D01*
X119900291Y-63271450D01*
X119790262Y-63479485D01*
X119257178Y-63479485D01*
X119111114Y-63260886D01*
X118535263Y-62876114D01*
X117856000Y-62741000D01*
X117176737Y-62876114D01*
X116600885Y-63260886D01*
X115362885Y-64498885D01*
X114978114Y-65074737D01*
X114842999Y-65754000D01*
X113380446Y-65754000D01*
X113553857Y-65682348D01*
X113940989Y-65295892D01*
X114150761Y-64790704D01*
X114151238Y-64243695D01*
X113942348Y-63738143D01*
X113555892Y-63351011D01*
X113276000Y-63234790D01*
X113276000Y-58928000D01*
X113237940Y-58736658D01*
X113129553Y-58574447D01*
X111830106Y-57275000D01*
X113971893Y-57275000D01*
X114454446Y-57757553D01*
X114454449Y-57757555D01*
X114661553Y-57964660D01*
X114538143Y-58015652D01*
X114151011Y-58402108D01*
X113941239Y-58907296D01*
X113940762Y-59454305D01*
X114149652Y-59959857D01*
X114536108Y-60346989D01*
X115041296Y-60556761D01*
X115588305Y-60557238D01*
X116093857Y-60348348D01*
X116223917Y-60218515D01*
X116996262Y-60218515D01*
X117106291Y-60426550D01*
X117639627Y-60618716D01*
X118205905Y-60592155D01*
X118605709Y-60426550D01*
X118715738Y-60218515D01*
X117856000Y-59358777D01*
X116996262Y-60218515D01*
X116223917Y-60218515D01*
X116480989Y-59961892D01*
X116552559Y-59789533D01*
X116611450Y-59931709D01*
X116819485Y-60041738D01*
X117679223Y-59182000D01*
X118032777Y-59182000D01*
X118892515Y-60041738D01*
X119100550Y-59931709D01*
X119197985Y-59661289D01*
X119356414Y-60044715D01*
X119785029Y-60474079D01*
X120345328Y-60706735D01*
X120952011Y-60707265D01*
X121512715Y-60475586D01*
X121942079Y-60046971D01*
X122174735Y-59486672D01*
X122175265Y-58879989D01*
X121943586Y-58319285D01*
X121514971Y-57889921D01*
X120954672Y-57657265D01*
X120347989Y-57656735D01*
X119787285Y-57888414D01*
X119357921Y-58317029D01*
X119205176Y-58684880D01*
X119100550Y-58432291D01*
X118892515Y-58322262D01*
X118032777Y-59182000D01*
X117679223Y-59182000D01*
X116819485Y-58322262D01*
X116611450Y-58432291D01*
X116556730Y-58584161D01*
X116482348Y-58404143D01*
X116224142Y-58145485D01*
X116996262Y-58145485D01*
X117856000Y-59005223D01*
X118715738Y-58145485D01*
X118605709Y-57937450D01*
X118072373Y-57745284D01*
X117506095Y-57771845D01*
X117106291Y-57937450D01*
X116996262Y-58145485D01*
X116224142Y-58145485D01*
X116095892Y-58017011D01*
X115813569Y-57899781D01*
X115777940Y-57720658D01*
X115776604Y-57718658D01*
X115669553Y-57558446D01*
X115386106Y-57275000D01*
X121337893Y-57275000D01*
X122690000Y-58627107D01*
X122690000Y-63234844D01*
X122412143Y-63349652D01*
X122025011Y-63736108D01*
X121953441Y-63908467D01*
X121894550Y-63766291D01*
X121686515Y-63656262D01*
X120826777Y-64516000D01*
X121686515Y-65375738D01*
X121894550Y-65265709D01*
X121949270Y-65113839D01*
X122023652Y-65293857D01*
X122410108Y-65680989D01*
X122915296Y-65890761D01*
X123462305Y-65891238D01*
X123967857Y-65682348D01*
X124354989Y-65295892D01*
X124564761Y-64790704D01*
X124565238Y-64243695D01*
X124356348Y-63738143D01*
X123969892Y-63351011D01*
X123690000Y-63234790D01*
X123690000Y-58420000D01*
X123651940Y-58228658D01*
X123642186Y-58214060D01*
X123543553Y-58066446D01*
X122752107Y-57275000D01*
X124131894Y-57275000D01*
X124912310Y-58055416D01*
X124565011Y-58402108D01*
X124355239Y-58907296D01*
X124354762Y-59454305D01*
X124563652Y-59959857D01*
X124950108Y-60346989D01*
X125455296Y-60556761D01*
X126002305Y-60557238D01*
X126507857Y-60348348D01*
X126637917Y-60218515D01*
X127410262Y-60218515D01*
X127520291Y-60426550D01*
X128053627Y-60618716D01*
X128619905Y-60592155D01*
X129019709Y-60426550D01*
X129129738Y-60218515D01*
X128270000Y-59358777D01*
X127410262Y-60218515D01*
X126637917Y-60218515D01*
X126894989Y-59961892D01*
X126966559Y-59789533D01*
X127025450Y-59931709D01*
X127233485Y-60041738D01*
X128093223Y-59182000D01*
X127233485Y-58322262D01*
X127025450Y-58432291D01*
X126970730Y-58584161D01*
X126896348Y-58404143D01*
X126638142Y-58145485D01*
X127410262Y-58145485D01*
X128270000Y-59005223D01*
X129129738Y-58145485D01*
X129019709Y-57937450D01*
X128486373Y-57745284D01*
X127920095Y-57771845D01*
X127520291Y-57937450D01*
X127410262Y-58145485D01*
X126638142Y-58145485D01*
X126509892Y-58017011D01*
X126109015Y-57850553D01*
X126083553Y-57812446D01*
X125575553Y-57304447D01*
X125546106Y-57275000D01*
X129669000Y-57275000D01*
X129669000Y-58805165D01*
X129514550Y-58432291D01*
X129306515Y-58322262D01*
X128446777Y-59182000D01*
X129306515Y-60041738D01*
X129514550Y-59931709D01*
X129669000Y-59503050D01*
X129669000Y-63908405D01*
X129563586Y-63653285D01*
X129134971Y-63223921D01*
X128574672Y-62991265D01*
X127967989Y-62990735D01*
X127407285Y-63222414D01*
X126977921Y-63651029D01*
X126745265Y-64211328D01*
X126744735Y-64818011D01*
X126976414Y-65378715D01*
X127405029Y-65808079D01*
X127965328Y-66040735D01*
X128572011Y-66041265D01*
X129132715Y-65809586D01*
X129562079Y-65380971D01*
X129669000Y-65123476D01*
X129669000Y-72773000D01*
X30930000Y-72773000D01*
X30930000Y-72097874D01*
X40092903Y-72097874D01*
X40235974Y-72333959D01*
X40867161Y-72571235D01*
X41541104Y-72548904D01*
X42060026Y-72333959D01*
X42203097Y-72097874D01*
X41148000Y-71042777D01*
X40092903Y-72097874D01*
X30930000Y-72097874D01*
X30930000Y-70585161D01*
X39442765Y-70585161D01*
X39465096Y-71259104D01*
X39680041Y-71778026D01*
X39916126Y-71921097D01*
X40971223Y-70866000D01*
X41324777Y-70866000D01*
X42379874Y-71921097D01*
X42615959Y-71778026D01*
X42853235Y-71146839D01*
X42830904Y-70472896D01*
X42615959Y-69953974D01*
X42379874Y-69810903D01*
X41324777Y-70866000D01*
X40971223Y-70866000D01*
X39916126Y-69810903D01*
X39680041Y-69953974D01*
X39442765Y-70585161D01*
X30930000Y-70585161D01*
X30930000Y-69634126D01*
X40092903Y-69634126D01*
X41148000Y-70689223D01*
X42203097Y-69634126D01*
X42060026Y-69398041D01*
X41428839Y-69160765D01*
X40754896Y-69183096D01*
X40235974Y-69398041D01*
X40092903Y-69634126D01*
X30930000Y-69634126D01*
X30930000Y-64516000D01*
X39342715Y-64516000D01*
X39342715Y-67056000D01*
X39379323Y-67250553D01*
X39494304Y-67429239D01*
X39669744Y-67549112D01*
X39878000Y-67591285D01*
X42418000Y-67591285D01*
X42612553Y-67554677D01*
X42791239Y-67439696D01*
X42911112Y-67264256D01*
X42953285Y-67056000D01*
X42953285Y-65552515D01*
X46892262Y-65552515D01*
X47002291Y-65760550D01*
X47535627Y-65952716D01*
X48101905Y-65926155D01*
X48501709Y-65760550D01*
X48611738Y-65552515D01*
X47752000Y-64692777D01*
X46892262Y-65552515D01*
X42953285Y-65552515D01*
X42953285Y-64516000D01*
X42916677Y-64321447D01*
X42902637Y-64299627D01*
X46315284Y-64299627D01*
X46341845Y-64865905D01*
X46507450Y-65265709D01*
X46715485Y-65375738D01*
X47575223Y-64516000D01*
X46715485Y-63656262D01*
X46507450Y-63766291D01*
X46315284Y-64299627D01*
X42902637Y-64299627D01*
X42801696Y-64142761D01*
X42626256Y-64022888D01*
X42418000Y-63980715D01*
X39878000Y-63980715D01*
X39683447Y-64017323D01*
X39504761Y-64132304D01*
X39384888Y-64307744D01*
X39342715Y-64516000D01*
X30930000Y-64516000D01*
X30930000Y-63479485D01*
X46892262Y-63479485D01*
X47752000Y-64339223D01*
X48611738Y-63479485D01*
X48501709Y-63271450D01*
X47968373Y-63079284D01*
X47402095Y-63105845D01*
X47002291Y-63271450D01*
X46892262Y-63479485D01*
X30930000Y-63479485D01*
X30930000Y-59484011D01*
X46226735Y-59484011D01*
X46458414Y-60044715D01*
X46887029Y-60474079D01*
X47447328Y-60706735D01*
X48054011Y-60707265D01*
X48614715Y-60475586D01*
X49044079Y-60046971D01*
X49276735Y-59486672D01*
X49277265Y-58879989D01*
X49045586Y-58319285D01*
X48616971Y-57889921D01*
X48056672Y-57657265D01*
X47449989Y-57656735D01*
X46889285Y-57888414D01*
X46459921Y-58317029D01*
X46227265Y-58877328D01*
X46226735Y-59484011D01*
X30930000Y-59484011D01*
X30930000Y-58004250D01*
X33669000Y-58004250D01*
X33669000Y-58107538D01*
X33733702Y-58263743D01*
X33853257Y-58383298D01*
X34009462Y-58448000D01*
X34312750Y-58448000D01*
X34419000Y-58341750D01*
X34419000Y-57898000D01*
X34669000Y-57898000D01*
X34669000Y-58341750D01*
X34775250Y-58448000D01*
X35078538Y-58448000D01*
X35234743Y-58383298D01*
X35354298Y-58263743D01*
X35419000Y-58107538D01*
X35419000Y-58004250D01*
X35312750Y-57898000D01*
X34669000Y-57898000D01*
X34419000Y-57898000D01*
X33775250Y-57898000D01*
X33669000Y-58004250D01*
X30930000Y-58004250D01*
X30930000Y-57275000D01*
X33740959Y-57275000D01*
X33733702Y-57282257D01*
X33733702Y-57282257D01*
G37*
X33733702Y-57282257D02*
X33669000Y-57438462D01*
X33669000Y-57541750D01*
X33775250Y-57648000D01*
X34419000Y-57648000D01*
X34419000Y-57628000D01*
X34669000Y-57628000D01*
X34669000Y-57648000D01*
X35312750Y-57648000D01*
X35419000Y-57541750D01*
X35419000Y-57438462D01*
X35354298Y-57282257D01*
X35347041Y-57275000D01*
X35822234Y-57275000D01*
X35655204Y-57677253D01*
X35654796Y-58144697D01*
X35833302Y-58576715D01*
X36163547Y-58907536D01*
X36595253Y-59086796D01*
X37062697Y-59087204D01*
X37494715Y-58908698D01*
X37825536Y-58578453D01*
X37894653Y-58412000D01*
X40845243Y-58412000D01*
X40913302Y-58576715D01*
X41243547Y-58907536D01*
X41675253Y-59086796D01*
X42142697Y-59087204D01*
X42574715Y-58908698D01*
X42905536Y-58578453D01*
X43084796Y-58146747D01*
X43085204Y-57679303D01*
X42918150Y-57275000D01*
X50983894Y-57275000D01*
X49938447Y-58320447D01*
X49830060Y-58482658D01*
X49792000Y-58674000D01*
X49792000Y-63234844D01*
X49514143Y-63349652D01*
X49127011Y-63736108D01*
X49055441Y-63908467D01*
X48996550Y-63766291D01*
X48788515Y-63656262D01*
X47928777Y-64516000D01*
X48788515Y-65375738D01*
X48996550Y-65265709D01*
X49051270Y-65113839D01*
X49125652Y-65293857D01*
X49512108Y-65680989D01*
X50017296Y-65890761D01*
X50564305Y-65891238D01*
X50896446Y-65754000D01*
X52358999Y-65754000D01*
X52359000Y-65754005D01*
X52359000Y-67564000D01*
X52494114Y-68243263D01*
X52598715Y-68399810D01*
X52598715Y-68814000D01*
X52635323Y-69008553D01*
X52750304Y-69187239D01*
X52925744Y-69307112D01*
X53134000Y-69349285D01*
X55134000Y-69349285D01*
X55328553Y-69312677D01*
X55507239Y-69197696D01*
X55627112Y-69022256D01*
X55669285Y-68814000D01*
X55669285Y-68399810D01*
X55773886Y-68243263D01*
X55863001Y-67795250D01*
X56709000Y-67795250D01*
X56709000Y-68898538D01*
X56773702Y-69054743D01*
X56893257Y-69174298D01*
X57049462Y-69239000D01*
X57902750Y-69239000D01*
X58009000Y-69132750D01*
X58009000Y-67689000D01*
X58259000Y-67689000D01*
X58259000Y-69132750D01*
X58365250Y-69239000D01*
X59218538Y-69239000D01*
X59374743Y-69174298D01*
X59494298Y-69054743D01*
X59559000Y-68898538D01*
X59559000Y-67795250D01*
X59452750Y-67689000D01*
X58259000Y-67689000D01*
X58009000Y-67689000D01*
X56815250Y-67689000D01*
X56709000Y-67795250D01*
X55863001Y-67795250D01*
X55909000Y-67564000D01*
X55909000Y-66489230D01*
X56168767Y-66229462D01*
X56709000Y-66229462D01*
X56709000Y-67332750D01*
X56815250Y-67439000D01*
X58009000Y-67439000D01*
X58009000Y-67419000D01*
X58259000Y-67419000D01*
X58259000Y-67439000D01*
X59452750Y-67439000D01*
X59559000Y-67332750D01*
X59559000Y-66229462D01*
X59494298Y-66073257D01*
X59374743Y-65953702D01*
X59218538Y-65889000D01*
X58605605Y-65889000D01*
X58915709Y-65760550D01*
X59025738Y-65552515D01*
X58166000Y-64692777D01*
X57306262Y-65552515D01*
X57416291Y-65760550D01*
X57772790Y-65889000D01*
X57049462Y-65889000D01*
X56893257Y-65953702D01*
X56773702Y-66073257D01*
X56709000Y-66229462D01*
X56168767Y-66229462D01*
X56627114Y-65771115D01*
X56953492Y-65282656D01*
X57129485Y-65375738D01*
X57989223Y-64516000D01*
X57129485Y-63656262D01*
X56953492Y-63749344D01*
X56773178Y-63479485D01*
X57306262Y-63479485D01*
X58166000Y-64339223D01*
X59025738Y-63479485D01*
X58915709Y-63271450D01*
X58382373Y-63079284D01*
X57816095Y-63105845D01*
X57416291Y-63271450D01*
X57306262Y-63479485D01*
X56773178Y-63479485D01*
X56627114Y-63260886D01*
X56051263Y-62876114D01*
X55372000Y-62741000D01*
X54692737Y-62876114D01*
X54116885Y-63260886D01*
X52878885Y-64498885D01*
X52494114Y-65074737D01*
X52358999Y-65754000D01*
X50896446Y-65754000D01*
X51069857Y-65682348D01*
X51456989Y-65295892D01*
X51666761Y-64790704D01*
X51667238Y-64243695D01*
X51458348Y-63738143D01*
X51071892Y-63351011D01*
X50792000Y-63234790D01*
X50792000Y-58881106D01*
X52398106Y-57275000D01*
X53015894Y-57275000D01*
X52986449Y-57304445D01*
X52986446Y-57304447D01*
X52478448Y-57812446D01*
X52478447Y-57812447D01*
X52452708Y-57850968D01*
X52054143Y-58015652D01*
X51667011Y-58402108D01*
X51457239Y-58907296D01*
X51456762Y-59454305D01*
X51665652Y-59959857D01*
X52052108Y-60346989D01*
X52557296Y-60556761D01*
X53104305Y-60557238D01*
X53609857Y-60348348D01*
X53739917Y-60218515D01*
X54512262Y-60218515D01*
X54622291Y-60426550D01*
X55155627Y-60618716D01*
X55721905Y-60592155D01*
X56121709Y-60426550D01*
X56231738Y-60218515D01*
X55372000Y-59358777D01*
X54512262Y-60218515D01*
X53739917Y-60218515D01*
X53996989Y-59961892D01*
X54068559Y-59789533D01*
X54127450Y-59931709D01*
X54335485Y-60041738D01*
X55195223Y-59182000D01*
X55548777Y-59182000D01*
X56408515Y-60041738D01*
X56616550Y-59931709D01*
X56713985Y-59661289D01*
X56872414Y-60044715D01*
X57301029Y-60474079D01*
X57861328Y-60706735D01*
X58468011Y-60707265D01*
X59028715Y-60475586D01*
X59458079Y-60046971D01*
X59690735Y-59486672D01*
X59691265Y-58879989D01*
X59459586Y-58319285D01*
X59030971Y-57889921D01*
X58470672Y-57657265D01*
X57863989Y-57656735D01*
X57303285Y-57888414D01*
X56873921Y-58317029D01*
X56721176Y-58684880D01*
X56616550Y-58432291D01*
X56408515Y-58322262D01*
X55548777Y-59182000D01*
X55195223Y-59182000D01*
X54335485Y-58322262D01*
X54127450Y-58432291D01*
X54072730Y-58584161D01*
X53998348Y-58404143D01*
X53740143Y-58145485D01*
X54512262Y-58145485D01*
X55372000Y-59005223D01*
X56231738Y-58145485D01*
X56121709Y-57937450D01*
X55588373Y-57745284D01*
X55022095Y-57771845D01*
X54622291Y-57937450D01*
X54512262Y-58145485D01*
X53740143Y-58145485D01*
X53649961Y-58055146D01*
X53693553Y-58011554D01*
X53693555Y-58011551D01*
X54430106Y-57275000D01*
X61397894Y-57275000D01*
X60352447Y-58320447D01*
X60244060Y-58482658D01*
X60206000Y-58674000D01*
X60206000Y-63234844D01*
X59928143Y-63349652D01*
X59541011Y-63736108D01*
X59469441Y-63908467D01*
X59410550Y-63766291D01*
X59202515Y-63656262D01*
X58342777Y-64516000D01*
X59202515Y-65375738D01*
X59410550Y-65265709D01*
X59465270Y-65113839D01*
X59539652Y-65293857D01*
X59926108Y-65680989D01*
X60431296Y-65890761D01*
X60978305Y-65891238D01*
X61310446Y-65754000D01*
X62772999Y-65754000D01*
X62773000Y-65754005D01*
X62773000Y-67564000D01*
X62908114Y-68243263D01*
X63012715Y-68399810D01*
X63012715Y-68814000D01*
X63049323Y-69008553D01*
X63164304Y-69187239D01*
X63339744Y-69307112D01*
X63548000Y-69349285D01*
X65548000Y-69349285D01*
X65742553Y-69312677D01*
X65921239Y-69197696D01*
X66041112Y-69022256D01*
X66083285Y-68814000D01*
X66083285Y-68399810D01*
X66187886Y-68243263D01*
X66277001Y-67795250D01*
X67123000Y-67795250D01*
X67123000Y-68898538D01*
X67187702Y-69054743D01*
X67307257Y-69174298D01*
X67463462Y-69239000D01*
X68316750Y-69239000D01*
X68423000Y-69132750D01*
X68423000Y-67689000D01*
X68673000Y-67689000D01*
X68673000Y-69132750D01*
X68779250Y-69239000D01*
X69632538Y-69239000D01*
X69788743Y-69174298D01*
X69908298Y-69054743D01*
X69973000Y-68898538D01*
X69973000Y-67795250D01*
X69866750Y-67689000D01*
X68673000Y-67689000D01*
X68423000Y-67689000D01*
X67229250Y-67689000D01*
X67123000Y-67795250D01*
X66277001Y-67795250D01*
X66323000Y-67564000D01*
X66323000Y-66489230D01*
X66582767Y-66229462D01*
X67123000Y-66229462D01*
X67123000Y-67332750D01*
X67229250Y-67439000D01*
X68423000Y-67439000D01*
X68423000Y-67419000D01*
X68673000Y-67419000D01*
X68673000Y-67439000D01*
X69866750Y-67439000D01*
X69973000Y-67332750D01*
X69973000Y-66229462D01*
X69908298Y-66073257D01*
X69788743Y-65953702D01*
X69632538Y-65889000D01*
X69019605Y-65889000D01*
X69329709Y-65760550D01*
X69439738Y-65552515D01*
X68580000Y-64692777D01*
X67720262Y-65552515D01*
X67830291Y-65760550D01*
X68186790Y-65889000D01*
X67463462Y-65889000D01*
X67307257Y-65953702D01*
X67187702Y-66073257D01*
X67123000Y-66229462D01*
X66582767Y-66229462D01*
X67041114Y-65771115D01*
X67367492Y-65282656D01*
X67543485Y-65375738D01*
X68403223Y-64516000D01*
X67543485Y-63656262D01*
X67367492Y-63749344D01*
X67187178Y-63479485D01*
X67720262Y-63479485D01*
X68580000Y-64339223D01*
X69439738Y-63479485D01*
X69329709Y-63271450D01*
X68796373Y-63079284D01*
X68230095Y-63105845D01*
X67830291Y-63271450D01*
X67720262Y-63479485D01*
X67187178Y-63479485D01*
X67041114Y-63260886D01*
X66465263Y-62876114D01*
X65786000Y-62741000D01*
X65106737Y-62876114D01*
X64530885Y-63260886D01*
X63292885Y-64498885D01*
X62908114Y-65074737D01*
X62772999Y-65754000D01*
X61310446Y-65754000D01*
X61483857Y-65682348D01*
X61870989Y-65295892D01*
X62080761Y-64790704D01*
X62081238Y-64243695D01*
X61872348Y-63738143D01*
X61485892Y-63351011D01*
X61206000Y-63234790D01*
X61206000Y-58881106D01*
X62812106Y-57275000D01*
X63429894Y-57275000D01*
X63400449Y-57304445D01*
X63400446Y-57304447D01*
X62892448Y-57812446D01*
X62892447Y-57812447D01*
X62866708Y-57850968D01*
X62468143Y-58015652D01*
X62081011Y-58402108D01*
X61871239Y-58907296D01*
X61870762Y-59454305D01*
X62079652Y-59959857D01*
X62466108Y-60346989D01*
X62971296Y-60556761D01*
X63518305Y-60557238D01*
X64023857Y-60348348D01*
X64153917Y-60218515D01*
X64926262Y-60218515D01*
X65036291Y-60426550D01*
X65569627Y-60618716D01*
X66135905Y-60592155D01*
X66535709Y-60426550D01*
X66645738Y-60218515D01*
X65786000Y-59358777D01*
X64926262Y-60218515D01*
X64153917Y-60218515D01*
X64410989Y-59961892D01*
X64482559Y-59789533D01*
X64541450Y-59931709D01*
X64749485Y-60041738D01*
X65609223Y-59182000D01*
X65962777Y-59182000D01*
X66822515Y-60041738D01*
X67030550Y-59931709D01*
X67127985Y-59661289D01*
X67286414Y-60044715D01*
X67715029Y-60474079D01*
X68275328Y-60706735D01*
X68882011Y-60707265D01*
X69442715Y-60475586D01*
X69872079Y-60046971D01*
X70104735Y-59486672D01*
X70105265Y-58879989D01*
X69873586Y-58319285D01*
X69444971Y-57889921D01*
X68884672Y-57657265D01*
X68277989Y-57656735D01*
X67717285Y-57888414D01*
X67287921Y-58317029D01*
X67135176Y-58684880D01*
X67030550Y-58432291D01*
X66822515Y-58322262D01*
X65962777Y-59182000D01*
X65609223Y-59182000D01*
X64749485Y-58322262D01*
X64541450Y-58432291D01*
X64486730Y-58584161D01*
X64412348Y-58404143D01*
X64154143Y-58145485D01*
X64926262Y-58145485D01*
X65786000Y-59005223D01*
X66645738Y-58145485D01*
X66535709Y-57937450D01*
X66002373Y-57745284D01*
X65436095Y-57771845D01*
X65036291Y-57937450D01*
X64926262Y-58145485D01*
X64154143Y-58145485D01*
X64063961Y-58055146D01*
X64107553Y-58011554D01*
X64107555Y-58011551D01*
X64844106Y-57275000D01*
X71303894Y-57275000D01*
X70766447Y-57812447D01*
X70658060Y-57974658D01*
X70620000Y-58166000D01*
X70620000Y-63234844D01*
X70342143Y-63349652D01*
X69955011Y-63736108D01*
X69883441Y-63908467D01*
X69824550Y-63766291D01*
X69616515Y-63656262D01*
X68756777Y-64516000D01*
X69616515Y-65375738D01*
X69824550Y-65265709D01*
X69879270Y-65113839D01*
X69953652Y-65293857D01*
X70340108Y-65680989D01*
X70845296Y-65890761D01*
X71392305Y-65891238D01*
X71724446Y-65754000D01*
X73186999Y-65754000D01*
X73187000Y-65754005D01*
X73187000Y-67564000D01*
X73322114Y-68243263D01*
X73426715Y-68399810D01*
X73426715Y-68814000D01*
X73463323Y-69008553D01*
X73578304Y-69187239D01*
X73753744Y-69307112D01*
X73962000Y-69349285D01*
X75962000Y-69349285D01*
X76156553Y-69312677D01*
X76335239Y-69197696D01*
X76455112Y-69022256D01*
X76497285Y-68814000D01*
X76497285Y-68399810D01*
X76601886Y-68243263D01*
X76691001Y-67795250D01*
X77537000Y-67795250D01*
X77537000Y-68898538D01*
X77601702Y-69054743D01*
X77721257Y-69174298D01*
X77877462Y-69239000D01*
X78730750Y-69239000D01*
X78837000Y-69132750D01*
X78837000Y-67689000D01*
X79087000Y-67689000D01*
X79087000Y-69132750D01*
X79193250Y-69239000D01*
X80046538Y-69239000D01*
X80202743Y-69174298D01*
X80322298Y-69054743D01*
X80387000Y-68898538D01*
X80387000Y-67795250D01*
X80280750Y-67689000D01*
X79087000Y-67689000D01*
X78837000Y-67689000D01*
X77643250Y-67689000D01*
X77537000Y-67795250D01*
X76691001Y-67795250D01*
X76737000Y-67564000D01*
X76737000Y-66489230D01*
X76996767Y-66229462D01*
X77537000Y-66229462D01*
X77537000Y-67332750D01*
X77643250Y-67439000D01*
X78837000Y-67439000D01*
X78837000Y-67419000D01*
X79087000Y-67419000D01*
X79087000Y-67439000D01*
X80280750Y-67439000D01*
X80387000Y-67332750D01*
X80387000Y-66229462D01*
X80322298Y-66073257D01*
X80202743Y-65953702D01*
X80046538Y-65889000D01*
X79433605Y-65889000D01*
X79743709Y-65760550D01*
X79853738Y-65552515D01*
X78994000Y-64692777D01*
X78134262Y-65552515D01*
X78244291Y-65760550D01*
X78600790Y-65889000D01*
X77877462Y-65889000D01*
X77721257Y-65953702D01*
X77601702Y-66073257D01*
X77537000Y-66229462D01*
X76996767Y-66229462D01*
X77455114Y-65771115D01*
X77781492Y-65282656D01*
X77957485Y-65375738D01*
X78817223Y-64516000D01*
X77957485Y-63656262D01*
X77781492Y-63749344D01*
X77601178Y-63479485D01*
X78134262Y-63479485D01*
X78994000Y-64339223D01*
X79853738Y-63479485D01*
X79743709Y-63271450D01*
X79210373Y-63079284D01*
X78644095Y-63105845D01*
X78244291Y-63271450D01*
X78134262Y-63479485D01*
X77601178Y-63479485D01*
X77455114Y-63260886D01*
X76879263Y-62876114D01*
X76200000Y-62741000D01*
X75520737Y-62876114D01*
X74944885Y-63260886D01*
X73706885Y-64498885D01*
X73322114Y-65074737D01*
X73186999Y-65754000D01*
X71724446Y-65754000D01*
X71897857Y-65682348D01*
X72284989Y-65295892D01*
X72494761Y-64790704D01*
X72495238Y-64243695D01*
X72286348Y-63738143D01*
X71899892Y-63351011D01*
X71620000Y-63234790D01*
X71620000Y-58373106D01*
X72718106Y-57275000D01*
X74097894Y-57275000D01*
X73565977Y-57806917D01*
X73387695Y-57806762D01*
X72882143Y-58015652D01*
X72495011Y-58402108D01*
X72285239Y-58907296D01*
X72284762Y-59454305D01*
X72493652Y-59959857D01*
X72880108Y-60346989D01*
X73385296Y-60556761D01*
X73932305Y-60557238D01*
X74437857Y-60348348D01*
X74567917Y-60218515D01*
X75340262Y-60218515D01*
X75450291Y-60426550D01*
X75983627Y-60618716D01*
X76549905Y-60592155D01*
X76949709Y-60426550D01*
X77059738Y-60218515D01*
X76200000Y-59358777D01*
X75340262Y-60218515D01*
X74567917Y-60218515D01*
X74824989Y-59961892D01*
X74896559Y-59789533D01*
X74955450Y-59931709D01*
X75163485Y-60041738D01*
X76023223Y-59182000D01*
X76376777Y-59182000D01*
X77236515Y-60041738D01*
X77444550Y-59931709D01*
X77541985Y-59661289D01*
X77700414Y-60044715D01*
X78129029Y-60474079D01*
X78689328Y-60706735D01*
X79296011Y-60707265D01*
X79856715Y-60475586D01*
X80286079Y-60046971D01*
X80518735Y-59486672D01*
X80519265Y-58879989D01*
X80287586Y-58319285D01*
X79858971Y-57889921D01*
X79298672Y-57657265D01*
X78691989Y-57656735D01*
X78131285Y-57888414D01*
X77701921Y-58317029D01*
X77549176Y-58684880D01*
X77444550Y-58432291D01*
X77236515Y-58322262D01*
X76376777Y-59182000D01*
X76023223Y-59182000D01*
X75163485Y-58322262D01*
X74955450Y-58432291D01*
X74900730Y-58584161D01*
X74826348Y-58404143D01*
X74604849Y-58182257D01*
X74641621Y-58145485D01*
X75340262Y-58145485D01*
X76200000Y-59005223D01*
X77059738Y-58145485D01*
X76949709Y-57937450D01*
X76416373Y-57745284D01*
X75850095Y-57771845D01*
X75450291Y-57937450D01*
X75340262Y-58145485D01*
X74641621Y-58145485D01*
X75512106Y-57275000D01*
X81034000Y-57275000D01*
X81034000Y-63234844D01*
X80756143Y-63349652D01*
X80369011Y-63736108D01*
X80297441Y-63908467D01*
X80238550Y-63766291D01*
X80030515Y-63656262D01*
X79170777Y-64516000D01*
X80030515Y-65375738D01*
X80238550Y-65265709D01*
X80293270Y-65113839D01*
X80367652Y-65293857D01*
X80754108Y-65680989D01*
X81259296Y-65890761D01*
X81806305Y-65891238D01*
X82138446Y-65754000D01*
X83600999Y-65754000D01*
X83601000Y-65754005D01*
X83601000Y-67564000D01*
X83736114Y-68243263D01*
X83840715Y-68399810D01*
X83840715Y-68814000D01*
X83877323Y-69008553D01*
X83992304Y-69187239D01*
X84167744Y-69307112D01*
X84376000Y-69349285D01*
X86376000Y-69349285D01*
X86570553Y-69312677D01*
X86749239Y-69197696D01*
X86869112Y-69022256D01*
X86911285Y-68814000D01*
X86911285Y-68399810D01*
X87015886Y-68243263D01*
X87105001Y-67795250D01*
X87951000Y-67795250D01*
X87951000Y-68898538D01*
X88015702Y-69054743D01*
X88135257Y-69174298D01*
X88291462Y-69239000D01*
X89144750Y-69239000D01*
X89251000Y-69132750D01*
X89251000Y-67689000D01*
X89501000Y-67689000D01*
X89501000Y-69132750D01*
X89607250Y-69239000D01*
X90460538Y-69239000D01*
X90616743Y-69174298D01*
X90736298Y-69054743D01*
X90801000Y-68898538D01*
X90801000Y-67795250D01*
X90694750Y-67689000D01*
X89501000Y-67689000D01*
X89251000Y-67689000D01*
X88057250Y-67689000D01*
X87951000Y-67795250D01*
X87105001Y-67795250D01*
X87151000Y-67564000D01*
X87151000Y-66489230D01*
X87410767Y-66229462D01*
X87951000Y-66229462D01*
X87951000Y-67332750D01*
X88057250Y-67439000D01*
X89251000Y-67439000D01*
X89251000Y-67419000D01*
X89501000Y-67419000D01*
X89501000Y-67439000D01*
X90694750Y-67439000D01*
X90801000Y-67332750D01*
X90801000Y-66229462D01*
X90736298Y-66073257D01*
X90616743Y-65953702D01*
X90460538Y-65889000D01*
X89847605Y-65889000D01*
X90157709Y-65760550D01*
X90267738Y-65552515D01*
X89408000Y-64692777D01*
X88548262Y-65552515D01*
X88658291Y-65760550D01*
X89014790Y-65889000D01*
X88291462Y-65889000D01*
X88135257Y-65953702D01*
X88015702Y-66073257D01*
X87951000Y-66229462D01*
X87410767Y-66229462D01*
X87869114Y-65771115D01*
X88195492Y-65282656D01*
X88371485Y-65375738D01*
X89231223Y-64516000D01*
X88371485Y-63656262D01*
X88195492Y-63749344D01*
X88015178Y-63479485D01*
X88548262Y-63479485D01*
X89408000Y-64339223D01*
X90267738Y-63479485D01*
X90157709Y-63271450D01*
X89624373Y-63079284D01*
X89058095Y-63105845D01*
X88658291Y-63271450D01*
X88548262Y-63479485D01*
X88015178Y-63479485D01*
X87869114Y-63260886D01*
X87293263Y-62876114D01*
X86614000Y-62741000D01*
X85934737Y-62876114D01*
X85358885Y-63260886D01*
X84120885Y-64498885D01*
X83736114Y-65074737D01*
X83600999Y-65754000D01*
X82138446Y-65754000D01*
X82311857Y-65682348D01*
X82698989Y-65295892D01*
X82908761Y-64790704D01*
X82909238Y-64243695D01*
X82700348Y-63738143D01*
X82313892Y-63351011D01*
X82034000Y-63234790D01*
X82034000Y-57275000D01*
X83068000Y-57275000D01*
X83068000Y-57901950D01*
X83066001Y-57912000D01*
X83068000Y-57922050D01*
X83068000Y-58243397D01*
X82909011Y-58402108D01*
X82699239Y-58907296D01*
X82698762Y-59454305D01*
X82907652Y-59959857D01*
X83294108Y-60346989D01*
X83799296Y-60556761D01*
X84346305Y-60557238D01*
X84851857Y-60348348D01*
X84981917Y-60218515D01*
X85754262Y-60218515D01*
X85864291Y-60426550D01*
X86397627Y-60618716D01*
X86963905Y-60592155D01*
X87363709Y-60426550D01*
X87473738Y-60218515D01*
X86614000Y-59358777D01*
X85754262Y-60218515D01*
X84981917Y-60218515D01*
X85238989Y-59961892D01*
X85310559Y-59789533D01*
X85369450Y-59931709D01*
X85577485Y-60041738D01*
X86437223Y-59182000D01*
X86790777Y-59182000D01*
X87650515Y-60041738D01*
X87858550Y-59931709D01*
X87955985Y-59661289D01*
X88114414Y-60044715D01*
X88543029Y-60474079D01*
X89103328Y-60706735D01*
X89710011Y-60707265D01*
X90270715Y-60475586D01*
X90700079Y-60046971D01*
X90932735Y-59486672D01*
X90933265Y-58879989D01*
X90701586Y-58319285D01*
X90272971Y-57889921D01*
X89712672Y-57657265D01*
X89105989Y-57656735D01*
X88545285Y-57888414D01*
X88115921Y-58317029D01*
X87963176Y-58684880D01*
X87858550Y-58432291D01*
X87650515Y-58322262D01*
X86790777Y-59182000D01*
X86437223Y-59182000D01*
X85577485Y-58322262D01*
X85369450Y-58432291D01*
X85314730Y-58584161D01*
X85240348Y-58404143D01*
X84982142Y-58145485D01*
X85754262Y-58145485D01*
X86614000Y-59005223D01*
X87473738Y-58145485D01*
X87363709Y-57937450D01*
X86830373Y-57745284D01*
X86264095Y-57771845D01*
X85864291Y-57937450D01*
X85754262Y-58145485D01*
X84982142Y-58145485D01*
X84853892Y-58017011D01*
X84348704Y-57807239D01*
X84068000Y-57806994D01*
X84068000Y-57275000D01*
X91448000Y-57275000D01*
X91448000Y-63234844D01*
X91170143Y-63349652D01*
X90783011Y-63736108D01*
X90711441Y-63908467D01*
X90652550Y-63766291D01*
X90444515Y-63656262D01*
X89584777Y-64516000D01*
X90444515Y-65375738D01*
X90652550Y-65265709D01*
X90707270Y-65113839D01*
X90781652Y-65293857D01*
X91168108Y-65680989D01*
X91673296Y-65890761D01*
X92220305Y-65891238D01*
X92552446Y-65754000D01*
X94014999Y-65754000D01*
X94015000Y-65754005D01*
X94015000Y-67564000D01*
X94150114Y-68243263D01*
X94254715Y-68399810D01*
X94254715Y-68814000D01*
X94291323Y-69008553D01*
X94406304Y-69187239D01*
X94581744Y-69307112D01*
X94790000Y-69349285D01*
X96790000Y-69349285D01*
X96984553Y-69312677D01*
X97163239Y-69197696D01*
X97283112Y-69022256D01*
X97325285Y-68814000D01*
X97325285Y-68399810D01*
X97429886Y-68243263D01*
X97519001Y-67795250D01*
X98365000Y-67795250D01*
X98365000Y-68898538D01*
X98429702Y-69054743D01*
X98549257Y-69174298D01*
X98705462Y-69239000D01*
X99558750Y-69239000D01*
X99665000Y-69132750D01*
X99665000Y-67689000D01*
X99915000Y-67689000D01*
X99915000Y-69132750D01*
X100021250Y-69239000D01*
X100874538Y-69239000D01*
X101030743Y-69174298D01*
X101150298Y-69054743D01*
X101215000Y-68898538D01*
X101215000Y-67795250D01*
X101108750Y-67689000D01*
X99915000Y-67689000D01*
X99665000Y-67689000D01*
X98471250Y-67689000D01*
X98365000Y-67795250D01*
X97519001Y-67795250D01*
X97565000Y-67564000D01*
X97565000Y-66489230D01*
X97824767Y-66229462D01*
X98365000Y-66229462D01*
X98365000Y-67332750D01*
X98471250Y-67439000D01*
X99665000Y-67439000D01*
X99665000Y-67419000D01*
X99915000Y-67419000D01*
X99915000Y-67439000D01*
X101108750Y-67439000D01*
X101215000Y-67332750D01*
X101215000Y-66229462D01*
X101150298Y-66073257D01*
X101030743Y-65953702D01*
X100874538Y-65889000D01*
X100261605Y-65889000D01*
X100571709Y-65760550D01*
X100681738Y-65552515D01*
X99822000Y-64692777D01*
X98962262Y-65552515D01*
X99072291Y-65760550D01*
X99428790Y-65889000D01*
X98705462Y-65889000D01*
X98549257Y-65953702D01*
X98429702Y-66073257D01*
X98365000Y-66229462D01*
X97824767Y-66229462D01*
X98283114Y-65771115D01*
X98609492Y-65282656D01*
X98785485Y-65375738D01*
X99645223Y-64516000D01*
X98785485Y-63656262D01*
X98609492Y-63749344D01*
X98429178Y-63479485D01*
X98962262Y-63479485D01*
X99822000Y-64339223D01*
X100681738Y-63479485D01*
X100571709Y-63271450D01*
X100038373Y-63079284D01*
X99472095Y-63105845D01*
X99072291Y-63271450D01*
X98962262Y-63479485D01*
X98429178Y-63479485D01*
X98283114Y-63260886D01*
X97707263Y-62876114D01*
X97028000Y-62741000D01*
X96348737Y-62876114D01*
X95772885Y-63260886D01*
X94534885Y-64498885D01*
X94150114Y-65074737D01*
X94014999Y-65754000D01*
X92552446Y-65754000D01*
X92725857Y-65682348D01*
X93112989Y-65295892D01*
X93322761Y-64790704D01*
X93323238Y-64243695D01*
X93114348Y-63738143D01*
X92727892Y-63351011D01*
X92448000Y-63234790D01*
X92448000Y-57275000D01*
X93397893Y-57275000D01*
X93880446Y-57757553D01*
X93880449Y-57757555D01*
X93988000Y-57865106D01*
X93988000Y-57900844D01*
X93710143Y-58015652D01*
X93323011Y-58402108D01*
X93113239Y-58907296D01*
X93112762Y-59454305D01*
X93321652Y-59959857D01*
X93708108Y-60346989D01*
X94213296Y-60556761D01*
X94760305Y-60557238D01*
X95265857Y-60348348D01*
X95395917Y-60218515D01*
X96168262Y-60218515D01*
X96278291Y-60426550D01*
X96811627Y-60618716D01*
X97377905Y-60592155D01*
X97777709Y-60426550D01*
X97887738Y-60218515D01*
X97028000Y-59358777D01*
X96168262Y-60218515D01*
X95395917Y-60218515D01*
X95652989Y-59961892D01*
X95724559Y-59789533D01*
X95783450Y-59931709D01*
X95991485Y-60041738D01*
X96851223Y-59182000D01*
X97204777Y-59182000D01*
X98064515Y-60041738D01*
X98272550Y-59931709D01*
X98369985Y-59661289D01*
X98528414Y-60044715D01*
X98957029Y-60474079D01*
X99517328Y-60706735D01*
X100124011Y-60707265D01*
X100684715Y-60475586D01*
X101114079Y-60046971D01*
X101346735Y-59486672D01*
X101347265Y-58879989D01*
X101115586Y-58319285D01*
X100686971Y-57889921D01*
X100126672Y-57657265D01*
X99519989Y-57656735D01*
X98959285Y-57888414D01*
X98529921Y-58317029D01*
X98377176Y-58684880D01*
X98272550Y-58432291D01*
X98064515Y-58322262D01*
X97204777Y-59182000D01*
X96851223Y-59182000D01*
X95991485Y-58322262D01*
X95783450Y-58432291D01*
X95728730Y-58584161D01*
X95654348Y-58404143D01*
X95396142Y-58145485D01*
X96168262Y-58145485D01*
X97028000Y-59005223D01*
X97887738Y-58145485D01*
X97777709Y-57937450D01*
X97244373Y-57745284D01*
X96678095Y-57771845D01*
X96278291Y-57937450D01*
X96168262Y-58145485D01*
X95396142Y-58145485D01*
X95267892Y-58017011D01*
X94988000Y-57900790D01*
X94988000Y-57658000D01*
X94949940Y-57466658D01*
X94841553Y-57304446D01*
X94812107Y-57275000D01*
X100255893Y-57275000D01*
X101862000Y-58881107D01*
X101862000Y-63234844D01*
X101584143Y-63349652D01*
X101197011Y-63736108D01*
X101125441Y-63908467D01*
X101066550Y-63766291D01*
X100858515Y-63656262D01*
X99998777Y-64516000D01*
X100858515Y-65375738D01*
X101066550Y-65265709D01*
X101121270Y-65113839D01*
X101195652Y-65293857D01*
X101582108Y-65680989D01*
X102087296Y-65890761D01*
X102634305Y-65891238D01*
X102966446Y-65754000D01*
X104428999Y-65754000D01*
X104429000Y-65754005D01*
X104429000Y-67564000D01*
X104564114Y-68243263D01*
X104668715Y-68399810D01*
X104668715Y-68814000D01*
X104705323Y-69008553D01*
X104820304Y-69187239D01*
X104995744Y-69307112D01*
X105204000Y-69349285D01*
X107204000Y-69349285D01*
X107398553Y-69312677D01*
X107577239Y-69197696D01*
X107697112Y-69022256D01*
X107739285Y-68814000D01*
X107739285Y-68399810D01*
X107843886Y-68243263D01*
X107933001Y-67795250D01*
X108779000Y-67795250D01*
X108779000Y-68898538D01*
X108843702Y-69054743D01*
X108963257Y-69174298D01*
X109119462Y-69239000D01*
X109972750Y-69239000D01*
X110079000Y-69132750D01*
X110079000Y-67689000D01*
X110329000Y-67689000D01*
X110329000Y-69132750D01*
X110435250Y-69239000D01*
X111288538Y-69239000D01*
X111444743Y-69174298D01*
X111564298Y-69054743D01*
X111629000Y-68898538D01*
X111629000Y-67795250D01*
X111522750Y-67689000D01*
X110329000Y-67689000D01*
X110079000Y-67689000D01*
X108885250Y-67689000D01*
X108779000Y-67795250D01*
X107933001Y-67795250D01*
X107979000Y-67564000D01*
X107979000Y-66489230D01*
X108238767Y-66229462D01*
X108779000Y-66229462D01*
X108779000Y-67332750D01*
X108885250Y-67439000D01*
X110079000Y-67439000D01*
X110079000Y-67419000D01*
X110329000Y-67419000D01*
X110329000Y-67439000D01*
X111522750Y-67439000D01*
X111629000Y-67332750D01*
X111629000Y-66229462D01*
X111564298Y-66073257D01*
X111444743Y-65953702D01*
X111288538Y-65889000D01*
X110675605Y-65889000D01*
X110985709Y-65760550D01*
X111095738Y-65552515D01*
X110236000Y-64692777D01*
X109376262Y-65552515D01*
X109486291Y-65760550D01*
X109842790Y-65889000D01*
X109119462Y-65889000D01*
X108963257Y-65953702D01*
X108843702Y-66073257D01*
X108779000Y-66229462D01*
X108238767Y-66229462D01*
X108697114Y-65771115D01*
X109023492Y-65282656D01*
X109199485Y-65375738D01*
X110059223Y-64516000D01*
X109199485Y-63656262D01*
X109023492Y-63749344D01*
X108843178Y-63479485D01*
X109376262Y-63479485D01*
X110236000Y-64339223D01*
X111095738Y-63479485D01*
X110985709Y-63271450D01*
X110452373Y-63079284D01*
X109886095Y-63105845D01*
X109486291Y-63271450D01*
X109376262Y-63479485D01*
X108843178Y-63479485D01*
X108697114Y-63260886D01*
X108121263Y-62876114D01*
X107442000Y-62741000D01*
X106762737Y-62876114D01*
X106186885Y-63260886D01*
X104948885Y-64498885D01*
X104564114Y-65074737D01*
X104428999Y-65754000D01*
X102966446Y-65754000D01*
X103139857Y-65682348D01*
X103526989Y-65295892D01*
X103736761Y-64790704D01*
X103737238Y-64243695D01*
X103528348Y-63738143D01*
X103141892Y-63351011D01*
X102862000Y-63234790D01*
X102862000Y-58674000D01*
X102823940Y-58482658D01*
X102715553Y-58320446D01*
X101670107Y-57275000D01*
X102033894Y-57275000D01*
X103568008Y-58809114D01*
X103527239Y-58907296D01*
X103526762Y-59454305D01*
X103735652Y-59959857D01*
X104122108Y-60346989D01*
X104627296Y-60556761D01*
X105174305Y-60557238D01*
X105679857Y-60348348D01*
X105809917Y-60218515D01*
X106582262Y-60218515D01*
X106692291Y-60426550D01*
X107225627Y-60618716D01*
X107791905Y-60592155D01*
X108191709Y-60426550D01*
X108301738Y-60218515D01*
X107442000Y-59358777D01*
X106582262Y-60218515D01*
X105809917Y-60218515D01*
X106066989Y-59961892D01*
X106138559Y-59789533D01*
X106197450Y-59931709D01*
X106405485Y-60041738D01*
X107265223Y-59182000D01*
X106405485Y-58322262D01*
X106197450Y-58432291D01*
X106142730Y-58584161D01*
X106068348Y-58404143D01*
X105810142Y-58145485D01*
X106582262Y-58145485D01*
X107442000Y-59005223D01*
X108301738Y-58145485D01*
X108191709Y-57937450D01*
X107658373Y-57745284D01*
X107092095Y-57771845D01*
X106692291Y-57937450D01*
X106582262Y-58145485D01*
X105810142Y-58145485D01*
X105681892Y-58017011D01*
X105176704Y-57807239D01*
X104629695Y-57806762D01*
X104169866Y-57996759D01*
X103448107Y-57275000D01*
X110415894Y-57275000D01*
X110980998Y-57840104D01*
X110540672Y-57657265D01*
X109933989Y-57656735D01*
X109373285Y-57888414D01*
X108943921Y-58317029D01*
X108791176Y-58684880D01*
X108686550Y-58432291D01*
X108478515Y-58322262D01*
X107618777Y-59182000D01*
X108478515Y-60041738D01*
X108686550Y-59931709D01*
X108783985Y-59661289D01*
X108942414Y-60044715D01*
X109371029Y-60474079D01*
X109931328Y-60706735D01*
X110538011Y-60707265D01*
X111098715Y-60475586D01*
X111528079Y-60046971D01*
X111760735Y-59486672D01*
X111761265Y-58879989D01*
X111578458Y-58437564D01*
X112276000Y-59135106D01*
X112276000Y-63234844D01*
X111998143Y-63349652D01*
X111611011Y-63736108D01*
X111539441Y-63908467D01*
X111480550Y-63766291D01*
X111272515Y-63656262D01*
X110412777Y-64516000D01*
X111272515Y-65375738D01*
X111480550Y-65265709D01*
X111535270Y-65113839D01*
X111609652Y-65293857D01*
X111996108Y-65680989D01*
X112501296Y-65890761D01*
X113048305Y-65891238D01*
X113380446Y-65754000D01*
X114842999Y-65754000D01*
X114843000Y-65754005D01*
X114843000Y-67564000D01*
X114978114Y-68243263D01*
X115082715Y-68399810D01*
X115082715Y-68814000D01*
X115119323Y-69008553D01*
X115234304Y-69187239D01*
X115409744Y-69307112D01*
X115618000Y-69349285D01*
X117618000Y-69349285D01*
X117812553Y-69312677D01*
X117991239Y-69197696D01*
X118111112Y-69022256D01*
X118153285Y-68814000D01*
X118153285Y-68399810D01*
X118257886Y-68243263D01*
X118347001Y-67795250D01*
X119193000Y-67795250D01*
X119193000Y-68898538D01*
X119257702Y-69054743D01*
X119377257Y-69174298D01*
X119533462Y-69239000D01*
X120386750Y-69239000D01*
X120493000Y-69132750D01*
X120493000Y-67689000D01*
X120743000Y-67689000D01*
X120743000Y-69132750D01*
X120849250Y-69239000D01*
X121702538Y-69239000D01*
X121858743Y-69174298D01*
X121978298Y-69054743D01*
X122043000Y-68898538D01*
X122043000Y-67795250D01*
X121936750Y-67689000D01*
X120743000Y-67689000D01*
X120493000Y-67689000D01*
X119299250Y-67689000D01*
X119193000Y-67795250D01*
X118347001Y-67795250D01*
X118393000Y-67564000D01*
X118393000Y-66489230D01*
X118652767Y-66229462D01*
X119193000Y-66229462D01*
X119193000Y-67332750D01*
X119299250Y-67439000D01*
X120493000Y-67439000D01*
X120493000Y-67419000D01*
X120743000Y-67419000D01*
X120743000Y-67439000D01*
X121936750Y-67439000D01*
X122043000Y-67332750D01*
X122043000Y-66229462D01*
X121978298Y-66073257D01*
X121858743Y-65953702D01*
X121702538Y-65889000D01*
X121089605Y-65889000D01*
X121399709Y-65760550D01*
X121509738Y-65552515D01*
X120650000Y-64692777D01*
X119790262Y-65552515D01*
X119900291Y-65760550D01*
X120256790Y-65889000D01*
X119533462Y-65889000D01*
X119377257Y-65953702D01*
X119257702Y-66073257D01*
X119193000Y-66229462D01*
X118652767Y-66229462D01*
X119111114Y-65771115D01*
X119437492Y-65282656D01*
X119613485Y-65375738D01*
X120473223Y-64516000D01*
X119613485Y-63656262D01*
X119437492Y-63749344D01*
X119257178Y-63479485D01*
X119790262Y-63479485D01*
X120650000Y-64339223D01*
X121509738Y-63479485D01*
X121399709Y-63271450D01*
X120866373Y-63079284D01*
X120300095Y-63105845D01*
X119900291Y-63271450D01*
X119790262Y-63479485D01*
X119257178Y-63479485D01*
X119111114Y-63260886D01*
X118535263Y-62876114D01*
X117856000Y-62741000D01*
X117176737Y-62876114D01*
X116600885Y-63260886D01*
X115362885Y-64498885D01*
X114978114Y-65074737D01*
X114842999Y-65754000D01*
X113380446Y-65754000D01*
X113553857Y-65682348D01*
X113940989Y-65295892D01*
X114150761Y-64790704D01*
X114151238Y-64243695D01*
X113942348Y-63738143D01*
X113555892Y-63351011D01*
X113276000Y-63234790D01*
X113276000Y-58928000D01*
X113237940Y-58736658D01*
X113129553Y-58574447D01*
X111830106Y-57275000D01*
X113971893Y-57275000D01*
X114454446Y-57757553D01*
X114454449Y-57757555D01*
X114661553Y-57964660D01*
X114538143Y-58015652D01*
X114151011Y-58402108D01*
X113941239Y-58907296D01*
X113940762Y-59454305D01*
X114149652Y-59959857D01*
X114536108Y-60346989D01*
X115041296Y-60556761D01*
X115588305Y-60557238D01*
X116093857Y-60348348D01*
X116223917Y-60218515D01*
X116996262Y-60218515D01*
X117106291Y-60426550D01*
X117639627Y-60618716D01*
X118205905Y-60592155D01*
X118605709Y-60426550D01*
X118715738Y-60218515D01*
X117856000Y-59358777D01*
X116996262Y-60218515D01*
X116223917Y-60218515D01*
X116480989Y-59961892D01*
X116552559Y-59789533D01*
X116611450Y-59931709D01*
X116819485Y-60041738D01*
X117679223Y-59182000D01*
X118032777Y-59182000D01*
X118892515Y-60041738D01*
X119100550Y-59931709D01*
X119197985Y-59661289D01*
X119356414Y-60044715D01*
X119785029Y-60474079D01*
X120345328Y-60706735D01*
X120952011Y-60707265D01*
X121512715Y-60475586D01*
X121942079Y-60046971D01*
X122174735Y-59486672D01*
X122175265Y-58879989D01*
X121943586Y-58319285D01*
X121514971Y-57889921D01*
X120954672Y-57657265D01*
X120347989Y-57656735D01*
X119787285Y-57888414D01*
X119357921Y-58317029D01*
X119205176Y-58684880D01*
X119100550Y-58432291D01*
X118892515Y-58322262D01*
X118032777Y-59182000D01*
X117679223Y-59182000D01*
X116819485Y-58322262D01*
X116611450Y-58432291D01*
X116556730Y-58584161D01*
X116482348Y-58404143D01*
X116224142Y-58145485D01*
X116996262Y-58145485D01*
X117856000Y-59005223D01*
X118715738Y-58145485D01*
X118605709Y-57937450D01*
X118072373Y-57745284D01*
X117506095Y-57771845D01*
X117106291Y-57937450D01*
X116996262Y-58145485D01*
X116224142Y-58145485D01*
X116095892Y-58017011D01*
X115813569Y-57899781D01*
X115777940Y-57720658D01*
X115776604Y-57718658D01*
X115669553Y-57558446D01*
X115386106Y-57275000D01*
X121337893Y-57275000D01*
X122690000Y-58627107D01*
X122690000Y-63234844D01*
X122412143Y-63349652D01*
X122025011Y-63736108D01*
X121953441Y-63908467D01*
X121894550Y-63766291D01*
X121686515Y-63656262D01*
X120826777Y-64516000D01*
X121686515Y-65375738D01*
X121894550Y-65265709D01*
X121949270Y-65113839D01*
X122023652Y-65293857D01*
X122410108Y-65680989D01*
X122915296Y-65890761D01*
X123462305Y-65891238D01*
X123967857Y-65682348D01*
X124354989Y-65295892D01*
X124564761Y-64790704D01*
X124565238Y-64243695D01*
X124356348Y-63738143D01*
X123969892Y-63351011D01*
X123690000Y-63234790D01*
X123690000Y-58420000D01*
X123651940Y-58228658D01*
X123642186Y-58214060D01*
X123543553Y-58066446D01*
X122752107Y-57275000D01*
X124131894Y-57275000D01*
X124912310Y-58055416D01*
X124565011Y-58402108D01*
X124355239Y-58907296D01*
X124354762Y-59454305D01*
X124563652Y-59959857D01*
X124950108Y-60346989D01*
X125455296Y-60556761D01*
X126002305Y-60557238D01*
X126507857Y-60348348D01*
X126637917Y-60218515D01*
X127410262Y-60218515D01*
X127520291Y-60426550D01*
X128053627Y-60618716D01*
X128619905Y-60592155D01*
X129019709Y-60426550D01*
X129129738Y-60218515D01*
X128270000Y-59358777D01*
X127410262Y-60218515D01*
X126637917Y-60218515D01*
X126894989Y-59961892D01*
X126966559Y-59789533D01*
X127025450Y-59931709D01*
X127233485Y-60041738D01*
X128093223Y-59182000D01*
X127233485Y-58322262D01*
X127025450Y-58432291D01*
X126970730Y-58584161D01*
X126896348Y-58404143D01*
X126638142Y-58145485D01*
X127410262Y-58145485D01*
X128270000Y-59005223D01*
X129129738Y-58145485D01*
X129019709Y-57937450D01*
X128486373Y-57745284D01*
X127920095Y-57771845D01*
X127520291Y-57937450D01*
X127410262Y-58145485D01*
X126638142Y-58145485D01*
X126509892Y-58017011D01*
X126109015Y-57850553D01*
X126083553Y-57812446D01*
X125575553Y-57304447D01*
X125546106Y-57275000D01*
X129669000Y-57275000D01*
X129669000Y-58805165D01*
X129514550Y-58432291D01*
X129306515Y-58322262D01*
X128446777Y-59182000D01*
X129306515Y-60041738D01*
X129514550Y-59931709D01*
X129669000Y-59503050D01*
X129669000Y-63908405D01*
X129563586Y-63653285D01*
X129134971Y-63223921D01*
X128574672Y-62991265D01*
X127967989Y-62990735D01*
X127407285Y-63222414D01*
X126977921Y-63651029D01*
X126745265Y-64211328D01*
X126744735Y-64818011D01*
X126976414Y-65378715D01*
X127405029Y-65808079D01*
X127965328Y-66040735D01*
X128572011Y-66041265D01*
X129132715Y-65809586D01*
X129562079Y-65380971D01*
X129669000Y-65123476D01*
X129669000Y-72773000D01*
X30930000Y-72773000D01*
X30930000Y-72097874D01*
X40092903Y-72097874D01*
X40235974Y-72333959D01*
X40867161Y-72571235D01*
X41541104Y-72548904D01*
X42060026Y-72333959D01*
X42203097Y-72097874D01*
X41148000Y-71042777D01*
X40092903Y-72097874D01*
X30930000Y-72097874D01*
X30930000Y-70585161D01*
X39442765Y-70585161D01*
X39465096Y-71259104D01*
X39680041Y-71778026D01*
X39916126Y-71921097D01*
X40971223Y-70866000D01*
X41324777Y-70866000D01*
X42379874Y-71921097D01*
X42615959Y-71778026D01*
X42853235Y-71146839D01*
X42830904Y-70472896D01*
X42615959Y-69953974D01*
X42379874Y-69810903D01*
X41324777Y-70866000D01*
X40971223Y-70866000D01*
X39916126Y-69810903D01*
X39680041Y-69953974D01*
X39442765Y-70585161D01*
X30930000Y-70585161D01*
X30930000Y-69634126D01*
X40092903Y-69634126D01*
X41148000Y-70689223D01*
X42203097Y-69634126D01*
X42060026Y-69398041D01*
X41428839Y-69160765D01*
X40754896Y-69183096D01*
X40235974Y-69398041D01*
X40092903Y-69634126D01*
X30930000Y-69634126D01*
X30930000Y-64516000D01*
X39342715Y-64516000D01*
X39342715Y-67056000D01*
X39379323Y-67250553D01*
X39494304Y-67429239D01*
X39669744Y-67549112D01*
X39878000Y-67591285D01*
X42418000Y-67591285D01*
X42612553Y-67554677D01*
X42791239Y-67439696D01*
X42911112Y-67264256D01*
X42953285Y-67056000D01*
X42953285Y-65552515D01*
X46892262Y-65552515D01*
X47002291Y-65760550D01*
X47535627Y-65952716D01*
X48101905Y-65926155D01*
X48501709Y-65760550D01*
X48611738Y-65552515D01*
X47752000Y-64692777D01*
X46892262Y-65552515D01*
X42953285Y-65552515D01*
X42953285Y-64516000D01*
X42916677Y-64321447D01*
X42902637Y-64299627D01*
X46315284Y-64299627D01*
X46341845Y-64865905D01*
X46507450Y-65265709D01*
X46715485Y-65375738D01*
X47575223Y-64516000D01*
X46715485Y-63656262D01*
X46507450Y-63766291D01*
X46315284Y-64299627D01*
X42902637Y-64299627D01*
X42801696Y-64142761D01*
X42626256Y-64022888D01*
X42418000Y-63980715D01*
X39878000Y-63980715D01*
X39683447Y-64017323D01*
X39504761Y-64132304D01*
X39384888Y-64307744D01*
X39342715Y-64516000D01*
X30930000Y-64516000D01*
X30930000Y-63479485D01*
X46892262Y-63479485D01*
X47752000Y-64339223D01*
X48611738Y-63479485D01*
X48501709Y-63271450D01*
X47968373Y-63079284D01*
X47402095Y-63105845D01*
X47002291Y-63271450D01*
X46892262Y-63479485D01*
X30930000Y-63479485D01*
X30930000Y-59484011D01*
X46226735Y-59484011D01*
X46458414Y-60044715D01*
X46887029Y-60474079D01*
X47447328Y-60706735D01*
X48054011Y-60707265D01*
X48614715Y-60475586D01*
X49044079Y-60046971D01*
X49276735Y-59486672D01*
X49277265Y-58879989D01*
X49045586Y-58319285D01*
X48616971Y-57889921D01*
X48056672Y-57657265D01*
X47449989Y-57656735D01*
X46889285Y-57888414D01*
X46459921Y-58317029D01*
X46227265Y-58877328D01*
X46226735Y-59484011D01*
X30930000Y-59484011D01*
X30930000Y-58004250D01*
X33669000Y-58004250D01*
X33669000Y-58107538D01*
X33733702Y-58263743D01*
X33853257Y-58383298D01*
X34009462Y-58448000D01*
X34312750Y-58448000D01*
X34419000Y-58341750D01*
X34419000Y-57898000D01*
X34669000Y-57898000D01*
X34669000Y-58341750D01*
X34775250Y-58448000D01*
X35078538Y-58448000D01*
X35234743Y-58383298D01*
X35354298Y-58263743D01*
X35419000Y-58107538D01*
X35419000Y-58004250D01*
X35312750Y-57898000D01*
X34669000Y-57898000D01*
X34419000Y-57898000D01*
X33775250Y-57898000D01*
X33669000Y-58004250D01*
X30930000Y-58004250D01*
X30930000Y-57275000D01*
X33740959Y-57275000D01*
X33733702Y-57282257D01*
M02*
