G04 #@! TF.FileFunction,Soldermask,Top*
%FSLAX46Y46*%
G04 Gerber Fmt 4.6, Leading zero omitted, Abs format (unit mm)*
G04 Created by KiCad (PCBNEW 4.0.0-stable) date 06.09.2016 12:35:27*
%MOMM*%
G01*
G04 APERTURE LIST*
%ADD10C,0.100000*%
%ADD11C,2.000000*%
%ADD12R,2.940000X2.940000*%
%ADD13C,2.940000*%
%ADD14C,2.400000*%
%ADD15C,3.900000*%
G04 APERTURE END LIST*
D10*
D11*
X41910000Y-42672000D03*
X36830000Y-42672000D03*
X41910000Y-45212000D03*
X36830000Y-45212000D03*
X36830000Y-40132000D03*
X41910000Y-40132000D03*
X36830000Y-47752000D03*
X41910000Y-47752000D03*
X36830000Y-50292000D03*
X36830000Y-52832000D03*
X36830000Y-55372000D03*
X36830000Y-57912000D03*
X41910000Y-50292000D03*
X41910000Y-52832000D03*
X41910000Y-55372000D03*
X41910000Y-57912000D03*
D12*
X41148000Y-65786000D03*
D13*
X41148000Y-70866000D03*
D12*
X119634000Y-34290000D03*
D13*
X114554000Y-34290000D03*
D12*
X114554000Y-89408000D03*
D13*
X119634000Y-89408000D03*
D12*
X109220000Y-34290000D03*
D13*
X104140000Y-34290000D03*
D12*
X104140000Y-89408000D03*
D13*
X109220000Y-89408000D03*
D12*
X98806000Y-34290000D03*
D13*
X93726000Y-34290000D03*
D12*
X93726000Y-89408000D03*
D13*
X98806000Y-89408000D03*
D12*
X88392000Y-34290000D03*
D13*
X83312000Y-34290000D03*
D12*
X83312000Y-89408000D03*
D13*
X88392000Y-89408000D03*
D14*
X120650000Y-59182000D03*
X125730000Y-59182000D03*
X128270000Y-59182000D03*
X120650000Y-41402000D03*
X128270000Y-41402000D03*
X128270000Y-64516000D03*
X123190000Y-64516000D03*
X120650000Y-64516000D03*
X128270000Y-82296000D03*
X120650000Y-82296000D03*
X110236000Y-59182000D03*
X115316000Y-59182000D03*
X117856000Y-59182000D03*
X110236000Y-41402000D03*
X117856000Y-41402000D03*
X117856000Y-64516000D03*
X112776000Y-64516000D03*
X110236000Y-64516000D03*
X117856000Y-82296000D03*
X110236000Y-82296000D03*
X99822000Y-59182000D03*
X104902000Y-59182000D03*
X107442000Y-59182000D03*
X99822000Y-41402000D03*
X107442000Y-41402000D03*
X107442000Y-64516000D03*
X102362000Y-64516000D03*
X99822000Y-64516000D03*
X107442000Y-82296000D03*
X99822000Y-82296000D03*
X89408000Y-59182000D03*
X94488000Y-59182000D03*
X97028000Y-59182000D03*
X89408000Y-41402000D03*
X97028000Y-41402000D03*
X97028000Y-64516000D03*
X91948000Y-64516000D03*
X89408000Y-64516000D03*
X97028000Y-82296000D03*
X89408000Y-82296000D03*
D12*
X77978000Y-34290000D03*
D13*
X72898000Y-34290000D03*
D12*
X72898000Y-89408000D03*
D13*
X77978000Y-89408000D03*
D12*
X67564000Y-34290000D03*
D13*
X62484000Y-34290000D03*
D12*
X62484000Y-89408000D03*
D13*
X67564000Y-89408000D03*
D12*
X57150000Y-34290000D03*
D13*
X52070000Y-34290000D03*
D12*
X52070000Y-89408000D03*
D13*
X57150000Y-89408000D03*
D12*
X46736000Y-34290000D03*
D13*
X41656000Y-34290000D03*
D12*
X41656000Y-89408000D03*
D13*
X46736000Y-89408000D03*
D14*
X78994000Y-59182000D03*
X84074000Y-59182000D03*
X86614000Y-59182000D03*
X78994000Y-41402000D03*
X86614000Y-41402000D03*
X86614000Y-64516000D03*
X81534000Y-64516000D03*
X78994000Y-64516000D03*
X86614000Y-82296000D03*
X78994000Y-82296000D03*
X68580000Y-59182000D03*
X73660000Y-59182000D03*
X76200000Y-59182000D03*
X68580000Y-41402000D03*
X76200000Y-41402000D03*
X76200000Y-64516000D03*
X71120000Y-64516000D03*
X68580000Y-64516000D03*
X76200000Y-82296000D03*
X68580000Y-82296000D03*
X58166000Y-59182000D03*
X63246000Y-59182000D03*
X65786000Y-59182000D03*
X58166000Y-41402000D03*
X65786000Y-41402000D03*
X65786000Y-64516000D03*
X60706000Y-64516000D03*
X58166000Y-64516000D03*
X65786000Y-82296000D03*
X58166000Y-82296000D03*
X47752000Y-59182000D03*
X52832000Y-59182000D03*
X55372000Y-59182000D03*
X47752000Y-41402000D03*
X55372000Y-41402000D03*
X55372000Y-64516000D03*
X50292000Y-64516000D03*
X47752000Y-64516000D03*
X55372000Y-82296000D03*
X47752000Y-82296000D03*
D15*
X35306000Y-34290000D03*
X125984000Y-34290000D03*
X35306000Y-89408000D03*
X125984000Y-89408000D03*
M02*
