G04 #@! TF.FileFunction,Paste,Bot*
%FSLAX46Y46*%
G04 Gerber Fmt 4.6, Leading zero omitted, Abs format (unit mm)*
G04 Created by KiCad (PCBNEW 4.0.0-stable) date 06.09.2016 12:35:27*
%MOMM*%
G01*
G04 APERTURE LIST*
%ADD10C,0.100000*%
%ADD11R,2.000000X2.500000*%
%ADD12R,1.500000X1.250000*%
%ADD13R,2.500000X2.000000*%
%ADD14R,0.900000X0.500000*%
%ADD15R,2.000000X0.400000*%
%ADD16R,1.300000X1.500000*%
G04 APERTURE END LIST*
D10*
D11*
X64548000Y-67564000D03*
X68548000Y-67564000D03*
X74962000Y-67564000D03*
X78962000Y-67564000D03*
X85376000Y-67564000D03*
X89376000Y-67564000D03*
X95790000Y-67564000D03*
X99790000Y-67564000D03*
X54134000Y-67564000D03*
X58134000Y-67564000D03*
D12*
X83586000Y-46228000D03*
X86086000Y-46228000D03*
D13*
X96012000Y-45498000D03*
X96012000Y-49498000D03*
D14*
X34544000Y-56273000D03*
X34544000Y-57773000D03*
X119634000Y-30746000D03*
X119634000Y-32246000D03*
X120650000Y-44692000D03*
X120650000Y-43192000D03*
X114554000Y-92952000D03*
X114554000Y-91452000D03*
X128270000Y-79006000D03*
X128270000Y-80506000D03*
X109220000Y-30746000D03*
X109220000Y-32246000D03*
X110236000Y-44692000D03*
X110236000Y-43192000D03*
X104140000Y-92952000D03*
X104140000Y-91452000D03*
X117856000Y-79006000D03*
X117856000Y-80506000D03*
X98806000Y-30746000D03*
X98806000Y-32246000D03*
X99822000Y-44692000D03*
X99822000Y-43192000D03*
X93726000Y-92952000D03*
X93726000Y-91452000D03*
X107442000Y-79006000D03*
X107442000Y-80506000D03*
X88392000Y-30746000D03*
X88392000Y-32246000D03*
X91440000Y-42914000D03*
X91440000Y-41414000D03*
X83312000Y-92952000D03*
X83312000Y-91452000D03*
D15*
X90168000Y-48099000D03*
X83568000Y-56549000D03*
X90168000Y-48749000D03*
X90168000Y-49399000D03*
X90168000Y-50049000D03*
X90168000Y-50699000D03*
X90168000Y-51349000D03*
X90168000Y-51999000D03*
X90168000Y-52649000D03*
X90168000Y-53299000D03*
X90168000Y-53949000D03*
X90168000Y-54599000D03*
X90168000Y-55249000D03*
X90168000Y-55899000D03*
X90168000Y-56549000D03*
X83568000Y-55899000D03*
X83568000Y-55249000D03*
X83568000Y-54599000D03*
X83568000Y-53949000D03*
X83568000Y-53299000D03*
X83568000Y-52649000D03*
X83568000Y-51999000D03*
X83568000Y-51349000D03*
X83568000Y-50699000D03*
X83568000Y-50049000D03*
X83568000Y-49399000D03*
X83568000Y-48749000D03*
X83568000Y-48099000D03*
D14*
X80518000Y-51296000D03*
X80518000Y-49796000D03*
X97028000Y-79006000D03*
X97028000Y-80506000D03*
X77978000Y-30746000D03*
X77978000Y-32246000D03*
X78994000Y-44692000D03*
X78994000Y-43192000D03*
X72898000Y-92952000D03*
X72898000Y-91452000D03*
X86614000Y-79006000D03*
X86614000Y-80506000D03*
X67564000Y-30746000D03*
X67564000Y-32246000D03*
X68580000Y-44692000D03*
X68580000Y-43192000D03*
X62484000Y-92952000D03*
X62484000Y-91452000D03*
X76200000Y-79006000D03*
X76200000Y-80506000D03*
X57150000Y-30746000D03*
X57150000Y-32246000D03*
X58166000Y-44692000D03*
X58166000Y-43192000D03*
X52070000Y-92952000D03*
X52070000Y-91452000D03*
X65786000Y-79006000D03*
X65786000Y-80506000D03*
X46736000Y-30746000D03*
X46736000Y-32246000D03*
X47752000Y-44692000D03*
X47752000Y-43192000D03*
X41656000Y-92952000D03*
X41656000Y-91452000D03*
X55372000Y-79006000D03*
X55372000Y-80506000D03*
D11*
X106204000Y-67564000D03*
X110204000Y-67564000D03*
X116618000Y-67564000D03*
X120618000Y-67564000D03*
D16*
X44450000Y-45132000D03*
X44450000Y-47832000D03*
X34290000Y-45132000D03*
X34290000Y-47832000D03*
M02*
