G04 #@! TF.FileFunction,Legend,Bot*
%FSLAX46Y46*%
G04 Gerber Fmt 4.6, Leading zero omitted, Abs format (unit mm)*
G04 Created by KiCad (PCBNEW 4.0.0-stable) date 04.02.2016 17:28:42*
%MOMM*%
G01*
G04 APERTURE LIST*
%ADD10C,0.100000*%
%ADD11C,0.300000*%
%ADD12C,0.150000*%
%ADD13R,2.200860X2.899360*%
%ADD14C,2.000000*%
%ADD15R,2.940000X2.940000*%
%ADD16C,2.940000*%
%ADD17C,2.600000*%
%ADD18R,2.200000X1.000000*%
%ADD19R,1.000000X2.200000*%
%ADD20R,2.432000X2.432000*%
%ADD21O,2.432000X2.432000*%
G04 APERTURE END LIST*
D10*
D11*
X157414571Y-124507142D02*
X157486000Y-124435713D01*
X157557429Y-124292856D01*
X157557429Y-123935713D01*
X157486000Y-123792856D01*
X157414571Y-123721427D01*
X157271714Y-123649999D01*
X157128857Y-123649999D01*
X156914571Y-123721427D01*
X156057429Y-124578570D01*
X156057429Y-123649999D01*
X157057429Y-122364285D02*
X156057429Y-122364285D01*
X157628857Y-122721428D02*
X156557429Y-123078571D01*
X156557429Y-122149999D01*
X157557429Y-121792857D02*
X156057429Y-121292857D01*
X157557429Y-120792857D01*
X155086000Y-124078572D02*
X155157429Y-124221429D01*
X155157429Y-124435715D01*
X155086000Y-124650000D01*
X154943143Y-124792858D01*
X154800286Y-124864286D01*
X154514571Y-124935715D01*
X154300286Y-124935715D01*
X154014571Y-124864286D01*
X153871714Y-124792858D01*
X153728857Y-124650000D01*
X153657429Y-124435715D01*
X153657429Y-124292858D01*
X153728857Y-124078572D01*
X153800286Y-124007143D01*
X154300286Y-124007143D01*
X154300286Y-124292858D01*
X153657429Y-123364286D02*
X155157429Y-123364286D01*
X153657429Y-122507143D01*
X155157429Y-122507143D01*
X153657429Y-121792857D02*
X155157429Y-121792857D01*
X155157429Y-121435714D01*
X155086000Y-121221429D01*
X154943143Y-121078571D01*
X154800286Y-121007143D01*
X154514571Y-120935714D01*
X154300286Y-120935714D01*
X154014571Y-121007143D01*
X153871714Y-121078571D01*
X153728857Y-121221429D01*
X153657429Y-121435714D01*
X153657429Y-121792857D01*
X151257429Y-122650000D02*
X151257429Y-123507143D01*
X151257429Y-123078571D02*
X152757429Y-123078571D01*
X152543143Y-123221428D01*
X152400286Y-123364286D01*
X152328857Y-123507143D01*
X152757429Y-122150000D02*
X151257429Y-121792857D01*
X152328857Y-121507143D01*
X151257429Y-121221429D01*
X152757429Y-120864286D01*
X148857429Y-122650000D02*
X148857429Y-123507143D01*
X148857429Y-123078571D02*
X150357429Y-123078571D01*
X150143143Y-123221428D01*
X150000286Y-123364286D01*
X149928857Y-123507143D01*
X150357429Y-122150000D02*
X148857429Y-121792857D01*
X149928857Y-121507143D01*
X148857429Y-121221429D01*
X150357429Y-120864286D01*
X147886000Y-124078572D02*
X147957429Y-124221429D01*
X147957429Y-124435715D01*
X147886000Y-124650000D01*
X147743143Y-124792858D01*
X147600286Y-124864286D01*
X147314571Y-124935715D01*
X147100286Y-124935715D01*
X146814571Y-124864286D01*
X146671714Y-124792858D01*
X146528857Y-124650000D01*
X146457429Y-124435715D01*
X146457429Y-124292858D01*
X146528857Y-124078572D01*
X146600286Y-124007143D01*
X147100286Y-124007143D01*
X147100286Y-124292858D01*
X146457429Y-123364286D02*
X147957429Y-123364286D01*
X146457429Y-122507143D01*
X147957429Y-122507143D01*
X146457429Y-121792857D02*
X147957429Y-121792857D01*
X147957429Y-121435714D01*
X147886000Y-121221429D01*
X147743143Y-121078571D01*
X147600286Y-121007143D01*
X147314571Y-120935714D01*
X147100286Y-120935714D01*
X146814571Y-121007143D01*
X146671714Y-121078571D01*
X146528857Y-121221429D01*
X146457429Y-121435714D01*
X146457429Y-121792857D01*
X145414571Y-124507142D02*
X145486000Y-124435713D01*
X145557429Y-124292856D01*
X145557429Y-123935713D01*
X145486000Y-123792856D01*
X145414571Y-123721427D01*
X145271714Y-123649999D01*
X145128857Y-123649999D01*
X144914571Y-123721427D01*
X144057429Y-124578570D01*
X144057429Y-123649999D01*
X145057429Y-122364285D02*
X144057429Y-122364285D01*
X145628857Y-122721428D02*
X144557429Y-123078571D01*
X144557429Y-122149999D01*
X145557429Y-121792857D02*
X144057429Y-121292857D01*
X145557429Y-120792857D01*
X142086000Y-121650000D02*
X142086000Y-120935714D01*
X141657429Y-121792857D02*
X143157429Y-121292857D01*
X141657429Y-120792857D01*
X140043143Y-121292857D02*
X139971714Y-121078571D01*
X139900286Y-121007143D01*
X139757429Y-120935714D01*
X139543143Y-120935714D01*
X139400286Y-121007143D01*
X139328857Y-121078571D01*
X139257429Y-121221429D01*
X139257429Y-121792857D01*
X140757429Y-121792857D01*
X140757429Y-121292857D01*
X140686000Y-121150000D01*
X140614571Y-121078571D01*
X140471714Y-121007143D01*
X140328857Y-121007143D01*
X140186000Y-121078571D01*
X140114571Y-121150000D01*
X140043143Y-121292857D01*
X140043143Y-121792857D01*
D12*
X140997940Y-105939140D02*
X141348460Y-105939140D01*
X144498060Y-105939140D02*
X144147540Y-105939140D01*
X140997940Y-101889560D02*
X141348460Y-101889560D01*
X140997940Y-106390440D02*
X141348460Y-106390440D01*
X144498060Y-106390440D02*
X144147540Y-106390440D01*
X144498060Y-101889560D02*
X144147540Y-101889560D01*
X140997940Y-106390440D02*
X140997940Y-101889560D01*
X144498060Y-106390440D02*
X144498060Y-101889560D01*
X156491940Y-105939140D02*
X156842460Y-105939140D01*
X159992060Y-105939140D02*
X159641540Y-105939140D01*
X156491940Y-101889560D02*
X156842460Y-101889560D01*
X156491940Y-106390440D02*
X156842460Y-106390440D01*
X159992060Y-106390440D02*
X159641540Y-106390440D01*
X159992060Y-101889560D02*
X159641540Y-101889560D01*
X156491940Y-106390440D02*
X156491940Y-101889560D01*
X159992060Y-106390440D02*
X159992060Y-101889560D01*
X155744381Y-106778095D02*
X154744381Y-106778095D01*
X155744381Y-107349524D02*
X155172952Y-106920952D01*
X154744381Y-107349524D02*
X155315810Y-106778095D01*
%LPC*%
D13*
X142748000Y-106138980D03*
X142748000Y-102141020D03*
X158242000Y-106138980D03*
X158242000Y-102141020D03*
D14*
X142240000Y-109220000D03*
X142240000Y-114300000D03*
X144780000Y-109220000D03*
X144780000Y-114300000D03*
X139700000Y-114300000D03*
X139700000Y-109220000D03*
X147320000Y-114300000D03*
X147320000Y-109220000D03*
X149860000Y-114300000D03*
X152400000Y-114300000D03*
X154940000Y-114300000D03*
X157480000Y-114300000D03*
X149860000Y-109220000D03*
X152400000Y-109220000D03*
X154940000Y-109220000D03*
X157480000Y-109220000D03*
D15*
X160020000Y-81280000D03*
D16*
X160020000Y-86360000D03*
D15*
X139700000Y-86360000D03*
D16*
X139700000Y-81280000D03*
D14*
X151200000Y-100760000D03*
D17*
X151200000Y-84380000D03*
X151200000Y-79340000D03*
D14*
X151200000Y-104540000D03*
X146120000Y-100760000D03*
D17*
X146120000Y-84380000D03*
X146120000Y-79340000D03*
D14*
X146120000Y-104540000D03*
D18*
X145768000Y-116078000D03*
X145768000Y-117348000D03*
X145768000Y-118618000D03*
X142268000Y-118618000D03*
X142268000Y-117348000D03*
X142268000Y-116078000D03*
D19*
X155448000Y-106652000D03*
X154178000Y-106652000D03*
X152908000Y-106652000D03*
X152908000Y-103152000D03*
X154178000Y-103152000D03*
X155448000Y-103152000D03*
D20*
X139700000Y-100838000D03*
D21*
X139700000Y-103378000D03*
D20*
X160782000Y-100838000D03*
D21*
X160782000Y-103378000D03*
M02*
