M48
;DRILL file {KiCad 4.0.0-stable} date 04.02.2016 17:28:48
;FORMAT={-:-/ absolute / metric / decimal}
FMAT,2
METRIC,TZ
T1C0.800
T2C0.900
T3C1.016
T4C1.100
T5C1.500
%
G90
G05
M71
T1
X146.12Y-100.76
X146.12Y-104.54
X151.2Y-100.76
X151.2Y-104.54
T2
X139.7Y-109.22
X139.7Y-114.3
X142.24Y-109.22
X142.24Y-114.3
X144.78Y-109.22
X144.78Y-114.3
X147.32Y-109.22
X147.32Y-114.3
X149.86Y-109.22
X149.86Y-114.3
X152.4Y-109.22
X152.4Y-114.3
X154.94Y-109.22
X154.94Y-114.3
X157.48Y-109.22
X157.48Y-114.3
T3
X139.7Y-100.838
X139.7Y-103.378
X160.782Y-100.838
X160.782Y-103.378
T4
X146.12Y-79.34
X146.12Y-84.38
X151.2Y-79.34
X151.2Y-84.38
T5
X139.7Y-81.28
X139.7Y-86.36
X160.02Y-81.28
X160.02Y-86.36
T0
M30
