%FSLAX45Y45*%
G04 Gerber Fmt 4.5, Leading zero omitted, Abs format (unit mm)*
G04 Created by KiCad (PCBNEW 4.0.0-stable) date 04.02.2016 17:28:49*
%MOMM*%
G01*
G04 APERTURE LIST*
%ADD10C,0.127000*%
%ADD11C,0.150000*%
%ADD12C,0.200000*%
%ADD13C,0.300000*%
G04 APERTURE END LIST*
D10*
D11*
X14097000Y-9525000D02*
X14097000Y-9779000D01*
X16002000Y-9525000D02*
X14097000Y-9525000D01*
X16002000Y-9779000D02*
X16002000Y-9525000D01*
X14097000Y-9779000D02*
X16002000Y-9779000D01*
X13589000Y-12192000D02*
X13589000Y-7874000D01*
X13970000Y-12573000D02*
X13589000Y-12192000D01*
X16002000Y-12573000D02*
X13970000Y-12573000D01*
X16383000Y-12192000D02*
X16002000Y-12573000D01*
X16383000Y-7874000D02*
X16383000Y-12192000D01*
X16256000Y-7747000D02*
X16383000Y-7874000D01*
X13716000Y-7747000D02*
X16256000Y-7747000D01*
X13589000Y-7874000D02*
X13716000Y-7747000D01*
D12*
X14572000Y-10036000D02*
X14652000Y-10116000D01*
X14652000Y-10036000D02*
X14572000Y-10116000D01*
X14572000Y-10414000D02*
X14652000Y-10494000D01*
X14652000Y-10414000D02*
X14572000Y-10494000D01*
X15080000Y-10036000D02*
X15160000Y-10116000D01*
X15160000Y-10036000D02*
X15080000Y-10116000D01*
X15080000Y-10414000D02*
X15160000Y-10494000D01*
X15160000Y-10414000D02*
X15080000Y-10494000D01*
X14015000Y-10922000D02*
G75*
G03X14015000Y-10922000I-45000J0D01*
G01*
X14015000Y-11430000D02*
G75*
G03X14015000Y-11430000I-45000J0D01*
G01*
X14269000Y-10922000D02*
G75*
G03X14269000Y-10922000I-45000J0D01*
G01*
X14269000Y-11430000D02*
G75*
G03X14269000Y-11430000I-45000J0D01*
G01*
X14523000Y-10922000D02*
G75*
G03X14523000Y-10922000I-45000J0D01*
G01*
X14523000Y-11430000D02*
G75*
G03X14523000Y-11430000I-45000J0D01*
G01*
X14777000Y-10922000D02*
G75*
G03X14777000Y-10922000I-45000J0D01*
G01*
X14777000Y-11430000D02*
G75*
G03X14777000Y-11430000I-45000J0D01*
G01*
X15031000Y-10922000D02*
G75*
G03X15031000Y-10922000I-45000J0D01*
G01*
X15031000Y-11430000D02*
G75*
G03X15031000Y-11430000I-45000J0D01*
G01*
X15285000Y-10922000D02*
G75*
G03X15285000Y-10922000I-45000J0D01*
G01*
X15285000Y-11430000D02*
G75*
G03X15285000Y-11430000I-45000J0D01*
G01*
X15539000Y-10922000D02*
G75*
G03X15539000Y-10922000I-45000J0D01*
G01*
X15539000Y-11430000D02*
G75*
G03X15539000Y-11430000I-45000J0D01*
G01*
X15793000Y-10922000D02*
G75*
G03X15793000Y-10922000I-45000J0D01*
G01*
X15793000Y-11430000D02*
G75*
G03X15793000Y-11430000I-45000J0D01*
G01*
X13970000Y-10033000D02*
X13970000Y-10134600D01*
X13919200Y-10083800D02*
X14020800Y-10083800D01*
X13970000Y-10287000D02*
X13970000Y-10388600D01*
X13919200Y-10337800D02*
X14020800Y-10337800D01*
X16078200Y-10033000D02*
X16078200Y-10134600D01*
X16027400Y-10083800D02*
X16129000Y-10083800D01*
X16078200Y-10287000D02*
X16078200Y-10388600D01*
X16027400Y-10337800D02*
X16129000Y-10337800D01*
X14650891Y-7972891D02*
X14650891Y-7895109D01*
X14573109Y-7895109D01*
X14573109Y-7972891D01*
X14650891Y-7972891D01*
X14650891Y-8476891D02*
X14650891Y-8399109D01*
X14573109Y-8399109D01*
X14573109Y-8476891D01*
X14650891Y-8476891D01*
X15158891Y-7972891D02*
X15158891Y-7895109D01*
X15081109Y-7895109D01*
X15081109Y-7972891D01*
X15158891Y-7972891D01*
X15158891Y-8476891D02*
X15158891Y-8399109D01*
X15081109Y-8399109D01*
X15081109Y-8476891D01*
X15158891Y-8476891D01*
X13970000Y-8203000D02*
X14045000Y-8128000D01*
X13970000Y-8053000D01*
X13895000Y-8128000D01*
X13970000Y-8203000D01*
X13970000Y-8711000D02*
X14045000Y-8636000D01*
X13970000Y-8561000D01*
X13895000Y-8636000D01*
X13970000Y-8711000D01*
X16002000Y-8203000D02*
X16077000Y-8128000D01*
X16002000Y-8053000D01*
X15927000Y-8128000D01*
X16002000Y-8203000D01*
X16002000Y-8711000D02*
X16077000Y-8636000D01*
X16002000Y-8561000D01*
X15927000Y-8636000D01*
X16002000Y-8711000D01*
D13*
X13852928Y-13046214D02*
X13852928Y-12746214D01*
X13924357Y-12746214D01*
X13967214Y-12760500D01*
X13995786Y-12789071D01*
X14010071Y-12817643D01*
X14024357Y-12874786D01*
X14024357Y-12917643D01*
X14010071Y-12974786D01*
X13995786Y-13003357D01*
X13967214Y-13031929D01*
X13924357Y-13046214D01*
X13852928Y-13046214D01*
X14152928Y-13046214D02*
X14152928Y-12846214D01*
X14152928Y-12903357D02*
X14167214Y-12874786D01*
X14181500Y-12860500D01*
X14210071Y-12846214D01*
X14238643Y-12846214D01*
X14338643Y-13046214D02*
X14338643Y-12846214D01*
X14338643Y-12746214D02*
X14324357Y-12760500D01*
X14338643Y-12774786D01*
X14352928Y-12760500D01*
X14338643Y-12746214D01*
X14338643Y-12774786D01*
X14524357Y-13046214D02*
X14495786Y-13031929D01*
X14481500Y-13003357D01*
X14481500Y-12746214D01*
X14681500Y-13046214D02*
X14652928Y-13031929D01*
X14638643Y-13003357D01*
X14638643Y-12746214D01*
X15024357Y-13046214D02*
X15024357Y-12746214D01*
X15124357Y-12960500D01*
X15224357Y-12746214D01*
X15224357Y-13046214D01*
X15495786Y-13046214D02*
X15495786Y-12889071D01*
X15481500Y-12860500D01*
X15452928Y-12846214D01*
X15395786Y-12846214D01*
X15367214Y-12860500D01*
X15495786Y-13031929D02*
X15467214Y-13046214D01*
X15395786Y-13046214D01*
X15367214Y-13031929D01*
X15352928Y-13003357D01*
X15352928Y-12974786D01*
X15367214Y-12946214D01*
X15395786Y-12931929D01*
X15467214Y-12931929D01*
X15495786Y-12917643D01*
X15638643Y-12846214D02*
X15638643Y-13146214D01*
X15638643Y-12860500D02*
X15667214Y-12846214D01*
X15724357Y-12846214D01*
X15752928Y-12860500D01*
X15767214Y-12874786D01*
X15781500Y-12903357D01*
X15781500Y-12989071D01*
X15767214Y-13017643D01*
X15752928Y-13031929D01*
X15724357Y-13046214D01*
X15667214Y-13046214D01*
X15638643Y-13031929D01*
X15910071Y-13017643D02*
X15924357Y-13031929D01*
X15910071Y-13046214D01*
X15895786Y-13031929D01*
X15910071Y-13017643D01*
X15910071Y-13046214D01*
X15910071Y-12860500D02*
X15924357Y-12874786D01*
X15910071Y-12889071D01*
X15895786Y-12874786D01*
X15910071Y-12860500D01*
X15910071Y-12889071D01*
X13501500Y-13500500D02*
X13581500Y-13580500D01*
X13581500Y-13500500D02*
X13501500Y-13580500D01*
X13910071Y-13376214D02*
X13938643Y-13376214D01*
X13967214Y-13390500D01*
X13981500Y-13404786D01*
X13995786Y-13433357D01*
X14010071Y-13490500D01*
X14010071Y-13561929D01*
X13995786Y-13619071D01*
X13981500Y-13647643D01*
X13967214Y-13661929D01*
X13938643Y-13676214D01*
X13910071Y-13676214D01*
X13881500Y-13661929D01*
X13867214Y-13647643D01*
X13852928Y-13619071D01*
X13838643Y-13561929D01*
X13838643Y-13490500D01*
X13852928Y-13433357D01*
X13867214Y-13404786D01*
X13881500Y-13390500D01*
X13910071Y-13376214D01*
X14138643Y-13647643D02*
X14152928Y-13661929D01*
X14138643Y-13676214D01*
X14124357Y-13661929D01*
X14138643Y-13647643D01*
X14138643Y-13676214D01*
X14324357Y-13504786D02*
X14295786Y-13490500D01*
X14281500Y-13476214D01*
X14267214Y-13447643D01*
X14267214Y-13433357D01*
X14281500Y-13404786D01*
X14295786Y-13390500D01*
X14324357Y-13376214D01*
X14381500Y-13376214D01*
X14410071Y-13390500D01*
X14424357Y-13404786D01*
X14438643Y-13433357D01*
X14438643Y-13447643D01*
X14424357Y-13476214D01*
X14410071Y-13490500D01*
X14381500Y-13504786D01*
X14324357Y-13504786D01*
X14295786Y-13519071D01*
X14281500Y-13533357D01*
X14267214Y-13561929D01*
X14267214Y-13619071D01*
X14281500Y-13647643D01*
X14295786Y-13661929D01*
X14324357Y-13676214D01*
X14381500Y-13676214D01*
X14410071Y-13661929D01*
X14424357Y-13647643D01*
X14438643Y-13619071D01*
X14438643Y-13561929D01*
X14424357Y-13533357D01*
X14410071Y-13519071D01*
X14381500Y-13504786D01*
X14624357Y-13376214D02*
X14652928Y-13376214D01*
X14681500Y-13390500D01*
X14695786Y-13404786D01*
X14710071Y-13433357D01*
X14724357Y-13490500D01*
X14724357Y-13561929D01*
X14710071Y-13619071D01*
X14695786Y-13647643D01*
X14681500Y-13661929D01*
X14652928Y-13676214D01*
X14624357Y-13676214D01*
X14595786Y-13661929D01*
X14581500Y-13647643D01*
X14567214Y-13619071D01*
X14552928Y-13561929D01*
X14552928Y-13490500D01*
X14567214Y-13433357D01*
X14581500Y-13404786D01*
X14595786Y-13390500D01*
X14624357Y-13376214D01*
X14852928Y-13676214D02*
X14852928Y-13476214D01*
X14852928Y-13504786D02*
X14867214Y-13490500D01*
X14895786Y-13476214D01*
X14938643Y-13476214D01*
X14967214Y-13490500D01*
X14981500Y-13519071D01*
X14981500Y-13676214D01*
X14981500Y-13519071D02*
X14995786Y-13490500D01*
X15024357Y-13476214D01*
X15067214Y-13476214D01*
X15095786Y-13490500D01*
X15110071Y-13519071D01*
X15110071Y-13676214D01*
X15252928Y-13676214D02*
X15252928Y-13476214D01*
X15252928Y-13504786D02*
X15267214Y-13490500D01*
X15295786Y-13476214D01*
X15338643Y-13476214D01*
X15367214Y-13490500D01*
X15381500Y-13519071D01*
X15381500Y-13676214D01*
X15381500Y-13519071D02*
X15395786Y-13490500D01*
X15424357Y-13476214D01*
X15467214Y-13476214D01*
X15495786Y-13490500D01*
X15510071Y-13519071D01*
X15510071Y-13676214D01*
X16095786Y-13361929D02*
X15838643Y-13747643D01*
X16481500Y-13376214D02*
X16510071Y-13376214D01*
X16538643Y-13390500D01*
X16552928Y-13404786D01*
X16567214Y-13433357D01*
X16581500Y-13490500D01*
X16581500Y-13561929D01*
X16567214Y-13619071D01*
X16552928Y-13647643D01*
X16538643Y-13661929D01*
X16510071Y-13676214D01*
X16481500Y-13676214D01*
X16452928Y-13661929D01*
X16438643Y-13647643D01*
X16424357Y-13619071D01*
X16410071Y-13561929D01*
X16410071Y-13490500D01*
X16424357Y-13433357D01*
X16438643Y-13404786D01*
X16452928Y-13390500D01*
X16481500Y-13376214D01*
X16710071Y-13647643D02*
X16724357Y-13661929D01*
X16710071Y-13676214D01*
X16695786Y-13661929D01*
X16710071Y-13647643D01*
X16710071Y-13676214D01*
X16910071Y-13376214D02*
X16938643Y-13376214D01*
X16967214Y-13390500D01*
X16981500Y-13404786D01*
X16995786Y-13433357D01*
X17010071Y-13490500D01*
X17010071Y-13561929D01*
X16995786Y-13619071D01*
X16981500Y-13647643D01*
X16967214Y-13661929D01*
X16938643Y-13676214D01*
X16910071Y-13676214D01*
X16881500Y-13661929D01*
X16867214Y-13647643D01*
X16852928Y-13619071D01*
X16838643Y-13561929D01*
X16838643Y-13490500D01*
X16852928Y-13433357D01*
X16867214Y-13404786D01*
X16881500Y-13390500D01*
X16910071Y-13376214D01*
X17110071Y-13376214D02*
X17295786Y-13376214D01*
X17195786Y-13490500D01*
X17238643Y-13490500D01*
X17267214Y-13504786D01*
X17281500Y-13519071D01*
X17295786Y-13547643D01*
X17295786Y-13619071D01*
X17281500Y-13647643D01*
X17267214Y-13661929D01*
X17238643Y-13676214D01*
X17152928Y-13676214D01*
X17124357Y-13661929D01*
X17110071Y-13647643D01*
X17581500Y-13676214D02*
X17410071Y-13676214D01*
X17495786Y-13676214D02*
X17495786Y-13376214D01*
X17467214Y-13419071D01*
X17438643Y-13447643D01*
X17410071Y-13461929D01*
X17695786Y-13376214D02*
X17695786Y-13433357D01*
X17810071Y-13376214D02*
X17810071Y-13433357D01*
X18252928Y-13790500D02*
X18238643Y-13776214D01*
X18210071Y-13733357D01*
X18195786Y-13704786D01*
X18181500Y-13661929D01*
X18167214Y-13590500D01*
X18167214Y-13533357D01*
X18181500Y-13461929D01*
X18195786Y-13419071D01*
X18210071Y-13390500D01*
X18238643Y-13347643D01*
X18252928Y-13333357D01*
X18495786Y-13476214D02*
X18495786Y-13676214D01*
X18424357Y-13361929D02*
X18352928Y-13576214D01*
X18538643Y-13576214D01*
X18881500Y-13676214D02*
X18881500Y-13376214D01*
X19010071Y-13676214D02*
X19010071Y-13519071D01*
X18995786Y-13490500D01*
X18967214Y-13476214D01*
X18924357Y-13476214D01*
X18895786Y-13490500D01*
X18881500Y-13504786D01*
X19195786Y-13676214D02*
X19167214Y-13661929D01*
X19152928Y-13647643D01*
X19138643Y-13619071D01*
X19138643Y-13533357D01*
X19152928Y-13504786D01*
X19167214Y-13490500D01*
X19195786Y-13476214D01*
X19238643Y-13476214D01*
X19267214Y-13490500D01*
X19281500Y-13504786D01*
X19295786Y-13533357D01*
X19295786Y-13619071D01*
X19281500Y-13647643D01*
X19267214Y-13661929D01*
X19238643Y-13676214D01*
X19195786Y-13676214D01*
X19467214Y-13676214D02*
X19438643Y-13661929D01*
X19424357Y-13633357D01*
X19424357Y-13376214D01*
X19695786Y-13661929D02*
X19667214Y-13676214D01*
X19610071Y-13676214D01*
X19581500Y-13661929D01*
X19567214Y-13633357D01*
X19567214Y-13519071D01*
X19581500Y-13490500D01*
X19610071Y-13476214D01*
X19667214Y-13476214D01*
X19695786Y-13490500D01*
X19710071Y-13519071D01*
X19710071Y-13547643D01*
X19567214Y-13576214D01*
X19824357Y-13661929D02*
X19852929Y-13676214D01*
X19910071Y-13676214D01*
X19938643Y-13661929D01*
X19952929Y-13633357D01*
X19952929Y-13619071D01*
X19938643Y-13590500D01*
X19910071Y-13576214D01*
X19867214Y-13576214D01*
X19838643Y-13561929D01*
X19824357Y-13533357D01*
X19824357Y-13519071D01*
X19838643Y-13490500D01*
X19867214Y-13476214D01*
X19910071Y-13476214D01*
X19938643Y-13490500D01*
X20052928Y-13790500D02*
X20067214Y-13776214D01*
X20095786Y-13733357D01*
X20110071Y-13704786D01*
X20124357Y-13661929D01*
X20138643Y-13590500D01*
X20138643Y-13533357D01*
X20124357Y-13461929D01*
X20110071Y-13419071D01*
X20095786Y-13390500D01*
X20067214Y-13347643D01*
X20052928Y-13333357D01*
X13581500Y-13936500D02*
G75*
G03X13581500Y-13936500I-45000J0D01*
G01*
X13910071Y-13772214D02*
X13938643Y-13772214D01*
X13967214Y-13786500D01*
X13981500Y-13800786D01*
X13995786Y-13829357D01*
X14010071Y-13886500D01*
X14010071Y-13957929D01*
X13995786Y-14015071D01*
X13981500Y-14043643D01*
X13967214Y-14057929D01*
X13938643Y-14072214D01*
X13910071Y-14072214D01*
X13881500Y-14057929D01*
X13867214Y-14043643D01*
X13852928Y-14015071D01*
X13838643Y-13957929D01*
X13838643Y-13886500D01*
X13852928Y-13829357D01*
X13867214Y-13800786D01*
X13881500Y-13786500D01*
X13910071Y-13772214D01*
X14138643Y-14043643D02*
X14152928Y-14057929D01*
X14138643Y-14072214D01*
X14124357Y-14057929D01*
X14138643Y-14043643D01*
X14138643Y-14072214D01*
X14295786Y-14072214D02*
X14352928Y-14072214D01*
X14381500Y-14057929D01*
X14395786Y-14043643D01*
X14424357Y-14000786D01*
X14438643Y-13943643D01*
X14438643Y-13829357D01*
X14424357Y-13800786D01*
X14410071Y-13786500D01*
X14381500Y-13772214D01*
X14324357Y-13772214D01*
X14295786Y-13786500D01*
X14281500Y-13800786D01*
X14267214Y-13829357D01*
X14267214Y-13900786D01*
X14281500Y-13929357D01*
X14295786Y-13943643D01*
X14324357Y-13957929D01*
X14381500Y-13957929D01*
X14410071Y-13943643D01*
X14424357Y-13929357D01*
X14438643Y-13900786D01*
X14624357Y-13772214D02*
X14652928Y-13772214D01*
X14681500Y-13786500D01*
X14695786Y-13800786D01*
X14710071Y-13829357D01*
X14724357Y-13886500D01*
X14724357Y-13957929D01*
X14710071Y-14015071D01*
X14695786Y-14043643D01*
X14681500Y-14057929D01*
X14652928Y-14072214D01*
X14624357Y-14072214D01*
X14595786Y-14057929D01*
X14581500Y-14043643D01*
X14567214Y-14015071D01*
X14552928Y-13957929D01*
X14552928Y-13886500D01*
X14567214Y-13829357D01*
X14581500Y-13800786D01*
X14595786Y-13786500D01*
X14624357Y-13772214D01*
X14852928Y-14072214D02*
X14852928Y-13872214D01*
X14852928Y-13900786D02*
X14867214Y-13886500D01*
X14895786Y-13872214D01*
X14938643Y-13872214D01*
X14967214Y-13886500D01*
X14981500Y-13915071D01*
X14981500Y-14072214D01*
X14981500Y-13915071D02*
X14995786Y-13886500D01*
X15024357Y-13872214D01*
X15067214Y-13872214D01*
X15095786Y-13886500D01*
X15110071Y-13915071D01*
X15110071Y-14072214D01*
X15252928Y-14072214D02*
X15252928Y-13872214D01*
X15252928Y-13900786D02*
X15267214Y-13886500D01*
X15295786Y-13872214D01*
X15338643Y-13872214D01*
X15367214Y-13886500D01*
X15381500Y-13915071D01*
X15381500Y-14072214D01*
X15381500Y-13915071D02*
X15395786Y-13886500D01*
X15424357Y-13872214D01*
X15467214Y-13872214D01*
X15495786Y-13886500D01*
X15510071Y-13915071D01*
X15510071Y-14072214D01*
X16095786Y-13757929D02*
X15838643Y-14143643D01*
X16481500Y-13772214D02*
X16510071Y-13772214D01*
X16538643Y-13786500D01*
X16552928Y-13800786D01*
X16567214Y-13829357D01*
X16581500Y-13886500D01*
X16581500Y-13957929D01*
X16567214Y-14015071D01*
X16552928Y-14043643D01*
X16538643Y-14057929D01*
X16510071Y-14072214D01*
X16481500Y-14072214D01*
X16452928Y-14057929D01*
X16438643Y-14043643D01*
X16424357Y-14015071D01*
X16410071Y-13957929D01*
X16410071Y-13886500D01*
X16424357Y-13829357D01*
X16438643Y-13800786D01*
X16452928Y-13786500D01*
X16481500Y-13772214D01*
X16710071Y-14043643D02*
X16724357Y-14057929D01*
X16710071Y-14072214D01*
X16695786Y-14057929D01*
X16710071Y-14043643D01*
X16710071Y-14072214D01*
X16910071Y-13772214D02*
X16938643Y-13772214D01*
X16967214Y-13786500D01*
X16981500Y-13800786D01*
X16995786Y-13829357D01*
X17010071Y-13886500D01*
X17010071Y-13957929D01*
X16995786Y-14015071D01*
X16981500Y-14043643D01*
X16967214Y-14057929D01*
X16938643Y-14072214D01*
X16910071Y-14072214D01*
X16881500Y-14057929D01*
X16867214Y-14043643D01*
X16852928Y-14015071D01*
X16838643Y-13957929D01*
X16838643Y-13886500D01*
X16852928Y-13829357D01*
X16867214Y-13800786D01*
X16881500Y-13786500D01*
X16910071Y-13772214D01*
X17110071Y-13772214D02*
X17295786Y-13772214D01*
X17195786Y-13886500D01*
X17238643Y-13886500D01*
X17267214Y-13900786D01*
X17281500Y-13915071D01*
X17295786Y-13943643D01*
X17295786Y-14015071D01*
X17281500Y-14043643D01*
X17267214Y-14057929D01*
X17238643Y-14072214D01*
X17152928Y-14072214D01*
X17124357Y-14057929D01*
X17110071Y-14043643D01*
X17567214Y-13772214D02*
X17424357Y-13772214D01*
X17410071Y-13915071D01*
X17424357Y-13900786D01*
X17452928Y-13886500D01*
X17524357Y-13886500D01*
X17552928Y-13900786D01*
X17567214Y-13915071D01*
X17581500Y-13943643D01*
X17581500Y-14015071D01*
X17567214Y-14043643D01*
X17552928Y-14057929D01*
X17524357Y-14072214D01*
X17452928Y-14072214D01*
X17424357Y-14057929D01*
X17410071Y-14043643D01*
X17695786Y-13772214D02*
X17695786Y-13829357D01*
X17810071Y-13772214D02*
X17810071Y-13829357D01*
X18252928Y-14186500D02*
X18238643Y-14172214D01*
X18210071Y-14129357D01*
X18195786Y-14100786D01*
X18181500Y-14057929D01*
X18167214Y-13986500D01*
X18167214Y-13929357D01*
X18181500Y-13857929D01*
X18195786Y-13815071D01*
X18210071Y-13786500D01*
X18238643Y-13743643D01*
X18252928Y-13729357D01*
X18524357Y-14072214D02*
X18352928Y-14072214D01*
X18438643Y-14072214D02*
X18438643Y-13772214D01*
X18410071Y-13815071D01*
X18381500Y-13843643D01*
X18352928Y-13857929D01*
X18781500Y-13772214D02*
X18724357Y-13772214D01*
X18695786Y-13786500D01*
X18681500Y-13800786D01*
X18652928Y-13843643D01*
X18638643Y-13900786D01*
X18638643Y-14015071D01*
X18652928Y-14043643D01*
X18667214Y-14057929D01*
X18695786Y-14072214D01*
X18752928Y-14072214D01*
X18781500Y-14057929D01*
X18795786Y-14043643D01*
X18810071Y-14015071D01*
X18810071Y-13943643D01*
X18795786Y-13915071D01*
X18781500Y-13900786D01*
X18752928Y-13886500D01*
X18695786Y-13886500D01*
X18667214Y-13900786D01*
X18652928Y-13915071D01*
X18638643Y-13943643D01*
X19167214Y-14072214D02*
X19167214Y-13772214D01*
X19295786Y-14072214D02*
X19295786Y-13915071D01*
X19281500Y-13886500D01*
X19252928Y-13872214D01*
X19210071Y-13872214D01*
X19181500Y-13886500D01*
X19167214Y-13900786D01*
X19481500Y-14072214D02*
X19452928Y-14057929D01*
X19438643Y-14043643D01*
X19424357Y-14015071D01*
X19424357Y-13929357D01*
X19438643Y-13900786D01*
X19452928Y-13886500D01*
X19481500Y-13872214D01*
X19524357Y-13872214D01*
X19552928Y-13886500D01*
X19567214Y-13900786D01*
X19581500Y-13929357D01*
X19581500Y-14015071D01*
X19567214Y-14043643D01*
X19552928Y-14057929D01*
X19524357Y-14072214D01*
X19481500Y-14072214D01*
X19752928Y-14072214D02*
X19724357Y-14057929D01*
X19710071Y-14029357D01*
X19710071Y-13772214D01*
X19981500Y-14057929D02*
X19952929Y-14072214D01*
X19895786Y-14072214D01*
X19867214Y-14057929D01*
X19852929Y-14029357D01*
X19852929Y-13915071D01*
X19867214Y-13886500D01*
X19895786Y-13872214D01*
X19952929Y-13872214D01*
X19981500Y-13886500D01*
X19995786Y-13915071D01*
X19995786Y-13943643D01*
X19852929Y-13972214D01*
X20110071Y-14057929D02*
X20138643Y-14072214D01*
X20195786Y-14072214D01*
X20224357Y-14057929D01*
X20238643Y-14029357D01*
X20238643Y-14015071D01*
X20224357Y-13986500D01*
X20195786Y-13972214D01*
X20152929Y-13972214D01*
X20124357Y-13957929D01*
X20110071Y-13929357D01*
X20110071Y-13915071D01*
X20124357Y-13886500D01*
X20152929Y-13872214D01*
X20195786Y-13872214D01*
X20224357Y-13886500D01*
X20338643Y-14186500D02*
X20352929Y-14172214D01*
X20381500Y-14129357D01*
X20395786Y-14100786D01*
X20410071Y-14057929D01*
X20424357Y-13986500D01*
X20424357Y-13929357D01*
X20410071Y-13857929D01*
X20395786Y-13815071D01*
X20381500Y-13786500D01*
X20352929Y-13743643D01*
X20338643Y-13729357D01*
X13530700Y-14281700D02*
X13530700Y-14383300D01*
X13479900Y-14332500D02*
X13581500Y-14332500D01*
X14010071Y-14468214D02*
X13838643Y-14468214D01*
X13924357Y-14468214D02*
X13924357Y-14168214D01*
X13895786Y-14211071D01*
X13867214Y-14239643D01*
X13838643Y-14253929D01*
X14138643Y-14439643D02*
X14152928Y-14453929D01*
X14138643Y-14468214D01*
X14124357Y-14453929D01*
X14138643Y-14439643D01*
X14138643Y-14468214D01*
X14338643Y-14168214D02*
X14367214Y-14168214D01*
X14395786Y-14182500D01*
X14410071Y-14196786D01*
X14424357Y-14225357D01*
X14438643Y-14282500D01*
X14438643Y-14353929D01*
X14424357Y-14411071D01*
X14410071Y-14439643D01*
X14395786Y-14453929D01*
X14367214Y-14468214D01*
X14338643Y-14468214D01*
X14310071Y-14453929D01*
X14295786Y-14439643D01*
X14281500Y-14411071D01*
X14267214Y-14353929D01*
X14267214Y-14282500D01*
X14281500Y-14225357D01*
X14295786Y-14196786D01*
X14310071Y-14182500D01*
X14338643Y-14168214D01*
X14552928Y-14196786D02*
X14567214Y-14182500D01*
X14595786Y-14168214D01*
X14667214Y-14168214D01*
X14695786Y-14182500D01*
X14710071Y-14196786D01*
X14724357Y-14225357D01*
X14724357Y-14253929D01*
X14710071Y-14296786D01*
X14538643Y-14468214D01*
X14724357Y-14468214D01*
X14852928Y-14468214D02*
X14852928Y-14268214D01*
X14852928Y-14296786D02*
X14867214Y-14282500D01*
X14895786Y-14268214D01*
X14938643Y-14268214D01*
X14967214Y-14282500D01*
X14981500Y-14311071D01*
X14981500Y-14468214D01*
X14981500Y-14311071D02*
X14995786Y-14282500D01*
X15024357Y-14268214D01*
X15067214Y-14268214D01*
X15095786Y-14282500D01*
X15110071Y-14311071D01*
X15110071Y-14468214D01*
X15252928Y-14468214D02*
X15252928Y-14268214D01*
X15252928Y-14296786D02*
X15267214Y-14282500D01*
X15295786Y-14268214D01*
X15338643Y-14268214D01*
X15367214Y-14282500D01*
X15381500Y-14311071D01*
X15381500Y-14468214D01*
X15381500Y-14311071D02*
X15395786Y-14282500D01*
X15424357Y-14268214D01*
X15467214Y-14268214D01*
X15495786Y-14282500D01*
X15510071Y-14311071D01*
X15510071Y-14468214D01*
X16095786Y-14153929D02*
X15838643Y-14539643D01*
X16481500Y-14168214D02*
X16510071Y-14168214D01*
X16538643Y-14182500D01*
X16552928Y-14196786D01*
X16567214Y-14225357D01*
X16581500Y-14282500D01*
X16581500Y-14353929D01*
X16567214Y-14411071D01*
X16552928Y-14439643D01*
X16538643Y-14453929D01*
X16510071Y-14468214D01*
X16481500Y-14468214D01*
X16452928Y-14453929D01*
X16438643Y-14439643D01*
X16424357Y-14411071D01*
X16410071Y-14353929D01*
X16410071Y-14282500D01*
X16424357Y-14225357D01*
X16438643Y-14196786D01*
X16452928Y-14182500D01*
X16481500Y-14168214D01*
X16710071Y-14439643D02*
X16724357Y-14453929D01*
X16710071Y-14468214D01*
X16695786Y-14453929D01*
X16710071Y-14439643D01*
X16710071Y-14468214D01*
X16910071Y-14168214D02*
X16938643Y-14168214D01*
X16967214Y-14182500D01*
X16981500Y-14196786D01*
X16995786Y-14225357D01*
X17010071Y-14282500D01*
X17010071Y-14353929D01*
X16995786Y-14411071D01*
X16981500Y-14439643D01*
X16967214Y-14453929D01*
X16938643Y-14468214D01*
X16910071Y-14468214D01*
X16881500Y-14453929D01*
X16867214Y-14439643D01*
X16852928Y-14411071D01*
X16838643Y-14353929D01*
X16838643Y-14282500D01*
X16852928Y-14225357D01*
X16867214Y-14196786D01*
X16881500Y-14182500D01*
X16910071Y-14168214D01*
X17267214Y-14268214D02*
X17267214Y-14468214D01*
X17195786Y-14153929D02*
X17124357Y-14368214D01*
X17310071Y-14368214D01*
X17481500Y-14168214D02*
X17510071Y-14168214D01*
X17538643Y-14182500D01*
X17552928Y-14196786D01*
X17567214Y-14225357D01*
X17581500Y-14282500D01*
X17581500Y-14353929D01*
X17567214Y-14411071D01*
X17552928Y-14439643D01*
X17538643Y-14453929D01*
X17510071Y-14468214D01*
X17481500Y-14468214D01*
X17452928Y-14453929D01*
X17438643Y-14439643D01*
X17424357Y-14411071D01*
X17410071Y-14353929D01*
X17410071Y-14282500D01*
X17424357Y-14225357D01*
X17438643Y-14196786D01*
X17452928Y-14182500D01*
X17481500Y-14168214D01*
X17695786Y-14168214D02*
X17695786Y-14225357D01*
X17810071Y-14168214D02*
X17810071Y-14225357D01*
X18252928Y-14582500D02*
X18238643Y-14568214D01*
X18210071Y-14525357D01*
X18195786Y-14496786D01*
X18181500Y-14453929D01*
X18167214Y-14382500D01*
X18167214Y-14325357D01*
X18181500Y-14253929D01*
X18195786Y-14211071D01*
X18210071Y-14182500D01*
X18238643Y-14139643D01*
X18252928Y-14125357D01*
X18495786Y-14268214D02*
X18495786Y-14468214D01*
X18424357Y-14153929D02*
X18352928Y-14368214D01*
X18538643Y-14368214D01*
X18881500Y-14468214D02*
X18881500Y-14168214D01*
X19010071Y-14468214D02*
X19010071Y-14311071D01*
X18995786Y-14282500D01*
X18967214Y-14268214D01*
X18924357Y-14268214D01*
X18895786Y-14282500D01*
X18881500Y-14296786D01*
X19195786Y-14468214D02*
X19167214Y-14453929D01*
X19152928Y-14439643D01*
X19138643Y-14411071D01*
X19138643Y-14325357D01*
X19152928Y-14296786D01*
X19167214Y-14282500D01*
X19195786Y-14268214D01*
X19238643Y-14268214D01*
X19267214Y-14282500D01*
X19281500Y-14296786D01*
X19295786Y-14325357D01*
X19295786Y-14411071D01*
X19281500Y-14439643D01*
X19267214Y-14453929D01*
X19238643Y-14468214D01*
X19195786Y-14468214D01*
X19467214Y-14468214D02*
X19438643Y-14453929D01*
X19424357Y-14425357D01*
X19424357Y-14168214D01*
X19695786Y-14453929D02*
X19667214Y-14468214D01*
X19610071Y-14468214D01*
X19581500Y-14453929D01*
X19567214Y-14425357D01*
X19567214Y-14311071D01*
X19581500Y-14282500D01*
X19610071Y-14268214D01*
X19667214Y-14268214D01*
X19695786Y-14282500D01*
X19710071Y-14311071D01*
X19710071Y-14339643D01*
X19567214Y-14368214D01*
X19824357Y-14453929D02*
X19852929Y-14468214D01*
X19910071Y-14468214D01*
X19938643Y-14453929D01*
X19952929Y-14425357D01*
X19952929Y-14411071D01*
X19938643Y-14382500D01*
X19910071Y-14368214D01*
X19867214Y-14368214D01*
X19838643Y-14353929D01*
X19824357Y-14325357D01*
X19824357Y-14311071D01*
X19838643Y-14282500D01*
X19867214Y-14268214D01*
X19910071Y-14268214D01*
X19938643Y-14282500D01*
X20052928Y-14582500D02*
X20067214Y-14568214D01*
X20095786Y-14525357D01*
X20110071Y-14496786D01*
X20124357Y-14453929D01*
X20138643Y-14382500D01*
X20138643Y-14325357D01*
X20124357Y-14253929D01*
X20110071Y-14211071D01*
X20095786Y-14182500D01*
X20067214Y-14139643D01*
X20052928Y-14125357D01*
X13565391Y-14767391D02*
X13565391Y-14689609D01*
X13487609Y-14689609D01*
X13487609Y-14767391D01*
X13565391Y-14767391D01*
X14010071Y-14864214D02*
X13838643Y-14864214D01*
X13924357Y-14864214D02*
X13924357Y-14564214D01*
X13895786Y-14607071D01*
X13867214Y-14635643D01*
X13838643Y-14649929D01*
X14138643Y-14835643D02*
X14152928Y-14849929D01*
X14138643Y-14864214D01*
X14124357Y-14849929D01*
X14138643Y-14835643D01*
X14138643Y-14864214D01*
X14438643Y-14864214D02*
X14267214Y-14864214D01*
X14352928Y-14864214D02*
X14352928Y-14564214D01*
X14324357Y-14607071D01*
X14295786Y-14635643D01*
X14267214Y-14649929D01*
X14624357Y-14564214D02*
X14652928Y-14564214D01*
X14681500Y-14578500D01*
X14695786Y-14592786D01*
X14710071Y-14621357D01*
X14724357Y-14678500D01*
X14724357Y-14749929D01*
X14710071Y-14807071D01*
X14695786Y-14835643D01*
X14681500Y-14849929D01*
X14652928Y-14864214D01*
X14624357Y-14864214D01*
X14595786Y-14849929D01*
X14581500Y-14835643D01*
X14567214Y-14807071D01*
X14552928Y-14749929D01*
X14552928Y-14678500D01*
X14567214Y-14621357D01*
X14581500Y-14592786D01*
X14595786Y-14578500D01*
X14624357Y-14564214D01*
X14852928Y-14864214D02*
X14852928Y-14664214D01*
X14852928Y-14692786D02*
X14867214Y-14678500D01*
X14895786Y-14664214D01*
X14938643Y-14664214D01*
X14967214Y-14678500D01*
X14981500Y-14707071D01*
X14981500Y-14864214D01*
X14981500Y-14707071D02*
X14995786Y-14678500D01*
X15024357Y-14664214D01*
X15067214Y-14664214D01*
X15095786Y-14678500D01*
X15110071Y-14707071D01*
X15110071Y-14864214D01*
X15252928Y-14864214D02*
X15252928Y-14664214D01*
X15252928Y-14692786D02*
X15267214Y-14678500D01*
X15295786Y-14664214D01*
X15338643Y-14664214D01*
X15367214Y-14678500D01*
X15381500Y-14707071D01*
X15381500Y-14864214D01*
X15381500Y-14707071D02*
X15395786Y-14678500D01*
X15424357Y-14664214D01*
X15467214Y-14664214D01*
X15495786Y-14678500D01*
X15510071Y-14707071D01*
X15510071Y-14864214D01*
X16095786Y-14549929D02*
X15838643Y-14935643D01*
X16481500Y-14564214D02*
X16510071Y-14564214D01*
X16538643Y-14578500D01*
X16552928Y-14592786D01*
X16567214Y-14621357D01*
X16581500Y-14678500D01*
X16581500Y-14749929D01*
X16567214Y-14807071D01*
X16552928Y-14835643D01*
X16538643Y-14849929D01*
X16510071Y-14864214D01*
X16481500Y-14864214D01*
X16452928Y-14849929D01*
X16438643Y-14835643D01*
X16424357Y-14807071D01*
X16410071Y-14749929D01*
X16410071Y-14678500D01*
X16424357Y-14621357D01*
X16438643Y-14592786D01*
X16452928Y-14578500D01*
X16481500Y-14564214D01*
X16710071Y-14835643D02*
X16724357Y-14849929D01*
X16710071Y-14864214D01*
X16695786Y-14849929D01*
X16710071Y-14835643D01*
X16710071Y-14864214D01*
X16910071Y-14564214D02*
X16938643Y-14564214D01*
X16967214Y-14578500D01*
X16981500Y-14592786D01*
X16995786Y-14621357D01*
X17010071Y-14678500D01*
X17010071Y-14749929D01*
X16995786Y-14807071D01*
X16981500Y-14835643D01*
X16967214Y-14849929D01*
X16938643Y-14864214D01*
X16910071Y-14864214D01*
X16881500Y-14849929D01*
X16867214Y-14835643D01*
X16852928Y-14807071D01*
X16838643Y-14749929D01*
X16838643Y-14678500D01*
X16852928Y-14621357D01*
X16867214Y-14592786D01*
X16881500Y-14578500D01*
X16910071Y-14564214D01*
X17267214Y-14664214D02*
X17267214Y-14864214D01*
X17195786Y-14549929D02*
X17124357Y-14764214D01*
X17310071Y-14764214D01*
X17395786Y-14564214D02*
X17581500Y-14564214D01*
X17481500Y-14678500D01*
X17524357Y-14678500D01*
X17552928Y-14692786D01*
X17567214Y-14707071D01*
X17581500Y-14735643D01*
X17581500Y-14807071D01*
X17567214Y-14835643D01*
X17552928Y-14849929D01*
X17524357Y-14864214D01*
X17438643Y-14864214D01*
X17410071Y-14849929D01*
X17395786Y-14835643D01*
X17695786Y-14564214D02*
X17695786Y-14621357D01*
X17810071Y-14564214D02*
X17810071Y-14621357D01*
X18252928Y-14978500D02*
X18238643Y-14964214D01*
X18210071Y-14921357D01*
X18195786Y-14892786D01*
X18181500Y-14849929D01*
X18167214Y-14778500D01*
X18167214Y-14721357D01*
X18181500Y-14649929D01*
X18195786Y-14607071D01*
X18210071Y-14578500D01*
X18238643Y-14535643D01*
X18252928Y-14521357D01*
X18495786Y-14664214D02*
X18495786Y-14864214D01*
X18424357Y-14549929D02*
X18352928Y-14764214D01*
X18538643Y-14764214D01*
X18881500Y-14864214D02*
X18881500Y-14564214D01*
X19010071Y-14864214D02*
X19010071Y-14707071D01*
X18995786Y-14678500D01*
X18967214Y-14664214D01*
X18924357Y-14664214D01*
X18895786Y-14678500D01*
X18881500Y-14692786D01*
X19195786Y-14864214D02*
X19167214Y-14849929D01*
X19152928Y-14835643D01*
X19138643Y-14807071D01*
X19138643Y-14721357D01*
X19152928Y-14692786D01*
X19167214Y-14678500D01*
X19195786Y-14664214D01*
X19238643Y-14664214D01*
X19267214Y-14678500D01*
X19281500Y-14692786D01*
X19295786Y-14721357D01*
X19295786Y-14807071D01*
X19281500Y-14835643D01*
X19267214Y-14849929D01*
X19238643Y-14864214D01*
X19195786Y-14864214D01*
X19467214Y-14864214D02*
X19438643Y-14849929D01*
X19424357Y-14821357D01*
X19424357Y-14564214D01*
X19695786Y-14849929D02*
X19667214Y-14864214D01*
X19610071Y-14864214D01*
X19581500Y-14849929D01*
X19567214Y-14821357D01*
X19567214Y-14707071D01*
X19581500Y-14678500D01*
X19610071Y-14664214D01*
X19667214Y-14664214D01*
X19695786Y-14678500D01*
X19710071Y-14707071D01*
X19710071Y-14735643D01*
X19567214Y-14764214D01*
X19824357Y-14849929D02*
X19852929Y-14864214D01*
X19910071Y-14864214D01*
X19938643Y-14849929D01*
X19952929Y-14821357D01*
X19952929Y-14807071D01*
X19938643Y-14778500D01*
X19910071Y-14764214D01*
X19867214Y-14764214D01*
X19838643Y-14749929D01*
X19824357Y-14721357D01*
X19824357Y-14707071D01*
X19838643Y-14678500D01*
X19867214Y-14664214D01*
X19910071Y-14664214D01*
X19938643Y-14678500D01*
X20052928Y-14978500D02*
X20067214Y-14964214D01*
X20095786Y-14921357D01*
X20110071Y-14892786D01*
X20124357Y-14849929D01*
X20138643Y-14778500D01*
X20138643Y-14721357D01*
X20124357Y-14649929D01*
X20110071Y-14607071D01*
X20095786Y-14578500D01*
X20067214Y-14535643D01*
X20052928Y-14521357D01*
X13506500Y-15199500D02*
X13581500Y-15124500D01*
X13506500Y-15049500D01*
X13431500Y-15124500D01*
X13506500Y-15199500D01*
X14010071Y-15260214D02*
X13838643Y-15260214D01*
X13924357Y-15260214D02*
X13924357Y-14960214D01*
X13895786Y-15003071D01*
X13867214Y-15031643D01*
X13838643Y-15045929D01*
X14138643Y-15231643D02*
X14152928Y-15245929D01*
X14138643Y-15260214D01*
X14124357Y-15245929D01*
X14138643Y-15231643D01*
X14138643Y-15260214D01*
X14424357Y-14960214D02*
X14281500Y-14960214D01*
X14267214Y-15103071D01*
X14281500Y-15088786D01*
X14310071Y-15074500D01*
X14381500Y-15074500D01*
X14410071Y-15088786D01*
X14424357Y-15103071D01*
X14438643Y-15131643D01*
X14438643Y-15203071D01*
X14424357Y-15231643D01*
X14410071Y-15245929D01*
X14381500Y-15260214D01*
X14310071Y-15260214D01*
X14281500Y-15245929D01*
X14267214Y-15231643D01*
X14624357Y-14960214D02*
X14652928Y-14960214D01*
X14681500Y-14974500D01*
X14695786Y-14988786D01*
X14710071Y-15017357D01*
X14724357Y-15074500D01*
X14724357Y-15145929D01*
X14710071Y-15203071D01*
X14695786Y-15231643D01*
X14681500Y-15245929D01*
X14652928Y-15260214D01*
X14624357Y-15260214D01*
X14595786Y-15245929D01*
X14581500Y-15231643D01*
X14567214Y-15203071D01*
X14552928Y-15145929D01*
X14552928Y-15074500D01*
X14567214Y-15017357D01*
X14581500Y-14988786D01*
X14595786Y-14974500D01*
X14624357Y-14960214D01*
X14852928Y-15260214D02*
X14852928Y-15060214D01*
X14852928Y-15088786D02*
X14867214Y-15074500D01*
X14895786Y-15060214D01*
X14938643Y-15060214D01*
X14967214Y-15074500D01*
X14981500Y-15103071D01*
X14981500Y-15260214D01*
X14981500Y-15103071D02*
X14995786Y-15074500D01*
X15024357Y-15060214D01*
X15067214Y-15060214D01*
X15095786Y-15074500D01*
X15110071Y-15103071D01*
X15110071Y-15260214D01*
X15252928Y-15260214D02*
X15252928Y-15060214D01*
X15252928Y-15088786D02*
X15267214Y-15074500D01*
X15295786Y-15060214D01*
X15338643Y-15060214D01*
X15367214Y-15074500D01*
X15381500Y-15103071D01*
X15381500Y-15260214D01*
X15381500Y-15103071D02*
X15395786Y-15074500D01*
X15424357Y-15060214D01*
X15467214Y-15060214D01*
X15495786Y-15074500D01*
X15510071Y-15103071D01*
X15510071Y-15260214D01*
X16095786Y-14945929D02*
X15838643Y-15331643D01*
X16481500Y-14960214D02*
X16510071Y-14960214D01*
X16538643Y-14974500D01*
X16552928Y-14988786D01*
X16567214Y-15017357D01*
X16581500Y-15074500D01*
X16581500Y-15145929D01*
X16567214Y-15203071D01*
X16552928Y-15231643D01*
X16538643Y-15245929D01*
X16510071Y-15260214D01*
X16481500Y-15260214D01*
X16452928Y-15245929D01*
X16438643Y-15231643D01*
X16424357Y-15203071D01*
X16410071Y-15145929D01*
X16410071Y-15074500D01*
X16424357Y-15017357D01*
X16438643Y-14988786D01*
X16452928Y-14974500D01*
X16481500Y-14960214D01*
X16710071Y-15231643D02*
X16724357Y-15245929D01*
X16710071Y-15260214D01*
X16695786Y-15245929D01*
X16710071Y-15231643D01*
X16710071Y-15260214D01*
X16910071Y-14960214D02*
X16938643Y-14960214D01*
X16967214Y-14974500D01*
X16981500Y-14988786D01*
X16995786Y-15017357D01*
X17010071Y-15074500D01*
X17010071Y-15145929D01*
X16995786Y-15203071D01*
X16981500Y-15231643D01*
X16967214Y-15245929D01*
X16938643Y-15260214D01*
X16910071Y-15260214D01*
X16881500Y-15245929D01*
X16867214Y-15231643D01*
X16852928Y-15203071D01*
X16838643Y-15145929D01*
X16838643Y-15074500D01*
X16852928Y-15017357D01*
X16867214Y-14988786D01*
X16881500Y-14974500D01*
X16910071Y-14960214D01*
X17281500Y-14960214D02*
X17138643Y-14960214D01*
X17124357Y-15103071D01*
X17138643Y-15088786D01*
X17167214Y-15074500D01*
X17238643Y-15074500D01*
X17267214Y-15088786D01*
X17281500Y-15103071D01*
X17295786Y-15131643D01*
X17295786Y-15203071D01*
X17281500Y-15231643D01*
X17267214Y-15245929D01*
X17238643Y-15260214D01*
X17167214Y-15260214D01*
X17138643Y-15245929D01*
X17124357Y-15231643D01*
X17438643Y-15260214D02*
X17495786Y-15260214D01*
X17524357Y-15245929D01*
X17538643Y-15231643D01*
X17567214Y-15188786D01*
X17581500Y-15131643D01*
X17581500Y-15017357D01*
X17567214Y-14988786D01*
X17552928Y-14974500D01*
X17524357Y-14960214D01*
X17467214Y-14960214D01*
X17438643Y-14974500D01*
X17424357Y-14988786D01*
X17410071Y-15017357D01*
X17410071Y-15088786D01*
X17424357Y-15117357D01*
X17438643Y-15131643D01*
X17467214Y-15145929D01*
X17524357Y-15145929D01*
X17552928Y-15131643D01*
X17567214Y-15117357D01*
X17581500Y-15088786D01*
X17695786Y-14960214D02*
X17695786Y-15017357D01*
X17810071Y-14960214D02*
X17810071Y-15017357D01*
X18252928Y-15374500D02*
X18238643Y-15360214D01*
X18210071Y-15317357D01*
X18195786Y-15288786D01*
X18181500Y-15245929D01*
X18167214Y-15174500D01*
X18167214Y-15117357D01*
X18181500Y-15045929D01*
X18195786Y-15003071D01*
X18210071Y-14974500D01*
X18238643Y-14931643D01*
X18252928Y-14917357D01*
X18495786Y-15060214D02*
X18495786Y-15260214D01*
X18424357Y-14945929D02*
X18352928Y-15160214D01*
X18538643Y-15160214D01*
X18881500Y-15260214D02*
X18881500Y-14960214D01*
X19010071Y-15260214D02*
X19010071Y-15103071D01*
X18995786Y-15074500D01*
X18967214Y-15060214D01*
X18924357Y-15060214D01*
X18895786Y-15074500D01*
X18881500Y-15088786D01*
X19195786Y-15260214D02*
X19167214Y-15245929D01*
X19152928Y-15231643D01*
X19138643Y-15203071D01*
X19138643Y-15117357D01*
X19152928Y-15088786D01*
X19167214Y-15074500D01*
X19195786Y-15060214D01*
X19238643Y-15060214D01*
X19267214Y-15074500D01*
X19281500Y-15088786D01*
X19295786Y-15117357D01*
X19295786Y-15203071D01*
X19281500Y-15231643D01*
X19267214Y-15245929D01*
X19238643Y-15260214D01*
X19195786Y-15260214D01*
X19467214Y-15260214D02*
X19438643Y-15245929D01*
X19424357Y-15217357D01*
X19424357Y-14960214D01*
X19695786Y-15245929D02*
X19667214Y-15260214D01*
X19610071Y-15260214D01*
X19581500Y-15245929D01*
X19567214Y-15217357D01*
X19567214Y-15103071D01*
X19581500Y-15074500D01*
X19610071Y-15060214D01*
X19667214Y-15060214D01*
X19695786Y-15074500D01*
X19710071Y-15103071D01*
X19710071Y-15131643D01*
X19567214Y-15160214D01*
X19824357Y-15245929D02*
X19852929Y-15260214D01*
X19910071Y-15260214D01*
X19938643Y-15245929D01*
X19952929Y-15217357D01*
X19952929Y-15203071D01*
X19938643Y-15174500D01*
X19910071Y-15160214D01*
X19867214Y-15160214D01*
X19838643Y-15145929D01*
X19824357Y-15117357D01*
X19824357Y-15103071D01*
X19838643Y-15074500D01*
X19867214Y-15060214D01*
X19910071Y-15060214D01*
X19938643Y-15074500D01*
X20052928Y-15374500D02*
X20067214Y-15360214D01*
X20095786Y-15317357D01*
X20110071Y-15288786D01*
X20124357Y-15245929D01*
X20138643Y-15174500D01*
X20138643Y-15117357D01*
X20124357Y-15045929D01*
X20110071Y-15003071D01*
X20095786Y-14974500D01*
X20067214Y-14931643D01*
X20052928Y-14917357D01*
M02*
