G04 #@! TF.FileFunction,Copper,L2,Bot,Signal*
%FSLAX46Y46*%
G04 Gerber Fmt 4.6, Leading zero omitted, Abs format (unit mm)*
G04 Created by KiCad (PCBNEW 4.0.0-stable) date 04.02.2016 17:28:42*
%MOMM*%
G01*
G04 APERTURE LIST*
%ADD10C,0.100000*%
%ADD11R,1.800860X2.499360*%
%ADD12C,1.600000*%
%ADD13R,2.540000X2.540000*%
%ADD14C,2.540000*%
%ADD15C,2.200000*%
%ADD16R,1.800000X0.600000*%
%ADD17R,0.600000X1.800000*%
%ADD18R,2.032000X2.032000*%
%ADD19O,2.032000X2.032000*%
%ADD20C,0.500000*%
%ADD21C,0.250000*%
%ADD22C,0.210000*%
G04 APERTURE END LIST*
D10*
D11*
X142748000Y-106138980D03*
X142748000Y-102141020D03*
X158242000Y-106138980D03*
X158242000Y-102141020D03*
D12*
X142240000Y-109220000D03*
X142240000Y-114300000D03*
X144780000Y-109220000D03*
X144780000Y-114300000D03*
X139700000Y-114300000D03*
X139700000Y-109220000D03*
X147320000Y-114300000D03*
X147320000Y-109220000D03*
X149860000Y-114300000D03*
X152400000Y-114300000D03*
X154940000Y-114300000D03*
X157480000Y-114300000D03*
X149860000Y-109220000D03*
X152400000Y-109220000D03*
X154940000Y-109220000D03*
X157480000Y-109220000D03*
D13*
X160020000Y-81280000D03*
D14*
X160020000Y-86360000D03*
D13*
X139700000Y-86360000D03*
D14*
X139700000Y-81280000D03*
D12*
X151200000Y-100760000D03*
D15*
X151200000Y-84380000D03*
X151200000Y-79340000D03*
D12*
X151200000Y-104540000D03*
X146120000Y-100760000D03*
D15*
X146120000Y-84380000D03*
X146120000Y-79340000D03*
D12*
X146120000Y-104540000D03*
D16*
X145768000Y-116078000D03*
X145768000Y-117348000D03*
X145768000Y-118618000D03*
X142268000Y-118618000D03*
X142268000Y-117348000D03*
X142268000Y-116078000D03*
D17*
X155448000Y-106652000D03*
X154178000Y-106652000D03*
X152908000Y-106652000D03*
X152908000Y-103152000D03*
X154178000Y-103152000D03*
X155448000Y-103152000D03*
D18*
X139700000Y-100838000D03*
D19*
X139700000Y-103378000D03*
D18*
X160782000Y-100838000D03*
D19*
X160782000Y-103378000D03*
D20*
X142748000Y-106138980D02*
X144521020Y-106138980D01*
X144521020Y-106138980D02*
X146120000Y-104540000D01*
X158242000Y-106138980D02*
X157480000Y-106900980D01*
X157480000Y-106900980D02*
X157480000Y-109220000D01*
X146120000Y-100760000D02*
X148230000Y-102870000D01*
X148230000Y-102870000D02*
X152626000Y-102870000D01*
X152626000Y-102870000D02*
X152908000Y-103152000D01*
X146120000Y-100760000D02*
X144129020Y-100760000D01*
X144129020Y-100760000D02*
X142748000Y-102141020D01*
X155448000Y-103152000D02*
X155448000Y-100760000D01*
X155448000Y-100760000D02*
X155448000Y-100838000D01*
X155448000Y-100838000D02*
X155448000Y-100760000D01*
X151200000Y-100760000D02*
X155448000Y-100760000D01*
X155448000Y-100760000D02*
X156860980Y-100760000D01*
X156860980Y-100760000D02*
X158242000Y-102141020D01*
X142240000Y-114300000D02*
X142240000Y-109220000D01*
X142268000Y-116078000D02*
X142268000Y-114328000D01*
X142268000Y-114328000D02*
X142240000Y-114300000D01*
D21*
X142268000Y-114328000D02*
X142240000Y-114300000D01*
D20*
X139700000Y-114300000D02*
X139700000Y-117856000D01*
X140462000Y-118618000D02*
X142268000Y-118618000D01*
X139700000Y-117856000D02*
X140462000Y-118618000D01*
X139700000Y-109220000D02*
X139700000Y-114300000D01*
X149860000Y-109220000D02*
X152400000Y-109220000D01*
X149860000Y-109220000D02*
X149860000Y-114300000D01*
X152400000Y-109220000D02*
X152400000Y-114300000D01*
X152400000Y-114300000D02*
X149860000Y-114300000D01*
X145768000Y-117348000D02*
X146812000Y-117348000D01*
X146812000Y-117348000D02*
X149860000Y-114300000D01*
X154178000Y-106652000D02*
X154178000Y-107696000D01*
X154178000Y-107696000D02*
X152654000Y-109220000D01*
X152654000Y-109220000D02*
X152400000Y-109220000D01*
D22*
G36*
X163350000Y-121721178D02*
X159821178Y-125250000D01*
X139898822Y-125250000D01*
X136370000Y-121721178D01*
X136370000Y-109458638D01*
X138494792Y-109458638D01*
X138677855Y-109901686D01*
X139016531Y-110240953D01*
X139045000Y-110252774D01*
X139045000Y-113266829D01*
X139018314Y-113277855D01*
X138679047Y-113616531D01*
X138495210Y-114059259D01*
X138494792Y-114538638D01*
X138677855Y-114981686D01*
X139016531Y-115320953D01*
X139045000Y-115332774D01*
X139045000Y-117856000D01*
X139094859Y-118106658D01*
X139236073Y-118318000D01*
X139236845Y-118319155D01*
X139998845Y-119081155D01*
X140211342Y-119223141D01*
X140462000Y-119273000D01*
X141170170Y-119273000D01*
X141207346Y-119298401D01*
X141368000Y-119330934D01*
X143168000Y-119330934D01*
X143318084Y-119302694D01*
X143455927Y-119213994D01*
X143548401Y-119078654D01*
X143580934Y-118918000D01*
X143580934Y-118318000D01*
X143552694Y-118167916D01*
X143463994Y-118030073D01*
X143328654Y-117937599D01*
X143321574Y-117936165D01*
X143352097Y-117923522D01*
X143443521Y-117832098D01*
X143493000Y-117712647D01*
X143493000Y-117574250D01*
X143411750Y-117493000D01*
X142413000Y-117493000D01*
X142413000Y-117513000D01*
X142123000Y-117513000D01*
X142123000Y-117493000D01*
X141124250Y-117493000D01*
X141043000Y-117574250D01*
X141043000Y-117712647D01*
X141092479Y-117832098D01*
X141183903Y-117923522D01*
X141213846Y-117935925D01*
X141171770Y-117963000D01*
X140733310Y-117963000D01*
X140355000Y-117584690D01*
X140355000Y-115778000D01*
X140955066Y-115778000D01*
X140955066Y-116378000D01*
X140983306Y-116528084D01*
X141072006Y-116665927D01*
X141207346Y-116758401D01*
X141214426Y-116759835D01*
X141183903Y-116772478D01*
X141092479Y-116863902D01*
X141043000Y-116983353D01*
X141043000Y-117121750D01*
X141124250Y-117203000D01*
X142123000Y-117203000D01*
X142123000Y-117183000D01*
X142413000Y-117183000D01*
X142413000Y-117203000D01*
X143411750Y-117203000D01*
X143493000Y-117121750D01*
X143493000Y-117048000D01*
X144455066Y-117048000D01*
X144455066Y-117648000D01*
X144483306Y-117798084D01*
X144572006Y-117935927D01*
X144640798Y-117982930D01*
X144580073Y-118022006D01*
X144487599Y-118157346D01*
X144455066Y-118318000D01*
X144455066Y-118918000D01*
X144483306Y-119068084D01*
X144572006Y-119205927D01*
X144707346Y-119298401D01*
X144868000Y-119330934D01*
X146668000Y-119330934D01*
X146818084Y-119302694D01*
X146955927Y-119213994D01*
X147048401Y-119078654D01*
X147080934Y-118918000D01*
X147080934Y-118318000D01*
X147052694Y-118167916D01*
X146963994Y-118030073D01*
X146899034Y-117985688D01*
X147062658Y-117953141D01*
X147275155Y-117811155D01*
X149592593Y-115493717D01*
X149619259Y-115504790D01*
X150098638Y-115505208D01*
X150541686Y-115322145D01*
X150880953Y-114983469D01*
X150892774Y-114955000D01*
X151366829Y-114955000D01*
X151377855Y-114981686D01*
X151716531Y-115320953D01*
X152159259Y-115504790D01*
X152638638Y-115505208D01*
X153081686Y-115322145D01*
X153254982Y-115149150D01*
X154295911Y-115149150D01*
X154388503Y-115305759D01*
X154815371Y-115440249D01*
X155261212Y-115401147D01*
X155491497Y-115305759D01*
X155584089Y-115149150D01*
X154940000Y-114505061D01*
X154295911Y-115149150D01*
X153254982Y-115149150D01*
X153420953Y-114983469D01*
X153604790Y-114540741D01*
X153605108Y-114175371D01*
X153799751Y-114175371D01*
X153838853Y-114621212D01*
X153934241Y-114851497D01*
X154090850Y-114944089D01*
X154734939Y-114300000D01*
X155145061Y-114300000D01*
X155789150Y-114944089D01*
X155945759Y-114851497D01*
X156044329Y-114538638D01*
X156274792Y-114538638D01*
X156457855Y-114981686D01*
X156796531Y-115320953D01*
X157239259Y-115504790D01*
X157718638Y-115505208D01*
X158161686Y-115322145D01*
X158500953Y-114983469D01*
X158684790Y-114540741D01*
X158685208Y-114061362D01*
X158502145Y-113618314D01*
X158163469Y-113279047D01*
X157720741Y-113095210D01*
X157241362Y-113094792D01*
X156798314Y-113277855D01*
X156459047Y-113616531D01*
X156275210Y-114059259D01*
X156274792Y-114538638D01*
X156044329Y-114538638D01*
X156080249Y-114424629D01*
X156041147Y-113978788D01*
X155945759Y-113748503D01*
X155789150Y-113655911D01*
X155145061Y-114300000D01*
X154734939Y-114300000D01*
X154090850Y-113655911D01*
X153934241Y-113748503D01*
X153799751Y-114175371D01*
X153605108Y-114175371D01*
X153605208Y-114061362D01*
X153422145Y-113618314D01*
X153254973Y-113450850D01*
X154295911Y-113450850D01*
X154940000Y-114094939D01*
X155584089Y-113450850D01*
X155491497Y-113294241D01*
X155064629Y-113159751D01*
X154618788Y-113198853D01*
X154388503Y-113294241D01*
X154295911Y-113450850D01*
X153254973Y-113450850D01*
X153083469Y-113279047D01*
X153055000Y-113267226D01*
X153055000Y-110253171D01*
X153081686Y-110242145D01*
X153254982Y-110069150D01*
X154295911Y-110069150D01*
X154388503Y-110225759D01*
X154815371Y-110360249D01*
X155261212Y-110321147D01*
X155491497Y-110225759D01*
X155584089Y-110069150D01*
X154940000Y-109425061D01*
X154295911Y-110069150D01*
X153254982Y-110069150D01*
X153420953Y-109903469D01*
X153604790Y-109460741D01*
X153605021Y-109195289D01*
X153843363Y-108956947D01*
X153799751Y-109095371D01*
X153838853Y-109541212D01*
X153934241Y-109771497D01*
X154090850Y-109864089D01*
X154734939Y-109220000D01*
X155145061Y-109220000D01*
X155789150Y-109864089D01*
X155945759Y-109771497D01*
X156044329Y-109458638D01*
X156274792Y-109458638D01*
X156457855Y-109901686D01*
X156796531Y-110240953D01*
X157239259Y-110424790D01*
X157718638Y-110425208D01*
X158161686Y-110242145D01*
X158500953Y-109903469D01*
X158684790Y-109460741D01*
X158685208Y-108981362D01*
X158502145Y-108538314D01*
X158163469Y-108199047D01*
X158135000Y-108187226D01*
X158135000Y-107801594D01*
X159142430Y-107801594D01*
X159292514Y-107773354D01*
X159430357Y-107684654D01*
X159522831Y-107549314D01*
X159555364Y-107388660D01*
X159555364Y-104889300D01*
X159527124Y-104739216D01*
X159438424Y-104601373D01*
X159303084Y-104508899D01*
X159142430Y-104476366D01*
X157341570Y-104476366D01*
X157191486Y-104504606D01*
X157053643Y-104593306D01*
X156961169Y-104728646D01*
X156928636Y-104889300D01*
X156928636Y-106569839D01*
X156874859Y-106650322D01*
X156825000Y-106900980D01*
X156825000Y-108186829D01*
X156798314Y-108197855D01*
X156459047Y-108536531D01*
X156275210Y-108979259D01*
X156274792Y-109458638D01*
X156044329Y-109458638D01*
X156080249Y-109344629D01*
X156041147Y-108898788D01*
X155945759Y-108668503D01*
X155789150Y-108575911D01*
X155145061Y-109220000D01*
X154734939Y-109220000D01*
X154720797Y-109205858D01*
X154925858Y-109000797D01*
X154940000Y-109014939D01*
X155584089Y-108370850D01*
X155491497Y-108214241D01*
X155064629Y-108079751D01*
X154671153Y-108114260D01*
X154783141Y-107946658D01*
X154817895Y-107771936D01*
X154858401Y-107712654D01*
X154859835Y-107705574D01*
X154872478Y-107736097D01*
X154963902Y-107827521D01*
X155083353Y-107877000D01*
X155221750Y-107877000D01*
X155303000Y-107795750D01*
X155303000Y-106797000D01*
X155593000Y-106797000D01*
X155593000Y-107795750D01*
X155674250Y-107877000D01*
X155812647Y-107877000D01*
X155932098Y-107827521D01*
X156023522Y-107736097D01*
X156073000Y-107616646D01*
X156073000Y-106878250D01*
X155991750Y-106797000D01*
X155593000Y-106797000D01*
X155303000Y-106797000D01*
X155283000Y-106797000D01*
X155283000Y-106507000D01*
X155303000Y-106507000D01*
X155303000Y-105508250D01*
X155593000Y-105508250D01*
X155593000Y-106507000D01*
X155991750Y-106507000D01*
X156073000Y-106425750D01*
X156073000Y-105687354D01*
X156023522Y-105567903D01*
X155932098Y-105476479D01*
X155812647Y-105427000D01*
X155674250Y-105427000D01*
X155593000Y-105508250D01*
X155303000Y-105508250D01*
X155221750Y-105427000D01*
X155083353Y-105427000D01*
X154963902Y-105476479D01*
X154872478Y-105567903D01*
X154860075Y-105597846D01*
X154773994Y-105464073D01*
X154638654Y-105371599D01*
X154478000Y-105339066D01*
X153878000Y-105339066D01*
X153727916Y-105367306D01*
X153590073Y-105456006D01*
X153543070Y-105524798D01*
X153503994Y-105464073D01*
X153368654Y-105371599D01*
X153208000Y-105339066D01*
X152608000Y-105339066D01*
X152457916Y-105367306D01*
X152320073Y-105456006D01*
X152227599Y-105591346D01*
X152195066Y-105752000D01*
X152195066Y-107552000D01*
X152223306Y-107702084D01*
X152312006Y-107839927D01*
X152447346Y-107932401D01*
X152608000Y-107964934D01*
X152982756Y-107964934D01*
X152846882Y-108100808D01*
X152640741Y-108015210D01*
X152161362Y-108014792D01*
X151718314Y-108197855D01*
X151379047Y-108536531D01*
X151367226Y-108565000D01*
X150893171Y-108565000D01*
X150882145Y-108538314D01*
X150543469Y-108199047D01*
X150100741Y-108015210D01*
X149621362Y-108014792D01*
X149178314Y-108197855D01*
X148839047Y-108536531D01*
X148655210Y-108979259D01*
X148654792Y-109458638D01*
X148837855Y-109901686D01*
X149176531Y-110240953D01*
X149205000Y-110252774D01*
X149205000Y-113266829D01*
X149178314Y-113277855D01*
X148839047Y-113616531D01*
X148655210Y-114059259D01*
X148654792Y-114538638D01*
X148666563Y-114567127D01*
X148229377Y-115004313D01*
X148169152Y-114944088D01*
X148325759Y-114851497D01*
X148460249Y-114424629D01*
X148421147Y-113978788D01*
X148325759Y-113748503D01*
X148169150Y-113655911D01*
X147525061Y-114300000D01*
X147539204Y-114314143D01*
X147334143Y-114519204D01*
X147320000Y-114505061D01*
X146675911Y-115149150D01*
X146768503Y-115305759D01*
X147195371Y-115440249D01*
X147641212Y-115401147D01*
X147871497Y-115305759D01*
X147964088Y-115149152D01*
X148024313Y-115209377D01*
X146961220Y-116272470D01*
X146911750Y-116223000D01*
X145913000Y-116223000D01*
X145913000Y-116243000D01*
X145623000Y-116243000D01*
X145623000Y-116223000D01*
X144624250Y-116223000D01*
X144543000Y-116304250D01*
X144543000Y-116442647D01*
X144592479Y-116562098D01*
X144683903Y-116653522D01*
X144713846Y-116665925D01*
X144580073Y-116752006D01*
X144487599Y-116887346D01*
X144455066Y-117048000D01*
X143493000Y-117048000D01*
X143493000Y-116983353D01*
X143443521Y-116863902D01*
X143352097Y-116772478D01*
X143322154Y-116760075D01*
X143455927Y-116673994D01*
X143548401Y-116538654D01*
X143580934Y-116378000D01*
X143580934Y-115778000D01*
X143552694Y-115627916D01*
X143463994Y-115490073D01*
X143328654Y-115397599D01*
X143168000Y-115365066D01*
X142923000Y-115365066D01*
X142923000Y-115320833D01*
X143260953Y-114983469D01*
X143444790Y-114540741D01*
X143444791Y-114538638D01*
X143574792Y-114538638D01*
X143757855Y-114981686D01*
X144096531Y-115320953D01*
X144539259Y-115504790D01*
X144681467Y-115504914D01*
X144592479Y-115593902D01*
X144543000Y-115713353D01*
X144543000Y-115851750D01*
X144624250Y-115933000D01*
X145623000Y-115933000D01*
X145623000Y-115534250D01*
X145913000Y-115534250D01*
X145913000Y-115933000D01*
X146911750Y-115933000D01*
X146993000Y-115851750D01*
X146993000Y-115713353D01*
X146943521Y-115593902D01*
X146852097Y-115502478D01*
X146732646Y-115453000D01*
X145994250Y-115453000D01*
X145913000Y-115534250D01*
X145623000Y-115534250D01*
X145541750Y-115453000D01*
X145144991Y-115453000D01*
X145461686Y-115322145D01*
X145800953Y-114983469D01*
X145984790Y-114540741D01*
X145985108Y-114175371D01*
X146179751Y-114175371D01*
X146218853Y-114621212D01*
X146314241Y-114851497D01*
X146470850Y-114944089D01*
X147114939Y-114300000D01*
X146470850Y-113655911D01*
X146314241Y-113748503D01*
X146179751Y-114175371D01*
X145985108Y-114175371D01*
X145985208Y-114061362D01*
X145802145Y-113618314D01*
X145634973Y-113450850D01*
X146675911Y-113450850D01*
X147320000Y-114094939D01*
X147964089Y-113450850D01*
X147871497Y-113294241D01*
X147444629Y-113159751D01*
X146998788Y-113198853D01*
X146768503Y-113294241D01*
X146675911Y-113450850D01*
X145634973Y-113450850D01*
X145463469Y-113279047D01*
X145020741Y-113095210D01*
X144541362Y-113094792D01*
X144098314Y-113277855D01*
X143759047Y-113616531D01*
X143575210Y-114059259D01*
X143574792Y-114538638D01*
X143444791Y-114538638D01*
X143445208Y-114061362D01*
X143262145Y-113618314D01*
X142923469Y-113279047D01*
X142895000Y-113267226D01*
X142895000Y-110253171D01*
X142921686Y-110242145D01*
X143260953Y-109903469D01*
X143444790Y-109460741D01*
X143444791Y-109458638D01*
X143574792Y-109458638D01*
X143757855Y-109901686D01*
X144096531Y-110240953D01*
X144539259Y-110424790D01*
X145018638Y-110425208D01*
X145461686Y-110242145D01*
X145634982Y-110069150D01*
X146675911Y-110069150D01*
X146768503Y-110225759D01*
X147195371Y-110360249D01*
X147641212Y-110321147D01*
X147871497Y-110225759D01*
X147964089Y-110069150D01*
X147320000Y-109425061D01*
X146675911Y-110069150D01*
X145634982Y-110069150D01*
X145800953Y-109903469D01*
X145984790Y-109460741D01*
X145985108Y-109095371D01*
X146179751Y-109095371D01*
X146218853Y-109541212D01*
X146314241Y-109771497D01*
X146470850Y-109864089D01*
X147114939Y-109220000D01*
X147525061Y-109220000D01*
X148169150Y-109864089D01*
X148325759Y-109771497D01*
X148460249Y-109344629D01*
X148421147Y-108898788D01*
X148325759Y-108668503D01*
X148169150Y-108575911D01*
X147525061Y-109220000D01*
X147114939Y-109220000D01*
X146470850Y-108575911D01*
X146314241Y-108668503D01*
X146179751Y-109095371D01*
X145985108Y-109095371D01*
X145985208Y-108981362D01*
X145802145Y-108538314D01*
X145634973Y-108370850D01*
X146675911Y-108370850D01*
X147320000Y-109014939D01*
X147964089Y-108370850D01*
X147871497Y-108214241D01*
X147444629Y-108079751D01*
X146998788Y-108118853D01*
X146768503Y-108214241D01*
X146675911Y-108370850D01*
X145634973Y-108370850D01*
X145463469Y-108199047D01*
X145020741Y-108015210D01*
X144541362Y-108014792D01*
X144098314Y-108197855D01*
X143759047Y-108536531D01*
X143575210Y-108979259D01*
X143574792Y-109458638D01*
X143444791Y-109458638D01*
X143445208Y-108981362D01*
X143262145Y-108538314D01*
X142923469Y-108199047D01*
X142480741Y-108015210D01*
X142001362Y-108014792D01*
X141558314Y-108197855D01*
X141219047Y-108536531D01*
X141035210Y-108979259D01*
X141034792Y-109458638D01*
X141217855Y-109901686D01*
X141556531Y-110240953D01*
X141585000Y-110252774D01*
X141585000Y-113266829D01*
X141558314Y-113277855D01*
X141219047Y-113616531D01*
X141035210Y-114059259D01*
X141034792Y-114538638D01*
X141217855Y-114981686D01*
X141556531Y-115320953D01*
X141613000Y-115344401D01*
X141613000Y-115365066D01*
X141368000Y-115365066D01*
X141217916Y-115393306D01*
X141080073Y-115482006D01*
X140987599Y-115617346D01*
X140955066Y-115778000D01*
X140355000Y-115778000D01*
X140355000Y-115333171D01*
X140381686Y-115322145D01*
X140720953Y-114983469D01*
X140904790Y-114540741D01*
X140905208Y-114061362D01*
X140722145Y-113618314D01*
X140383469Y-113279047D01*
X140355000Y-113267226D01*
X140355000Y-110253171D01*
X140381686Y-110242145D01*
X140720953Y-109903469D01*
X140904790Y-109460741D01*
X140905208Y-108981362D01*
X140722145Y-108538314D01*
X140383469Y-108199047D01*
X139940741Y-108015210D01*
X139461362Y-108014792D01*
X139018314Y-108197855D01*
X138679047Y-108536531D01*
X138495210Y-108979259D01*
X138494792Y-109458638D01*
X136370000Y-109458638D01*
X136370000Y-104889300D01*
X141434636Y-104889300D01*
X141434636Y-107388660D01*
X141462876Y-107538744D01*
X141551576Y-107676587D01*
X141686916Y-107769061D01*
X141847570Y-107801594D01*
X143648430Y-107801594D01*
X143798514Y-107773354D01*
X143936357Y-107684654D01*
X144028831Y-107549314D01*
X144061364Y-107388660D01*
X144061364Y-106793980D01*
X144521020Y-106793980D01*
X144771678Y-106744121D01*
X144984175Y-106602135D01*
X145852593Y-105733717D01*
X145879259Y-105744790D01*
X146358638Y-105745208D01*
X146801686Y-105562145D01*
X147140953Y-105223469D01*
X147324790Y-104780741D01*
X147325208Y-104301362D01*
X147142145Y-103858314D01*
X146803469Y-103519047D01*
X146360741Y-103335210D01*
X145881362Y-103334792D01*
X145438314Y-103517855D01*
X145099047Y-103856531D01*
X144915210Y-104299259D01*
X144914792Y-104778638D01*
X144926563Y-104807127D01*
X144249710Y-105483980D01*
X144061364Y-105483980D01*
X144061364Y-104889300D01*
X144033124Y-104739216D01*
X143944424Y-104601373D01*
X143809084Y-104508899D01*
X143648430Y-104476366D01*
X141847570Y-104476366D01*
X141697486Y-104504606D01*
X141559643Y-104593306D01*
X141467169Y-104728646D01*
X141434636Y-104889300D01*
X136370000Y-104889300D01*
X136370000Y-103729764D01*
X138405958Y-103729764D01*
X138536230Y-104044298D01*
X138879798Y-104438935D01*
X139348235Y-104672054D01*
X139555000Y-104629900D01*
X139555000Y-103523000D01*
X139845000Y-103523000D01*
X139845000Y-104629900D01*
X140051765Y-104672054D01*
X140520202Y-104438935D01*
X140863770Y-104044298D01*
X140994042Y-103729764D01*
X140951377Y-103523000D01*
X139845000Y-103523000D01*
X139555000Y-103523000D01*
X138448623Y-103523000D01*
X138405958Y-103729764D01*
X136370000Y-103729764D01*
X136370000Y-101064250D01*
X138359000Y-101064250D01*
X138359000Y-101918647D01*
X138408479Y-102038098D01*
X138499903Y-102129522D01*
X138619354Y-102179000D01*
X139157230Y-102179000D01*
X138879798Y-102317065D01*
X138536230Y-102711702D01*
X138405958Y-103026236D01*
X138448623Y-103233000D01*
X139555000Y-103233000D01*
X139555000Y-102126100D01*
X139531451Y-102121299D01*
X139555000Y-102097750D01*
X139555000Y-100983000D01*
X139845000Y-100983000D01*
X139845000Y-102097750D01*
X139868549Y-102121299D01*
X139845000Y-102126100D01*
X139845000Y-103233000D01*
X140951377Y-103233000D01*
X140994042Y-103026236D01*
X140863770Y-102711702D01*
X140520202Y-102317065D01*
X140242770Y-102179000D01*
X140780646Y-102179000D01*
X140900097Y-102129522D01*
X140991521Y-102038098D01*
X141041000Y-101918647D01*
X141041000Y-101064250D01*
X140959750Y-100983000D01*
X139845000Y-100983000D01*
X139555000Y-100983000D01*
X138440250Y-100983000D01*
X138359000Y-101064250D01*
X136370000Y-101064250D01*
X136370000Y-100891340D01*
X141434636Y-100891340D01*
X141434636Y-103390700D01*
X141462876Y-103540784D01*
X141551576Y-103678627D01*
X141686916Y-103771101D01*
X141847570Y-103803634D01*
X143648430Y-103803634D01*
X143798514Y-103775394D01*
X143936357Y-103686694D01*
X144028831Y-103551354D01*
X144061364Y-103390700D01*
X144061364Y-101753966D01*
X144400330Y-101415000D01*
X145086829Y-101415000D01*
X145097855Y-101441686D01*
X145436531Y-101780953D01*
X145879259Y-101964790D01*
X146358638Y-101965208D01*
X146387127Y-101953437D01*
X147766845Y-103333155D01*
X147979343Y-103475142D01*
X148230000Y-103525000D01*
X150511157Y-103525000D01*
X150179047Y-103856531D01*
X149995210Y-104299259D01*
X149994792Y-104778638D01*
X150177855Y-105221686D01*
X150516531Y-105560953D01*
X150959259Y-105744790D01*
X151438638Y-105745208D01*
X151881686Y-105562145D01*
X152220953Y-105223469D01*
X152404790Y-104780741D01*
X152405119Y-104403548D01*
X152447346Y-104432401D01*
X152608000Y-104464934D01*
X153208000Y-104464934D01*
X153358084Y-104436694D01*
X153495927Y-104347994D01*
X153588401Y-104212654D01*
X153589835Y-104205574D01*
X153602478Y-104236097D01*
X153693902Y-104327521D01*
X153813353Y-104377000D01*
X153951750Y-104377000D01*
X154033000Y-104295750D01*
X154033000Y-103297000D01*
X154013000Y-103297000D01*
X154013000Y-103007000D01*
X154033000Y-103007000D01*
X154033000Y-102008250D01*
X153951750Y-101927000D01*
X153813353Y-101927000D01*
X153693902Y-101976479D01*
X153602478Y-102067903D01*
X153590075Y-102097846D01*
X153503994Y-101964073D01*
X153368654Y-101871599D01*
X153208000Y-101839066D01*
X152608000Y-101839066D01*
X152457916Y-101867306D01*
X152320073Y-101956006D01*
X152227599Y-102091346D01*
X152202559Y-102215000D01*
X148501310Y-102215000D01*
X147313717Y-101027407D01*
X147324790Y-101000741D01*
X147324791Y-100998638D01*
X149994792Y-100998638D01*
X150177855Y-101441686D01*
X150516531Y-101780953D01*
X150959259Y-101964790D01*
X151438638Y-101965208D01*
X151881686Y-101782145D01*
X152220953Y-101443469D01*
X152232774Y-101415000D01*
X154793000Y-101415000D01*
X154793000Y-102054170D01*
X154767599Y-102091346D01*
X154766165Y-102098426D01*
X154753522Y-102067903D01*
X154662098Y-101976479D01*
X154542647Y-101927000D01*
X154404250Y-101927000D01*
X154323000Y-102008250D01*
X154323000Y-103007000D01*
X154343000Y-103007000D01*
X154343000Y-103297000D01*
X154323000Y-103297000D01*
X154323000Y-104295750D01*
X154404250Y-104377000D01*
X154542647Y-104377000D01*
X154662098Y-104327521D01*
X154753522Y-104236097D01*
X154765925Y-104206154D01*
X154852006Y-104339927D01*
X154987346Y-104432401D01*
X155148000Y-104464934D01*
X155748000Y-104464934D01*
X155898084Y-104436694D01*
X156035927Y-104347994D01*
X156128401Y-104212654D01*
X156160934Y-104052000D01*
X156160934Y-102252000D01*
X156132694Y-102101916D01*
X156103000Y-102055770D01*
X156103000Y-101415000D01*
X156589670Y-101415000D01*
X156928636Y-101753966D01*
X156928636Y-103390700D01*
X156956876Y-103540784D01*
X157045576Y-103678627D01*
X157180916Y-103771101D01*
X157341570Y-103803634D01*
X159142430Y-103803634D01*
X159292514Y-103775394D01*
X159398626Y-103707113D01*
X159441328Y-103921793D01*
X159749362Y-104382799D01*
X160210368Y-104690833D01*
X160754161Y-104799000D01*
X160809839Y-104799000D01*
X161353632Y-104690833D01*
X161814638Y-104382799D01*
X162122672Y-103921793D01*
X162230839Y-103378000D01*
X162122672Y-102834207D01*
X161814638Y-102373201D01*
X161655598Y-102266934D01*
X161798000Y-102266934D01*
X161948084Y-102238694D01*
X162085927Y-102149994D01*
X162178401Y-102014654D01*
X162210934Y-101854000D01*
X162210934Y-99822000D01*
X162182694Y-99671916D01*
X162093994Y-99534073D01*
X161958654Y-99441599D01*
X161798000Y-99409066D01*
X159766000Y-99409066D01*
X159615916Y-99437306D01*
X159478073Y-99526006D01*
X159385599Y-99661346D01*
X159353066Y-99822000D01*
X159353066Y-100545090D01*
X159303084Y-100510939D01*
X159142430Y-100478406D01*
X157505696Y-100478406D01*
X157324135Y-100296845D01*
X157111638Y-100154859D01*
X156860980Y-100105000D01*
X152233171Y-100105000D01*
X152222145Y-100078314D01*
X151883469Y-99739047D01*
X151440741Y-99555210D01*
X150961362Y-99554792D01*
X150518314Y-99737855D01*
X150179047Y-100076531D01*
X149995210Y-100519259D01*
X149994792Y-100998638D01*
X147324791Y-100998638D01*
X147325208Y-100521362D01*
X147142145Y-100078314D01*
X146803469Y-99739047D01*
X146360741Y-99555210D01*
X145881362Y-99554792D01*
X145438314Y-99737855D01*
X145099047Y-100076531D01*
X145087226Y-100105000D01*
X144129020Y-100105000D01*
X143878362Y-100154859D01*
X143665865Y-100296845D01*
X143484304Y-100478406D01*
X141847570Y-100478406D01*
X141697486Y-100506646D01*
X141559643Y-100595346D01*
X141467169Y-100730686D01*
X141434636Y-100891340D01*
X136370000Y-100891340D01*
X136370000Y-99757353D01*
X138359000Y-99757353D01*
X138359000Y-100611750D01*
X138440250Y-100693000D01*
X139555000Y-100693000D01*
X139555000Y-99578250D01*
X139845000Y-99578250D01*
X139845000Y-100693000D01*
X140959750Y-100693000D01*
X141041000Y-100611750D01*
X141041000Y-99757353D01*
X140991521Y-99637902D01*
X140900097Y-99546478D01*
X140780646Y-99497000D01*
X139926250Y-99497000D01*
X139845000Y-99578250D01*
X139555000Y-99578250D01*
X139473750Y-99497000D01*
X138619354Y-99497000D01*
X138499903Y-99546478D01*
X138408479Y-99637902D01*
X138359000Y-99757353D01*
X136370000Y-99757353D01*
X136370000Y-99165000D01*
X163350000Y-99165000D01*
X163350000Y-121721178D01*
X163350000Y-121721178D01*
G37*
X163350000Y-121721178D02*
X159821178Y-125250000D01*
X139898822Y-125250000D01*
X136370000Y-121721178D01*
X136370000Y-109458638D01*
X138494792Y-109458638D01*
X138677855Y-109901686D01*
X139016531Y-110240953D01*
X139045000Y-110252774D01*
X139045000Y-113266829D01*
X139018314Y-113277855D01*
X138679047Y-113616531D01*
X138495210Y-114059259D01*
X138494792Y-114538638D01*
X138677855Y-114981686D01*
X139016531Y-115320953D01*
X139045000Y-115332774D01*
X139045000Y-117856000D01*
X139094859Y-118106658D01*
X139236073Y-118318000D01*
X139236845Y-118319155D01*
X139998845Y-119081155D01*
X140211342Y-119223141D01*
X140462000Y-119273000D01*
X141170170Y-119273000D01*
X141207346Y-119298401D01*
X141368000Y-119330934D01*
X143168000Y-119330934D01*
X143318084Y-119302694D01*
X143455927Y-119213994D01*
X143548401Y-119078654D01*
X143580934Y-118918000D01*
X143580934Y-118318000D01*
X143552694Y-118167916D01*
X143463994Y-118030073D01*
X143328654Y-117937599D01*
X143321574Y-117936165D01*
X143352097Y-117923522D01*
X143443521Y-117832098D01*
X143493000Y-117712647D01*
X143493000Y-117574250D01*
X143411750Y-117493000D01*
X142413000Y-117493000D01*
X142413000Y-117513000D01*
X142123000Y-117513000D01*
X142123000Y-117493000D01*
X141124250Y-117493000D01*
X141043000Y-117574250D01*
X141043000Y-117712647D01*
X141092479Y-117832098D01*
X141183903Y-117923522D01*
X141213846Y-117935925D01*
X141171770Y-117963000D01*
X140733310Y-117963000D01*
X140355000Y-117584690D01*
X140355000Y-115778000D01*
X140955066Y-115778000D01*
X140955066Y-116378000D01*
X140983306Y-116528084D01*
X141072006Y-116665927D01*
X141207346Y-116758401D01*
X141214426Y-116759835D01*
X141183903Y-116772478D01*
X141092479Y-116863902D01*
X141043000Y-116983353D01*
X141043000Y-117121750D01*
X141124250Y-117203000D01*
X142123000Y-117203000D01*
X142123000Y-117183000D01*
X142413000Y-117183000D01*
X142413000Y-117203000D01*
X143411750Y-117203000D01*
X143493000Y-117121750D01*
X143493000Y-117048000D01*
X144455066Y-117048000D01*
X144455066Y-117648000D01*
X144483306Y-117798084D01*
X144572006Y-117935927D01*
X144640798Y-117982930D01*
X144580073Y-118022006D01*
X144487599Y-118157346D01*
X144455066Y-118318000D01*
X144455066Y-118918000D01*
X144483306Y-119068084D01*
X144572006Y-119205927D01*
X144707346Y-119298401D01*
X144868000Y-119330934D01*
X146668000Y-119330934D01*
X146818084Y-119302694D01*
X146955927Y-119213994D01*
X147048401Y-119078654D01*
X147080934Y-118918000D01*
X147080934Y-118318000D01*
X147052694Y-118167916D01*
X146963994Y-118030073D01*
X146899034Y-117985688D01*
X147062658Y-117953141D01*
X147275155Y-117811155D01*
X149592593Y-115493717D01*
X149619259Y-115504790D01*
X150098638Y-115505208D01*
X150541686Y-115322145D01*
X150880953Y-114983469D01*
X150892774Y-114955000D01*
X151366829Y-114955000D01*
X151377855Y-114981686D01*
X151716531Y-115320953D01*
X152159259Y-115504790D01*
X152638638Y-115505208D01*
X153081686Y-115322145D01*
X153254982Y-115149150D01*
X154295911Y-115149150D01*
X154388503Y-115305759D01*
X154815371Y-115440249D01*
X155261212Y-115401147D01*
X155491497Y-115305759D01*
X155584089Y-115149150D01*
X154940000Y-114505061D01*
X154295911Y-115149150D01*
X153254982Y-115149150D01*
X153420953Y-114983469D01*
X153604790Y-114540741D01*
X153605108Y-114175371D01*
X153799751Y-114175371D01*
X153838853Y-114621212D01*
X153934241Y-114851497D01*
X154090850Y-114944089D01*
X154734939Y-114300000D01*
X155145061Y-114300000D01*
X155789150Y-114944089D01*
X155945759Y-114851497D01*
X156044329Y-114538638D01*
X156274792Y-114538638D01*
X156457855Y-114981686D01*
X156796531Y-115320953D01*
X157239259Y-115504790D01*
X157718638Y-115505208D01*
X158161686Y-115322145D01*
X158500953Y-114983469D01*
X158684790Y-114540741D01*
X158685208Y-114061362D01*
X158502145Y-113618314D01*
X158163469Y-113279047D01*
X157720741Y-113095210D01*
X157241362Y-113094792D01*
X156798314Y-113277855D01*
X156459047Y-113616531D01*
X156275210Y-114059259D01*
X156274792Y-114538638D01*
X156044329Y-114538638D01*
X156080249Y-114424629D01*
X156041147Y-113978788D01*
X155945759Y-113748503D01*
X155789150Y-113655911D01*
X155145061Y-114300000D01*
X154734939Y-114300000D01*
X154090850Y-113655911D01*
X153934241Y-113748503D01*
X153799751Y-114175371D01*
X153605108Y-114175371D01*
X153605208Y-114061362D01*
X153422145Y-113618314D01*
X153254973Y-113450850D01*
X154295911Y-113450850D01*
X154940000Y-114094939D01*
X155584089Y-113450850D01*
X155491497Y-113294241D01*
X155064629Y-113159751D01*
X154618788Y-113198853D01*
X154388503Y-113294241D01*
X154295911Y-113450850D01*
X153254973Y-113450850D01*
X153083469Y-113279047D01*
X153055000Y-113267226D01*
X153055000Y-110253171D01*
X153081686Y-110242145D01*
X153254982Y-110069150D01*
X154295911Y-110069150D01*
X154388503Y-110225759D01*
X154815371Y-110360249D01*
X155261212Y-110321147D01*
X155491497Y-110225759D01*
X155584089Y-110069150D01*
X154940000Y-109425061D01*
X154295911Y-110069150D01*
X153254982Y-110069150D01*
X153420953Y-109903469D01*
X153604790Y-109460741D01*
X153605021Y-109195289D01*
X153843363Y-108956947D01*
X153799751Y-109095371D01*
X153838853Y-109541212D01*
X153934241Y-109771497D01*
X154090850Y-109864089D01*
X154734939Y-109220000D01*
X155145061Y-109220000D01*
X155789150Y-109864089D01*
X155945759Y-109771497D01*
X156044329Y-109458638D01*
X156274792Y-109458638D01*
X156457855Y-109901686D01*
X156796531Y-110240953D01*
X157239259Y-110424790D01*
X157718638Y-110425208D01*
X158161686Y-110242145D01*
X158500953Y-109903469D01*
X158684790Y-109460741D01*
X158685208Y-108981362D01*
X158502145Y-108538314D01*
X158163469Y-108199047D01*
X158135000Y-108187226D01*
X158135000Y-107801594D01*
X159142430Y-107801594D01*
X159292514Y-107773354D01*
X159430357Y-107684654D01*
X159522831Y-107549314D01*
X159555364Y-107388660D01*
X159555364Y-104889300D01*
X159527124Y-104739216D01*
X159438424Y-104601373D01*
X159303084Y-104508899D01*
X159142430Y-104476366D01*
X157341570Y-104476366D01*
X157191486Y-104504606D01*
X157053643Y-104593306D01*
X156961169Y-104728646D01*
X156928636Y-104889300D01*
X156928636Y-106569839D01*
X156874859Y-106650322D01*
X156825000Y-106900980D01*
X156825000Y-108186829D01*
X156798314Y-108197855D01*
X156459047Y-108536531D01*
X156275210Y-108979259D01*
X156274792Y-109458638D01*
X156044329Y-109458638D01*
X156080249Y-109344629D01*
X156041147Y-108898788D01*
X155945759Y-108668503D01*
X155789150Y-108575911D01*
X155145061Y-109220000D01*
X154734939Y-109220000D01*
X154720797Y-109205858D01*
X154925858Y-109000797D01*
X154940000Y-109014939D01*
X155584089Y-108370850D01*
X155491497Y-108214241D01*
X155064629Y-108079751D01*
X154671153Y-108114260D01*
X154783141Y-107946658D01*
X154817895Y-107771936D01*
X154858401Y-107712654D01*
X154859835Y-107705574D01*
X154872478Y-107736097D01*
X154963902Y-107827521D01*
X155083353Y-107877000D01*
X155221750Y-107877000D01*
X155303000Y-107795750D01*
X155303000Y-106797000D01*
X155593000Y-106797000D01*
X155593000Y-107795750D01*
X155674250Y-107877000D01*
X155812647Y-107877000D01*
X155932098Y-107827521D01*
X156023522Y-107736097D01*
X156073000Y-107616646D01*
X156073000Y-106878250D01*
X155991750Y-106797000D01*
X155593000Y-106797000D01*
X155303000Y-106797000D01*
X155283000Y-106797000D01*
X155283000Y-106507000D01*
X155303000Y-106507000D01*
X155303000Y-105508250D01*
X155593000Y-105508250D01*
X155593000Y-106507000D01*
X155991750Y-106507000D01*
X156073000Y-106425750D01*
X156073000Y-105687354D01*
X156023522Y-105567903D01*
X155932098Y-105476479D01*
X155812647Y-105427000D01*
X155674250Y-105427000D01*
X155593000Y-105508250D01*
X155303000Y-105508250D01*
X155221750Y-105427000D01*
X155083353Y-105427000D01*
X154963902Y-105476479D01*
X154872478Y-105567903D01*
X154860075Y-105597846D01*
X154773994Y-105464073D01*
X154638654Y-105371599D01*
X154478000Y-105339066D01*
X153878000Y-105339066D01*
X153727916Y-105367306D01*
X153590073Y-105456006D01*
X153543070Y-105524798D01*
X153503994Y-105464073D01*
X153368654Y-105371599D01*
X153208000Y-105339066D01*
X152608000Y-105339066D01*
X152457916Y-105367306D01*
X152320073Y-105456006D01*
X152227599Y-105591346D01*
X152195066Y-105752000D01*
X152195066Y-107552000D01*
X152223306Y-107702084D01*
X152312006Y-107839927D01*
X152447346Y-107932401D01*
X152608000Y-107964934D01*
X152982756Y-107964934D01*
X152846882Y-108100808D01*
X152640741Y-108015210D01*
X152161362Y-108014792D01*
X151718314Y-108197855D01*
X151379047Y-108536531D01*
X151367226Y-108565000D01*
X150893171Y-108565000D01*
X150882145Y-108538314D01*
X150543469Y-108199047D01*
X150100741Y-108015210D01*
X149621362Y-108014792D01*
X149178314Y-108197855D01*
X148839047Y-108536531D01*
X148655210Y-108979259D01*
X148654792Y-109458638D01*
X148837855Y-109901686D01*
X149176531Y-110240953D01*
X149205000Y-110252774D01*
X149205000Y-113266829D01*
X149178314Y-113277855D01*
X148839047Y-113616531D01*
X148655210Y-114059259D01*
X148654792Y-114538638D01*
X148666563Y-114567127D01*
X148229377Y-115004313D01*
X148169152Y-114944088D01*
X148325759Y-114851497D01*
X148460249Y-114424629D01*
X148421147Y-113978788D01*
X148325759Y-113748503D01*
X148169150Y-113655911D01*
X147525061Y-114300000D01*
X147539204Y-114314143D01*
X147334143Y-114519204D01*
X147320000Y-114505061D01*
X146675911Y-115149150D01*
X146768503Y-115305759D01*
X147195371Y-115440249D01*
X147641212Y-115401147D01*
X147871497Y-115305759D01*
X147964088Y-115149152D01*
X148024313Y-115209377D01*
X146961220Y-116272470D01*
X146911750Y-116223000D01*
X145913000Y-116223000D01*
X145913000Y-116243000D01*
X145623000Y-116243000D01*
X145623000Y-116223000D01*
X144624250Y-116223000D01*
X144543000Y-116304250D01*
X144543000Y-116442647D01*
X144592479Y-116562098D01*
X144683903Y-116653522D01*
X144713846Y-116665925D01*
X144580073Y-116752006D01*
X144487599Y-116887346D01*
X144455066Y-117048000D01*
X143493000Y-117048000D01*
X143493000Y-116983353D01*
X143443521Y-116863902D01*
X143352097Y-116772478D01*
X143322154Y-116760075D01*
X143455927Y-116673994D01*
X143548401Y-116538654D01*
X143580934Y-116378000D01*
X143580934Y-115778000D01*
X143552694Y-115627916D01*
X143463994Y-115490073D01*
X143328654Y-115397599D01*
X143168000Y-115365066D01*
X142923000Y-115365066D01*
X142923000Y-115320833D01*
X143260953Y-114983469D01*
X143444790Y-114540741D01*
X143444791Y-114538638D01*
X143574792Y-114538638D01*
X143757855Y-114981686D01*
X144096531Y-115320953D01*
X144539259Y-115504790D01*
X144681467Y-115504914D01*
X144592479Y-115593902D01*
X144543000Y-115713353D01*
X144543000Y-115851750D01*
X144624250Y-115933000D01*
X145623000Y-115933000D01*
X145623000Y-115534250D01*
X145913000Y-115534250D01*
X145913000Y-115933000D01*
X146911750Y-115933000D01*
X146993000Y-115851750D01*
X146993000Y-115713353D01*
X146943521Y-115593902D01*
X146852097Y-115502478D01*
X146732646Y-115453000D01*
X145994250Y-115453000D01*
X145913000Y-115534250D01*
X145623000Y-115534250D01*
X145541750Y-115453000D01*
X145144991Y-115453000D01*
X145461686Y-115322145D01*
X145800953Y-114983469D01*
X145984790Y-114540741D01*
X145985108Y-114175371D01*
X146179751Y-114175371D01*
X146218853Y-114621212D01*
X146314241Y-114851497D01*
X146470850Y-114944089D01*
X147114939Y-114300000D01*
X146470850Y-113655911D01*
X146314241Y-113748503D01*
X146179751Y-114175371D01*
X145985108Y-114175371D01*
X145985208Y-114061362D01*
X145802145Y-113618314D01*
X145634973Y-113450850D01*
X146675911Y-113450850D01*
X147320000Y-114094939D01*
X147964089Y-113450850D01*
X147871497Y-113294241D01*
X147444629Y-113159751D01*
X146998788Y-113198853D01*
X146768503Y-113294241D01*
X146675911Y-113450850D01*
X145634973Y-113450850D01*
X145463469Y-113279047D01*
X145020741Y-113095210D01*
X144541362Y-113094792D01*
X144098314Y-113277855D01*
X143759047Y-113616531D01*
X143575210Y-114059259D01*
X143574792Y-114538638D01*
X143444791Y-114538638D01*
X143445208Y-114061362D01*
X143262145Y-113618314D01*
X142923469Y-113279047D01*
X142895000Y-113267226D01*
X142895000Y-110253171D01*
X142921686Y-110242145D01*
X143260953Y-109903469D01*
X143444790Y-109460741D01*
X143444791Y-109458638D01*
X143574792Y-109458638D01*
X143757855Y-109901686D01*
X144096531Y-110240953D01*
X144539259Y-110424790D01*
X145018638Y-110425208D01*
X145461686Y-110242145D01*
X145634982Y-110069150D01*
X146675911Y-110069150D01*
X146768503Y-110225759D01*
X147195371Y-110360249D01*
X147641212Y-110321147D01*
X147871497Y-110225759D01*
X147964089Y-110069150D01*
X147320000Y-109425061D01*
X146675911Y-110069150D01*
X145634982Y-110069150D01*
X145800953Y-109903469D01*
X145984790Y-109460741D01*
X145985108Y-109095371D01*
X146179751Y-109095371D01*
X146218853Y-109541212D01*
X146314241Y-109771497D01*
X146470850Y-109864089D01*
X147114939Y-109220000D01*
X147525061Y-109220000D01*
X148169150Y-109864089D01*
X148325759Y-109771497D01*
X148460249Y-109344629D01*
X148421147Y-108898788D01*
X148325759Y-108668503D01*
X148169150Y-108575911D01*
X147525061Y-109220000D01*
X147114939Y-109220000D01*
X146470850Y-108575911D01*
X146314241Y-108668503D01*
X146179751Y-109095371D01*
X145985108Y-109095371D01*
X145985208Y-108981362D01*
X145802145Y-108538314D01*
X145634973Y-108370850D01*
X146675911Y-108370850D01*
X147320000Y-109014939D01*
X147964089Y-108370850D01*
X147871497Y-108214241D01*
X147444629Y-108079751D01*
X146998788Y-108118853D01*
X146768503Y-108214241D01*
X146675911Y-108370850D01*
X145634973Y-108370850D01*
X145463469Y-108199047D01*
X145020741Y-108015210D01*
X144541362Y-108014792D01*
X144098314Y-108197855D01*
X143759047Y-108536531D01*
X143575210Y-108979259D01*
X143574792Y-109458638D01*
X143444791Y-109458638D01*
X143445208Y-108981362D01*
X143262145Y-108538314D01*
X142923469Y-108199047D01*
X142480741Y-108015210D01*
X142001362Y-108014792D01*
X141558314Y-108197855D01*
X141219047Y-108536531D01*
X141035210Y-108979259D01*
X141034792Y-109458638D01*
X141217855Y-109901686D01*
X141556531Y-110240953D01*
X141585000Y-110252774D01*
X141585000Y-113266829D01*
X141558314Y-113277855D01*
X141219047Y-113616531D01*
X141035210Y-114059259D01*
X141034792Y-114538638D01*
X141217855Y-114981686D01*
X141556531Y-115320953D01*
X141613000Y-115344401D01*
X141613000Y-115365066D01*
X141368000Y-115365066D01*
X141217916Y-115393306D01*
X141080073Y-115482006D01*
X140987599Y-115617346D01*
X140955066Y-115778000D01*
X140355000Y-115778000D01*
X140355000Y-115333171D01*
X140381686Y-115322145D01*
X140720953Y-114983469D01*
X140904790Y-114540741D01*
X140905208Y-114061362D01*
X140722145Y-113618314D01*
X140383469Y-113279047D01*
X140355000Y-113267226D01*
X140355000Y-110253171D01*
X140381686Y-110242145D01*
X140720953Y-109903469D01*
X140904790Y-109460741D01*
X140905208Y-108981362D01*
X140722145Y-108538314D01*
X140383469Y-108199047D01*
X139940741Y-108015210D01*
X139461362Y-108014792D01*
X139018314Y-108197855D01*
X138679047Y-108536531D01*
X138495210Y-108979259D01*
X138494792Y-109458638D01*
X136370000Y-109458638D01*
X136370000Y-104889300D01*
X141434636Y-104889300D01*
X141434636Y-107388660D01*
X141462876Y-107538744D01*
X141551576Y-107676587D01*
X141686916Y-107769061D01*
X141847570Y-107801594D01*
X143648430Y-107801594D01*
X143798514Y-107773354D01*
X143936357Y-107684654D01*
X144028831Y-107549314D01*
X144061364Y-107388660D01*
X144061364Y-106793980D01*
X144521020Y-106793980D01*
X144771678Y-106744121D01*
X144984175Y-106602135D01*
X145852593Y-105733717D01*
X145879259Y-105744790D01*
X146358638Y-105745208D01*
X146801686Y-105562145D01*
X147140953Y-105223469D01*
X147324790Y-104780741D01*
X147325208Y-104301362D01*
X147142145Y-103858314D01*
X146803469Y-103519047D01*
X146360741Y-103335210D01*
X145881362Y-103334792D01*
X145438314Y-103517855D01*
X145099047Y-103856531D01*
X144915210Y-104299259D01*
X144914792Y-104778638D01*
X144926563Y-104807127D01*
X144249710Y-105483980D01*
X144061364Y-105483980D01*
X144061364Y-104889300D01*
X144033124Y-104739216D01*
X143944424Y-104601373D01*
X143809084Y-104508899D01*
X143648430Y-104476366D01*
X141847570Y-104476366D01*
X141697486Y-104504606D01*
X141559643Y-104593306D01*
X141467169Y-104728646D01*
X141434636Y-104889300D01*
X136370000Y-104889300D01*
X136370000Y-103729764D01*
X138405958Y-103729764D01*
X138536230Y-104044298D01*
X138879798Y-104438935D01*
X139348235Y-104672054D01*
X139555000Y-104629900D01*
X139555000Y-103523000D01*
X139845000Y-103523000D01*
X139845000Y-104629900D01*
X140051765Y-104672054D01*
X140520202Y-104438935D01*
X140863770Y-104044298D01*
X140994042Y-103729764D01*
X140951377Y-103523000D01*
X139845000Y-103523000D01*
X139555000Y-103523000D01*
X138448623Y-103523000D01*
X138405958Y-103729764D01*
X136370000Y-103729764D01*
X136370000Y-101064250D01*
X138359000Y-101064250D01*
X138359000Y-101918647D01*
X138408479Y-102038098D01*
X138499903Y-102129522D01*
X138619354Y-102179000D01*
X139157230Y-102179000D01*
X138879798Y-102317065D01*
X138536230Y-102711702D01*
X138405958Y-103026236D01*
X138448623Y-103233000D01*
X139555000Y-103233000D01*
X139555000Y-102126100D01*
X139531451Y-102121299D01*
X139555000Y-102097750D01*
X139555000Y-100983000D01*
X139845000Y-100983000D01*
X139845000Y-102097750D01*
X139868549Y-102121299D01*
X139845000Y-102126100D01*
X139845000Y-103233000D01*
X140951377Y-103233000D01*
X140994042Y-103026236D01*
X140863770Y-102711702D01*
X140520202Y-102317065D01*
X140242770Y-102179000D01*
X140780646Y-102179000D01*
X140900097Y-102129522D01*
X140991521Y-102038098D01*
X141041000Y-101918647D01*
X141041000Y-101064250D01*
X140959750Y-100983000D01*
X139845000Y-100983000D01*
X139555000Y-100983000D01*
X138440250Y-100983000D01*
X138359000Y-101064250D01*
X136370000Y-101064250D01*
X136370000Y-100891340D01*
X141434636Y-100891340D01*
X141434636Y-103390700D01*
X141462876Y-103540784D01*
X141551576Y-103678627D01*
X141686916Y-103771101D01*
X141847570Y-103803634D01*
X143648430Y-103803634D01*
X143798514Y-103775394D01*
X143936357Y-103686694D01*
X144028831Y-103551354D01*
X144061364Y-103390700D01*
X144061364Y-101753966D01*
X144400330Y-101415000D01*
X145086829Y-101415000D01*
X145097855Y-101441686D01*
X145436531Y-101780953D01*
X145879259Y-101964790D01*
X146358638Y-101965208D01*
X146387127Y-101953437D01*
X147766845Y-103333155D01*
X147979343Y-103475142D01*
X148230000Y-103525000D01*
X150511157Y-103525000D01*
X150179047Y-103856531D01*
X149995210Y-104299259D01*
X149994792Y-104778638D01*
X150177855Y-105221686D01*
X150516531Y-105560953D01*
X150959259Y-105744790D01*
X151438638Y-105745208D01*
X151881686Y-105562145D01*
X152220953Y-105223469D01*
X152404790Y-104780741D01*
X152405119Y-104403548D01*
X152447346Y-104432401D01*
X152608000Y-104464934D01*
X153208000Y-104464934D01*
X153358084Y-104436694D01*
X153495927Y-104347994D01*
X153588401Y-104212654D01*
X153589835Y-104205574D01*
X153602478Y-104236097D01*
X153693902Y-104327521D01*
X153813353Y-104377000D01*
X153951750Y-104377000D01*
X154033000Y-104295750D01*
X154033000Y-103297000D01*
X154013000Y-103297000D01*
X154013000Y-103007000D01*
X154033000Y-103007000D01*
X154033000Y-102008250D01*
X153951750Y-101927000D01*
X153813353Y-101927000D01*
X153693902Y-101976479D01*
X153602478Y-102067903D01*
X153590075Y-102097846D01*
X153503994Y-101964073D01*
X153368654Y-101871599D01*
X153208000Y-101839066D01*
X152608000Y-101839066D01*
X152457916Y-101867306D01*
X152320073Y-101956006D01*
X152227599Y-102091346D01*
X152202559Y-102215000D01*
X148501310Y-102215000D01*
X147313717Y-101027407D01*
X147324790Y-101000741D01*
X147324791Y-100998638D01*
X149994792Y-100998638D01*
X150177855Y-101441686D01*
X150516531Y-101780953D01*
X150959259Y-101964790D01*
X151438638Y-101965208D01*
X151881686Y-101782145D01*
X152220953Y-101443469D01*
X152232774Y-101415000D01*
X154793000Y-101415000D01*
X154793000Y-102054170D01*
X154767599Y-102091346D01*
X154766165Y-102098426D01*
X154753522Y-102067903D01*
X154662098Y-101976479D01*
X154542647Y-101927000D01*
X154404250Y-101927000D01*
X154323000Y-102008250D01*
X154323000Y-103007000D01*
X154343000Y-103007000D01*
X154343000Y-103297000D01*
X154323000Y-103297000D01*
X154323000Y-104295750D01*
X154404250Y-104377000D01*
X154542647Y-104377000D01*
X154662098Y-104327521D01*
X154753522Y-104236097D01*
X154765925Y-104206154D01*
X154852006Y-104339927D01*
X154987346Y-104432401D01*
X155148000Y-104464934D01*
X155748000Y-104464934D01*
X155898084Y-104436694D01*
X156035927Y-104347994D01*
X156128401Y-104212654D01*
X156160934Y-104052000D01*
X156160934Y-102252000D01*
X156132694Y-102101916D01*
X156103000Y-102055770D01*
X156103000Y-101415000D01*
X156589670Y-101415000D01*
X156928636Y-101753966D01*
X156928636Y-103390700D01*
X156956876Y-103540784D01*
X157045576Y-103678627D01*
X157180916Y-103771101D01*
X157341570Y-103803634D01*
X159142430Y-103803634D01*
X159292514Y-103775394D01*
X159398626Y-103707113D01*
X159441328Y-103921793D01*
X159749362Y-104382799D01*
X160210368Y-104690833D01*
X160754161Y-104799000D01*
X160809839Y-104799000D01*
X161353632Y-104690833D01*
X161814638Y-104382799D01*
X162122672Y-103921793D01*
X162230839Y-103378000D01*
X162122672Y-102834207D01*
X161814638Y-102373201D01*
X161655598Y-102266934D01*
X161798000Y-102266934D01*
X161948084Y-102238694D01*
X162085927Y-102149994D01*
X162178401Y-102014654D01*
X162210934Y-101854000D01*
X162210934Y-99822000D01*
X162182694Y-99671916D01*
X162093994Y-99534073D01*
X161958654Y-99441599D01*
X161798000Y-99409066D01*
X159766000Y-99409066D01*
X159615916Y-99437306D01*
X159478073Y-99526006D01*
X159385599Y-99661346D01*
X159353066Y-99822000D01*
X159353066Y-100545090D01*
X159303084Y-100510939D01*
X159142430Y-100478406D01*
X157505696Y-100478406D01*
X157324135Y-100296845D01*
X157111638Y-100154859D01*
X156860980Y-100105000D01*
X152233171Y-100105000D01*
X152222145Y-100078314D01*
X151883469Y-99739047D01*
X151440741Y-99555210D01*
X150961362Y-99554792D01*
X150518314Y-99737855D01*
X150179047Y-100076531D01*
X149995210Y-100519259D01*
X149994792Y-100998638D01*
X147324791Y-100998638D01*
X147325208Y-100521362D01*
X147142145Y-100078314D01*
X146803469Y-99739047D01*
X146360741Y-99555210D01*
X145881362Y-99554792D01*
X145438314Y-99737855D01*
X145099047Y-100076531D01*
X145087226Y-100105000D01*
X144129020Y-100105000D01*
X143878362Y-100154859D01*
X143665865Y-100296845D01*
X143484304Y-100478406D01*
X141847570Y-100478406D01*
X141697486Y-100506646D01*
X141559643Y-100595346D01*
X141467169Y-100730686D01*
X141434636Y-100891340D01*
X136370000Y-100891340D01*
X136370000Y-99757353D01*
X138359000Y-99757353D01*
X138359000Y-100611750D01*
X138440250Y-100693000D01*
X139555000Y-100693000D01*
X139555000Y-99578250D01*
X139845000Y-99578250D01*
X139845000Y-100693000D01*
X140959750Y-100693000D01*
X141041000Y-100611750D01*
X141041000Y-99757353D01*
X140991521Y-99637902D01*
X140900097Y-99546478D01*
X140780646Y-99497000D01*
X139926250Y-99497000D01*
X139845000Y-99578250D01*
X139555000Y-99578250D01*
X139473750Y-99497000D01*
X138619354Y-99497000D01*
X138499903Y-99546478D01*
X138408479Y-99637902D01*
X138359000Y-99757353D01*
X136370000Y-99757353D01*
X136370000Y-99165000D01*
X163350000Y-99165000D01*
X163350000Y-121721178D01*
M02*
